<svg width="122" height="146" viewBox="0 0 122 146" fill="none" xmlns="http://www.w3.org/2000/svg">
<path d="M122 61.1873C122 27.375 94.6757 -6.10092e-07 61 -3.93085e-07C27.3243 -1.76078e-07 1.76405e-07 27.375 3.94292e-07 61.1873C5.79464e-07 89.9227 19.7489 114.013 46.3455 120.583L52.1676 130.736L61 146L69.7994 130.703L75.6215 120.55C102.251 113.98 122 89.8895 122 61.1873Z" fill="#EF6238"/>
<path d="M60.9577 115C90.7811 115 114.967 90.8234 114.979 61C114.991 31.1766 90.8234 7 61 7C31.1766 7 6.99053 31.1766 6.97884 61C6.96716 90.8234 31.1343 115 60.9577 115Z" fill="white"/>
<path d="M95.1307 90.2101C93.3102 92.1375 91.5759 93.3827 90.2187 94.3681C74.1901 105.933 55.2208 102.554 51.1921 101.731C45.2352 100.518 33.7308 98.1688 25.4149 88.3368C12.8225 73.4589 14.783 50.0159 24.5424 34.5533C26.3305 31.7163 35.7667 16.0047 54.9407 13.4926C66.542 11.9658 80.0608 15.041 89.8524 23.292C110.416 40.6063 108.951 75.5812 95.1307 90.2101Z" fill="#EEF5F9"/>
<path d="M33.7949 34.5194C33.7949 31.6716 36.0893 29.3652 38.9223 29.3652L82.5593 29.3652C84.9615 29.3652 86.9543 31.2602 87.0727 33.6748L90.2935 97.2686C90.3905 99.1636 88.904 100.755 87.0297 100.788L37.0157 101.697C35.2491 101.73 33.7949 100.301 33.7949 98.5139L33.7949 34.5194Z" fill="#1C1E23"/>
<path d="M44.3188 100.615L38.7174 100.539C36.8431 100.518 35.3242 98.9691 35.3242 97.085L35.3242 88.5957C35.3242 88.5307 35.3781 88.4766 35.4427 88.4766C35.5073 88.4766 35.5612 88.5307 35.5612 88.5957L35.5612 97.085C35.5612 98.8391 36.9723 100.279 38.7174 100.301L44.308 100.377C44.3726 100.377 44.4265 100.431 44.4265 100.496C44.4373 100.572 44.3834 100.615 44.3188 100.615Z" fill="#EF6238"/>
<path d="M35.4549 86.0831C35.39 86.0831 35.3359 86.029 35.3359 85.964L35.3359 84.5888C35.3359 84.5239 35.39 84.4697 35.4549 84.4697C35.5197 84.4697 35.5738 84.5239 35.5738 84.5888L35.5738 85.964C35.5738 86.0398 35.5197 86.0831 35.4549 86.0831Z" fill="#5A4762"/>
<path d="M37.373 30.3395C37.373 29.4299 38.1702 28.7261 39.0642 28.8452C45.0211 29.6573 65.5093 32.1694 82.4535 30.8592C83.229 30.7943 83.8969 31.3898 83.94 32.1694L87.3223 96.0448C87.3654 96.9218 86.7084 97.669 85.8358 97.7231C78.7156 98.1454 49.3622 99.7805 38.9027 98.6868C38.2671 98.6219 37.7824 98.0804 37.7824 97.4416L37.373 30.3395Z" fill="#EF6238"/>
<path d="M38.0742 31.942C38.0742 31.0649 38.839 30.3827 39.7008 30.5018C45.4314 31.2814 65.1548 33.6961 81.4527 32.4401C82.1959 32.3859 82.8422 32.949 82.8853 33.6961L86.1384 95.1676C86.1815 96.0122 85.546 96.7268 84.7058 96.781C77.8441 97.1924 49.6109 98.7625 39.5392 97.7014C38.9252 97.6364 38.462 97.1166 38.462 96.4994L38.0742 31.942Z" fill="white"/>
<path opacity="0.78" d="M43.3826 36.6849L43.9966 49.8628C44.0181 50.2959 44.3736 50.6532 44.8045 50.6641C47.2281 50.729 54.8008 50.9131 59.0665 50.6966C59.5512 50.6749 59.9282 50.2743 59.9498 49.787C60.0359 47.3182 60.2083 40.1175 59.6481 37.1181C59.562 36.6308 59.1419 36.2735 58.6464 36.2626L44.2982 35.7537C43.7811 35.7321 43.3503 36.1652 43.3826 36.6849Z" fill="#EF6238"/>
<g opacity="0.6">
<path opacity="0.6" d="M79.3093 37.8219C79.5786 37.8219 79.7941 37.627 79.7833 37.3779C79.7725 37.1397 79.5463 36.934 79.2878 36.9231L63.507 36.6416C63.2377 36.6416 63.0869 36.8365 63.1838 37.0964L63.27 37.3563C63.3561 37.6053 63.647 37.8219 63.9163 37.8219L79.3093 37.8219Z" fill="#EF6238"/>
</g>
<g opacity="0.6">
<path opacity="0.6" d="M63.4972 39.1104C63.2279 39.1104 63.0771 39.3053 63.174 39.5651L63.2602 39.825C63.3464 40.0741 63.6372 40.2906 63.9065 40.2906L79.2996 40.2906C79.5689 40.2906 79.7843 40.0957 79.7735 39.8467C79.7628 39.6084 79.5366 39.4027 79.278 39.3919L63.4972 39.1104Z" fill="#EF6238"/>
</g>
<g opacity="0.6">
<path opacity="0.6" d="M63.4952 41.6016C63.2259 41.6016 63.0751 41.7965 63.1721 42.0563L63.2583 42.3162C63.3444 42.5653 63.6353 42.7818 63.9046 42.7818L79.2976 42.7818C79.5669 42.7818 79.7824 42.5869 79.7716 42.3379C79.7608 42.0997 79.5346 41.8939 79.2761 41.8831L63.4952 41.6016Z" fill="#EF6238"/>
</g>
<g opacity="0.6">
<path opacity="0.6" d="M80.8372 54.8004C81.1065 54.8004 81.3112 54.6055 81.3004 54.3564C81.2896 54.1182 81.0527 53.9125 80.7834 53.9125L43.868 53.6201C43.5987 53.6201 43.5125 53.7934 43.6849 53.9991L44.0188 54.4214C44.1912 54.6271 44.5467 54.8004 44.8159 54.8004L80.8372 54.8004Z" fill="#EF6238"/>
</g>
<g opacity="0.6">
<path opacity="0.6" d="M43.8583 56.0781C43.589 56.0781 43.5028 56.2514 43.6751 56.4571L44.0091 56.8794C44.1814 57.0851 44.5369 57.2584 44.8062 57.2584L80.8382 57.2584C81.1075 57.2584 81.3122 57.0635 81.3014 56.8144C81.2906 56.5762 81.0537 56.3705 80.7844 56.3705L43.8583 56.0781Z" fill="#EF6238"/>
</g>
<path d="M43.7167 60.1701C44.6 60.1051 46.2589 60.0727 47.1745 60.0618C47.5623 60.051 47.8962 60.3217 47.9931 60.7007C48.1655 61.437 48.4132 62.7147 48.3809 64.0683C48.3702 64.4689 48.047 64.7938 47.6377 64.7938L44.2661 64.7613C43.8567 64.7613 43.512 64.4364 43.4689 64.025L43.1673 60.8415C43.1458 60.495 43.3935 60.2026 43.7167 60.1701Z" fill="#E4D4CF"/>
<g opacity="0.6">
<path opacity="0.6" d="M49.9336 61.4819C49.6643 61.471 49.4811 61.6768 49.5135 61.9475L49.5996 62.543C49.6427 62.8137 49.8905 63.0303 50.1598 63.0303L58.4003 63.0303C58.6696 63.0303 58.885 62.8137 58.885 62.543L58.885 62.3589C58.885 62.0882 58.6588 61.8608 58.3895 61.85L49.9336 61.4819Z" fill="#EF6238"/>
</g>
<path d="M65.7573 60.1701C66.6406 60.1051 68.2994 60.0727 69.215 60.0618C69.6028 60.051 69.9368 60.3217 70.0337 60.7007C70.2061 61.437 70.4538 62.7147 70.4215 64.0683C70.4107 64.4689 70.0876 64.7938 69.6782 64.7938L66.3066 64.7613C65.8973 64.7613 65.5526 64.4364 65.5095 64.025L65.2079 60.8415C65.1756 60.495 65.4234 60.2026 65.7573 60.1701Z" fill="#EF6238"/>
<g opacity="0.6">
<path opacity="0.6" d="M71.9609 61.4819C71.6916 61.471 71.5085 61.6768 71.5408 61.9475L71.627 62.543C71.6701 62.8137 71.9178 63.0303 72.1871 63.0303L80.4276 63.0303C80.6969 63.0303 80.9124 62.8137 80.9124 62.543L80.9124 62.3589C80.9124 62.0882 80.6861 61.8608 80.4168 61.85L71.9609 61.4819Z" fill="#EF6238"/>
</g>
<g opacity="0.6">
<path opacity="0.6" d="M42.6802 71.0868C42.7987 71.4333 43.1973 71.6715 43.6497 71.6607L80.5866 71.4117C81.0067 71.4117 81.3406 71.141 81.3298 70.8161C81.3191 70.5021 80.9851 70.2422 80.5866 70.2422L43.6497 70.1123C42.9926 70.1123 42.5187 70.5887 42.6802 71.0868Z" fill="#EF6238"/>
</g>
<g opacity="0.6">
<path opacity="0.6" d="M42.6802 77.788C42.7987 78.1345 43.1973 78.3727 43.6497 78.3619L80.5866 78.1128C81.0067 78.1128 81.3406 77.8421 81.3298 77.5173C81.3191 77.2033 80.9851 76.9434 80.5866 76.9434L43.6497 76.8135C42.9926 76.8135 42.5187 77.2899 42.6802 77.788Z" fill="#EF6238"/>
</g>
<g opacity="0.6">
<path opacity="0.6" d="M42.6802 84.4921C42.7987 84.8386 43.1973 85.0768 43.6497 85.066L80.5866 84.8169C81.0067 84.8169 81.3406 84.5462 81.3298 84.2214C81.3191 83.9074 80.9851 83.6475 80.5866 83.6475L43.6497 83.5176C42.9926 83.5176 42.5187 83.994 42.6802 84.4921Z" fill="#EF6238"/>
</g>
<g opacity="0.6">
<path opacity="0.6" d="M42.6802 91.1952C42.7987 91.5417 43.1973 91.7799 43.6497 91.7691L80.5866 91.5201C81.0067 91.5201 81.3406 91.2494 81.3298 90.9245C81.3191 90.6105 80.9851 90.3506 80.5866 90.3506L43.6497 90.2207C42.9926 90.2207 42.5187 90.708 42.6802 91.1952Z" fill="#EF6238"/>
</g>
<path d="M63.4509 20.6917C61.8782 19.5873 60.4994 19.6089 59.5407 19.9013C58.6574 20.1612 58.0865 21.0166 58.1726 21.937L58.5927 26.5065L63.5478 26.9504C63.5371 26.9396 66.5424 22.8574 63.4509 20.6917ZM61.275 24.3733C60.5963 24.3733 60.0362 23.8211 60.0362 23.1281C60.0362 22.4459 60.5855 21.8828 61.275 21.8828C61.9536 21.8828 62.5137 22.4351 62.5137 23.1281C62.503 23.8211 61.9536 24.3733 61.275 24.3733Z" fill="#2D2D2D"/>
<path d="M51.8262 29.4407L51.8262 27.1451C51.8262 26.3546 52.4833 25.7158 53.2696 25.7483L69.0074 26.2897C69.7075 26.3113 70.2677 26.8636 70.3108 27.5674L70.44 29.7763L51.8262 29.4407Z" fill="#2D2D2D"/>
<path d="M45.4176 30.0259C45.4607 29.2355 46.107 28.6074 46.9042 28.6074L74.4264 28.6074C75.4174 28.6074 76.2576 29.3221 76.4299 30.3074L76.4515 30.4374C76.6346 31.5094 75.8159 32.4947 74.728 32.4947L46.484 32.4947C45.8377 32.4947 45.3207 31.9533 45.353 31.2928L45.4176 30.0259Z" fill="#1C1E23"/>
</svg>
