<svg width="122" height="146" viewBox="0 0 122 146" fill="none" xmlns="http://www.w3.org/2000/svg">
<path d="M122 61.1873C122 27.375 94.6757 8.11833e-06 61 5.23068e-06C27.3243 2.34303e-06 -2.3477e-06 27.375 -5.24746e-06 61.1873C-7.71183e-06 89.9227 19.7489 114.013 46.3454 120.583L52.1676 130.736L61 146L69.7993 130.703L75.6215 120.55C102.251 113.98 122 89.8895 122 61.1873Z" fill="#EF6238"/>
<path d="M61.0195 115C90.8428 115 115.015 90.8234 115.01 61C115.004 31.1766 90.8234 7 61 7C31.1766 7 7.00436 31.1766 7.00973 61C7.0151 90.8234 31.1961 115 61.0195 115Z" fill="white"/>
<path d="M93.857 84.8728C92.3851 86.4223 90.9911 87.4178 89.8915 88.2142C76.9562 97.485 61.6485 94.7843 58.393 94.1264C53.5877 93.1482 44.3061 91.2698 37.596 83.3753C27.4399 71.4383 29.0244 52.6197 36.9034 40.2066C38.3406 37.93 45.9512 25.3178 61.4234 23.3009C70.7829 22.0804 81.7009 24.5474 89.6058 31.1608C106.186 45.0627 105.009 73.135 93.857 84.8728Z" fill="#EEF5F9"/>
<path d="M74.8719 39.7316L52.8022 37.7666L30.7324 39.9913V87.2457L52.8022 86.0771L74.8719 87.3756L96.9244 85.3933V38.6322L74.8719 39.7316Z" fill="#1C1E23"/>
<path d="M53.2768 85.4717L32.3066 86.5797V41.749L53.2768 39.6455V85.4717Z" fill="#EEF5F9"/>
<path d="M74.2475 86.2248L53.2773 84.9956V39.6455L74.2475 41.0392V86.2248Z" fill="#EEF5F9"/>
<path d="M95.1922 84.3458L74.248 86.2243V41.0386L95.1922 39.9912V84.3458Z" fill="#EEF5F9"/>
<path opacity="0.47" d="M52.8008 85.0125H53.277V39.1689L52.8008 39.645V85.0125Z" fill="#1C1E23"/>
<path d="M32.4788 58.2941C34.271 61.8951 38.1326 65.0201 41.5439 67.1495C43.0937 68.119 44.7215 69.0366 46.5051 69.4347C48.2887 69.8329 50.28 69.6598 51.7606 68.5778C53.9078 67.011 54.7304 63.8082 57.2412 62.9339C58.2716 62.579 59.4144 62.7002 60.4707 62.4318C61.7089 62.1202 62.7565 61.2979 63.7609 60.5188C66.7653 58.1816 69.709 55.1346 73.4148 54.1218C74.6962 53.7756 76.0382 53.5159 77.1638 52.8147C78.9127 51.7327 79.8738 49.7418 80.5837 47.8114C81.4496 45.4483 81.9171 43.1642 82.2808 40.6798C84.4816 40.5191 86.0124 40.5315 88.0038 40.3584C85.2159 44.2104 83.1725 48.478 82.2808 53.1437C82.1076 54.0439 81.9777 54.9788 82.1682 55.8791C82.7483 58.5365 87.3198 60.3543 89.2939 61.9644C91.5017 63.7649 93.5451 65.8164 95.346 68.0324V71.3478C89.7181 65.349 83.9778 62.856 77.9776 60.5448C74.0728 57.8354 70.6355 63.1676 70.142 66.6647C69.9255 68.2402 70.0987 69.8675 69.6658 71.3997C68.7393 74.6804 65.2674 76.5935 61.934 77.3119C59.5963 77.814 57.3192 78.0823 55.2066 79.2682C53.3018 80.3416 51.6913 80.6792 49.6567 79.2769C45.2583 76.2299 41.0591 72.802 37.5352 68.7595C35.7256 66.682 32.3316 64.0852 32.4095 61.3065C32.4961 59.2031 32.3403 58.3807 32.4788 58.2941Z" fill="#D5DBDF"/>
<path d="M31.8343 70.1058C31.7823 70.1058 31.7391 70.0885 31.6958 70.0538C31.6005 69.9759 31.5919 69.8374 31.6698 69.7509L32.3365 68.9545C32.4144 68.8593 32.5529 68.8506 32.6395 68.9285C32.7347 69.0064 32.7434 69.1449 32.6655 69.2315L31.9988 70.0279C31.9555 70.0798 31.8949 70.1058 31.8343 70.1058ZM33.159 68.513C33.107 68.513 33.0638 68.4957 33.0205 68.4611C32.9252 68.3832 32.9166 68.2447 32.9945 68.1581L33.6612 67.3617C33.7391 67.2665 33.8776 67.2579 33.9642 67.3358C34.0595 67.4137 34.0681 67.5522 33.9902 67.6387L33.3235 68.4351C33.2889 68.4871 33.2196 68.513 33.159 68.513ZM34.4924 66.9116C34.4404 66.9116 34.3971 66.8943 34.3538 66.8597C34.2586 66.7818 34.2499 66.6433 34.3279 66.5567L34.9945 65.7603C35.0725 65.6651 35.211 65.6565 35.2976 65.7344C35.3928 65.8123 35.4015 65.9508 35.3235 66.0373L34.6569 66.8337C34.6136 66.8857 34.553 66.9116 34.4924 66.9116ZM35.8257 65.3189C35.7738 65.3189 35.7305 65.3016 35.6872 65.2669C35.592 65.189 35.5833 65.0505 35.6612 64.964L36.3279 64.1676C36.4058 64.0724 36.5444 64.0637 36.6309 64.1416C36.7262 64.2195 36.7348 64.358 36.6569 64.4446L35.9902 65.241C35.9469 65.2929 35.8863 65.3189 35.8257 65.3189ZM37.1504 63.7261C37.0985 63.7261 37.0552 63.7088 37.0119 63.6742C36.9167 63.5963 36.908 63.4578 36.9859 63.3712L37.6526 62.5748C37.7305 62.4796 37.8691 62.471 37.9556 62.5489C38.0509 62.6268 38.0595 62.7653 37.9816 62.8518L37.3149 63.6482C37.2803 63.7002 37.211 63.7261 37.1504 63.7261ZM38.4838 62.1247C38.4318 62.1247 38.3886 62.1074 38.3453 62.0728C38.25 61.9949 38.2414 61.8564 38.3193 61.7698L38.986 60.9734C39.0639 60.8782 39.2024 60.8696 39.289 60.9475C39.3842 61.0254 39.3929 61.1639 39.315 61.2504L38.6483 62.0468C38.605 62.0987 38.5444 62.1247 38.4838 62.1247ZM39.8172 60.532C39.7652 60.532 39.7219 60.5147 39.6786 60.48C39.5834 60.4021 39.5747 60.2636 39.6526 60.1771L40.3193 59.3807C40.3973 59.2855 40.5358 59.2768 40.6224 59.3547C40.7176 59.4326 40.7263 59.5711 40.6483 59.6577L39.9817 60.4541C39.9384 60.506 39.8778 60.532 39.8172 60.532ZM41.1419 58.9306C41.0899 58.9306 41.0466 58.9132 41.0033 58.8786C40.9081 58.8007 40.8994 58.6622 40.9774 58.5757L41.644 57.7793C41.722 57.6841 41.8605 57.6754 41.9471 57.7533C42.0423 57.8312 42.051 57.9697 41.973 58.0563L41.3064 58.8527C41.2631 58.9046 41.2025 58.9306 41.1419 58.9306ZM42.4752 57.3378C42.4233 57.3378 42.38 57.3205 42.3367 57.2859C42.2415 57.208 42.2328 57.0695 42.3107 56.9829L42.9774 56.1865C43.0553 56.0913 43.1939 56.0827 43.2804 56.1606C43.3757 56.2385 43.3843 56.377 43.3064 56.4635L42.6397 57.2599C42.5964 57.3118 42.5358 57.3378 42.4752 57.3378ZM43.7999 55.7451C43.748 55.7451 43.7047 55.7277 43.6614 55.6931C43.5662 55.6152 43.5575 55.4767 43.6354 55.3902L44.3021 54.5938C44.38 54.4986 44.5186 54.4899 44.6051 54.5678C44.7004 54.6457 44.709 54.7842 44.6311 54.8708L43.9644 55.6672C43.9298 55.7191 43.8692 55.7451 43.7999 55.7451ZM45.1333 54.1436C45.0813 54.1436 45.0381 54.1263 44.9948 54.0917C44.8995 54.0138 44.8909 53.8753 44.9688 53.7887L45.6355 52.9924C45.7134 52.8972 45.8519 52.8885 45.9385 52.9664C46.0337 53.0443 46.0424 53.1828 45.9645 53.2694L45.2978 54.0657C45.2545 54.1177 45.1939 54.1436 45.1333 54.1436ZM46.6745 52.8452C46.5879 52.8452 46.5013 52.7933 46.4753 52.7067C46.432 52.5942 46.4926 52.473 46.6052 52.4297L47.5836 52.0661C47.6961 52.0229 47.8173 52.0835 47.8606 52.196C47.9039 52.3085 47.8433 52.4297 47.7308 52.473L46.7524 52.8366C46.7177 52.8366 46.7004 52.8452 46.6745 52.8452ZM48.6225 52.1181C48.536 52.1181 48.4494 52.0661 48.4234 51.9796C48.3801 51.8671 48.4407 51.7459 48.5533 51.7026L49.5317 51.339C49.6442 51.2957 49.7654 51.3563 49.8087 51.4689C49.852 51.5814 49.7914 51.7026 49.6788 51.7459L48.7005 52.1094C48.6745 52.1181 48.6485 52.1181 48.6225 52.1181ZM50.5706 51.3996C50.4841 51.3996 50.3975 51.3477 50.3715 51.2611C50.3282 51.1486 50.3888 51.0274 50.5014 50.9841L51.4798 50.6206C51.5923 50.5773 51.7135 50.6379 51.7568 50.7504C51.8001 50.8629 51.7395 50.9841 51.6269 51.0274L50.6486 51.391C50.6226 51.3996 50.5966 51.3996 50.5706 51.3996ZM52.5187 50.6811C52.4322 50.6811 52.3456 50.6292 52.3196 50.5427C52.2763 50.4301 52.3369 50.3089 52.4495 50.2656L52.8304 50.1271C53.0209 50.0406 53.2114 49.9627 53.4019 49.8761C53.5144 49.8242 53.6356 49.8761 53.6876 49.9886C53.7395 50.1012 53.6876 50.2224 53.575 50.2743C53.3846 50.3609 53.1941 50.4388 52.9949 50.5253L52.9863 50.534L52.6053 50.6725C52.5707 50.6725 52.5447 50.6811 52.5187 50.6811ZM54.4235 49.8588C54.337 49.8588 54.259 49.8155 54.2244 49.729C54.1725 49.6164 54.2244 49.4952 54.3283 49.4433C54.6573 49.2961 54.9777 49.149 55.272 49.0105C55.3759 48.9586 55.5058 49.0018 55.5578 49.1144C55.6097 49.2182 55.5664 49.3481 55.4539 49.4C55.1595 49.5385 54.8391 49.6857 54.5101 49.8328C54.4841 49.8502 54.4582 49.8588 54.4235 49.8588ZM56.311 48.9759C56.2331 48.9759 56.1552 48.9326 56.1206 48.8547C56.0686 48.7508 56.1119 48.621 56.2158 48.569C56.5361 48.4132 56.8478 48.2487 57.1336 48.1016C57.2375 48.0496 57.3673 48.0843 57.4279 48.1881C57.4799 48.292 57.4453 48.4219 57.3414 48.4825C57.047 48.6383 56.7353 48.7941 56.4149 48.9586C56.3716 48.9672 56.337 48.9759 56.311 48.9759ZM58.1466 47.9977C58.0686 47.9977 57.9994 47.9544 57.9561 47.8852C57.8955 47.7813 57.9301 47.6515 58.034 47.5909C58.3457 47.4091 58.6401 47.236 58.9172 47.0628C59.021 47.0022 59.1509 47.0282 59.2202 47.1321C59.2808 47.236 59.2548 47.3658 59.1509 47.4351C58.8739 47.6082 58.5708 47.79 58.2505 47.9804C58.2158 47.9891 58.1812 47.9977 58.1466 47.9977ZM59.8955 46.8811C59.8263 46.8811 59.7657 46.8464 59.7224 46.7945C59.6531 46.6993 59.6704 46.5608 59.7657 46.4915C60.06 46.2751 60.3284 46.0674 60.5622 45.8596C60.6488 45.7817 60.7873 45.7904 60.8652 45.8769C60.9432 45.9635 60.9345 46.102 60.8479 46.1799C60.6055 46.3963 60.3198 46.6214 60.0167 46.8378C59.9821 46.8637 59.9388 46.8811 59.8955 46.8811ZM74.2422 46.7512L74.1642 46.7079C73.8699 46.5694 73.5582 46.4309 73.2378 46.3011C73.1253 46.2578 73.0733 46.128 73.1166 46.0241C73.1599 45.9116 73.2898 45.8596 73.3937 45.9029C73.6967 46.0241 73.9997 46.1539 74.2941 46.2924C74.372 46.3011 74.4413 46.353 74.4759 46.4309C74.5192 46.5435 74.4586 46.6646 74.3461 46.7079L74.2422 46.7512ZM75.2465 46.379C75.1599 46.379 75.0734 46.3271 75.0387 46.2318C74.9954 46.1193 75.056 45.9981 75.1686 45.9548L76.147 45.6086C76.2595 45.5653 76.3807 45.6259 76.424 45.7384C76.4673 45.851 76.4067 45.9721 76.2942 46.0154L75.3158 46.3617C75.2985 46.3703 75.2725 46.379 75.2465 46.379ZM72.3374 45.9721C72.3114 45.9721 72.2941 45.9721 72.2681 45.9635C71.9477 45.8596 71.6187 45.7644 71.2811 45.6692C71.1685 45.6346 71.0992 45.522 71.1252 45.4008C71.1598 45.2883 71.2724 45.2191 71.3936 45.245C71.7399 45.3402 72.0776 45.4355 72.398 45.5393C72.5105 45.574 72.5711 45.6951 72.5365 45.8163C72.5105 45.9116 72.4326 45.9721 72.3374 45.9721ZM77.2033 45.6778C77.1167 45.6778 77.0301 45.6259 76.9955 45.5307C76.9522 45.4181 77.0128 45.297 77.1253 45.2537L78.1037 44.9074C78.2163 44.8641 78.3375 44.9247 78.3808 45.0373C78.4241 45.1498 78.3635 45.271 78.2509 45.3143L77.2725 45.6605C77.2552 45.6778 77.2292 45.6778 77.2033 45.6778ZM61.4367 45.4961C61.3847 45.4961 61.3414 45.4787 61.2982 45.4441C61.2029 45.3662 61.1943 45.2277 61.2722 45.1411C61.48 44.8901 61.6531 44.6477 61.7917 44.3967L61.8523 44.2842H62.0687C62.1899 44.2842 62.2852 44.3794 62.2852 44.5006C62.2852 44.6045 62.2073 44.691 62.112 44.717C61.9735 44.9507 61.8003 45.1931 61.6012 45.4181C61.5579 45.4701 61.4973 45.4961 61.4367 45.4961ZM70.3287 45.4355C70.3113 45.4355 70.294 45.4355 70.2854 45.4268C69.9564 45.3576 69.6187 45.2883 69.2724 45.2277C69.1511 45.2104 69.0732 45.0979 69.0992 44.9767C69.1165 44.8555 69.2291 44.7776 69.3503 44.8036C69.6966 44.8641 70.0429 44.9334 70.3806 45.0026C70.4932 45.0286 70.5711 45.1412 70.5451 45.2623C70.5191 45.3662 70.4326 45.4355 70.3287 45.4355ZM68.2853 45.0719C68.2767 45.0719 68.268 45.0719 68.2593 45.0719C67.9303 45.0286 67.584 44.9853 67.2377 44.9507C67.1165 44.9421 67.0299 44.8295 67.0472 44.717C67.0559 44.5958 67.1684 44.5092 67.281 44.5266C67.636 44.5612 67.9823 44.6045 68.32 44.6477C68.4412 44.6651 68.5191 44.7689 68.5018 44.8901C68.4845 44.994 68.3892 45.0719 68.2853 45.0719ZM79.16 44.9853C79.0734 44.9853 78.9869 44.9334 78.9522 44.8382C78.9089 44.7256 78.9695 44.6045 79.0821 44.5612L79.3418 44.466C79.4544 44.4227 79.5756 44.4833 79.6189 44.5958C79.6622 44.7083 79.6016 44.8295 79.489 44.8728L79.2293 44.968C79.212 44.9767 79.186 44.9853 79.16 44.9853ZM66.216 44.8641C66.2074 44.8641 66.2074 44.8641 66.1987 44.8641C65.861 44.8382 65.5147 44.8122 65.1684 44.7949C65.0472 44.7862 64.9606 44.691 64.9606 44.5698C64.9692 44.4486 65.0645 44.3621 65.1857 44.3621C65.5407 44.3794 65.887 44.4054 66.2247 44.4313C66.3459 44.44 66.4325 44.5439 66.4238 44.6651C66.4238 44.7776 66.3286 44.8641 66.216 44.8641ZM64.1467 44.7516C64.138 44.7516 64.138 44.7516 64.1467 44.7516C63.8004 44.743 63.454 44.7343 63.1077 44.7256C62.9865 44.7256 62.8913 44.6218 62.8913 44.5092C62.8913 44.3881 62.9952 44.2928 63.1077 44.2928C63.4627 44.3015 63.809 44.3101 64.1467 44.3188C64.2679 44.3188 64.3632 44.4227 64.3545 44.5439C64.3545 44.6564 64.2593 44.7516 64.1467 44.7516Z" fill="#1C1E23"/>
<path d="M74.3129 71.9313C74.287 71.9313 74.261 71.9313 74.2437 71.9227C74.1311 71.8794 74.0705 71.7582 74.1138 71.6457C74.2263 71.3167 74.3476 70.9878 74.4688 70.6675C74.5121 70.555 74.6333 70.503 74.7458 70.5463C74.8584 70.5896 74.9103 70.7108 74.8671 70.8233C74.7458 71.1436 74.6246 71.4725 74.5121 71.7928C74.4861 71.8707 74.4082 71.9313 74.3129 71.9313ZM35.0913 71.9227C35.0047 71.9227 34.9268 71.8707 34.8921 71.7842C34.8489 71.6716 34.9008 71.5505 35.0134 71.4985C35.3337 71.3687 35.6627 71.2388 35.9831 71.109C36.0956 71.0657 36.2168 71.1176 36.2601 71.2302C36.3034 71.3427 36.2515 71.4639 36.1389 71.5072C35.8186 71.637 35.4982 71.7669 35.1779 71.8967C35.1432 71.914 35.1173 71.9227 35.0913 71.9227ZM73.525 71.663C73.4904 71.663 73.4471 71.6543 73.4125 71.6284C73.1181 71.4552 72.8151 71.2821 72.5207 71.109C72.4168 71.0484 72.3822 70.9185 72.4428 70.8147C72.5034 70.7108 72.6332 70.6762 72.7371 70.7368C73.0402 70.9099 73.3432 71.083 73.6376 71.2648C73.7415 71.3254 73.7761 71.4552 73.7155 71.5591C73.6722 71.6284 73.603 71.663 73.525 71.663ZM37.0221 71.1523C36.9355 71.1523 36.8576 71.1003 36.8229 71.0138C36.7796 70.9012 36.8316 70.78 36.9441 70.7368C37.2732 70.6069 37.5935 70.4857 37.9139 70.3645C38.0264 70.3213 38.1476 70.3819 38.1909 70.4944C38.2342 70.6069 38.1736 70.7281 38.061 70.7714C37.7407 70.8926 37.4117 71.0138 37.0913 71.1436C37.0827 71.1523 37.048 71.1523 37.0221 71.1523ZM71.7241 70.6415C71.6895 70.6415 71.6549 70.6329 71.6202 70.6156C71.3172 70.4511 71.0142 70.2866 70.7025 70.1308C70.5986 70.0789 70.5553 69.949 70.6072 69.8365C70.6592 69.7326 70.789 69.6894 70.9016 69.7413C71.2133 69.8971 71.5163 70.0616 71.828 70.226C71.9319 70.2866 71.9752 70.4165 71.9146 70.5204C71.8713 70.5983 71.7934 70.6415 71.7241 70.6415ZM38.9702 70.4251C38.8836 70.4251 38.797 70.3732 38.771 70.2866C38.7277 70.1741 38.7883 70.0529 38.9009 70.0096C39.2299 69.8884 39.5589 69.7759 39.8793 69.6547C39.9918 69.6115 40.113 69.672 40.1563 69.7846C40.1996 69.8971 40.139 70.0183 40.0265 70.0616C39.6974 70.1741 39.3771 70.2953 39.0481 70.4165C39.0221 70.4165 38.9961 70.4251 38.9702 70.4251ZM75.0575 69.9923C75.0316 69.9923 75.0056 69.9837 74.971 69.975C74.8584 69.9317 74.8064 69.8019 74.8584 69.6894C74.9883 69.3691 75.1355 69.0488 75.274 68.7285C75.3259 68.616 75.4472 68.5727 75.5597 68.6246C75.6723 68.6766 75.7156 68.8064 75.6636 68.9103C75.5251 69.2219 75.3865 69.5422 75.248 69.8538C75.222 69.9404 75.1441 69.9923 75.0575 69.9923ZM40.9356 69.724C40.849 69.724 40.7624 69.6634 40.7278 69.5768C40.6931 69.4643 40.7451 69.3431 40.8663 69.2998C41.1953 69.1873 41.5243 69.0748 41.8533 68.9622C41.9659 68.9276 42.0871 68.9882 42.1304 69.1007C42.165 69.2133 42.1044 69.3345 41.9919 69.3777C41.6629 69.4903 41.3338 69.5941 41.0048 69.7067C40.9789 69.724 40.9615 69.724 40.9356 69.724ZM69.8713 69.698C69.8366 69.698 69.8107 69.6894 69.776 69.672C69.473 69.5249 69.1526 69.3691 68.841 69.2306C68.7284 69.1786 68.6851 69.0488 68.737 68.9449C68.789 68.8324 68.9189 68.7891 69.0228 68.841C69.3345 68.9882 69.6548 69.1354 69.9665 69.2912C70.0704 69.3431 70.1224 69.4729 70.0704 69.5768C70.0271 69.6461 69.9492 69.698 69.8713 69.698ZM42.9096 69.0748C42.8144 69.0748 42.7365 69.0142 42.7018 68.9276C42.6672 68.8151 42.7278 68.6939 42.8404 68.6593C43.1694 68.5554 43.5071 68.4515 43.8361 68.3476C43.9486 68.313 44.0698 68.3736 44.1045 68.4948C44.1391 68.6073 44.0785 68.7285 43.9573 68.7631C43.6283 68.867 43.2993 68.9709 42.9702 69.0748C42.9529 69.0661 42.9356 69.0748 42.9096 69.0748ZM67.9838 68.8237C67.9578 68.8237 67.9232 68.8151 67.8972 68.8064C67.5855 68.6679 67.2652 68.5294 66.9448 68.3996C66.8322 68.3563 66.7803 68.2264 66.8236 68.1139C66.8669 68.0014 66.9967 67.9495 67.1093 67.9927C67.4297 68.1226 67.75 68.2611 68.0704 68.3996C68.1829 68.4515 68.2262 68.5727 68.1829 68.6852C68.1483 68.7718 68.0704 68.8237 67.9838 68.8237ZM44.901 68.4602C44.8058 68.4602 44.7192 68.3996 44.6932 68.3044C44.6586 68.1918 44.7279 68.0706 44.8404 68.036C45.1694 67.9408 45.5071 67.8369 45.8448 67.7417C45.9573 67.7071 46.0785 67.7763 46.1132 67.8889C46.1478 68.0014 46.0785 68.1226 45.966 68.1572C45.637 68.2524 45.2993 68.3476 44.9703 68.4429C44.9357 68.4515 44.9183 68.4602 44.901 68.4602ZM75.9147 68.0966C75.8801 68.0966 75.8541 68.0879 75.8195 68.0706C75.7156 68.0187 75.6636 67.8889 75.7156 67.785C75.8628 67.4734 76.0273 67.1617 76.1831 66.8501C76.2351 66.7462 76.3649 66.7029 76.4775 66.7549C76.5814 66.8068 76.6247 66.9367 76.5727 67.0492C76.4169 67.3522 76.2524 67.6638 76.1052 67.9668C76.0705 68.0533 75.9926 68.0966 75.9147 68.0966ZM66.0617 68.0274C66.0357 68.0274 66.0097 68.0187 65.9837 68.01C65.6634 67.8889 65.343 67.759 65.014 67.6378C64.9015 67.5945 64.8409 67.4734 64.8841 67.3608C64.9274 67.2483 65.0487 67.1877 65.1612 67.231C65.4902 67.3522 65.8192 67.4734 66.1396 67.6032C66.2521 67.6465 66.3041 67.7763 66.2608 67.8802C66.2348 67.9754 66.1482 68.0274 66.0617 68.0274ZM46.9011 67.8889C46.8058 67.8889 46.7192 67.8283 46.6933 67.733C46.6586 67.6205 46.7279 67.4993 46.8491 67.4647C47.1868 67.3695 47.5245 67.2829 47.8535 67.1964C47.966 67.1704 48.0872 67.2396 48.1132 67.3522C48.1392 67.4647 48.0699 67.5859 47.9574 67.6119C47.6284 67.6984 47.2907 67.785 46.953 67.8802C46.9357 67.8889 46.9184 67.8889 46.9011 67.8889ZM48.9184 67.3695C48.8232 67.3695 48.7366 67.3002 48.7106 67.205C48.6847 67.0925 48.7539 66.9713 48.8665 66.9453C49.2042 66.8588 49.5418 66.7809 49.8795 66.7029C49.992 66.677 50.1133 66.7462 50.1392 66.8674C50.1652 66.98 50.0959 67.1011 49.9747 67.1271C49.6371 67.205 49.2994 67.2829 48.9617 67.3695C48.9444 67.3695 48.9271 67.3695 48.9184 67.3695ZM64.1136 67.3089C64.0876 67.3089 64.0616 67.3089 64.0443 67.3002C63.724 67.1877 63.3949 67.0752 63.0659 66.9713C62.9534 66.9367 62.8928 66.8155 62.9274 66.6943C62.962 66.5818 63.0832 66.5212 63.2045 66.5558C63.5335 66.6683 63.8711 66.7809 64.1915 66.8934C64.3041 66.9367 64.3647 67.0579 64.3214 67.1704C64.2867 67.2483 64.2088 67.3089 64.1136 67.3089ZM50.9444 66.902C50.8406 66.902 50.754 66.8328 50.7367 66.7289C50.7107 66.6164 50.7886 66.4952 50.9012 66.4692C51.2388 66.3913 51.5852 66.3221 51.9228 66.2528C52.044 66.2269 52.1566 66.3048 52.1739 66.426C52.1999 66.5471 52.122 66.6597 52.0007 66.677C51.6631 66.7462 51.3254 66.8155 50.9877 66.8934C50.9704 66.902 50.9531 66.902 50.9444 66.902ZM62.1395 66.6597C62.1222 66.6597 62.0962 66.6597 62.0789 66.651C61.7499 66.5471 61.4122 66.4519 61.0832 66.3567C60.9706 66.3221 60.9014 66.2009 60.936 66.0884C60.9706 65.9758 61.0919 65.9066 61.2044 65.9412C61.5334 66.0364 61.8711 66.1403 62.2001 66.2442C62.3127 66.2788 62.3819 66.4 62.3473 66.5125C62.3213 66.5991 62.2347 66.6597 62.1395 66.6597ZM52.9791 66.4865C52.8752 66.4865 52.7886 66.4173 52.7627 66.3134C52.7367 66.1922 52.8146 66.0797 52.9358 66.0624C53.2822 66.0018 53.6198 65.9325 53.9662 65.8806C54.0874 65.8633 54.1999 65.9412 54.2172 66.0537C54.2346 66.1749 54.1566 66.2875 54.0441 66.3048C53.7064 66.3654 53.3601 66.4259 53.0224 66.4865C53.0051 66.4865 52.9964 66.4865 52.9791 66.4865ZM76.8758 66.2528C76.8411 66.2528 76.8065 66.2442 76.7719 66.2269C76.668 66.1663 76.6333 66.0364 76.6853 65.9325C76.8498 65.6296 77.0229 65.3266 77.2048 65.0236C77.2654 64.9198 77.3953 64.8851 77.4991 64.9457C77.603 65.0063 77.6377 65.1362 77.5771 65.24C77.4039 65.543 77.2307 65.8373 77.0662 66.1403C77.0229 66.2182 76.9537 66.2528 76.8758 66.2528ZM55.0311 66.1316C54.9272 66.1316 54.832 66.0537 54.8147 65.9499C54.7973 65.8287 54.8753 65.7248 54.9965 65.6988C55.3428 65.6469 55.6891 65.595 56.0268 65.543C56.148 65.5257 56.2519 65.6123 56.2692 65.7248C56.2866 65.846 56.2 65.9499 56.0874 65.9672C55.7498 66.0191 55.4034 66.071 55.0658 66.123C55.0484 66.1316 55.0398 66.1316 55.0311 66.1316ZM60.1481 66.0797C60.1308 66.0797 60.1135 66.0797 60.0875 66.071C59.7585 65.9845 59.4208 65.8893 59.0832 65.8114C58.9706 65.7854 58.9013 65.6642 58.9273 65.5517C58.9533 65.4391 59.0745 65.3699 59.1871 65.3959C59.5247 65.4824 59.8624 65.569 60.2001 65.6642C60.3126 65.6988 60.3819 65.8114 60.3559 65.9325C60.3299 66.0191 60.2434 66.0797 60.1481 66.0797ZM57.0918 65.8373C56.9879 65.8373 56.8926 65.7594 56.8753 65.6469C56.858 65.5257 56.9446 65.4218 57.0658 65.4045C57.4035 65.3612 57.7585 65.318 58.1048 65.2833C58.226 65.266 58.3299 65.3526 58.3472 65.4738C58.3645 65.595 58.2779 65.6988 58.1567 65.7161C57.8104 65.7508 57.4641 65.794 57.1264 65.8373C57.1091 65.8373 57.1004 65.8373 57.0918 65.8373ZM77.9234 64.4696C77.8888 64.4696 77.8455 64.461 77.8108 64.435C77.7069 64.3744 77.681 64.2359 77.7416 64.1407C77.9234 63.855 78.1052 63.5521 78.2957 63.2578C78.365 63.1539 78.4948 63.1279 78.5987 63.1972C78.7026 63.2664 78.7286 63.3963 78.6594 63.5001C78.4689 63.7945 78.287 64.0888 78.1052 64.3744C78.0706 64.4264 78.0013 64.4696 77.9234 64.4696ZM79.0576 62.7211C79.0143 62.7211 78.971 62.7124 78.9364 62.6865C78.8412 62.6172 78.8152 62.4874 78.8758 62.3835C79.0663 62.0978 79.2654 61.8122 79.4646 61.5265C79.5338 61.4313 79.6724 61.4053 79.7676 61.4746C79.8628 61.5438 79.8888 61.6823 79.8195 61.7775C79.6204 62.0632 79.4213 62.3489 79.2308 62.6259C79.1962 62.6865 79.1269 62.7211 79.0576 62.7211ZM80.2438 61.0245C80.2005 61.0245 80.1572 61.0071 80.1139 60.9812C80.0187 60.9119 79.9927 60.7734 80.062 60.6782C80.2611 60.4099 80.4689 60.1242 80.6767 59.8385C80.746 59.7433 80.8845 59.726 80.9797 59.7953C81.075 59.8645 81.0923 60.003 81.023 60.0982C80.8066 60.3839 80.6074 60.6609 80.4083 60.9292C80.3823 60.9898 80.3131 61.0245 80.2438 61.0245ZM81.4906 59.3625C81.4473 59.3625 81.3953 59.3451 81.3607 59.3192C81.2655 59.2499 81.2481 59.1114 81.3174 59.0162C81.5252 58.7479 81.7417 58.4709 81.9581 58.1939C82.036 58.0986 82.1659 58.0813 82.2612 58.1592C82.3564 58.2371 82.3737 58.367 82.2958 58.4622C82.0793 58.7392 81.8629 59.0075 81.6551 59.2759C81.6205 59.3278 81.5598 59.3625 81.4906 59.3625ZM82.7807 57.7264C82.7287 57.7264 82.6854 57.7091 82.6421 57.6745C82.5469 57.5966 82.5382 57.4667 82.6075 57.3715C82.8239 57.1032 83.0404 56.8348 83.2655 56.5665C83.3434 56.4713 83.482 56.4626 83.5685 56.5405C83.6638 56.6184 83.6724 56.7569 83.5945 56.8435C83.3694 57.1118 83.153 57.3802 82.9365 57.6485C82.9019 57.7005 82.8413 57.7264 82.7807 57.7264ZM84.2006 56.3068C84.0967 56.3068 84.0101 56.2289 83.9841 56.125C83.9668 56.0038 84.0448 55.8913 84.1573 55.874C84.4777 55.822 84.8067 55.7441 85.1443 55.6403C85.2569 55.6056 85.3781 55.6749 85.4127 55.7874C85.4474 55.9 85.3781 56.0211 85.2656 56.0558C84.9106 56.1596 84.5642 56.2375 84.2352 56.2981C84.2266 56.3068 84.2093 56.3068 84.2006 56.3068ZM86.2006 55.7441C86.1141 55.7441 86.0275 55.6922 86.0015 55.6056C85.9582 55.4931 86.0188 55.3719 86.1227 55.3286C86.4344 55.2075 86.7461 55.0776 87.0665 54.9305C87.1704 54.8785 87.3002 54.9218 87.3522 55.0343C87.4041 55.1382 87.3608 55.268 87.2483 55.32C86.9279 55.4758 86.5989 55.6143 86.2786 55.7355C86.2526 55.7355 86.2266 55.7441 86.2006 55.7441ZM88.0795 54.8612C88.0015 54.8612 87.9323 54.8179 87.889 54.7487C87.8284 54.6448 87.8717 54.515 87.9756 54.4544C88.27 54.2899 88.5643 54.1081 88.8587 53.9263C88.9626 53.8657 89.0925 53.8917 89.1617 53.9869C89.2224 54.0908 89.1964 54.2206 89.1011 54.2899C88.8068 54.4803 88.5037 54.6621 88.2007 54.8352C88.1487 54.8525 88.1141 54.8612 88.0795 54.8612ZM89.8284 53.7359C89.7592 53.7359 89.6986 53.7013 89.6553 53.6493C89.586 53.5541 89.6033 53.4156 89.6986 53.3464C89.9756 53.1473 90.244 52.9309 90.5038 52.7145C90.599 52.6365 90.7289 52.6452 90.8068 52.7404C90.8847 52.8356 90.8761 52.9655 90.7808 53.0434C90.5124 53.2685 90.2354 53.4849 89.9583 53.6926C89.915 53.7186 89.8717 53.7359 89.8284 53.7359ZM91.4129 52.3942C91.3523 52.3942 91.3003 52.3682 91.257 52.3249C91.1704 52.2384 91.1791 52.0999 91.2657 52.022C91.5168 51.7882 91.7505 51.5372 91.9757 51.2862C92.0536 51.1996 92.1921 51.191 92.2787 51.2689C92.3653 51.3468 92.3739 51.4853 92.296 51.5718C92.0622 51.8315 91.8198 52.0825 91.5601 52.3249C91.5254 52.3769 91.4648 52.3942 91.4129 52.3942ZM92.8068 50.8534C92.7636 50.8534 92.7116 50.836 92.677 50.8101C92.5817 50.7408 92.5644 50.6023 92.6423 50.5071C92.8501 50.2388 93.0579 49.9531 93.2398 49.6761C93.309 49.5722 93.4389 49.5463 93.5428 49.6155C93.6467 49.6848 93.6727 49.8146 93.6034 49.9185C93.4129 50.2041 93.2051 50.4985 92.9887 50.7755C92.9367 50.8274 92.8761 50.8534 92.8068 50.8534ZM93.9497 49.1221C93.9151 49.1221 93.8805 49.1135 93.8458 49.0961C93.7419 49.0355 93.6986 48.9057 93.7592 48.8018C93.9238 48.4989 94.0709 48.1959 94.2008 47.8843C94.2441 47.7717 94.374 47.7198 94.4865 47.7717C94.5991 47.815 94.651 47.9449 94.5991 48.0574C94.4606 48.3777 94.3047 48.698 94.1402 49.0096C94.0969 49.0788 94.0277 49.1221 93.9497 49.1221ZM94.7636 47.2177C94.7463 47.2177 94.7203 47.2177 94.6943 47.2091C94.5818 47.1745 94.5212 47.0533 94.5558 46.9407C94.6597 46.6118 94.7463 46.2829 94.8069 45.9626C94.8329 45.8414 94.9454 45.7721 95.058 45.7895C95.1792 45.8154 95.2485 45.928 95.2311 46.0405C95.1619 46.3867 95.0753 46.7243 94.9714 47.0706C94.9454 47.1571 94.8588 47.2177 94.7636 47.2177ZM95.1705 45.1835C95.1619 45.1835 95.1619 45.1835 95.1532 45.1835C95.032 45.1749 94.9454 45.071 94.9541 44.9498C94.9714 44.768 94.9801 44.5776 94.9801 44.3958C94.9801 44.2746 95.084 44.1794 95.1965 44.188C95.3177 44.188 95.413 44.2919 95.4043 44.4131C95.4043 44.6035 95.387 44.8026 95.3697 44.9931C95.3783 45.097 95.2831 45.1835 95.1705 45.1835Z" fill="#1C1E23"/>
<path d="M85.3411 83.878C84.9861 83.878 84.6311 83.8607 84.2761 83.8174C84.1549 83.8001 84.0683 83.6962 84.0856 83.575C84.1029 83.4538 84.2068 83.3673 84.328 83.3846C84.6571 83.4192 85.0034 83.4452 85.3324 83.4452C85.4536 83.4452 85.5489 83.5404 85.5489 83.6616C85.5575 83.7828 85.4623 83.878 85.3411 83.878ZM86.38 83.8174C86.2761 83.8174 86.1809 83.7395 86.1636 83.6269C86.1463 83.5058 86.2328 83.4019 86.3541 83.3846C86.6917 83.3413 87.0207 83.2894 87.3498 83.2114C87.4623 83.1855 87.5835 83.2547 87.6095 83.3759C87.6355 83.4884 87.5662 83.6096 87.445 83.6356C87.0987 83.7135 86.7523 83.7828 86.3974 83.8174C86.3974 83.8174 86.3887 83.8174 86.38 83.8174ZM83.2804 83.6443C83.2631 83.6443 83.2458 83.6443 83.2285 83.6356C82.8908 83.5577 82.5445 83.4625 82.2068 83.3413C82.0942 83.3067 82.0336 83.1768 82.0769 83.0643C82.1116 82.9518 82.2414 82.8912 82.354 82.9344C82.6743 83.047 83.0033 83.1422 83.3324 83.2114C83.4449 83.2374 83.5228 83.3499 83.4969 83.4711C83.4709 83.575 83.3843 83.6443 83.2804 83.6443ZM88.3974 83.3326C88.3108 83.3326 88.2242 83.2807 88.1983 83.1941C88.155 83.0816 88.2156 82.9604 88.3281 82.9171C88.6398 82.8046 88.9515 82.6661 89.2546 82.5189C89.3585 82.467 89.4883 82.5103 89.5489 82.6142C89.6009 82.718 89.5576 82.8479 89.4537 82.9085C89.1333 83.0643 88.8043 83.2114 88.4753 83.3326C88.4407 83.3326 88.4147 83.3326 88.3974 83.3326ZM81.3237 82.9691C81.289 82.9691 81.263 82.9604 81.2284 82.9518C80.9081 82.8046 80.5964 82.6401 80.2933 82.4584C80.1894 82.3978 80.1548 82.2679 80.2154 82.164C80.276 82.0602 80.4059 82.0255 80.5098 82.0861C80.8042 82.2593 81.1072 82.4151 81.4102 82.5622C81.5228 82.6142 81.5661 82.744 81.5141 82.8479C81.4795 82.9258 81.4016 82.9691 81.3237 82.9691ZM90.2502 82.4064C90.181 82.4064 90.1117 82.3718 90.0684 82.3112C89.9992 82.2073 90.0338 82.0775 90.129 82.0082C90.3542 81.8611 90.5706 81.7053 90.7871 81.5408C90.8823 81.4715 91.0208 81.4889 91.0901 81.5754C91.1594 81.6706 91.142 81.8091 91.0555 81.8784C90.8303 82.0515 90.6052 82.216 90.3715 82.3631C90.3282 82.3978 90.2849 82.4064 90.2502 82.4064ZM79.5314 81.913C79.4881 81.913 79.4448 81.8957 79.4015 81.8697C79.1158 81.662 78.8388 81.4369 78.579 81.2032C78.4924 81.1253 78.4838 80.9868 78.5617 80.9002C78.6396 80.8137 78.7781 80.805 78.8647 80.8829C79.1245 81.108 79.3842 81.3244 79.6613 81.5235C79.7565 81.5927 79.7825 81.7312 79.7046 81.8264C79.6699 81.887 79.6007 81.913 79.5314 81.913ZM77.9816 80.5453C77.921 80.5453 77.869 80.5194 77.8257 80.4761C77.5833 80.225 77.3495 79.9567 77.1331 79.6797C77.0552 79.5845 77.0725 79.446 77.1677 79.3767C77.263 79.2988 77.4015 79.3161 77.4708 79.4114C77.6872 79.6797 77.9123 79.9394 78.1374 80.1818C78.224 80.2683 78.2154 80.4068 78.1288 80.4847C78.0855 80.5193 78.0335 80.5453 77.9816 80.5453ZM76.6829 78.9266C76.6136 78.9266 76.5443 78.892 76.501 78.8314C76.3106 78.5457 76.1201 78.2428 75.9469 77.9311C75.8863 77.8273 75.9209 77.6974 76.0248 77.6368C76.1287 77.5762 76.2586 77.6108 76.3192 77.7147C76.4837 78.009 76.6655 78.3033 76.856 78.5803C76.9253 78.6756 76.8993 78.8141 76.7954 78.8833C76.7694 78.9093 76.7262 78.9266 76.6829 78.9266ZM75.6612 77.1174C75.5833 77.1174 75.5053 77.0742 75.4621 76.9963C75.3149 76.6846 75.1763 76.3557 75.0465 76.0268C75.0032 75.9142 75.0551 75.793 75.1677 75.7498C75.2802 75.7065 75.4014 75.7584 75.4447 75.8709C75.566 76.1912 75.7045 76.5028 75.8517 76.8145C75.9036 76.9183 75.8603 77.0482 75.7478 77.1001C75.7218 77.1088 75.6872 77.1174 75.6612 77.1174ZM74.8993 75.1871C74.804 75.1871 74.7261 75.1265 74.6915 75.0313C74.5876 74.7023 74.4923 74.3561 74.4058 74.0185C74.3798 73.906 74.4491 73.7848 74.5616 73.7588C74.6742 73.7328 74.7954 73.8021 74.8213 73.9146C74.8993 74.2436 74.9945 74.5812 75.0984 74.9014C75.133 75.014 75.0724 75.1352 74.9599 75.1698C74.9426 75.1784 74.9253 75.1871 74.8993 75.1871ZM74.4058 73.1702C74.3019 73.1702 74.2153 73.1009 74.1893 72.9884C74.1287 72.6508 74.0767 72.2959 74.0335 71.9497C74.0161 71.8285 74.1027 71.7246 74.2239 71.7073C74.3452 71.69 74.449 71.7765 74.4664 71.8977C74.5097 72.2353 74.5616 72.5816 74.6222 72.9105C74.6395 73.0317 74.5616 73.1442 74.449 73.1615C74.4317 73.1702 74.4231 73.1702 74.4058 73.1702Z" fill="#1C1E23"/>
<path d="M86.9244 55.4766C86.8985 55.4766 86.8725 55.468 86.8379 55.4593C86.7253 55.416 86.6733 55.2862 86.7253 55.1737C86.8552 54.8534 86.985 54.5331 87.1063 54.2128C87.1495 54.1003 87.2708 54.0483 87.3833 54.083C87.4959 54.1262 87.5478 54.2474 87.5132 54.36C87.392 54.6802 87.2621 55.0092 87.1322 55.3295C87.0889 55.4247 87.011 55.4766 86.9244 55.4766ZM87.6517 53.529C87.6257 53.529 87.6084 53.529 87.5825 53.5203C87.4699 53.4857 87.4093 53.3558 87.4439 53.2433C87.5565 52.9144 87.6517 52.5854 87.747 52.2565C87.7816 52.144 87.9028 52.0747 88.0154 52.1093C88.1279 52.144 88.1972 52.2652 88.1626 52.3777C88.0673 52.7066 87.9634 53.0442 87.8509 53.3818C87.8249 53.4684 87.7383 53.529 87.6517 53.529ZM88.2232 51.5294C88.2058 51.5294 88.1885 51.5294 88.1712 51.5207C88.0587 51.4947 87.9807 51.3736 88.0154 51.261C88.0933 50.9234 88.1712 50.5858 88.2405 50.2569C88.2664 50.1357 88.379 50.0665 88.4916 50.0838C88.6128 50.1097 88.682 50.2223 88.6647 50.3348C88.5955 50.6724 88.5262 51.0187 88.4396 51.3562C88.4136 51.4688 88.3271 51.5294 88.2232 51.5294ZM88.6301 49.4952C88.6214 49.4952 88.6128 49.4952 88.5955 49.4952C88.4742 49.4778 88.3963 49.3653 88.4136 49.2528C88.4656 48.9152 88.5089 48.5689 88.5349 48.2313C88.5435 48.1102 88.6474 48.0236 88.7686 48.0409C88.8898 48.0496 88.9764 48.1621 88.9591 48.2746C88.9245 48.6209 88.8812 48.9671 88.8292 49.3134C88.8206 49.4172 88.734 49.4952 88.6301 49.4952ZM88.8292 47.4263H88.8206C88.6994 47.4177 88.6128 47.3224 88.6128 47.2013C88.6214 46.9242 88.6301 46.6386 88.6301 46.3616C88.6301 46.301 88.6301 46.2404 88.6301 46.1712C88.6301 46.05 88.7253 45.9548 88.8465 45.9548C88.9678 45.9548 89.063 46.05 89.063 46.1712C89.063 46.2318 89.063 46.301 89.063 46.3616C89.063 46.6472 89.0543 46.9329 89.0457 47.2186C89.037 47.3397 88.9418 47.4263 88.8292 47.4263ZM88.8033 45.3488C88.6907 45.3488 88.5955 45.2622 88.5868 45.1497C88.5608 44.8121 88.5349 44.4659 88.4916 44.1283C88.4742 44.0071 88.5608 43.9032 88.682 43.8859C88.8033 43.8686 88.9072 43.9552 88.9245 44.0763C88.9678 44.4226 89.0024 44.7688 89.0197 45.1237C89.0284 45.2449 88.9331 45.3488 88.8206 45.3575C88.8119 45.3488 88.8119 45.3488 88.8033 45.3488ZM88.5522 43.2886C88.4483 43.2886 88.3617 43.2194 88.3357 43.1068C88.2751 42.7692 88.2058 42.4317 88.1279 42.1027C88.1019 41.9902 88.1712 41.869 88.2838 41.843C88.3963 41.8171 88.5175 41.8863 88.5435 41.9988C88.6214 42.3364 88.6994 42.6827 88.76 43.0289C88.7773 43.1501 88.6994 43.2627 88.5868 43.28C88.5781 43.2886 88.5608 43.2886 88.5522 43.2886ZM88.0673 41.2717C87.9721 41.2717 87.8855 41.2111 87.8595 41.1159C87.7903 40.8908 87.721 40.6571 87.6344 40.4321C87.5998 40.3195 87.6517 40.1983 87.7729 40.1551C87.8855 40.1204 88.0067 40.1724 88.05 40.2936C88.1279 40.5273 88.2058 40.761 88.2751 40.9947C88.3097 41.1072 88.2405 41.2284 88.1279 41.2631C88.1106 41.2717 88.0846 41.2717 88.0673 41.2717Z" fill="#1C1E23"/>
<path d="M45.7812 52.3417C45.6859 52.3417 45.608 52.2811 45.5734 52.1945C45.4608 51.857 45.3656 51.5194 45.279 51.1818C45.2444 51.0692 45.3136 50.948 45.4348 50.9134C45.5474 50.8874 45.6686 50.948 45.7032 51.0692C45.7898 51.3982 45.8851 51.7271 45.9976 52.056C46.0323 52.1686 45.9717 52.2898 45.8591 52.333C45.8331 52.333 45.8071 52.3417 45.7812 52.3417ZM45.2617 50.3335C45.1578 50.3335 45.0712 50.2642 45.0452 50.1603C44.976 49.8141 44.924 49.4678 44.8807 49.1216C44.8634 49.0004 44.95 48.8965 45.0712 48.8792C45.1924 48.8619 45.2963 48.9485 45.3136 49.0696C45.3569 49.4072 45.4089 49.7448 45.4781 50.0824C45.5041 50.2036 45.4262 50.3161 45.305 50.3335C45.2877 50.3248 45.2703 50.3335 45.2617 50.3335ZM44.9933 48.2733C44.8807 48.2733 44.7855 48.1867 44.7768 48.0742C44.7595 47.7366 44.7422 47.3903 44.7422 47.0441V47.0181C44.7422 46.8969 44.8374 46.8017 44.9586 46.8017C45.0799 46.8017 45.1751 46.8969 45.1751 47.0181V47.0441C45.1751 47.3817 45.1838 47.7106 45.2097 48.0482C45.2184 48.1694 45.1231 48.2733 45.0106 48.2819C45.0019 48.2733 45.0019 48.2733 44.9933 48.2733ZM44.9933 46.1958C44.9846 46.1958 44.9846 46.1958 44.976 46.1958C44.8547 46.1871 44.7682 46.0832 44.7768 45.962C44.8028 45.6158 44.8288 45.2609 44.8721 44.9146C44.8894 44.7934 44.9933 44.7155 45.1145 44.7242C45.2357 44.7415 45.3136 44.8454 45.305 44.9666C45.2617 45.3042 45.227 45.6504 45.2097 45.988C45.2011 46.1092 45.1058 46.1958 44.9933 46.1958ZM45.253 44.1356C45.2444 44.1356 45.227 44.1356 45.2097 44.1356C45.0885 44.1183 45.0106 44.0057 45.0366 43.8845C45.0972 43.5469 45.1751 43.2007 45.253 42.8544C45.279 42.7419 45.4002 42.664 45.5128 42.69C45.6253 42.7159 45.7032 42.8371 45.6773 42.9497C45.5993 43.2873 45.5301 43.6249 45.4695 43.9538C45.4435 44.0577 45.3569 44.1356 45.253 44.1356ZM45.7292 42.11C45.7119 42.11 45.6859 42.11 45.6686 42.1014C45.5561 42.0667 45.4868 41.9455 45.5214 41.833C45.6167 41.5041 45.7206 41.1665 45.8418 40.8289C45.8764 40.7164 46.0063 40.6558 46.1188 40.6904C46.2314 40.725 46.292 40.8549 46.2574 40.9674C46.1448 41.2963 46.0409 41.6253 45.9457 41.9455C45.911 42.0494 45.8245 42.11 45.7292 42.11Z" fill="#1C1E23"/>
<path d="M79.5014 36.3999C82.447 36.3999 84.8349 34.0125 84.8349 31.0676C84.8349 28.1227 82.447 25.7354 79.5014 25.7354C76.5558 25.7354 74.168 28.1227 74.168 31.0676C74.168 34.0125 76.5558 36.3999 79.5014 36.3999Z" fill="#EF6238"/>
<path d="M84.8253 30.6865H79.5092H74.1757C74.1757 30.6865 73.7515 33.6902 78.5048 41.7925C78.7126 42.1474 79.0936 42.3811 79.5005 42.3811C79.9075 42.3811 80.2884 42.1387 80.4962 41.7838C85.2582 33.6816 84.8253 30.6865 84.8253 30.6865Z" fill="#EF6238"/>
<path opacity="0.8" d="M79.517 34.1235C81.2146 34.1235 82.5907 32.7477 82.5907 31.0505C82.5907 29.3534 81.2146 27.9775 79.517 27.9775C77.8195 27.9775 76.4434 29.3534 76.4434 31.0505C76.4434 32.7477 77.8195 34.1235 79.517 34.1235Z" fill="white"/>
<path d="M79.6346 45.6692H79.4355C78.864 45.6692 78.3965 45.2017 78.3965 44.6304V44.4313C78.3965 43.86 78.864 43.3926 79.4355 43.3926H79.6346C80.206 43.3926 80.6736 43.86 80.6736 44.4313V44.6304C80.6736 45.2017 80.206 45.6692 79.6346 45.6692Z" fill="#EF6238"/>
<path d="M91.2883 77.7922C92.7085 77.7922 93.8598 76.6412 93.8598 75.2213C93.8598 73.8014 92.7085 72.6504 91.2883 72.6504C89.8681 72.6504 88.7168 73.8014 88.7168 75.2213C88.7168 76.6412 89.8681 77.7922 91.2883 77.7922Z" fill="#EF6238"/>
<path d="M93.8501 75.0049H91.2873H88.7158C88.7158 75.0049 88.508 76.4678 90.8024 80.3718C90.9063 80.5449 91.0882 80.6661 91.2873 80.6661C91.4864 80.6661 91.6683 80.5362 91.7722 80.3631C94.0579 76.4591 93.8501 75.0049 93.8501 75.0049Z" fill="#EF6238"/>
<path d="M91.3237 80.7704V80.805H91.2891C91.064 80.805 90.8562 80.6752 90.7436 80.4847C89.4016 78.1995 88.9081 76.7539 88.7349 75.9489C88.683 75.7671 88.657 75.5766 88.6483 75.3949C88.631 75.2044 88.6483 75.1179 88.6483 75.1179L88.657 75.0746C88.7609 73.6982 89.9124 72.6162 91.2977 72.6162C92.7004 72.6162 93.8606 73.7069 93.9385 75.1006C93.9385 75.1179 93.9472 75.1611 93.9385 75.2391V75.2477C93.9385 75.4987 93.9039 75.7498 93.8346 75.9921C93.6528 76.7972 93.1766 78.2255 91.8605 80.4761C91.7393 80.6492 91.5835 80.7704 91.3237 80.7704ZM88.7869 75.1785C88.7869 75.1785 88.7869 75.2823 88.7955 75.3689V75.3776C88.8042 75.5507 88.8301 75.7238 88.8821 75.9056C89.0553 76.702 89.5401 78.1302 90.8735 80.3982C90.9601 80.5453 91.1332 80.6319 91.3064 80.6319L91.3237 80.7098V80.6319C91.4103 80.6319 91.67 80.5367 91.7566 80.3895C93.064 78.1562 93.5749 76.7452 93.748 75.9489V75.9402C93.8346 75.7151 93.8433 75.4728 93.8433 75.2391L93.8346 75.2304C93.8346 75.1525 93.8086 75.1179 93.8086 75.1092H93.7913C93.722 73.7935 92.6138 72.772 91.2977 72.772C89.973 72.772 88.8821 73.8021 88.8042 75.1265L88.7869 75.1785Z" fill="#91B3FA"/>
<path opacity="0.8" d="M91.295 76.6929C92.1127 76.6929 92.7756 76.0301 92.7756 75.2126C92.7756 74.3951 92.1127 73.7324 91.295 73.7324C90.4773 73.7324 89.8145 74.3951 89.8145 75.2126C89.8145 76.0301 90.4773 76.6929 91.295 76.6929Z" fill="white"/>
<path d="M91.2956 76.7791C90.4298 76.7791 89.7285 76.0779 89.7285 75.2123C89.7285 74.3467 90.4298 73.6455 91.2956 73.6455C92.1615 73.6455 92.8628 74.3467 92.8628 75.2123C92.8628 76.0693 92.1615 76.7791 91.2956 76.7791ZM91.2956 73.81C90.5251 73.81 89.893 74.4419 89.893 75.2123C89.893 75.9827 90.5251 76.6146 91.2956 76.6146C92.0662 76.6146 92.6983 75.9827 92.6983 75.2123C92.6983 74.4332 92.0662 73.81 91.2956 73.81Z" fill="#91B3FA"/>
<path d="M89.8793 73.6627C89.8706 73.6627 89.862 73.6627 89.862 73.6541C89.8533 73.6454 89.8533 73.6281 89.862 73.6194C90.2776 73.2645 90.8144 73.0654 91.3598 73.0654C91.3771 73.0654 91.3858 73.0741 91.3858 73.0914C91.3858 73.1087 91.3771 73.1174 91.3598 73.1174C90.823 73.1174 90.3035 73.3078 89.8966 73.6627C89.8966 73.6627 89.8879 73.6627 89.8793 73.6627Z" fill="#BDD0FB"/>
<path d="M89.0943 75.3946C89.077 75.3946 89.0684 75.386 89.0684 75.3687C89.0684 74.9358 89.1896 74.5203 89.4147 74.1568C89.4233 74.1481 89.4407 74.1395 89.4493 74.1481C89.458 74.1568 89.4666 74.1741 89.458 74.1827C89.2415 74.5376 89.1203 74.9445 89.1203 75.3687C89.1203 75.386 89.103 75.3946 89.0943 75.3946Z" fill="#BDD0FB"/>
<path d="M91.3013 82.2596C90.9983 82.2596 90.7559 82.0086 90.7559 81.7143C90.7559 81.4113 91.007 81.1689 91.3013 81.1689C91.6044 81.1689 91.8468 81.42 91.8468 81.7143C91.8468 82.0173 91.6044 82.2596 91.3013 82.2596Z" fill="#EF6238"/>
<path d="M41.7069 45.2575C44.2795 45.2575 46.3651 43.1724 46.3651 40.6004C46.3651 38.0284 44.2795 35.9434 41.7069 35.9434C39.1343 35.9434 37.0488 38.0284 37.0488 40.6004C37.0488 43.1724 39.1343 45.2575 41.7069 45.2575Z" fill="#EF6238"/>
<path d="M46.3563 40.2881H41.7069H37.0574C37.0574 40.2881 36.6851 42.9023 40.8411 49.9831C41.0229 50.2947 41.3519 50.4938 41.7155 50.4938C42.0705 50.4938 42.4082 50.2861 42.59 49.9831C46.7373 42.8936 46.3563 40.2881 46.3563 40.2881Z" fill="#EF6238"/>
<path d="M41.8043 50.6586V50.6759H41.7091C41.3021 50.6759 40.9212 50.4595 40.722 50.1133C38.2891 45.9756 37.4059 43.3614 37.0856 41.8985C36.9903 41.5609 36.9384 41.232 36.9297 40.8944C36.9038 40.5481 36.9211 40.401 36.9297 40.3837L36.9384 40.3058C37.1289 37.8041 39.2068 35.8564 41.7177 35.8564C44.2632 35.8564 46.3585 37.8301 46.5057 40.349C46.5057 40.3837 46.5144 40.4616 46.5144 40.6087V40.626C46.5144 41.0848 46.4538 41.5349 46.3239 41.9764C45.9949 43.4393 45.1464 46.0275 42.7567 50.096C42.5402 50.4509 42.1506 50.6586 41.8043 50.6586ZM37.1808 40.4616C37.1808 40.4616 37.1808 40.6866 37.1981 40.8338V40.8598C37.2155 41.18 37.2674 41.5003 37.354 41.8206V41.8293C37.6657 43.2749 38.5488 45.8631 40.9645 49.9661C41.1203 50.2345 41.458 50.3989 41.7697 50.3989L41.813 50.5374V50.3989C41.9861 50.3989 42.4017 50.2345 42.5576 49.9661C44.9299 45.9237 45.7957 43.3528 46.1421 41.9158V41.9072C46.2286 41.4917 46.2806 41.0675 46.2806 40.6347L46.2286 40.6174C46.2286 40.4789 46.2286 40.4096 46.2286 40.3923V40.3837C46.0988 38.0032 44.116 36.1421 41.7177 36.1421C39.3194 36.1421 37.3453 37.9772 37.2068 40.3837L37.1808 40.4616Z" fill="#EF6238"/>
<path d="M41.7259 43.2758C43.213 43.2758 44.4186 42.0705 44.4186 40.5837C44.4186 39.0969 43.213 37.8916 41.7259 37.8916C40.2388 37.8916 39.0332 39.0969 39.0332 40.5837C39.0332 42.0705 40.2388 43.2758 41.7259 43.2758Z" fill="#FCE0D7"/>
<path d="M41.7247 43.4226C40.1575 43.4226 38.8848 42.1502 38.8848 40.5834C38.8848 39.0166 40.1575 37.7441 41.7247 37.7441C43.2918 37.7441 44.5645 39.0166 44.5645 40.5834C44.5645 42.1502 43.2918 43.4226 41.7247 43.4226ZM41.7247 38.0471C40.322 38.0471 39.1878 39.1897 39.1878 40.5834C39.1878 41.977 40.3307 43.1197 41.7247 43.1197C43.1273 43.1197 44.2615 41.977 44.2615 40.5834C44.2615 39.1897 43.1273 38.0471 41.7247 38.0471Z" fill="#EF6238"/>
<path d="M41.7652 53.2781C41.2198 53.2781 40.7695 52.8279 40.7695 52.2826C40.7695 51.7372 41.2198 51.2871 41.7652 51.2871C42.3107 51.2871 42.7609 51.7372 42.7609 52.2826C42.7609 52.8279 42.3107 53.2781 41.7652 53.2781Z" fill="#EF6238"/>
<path fill-rule="evenodd" clip-rule="evenodd" d="M24.6057 87.1738H82.5087C82.6534 87.1738 82.7787 87.2894 82.7787 87.4435C82.7787 87.5879 82.6534 87.7131 82.5087 87.7131H24.6057C24.4611 87.7131 24.3357 87.5976 24.3357 87.4435C24.3357 87.299 24.4514 87.1738 24.6057 87.1738ZM21.7231 87.1738H22.8125C22.9571 87.1738 23.0824 87.2894 23.0824 87.4435C23.0824 87.5879 22.9571 87.7131 22.8125 87.7131H21.7231C21.5785 87.7131 21.4531 87.5976 21.4531 87.4435C21.4531 87.299 21.5688 87.1738 21.7231 87.1738ZM84.2441 87.1738H85.4299C85.5745 87.1738 85.6999 87.2894 85.6999 87.4435C85.6999 87.5879 85.5745 87.7131 85.4299 87.7131H84.2441C84.0995 87.7131 83.9742 87.5976 83.9742 87.4435C83.9742 87.299 84.0995 87.1738 84.2441 87.1738Z" fill="#0F0F0F"/>
<path d="M66.4887 74.2881H23.6543V82.5798H66.4887V74.2881Z" fill="#121212"/>
<path fill-rule="evenodd" clip-rule="evenodd" d="M48.1816 87.4344H50.4279C52.3368 87.4344 53.8793 85.0557 53.8793 82.1088C53.8793 79.1715 52.3368 76.7832 50.4279 76.7832H48.1816C46.1088 76.7928 46.0413 87.4344 48.1816 87.4344Z" fill="#121212"/>
<path d="M48.1819 87.4344C50.0881 87.4344 51.6333 85.05 51.6333 82.1088C51.6333 79.1676 50.0881 76.7832 48.1819 76.7832C46.2757 76.7832 44.7305 79.1676 44.7305 82.1088C44.7305 85.05 46.2757 87.4344 48.1819 87.4344Z" fill="#121212"/>
<path fill-rule="evenodd" clip-rule="evenodd" d="M77.4251 87.4344H79.6714C81.5803 87.4344 83.1229 85.0557 83.1229 82.1088C83.1229 79.1715 81.5803 76.7832 79.6714 76.7832H77.4251C75.3427 76.7928 75.2752 87.4344 77.4251 87.4344Z" fill="#121212"/>
<path d="M77.4221 87.4344C79.3283 87.4344 80.8736 85.05 80.8736 82.1088C80.8736 79.1676 79.3283 76.7832 77.4221 76.7832C75.516 76.7832 73.9707 79.1676 73.9707 82.1088C73.9707 85.05 75.516 87.4344 77.4221 87.4344Z" fill="#121212"/>
<path fill-rule="evenodd" clip-rule="evenodd" d="M29.4667 87.4344H31.713C33.6219 87.4344 35.1645 85.0557 35.1645 82.1088C35.1645 79.1715 33.6219 76.7832 31.713 76.7832H29.4667C27.3939 76.7928 27.3264 87.4344 29.4667 87.4344Z" fill="#0F0F0F"/>
<path d="M29.4671 87.4344C31.3732 87.4344 32.9185 85.05 32.9185 82.1088C32.9185 79.1676 31.3732 76.7832 29.4671 76.7832C27.5609 76.7832 26.0156 79.1676 26.0156 82.1088C26.0156 85.05 27.5609 87.4344 29.4671 87.4344Z" fill="#1A1A1A"/>
<path fill-rule="evenodd" clip-rule="evenodd" d="M29.4666 85.8645C30.8067 85.8645 31.8961 84.1792 31.8961 82.1183C31.8961 80.0574 30.8067 78.3721 29.4666 78.3721C28.1265 78.3721 27.0371 80.0574 27.0371 82.1183C27.0371 84.1792 28.1265 85.8645 29.4666 85.8645Z" fill="white"/>
<path fill-rule="evenodd" clip-rule="evenodd" d="M29.4652 85.3354C30.6125 85.3354 31.5477 83.8909 31.5477 82.1189C31.5477 80.3469 30.6125 78.9023 29.4652 78.9023C28.318 78.9023 27.3828 80.3469 27.3828 82.1189C27.3828 83.8909 28.318 85.3354 29.4652 85.3354Z" fill="#989898"/>
<path fill-rule="evenodd" clip-rule="evenodd" d="M29.8727 85.2765C30.8271 84.9876 31.5598 83.6875 31.5598 82.1178C31.5598 80.5576 30.8368 79.2479 29.8727 78.959C28.9086 79.2479 28.1855 80.548 28.1855 82.1178C28.1952 83.6779 28.9183 84.9876 29.8727 85.2765Z" fill="#1A1A1A"/>
<path fill-rule="evenodd" clip-rule="evenodd" d="M29.9004 85.2673C30.4596 85.0843 30.932 84.5643 31.2309 83.8516C31.0959 83.6975 31.0188 83.3701 31.1923 82.8886C31.2983 82.59 31.4237 82.4552 31.5394 82.4263C31.549 82.33 31.549 82.2241 31.549 82.1278C31.549 82.0218 31.549 81.9255 31.5394 81.8292C31.4237 81.7907 31.2983 81.6559 31.1923 81.367C31.0091 80.8855 31.0862 80.5677 31.2309 80.4039C30.932 79.6913 30.4596 79.1616 29.9004 78.9883C28.9556 79.2965 28.2422 80.5869 28.2422 82.1374C28.2422 83.6686 28.9556 84.9591 29.9004 85.2673ZM30.3343 80.5869C29.6594 80.5869 29.7558 79.6431 29.9775 79.5757C30.2089 79.4987 30.4499 79.4987 30.6813 79.5757C30.9127 79.6431 31.0091 80.5869 30.3343 80.5869ZM29.4666 81.3477C29.1291 82.253 28.6471 81.6559 28.7242 81.3092C28.8014 80.9529 28.917 80.6447 29.0809 80.3654C29.2352 80.1054 29.804 80.4521 29.4666 81.3477ZM29.4666 82.8886C29.804 83.7938 29.2256 84.1405 29.0713 83.8709C28.9074 83.5916 28.7917 83.2834 28.7146 82.9271C28.6471 82.5708 29.1291 81.9833 29.4666 82.8886ZM30.3343 83.659C31.0091 83.659 30.9127 84.6028 30.691 84.6702C30.4596 84.7472 30.2186 84.7472 29.9872 84.6702C29.7462 84.5932 29.6594 83.659 30.3343 83.659Z" fill="#666666"/>
<path fill-rule="evenodd" clip-rule="evenodd" d="M29.7462 85.306C30.3439 85.1808 30.8549 84.6704 31.1827 83.9481C30.9706 84.0155 30.5946 83.6496 30.8838 82.8888C31.1056 82.3013 31.3851 82.3494 31.5298 82.5421C31.5394 82.4072 31.549 82.2628 31.549 82.1183C31.549 81.9739 31.5394 81.8294 31.5298 81.6946C31.3851 81.8968 31.1056 81.9353 30.8838 81.3479C30.5946 80.5775 30.961 80.2211 31.1827 80.2886C30.8549 79.5663 30.3439 79.0559 29.7462 78.9307C28.7243 79.1425 27.9434 80.4908 27.9434 82.1183C27.9434 83.7459 28.7243 85.0941 29.7462 85.306ZM30.0258 80.5871C29.3509 80.5871 29.4473 79.6433 29.6691 79.5759C29.9005 79.4989 30.1415 79.4989 30.3729 79.5759C30.6139 79.6433 30.7006 80.5871 30.0258 80.5871ZM29.1678 81.3479C28.8303 82.2531 28.3483 81.6561 28.4254 81.3094C28.5025 80.953 28.6182 80.6449 28.7821 80.3656C28.9267 80.1056 29.5052 80.4523 29.1678 81.3479ZM29.1678 82.8888C29.5052 83.794 28.9267 84.1407 28.7725 83.871C28.6086 83.5918 28.4929 83.2836 28.4158 82.9273C28.3483 82.5709 28.8303 81.9835 29.1678 82.8888ZM30.0258 83.6592C30.7006 83.6592 30.6042 84.603 30.3825 84.6704C30.1511 84.7474 29.9101 84.7474 29.6787 84.6704C29.4473 84.5933 29.3509 83.6592 30.0258 83.6592Z" fill="white"/>
<path fill-rule="evenodd" clip-rule="evenodd" d="M30.0449 81.4639C29.7943 81.4639 29.5918 81.772 29.5918 82.1573C29.5918 82.5425 29.7943 82.8506 30.0449 82.8506C30.2956 82.8506 30.498 82.5425 30.498 82.1573C30.498 81.772 30.2956 81.4639 30.0449 81.4639Z" fill="#666666"/>
<path fill-rule="evenodd" clip-rule="evenodd" d="M58.7064 87.4344H60.9527C62.8616 87.4344 64.4041 85.0557 64.4041 82.1088C64.4041 79.1715 62.8616 76.7832 60.9527 76.7832H58.7064C56.6239 76.7928 56.5565 87.4344 58.7064 87.4344Z" fill="#0F0F0F"/>
<path d="M58.7053 87.4344C60.6115 87.4344 62.1568 85.05 62.1568 82.1088C62.1568 79.1676 60.6115 76.7832 58.7053 76.7832C56.7992 76.7832 55.2539 79.1676 55.2539 82.1088C55.2539 85.05 56.7992 87.4344 58.7053 87.4344Z" fill="#1A1A1A"/>
<path fill-rule="evenodd" clip-rule="evenodd" d="M58.7069 85.8645C60.047 85.8645 61.1364 84.1792 61.1364 82.1183C61.1364 80.0574 60.047 78.3721 58.7069 78.3721C57.3668 78.3721 56.2774 80.0574 56.2774 82.1183C56.2678 84.1792 57.3668 85.8645 58.7069 85.8645Z" fill="white"/>
<path fill-rule="evenodd" clip-rule="evenodd" d="M58.7075 85.3354C59.8548 85.3354 60.7899 83.8909 60.7899 82.1189C60.7899 80.3469 59.8548 78.9023 58.7075 78.9023C57.5602 78.9023 56.6251 80.3469 56.6251 82.1189C56.6154 83.8909 57.5602 85.3354 58.7075 85.3354Z" fill="#989898"/>
<path fill-rule="evenodd" clip-rule="evenodd" d="M59.1129 85.2765C60.0674 84.9876 60.8001 83.6875 60.8001 82.1178C60.8001 80.5576 60.077 79.2479 59.1129 78.959C58.1488 79.2479 57.4258 80.548 57.4258 82.1178C57.4258 83.6779 58.1488 84.9876 59.1129 85.2765Z" fill="#1A1A1A"/>
<path fill-rule="evenodd" clip-rule="evenodd" d="M59.1406 85.2673C59.6998 85.0843 60.1722 84.5643 60.4711 83.8516C60.3361 83.6975 60.259 83.3701 60.4325 82.8886C60.5386 82.59 60.6639 82.4552 60.7796 82.4263C60.7892 82.33 60.7892 82.2241 60.7892 82.1278C60.7892 82.0218 60.7892 81.9255 60.7796 81.8292C60.6639 81.7907 60.5386 81.6559 60.4325 81.367C60.2494 80.8855 60.3265 80.5677 60.4711 80.4039C60.1722 79.6913 59.6998 79.1616 59.1406 78.9883C58.1958 79.2965 57.4824 80.5869 57.4824 82.1374C57.4824 83.6686 58.1958 84.9591 59.1406 85.2673ZM59.5649 80.5869C58.89 80.5869 58.9864 79.6431 59.2081 79.5757C59.4395 79.4987 59.6805 79.4987 59.9119 79.5757C60.1529 79.6431 60.2494 80.5869 59.5649 80.5869ZM58.7068 81.3477C58.3694 82.253 57.8873 81.6559 57.9645 81.3092C58.0416 80.9529 58.1573 80.6447 58.3212 80.3654C58.4754 80.1054 59.0442 80.4521 58.7068 81.3477ZM58.7068 82.8886C59.0442 83.7938 58.4658 84.1405 58.3115 83.8709C58.1476 83.5916 58.032 83.2834 57.9548 82.9271C57.8873 82.5708 58.3694 81.9833 58.7068 82.8886ZM59.5649 83.659C60.2397 83.659 60.1433 84.6028 59.9216 84.6702C59.6902 84.7472 59.4492 84.7472 59.2178 84.6702C58.9864 84.5932 58.89 83.659 59.5649 83.659Z" fill="#666666"/>
<path fill-rule="evenodd" clip-rule="evenodd" d="M58.9865 85.306C59.5843 85.1808 60.0952 84.6704 60.423 83.9481C60.2109 84.0155 59.8349 83.6496 60.1242 82.8888C60.3459 82.3013 60.6255 82.3494 60.7701 82.5421C60.7797 82.4072 60.7894 82.2628 60.7894 82.1183C60.7894 81.9739 60.7797 81.8294 60.7701 81.6946C60.6158 81.8968 60.3459 81.9353 60.1242 81.3479C59.8349 80.5775 60.2013 80.2211 60.423 80.2886C60.0952 79.5663 59.5843 79.0559 58.9865 78.9307C57.9646 79.1425 57.1837 80.4908 57.1837 82.1183C57.174 83.7459 57.9646 85.0941 58.9865 85.306ZM59.2661 80.5871C58.5913 80.5871 58.6877 79.6433 58.9094 79.5759C59.1408 79.4989 59.3818 79.4989 59.6132 79.5759C59.8446 79.6433 59.941 80.5871 59.2661 80.5871ZM58.3984 81.3479C58.061 82.2531 57.579 81.6561 57.6561 81.3094C57.7332 80.953 57.8489 80.6449 58.0128 80.3656C58.1671 80.1056 58.7359 80.4523 58.3984 81.3479ZM58.3984 82.8888C58.7359 83.794 58.1574 84.1407 58.0032 83.871C57.8393 83.5918 57.7236 83.2836 57.6464 82.9273C57.579 82.5709 58.061 81.9835 58.3984 82.8888ZM59.2661 83.6592C59.941 83.6592 59.8446 84.603 59.6228 84.6704C59.3914 84.7474 59.1504 84.7474 58.919 84.6704C58.678 84.5933 58.5816 83.6592 59.2661 83.6592Z" fill="white"/>
<path fill-rule="evenodd" clip-rule="evenodd" d="M59.2852 81.4639C59.0345 81.4639 58.832 81.772 58.832 82.1573C58.832 82.5425 59.0345 82.8506 59.2852 82.8506C59.5358 82.8506 59.7383 82.5425 59.7383 82.1573C59.7286 81.772 59.5262 81.4639 59.2852 81.4639Z" fill="#666666"/>
<path fill-rule="evenodd" clip-rule="evenodd" d="M68.5505 56.9435C53.9639 56.2694 39.4158 56.2501 24.9063 56.9435C23.9712 56.9917 23.3542 57.5213 23.171 58.4747C22.4286 62.3654 21.4935 66.2657 21.2621 70.1564L21.1271 70.7823L21.1464 77.514L20.8379 78.3422C20.8379 79.5267 20.9921 80.6824 21.1464 81.8187C21.185 82.1269 21.3199 82.5892 21.7249 82.5892H24.5593C24.9931 82.5892 25.157 82.2232 25.1666 81.8573C25.2534 78.4963 27.2009 75.8094 29.5822 75.8094C31.9731 75.8094 33.9109 78.4963 33.9977 81.8669C34.0073 82.3099 34.3737 82.5988 34.6533 82.5988H53.7132C54.1471 82.5988 54.3688 82.2521 54.3785 81.8669C54.4556 78.5059 56.4127 75.8094 58.794 75.8094C61.1849 75.8094 63.1324 78.4963 63.2095 81.8669C63.2191 82.4543 63.6819 82.5988 64.0386 82.5988H85.1039C85.5088 82.5988 85.8077 82.2136 85.8655 81.8284C86.0487 80.7113 86.1355 79.5556 86.0487 78.3807L85.7402 77.5236L85.6534 76.8976C85.6052 76.5124 85.5377 76.3391 85.3353 76.0213L84.9207 75.3471C84.8918 74.2878 84.7568 72.5158 84.4001 71.6491C84.1013 70.9075 83.6578 70.2238 82.9733 69.7037C81.7103 68.7407 80.4184 67.8162 79.1362 66.8724L72.9179 59.1007C71.8766 57.7525 70.3534 57.0302 68.5505 56.9435Z" fill="white"/>
<path fill-rule="evenodd" clip-rule="evenodd" d="M28.0035 68.5283C28.1385 68.5283 28.2445 68.6342 28.2445 68.7691C28.2445 68.9039 28.1385 69.0098 28.0035 69.0098H23.7519C23.7133 69.0098 23.6844 69.0098 23.6458 69.0002C23.4626 68.9713 23.2987 68.8846 23.1831 68.7594C23.1734 68.7498 23.1734 68.7498 23.1734 68.7402C23.0577 68.615 22.9902 68.4512 22.9902 68.2683C22.9902 68.2394 22.9902 68.2009 22.9999 68.172L24.1953 59.6106C24.2243 59.3987 24.3303 59.2061 24.4749 59.0713C24.6195 58.9364 24.822 58.8498 25.0341 58.8498H31.3874C31.5224 58.8498 31.6285 58.9557 31.6285 59.0905C31.6285 59.2254 31.5224 59.3313 31.3874 59.3313H25.0245C24.9377 59.3313 24.8606 59.3698 24.7931 59.4276C24.7256 59.495 24.6774 59.5817 24.6581 59.6876L23.4626 68.249C23.4626 68.2586 23.4626 68.2683 23.4626 68.2875C23.4626 68.3453 23.4819 68.3935 23.5205 68.4416L23.5301 68.4513C23.5783 68.4994 23.6362 68.5283 23.7037 68.5379C23.7133 68.5379 23.7326 68.5379 23.7519 68.5379H28.0035V68.5283ZM38.5506 59.3698C38.3867 59.3698 38.2614 59.2446 38.2614 59.0809C38.2614 58.9172 38.3867 58.792 38.5506 58.792H45.492C45.5113 58.792 45.5402 58.792 45.5788 58.792C45.8391 58.8113 46.0897 58.9268 46.2729 59.1002C46.4561 59.2831 46.5814 59.5239 46.5814 59.8032C46.5814 59.8224 46.5814 59.8513 46.5814 59.8802V59.8899L46.5718 59.9765C46.3597 62.6923 46.1862 64.8495 46.1862 67.9986C46.1862 68.2972 46.0608 68.5572 45.868 68.7498C45.6752 68.9424 45.4052 69.058 45.1064 69.058H39.4665C39.3026 69.058 39.1772 68.9328 39.1772 68.7691C39.1772 68.6053 39.3026 68.4801 39.4665 68.4801H45.1064C45.2414 68.4801 45.3763 68.4224 45.4631 68.3357C45.5499 68.249 45.6077 68.1238 45.6077 67.989C45.6077 64.8013 45.7812 62.6441 45.9933 59.9284L46.003 59.8321V59.8224C46.003 59.8128 46.003 59.8032 46.003 59.7935C46.003 59.6876 45.9548 59.5817 45.868 59.5046C45.7812 59.418 45.6656 59.3698 45.5402 59.3602C45.5306 59.3602 45.5113 59.3602 45.5017 59.3602H38.5506V59.3698ZM38.406 68.4801H37.8661C37.7022 68.4801 37.5769 68.6053 37.5769 68.7691C37.5769 68.9328 37.7022 69.058 37.8661 69.058H38.406C38.5699 69.058 38.6952 68.9328 38.6952 68.7691C38.7048 68.615 38.5699 68.4801 38.406 68.4801ZM32.3612 59.3217C32.2262 59.3217 32.1201 59.2157 32.1201 59.0809C32.1201 58.9461 32.2262 58.8401 32.3612 58.8401H33.4988C33.6338 58.8401 33.7398 58.9461 33.7398 59.0809C33.7398 59.2157 33.6338 59.3217 33.4988 59.3217H32.3612Z" fill="#E7E7E7"/>
<path fill-rule="evenodd" clip-rule="evenodd" d="M84.9301 75.2988C85.0361 74.4224 84.9397 73.1416 84.5926 72.2363L84.5059 72.2556C84.2841 72.3037 84.1588 72.4482 84.1877 72.7082L84.4287 74.721C84.4673 74.9425 84.6794 75.2025 84.9301 75.2988Z" fill="#989898"/>
<path fill-rule="evenodd" clip-rule="evenodd" d="M37.0629 57.9932H46.6267C47.1087 57.9932 47.5329 58.3784 47.4943 58.8503C46.9255 66.1308 46.8677 73.4114 47.4943 80.6919C47.5329 81.1638 47.0991 81.549 46.6267 81.549H37.0629C36.5809 81.549 36.2434 81.1638 36.1952 80.6919C35.424 73.3632 35.5204 66.0923 36.1952 58.8503C36.2338 58.3784 36.5809 57.9932 37.0629 57.9932Z" stroke="#E7E7E7" stroke-miterlimit="22.9256"/>
<path fill-rule="evenodd" clip-rule="evenodd" d="M21.1464 77.5146L20.8379 78.3429C20.8379 79.5274 20.9921 80.683 21.1464 81.8194C21.185 82.1276 21.3199 82.5899 21.7249 82.5899H24.5593C24.9931 82.5899 25.157 82.2239 25.1666 81.858C25.2052 80.1534 25.7355 78.6125 26.5549 77.5146H21.1464ZM32.619 77.5146C33.2457 78.3621 33.6988 79.46 33.9013 80.7023H54.4942C54.687 79.46 55.1497 78.3621 55.7764 77.5146H32.619ZM61.8405 77.5146C62.66 78.6125 63.1806 80.1437 63.2288 81.858C63.2384 82.4454 63.7012 82.5899 64.0579 82.5899H85.1232C85.5281 82.5899 85.827 82.2046 85.8848 81.8194C86.068 80.7023 86.1548 79.5467 86.068 78.3718L85.7595 77.5146H61.8405Z" fill="#4D4D4D"/>
<path fill-rule="evenodd" clip-rule="evenodd" d="M26.5533 77.5146C27.3439 76.4552 28.414 75.8004 29.5805 75.8004C30.7567 75.8004 31.8172 76.4552 32.6078 77.5146H34.0539C33.0512 75.5307 31.4219 74.2402 29.5709 74.2402C27.7295 74.2402 26.0905 75.5307 25.0879 77.5146H26.5533Z" fill="url(#paint0_linear_494_7053)"/>
<path fill-rule="evenodd" clip-rule="evenodd" d="M79.1542 66.8625C77.1007 64.2046 75.0279 61.614 72.9358 59.0908H55.669C55.3895 59.0908 55.2256 59.2738 55.428 59.6494L59.1301 66.3425C59.3229 66.6796 59.6411 66.8529 60.0942 66.8722C66.6596 67.1129 73.4082 67.5945 79.1542 66.8625Z" fill="#121212"/>
<path fill-rule="evenodd" clip-rule="evenodd" d="M78.6147 66.6314L78.8364 66.6025C76.9468 64.166 75.0186 61.7488 73.0519 59.3701H55.6694C55.6598 59.3701 55.6501 59.3701 55.6309 59.3701C55.6405 59.4086 55.6694 59.4664 55.6791 59.4953L59.3812 66.1884C59.5354 66.4677 59.7957 66.5544 60.1042 66.5736C61.1165 66.6122 62.1288 66.6603 63.1411 66.6988C65.8984 66.824 68.6557 66.9396 71.413 66.9589C73.8135 66.9685 76.2334 66.9107 78.6147 66.6314Z" fill="#2E333D"/>
<path fill-rule="evenodd" clip-rule="evenodd" d="M78.6165 66.6313L78.8383 66.6024L78.0188 65.5527C72.591 63.9541 64.8494 62.2977 57.4355 62.6636L59.383 66.1883C59.5373 66.4676 59.7976 66.5543 60.1061 66.5735C61.1184 66.6121 62.1306 66.6602 63.1429 66.6987C65.9002 66.8239 68.6575 66.9395 71.4148 66.9588C73.8154 66.9684 76.2352 66.9106 78.6165 66.6313Z" fill="#1A1A1A"/>
<path fill-rule="evenodd" clip-rule="evenodd" d="M55.776 77.5146C56.5665 76.4552 57.6366 75.8004 58.8032 75.8004C59.9794 75.8004 61.0399 76.4552 61.8304 77.5146H63.2766C62.2739 75.5307 60.6446 74.2402 58.7935 74.2402C56.9521 74.2402 55.3132 75.5307 54.3105 77.5146H55.776Z" fill="url(#paint1_linear_494_7053)"/>
<path fill-rule="evenodd" clip-rule="evenodd" d="M20.8379 78.3711C20.8379 79.546 20.9921 80.692 21.1464 81.8188C21.185 82.1269 21.3199 82.5892 21.7249 82.5892H24.5593C24.9931 82.5892 25.157 82.2233 25.1666 81.8573C25.1956 80.5572 25.5137 79.3534 26.015 78.3711H20.8379ZM86.0584 78.3711H62.3707C62.8817 79.3534 63.1902 80.5572 63.2191 81.8573C63.2288 82.4447 63.6915 82.5892 64.0483 82.5892H85.1136C85.5185 82.5892 85.8173 82.204 85.8752 81.8188C86.068 80.7016 86.1548 79.546 86.0584 78.3711ZM55.2365 78.3711H33.1493C33.506 79.0549 33.7663 79.8445 33.9013 80.7016H54.4942C54.6291 79.8445 54.8894 79.0549 55.2365 78.3711Z" fill="#333333"/>
<path fill-rule="evenodd" clip-rule="evenodd" d="M21.2731 70.165C21.2249 70.3673 21.1767 70.5791 21.1285 70.7814C21.0128 72.5919 21.0321 74.4024 21.1478 76.2129H21.3406C21.6684 76.2129 21.8419 75.8855 21.8419 75.5388C21.8419 73.9401 21.8419 72.3415 21.8419 70.7429C21.8419 70.4154 21.6202 70.165 21.3117 70.165C21.1864 70.165 21.4081 70.165 21.2731 70.165Z" fill="#FF0000"/>
<path fill-rule="evenodd" clip-rule="evenodd" d="M72.5518 72.3716C76.5721 72.7953 79.7246 73.0072 82.935 72.4968C83.4171 72.4197 83.7545 72.7279 83.7931 73.1516L84.0052 75.3281C84.0341 75.6652 83.8798 75.983 83.4846 76.1081C80.573 76.9845 77.5072 76.763 73.4484 76.1081C72.9856 76.0311 72.5518 75.7903 72.4361 75.3185L71.8673 73.1131C71.7516 72.6797 72.118 72.3234 72.5518 72.3716Z" fill="#4D4D4D"/>
<path fill-rule="evenodd" clip-rule="evenodd" d="M82.6638 72.5354C82.9049 72.6317 83.0688 72.8628 83.088 73.1421L83.3001 75.3185C83.3291 75.6556 83.1748 75.9734 82.7795 76.0986C79.6077 77.052 76.6576 76.6186 73.4472 76.0986C72.9844 76.0215 72.5506 75.7808 72.4349 75.3089L71.8661 73.1035C71.7889 72.7857 71.9625 72.5161 72.2324 72.4102C75.7513 72.7761 79.1353 73.0458 82.6638 72.5354Z" fill="#1A1A1A"/>
<path fill-rule="evenodd" clip-rule="evenodd" d="M49.2797 59.0811H52.0948C52.9432 59.0811 53.5602 59.7552 53.9459 60.4871L57.2816 66.6602C57.6191 67.2765 57.3973 67.9025 56.761 67.9025H48.9519C48.4795 67.9025 48.2192 67.6328 48.1999 67.1321C48.1035 64.7437 48.1806 62.3169 48.4506 59.8707C48.5084 59.3892 48.7591 59.0811 49.2797 59.0811Z" fill="#121212"/>
<path fill-rule="evenodd" clip-rule="evenodd" d="M49.278 59.3701C48.9117 59.3701 48.7767 59.5531 48.7381 59.8998C48.4778 62.2978 48.391 64.7053 48.4875 67.1129C48.4971 67.4404 48.6128 67.6041 48.9502 67.6041H56.7593C57.2414 67.6041 57.2028 67.1129 57.0293 66.7951L53.6935 60.6221C53.3657 60.025 52.8355 59.3701 52.0931 59.3701H49.278Z" fill="#2E333D"/>
<path fill-rule="evenodd" clip-rule="evenodd" d="M48.4888 63.4629C48.4502 64.6763 48.4502 65.8994 48.4984 67.1128C48.508 67.4402 48.6237 67.604 48.9612 67.604H56.7703C57.2523 67.604 57.2137 67.1128 57.0402 66.795L56.1147 65.0808C53.9455 64.4644 50.8797 63.9155 48.4888 63.4629Z" fill="#1A1A1A"/>
<path fill-rule="evenodd" clip-rule="evenodd" d="M73.3321 79.1611H84.3613C84.7469 79.1611 84.9976 79.3826 85.0554 79.7197L85.2675 81.1161C85.3254 81.5109 85.0747 81.7998 84.7276 81.7998H71.0376C70.6906 81.7998 70.4592 81.4339 70.6809 81.2028L72.2138 79.5945C72.4838 79.296 72.8983 79.1611 73.3321 79.1611Z" fill="#404040"/>
<path fill-rule="evenodd" clip-rule="evenodd" d="M73.3321 79.1611H83.6575C84.0431 79.1611 84.2938 79.3826 84.3516 79.7197L84.5637 81.1161C84.6216 81.5109 84.3709 81.7998 84.0239 81.7998H71.0376C70.6906 81.7998 70.4592 81.4339 70.6809 81.2028L72.2138 79.5945C72.4838 79.296 72.8983 79.1611 73.3321 79.1611Z" fill="#1A1A1A"/>
<path fill-rule="evenodd" clip-rule="evenodd" d="M48.4981 70.166H50.0021C50.166 70.166 50.3009 70.3008 50.3009 70.4646C50.3009 70.6283 50.166 70.7631 50.0021 70.7631H48.4981C48.3342 70.7631 48.1992 70.6283 48.1992 70.4646C48.1992 70.3008 48.3342 70.166 48.4981 70.166Z" fill="#1A1A1A"/>
<path fill-rule="evenodd" clip-rule="evenodd" d="M70.6521 75.3376L65.8606 74.9139C65.5714 74.885 65.2339 74.6635 65.1086 74.3938L64.0385 72.1211C63.8264 71.6684 64.1059 71.4373 64.453 71.4758C65.7738 71.5914 69.2349 72.0536 70.2375 72.2559C70.4689 72.304 70.6521 72.4485 70.7099 72.7085L71.1727 74.7212C71.2498 75.0102 70.9991 75.3665 70.6521 75.3376Z" fill="#808080"/>
<path fill-rule="evenodd" clip-rule="evenodd" d="M70.2856 75.309L65.8508 74.9238C65.5615 74.8949 65.2241 74.6734 65.0988 74.4038L64.0286 72.131C63.8744 71.8036 63.9804 71.5917 64.1829 71.5146C65.6772 71.6687 68.7237 72.0828 69.6493 72.2658C69.8806 72.314 70.0638 72.4584 70.1217 72.7184L70.5844 74.7312C70.6519 74.9431 70.5169 75.2127 70.2856 75.309Z" fill="#4D4D4D"/>
<path fill-rule="evenodd" clip-rule="evenodd" d="M23.8164 70.165H34.0165C34.1804 70.165 34.3153 70.2999 34.3153 70.4636C34.3153 70.6273 34.1804 70.7621 34.0165 70.7621H23.8164C23.6526 70.7621 23.5176 70.6273 23.5176 70.4636C23.5176 70.2999 23.6526 70.165 23.8164 70.165Z" fill="#1A1A1A"/>
<path fill-rule="evenodd" clip-rule="evenodd" d="M69.1975 73.1514C68.7154 73.0166 68.2527 72.9684 67.8285 72.9973C67.6839 73.007 67.5393 73.0936 67.5682 73.2284L67.6646 73.7966C67.6935 73.9411 67.7899 74.0567 67.9249 74.0952C68.3877 74.2107 68.8408 74.2589 69.2939 74.2493C69.4385 74.2493 69.5831 74.153 69.5542 74.0181L69.4578 73.4499C69.4289 73.3055 69.3325 73.1899 69.1975 73.1514Z" fill="#E5E5E5"/>
<path fill-rule="evenodd" clip-rule="evenodd" d="M66.8635 72.8135C66.3814 72.6787 65.9187 72.6305 65.4945 72.6594C65.3499 72.6691 65.2053 72.7557 65.2342 72.8906L65.3306 73.4587C65.3595 73.6032 65.4559 73.7188 65.5909 73.7573C66.0537 73.8728 66.5068 73.921 66.9599 73.9114C67.1045 73.9114 67.2491 73.8151 67.2202 73.6802L67.1238 73.1121C67.0949 72.9676 66.9985 72.852 66.8635 72.8135Z" fill="#E5E5E5"/>
<path fill-rule="evenodd" clip-rule="evenodd" d="M79.1281 74.3643H77.6049C77.4121 74.3643 77.2578 74.5183 77.2578 74.7109C77.2578 74.9036 77.4121 75.0673 77.6049 75.0673H79.1281C79.321 75.0673 79.4752 74.9132 79.4752 74.7109C79.4752 74.5183 79.321 74.3643 79.1281 74.3643Z" fill="#0F0F0F"/>
<path fill-rule="evenodd" clip-rule="evenodd" d="M79.4856 74.3643H77.9623C77.7695 74.3643 77.6152 74.5183 77.6152 74.7109C77.6152 74.9036 77.7695 75.0673 77.9623 75.0673H79.4856C79.6784 75.0673 79.8326 74.9132 79.8326 74.7109C79.8326 74.5183 79.6784 74.3643 79.4856 74.3643Z" fill="#B2B2B2"/>
<path fill-rule="evenodd" clip-rule="evenodd" d="M56.3422 67.9413H55.0406C54.549 67.9413 54.549 66.5449 55.0406 66.5449H56.3422C56.8338 66.5449 56.8338 67.9413 56.3422 67.9413Z" fill="#E5E5E5"/>
<path fill-rule="evenodd" clip-rule="evenodd" d="M54.7526 68.2015H53.2197C52.8437 68.2015 52.5352 67.8933 52.5352 67.5177V64.1086C52.5352 63.733 52.8437 63.4248 53.2197 63.4248H54.7526C55.1285 63.4248 55.4371 63.733 55.4371 64.1086V67.5177C55.4371 67.8933 55.1285 68.2015 54.7526 68.2015Z" fill="#B2B2B2"/>
<path fill-rule="evenodd" clip-rule="evenodd" d="M54.8894 68.2016H53.6747C53.3758 68.2016 53.1348 67.9608 53.1348 67.6623V63.9739C53.1348 63.6753 53.3758 63.4346 53.6747 63.4346H54.8894C55.1883 63.4346 55.4293 63.6753 55.4293 63.9739V67.6623C55.4389 67.9608 55.1883 68.2016 54.8894 68.2016Z" fill="#E5E5E5"/>
<path fill-rule="evenodd" clip-rule="evenodd" d="M68.2629 79.2578H70.2682C70.5285 79.2578 70.6924 79.5564 70.4996 79.749L69.9693 80.2979C69.709 80.5675 69.3909 80.6638 69.0727 80.6638H67.4145C67.1542 80.6638 66.9518 80.4038 67.1349 80.1534L67.5206 79.6334C67.7038 79.3926 67.9544 79.2578 68.2629 79.2578Z" fill="#404040"/>
<path fill-rule="evenodd" clip-rule="evenodd" d="M68.2629 79.2578H69.5837C69.844 79.2578 70.0079 79.5564 69.8151 79.749L69.2849 80.2979C69.0246 80.5675 68.7064 80.6638 68.3883 80.6638H67.4145C67.1542 80.6638 66.9518 80.4038 67.1349 80.1534L67.5206 79.6334C67.7038 79.3926 67.9544 79.2578 68.2629 79.2578Z" fill="#1A1A1A"/>
<path fill-rule="evenodd" clip-rule="evenodd" d="M44.1973 70.166H45.7013C45.8652 70.166 46.0001 70.3008 46.0001 70.4646C46.0001 70.6283 45.8652 70.7631 45.7013 70.7631H44.1973C44.0334 70.7631 43.8984 70.6283 43.8984 70.4646C43.8984 70.3008 44.0334 70.166 44.1973 70.166Z" fill="#1A1A1A"/>
<defs>
<linearGradient id="paint0_linear_494_7053" x1="35.4224" y1="83.3045" x2="19.5802" y2="66.8816" gradientUnits="userSpaceOnUse">
<stop stop-color="#D4D1D2"/>
<stop offset="1" stop-color="#ECECEC"/>
</linearGradient>
<linearGradient id="paint1_linear_494_7053" x1="61.4175" y1="79.8514" x2="45.9285" y2="64.3455" gradientUnits="userSpaceOnUse">
<stop stop-color="#D4D1D2"/>
<stop offset="1" stop-color="#ECECEC"/>
</linearGradient>
</defs>
</svg>
