<svg width="122" height="146" viewBox="0 0 122 146" fill="none" xmlns="http://www.w3.org/2000/svg">
<path d="M121.999 61.1873C121.999 27.375 94.6752 -3.00289e-07 60.9997 -1.93477e-07C27.3241 -8.66661e-08 8.68274e-08 27.375 1.94072e-07 61.1873C2.85215e-07 89.9227 19.7488 114.013 46.3452 120.583L52.1673 130.736L60.9997 146L69.799 130.703L75.6211 120.55C102.251 113.98 121.999 89.8895 121.999 61.1873Z" fill="#EF6238"/>
<path d="M60.996 115C90.8192 115 114.997 90.8234 114.998 61C114.999 31.1766 90.8229 7 60.9997 7C31.1765 7 6.99918 31.1766 6.99816 61C6.99714 90.8234 31.1728 115 60.996 115Z" fill="white"/>
<path d="M91.7809 92.2659C108.471 75.5155 108.471 48.3576 91.7809 31.6071C75.0909 14.8566 48.0311 14.8566 31.341 31.6071C14.651 48.3576 14.651 75.5155 31.341 92.2659C48.031 109.016 75.0909 109.016 91.7809 92.2659Z" fill="#EEF5F9"/>
<path d="M45.9622 44.8222C45.6293 44.8222 45.3172 44.8621 45.026 44.9618C44.6723 43.9051 43.6112 43.1474 42.3421 43.1474C41.8428 43.1474 41.3643 43.267 40.969 43.4864C40.4072 42.7686 39.4918 42.29 38.4723 42.29C36.9328 42.29 35.6637 43.3268 35.4348 44.7026C34.02 44.9618 32.959 46.1182 32.959 47.494C32.959 49.0492 34.3113 50.3253 35.9965 50.3452L45.8582 50.3452C45.879 50.3452 45.9206 50.3452 45.9622 50.3452C47.6058 50.3452 48.9373 49.109 48.9373 47.5937C48.9373 46.0584 47.6058 44.8222 45.9622 44.8222Z" fill="white"/>
<path d="M55.4003 97.977L55.4003 61.2031L45.1172 61.2031L45.1172 97.977L53.2868 97.977C53.9777 97.8342 54.689 98.0994 55.4003 97.977Z" fill="#1C1E23"/>
<path d="M48.4079 62.3262L46.5586 62.3262L46.5586 64.1822L48.4079 64.1822L48.4079 62.3262Z" fill="#EF6238"/>
<path d="M48.4079 65.6299L46.5586 65.6299L46.5586 67.4859L48.4079 67.4859L48.4079 65.6299Z" fill="#EF6238"/>
<path d="M48.4079 68.9336L46.5586 68.9336L46.5586 70.7896L48.4079 70.7896L48.4079 68.9336Z" fill="#EF6238"/>
<path d="M48.4079 72.2383L46.5586 72.2383L46.5586 74.0943L48.4079 74.0943L48.4079 72.2383Z" fill="#EF6238"/>
<path d="M48.4079 75.543L46.5586 75.543L46.5586 77.399L48.4079 77.399L48.4079 75.543Z" fill="#EF6238"/>
<path d="M48.4079 78.8672L46.5586 78.8672L46.5586 80.7232L48.4079 80.7232L48.4079 78.8672Z" fill="#EF6238"/>
<path d="M51.1736 62.3242L49.3242 62.3242L49.3242 64.1802L51.1736 64.1802L51.1736 62.3242Z" fill="#EF6238"/>
<path d="M51.1736 65.6279L49.3242 65.6279L49.3242 67.484L51.1736 67.484L51.1736 65.6279Z" fill="#EF6238"/>
<path d="M51.1736 68.9316L49.3242 68.9316L49.3242 70.7877L51.1736 70.7877L51.1736 68.9316Z" fill="#EF6238"/>
<path d="M51.1736 72.2363L49.3242 72.2363L49.3242 74.0924L51.1736 74.0924L51.1736 72.2363Z" fill="#EF6238"/>
<path d="M51.1736 75.542L49.3242 75.542L49.3242 77.398L51.1736 77.398L51.1736 75.542Z" fill="#EF6238"/>
<path d="M51.1736 78.8652L49.3242 78.8652L49.3242 80.7213L51.1736 80.7213L51.1736 78.8652Z" fill="#EF6238"/>
<path d="M53.9548 62.3262L52.1055 62.3262L52.1055 64.1822L53.9548 64.1822L53.9548 62.3262Z" fill="#EF6238"/>
<path d="M53.9548 65.6309L52.1055 65.6309L52.1055 67.4869L53.9548 67.4869L53.9548 65.6309Z" fill="#EF6238"/>
<path d="M53.9548 68.9336L52.1055 68.9336L52.1055 70.7896L53.9548 70.7896L53.9548 68.9336Z" fill="#EF6238"/>
<path d="M53.9548 72.2383L52.1055 72.2383L52.1055 74.0943L53.9548 74.0943L53.9548 72.2383Z" fill="#EF6238"/>
<path d="M53.9548 75.543L52.1055 75.543L52.1055 77.399L53.9548 77.399L53.9548 75.543Z" fill="#EF6238"/>
<path d="M53.9548 78.8672L52.1055 78.8672L52.1055 80.7232L53.9548 80.7232L53.9548 78.8672Z" fill="#EF6238"/>
<path d="M36.543 93.1233C36.543 87.4532 41.1358 82.8437 46.7854 82.8437C52.435 82.8437 57.0279 87.4532 57.0279 93.1233C57.0279 94.8978 56.5808 96.5498 55.8085 97.998L37.7826 97.998C36.9901 96.5498 36.543 94.8978 36.543 93.1233Z" fill="#82A53C"/>
<path d="M44.1797 85.5332L47.1264 85.5332L62.1853 98.0155L59.523 97.1589L44.6268 89.0209L44.1797 85.5332Z" fill="#1C1E23"/>
<path d="M62.1812 98.0173L47.102 85.1475L46.9395 86.5956L62.1812 98.0173Z" fill="#4E4E4E"/>
<path d="M61.5348 96.2825C60.5999 95.4259 59.6854 94.5081 58.8319 93.5699C57.958 92.6316 57.1248 91.673 56.3119 90.6736C54.7065 88.6952 53.2026 86.6352 51.902 84.4529C50.5607 82.2909 49.4023 80.0065 48.4269 77.661C47.4514 75.2951 46.7198 72.8476 46.1914 70.3389C46.5166 72.8884 47.1872 75.3767 48.1017 77.7834C49.0162 80.1901 50.1746 82.4949 51.4955 84.6976C52.8571 86.88 54.361 88.9604 56.0274 90.9184C57.7345 92.8356 59.5432 94.6916 61.5348 96.2825Z" fill="#1C1E23"/>
<path d="M58.3019 94.5082C57.5093 93.7943 56.7777 93.0397 56.0664 92.2646C55.3551 91.4896 54.6438 90.6942 53.9935 89.8783C52.6523 88.2466 51.4126 86.5334 50.3355 84.7181C49.2178 82.9233 48.2626 81.0469 47.4497 79.0889C47.0433 78.1098 46.6978 77.1104 46.3727 76.111C46.0475 75.1116 45.7833 74.0714 45.5801 73.0312C45.8646 75.132 46.4133 77.2124 47.1652 79.1908C47.9171 81.1896 48.8926 83.0865 49.99 84.9221C51.1078 86.7373 52.3677 88.4506 53.7497 90.0619C55.1316 91.6732 56.6354 93.1825 58.3019 94.5082Z" fill="#1C1E23"/>
<path d="M59.5199 97.1612L47.1639 87.3508L42.9775 87.208L40.9453 87.6975L59.5199 97.1612Z" fill="#4E4E4E"/>
<path d="M31.3926 85.1874L32.2868 85.1874L32.2868 71.0326L31.6974 70.1555L31.6974 69.8496L45.9434 69.8496L45.9434 70.1555L45.354 71.0326L45.354 85.1874L47.1221 85.1262L47.1221 86.5947L45.3743 86.6559L45.3743 97.996L41.2083 97.996L36.5748 97.996L32.3884 97.996L32.3884 86.6559L31.3926 86.6559L31.3926 85.1874ZM37.5706 76.2131C37.5299 75.3565 36.0667 73.6433 36.0667 73.6433C36.0667 73.6433 34.6035 75.3565 34.5629 76.2131L34.5629 85.2078L37.5706 85.2078L37.5706 76.2131ZM43.0576 76.1927C43.0169 75.3361 41.5537 73.6229 41.5537 73.6229C41.5537 73.6229 40.0905 75.3361 40.0499 76.1927L40.0499 85.1874L43.0576 85.1874L43.0576 76.1927Z" fill="#4E4E4E"/>
<path d="M31.3926 85.1874L32.2868 85.1874L32.2868 71.0326L31.6974 70.1555L31.6974 69.8496L45.9434 69.8496L45.9434 70.1555L45.354 71.0326L45.354 85.1874L47.1221 85.1262L47.1221 86.5947L45.3743 86.6559L45.3743 97.996L41.2083 97.996L36.5748 97.996L32.3884 97.996L32.3884 86.6559L31.3926 86.6559L31.3926 85.1874ZM37.5706 76.2131C37.5299 75.3565 36.0667 73.6433 36.0667 73.6433C36.0667 73.6433 34.6035 75.3565 34.5629 76.2131L34.5629 85.2078L37.5706 85.2078L37.5706 76.2131ZM43.0576 76.1927C43.0169 75.3361 41.5537 73.6229 41.5537 73.6229C41.5537 73.6229 40.0905 75.3361 40.0499 76.1927L40.0499 85.1874L43.0576 85.1874L43.0576 76.1927Z" fill="#4E4E4E"/>
<path d="M45.5579 70.2167L45.5579 70.5227L44.9685 71.3997L44.9889 85.5545L46.7569 85.4933L46.7569 86.6151L47.1227 86.5947L47.1227 85.1262L45.3547 85.1874L45.3547 71.0326L45.9237 70.1555L45.9237 69.8496L31.6777 69.8496L31.6777 70.1555L31.7184 70.2167L45.5579 70.2167Z" fill="#1C1E23"/>
<path d="M35.7418 74.0515C35.7214 74.0311 35.7011 74.0107 35.7011 74.0107C35.7011 74.0107 34.2379 75.724 34.1973 76.5806L34.1973 85.5752L37.6927 85.5752L37.6927 85.2081L34.5631 85.2081L34.5631 76.2135C34.5834 75.622 35.2947 74.6226 35.7418 74.0515Z" fill="#1C1E23"/>
<path d="M32.3884 85.1885L31.3926 85.1885L31.3926 85.5556L32.3884 85.5556L32.3884 85.1885Z" fill="#1C1E23"/>
<path d="M44.9902 87.0234L45.0106 98.0169L45.3769 98.0169L45.3565 87.0234L44.9902 87.0234Z" fill="#1C1E23"/>
<path d="M41.2086 74.0515C41.1882 74.0311 41.1679 74.0107 41.1679 74.0107C41.1679 74.0107 39.7047 75.724 39.6641 76.5806L39.6641 85.5752L43.1595 85.5752L43.1595 85.2081L40.0299 85.2081L40.0299 76.2135C40.0705 75.6016 40.7818 74.6022 41.2086 74.0515Z" fill="#1C1E23"/>
<path d="M37.5565 87.7363L34.5488 87.7363L34.5488 97.9955L37.5565 97.9955L37.5565 87.7363Z" fill="#1C1E23"/>
<path d="M43.1034 87.7363L40.0957 87.7363L40.0957 97.9955L43.1034 97.9955L43.1034 87.7363Z" fill="#1C1E23"/>
<path d="M32.2695 71.0322L45.3571 71.0322" stroke="#1C1E23" stroke-width="1.8946" stroke-miterlimit="10" stroke-linecap="round" stroke-linejoin="round"/>
<path d="M33.125 71.9092L44.6274 71.9092" stroke="#1C1E23" stroke-width="1.8946" stroke-miterlimit="10" stroke-linecap="round" stroke-linejoin="round"/>
<path d="M45.3621 86.6553L32.3965 86.6553L32.3965 87.308L45.3621 87.308L45.3621 86.6553Z" fill="#1C1E23"/>
<path d="M89.7673 54.6562L92.2263 54.6562L92.2263 98.0181L83.2032 98.0181L80.6426 98.0181L80.6426 54.6562L83.1016 54.6562" fill="#5E626C"/>
<path d="M83.2032 98.0194C83.1625 98.0194 83.1422 98.0194 83.1016 98.0194L83.1016 51.8838L89.7673 51.8838L89.7673 98.0194C87.6131 97.5503 85.4183 98.0194 83.2032 98.0194Z" fill="#929292"/>
<path d="M89.071 56.0039L87.75 56.0039L87.75 57.9619L89.071 57.9619L89.071 56.0039Z" fill="#1C1E23"/>
<path d="M87.7526 56.0039L86.4316 56.0039L86.4316 57.9619L87.7526 57.9619L87.7526 56.0039Z" fill="#5E626C"/>
<path d="M86.4323 56.0039L85.1113 56.0039L85.1113 57.9619L86.4323 57.9619L86.4323 56.0039Z" fill="#1C1E23"/>
<path d="M85.11 56.0039L83.7891 56.0039L83.7891 57.9619L85.11 57.9619L85.11 56.0039Z" fill="#5E626C"/>
<path d="M89.071 59.4707L87.75 59.4707L87.75 61.4287L89.071 61.4287L89.071 59.4707Z" fill="#1C1E23"/>
<path d="M87.7526 59.4707L86.4316 59.4707L86.4316 61.4287L87.7526 61.4287L87.7526 59.4707Z" fill="#5E626C"/>
<path d="M86.4323 59.4707L85.1113 59.4707L85.1113 61.4287L86.4323 61.4287L86.4323 59.4707Z" fill="#1C1E23"/>
<path d="M85.11 59.4707L83.7891 59.4707L83.7891 61.4287L85.11 61.4287L85.11 59.4707Z" fill="#5E626C"/>
<path d="M89.071 62.958L87.75 62.958L87.75 64.916L89.071 64.916L89.071 62.958Z" fill="#1C1E23"/>
<path d="M87.7526 62.958L86.4316 62.958L86.4316 64.916L87.7526 64.916L87.7526 62.958Z" fill="#5E626C"/>
<path d="M86.4323 62.958L85.1113 62.958L85.1113 64.916L86.4323 64.916L86.4323 62.958Z" fill="#1C1E23"/>
<path d="M85.11 62.958L83.7891 62.958L83.7891 64.916L85.11 64.916L85.11 62.958Z" fill="#5E626C"/>
<path d="M89.071 66.4473L87.75 66.4473L87.75 68.4053L89.071 68.4053L89.071 66.4473Z" fill="#1C1E23"/>
<path d="M87.7526 66.4473L86.4316 66.4473L86.4316 68.4053L87.7526 68.4053L87.7526 66.4473Z" fill="#5E626C"/>
<path d="M86.4323 66.4473L85.1113 66.4473L85.1113 68.4053L86.4323 68.4053L86.4323 66.4473Z" fill="#1C1E23"/>
<path d="M85.11 66.4473L83.7891 66.4473L83.7891 68.4053L85.11 68.4053L85.11 66.4473Z" fill="#5E626C"/>
<path d="M89.071 69.9131L87.75 69.9131L87.75 71.8711L89.071 71.8711L89.071 69.9131Z" fill="#1C1E23"/>
<path d="M87.7526 69.9131L86.4316 69.9131L86.4316 71.8711L87.7526 71.8711L87.7526 69.9131Z" fill="#5E626C"/>
<path d="M86.4323 69.9131L85.1113 69.9131L85.1113 71.8711L86.4323 71.8711L86.4323 69.9131Z" fill="#1C1E23"/>
<path d="M85.11 69.9131L83.7891 69.9131L83.7891 71.8711L85.11 71.8711L85.11 69.9131Z" fill="#5E626C"/>
<path d="M89.071 73.4014L87.75 73.4014L87.75 75.3594L89.071 75.3594L89.071 73.4014Z" fill="#1C1E23"/>
<path d="M87.7526 73.4014L86.4316 73.4014L86.4316 75.3594L87.7526 75.3594L87.7526 73.4014Z" fill="#5E626C"/>
<path d="M86.4323 73.4014L85.1113 73.4014L85.1113 75.3594L86.4323 75.3594L86.4323 73.4014Z" fill="#1C1E23"/>
<path d="M85.11 73.4014L83.7891 73.4014L83.7891 75.3594L85.11 75.3594L85.11 73.4014Z" fill="#5E626C"/>
<path d="M89.071 76.3389L87.75 76.3389L87.75 78.2969L89.071 78.2969L89.071 76.3389Z" fill="#1C1E23"/>
<path d="M87.7526 76.3389L86.4316 76.3389L86.4316 78.2969L87.7526 78.2969L87.7526 76.3389Z" fill="#5E626C"/>
<path d="M86.4323 76.3389L85.1113 76.3389L85.1113 78.2969L86.4323 78.2969L86.4323 76.3389Z" fill="#1C1E23"/>
<path d="M85.11 76.3389L83.7891 76.3389L83.7891 78.2969L85.11 78.2969L85.11 76.3389Z" fill="#5E626C"/>
<path d="M89.071 79.8057L87.75 79.8057L87.75 81.7637L89.071 81.7637L89.071 79.8057Z" fill="#1C1E23"/>
<path d="M87.7526 79.8057L86.4316 79.8057L86.4316 81.7637L87.7526 81.7637L87.7526 79.8057Z" fill="#5E626C"/>
<path d="M86.4323 79.8057L85.1113 79.8057L85.1113 81.7637L86.4323 81.7637L86.4323 79.8057Z" fill="#1C1E23"/>
<path d="M85.11 79.8057L83.7891 79.8057L83.7891 81.7637L85.11 81.7637L85.11 79.8057Z" fill="#5E626C"/>
<path d="M89.071 83.2939L87.75 83.2939L87.75 85.252L89.071 85.252L89.071 83.2939Z" fill="#1C1E23"/>
<path d="M87.7526 83.2939L86.4316 83.2939L86.4316 85.252L87.7526 85.252L87.7526 83.2939Z" fill="#5E626C"/>
<path d="M86.4323 83.2939L85.1113 83.2939L85.1113 85.252L86.4323 85.252L86.4323 83.2939Z" fill="#1C1E23"/>
<path d="M85.11 83.2939L83.7891 83.2939L83.7891 85.252L85.11 85.252L85.11 83.2939Z" fill="#5E626C"/>
<path d="M89.071 86.7607L87.75 86.7607L87.75 88.7188L89.071 88.7188L89.071 86.7607Z" fill="#1C1E23"/>
<path d="M87.7526 86.7607L86.4316 86.7607L86.4316 88.7188L87.7526 88.7188L87.7526 86.7607Z" fill="#5E626C"/>
<path d="M86.4323 86.7607L85.1113 86.7607L85.1113 88.7188L86.4323 88.7188L86.4323 86.7607Z" fill="#1C1E23"/>
<path d="M85.11 86.7607L83.7891 86.7607L83.7891 88.7188L85.11 88.7188L85.11 86.7607Z" fill="#5E626C"/>
<path d="M89.071 90.249L87.75 90.249L87.75 92.207L89.071 92.207L89.071 90.249Z" fill="#1C1E23"/>
<path d="M87.7526 90.249L86.4316 90.249L86.4316 92.207L87.7526 92.207L87.7526 90.249Z" fill="#5E626C"/>
<path d="M86.4323 90.249L85.1113 90.249L85.1113 92.207L86.4323 92.207L86.4323 90.249Z" fill="#1C1E23"/>
<path d="M85.11 90.249L83.7891 90.249L83.7891 92.207L85.11 92.207L85.11 90.249Z" fill="#5E626C"/>
<path d="M89.071 93.7158L87.75 93.7158L87.75 95.6738L89.071 95.6738L89.071 93.7158Z" fill="#1C1E23"/>
<path d="M87.7526 93.7158L86.4316 93.7158L86.4316 95.6738L87.7526 95.6738L87.7526 93.7158Z" fill="#5E626C"/>
<path d="M86.4323 93.7158L85.1113 93.7158L85.1113 95.6738L86.4323 95.6738L86.4323 93.7158Z" fill="#1C1E23"/>
<path d="M85.11 93.7158L83.7891 93.7158L83.7891 95.6738L85.11 95.6738L85.11 93.7158Z" fill="#5E626C"/>
<path d="M91.6374 56.0049L90.3164 56.0049L90.3164 57.9629L91.6374 57.9629L91.6374 56.0049Z" fill="#1C1E23"/>
<path d="M91.6374 59.4717L90.3164 59.4717L90.3164 61.4297L91.6374 61.4297L91.6374 59.4717Z" fill="#1C1E23"/>
<path d="M91.6374 62.96L90.3164 62.96L90.3164 64.918L91.6374 64.918L91.6374 62.96Z" fill="#1C1E23"/>
<path d="M91.6374 66.4482L90.3164 66.4482L90.3164 68.4063L91.6374 68.4063L91.6374 66.4482Z" fill="#1C1E23"/>
<path d="M91.6374 69.9141L90.3164 69.9141L90.3164 71.8721L91.6374 71.8721L91.6374 69.9141Z" fill="#1C1E23"/>
<path d="M91.6374 73.4023L90.3164 73.4023L90.3164 75.3604L91.6374 75.3604L91.6374 73.4023Z" fill="#1C1E23"/>
<path d="M91.6374 76.8691L90.3164 76.8691L90.3164 78.8272L91.6374 78.8272L91.6374 76.8691Z" fill="#1C1E23"/>
<path d="M91.6374 80.3574L90.3164 80.3574L90.3164 82.3154L91.6374 82.3154L91.6374 80.3574Z" fill="#1C1E23"/>
<path d="M91.6374 83.8252L90.3164 83.8252L90.3164 85.7832L91.6374 85.7832L91.6374 83.8252Z" fill="#1C1E23"/>
<path d="M82.5338 56.0049L81.2129 56.0049L81.2129 57.9629L82.5338 57.9629L82.5338 56.0049Z" fill="#1C1E23"/>
<path d="M82.5338 59.4717L81.2129 59.4717L81.2129 61.4297L82.5338 61.4297L82.5338 59.4717Z" fill="#1C1E23"/>
<path d="M82.5338 62.96L81.2129 62.96L81.2129 64.918L82.5338 64.918L82.5338 62.96Z" fill="#1C1E23"/>
<path d="M82.5338 66.4482L81.2129 66.4482L81.2129 68.4063L82.5338 68.4063L82.5338 66.4482Z" fill="#1C1E23"/>
<path d="M82.5338 69.9141L81.2129 69.9141L81.2129 71.8721L82.5338 71.8721L82.5338 69.9141Z" fill="#1C1E23"/>
<path d="M82.5338 73.4023L81.2129 73.4023L81.2129 75.3604L82.5338 75.3604L82.5338 73.4023Z" fill="#1C1E23"/>
<path d="M82.5338 76.8691L81.2129 76.8691L81.2129 78.8272L82.5338 78.8272L82.5338 76.8691Z" fill="#1C1E23"/>
<path d="M82.5338 80.3574L81.2129 80.3574L81.2129 82.3154L82.5338 82.3154L82.5338 80.3574Z" fill="#1C1E23"/>
<path d="M82.5338 83.8252L81.2129 83.8252L81.2129 85.7832L82.5338 85.7832L82.5338 83.8252Z" fill="#1C1E23"/>
<path d="M89.7649 51.8843L86.4524 43.9707L83.1602 51.8843L89.7649 51.8843Z" fill="#1C1E23"/>
<path d="M80.416 94.2051C80.416 89.7791 83.9928 86.1895 88.4027 86.1895C92.8126 86.1895 96.3894 89.7791 96.3894 94.2051C96.3894 95.592 96.0439 96.8769 95.4342 98.0191L81.3508 98.0191C80.7615 96.8769 80.416 95.5716 80.416 94.2051Z" fill="#82A53C"/>
<path d="M63.7158 60.4065L61.6023 47.2715L59.3262 60.4065L63.7158 60.4065Z" fill="#1C1E23"/>
<path d="M57.9238 76.0703C57.9238 77.3145 59.5293 78.3342 61.5209 78.3342C63.5125 78.3342 65.1179 77.3145 65.1179 76.0703L65.1179 66.4026C65.1179 65.1585 63.5125 64.1387 61.5209 64.1387C59.5293 64.1387 57.9238 65.1585 57.9238 66.4026L57.9238 76.0703Z" fill="#1C1E23"/>
<path d="M60.2383 61.1191C60.2383 61.833 60.8073 62.4041 61.5186 62.4041C62.2299 62.4041 62.7989 61.833 62.7989 61.1191L62.7989 55.6326C62.7989 54.9187 62.2299 54.3477 61.5186 54.3477C60.8073 54.3477 60.2383 54.9187 60.2383 55.6326L60.2383 61.1191Z" fill="#1C1E23"/>
<path d="M62.3919 61.4463L62.3919 55.9598C62.3919 55.2459 61.8229 54.6749 61.1116 54.6749C60.8881 54.6749 60.6849 54.736 60.502 54.8176C60.7458 54.5321 61.0913 54.3281 61.4977 54.3281C62.209 54.3281 62.7781 54.8992 62.7781 55.6131L62.7781 61.0996C62.7781 61.5891 62.4935 62.0174 62.1074 62.2418C62.2903 62.0174 62.3919 61.7523 62.3919 61.4463Z" fill="#929292"/>
<path d="M59.6504 66.3816C59.6504 67.4218 60.4836 68.2581 61.52 68.2581C62.5565 68.2581 63.3897 67.4218 63.3897 66.3816L63.3897 58.4272C63.3897 57.387 62.5565 56.5508 61.52 56.5508C60.4836 56.5508 59.6504 57.387 59.6504 58.4272L59.6504 66.3816Z" fill="#4E4E4E"/>
<path d="M62.9838 66.708L62.9838 58.7535C62.9838 57.7134 62.1506 56.8771 61.1141 56.8771C60.7483 56.8771 60.4232 56.9791 60.1387 57.1627C60.4842 56.7955 60.9719 56.5508 61.5206 56.5508C62.557 56.5508 63.3902 57.387 63.3902 58.4272L63.3902 66.3816C63.3902 67.0547 63.0448 67.6462 62.5164 67.9725C62.8009 67.6258 62.9838 67.1975 62.9838 66.708Z" fill="#929292"/>
<path d="M59.3027 70.0124C59.3027 71.2362 60.2985 72.2152 61.4975 72.2152C62.7169 72.2152 63.6924 71.2158 63.6924 70.0124L63.6924 60.5895C63.6924 59.3657 62.6966 58.3867 61.4975 58.3867C60.2782 58.3867 59.3027 59.3861 59.3027 60.5895L59.3027 70.0124Z" fill="#1C1E23"/>
<path d="M63.3294 70.3388L63.3294 60.9158C63.3294 59.6921 62.3336 58.7131 61.1346 58.7131C60.6875 58.7131 60.281 58.8558 59.9355 59.0802C60.342 58.6519 60.911 58.3867 61.5207 58.3867C62.74 58.3867 63.7155 59.3861 63.7155 60.5895L63.7155 70.0124C63.7155 70.7875 63.3091 71.4605 62.7197 71.8685C63.1058 71.4605 63.3294 70.9302 63.3294 70.3388Z" fill="#929292"/>
<path d="M59.2637 72.1934C59.2637 73.4375 60.2798 74.4573 61.5195 74.4573C62.7591 74.4573 63.7752 73.4375 63.7752 72.1934L63.7752 62.5257C63.7752 61.2815 62.7591 60.2617 61.5195 60.2617C60.2798 60.2617 59.2637 61.2815 59.2637 62.5257L59.2637 72.1934Z" fill="#4E4E4E"/>
<path d="M63.3685 72.5402L63.3685 62.8725C63.3685 61.6284 62.3524 60.6086 61.1127 60.6086C60.6656 60.6086 60.2388 60.7513 59.873 60.9757C60.2795 60.5474 60.8688 60.2822 61.4988 60.2822C62.7385 60.2822 63.7546 61.302 63.7546 62.5462L63.7546 72.2139C63.7546 73.0093 63.3482 73.7028 62.7385 74.1107C63.1449 73.6824 63.3685 73.1317 63.3685 72.5402Z" fill="#929292"/>
<path d="M59.2637 74.1328C59.2637 75.377 60.2798 76.3968 61.5195 76.3968C62.7591 76.3968 63.7752 75.377 63.7752 74.1328L63.7752 64.4651C63.7752 63.221 62.7591 62.2012 61.5195 62.2012C60.2798 62.2012 59.2637 63.221 59.2637 64.4651L59.2637 74.1328Z" fill="#1C1E23"/>
<path d="M63.3685 74.4591L63.3685 64.7915C63.3685 63.5473 62.3524 62.5275 61.1127 62.5275C60.6656 62.5275 60.2388 62.6703 59.873 62.8946C60.2795 62.4663 60.8688 62.2012 61.4988 62.2012C62.7385 62.2012 63.7546 63.221 63.7546 64.4651L63.7546 74.1328C63.7546 74.9282 63.3482 75.6217 62.7385 76.0296C63.1449 75.6217 63.3685 75.071 63.3685 74.4591Z" fill="#929292"/>
<path d="M59.2637 76.0703C59.2637 77.3145 60.2798 78.3342 61.5195 78.3342C62.7591 78.3342 63.7752 77.3145 63.7752 76.0703L63.7752 66.4026C63.7752 65.1585 62.7591 64.1387 61.5195 64.1387C60.2798 64.1387 59.2637 65.1585 59.2637 66.4026L59.2637 76.0703Z" fill="#929292"/>
<path d="M65.8065 74.1318L57.2305 74.1318L57.2305 98.0155L65.8065 98.0155L65.8065 74.1318Z" fill="#1C1E23"/>
<path d="M64.9521 74.1318L58.1035 74.1318L58.1035 98.0155L64.9521 98.0155L64.9521 74.1318Z" fill="#929292"/>
<path d="M50.8066 97.9776L50.8066 66.6494L61.4962 66.6494L61.4962 97.9776L53.0014 97.9776C52.2698 97.8756 51.5382 98.0796 50.8066 97.9776Z" fill="#1C1E23"/>
<path d="M55.8047 97.9766L55.8047 66.6484L60.3569 66.6484L60.3569 97.9766L56.7395 97.9766C56.4347 97.8746 56.1298 98.0786 55.8047 97.9766Z" fill="#4E4E4E"/>
<path d="M50.7461 97.9766L50.7461 66.6484L52.758 66.6484L52.758 97.9766L51.1525 97.9766C51.0306 97.8746 50.8884 98.0786 50.7461 97.9766Z" fill="#4E4E4E"/>
<path d="M61.4962 68.0752L50.8066 68.0752" stroke="#BCAAAA" stroke-width="2.064" stroke-miterlimit="10"/>
<path d="M61.4962 70.0957L50.8066 70.0957" stroke="#BCAAAA" stroke-width="2.064" stroke-miterlimit="10"/>
<path d="M61.4962 72.1348L50.8066 72.1348" stroke="#BCAAAA" stroke-width="2.064" stroke-miterlimit="10"/>
<path d="M61.4962 74.1543L50.8066 74.1543" stroke="#BCAAAA" stroke-width="2.064" stroke-miterlimit="10"/>
<path d="M61.4962 76.1934L50.8066 76.1934" stroke="#BCAAAA" stroke-width="2.064" stroke-miterlimit="10"/>
<path d="M61.4962 78.2334L50.8066 78.2334" stroke="#BCAAAA" stroke-width="2.064" stroke-miterlimit="10"/>
<path d="M61.4962 80.252L50.8066 80.252" stroke="#BCAAAA" stroke-width="2.064" stroke-miterlimit="10"/>
<path d="M61.4962 82.293L50.8066 82.293" stroke="#BCAAAA" stroke-width="2.064" stroke-miterlimit="10"/>
<path d="M61.4962 84.3115L50.8066 84.3115" stroke="#BCAAAA" stroke-width="2.064" stroke-miterlimit="10"/>
<path d="M61.4962 86.3525L50.8066 86.3525" stroke="#BCAAAA" stroke-width="2.064" stroke-miterlimit="10"/>
<path d="M61.4962 88.3906L50.8066 88.3906" stroke="#BCAAAA" stroke-width="2.064" stroke-miterlimit="10"/>
<path d="M61.4962 90.4102L50.8066 90.4102" stroke="#BCAAAA" stroke-width="2.064" stroke-miterlimit="10"/>
<path d="M61.4962 92.4492L50.8066 92.4492" stroke="#BCAAAA" stroke-width="2.064" stroke-miterlimit="10"/>
<path d="M61.4962 94.4687L50.8066 94.4688" stroke="#BCAAAA" stroke-width="2.064" stroke-miterlimit="10"/>
<path d="M77.3274 73.0319C77.3274 73.0319 76.9616 72.4405 76.9616 72.1753C76.9616 71.9102 76.6974 70.2173 76.6974 69.5442C76.6974 68.8712 76.6974 67.627 76.6974 66.8928C76.6974 66.1585 76.6364 65.0979 76.6364 65.0979C76.6364 65.0979 76.0877 59.8562 76.0877 59.7542C76.0877 59.6522 75.8438 58.4692 75.8438 58.2857C75.8438 58.0817 75.9861 57.9185 75.9861 57.9185C75.9861 57.9185 76.3316 58.1429 76.4332 58.2245C76.5348 58.2857 76.7177 58.4896 76.8396 58.5508C76.9819 58.612 77.307 58.4692 77.5103 58.4284C77.7338 58.3876 77.9574 57.8166 78.0387 57.7758C78.1199 57.735 78.3232 57.1435 78.3435 56.8172C78.3638 56.4908 78.5264 55.8789 78.5467 55.8178C78.567 55.777 78.5467 55.3894 78.5467 55.3894C78.5467 55.3894 78.5467 55.3079 78.5873 54.594C78.628 53.8801 78.689 54.2065 78.7296 54.0229C78.7703 53.819 78.7093 53.6558 78.7093 53.6558L78.5467 53.0439L78.2216 52.6768L78.8719 51.2083L77.6728 50.2701L77.0022 51.5346L76.4129 50.8411C76.4129 50.8411 76.0064 50.2497 75.9861 50.1681C75.9658 50.1069 74.9497 48.4344 74.9293 48.3936C74.909 48.3528 74.5839 47.7614 74.5839 47.7614L73.9945 47.3942C73.9539 47.3942 73.4255 46.762 73.4255 46.6804C73.4255 46.5988 73.3848 45.7014 73.3239 45.579C73.3035 45.5382 73.3035 45.477 73.3035 45.375C73.3442 45.2934 73.3645 45.1915 73.3848 45.1099L74.218 45.681L73.4458 44.8243C73.4864 44.5592 73.4864 44.2736 73.4255 43.9881C73.3848 43.7841 73.3239 43.6006 73.2629 43.4374L75.1529 43.2538L72.9784 42.9479C72.8565 42.7847 72.7345 42.642 72.5923 42.5196L74.2993 40.7655L72.0639 42.1933C72.0029 42.1729 71.9419 42.1525 71.881 42.1321L72.0842 39.4194L71.2307 42.0709C71.19 42.0709 71.1494 42.0709 71.1291 42.0913L69.5236 39.8273L70.5397 42.336C70.4787 42.3768 70.4178 42.4176 70.3771 42.4584L67.8165 41.8057L69.9707 42.9479C69.8691 43.1111 69.7878 43.2946 69.7268 43.4782L68.2839 44.1717C68.1214 43.9269 67.7352 43.3558 67.7555 43.1927C67.7759 42.9887 67.4507 41.9281 67.4507 41.9281L67.2272 40.7247C67.2272 40.7247 66.5565 39.3378 66.4752 39.1951C66.3736 39.0523 66.4143 38.3384 66.4143 38.1956C66.4143 38.0529 66.0891 37.2574 66.0078 37.1759C65.9469 37.0739 65.703 36.4824 65.6827 36.3804C65.642 36.2784 65.6827 35.9521 65.6827 35.9521L65.8859 35.585L66.0078 35.3606L66.4956 35.2994L66.4956 34.3L65.5607 33.9941L65.4185 33.627L64.6056 33.627L64.5446 34.0553L63.5488 34.2796L63.5488 35.0139L63.5488 35.483L64.1788 35.483L64.1788 35.7073L64.504 36.3396C64.504 36.3396 64.3617 36.3396 64.2398 36.3396C64.1179 36.3396 64.2398 36.9719 64.2398 36.9719L64.5446 37.5022L64.5446 37.8693C64.5446 37.8693 64.5446 38.9299 64.5446 39.0319C64.5446 39.1339 64.8698 39.5622 64.8698 39.5622L65.134 39.8681L65.4591 39.8681C65.4591 39.8681 65.6014 41.6018 65.6217 42.2137C65.6623 42.8459 66.5159 44.4776 66.5159 44.4776C66.5159 44.4776 66.5159 44.9467 66.4549 45.1099C66.394 45.273 66.0891 45.9665 66.0282 46.1093C65.9672 46.2521 66.0891 46.9251 66.2517 47.2719C66.4143 47.5982 66.2517 47.9041 66.2517 47.9041L66.7801 47.8633L67.0036 48.618L67.3288 49.1075C67.3288 49.1075 67.5523 49.699 67.5523 49.8009C67.5523 49.9029 67.4914 50.8207 67.4914 50.8207L67.9588 51.453L67.1662 52.9215C67.1662 52.9215 67.0239 54.6552 67.0036 54.7368C66.963 54.8388 67.2678 55.9401 67.2678 55.9401L67.5727 56.5112C67.5727 56.5112 67.2678 58.4692 67.2678 58.6324C67.2678 58.7956 67.6946 59.591 67.6946 59.591C67.6946 59.591 67.8978 61.5898 67.9181 63.2011C67.9588 64.8328 68.4872 66.75 68.853 67.5862C69.2188 68.4225 68.853 69.3199 68.9546 69.3403C69.0562 69.3811 69.1578 69.5442 69.1578 69.5442C69.1578 69.5442 69.3204 70.4825 69.3 70.7476C69.2594 71.0127 69.0968 71.3799 69.0968 71.3799L68.5075 71.8082L68.0401 72.3385L67.3491 72.5017L67.0443 72.5628L67.1052 72.726L66.5362 73.0319L64.8088 73.0319L64.8088 74.0925L78.9328 74.0925L78.9328 73.0319L77.3274 73.0319ZM68.3449 44.2736L69.5846 44.0085C69.5642 44.2329 69.5846 44.4572 69.6252 44.702C69.6659 44.9467 69.7471 45.1711 69.8487 45.375L69.5846 45.9869L68.3449 44.2736ZM69.7878 46.2521L69.6455 46.0481L69.991 45.5994C69.991 45.6198 69.8488 46.0481 69.7878 46.2521Z" fill="#2F7B86"/>
<path d="M65.6222 32.9536C65.6629 32.5864 65.5206 32.4641 65.8458 32.0969C66.1709 31.7298 65.9068 31.6074 65.9068 31.1587C65.9068 30.7304 65.9677 30.3633 65.9677 30.3633C65.9677 30.3633 65.7442 30.7304 65.6426 30.7304C65.541 30.7304 65.5816 30.9344 64.911 31.791C64.2403 32.6476 64.4435 32.1173 64.3216 32.2601C64.1997 32.4029 64.3623 32.9332 64.3216 33.1575C64.281 33.3819 64.5858 33.6266 64.5858 33.6266L65.3784 33.6266C65.3987 33.6266 65.6019 33.3207 65.6222 32.9536Z" fill="#F7941E"/>
<path d="M64.8086 33.1575C64.8492 32.9332 64.6663 32.4029 64.8086 32.2601C64.9508 32.1173 64.7476 32.668 65.3979 31.791C65.6621 31.4239 65.8247 31.1995 65.9263 31.0363C65.9466 30.6692 65.9872 30.3633 65.9872 30.3633C65.9872 30.3633 65.7637 30.7304 65.6621 30.7304C65.5605 30.7304 65.6011 30.9344 64.9305 31.791C64.2599 32.6476 64.4631 32.1173 64.3411 32.2601C64.2192 32.4029 64.3818 32.9332 64.3411 33.1575C64.3005 33.3819 64.6053 33.6266 64.6053 33.6266L65.0727 33.6266C65.0727 33.6266 64.7679 33.3819 64.8086 33.1575Z" fill="#FBB040"/>
<path d="M80.6784 80.1309L63.0996 80.1309L63.0996 86.0457L80.6784 86.0457L80.6784 80.1309Z" fill="#1C1E23"/>
<path d="M78.9535 74.0928L64.8295 74.0928L64.8295 74.6027L64.4434 74.6027L64.4434 75.235L64.8295 75.235L64.8295 76.8258L64.4434 76.8258L64.4434 77.3561L79.3396 77.3561L79.3396 76.8258L78.9535 76.8258L78.9535 75.235L79.3396 75.235L79.3396 74.6027L78.9535 74.6027L78.9535 74.0928Z" fill="#1C1E23"/>
<path d="M81.9188 94.9579L81.9188 93.3671L82.4675 93.3671L82.4675 92.7552L80.6791 90.9603L80.6791 87.2075L80.801 87.2075C81.0449 87.2075 81.2481 87.0035 81.2481 86.7588C81.2481 86.514 81.0449 86.3101 80.801 86.3101L80.6791 86.3101L80.6791 80.1097L81.7765 80.1097L81.7765 77.5806L79.3378 77.5806L79.3378 77.3154L64.4415 77.3154L64.4415 77.5806L62.0029 77.5806L62.0029 80.1097L63.1003 80.1097L63.1003 86.3101L62.958 86.3101C62.7141 86.3101 62.5109 86.514 62.5109 86.7588C62.5109 87.0035 62.7141 87.2075 62.958 87.2075L63.1003 87.2075L63.1003 90.9603L61.3119 92.7552L61.3119 93.3671L61.8606 93.3671L61.8606 94.9579L60.9258 94.9579L60.9258 98.0173L82.8739 98.0173L82.8739 94.9579L81.9188 94.9579ZM69.2376 85.4126L67.1647 85.4126L67.1647 81.5782C67.1647 81.0071 67.6322 80.538 68.2012 80.538C68.7702 80.538 69.2376 81.0071 69.2376 81.5782L69.2376 85.4126ZM72.916 85.4126L70.8431 85.4126L70.8431 81.5782C70.8431 81.0071 71.3105 80.538 71.8795 80.538C72.4485 80.538 72.916 81.0071 72.916 81.5782L72.916 85.4126ZM76.6146 85.4126L74.5417 85.4126L74.5417 81.5782C74.5417 81.0071 75.0092 80.538 75.5782 80.538C76.1472 80.538 76.6146 81.0071 76.6146 81.5782L76.6146 85.4126Z" fill="#4E4E4E"/>
<path d="M65.2137 76.8258L65.2137 75.235L64.8275 75.235L64.8275 74.6027L65.2137 74.6027L65.2137 74.0928L64.8275 74.0928L64.8275 74.6027L64.4414 74.6027L64.4414 75.235L64.8275 75.235L64.8275 76.8258L64.4414 76.8258L64.4414 77.3561L64.8275 77.3561L64.8275 76.8258L65.2137 76.8258Z" fill="#1C1E23"/>
<path d="M77.0209 85.4127L77.0209 81.5783C77.0209 81.0072 76.5535 80.5381 75.9845 80.5381C75.9235 80.5381 75.8422 80.5381 75.7813 80.5585C76.2487 80.6605 76.6145 81.0684 76.6145 81.5783L76.6145 85.4127L77.0209 85.4127Z" fill="#5E626C"/>
<path d="M73.3236 85.4127L73.3236 81.5783C73.3236 81.0072 72.8562 80.5381 72.2872 80.5381C72.2262 80.5381 72.145 80.5381 72.084 80.5585C72.5514 80.6605 72.9172 81.0684 72.9172 81.5783L72.9172 85.4127L73.3236 85.4127Z" fill="#5E626C"/>
<path d="M62.2683 93.3662L61.8613 93.3662L61.8613 94.9571L62.2683 94.9571L62.2683 93.3662Z" fill="#1C1E23"/>
<path d="M69.6264 85.4127L69.6264 81.5783C69.6264 81.0072 69.159 80.5381 68.5899 80.5381C68.529 80.5381 68.4477 80.5381 68.3867 80.5585C68.8541 80.6605 69.2199 81.0684 69.2199 81.5783L69.2199 85.4127L69.6264 85.4127Z" fill="#5E626C"/>
<path d="M61.3132 94.958L60.9062 94.958L60.9063 98.0174L61.3132 98.0174L61.3132 94.958Z" fill="#1C1E23"/>
<path d="M61.717 92.7549L63.5054 90.96L63.5054 87.2072L63.3631 87.2072C63.1192 87.2072 62.916 87.0032 62.916 86.7585C62.916 86.5137 63.1192 86.3097 63.3631 86.3097L63.5054 86.3097L63.5054 80.1094L63.0989 80.1094L63.0989 86.3097L62.9566 86.3097C62.7128 86.3097 62.5096 86.5137 62.5096 86.7585C62.5096 87.0032 62.7128 87.2072 62.9566 87.2072L63.0989 87.2072L63.0989 90.96L61.3105 92.7549L61.3105 93.3667L61.717 93.3667L61.717 92.7549Z" fill="#1C1E23"/>
<path d="M62.4109 77.6211L62.0039 77.6211L62.0039 80.1502L62.4109 80.1502L62.4109 77.6211Z" fill="#1C1E23"/>
<path d="M64.8484 77.3564L64.4414 77.3564L64.4414 77.6216L64.8484 77.6216L64.8484 77.3564Z" fill="#1C1E23"/>
<path d="M72.9151 48.5566C72.9151 48.5566 67.1029 52.9418 67.6313 53.8596C68.1597 54.7978 67.5703 56.5111 67.5703 56.5111C67.5703 56.5111 70.1512 50.8002 72.9151 48.5566Z" fill="#7FDECB"/>
<path d="M70.8617 52.5342C70.8617 52.5342 69.3782 53.5948 67.5898 57.7148C67.7118 59.6116 68.7889 58.7753 68.3418 60.509C67.8947 62.2223 67.7321 57.674 70.8617 52.5342Z" fill="#7FDECB"/>
<path d="M72.9163 53.8604C72.9163 53.8604 72.0628 63.6708 70.8435 65.4045C69.6241 67.1381 67.7545 68.9941 72.9163 53.8604Z" fill="#7FDECB"/>
<path d="M66.6777 73.1767L72.2664 73.1767C72.2664 73.1767 73.6076 66.7315 73.6076 64.6104C71.738 68.4652 70.7422 72.1772 66.6777 73.1767Z" fill="#7FDECB"/>
<path d="M74.2148 51.7383C74.2148 51.7383 76.6942 56.4701 76.2674 57.388C75.8406 58.2854 75.2106 60.0394 74.2148 51.7383Z" fill="#2F5555"/>
<path d="M78.871 51.1875L79.3384 51.7382L77.2655 54.9608L76.6152 54.6956L78.871 51.1875Z" fill="#2F5555"/>
<path d="M72.1035 47.2521L72.1035 46.2527C72.1035 46.2527 72.9164 45.9672 73.1603 44.9678C72.8351 46.4567 72.7742 47.2317 72.1035 47.2521Z" fill="#2F5555"/>
<path d="M69.8269 44.6011C69.8269 44.6011 69.3391 42.5411 71.2088 42.3168C73.1597 42.0924 73.302 44.2952 73.2207 44.6419C72.7533 43.3162 72.2859 42.6227 71.2088 42.7247C70.1114 42.8063 69.7862 43.8465 69.8269 44.6011Z" fill="#2F5555"/>
<path d="M67.4087 41.9082C67.4087 41.9082 67.6526 44.1926 66.6771 45.4571C65.6813 46.7217 67.0632 47.9454 67.0632 47.9454C67.0632 47.9454 68.4045 44.6413 67.4087 41.9082Z" fill="#2F5555"/>
<path d="M65.6211 38.8896C65.6211 38.8896 65.6414 41.2148 65.8243 42.2958C66.0072 43.3768 66.8404 44.4985 66.8404 43.8459C66.8404 43.1728 65.8853 41.378 65.6211 38.8896Z" fill="#7FDECB"/>
<path d="M70.1348 44.3965C70.1348 44.3965 70.1551 46.2525 71.2118 46.4157C72.2686 46.5789 70.846 46.1505 71.0086 45.3959C71.1915 44.6616 70.6835 44.5597 70.1348 44.3965Z" fill="#7FDECB"/>
<path d="M71.4947 44.6419C71.4947 44.6419 71.0679 43.8873 72.4702 44.0504C72.8969 44.3156 71.7182 44.8867 71.7792 45.4374C71.8402 45.9881 71.4947 44.6419 71.4947 44.6419Z" fill="#2F5555"/>
<path d="M70.2539 73.176C70.2539 73.176 73.3226 68.0566 75.2735 68.4646C77.2245 68.8725 76.6148 73.176 76.6148 73.176L70.2539 73.176Z" fill="#2F5555"/>
<path d="M80.679 87.209L63.4863 87.209L63.4863 90.9618L80.679 90.9618L80.679 87.209Z" fill="#1C1E23"/>
<path d="M66.4936 34.8496L63.5469 34.8496L63.5469 35.5431L66.4936 35.5431L66.4936 34.8496Z" fill="#2F5555"/>
<path d="M81.9201 93.3672L62.248 93.3672L62.248 94.9581L81.9201 94.9581L81.9201 93.3672Z" fill="#1C1E23"/>
<path d="M84.6637 97.9773L84.6637 78.5195L76.5957 78.5195L76.5957 97.9773L83.0176 97.9773C83.5459 97.8753 84.0946 98.0792 84.6637 97.9773Z" fill="#1C1E23"/>
<path d="M80.8203 97.9776L81.7145 97.9776C81.4097 97.9572 81.1251 97.9164 80.8203 97.9776Z" fill="#C2B59B"/>
<path d="M82.4883 78.54L82.4883 97.9978L82.9963 97.9978C83.545 97.8958 84.0937 98.0998 84.6628 97.9978L84.6628 78.54L82.4883 78.54Z" fill="#5E626C"/>
<path d="M79.1558 79.416L77.7129 79.416L77.7129 80.8641L79.1558 80.8641L79.1558 79.416Z" fill="#EF6238"/>
<path d="M79.1558 82.0068L77.7129 82.0068L77.7129 83.455L79.1558 83.455L79.1558 82.0068Z" fill="#EF6238"/>
<path d="M79.1558 84.5957L77.7129 84.5957L77.7129 86.0438L79.1558 86.0438L79.1558 84.5957Z" fill="#EF6238"/>
<path d="M79.1558 87.1875L77.7129 87.1875L77.7129 88.6356L79.1558 88.6356L79.1558 87.1875Z" fill="#EF6238"/>
<path d="M79.1558 89.7773L77.7129 89.7773L77.7129 91.2255L79.1558 91.2255L79.1558 89.7773Z" fill="#EF6238"/>
<path d="M79.1558 92.3877L77.7129 92.3877L77.7129 93.8358L79.1558 93.8358L79.1558 92.3877Z" fill="#EF6238"/>
<path d="M81.3316 79.415L79.8887 79.415L79.8887 80.8631L81.3316 80.8631L81.3316 79.415Z" fill="#EF6238"/>
<path d="M81.3316 82.0059L79.8887 82.0059L79.8887 83.454L81.3316 83.454L81.3316 82.0059Z" fill="#EF6238"/>
<path d="M81.3316 84.5947L79.8887 84.5947L79.8887 86.0428L81.3316 86.0428L81.3316 84.5947Z" fill="#EF6238"/>
<path d="M81.3316 87.1855L79.8887 87.1855L79.8887 88.6337L81.3316 88.6337L81.3316 87.1855Z" fill="#EF6238"/>
<path d="M81.3316 89.7764L79.8887 89.7764L79.8887 91.2245L81.3316 91.2245L81.3316 89.7764Z" fill="#EF6238"/>
<path d="M81.3316 92.3877L79.8887 92.3877L79.8887 93.8358L81.3316 93.8358L81.3316 92.3877Z" fill="#EF6238"/>
<path d="M83.5034 79.416L82.0605 79.416L82.0605 80.8641L83.5034 80.8641L83.5034 79.416Z" fill="#EF6238"/>
<path d="M83.5034 82.0068L82.0605 82.0068L82.0605 83.455L83.5034 83.455L83.5034 82.0068Z" fill="#EF6238"/>
<path d="M83.5034 84.5957L82.0605 84.5957L82.0605 86.0438L83.5034 86.0438L83.5034 84.5957Z" fill="#EF6238"/>
<path d="M83.5034 87.1875L82.0605 87.1875L82.0605 88.6356L83.5034 88.6356L83.5034 87.1875Z" fill="#EF6238"/>
<path d="M83.5034 89.7773L82.0605 89.7773L82.0605 91.2255L83.5034 91.2255L83.5034 89.7773Z" fill="#EF6238"/>
<path d="M83.5034 92.3877L82.0605 92.3877L82.0605 93.8358L83.5034 93.8358L83.5034 92.3877Z" fill="#EF6238"/>
<path d="M24.7344 94.8364C24.7344 91.1447 27.7218 88.1465 31.3798 88.1465C35.0581 88.1465 38.0252 91.1447 38.0252 94.8364C38.0252 95.9785 37.7407 97.0595 37.2326 97.9977L25.5269 97.9977C25.0189 97.0595 24.7344 95.9785 24.7344 94.8364Z" fill="#82A53C"/>
</svg>
