<svg width="183" height="219" viewBox="0 0 183 219" fill="none" xmlns="http://www.w3.org/2000/svg">
<path d="M183 91.7809C183 41.0625 142.014 1.20019e-05 91.5 7.7329e-06C40.9864 3.46387e-06 -3.4703e-06 41.0625 -7.75664e-06 91.7809C-1.13994e-05 134.884 29.6234 171.019 69.5182 180.874L78.2513 196.105L91.5 219L104.699 196.055L113.432 180.824C153.377 170.969 183 134.834 183 91.7809Z" fill="#EF6238"/>
<path d="M91.5 172.5C136.235 172.5 172.5 136.235 172.5 91.5C172.5 46.7649 136.235 10.5 91.5 10.5C46.7649 10.5 10.5 46.7649 10.5 91.5C10.5 136.235 46.7649 172.5 91.5 172.5Z" fill="white"/>
<g clip-path="url(#clip0_494_12806)">
<path d="M103.543 58.3487H70.1006V58.0983H103.291V53.668H103.543V58.3487Z" fill="#1C1E23"/>
<path d="M75.9704 128.886C45.768 130.214 29.836 134.925 40.3938 139.416C50.9517 143.907 83.9898 146.471 114.2 145.144C144.402 143.816 160.334 139.105 149.776 134.614C139.218 130.123 106.18 127.559 75.9704 128.886Z" fill="#F3F2F4"/>
<path d="M87.9455 85.1738H83.8672V85.8338H87.9455V85.1738Z" fill="#EF6238"/>
<path d="M91.8258 85.1738H88.9824V85.8338H91.8258V85.1738Z" fill="#2F3137"/>
<path d="M110.754 85.1738H92.5879V85.8338H110.754V85.1738Z" fill="#2F3137"/>
<path d="M114.344 85.1738H111.501V85.8338H114.344V85.1738Z" fill="#2F3137"/>
<path d="M88.7463 86.8965H84.668V87.5565H88.7463V86.8965Z" fill="#EF6238"/>
<path d="M92.6266 86.8965H89.7832V87.5565H92.6266V86.8965Z" fill="#2F3137"/>
<path d="M111.554 86.8965H93.3887V87.5565H111.554V86.8965Z" fill="#2F3137"/>
<path d="M115.144 86.8965H112.301V87.5565H115.144V86.8965Z" fill="#2F3137"/>
<path d="M89.5461 88.6182H85.4678V89.2782H89.5461V88.6182Z" fill="#EF6238"/>
<path d="M93.4264 88.6182H90.583V89.2782H93.4264V88.6182Z" fill="#2F3137"/>
<path d="M112.354 88.6182H94.1885V89.2782H112.354V88.6182Z" fill="#2F3137"/>
<path d="M115.945 88.6182H113.102V89.2782H115.945V88.6182Z" fill="#2F3137"/>
<path d="M91.1623 90.3477H87.084V91.0077H91.1623V90.3477Z" fill="#EF6238"/>
<path d="M95.0504 90.3477H92.207V91.0077H95.0504V90.3477Z" fill="#2F3137"/>
<path d="M113.97 90.3477H95.8047V91.0077H113.97V90.3477Z" fill="#2F3137"/>
<path d="M117.569 90.3477H114.726V91.0077H117.569V90.3477Z" fill="#2F3137"/>
<path d="M89.4474 92.3965H85.3691V93.0565H89.4474V92.3965Z" fill="#EF6238"/>
<path d="M93.3278 92.3965H90.4844V93.0565H93.3278V92.3965Z" fill="#2F3137"/>
<path d="M112.255 92.3965H94.0898V93.0565H112.255V92.3965Z" fill="#2F3137"/>
<path d="M115.845 92.3965H113.002V93.0565H115.845V92.3965Z" fill="#2F3137"/>
<path d="M88.548 94.4443H84.4697V95.1043H88.548V94.4443Z" fill="#EF6238"/>
<path d="M92.4284 94.4443H89.585V95.1043H92.4284V94.4443Z" fill="#2F3137"/>
<path d="M111.356 94.4443H93.1904V95.1043H111.356V94.4443Z" fill="#2F3137"/>
<path d="M114.946 94.4443H112.103V95.1043H114.946V94.4443Z" fill="#2F3137"/>
<path d="M87.6408 96.4854H83.5625V97.1454H87.6408V96.4854Z" fill="#EF6238"/>
<path d="M91.528 96.4854H88.6846V97.1454H91.528V96.4854Z" fill="#2F3137"/>
<path d="M110.457 96.4854H92.291V97.1454H110.457V96.4854Z" fill="#2F3137"/>
<path d="M114.047 96.4854H111.203V97.1454H114.047V96.4854Z" fill="#2F3137"/>
<path d="M85.2394 99.5049H81.1611V100.165H85.2394V99.5049Z" fill="#2F3137"/>
<path d="M85.2394 101.34H81.1611V102H85.2394V101.34Z" fill="#EF6238"/>
<path d="M93.9447 101.34H86.7715V102H93.9447V101.34Z" fill="#2F3137"/>
<path d="M85.2394 83.0195H81.1611V83.6795H85.2394V83.0195Z" fill="#2F3137"/>
<path d="M85.2394 81.1836H81.1611V81.8436H85.2394V81.1836Z" fill="#EF6238"/>
<path d="M93.9447 81.1836H86.7715V81.8436H93.9447V81.1836Z" fill="#2F3137"/>
<path d="M87.9455 107.697H83.8672V108.357H87.9455V107.697Z" fill="#EF6238"/>
<path d="M91.8258 107.697H88.9824V108.357H91.8258V107.697Z" fill="#2F3137"/>
<path d="M110.754 107.697H92.5879V108.357H110.754V107.697Z" fill="#2F3137"/>
<path d="M114.344 107.697H111.501V108.357H114.344V107.697Z" fill="#2F3137"/>
<path d="M88.7463 109.42H84.668V110.08H88.7463V109.42Z" fill="#EF6238"/>
<path d="M92.6266 109.42H89.7832V110.08H92.6266V109.42Z" fill="#2F3137"/>
<path d="M111.554 109.42H93.3887V110.08H111.554V109.42Z" fill="#2F3137"/>
<path d="M115.144 109.42H112.301V110.08H115.144V109.42Z" fill="#2F3137"/>
<path d="M89.5461 111.142H85.4678V111.802H89.5461V111.142Z" fill="#EF6238"/>
<path d="M93.4264 111.142H90.583V111.802H93.4264V111.142Z" fill="#2F3137"/>
<path d="M112.354 111.142H94.1885V111.802H112.354V111.142Z" fill="#2F3137"/>
<path d="M115.945 111.142H113.102V111.802H115.945V111.142Z" fill="#2F3137"/>
<path d="M91.1623 112.871H87.084V113.531H91.1623V112.871Z" fill="#EF6238"/>
<path d="M95.0504 112.871H92.207V113.531H95.0504V112.871Z" fill="#2F3137"/>
<path d="M113.97 112.871H95.8047V113.531H113.97V112.871Z" fill="#2F3137"/>
<path d="M117.569 112.871H114.726V113.531H117.569V112.871Z" fill="#2F3137"/>
<path d="M89.4474 114.92H85.3691V115.58H89.4474V114.92Z" fill="#EF6238"/>
<path d="M93.3278 114.92H90.4844V115.58H93.3278V114.92Z" fill="#2F3137"/>
<path d="M112.255 114.92H94.0898V115.58H112.255V114.92Z" fill="#2F3137"/>
<path d="M115.845 114.92H113.002V115.58H115.845V114.92Z" fill="#2F3137"/>
<path d="M88.548 116.968H84.4697V117.628H88.548V116.968Z" fill="#EF6238"/>
<path d="M92.4284 116.968H89.585V117.628H92.4284V116.968Z" fill="#2F3137"/>
<path d="M111.356 116.968H93.1904V117.628H111.356V116.968Z" fill="#2F3137"/>
<path d="M114.946 116.968H112.103V117.628H114.946V116.968Z" fill="#2F3137"/>
<path d="M87.6408 119.009H83.5625V119.669H87.6408V119.009Z" fill="#EF6238"/>
<path d="M91.528 119.009H88.6846V119.669H91.528V119.009Z" fill="#2F3137"/>
<path d="M110.457 119.009H92.291V119.669H110.457V119.009Z" fill="#2F3137"/>
<path d="M114.047 119.009H111.203V119.669H114.047V119.009Z" fill="#2F3137"/>
<path d="M85.2394 122.028H81.1611V122.688H85.2394V122.028Z" fill="#2F3137"/>
<path d="M85.2394 123.864H81.1611V124.524H85.2394V123.864Z" fill="#EF6238"/>
<path d="M93.9447 123.864H86.7715V124.524H93.9447V123.864Z" fill="#2F3137"/>
<path d="M85.2394 105.543H81.1611V106.203H85.2394V105.543Z" fill="#2F3137"/>
<path d="M85.2394 103.707H81.1611V104.367H85.2394V103.707Z" fill="#EF6238"/>
<path d="M93.9447 103.707H86.7715V104.367H93.9447V103.707Z" fill="#2F3137"/>
<path d="M146.521 69.4775L142.442 70.1148L142.465 71.8217C141.284 72.2845 140.217 72.7245 139.294 73.5438L137.739 73.0507L135.521 76.0852L135.788 77.481L136.504 77.6404C136.016 78.7631 135.871 79.6659 135.795 80.9328L134.156 81.4335L134.797 85.4921L136.512 85.4694C136.977 86.6452 137.701 87.9046 138.517 88.8225L137.785 90.408L138.097 91.728L142.122 91.4397C143.251 91.9253 144.676 92.2363 145.941 92.3046L146.445 93.9356L150.279 93.3363L150.492 91.5915C151.674 91.1287 152.703 90.4459 153.625 89.6342L157.605 88.3597L157.399 87.0852L156.21 85.8032C156.697 84.6804 157.048 83.5045 157.117 82.2376L158.756 81.7369L158.115 77.6783L156.4 77.701C155.935 76.5252 155.249 75.501 154.433 74.5831L155.447 74.3327L155.173 72.9976L152.086 70.5472L150.797 71.7307C149.669 71.2451 148.282 71.1769 147.009 71.101L146.521 69.4775ZM151.971 80.819C152.451 83.8383 150.378 86.668 147.344 87.1459C144.31 87.6239 141.467 85.5604 140.986 82.5411C140.506 79.5217 142.58 76.6921 145.614 76.2141C148.648 75.7438 151.499 77.7997 151.971 80.819Z" fill="#B84522"/>
<path d="M147.573 88.5413C144.646 88.9965 141.894 87.0923 141.276 84.2475C141.284 84.3537 141.299 84.4599 141.314 84.5585C141.795 87.5778 144.638 89.6337 147.672 89.1634C150.706 88.6854 152.772 85.8558 152.299 82.8364C152.284 82.7302 152.261 82.624 152.238 82.5254C152.528 85.4309 150.493 88.0861 147.573 88.5413Z" fill="#EF6238"/>
<path d="M140.186 84.1034C140.201 84.2096 140.224 84.3158 140.247 84.4145C139.866 80.9551 142.29 77.7689 145.781 77.2227C149.273 76.6765 152.558 78.9675 153.267 82.3738C153.252 82.2675 153.244 82.1613 153.229 82.0627C152.665 78.482 149.28 76.0317 145.682 76.6006C142.084 77.1544 139.622 80.5227 140.186 84.1034Z" fill="#EF6238"/>
<path d="M147.733 89.5656C144.242 90.1118 140.956 87.8207 140.247 84.4145C140.262 84.5207 140.27 84.6269 140.285 84.7255C140.849 88.3062 144.234 90.7566 147.832 90.1876C151.43 89.6187 153.892 86.258 153.321 82.6772C153.305 82.571 153.282 82.4648 153.26 82.3662C153.641 85.8331 151.217 89.0194 147.733 89.5656Z" fill="#EF6238"/>
<path d="M145.774 77.215C142.283 77.7612 139.858 80.9551 140.24 84.4068C140.949 87.813 144.242 90.1041 147.725 89.5579C151.217 89.0117 153.641 85.8178 153.26 82.3661C152.558 78.9675 149.265 76.6688 145.774 77.215ZM152.192 82.222C152.208 82.3282 152.223 82.4344 152.231 82.533C152.253 82.6392 152.276 82.7378 152.292 82.844C152.772 85.8634 150.698 88.693 147.664 89.171C144.63 89.6489 141.787 87.5854 141.307 84.5661C141.292 84.4599 141.276 84.3537 141.269 84.2551C141.246 84.1489 141.223 84.0503 141.208 83.944C140.727 80.9247 142.801 78.095 145.835 77.6171C148.869 77.1392 151.72 79.2026 152.192 82.222Z" fill="#EF6238"/>
<path d="M142.694 73.225C141.512 73.6878 140.445 74.1278 139.523 74.9471L137.968 74.454L135.749 77.4885L136.733 79.0437C136.245 80.1664 136.1 81.0692 136.024 82.3361L134.385 82.8368L135.025 86.8954L136.74 86.8727C137.205 88.0486 137.929 89.3079 138.745 90.2258L138.013 91.8113L141.063 94.0189L142.351 92.8355C143.479 93.321 144.905 93.632 146.17 93.7003L146.673 95.3314L150.507 94.732L150.721 92.9872C151.902 92.5244 152.932 91.8417 153.854 91.03L155.447 91.7582L157.635 88.481L156.446 87.1989C156.934 86.0761 157.284 84.9003 157.353 83.6334L158.992 83.1327L158.351 79.074L156.636 79.0968C156.171 77.9209 155.485 76.8968 154.67 75.9788L155.401 74.3933L152.322 71.9581L151.033 73.1416C149.905 72.656 148.518 72.5878 147.245 72.5119L146.742 70.8809L142.663 71.5181L142.694 73.225ZM146.01 72.0416L146.46 73.5057L147.306 73.5588C148.48 73.6271 149.692 73.6954 150.614 74.0974L151.239 74.363L152.367 73.3312L154.121 74.7195L153.442 76.1761L153.892 76.6843C154.692 77.5795 155.272 78.505 155.668 79.4913L155.935 80.1588L157.467 80.1361L157.826 82.4196L156.354 82.8671L156.309 83.5878C156.248 84.612 155.981 85.6665 155.485 86.8044L155.218 87.4265L156.309 88.6024L155.066 90.461L153.671 89.8237L153.16 90.2713C152.261 91.0679 151.338 91.6444 150.34 92.0389L149.768 92.2665L149.57 93.8445L147.405 94.1858L146.955 92.7217L146.231 92.6762C145.034 92.6079 143.738 92.312 142.762 91.8948L142.145 91.6293L140.986 92.6913L139.317 91.4775L139.98 90.0513L139.53 89.543C138.852 88.7768 138.166 87.6389 137.716 86.4934L137.449 85.8258L135.917 85.8485L135.559 83.5651L137.03 83.1175L137.076 82.3968C137.144 81.2664 137.259 80.4623 137.701 79.4609L137.922 78.9602L137.022 77.534L138.387 75.6678L139.789 76.1078L140.232 75.7133C141.002 75.0381 141.901 74.6512 143.09 74.1809L143.761 73.9154L143.738 72.3905L146.01 72.0416Z" fill="#EF6238"/>
<path d="M143.075 74.1882C141.886 74.6585 140.987 75.0378 140.217 75.7206L139.775 76.1151L138.372 75.6751L137.008 77.5413L137.907 78.9675L137.686 79.4682C137.251 80.4696 137.13 81.2737 137.061 82.4041L137.015 83.1248L135.544 83.5723L135.902 85.8558L137.434 85.8331L137.701 86.5006C138.159 87.6462 138.837 88.7841 139.516 89.5503L139.965 90.0586L139.302 91.4848L140.972 92.6986L142.13 91.6365L142.748 91.9021C143.723 92.3269 145.019 92.6152 146.216 92.6834L146.94 92.729L147.39 94.1931L149.555 93.8517L149.753 92.2738L150.325 92.0462C151.324 91.6517 152.246 91.0752 153.145 90.2786L153.656 89.831L155.051 90.4683L156.294 88.6096L155.204 87.4337L155.47 86.8117C155.966 85.6737 156.233 84.6268 156.294 83.5951L156.34 82.8744L157.811 82.4268L157.452 80.1434L155.92 80.1661L155.653 79.4985C155.257 78.5047 154.678 77.5868 153.877 76.6916L153.428 76.1833L154.106 74.7268L152.353 73.3385L151.224 74.3702L150.599 74.1047C149.677 73.7026 148.465 73.6344 147.291 73.5661L146.445 73.513L145.995 72.0488L143.701 72.4054L143.723 73.9302L143.075 74.1882ZM153.222 82.0551C153.786 85.6358 151.324 89.0041 147.733 89.5655C144.135 90.1269 140.75 87.6765 140.186 84.1034C139.622 80.5227 142.084 77.1544 145.675 76.593C149.273 76.0316 152.658 78.482 153.222 82.0551Z" fill="#EF6238"/>
<path d="M130.978 53.1523L127.105 53.7592L127.128 55.3827C126.008 55.8227 124.994 56.2399 124.117 57.0137L122.646 56.551L120.534 59.4338L120.786 60.7614L121.472 60.9131C121.007 61.9827 120.87 62.84 120.801 64.0386L119.246 64.5166L119.856 68.3704L121.487 68.3476C121.929 69.4628 122.615 70.6614 123.393 71.5338L122.699 73.0359L122.997 74.2877L126.823 74.0145C127.898 74.4773 129.247 74.7656 130.452 74.8414L130.932 76.389L134.576 75.8201L134.782 74.1587C135.902 73.7187 136.878 73.0739 137.755 72.3001L141.536 71.0863L141.338 69.88L140.209 68.6662C140.674 67.5966 141.002 66.4814 141.071 65.2828L142.626 64.8048L142.016 60.951L140.385 60.9738C139.943 59.8586 139.295 58.8876 138.517 58.0151L139.478 57.78L139.211 56.5131L136.276 54.1841L135.056 55.3068C133.981 54.8441 132.67 54.7834 131.458 54.7075L130.978 53.1523ZM136.154 63.9324C136.611 66.8 134.637 69.4856 131.763 69.9407C128.882 70.3959 126.183 68.4311 125.726 65.571C125.268 62.711 127.243 60.0179 130.116 59.5627C132.998 59.1076 135.697 61.0648 136.154 63.9324Z" fill="#040404"/>
<path d="M131.968 71.2681C129.186 71.7005 126.571 69.895 125.984 67.1943C125.992 67.2929 126.007 67.3915 126.022 67.4902C126.48 70.3578 129.178 72.315 132.06 71.8599C134.941 71.4047 136.908 68.7191 136.451 65.8515C136.436 65.7529 136.413 65.6543 136.397 65.5557C136.679 68.3095 134.751 70.8281 131.968 71.2681Z" fill="#2F3137"/>
<path d="M124.956 67.0503C124.971 67.1489 124.986 67.2476 125.009 67.3462C124.651 64.0613 126.953 61.0344 130.269 60.511C133.585 59.9951 136.71 62.1724 137.381 65.4041C137.374 65.3055 137.358 65.2069 137.343 65.1082C136.802 61.7096 133.593 59.3806 130.177 59.9192C126.755 60.4503 124.415 63.6517 124.956 67.0503Z" fill="#2F3137"/>
<path d="M132.121 72.2395C128.805 72.7554 125.68 70.5781 125.009 67.3464C125.016 67.445 125.032 67.5436 125.047 67.6422C125.588 71.0409 128.797 73.3699 132.213 72.8312C135.628 72.2926 137.968 69.0988 137.427 65.7002C137.411 65.6015 137.396 65.5029 137.373 65.4043C137.739 68.6891 135.437 71.7236 132.121 72.2395Z" fill="#2F3137"/>
<path d="M130.269 60.511C126.953 61.0269 124.651 64.0614 125.009 67.3463C125.68 70.5856 128.806 72.7628 132.122 72.2394C135.438 71.7235 137.74 68.689 137.382 65.4042C136.711 62.1724 133.585 59.9876 130.269 60.511ZM136.36 65.26C136.375 65.3587 136.391 65.4573 136.398 65.5559C136.421 65.6545 136.436 65.7531 136.452 65.8518C136.909 68.7194 134.935 71.4049 132.061 71.8601C129.179 72.3153 126.481 70.3504 126.023 67.4904C126.008 67.3918 125.993 67.2932 125.985 67.1945C125.962 67.0959 125.947 66.9973 125.932 66.8987C125.474 64.0311 127.449 61.3455 130.323 60.8904C133.204 60.4352 135.91 62.3924 136.36 65.26Z" fill="#2F3137"/>
<path d="M127.334 56.7103C126.214 57.1503 125.2 57.5676 124.323 58.3413L122.852 57.8786L120.74 60.7614L121.678 62.2483C121.213 63.3179 121.076 64.1752 121.007 65.3738L119.452 65.8517L120.062 69.7056L121.693 69.6828C122.135 70.798 122.822 71.9966 123.599 72.869L122.905 74.3711L125.802 76.4725L127.022 75.3497C128.097 75.8125 129.446 76.1008 130.65 76.1766L131.131 77.7242L134.774 77.1553L134.98 75.4939C136.101 75.0539 137.077 74.409 137.953 73.6352L139.463 74.3256L141.536 71.2152L140.408 70.0014C140.873 68.9318 141.201 67.8166 141.269 66.618L142.824 66.14L142.214 62.2862L140.583 62.309C140.141 61.1938 139.493 60.2227 138.715 59.3503L139.409 57.8482L136.474 55.5193L135.255 56.642C134.18 56.1793 132.869 56.1186 131.657 56.0427L131.176 54.4951L127.304 55.102L127.334 56.7103ZM130.49 55.5875L130.917 56.9758L131.718 57.0213C132.831 57.0896 133.982 57.1503 134.858 57.5296L135.445 57.7876L136.52 56.8013L138.189 58.1213L137.549 59.5096L137.976 59.9876C138.738 60.8448 139.287 61.7172 139.661 62.6579L139.912 63.2876L141.368 63.2648L141.711 65.4345L140.316 65.8593L140.278 66.5421C140.217 67.5207 139.966 68.5145 139.493 69.5994L139.234 70.1835L140.271 71.3063L139.097 73.0739L137.77 72.467L137.29 72.8918C136.436 73.6504 135.56 74.1966 134.607 74.5683L134.058 74.7808L133.875 76.2828L131.817 76.6091L131.39 75.2208L130.704 75.1828C129.568 75.1146 128.333 74.8415 127.411 74.4394L126.824 74.1815L125.726 75.1904L124.14 74.0373L124.765 72.6794L124.338 72.2014C123.691 71.4732 123.043 70.3959 122.616 69.3111L122.364 68.6814L120.908 68.7042L120.565 66.5345L121.96 66.1097L121.998 65.4269C122.059 64.3497 122.174 63.591 122.593 62.6352L122.799 62.1572L121.945 60.7993L123.241 59.0241L124.575 59.4414L124.994 59.0696C125.726 58.4248 126.58 58.0607 127.708 57.6131L128.341 57.3627L128.318 55.9137L130.49 55.5875Z" fill="#2F3137"/>
<path d="M127.7 57.6281C126.572 58.0757 125.711 58.4398 124.987 59.0846L124.567 59.4564L123.233 59.0391L121.937 60.8143L122.791 62.1722L122.585 62.6502C122.166 63.606 122.059 64.3647 121.991 65.4419L121.953 66.1247L120.558 66.5495L120.901 68.7192L122.357 68.6964L122.608 69.3261C123.043 70.4109 123.683 71.4957 124.331 72.2164L124.758 72.6944L124.133 74.0523L125.718 75.2054L126.816 74.1965L127.403 74.4544C128.333 74.8565 129.56 75.1296 130.696 75.1978L131.382 75.2358L131.809 76.6241L133.867 76.2978L134.05 74.7958L134.599 74.5834C135.544 74.2116 136.421 73.6578 137.282 72.9068L137.763 72.482L139.089 73.0889L140.263 71.3213L139.226 70.1985L139.486 69.6144C139.958 68.5371 140.21 67.5357 140.271 66.5571L140.309 65.8743L141.704 65.4495L141.361 63.2798L139.905 63.3026L139.653 62.6729C139.28 61.7322 138.723 60.8598 137.969 60.0026L137.542 59.5246L138.182 58.1363L136.513 56.8163L135.438 57.8026L134.851 57.5446C133.974 57.1653 132.823 57.097 131.71 57.0363L130.91 56.9908L130.483 55.6025L128.303 55.9439L128.325 57.3929L127.7 57.6281ZM137.343 65.1081C137.885 68.5068 135.544 71.7082 132.129 72.2392C128.714 72.7778 125.497 70.4488 124.964 67.0502C124.422 63.6516 126.763 60.4502 130.178 59.9191C133.585 59.3805 136.802 61.7095 137.343 65.1081Z" fill="#2F3137"/>
<path d="M147.092 55.7774L144.95 57.2112L145.415 58.1747C144.867 58.7512 144.379 59.2747 144.074 59.9802L143.06 60.1091L142.603 62.4154L143.121 63.1361L143.571 63.0374C143.594 63.8037 143.746 64.3499 144.043 65.0933L143.243 65.8064L144.684 67.9382L145.652 67.4754C146.231 68.0216 146.971 68.5451 147.679 68.8561V69.9485L148.205 70.6161L150.416 69.3947C151.186 69.372 152.078 69.1747 152.817 68.8864L153.534 69.683L155.554 68.3326L155.211 67.2857C155.76 66.7092 156.164 66.0568 156.469 65.3512L158.39 63.5837L157.932 62.9161L156.919 62.4988C156.896 61.7326 156.781 60.974 156.492 60.2381L157.292 59.525L155.851 57.3933L154.883 57.856C154.304 57.3098 153.648 56.9077 152.939 56.6043L153.45 56.1946L152.939 55.5119L150.538 54.9277L150.119 55.9367C149.349 55.9595 148.541 56.2781 147.801 56.574L147.092 55.7774ZM153.191 60.7919C154.258 62.3774 153.831 64.5319 152.238 65.594C150.645 66.6561 148.48 66.2313 147.413 64.6457C146.345 63.0602 146.772 60.9057 148.366 59.8436C149.959 58.774 152.116 59.1988 153.191 60.7919Z" fill="#B84522"/>
<path d="M152.733 66.3295C151.194 67.3537 149.128 66.9971 148.022 65.5406C148.053 65.5937 148.091 65.6544 148.129 65.7075C149.196 67.293 151.361 67.7178 152.955 66.6558C154.548 65.5937 154.975 63.4392 153.907 61.8536C153.869 61.8005 153.831 61.7474 153.793 61.6943C154.723 63.2647 154.273 65.2978 152.733 66.3295Z" fill="#B84522"/>
<path d="M147.367 65.7452C147.405 65.7983 147.443 65.8514 147.481 65.9045C146.353 64.0383 146.879 61.5956 148.716 60.3666C150.553 59.1452 153.031 59.5776 154.334 61.33C154.304 61.2769 154.266 61.2162 154.228 61.1631C152.962 59.2817 150.386 58.7735 148.495 60.0404C146.605 61.2997 146.094 63.8563 147.367 65.7452Z" fill="#B84522"/>
<path d="M153.1 66.868C151.262 68.097 148.785 67.657 147.481 65.9046C147.512 65.9577 147.55 66.0184 147.588 66.0715C148.854 67.9529 151.43 68.4612 153.321 67.1943C155.211 65.9349 155.722 63.3708 154.449 61.4894C154.411 61.4363 154.373 61.3832 154.335 61.3301C155.463 63.1963 154.929 65.6391 153.1 66.868Z" fill="#B84522"/>
<path d="M148.716 60.3661C146.879 61.5951 146.346 64.0379 147.482 65.9041C148.785 67.6565 151.263 68.0889 153.1 66.8675C154.937 65.6386 155.47 63.1958 154.335 61.3296C153.031 59.5847 150.554 59.1447 148.716 60.3661ZM153.687 61.5268C153.725 61.5799 153.763 61.6406 153.793 61.6937C153.832 61.7468 153.87 61.7999 153.908 61.853C154.975 63.4385 154.548 65.593 152.955 66.6551C151.362 67.7172 149.197 67.2924 148.13 65.7068C148.091 65.6537 148.053 65.593 148.023 65.5399C147.985 65.4868 147.947 65.4337 147.908 65.3806C146.841 63.7951 147.268 61.6406 148.861 60.5785C150.455 59.5089 152.612 59.9337 153.687 61.5268Z" fill="#EF6238"/>
<path d="M145.911 58.9102C145.362 59.4868 144.874 60.0102 144.569 60.7158L143.555 60.8447L143.098 63.1509L144.066 63.7806C144.089 64.5468 144.241 65.093 144.538 65.8365L143.738 66.5496L145.179 68.6813L146.147 68.2186C146.726 68.7648 147.466 69.2882 148.175 69.5993V70.6917L150.492 71.1469L150.911 70.1379C151.681 70.1151 152.573 69.9179 153.312 69.6296L154.029 70.4262L156.049 69.0758L155.706 68.0289C156.255 67.4524 156.659 66.7999 156.964 66.0944H158.062L158.435 63.6592L157.421 63.242C157.398 62.4758 157.284 61.7171 156.994 60.9813L157.795 60.2682L156.354 58.1364L155.386 58.5992C154.807 58.053 154.151 57.6509 153.442 57.3475V56.255L151.041 55.6709L150.622 56.6799C149.852 56.7026 149.044 57.0213 148.304 57.3171L147.588 56.5206L145.446 57.9544L145.911 58.9102ZM147.481 57.3626L148.121 58.0757L148.617 57.8861C149.303 57.6206 150.004 57.3399 150.637 57.3247L151.064 57.3171L151.43 56.4371L152.794 56.7633V57.7723L153.183 57.9392C153.877 58.2426 154.448 58.6068 154.936 59.0695L155.264 59.3806L156.125 58.9633L156.933 60.162L156.217 60.7992L156.385 61.2165C156.621 61.8158 156.75 62.4834 156.766 63.2572L156.773 63.682L157.703 64.0689L157.49 65.4496H156.529L156.362 65.8365C156.064 66.5268 155.691 67.0958 155.226 67.5813L154.959 67.862L155.264 68.8103L154.121 69.5689L153.48 68.8558L153.061 69.0227C152.367 69.2958 151.552 69.4703 150.881 69.4855L150.454 69.4931L150.08 70.3958L148.807 70.1455V69.1593L148.419 68.9924C147.832 68.7344 147.145 68.2717 146.581 67.7406L146.254 67.4296L145.392 67.8468L144.584 66.6482L145.301 66.011L145.133 65.5937C144.874 64.9337 144.729 64.4482 144.706 63.7578L144.698 63.4165L143.807 62.8399L144.089 61.4213L145.003 61.3075L145.148 60.9661C145.407 60.382 145.811 59.9268 146.368 59.3502L146.68 59.024L146.261 58.1668L147.481 57.3626Z" fill="#EF6238"/>
<path d="M146.384 59.3575C145.835 59.934 145.423 60.3892 145.164 60.9733L145.019 61.3147L144.104 61.4285L143.822 62.8471L144.714 63.4237L144.722 63.7651C144.737 64.4478 144.882 64.9409 145.149 65.6009L145.316 66.0182L144.6 66.6554L145.408 67.8541L146.269 67.4368L146.597 67.7479C147.161 68.2789 147.847 68.7492 148.434 68.9996L148.823 69.1665V70.1527L150.096 70.403L150.47 69.5003L150.896 69.4927C151.56 69.4775 152.375 69.303 153.077 69.0299L153.496 68.863L154.136 69.5761L155.28 68.8175L154.975 67.8692L155.242 67.5885C155.707 67.103 156.072 66.5341 156.377 65.8437L156.545 65.4568H157.506L157.719 64.0761L156.789 63.6892L156.781 63.2644C156.759 62.4906 156.637 61.823 156.4 61.2237L156.233 60.8064L156.949 60.1692L156.141 58.9706L155.28 59.3878L154.952 59.0768C154.464 58.614 153.892 58.2499 153.199 57.9464L152.81 57.7795V56.7705L151.445 56.4443L151.079 57.3243L150.652 57.3319C150.02 57.3471 149.311 57.6278 148.632 57.8933L148.137 58.083L147.497 57.3699L146.292 58.174L146.711 59.0312L146.384 59.3575ZM154.228 61.163C155.493 63.0444 154.99 65.6009 153.099 66.8679C151.209 68.1272 148.64 67.6265 147.367 65.7451C146.102 63.8637 146.605 61.3071 148.495 60.0402C150.386 58.7733 152.955 59.2816 154.228 61.163Z" fill="#EF6238"/>
<path d="M51.2942 116.862C50.9588 116.49 52.2394 115.193 51.6525 114.207C51.3399 113.676 50.6615 113.532 50.5776 112.887C50.5243 112.462 50.7758 112.227 50.6462 112.09C50.4557 111.893 49.7772 112.31 48.6338 112.857C46.6289 113.82 46.1334 113.775 45.9047 113.737C45.4473 113.661 45.0814 113.433 44.8146 113.213C39.6005 113.63 34.6532 111.203 31.7564 107.068C30.7959 107.759 30.9408 108.806 30.2699 108.897C30.2699 108.897 30.1937 108.904 29.2256 108.631C28.9054 107.698 28.7225 107.524 28.6157 107.539C28.3108 107.577 28.0288 109.193 28.6539 109.678C28.8673 109.845 29.1112 109.815 29.2256 110.042C29.378 110.346 29.0502 110.566 29.1112 110.93C29.218 111.521 30.1937 111.446 30.491 112.166C30.6968 112.659 30.369 113.024 30.6053 113.244C30.8874 113.517 31.4134 113.046 32.1604 113.024C33.1209 112.993 33.4792 113.729 35.2935 114.92C35.9186 115.33 36.5132 115.717 37.3365 116.073C39.2575 116.893 40.2484 116.566 40.683 117.249C41.1556 117.993 40.6753 119.168 40.1417 119.821C39.3413 120.799 38.1369 120.913 37.8091 120.944C37.6261 120.959 37.4508 120.966 37.2831 120.951C39.5852 121.649 42.0856 121.786 44.6012 121.239C47.6428 120.572 50.2498 119.002 52.2013 116.877C51.7516 117.006 51.4162 116.999 51.2942 116.862Z" fill="#EEF5F9"/>
<path d="M30.6364 115.884C30.6211 115.193 31.0251 114.898 30.8041 114.253C30.5373 113.479 29.8359 113.57 29.4777 112.637C29.2947 112.159 29.3709 111.863 29.0355 111.4C28.8297 111.112 28.6696 111.044 28.4486 110.824C27.9454 110.323 27.8159 109.731 27.6786 109.223C27.5262 108.662 27.3051 107.956 27.0078 107.106C27.0078 108.138 27.1145 109.185 27.3432 110.232C28.3037 114.586 31.1471 118.053 34.8366 119.958C34.3716 119.654 33.8685 119.29 33.2739 118.858C31.6883 117.72 30.6592 116.961 30.6364 115.884Z" fill="#EEF5F9"/>
<path d="M43.8016 109.944C44.1293 109.322 44.7392 109.208 44.8459 108.525C44.9069 108.131 44.6248 108.002 44.6934 107.66C44.7849 107.228 45.2347 107.129 45.936 106.674C47.1785 105.87 47.3463 105.172 47.9104 105.263C48.3296 105.331 48.3068 105.726 48.8251 105.885C49.6255 106.128 50.6013 105.475 50.5555 105.24C50.5327 105.119 50.2277 105.126 50.2125 105.005C50.1973 104.853 50.6623 104.785 51.1425 104.451C51.3788 104.292 51.9048 103.928 51.9353 103.397C51.9582 102.972 51.6609 102.502 51.3864 102.494C51.0891 102.486 50.9748 103.033 50.7004 103.01C50.4564 102.995 50.182 102.547 50.2201 102.13C50.2278 102.001 50.2659 101.895 50.3192 101.796C50.1744 101.88 50.0219 101.963 49.8695 102.046C49.9152 102.153 49.9305 102.259 49.9 102.388C49.8237 102.676 49.5493 102.691 49.5493 102.934C49.5417 103.291 50.1287 103.511 50.06 103.685C50.0296 103.776 49.839 103.799 49.6941 103.784C49.2063 103.738 49.1224 103.215 48.6345 102.995C48.0628 102.729 47.3691 103.063 47.3691 103.146C47.3767 103.26 48.5583 103.124 48.7336 103.564C48.7565 103.624 48.787 103.746 48.726 103.814C48.6422 103.905 48.4287 103.844 48.2915 103.806C47.7426 103.655 47.3081 103.533 46.9803 103.64C46.7288 103.723 46.5992 103.928 46.3324 104.338C46.1723 104.588 45.997 104.861 46.0122 105.21C46.0198 105.453 46.1037 105.46 46.1113 105.658C46.1189 106.105 45.7149 106.659 45.1585 106.742C45.0898 106.75 44.7544 106.803 44.4648 106.583C44.2056 106.386 44.0455 106.014 44.1293 105.718C44.2742 105.195 45.0517 105.21 45.1127 104.77C45.1508 104.466 44.7925 104.375 44.7849 103.92C44.7773 103.662 44.8916 103.594 44.9984 103.238C42.9249 103.23 40.9353 102.593 39.2735 101.478C39.0143 101.538 38.778 101.637 38.6255 101.864C38.3511 102.274 38.6255 102.676 38.3206 102.911C38.0462 103.124 37.5354 103.048 37.261 102.79C36.8646 102.411 37.0018 101.675 37.0857 101.28C37.2153 100.613 37.4592 100.446 37.3372 100.165C37.1543 99.7554 36.4606 99.8161 36.4225 99.4596C36.4072 99.323 36.4606 99.1789 36.6664 98.9513C36.5826 98.8375 36.4987 98.7161 36.4225 98.5947C36.1785 98.6782 35.9041 98.8071 35.6297 99.0271C35.4467 99.1713 34.9436 99.5734 34.9894 100.029C35.0199 100.385 35.3553 100.415 35.462 100.787C35.6678 101.493 34.7988 102.547 34.349 102.441C34.288 102.426 34.2423 102.395 34.0365 102.122C33.6477 101.591 33.5791 101.379 33.3809 101.121C33.2818 100.992 32.8168 100.4 32.3747 100.484C31.8182 100.59 31.6886 101.713 31.681 101.804C31.6352 102.266 31.6886 103.025 32.0393 103.139C32.2908 103.222 32.4357 102.881 32.8854 102.767C33.7011 102.57 34.5472 103.382 34.8064 103.64C35.3324 104.148 35.8965 105.005 35.6678 105.293C35.5687 105.415 35.1952 105.384 34.4405 105.316C33.6553 105.24 33.4114 105.172 33.2666 105.324C33.0684 105.536 33.3733 105.862 33.2284 106.257C33.0455 106.742 32.4509 106.621 31.7877 107.091C34.6844 111.226 39.6318 113.653 44.8459 113.236C44.6325 113.054 44.48 112.88 44.4038 112.781C43.7711 112.03 43.3518 110.801 43.8016 109.944Z" fill="#D5DBDF"/>
<path d="M34.3331 95.0591C32.4959 97.1605 32.0995 97.9191 32.313 98.1998C32.5417 98.5109 33.4488 98.2605 33.5708 98.6019C33.6699 98.8826 33.1362 99.2315 33.2658 99.4667C33.3497 99.6184 33.6622 99.5957 33.7918 99.5881C34.0205 99.5729 34.4779 99.4667 34.5618 99.186C34.6456 98.8902 34.2187 98.746 34.1806 98.2833C34.1425 97.9115 34.3788 97.4867 34.7066 97.3122C34.9963 97.1529 35.3088 97.2136 35.7509 97.3957C35.4079 96.6902 35.1487 95.9391 34.9734 95.1426C34.9124 94.8695 34.8667 94.5963 34.8286 94.3232C34.8057 94.3308 34.7904 94.346 34.7676 94.3536C34.7371 94.5129 34.6075 94.7405 34.3331 95.0591Z" fill="#D5DBDF"/>
<path d="M35.7515 97.3952C35.9421 97.4711 36.1479 97.5697 36.3918 97.6835C36.8568 97.8959 37.2151 98.0628 37.1922 98.2449C37.177 98.4118 36.8568 98.4345 36.4223 98.5862C36.4985 98.7076 36.5824 98.829 36.6662 98.9428C37.3752 98.1387 38.8693 97.5773 39.563 98.0931C39.7002 98.1918 39.8298 98.3511 40.0509 98.3511C40.3863 98.3511 40.5845 97.9869 40.7141 98.0552C40.8055 98.1007 40.7674 98.3207 40.7293 98.5559C40.615 99.2614 40.5387 99.6256 40.5082 99.8607C40.3939 100.657 40.6455 100.703 40.4778 100.991C40.2491 101.378 39.7383 101.363 39.2809 101.469C40.9428 102.584 42.9247 103.221 45.0058 103.229C45.0134 103.199 45.0211 103.176 45.0287 103.146C45.1583 102.645 45.0363 102.546 45.1202 102.266C45.3336 101.56 46.2865 101.742 46.6753 101.021C46.9726 100.475 46.7972 99.6863 46.378 99.2842C46.073 98.9959 45.608 98.8821 45.5166 99.0035C45.4175 99.1249 45.8062 99.398 45.9206 99.9821C45.9282 100.035 46.0654 100.832 45.6461 101.15C45.2802 101.424 44.6247 101.241 44.2588 100.923C43.4507 100.225 43.6032 98.5407 44.4265 97.7518C44.7619 97.4331 45.3336 97.1449 45.6309 97.3269C45.9282 97.509 45.8062 98.0704 46.0578 98.1387C46.2103 98.1766 46.4389 98.0173 46.4847 97.82C46.5533 97.509 46.0883 97.3421 45.8672 96.7883C45.6766 96.3104 45.913 96.1511 45.7986 95.7414C45.6233 95.0966 44.8915 94.9373 43.3669 94.1255C42.2768 93.5414 41.7355 93.2531 41.7432 93.0255C41.7508 92.9193 41.8423 92.8131 42.0024 92.7145C40.8208 92.6766 39.6164 92.7828 38.4119 93.0483C37.1389 93.329 35.9344 93.7614 34.8291 94.3379C34.8672 94.611 34.913 94.8842 34.9739 95.1573C35.1493 95.9311 35.4085 96.6897 35.7515 97.3952Z" fill="#D5DBDF"/>
<path d="M50.944 100.908C50.8831 100.658 50.4562 100.46 50.1055 100.559C49.8006 100.643 49.6024 100.938 49.5719 101.212C49.5262 101.568 49.7777 101.796 49.8844 102.046C50.0369 101.97 50.1817 101.887 50.3342 101.796C50.5476 101.401 51.0203 101.204 50.944 100.908Z" fill="#D5DBDF"/>
<path d="M56.0052 106.438C54.008 109.632 50.7758 112.052 46.789 112.925C46.1334 113.069 45.4778 113.16 44.8223 113.213C45.0891 113.433 45.4474 113.661 45.9124 113.736C46.141 113.774 46.6289 113.82 48.6414 112.856C49.7848 112.31 50.4633 111.893 50.6539 112.09C50.7758 112.219 50.5319 112.462 50.5853 112.887C50.6691 113.532 51.3399 113.676 51.6601 114.207C52.2471 115.201 50.9588 116.49 51.3018 116.862C51.4238 116.999 51.7668 117.006 52.2318 116.877C54.7779 114.093 56.2034 110.361 56.0052 106.438Z" fill="#D5DBDF"/>
<path d="M45.0135 103.229C44.9068 103.586 44.7924 103.654 44.8001 103.912C44.8077 104.367 45.1736 104.458 45.1279 104.762C45.0669 105.202 44.2893 105.186 44.1445 105.71C44.0606 106.013 44.2207 106.377 44.4799 106.575C44.7696 106.795 45.105 106.742 45.1736 106.734C45.7301 106.651 46.1417 106.097 46.1265 105.649C46.1188 105.444 46.035 105.444 46.0274 105.202C46.0121 104.853 46.1875 104.587 46.3475 104.329C46.6143 103.919 46.7439 103.715 46.9955 103.631C47.3233 103.525 47.7578 103.646 48.3066 103.798C48.4439 103.836 48.6573 103.897 48.7412 103.806C48.8021 103.737 48.7717 103.616 48.7488 103.555C48.5658 103.108 47.3919 103.252 47.3843 103.138C47.3766 103.055 48.078 102.721 48.6497 102.986C49.1376 103.214 49.2214 103.73 49.7093 103.775C49.8541 103.791 50.0447 103.768 50.0752 103.677C50.1362 103.502 49.5568 103.29 49.5644 102.926C49.5644 102.683 49.8389 102.668 49.9151 102.379C49.9456 102.251 49.9304 102.144 49.8846 102.038C49.0842 102.455 48.2152 102.774 47.2928 102.979C46.5229 103.153 45.7606 103.229 45.0135 103.229Z" fill="#D5DBDF"/>
<path d="M53.4671 98.9434C52.6438 100.089 51.5765 101.068 50.3264 101.796C50.273 101.894 50.2349 102.001 50.2273 102.13C50.1892 102.539 50.4636 102.987 50.7075 103.01C50.9896 103.032 51.0963 102.486 51.3936 102.494C51.668 102.501 51.9653 102.972 51.9425 103.396C51.912 103.928 51.3784 104.292 51.1497 104.451C50.6694 104.777 50.2044 104.853 50.2197 105.005C50.2349 105.126 50.5322 105.111 50.5627 105.24C50.6084 105.475 49.6327 106.128 48.8323 105.885C48.3063 105.725 48.3291 105.331 47.9175 105.263C47.3534 105.172 47.1857 105.87 45.9431 106.674C45.2418 107.129 44.7921 107.228 44.7006 107.66C44.6244 108.009 44.914 108.13 44.8531 108.525C44.7463 109.208 44.1365 109.314 43.8087 109.943C43.3589 110.808 43.7782 112.03 44.3881 112.766C44.4643 112.857 44.6167 113.039 44.8302 113.221C45.4858 113.168 46.1413 113.077 46.7969 112.932C50.7838 112.06 54.0159 109.64 56.0131 106.446C55.975 105.65 55.8683 104.853 55.693 104.049C55.2737 102.16 54.5038 100.438 53.4671 98.9434Z" fill="#EEF5F9"/>
<path d="M41.7357 93.0108C41.7204 93.2384 42.2693 93.5266 43.3594 94.1108C44.8916 94.9301 45.6234 95.0894 45.7911 95.7267C45.8978 96.1363 45.6691 96.2956 45.8597 96.7736C46.0808 97.3274 46.5458 97.4943 46.4772 97.8053C46.4314 97.9949 46.2027 98.1618 46.0503 98.1239C45.8063 98.0632 45.9207 97.4943 45.6234 97.3122C45.3261 97.1301 44.7544 97.4184 44.419 97.737C43.5957 98.5184 43.4508 100.21 44.2513 100.908C44.6172 101.227 45.2727 101.409 45.6386 101.136C46.0655 100.817 45.9283 100.028 45.9131 99.9674C45.8063 99.3908 45.4176 99.1177 45.509 98.9887C45.6005 98.8674 46.0655 98.9887 46.3704 99.2694C46.7973 99.6715 46.9727 100.46 46.6677 101.007C46.279 101.72 45.3261 101.545 45.1127 102.251C45.0288 102.532 45.1508 102.638 45.0212 103.131C45.0136 103.161 45.0059 103.192 44.9983 103.214C45.7454 103.214 46.5077 103.138 47.27 102.972C48.1923 102.767 49.0614 102.448 49.8618 102.031C49.7551 101.78 49.5035 101.553 49.5492 101.196C49.5874 100.931 49.7856 100.635 50.0829 100.544C50.4335 100.445 50.8604 100.643 50.9214 100.893C50.9976 101.189 50.525 101.386 50.3039 101.78C51.5541 101.045 52.6137 100.066 53.4446 98.9281C50.8604 95.1956 46.5991 92.8363 41.972 92.6846C41.8348 92.7984 41.7433 92.9046 41.7357 93.0108Z" fill="#EEF5F9"/>
<path d="M37.299 120.958C36.4452 120.7 35.6143 120.367 34.8291 119.957C35.7591 120.564 36.4909 120.913 37.299 120.958Z" fill="#D5DBDF"/>
<path d="M40.1573 119.828C40.6909 119.176 41.1712 117.992 40.6985 117.256C40.264 116.573 39.273 116.9 37.352 116.08C36.5288 115.731 35.9342 115.337 35.3091 114.927C33.4948 113.736 33.1365 113 32.176 113.031C31.429 113.053 30.903 113.516 30.6209 113.251C30.3846 113.023 30.7124 112.667 30.5066 112.173C30.2093 111.46 29.2259 111.529 29.1268 110.937C29.0658 110.573 29.3936 110.353 29.2412 110.049C29.1268 109.822 28.8829 109.852 28.6694 109.685C28.0444 109.2 28.3188 107.584 28.6313 107.546C28.738 107.531 28.9286 107.713 29.2412 108.638C30.2093 108.911 30.2855 108.904 30.2855 108.904C30.9563 108.813 30.8115 107.758 31.772 107.075C30.7124 105.566 29.9349 103.829 29.508 101.917C29.3326 101.113 29.2259 100.316 29.1878 99.5195C27.7928 101.757 27 104.375 27 107.106C27.2973 107.963 27.5184 108.661 27.6708 109.222C27.808 109.723 27.9376 110.322 28.4407 110.823C28.6618 111.043 28.8219 111.111 29.0277 111.4C29.3631 111.87 29.2869 112.166 29.4699 112.636C29.8281 113.562 30.5295 113.478 30.7963 114.252C31.0249 114.897 30.6133 115.2 30.6286 115.883C30.6514 116.96 31.6805 117.719 33.2585 118.857C33.8531 119.282 34.3638 119.653 34.8212 119.957C35.6064 120.367 36.4373 120.7 37.2911 120.958C37.4664 120.966 37.6341 120.966 37.817 120.951C38.1601 120.92 39.3569 120.807 40.1573 119.828Z" fill="#D5DBDF"/>
<path d="M33.2129 106.233C33.3577 105.839 33.0528 105.52 33.251 105.3C33.3958 105.141 33.6397 105.217 34.4249 105.292C35.1796 105.361 35.5531 105.391 35.6522 105.27C35.8809 104.974 35.3168 104.124 34.7908 103.616C34.5316 103.366 33.6931 102.546 32.8698 102.743C32.4201 102.85 32.2752 103.199 32.0237 103.115C31.673 103.001 31.6196 102.243 31.6654 101.78C31.673 101.689 31.8102 100.566 32.3591 100.46C32.7936 100.377 33.2662 100.976 33.3653 101.097C33.5635 101.355 33.6321 101.568 34.0209 102.099C34.2267 102.379 34.2725 102.41 34.3334 102.417C34.7832 102.523 35.6522 101.469 35.4464 100.763C35.3397 100.392 35.0043 100.361 34.9738 100.005C34.928 99.5496 35.4388 99.1476 35.6141 99.0034C35.8885 98.7834 36.163 98.6621 36.4069 98.571C36.1553 98.1917 35.9343 97.7972 35.7284 97.38C35.2863 97.1979 34.9738 97.1372 34.6841 97.2965C34.3563 97.4786 34.12 97.9034 34.1581 98.2676C34.2038 98.7227 34.6231 98.8745 34.5393 99.1703C34.4554 99.451 33.998 99.5572 33.7693 99.5724C33.6397 99.58 33.3272 99.6028 33.2433 99.451C33.1138 99.2159 33.6474 98.8669 33.5483 98.5862C33.4263 98.2448 32.5192 98.4952 32.2905 98.1841C32.077 97.8958 32.4734 97.1448 34.3106 95.0434C34.5926 94.7248 34.7146 94.4972 34.7451 94.3379C32.4201 95.5517 30.5143 97.3496 29.165 99.5041C29.2032 100.301 29.3099 101.097 29.4852 101.901C29.9045 103.813 30.6896 105.55 31.7492 107.06C32.4353 106.597 33.0299 106.719 33.2129 106.233Z" fill="#EEF5F9"/>
<path d="M37.1917 98.2374C37.207 98.0553 36.8487 97.8884 36.3913 97.676C36.1474 97.5622 35.9416 97.4636 35.751 97.3877C35.9492 97.8049 36.1779 98.1994 36.4294 98.5787C36.8563 98.427 37.1765 98.4043 37.1917 98.2374Z" fill="#D5DBDF"/>
<path d="M36.4295 99.4516C36.46 99.8082 37.1537 99.7475 37.3443 100.157C37.4738 100.438 37.2223 100.605 37.0927 101.272C37.0165 101.667 36.8716 102.41 37.268 102.782C37.5425 103.04 38.0608 103.116 38.3276 102.903C38.6402 102.661 38.3657 102.266 38.6325 101.856C38.785 101.621 39.0213 101.53 39.2805 101.47C38.2743 100.794 37.3824 99.9372 36.6582 98.9434C36.4676 99.1634 36.4219 99.3151 36.4295 99.4516Z" fill="#EEF5F9"/>
<path d="M40.4931 100.991C40.6532 100.71 40.4093 100.657 40.5236 99.8608C40.5541 99.6257 40.6304 99.2539 40.7447 98.556C40.7828 98.3208 40.8133 98.1008 40.7295 98.0553C40.6075 97.987 40.4017 98.3512 40.0663 98.3512C39.8452 98.3512 39.7156 98.1919 39.5784 98.0932C38.8847 97.5774 37.3906 98.1388 36.6816 98.9429C37.4058 99.9367 38.2901 100.794 39.304 101.469C39.7461 101.363 40.2645 101.378 40.4931 100.991Z" fill="#EEF5F9"/>
<path d="M130.955 103.237C130.955 84.4763 115.618 69.2127 96.7658 69.2127C88.007 69.2127 80.0105 72.5128 73.9578 77.9142C72.0444 78.6197 69.2468 79.0749 66.7312 79.0749C58.4145 79.0749 51.6453 72.3383 51.6453 64.0617C51.6453 55.7851 58.4145 49.0485 66.7312 49.0485C72.418 49.0485 77.5635 52.2044 80.1401 57.1734L77.6245 58.1596L88.7998 66.4969L90.7284 53.0388L88.4568 53.9264C84.5157 45.5588 76.0922 40.1953 66.7388 40.1953C53.5129 40.1953 42.7568 50.8995 42.7568 64.0617C42.7568 77.0645 53.2537 87.6625 66.2586 87.9129C63.9107 92.5177 62.5843 97.7219 62.5843 103.23C62.5843 108.578 63.8421 113.805 66.2357 118.531L63.9869 120.048L76.7173 125.761L75.6349 112.212L73.6758 113.524C72.2274 110.308 71.4727 106.81 71.4727 103.237C71.4727 89.3618 82.8157 78.0659 96.7658 78.0659C110.716 78.0659 122.059 89.3543 122.059 103.237C122.059 114.67 114.23 124.683 103.253 127.574C102.796 127.695 99.1442 128.12 98.6792 128.211L100.928 136.95C101.423 136.852 104.648 136.351 105.136 136.23C120.184 132.459 130.955 118.819 130.955 103.237Z" fill="#B84522"/>
<path d="M30.2471 128.408V137.261H98.0614L96.1861 128.408H30.2471Z" fill="#B84522"/>
<path d="M149.615 132.74L136.984 126.147V128.408H123.27C119.687 132.292 115.197 135.357 110.098 137.261H136.976V140.061L149.615 132.74Z" fill="#B84522"/>
<path d="M134.697 103.237C134.697 84.4763 119.36 69.2127 100.508 69.2127C91.7494 69.2127 83.7528 72.5128 77.7002 77.9142C75.7868 78.6197 72.9892 79.0749 70.4736 79.0749C62.1569 79.0749 55.3876 72.3383 55.3876 64.0617C55.3876 55.7851 62.1569 49.0485 70.4736 49.0485C76.1603 49.0485 81.3059 52.2044 83.8824 57.1734L81.3668 58.1596L92.5574 66.5045L94.4784 53.0388L92.2068 53.9264C88.2657 45.5588 79.8422 40.1953 70.4888 40.1953C57.2629 40.2029 46.5068 50.9071 46.5068 64.0693C46.5068 77.0721 57.0037 87.6701 70.0086 87.9205C67.6607 92.5253 66.3343 97.7295 66.3343 103.237C66.3343 108.585 67.5921 113.812 69.9857 118.539L67.7369 120.056L80.4673 125.768L79.3925 112.212L77.4334 113.524C75.985 110.308 75.2303 106.81 75.2303 103.237C75.2303 89.3618 86.5734 78.0659 100.523 78.0659C114.474 78.0659 125.817 89.3543 125.817 103.237C125.817 114.67 117.988 124.683 107.011 127.574C106.553 127.695 102.902 128.12 102.437 128.211L104.686 136.95C105.181 136.852 108.406 136.351 108.894 136.23C123.934 132.459 134.697 118.819 134.697 103.237Z" fill="#EF6238"/>
<path d="M33.9902 128.408V137.261H101.805L99.9293 128.408H33.9902Z" fill="#EF6238"/>
<path d="M153.366 132.74L140.735 126.147V128.408H127.021C123.438 132.292 118.948 135.357 113.849 137.261H140.727V140.061L153.366 132.74Z" fill="#EF6238"/>
<path d="M108.531 41.0977C108.37 44.2535 105.748 46.7646 102.539 46.7646C101.319 46.7646 100.176 46.4004 99.2305 45.7708C99.5049 46.2411 99.8403 46.7494 100.229 47.2349C101.479 48.7749 101.403 49.526 101.403 49.526C101.403 49.4501 104.841 49.526 104.841 49.526C104.841 49.526 104.765 48.7749 106.015 47.2349C107.265 45.6949 107.936 43.8591 107.936 43.8591C108.325 43.1156 108.546 42.2735 108.546 41.3783C108.538 41.2873 108.538 41.1887 108.531 41.0977Z" fill="#E5AA30"/>
<path d="M108.531 41.098C108.378 38.2607 106.023 36 103.126 36C100.138 36 97.7139 38.4124 97.7139 41.3862C97.7139 42.2814 97.9349 43.1235 98.3237 43.8669H98.3008C98.3008 43.8669 98.621 44.7394 99.2232 45.7787C100.168 46.4008 101.312 46.7725 102.532 46.7725C105.749 46.7649 108.371 44.2538 108.531 41.098ZM99.7568 42.3725C98.5448 41.6745 98.3161 39.8235 99.2385 38.2379C100.161 36.6448 101.891 35.9241 103.096 36.6145C104.3 37.3048 104.536 39.1635 103.614 40.749C102.692 42.3421 100.961 43.0628 99.7568 42.3725Z" fill="#FDCF4A"/>
<path d="M103.614 40.7489C104.536 39.1557 104.308 37.3047 103.096 36.6143C101.884 35.924 100.161 36.6447 99.2385 38.2378C98.3161 39.8309 98.5448 41.682 99.7569 42.3723C100.961 43.0627 102.692 42.342 103.614 40.7489ZM102.448 40.0813C102.021 40.8247 101.213 41.1585 100.649 40.8399C100.085 40.5137 99.9779 39.6564 100.405 38.913C100.832 38.1695 101.64 37.8357 102.204 38.1544C102.768 38.473 102.875 39.3378 102.448 40.0813Z" fill="#FFEFA3"/>
<path d="M102.204 38.155C101.64 37.8288 100.839 38.1702 100.405 38.9136C99.9779 39.6571 100.085 40.5143 100.649 40.8405C101.213 41.1667 102.013 40.8253 102.448 40.0819C102.875 39.3384 102.768 38.4736 102.204 38.155Z" fill="#FDF6E3"/>
<path d="M103.012 49.7384C102.173 48.2894 101.525 46.7039 101.388 45.0198C101.357 44.6177 101.35 44.2232 101.373 43.8211C101.38 43.6618 101.38 43.4949 101.434 43.3432C101.456 43.2749 101.487 43.2142 101.517 43.1535C101.594 43.017 101.571 42.9942 101.723 43.0322C102.104 43.1308 102.226 43.7908 102.249 44.117C102.28 44.4811 102.234 44.8529 102.196 45.217C102.249 45.1487 102.295 45.088 102.348 45.0198C102.249 45.0425 102.181 44.3825 102.181 44.3294C102.173 44.026 102.234 43.7528 102.402 43.4949C102.554 43.2597 103.057 42.6453 103.385 42.9032C103.507 42.9942 103.553 43.3128 103.599 43.457C103.66 43.677 103.698 43.9046 103.72 44.1322C103.736 44.3294 103.743 44.5266 103.72 44.7239C103.713 44.777 103.751 45.1108 103.652 45.0198C103.568 44.9363 103.614 44.6556 103.621 44.557C103.66 44.1246 103.804 43.6618 104.071 43.3128C104.368 42.9259 104.894 42.668 105.055 43.2901C105.237 43.9728 105.039 44.7846 104.902 45.4598C104.597 46.9315 103.964 48.2743 103.233 49.5791C103.103 49.8067 103.454 50.0115 103.583 49.7839C104.513 48.1453 105.215 46.4611 105.459 44.5873C105.535 44.0108 105.664 43.0701 105.146 42.6377C104.757 42.3115 104.216 42.577 103.903 42.888C103.53 43.2673 103.324 43.8135 103.24 44.3294C103.187 44.6556 103.134 45.1487 103.431 45.3839C104.201 46.006 104.155 44.3066 104.117 43.9956C104.064 43.5101 103.865 42.1901 103.08 42.4328C102.379 42.6453 101.815 43.4494 101.777 44.1625C101.754 44.5646 101.838 45.5584 102.455 45.4294C102.547 45.4067 102.592 45.3156 102.608 45.2322C102.699 44.4204 102.79 43.2597 102.013 42.7211C101.296 42.228 101.007 43.2522 100.976 43.768C100.839 45.968 101.586 48.077 102.669 49.9584C102.79 50.1708 103.149 49.966 103.012 49.7384Z" fill="#FDF6E3"/>
<path opacity="0.56" d="M108.531 41.0977C108.37 44.2535 105.748 46.7646 102.539 46.7646C101.319 46.7646 100.176 46.4004 99.2305 45.7708C99.5049 46.2411 99.8403 46.7494 100.229 47.2349C101.479 48.7749 101.403 49.526 101.403 49.526C101.403 49.4501 104.841 49.526 104.841 49.526C104.841 49.526 104.765 48.7749 106.015 47.2349C107.265 45.6949 107.936 43.8591 107.936 43.8591C108.325 43.1156 108.546 42.2735 108.546 41.3783C108.538 41.2873 108.538 41.1887 108.531 41.0977Z" fill="#E5AA30"/>
<path d="M103.91 53.3452C104.348 52.9097 104.348 52.2036 103.91 51.7681C103.473 51.3326 102.763 51.3326 102.326 51.7681C101.888 52.2036 101.888 52.9097 102.326 53.3452C102.763 53.7807 103.473 53.7807 103.91 53.3452Z" fill="#2F3137"/>
<path d="M103.332 53.1757H102.928C101.914 53.1757 101.099 52.364 101.099 51.355V49.3901C101.099 49.2764 101.19 49.1777 101.312 49.1777H104.948C105.063 49.1777 105.162 49.2688 105.162 49.3901V51.355C105.162 52.364 104.346 53.1757 103.332 53.1757Z" fill="#040404"/>
<path d="M105.108 50.1257H101.091C100.992 50.1257 100.908 50.0423 100.908 49.9436V49.9057C100.908 49.8071 100.992 49.7236 101.091 49.7236H105.108C105.208 49.7236 105.291 49.8071 105.291 49.9057V49.9436C105.291 50.0423 105.215 50.1257 105.108 50.1257Z" fill="#2F3137"/>
<path d="M105.108 50.9978H101.091C100.992 50.9978 100.908 50.9143 100.908 50.8157V50.7778C100.908 50.6792 100.992 50.5957 101.091 50.5957H105.108C105.208 50.5957 105.291 50.6792 105.291 50.7778V50.8157C105.291 50.9143 105.215 50.9978 105.108 50.9978Z" fill="#2F3137"/>
<path d="M105.108 51.863H101.091C100.992 51.863 100.908 51.7796 100.908 51.6809V51.643C100.908 51.5444 100.992 51.4609 101.091 51.4609H105.108C105.208 51.4609 105.291 51.5444 105.291 51.643V51.6809C105.291 51.7796 105.215 51.863 105.108 51.863Z" fill="#2F3137"/>
<path d="M148.29 109.473H134.142V109.222H148.038V92.1836H148.29V109.473Z" fill="#1C1E23"/>
<path d="M129.431 53.4032H129.172V41.8038H105.434V41.5459H129.431V53.4032Z" fill="#1C1E23"/>
<path d="M140.278 109.374H140.026V128.408H140.278V109.374Z" fill="#1C1E23"/>
<path d="M49.9223 79.7041H40.9805V79.9544H49.9223V79.7041Z" fill="#1C1E23"/>
<path d="M49.1676 98.6174H48.916V90.3711H72.6464V90.6214H49.1676V98.6174Z" fill="#1C1E23"/>
<path d="M54.9995 124.213H33.1367V118.857H33.3959V123.963H54.9995V124.213Z" fill="#1C1E23"/>
<path d="M104.853 42.6688C105.464 42.6688 105.959 42.1763 105.959 41.5688C105.959 40.9612 105.464 40.4688 104.853 40.4688C104.243 40.4688 103.748 40.9612 103.748 41.5688C103.748 42.1763 104.243 42.6688 104.853 42.6688Z" fill="#1C1E23"/>
<path d="M72.6464 91.5994C73.2568 91.5994 73.7517 91.1069 73.7517 90.4994C73.7517 89.8919 73.2568 89.3994 72.6464 89.3994C72.0359 89.3994 71.541 89.8919 71.541 90.4994C71.541 91.1069 72.0359 91.5994 72.6464 91.5994Z" fill="#1C1E23"/>
<path d="M148.734 93.056C149.299 92.8255 149.569 92.183 149.338 91.6209C149.106 91.0587 148.461 90.7898 147.896 91.0203C147.331 91.2507 147.061 91.8932 147.292 92.4553C147.524 93.0175 148.169 93.2864 148.734 93.056Z" fill="#1C1E23"/>
<path d="M48.8173 99.9373C49.4277 99.9373 49.9226 99.4448 49.9226 98.8373C49.9226 98.2298 49.4277 97.7373 48.8173 97.7373C48.2068 97.7373 47.7119 98.2298 47.7119 98.8373C47.7119 99.4448 48.2068 99.9373 48.8173 99.9373Z" fill="#1C1E23"/>
<path d="M140.706 110.156C141.138 109.726 141.138 109.03 140.706 108.6C140.274 108.171 139.575 108.171 139.143 108.6C138.711 109.03 138.711 109.726 139.143 110.156C139.575 110.585 140.274 110.585 140.706 110.156Z" fill="#1C1E23"/>
<path d="M41.3162 79.8337L38.2899 77.6943V78.4302H31.8484C31.8713 78.3999 31.8332 81.3054 31.8484 81.3054H38.2899V82.2157L41.3162 79.8337Z" fill="#040404"/>
<path d="M30.9102 84.4836L33.9365 86.623V85.8871H40.3779C40.3551 85.9174 40.3932 83.0119 40.3779 83.0119H33.9365V82.1016L30.9102 84.4836Z" fill="#040404"/>
</g>
<defs>
<clipPath id="clip0_494_12806">
<rect width="132" height="109.5" fill="white" transform="translate(27 36)"/>
</clipPath>
</defs>
</svg>
