<svg width="122" height="146" viewBox="0 0 122 146" fill="none" xmlns="http://www.w3.org/2000/svg">
<path d="M122 61.1873C122 27.375 94.6757 8.11833e-06 61 5.23068e-06C27.3243 2.34303e-06 -2.3477e-06 27.375 -5.24746e-06 61.1873C-7.71183e-06 89.9227 19.7489 114.013 46.3454 120.583L52.1676 130.736L61 146L69.7993 130.703L75.6215 120.55C102.251 113.98 122 89.8895 122 61.1873Z" fill="#EF6238"/>
<path d="M61.0195 115C90.8428 115 115.015 90.8234 115.01 61C115.004 31.1766 90.8234 7 61 7C31.1766 7 7.00436 31.1766 7.00973 61C7.0151 90.8234 31.1961 115 61.0195 115Z" fill="white"/>
<path d="M87.8818 86.3256C86.4547 87.8358 85.0951 88.8115 84.031 89.5835C71.4653 98.6447 56.5941 95.9976 53.4358 95.3528C48.7658 94.4026 39.7468 92.5615 33.2275 84.8578C23.3556 73.2004 24.8925 54.832 32.5435 42.7165C33.9453 40.4936 41.3429 28.1829 56.3745 26.2146C65.4695 25.0183 76.0676 27.4278 83.7439 33.8928C99.8649 47.4592 98.7164 74.8633 87.8818 86.3256Z" fill="#EEF5F9"/>
<g clip-path="url(#clip0_494_6552)">
<path d="M57.3009 73.1743C54.542 83.335 60.5955 87.7837 60.5955 87.7837L43.9217 87.7837C43.9217 87.7837 38.4441 81.7088 42.8101 72.9458C47.1761 64.1694 60.0598 63.0001 57.3009 73.1743Z" fill="#EF6238"/>
<path d="M19.8016 74.518L79.1312 74.518C79.6803 74.518 80.1222 74.0745 80.1222 73.5234L80.1222 31.0795C80.1222 30.5285 79.6803 30.085 79.1312 30.085L19.8016 30.085C19.2525 30.085 18.8105 30.5285 18.8105 31.0795L18.8105 73.5234C18.8105 74.0745 19.2525 74.518 19.8016 74.518Z" fill="#1C1E23"/>
<path d="M21.1403 73.5233L77.7913 73.5233C78.3137 73.5233 78.7422 73.0932 78.7422 72.569L78.7422 32.047C78.7422 31.5229 78.3137 31.0928 77.7913 31.0928L21.1403 31.0928C20.618 31.0928 20.1895 31.5229 20.1895 32.047L20.1895 72.569C20.1895 73.0932 20.618 73.5233 21.1403 73.5233Z" fill="#3C3E3F"/>
<path d="M76.2256 33.2295L22.5879 33.2295L22.5879 71.4935L76.2256 71.4935L76.2256 33.2295Z" fill="white"/>
<path d="M76.2256 33.2295L22.5879 33.2295L22.5879 37.8798L76.2256 37.8798L76.2256 33.2295Z" fill="#EF6238"/>
<path d="M61.6543 88.2273L44.1903 88.2273C43.8555 88.2273 43.5742 87.9451 43.5742 87.609L43.5742 87.5284C43.5742 87.1924 43.8555 86.9102 44.1903 86.9102L61.6543 86.9102C61.9892 86.9102 62.2704 87.1924 62.2704 87.5284L62.2704 87.609C62.2704 87.9451 61.9892 88.2273 61.6543 88.2273Z" fill="#1C1E23"/>
<path d="M71.791 35.5548C71.791 36.1865 72.2999 36.6972 72.9294 36.6972C73.5589 36.6972 74.0678 36.1865 74.0678 35.5548C74.0678 34.9231 73.5589 34.4124 72.9294 34.4124C72.2999 34.3989 71.791 34.9231 71.791 35.5548Z" fill="white"/>
<path d="M40.7888 34.2383L24.1016 34.2383L24.1016 36.9397L40.7888 36.9397L40.7888 34.2383Z" fill="#3C3E3F"/>
<path d="M23.5801 56.5215L23.0703 56.5215L23.0703 56.924L23.5801 56.924L23.5801 56.5215Z" fill="#1C1E23"/>
<path d="M30.8515 56.924L29.9408 56.924L29.9408 56.5215L30.8515 56.5215L30.8515 56.924ZM29.0301 56.924L28.1194 56.924L28.1194 56.5215L29.0301 56.5215L29.0301 56.924ZM27.2087 56.924L26.298 56.924L26.298 56.5215L27.2087 56.5215L27.2087 56.924ZM25.3873 56.924L24.4766 56.924L24.4766 56.5215L25.3873 56.5215L25.3873 56.924Z" fill="#1C1E23"/>
<path d="M32.4046 56.9248L31.7617 56.9248L31.7617 56.5216L32.1099 56.5216L32.2171 56.1855L32.6055 56.3065L32.4046 56.9248Z" fill="#1C1E23"/>
<path d="M32.9274 55.3254L32.5391 55.2045L32.8605 54.2233L33.2489 54.3443L32.9274 55.3254ZM33.5569 53.3632L33.1685 53.2422L33.4899 52.2611L33.8783 52.382L33.5569 53.3632ZM34.1998 51.4009L33.8114 51.28L34.1328 50.2988L34.5212 50.4198L34.1998 51.4009Z" fill="#1C1E23"/>
<path d="M34.8013 49.4381L34.7879 49.4112L34.4531 49.3037L34.7879 48.2822L35.1763 49.2902L34.8415 49.4112L34.8415 49.4381L34.8147 49.4246L34.8013 49.4381Z" fill="#1C1E23"/>
<path d="M39.5301 63.2278L39.222 62.2332L39.6104 62.1122L39.9185 63.1068L39.5301 63.2278ZM38.9274 61.2252L38.6194 60.2306L39.0078 60.1097L39.3158 61.1042L38.9274 61.2252ZM38.3247 59.2226L38.0167 58.228L38.4051 58.1071L38.7131 59.1016L38.3247 59.2226ZM37.7221 57.2335L37.414 56.2523L37.789 56.1045L37.8292 56.2255L38.0971 57.1125L37.7221 57.2335ZM37.039 55.2712L36.664 54.3035L37.039 54.1557L37.414 55.1234L37.039 55.2712ZM36.289 53.3224L35.9141 52.3547L36.289 52.2069L36.664 53.1746L36.289 53.3224ZM35.5391 51.387L35.1641 50.4193L35.5391 50.2715L35.9141 51.2392L35.5391 51.387Z" fill="#1C1E23"/>
<path d="M40.2129 65.459L39.8379 64.2225L40.0656 64.1553L40.079 64.115L40.1459 64.1284L40.2263 64.1016L40.2263 64.1419L40.4673 64.1956L40.2129 65.459Z" fill="#1C1E23"/>
<path d="M40.6814 63.161L40.293 63.0803L40.5073 62.0454L40.8956 62.1261L40.6814 63.161ZM41.1099 61.1046L40.7215 61.024L40.9358 59.9891L41.3242 60.0697L41.1099 61.1046ZM41.5385 59.0483L41.1501 58.9677L41.3644 57.9328L41.7528 58.0134L41.5385 59.0483ZM41.9671 56.992L41.5787 56.9113L41.793 55.8764L42.1813 55.9571L41.9671 56.992ZM42.3956 54.9356L42.0072 54.855L42.2215 53.8201L42.6099 53.9007L42.3956 54.9356ZM42.8108 52.8793L42.4224 52.7986L42.6367 51.7637L43.0251 51.8444L42.8108 52.8793ZM43.2394 50.8229L42.851 50.7423L43.0653 49.7074L43.4536 49.788L43.2394 50.8229ZM43.6679 48.7666L43.2795 48.686L43.4938 47.6511L43.8822 47.7317L43.6679 48.7666ZM44.0965 46.7103L43.7081 46.6296L43.9224 45.5947L44.3108 45.6754L44.0965 46.7103Z" fill="#1C1E23"/>
<path d="M44.3641 44.6534L44.3507 44.6131L44.123 44.5593L44.4043 43.2422L44.7525 44.5459L44.5248 44.6131L44.5248 44.6534L44.4445 44.6265L44.3641 44.6534Z" fill="#1C1E23"/>
<path d="M47.6863 56.8974L47.4051 55.876L47.7935 55.7684L48.0747 56.7899L47.6863 56.8974ZM47.1372 54.8545L46.856 53.8331L47.2444 53.7255L47.5256 54.747L47.1372 54.8545ZM46.5748 52.8116L46.2935 51.7902L46.6819 51.6826L46.9631 52.7041L46.5748 52.8116ZM46.0257 50.7687L45.7444 49.7473L46.1328 49.6397L46.414 50.6612L46.0257 50.7687ZM45.4766 48.7393L45.1953 47.7178L45.5837 47.6103L45.8649 48.6317L45.4766 48.7393ZM44.9141 46.6964L44.6328 45.6749L45.0212 45.5674L45.3024 46.5888L44.9141 46.6964Z" fill="#1C1E23"/>
<path d="M48.2748 59.0615L47.9668 57.919L48.248 57.8384L48.248 57.8115L48.3016 57.825L48.3552 57.8115L48.3552 57.8384L48.6364 57.9325L48.2748 59.0615Z" fill="#1C1E23"/>
<path d="M48.9314 57.0185L48.543 56.8976L48.8376 55.9702L49.226 56.0912L48.9314 57.0185ZM49.534 55.1638L49.1456 55.0428L49.4403 54.1155L49.8287 54.2364L49.534 55.1638ZM50.1367 53.3225L49.7483 53.2015L50.0429 52.2742L50.4313 52.3951L50.1367 53.3225ZM50.7394 51.4678L50.351 51.3468L50.6456 50.4194L51.034 50.5404L50.7394 51.4678ZM51.342 49.6265L50.9536 49.5055L51.2483 48.5781L51.6367 48.6991L51.342 49.6265Z" fill="#1C1E23"/>
<path d="M51.9185 47.7715L51.9051 47.7581L51.5703 47.6506L51.8917 46.6426L52.2935 47.6237L51.9587 47.7581L51.9453 47.7715L51.9319 47.7715L51.9185 47.7715Z" fill="#1C1E23"/>
<path d="M54.5842 54.5188L54.2494 53.672L54.6244 53.5242L54.9592 54.3709L54.5842 54.5188ZM53.9146 52.8253L53.5798 51.9786L53.9548 51.8307L54.2896 52.6775L53.9146 52.8253ZM53.245 51.1453L52.9101 50.2986L53.2851 50.1507L53.62 50.9974L53.245 51.1453ZM52.5887 49.4653L52.2539 48.6185L52.6289 48.4707L52.9637 49.3174L52.5887 49.4653Z" fill="#1C1E23"/>
<path d="M55.3197 56.36L54.918 55.3519L55.2394 55.231L55.2528 55.2041L55.2662 55.2175L55.293 55.2041L55.3064 55.231L55.6278 55.3251L55.3197 56.36Z" fill="#1C1E23"/>
<path d="M55.9353 54.317L55.5469 54.196L55.8549 53.188L56.2433 53.3089L55.9353 54.317ZM56.5379 52.3144L56.1495 52.1934L56.4576 51.1854L56.846 51.3064L56.5379 52.3144ZM57.154 50.2984L56.7656 50.1774L57.0736 49.1694L57.462 49.2903L57.154 50.2984ZM57.7567 48.2823L57.3683 48.1614L57.6763 47.1534L58.0647 47.2743L57.7567 48.2823ZM58.3593 46.2798L57.9709 46.1588L58.279 45.1508L58.6674 45.2717L58.3593 46.2798ZM58.9754 44.2637L58.587 44.1428L58.895 43.1348L59.2834 43.2557L58.9754 44.2637Z" fill="#1C1E23"/>
<path d="M59.5778 42.2479L59.4975 42.2345L59.4171 42.2479L59.4037 42.2076L59.1895 42.1404L59.5912 40.8232L59.8055 42.1807L59.5912 42.2076L59.5778 42.2479Z" fill="#1C1E23"/>
<path d="M62.6718 61.8573L62.5111 60.8762L62.9129 60.809L63.0736 61.7901L62.6718 61.8573ZM62.3504 59.8951L62.1897 58.9139L62.5915 58.8467L62.7522 59.8279L62.3504 59.8951ZM62.0156 57.9328L61.8549 56.9517L62.2567 56.8845L62.4174 57.8656L62.0156 57.9328ZM61.6942 55.9705L61.5335 54.9894L61.9352 54.9222L62.0959 55.9033L61.6942 55.9705ZM61.3727 54.0083L61.212 53.0272L61.6138 52.96L61.7745 53.9411L61.3727 54.0083ZM61.0379 52.046L60.8772 51.0649L61.279 50.9977L61.4397 51.9788L61.0379 52.046ZM60.7165 50.0838L60.5558 49.1026L60.9576 49.0354L61.1183 50.0166L60.7165 50.0838ZM60.3951 48.1215L60.2344 47.1404L60.6361 47.0732L60.7969 48.0543L60.3951 48.1215ZM60.0603 46.1593L59.8995 45.1781L60.3013 45.1109L60.462 46.0921L60.0603 46.1593ZM59.7388 44.2104L59.5781 43.2293L59.9799 43.1621L60.1406 44.1432L59.7388 44.2104Z" fill="#1C1E23"/>
<path d="M63.0884 64.343L62.834 62.8377L63.0215 62.8108L63.0349 62.7705L63.1286 62.7839L63.2358 62.7705L63.2358 62.8108L63.4233 62.8511L63.0884 64.343Z" fill="#1C1E23"/>
<path d="M63.6364 61.8842L63.248 61.7901L63.4623 60.8225L63.8507 60.9165L63.6364 61.8842ZM64.0784 59.9489L63.69 59.8548L63.9043 58.8871L64.2927 58.9812L64.0784 59.9489ZM64.5203 58.0269L64.132 57.9328L64.3462 56.9651L64.7346 57.0592L64.5203 58.0269ZM64.9489 56.0915L64.5605 55.9975L64.7748 55.0298L65.1632 55.1238L64.9489 56.0915ZM65.3909 54.1562L65.0025 54.0621L65.2168 53.0944L65.6052 53.1885L65.3909 54.1562ZM65.8194 52.2208L65.4311 52.1267L65.6453 51.159L66.0337 51.2531L65.8194 52.2208ZM66.2614 50.2854L65.873 50.1913L66.0873 49.2236L66.4757 49.3177L66.2614 50.2854Z" fill="#1C1E23"/>
<path d="M66.5974 48.3632L66.584 48.3363L66.3027 48.2691L66.5572 47.1133L66.9724 48.2288L66.7045 48.3229L66.6911 48.3632L66.6376 48.3498L66.5974 48.3632Z" fill="#1C1E23"/>
<path d="M68.4578 53.497L68.1498 52.6368L68.5248 52.5024L68.8328 53.3626L68.4578 53.497ZM67.8284 51.7767L67.5204 50.9165L67.8954 50.7821L68.2034 51.6423L67.8284 51.7767ZM67.2123 50.0698L66.9043 49.2096L67.2793 49.0752L67.5873 49.9354L67.2123 50.0698Z" fill="#1C1E23"/>
<path d="M69.6361 54.9492L68.9933 54.9492L68.7656 54.3444L69.1406 54.21L69.2745 54.546L69.6361 54.546L69.6361 54.9492Z" fill="#1C1E23"/>
<path d="M74.0962 54.9484L72.9846 54.9484L72.9846 54.5459L74.0962 54.5459L74.0962 54.9484ZM71.8596 54.9484L70.748 54.9484L70.748 54.5459L71.8596 54.5459L71.8596 54.9484Z" fill="#1C1E23"/>
<path d="M75.7169 54.5459L75.207 54.5459L75.207 54.9484L75.7169 54.9484L75.7169 54.5459Z" fill="#1C1E23"/>
<path d="M67.627 35.5548C67.627 36.1865 68.1359 36.6972 68.7653 36.6972C69.3948 36.6972 69.9037 36.1865 69.9037 35.5548C69.9037 34.9231 69.3948 34.4124 68.7653 34.4124C68.1359 34.3989 67.627 34.9231 67.627 35.5548Z" fill="#1C1E23"/>
<path d="M86.765 85.1629L86.765 84.6387C86.765 83.0124 85.4392 81.6953 83.832 81.6953L97.9211 81.6953C99.5416 81.6953 100.854 83.0259 100.854 84.6387L100.854 85.1629C100.854 86.7891 99.5282 88.1063 97.9211 88.1063L83.832 88.1063C85.4525 88.1063 86.765 86.7757 86.765 85.1629Z" fill="#EF6238"/>
<path d="M97.3716 81.6953L96.7422 81.6953L96.7422 88.1063L97.3716 88.1063L97.3716 81.6953Z" fill="#EF6238"/>
<path d="M96.248 81.6953L95.9395 81.6953L95.9395 88.1063L96.248 88.1063L96.248 81.6953Z" fill="#3C3E3F"/>
<path d="M60.1133 82.7435C61.4392 82.2462 84.6353 82.7435 84.6353 82.7435C85.8272 82.7435 86.912 84.0741 86.912 85.2702C86.912 86.4664 85.8138 87.797 84.6353 87.797C84.6353 87.797 61.9615 88.7512 60.1133 87.8238C60.4213 85.7944 60.3811 83.9665 60.1133 82.7435Z" fill="#F8F8F8"/>
<path d="M86.404 83.2002L60.248 83.2002L60.248 83.3209L86.404 83.3209L86.404 83.2002Z" fill="#1C1E23"/>
<path d="M60.2871 83.9668L86.8448 83.9668L86.8448 84.0875L60.3273 84.0875C60.3139 84.0339 60.3005 83.9936 60.2871 83.9668Z" fill="#1C1E23"/>
<path d="M87.1791 85.042L60.3535 85.042L60.3535 85.1627L87.1791 85.1627L87.1791 85.042Z" fill="#1C1E23"/>
<path d="M87.1791 85.5654L60.3535 85.5654L60.3535 85.6862L87.1791 85.6862L87.1791 85.5654Z" fill="#1C1E23"/>
<path d="M60.2732 86.4395L86.9112 86.4395L86.9112 86.5602L60.2598 86.5602C60.2598 86.52 60.2732 86.4797 60.2732 86.4395Z" fill="#1C1E23"/>
<path d="M60.1403 87.4873L86.2159 87.4873C86.1891 87.5276 86.1623 87.5678 86.1355 87.6081L60.127 87.6081C60.127 87.5678 60.1403 87.5276 60.1403 87.4873Z" fill="#1C1E23"/>
<path d="M84.6353 87.7969C85.8272 87.7969 86.912 86.4663 86.912 85.2701C86.912 84.074 85.8138 82.7434 84.6353 82.7434C84.6353 82.7434 61.5463 82.2461 60.1267 82.7434C60.0731 82.4343 60.0195 82.2461 60.0195 82.2461L84.5013 82.2461C86.162 82.2461 87.5147 83.6035 87.5147 85.2701C87.5147 86.9367 86.162 88.2942 84.5013 88.2942C84.5013 88.2942 61.2115 88.8318 60.0195 88.2942C60.0195 88.2538 60.0597 88.0791 60.1133 87.8237C61.9883 88.7511 84.6353 87.7969 84.6353 87.7969Z" fill="#3C3E3F"/>
<path d="M75.9707 76.0911C77.2966 75.5938 100.493 76.0911 100.493 76.0911C101.685 76.0911 102.769 77.4217 102.769 78.6179C102.769 79.8141 101.671 81.1446 100.493 81.1446C100.493 81.1446 77.8189 82.0989 75.9707 81.1715C76.2787 79.142 76.2386 77.3007 75.9707 76.0911Z" fill="#F8F8F8"/>
<path d="M102.273 76.5479L76.1172 76.5479L76.1172 76.6686L102.273 76.6686L102.273 76.5479Z" fill="#1C1E23"/>
<path d="M76.1582 77.3008L102.702 77.3008L102.702 77.4215L76.185 77.4215C76.1716 77.3813 76.1582 77.341 76.1582 77.3008Z" fill="#1C1E23"/>
<path d="M103.036 78.376L76.2109 78.376L76.2109 78.4967L103.036 78.4967L103.036 78.376Z" fill="#1C1E23"/>
<path d="M103.036 78.9131L76.2109 78.9131L76.2109 79.0338L103.036 79.0338L103.036 78.9131Z" fill="#1C1E23"/>
<path d="M76.1306 79.7871L102.782 79.7871L102.782 79.9079L76.1172 79.9079C76.1306 79.8676 76.1306 79.8274 76.1306 79.7871Z" fill="#1C1E23"/>
<path d="M76.0112 80.835L102.087 80.835C102.06 80.8752 102.033 80.9155 102.006 80.9557L75.9844 80.9557C75.9978 80.902 75.9978 80.8618 76.0112 80.835Z" fill="#1C1E23"/>
<path d="M100.493 81.1445C101.685 81.1445 102.769 79.8139 102.769 78.6178C102.769 77.4216 101.671 76.091 100.493 76.091C100.493 76.091 77.4037 75.5937 75.9841 76.091C75.9305 75.7819 75.877 75.5938 75.877 75.5938L100.359 75.5937C102.019 75.5937 103.372 76.9512 103.372 78.6178C103.372 80.2844 102.019 81.6418 100.359 81.6418C100.359 81.6418 77.0689 82.1794 75.877 81.6418C75.877 81.6015 75.9171 81.4268 75.9707 81.1714C77.8457 82.0988 100.493 81.1445 100.493 81.1445Z" fill="#1C1E23"/>
<path d="M83.7118 82.2065L62.8861 82.2065C61.9888 82.2065 61.2656 81.4673 61.2656 80.5803L61.2656 76.9515C61.2656 76.051 62.0022 75.3252 62.8861 75.3252L83.7118 75.3252C84.6091 75.3252 85.3323 76.0644 85.3323 76.9515L85.3323 80.5803C85.3323 81.4673 84.6091 82.2065 83.7118 82.2065Z" fill="#CD522D"/>
<path d="M64.815 75.3115C63.5025 78.7522 64.9623 82.2063 64.9623 82.2063L67.9891 82.2063C67.9891 82.2063 66.8909 78.2684 68.1632 75.3115C66.6766 75.3115 65.7927 75.3115 64.815 75.3115Z" fill="#EF6238"/>
<path d="M78.8092 75.3115C77.4967 78.7522 78.9565 82.2063 78.9565 82.2063L81.9832 82.2063C81.9832 82.2063 80.885 78.2684 82.1573 75.3115C80.6707 75.3115 79.7868 75.3115 78.8092 75.3115Z" fill="#EF6238"/>
<path d="M83.0691 61.9387C83.0691 61.9387 81.9173 64.237 81.2075 64.3714C80.4977 64.5058 77.2969 63.3365 77.2969 63.3365L77.2969 62.8796L80.4977 62.9602L81.2611 61.3877L83.0691 61.9387Z" fill="#F4A086"/>
<path d="M81.8225 59.1426C85.6127 59.3307 85.1841 65.8089 85.1841 65.8089L81.1127 65.8089C81.1261 65.8089 80.4163 63.4434 81.8225 59.1426Z" fill="#EF6238"/>
<path d="M81.7168 74.3974C81.7168 74.3974 81.7168 74.9081 80.6855 75.2172C80.4713 75.2844 80.5382 75.3382 80.498 75.4323C80.8329 75.4323 81.6766 75.4323 81.6766 75.4323L82.1453 74.9081L82.2927 75.0291L82.6275 74.7065C82.6275 74.7065 82.4668 74.2361 82.2123 74.2227C82.0114 74.3033 81.7168 74.3974 81.7168 74.3974Z" fill="#1C1E23"/>
<path d="M81.4492 73.7793L81.7171 74.411C81.8912 74.4647 82.0787 74.3976 82.1992 74.2631L82.226 74.2363L82.0653 73.7793L81.4492 73.7793Z" fill="#F8B68F"/>
<path d="M82.5326 58.1084L82.6666 59.3046C82.6666 59.3046 82.4925 59.6271 82.1309 59.6675C81.7693 59.7078 81.7425 59.439 81.7425 59.439L81.6621 58.6594L82.1844 58.4578L82.5326 58.1084Z" fill="#F4A086"/>
<path d="M81.622 58.888C81.5149 58.9015 81.4078 58.888 81.3408 58.8477C80.9658 58.3639 81.1801 56.9258 81.1801 56.9258L82.372 57.0064L82.506 57.9338C82.5461 58.1757 82.4658 58.4311 82.2783 58.6058C82.1042 58.7805 81.8765 58.8746 81.622 58.888Z" fill="#F8B68F"/>
<path d="M81.8371 57.1C81.8371 57.1 81.4487 57.221 81.0335 57.1807C80.6183 57.1538 80.8326 56.67 80.8326 56.67C80.8326 56.67 81.1541 56.7775 81.6764 56.6431C82.038 56.549 82.1183 56.4684 82.3728 56.5624C82.7076 56.6968 82.6942 57.2882 82.6942 57.2882L82.654 58.5247L82.5871 58.6053C82.5871 58.6053 82.4933 57.7989 82.4665 57.557C82.3862 57.4495 82.3058 57.4629 82.2523 57.4898C82.1987 57.5301 82.1719 57.5973 82.1719 57.6645L82.3058 58.9279C82.3058 58.9279 81.5424 59.358 81.3282 59.3177C81.1139 59.2773 81.1541 58.3231 81.1541 58.3231C81.1541 58.3231 81.3817 58.1887 81.5826 58.3769C81.7835 58.565 81.9844 58.3231 81.9844 58.3231L81.8371 57.1Z" fill="#1C1E23"/>
<path d="M82.36 57.4632C82.266 57.4632 82.1855 57.5571 82.1855 57.6779C82.1855 57.7986 82.2526 57.8925 82.3465 57.8791C82.4405 57.8791 82.521 57.7852 82.521 57.6644C82.521 57.5437 82.4405 57.4498 82.36 57.4632Z" fill="#F8B68F"/>
<path d="M81.1265 65.8096C81.1265 65.8096 79.2381 66.8713 78.2872 68.1616C78.0462 68.4842 78.0328 68.9277 78.2739 69.2637C79.6399 71.2394 81.4613 73.8736 81.4613 73.8736L82.1711 73.8736C82.1711 73.8736 81.2336 70.4599 80.0953 68.4438C79.9747 67.6912 81.1265 65.8096 81.1265 65.8096Z" fill="#1C1E23"/>
<path d="M77.3108 62.8789L76.7349 62.973L76.1992 63.5509C76.1992 63.5509 76.4671 63.6719 76.8555 63.2687C77.6322 63.2149 77.418 63.0805 77.418 63.0805L77.3108 62.8789Z" fill="#F4A086"/>
<path d="M83.6846 62.6243C83.6846 62.6243 82.5329 64.9226 81.823 65.057C81.1132 65.1914 78.0463 63.6861 78.0463 63.6861L77.9258 63.1888L81.1266 63.6457L81.89 62.0732L83.6846 62.6243Z" fill="#F8B68F"/>
<path d="M76.6947 74.6797C76.6947 74.6797 76.3599 74.9888 75.6099 75.177C75.4492 75.2173 75.2617 75.1635 75.2617 75.4323C75.6099 75.4323 76.1724 75.4323 76.1724 75.4323L76.9358 75.2979L76.9358 75.4323L77.351 75.4323C77.351 75.4323 77.4715 74.7603 77.2304 74.6797C77.0028 74.6797 76.6947 74.6797 76.6947 74.6797Z" fill="#1C1E23"/>
<path d="M76.7757 74.1963L76.6953 74.6793C76.8426 74.7866 77.0435 74.7866 77.1908 74.6927L77.2176 74.6793L77.3382 74.1963L76.7757 74.1963Z" fill="#F8B68F"/>
<path d="M76.7079 63.4305C76.7079 63.3768 76.7347 63.323 76.7882 63.3096L77.2704 63.1214C77.3909 63.0811 77.5248 63.0676 77.6454 63.1214L78.1141 63.2155L78.1677 63.2961L78.2078 63.7396C78.1141 63.6993 78.0605 63.6724 78.0605 63.6724L77.7525 63.6321C77.7525 63.6321 77.0963 64.0756 76.882 63.5649C76.7882 64.0622 76.6543 63.995 76.6543 63.995L76.7079 63.4305Z" fill="#F8B68F"/>
<path d="M85.1852 65.8096C85.1852 65.8096 85.7744 68.3094 80.3236 69.1696C79.9486 69.2234 79.6406 69.519 79.5468 69.8819C79.0781 71.7367 77.3504 74.3978 77.3504 74.3978L76.6406 74.3978L77.779 69.3309C77.8594 68.968 78.0469 68.632 78.3281 68.3901L81.1138 65.823L85.1852 65.823L85.1852 65.8096Z" fill="#3C3E3F"/>
<path d="M81.7832 75.6207L82.7073 68.9141L82.868 68.9409L81.9573 75.6207L81.7832 75.6207Z" fill="#EF6238"/>
<path d="M81.5293 68.9276L85.5471 68.9276C85.5471 68.9276 85.5471 68.6453 85.5471 68.1346C84.1409 67.4895 81.5293 68.5243 81.5293 68.5243L81.5293 68.9276Z" fill="#CD522D"/>
<path d="M85.548 68.8475L85.548 68.6728C85.5748 68.6728 86.1105 68.6594 86.1105 67.7723C86.1105 66.8046 85.5078 65.3531 85.5078 65.3397L85.6685 65.2725C85.6953 65.3397 86.2846 66.7778 86.2846 67.7723C86.2846 68.8341 85.5614 68.8475 85.548 68.8475Z" fill="#3C3E3F"/>
<path d="M84.6221 65.5274C85.6131 65.2989 85.7337 65.4199 85.7337 65.4199C85.7337 65.4199 85.4256 64.2506 85.7203 63.5517C84.5149 62.8528 84.2873 63.6861 84.2873 63.6861C84.2873 63.6861 84.073 64.3984 84.6221 65.5274Z" fill="#1C1E23"/>
<path d="M85.9495 75.6207L85.0254 68.9409L85.1995 68.9141L86.1102 75.6207L85.9495 75.6207Z" fill="#EF6238"/>
<path d="M69.9844 64.4783L78.6896 64.4783C78.6896 64.3038 78.5423 64.1562 78.3682 64.1562L70.2924 64.1562C70.1317 64.1562 69.9844 64.3038 69.9844 64.4783Z" fill="#1C1E23"/>
<path d="M77.8317 64.4658L78.7291 75.5942L78.5282 75.6211L77.6309 64.4658L77.8317 64.4658Z" fill="#1C1E23"/>
<path d="M71.149 64.4658L70.2517 75.5942L70.0508 75.5942L70.9481 64.4658L71.149 64.4658Z" fill="#1C1E23"/>
<path d="M75.7961 64.1484L77.6309 64.1484L77.6309 64.0009L75.7961 64.0009L75.7961 64.1484Z" fill="#93CFC7"/>
<path d="M71.136 60.0166L70.8945 60.272L71.1494 61.7907L71.4044 61.9385L71.136 60.0166Z" fill="#EF6238"/>
<path d="M72.4612 64.1162L73.7603 64.1162L73.7603 63.9145L72.4612 63.9145C72.113 63.9145 71.805 63.6457 71.7648 63.3097L70.8809 57.8262L70.6934 57.8531L71.5773 63.3366C71.6308 63.7801 72.0192 64.1162 72.4612 64.1162Z" fill="#EF6238"/>
<path d="M70.8809 57.8262L71.0148 57.9337L71.8451 62.9469L71.738 63.0813L70.8809 57.8262Z" fill="#1C1E23"/>
<path d="M80.6432 76.4006C80.4021 77.3011 81.0583 77.6909 81.0583 77.6909L79.4646 77.6909C79.4646 77.6909 79.0494 77.1533 79.4244 76.3872C79.8128 75.6076 80.8842 75.5136 80.6432 76.4006Z" fill="#3C3E3F"/>
<path d="M87.2869 78.0127L87.0723 78.0127L87.0723 88.9261L87.2869 88.9261L87.2869 78.0127Z" fill="#3C3E3F"/>
<path d="M84.0194 78.0127L83.8047 78.0127L83.8047 88.9261L84.0194 88.9261L84.0194 78.0127Z" fill="#3C3E3F"/>
<path d="M80.2418 77.6904L74.2285 77.6904L74.2285 78.0124L80.2418 78.0124L80.2418 77.6904Z" fill="#EF6238"/>
<path d="M86.8319 77.6904L77.3633 77.6904L77.3633 78.0124L86.8319 78.0124L86.8319 77.6904Z" fill="#EF6238"/>
<path d="M85.0491 87.1795L84.8884 87.5961C84.8482 87.7036 84.7678 87.8111 84.6741 87.8649C84.567 87.9321 84.3929 88.0396 84.125 88.1068C84.4464 88.3756 84.9419 88.0934 85.2366 87.8918C85.3705 87.7977 85.4777 87.6499 85.5178 87.4751L85.5848 87.166L85.0491 87.166L85.0491 87.1795Z" fill="#F8B68F"/>
<path d="M85.5584 87.3945C85.5584 87.3945 85.7727 87.5693 85.7325 87.7843C85.6924 87.9993 85.6388 88.5101 85.6388 88.5101L85.4245 88.5101L85.4379 88.0397C85.4379 88.0128 84.9691 88.5101 84.8888 88.5101L83.7236 88.5101C83.7236 88.5101 83.6433 88.1875 84.3263 88.0934C84.9959 87.9859 85.5584 87.3945 85.5584 87.3945Z" fill="#1C1E23"/>
<path d="M86.1216 79.8135C83.3091 78.8862 82.3047 79.8135 82.3047 79.8135L86.443 80.9022C86.443 80.9022 88.9341 80.7409 86.1216 79.8135Z" fill="#1C1E23"/>
<path d="M86.4439 77.5961C85.7609 77.6633 85.7207 76.6284 85.7207 76.6284L86.0019 75.2979C86.0019 75.2979 87.3814 77.502 86.4439 77.5961Z" fill="#EF6238"/>
<path d="M86.443 82.3808C86.443 82.3808 84.9564 82.6361 83.9118 82.0716C85.8002 83.4022 85.6261 87.273 85.6261 87.273L84.8895 87.273L82.3984 80.9023L83.9386 80.9023L86.443 82.3808Z" fill="#1C1E23"/>
<path d="M83.4163 87.6228L83.2556 88.0395C83.2154 88.147 83.135 88.2545 83.0413 88.3083C82.9341 88.3755 82.76 88.483 82.4922 88.5502C82.8136 88.819 83.3091 88.5367 83.6038 88.3351C83.7377 88.2411 83.8448 88.0932 83.885 87.9185L83.952 87.6094L83.4163 87.6094L83.4163 87.6228Z" fill="#F8B68F"/>
<path d="M83.9256 87.8379C83.9256 87.8379 84.1399 88.0126 84.0997 88.2277C84.0595 88.4427 84.006 88.9534 84.006 88.9534L83.7917 88.9534L83.8051 88.483C83.8051 88.4561 83.3363 88.9534 83.256 88.9534L82.0908 88.9534C82.0908 88.9534 82.0104 88.6309 82.6935 88.5368C83.3631 88.4293 83.9256 87.8379 83.9256 87.8379Z" fill="#1C1E23"/>
<path d="M85.5591 74.8145L84.0323 77.3143L81.4609 77.1127L81.0323 76.9514C80.6574 76.9514 80.4431 77.059 80.135 77.274L79.7734 77.5159L81.3806 77.5159C81.3806 77.5159 82.4921 78.0938 83.8314 78.4298C84.1662 78.5105 84.5144 78.4433 84.7957 78.2282C85.4787 77.6906 86.001 76.6557 86.001 76.6557L86.443 75.5671L85.5591 74.8145Z" fill="#F8B68F"/>
<path d="M87.2059 73.6045C87.2059 73.6045 85.5586 74.3706 85.5586 74.8141C86.1613 75.5399 86.0006 76.6688 86.0006 76.6688C86.0006 76.6688 87.1523 78.8461 86.697 80.2977C88.3175 81.2654 89.4023 79.6929 89.4023 79.6929C89.4023 79.6929 89.2014 75.6205 88.2237 73.9405C87.8086 73.6045 87.2059 73.6045 87.2059 73.6045Z" fill="#EF6238"/>
<path d="M85.6387 82.7L89.6565 82.7C89.6565 82.7 89.6565 82.4178 89.6565 81.907C88.2502 81.2619 85.6387 82.2968 85.6387 82.2968L85.6387 82.7Z" fill="#1C1E23"/>
<path d="M85.344 71.723L86.6833 71.5752L86.9779 72.4891C86.9779 72.5026 86.9779 72.516 86.9913 72.5294C86.9645 72.5429 86.9511 72.5563 86.9377 72.5698C86.9377 72.5698 86.9377 72.5698 86.9243 72.5832C86.9243 72.5832 86.9243 72.5832 86.9109 72.5966C86.6699 72.7848 86.5895 73.0939 86.6297 73.3896C86.4824 73.4971 86.3083 73.5778 86.1342 73.6181C86.0136 73.645 85.8931 73.6584 85.8127 73.6315C85.3172 73.2149 85.344 71.723 85.344 71.723Z" fill="#F8B68F"/>
<path d="M85.6794 72.6773C85.8669 72.8789 85.974 73.188 85.9339 73.524C85.8803 74.0885 85.8669 74.5992 86.0678 74.8277C86.2017 74.9755 86.4696 75.0427 86.6972 75.0696C86.9383 75.0965 87.1392 75.2846 87.2463 75.5669C87.3937 75.9701 87.5812 76.4808 87.8892 76.4136C88.7329 76.212 88.974 75.9701 88.7865 75.0696C88.7329 74.8411 88.6258 74.5454 88.4651 74.3304C88.2642 74.0616 88.1571 73.6987 88.1437 73.3224C88.1437 73.0805 88.1303 72.8251 88.0767 72.6907C88.0231 72.5294 87.8356 72.3816 87.6481 72.2606C87.4205 72.1128 87.2597 71.8574 87.1928 71.5617C87.1928 71.5617 87.1928 71.5617 87.1928 71.5483C87.0455 70.93 86.3089 70.6612 85.7999 71.0241C85.3714 71.3333 85.1973 71.844 85.1973 71.844C85.1973 71.844 85.3178 72.2741 85.6794 72.6773Z" fill="#1C1E23"/>
<path d="M89.4157 79.6934C89.4157 79.6934 90.0987 81.1046 88.6523 82.0723C87.2059 83.04 83.8711 81.7094 83.3086 81.6691C84.1925 83.4029 84.072 87.6365 84.072 87.6365L83.2684 87.6365C83.2684 87.6365 80.697 80.4998 82.264 79.6934C83.8309 78.887 87.1791 79.6531 87.1791 79.6531L89.4157 79.6934Z" fill="#24262C"/>
<path d="M89.5379 82.4618L89.5379 82.2736C89.5647 82.2736 90.1808 82.2467 90.1808 81.2387C90.1808 80.1366 89.4978 78.4701 89.4844 78.4566L89.6585 78.376C89.6853 78.4432 90.3683 80.0963 90.3683 81.2387C90.3817 82.4483 89.5513 82.4618 89.5379 82.4618Z" fill="#1C1E23"/>
<path d="M88.4664 78.6714C89.5914 78.4026 90.8235 78.6714 90.8235 78.6714C90.8235 78.6714 90.7833 77.3677 91.1181 76.5613C89.5378 75.4324 88.0914 76.5613 88.0914 76.5613C88.0914 76.5613 87.8503 77.3812 88.4664 78.6714Z" fill="#1C1E23"/>
<path d="M90.0053 88.9261L89.1348 82.542L88.9473 82.5689L89.8178 88.9261L90.0053 88.9261Z" fill="#3C3E3F"/>
<path d="M85.5996 88.9261L86.4701 82.5689L86.2826 82.542L85.4121 88.9261L85.5996 88.9261Z" fill="#3C3E3F"/>
<path d="M77.4705 78.0127L77.2559 78.0127L77.2559 88.9261L77.4705 88.9261L77.4705 78.0127Z" fill="#3C3E3F"/>
<path d="M74.4432 78.0127L74.2285 78.0127L74.2285 88.9261L74.4432 88.9261L74.4432 78.0127Z" fill="#3C3E3F"/>
<path d="M77.3496 76.5212L82.5728 76.5212C82.6263 76.5212 82.6665 76.4809 82.6665 76.4271L82.6665 72.6908C82.6665 72.637 82.6263 72.5967 82.5728 72.5967L77.3496 72.5967C77.296 72.5967 77.2559 72.637 77.2559 72.6908L77.2559 76.4271C77.2559 76.4809 77.296 76.5212 77.3496 76.5212Z" fill="#1C1E23"/>
<path d="M77.4554 76.427L82.4374 76.427C82.4776 76.427 82.5178 76.3867 82.5178 76.3464L82.5178 72.7847C82.5178 72.7444 82.4776 72.7041 82.4374 72.7041L77.4554 72.7041C77.4152 72.7041 77.375 72.7444 77.375 72.7847L77.375 76.3464C77.375 76.4001 77.4152 76.427 77.4554 76.427Z" fill="#3C3E3F"/>
<path d="M80.015 72.6501C80.015 72.6636 80.0015 72.6771 79.988 72.6771C79.9745 72.6771 79.9609 72.6636 79.9609 72.6501C79.9609 72.6366 79.9745 72.623 79.988 72.623C80.0015 72.623 80.015 72.6366 80.015 72.6501Z" fill="white"/>
<path d="M77.5898 76.2526L82.3041 76.2526L82.3041 72.8926L77.5898 72.8926L77.5898 76.2526Z" fill="url(#paint0_linear_494_6552)"/>
<path d="M77.5905 73.292L82.3047 73.292L82.3047 72.8895L77.5905 72.8895L77.5905 73.292Z" fill="#EF6238"/>
<path d="M80.1071 73.5374L80.1741 73.6181L79.3036 74.1288L79.1161 73.8734L78.0312 74.4648L78.0312 74.6126L79.0759 74.0213L79.2768 74.2766L80.241 73.7122L80.308 73.7928L80.4955 73.4434L80.1071 73.5374Z" fill="white"/>
<path d="M79.0098 75.3389L77.9785 75.3389L77.9785 75.3925L79.0098 75.3925L79.0098 75.3389Z" fill="#1C1E23"/>
<path d="M79.0098 75.46L77.9785 75.46L77.9785 75.5136L79.0098 75.5136L79.0098 75.46Z" fill="#1C1E23"/>
<path d="M79.0098 75.5674L77.9785 75.5674L77.9785 75.6211L79.0098 75.6211L79.0098 75.5674Z" fill="#1C1E23"/>
<path d="M79.0098 75.6885L77.9785 75.6885L77.9785 75.7422L79.0098 75.7422L79.0098 75.6885Z" fill="#1C1E23"/>
<path d="M79.0098 75.0293L77.9785 75.0293L77.9785 75.244L79.0098 75.244L79.0098 75.0293Z" fill="#1C1E23"/>
<path d="M82.0229 74.8682L79.8398 74.8682L79.8398 74.9889L82.0229 74.9889L82.0229 74.8682Z" fill="#1C1E23"/>
<path d="M82.0229 75.123L79.8398 75.123L79.8398 75.2438L82.0229 75.2438L82.0229 75.123Z" fill="#1C1E23"/>
<path d="M82.0229 75.3789L79.8398 75.3789L79.8398 75.4997L82.0229 75.4997L82.0229 75.3789Z" fill="#1C1E23"/>
<path d="M82.0229 75.6211L79.8398 75.6211L79.8398 75.7418L82.0229 75.7418L82.0229 75.6211Z" fill="#1C1E23"/>
<path d="M82.0229 74.2363L79.8398 74.2363L79.8398 74.6791L82.0229 74.6791L82.0229 74.2363Z" fill="#1C1E23"/>
<path d="M77.9798 73.0934C77.9798 73.1605 77.9261 73.2142 77.859 73.2142C77.7919 73.2142 77.7383 73.1605 77.7383 73.0934C77.7383 73.0263 77.7919 72.9727 77.859 72.9727C77.9261 72.9727 77.9798 73.0263 77.9798 73.0934Z" fill="#1C1E23"/>
<path d="M78.3548 73.0934C78.3548 73.1605 78.3011 73.2142 78.234 73.2142C78.167 73.2142 78.1133 73.1605 78.1133 73.0934C78.1133 73.0263 78.167 72.9727 78.234 72.9727C78.3011 72.9727 78.3548 73.0263 78.3548 73.0934Z" fill="white"/>
<path d="M80.6973 73.2168L82.1973 73.2168L82.1973 72.9753L80.6973 72.9753L80.6973 73.2168Z" fill="white"/>
<path d="M33.8775 60.7017L33.315 61.9651L32.4043 61.1318L33.0471 59.3174L33.8775 60.7017Z" fill="#F4A086"/>
<path d="M34.1986 60.7819C34.3459 60.8088 34.4933 60.7953 34.587 60.7416C35.1361 60.1099 34.9486 58.2686 34.9486 58.2686L34.3058 57.7041L33.3147 58.1611L33.0602 59.1825C32.9933 59.5185 33.087 60.1099 33.3147 60.3652C33.5558 60.5937 33.8638 60.7416 34.1986 60.7819Z" fill="#F8B68F"/>
<path d="M34.3449 67.4217C34.3449 67.4217 34.5725 67.7443 35.0145 67.9056C35.4564 68.0534 38.7912 67.3545 38.7912 67.3545L39.4609 67.4217C39.8091 67.5158 40.1841 67.5024 40.5189 67.368L41.4965 66.9917L35.7511 66.8707L33.5547 64.1289L34.3449 67.4217Z" fill="#F8B68F"/>
<path d="M32.4045 61.1318C32.4045 61.1318 31.0787 62.8387 30.7706 63.9543C30.4626 65.0698 30.3555 68.161 30.3555 68.161L33.1411 68.161C33.1411 68.161 33.9447 66.7095 34.5608 65.3789C34.7483 64.9757 34.7483 64.5187 34.5742 64.129C34.1188 63.0941 33.4358 61.6694 33.4358 61.6694L32.4045 61.1318Z" fill="#EF6238"/>
<path d="M33.8225 86.8291L34.0502 87.407C34.1038 87.5683 34.2109 87.7027 34.3582 87.7968C34.519 87.8909 34.76 88.0387 35.1216 88.1462C34.6797 88.5226 33.9699 88.1328 33.5681 87.8505C33.3672 87.7161 33.2333 87.5145 33.1797 87.2726L33.0859 86.8291L33.8225 86.8291Z" fill="#F8B68F"/>
<path d="M33.1128 87.125C33.1128 87.125 32.8182 87.3669 32.8717 87.6626C32.9253 87.9583 33.0057 88.6706 33.0057 88.6706L33.3137 88.6706L33.3003 88.012C33.3003 87.9717 33.9566 88.6706 34.0771 88.6706L35.711 88.6706C35.711 88.6706 35.8181 88.2271 34.8673 88.0792C33.903 87.9448 33.1128 87.125 33.1128 87.125Z" fill="#3C3E3F"/>
<path d="M30.6487 86.8291L30.8764 87.407C30.93 87.5683 31.0371 87.7027 31.1844 87.7968C31.3451 87.8909 31.5862 88.0387 31.9478 88.1462C31.5058 88.5226 30.796 88.1328 30.3942 87.8505C30.1934 87.7161 30.0594 87.5145 30.0059 87.2726L29.9121 86.8291L30.6487 86.8291Z" fill="#F8B68F"/>
<path d="M29.939 87.125C29.939 87.125 29.6443 87.3669 29.6979 87.6626C29.7515 87.9583 29.8318 88.6706 29.8318 88.6706L30.1399 88.6706L30.1265 88.012C30.1265 87.9717 30.7827 88.6706 30.9033 88.6706L32.5372 88.6706C32.5372 88.6706 32.6443 88.2271 31.6934 88.0792C30.7292 87.9448 29.939 87.125 29.939 87.125Z" fill="#3C3E3F"/>
<path d="M33.14 68.2278C33.14 68.2278 34.5195 70.311 33.3409 78.617C33.5284 81.762 33.8766 86.923 33.8766 86.923L33.0865 86.923C33.0865 86.923 30.9035 81.426 31.6401 78.6842C31.8142 75.9693 31.1445 68.1875 31.1445 68.1875L33.14 68.2278Z" fill="#1C1E24"/>
<path d="M30.3546 68.1738C30.3546 68.1738 28.9082 69.3431 28.9082 71.0769C28.9082 72.4343 29.5644 75.2568 29.9394 77.1115C30.0734 77.7835 29.9394 78.469 29.7519 79.1275C28.9886 81.8021 29.9127 86.9094 29.9127 86.9094L30.6894 86.9094C30.6894 86.9094 30.7296 84.2885 31.801 78.4152C33.0331 71.6683 33.1403 68.1738 33.1403 68.1738L30.3546 68.1738Z" fill="#25272D"/>
<path d="M41.6453 66.992L37.0918 66.992L37.0918 66.656L41.4444 66.656L43.3864 62.96L43.681 63.1212L41.6453 66.992Z" fill="#1C1E23"/>
<path d="M31.1445 64.2633C31.1445 64.2633 32.6043 67.6637 33.3008 67.6637C33.9972 67.6637 37.881 65.9971 37.881 65.9971L37.7739 65.4192L33.8231 66.0912C33.8231 66.0912 33.4749 65.1504 33.2338 64.0752C33.14 63.6451 32.8052 63.2956 32.3767 63.215C31.4258 63.0537 31.1445 64.2633 31.1445 64.2633Z" fill="#F8B68F"/>
<path d="M33.0731 58.8603C33.0731 58.8603 33.5016 59.1157 34.8275 58.2689C35.0284 58.3227 34.707 56.4142 32.9927 56.9652C31.8008 57.355 31.8543 58.5243 31.9079 59.1694C31.9615 59.8683 31.6133 60.3253 31.1311 60.836C30.7294 61.2661 30.7428 62.0456 30.4749 62.4622C30.1535 62.9864 29.8053 62.9461 29.5374 63.4837C29.2696 64.0347 29.2294 64.7067 29.591 65.204C29.7919 65.4863 30.274 66.1583 31.0374 65.9164C31.466 65.782 31.5865 65.0293 31.5999 64.3976C31.6133 63.8331 31.8945 63.309 32.3231 62.9595C32.7383 62.637 33.1802 62.18 33.3008 61.7096C33.5552 60.7957 33.0731 58.8603 33.0731 58.8603Z" fill="#1C1E23"/>
<path d="M32.926 58.9005C33.0333 58.8334 33.1943 58.8736 33.2883 58.9944C33.3822 59.1152 33.3822 59.2762 33.2748 59.3432C33.1675 59.4103 33.0065 59.3701 32.9126 59.2493C32.8187 59.1286 32.8187 58.9676 32.926 58.9005Z" fill="#F8B68F"/>
<path d="M39.9433 65.7152C39.9567 65.6345 39.9031 65.5539 39.8362 65.5136L39.0862 65.191C38.8987 65.1104 38.6978 65.0969 38.5103 65.1641L37.7737 65.406L37.68 65.406L37.5996 66.0915C37.7469 66.0377 37.8273 65.9974 37.8273 65.9974L38.296 65.8227C38.296 65.8227 39.3139 66.6828 39.6755 65.9033C39.7826 66.6828 40.0103 66.6022 40.0103 66.6022L39.9433 65.7152Z" fill="#F8B68F"/>
<path d="M32.4175 58.1879C32.5648 58.7255 33.3148 58.9809 34.1049 58.7524C34.8817 58.5374 35.3103 57.946 35.2567 57.395C35.1898 56.6692 34.3594 56.602 33.5692 56.8305C32.7925 57.059 32.2701 57.6638 32.4175 58.1879Z" fill="#1C1E23"/>
</g>
<defs>
<linearGradient id="paint0_linear_494_6552" x1="79.9471" y1="72.7178" x2="79.9471" y2="76.6513" gradientUnits="userSpaceOnUse">
<stop stop-color="#C0E4EF"/>
<stop offset="0.1531" stop-color="#CAE7EE"/>
<stop offset="0.5105" stop-color="#DAEEEB"/>
<stop offset="0.7647" stop-color="#E0F0EB"/>
</linearGradient>
<clipPath id="clip0_494_6552">
<rect width="84.5614" height="58.8543" fill="white" transform="translate(18.8105 30.085)"/>
</clipPath>
</defs>
</svg>
