<svg width="122" height="146" viewBox="0 0 122 146" fill="none" xmlns="http://www.w3.org/2000/svg">
<path d="M122 61.1873C122 27.375 94.6757 3.8065e-07 61 2.45255e-07C27.3243 1.09859e-07 -1.10063e-07 27.375 -2.46008e-07 61.1873C-3.6154e-07 89.9227 19.7489 114.013 46.3454 120.583L52.1676 130.736L61 146L69.7993 130.703L75.6215 120.55C102.251 113.98 122 89.8895 122 61.1873Z" fill="#EF6238"/>
<path d="M61 115C90.8234 115 115 90.8234 115 61C115 31.1766 90.8234 7 61 7C31.1766 7 7 31.1766 7 61C7 90.8234 31.1766 115 61 115Z" fill="white"/>
<g clip-path="url(#clip0_494_6555)">
<path d="M88.0825 87.0784C86.6646 88.5937 85.3137 89.5727 84.2566 90.3474C71.7718 99.4395 56.9965 96.7834 53.8585 96.1364C49.2187 95.1829 40.2579 93.3355 33.7806 85.6056C23.9723 73.9085 25.4993 55.4774 33.1009 43.3206C34.4937 41.0902 41.8436 28.7375 56.7784 26.7625C65.8147 25.5621 76.3445 27.9799 83.9713 34.4669C99.9884 48.0795 98.8473 75.577 88.0825 87.0784Z" fill="#EEF5F9"/>
<path d="M81.1599 25.9492L83.2265 31.545L88.4421 33.9686L83.9535 37.818L83.1867 43.4874L78.3078 40.4578L72.6573 41.3489L74.0951 35.8173L71.4043 30.509L77.1342 30.3094L81.1599 25.9492Z" fill="#FFD147"/>
<path d="M88.443 33.9687L83.2274 31.545L81.1936 26.0752L78.3672 40.5054L83.1877 43.4874L83.9545 37.818L88.443 33.9687Z" fill="#F6A505"/>
<path d="M80.3738 43.2933L78.541 48.0764L79.9507 48.2166L80.9489 43.2529L80.3738 43.2933Z" fill="#F39F85"/>
<path d="M81.4989 42.3734C81.4896 42.5563 81.4124 42.7298 81.2838 42.8605L80.8864 43.4284L80.7462 43.445L80.3184 43.4403C80.4212 43.3428 80.3394 43.4593 80.3394 43.4593L80.5591 42.4352C80.5591 42.4352 80.3675 41.7104 81.3423 41.8031C81.4358 41.8126 81.5223 41.8744 81.5433 41.9671C81.6018 42.1952 81.4989 42.3734 81.4989 42.3734Z" fill="#F39F85"/>
<path d="M77.8652 52.1276C78.0756 49.9345 78.5409 48.0764 78.5409 48.0764L80.0137 47.9053L79.9622 49.7777L77.8652 52.1276Z" fill="#EF6238"/>
<path d="M73.2445 72.5325L72.6717 72.4232C72.8096 71.7033 72.3187 67.8492 72.7956 66.1265C73.3263 64.2137 73.6606 61.9873 73.6606 61.9873L75.6617 62.1275C75.6617 62.1275 76.1176 62.301 74.2263 65.8913C74.8014 67.8207 73.8499 71.3445 73.2445 72.5325Z" fill="#F39F85"/>
<path d="M76.0796 60.7168C76.0796 60.7168 74.705 63.1428 73.1013 65.6853C73.1013 67.5885 70.4526 71.8941 70.4409 71.8727C70.3941 71.7777 69.9219 72.0604 69.9219 72.0604C69.9219 72.0604 70.7518 67.686 71.2825 65.7732C71.8131 63.8604 72.608 61.5841 72.608 61.5841L76.0796 60.7168Z" fill="#F7B58E"/>
<path d="M70.6102 71.6396C70.6102 71.6396 70.7855 71.958 70.6359 72.2218C70.4863 72.4855 70.1754 73.12 70.1754 73.12L69.9112 73.0202L70.145 72.4071C70.159 72.3667 69.3525 72.8087 69.2589 72.7707L67.8633 72.2408C67.8633 72.2408 67.9241 71.7917 68.7914 71.9676C69.6587 72.1481 70.6102 71.6396 70.6102 71.6396Z" fill="#201F1F"/>
<path d="M72.7827 71.932L72.605 72.5331C72.5676 72.6591 72.4881 72.7684 72.3829 72.8444C72.266 72.9276 72.079 73.0321 71.8008 73.1272C72.1561 73.4123 72.6938 73.0915 73.0001 72.8587C73.1497 72.7446 73.2502 72.5807 73.2899 72.3953L73.3928 71.9082L72.7827 71.932Z" fill="#F39F85"/>
<path d="M73.2644 72.4805C73.2644 72.4805 73.6081 72.6468 73.566 72.9462C73.5239 73.2432 73.4865 73.8634 73.4865 73.8634L73.234 73.9465L73.1639 73.2907C73.1639 73.2907 72.2802 73.8729 72.1703 73.8776L70.6484 73.3002C70.6484 73.3002 70.8378 72.787 71.7986 73.1268C72.6846 73.438 73.2644 72.4805 73.2644 72.4805Z" fill="#201F1F"/>
<path d="M75.5918 42.1849L75.6339 47.3174L76.9945 46.9158L76.1131 41.9307L75.5918 42.1849Z" fill="#F7B58E"/>
<path d="M76.302 40.9069C76.3604 41.0803 76.351 41.2704 76.2809 41.4391L76.1173 42.1163L75.9934 42.1828L75.596 42.3396C75.6567 42.209 75.6217 42.3492 75.6217 42.3492L75.4534 41.3155C75.4534 41.3155 75.0115 40.7168 75.9513 40.434C76.0401 40.4079 76.143 40.4316 76.1991 40.51C76.3323 40.7049 76.302 40.9069 76.302 40.9069Z" fill="#F7B58E"/>
<path d="M78.2305 49.5585L79.3199 49.9719L79.3643 48.5059L78.3146 48.715L78.2305 49.5585Z" fill="#F39F85"/>
<path d="M76.2702 50.4087C76.2866 50.3778 76.3053 50.354 76.3217 50.3255C75.7629 48.5006 75.632 47.3173 75.632 47.3173L76.9388 46.6045L77.8646 49.2491L78.4748 49.4844C78.4748 49.4844 79.5034 49.2444 79.9476 50.2732C80.1089 50.6487 80.0107 51.466 79.5432 52.1908C78.255 54.1891 78.2106 55.4888 78.2106 55.4888L75.0078 55.4864C75.0078 55.4864 75.6414 53.5642 76.0879 52.2145C76.0879 52.2121 76.0879 52.2121 76.0902 52.2098C76.1767 51.946 76.1837 51.6656 76.13 51.3948C76.0692 51.0811 76.0832 50.7342 76.2702 50.4087Z" fill="#EF6238"/>
<path d="M79.1865 45.7734L80.7388 47.0874L80.0632 48.3753C80.0538 48.3943 80.0421 48.4109 80.0305 48.4276C79.9931 48.4204 79.958 48.4133 79.9206 48.4109C79.9136 48.4109 79.9089 48.4109 79.9019 48.4086C79.8949 48.4086 79.8902 48.4062 79.8855 48.4062C79.4343 48.3515 79.0159 48.5868 78.7377 48.9384C78.4688 48.8862 78.2046 48.7864 77.9685 48.6343C77.8072 48.5321 77.6693 48.4157 77.6272 48.3016C77.5571 47.3227 79.1865 45.7734 79.1865 45.7734Z" fill="#F7B58E"/>
<path d="M78.804 46.9417C79.1967 47.3623 78.1587 49.8406 77.6094 51.587C77.3148 52.528 77.7192 53.5402 78.5632 54.0273C79.1616 54.3719 79.8536 54.657 80.3656 54.5738C80.1715 54.2364 79.4959 51.4183 81.0716 48.624C81.2797 48.2557 81.6888 47.1675 81.2563 46.3311C80.777 45.3996 78.9746 45.6919 78.9746 45.6919C78.9746 45.6919 78.2639 46.362 78.804 46.9417Z" fill="#201F1F"/>
<path d="M75.366 54.335C75.366 54.335 74.2813 56.1289 73.8558 57.2813C73.6244 57.9134 72.3105 61.9575 72.3105 61.9575C72.3105 61.9575 74.9102 63.1694 75.4268 63.3642C76.757 60.1469 77.5261 60.3251 78.0849 58.7997C78.328 58.1367 78.2696 57.2623 78.1877 56.6873C78.1293 56.2739 78.1012 55.9911 78.2064 55.4874L78.2111 55.4185L75.366 54.335Z" fill="#201F1F"/>
<path d="M78.0353 68.8398C78.0353 68.8398 77.6729 68.8779 77.563 69.1535C77.4531 69.4291 77.1562 70.0469 77.1562 70.0469L77.4064 70.2061L77.7337 69.662C77.7571 69.6263 77.9698 70.477 78.1638 70.938L79.3444 71.4512C79.3444 71.4512 79.6577 71.1447 78.9563 70.5293C78.255 69.9162 78.0353 68.8398 78.0353 68.8398Z" fill="#EF6238"/>
<path d="M80.9247 64.4109C81.0111 64.2089 81.1701 63.8858 81.2893 63.7028C81.7055 63.0565 82.2058 62.6359 82.4886 62.4316C82.8229 62.4411 83.1572 62.4197 83.5032 62.4221C83.8656 62.4244 84.2326 62.4838 84.6768 62.5527C84.6464 62.5884 84.6137 62.6217 84.5833 62.6573C80.9808 66.6112 79.162 68.3315 78.809 68.7711C78.7552 68.8376 78.7038 68.9065 78.6804 68.9897C78.6079 69.2415 78.5144 69.807 79.0147 70.5864C78.1988 70.47 78.0352 68.8423 78.0352 68.8423C78.0352 68.8423 80.2467 66.0053 80.9247 64.4109Z" fill="#F39F85"/>
<path d="M92.0418 46.9992L91.4573 48.2371L90.3398 47.4791L91.1721 45.8135L92.0418 46.9992Z" fill="#F39F85"/>
<path d="M92.316 47.1293C92.496 47.1982 92.6737 47.2362 92.7906 47.1935C93.6369 46.5733 93.9455 44.0879 93.9455 44.0879L91.9443 43.6602L91.2851 45.1405C91.1097 45.5349 91.1284 45.9911 91.3388 46.3689C91.5866 46.7087 91.9233 46.9796 92.316 47.1293Z" fill="#F7B58E"/>
<path d="M81.496 70.7793C81.496 70.7793 81.1571 70.8791 81.101 71.1595C81.0449 71.4399 80.8672 72.079 80.8672 72.079L81.1314 72.1883L81.3511 71.6133C81.3675 71.5753 81.6901 72.4164 81.7859 72.4568L83.1816 73.0319C83.1816 73.0319 83.427 72.6849 82.6579 72.224C81.8865 71.763 81.496 70.7793 81.496 70.7793Z" fill="#EF6238"/>
<path d="M82.7094 65.6662C82.7211 65.4452 82.7608 65.0888 82.8076 64.8726C82.9782 64.1193 83.3616 63.1261 83.558 62.8339C83.876 62.7246 84.1214 63.0097 84.4464 62.8909C84.7877 62.7673 85.1524 62.6913 85.5919 62.5986C85.5755 62.6414 85.5568 62.6865 85.5405 62.7293C83.5113 67.7073 82.3915 69.9622 82.2115 70.4992C82.1834 70.58 82.0057 71.7087 82.7421 72.2647C81.9356 72.4429 81.4961 70.7796 81.4961 70.7796C81.4961 70.7796 82.6182 67.3984 82.7094 65.6662Z" fill="#F7B58E"/>
<path d="M91.5543 48.0253L91.9517 50.4537C91.9727 50.822 91.8722 51.1879 91.6642 51.4897L89.5976 54.5026C89.4783 54.6785 89.3755 54.8638 89.2936 55.061L85.6467 63.6934L81.9062 62.1537C81.9062 62.1537 83.0658 60.6306 84.1856 58.5111C85.3077 56.3916 84.9968 55.1394 85.5766 54.2484C85.9179 53.7233 86.5421 53.1364 87.2528 52.7324C87.6268 52.5209 87.912 52.1812 88.0827 51.782C88.7793 50.152 88.8939 44.9079 90.0721 46.6804C91.248 48.453 91.5543 48.0253 91.5543 48.0253Z" fill="#EF6238"/>
<path d="M89.6576 52.9746L89.6179 53.331C89.5969 53.5282 89.6319 53.6209 89.6787 53.9179C89.8119 54.7876 90.5203 57.071 90.5203 57.071L91.3853 58.1807C91.3853 58.1807 91.2964 58.3351 91.0603 58.1831C90.8242 58.031 90.6956 57.8148 90.6956 57.8148C90.6956 57.8148 90.5741 57.9835 90.6559 58.4563C90.7167 58.8104 91.0814 59.5184 90.6652 59.4472C90.38 59.1502 90.0644 58.6939 90.0644 58.6939C89.9101 58.4991 89.8517 58.2448 89.9031 58.0025L90.0434 57.3562L88.449 54.3932C88.2713 54.0652 88.1895 53.6898 88.2129 53.3168L88.2152 53.2883L89.6576 52.9746Z" fill="#F7B58E"/>
<path d="M96.9294 53.6693C96.9855 53.6954 97.1819 53.7715 97.5933 53.7025C97.965 53.6408 98.6921 53.2653 98.643 53.693C98.3484 53.9877 98.0352 54.3726 98.0352 54.3726C97.8388 54.5318 97.4203 54.5294 97.1585 54.4748L96.3683 54.2039C96.3683 54.2039 96.2047 53.8071 96.1953 53.7881L96.3332 53.6788C96.5343 53.7097 96.7354 53.7049 96.9294 53.6693Z" fill="#F7B58E"/>
<path d="M88.1445 53.3667L89.7108 53.0293L90.5688 49.5055L90.4472 49.4746L89.608 52.9224L88.2871 53.2051L88.577 50.2373L88.4531 50.2255L88.1445 53.3667Z" fill="#EF6238"/>
<path d="M92.2769 44.44C92.5528 44.7917 92.9034 44.9841 93.1886 45.091C93.5627 45.2289 94.1471 45.1124 94.437 44.8368C94.6825 44.6039 94.8298 44.3188 94.5282 43.8056C94.3201 43.4587 93.8947 43.4468 93.6749 43.5276C93.5136 43.587 93.3359 43.5228 93.2564 43.3684C93.1068 43.0761 92.7912 42.6531 92.174 42.3989C91.5241 42.1328 91.288 42.7791 91.2015 43.2828C91.1501 43.5822 90.9233 43.8222 90.6264 43.8745C90.1449 43.9576 89.4973 44.1525 89.4412 44.5873C89.3968 44.939 89.4646 45.3073 89.544 45.5877C89.6235 45.8609 89.5066 46.1555 89.2659 46.3029C88.8988 46.5262 88.4336 46.8755 88.3822 47.2486C88.3331 47.6002 88.4032 48.1063 88.4757 48.4794C88.5248 48.7431 88.4172 49.0116 88.2022 49.1685C88.0338 49.292 87.8632 49.4797 87.8164 49.7554C87.7814 49.9621 87.8024 50.1759 87.8468 50.3708C87.9216 50.7011 88.3167 50.827 88.5645 50.6036C89.336 49.9074 90.7924 48.4295 91.073 46.9611C91.2156 46.2245 91.5171 44.9485 91.5171 44.9485C91.5171 44.9485 91.7229 43.8721 92.2769 44.44Z" fill="#201F1F"/>
<path d="M90.3105 52.2078L91.4397 53.5479C91.58 53.7142 91.7787 53.8211 91.9937 53.8425L96.4238 54.1989L96.6249 53.6952L92.6086 52.5927L91.6688 51.4521L90.3105 52.2078Z" fill="#F7B58E"/>
<path d="M91.4123 44.4967C91.5549 44.4373 91.7419 44.5371 91.8261 44.7176C91.9102 44.8982 91.8635 45.0931 91.7209 45.1525C91.5782 45.2119 91.3912 45.1121 91.3071 44.9315C91.2206 44.7509 91.2673 44.5561 91.4123 44.4967Z" fill="#F7B58E"/>
<path d="M90.0713 51.9412L91.4553 49.6221L92.3623 52.3023L91.2823 53.652L90.0059 52.136C90.1298 51.9673 90.0059 52.136 90.0713 51.9412Z" fill="#EF6238"/>
<path d="M90.2451 53.5576C90.2124 53.5054 90.2124 53.5054 90.1797 53.4555L91.601 51.4476C91.7974 51.1601 91.8956 50.8108 91.8769 50.4687L91.4865 48.0664C91.5356 48.0545 91.5216 48.0545 91.5543 48.026C91.5613 48.0189 91.6104 48.0379 91.6221 48.0403L92.0242 50.4497C92.0452 50.8322 91.94 51.2171 91.7226 51.5332" fill="#DD5830"/>
<path d="M97.0967 53.8089C97.0967 53.8089 97.113 53.8256 97.1481 53.8446C97.106 53.8778 97.064 53.9135 97.0265 53.9515C96.8372 54.0062 96.6525 54.0679 96.4632 54.1273C96.4444 54.0062 96.4187 53.8351 96.4141 53.8232L97.5666 53.1816C97.5666 53.1816 97.7022 53.2957 97.5151 53.5072C97.3281 53.7163 97.0967 53.8089 97.0967 53.8089Z" fill="#F7B58E"/>
<path d="M100.728 51.875L100.527 57.6965L104.326 61.8571L98.8715 63.6107L96.0966 68.4176L92.8237 63.8388L87.4141 62.4915L90.7431 58.0624L90.2755 52.2671L95.5028 54.2654L100.728 51.875Z" fill="#FFD147"/>
<path d="M104.326 61.8571L100.527 57.6965L100.712 52.001L92.8594 63.903L96.0972 68.4176L98.8722 63.6107L104.326 61.8571Z" fill="#F6A505"/>
<path d="M61.0574 69.627C61.0574 69.627 61.3263 69.943 62.4835 70.1354C62.7383 70.1782 63.0095 70.1972 63.0469 70.6154C62.5186 70.6629 61.9294 70.7152 61.9294 70.7152L60.7699 70.6154L60.7863 70.815L60.1691 70.8697C60.1691 70.8697 59.9096 69.8598 60.2579 69.6959C60.5922 69.6673 61.0574 69.627 61.0574 69.627Z" fill="#201F1F"/>
<path d="M61.0529 68.8857L61.0576 69.6271C60.8472 69.8053 60.5526 69.841 60.3048 69.7198L60.2604 69.6984L60.1973 68.9618L61.0529 68.8857Z" fill="#F7B58E"/>
<path d="M65.0828 69.2705C65.0828 69.2705 65.3517 69.5865 66.5089 69.779C66.7637 69.8218 67.0349 69.8408 67.0723 70.259C66.5439 70.3065 65.9548 70.3588 65.9548 70.3588L64.7953 70.259L64.8116 70.4586L64.1945 70.5132C64.1945 70.5132 63.935 69.5034 64.2833 69.3394C64.6176 69.3109 65.0828 69.2705 65.0828 69.2705Z" fill="#201F1F"/>
<path d="M65.0783 68.5293L65.083 69.2707C64.8726 69.4489 64.578 69.4845 64.3302 69.3633L64.2858 69.3419L64.2227 68.6053L65.0783 68.5293Z" fill="#F7B58E"/>
<path d="M64.6984 52.0342C65.8907 59.3099 65.2151 68.7169 65.2151 68.7169L64.0696 68.8191C64.0696 68.8191 62.3115 52.4643 60.4062 52.267C63.27 52.0104 63.4688 52.1435 64.6984 52.0342Z" fill="#201F1F"/>
<path d="M63.252 52.1621C64.2058 58.1143 61.2485 69.0682 61.2485 69.0682L60.124 69.168C60.124 69.168 60.3648 63.4914 59.8879 57.6581C59.785 56.3964 59.8084 53.785 59.584 52.6373C60.7669 52.5352 62.1789 52.2572 63.252 52.1621Z" fill="#201F1F"/>
<path d="M66.3981 36.3449L66.8095 35.5513C66.8446 35.4824 66.8423 35.3969 66.8025 35.3303L66.7067 35.1711C66.6763 35.1213 66.6272 35.0832 66.5711 35.069L65.7271 34.8575C65.6266 34.8314 65.5237 34.8813 65.477 34.9739L65.4279 35.0714C65.4022 35.1236 65.3975 35.183 65.4138 35.2401L65.7295 36.3069L66.3981 36.3449Z" fill="#F7B58E"/>
<path d="M65.7273 36.3074L65.3206 35.6302C65.2481 35.5114 65.3066 35.3569 65.4351 35.3118L65.7577 35.2048C65.8442 35.1763 66.2043 35.5114 66.2043 35.5114C66.2043 35.5114 66.0429 35.8369 65.7437 35.4971C65.7133 35.5518 65.6011 35.5922 65.6011 35.5922C65.6011 35.5922 66.1177 35.7609 66.2113 36.3383L65.7273 36.3074Z" fill="#F39F85"/>
<path d="M66.5341 36.3041C66.5341 36.3041 66.6907 40.947 66.464 42.7505C66.2372 44.554 64.4862 47.5693 64.4862 47.5693L62.1602 45.2169C62.1602 45.2169 63.9883 43.1354 64.6288 41.4603C65.2694 39.7851 65.5943 36.1758 65.5943 36.1758L66.5341 36.3041Z" fill="#EF6238"/>
<path d="M56.2129 36.3545L55.7524 35.5894C55.7126 35.5229 55.7103 35.4373 55.7454 35.3684L55.8319 35.2021C55.8599 35.1498 55.9067 35.1094 55.9628 35.0928L56.7927 34.8267C56.8909 34.7958 56.9984 34.8362 57.0498 34.9265L57.1059 35.0215C57.1363 35.0714 57.1433 35.1308 57.1317 35.1878L56.8839 36.2714L56.2129 36.3545Z" fill="#F7B58E"/>
<path d="M56.8819 36.2737L57.2442 35.5728C57.3073 35.4492 57.2419 35.2971 57.1086 35.2639L56.7813 35.1759C56.6948 35.1522 56.3535 35.5086 56.3535 35.5086C56.3535 35.5086 56.5335 35.8246 56.8117 35.4635C56.8468 35.5157 56.9613 35.549 56.9613 35.549C56.9613 35.549 56.4564 35.7486 56.3979 36.3331L56.8819 36.2737Z" fill="#F7B58E"/>
<path d="M63.0678 44.2029C64.9381 45.2365 64.7464 52.4718 64.7464 52.4718L59.4887 52.8805L59.5705 46.9687C59.5705 46.9687 57.8382 44.1768 57.179 41.9931C56.5197 39.8095 55.9844 36.3213 55.9844 36.3213L56.9779 36.2334C56.9779 36.2334 58.4835 40.71 59.2853 41.8054C60.0872 42.9032 61.4361 44.317 61.4361 44.317L63.0678 44.2029Z" fill="#EF6238"/>
<path d="M64.7038 52.0872L64.823 52.0777C64.8254 50.5689 64.7272 46.3893 63.6612 44.7236C63.6448 44.7688 63.6261 44.8139 63.6074 44.8591C64.6009 46.5247 64.7015 50.6259 64.7038 52.0872Z" fill="#DF5930"/>
<path d="M61.873 44.1984L62.0203 43.1553L63.1869 43.1838L63.3762 44.3909C63.3692 44.4004 63.3622 44.4099 63.3552 44.417C62.8923 44.2317 62.3757 44.1532 61.873 44.1984Z" fill="#F39F85"/>
<path d="M61.2148 41.211L61.6567 42.7935C61.811 42.7508 61.9419 42.9005 61.9466 43.0573C61.9723 43.0906 61.9887 43.1286 62.0003 43.169C62.3159 43.3044 62.87 43.447 63.4778 43.1737C64.4317 42.7484 63.3867 40.9307 63.3867 40.9307L61.2148 41.211Z" fill="#F7B58E"/>
<path d="M60.9861 42.5326C60.951 42.4162 60.7383 42.2047 60.6331 42.1477C59.9575 41.7841 60.3806 41.3042 60.5326 41.145C60.7009 40.9691 60.5793 40.6127 60.7897 40.349C61.11 39.945 61.5612 40.1803 61.802 40.0757C62.0428 39.9712 62.1222 39.5957 62.5267 39.6884C62.9311 39.7834 62.9568 40.0828 63.1018 40.1779C63.2467 40.2729 63.3846 39.8832 63.8265 40.1898C64.4998 40.6531 63.4969 41.1521 63.4969 41.1521C63.4969 41.1521 62.9709 41.5323 62.1339 41.404C62.0194 41.3873 61.9002 41.4396 61.8534 41.5465C61.7272 41.8436 62.0264 43.1813 62.0264 43.1813L61.7201 43.0245C61.7225 43.0245 61.1404 43.0625 60.9861 42.5326Z" fill="#201F1F"/>
<path d="M61.6117 42.5227C61.6912 42.6367 61.8455 42.6629 61.9577 42.5845C62.07 42.5037 62.0957 42.3468 62.0185 42.2328C61.939 42.1187 61.7847 42.0926 61.6725 42.171C61.5603 42.2518 61.5322 42.4086 61.6117 42.5227Z" fill="#F7B58E"/>
<path d="M63.319 43.9579L63.3891 44.5115L61.5703 44.3071L61.8929 43.668L63.319 43.9579Z" fill="#EF6238"/>
<path d="M61.6088 19.4385L64.5964 24.4069L70.0224 25.7518L66.4222 30.2712L66.7145 35.8361L61.5012 33.8497L56.2552 35.7553L56.6316 30.1952L53.1016 25.6211L58.5463 24.3594L61.6088 19.4385Z" fill="#FFD147"/>
<path d="M70.0226 25.752L64.5966 24.4072L61.6626 19.5527L61.5645 33.8831L66.7146 35.8363L66.4224 30.2714L70.0226 25.752Z" fill="#F6A505"/>
<path d="M50.5969 42.0023L47.6606 41.299C47.0341 41.1493 46.279 40.8356 45.9237 40.2891L44.0254 37.3594L43.5625 37.5257C43.5625 37.5257 44.376 40.8428 45.6572 42.019C46.9359 43.1951 49.1334 43.5801 49.1334 43.5801L50.5969 42.0023Z" fill="#F7B58E"/>
<path d="M53.1421 41.9239C53.1421 41.9239 52.0574 40.4911 50.9306 40.3984C50.0048 40.5576 49.8108 40.7311 49.8108 40.7311C49.8108 40.7311 48.871 42.4276 48.6185 43.466C48.5227 43.8533 48.5905 44.2668 48.8125 44.597C49.8061 46.0679 50.2222 49.1568 50.2222 49.1568L53.8622 48.5343C53.8622 48.5343 52.4642 44.0434 52.4361 43.1143C52.4057 42.1877 53.1421 41.9239 53.1421 41.9239Z" fill="#EF6238"/>
<path d="M50.2485 65.7734L50.127 66.3793C50.0989 66.5432 50.0194 66.6953 49.8979 66.807C49.7623 66.9305 49.5472 67.0945 49.2129 67.2584C49.7062 67.5578 50.328 67.066 50.674 66.7238C50.8423 66.5575 50.9452 66.3341 50.9639 66.0942L50.9826 65.6475L50.2485 65.7734Z" fill="#F7B58E"/>
<path d="M50.9845 65.9512C50.9845 65.9512 51.3141 66.1341 51.3094 66.4406C51.3047 66.7472 51.3445 67.4528 51.3445 67.4528L51.0452 67.5051L50.9471 66.8565C50.94 66.8137 50.4117 67.6144 50.3042 67.6334L48.7192 67.9043C48.7192 67.9043 48.5415 67.4861 49.4485 67.1867C50.3556 66.8826 50.9845 65.9512 50.9845 65.9512Z" fill="#201F1F"/>
<path d="M50.2202 49.1591L50.1641 65.8229L51.0524 65.6898C51.0524 65.6898 52.4317 61.9546 52.2494 59.0818C52.219 58.6066 52.1629 58.129 52.4036 57.7203C54.2388 54.6076 52.8782 50.4209 52.8782 50.4209L51.3657 48.9619L50.2202 49.1591Z" fill="#201F1F"/>
<path d="M57.1157 64.5996L56.9941 65.2055C56.9661 65.3695 56.8866 65.5215 56.765 65.6332C56.6295 65.7568 56.4144 65.9207 56.0801 66.0847C56.5733 66.3841 57.1952 65.8922 57.5412 65.5501C57.7095 65.3837 57.8124 65.1604 57.8311 64.9204L57.8498 64.4736L57.1157 64.5996Z" fill="#F7B58E"/>
<path d="M57.8517 64.7773C57.8517 64.7773 58.1813 64.9603 58.1766 65.2668C58.1719 65.5733 58.2117 66.2791 58.2117 66.2791L57.9124 66.3313L57.8142 65.6826C57.8072 65.6399 57.2789 66.4406 57.1714 66.4596L55.5863 66.7305C55.5863 66.7305 55.4087 66.3123 56.3157 66.0129C57.2228 65.7088 57.8517 64.7773 57.8517 64.7773Z" fill="#201F1F"/>
<path d="M49.543 39.9724L49.8399 41.7759L50.7072 40.4144L50.3168 38.7559L49.543 39.9724Z" fill="#F39F85"/>
<path d="M48.9314 37.3685C49.6865 37.3448 50.2101 38.243 50.2101 38.243L50.673 41.0872L51.7648 39.7447C51.7648 39.7447 51.6455 38.4449 51.0985 37.1024C50.68 36.2684 49.5369 36.2256 48.8332 36.7888C48.4919 37.062 48.3352 37.5111 48.2698 37.9388C48.181 38.5162 48.2628 39.1055 48.4755 39.6496L49.2587 41.6598L49.7145 41.0159C49.7145 41.0159 49.766 40.4599 49.5439 39.9704C49.0904 38.9724 48.4241 37.3852 48.9314 37.3685Z" fill="#201F1F"/>
<path d="M50.435 38.2458C50.3391 38.1793 50.1871 38.2197 50.096 38.3385C50.0048 38.4573 50.0071 38.607 50.103 38.6759C50.1988 38.7424 50.3508 38.7021 50.442 38.5832C50.5355 38.4644 50.5308 38.3147 50.435 38.2458Z" fill="#F7B58E"/>
<path d="M49.2413 40.0485C49.0987 40.0675 48.9608 40.0675 48.8813 40.0152C48.36 39.4188 48.5306 37.5417 48.5306 37.5417L49.1384 37.1211L50.0712 37.5583L50.319 38.7559C50.3845 39.0743 50.298 39.4069 50.0829 39.6517C49.8444 39.8608 49.5546 40.0057 49.2413 40.0485Z" fill="#F7B58E"/>
<path d="M48.7757 37.2946C48.7079 37.8577 50.2111 38.2426 50.2111 38.2426L50.4519 37.5108L49.6757 36.8193L48.8855 37.0902C48.8855 37.0926 48.7897 37.1995 48.7757 37.2946Z" fill="#201F1F"/>
<path d="M48.7858 37.4085C48.7905 37.6248 48.51 37.9384 48.51 37.9384L48.4375 37.6913L48.4819 37.5012L48.6339 37.3776C48.6315 37.3776 48.7788 37.1923 48.7858 37.4085Z" fill="#201F1F"/>
<path d="M53.6448 48.5752C53.6448 48.5752 56.4034 49.2595 56.2257 56.5495C56.2164 56.9772 56.3356 57.4001 56.5203 57.7827C57.4156 59.6551 57.8902 64.5214 57.8902 64.5214L57.0019 64.6734C57.0019 64.6734 51.9452 52.6217 51.1504 49.0005C52.9411 48.6964 53.6448 48.5752 53.6448 48.5752Z" fill="#201F1F"/>
<path d="M43.927 36.9104C43.8896 36.8677 43.7798 36.7061 43.7447 36.3164C43.7143 35.9671 43.8733 35.221 43.5086 35.3636C43.3192 35.6986 43.055 36.0717 43.055 36.0717C42.9615 36.2855 43.0597 36.6633 43.1673 36.8867L43.5881 37.5377C43.5881 37.5377 43.9738 37.5924 43.9925 37.5995L44.0556 37.4498C43.9831 37.2764 43.9411 37.0934 43.927 36.9104Z" fill="#F7B58E"/>
<path d="M43.7661 36.7893C43.7661 36.7893 43.7474 36.7774 43.7216 36.7513C43.7029 36.7988 43.6796 36.8416 43.6562 36.8867C43.6515 37.0697 43.6398 37.2527 43.6328 37.4356C43.745 37.4237 43.8993 37.4095 43.911 37.4095L44.2079 36.219C44.2079 36.219 44.077 36.124 43.9344 36.3402C43.7941 36.5588 43.7661 36.7893 43.7661 36.7893Z" fill="#F7B58E"/>
<path d="M53.1431 41.9238C53.1431 41.9238 55.7427 46.3767 54.5738 47.023C53.4049 47.6693 50.5762 44.6302 50.5762 44.6302L50.9549 44.2097L53.3161 45.6472C53.3161 45.6472 52.741 45.0603 52.2664 43.618C51.7918 42.1781 53.1431 41.9238 53.1431 41.9238Z" fill="#F7B58E"/>
<path d="M51.0245 44.2791L50.7276 43.3097C50.7276 43.3097 50.3279 42.9913 50.0614 42.9675C49.9819 42.9604 49.9047 43.0079 49.8697 43.0816C49.7878 43.2526 49.6078 43.6518 49.6219 43.7683C49.6289 43.8253 49.6663 43.8752 49.7154 43.9037L50.0731 44.1247L50.578 44.6284L51.0245 44.2791Z" fill="#F7B58E"/>
<path d="M39.727 26.9668L39.3062 31.0989L36.2227 33.6603L39.9047 35.4424L41.4008 39.1159L44.1548 36.2075L48.1056 35.7965L46.1839 32.3345L47.0723 28.2879L43.1869 29.1766L39.727 26.9668Z" fill="#FFD147"/>
<path d="M36.2227 33.6599L39.3062 31.0984L39.727 27.0566L44.1244 36.2499L41.4008 39.1155L39.9047 35.442L36.2227 33.6599Z" fill="#F6A505"/>
<path d="M33.0657 66.4864C33.0657 66.4864 32.6589 66.8903 31.7168 67.1612C31.5087 67.2206 31.2819 67.1541 31.2913 67.5057C31.7355 67.4938 32.4438 67.4748 32.4438 67.4748L33.3976 67.28L33.4023 67.4487L33.919 67.4344C33.919 67.4344 34.0405 66.5695 33.7366 66.4697C33.4561 66.4769 33.0657 66.4864 33.0657 66.4864Z" fill="#201F1F"/>
<path d="M33.1085 65.8662L33.0664 66.4864C33.2581 66.6147 33.5059 66.6171 33.6999 66.4912L33.735 66.4698L33.8262 65.8496L33.1085 65.8662Z" fill="#F7B58E"/>
<path d="M37.2356 66.3741C37.2356 66.3741 36.8288 66.778 35.8867 67.0489C35.6786 67.1083 35.4519 67.0417 35.4612 67.3934C35.9054 67.3815 36.6137 67.3625 36.6137 67.3625L37.5676 67.1677L37.5722 67.3364L38.0889 67.3221C38.0889 67.3221 38.2105 66.4572 37.9065 66.3574C37.626 66.3622 37.2356 66.3741 37.2356 66.3741Z" fill="#201F1F"/>
<path d="M37.2784 65.7539L37.2363 66.3741C37.428 66.5024 37.6758 66.5048 37.8699 66.3789L37.9049 66.3575L37.9961 65.7373L37.2784 65.7539Z" fill="#F7B58E"/>
<path d="M26.2835 43.1958C26.2204 43.2172 25.996 43.2647 25.5612 43.1222C25.1708 42.9939 24.4461 42.4711 24.4297 42.9392C24.7009 43.3051 24.9767 43.7732 24.9767 43.7732C25.1614 43.9776 25.6126 44.0441 25.9048 44.0275L26.8002 43.8659C26.8002 43.8659 27.0387 43.4643 27.0527 43.4477L26.9218 43.3075C26.7043 43.3051 26.4869 43.2671 26.2835 43.1958Z" fill="#F7B58E"/>
<path d="M26.0808 43.3191C26.0808 43.3191 26.0597 43.3333 26.0176 43.35C26.0574 43.3927 26.0971 43.4379 26.1322 43.4854C26.3262 43.5757 26.5179 43.6731 26.712 43.7658C26.7517 43.6375 26.8078 43.4569 26.8125 43.445L25.6717 42.5635C25.6717 42.5635 25.508 42.6656 25.674 42.9223C25.8446 43.1813 26.0808 43.3191 26.0808 43.3191Z" fill="#F7B58E"/>
<path d="M34.8642 39.6124L34.7754 40.8242L36.0495 40.8432L35.7456 38.9756L34.8642 39.6124Z" fill="#F39F85"/>
<path d="M34.478 39.8447C34.3307 39.8447 34.1928 39.8257 34.1179 39.7687C33.6738 39.1485 34.1156 37.4353 34.1156 37.4353L34.7912 37.124L35.6726 37.6515L35.7521 38.7897C35.7731 39.0938 35.6375 39.3909 35.385 39.5857C35.1162 39.7497 34.8006 39.8447 34.478 39.8447Z" fill="#F7B58E"/>
<path d="M35.553 38.2982C35.4992 38.1081 35.5132 37.6661 35.3215 37.7017C35.1813 37.7279 34.702 37.7612 34.5407 37.7659C34.155 37.7754 33.4653 37.6423 33.4513 37.0459C33.4443 36.7489 33.7201 36.4852 33.8978 36.4044C34.0732 36.3236 34.2719 36.3236 34.4542 36.383C34.882 36.5232 35.4524 36.8392 35.6745 36.7869C36.0486 36.699 36.432 36.9153 36.4343 37.2408C36.4367 37.5877 36.273 38.1176 36.114 38.4526C36.0229 38.6474 35.8966 38.8233 35.7423 38.973L35.553 38.2982Z" fill="#201F1F"/>
<path d="M35.9439 38.331C35.8551 38.2573 35.6961 38.2763 35.5862 38.3738C35.4764 38.4712 35.4576 38.6114 35.5465 38.6874C35.6353 38.7611 35.7943 38.7421 35.9042 38.6446C36.014 38.5448 36.0327 38.407 35.9439 38.331Z" fill="#F7B58E"/>
<path d="M33.6894 41.3993C31.3376 43.3619 26.6667 42.9865 26.6667 42.9865L26.4844 44.234C26.4844 44.234 32.441 45.8498 33.14 44.4098C33.839 42.9675 36.0412 39.4366 33.6894 41.3993Z" fill="#EF6238"/>
<path d="M35.4015 40.4581C35.3571 40.4581 35.315 40.4605 35.2729 40.4629C33.8679 40.5532 32.8229 42.5539 32.8603 43.9843L32.9959 49.1547L38.4219 49.0074L38.2676 43.0909C38.2326 41.7769 37.2764 40.6506 35.993 40.4866C35.8083 40.4629 35.6119 40.451 35.4015 40.4581Z" fill="#EF6238"/>
<path d="M33.8695 48.1285L32.6726 48.3019C32.1816 48.3352 31.7702 47.6342 31.6229 47.0949C31.6019 47.0141 31.672 46.938 31.7538 46.9571C32.177 47.0497 33.271 47.2992 33.5609 47.437L33.8695 48.1285Z" fill="#F7B58E"/>
<path d="M37.9121 41.8076C37.9121 41.8076 40.7455 45.4478 39.074 47.2965C37.4025 49.1451 33.5148 48.4845 33.5148 48.4845L33.4844 47.3392C33.4844 47.3392 37.136 47.2489 37.3183 45.9848C37.5007 44.7184 36.3809 43.383 36.3809 43.383" fill="#EF6238"/>
<path d="M38.3881 47.7934C36.6839 48.8531 33.9463 48.4943 33.5676 48.4373L33.5396 47.3918C34.0141 47.3752 37.1959 47.2183 37.3712 45.9923C37.5535 44.7163 36.4688 43.4023 36.422 43.3477L36.3402 43.4189C36.3519 43.4332 37.4413 44.7496 37.266 45.978C37.093 47.178 33.5559 47.2849 33.4835 47.2873L33.4297 47.2896L33.4624 48.5347L33.5068 48.5418C33.5255 48.5442 34.3344 48.6773 35.37 48.6488C36.3332 48.6226 37.4928 48.4563 38.3928 47.9193L38.3881 47.7934Z" fill="#EF6238"/>
<path d="M32.9954 49.1547C32.4553 52.2294 32.446 55.5227 32.5044 58.2861C32.5979 62.7366 33.0421 65.98 33.0421 65.98L33.9375 65.9563L35.4758 53.1846C35.4758 53.1846 35.7282 55.0713 36.0883 58.2719C36.3711 60.7835 36.5278 62.9077 37.187 65.8684C38.0871 65.8446 38.0847 65.8446 38.0847 65.8446C38.0847 65.8446 38.6201 56.6395 38.4214 49.0098C36.3174 49.0644 34.0754 49.1238 32.9954 49.1547Z" fill="#201F1F"/>
<path d="M34.811 40.1471L35.9448 40.1162L36.1365 40.5344L34.6777 40.5748L34.811 40.1471Z" fill="white"/>
<path d="M23.126 40.6816L28.0143 43.7183L33.4473 42.4043L32.2691 48.0928L35.023 52.9139L29.4895 53.5579L25.6765 57.6852L23.5188 52.5599L18.3242 50.1244L22.607 46.4794L23.126 40.6816Z" fill="#FFD147"/>
<path d="M33.4473 42.4045L28.0143 43.7185L23.2266 40.7578L29.562 53.5604L35.023 52.9117L32.2691 48.0929L33.4473 42.4045Z" fill="#F6A505"/>
<path d="M80.8592 69.2447C80.3566 70.0051 78.7762 72.5808 78.7832 74.8832C78.7832 75.2254 78.9235 75.5581 79.183 75.7767C81.3688 77.6158 84.6254 78.6494 85.7569 78.9702C86.0327 79.0486 86.3249 78.9987 86.5611 78.8324C87.3699 78.2621 89.2261 76.5964 90.3623 72.7186C90.4371 72.4667 90.3904 72.1911 90.2384 71.9772C88.436 69.43 82.3787 68.6578 81.266 68.9501C81.0976 68.9928 80.955 69.0998 80.8592 69.2447Z" fill="#F28464"/>
<path d="M90.3605 72.7182C90.3792 72.6517 90.3909 72.5852 90.3932 72.5163L84.5067 73.5356L81.4699 68.9141C81.3904 68.9236 81.3203 68.9354 81.2642 68.9497C81.201 68.9663 81.1402 68.9925 81.0865 69.0257L83.2232 72.2763L78.9287 73.5736C78.8983 73.7162 78.8726 73.8588 78.8516 73.999L83.443 72.6113L84.3266 73.9562L86.274 73.6188L87.5832 77.9267C87.679 77.8245 87.7795 77.7128 87.8801 77.594L86.6527 73.5523L90.2997 72.9226C90.3207 72.856 90.3418 72.7871 90.3605 72.7182Z" fill="white"/>
<path d="M29.765 67.7593C31.6968 65.7958 31.6968 62.6124 29.765 60.6489C27.8332 58.6854 24.7011 58.6854 22.7693 60.6489C20.8375 62.6124 20.8375 65.7958 22.7693 67.7593C24.7011 69.7228 27.8332 69.7228 29.765 67.7593Z" fill="#EF6238"/>
<path d="M25.4746 66.6763L28.488 62.2354C28.488 62.2354 30.2928 64.1909 29.0795 65.9801C27.8638 67.7693 25.4746 66.6763 25.4746 66.6763Z" fill="white"/>
<path d="M26.5912 61.4392C26.5632 61.4059 26.5328 61.3727 26.4954 61.3465C26.2873 61.2016 26.0044 61.2539 25.8618 61.4653C25.7192 61.6768 25.7706 61.9643 25.9787 62.1093C26.0161 62.1354 26.0559 62.152 26.0979 62.1663L26.5912 61.4392Z" fill="white"/>
<path d="M24.558 64.4353C24.5299 64.402 24.4996 64.3688 24.4621 64.3426C24.2541 64.1977 23.9712 64.25 23.8286 64.4614C23.686 64.6729 23.7374 64.9604 23.9455 65.1054C23.9829 65.1315 24.0226 65.1481 24.0647 65.1624L24.558 64.4353Z" fill="white"/>
<path d="M81.3919 74.5647C79.1476 69.8861 67.807 65.8039 66.1402 64.2143C65.1396 63.732 74.797 58.7896 74.0466 49.4229C73.2798 45.1222 71.5007 45.5499 70.6919 45.7114C70.3248 45.7851 62.4512 60.1844 48.2071 63.3637C40.5555 66.8138 40.5555 66.8138 38.4188 70.9601L34.0939 83.373C33.7082 84.1191 33.9934 85.041 34.7274 85.4331C34.7274 85.4331 59.2063 96.3823 62.6522 95.8619C66.1051 95.3415 67.0613 92.8086 67.3278 91.478C67.4236 90.998 67.7322 90.5917 68.1671 90.3849C69.1606 89.9121 70.8812 88.6813 71.5872 85.6826C71.7018 85.2002 72.0384 84.8058 72.492 84.6205C75.669 83.3326 76.5059 81.4032 76.6976 80.1795C76.7981 79.5308 77.2914 79.0176 77.9273 78.913C79.4983 78.654 80.3399 78.0766 80.3399 78.0766C80.3399 78.0766 81.967 77.321 81.5111 74.9259C81.4854 74.7999 81.448 74.6788 81.3919 74.5647Z" fill="#F9AF89"/>
<path d="M39.5908 88.0231C39.6399 88.0492 39.6867 88.0777 39.7358 88.1063C39.7007 88.0754 39.668 88.0445 39.6353 88.0136C39.5558 87.9732 39.4669 87.9376 39.3711 87.9043L39.5908 88.0231Z" fill="#F9AF89"/>
<path d="M58.7857 96.0498C58.7857 96.0498 58.379 96.4324 57.4509 96.6748C57.2475 96.727 57.0254 96.6581 57.0254 97.0003C57.4579 97.0003 58.1522 97.0003 58.1522 97.0003L59.0897 96.8363V97.0003H59.5946C59.5946 97.0003 59.7349 96.1591 59.4403 96.0522C59.1668 96.0498 58.7857 96.0498 58.7857 96.0498Z" fill="#201F1F"/>
<path d="M58.8413 95.4463L58.7852 96.0499C58.9698 96.1805 59.213 96.1877 59.4047 96.0712L59.4397 96.0499L59.5449 95.4463H58.8413Z" fill="#F69B81"/>
<path d="M62.8639 96.0498C62.8639 96.0498 62.4571 96.4324 61.529 96.6748C61.3256 96.727 61.1035 96.6581 61.1035 97.0003C61.536 97.0003 62.2303 97.0003 62.2303 97.0003L63.1678 96.8363V97.0003H63.6728C63.6728 97.0003 63.813 96.1591 63.5185 96.0522C63.2449 96.0498 62.8639 96.0498 62.8639 96.0498Z" fill="#201F1F"/>
<path d="M62.9233 95.4463L62.8672 96.0499C63.0519 96.1805 63.295 96.1877 63.4867 96.0712L63.5217 96.0499L63.6269 95.4463H62.9233Z" fill="#F69B81"/>
<path d="M52.752 73.1155C52.6889 73.1345 52.4692 73.1749 52.0484 73.0228C51.6696 72.8874 50.9753 72.3575 50.9473 72.8161C51.2021 73.182 51.4616 73.6454 51.4616 73.6454C51.6369 73.8497 52.0764 73.9258 52.3616 73.9186L53.2406 73.7832C53.2406 73.7832 53.4838 73.3959 53.5001 73.3793L53.3762 73.2391C53.1588 73.2319 52.9507 73.1892 52.752 73.1155Z" fill="#F69B81"/>
<path d="M52.5508 73.2299C52.5508 73.2299 52.5298 73.2442 52.4901 73.2584C52.5298 73.3012 52.5649 73.3464 52.5999 73.3939C52.787 73.4865 52.9716 73.5887 53.1587 73.6838C53.2007 73.5602 53.2592 73.3844 53.2662 73.3725L52.1745 72.4814C52.1745 72.4814 52.0108 72.5765 52.1674 72.8331C52.3241 73.0897 52.5508 73.2299 52.5508 73.2299Z" fill="#F69B81"/>
<path d="M61.2267 69.8414L61.1074 71.0223L62.3535 71.0722L62.1033 69.2402L61.2267 69.8414Z" fill="#F69B81"/>
<path d="M60.8426 70.0576C60.6976 70.0528 60.5644 70.0314 60.4942 69.9744C60.0758 69.3566 60.5527 67.6933 60.5527 67.6933L61.2189 67.4082L62.0675 67.9452L62.1166 69.0596C62.1307 69.3566 61.9881 69.6418 61.7379 69.8295C61.4667 69.9815 61.1582 70.0647 60.8426 70.0576Z" fill="#F69B81"/>
<path d="M61.9343 68.5751C61.8875 68.3873 61.9109 67.9549 61.7239 67.9858C61.586 68.0095 61.1184 68.0286 60.9594 68.0286C60.5831 68.0286 59.9121 67.8789 59.9121 67.2967C59.9121 67.0068 60.1903 66.755 60.3656 66.6813C60.5386 66.6077 60.7327 66.6124 60.9103 66.6742C61.3241 66.8215 61.8735 67.147 62.0933 67.1019C62.4626 67.0258 62.8297 67.2468 62.825 67.5652C62.8203 67.905 62.645 68.4159 62.4813 68.7414C62.3855 68.9291 62.2592 69.0978 62.1049 69.2404L61.9343 68.5751Z" fill="#201F1F"/>
<path d="M62.3162 68.6183C62.232 68.5423 62.0754 68.5565 61.9655 68.6492C61.8557 68.7418 61.8346 68.8773 61.9188 68.9533C62.0029 69.0294 62.1596 69.0151 62.2694 68.9224C62.3793 68.8298 62.4004 68.6919 62.3162 68.6183Z" fill="#F69B81"/>
<path d="M60.0338 71.5547C57.6867 73.4105 53.1303 72.9186 53.1303 72.9186L52.9199 74.1328C52.9199 74.1328 58.6989 75.8674 59.419 74.4797C60.139 73.0921 62.3809 69.699 60.0338 71.5547Z" fill="#EF6238"/>
<path d="M61.7321 70.6807C61.69 70.6807 61.6479 70.6807 61.6059 70.683C60.2312 70.7353 59.1582 72.6624 59.1582 74.0595V79.1135H64.4626V73.3277C64.4626 72.0422 63.5556 70.9183 62.3072 70.7234C62.1272 70.6949 61.9355 70.6807 61.7321 70.6807Z" fill="#EF6238"/>
<path d="M60.0392 78.1344L58.8657 78.2723C58.3864 78.2913 58.0007 77.5974 57.8721 77.0652C57.8534 76.9844 57.9259 76.9131 58.003 76.9345C58.4145 77.0367 59.4758 77.3099 59.7564 77.4501L60.0392 78.1344Z" fill="#F69B81"/>
<path d="M64.1492 72.0654C64.1492 72.0654 66.8236 75.6961 65.1427 77.4592C63.4618 79.2199 59.6816 78.4738 59.6816 78.4738V77.3523C59.6816 77.3523 63.2538 77.3618 63.4618 76.1286C63.6723 74.8954 62.6132 73.5624 62.6132 73.5624" fill="#EF6238"/>
<path d="M64.463 77.9251C62.7705 78.916 60.1054 78.493 59.7361 78.4289V77.4048C60.1989 77.4 63.3128 77.3311 63.5162 76.1383C63.729 74.8956 62.7004 73.5839 62.6559 73.5293L62.5741 73.5958C62.5835 73.6101 63.6168 74.9241 63.4134 76.1193C63.2147 77.2883 59.7548 77.2978 59.6846 77.2978H59.6309V78.5168L59.6729 78.5263C59.6893 78.5287 60.4771 78.6807 61.4894 78.6807C62.4315 78.6807 63.5677 78.5477 64.4607 78.0463V77.9251H64.463Z" fill="#DC572F"/>
<path d="M59.1573 79.1127C58.5518 82.1019 58.4583 85.3215 58.4443 88.0208C58.4232 92.3715 58.7739 95.5507 58.7739 95.5507H59.6482L61.4764 83.1141C61.4764 83.1141 61.6751 84.9627 61.9463 88.0992C62.159 90.5609 62.2572 92.64 62.8276 95.5507C63.7089 95.5507 63.7066 95.5507 63.7066 95.5507C63.7066 95.5507 64.464 86.5714 64.464 79.1104C62.4045 79.1127 60.214 79.1127 59.1573 79.1127Z" fill="#201F1F"/>
<path d="M61.1641 70.3594H62.2722L62.4475 70.7752H61.0215L61.1641 70.3594Z" fill="#EF6238"/>
<path d="M76.9128 95.7822C76.9128 95.7822 76.4078 96.2598 75.253 96.5568C74.9981 96.6234 74.7246 96.5355 74.7246 96.9608C75.2623 96.9608 76.125 96.9608 76.125 96.9608L77.2892 96.7564V96.9608H77.9181C77.9181 96.9608 78.0934 95.9153 77.7264 95.7822C77.385 95.7822 76.9128 95.7822 76.9128 95.7822Z" fill="black"/>
<path d="M76.9822 95.0312L76.9121 95.7821C77.1412 95.9437 77.4428 95.9532 77.6836 95.8083L77.7257 95.7821L77.9875 95.0312H76.9822Z" fill="#F9AF89"/>
<path d="M80.4147 95.7822C80.4147 95.7822 79.9097 96.2598 78.7549 96.5568C78.5001 96.6234 78.2266 96.5355 78.2266 96.9608C78.7642 96.9608 79.6269 96.9608 79.6269 96.9608L80.7911 96.7564V96.9608H81.4199C81.4199 96.9608 81.5953 95.9153 81.2282 95.7822C80.8893 95.7822 80.4147 95.7822 80.4147 95.7822Z" fill="black"/>
<path d="M80.4881 95.0312L80.418 95.7821C80.6471 95.9437 80.9486 95.9532 81.1894 95.8083L81.2315 95.7821L81.4933 95.0312H80.4881Z" fill="#F9AF89"/>
<path d="M79.2227 70.3568L79.4214 71.5829L80.4944 71.0958L80.1414 69.625L79.2227 70.3568Z" fill="#F69B81"/>
<path d="M78.8349 70.4709C78.6853 70.4661 78.545 70.4447 78.4726 70.383C78.0401 69.7438 78.5333 68.0187 78.5333 68.0187L79.2253 67.7217L80.1043 68.2801L80.1534 69.4349C80.1674 69.7438 80.0202 70.0384 79.7607 70.2333C79.4825 70.3925 79.1599 70.4804 78.8349 70.4709Z" fill="#F9AF89"/>
<path d="M79.8588 68.613C79.8097 68.4181 79.625 68.2922 79.4309 68.3254C79.2883 68.3492 79.12 68.3706 78.9564 68.3706C78.566 68.3706 78.082 68.2161 78.082 67.6126C78.082 67.0091 78.8114 67.2158 78.8114 67.2158C78.8114 67.2158 80.31 67.4463 80.8897 67.8882C81.1679 68.0997 80.7027 68.7698 80.532 69.1072C80.4339 69.302 80.3006 69.4779 80.1416 69.6252L79.8588 68.613Z" fill="black"/>
<path d="M80.3591 68.9792C80.2726 68.9008 80.109 68.9151 79.9968 69.0125C79.8822 69.1099 79.8612 69.2501 79.9477 69.3285C80.0342 69.4069 80.1978 69.3926 80.31 69.2952C80.4246 69.1978 80.448 69.0576 80.3591 68.9792Z" fill="#F9AF89"/>
<path d="M79.4212 71.5838C79.4212 71.5838 77.8034 74.2807 76.8379 80.5465C78.7853 81.1691 81.7613 81.8415 81.7613 81.8415C81.7613 81.8415 83.5193 75.0505 80.4965 71.0967C79.8583 71.0967 79.4212 71.5838 79.4212 71.5838Z" fill="#EF6238"/>
<path d="M76.838 80.5459C76.838 80.5459 75.4844 85.1651 75.4844 87.2561C75.4844 89.3471 76.838 95.2446 76.838 95.2446H78.0817C78.0817 95.2446 78.3739 91.1196 78.0162 88.8029C77.911 88.121 77.9601 87.4271 78.1518 86.7642C78.8181 84.4404 79.5311 81.3015 79.5311 81.3015L76.838 80.5459Z" fill="black"/>
<path d="M77.7645 80.917C77.7645 80.917 77.4138 85.933 77.9749 87.7412C78.536 89.5494 80.4132 95.2474 80.4132 95.2474H81.512C81.512 95.2474 81.7925 92.1442 80.9018 88.8509C80.6867 88.0525 80.7194 87.2066 80.9813 86.4225C81.8392 83.8586 81.7598 81.8437 81.7598 81.8437L77.7645 80.917Z" fill="#201F1F"/>
<path d="M75.0269 81.2469C74.9731 81.2802 74.7744 81.3776 74.3279 81.3562C73.9281 81.3372 73.1052 81.0521 73.2151 81.4703C73.5681 81.7292 73.9515 82.0738 73.9515 82.0738C74.1806 82.2092 74.6224 82.1569 74.8913 82.0738L75.6884 81.7126C75.6884 81.7126 75.8053 81.2992 75.8147 81.2802L75.6534 81.1875C75.45 81.2398 75.2373 81.2588 75.0269 81.2469Z" fill="#F69B81"/>
<path d="M74.8684 81.4062C74.8684 81.4062 74.8521 81.4228 74.8193 81.449C74.8684 81.4775 74.9175 81.5084 74.9643 81.5416C75.17 81.5749 75.3757 81.6129 75.5838 81.6486C75.5861 81.525 75.5908 81.3516 75.5931 81.3397L74.2863 80.8359C74.2863 80.8359 74.1577 80.9666 74.3845 81.1543C74.6089 81.3397 74.8684 81.4062 74.8684 81.4062Z" fill="#F69B81"/>
<path d="M79.2229 73.7451L78.8605 76.7485C78.7904 77.3307 78.5402 77.8724 78.1452 78.3001L75.4824 81.1705L75.7466 81.8429C75.7466 81.8429 79.7582 79.9207 80.4946 78.7825C81.2334 77.6443 81.6027 74.1752 81.6027 74.1752L79.2229 73.7451Z" fill="#EF6238"/>
<path d="M81.393 75.3303C81.22 76.4447 80.9044 78.0558 80.4508 78.7543C79.7752 79.7974 76.2405 81.5439 75.7753 81.7696L75.5438 81.1827L78.1832 78.3385C78.59 77.9013 78.8424 77.3548 78.9126 76.7584L79.0739 75.4111C79.0411 75.3921 79.0084 75.3707 78.9757 75.3517L78.8074 76.7465C78.7372 77.3215 78.4941 77.8467 78.106 78.2672L75.4433 81.1376L75.4199 81.1613L75.7168 81.9193L75.7683 81.8956C75.9319 81.8172 79.8009 79.9543 80.5373 78.8185C81.0189 78.0771 81.3392 76.3901 81.5098 75.2686C81.4724 75.2852 81.4327 75.309 81.393 75.3303Z" fill="#E65D34"/>
<path d="M79.3594 71.1961L80.4137 70.6045L80.4955 71.0963L79.3594 71.6951V71.1961Z" fill="white"/>
<path d="M73.2402 64.9438C73.2402 64.9438 74.3951 63.6821 74.7808 63.3566C76.1578 62.3348 74.9679 56.0001 76.5482 55.2968C78.1285 54.5934 88.5761 55.2017 89.3312 57.5398C90.0863 59.8779 89.5299 66.5976 87.2903 67.1583C85.0531 67.7191 76.969 65.6186 76.1134 65.16C74.678 64.3878 73.2402 64.9438 73.2402 64.9438Z" fill="#F28464"/>
<path d="M78.9778 60.4716C78.9778 60.4716 81.9 59.8633 82.3512 57.5418C82.966 56.0995 83.4523 57.1355 83.4523 57.1355C83.4523 57.1355 83.7398 58.8677 82.9707 59.9774C83.9456 60.3528 84.6422 60.367 85.3295 60.8423C85.9935 61.3009 85.4628 63.292 83.9175 64.7201C82.8188 65.7347 78.6855 63.6556 78.6855 63.6556L78.9778 60.4716Z" fill="white"/>
<path d="M57.8991 20.5483C57.9692 20.4699 57.9646 20.3487 57.8874 20.2798L55.9961 18.5476C55.919 18.4763 55.7998 18.4834 55.7273 18.5595C55.6572 18.6379 55.6618 18.7591 55.739 18.828L57.6303 20.5602C57.7097 20.6314 57.829 20.6267 57.8991 20.5483Z" fill="#FFD147"/>
<path d="M65.5984 20.5319C65.5212 20.4606 65.5165 20.3394 65.5867 20.2634L67.3119 18.3601C67.3821 18.2817 67.5013 18.2769 67.5808 18.3482C67.6579 18.4195 67.6626 18.5407 67.5925 18.6167L65.8672 20.52C65.7971 20.596 65.6755 20.6032 65.5984 20.5319Z" fill="#FFD147"/>
<path d="M61.5799 17.9513C61.6851 17.9466 61.7645 17.8563 61.7599 17.7517L61.6406 15.1808C61.636 15.0762 61.5471 14.9954 61.4419 15.0002C61.3367 15.005 61.2572 15.0952 61.2619 15.1998L61.3811 17.7708C61.3858 17.8753 61.4747 17.9561 61.5799 17.9513Z" fill="#FFD147"/>
<path d="M41.5521 66.5025L36.5632 86.4049C34.2979 85.6612 31.6586 84.8937 28.5938 84.1238L33.5335 64.4258L41.5521 66.5025Z" fill="white"/>
<path d="M37.5423 65.4644L32.5535 85.3668C30.2882 84.6231 27.6488 83.8556 24.584 83.0858L29.5237 63.3877L37.5423 65.4644Z" fill="#282828"/>
<path d="M31.8262 64.8701C31.9524 64.8844 32.0787 64.9105 32.2049 64.939C32.3311 64.9675 32.4527 65.0008 32.5766 65.0388C32.8221 65.1149 33.0629 65.2052 33.299 65.3145C33.7689 65.5307 34.2201 65.8111 34.6058 66.177C34.9939 66.5382 35.3048 67.0134 35.4357 67.5456C35.4988 67.8118 35.5082 68.0874 35.4778 68.3511L35.4474 68.5484C35.431 68.6125 35.4147 68.6767 35.396 68.7384L35.3679 68.8335L35.3328 68.9238C35.3071 68.9832 35.2837 69.045 35.258 69.1044C35.265 69.0402 35.2744 68.9761 35.2837 68.9119L35.2978 68.8169L35.3024 68.7218C35.3048 68.6577 35.3118 68.5959 35.3141 68.5317L35.3095 68.344C35.2954 68.0945 35.2557 67.8522 35.1762 67.624C35.0126 67.1678 34.7274 66.7686 34.372 66.4336C34.019 66.0962 33.6099 65.8111 33.1797 65.5592C32.7449 65.3049 32.2937 65.0792 31.8262 64.8701Z" fill="black"/>
<path d="M35.4578 71.0794L35.0674 71.9585L33.9219 71.4144L34.9108 69.9697L35.4578 71.0794Z" fill="#F69B81"/>
<path d="M36.8441 68.8412C36.8441 68.8412 36.5917 71.1223 36.082 71.3409C35.5701 71.5619 34.9692 70.7896 34.9692 70.7896L34.3965 69.4376L36.2176 68.6416L36.8441 68.8412Z" fill="#F9AF89"/>
<path d="M37.6718 68.3892C37.6718 68.3892 37.2837 69.1805 36.1592 68.8264C35.8413 68.8336 35.6706 69.1567 35.5818 69.4442C35.4789 69.7769 35.4439 69.5226 35.182 69.7508L34.7238 70.4184C34.7238 70.4184 33.6741 68.4106 35.0908 67.8047C36.5075 67.1988 37.6718 68.3892 37.6718 68.3892Z" fill="black"/>
<path d="M35.2641 69.4011C35.3716 69.3726 35.5049 69.4557 35.5633 69.5888C35.6194 69.7219 35.5797 69.8525 35.4721 69.881C35.3646 69.9095 35.2313 69.8264 35.1729 69.6933C35.1145 69.5627 35.1565 69.432 35.2641 69.4011Z" fill="#F9AF89"/>
<path d="M33.4621 71.3191C30.6357 73.0228 31.7135 80.0538 31.7135 80.0538H36.0126C36.0126 80.0538 36.0617 78.2147 36.1202 76.271C36.1623 74.8002 36.3002 73.2699 35.9121 72.4335C35.3674 71.2811 34.1635 70.8962 33.4621 71.3191Z" fill="#EF6238"/>
<path d="M34.9375 75.876C34.9375 75.876 35.5781 78.1357 36.4407 78.8865C37.301 79.6374 39.779 81.6619 39.779 81.6619L40.5926 81.4884L37.8691 78.1476L36.8849 74.8994L34.9375 75.876Z" fill="#F69B81"/>
<path d="M34.7283 76.0881L37.0918 75.1115L35.9089 72.4336L34.3496 73.2581L34.7283 76.0881Z" fill="#EF6238"/>
<path d="M30.767 95.3584C30.767 95.3584 31.2416 95.8075 32.3263 96.0879C32.5647 96.1496 32.8219 96.0665 32.8219 96.468C32.3146 96.468 31.5057 96.468 31.5057 96.468L30.4116 96.2756V96.468H29.8202C29.8202 96.468 29.6565 95.4867 30.0002 95.3608C30.3228 95.3584 30.767 95.3584 30.767 95.3584Z" fill="black"/>
<path d="M30.6495 94.6523L30.7664 95.3581C30.5513 95.5102 30.2685 95.5197 30.0417 95.3819L30.002 95.3581L30.0604 94.6523H30.6495Z" fill="#F9AF89"/>
<path d="M31.7132 80.0537C31.7132 80.0537 31.2901 81.5245 31.2059 85.1149C31.1895 85.8419 30.9955 86.5477 30.6846 87.2035C29.4502 89.8029 30.009 94.8308 30.009 94.8308H30.8622L34.2707 82.4797L33.0691 80.0561H31.7132V80.0537Z" fill="black"/>
<path d="M35.4096 95.7842C35.4096 95.7842 35.8841 96.2333 36.9689 96.5137C37.2073 96.5754 37.4645 96.4923 37.4645 96.8938C36.9572 96.8938 36.1483 96.8938 36.1483 96.8938L35.0542 96.7014V96.8938H34.4628C34.4628 96.8938 34.2991 95.9125 34.6428 95.7866C34.9631 95.7842 35.4096 95.7842 35.4096 95.7842Z" fill="black"/>
<path d="M35.2921 95.0781L35.409 95.7838C35.1939 95.9359 34.911 95.9454 34.6843 95.8076L34.6445 95.7838L34.703 95.0781H35.2921Z" fill="#F9AF89"/>
<path d="M39.7793 81.6595L40.4245 82.6289C40.7167 83.002 41.4648 82.8499 41.9324 82.6099C42.0025 82.5743 42.0095 82.4745 41.9441 82.4269C41.6074 82.1822 40.7354 81.5573 40.4549 81.4385L39.7793 81.6595Z" fill="#F69B81"/>
<path d="M36.0106 80.0532L35.5875 95.2889H34.6875C34.6875 95.2889 33.4204 91.0522 33.6986 88.1272C33.7734 87.3312 33.6682 86.5305 33.3573 85.7962C32.0224 82.6503 32.2328 80.0508 32.2328 80.0508H36.0106V80.0532Z" fill="#201F1F"/>
</g>
<defs>
<clipPath id="clip0_494_6555">
<rect width="86" height="82" fill="white" transform="translate(18.3242 15)"/>
</clipPath>
</defs>
</svg>
