<?xml version="1.0" encoding="utf-8"?>
<!-- Generator: Adobe Illustrator 26.1.0, SVG Export Plug-In . SVG Version: 6.00 Build 0)  -->
<svg version="1.1" id="Layer_1" xmlns="http://www.w3.org/2000/svg" xmlns:xlink="http://www.w3.org/1999/xlink" x="0px" y="0px"
	 viewBox="0 0 350 258" style="enable-background:new 0 0 350 258;" xml:space="preserve">
<style type="text/css">
	.st0{fill:#EEF5F9;}
	.st1{fill:#D45834;}
	.st2{fill:#EF6238;}
	.st3{fill:#FFFFFF;}
	.st4{fill:#D8DEE8;}
	.st5{opacity:0.57;fill:#D8DEE8;enable-background:new    ;}
	.st6{opacity:0.32;fill:#FFFFFF;enable-background:new    ;}
	.st7{opacity:0.57;fill:#FFFFFF;enable-background:new    ;}
	.st8{fill:none;stroke:#000000;stroke-dasharray:12,6;}
</style>
<path class="st0" d="M264,192.5c-4.6,4.8-9,7.9-12.4,10.4c-40.4,28.9-88.2,20.5-98.4,18.4c-15-3-44-8.9-65-33.5
	c-31.7-37.1-26.8-95.7-2.2-134.3c4.5-7.1,28.3-46.3,76.6-52.6c29.3-3.8,63.4,3.9,88.1,24.5C302.6,68.6,298.9,156,264,192.5z"/>
<path class="st1" d="M242,14.8c-0.2,0-0.4-0.2-0.4-0.4c0-2-0.7-12-9.4-14.1C222.5-2,218.1,8,218.1,8s-12.1-4.6-14.4,7.8
	c-7.6,1.8-9.5,11.7-4.6,16.6c0.8,0.8,1.8,1.2,2.9,1.2l47.3,0.4c1.4,0,2.6-0.9,3-2.2C253.8,26.7,255.8,15.1,242,14.8z"/>
<path class="st2" d="M240.9,15c-0.2,0-0.4-0.2-0.4-0.4c0-1.9-0.7-11.2-8.9-13.1c-9.2-2.2-13.4,7.1-13.4,7.1s-11.4-4.3-13.6,7.3
	c-7.1,1.7-9,10.8-4.5,15.4c0.8,0.8,1.9,1.3,3,1.3l44.5,0.4c1.4,0,2.6-0.9,3-2.2C252.1,25.9,253.8,15.3,240.9,15z"/>
<path class="st1" d="M279.4,56.5c-0.2,0-0.4-0.2-0.4-0.4c0-2.1-0.7-12.3-9.6-14.4c-10-2.4-14.5,7.8-14.5,7.8s-12.3-4.7-14.7,8
	c-7.7,1.9-9.7,12-4.7,16.9c0.8,0.8,1.9,1.2,3,1.2l48.4,0.4c1.4,0,2.7-0.9,3.1-2.3C291.5,68.7,293.4,56.8,279.4,56.5z"/>
<path class="st2" d="M278.3,56.7c-0.2,0-0.4-0.2-0.4-0.4c0-2-0.7-11.4-9.1-13.4c-9.4-2.2-13.7,7.3-13.7,7.3s-11.6-4.4-13.9,7.4
	c-7.2,1.7-9.2,11-4.6,15.7c0.8,0.8,1.9,1.3,3,1.3l45.5,0.4c1.4,0,2.7-0.9,3.1-2.3C289.7,67.9,291.4,57,278.3,56.7z"/>
<path class="st1" d="M278,120.9c-0.2,0-0.4-0.2-0.4-0.4c0-2.2-0.7-12.9-10.1-15.1c-10.4-2.5-15.2,8.2-15.2,8.2s-12.9-5-15.4,8.4
	c-8.1,2-10.2,12.6-4.9,17.8c0.8,0.8,2,1.3,3.1,1.3l50.7,0.5c1.5,0,2.8-1,3.2-2.4C290.7,133.7,292.7,121.2,278,120.9z"/>
<path class="st2" d="M276.9,121.1c-0.2,0-0.4-0.2-0.4-0.4c0-2.1-0.7-12-9.5-14.1c-9.9-2.3-14.4,7.6-14.4,7.6s-12.2-4.6-14.6,7.8
	c-7.6,1.8-9.6,11.6-4.8,16.5c0.8,0.9,2,1.3,3.2,1.4l47.7,0.4c1.5,0,2.8-1,3.2-2.4C288.8,132.8,290.6,121.4,276.9,121.1z"/>
<path d="M229.9,87h-1.2c-0.4,0-0.8-0.4-0.8-0.8c0-0.5,0.4-0.8,0.8-0.8h1.2c0.4,0,0.8,0.4,0.8,0.8C230.7,86.7,230.3,87,229.9,87z"/>
<path d="M262.3,87H261c-0.4,0-0.8-0.4-0.8-0.8c0-0.5,0.4-0.8,0.8-0.8h1.3c0.2,0,0.4-0.1,0.5-0.2c0.4-0.3,0.9-0.2,1.1,0.1
	c0.3,0.4,0.2,0.9-0.1,1.1C263.4,86.9,262.9,87,262.3,87z M258.6,87h-2.4c-0.4,0-0.8-0.4-0.8-0.8c0-0.5,0.4-0.8,0.8-0.8h2.4
	c0.4,0,0.8,0.4,0.8,0.8C259.4,86.7,259.1,87,258.6,87z M253.8,87h-2.4c-0.4,0-0.8-0.4-0.8-0.8c0-0.5,0.4-0.8,0.8-0.8h2.4
	c0.4,0,0.8,0.4,0.8,0.8C254.6,86.7,254.3,87,253.8,87z M249,87h-2.4c-0.4,0-0.8-0.4-0.8-0.8c0-0.5,0.4-0.8,0.8-0.8h2.4
	c0.4,0,0.8,0.4,0.8,0.8C249.8,86.7,249.5,87,249,87z M244.2,87h-2.4c-0.4,0-0.8-0.4-0.8-0.8c0-0.5,0.4-0.8,0.8-0.8h2.4
	c0.4,0,0.8,0.4,0.8,0.8C245,86.7,244.7,87,244.2,87z M239.4,87h-2.4c-0.4,0-0.8-0.4-0.8-0.8c0-0.5,0.4-0.8,0.8-0.8h2.4
	c0.4,0,0.8,0.4,0.8,0.8C240.3,86.7,239.9,87,239.4,87z M234.7,87h-2.4c-0.4,0-0.8-0.4-0.8-0.8c0-0.5,0.4-0.8,0.8-0.8h2.4
	c0.4,0,0.8,0.4,0.8,0.8C235.5,86.7,235.1,87,234.7,87z M264,84.5c-0.4,0-0.8-0.4-0.8-0.8v-2.4c0-0.5,0.4-0.8,0.8-0.8
	s0.8,0.4,0.8,0.8v2.4C264.8,84.1,264.4,84.5,264,84.5z M264,79.7c-0.4,0-0.8-0.4-0.8-0.8v-2.4c0-0.5,0.4-0.8,0.8-0.8
	s0.8,0.4,0.8,0.8v2.4C264.8,79.3,264.4,79.7,264,79.7z"/>
<path d="M264,74.8c-0.4,0-0.8-0.4-0.8-0.8v-1.2c0-0.5,0.4-0.8,0.8-0.8c0.4,0,0.8,0.4,0.8,0.8V74C264.8,74.5,264.4,74.8,264,74.8z"/>
<path d="M192.1,41.4h-1.2c-0.4,0-0.8-0.4-0.8-0.8c0-0.5,0.4-0.8,0.8-0.8h1.2c0.4,0,0.8,0.4,0.8,0.8
	C192.9,41.1,192.6,41.4,192.1,41.4z"/>
<path d="M224.5,41.4h-1.3c-0.4,0-0.8-0.4-0.8-0.8c0-0.5,0.4-0.8,0.8-0.8h1.3c0.2,0,0.4-0.1,0.5-0.2c0.4-0.3,0.9-0.2,1.1,0.1
	c0.3,0.4,0.2,0.9-0.1,1.1C225.6,41.3,225.1,41.4,224.5,41.4z M220.9,41.4h-2.4c-0.4,0-0.8-0.4-0.8-0.8c0-0.5,0.4-0.8,0.8-0.8h2.4
	c0.4,0,0.8,0.4,0.8,0.8C221.7,41.1,221.3,41.4,220.9,41.4z M216.1,41.4h-2.4c-0.4,0-0.8-0.4-0.8-0.8c0-0.5,0.4-0.8,0.8-0.8h2.4
	c0.4,0,0.8,0.4,0.8,0.8C216.9,41.1,216.5,41.4,216.1,41.4z M211.3,41.4h-2.4c-0.4,0-0.8-0.4-0.8-0.8c0-0.5,0.4-0.8,0.8-0.8h2.4
	c0.4,0,0.8,0.4,0.8,0.8C212.1,41.1,211.7,41.4,211.3,41.4z M206.5,41.4h-2.4c-0.4,0-0.8-0.4-0.8-0.8c0-0.5,0.4-0.8,0.8-0.8h2.4
	c0.4,0,0.8,0.4,0.8,0.8C207.3,41.1,206.9,41.4,206.5,41.4z M201.7,41.4h-2.4c-0.4,0-0.8-0.4-0.8-0.8c0-0.5,0.4-0.8,0.8-0.8h2.4
	c0.4,0,0.8,0.4,0.8,0.8C202.5,41.1,202.1,41.4,201.7,41.4z M196.9,41.4h-2.4c-0.4,0-0.8-0.4-0.8-0.8c0-0.5,0.4-0.8,0.8-0.8h2.4
	c0.4,0,0.8,0.4,0.8,0.8C197.7,41.1,197.4,41.4,196.9,41.4z M226.2,38.9c-0.4,0-0.8-0.4-0.8-0.8v-2.4c0-0.5,0.4-0.8,0.8-0.8
	s0.8,0.4,0.8,0.8v2.4C227,38.5,226.7,38.9,226.2,38.9z M226.2,34.1c-0.4,0-0.8-0.4-0.8-0.8v-2.4c0-0.5,0.4-0.8,0.8-0.8
	s0.8,0.4,0.8,0.8v2.4C227,33.7,226.7,34.1,226.2,34.1z"/>
<path d="M226.2,29.2c-0.4,0-0.8-0.4-0.8-0.8v-1.2c0-0.5,0.4-0.8,0.8-0.8c0.4,0,0.8,0.4,0.8,0.8v1.2C227,28.9,226.7,29.2,226.2,29.2z
	"/>
<path d="M230.1,100.9h-1.2c-0.4,0-0.8-0.4-0.8-0.8c0-0.5,0.4-0.8,0.8-0.8h1.2c0.4,0,0.8,0.4,0.8,0.8
	C230.9,100.6,230.6,100.9,230.1,100.9z"/>
<path d="M264.2,110.7c-0.4,0-0.8-0.4-0.8-0.8v-2.4c0-0.5,0.4-0.8,0.8-0.8s0.8,0.4,0.8,0.8v2.4C265.1,110.4,264.7,110.7,264.2,110.7z
	 M264.2,105.9c-0.4,0-0.8-0.4-0.8-0.8v-2.4c0-0.5,0.4-0.8,0.8-0.8s0.8,0.4,0.8,0.8v2.4C265.1,105.5,264.7,105.9,264.2,105.9z
	 M263.6,101.3c-0.2,0-0.3-0.1-0.5-0.2c-0.2-0.1-0.3-0.2-0.5-0.2h-1.3c-0.4,0-0.8-0.4-0.8-0.8c0-0.5,0.4-0.8,0.8-0.8h1.3
	c0.6,0,1.1,0.2,1.5,0.5c0.4,0.3,0.4,0.8,0.1,1.1C264.1,101.2,263.8,101.3,263.6,101.3z M258.9,100.9h-2.4c-0.4,0-0.8-0.4-0.8-0.8
	c0-0.5,0.4-0.8,0.8-0.8h2.4c0.4,0,0.8,0.4,0.8,0.8C259.7,100.6,259.3,100.9,258.9,100.9z M254.1,100.9h-2.4c-0.4,0-0.8-0.4-0.8-0.8
	c0-0.5,0.4-0.8,0.8-0.8h2.4c0.4,0,0.8,0.4,0.8,0.8C254.9,100.6,254.5,100.9,254.1,100.9z M249.3,100.9h-2.4c-0.4,0-0.8-0.4-0.8-0.8
	c0-0.5,0.4-0.8,0.8-0.8h2.4c0.4,0,0.8,0.4,0.8,0.8C250.1,100.6,249.7,100.9,249.3,100.9z M244.5,100.9h-2.4c-0.4,0-0.8-0.4-0.8-0.8
	c0-0.5,0.4-0.8,0.8-0.8h2.4c0.4,0,0.8,0.4,0.8,0.8C245.3,100.6,245,100.9,244.5,100.9z M239.7,100.9h-2.4c-0.4,0-0.8-0.4-0.8-0.8
	c0-0.5,0.4-0.8,0.8-0.8h2.4c0.4,0,0.8,0.4,0.8,0.8C240.5,100.6,240.2,100.9,239.7,100.9z M234.9,100.9h-2.4c-0.4,0-0.8-0.4-0.8-0.8
	c0-0.5,0.4-0.8,0.8-0.8h2.4c0.4,0,0.8,0.4,0.8,0.8C235.7,100.6,235.4,100.9,234.9,100.9z"/>
<path d="M264.2,114.3c-0.4,0-0.8-0.4-0.8-0.8v-1.2c0-0.5,0.4-0.8,0.8-0.8s0.8,0.4,0.8,0.8v1.2C265.1,114,264.7,114.3,264.2,114.3z"
	/>
<path class="st1" d="M204.9,65.1c-0.6,0-1-0.5-1-1c-0.1-5.8-1.9-34.4-27-40.3c-27.9-6.7-40.7,21.9-40.7,21.9s-34.5-13.3-41.1,22.3
	c-21.6,5.2-27.3,33.6-13.2,47.5c2.2,2.2,5.2,3.5,8.4,3.5l135.6,1.2c4,0,7.5-2.6,8.6-6.4C238.7,99.3,244.3,66,204.9,65.1z"/>
<path class="st2" d="M201.8,65.7c-0.6,0-1-0.5-1-1c-0.1-5.5-1.9-32-25.5-37.6c-26.4-6.2-38.5,20.4-38.5,20.4S104.2,35,98,68.3
	c-20.3,4.8-25.7,30.9-12.9,44c2.3,2.3,5.3,3.6,8.5,3.6l127.6,1.1c4,0,7.5-2.6,8.6-6.4C233.9,97,238.6,66.6,201.8,65.7z"/>
<path class="st3" d="M147.3,58.8l-3.1,5.4l-5.3-2.8l0.9,3.5l5.3,2.8l3.1-5.4L147.3,58.8z"/>
<path class="st3" d="M183,50.4l-4.1-1.7c-1.2-1.5-2.6-2.9-4.3-4c-8.4-5.5-20-2.9-25.9,5.7c-2.5,3.6-3.6,7.7-3.4,11.8
	c0,0.8,0.1,1.6,0.3,2.4c0.1,0.7-0.3,1.4-1,1.5c-0.7,0.2-1.4-0.3-1.5-0.9c-0.1-0.6-0.2-1.2-0.3-1.7c-0.5-5,0.8-10.1,3.8-14.5
	c6.7-9.8,20-12.7,29.5-6.5c1.2,0.8,2.3,1.7,3.2,2.6C180.8,46.8,182.1,48.5,183,50.4z"/>
<path class="st3" d="M181.1,63.9l3.1-5.4l5.3,2.8l-0.9-3.5l-5.3-2.8l-3.1,5.4L181.1,63.9z"/>
<path class="st3" d="M181.8,73.7c-6.7,9.8-20,12.7-29.5,6.5c-1.2-0.8-2.3-1.7-3.2-2.6c-1.5-1.5-2.7-3.2-3.6-5.1l4.3,1.9
	c1.1,1.4,2.5,2.6,4,3.6c8.4,5.5,20,2.9,25.9-5.7c2.5-3.6,3.6-7.7,3.4-11.8c0-0.8-0.2-1.6-0.3-2.4c-0.1-0.7,0.3-1.4,1-1.5
	c0.7-0.2,1.4,0.3,1.5,0.9c0.1,0.6,0.2,1.2,0.3,1.7C186.1,64.2,184.8,69.3,181.8,73.7z"/>
<path d="M133.6,176.2l-3.3,29.7h38.2l-5-29.7H133.6z"/>
<path d="M67,100.9v70c0,5.8,4.6,10.5,10.3,10.6c25.4,0.7,114.4,2.3,138.6,1.9c4.2-0.1,7.5-3.4,7.7-7.6c0.5-16.3,1.2-55.4-1.6-73.5
	c-0.6-3.8-3.8-6.7-7.6-6.8c-21.3-0.7-115.6-2.9-139.9-2.3C70.4,93.2,67,96.7,67,100.9z"/>
<path class="st3" d="M71.4,100.5V167c0,3.4,2.7,6.1,6,6.2l135.1,1.7c3.3,0,6-2.6,6-6l0.2-65.9c0-2.4-1.9-4.3-4.3-4.4L76.2,95.8
	C73.6,95.7,71.4,97.9,71.4,100.5z"/>
<path d="M176.7,212h-56c-1.5,0-2.7-1.1-2.4-2.3l0.7-2.9c0.2-0.9,1.2-1.5,2.3-1.5l54-1.7c1.2,0,2.2,0.6,2.4,1.5l1.3,4.5
	C179.4,210.8,178.3,212,176.7,212z"/>
<path class="st4" d="M218.7,105.6l0-2.6c0-2.4-1.9-4.3-4.3-4.4L76.1,95.8c-2.7-0.1-5,2.1-5,4.7v5.1L218.7,105.6L218.7,105.6z"/>
<path class="st2" d="M78.3,103.2c1.3,0,2.3-1,2.3-2.3c0-1.3-1-2.3-2.3-2.3s-2.3,1-2.3,2.3C76,102.2,77,103.2,78.3,103.2z"/>
<path class="st2" d="M92.3,103.2c1.3,0,2.3-1,2.3-2.3c0-1.3-1-2.3-2.3-2.3s-2.3,1-2.3,2.3C90,102.2,91,103.2,92.3,103.2z"/>
<path class="st2" d="M85.2,103.2c1.3,0,2.3-1,2.3-2.3c0-1.3-1-2.3-2.3-2.3s-2.3,1-2.3,2.3C82.9,102.2,83.9,103.2,85.2,103.2z"/>
<path class="st5" d="M162.6,138H75.4c-0.3,0-0.6-0.3-0.6-0.6v-27.1c0-0.3,0.3-0.6,0.6-0.6h87.2c0.3,0,0.6,0.3,0.6,0.6v27.1
	C163.2,137.7,162.9,138,162.6,138z"/>
<path class="st5" d="M214.6,128.5h-47.4c-0.4,0-0.7-0.3-0.7-0.7v-17.4c0-0.4,0.3-0.7,0.7-0.7h47.4c0.4,0,0.7,0.3,0.7,0.7v17.4
	C215.3,128.1,215,128.5,214.6,128.5z"/>
<path class="st5" d="M214.8,149.3h-47.4c-0.4,0-0.7-0.3-0.7-0.8v-17.4c0-0.4,0.3-0.8,0.7-0.8h47.4c0.4,0,0.7,0.3,0.7,0.8v17.4
	C215.5,149,215.2,149.3,214.8,149.3z"/>
<path class="st6" d="M214.8,170.2h-47.1c-0.5,0-0.9-0.4-0.9-0.9v-17.1c0-0.5,0.4-0.9,0.9-0.9h47.1c0.5,0,0.9,0.4,0.9,0.9v17.1
	C215.7,169.8,215.3,170.2,214.8,170.2z"/>
<path class="st5" d="M162.3,169.7h-87c-0.4,0-0.7-0.3-0.7-0.7v-26.9c0-0.4,0.3-0.7,0.7-0.7h87c0.4,0,0.7,0.3,0.7,0.7V169
	C163,169.4,162.7,169.7,162.3,169.7z"/>
<path d="M142.5,216.5c0,1.1,0.9,2.1,2.1,2.1h111.7c1.1,0,2.1-0.9,2.1-2.1l0.9-64.5c0-1.1-1.3-3.4-3.8-3.2l-109.2-2.8
	c-1.4,0-2.8,0.5-3.8,1.5s-1.6,2.4-1.5,3.8L142.5,216.5z"/>
<path d="M133.9,223.9h130.8c0.2,0,0.4-0.2,0.4-0.5v-4.8c0-0.2-0.2-0.5-0.4-0.5H133.9c-0.2,0-0.4,0.2-0.4,0.5v4.8
	C133.4,223.7,133.6,223.9,133.9,223.9z"/>
<path class="st3" d="M144.5,214.5c0,1.1,0.9,2,2,2h107.1c1.1,0,2-0.9,2-2l0.9-58.6c-0.1-3.5-3.2-4.8-5-4.7l-104.6-2.8
	c-1,0-2,0.4-2.7,1.1c-0.7,0.7-1.1,1.7-1.1,2.7L144.5,214.5z"/>
<path class="st5" d="M212.8,187.9h-64.1c-0.3,0-0.6-0.3-0.6-0.6v-20.9c0-0.3,0.3-0.6,0.6-0.6h64.1c0.3,0,0.6,0.3,0.6,0.6v20.9
	C213.4,187.6,213.2,187.9,212.8,187.9z"/>
<path class="st5" d="M251.2,180.5h-34.6c-0.4,0-0.7-0.3-0.7-0.7v-13.3c0-0.4,0.3-0.7,0.7-0.7h34.6c0.4,0,0.7,0.3,0.7,0.7v13.3
	C251.9,180.1,251.6,180.5,251.2,180.5z"/>
<path class="st7" d="M251.3,196.8h-34.6c-0.4,0-0.7-0.3-0.7-0.8v-13.3c0-0.4,0.3-0.8,0.7-0.8h34.6c0.4,0,0.7,0.3,0.7,0.8V196
	C252.1,196.4,251.7,196.8,251.3,196.8z"/>
<path class="st5" d="M251.3,213H217c-0.5,0-0.9-0.4-0.9-0.9v-13c0-0.5,0.4-0.9,0.9-0.9h34.3c0.5,0,0.9,0.4,0.9,0.9v13
	C252.2,212.7,251.8,213,251.3,213z"/>
<path class="st5" d="M212.6,212.7h-63.9c-0.4,0-0.7-0.3-0.7-0.7v-20.7c0-0.4,0.3-0.7,0.7-0.7h63.9c0.4,0,0.7,0.3,0.7,0.7V212
	C213.3,212.4,213,212.7,212.6,212.7z"/>
<path class="st4" d="M256.3,160.6l0.1-5.1c-0.1-3.4-3.2-4.6-5-4.5l-104.6-2.7c-1,0-2,0.3-2.7,1c-0.7,0.7-1.1,1.6-1.1,2.6l0.2,8.7
	H256.3z"/>
<path class="st2" d="M148.5,157.3c1.3,0,2.3-1,2.3-2.3c0-1.3-1-2.3-2.3-2.3s-2.3,1-2.3,2.3C146.2,156.2,147.2,157.3,148.5,157.3z"/>
<path class="st2" d="M162.5,157.3c1.3,0,2.3-1,2.3-2.3c0-1.3-1-2.3-2.3-2.3c-1.3,0-2.3,1-2.3,2.3
	C160.2,156.2,161.2,157.3,162.5,157.3z"/>
<path class="st2" d="M155.4,157.3c1.3,0,2.3-1,2.3-2.3c0-1.3-1-2.3-2.3-2.3c-1.3,0-2.3,1-2.3,2.3
	C153.1,156.2,154.1,157.3,155.4,157.3z"/>
<path class="st8" d="M461,13h23H245.5h3"/>
<path class="st8" d="M-196,224l0,9c0,13.3,10.7,24,24,24h360c13.3,0,24-10.7,24-24v-8"/>
</svg>
