<svg width="575" height="224" viewBox="0 0 575 224" fill="none" xmlns="http://www.w3.org/2000/svg">
<path d="M398.119 192.491C393.524 197.315 389.17 200.418 385.729 202.878C345.305 231.739 297.482 223.33 287.314 221.272C272.307 218.241 243.287 212.372 222.312 187.82C190.578 150.671 195.521 92.1527 220.131 53.5158C224.63 46.4493 248.416 7.22553 296.763 0.938796C326.018 -2.86379 360.126 4.8057 384.817 25.4024C436.662 68.6297 432.971 155.969 398.119 192.491Z" fill="#EEF5F9"/>
<g clip-path="url(#clip0_2_80)">
<path d="M317.772 201.769L251.657 201.471C243.698 201.422 237.28 194.963 237.33 187.014L238.026 21.4692C238.076 13.5199 244.543 7.11076 252.503 7.16044L318.618 7.45854C326.578 7.50823 332.995 13.967 332.945 21.9163L332.249 187.461C332.199 195.36 325.732 201.769 317.772 201.769Z" fill="black"/>
<path d="M318.518 13.1222L305.683 13.0726C303.942 13.0726 302.549 14.5134 302.549 16.302V18.6371C302.549 20.4257 301.156 21.8665 299.415 21.8665L274.441 21.7671C272.7 21.7671 271.357 20.2766 271.357 18.488V16.1529C271.357 14.3643 269.964 12.8738 268.272 12.8738H263.745L252.502 12.8241C246.931 12.7745 242.403 17.2956 242.354 22.8601L241.707 184.479C241.707 190.044 246.184 194.565 251.756 194.615L317.772 194.913C323.343 194.963 327.87 190.441 327.92 184.877L328.617 23.2576C328.567 17.6931 324.09 13.1719 318.518 13.1222Z" fill="#FAFAFA"/>
<path d="M242.306 42.2368H253.101L262.752 51.8754L252.703 61.9114L242.405 51.6269L242.306 42.2368Z" fill="#EBEBEB"/>
<path d="M264.94 47.6517L259.518 42.2368H271.756L264.94 47.6517Z" fill="#EBEBEB"/>
<path d="M269.716 52.074L279.218 42.5845H312.4C312.4 42.5845 317.474 65.24 297.475 79.7972L269.716 52.074Z" fill="#EBEBEB"/>
<path d="M265.637 55.1045L255.489 65.2399L283.596 93.3108L293.745 82.8277L265.637 55.1045Z" fill="#EBEBEB"/>
<path d="M242.156 71.0033L248.523 64.3955L242.305 58.1851L242.156 71.0033Z" fill="#EBEBEB"/>
<path d="M252.354 68.3203L242.554 78.0582V91.6217L262.751 112.29L279.865 96.3913L252.354 68.3203Z" fill="#EBEBEB"/>
<path d="M301.257 82.6291C301.257 82.6291 322.201 67.277 315.435 42.5845H328.469L328.32 112.34L301.257 82.6291Z" fill="#EBEBEB"/>
<path d="M297.326 86.6538L287.178 97.2363L318.27 128.239L327.772 118.203L297.326 86.6538Z" fill="#EBEBEB"/>
<path d="M282.949 100.118L267.03 115.917L298.868 147.515L314.788 132.163L282.949 100.118Z" fill="#EBEBEB"/>
<path d="M274.591 179.213L298.967 154.024L322.1 177.623L274.591 179.213Z" fill="#EBEBEB"/>
<path d="M302.748 150.795L328.119 125.705C328.119 126.798 327.92 177.723 327.92 177.723L302.748 150.795Z" fill="#EBEBEB"/>
<path d="M281.058 136.685L295.436 151.043L267.029 180.306L253.896 164.607L281.058 136.685Z" fill="#EBEBEB"/>
<path d="M242.205 166.644C243.548 166.495 278.322 134.002 278.322 134.002L242.205 96.5903V166.644Z" fill="#EBEBEB"/>
<path d="M241.707 174.046L250.065 166.644L261.656 180.306H241.707V175.09" fill="#EBEBEB"/>
<path d="M252.502 32.3994C252.452 32.4491 251.358 31.5052 250.015 30.2632C250.015 29.8658 250.015 30.1639 250.015 30.0645L250.064 30.0148L250.114 29.9652L250.214 29.8658C250.313 29.7664 250.363 29.7168 250.462 29.6671C250.612 29.5181 250.761 29.369 250.91 29.2697C251.159 29.0213 251.457 28.7729 251.706 28.5742C252.154 28.1767 252.452 27.978 252.452 27.978C252.452 28.0277 252.253 28.2761 251.806 28.7232C251.557 28.9716 251.308 29.22 251.059 29.4684C250.91 29.6174 250.761 29.7664 250.612 29.9155C250.512 29.9652 250.462 30.0645 250.363 30.1639L250.263 30.2632L250.214 30.3129L250.164 30.3626C250.164 30.2632 250.164 30.5613 250.164 30.1639C251.557 31.3065 252.552 32.3497 252.502 32.3994Z" fill="#263238"/>
<path d="M321.304 28.6241C321.304 28.9222 321.056 29.1706 320.757 29.1706C320.459 29.1706 320.21 28.9222 320.21 28.6241C320.21 28.326 320.459 28.0776 320.757 28.0776C321.056 28.0776 321.304 28.326 321.304 28.6241Z" fill="#263238"/>
<path d="M321.105 30.0646C321.304 30.2633 321.304 30.611 321.105 30.8097C320.906 31.0084 320.558 31.0084 320.359 30.8097C320.16 30.611 320.16 30.2633 320.359 30.0646C320.558 29.8658 320.906 29.8658 321.105 30.0646Z" fill="#263238"/>
<path d="M321.304 32.3009C321.304 32.5989 321.056 32.8473 320.757 32.8473C320.459 32.8473 320.21 32.5989 320.21 32.3009C320.21 32.0028 320.459 31.7544 320.757 31.7544C321.056 31.8041 321.304 32.0028 321.304 32.3009Z" fill="#263238"/>
<path d="M297.971 30.8096H274.689V32.747H297.971V30.8096Z" fill="#263238"/>
<path d="M295.435 65.5881C295.435 56.5457 285.933 50.7825 276.182 55.3533C273.993 56.3967 272.153 58.1356 271.058 60.2223C268.62 64.9422 269.715 70.3576 271.904 74.8291L279.466 93.9572C280.56 96.6897 284.49 96.6897 285.535 93.9075L292.947 74.6801C295.534 68.8671 295.435 65.5881 295.435 65.5881ZM286.331 73.4877C279.814 77.2636 273.197 70.2583 276.779 63.3523C277.277 62.4083 277.973 61.6631 278.869 61.1663C285.386 57.3903 292.002 64.3957 288.42 71.3016C287.923 72.1959 287.176 72.9909 286.331 73.4877Z" fill="#EF6238"/>
<path d="M413.35 151.523H209.807V181.348H413.35V151.523Z" fill="#EF6238"/>
<g opacity="0.5">
<g opacity="0.5">
<path opacity="0.5" d="M413.35 151.523H209.807V181.348H413.35V151.523Z" fill="black"/>
</g>
</g>
<path d="M238.456 200.718C249.271 199.991 257.449 190.646 256.721 179.844C255.994 169.043 246.636 160.876 235.821 161.603C225.006 162.33 216.828 171.675 217.556 182.476C218.284 193.277 227.641 201.444 238.456 200.718Z" fill="#263238"/>
<path d="M217.512 180.799V180.835C217.365 191.644 226.024 200.548 236.846 200.731C247.669 200.877 256.584 192.23 256.768 181.422V181.385L217.512 180.799Z" fill="#263238"/>
<path d="M223.382 180.945C223.272 188.53 229.362 194.795 236.956 194.905C244.551 195.015 250.824 188.933 250.934 181.348C251.044 173.764 244.954 167.499 237.36 167.389C229.729 167.279 223.492 173.361 223.382 180.945Z" fill="#FAFAFA"/>
<path d="M237.36 167.389C229.766 167.279 223.492 173.361 223.382 180.945L250.935 181.348C251.045 173.764 244.955 167.499 237.36 167.389Z" fill="#E0E0E0"/>
<path d="M228.737 181.019C228.664 185.636 232.369 189.446 236.992 189.519C241.615 189.593 245.43 185.892 245.504 181.275C245.577 176.659 241.872 172.848 237.249 172.775C232.626 172.702 228.811 176.402 228.737 181.019Z" fill="#263238"/>
<path d="M388.359 200.731C399.18 200.105 407.445 190.836 406.818 180.029C406.191 169.221 396.91 160.967 386.088 161.593C375.266 162.219 367.002 171.488 367.629 182.296C368.256 193.103 377.537 201.357 388.359 200.731Z" fill="#263238"/>
<path d="M367.6 180.798V180.835C367.453 191.644 376.111 200.547 386.934 200.73C397.757 200.877 406.672 192.23 406.856 181.421V181.385L367.6 180.798Z" fill="#263238"/>
<path d="M373.47 180.945C373.36 188.529 379.45 194.795 387.044 194.905C394.638 195.015 400.912 188.932 401.022 181.348C401.132 173.764 395.042 167.498 387.448 167.388C379.817 167.278 373.58 173.36 373.47 180.945Z" fill="#FAFAFA"/>
<path d="M387.448 167.388C379.854 167.278 373.58 173.36 373.47 180.945L401.023 181.348C401.133 173.764 395.042 167.498 387.448 167.388Z" fill="#E0E0E0"/>
<path d="M378.825 181.018C378.752 185.635 382.457 189.446 387.08 189.519C391.703 189.592 395.518 185.892 395.592 181.275C395.665 176.658 391.959 172.848 387.337 172.775C382.714 172.701 378.899 176.402 378.825 181.018Z" fill="#263238"/>
<path d="M262.857 134.742C262.857 134.742 233.947 136.867 223.235 139.286C215.677 140.971 201.112 143.902 201.295 153.026L202.433 159.584C202.433 159.584 197.04 162.039 197.04 168.341C197.04 174.643 195.719 184.389 208.339 184.756C210.431 184.829 214.356 184.756 214.356 184.756C214.356 184.756 211.935 157.935 236.589 157.166C261.683 156.36 259.995 184.499 259.995 184.499H364.702C364.702 184.499 360.409 157.093 387.411 157.019C414.414 156.983 410.305 184.646 410.305 184.646C410.305 184.646 420.247 185.489 424.869 177.171C429.492 168.817 428.281 162.882 428.281 162.882L428.135 157.606C428.098 155.81 426.631 154.381 424.833 154.308C424.833 154.308 426.63 141.044 423.879 138.736C421.127 136.428 405.939 122.578 405.939 122.578L406.672 122.138C407.883 121.369 407.663 119.573 406.306 119.097C400.546 117.119 389.136 113.198 386.458 112.282C386.054 112.136 385.65 112.062 385.21 112.026C383.596 111.916 379.083 111.623 370.792 111.513C360.666 111.403 320.493 111.513 320.493 111.513C320.493 111.513 306.735 112.685 299.031 116.056C290.923 119.61 262.857 134.742 262.857 134.742Z" fill="#EF6238"/>
<g opacity="0.4">
<g opacity="0.4">
<g opacity="0.4">
<path opacity="0.4" d="M204.414 167.608C203.35 167.388 201.772 167.388 200.965 168.085C200.378 168.597 200.231 169.477 200.121 170.246C200.011 171.345 199.938 172.444 200.195 173.507C200.452 174.569 201.075 175.595 202.029 176.108C202.983 176.621 204.304 176.547 205.038 175.741C205.735 175.009 205.808 173.91 205.771 172.92C205.735 171.492 205.845 170.319 205.588 168.927C205.551 168.671 205.404 168.341 205.221 168.121C204.964 167.755 204.744 167.608 204.414 167.608Z" fill="black"/>
</g>
</g>
</g>
<path d="M202.468 159.583C205.55 159.583 208.522 159.4 211.567 159.217C211.897 159.18 212.264 159.144 212.484 158.924C212.778 158.667 212.814 158.191 212.814 157.825C212.814 156.176 212.741 154.308 211.494 153.245C210.723 152.586 209.696 152.402 208.669 152.293C206.211 152.073 203.606 152.256 201.294 153.025L202.468 159.583Z" fill="#FAFAFA"/>
<path d="M266.197 183.657C266.197 183.657 266.197 183.584 266.16 183.4C266.16 183.217 266.123 182.961 266.123 182.631C266.087 181.935 266.05 180.945 265.976 179.663C265.903 178.381 265.83 176.805 265.646 175.01C265.463 173.214 265.169 171.126 264.582 168.928C263.959 166.729 263.041 164.348 261.611 162.039C260.217 159.731 258.382 157.459 255.887 155.664C250.935 152.147 244.257 150.168 237.25 150.058C230.243 149.985 223.566 152.183 218.76 155.884C216.338 157.679 214.32 159.804 212.743 162.003C211.165 164.201 210.028 166.473 209.221 168.598C208.414 170.76 207.973 172.775 207.753 174.607C207.496 176.402 207.533 177.978 207.57 179.26C207.68 180.542 207.79 181.532 207.937 182.191C208.01 182.521 208.047 182.777 208.083 182.961C208.12 183.144 208.12 183.217 208.12 183.217C208.12 183.217 208.083 183.144 208.047 182.961C208.01 182.777 207.973 182.521 207.9 182.191C207.753 181.532 207.606 180.542 207.496 179.26C207.423 177.978 207.386 176.402 207.643 174.57C207.863 172.775 208.304 170.686 209.111 168.525C209.918 166.363 211.055 164.091 212.633 161.856C214.174 159.621 216.228 157.496 218.649 155.701C223.492 151.963 230.206 149.765 237.25 149.838C244.294 149.911 251.008 151.927 255.997 155.481C258.492 157.276 260.327 159.584 261.757 161.893C263.152 164.238 264.105 166.583 264.692 168.818C265.316 171.053 265.573 173.105 265.756 174.937C265.94 176.769 266.013 178.344 266.05 179.626C266.087 180.909 266.16 181.898 266.16 182.594C266.16 182.924 266.197 183.18 266.197 183.364C266.197 183.584 266.197 183.657 266.197 183.657Z" fill="#714438"/>
<path d="M267.296 184.133C267.296 184.133 267.296 184.059 267.296 183.913C267.296 183.766 267.296 183.547 267.259 183.253C267.259 182.667 267.222 181.824 267.185 180.725C267.112 178.49 267.039 175.266 266.929 171.126C266.819 166.985 266.672 161.966 266.525 156.213C266.488 154.784 266.452 153.282 266.415 151.743C266.378 150.974 266.452 150.204 266.525 149.398C266.598 148.995 266.635 148.629 266.709 148.226C266.782 147.823 266.855 147.456 266.965 147.053C267.332 145.478 267.883 143.902 268.616 142.363C269.35 140.824 270.194 139.322 271.294 137.893C276.908 134.376 282.998 130.529 289.418 126.498C291.032 125.472 292.647 124.446 294.298 123.421C295.912 122.321 297.673 121.369 299.471 120.526C301.268 119.683 303.176 118.914 305.084 118.291C306.038 117.961 307.028 117.668 308.019 117.375C309.009 117.119 310 116.825 311.027 116.642C314.916 115.763 318.878 115.36 322.73 115.177C326.583 114.993 330.361 114.993 334.03 115.213H334.14L334.104 115.323C332.379 123.091 330.728 130.382 329.224 137.087C328.307 138.589 327.573 140.165 327.023 141.777C326.509 143.389 326.179 145.001 326.289 146.614C326.399 148.226 326.473 149.801 326.509 151.34C326.546 152.879 326.583 154.345 326.583 155.774C326.656 161.526 326.693 166.546 326.693 170.686C326.693 174.826 326.693 178.051 326.693 180.286C326.693 181.385 326.693 182.228 326.693 182.814C326.693 183.107 326.693 183.327 326.693 183.473C326.693 183.62 326.693 183.693 326.693 183.693C326.693 183.693 326.693 183.62 326.693 183.473C326.693 183.327 326.693 183.107 326.693 182.814C326.693 182.228 326.693 181.385 326.693 180.286C326.693 178.051 326.656 174.826 326.619 170.686C326.583 166.546 326.546 161.526 326.473 155.774C326.436 154.345 326.399 152.842 326.363 151.34C326.326 149.801 326.289 148.262 326.142 146.65C326.032 145.038 326.363 143.353 326.876 141.74C327.426 140.128 328.16 138.553 329.077 137.014V137.051C330.582 130.345 332.196 123.018 333.92 115.287L333.994 115.396C330.325 115.177 326.546 115.177 322.694 115.36C318.842 115.543 314.916 115.983 311.027 116.825C310 117.045 309.009 117.302 308.019 117.558C307.028 117.851 306.038 118.144 305.084 118.474C303.139 119.134 301.268 119.866 299.471 120.709C297.673 121.552 295.912 122.505 294.298 123.567C292.647 124.593 290.996 125.619 289.381 126.645C282.924 130.712 276.834 134.522 271.221 138.04H271.258C270.157 139.432 269.313 140.934 268.58 142.473C267.846 144.012 267.332 145.588 266.965 147.127C266.158 150.278 266.562 153.355 266.562 156.25C266.709 162.002 266.819 167.022 266.929 171.162C267.039 175.303 267.112 178.564 267.149 180.762C267.185 181.861 267.185 182.704 267.185 183.29C267.185 183.583 267.185 183.803 267.185 183.95C267.296 184.059 267.296 184.133 267.296 184.133Z" fill="#263238"/>
<path d="M333.92 115.8C333.92 115.8 333.994 115.8 334.104 115.8C334.214 115.8 334.397 115.8 334.617 115.8C335.058 115.8 335.718 115.763 336.562 115.763C338.25 115.726 340.708 115.69 343.789 115.616C349.916 115.506 358.464 115.36 368.15 115.213H368.187L368.223 115.25C369.324 116.569 370.461 117.998 371.635 119.427C375.084 123.677 378.386 127.708 381.394 131.372C381.761 131.848 382.128 132.288 382.495 132.727C382.862 133.167 383.155 133.68 383.412 134.193C383.889 135.219 384.146 136.318 384.146 137.38C384.146 138.443 383.926 139.469 383.559 140.385C383.155 141.264 382.788 142.144 382.458 142.95C381.027 146.247 379.89 148.885 379.083 150.717C378.679 151.633 378.386 152.33 378.166 152.842C378.056 153.062 377.982 153.246 377.909 153.392C377.835 153.502 377.835 153.575 377.835 153.575C377.835 153.575 377.872 153.502 377.909 153.392C377.946 153.246 378.056 153.062 378.129 152.842C378.349 152.366 378.643 151.633 379.009 150.717C379.78 148.885 380.917 146.211 382.311 142.913C382.935 141.264 384.072 139.506 383.962 137.38C383.962 136.355 383.705 135.255 383.229 134.266C382.972 133.753 382.678 133.277 382.348 132.837C381.981 132.397 381.614 131.921 381.247 131.481C378.239 127.817 374.937 123.787 371.489 119.574C370.315 118.145 369.177 116.752 368.077 115.397L368.15 115.433C358.464 115.58 349.916 115.69 343.789 115.8C340.744 115.836 338.286 115.873 336.562 115.873C335.718 115.873 335.058 115.873 334.617 115.873C334.397 115.873 334.251 115.873 334.104 115.873C333.957 115.8 333.92 115.8 333.92 115.8Z" fill="#263238"/>
<path d="M321.631 148.152C321.631 148.152 321.741 148.152 321.924 148.116C322.108 148.079 322.401 148.006 322.695 147.822C322.988 147.639 323.318 147.273 323.465 146.797C323.538 146.54 323.575 146.284 323.575 145.991C323.575 145.698 323.502 145.404 323.355 145.111C323.061 144.562 322.438 144.086 321.667 144.086C320.897 144.086 320.053 144.086 319.209 144.086C317.448 144.086 315.54 144.086 313.523 144.086C313.046 144.086 312.569 144.269 312.239 144.598C311.908 144.928 311.688 145.331 311.615 145.807C311.578 146.284 311.615 146.723 311.835 147.09C312.055 147.456 312.385 147.749 312.789 147.932C313.192 148.116 313.596 148.079 314 148.079C314.403 148.079 314.807 148.079 315.21 148.079C315.981 148.079 316.714 148.079 317.375 148.079C318.696 148.079 319.723 148.116 320.493 148.116C320.86 148.116 321.117 148.116 321.337 148.116C321.521 148.152 321.631 148.152 321.631 148.152C321.631 148.152 321.521 148.152 321.337 148.189C321.117 148.189 320.86 148.189 320.493 148.189C319.723 148.189 318.659 148.189 317.375 148.225C316.714 148.225 315.981 148.225 315.21 148.225C314.807 148.225 314.44 148.225 314 148.225C313.779 148.225 313.596 148.225 313.376 148.225C313.156 148.225 312.936 148.152 312.716 148.079C312.312 147.896 311.908 147.603 311.688 147.163C311.431 146.76 311.395 146.247 311.431 145.771C311.468 145.295 311.725 144.782 312.092 144.452C312.459 144.122 312.972 143.902 313.523 143.902C315.54 143.902 317.448 143.902 319.209 143.902C320.09 143.902 320.897 143.902 321.667 143.902C322.474 143.902 323.172 144.415 323.465 145.038C323.612 145.331 323.685 145.661 323.685 145.954C323.685 146.247 323.648 146.54 323.575 146.797C323.392 147.31 323.061 147.639 322.731 147.859C322.401 148.042 322.108 148.116 321.924 148.152C321.704 148.152 321.631 148.152 321.631 148.152Z" fill="#263238"/>
<path d="M375.891 148.152C375.891 148.152 376.001 148.152 376.185 148.116C376.368 148.079 376.662 148.006 376.955 147.822C377.249 147.639 377.579 147.273 377.726 146.797C377.799 146.54 377.836 146.284 377.836 145.991C377.836 145.698 377.762 145.404 377.616 145.111C377.322 144.562 376.699 144.086 375.928 144.086C375.158 144.086 374.314 144.086 373.47 144.086C371.709 144.086 369.801 144.086 367.783 144.086C367.306 144.086 366.83 144.269 366.499 144.598C366.169 144.928 365.949 145.331 365.876 145.807C365.839 146.284 365.876 146.723 366.096 147.09C366.316 147.456 366.646 147.749 367.05 147.932C367.453 148.116 367.857 148.079 368.26 148.079C368.664 148.079 369.067 148.079 369.471 148.079C370.241 148.079 370.975 148.079 371.636 148.079C372.956 148.079 373.984 148.116 374.754 148.116C375.121 148.116 375.378 148.116 375.598 148.116C375.781 148.152 375.891 148.152 375.891 148.152C375.891 148.152 375.781 148.152 375.598 148.189C375.378 148.189 375.121 148.189 374.754 148.189C373.984 148.189 372.92 148.189 371.636 148.225C370.975 148.225 370.241 148.225 369.471 148.225C369.067 148.225 368.701 148.225 368.26 148.225C368.04 148.225 367.857 148.225 367.637 148.225C367.417 148.225 367.196 148.152 366.976 148.079C366.573 147.896 366.169 147.603 365.949 147.163C365.692 146.76 365.656 146.247 365.692 145.771C365.729 145.295 365.986 144.782 366.353 144.452C366.719 144.122 367.233 143.902 367.783 143.902C369.801 143.902 371.709 143.902 373.47 143.902C374.35 143.902 375.158 143.902 375.928 143.902C376.735 143.902 377.432 144.415 377.726 145.038C377.873 145.331 377.946 145.661 377.946 145.954C377.946 146.247 377.909 146.54 377.836 146.797C377.652 147.31 377.322 147.639 376.992 147.859C376.662 148.042 376.368 148.116 376.185 148.152C376.001 148.152 375.891 148.152 375.891 148.152Z" fill="#263238"/>
<path d="M423.476 139.322H412.617C411.113 139.322 409.755 140.128 409.058 141.447C408.508 142.51 408.434 143.792 408.948 144.928L413.204 154.601L424.063 154.491C424.1 154.491 426.411 142.217 423.476 139.322Z" fill="#FAFAFA"/>
<path d="M272.653 137.93L328.675 136.904L365.143 136.244L377.176 129.319C378.167 128.77 378.424 127.488 377.727 126.572L370.242 116.752C369.472 115.726 368.261 115.14 366.977 115.103L326.181 114.773C326.181 114.773 310.808 113.894 298.738 120.636C285.971 127.781 272.653 137.93 272.653 137.93Z" fill="#263238"/>
<path d="M298.334 115.799C298.334 115.799 301.159 117.082 299.324 118.254C297.49 119.427 269.094 137.307 269.094 137.307L262.563 134.339C274.12 127.927 285.823 121.662 298.334 115.799Z" fill="black"/>
<path d="M270.011 137.747C270.011 137.747 269.938 137.783 269.828 137.783C269.718 137.82 269.534 137.857 269.314 137.893C268.837 138.003 268.177 138.113 267.333 138.296C265.609 138.626 263.077 139.139 259.995 139.652C253.758 140.714 245.137 141.96 235.525 142.803C233.14 143.023 230.792 143.169 228.517 143.316C226.243 143.462 224.078 143.609 221.987 143.792C217.841 144.159 214.099 144.745 211.091 145.661C208.046 146.54 205.734 147.639 204.23 148.519C203.46 148.922 202.91 149.325 202.506 149.581C202.323 149.691 202.176 149.801 202.066 149.874C201.956 149.948 201.919 149.948 201.919 149.948C201.919 149.948 201.956 149.911 202.066 149.838C202.176 149.764 202.323 149.655 202.506 149.545C202.91 149.288 203.46 148.885 204.23 148.445C205.734 147.529 208.046 146.394 211.091 145.514C214.136 144.598 217.841 143.975 222.024 143.609C224.115 143.426 226.279 143.279 228.554 143.133C230.829 142.986 233.177 142.803 235.561 142.583C245.174 141.74 253.795 140.531 260.032 139.505C263.151 138.992 265.645 138.516 267.406 138.186C268.25 138.04 268.947 137.893 269.387 137.82C269.608 137.783 269.791 137.747 269.901 137.71C269.974 137.747 270.011 137.747 270.011 137.747Z" fill="#263238"/>
<path d="M427.804 162.809C427.804 162.846 424.061 162.919 419.476 162.919C414.853 162.919 411.147 162.883 411.147 162.809C411.147 162.736 414.89 162.699 419.476 162.699C424.098 162.699 427.804 162.772 427.804 162.809Z" fill="#263238"/>
<path d="M359.492 172.335C359.492 172.372 338.397 172.446 312.422 172.446C286.411 172.446 265.352 172.409 265.352 172.335C265.352 172.299 286.447 172.225 312.422 172.225C338.397 172.225 359.492 172.262 359.492 172.335Z" fill="#263238"/>
<path d="M211.898 163.139C211.898 163.175 208.926 163.249 205.257 163.249C201.588 163.249 198.617 163.212 198.617 163.139C198.617 163.065 201.588 163.028 205.257 163.028C208.889 163.028 211.898 163.065 211.898 163.139Z" fill="#263238"/>
<path d="M405.719 122.248C405.719 122.248 403.224 125.033 404.214 127.085C405.205 129.136 415.368 136.318 415.368 136.318L422.742 137.71L405.719 122.248Z" fill="black"/>
<path d="M335.571 117.229L333.92 135.145L363.601 134.266L375.561 127.341L367.82 117.229H335.571Z" fill="black"/>
<path d="M279.697 136.062C279.697 136.062 297.6 123.128 304.681 120.563C311.505 118.072 315.064 117.449 321.447 117.266C327.574 117.082 331.316 117.266 331.316 117.266L326.584 135.476L279.697 136.062Z" fill="black"/>
<path d="M277.055 136.097C277.055 134.961 277.678 133.936 278.669 133.349L282.778 131.041C283.952 130.382 285.273 130.052 286.63 130.052C287.474 130.052 288.281 130.199 289.088 130.455C290.849 131.041 292.023 132.69 292.097 134.558C292.207 137.123 290.152 139.248 287.584 139.248H280.247C278.486 139.248 277.055 137.819 277.055 136.097Z" fill="#EF6238"/>
<path d="M277.055 136.097C277.055 136.097 277.055 136.244 277.092 136.5C277.129 136.757 277.202 137.123 277.459 137.563C277.716 138.002 278.119 138.479 278.706 138.808C279 138.955 279.367 139.101 279.77 139.138C280.174 139.175 280.577 139.175 281.018 139.175C282.815 139.175 284.943 139.175 287.291 139.138C287.878 139.138 288.465 139.065 289.052 138.845C289.603 138.625 290.153 138.295 290.593 137.856C291.033 137.416 291.4 136.867 291.657 136.28C291.877 135.658 291.987 134.998 291.914 134.339C291.804 133.02 291.107 131.774 290.079 131.041C289.566 130.675 288.979 130.455 288.392 130.309C287.805 130.162 287.181 130.089 286.631 130.089C285.457 130.089 284.356 130.345 283.402 130.785C282.925 131.005 282.485 131.261 282.082 131.481C281.641 131.701 281.238 131.957 280.871 132.177C280.1 132.617 279.367 132.983 278.78 133.35C278.156 133.679 277.752 134.156 277.532 134.595C277.275 135.035 277.202 135.401 277.165 135.658C277.092 135.951 277.092 136.097 277.055 136.097C277.055 136.097 277.019 135.951 277.055 135.694C277.092 135.438 277.165 135.035 277.386 134.595C277.606 134.156 278.009 133.643 278.67 133.313C279.293 132.947 279.99 132.544 280.761 132.104C281.164 131.884 281.568 131.664 281.972 131.408C282.412 131.188 282.815 130.895 283.329 130.675C284.283 130.235 285.42 129.942 286.631 129.942C287.218 129.942 287.842 130.016 288.465 130.162C289.052 130.309 289.713 130.529 290.226 130.895C291.327 131.628 292.061 132.91 292.171 134.302C292.207 134.998 292.134 135.694 291.877 136.317C291.62 136.94 291.253 137.526 290.777 137.966C290.3 138.405 289.749 138.772 289.162 138.992C288.575 139.211 287.952 139.285 287.365 139.285C285.017 139.285 282.889 139.285 281.091 139.248C280.651 139.248 280.211 139.248 279.807 139.211C279.403 139.138 279.036 139.028 278.706 138.845C278.083 138.479 277.679 138.002 277.422 137.563C277.202 137.123 277.129 136.72 277.092 136.464C277.055 136.244 277.055 136.097 277.055 136.097Z" fill="#263238"/>
<path d="M415.037 183.84C415.037 183.84 415.037 183.767 415.037 183.583C415.037 183.4 415.074 183.144 415.074 182.851C415.11 182.521 415.147 182.118 415.147 181.641C415.147 181.165 415.184 180.616 415.22 179.993C415.22 179.37 415.22 178.674 415.22 177.941C415.184 177.171 415.184 176.365 415.074 175.486C414.927 173.727 414.633 171.712 414.01 169.587C413.68 168.524 413.349 167.425 412.836 166.289C412.359 165.19 411.772 164.054 411.075 162.955C409.681 160.757 407.699 158.705 405.351 156.983C402.967 155.261 400.179 153.868 397.133 152.916C394.088 151.963 390.75 151.633 387.338 151.597C383.963 151.597 380.624 152.036 377.579 153.026C376.038 153.502 374.607 154.125 373.25 154.821C371.892 155.517 370.645 156.397 369.471 157.276C367.16 159.108 365.215 161.123 363.674 163.212C362.904 164.274 362.28 165.373 361.73 166.436C361.216 167.535 360.739 168.598 360.409 169.66C358.942 173.874 358.465 177.464 358.281 179.956C358.208 181.202 358.245 182.154 358.245 182.814C358.281 183.144 358.281 183.4 358.281 183.547C358.281 183.73 358.281 183.803 358.281 183.803C358.281 183.803 358.281 183.73 358.245 183.547C358.245 183.364 358.208 183.144 358.171 182.814C358.135 182.154 358.098 181.202 358.171 179.956C358.318 177.464 358.758 173.837 360.226 169.624C360.593 168.561 361.033 167.498 361.547 166.399C362.097 165.3 362.721 164.201 363.491 163.138C365.032 161.013 367.013 158.961 369.324 157.129C370.498 156.213 371.746 155.371 373.103 154.638C374.461 153.942 375.928 153.319 377.469 152.843C380.551 151.853 383.889 151.414 387.301 151.414C390.713 151.45 394.052 151.78 397.133 152.733C400.215 153.649 403.04 155.078 405.425 156.836C406.599 157.716 407.699 158.668 408.653 159.694C409.607 160.72 410.488 161.783 411.185 162.882C411.882 163.981 412.506 165.117 412.946 166.253C413.423 167.352 413.79 168.488 414.12 169.55C414.707 171.712 415 173.691 415.147 175.486C415.257 176.365 415.257 177.208 415.294 177.941C415.294 178.71 415.294 179.406 415.294 180.029C415.257 180.652 415.257 181.202 415.22 181.678C415.184 182.154 415.147 182.557 415.11 182.887C415.074 183.217 415.074 183.473 415.037 183.62C415.074 183.767 415.037 183.84 415.037 183.84Z" fill="white"/>
<path d="M325.777 137.93C325.777 137.93 325.74 137.93 325.703 137.93C325.63 137.93 325.557 137.93 325.447 137.93C325.226 137.93 324.896 137.93 324.493 137.967C323.649 137.967 322.438 138.003 320.971 138.04C317.999 138.113 313.89 138.187 309.377 138.333C304.828 138.443 300.719 138.553 297.747 138.553C296.243 138.553 295.069 138.553 294.225 138.553C293.822 138.553 293.492 138.553 293.272 138.553C293.162 138.553 293.088 138.553 293.015 138.553C292.941 138.553 292.941 138.553 292.941 138.553C292.941 138.553 292.978 138.553 293.015 138.553C293.088 138.553 293.162 138.553 293.272 138.553C293.492 138.553 293.822 138.553 294.225 138.516C295.069 138.516 296.28 138.48 297.747 138.443C300.719 138.37 304.828 138.297 309.341 138.15C313.89 138.04 317.962 137.93 320.934 137.93C322.438 137.93 323.612 137.93 324.456 137.93C324.86 137.93 325.19 137.93 325.41 137.93C325.52 137.93 325.593 137.93 325.667 137.93C325.74 137.93 325.777 137.93 325.777 137.93Z" fill="white"/>
<path d="M320.933 143.463C320.933 143.5 319.502 143.573 317.704 143.573C315.943 143.573 314.476 143.536 314.476 143.463C314.476 143.426 315.906 143.353 317.704 143.353C319.465 143.353 320.933 143.389 320.933 143.463Z" fill="white"/>
<path d="M366.058 137.93C366.058 137.967 358.134 138.077 348.338 138.114C338.543 138.187 330.618 138.187 330.618 138.114C330.618 138.077 338.543 137.967 348.338 137.93C358.134 137.893 366.058 137.893 366.058 137.93Z" fill="white"/>
<path d="M374.865 143.133C374.865 143.17 372.627 143.243 369.912 143.28C367.16 143.317 364.922 143.28 364.922 143.243C364.922 143.207 367.16 143.133 369.875 143.096C372.627 143.06 374.865 143.096 374.865 143.133Z" fill="white"/>
<path d="M222.904 140.421C222.904 140.421 222.831 140.458 222.684 140.458C222.538 140.495 222.317 140.495 222.061 140.531C221.804 140.568 221.474 140.605 221.07 140.678C220.703 140.751 220.263 140.788 219.786 140.898C218.832 141.081 217.695 141.301 216.447 141.63C215.2 141.96 213.879 142.4 212.485 142.949C211.091 143.499 209.807 144.085 208.67 144.671C207.532 145.257 206.542 145.844 205.735 146.393C205.331 146.65 204.964 146.906 204.634 147.126C204.304 147.346 204.047 147.529 203.827 147.712C203.607 147.859 203.46 147.968 203.313 148.078C203.203 148.152 203.13 148.188 203.13 148.188C203.13 148.188 203.167 148.115 203.277 148.042C203.387 147.932 203.57 147.822 203.754 147.639C203.974 147.456 204.231 147.272 204.561 147.053C204.891 146.833 205.221 146.576 205.625 146.32C206.432 145.77 207.422 145.184 208.56 144.561C209.697 143.975 210.981 143.352 212.375 142.803C213.769 142.253 215.127 141.85 216.374 141.484C217.621 141.154 218.759 140.934 219.713 140.788C220.19 140.714 220.63 140.641 221.033 140.605C221.4 140.568 221.767 140.531 222.024 140.495C222.281 140.458 222.501 140.458 222.648 140.458C222.831 140.421 222.904 140.421 222.904 140.421Z" fill="white"/>
<path d="M288.429 131.775C288.429 131.775 288.318 131.628 288.062 131.445C287.805 131.262 287.401 131.042 286.851 130.969C286.301 130.895 285.604 131.005 284.906 131.188C284.173 131.372 283.402 131.628 282.595 131.958C281.018 132.654 279.697 133.57 278.853 134.302C277.973 135.035 277.532 135.585 277.496 135.548C277.496 135.548 277.606 135.402 277.789 135.145C278.009 134.889 278.339 134.559 278.743 134.193C279.587 133.423 280.908 132.471 282.522 131.775C283.329 131.408 284.136 131.152 284.87 131.005C285.604 130.822 286.301 130.749 286.888 130.822C287.475 130.895 287.878 131.152 288.135 131.372C288.245 131.481 288.318 131.591 288.392 131.665C288.429 131.738 288.429 131.775 288.429 131.775Z" fill="white"/>
<path d="M406.562 122.101C406.562 122.101 406.012 122.248 404.985 122.248C404.471 122.248 403.847 122.174 403.15 122.028C402.453 121.881 401.646 121.625 400.802 121.295C399.959 120.965 399.041 120.562 398.088 120.159C397.611 119.976 397.097 119.756 396.547 119.537C396.033 119.317 395.483 119.134 394.896 118.95C392.658 118.181 390.126 117.485 387.411 116.899C382.018 115.763 377.029 115.287 373.433 115.177C372.516 115.14 371.709 115.14 371.012 115.104C370.315 115.104 369.691 115.104 369.178 115.104C368.701 115.104 368.297 115.14 368.004 115.14C367.894 115.14 367.784 115.14 367.71 115.14C367.637 115.14 367.6 115.14 367.6 115.14C367.6 115.14 367.637 115.14 367.71 115.14C367.784 115.14 367.894 115.14 368.004 115.104C368.297 115.104 368.664 115.067 369.178 115.03C369.691 115.03 370.315 114.994 371.012 114.994C371.746 114.994 372.553 114.994 373.433 115.03C377.029 115.14 382.055 115.58 387.448 116.716C390.163 117.302 392.694 117.998 394.932 118.767C395.483 118.987 396.033 119.17 396.583 119.353C397.097 119.573 397.611 119.793 398.124 119.976C399.115 120.416 399.995 120.819 400.839 121.149C401.683 121.478 402.453 121.735 403.15 121.881C403.847 122.028 404.471 122.101 404.948 122.138C405.462 122.138 405.829 122.138 406.122 122.101C406.232 122.101 406.342 122.064 406.416 122.064C406.526 122.101 406.526 122.101 406.562 122.101Z" fill="#263238"/>
</g>
<path d="M216 13L239 13L0.500046 13L3.5 13" stroke="black" stroke-dasharray="12 6"/>
<path d="M428.5 155.375L575 155.375" stroke="black" stroke-dasharray="12 6"/>
<defs>
<clipPath id="clip0_2_80">
<rect width="231" height="194.926" fill="white" transform="translate(197 7.41602)"/>
</clipPath>
</defs>
</svg>
