<?xml version="1.0" encoding="utf-8"?>
<!-- Generator: Adobe Illustrator 26.1.0, SVG Export Plug-In . SVG Version: 6.00 Build 0)  -->
<svg version="1.1" id="Layer_1" xmlns="http://www.w3.org/2000/svg" xmlns:xlink="http://www.w3.org/1999/xlink" x="0px" y="0px"
	 viewBox="0 0 324.8 261" style="enable-background:new 0 0 324.8 261;" xml:space="preserve">
<style type="text/css">
	.st0{fill:#EEF5F9;}
	.st1{opacity:0.3;enable-background:new    ;}
	.st2{fill:#EF6238;}
	.st3{fill:#CD5835;}
	.st4{fill:#EF6338;}
	.st5{opacity:0.1;fill:#FFFFFF;enable-background:new    ;}
	.st6{fill:#D4552F;}
	.st7{fill:#FFFFFF;}
	.st8{fill:#BFC8D6;}
	.st9{fill:url(#SVGID_1_);}
	.st10{fill:#E9EDF2;}
	.st11{fill:none;stroke:#000000;stroke-dasharray:12,6;}
</style>
<path class="st0" d="M161.6,37.1c-57.3-1.7-107,41.1-114.5,97.2c-8.2,61.4,37,116.6,92.5,125.5c69.1,11,136.2-52.7,130.1-121.7
	C265.2,86,219.9,38.8,161.6,37.1z"/>
<path d="M252.4,139l2-2.6l-8.4-13.7c0,0-1.4-2.4-2.3-2.3c-0.9,0.2-65.6,0.2-66.5,0c-0.9-0.2-2.3,2.3-2.3,2.3l-8.4,13.7l2,2.6H252.4z
	"/>
<path class="st1" d="M254.4,136.4l-8.4-13.7c0,0-1.4-2.4-2.3-2.3c-0.2,0-4,0.1-9.7,0.1c-0.3,4.3-1,8.5-4.6,11
	c-9.7,6.7-20.9,1.8-31.8,4.6c-2.4,0.7-4.6,1.8-6.8,3h61.6L254.4,136.4z"/>
<path d="M156.5,177.2v11.8c0,0,0.1,5.5,3,5.6c2.9,0.1,8.8,0,8.8,0s2.6-0.2,2.6-2c0-1.7,0-8.7,0-8.7L156.5,177.2z"/>
<path d="M264.9,177.2v11.8c0,0-0.1,5.5-3,5.6c-2.9,0.1-8.8,0-8.8,0s-2.6-0.2-2.6-2c0-1.7,0-8.7,0-8.7L264.9,177.2z"/>
<path class="st2" d="M166.3,138h-1.9c-1.1,0-2-0.9-2-2v-2.1c0-1.2-1.1-2.1-2.3-2c-3.2,0.5-8.8,1.7-8.8,4.3c0,1.2,1.3,3.8,3.7,3.9
	s10.7,0.6,10.7,0.6L166.3,138z"/>
<path class="st3" d="M254.7,138h1.9c1.1,0,2-0.9,2-2v-2.1c0-1.2,1.1-2.1,2.3-2c3.2,0.5,8.8,1.7,8.8,4.3c0,1.2-1.3,3.8-3.7,3.9
	c-2.4,0.1-10.7,0.6-10.7,0.6L254.7,138z"/>
<path class="st2" d="M267.1,158.9c0,0,0.2-3.1-1.6-5.9c-1.3-2.1-6.9-9.5-6.9-9.5l-13.8-23c-0.7-1.2-1.7-1.7-2.7-1.9
	c-0.8-0.2-1.8-0.4-3.4-0.4c-5.1-0.1-51.2-0.1-56.3,0c-1.6,0-2.7,0.2-3.4,0.4c-1,0.2-2,0.7-2.7,1.9l-13.8,23c0,0-5.5,7.5-6.9,9.5
	c-2.1,3.2-1.6,5.9-1.6,5.9s0.6,17.9,0.3,21.7c-0.2,3.8,112.7,3.8,112.4,0C266.5,176.8,267.1,158.9,267.1,158.9z M210.5,138.1
	L210.5,138.1l-40.9-1.1c-0.5-0.1-0.9-0.2-1.3-0.3c1.1-2,5.5-10.3,8.3-13.9l67.8,0.1c2.8,3.6,7.2,11.8,8.2,13.8
	c-0.4,0.1-0.8,0.2-1.3,0.3L210.5,138.1z"/>
<path class="st4" d="M237.6,189.5c0,0,25.1-1,28.3-6.8c1.8-3.2,2-5.4,1.9-6.8c-0.1-0.9-0.9-1.6-1.8-1.4c-3.1,0.4-10.6,1.5-13.5,1.7
	c-10.5,0.7-73.7,0.7-84.2,0c-2.9-0.2-10.4-1.2-13.5-1.7c-0.9-0.1-1.7,0.5-1.8,1.4c-0.1,1.4,0.1,3.6,1.9,6.8
	c3.2,5.8,28.3,6.8,28.3,6.8H237.6z"/>
<path class="st5" d="M168.4,176.1c-2.9-0.2-10.4-1.2-13.5-1.7c-0.4-0.1-0.9,0.1-1.2,0.3c1.6,0.9,3.1,1.9,4.7,2.8c0,0,2.3,1.2,4.7,2
	c9,3.3,45.4,3.3,45.4,3.3s25.3,0.1,43.3-1.4c2-0.2,6.7-0.6,10.8-3.9c1.5-1.2,2.5-2.4,3-3.2c-3.3,0.5-10.2,1.4-13,1.6
	C242.1,176.8,178.9,176.8,168.4,176.1z"/>
<path class="st3" d="M242.8,161.2l-0.8-2c-0.4-1.1-1.5-1.8-2.6-1.8h-57.8c-1.1,0-2.2,0.7-2.6,1.8l-0.8,2c-0.8,1.9,0.6,3.9,2.6,3.9
	h59.5C242.2,165.1,243.6,163,242.8,161.2z"/>
<path class="st6" d="M242.6,169.1l-1.1,0.9c-0.1,0.1-0.3,0.2-0.5,0.2h-61c-0.2,0-0.4-0.1-0.5-0.2l-1.1-0.9c-0.6-0.5-0.3-1.5,0.5-1.5
	h63.2C242.9,167.6,243.2,168.6,242.6,169.1z"/>
<path class="st7" d="M180.7,157.5L168,151c0,0-4.8-2.6-6.6-1.5c-1.9,1.1-2.9,4.3-2.9,6.1c0,1.7,0.2,9.4,20.1,9.4
	c2,0,3.5-1.9,3.8-4.2C182.5,158.4,180.7,157.5,180.7,157.5z"/>
<path class="st7" d="M240.3,157.5L253,151c0,0,4.8-2.6,6.6-1.5c1.9,1.1,2.9,4.3,2.9,6.1c0,1.7-0.2,9.4-20.1,9.4
	c-2,0-3.5-1.9-3.8-4.2C238.5,158.4,240.3,157.5,240.3,157.5z"/>
<path class="st8" d="M283.4,208.7l-231-2v5.8c0,1.6,1,2.9,2.4,3.2l65.3,11.5c0.8,0.1,1.6,0.2,2.3,0.1l158.4-13.1
	c1.4-0.1,2.5-1.5,2.5-3.1L283.4,208.7L283.4,208.7z"/>
<path class="st8" d="M199.6,199.4L54.8,210c-2.6,0.2-4.7-1.8-4.7-4.5V97.4c0-2.7,2.1-4.9,4.7-4.9h144.8c2.1,0,3.9,2,3.9,4.4v97.7
	C203.5,197.1,201.7,199.2,199.6,199.4z"/>
<path d="M201.9,199.4L57.1,210c-2.6,0.2-4.7-1.8-4.7-4.5V97.4c0-2.7,2.1-4.9,4.7-4.9h144.8c2.1,0,3.9,2,3.9,4.4v97.7
	C205.8,197.1,204,199.2,201.9,199.4z"/>
<path class="st7" d="M197.4,192.5l-134.8,9.3c-2.1,0.1-3.8-1.5-3.8-3.7v-94.7c0-2.2,1.7-4,3.8-4l134.8-0.6c1.8,0,3.2,1.6,3.2,3.6
	v86.2C200.6,190.6,199.2,192.3,197.4,192.5z"/>
<linearGradient id="SVGID_1_" gradientUnits="userSpaceOnUse" x1="52.4289" y1="51.5947" x2="283.4191" y2="51.5947" gradientTransform="matrix(1 0 0 -1 0 262)">
	<stop  offset="0.494" style="stop-color:#EBEFF2"/>
	<stop  offset="1" style="stop-color:#FFFFFF"/>
</linearGradient>
<path class="st9" d="M207.7,198.8L52.4,210l67.7,11.9c0.8,0.1,1.6,0.2,2.3,0.1l161-13.3l-73.3-9.9
	C209.3,198.7,208.5,198.7,207.7,198.8z"/>
<path class="st10" d="M75.1,210.1l129.3-9.5l40,5.3l-128.1,10.2L75.1,210.1z"/>
<path class="st10" d="M117,197.9l-55,3.7c-1.6,0.1-3-1.2-3-2.8v-96.6c0-1.5,1.2-2.8,2.8-2.8l55.2-0.2V197.9z"/>
<path class="st10" d="M188,148.2l-58,2v-5.9l58-1.8V148.2z"/>
<path class="st10" d="M188,157.5l-58,2.4V154l58-2.2V157.5z"/>
<path class="st7" d="M104.4,149.1l-33.3,1.1v-4.4l33.3-1.1V149.1z"/>
<path class="st7" d="M104.4,156.2l-33.3,1.3v-4.4l33.3-1.2V156.2z"/>
<path class="st7" d="M104.4,163.2l-33.3,1.4v-4.4l33.3-1.4V163.2z"/>
<path class="st7" d="M104.4,170.3l-33.3,1.6v-4.4l33.3-1.5V170.3z"/>
<path class="st2" d="M180.5,179.6l-40.4,2.2c-2.1,0.1-3.9-1.6-3.9-3.7v-5.3c0-2,1.5-3.6,3.5-3.7l40.4-2.1c2.1-0.1,3.9,1.6,3.9,3.7
	v5.2C184,177.9,182.5,179.5,180.5,179.6z"/>
<path class="st10" d="M182,121c-1.6-1.4-7.9-2.7-7.9-2.7l-4.9,5.4l-16.3,0.3c-5.7-1.7-10.3-3.1-16.1-4.7c-0.2,0-0.6-0.1-1,0.1
	c-0.3,0.2-0.4,0.3-0.3,0.8l0.4,12.8c0,0.4,0.4,0.8,0.8,0.7l2.6-0.1c0,0,0-6.4,5.8-6.5c5.9-0.1,5.8,6.1,5.8,6.1l17.7-0.3
	c0,0-0.3-6.2,5.7-6.3c6-0.1,6.4,6.3,6.4,6.3l2,0c0.6-0.8,2.1-2.9,2.1-5.9c0-0.8,0-2.4-1-4.1C183.5,122.6,183,121.8,182,121z"/>
<path class="st10" d="M138.7,117.7c0,0,11.2-6,19.1-6.1l0.3,10l-5,0.1L138.7,117.7z"/>
<path class="st10" d="M160.8,111.5c0,0,5.7-0.5,11.2,5.8l-4,4.1l-6.9,0.1C161,121.6,160.7,111.5,160.8,111.5z"/>
<path class="st10" d="M146.1,137.4c2.1-0.4,3.4-2.6,2.9-4.8c-0.5-2.2-2.5-3.6-4.6-3.2c-2.1,0.4-3.4,2.6-2.9,4.8
	C141.9,136.4,144,137.8,146.1,137.4z"/>
<path class="st10" d="M175.2,136.9c2.1-0.4,3.4-2.6,2.9-4.8c-0.5-2.2-2.5-3.6-4.6-3.2c-2.1,0.4-3.4,2.6-2.9,4.8
	C171.1,135.9,173.2,137.4,175.2,136.9z"/>
<path class="st11" d="M159.1,35.2V25c0-13.3,10.7-24,24-24l344,0c13.3,0,24,10.7,24,24v12"/>
</svg>
