<?xml version="1.0" encoding="utf-8"?>
<!-- Generator: Adobe Illustrator 26.1.0, SVG Export Plug-In . SVG Version: 6.00 Build 0)  -->
<svg version="1.1" id="Layer_1" xmlns="http://www.w3.org/2000/svg" xmlns:xlink="http://www.w3.org/1999/xlink" x="0px" y="0px"
	 viewBox="0 0 346 262" style="enable-background:new 0 0 346 262;" xml:space="preserve">
<style type="text/css">
	.st0{fill:#EEF5F9;}
	.st1{fill:#222222;}
	.st2{fill:#2F2F2F;}
	.st3{fill:#FFFFFF;}
	.st4{fill:#FFFFFF;stroke:#EF6238;stroke-width:1.0481;stroke-miterlimit:10;}
	.st5{fill:#F8B8A5;}
	.st6{fill:#FAAF3B;}
	.st7{fill:#EF6238;fill-opacity:0.45;}
	.st8{fill:#FDFDFE;}
	.st9{clip-path:url(#SVGID_00000085957492709836095040000006330929575127751827_);}
	.st10{fill:#915046;}
	.st11{fill:#994F39;}
	.st12{fill:#AB6955;}
	.st13{fill:#B57A68;}
	.st14{fill:none;stroke:#A15545;stroke-width:1.8647;stroke-linecap:round;stroke-linejoin:round;stroke-miterlimit:10;}
	.st15{fill:#EF6238;}
	.st16{fill:none;stroke:#9E391B;stroke-width:1.8647;stroke-linecap:round;stroke-miterlimit:10;}
	.st17{fill:#9E391B;}
	.st18{fill:none;stroke:#9E391B;stroke-width:1.8647;stroke-miterlimit:10;}
	.st19{fill:#E8572C;}
	.st20{fill:#0C0C0C;}
	.st21{fill:none;stroke:#000000;stroke-dasharray:12,6;}
</style>
<path class="st0" d="M175.3,15.2C122,13.6,75.9,53.5,68.9,105.8c-7.6,57.2,34.3,108.8,85.9,117c64.2,10.3,126.5-49.1,120.9-113.5
	C271.5,60.8,229.4,16.9,175.3,15.2z"/>
<path class="st1" d="M238.2,189.5h-82.9c-3.1,0-5.5,2.5-5.5,5.6h88.5V189.5z"/>
<path class="st2" d="M265,152.2h-57.4c-1.6,0-3,1-3.6,2.4l-15.8,37.2c-0.6,1.5,0.5,3.2,2.1,3.2h59.3c1.6,0,3-1,3.6-2.4l15.1-35.5
	C269.3,154.8,267.6,152.2,265,152.2z"/>
<path class="st3" d="M235.3,174.4c-0.9,3.6-4.5,6.5-8,6.5c-3.5,0-5.7-2.9-4.9-6.5c0.9-3.6,4.5-6.5,8-6.5S236.2,170.9,235.3,174.4z"
	/>
<path class="st4" d="M281.3,61.8H149.8c-5.9,0-10.7,4.8-10.7,10.8v56.1c0,5.9,4.8,10.8,10.7,10.8h50.6l9,9.1l9-9.1h62.8
	c5.9,0,10.7-4.8,10.7-10.8V72.6C292,66.6,287.2,61.8,281.3,61.8z"/>
<path class="st5" d="M168,94.8c5.7-2.4,8.4-9,6-14.8c-2.4-5.7-9-8.4-14.7-6c-5.7,2.4-8.4,9-6,14.8C155.7,94.5,162.3,97.2,168,94.8z"
	/>
<path class="st6" d="M187.1,74.1l2,6.2l6.5,0l-5.2,3.9l2.1,6.2l-5.3-3.8l-5.2,3.9l1.9-6.2l-5.3-3.8l6.5,0L187.1,74.1z"/>
<path class="st6" d="M207.9,74.1l2,6.2l6.5,0l-5.2,3.9l2,6.2l-5.3-3.8l-5.2,3.9l1.9-6.2l-5.3-3.8l6.5,0L207.9,74.1z"/>
<path class="st6" d="M228.6,74.1l2.1,6.2l6.5,0l-5.2,3.9l2,6.2l-5.3-3.8l-5.2,3.9l2-6.2l-5.3-3.8l6.5,0L228.6,74.1z"/>
<path class="st6" d="M249.3,74.1l2.1,6.2l6.5,0l-5.2,3.9l2,6.2l-5.3-3.8l-5.2,3.9l2-6.2l-5.3-3.8l6.5,0L249.3,74.1z"/>
<path class="st6" d="M270.1,74.1l2,6.2l6.5,0l-5.2,3.9l2.1,6.2l-5.3-3.8l-5.2,3.9l1.9-6.2l-5.3-3.8l6.5,0L270.1,74.1z"/>
<path class="st5" d="M161.7,100.7h-9.9v2.7h9.9V100.7z"/>
<path class="st5" d="M179.1,100.7h-14.9v2.7h14.9V100.7z"/>
<path class="st7" d="M173.2,108.6h-21.4v2.7h21.4V108.6z"/>
<path class="st7" d="M232,108.6h-50v2.7h50V108.6z"/>
<path class="st7" d="M279.3,108.6h-38.5v2.7h38.5V108.6z"/>
<path class="st7" d="M199.7,117h-47.9v2.7h47.9V117z"/>
<path class="st7" d="M279.3,117h-23.9v2.7h23.9V117z"/>
<path class="st7" d="M249.8,117h-41.9v2.7h41.9V117z"/>
<path class="st7" d="M212.9,125.5h-61.1v2.7h61.1V125.5z"/>
<path class="st2" d="M200.1,24.9c0,13.7-11.1,24.9-24.6,24.8c-13.7,0-23.3-10.6-24.6-21.8c-0.9-7.4,1.1-13.9,6-19.5
	C161.7,2.9,168,0,175.4,0C188.9,0,200.2,11,200.1,24.9z"/>
<path class="st8" d="M178.8,34.2c-2.2,0-4.4,0-6.6,0c-0.8,0-1.1-0.2-1.1-1c0-3.4-0.1-6.8,0.1-10.2c0.1-2.2,1-4.1,2.4-5.9
	c0.9-1.2,1.8-2.3,2.9-3.4c0.3-0.3,0.5-0.7,0.5-1.2c0-0.6,0-1.2,0-1.8c0-0.7,0.2-1.3,0.9-1.6c0.7-0.3,1.4-0.1,2,0.4
	c0.6,0.5,0.8,1.2,1,2c0.4,1.9,0.1,3.6-0.6,5.3c-0.2,0.6-0.5,1.2-0.8,1.7c-0.2,0.3,0,0.5,0.3,0.5c0.1,0,0.3,0,0.5,0
	c1.9,0,3.9,0,5.9,0c1.1,0,1.8,0.5,2,1.4c0.3,1-0.1,2.2-1,2.7c-0.4,0.2-0.4,0.3,0,0.5c0.7,0.5,1.2,1.1,1.1,2.1
	c-0.1,0.7-0.5,1.2-1.2,1.5c-0.1,0-0.3,0-0.4,0.2c0,0.2,0.2,0.2,0.3,0.3c0.9,0.7,1.1,2.6-0.3,3.2c-0.2,0.1-0.4,0.2-0.1,0.4
	c0.6,0.6,0.6,1.3,0.3,2c-0.3,0.7-0.9,0.9-1.6,0.9C183.2,34.2,181,34.2,178.8,34.2C178.8,34.2,178.8,34.2,178.8,34.2z"/>
<path class="st8" d="M168.6,36.2c-1.8,0-3.6,0-5.4,0c-0.5,0-0.8-0.3-0.8-0.8c0-0.2,0-0.5,0-0.8c0-3.8,0-7.6,0-11.4
	c0-0.9,0.2-1.2,1.2-1.2c1.6,0,3.3,0,4.9,0c0.6,0,1,0.3,1,0.9c0,4,0,7.9,0,11.9v0c-0.1,0-0.1,0,0,0.1c0,0.4,0,0.8-0.5,1
	c0-0.1,0-0.2-0.2-0.2C168.5,35.9,168.6,36.1,168.6,36.2z"/>
<g>
	<defs>
		<rect id="SVGID_1_" x="70.6" y="59.9" width="131.6" height="134.7"/>
	</defs>
	<clipPath id="SVGID_00000136384418228832471010000008999078572607878589_">
		<use xlink:href="#SVGID_1_"  style="overflow:visible;"/>
	</clipPath>
	<g style="clip-path:url(#SVGID_00000136384418228832471010000008999078572607878589_);">
		<path d="M138.2,91.3c0.7,3.5,0.5,7.1,0.8,10.6c0.2,3.6,1.1,7.2,3.4,9.9c2,2.3,4.9,3.7,6.3,6.4c1.1,2,1.1,4.5,0.2,6.7
			c-0.8,2.1-2.3,4-4.1,5.5c-6,5.1-15.1,5.9-22.2,2.6c-7.1-3.3-12.3-10.3-13.9-18c-1.7-7.7-0.1-15.9,3.7-22.9c2.1-3.9,5.1-7.5,9-9.6
			c3.3-1.7,8.2-2.3,11.5-0.3C135.8,83.9,137.5,88.2,138.2,91.3z"/>
		<path class="st10" d="M195,170.5c0,0-1.3,2.8-4.6,1.1l-2.1,4l5.3,2.8l3.9-7.3L196,164c0,0-1.5,0.6-1.4,2.1
			C194.6,167.6,195,170.5,195,170.5z"/>
		<path class="st11" d="M199.9,180c0-1.7-0.9-3.3-2.4-4l-5.6-3l-1.2,2.2L199.9,180z"/>
		<path class="st12" d="M201.5,182.5c0-1.7-0.9-3.3-2.4-4l-6.4-3.4l-1.2,2.2L201.5,182.5z"/>
		<path class="st6" d="M193.9,157.1l1.9,5.6h5.9l-4.8,3.5l1.8,5.6l-4.8-3.4l-4.7,3.5l1.7-5.7l-4.8-3.4l5.9,0L193.9,157.1z"/>
		<path class="st13" d="M190.3,171.6l0.3-2l2.2-1.8c0.7-0.5,1.1-1.4,1.1-2.2v-0.2l-6.9,2.5l-3,3.6l-1.9,3.7l10.4,5.5l0.7-1.3
			c1.4-2.6,0.4-6-2.2-7.3L190.3,171.6z"/>
		<path class="st13" d="M199.9,184.5c0-1.7-0.9-3.3-2.4-4l-6.4-3.4l-1.2,2.2L199.9,184.5z"/>
		<path class="st14" d="M190.2,171.4c-0.6,1-1.5,1.9-2.4,2.6"/>
		<path class="st13" d="M153,171.4l31.7,0.5l-0.1,4.3l-37.7,5.8L153,171.4z"/>
		<path class="st15" d="M123.7,130.5h9.3c4.4,0,8.3,2.8,9.7,7l13.5,39.6c0,0-0.9,7.3-6.7,8c-2.1,0.2-4.2-0.9-5.2-2.8L123.7,143
			V130.5z"/>
		<path class="st15" d="M147.2,170.7l30.6,1l-10,12.8l-19.3,1.2c-2.6,0.1-4.5-2.2-3.9-4.7l1.3-4.8L147.2,170.7z"/>
		<path class="st16" d="M153,171.4c-2.5,1.5-5.3,3.9-6.6,6.5"/>
		<path class="st16" d="M153,171.4c-3.3,0.1-7.2,0.6-9.6,2.8"/>
		<path class="st3" d="M130.6,216.6c-5,0.5-10.2,0.4-15.2-0.1c-8-0.8-15-4.5-21.8-8.3c-1-0.5-2-1.1-3-1.7
			c3.6-5.8,8.2-11.7,13.5-15.4h26.4l8.6,23.5C136.5,215.7,133.4,216.3,130.6,216.6z"/>
		<path class="st15" d="M100,189.8l-7.7-53.1l3.8-6.2h35.2l9.7,26.1c0,0-8.1,25.1-8.1,34.4l8.9,25.9l-10.5,4l-8.1-24.9l-8.9,24.7
			l-27.6-11.6L100,189.8z"/>
		<path class="st17" d="M92.3,136.7l3.9-6.3h5l1.5,12.6l-2.4,16.1l-2.4,16.1L92.3,136.7z"/>
		<path class="st3" d="M129.7,130.6v29.8l-24.9-29.8H129.7z"/>
		<path class="st13" d="M114.4,137.8c-1.7-0.4-3.4-1-5.1-1.8l-4.8-5.7h25.1v4.4C126.2,138.9,119.5,139,114.4,137.8z"/>
		<path class="st17" d="M104.6,130.4V149h10.6l-5.9,12.5l21.2-0.1L104.6,130.4z"/>
		<path class="st17" d="M129.7,130.4h1.6l12.5,18.6h-9.9l10.6,12.5h-14.1h-0.6L129.7,130.4z"/>
		<path class="st18" d="M129.8,161.5c-2.4,11.4-4.2,22.9-6.6,34.3"/>
		<path class="st19" d="M102.8,130.3h-9.3c-4.4,0-8.3,2.8-9.7,7L70.2,177c0,0,0.1,2.9,1.5,5.5c2.1,4,7.5,5,9.6,1l21.4-40.6
			L102.8,130.3L102.8,130.3z"/>
		<path class="st10" d="M115.7,173l2.6,2.2l6.1,1.4l0-0.2c-0.1-0.9-0.6-1.6-1.4-2.1l-1.6-1.2l0.4-1.7l2.6-2.1l-3.1-2.7l-6.7,4.4
			L115.7,173z"/>
		<path class="st6" d="M121.6,168.6l4.3,4l5.2-2.8l-2.5,5.3l4.2,4l-5.8-0.8l-2.5,5.3l-1.1-5.8l-5.8-0.8l5.2-2.8L121.6,168.6z"/>
		<path class="st10" d="M125.5,170.8c0,0-1.3-2-3.7-0.4l-2.1-3l4.3-3l3.8,5.4l-0.8,4.9c0,0-1.2-0.3-1.4-1.5S125.5,170.8,125.5,170.8
			z"/>
		<path class="st13" d="M115.9,173.4l-2.5-3.4l9.4-7.3l0.9,1.2c1.7,2.4,1.7,4.6,0.1,5.8l-2,1.6L115.9,173.4z"/>
		<path class="st13" d="M129.8,165.8c0.3,0,0.5,0.2,0.4,0.5c-0.4,1-1.4,1.9-2.5,2.1l-5.7,1.4l-0.5-1.9L129.8,165.8z"/>
		<path class="st13" d="M129,157.7c0.3-0.2,0.7,0,0.7,0.3c0,1.4-0.5,2.8-1.7,3.7l-5.7,4.6l-1.6-1.9L129,157.7z"/>
		<path class="st13" d="M130.2,161.7c0.3-0.1,0.7,0.1,0.6,0.4c-0.2,1.4-1.1,2.6-2.4,3.2l-5.7,2.8l-1.1-2.2L130.2,161.7z"/>
		<path class="st19" d="M80.2,169l31.2-0.2l-9.7,13.6L77.6,186c-3.1,0.5-5.8-2.3-5.2-5.4C73.2,175.6,75.3,169.4,80.2,169z"/>
		<path class="st16" d="M88.7,168.9l-10.2,0.2"/>
		<path class="st16" d="M88.7,168.9l-10.6,2.8"/>
		<path class="st13" d="M110.7,105.4l1.1,27.6c0,1.1,1,2,2,2h13.5c1.7,0,2.5-2,1.3-3.2c-2.6-2.5-5.2-6.9-5.2-14.1V106L110.7,105.4z"
			/>
		<path class="st10" d="M116.9,105.7l6.5,0.3v11.6c0,3.2,0.5,5.8,1.3,7.9C117.3,123,114.7,112.9,116.9,105.7z"/>
		<path class="st13" d="M114.1,115.7c-0.9-0.6-1.8-1.4-2.7-2.2c-4.3-4.2-6.9-9.9-7.5-16c-0.6-5.6,0.5-11.2,5.2-14.9
			c5-4,12.7-4.3,18.3-1.6c5.3,2.6,8.3,7.7,9.4,13.4c0.5,2.8,0.7,5.8,0.7,8.6c0,5.4-0.8,15.8-6.9,17.1
			C123.8,121.6,119,119,114.1,115.7z"/>
		<path class="st20" d="M134.8,92.1c1.8,2.5,2.3,5.8,2.8,8.8c1.1-3.9,1.1-8.2,0-12.1c-0.5-1.9-1.3-3.7-2.6-5.1
			c-1.3-1.4-3.1-2.4-5-2.4c-3,0-6.6,4.2-3.5,6.7c0.9,0.8,2.5,0.6,3.6,0.9C132,89.3,133.7,90.4,134.8,92.1z"/>
		<path class="st20" d="M127.6,94.3c-2,1.9-4.5,3.1-7.2,3.6c-2.7,0.6-6,0.4-8.1,2.6c-6.2,6.7-1,14.7,2.2,21.4
			c1.6,3.4,3.3,7.3,2.4,11.1c-1.1,4.9-5.9,7.2-10.5,7.2c-7.6,0-13.5-5.6-15-12.9c-0.8-3.8-0.2-7.5,1.2-11.1c1.4-3.3,3.5-6.1,4.6-9.5
			c1.7-5.4-0.7-11.1,1-16.5c3.4-10.9,20.1-21.6,30.3-12.7C134.4,82.8,132.5,89.9,127.6,94.3z"/>
		<path class="st20" d="M112.7,96.7c-1.4,1.3-2.2,3.1-2.4,5c-0.2,2.1,0.3,4.3,1.4,6.2l1.4-0.2c0.1-2.4,0.8-4.9,1.5-7.2
			c0.3-1.1,0.8-2.1,1.3-3.1C115.5,95.5,114,95.5,112.7,96.7z"/>
		<path class="st13" d="M111.4,104.6c-0.9-0.8-2.3-1.2-3.4-0.8c-0.9,0.4-1.6,1.3-1.8,2.2c-0.2,1,0,2,0.2,2.9c1.1,3,4,5.2,7.1,5.3
			c0.6,0,0.3-5.2,0.2-5.7C113.5,107.1,112.5,105.6,111.4,104.6z"/>
	</g>
</g>
<path d="M86.2,194.7h171.1c1,0,1.9,0.8,1.9,1.9v0c0,1-0.8,1.9-1.9,1.9H86.2c-1,0-1.9-0.8-1.9-1.9v0
	C84.3,195.6,85.2,194.7,86.2,194.7z"/>
<path class="st21" d="M-200,225.1l0,6.6c0,8.5,10.7,15.3,24,15.3h330c13.3,0,24-6.9,24-15.3V224"/>
</svg>
