<svg width="604" height="254" viewBox="0 0 604 254" fill="none" xmlns="http://www.w3.org/2000/svg">
<circle cx="317.4" cy="112" r="112" fill="#EEF5F9"/>
<g clip-path="url(#clip0_2_80)">
<path d="M203.199 146.825H420.883L412.038 114.416H203.199V146.825Z" fill="#1F1F1F"/>
<path d="M364.87 107.124C361.606 107.007 358.215 106.934 354.696 106.934C354.696 106.934 335.2 90.1327 312.642 84.4233C335.827 90.1116 364.87 107.124 364.87 107.124Z" fill="black"/>
<path d="M188.273 119.735V101.182C188.273 101.182 210.194 98.6913 223.45 93.9318C254.13 82.7452 270.629 82.5342 298.492 82.5342C319.647 82.5342 341.078 96.6018 350.168 103.377C353.229 105.657 356.95 106.923 360.777 107.007C394.242 107.736 414.93 114.363 425.209 118.848C430.025 120.948 433.119 125.687 433.119 130.9V137.148C433.81 137.148 434.373 137.707 434.373 138.393V148.756C434.373 149.442 433.81 150.002 433.119 150.002H418.82H413.144C415.121 146.487 416.216 142.403 416.099 138.066C415.791 125.697 405.617 115.629 393.158 115.355C379.944 115.06 369.143 125.613 369.143 138.657C369.143 142.773 370.228 146.646 372.109 150.002H249.24C251.217 146.487 252.312 142.403 252.195 138.066C251.887 125.697 241.714 115.629 229.254 115.355C216.04 115.06 205.24 125.613 205.24 138.657C205.24 142.773 206.324 146.646 208.206 150.002H203.294C186.317 150.002 183.904 132.758 183.745 124.315C183.713 121.793 185.754 119.735 188.273 119.735Z" fill="#E85D34"/>
<path d="M309.25 85.8903C328.64 90.766 349.423 107.409 349.423 107.409L294.399 106.237C292.241 106.195 290.296 104.929 289.392 102.987L280.962 84.9194H301.362C304.02 84.9194 306.667 85.236 309.25 85.8903Z" fill="black"/>
<path d="M277.719 85.3311L285.448 102.902C286.043 104.253 285.044 105.762 283.556 105.762C275.763 105.762 255.289 105.477 243.51 102.544C240.682 101.836 239.725 98.3011 241.83 96.296C246.625 91.7475 257.032 85.3311 277.719 85.3311Z" fill="black"/>
<path d="M431.694 124.937H423.657C423.657 124.937 410.507 112.759 389.416 109.297C389.405 109.297 428.377 113.561 431.694 124.937Z" fill="#B64C41"/>
<path d="M188.273 119.735H190.399C191.59 119.735 192.674 119.059 193.184 117.983C194.417 115.397 197.118 110.49 201.264 107.007C202.869 105.656 201.912 103.05 199.807 103.05H188.273V119.735Z" fill="#B64C41"/>
<path d="M293.814 111.387H304.509C305.104 111.387 305.583 110.912 305.583 110.321C305.583 109.73 305.104 109.255 304.509 109.255H293.814C293.219 109.255 292.741 109.73 292.741 110.321C292.751 110.912 293.23 111.387 293.814 111.387Z" fill="black"/>
<path d="M246.54 111.387H257.234C257.83 111.387 258.308 110.912 258.308 110.321C258.308 109.73 257.83 109.255 257.234 109.255H246.54C245.945 109.255 245.466 109.73 245.466 110.321C245.466 110.912 245.945 111.387 246.54 111.387Z" fill="black"/>
<path d="M255.597 118.278H352.017C356.004 118.278 358.46 122.605 356.387 125.993L350.178 136.124C348.828 138.33 345.873 138.931 343.757 137.433C335.508 131.607 311.759 119.503 255.597 118.278Z" fill="#D45834"/>
<path d="M242.972 153.099C250.947 145.182 250.947 132.346 242.972 124.429C234.997 116.512 222.067 116.512 214.092 124.429C206.117 132.346 206.117 145.182 214.092 153.099C222.067 161.016 234.997 161.016 242.972 153.099Z" fill="black"/>
<path d="M228.532 126.204C235.516 126.204 241.182 131.829 241.182 138.762C241.182 145.696 235.516 151.321 228.532 151.321C221.547 151.321 215.881 145.696 215.881 138.762C215.881 131.829 221.547 126.204 228.532 126.204ZM226.799 127.576C224.046 127.998 221.611 129.391 219.878 131.396L224.269 134.087C224.981 133.443 225.853 132.958 226.799 132.694V127.576ZM230.265 127.576V132.694C231.221 132.958 232.082 133.443 232.795 134.087L237.185 131.396C235.452 129.391 233.029 127.998 230.265 127.576ZM239.046 143.152C239.62 141.801 239.939 140.324 239.939 138.762C239.939 137.19 239.609 135.681 239.024 134.319L234.644 137.01C234.804 137.57 234.9 138.15 234.9 138.762C234.9 139.353 234.815 139.923 234.666 140.461L239.046 143.152ZM230.265 149.949C233.039 149.527 235.484 148.112 237.228 146.076L232.848 143.395C232.125 144.06 231.243 144.556 230.275 144.83V149.949H230.265ZM231.413 138.762C231.413 137.19 230.126 135.913 228.542 135.913C226.958 135.913 225.672 137.19 225.672 138.762C225.672 140.335 226.958 141.611 228.542 141.611C230.126 141.611 231.413 140.335 231.413 138.762ZM226.799 149.949V144.83C225.821 144.556 224.949 144.06 224.226 143.395L219.847 146.076C221.579 148.112 224.024 149.527 226.799 149.949ZM222.419 140.461C222.27 139.923 222.185 139.353 222.185 138.762C222.185 138.15 222.27 137.57 222.44 137.01L218.061 134.319C217.476 135.681 217.146 137.179 217.146 138.762C217.146 140.313 217.465 141.801 218.039 143.152L222.419 140.461Z" fill="#6B6B6B"/>
<path d="M407.056 153.129C415.031 145.212 415.031 132.376 407.056 124.459C399.081 116.542 386.151 116.542 378.176 124.459C370.201 132.376 370.201 145.212 378.176 153.129C386.151 161.046 399.081 161.046 407.056 153.129Z" fill="black"/>
<path d="M392.616 126.225C399.6 126.225 405.266 131.85 405.266 138.783C405.266 145.717 399.6 151.342 392.616 151.342C385.631 151.342 379.965 145.717 379.965 138.783C379.965 131.85 385.631 126.225 392.616 126.225ZM390.883 127.607C388.13 128.029 385.695 129.422 383.962 131.427L388.353 134.119C389.065 133.475 389.937 132.989 390.883 132.725V127.607ZM394.349 127.607V132.725C395.305 132.989 396.166 133.475 396.879 134.119L401.269 131.427C399.536 129.422 397.102 128.019 394.349 127.607ZM403.13 143.173C403.704 141.822 404.023 140.345 404.023 138.783C404.023 137.211 403.693 135.702 403.108 134.34L398.728 137.031C398.888 137.591 398.984 138.171 398.984 138.783C398.984 139.374 398.899 139.944 398.75 140.482L403.13 143.173ZM394.349 149.98C397.123 149.558 399.568 148.144 401.312 146.107L396.932 143.416C396.209 144.081 395.327 144.577 394.359 144.851V149.98H394.349ZM395.486 138.794C395.486 137.221 394.2 135.944 392.616 135.944C391.032 135.944 389.746 137.221 389.746 138.794C389.746 140.366 391.032 141.643 392.616 141.643C394.2 141.643 395.486 140.366 395.486 138.794ZM390.883 149.98V144.862C389.905 144.587 389.033 144.091 388.31 143.427L383.931 146.118C385.663 148.144 388.108 149.558 390.883 149.98ZM386.493 140.482C386.344 139.944 386.259 139.374 386.259 138.783C386.259 138.171 386.344 137.591 386.514 137.031L382.134 134.34C381.549 135.702 381.22 137.2 381.22 138.783C381.22 140.334 381.539 141.822 382.113 143.173L386.493 140.482Z" fill="#6B6B6B"/>
<path d="M303.552 159.236H244.148C242.287 159.236 240.756 157.727 240.756 155.87V37.9466C240.756 36.0998 242.277 34.5801 244.148 34.5801H303.552C305.412 34.5801 306.943 36.0892 306.943 37.9466V155.88C306.943 157.727 305.412 159.236 303.552 159.236Z" fill="black"/>
<path d="M305.412 159.363H246.008C244.148 159.363 242.617 157.854 242.617 155.996V37.4505C242.617 35.6037 244.137 34.084 246.008 34.084H305.412C307.272 34.084 308.803 35.5931 308.803 37.4505V155.996C308.803 157.843 307.272 159.363 305.412 159.363Z" fill="#434343"/>
<path d="M285.405 38.812H268.204C267.832 38.812 267.535 39.1075 267.535 39.4769C267.535 39.8462 267.832 40.1417 268.204 40.1417H285.405C285.777 40.1417 286.075 39.8462 286.075 39.4769C286.075 39.1075 285.777 38.812 285.405 38.812Z" fill="black"/>
<path d="M265.154 38.812C264.782 38.812 264.484 39.1075 264.484 39.4769C264.484 39.8462 264.782 40.1417 265.154 40.1417C265.526 40.1417 265.823 39.8462 265.823 39.4769C265.823 39.1075 265.515 38.812 265.154 38.812Z" fill="black"/>
<path d="M303.159 43.9829H248.134V144.81H303.159V43.9829Z" fill="white"/>
<path d="M303.159 133.106H248.134V144.81H303.159V133.106Z" fill="#EF6238" fill-opacity="0.22"/>
<path d="M283.13 54.5468C282.981 54.5468 282.833 54.4729 282.737 54.3357L278.081 47.476C277.932 47.265 277.996 46.9695 278.208 46.8217C278.421 46.674 278.718 46.7373 278.867 46.9484L283.524 53.808C283.672 54.0191 283.609 54.3146 283.396 54.4623C283.311 54.5151 283.215 54.5468 283.13 54.5468Z" fill="#EF6238"/>
<path d="M283.482 59.1054C283.482 57.8812 284.481 56.8892 285.714 56.8892C286.948 56.8892 287.947 57.8812 287.947 59.1054C287.947 60.3296 286.948 61.3216 285.714 61.3216C284.481 61.3216 283.482 60.3296 283.482 59.1054Z" fill="#EF6238"/>
<path d="M275.551 132.99L268.449 121.434C266.589 118.416 262.698 117.339 259.53 118.964L248.208 124.811V133.148L275.551 132.99Z" fill="#F2F2F2"/>
<path d="M248.209 109.15C248.145 108.59 270.363 97.2032 278.325 93.1402C279.824 92.3803 280.324 90.5018 279.41 89.0982L278.984 88.4439C278.41 87.568 277.262 87.262 276.316 87.7263L265.6 93.0979C263.485 94.1533 260.912 93.4462 259.647 91.4622L248.134 72.54L248.209 109.15Z" fill="#F2F2F2"/>
<path d="M253.96 53.6497L259.275 62.6623C260.37 64.5091 262.752 65.1529 264.633 64.1081L270.236 61.0054C271.384 60.3722 272.138 59.2008 272.255 57.9027C272.372 56.6258 272.681 54.9583 273.467 53.5442C274.158 52.3095 274.105 50.8003 273.372 49.5972C272.649 48.4258 271.373 47.7188 269.991 47.7188H257.383C254.321 47.7293 252.418 51.0325 253.96 53.6497Z" fill="#F2F2F2"/>
<path d="M303.148 57.2061V78.8826C301.904 74.3447 299.725 70.2605 298.353 67.9599C297.673 66.8201 297.588 65.4377 298.066 64.2029C298.524 63.0315 298.757 61.8179 298.864 60.8259C299.013 59.4117 300.001 58.2297 301.362 57.7865L303.148 57.2061Z" fill="#F2F2F2"/>
<path d="M301.096 94.3012C302 93.2247 302.68 92.0533 303.148 90.8291V102.997L300.65 97.7943C300.097 96.644 300.267 95.2721 301.096 94.3012Z" fill="#F2F2F2"/>
<path d="M303.148 123.397V133.148H291.497L279.101 114.247C277.507 111.82 278.315 108.559 280.866 107.145L284.364 105.203C287.404 103.514 291.242 104.485 293.091 107.419L303.148 123.397Z" fill="#F2F2F2"/>
<path d="M266.217 75.2734L277.858 69.0469C278.432 68.7409 279.112 68.7092 279.707 68.973C281.206 69.6168 284.236 70.7777 286.639 70.7671C287.457 70.7671 288.201 71.2209 288.563 71.9491C289.434 73.7326 290.944 77.0358 291.763 80.1596C292.358 82.418 289.349 83.811 287.978 81.9114L282.758 74.7035C282.184 73.9014 281.121 73.606 280.207 73.9859L268.046 79.062C267.046 79.4736 265.898 79.0831 265.377 78.1544C264.793 77.1308 265.175 75.8327 266.217 75.2734Z" fill="#F2F2F2"/>
<path d="M289.913 136.997H261.507C261.178 136.997 260.912 137.26 260.912 137.588C260.912 137.915 261.178 138.179 261.507 138.179H289.902C290.231 138.179 290.497 137.915 290.497 137.588C290.508 137.26 290.231 136.997 289.913 136.997Z" fill="#EF6238"/>
<path d="M289.913 139.593H261.507C261.178 139.593 260.912 139.857 260.912 140.184C260.912 140.511 261.178 140.775 261.507 140.775H289.902C290.231 140.775 290.497 140.511 290.497 140.184C290.508 139.857 290.231 139.593 289.913 139.593Z" fill="#EF6238"/>
<path d="M253.864 135.308C252.461 135.308 251.323 136.437 251.323 137.83C251.323 139.223 253.864 142.316 253.864 142.316C253.864 142.316 256.405 139.223 256.405 137.83C256.405 136.437 255.267 135.308 253.864 135.308ZM253.864 138.991C253.205 138.991 252.673 138.464 252.673 137.809C252.673 137.155 253.205 136.627 253.864 136.627C254.523 136.627 255.055 137.155 255.055 137.809C255.044 138.464 254.512 138.991 253.864 138.991Z" fill="#EF6238"/>
<path d="M272.659 86.9351C271.256 86.9351 270.118 88.0643 270.118 89.4573C270.118 90.8504 272.659 93.9425 272.659 93.9425C272.659 93.9425 275.2 90.8504 275.2 89.4573C275.2 88.0643 274.062 86.9351 272.659 86.9351ZM272.659 90.6076C272 90.6076 271.468 90.08 271.468 89.4257C271.468 88.7713 272 88.2437 272.659 88.2437C273.318 88.2437 273.85 88.7713 273.85 89.4257C273.85 90.08 273.318 90.6076 272.659 90.6076Z" fill="#EF6238"/>
<path d="M282.216 133.159L266.408 107.504C266.27 107.282 265.983 107.219 265.76 107.345C265.536 107.482 265.473 107.767 265.6 107.989L281.11 133.159H282.216Z" fill="#EF6238"/>
<path d="M281.929 122.986C281.929 123.577 281.451 124.062 280.845 124.062C280.249 124.062 279.76 123.587 279.76 122.986C279.76 122.384 280.239 121.909 280.845 121.909C281.44 121.909 281.929 122.395 281.929 122.986Z" fill="#EF6238"/>
<path d="M280.845 120.347C279.378 120.347 278.187 121.529 278.187 122.985C278.187 124.442 279.378 125.624 280.845 125.624C282.312 125.624 283.502 124.442 283.502 122.985C283.502 121.529 282.312 120.347 280.845 120.347ZM280.845 125.149C279.643 125.149 278.665 124.178 278.665 122.985C278.665 121.793 279.643 120.822 280.845 120.822C282.046 120.822 283.024 121.793 283.024 122.985C283.024 124.178 282.046 125.149 280.845 125.149Z" fill="#EF6238"/>
<path d="M227.479 52.6577V53.4703C227.479 53.4703 227.702 56.0031 224.555 56.3831C221.408 56.7524 218.825 56.7102 218.91 54.7473C219.197 53.2276 219.697 50.8742 219.718 49.6289C219.729 49.1646 219.697 48.6686 219.601 48.1093L225.703 47.9932L227.5 48.2887L227.479 52.6577Z" fill="#FFB27D"/>
<path d="M227.5 48.2679L227.478 52.658C226.83 52.9535 226.096 53.1435 225.278 53.1435C222.471 53.1435 220.664 51.1067 219.718 49.6187C219.729 49.1543 219.697 48.6583 219.601 48.099L225.703 47.9829L227.5 48.2679Z" fill="#E2915A"/>
<path d="M219.133 47.1173C219.846 50.8954 224.757 50.7688 226.883 50.5366C227.479 50.4733 227.861 50.3994 227.861 50.3994C228.531 50.22 228.914 49.1647 229.084 47.7822C229.435 45.0489 228.988 41.0386 228.531 40.0149C227.829 38.4741 226.511 36.8067 221.568 38.0098C216.614 39.2129 218.23 42.2733 219.133 47.1173Z" fill="#FFB27D"/>
<path d="M215.115 159.046H222.078C222.025 158.687 221.844 157.579 221.526 156.566C221.409 156.207 221.281 155.869 221.132 155.574C220.452 154.234 216.157 155.088 216.157 155.088C216.157 155.088 215.753 155.426 215.445 156.724C215.307 157.294 215.179 158.054 215.115 159.046Z" fill="black"/>
<path d="M236.153 156.872C236.174 157.811 236.291 158.698 236.631 159.056H250.409C250.239 158.56 249.739 157.822 248.325 157.59C246.72 157.336 244.211 156.566 242.755 155.025C242.234 154.476 241.841 153.833 241.67 153.083C241.022 150.223 236.313 153.959 236.313 153.959C236.313 153.959 236.132 155.468 236.153 156.872Z" fill="black"/>
<path d="M227 125.909C227.191 126.954 227.308 127.819 227.351 128.431C227.787 136.905 234.537 156.292 235.749 156.746C237.62 157.442 240.565 155.954 242.095 155.469C242.733 155.268 243.159 154.624 243.02 153.981C239.682 138.721 238.449 116.749 238.003 103.747C237.779 97.1932 236.642 92.6658 236.642 92.6658C236.642 92.6658 220.175 88.3073 220.079 93.8267C219.984 98.7129 225.533 117.857 227 125.909Z" fill="#2B2B2B"/>
<path d="M227 125.909L238.003 103.747C237.779 97.1932 236.642 92.6658 236.642 92.6658C236.642 92.6658 220.175 88.3073 220.079 93.8267C219.984 98.7129 225.533 117.857 227 125.909Z" fill="#232323"/>
<path d="M230.657 93.8476L221.95 156.471C221.95 156.471 218.123 157.389 215.157 156.65C215.157 156.65 212.606 123.344 212.819 115.292C213.031 107.24 210.99 93.742 213.286 92.254C215.583 90.7765 230.657 93.8476 230.657 93.8476Z" fill="#2B2B2B"/>
<path d="M230.041 36.4269C230.041 36.4269 227.861 36.258 225.289 35.1499C223.205 34.2529 220.569 35.2449 219.718 35.6881C219.739 35.5509 219.793 35.361 219.931 35.1816C219.931 35.1816 219.548 35.456 219.495 35.8253C219.452 35.857 219.442 35.8781 219.452 35.8781C219.452 35.8781 219.017 35.8042 218.74 35.9203C218.74 35.9203 218.932 35.8886 219.006 36.0153C219.017 36.0258 219.027 36.0364 219.038 36.047C215.785 37.6088 215.487 42.7061 216.529 43.8881C217.783 45.3128 219.304 48.5104 219.304 48.5104C219.304 48.5104 219.856 47.7506 219.623 46.5053C219.389 45.26 220.484 45.26 221.855 44.6901C223.226 44.1203 222.089 42.5267 223.29 41.5663C224.491 40.5954 228.903 41.1653 228.839 40.4266C230.466 39.8356 230.041 36.5852 230.041 36.4269Z" fill="black"/>
<path d="M218.166 55.8237L220.175 98.512C220.175 98.512 236.897 98.7864 236.419 95.0294C235.94 91.2724 230.391 57.1323 230.391 57.1323L218.166 55.8237Z" fill="white"/>
<path d="M212.191 80.0226C213.191 82.988 211.309 92.9293 210.639 96.2958C210.491 97.0134 210.395 97.425 210.395 97.425C212.712 101.161 221.196 101.119 221.196 101.119C222.822 93.9635 223.673 82.5659 223.673 82.5659L217.167 54.2407L208.981 61.7547C208.981 61.7547 209.598 66.3349 210.363 70.9994C210.969 74.6931 211.649 78.4501 212.191 80.0226Z" fill="#2D2D2D"/>
<path d="M226.107 47.7401C226.107 47.7401 226.266 48.2255 227.51 48.0461C227.51 48.0461 228.552 47.8984 228.478 47.3496C228.478 47.3602 227.425 47.0541 226.107 47.7401Z" fill="white"/>
<path d="M235.515 56.4359C235.515 56.4359 235.515 56.4464 235.515 56.457C235.909 56.8369 247.081 67.6013 249.239 71.8121C251.44 76.0862 239.172 84.6027 239.172 84.6027C239.172 84.6027 238.386 84.9088 237.833 84.7927C238.407 89.5206 239.055 93.8791 238.673 95.7471C237.982 99.1136 234.846 100.243 234.846 99.979C234.846 99.8945 234.038 87.7054 233.081 81.4156C230.944 67.443 228.403 54.3252 228.403 54.3252C232.05 54.7051 235.515 56.4359 235.515 56.4359ZM242.159 73.6589C242.181 73.6378 242.181 73.6062 242.181 73.5956C242.181 72.9835 239.81 71.6221 237.259 70.018C237.227 69.9864 237.206 69.9653 237.206 69.9653C237.248 71.2739 237.248 72.5614 237.163 73.7539C237.014 75.9701 237.184 78.6296 237.45 81.3207C238.662 79.4316 241.926 74.3554 242.159 73.6589Z" fill="#2B2B2B"/>
<path d="M217.688 54.1882C217.666 53.7766 219.612 53.2173 219.612 53.2173C219.612 53.2173 221.834 56.2778 225.501 56.3305C225.501 56.3305 224.459 58.3462 223.226 58.8739C223.226 58.8739 217.805 56.6049 217.688 54.1882Z" fill="#D9E9F9"/>
<path d="M230.647 85.1833C230.562 86.1754 230.094 87.1041 229.35 87.79L228.18 88.8559C227.883 89.1197 227.426 89.0881 227.181 88.7715L225.735 86.9458C225.353 86.4603 225.161 85.8377 225.225 85.2256C225.363 83.8431 225.608 81.1942 225.81 78.6297C225.969 76.5507 226.107 74.535 226.118 73.3108C226.15 69.3955 225.363 56.9004 225.363 56.9004L226.309 56.9532C226.309 56.9532 228.659 61.8077 229.892 68.4035C230.2 70.0287 230.434 71.7595 230.551 73.5536C230.562 73.543 231.051 80.6771 230.647 85.1833Z" fill="#EF6238"/>
<path d="M230.647 85.1834C230.562 86.1754 230.094 87.1041 229.35 87.7901L228.18 88.856C227.883 89.1198 227.426 89.0882 227.181 88.7716L225.735 86.9458C225.353 86.4604 225.161 85.8377 225.225 85.2257C225.363 83.8432 225.608 81.1943 225.81 78.6298C228.425 75.7171 229.488 71.6857 229.892 68.3931C230.2 70.0183 230.434 71.749 230.551 73.5431C230.562 73.5431 231.051 80.6772 230.647 85.1834Z" fill="#D45834"/>
<path d="M225.501 56.2672C225.501 56.2672 227.447 55.1274 227.447 53.8821C227.447 53.8821 228.701 53.7238 229.243 54.3253C229.243 54.3253 229.701 56.4466 229.095 57.6813C229.105 57.6813 226.309 57.2592 225.501 56.2672Z" fill="#D9E9F9"/>
<path d="M224.183 56.0772L226.82 55.4546C226.82 55.4546 227.16 55.4862 227.149 55.9084C227.138 56.3305 226.405 57.5758 226.086 57.6814C225.756 57.7763 223.556 56.9426 224.183 56.0772Z" fill="#BA4C43"/>
<path d="M217.996 53.9772C217.975 53.5656 219.293 52.7319 219.293 52.7319C219.293 52.7319 221.844 55.6869 225.501 55.7396C225.501 55.7396 224.459 57.7553 223.226 58.283C223.226 58.283 218.113 56.3939 217.996 53.9772Z" fill="#E9F3FE"/>
<path d="M225.501 55.7397C225.501 55.7397 227.468 54.7054 227.468 53.4707C227.468 53.4707 228.659 53.9878 229.201 54.5894C229.201 54.5894 229.711 55.9296 229.095 57.1644C229.105 57.1644 226.309 56.7422 225.501 55.7397Z" fill="#E9F3FE"/>
<path d="M239.959 85.2994C239.959 84.2124 238.991 83.3365 237.907 83.5053C237.609 83.5475 237.333 83.6742 237.142 83.9274C236.397 84.9089 235.685 87.7794 237.003 87.9166C237.545 87.9694 238.236 87.6 238.768 87.199C239.31 86.7874 239.948 86.1542 239.948 85.4788V85.2994H239.959Z" fill="#FFB27D"/>
<path d="M210.64 96.2959C213.042 93.8158 217.178 88.9402 217.039 84.9405C216.848 79.3367 210.363 70.9995 210.363 70.9995C210.969 74.6932 211.65 78.4502 212.192 80.0226C213.191 82.9881 211.309 92.9294 210.64 96.2959Z" fill="#232323"/>
<path d="M210.714 86.5552C210.714 86.5552 212.436 87.41 213.489 86.9879C214.53 86.5552 215.764 86.2386 216.933 87.5577C218.102 88.8769 218.347 89.7951 218.102 90.2805C217.858 90.766 215.126 90.5866 214.679 90.2805C214.222 89.9745 213.51 89.2252 213.053 89.3518C211.798 89.7106 210.746 88.7608 210.151 88.0115C209.8 87.5577 210.767 87.3361 210.714 86.5552Z" fill="#FFB27D"/>
<path d="M217.167 54.2407C217.167 54.2407 210.299 55.0006 208.683 57.9661C207.057 60.9315 198.637 72.9624 198.914 77.9647C199.19 82.967 210.406 88.5708 210.406 88.5708C210.406 88.5708 212.893 87.526 212.925 86.4073C212.957 85.2887 205.175 78.5873 205.643 77.342C206.111 76.0967 214.69 66.2082 215.519 62.9472C216.348 59.6862 217.167 54.2407 217.167 54.2407Z" fill="#2B2B2B"/>
<path d="M237.205 69.9656C237.205 69.9656 237.227 69.9867 237.259 70.0183C239.821 71.6224 242.181 72.9838 242.181 73.5959C242.521 72.5089 239.193 67.971 238.12 67.0528C237.025 66.1136 237.205 69.9656 237.205 69.9656Z" fill="#232323"/>
<path d="M219.293 52.7319C219.293 52.7319 224.502 74.4085 223.673 82.5768C223.673 82.5768 221.759 73.8492 217.146 66.7046C217.146 66.7046 218.825 65.2376 218.74 64.6889C218.74 64.6889 217.486 64.3195 216.274 64.5728C216.274 64.5728 216.412 55.2331 217.167 54.2411C217.922 53.249 219.293 52.7319 219.293 52.7319Z" fill="#232323"/>
<path d="M227.468 53.4707C227.394 53.5024 232.635 74.6513 233.07 81.4159C233.07 81.4159 232.55 69.3324 232.603 65.8603C232.603 65.8603 230.434 64.7206 230.434 64.3195C230.434 63.9185 232.741 62.8421 232.741 62.8421C232.741 62.8421 231.274 55.402 230.477 54.5788C229.69 53.7662 227.468 53.4707 227.468 53.4707Z" fill="#232323"/>
<path d="M302.62 113.244L292.1 94.66C294.451 92.9187 295.979 90.5442 296.655 87.5788C298.584 78.9883 292.6 67.9496 290.612 64.6042C291.944 63.2111 292.776 61.2587 292.776 59.1059C292.776 54.874 289.583 51.4336 285.656 51.4336C281.728 51.4336 278.535 54.874 278.535 59.1059C278.535 59.8974 278.643 60.6572 278.849 61.3748C271.189 66.1555 262.933 71.1789 260.004 72.7513L249.818 54.3674C249.397 53.6181 249.926 56.0137 249.23 56.457C248.535 56.9108 248.3 57.8817 248.721 58.6415L261.845 82.2282C263.295 84.8349 266.38 85.753 268.868 84.3072L277.213 79.4632C278.398 78.7773 279.877 79.21 280.582 80.4447L287.987 93.5203C273.099 102.026 251.708 114.152 250.053 114.849C249.308 115.091 248.858 115.914 249.044 116.738C249.201 117.466 248.212 119.123 248.878 119.123C248.985 119.123 248.398 119.059 248.515 119.028C248.887 118.933 251.767 117.677 271.415 106.543C279.035 102.227 286.625 97.8894 289.524 96.243L302.551 119.08C302.825 119.576 300.866 115.672 301.356 115.672C301.621 115.672 301.885 115.598 302.12 115.44C302.825 114.975 303.041 113.994 302.62 113.244ZM285.646 54.6101C287.938 54.6101 289.809 56.6258 289.809 59.0953C289.809 61.5648 287.938 63.5805 285.646 63.5805C283.354 63.5805 281.483 61.5648 281.483 59.0953C281.483 56.6258 283.354 54.6101 285.646 54.6101ZM275.822 76.6666L267.467 81.5106C266.37 82.1438 265.009 81.7428 264.372 80.5924L261.532 75.4741C263.021 74.6615 265.832 73.0363 271.336 69.6698C275.009 67.4324 278.604 65.1951 280.298 64.1398C281.601 65.7439 283.52 66.7676 285.656 66.7676C286.518 66.7676 287.34 66.5987 288.104 66.2927C288.839 67.538 290.23 70.018 291.474 73.0152C293.08 76.8671 294.774 82.3971 293.775 86.8295C293.295 88.9718 292.228 90.6603 290.553 91.9373L283.099 78.7773C281.581 76.1073 278.388 75.168 275.822 76.6666Z" fill="#F5F5F5"/>
<path d="M290.288 56.6364C290.132 56.6364 289.985 56.552 289.906 56.3937C289.789 56.172 289.867 55.8871 290.073 55.7605L301.797 48.7003C302.003 48.5736 302.267 48.6581 302.385 48.8797C302.502 49.1013 302.424 49.3862 302.218 49.5129L290.504 56.5836C290.435 56.6258 290.357 56.6364 290.288 56.6364Z" fill="#F5F5F5"/>
<path d="M440.698 159.721H183.334C183.153 159.721 183 159.519 183 159.279C183 159.039 183.153 158.837 183.334 158.837H440.708C440.889 158.837 441.042 159.039 441.042 159.279C441.032 159.532 440.88 159.721 440.698 159.721Z" fill="black"/>
</g>
<path d="M604 56L418 56" stroke="black" stroke-dasharray="12 6"/>
<path d="M1.00058 217L1.00055 229C1.00052 242.255 11.7457 253 25.0006 253L369 253C382.255 253 393 242.255 393 229L393 196.665" stroke="black" stroke-dasharray="12 6"/>
<defs>
<clipPath id="clip0_2_80">
<rect width="287.304" height="153.878" fill="white" transform="translate(183 5.84326)"/>
</clipPath>
</defs>
</svg>
