<svg width="668" height="262" viewBox="0 0 668 262" fill="none" xmlns="http://www.w3.org/2000/svg">
<circle cx="289" cy="112" r="112" fill="#EEF5F9"/>
<g clip-path="url(#clip0_2_80)">
<path d="M317.72 33.5006L253.607 26.8936L189.495 34.3656V193.445L253.607 189.505L317.72 193.866L381.752 187.208V29.8082L317.72 33.5006Z" fill="#565656"/>
<path d="M254.98 185.878L194.066 189.614V38.7122L254.98 31.6182V185.878Z" fill="white"/>
<path d="M315.901 190.021L254.98 185.878V31.6182L315.901 37.8909V190.021Z" fill="#EEEEEE"/>
<path d="M376.741 183.698L315.901 190.021V37.8911L376.741 34.3804V183.698Z" fill="white"/>
<path d="M254.98 31.6182H253.6V185.922H254.98V31.6182Z" fill="white"/>
<g opacity="0.69">
<path opacity="0.69" d="M331.909 41.8662L347.133 53.3808L336.754 62.996L324.522 51.7528L331.909 41.8662Z" fill="url(#paint0_linear_2_80)"/>
<path opacity="0.69" d="M243.154 153.366L255.499 159.642L267.808 157.631L266.695 149.317L255.499 146.757L243.154 153.366Z" fill="#F6E5E0"/>
<path opacity="0.69" d="M230.564 64.8325L197.066 76.4863L197.784 79.2066L202.622 77.5229L233.62 87.2077L234.134 85.0161L206.192 76.2845L230.169 67.9425L252.541 84.9118L249.464 109.409L225.001 111.406L203.481 144.781L205.467 146.478L226.303 114.147L251.626 112.081L255.217 83.5342L230.564 64.8325Z" fill="#FFDCD1"/>
<path opacity="0.69" d="M220.107 163.19L194.531 138.248L196.129 136.084L221.705 161.02L220.107 163.19Z" fill="#FFEEE9"/>
<path opacity="0.69" d="M318.255 138.338L302.988 95.1045L300.7 96.1759L308.727 118.92L269.73 132.71L270.455 135.43L309.664 121.564L315.966 139.403L318.255 138.338Z" fill="url(#paint1_linear_2_80)"/>
<path opacity="0.69" d="M350.858 129.927L343.429 139.222L328.754 106.09L326.987 107.12L341.993 140.989L342.035 140.961L336.317 148.12L338.134 150.048L352.682 131.847L350.858 129.927Z" fill="url(#paint2_linear_2_80)"/>
<path opacity="0.69" d="M309.988 87.5419L305.024 67.9914L298.954 50.1734L271.793 52.031L271.646 49.1923L300.601 47.2095L307.383 67.1356L312.361 86.7487L309.988 87.5419Z" fill="url(#paint3_linear_2_80)"/>
<path opacity="0.69" d="M231.901 65.0693L229.93 64.8954L230.965 49.415L255.696 55.2941L255.294 57.5274L232.76 52.1702L231.901 65.0693Z" fill="#FFEEE9"/>
<path opacity="0.69" d="M336.444 64.6587L335.212 62.8776L345.5 53.4294L331.247 41.6295L332.402 39.7788L348.774 53.332L336.444 64.6587Z" fill="url(#paint4_linear_2_80)"/>
<path opacity="0.69" d="M255.921 179.192L219.55 162.55L220.466 159.906L255.034 175.727L264.878 159.899L256.034 162.327L240.964 154.264L242.007 151.689L256.294 159.336L270.73 155.363L255.921 179.192Z" fill="#FFEEE9"/>
<path opacity="0.69" d="M334.923 148.67L310.171 179.478L285.032 152.594L270.871 132.035L269.322 133.447L283.525 154.076L283.574 154.145L308.833 181.147L304.911 186.039L306.721 187.966L336.74 150.597L334.923 148.67Z" fill="#FFDCD1"/>
</g>
<path d="M263.498 86.324L254.865 75.3382C235.507 67.4902 213.459 59.3778 196.361 58.4455L196.467 55.8921C213.931 56.8453 236.295 65.0899 255.864 73.0353L256.132 73.1466L265.146 84.6125L263.498 86.324Z" fill="#EF6238"/>
<path d="M372.131 173.863C353.274 160.546 331.951 145.894 317.135 140.23L268.969 160.678L268.202 158.278L317.093 137.524L317.459 137.663C332.521 143.313 354.182 158.188 373.3 171.685L372.131 173.863Z" fill="#EF6238"/>
<path d="M278.082 77.1541L263.294 35.0475L265.357 34.0874L280.145 76.194L278.082 77.1541Z" fill="#EF6238"/>
<path d="M345.091 88.808C341.267 71.7414 333.895 59.9902 322.564 52.8727L323.628 50.6255C329.881 54.5495 335.064 59.8998 339.042 66.5372C342.648 72.5624 345.338 79.6381 347.246 88.168L345.091 88.808Z" fill="#EF6238"/>
<path d="M229.62 158.96L227.768 157.527L249.619 118.836L251.478 120.27L229.62 158.96Z" fill="#EF6238"/>
<path d="M351.225 90.262L287.032 87.319L287.123 84.7586L350.83 87.6808L374.202 76.6602L375.047 79.0326L351.225 90.262Z" fill="#EF6238"/>
<path d="M197.826 173.717L197.023 171.33L255.344 145.456L266.801 146.764L266.582 149.31L255.653 148.065L197.826 173.717Z" fill="#EF6238"/>
<path d="M272.983 121.779C247.943 121.473 224.479 120.012 212.508 105.645L214.114 103.878C225.486 117.528 248.457 118.927 273.004 119.226L272.983 121.779Z" fill="#EF6238"/>
<path d="M270.786 182.316L265.554 146.458L265.632 146.165L280.708 90.8814L287.461 77.7249L314.206 61.1035L332.043 38.5195L333.691 40.245L315.6 63.142L289.067 79.6382L282.75 91.932L267.836 146.639L272.976 181.892L270.786 182.316Z" fill="#EF6238"/>
<path d="M374.709 179.568L343.464 114.536L285.701 90.1991L275.42 87.3814L238.105 84.1322L196.904 118.864L195.587 116.798L237.45 81.5093L237.859 81.5441L275.765 84.8419L286.341 87.7432L286.405 87.771L345.007 112.463L345.211 112.88L376.652 178.329L374.709 179.568Z" fill="#EF6238"/>
<path d="M281.497 91.1692C285.772 91.1692 289.238 87.7229 289.238 83.4718C289.238 79.2206 285.772 75.7744 281.497 75.7744C277.222 75.7744 273.756 79.2206 273.756 83.4718C273.756 87.7229 277.222 91.1692 281.497 91.1692Z" fill="#EF6238"/>
<path d="M281.497 88.9887C284.558 88.9887 287.04 86.5187 287.04 83.4719C287.04 80.425 284.558 77.9551 281.497 77.9551C278.436 77.9551 275.954 80.425 275.954 83.4719C275.954 86.5187 278.436 88.9887 281.497 88.9887Z" fill="#2A2A2A"/>
<path d="M324.037 170.215C329.651 170.215 334.202 165.685 334.202 160.097C334.202 154.509 329.651 149.979 324.037 149.979C318.422 149.979 313.871 154.509 313.871 160.097C313.871 165.685 318.422 170.215 324.037 170.215Z" fill="#EF6238"/>
<path d="M375.274 48.3647C375.274 67.6118 346.15 116.711 330.974 140.937C329.798 142.819 327.257 143.96 322.561 143.96C320.334 143.96 321.21 142.812 320.034 140.937C304.859 116.711 275.742 67.6191 275.742 48.372C275.742 23.2665 298.023 2.92188 325.512 2.92188C352.993 2.92188 375.274 23.2665 375.274 48.3647Z" fill="#A33717"/>
<path d="M372.331 48.3647C372.331 67.6118 343.207 116.711 328.031 140.937C326.856 142.819 324.789 143.96 322.561 143.96C320.334 143.96 318.275 142.812 317.092 140.937C301.916 116.711 272.799 67.6191 272.799 48.372C272.807 23.2665 295.081 2.92188 322.569 2.92188C350.05 2.92188 372.331 23.2665 372.331 48.3647Z" fill="#EF6238"/>
<path opacity="0.36" d="M345.256 71.8291C357.117 60.0238 357.117 40.8835 345.256 29.0781C333.394 17.2727 314.164 17.2727 302.302 29.0781C290.441 40.8835 290.441 60.0238 302.302 71.8291C314.164 83.6345 333.394 83.6345 345.256 71.8291Z" fill="white"/>
<path opacity="0.36" d="M320.838 69.4655C333.035 69.4655 342.922 59.6246 342.922 47.4854C342.922 35.3462 333.035 25.5054 320.838 25.5054C308.641 25.5054 298.754 35.3462 298.754 47.4854C298.754 59.6246 308.641 69.4655 320.838 69.4655Z" fill="white"/>
<path d="M322.569 88.7924C302.215 88.7924 285.652 72.3074 285.652 52.05C285.652 51.6866 285.952 51.3886 286.317 51.3886C286.682 51.3886 286.981 51.6866 286.981 52.05C286.981 71.5878 302.946 87.4768 322.576 87.4768C342.206 87.4768 358.163 71.5878 358.163 52.05C358.163 32.5122 342.199 16.6232 322.569 16.6232C311.22 16.6232 300.813 21.8202 294.021 30.8913C293.802 31.182 293.386 31.2402 293.094 31.0221C292.802 30.8041 292.743 30.3898 292.963 30.099C300.01 20.6935 310.804 15.3003 322.576 15.3003C342.929 15.3003 359.492 31.7853 359.492 52.0427C359.485 72.3147 342.922 88.7924 322.569 88.7924Z" fill="white"/>
<path d="M292.451 139.665L225.286 181.866C222.468 183.632 221.766 187.419 223.753 190.079L224.081 190.515C225.841 192.87 229.194 193.343 231.545 191.569L295.241 143.64L292.451 139.665Z" fill="#212121"/>
<path opacity="0.19" d="M330.187 151.715C350.071 147.413 362.75 128.172 358.506 108.739C354.262 89.3055 334.703 77.0387 314.819 81.3403C294.935 85.6418 282.256 104.883 286.5 124.316C290.744 143.75 310.303 156.016 330.187 151.715Z" fill="white"/>
<path d="M313.951 77.3661C291.823 82.156 277.714 103.562 282.439 125.186C287.164 146.81 308.927 160.46 331.055 155.67C353.182 150.88 367.292 129.474 362.567 107.85C357.842 86.2337 336.079 72.5834 313.951 77.3661ZM329.798 149.928C310.92 154.013 292.356 142.368 288.325 123.921C284.294 105.473 296.329 87.2076 315.207 83.1227C334.085 79.0378 352.649 90.682 356.681 109.129C360.704 127.577 348.669 145.843 329.798 149.928Z" fill="black"/>
<path d="M225.381 196.337C225.381 196.337 224.855 199.129 224.585 201.898C224.483 202.981 225.308 203.926 226.404 203.984C230.106 204.173 238.037 204.544 240.885 204.449C241.316 204.435 241.594 203.998 241.44 203.606C241.309 203.272 241.061 203.003 240.732 202.85L227.689 196.73L225.381 196.337Z" fill="black"/>
<path d="M224.994 194.688L225.359 198.038C225.359 198.038 227.645 199.121 229.222 197.944L228.31 194.201L224.994 194.688Z" fill="#FFB27D"/>
<path d="M225.892 131.742C225.71 132.614 224.549 175.368 228.96 194.571C229.033 194.884 228.872 195.203 228.572 195.327C227.864 195.603 226.484 196.01 224.826 196.047C224.315 196.061 223.855 195.719 223.716 195.232C222.445 190.777 216.369 168.441 215.756 147.151C215.069 123.369 215.763 146.344 215.763 146.344L216.442 131.655L225.892 131.742Z" fill="black"/>
<path d="M210.301 197.653C210.301 197.653 209.497 199.056 208.694 202.807C208.548 203.483 209.023 204.137 209.709 204.21C210.929 204.34 212.813 204.515 214.325 204.515C215.018 204.515 215.566 203.919 215.493 203.228C215.34 201.855 214.843 199.601 213.244 197.835L210.301 197.653Z" fill="black"/>
<path d="M209.651 193.343L210.535 198.416C210.535 198.416 211.447 199.107 213.28 198.627L212.886 193.176L209.651 193.343Z" fill="#FFB27D"/>
<path d="M207.708 132.883C203.736 155.408 207.986 188.655 209.468 195.167C209.556 195.567 209.877 195.872 210.286 195.945C210.973 196.069 212.105 196.17 213.222 195.858C213.609 195.749 213.879 195.407 213.901 195.008C214.157 189.76 214.098 157.502 217.721 144.789C217.903 144.142 218.305 143.583 218.86 143.205L225.695 138.465L226.294 130.703L207.708 132.883Z" fill="black"/>
<path d="M232.049 90.3623C220.795 90.0716 208.344 93.0808 208.344 93.0808C204.802 112.531 207.358 135.035 207.358 135.035C216.048 137.39 225.914 133.821 225.914 133.821C227.441 125.687 234.415 102.835 234.415 102.835C239.922 102.21 244.464 100.669 248.218 98.6194C245.406 95.3122 244.099 91.1183 243.544 88.647C239.556 89.8317 235.518 90.4496 232.049 90.3623Z" fill="#EF6238"/>
<path d="M265.453 74.1755C264.357 72.8381 262.955 73.4486 262.955 73.4486C261.232 80.3974 252.49 85.9578 243.544 88.6326C244.106 91.1112 245.406 95.2978 248.218 98.605C263.109 90.4715 265.453 74.1755 265.453 74.1755Z" fill="#FFB27D"/>
<path d="M265.182 74.5097C265.292 74.8804 263.948 75.4183 263.174 73.9137C263.152 73.1941 262.743 70.1196 263.181 69.5381C265.504 66.4489 269.995 62.5894 269.995 62.5894C270.74 63.338 270.112 64.0576 270.112 64.0576L267.935 66.2745C268.381 67.0886 268.921 67.7791 269.17 68.7676C269.359 69.5163 269.228 70.3085 268.848 70.9772C268.461 71.6532 267.935 72.5327 267.446 73.2159C266.504 74.517 265.182 74.5097 265.182 74.5097Z" fill="#FFB27D"/>
<path d="M266.971 67.7139L264.992 69.3565L264.357 70.9992L266.095 72.9544C266.095 72.9544 266.716 69.6836 267.161 68.9786C267.607 68.2735 267.38 67.9247 266.971 67.7139Z" fill="#F3A570"/>
<path d="M212.558 103.969L208.344 93.0811C208.344 93.0811 197.762 100.088 195.943 109.086C197.93 109.254 201.537 109.799 205.057 111.609C205.883 107.364 212.558 103.969 212.558 103.969Z" fill="#EF6238"/>
<path d="M221.65 114.261C221.65 114.261 209.782 120.788 205.853 115.083C205.035 113.898 204.853 112.728 205.065 111.615C201.545 109.806 197.937 109.253 195.951 109.093C195.403 111.804 195.651 114.697 197.229 117.634C204.086 130.405 223.183 117.176 223.183 117.176L221.65 114.261Z" fill="#FFB27D"/>
<path d="M220.737 81.1606L217.056 91.4384C216.998 91.6056 217.063 91.8018 217.224 91.8891C218.195 92.4342 221.701 94.0187 225.958 91.3875C226.404 91.1113 226.711 90.6607 226.776 90.1446L228.025 81.2333L220.737 81.1606Z" fill="#F5AB78"/>
<path d="M228.617 71.6895C228.617 71.6895 232.48 79.0961 231.947 82.0689C231.414 85.0417 226.543 84.78 222.307 82.3233L219.408 74.3425L228.617 71.6895Z" fill="#FFB27D"/>
<path d="M222.541 78.413C222.716 78.3403 222.782 78.1295 222.679 77.9696C222.365 77.4899 221.788 76.5013 221.606 75.6437C221.606 75.6437 220.905 75.1857 223.417 74.6115C225.929 74.0373 229.676 73.1433 230.479 71.0281C231.268 68.9639 229.303 63.7378 226.053 67.859C225.929 68.019 225.688 68.019 225.571 67.859C225.053 67.1758 223.68 65.7439 221.752 66.5871C219.948 67.3721 219.729 68.6804 219.751 69.3418C219.758 69.5381 219.583 69.6835 219.386 69.6471C218.48 69.4654 216.297 69.2982 215.26 71.5151C214.405 73.3395 214.938 74.3862 215.428 74.895C215.588 75.0622 215.515 75.3311 215.296 75.3965C214.697 75.571 213.923 76.0725 213.982 77.4608C214.069 79.3869 216.238 79.2416 216.852 79.1544C216.954 79.1398 217.056 79.1762 217.122 79.2488C217.648 79.8376 219.999 82.3307 222.57 82.6505C222.796 82.6796 222.964 82.4615 222.899 82.2508L221.818 79.0163C221.767 78.8636 221.84 78.7037 221.986 78.6383L222.541 78.413Z" fill="black"/>
<path d="M222.979 78.8711C222.979 78.8711 220.196 76.9304 219.977 78.544C219.758 80.1503 222.475 80.899 223.833 80.3102L222.979 78.8711Z" fill="#EAA97C"/>
<path d="M219.225 124.575L225.688 102.108C225.761 101.854 225.98 101.665 226.243 101.636C227.412 101.498 230.808 101.12 234.729 100.785C239.447 100.386 244.931 100.066 248.203 100.342C248.671 100.378 248.948 100.873 248.744 101.287C246.881 105.037 239.221 120.294 235.379 125.295C235.255 125.462 235.058 125.557 234.846 125.557L219.846 125.418C219.415 125.411 219.101 124.997 219.225 124.575Z" fill="black"/>
<path d="M220.788 119.146C220.788 119.146 219.89 115.461 220.248 114.152C220.613 112.844 221.314 111.165 223.658 111.536C226.003 111.906 228.77 112.895 228.77 112.895C228.77 112.895 228.632 114.596 226.85 114.051L227.952 114.901C227.952 114.901 227.792 116.267 226.287 115.533L227.317 116.66C227.317 116.66 226.667 117.779 225.564 117.06C224.462 116.347 223.928 119.596 220.788 119.146Z" fill="#FFB480"/>
</g>
<path d="M186 56L0 56" stroke="black" stroke-dasharray="12 6"/>
<path d="M289.001 226.705L289.001 237C289.001 250.255 299.746 261 313.001 261L643 261C656.255 261 667 250.255 667 237L667 225" stroke="black" stroke-dasharray="12 6"/>
<defs>
<linearGradient id="paint0_linear_2_80" x1="336.688" y1="51.0397" x2="383.616" y2="-34.5256" gradientUnits="userSpaceOnUse">
<stop stop-color="#4F52FF"/>
<stop offset="1" stop-color="#4042E2"/>
</linearGradient>
<linearGradient id="paint1_linear_2_80" x1="269.731" y1="117.256" x2="318.254" y2="117.256" gradientUnits="userSpaceOnUse">
<stop stop-color="#DAE3FE"/>
<stop offset="1" stop-color="#E9EFFD"/>
</linearGradient>
<linearGradient id="paint2_linear_2_80" x1="326.989" y1="128.069" x2="352.68" y2="128.069" gradientUnits="userSpaceOnUse">
<stop stop-color="#DAE3FE"/>
<stop offset="1" stop-color="#E9EFFD"/>
</linearGradient>
<linearGradient id="paint3_linear_2_80" x1="271.644" y1="67.3775" x2="312.364" y2="67.3775" gradientUnits="userSpaceOnUse">
<stop stop-color="#DAE3FE"/>
<stop offset="1" stop-color="#E9EFFD"/>
</linearGradient>
<linearGradient id="paint4_linear_2_80" x1="331.246" y1="52.2187" x2="348.771" y2="52.2187" gradientUnits="userSpaceOnUse">
<stop stop-color="#DAE3FE"/>
<stop offset="1" stop-color="#E9EFFD"/>
</linearGradient>
<clipPath id="clip0_2_80">
<rect width="200.626" height="201.6" fill="white" transform="translate(184.792 2.92188)"/>
</clipPath>
</defs>
</svg>
