<svg width="802" height="295" viewBox="0 0 802 295" fill="none" xmlns="http://www.w3.org/2000/svg">
<g clip-path="url(#clip0_2_80)">
<g clip-path="url(#clip1_2_80)">
<path d="M472.196 229.137C467.62 233.952 463.285 237.05 459.859 239.505C419.606 268.313 371.986 259.919 361.86 257.865C346.917 254.84 318.02 248.982 297.134 224.475C265.535 187.394 270.457 128.984 294.962 90.4189C299.442 83.3654 323.127 44.2141 371.27 37.939C400.4 34.1435 434.364 41.7988 458.95 62.3574C510.575 105.505 506.9 192.682 472.196 229.137Z" fill="#EEF5F9"/>
<path d="M387.105 185.426L383.028 221.882H430.294L424.133 185.426H387.105Z" fill="black"/>
<path d="M304.854 93.0005V178.91C304.854 185.98 310.5 191.757 317.578 191.942C349.024 192.752 459.022 194.71 488.965 194.269C494.112 194.197 498.278 190.088 498.431 184.953C499.01 164.996 499.943 117.002 496.476 94.7178C495.744 90.0235 491.779 86.5168 487.018 86.3643C460.671 85.5298 344.062 82.8576 314.144 83.5317C308.98 83.644 304.854 87.8489 304.854 93.0005Z" fill="black"/>
<path d="M310.259 92.5827V174.207C310.259 178.332 313.58 181.694 317.714 181.758L484.661 183.813C488.763 183.877 492.125 180.587 492.141 176.494L492.423 95.5999C492.431 92.671 490.098 90.2797 487.171 90.2075L316.242 86.765C312.961 86.6847 310.259 89.3087 310.259 92.5827Z" fill="url(#paint0_linear_2_80)"/>
<path d="M493.395 187.2C493.395 187.2 493.387 187.2 493.395 187.2L310.259 184.086C310.114 184.086 309.993 183.958 309.993 183.813C309.993 183.669 310.114 183.548 310.267 183.548L493.403 186.662C493.548 186.662 493.669 186.79 493.669 186.935C493.661 187.079 493.54 187.2 493.395 187.2Z" fill="#7D97F4"/>
<path d="M440.476 229.336H371.302C369.42 229.336 368.012 228.004 368.374 226.568L369.259 223.069C369.524 222.018 370.691 221.239 372.066 221.199L438.755 219.121C440.194 219.073 441.473 219.843 441.787 220.934L443.387 226.512C443.797 227.964 442.382 229.336 440.476 229.336Z" fill="black"/>
<path d="M310.259 92.5827V174.207C310.259 178.332 313.58 181.694 317.714 181.758L484.661 183.813C488.763 183.877 492.125 180.587 492.141 176.494L492.423 95.5999C492.431 92.671 490.098 90.2797 487.171 90.2075L316.242 86.765C312.961 86.6847 310.259 89.3087 310.259 92.5827Z" fill="white"/>
<path d="M492.384 105.211L492.416 95.7342C492.424 92.8052 490.092 90.4219 487.164 90.3496L316.284 86.9071C313.003 86.8268 310.349 89.4589 310.349 92.733V105.211H492.384Z" fill="#E9EDF2"/>
<path d="M323.156 98.3159C323.404 97.2678 322.754 96.2175 321.703 95.97C320.653 95.7225 319.6 96.3716 319.352 97.4196C319.104 98.4677 319.754 99.518 320.805 99.7655C321.855 100.013 322.908 99.364 323.156 98.3159Z" fill="#EF6238"/>
<path d="M329.937 98.3168C330.185 97.2688 329.535 96.2185 328.484 95.971C327.434 95.7235 326.381 96.3726 326.133 97.4206C325.885 98.4687 326.536 99.519 327.586 99.7665C328.637 100.014 329.689 99.3649 329.937 98.3168Z" fill="#EF6238"/>
<path d="M336.537 98.1765C336.71 97.1135 335.986 96.1118 334.921 95.9393C333.855 95.7667 332.851 96.4887 332.678 97.5517C332.505 98.6148 333.229 99.6164 334.294 99.789C335.36 99.9615 336.364 99.2396 336.537 98.1765Z" fill="#EF6238"/>
<path d="M482.24 179.352L321.767 177.041C319.33 177.009 317.368 175.027 317.368 172.587V156.562C317.368 154.299 319.217 152.469 321.494 152.493L482.345 154.315C484.194 154.339 485.674 155.84 485.674 157.677V175.974C485.674 177.859 484.13 179.376 482.24 179.352Z" fill="#E9EDF2"/>
<path d="M424.47 150.495L321.888 149.027C319.386 148.995 317.368 146.956 317.368 144.453V112.764C317.368 110.975 318.823 109.522 320.617 109.522H423.787C425.846 109.522 427.518 111.192 427.518 113.246V147.502C427.51 149.171 426.143 150.519 424.47 150.495Z" fill="#E9EDF2"/>
<path d="M482.289 150.544H433.415C431.686 150.544 430.286 149.147 430.286 147.422V113.415C430.286 111.272 432.031 109.531 434.179 109.531H483.319C484.614 109.531 485.667 110.582 485.667 111.874V147.165C485.675 149.027 484.163 150.544 482.289 150.544Z" fill="#E9EDF2"/>
<path d="M285.689 226.658C285.689 227.958 286.75 229.017 288.053 229.017H416.067C417.369 229.017 418.431 227.958 418.431 226.658L419.493 153.258C419.493 151.958 417.957 149.43 415.15 149.615L290.04 146.389C288.407 146.349 286.823 146.975 285.673 148.122C284.514 149.27 283.879 150.843 283.919 152.472L285.689 226.658Z" fill="black"/>
<path d="M288.029 224.387C288.029 225.614 289.034 226.618 290.265 226.618H412.978C414.209 226.618 415.214 225.614 415.214 224.387L416.219 157.752C416.099 153.739 412.576 152.303 410.445 152.383L290.538 149.174C289.388 149.141 288.278 149.583 287.466 150.393C286.654 151.204 286.203 152.311 286.235 153.451L288.029 224.387Z" fill="white"/>
<path d="M275.765 235.108H425.775C426.024 235.108 426.233 234.907 426.233 234.65V229.105C426.233 228.857 426.032 228.648 425.775 228.648H275.765C275.516 228.648 275.307 228.849 275.307 229.105V234.65C275.307 234.899 275.516 235.108 275.765 235.108Z" fill="#2B2B2B"/>
<path d="M416.133 164.456L416.229 157.779C416.108 153.767 412.586 152.307 410.454 152.395L290.548 149.177C289.398 149.145 288.288 149.578 287.476 150.389C286.663 151.199 286.213 152.347 286.245 153.494L286.519 164.464H416.133V164.456Z" fill="#E9EDF2"/>
<path d="M413.896 192.738C413.711 192.738 413.566 192.586 413.566 192.409L413.646 187.008C413.646 186.832 413.799 186.688 413.976 186.688C414.161 186.688 414.306 186.84 414.298 187.017L414.217 192.417C414.226 192.594 414.073 192.738 413.896 192.738Z" fill="white"/>
<path d="M414.088 179.491C413.903 179.491 413.758 179.338 413.758 179.162L414.064 158.466C414.056 157.238 413.686 156.251 412.954 155.553C411.587 154.245 409.415 154.317 409.327 154.317L371.004 153.29C370.819 153.282 370.683 153.138 370.683 152.953C370.691 152.768 370.827 152.616 371.02 152.632L409.319 153.659C409.56 153.643 411.868 153.603 413.405 155.08C414.273 155.906 414.715 157.046 414.715 158.466L414.41 179.17C414.418 179.346 414.273 179.491 414.088 179.491Z" fill="#BDD0FB"/>
<path d="M361.917 198.42H294.713C293.04 198.42 291.689 197.072 291.689 195.403V170.751C291.689 169.082 293.04 167.734 294.713 167.734H361.925C363.597 167.734 364.949 169.082 364.949 170.751V195.403C364.949 197.072 363.589 198.42 361.917 198.42Z" fill="#E9EDF2"/>
<path d="M410.405 198.42H370.932C369.734 198.42 368.761 197.449 368.761 196.254V169.893C368.761 168.697 369.734 167.726 370.932 167.726H410.405C411.603 167.726 412.576 168.697 412.576 169.893V196.254C412.576 197.457 411.603 198.42 410.405 198.42Z" fill="#E9EDF2"/>
<path d="M409.915 223.721H294.351C292.879 223.721 291.689 222.534 291.689 221.065V205.554C291.689 204.085 292.879 202.897 294.351 202.897H409.915C411.386 202.897 412.577 204.085 412.577 205.554V221.065C412.577 222.526 411.386 223.721 409.915 223.721Z" fill="#E9EDF2"/>
<path d="M294.149 156.865C294.285 156.029 293.717 155.242 292.879 155.106C292.042 154.971 291.253 155.538 291.117 156.374C290.981 157.209 291.549 157.997 292.387 158.132C293.224 158.268 294.014 157.7 294.149 156.865Z" fill="#EF6238"/>
<path d="M298.846 157.848C299.446 157.25 299.446 156.279 298.846 155.681C298.246 155.082 297.274 155.082 296.674 155.681C296.074 156.279 296.074 157.25 296.674 157.848C297.274 158.447 298.246 158.447 298.846 157.848Z" fill="#EF6238"/>
<path d="M303.64 158.134C304.24 157.536 304.24 156.565 303.64 155.967C303.041 155.368 302.068 155.368 301.468 155.967C300.868 156.565 300.868 157.536 301.468 158.134C302.068 158.733 303.041 158.733 303.64 158.134Z" fill="#EF6238"/>
<path d="M411.5 130.34C423.173 130.34 432.635 120.78 432.635 108.987C432.635 97.1944 423.173 87.6343 411.5 87.6343C399.827 87.6343 390.364 97.1944 390.364 108.987C390.364 120.78 399.827 130.34 411.5 130.34Z" fill="white"/>
<path d="M410.752 120.495C409.836 120.495 408.983 120.014 408.509 119.211L400.554 105.834C399.806 104.582 400.208 102.961 401.447 102.207C402.685 101.453 404.294 101.862 405.034 103.114L410.551 112.398L417.846 97.9137C418.506 96.6137 420.074 96.0921 421.361 96.7582C422.648 97.4242 423.163 99.0131 422.503 100.313L413.061 119.043C412.626 119.901 411.774 120.455 410.825 120.487C410.817 120.495 410.785 120.495 410.752 120.495Z" fill="#EF6238"/>
<path d="M316.596 212.294C328.269 212.294 337.732 202.734 337.732 190.941C337.732 179.148 328.269 169.588 316.596 169.588C304.923 169.588 295.46 179.148 295.46 190.941C295.46 202.734 304.923 212.294 316.596 212.294Z" fill="white"/>
<path d="M315.857 202.449C314.94 202.449 314.087 201.968 313.613 201.165L305.659 187.788C304.911 186.536 305.313 184.915 306.551 184.161C307.79 183.407 309.399 183.816 310.138 185.068L315.656 194.352L322.951 179.868C323.61 178.568 325.179 178.046 326.465 178.712C327.752 179.378 328.267 180.967 327.607 182.267L318.189 201.005C317.755 201.863 316.902 202.417 315.953 202.449C315.921 202.449 315.889 202.449 315.857 202.449Z" fill="#EF6238"/>
<path d="M312.165 89.3041C314.891 84.0238 319.966 80.3004 325.853 79.6344L326.255 54.2042C326.255 53.9876 326.079 53.811 325.861 53.811C309.254 53.9876 294.6 64.3073 287.764 79.5782C287.667 79.8029 287.772 80.0597 288.005 80.1479L312.165 89.3041Z" fill="url(#paint1_linear_2_80)"/>
<path d="M344.987 101.492C344.649 101.484 344.344 101.701 344.239 102.022C343.957 102.929 343.435 104.678 343.346 104.895C342.928 105.97 342.445 107.013 341.874 108.016C340.821 109.87 339.47 111.571 337.797 112.919C333.575 116.33 327.502 116.964 322.436 115.278C322.291 115.23 322.146 115.182 322.009 115.126C321.744 115.03 321.446 115.134 321.318 115.383L308.538 138.622C314.739 141.727 320.578 142.537 327.897 142.064C349.169 140.7 365.873 123.471 367.731 102.102L344.987 101.492Z" fill="url(#paint2_linear_2_80)"/>
<path d="M344.988 101.493C343.604 109.975 337.323 116.603 328.782 116.892C326.377 116.972 323.514 116.418 321.407 115.568C321.19 115.479 320.932 115.568 320.82 115.776L307.694 138.309C313.895 141.414 320.9 142.931 328.219 142.466C349.491 141.101 366.196 123.351 368.054 101.974L344.988 101.493Z" fill="url(#paint3_linear_2_80)"/>
<path d="M304.951 134.738L317.658 111.989C317.747 111.828 317.707 111.627 317.57 111.507C313.653 108.217 310.525 103.812 310.525 98.0902C310.525 96.6779 309.897 94.6316 310.187 93.3076L286.292 84.7856C284.965 89.0948 284.25 93.6767 284.25 98.4272C284.25 113.778 292.429 127.283 303.648 135.043C304.09 135.348 304.694 135.203 304.951 134.738Z" fill="url(#paint4_linear_2_80)"/>
<path d="M303.68 134.088L316.854 111.619C317.023 111.331 316.967 110.969 316.717 110.753C312.937 107.439 310.533 102.456 310.533 96.8304C310.533 95.4181 310.685 94.0459 310.975 92.7219L286.646 83.6542C286.453 83.582 286.236 83.6863 286.18 83.887C284.925 88.0837 284.25 92.5453 284.25 97.1594C284.25 112.887 292.035 126.433 303.68 134.088Z" fill="url(#paint5_linear_2_80)"/>
<path d="M330.51 79.7543C338.054 81.0141 343.893 87.3454 344.89 95.2656C344.947 95.6908 345.292 96.0118 345.719 96.0279L382.184 97.2476C382.296 97.1353 382.361 97.0791 382.473 96.9667C382.361 66.53 360.485 40.4505 331.186 37L330.51 79.7543Z" fill="black"/>
<path d="M333.863 249.231C333.896 249.215 351.428 218.593 353.793 215.705C354.195 215.223 354.806 214.974 355.434 215.046L360.323 215.624L366.074 228.03L356.495 222.469C357.444 229.009 345.139 238.727 340.925 242.274C340.499 242.635 340.458 243.277 340.844 243.678L342.525 245.436C339.759 248.236 336.566 250.026 332.971 250.86L333.863 249.231Z" fill="url(#paint6_linear_2_80)"/>
<path d="M341.561 244.488C341.561 244.488 342.638 244.833 343 245.788C343.177 246.245 342.984 246.759 342.59 247.048C340.821 248.316 334.982 252.4 332.287 253.194C332.07 253.259 331.853 253.058 331.909 252.833C332.046 252.207 332.497 250.964 333.936 249.134L333.808 249.399C333.647 249.728 334.001 250.073 334.322 249.888C336.116 248.885 339.791 246.662 341.561 244.488Z" fill="black"/>
<path d="M340.691 256.75C340.724 256.734 343.354 250.411 343.378 250.387C345.791 235.742 351.67 223.191 353.407 219.893C353.697 219.339 354.252 218.97 354.879 218.922L359.785 218.505L367.932 229.491L357.429 225.976C359.68 232.187 349.603 244.192 346.193 248.509C345.847 248.95 345.943 249.584 346.402 249.905L348.404 251.286C346.265 254.584 343.506 256.983 340.145 258.524L340.691 256.75Z" fill="url(#paint7_linear_2_80)"/>
<path d="M347.271 250.555C347.271 250.555 348.397 250.675 348.944 251.542C349.209 251.951 349.129 252.497 348.799 252.858C347.319 254.455 342.429 259.63 339.96 260.963C339.759 261.075 339.51 260.922 339.518 260.69C339.526 260.048 339.711 258.74 340.756 256.661L340.684 256.942C340.587 257.295 341.014 257.56 341.295 257.319C342.831 255.955 345.976 253.042 347.271 250.555Z" fill="black"/>
<path d="M382.77 216.186C382.77 216.186 387.21 222.774 387.58 225.784C387.942 228.793 386.349 229.828 381.701 230.213C367.867 231.353 361.047 227.22 361.047 227.22C360.098 221.202 359.431 219.669 351.525 216.395C351.525 216.395 361.522 217.189 363.532 216.411C365.543 215.624 382.77 216.186 382.77 216.186Z" fill="#EF6238"/>
<path d="M365.062 179.258C365.062 179.258 368.158 175.606 371.448 180.084C372.043 180.895 374.335 180.228 375.171 181.922C375.606 182.796 376.539 183.294 377.504 183.117C379.901 182.676 383.825 182.636 385.764 186.391C387.244 189.256 386.102 190.933 384.622 191.888C383.536 192.586 383.15 194.015 383.801 195.13C384.429 196.197 384.549 197.642 382.925 199.375C379.281 203.267 372.075 196.904 372.075 196.904L366.348 183.406L365.062 179.258Z" fill="black"/>
<path d="M370.763 215.312C370.763 215.312 365.592 210.401 363.042 207.143C361.667 205.386 361.233 203.067 361.868 200.932C363.034 197.024 365.093 192.98 365.286 192.346C365.576 191.383 371.375 191.423 371.375 191.423C371.375 191.423 382.787 198.814 387.267 211.332L382.232 212.897C382.232 212.897 379.257 207.906 376.305 204.736C376.305 204.736 381.396 211.453 381.581 214.197L370.763 215.312Z" fill="#EF6238"/>
<path d="M360.912 217.254L364.796 213.033L369.284 214.236C369.284 214.236 374.52 215.047 377.512 214.236C380.504 213.426 380.504 213.426 380.504 213.426L387.268 211.323L388.33 214.316C388.603 215.079 388.33 215.921 387.67 216.387C387.083 216.804 386.399 217.262 385.957 217.446C385.064 217.831 365.424 217.567 365.424 217.567L360.912 217.254Z" fill="url(#paint8_linear_2_80)"/>
<path d="M367.393 184.465L371.294 191.696C371.036 193.277 367.055 193.317 366.436 192.378C366.371 192.281 366.339 192.169 366.315 192.057L363.983 187.226C363.886 186.752 365.181 185.164 365.599 184.939L367.152 184.112C367.739 183.799 365.253 183.775 367.393 184.465Z" fill="url(#paint9_linear_2_80)"/>
<path d="M359.504 182.764C359.504 182.764 359.062 185.204 360.992 188.317C362.914 191.423 364.837 191.287 365.81 190.179C366.783 189.072 367.949 187.226 367.418 184.129C366.88 181.023 360.172 179.651 359.504 182.764Z" fill="url(#paint10_linear_2_80)"/>
<path d="M365.085 184.458C365.085 184.458 361.973 180.373 359.576 183.936L359.616 185.164C359.616 185.164 356.504 185.019 356.842 182.154C357.179 179.29 359.721 177.34 363.244 178.319C366.766 179.298 368.825 180.413 369.219 182.853C369.614 185.292 367.619 184.891 367.619 184.891C367.619 184.891 366.855 183.206 365.938 183.093C365.021 182.981 365.351 184.313 365.351 184.313L365.085 184.458Z" fill="black"/>
<path d="M365.794 184.353C365.794 184.353 364.177 182.267 365.649 181.825C367.121 181.392 367.064 183.872 366.968 184.794L365.794 184.353Z" fill="url(#paint11_linear_2_80)"/>
<path d="M373.772 218.922C373.755 218.922 373.747 218.922 373.731 218.922L355.86 218.906C355.418 218.906 355.064 218.545 355.064 218.104C355.064 217.662 355.426 217.301 355.868 217.309L373.739 217.325C374.182 217.325 374.536 217.686 374.536 218.128C374.528 218.553 374.198 218.898 373.772 218.922Z" fill="black"/>
<path d="M339.783 202.729H354.67C355.772 202.729 356.769 203.363 357.236 204.35L364.121 218.907H345.622C344.914 218.907 344.279 218.473 344.022 217.815L338.681 204.342C338.376 203.572 338.947 202.729 339.783 202.729Z" fill="black"/>
<path d="M350.27 210.191C350.592 211.194 350.351 212.165 349.74 212.358C349.12 212.559 348.364 211.909 348.043 210.906C347.721 209.902 347.962 208.931 348.573 208.739C349.193 208.546 349.949 209.196 350.27 210.191Z" fill="black"/>
<path d="M394.079 180.333C393.806 193.188 392.921 237.547 393.339 253.259C393.388 254.928 394.53 256.26 395.953 256.316C403.007 256.589 428.871 257.271 440.412 256.702C442.817 256.581 444.731 254.31 444.78 251.502C445.021 238.005 445.552 200.049 444.289 182.652C444.136 180.565 442.737 178.912 440.951 178.704C433.271 177.805 407.293 175.614 397.321 176.369C395.527 176.505 394.12 178.23 394.079 180.333Z" fill="black"/>
<path d="M397.224 184.273C396.846 194.649 395.648 229.178 396.026 241.945C396.082 243.814 397.345 245.323 398.937 245.427C405.516 245.877 427.947 246.864 437.59 245.965C439.327 245.805 440.686 244.16 440.783 242.129C441.273 231.545 442.673 199.391 442.311 186.769C442.254 184.754 440.919 183.109 439.198 182.933C432.089 182.187 408.251 180.413 400.055 180.935C398.511 181.039 397.289 182.476 397.224 184.273Z" fill="white"/>
<path opacity="0.5" d="M411.515 178.616C411.515 179.009 411.781 179.338 412.118 179.354C413.783 179.458 418.48 179.747 420.579 179.884C420.989 179.908 421.319 179.474 421.239 179.001L421.223 178.921C421.166 178.6 420.941 178.351 420.66 178.319C419.244 178.166 414.965 177.749 412.126 177.861C411.781 177.893 411.515 178.222 411.515 178.616Z" fill="white"/>
<path d="M442.375 190.701C442.367 189.304 442.351 187.932 442.319 186.785C442.262 184.77 440.927 183.117 439.206 182.941C432.097 182.194 408.258 180.421 400.063 180.943C398.527 181.039 397.304 182.491 397.232 184.289C397.176 185.902 397.128 187.17 397.039 189.681L442.375 190.701Z" fill="#E9EDF2"/>
<path d="M419.381 212.824H400.842C399.748 212.824 398.855 211.909 398.855 210.786V194.544C398.855 193.517 399.684 192.69 400.681 192.714L419.397 193.172C420.426 193.196 421.247 194.063 421.247 195.122V210.914C421.247 211.966 420.41 212.824 419.381 212.824Z" fill="#E9EDF2"/>
<path opacity="0.42" d="M439.472 212.824H423.612C423.21 212.824 422.888 212.503 422.888 212.102V193.774C422.888 193.461 423.138 193.212 423.451 193.212H439.513C439.826 193.212 440.084 193.469 440.084 193.782V212.222C440.076 212.551 439.802 212.824 439.472 212.824Z" fill="#E9EDF2"/>
<path d="M439.496 228.737H398.841C398.487 228.737 398.197 228.448 398.197 228.095V215.913C398.197 215.624 398.43 215.392 398.72 215.392H439.472C439.809 215.392 440.083 215.664 440.083 216.001V228.159C440.075 228.48 439.817 228.737 439.496 228.737Z" fill="#E9EDF2"/>
<path d="M435.731 243.807L400.078 243.309C399.024 243.293 398.172 242.523 398.172 241.584V232.973C398.172 232.139 398.928 231.473 399.853 231.473H437.355C438.248 231.473 438.964 232.115 438.972 232.909L438.996 240.926C439.012 242.531 437.532 243.831 435.731 243.807Z" fill="#E9EDF2"/>
<path opacity="0.74" d="M401.424 187.629C402.065 187.364 402.369 186.632 402.103 185.993C401.838 185.354 401.104 185.051 400.464 185.315C399.824 185.58 399.52 186.312 399.785 186.951C400.05 187.59 400.784 187.893 401.424 187.629Z" fill="#EF6238"/>
<path opacity="0.74" d="M406.021 187.474C406.511 186.985 406.511 186.193 406.021 185.704C405.531 185.215 404.736 185.215 404.247 185.704C403.757 186.193 403.757 186.985 404.247 187.474C404.736 187.963 405.531 187.963 406.021 187.474Z" fill="#EF6238"/>
<path opacity="0.74" d="M409.532 187.983C410.172 187.718 410.476 186.986 410.211 186.347C409.945 185.708 409.212 185.405 408.571 185.669C407.931 185.934 407.627 186.666 407.892 187.305C408.157 187.944 408.891 188.247 409.532 187.983Z" fill="#EF6238"/>
<path d="M420.974 226.947C430.004 226.947 437.324 219.55 437.324 210.425C437.324 201.299 430.004 193.902 420.974 193.902C411.943 193.902 404.623 201.299 404.623 210.425C404.623 219.55 411.943 226.947 420.974 226.947Z" fill="white"/>
<path d="M420.403 219.332C419.695 219.332 419.036 218.955 418.666 218.337L412.513 207.985C411.934 207.014 412.248 205.763 413.205 205.177C414.162 204.599 415.408 204.912 415.979 205.875L420.25 213.057L425.896 201.855C426.403 200.851 427.625 200.45 428.623 200.956C429.62 201.469 430.014 202.697 429.507 203.708L422.205 218.201C421.867 218.867 421.207 219.292 420.475 219.316C420.451 219.332 420.427 219.332 420.403 219.332Z" fill="#EF6238"/>
</g>
</g>
<path d="M393.001 261L393.001 270C393.001 283.255 403.746 294 417.001 294L777 294C790.255 294 801 283.255 801 270L801 262" stroke="black" stroke-dasharray="12 6"/>
<path d="M1.00009 35.1772L1.00006 25.0001C1.00003 11.7452 11.7452 1 25.0001 1L369 1.00003C382.255 1.00003 393 11.7452 393 25L393 37" stroke="black" stroke-dasharray="12 6"/>
<defs>
<linearGradient id="paint0_linear_2_80" x1="409.601" y1="26.3608" x2="394.847" y2="217.203" gradientUnits="userSpaceOnUse">
<stop stop-color="#53D8FF"/>
<stop offset="1" stop-color="#3840F7"/>
</linearGradient>
<linearGradient id="paint1_linear_2_80" x1="341.31" y1="16.1338" x2="285.808" y2="118.453" gradientUnits="userSpaceOnUse">
<stop stop-color="#FEBBBA"/>
<stop offset="1" stop-color="#FF928E"/>
</linearGradient>
<linearGradient id="paint2_linear_2_80" x1="327.267" y1="93.4468" x2="338.193" y2="120.624" gradientUnits="userSpaceOnUse">
<stop stop-color="#FF928E"/>
<stop offset="1" stop-color="#FE7062"/>
</linearGradient>
<linearGradient id="paint3_linear_2_80" x1="384.075" y1="39.3314" x2="328.575" y2="141.649" gradientUnits="userSpaceOnUse">
<stop stop-color="#FEBBBA"/>
<stop offset="1" stop-color="#FF928E"/>
</linearGradient>
<linearGradient id="paint4_linear_2_80" x1="355.004" y1="170.59" x2="328.646" y2="140.109" gradientUnits="userSpaceOnUse">
<stop stop-color="#FF928E"/>
<stop offset="1" stop-color="#FE7062"/>
</linearGradient>
<linearGradient id="paint5_linear_2_80" x1="344.921" y1="18.0934" x2="289.421" y2="120.411" gradientUnits="userSpaceOnUse">
<stop stop-color="#FEBBBA"/>
<stop offset="1" stop-color="#FF928E"/>
</linearGradient>
<linearGradient id="paint6_linear_2_80" x1="329.662" y1="223.572" x2="357.268" y2="239.364" gradientUnits="userSpaceOnUse">
<stop stop-color="#FEBBBA"/>
<stop offset="1" stop-color="#FF928E"/>
</linearGradient>
<linearGradient id="paint7_linear_2_80" x1="332.335" y1="227.497" x2="237.896" y2="168.243" gradientUnits="userSpaceOnUse">
<stop stop-color="#FEBBBA"/>
<stop offset="1" stop-color="#FF928E"/>
</linearGradient>
<linearGradient id="paint8_linear_2_80" x1="378.067" y1="214.5" x2="405.598" y2="214.5" gradientUnits="userSpaceOnUse">
<stop stop-color="#FEBBBA"/>
<stop offset="1" stop-color="#FF928E"/>
</linearGradient>
<linearGradient id="paint9_linear_2_80" x1="366.861" y1="201.372" x2="367.495" y2="191.478" gradientUnits="userSpaceOnUse">
<stop stop-color="#FEBBBA"/>
<stop offset="1" stop-color="#FF928E"/>
</linearGradient>
<linearGradient id="paint10_linear_2_80" x1="367.799" y1="193.001" x2="355.863" y2="170.105" gradientUnits="userSpaceOnUse">
<stop stop-color="#FEBBBA"/>
<stop offset="1" stop-color="#FF928E"/>
</linearGradient>
<linearGradient id="paint11_linear_2_80" x1="370.541" y1="191.571" x2="358.604" y2="168.675" gradientUnits="userSpaceOnUse">
<stop stop-color="#FEBBBA"/>
<stop offset="1" stop-color="#FF928E"/>
</linearGradient>
<clipPath id="clip0_2_80">
<rect width="224" height="224" fill="white" transform="translate(275 37)"/>
</clipPath>
<clipPath id="clip1_2_80">
<rect width="224" height="224" fill="white" transform="translate(275 37)"/>
</clipPath>
</defs>
</svg>
