<svg width="494" height="262" viewBox="0 0 494 262" fill="none" xmlns="http://www.w3.org/2000/svg">
<path d="M376.271 15.1965C323.003 13.5779 276.867 53.476 269.898 105.837C262.276 163.085 304.222 214.588 355.841 222.838C420.037 233.101 482.31 173.736 476.716 109.336C472.503 60.8231 430.416 16.8523 376.271 15.1965Z" fill="#EEF5F9"/>
<path d="M439.174 189.513H356.24C353.179 189.513 350.701 192 350.701 195.073H439.174V189.513Z" fill="#222222"/>
<path d="M466.042 152.206H408.663C407.06 152.206 405.651 153.181 405.019 154.644L389.18 191.855C388.549 193.366 389.666 195.073 391.318 195.073H450.592C452.195 195.073 453.604 194.098 454.235 192.635L469.345 157.132C470.317 154.791 468.568 152.206 466.042 152.206Z" fill="#2F2F2F"/>
<path d="M436.308 174.445C435.433 178.005 431.838 180.931 428.291 180.931C424.744 180.931 422.558 178.054 423.433 174.445C424.307 170.885 427.902 167.958 431.449 167.958C434.996 167.958 437.182 170.885 436.308 174.445Z" fill="white"/>
<path d="M482.311 61.7896H350.841C344.913 61.7896 340.104 66.6176 340.104 72.5673V128.7C340.104 134.649 344.913 139.477 350.841 139.477H401.417L410.454 148.548L419.491 139.477H482.263C488.19 139.477 493 134.649 493 128.7V72.5673C493.048 66.6176 488.238 61.7896 482.311 61.7896Z" fill="white" stroke="#EF6238" stroke-width="1.0481" stroke-miterlimit="10"/>
<path d="M369.042 94.7542C374.754 92.3395 377.435 85.7338 375.029 79.9998C372.624 74.2659 366.043 71.575 360.33 73.9897C354.618 76.4043 351.937 83.0101 354.343 88.7441C356.749 94.478 363.329 97.1689 369.042 94.7542Z" fill="#F8B8A5"/>
<path d="M388.105 74.1279L390.146 80.3215L396.656 80.2727L391.409 84.1742L393.498 90.3677L388.203 86.5638L382.955 90.4653L384.899 84.2229L379.603 80.419L386.113 80.3703L388.105 74.1279Z" fill="#FAAF3B"/>
<path d="M408.851 74.1279L410.892 80.3215L417.402 80.2727L412.204 84.1742L414.244 90.3677L408.948 86.5638L403.701 90.4653L405.645 84.2229L400.349 80.419L406.859 80.3703L408.851 74.1279Z" fill="#FAAF3B"/>
<path d="M429.597 74.1279L431.686 80.3215L438.196 80.2727L432.949 84.1742L434.99 90.3677L429.694 86.5638L424.447 90.4653L426.439 84.2229L421.143 80.419L427.653 80.3703L429.597 74.1279Z" fill="#FAAF3B"/>
<path d="M450.343 74.1279L452.432 80.3215L458.942 80.2727L453.695 84.1742L455.736 90.3677L450.44 86.5638L445.193 90.4653L447.185 84.2229L441.889 80.419L448.399 80.3703L450.343 74.1279Z" fill="#FAAF3B"/>
<path d="M471.137 74.1279L473.177 80.3215L479.688 80.2727L474.441 84.1742L476.53 90.3677L471.234 86.5638L465.987 90.4653L467.93 84.2229L462.635 80.419L469.145 80.3703L471.137 74.1279Z" fill="#FAAF3B"/>
<path d="M362.744 100.658H352.833V103.34H362.744V100.658Z" fill="#F8B8A5"/>
<path d="M380.089 100.658H365.222V103.34H380.089V100.658Z" fill="#F8B8A5"/>
<path d="M374.21 108.559H352.833V111.241H374.21V108.559Z" fill="#EF6238" fill-opacity="0.45"/>
<path d="M432.998 108.559H382.955V111.241H432.998V108.559Z" fill="#EF6238" fill-opacity="0.45"/>
<path d="M480.271 108.559H441.743V111.241H480.271V108.559Z" fill="#EF6238" fill-opacity="0.45"/>
<path d="M400.689 117.044H352.833V119.726H400.689V117.044Z" fill="#EF6238" fill-opacity="0.45"/>
<path d="M480.271 117.044H456.367V119.726H480.271V117.044Z" fill="#EF6238" fill-opacity="0.45"/>
<path d="M450.78 117.044H408.851V119.726H450.78V117.044Z" fill="#EF6238" fill-opacity="0.45"/>
<path d="M413.904 125.529H352.833V128.212H413.904V125.529Z" fill="#EF6238" fill-opacity="0.45"/>
<path d="M401.126 24.9206C401.126 38.6244 390.048 49.7924 376.493 49.7436C362.744 49.6948 353.173 39.1609 351.861 27.993C350.986 20.629 352.978 14.0453 357.837 8.48567C362.695 2.87733 369.011 0 376.445 0C389.903 0.0487682 401.223 10.9729 401.126 24.9206Z" fill="#2F2F2F"/>
<path d="M379.846 34.236C377.659 34.236 375.473 34.236 373.287 34.236C372.509 34.236 372.218 33.9921 372.218 33.2118C372.267 29.7981 372.072 26.3843 372.315 22.9705C372.461 20.7759 373.335 18.8252 374.696 17.0696C375.619 15.8991 376.542 14.7287 377.611 13.7045C377.951 13.3632 378.145 12.973 378.145 12.4853C378.145 11.9001 378.194 11.3149 378.194 10.7297C378.194 9.99816 378.437 9.41294 379.117 9.12033C379.846 8.82772 380.526 8.97403 381.109 9.51048C381.692 10.0469 381.886 10.7297 382.081 11.4612C382.518 13.3144 382.178 15.0701 381.449 16.7282C381.206 17.3134 380.963 17.8986 380.672 18.4351C380.477 18.7764 380.623 18.9227 380.963 18.9715C381.109 19.0203 381.303 18.9715 381.449 18.9715C383.392 18.9715 385.384 18.9715 387.328 18.9715C388.397 18.9715 389.125 19.4592 389.368 20.3858C389.66 21.4099 389.223 22.5804 388.397 23.068C388.008 23.2631 388.008 23.3607 388.348 23.6045C389.077 24.0922 389.563 24.7262 389.417 25.7015C389.32 26.4331 388.931 26.9207 388.251 27.1646C388.105 27.2134 387.911 27.2133 387.862 27.3597C387.814 27.5547 388.057 27.5547 388.154 27.6523C389.077 28.335 389.223 30.237 387.862 30.8222C387.619 30.9197 387.474 31.0173 387.765 31.2611C388.348 31.8463 388.397 32.5779 388.105 33.3094C387.814 33.9921 387.231 34.236 386.502 34.236C384.218 34.1872 382.032 34.1872 379.846 34.236C379.846 34.1872 379.846 34.1872 379.846 34.236Z" fill="#FDFDFE"/>
<path d="M369.594 36.1863C367.797 36.1863 365.999 36.1863 364.202 36.1863C363.667 36.1863 363.424 35.8937 363.376 35.406C363.327 35.1622 363.376 34.8696 363.376 34.6257C363.376 30.8218 363.376 27.0179 363.376 23.2627C363.376 22.3361 363.619 22.0923 364.542 22.0923C366.145 22.0923 367.797 22.0923 369.4 22.0923C370.032 22.0923 370.372 22.3849 370.372 23.0189C370.372 27.0179 370.372 30.9681 370.372 34.9671V35.0159C370.275 35.0646 370.275 35.0646 370.372 35.1134C370.42 35.5523 370.372 35.9425 369.886 36.1375C369.886 36.04 369.837 35.8937 369.692 35.9425C369.497 35.9425 369.643 36.0888 369.594 36.1863Z" fill="#FDFDFE"/>
<g clip-path="url(#clip0_2_80)">
<path d="M339.152 91.2728C339.832 94.7841 339.638 98.3442 339.929 101.904C340.172 105.464 340.998 109.122 343.33 111.804C345.322 114.096 348.237 115.511 349.646 118.193C350.715 120.241 350.715 122.728 349.889 124.874C349.112 127.02 347.605 128.873 345.808 130.336C339.783 135.408 330.747 136.188 323.605 132.921C316.463 129.605 311.313 122.582 309.661 114.877C307.96 107.171 309.564 98.9294 313.353 92.0044C315.491 88.1029 318.455 84.494 322.39 82.4458C325.694 80.7877 330.601 80.1537 333.905 82.1532C336.771 83.8601 338.52 88.2004 339.152 91.2728Z" fill="black"/>
<path d="M395.996 170.521C395.996 170.521 394.733 173.301 391.429 171.643L389.291 175.691L394.635 178.519L398.522 171.204L397.016 163.986C397.016 163.986 395.558 164.572 395.607 166.132C395.607 167.644 395.996 170.521 395.996 170.521Z" fill="#915046"/>
<path d="M400.854 180.031C400.903 178.324 399.98 176.763 398.474 175.983L392.886 173.008L391.72 175.203L400.854 180.031Z" fill="#994F39"/>
<path d="M402.458 182.518C402.506 180.811 401.583 179.251 400.077 178.47L393.664 175.057L392.498 177.251L402.458 182.518Z" fill="#AB6955"/>
<path d="M394.927 157.11L396.822 162.669H402.7L397.939 166.132L399.785 171.74L395.024 168.327L390.311 171.838L392.06 166.181L387.299 162.767L393.178 162.718L394.927 157.11Z" fill="#FAAF3B"/>
<path d="M391.332 171.594L391.623 169.643L393.858 167.839C394.538 167.302 394.927 166.473 394.927 165.595V165.352L388.028 167.839L385.016 171.399L383.072 175.056L393.469 180.567L394.198 179.251C395.607 176.617 394.587 173.301 391.963 171.935L391.332 171.594Z" fill="#B57A68"/>
<path d="M400.854 184.518C400.903 182.811 399.98 181.25 398.474 180.47L392.06 177.056L390.894 179.251L400.854 184.518Z" fill="#B57A68"/>
<path d="M391.234 171.399C390.603 172.423 389.728 173.301 388.805 174.032" stroke="#A15545" stroke-width="1.8647" stroke-miterlimit="10" stroke-linecap="round" stroke-linejoin="round"/>
<path d="M354.019 171.35L385.744 171.887L385.599 176.227L347.897 182.03L354.019 171.35Z" fill="#B57A68"/>
<path d="M324.722 130.531H334.002C338.374 130.531 342.31 133.311 343.719 137.505L357.225 177.154C357.225 177.154 356.302 184.469 350.569 185.152C348.432 185.396 346.342 184.225 345.371 182.323L324.722 143.016V130.531Z" fill="#EF6238"/>
<path d="M348.237 170.716L378.797 171.74L368.788 184.518L349.452 185.688C346.877 185.834 344.933 183.445 345.565 180.958L346.828 176.13L348.237 170.716Z" fill="#EF6238"/>
<path d="M354.019 171.35C351.541 172.862 348.723 175.203 347.411 177.836" stroke="#9E391B" stroke-width="1.8647" stroke-miterlimit="10" stroke-linecap="round"/>
<path d="M354.019 171.35C350.764 171.496 346.78 171.935 344.399 174.13" stroke="#9E391B" stroke-width="1.8647" stroke-miterlimit="10" stroke-linecap="round"/>
<path d="M331.621 216.607C326.665 217.095 321.467 216.997 316.463 216.51C308.495 215.729 301.498 211.974 294.648 208.17C293.676 207.634 292.656 207.049 291.684 206.463C295.28 200.709 299.895 194.808 305.191 191.053H331.621L340.172 214.559C337.5 215.729 334.439 216.315 331.621 216.607Z" fill="white"/>
<path d="M301.013 189.785L293.336 136.725L297.174 130.483H332.35L342.018 156.574C342.018 156.574 333.953 181.69 333.953 191.004L342.844 216.9L332.35 220.948L324.285 196.076L315.345 220.753L287.7 209.195L301.013 189.785Z" fill="#EF6238"/>
<path d="M293.336 136.725L297.272 130.385H302.276L303.782 143.016L301.353 159.11L298.923 175.203L293.336 136.725Z" fill="#9E391B"/>
<path d="M330.698 130.629V160.475L305.774 130.629H330.698Z" fill="white"/>
<path d="M315.442 137.798C313.693 137.359 311.993 136.774 310.341 136.042L305.58 130.336H330.698V134.726C327.2 138.92 320.544 139.017 315.442 137.798Z" fill="#B57A68"/>
<path d="M305.58 130.385V149.015H316.22L310.292 161.548L331.475 161.402L305.58 130.385Z" fill="#9E391B"/>
<path d="M330.698 130.385H332.301L344.788 149.015H334.925L345.565 161.548H331.475H330.844L330.698 130.385Z" fill="#9E391B"/>
<path d="M330.795 161.548C328.414 172.911 326.617 184.469 324.236 195.832" stroke="#9E391B" stroke-width="1.8647" stroke-miterlimit="10"/>
<path d="M303.782 130.336H294.454C290.081 130.336 286.146 133.116 284.737 137.31L271.23 176.959C271.23 176.959 271.376 179.885 272.736 182.421C274.874 186.42 280.218 187.444 282.356 183.445L303.733 142.87V130.336H303.782Z" fill="#E8572C"/>
<path d="M316.706 172.96L319.281 175.154L325.402 176.569L325.354 176.325C325.256 175.447 324.722 174.715 323.993 174.228L322.439 173.009L322.876 171.302L325.451 169.156L322.341 166.474L315.685 170.863L316.706 172.96Z" fill="#915046"/>
<path d="M322.633 168.62L326.908 172.667L332.058 169.888L329.532 175.203L333.759 179.251L327.929 178.471L325.402 183.787L324.333 177.983L318.503 177.203L323.702 174.423L322.633 168.62Z" fill="#FAAF3B"/>
<path d="M326.471 170.765C326.471 170.765 325.159 168.717 322.779 170.375L320.641 167.4L324.965 164.376L328.803 169.741L327.977 174.667C327.977 174.667 326.763 174.374 326.617 173.155C326.471 171.936 326.471 170.765 326.471 170.765Z" fill="#915046"/>
<path d="M316.949 173.448L314.422 170.034L323.848 162.719L324.722 163.938C326.471 166.376 326.374 168.571 324.868 169.741L322.827 171.351L316.949 173.448Z" fill="#B57A68"/>
<path d="M330.795 165.84C331.087 165.791 331.281 166.035 331.184 166.327C330.746 167.352 329.823 168.181 328.706 168.473L322.973 169.887L322.487 167.937L330.795 165.84Z" fill="#B57A68"/>
<path d="M330.018 157.695C330.309 157.5 330.698 157.647 330.698 158.037C330.746 159.451 330.163 160.817 328.997 161.743L323.313 166.327L321.758 164.377L330.018 157.695Z" fill="#B57A68"/>
<path d="M331.232 161.743C331.524 161.597 331.912 161.841 331.815 162.182C331.572 163.547 330.698 164.767 329.386 165.401L323.702 168.229L322.584 165.986L331.232 161.743Z" fill="#B57A68"/>
<path d="M281.239 168.961L312.43 168.766L302.713 182.372L278.567 186.03C275.457 186.517 272.785 183.737 273.368 180.616C274.194 175.593 276.283 169.351 281.239 168.961Z" fill="#E8572C"/>
<path d="M289.693 168.912L279.49 169.156" stroke="#9E391B" stroke-width="1.8647" stroke-miterlimit="10" stroke-linecap="round"/>
<path d="M289.693 168.912L279.052 171.741" stroke="#9E391B" stroke-width="1.8647" stroke-miterlimit="10" stroke-linecap="round"/>
<path d="M311.701 105.416L312.819 132.97C312.867 134.091 313.791 134.969 314.859 134.969H328.366C330.066 134.969 330.844 132.921 329.678 131.75C327.103 129.214 324.479 124.825 324.479 117.608V106.001L311.701 105.416Z" fill="#B57A68"/>
<path d="M317.92 105.659L324.431 105.952V117.559C324.431 120.729 324.916 123.362 325.742 125.508C318.26 122.972 315.734 112.926 317.92 105.659Z" fill="#915046"/>
<path d="M315.054 115.706C314.131 115.072 313.256 114.34 312.382 113.511C308.058 109.268 305.483 103.562 304.851 97.5152C304.268 91.9068 305.385 86.2985 310.05 82.5921C315.005 78.6419 322.779 78.3005 328.366 81.0315C333.71 83.665 336.674 88.6881 337.743 94.394C338.277 97.2226 338.423 100.149 338.472 103.026C338.52 108.439 337.694 118.827 331.524 120.144C324.819 121.558 319.961 119.022 315.054 115.706Z" fill="#B57A68"/>
<path d="M335.799 92.0534C337.597 94.5893 338.083 97.808 338.569 100.88C339.686 96.9302 339.686 92.6874 338.569 88.7371C338.034 86.8839 337.257 85.0795 335.994 83.6652C334.731 82.251 332.884 81.2268 330.99 81.2756C327.977 81.3244 324.382 85.4697 327.491 87.9568C328.415 88.7371 330.018 88.5421 331.135 88.8834C333.03 89.3224 334.682 90.3953 335.799 92.0534Z" fill="#0C0C0C"/>
<path d="M328.609 94.2965C326.568 96.1497 324.09 97.3689 321.418 97.9054C318.698 98.4906 315.394 98.3443 313.305 100.539C307.086 107.22 312.333 115.218 315.491 121.948C317.094 125.313 318.746 129.263 317.872 133.067C316.754 137.944 311.993 140.285 307.329 140.285C299.75 140.334 293.871 134.677 292.316 127.361C291.539 123.606 292.073 119.851 293.531 116.291C294.891 113.024 297.029 110.195 298.098 106.83C299.798 101.465 297.369 95.7596 299.118 90.2975C302.567 79.4222 319.232 68.742 329.386 77.6178C335.362 82.7872 333.467 89.9074 328.609 94.2965Z" fill="#0C0C0C"/>
<path d="M313.742 96.6859C312.382 98.0027 311.507 99.8071 311.313 101.709C311.07 103.855 311.653 106.001 312.722 107.903L314.131 107.659C314.276 105.22 314.908 102.782 315.637 100.49C315.977 99.417 316.414 98.3928 316.9 97.3687C316.511 95.4667 315.005 95.5155 313.742 96.6859Z" fill="#0C0C0C"/>
<path d="M312.382 104.587C311.458 103.806 310.098 103.368 308.981 103.806C308.058 104.197 307.426 105.074 307.183 106.05C306.94 107.025 307.134 108.049 307.426 108.976C308.495 111.951 311.458 114.145 314.568 114.292C315.2 114.34 314.859 109.073 314.762 108.586C314.519 107.123 313.548 105.562 312.382 104.587Z" fill="#B57A68"/>
</g>
<rect x="285.328" y="194.738" width="174.814" height="3.76305" rx="1.88152" fill="black"/>
<path d="M1.00058 226.705L1.00055 237C1.00052 250.255 11.7457 261 25.0006 261L355 261C368.255 261 379 250.255 379 237L379 225" stroke="black" stroke-dasharray="12 6"/>
<defs>
<clipPath id="clip0_2_80">
<rect width="131.619" height="134.74" fill="white" transform="translate(271.641 59.8843)"/>
</clipPath>
</defs>
</svg>
