<svg width="712" height="254" viewBox="0 0 712 254" fill="none" xmlns="http://www.w3.org/2000/svg">
<path d="M353.039 192.504C348.451 197.319 344.083 200.428 340.655 202.877C300.242 231.742 252.419 223.322 242.247 221.286C227.237 218.259 198.212 212.398 177.231 187.826C145.497 150.679 150.445 92.1522 175.047 53.5195C179.553 46.4478 203.326 7.23729 251.673 0.936094C280.919 -2.86114 315.03 4.81587 339.743 25.398C391.574 68.6534 387.897 155.99 353.039 192.504Z" fill="#EEF5F9"/>
<path d="M152 94.7663V189.394C152 197.181 158.041 203.538 165.579 203.758C199.167 204.638 316.642 206.812 348.595 206.317C354.082 206.234 358.544 201.722 358.71 196.053C359.32 174.068 360.318 121.209 356.632 96.6649C355.856 91.4919 351.616 87.6396 346.544 87.4745C318.416 86.5389 193.874 83.5947 161.921 84.3377C156.406 84.4752 152 89.0979 152 94.7663Z" fill="black"/>
<path d="M157.764 94.3259V184.221C157.764 188.761 161.311 192.476 165.718 192.531L343.995 194.787C348.373 194.842 351.948 191.238 351.976 186.725L352.281 97.6278C352.281 94.4084 349.787 91.7669 346.655 91.6844L164.166 87.9146C160.646 87.8046 157.764 90.7213 157.764 94.3259Z" fill="white"/>
<path d="M157.875 106.213L352.364 110.753V98.3432C352.364 94.491 349.26 91.3266 345.353 91.2716L164.72 88.0247C160.896 87.9696 157.792 91.0239 157.792 94.8212L157.875 106.213Z" fill="#EF6238"/>
<path opacity="0.78" d="M168.039 97.4358C168.991 96.4902 168.991 94.9571 168.039 94.0114C167.087 93.0658 165.543 93.0658 164.59 94.0114C163.638 94.9571 163.638 96.4902 164.59 97.4358C165.543 98.3814 167.087 98.3814 168.039 97.4358Z" fill="white"/>
<path opacity="0.78" d="M175.89 97.4544C176.842 96.5088 176.842 94.9756 175.89 94.03C174.937 93.0844 173.393 93.0844 172.441 94.03C171.488 94.9756 171.488 96.5088 172.441 97.4544C173.393 98.4 174.937 98.4 175.89 97.4544Z" fill="white"/>
<path opacity="0.78" d="M183.352 96.1229C183.568 94.8029 182.665 93.5591 181.336 93.3449C180.006 93.1306 178.753 94.0271 178.538 95.3471C178.322 96.6672 179.225 97.911 180.554 98.1252C181.884 98.3395 183.136 97.443 183.352 96.1229Z" fill="white"/>
<path d="M309.058 194.402L186.59 192.922C205.296 136.805 208.04 88.1886 188.059 48.8118C187.421 47.5617 188.308 46.0942 189.666 46.0942H306.919C308.998 46.0942 310.854 47.4258 311.603 49.4096C327.066 90.417 321.862 141.192 309.058 194.402Z" fill="#EBEBEB"/>
<path d="M302.786 66.8849H248.968C248.358 66.8849 247.832 66.2327 247.638 65.2816L245.808 56.6942C245.587 55.6887 246.03 54.6289 246.64 54.6289H301.179C301.65 54.6289 302.066 55.1996 302.204 55.9877L303.534 65.2272C303.645 66.0697 303.285 66.8849 302.786 66.8849Z" fill="white"/>
<path d="M311.488 80.6084H250.825C250.492 80.6084 250.215 80.2279 250.132 79.6844L249.744 76.9126C249.688 76.4234 249.882 75.9614 250.187 75.9614H311.128C311.405 75.9614 311.654 76.3147 311.682 76.8039L311.931 79.6301C311.987 80.1464 311.765 80.6084 311.488 80.6084Z" fill="white"/>
<path d="M312.098 89.8477H251.823C251.435 89.8477 251.13 89.3857 251.047 88.7335L250.825 86.4236C250.77 85.7985 251.047 85.2007 251.435 85.2007H311.793C312.07 85.2007 312.32 85.554 312.347 86.0431L312.541 88.9509C312.597 89.44 312.375 89.8477 312.098 89.8477Z" fill="white"/>
<path d="M313.345 104.93C313.345 105.202 313.123 105.42 312.846 105.42L208.895 105.257C208.147 105.257 207.565 104.659 207.565 103.925V101.561C207.565 101.044 207.981 100.637 208.507 100.637H312.236C312.791 100.637 313.262 101.072 313.262 101.642L313.345 104.93Z" fill="white"/>
<path d="M312.264 114.523H208.064V111.289C208.064 110.528 208.701 109.903 209.45 109.903H312.32C312.874 109.903 313.29 110.338 313.29 110.882L313.234 113.572C313.234 114.115 312.791 114.523 312.264 114.523Z" fill="white"/>
<path d="M311.766 124.224H208.064V119.604H312.237C312.652 119.604 312.985 119.958 312.957 120.365L312.791 123.273C312.763 123.817 312.32 124.224 311.766 124.224Z" fill="white"/>
<path d="M311.155 133.573H206.512V128.953H311.433C311.959 128.953 312.347 129.388 312.319 129.877L312.153 132.622C312.125 133.138 311.682 133.573 311.155 133.573Z" fill="white"/>
<path d="M309.215 147.215H203.519V142.595H309.742C310.379 142.595 310.878 143.138 310.795 143.763L310.49 146.1C310.407 146.753 309.88 147.215 309.215 147.215Z" fill="white"/>
<path d="M308.162 156.482H203.519V151.862H308.994C309.354 151.862 309.631 152.188 309.603 152.541L309.215 155.558C309.16 156.074 308.689 156.482 308.162 156.482Z" fill="white"/>
<path d="M304.061 172.651H201.357V168.031H305.169C305.585 168.031 305.918 168.411 305.834 168.819L305.363 171.591C305.252 172.216 304.698 172.651 304.061 172.651Z" fill="white"/>
<path d="M301.844 181.971H199.167V177.352H302.703C303.202 177.352 303.59 177.814 303.506 178.303L302.98 181.047C302.869 181.591 302.398 181.971 301.844 181.971Z" fill="white"/>
<path d="M319.001 217L319.001 229C319.001 242.255 329.746 253 343.001 253L687 253C700.255 253 711 242.255 711 229L711 196.665" stroke="black" stroke-dasharray="12 6"/>
<path d="M0.5 155.375L147 155.375" stroke="black" stroke-dasharray="12 6"/>
</svg>
