<?xml version="1.0" encoding="utf-8"?>
<!-- Generator: Adobe Illustrator 26.1.0, SVG Export Plug-In . SVG Version: 6.00 Build 0)  -->
<svg version="1.1" id="Layer_1" xmlns="http://www.w3.org/2000/svg" xmlns:xlink="http://www.w3.org/1999/xlink" x="0px" y="0px"
	 viewBox="0 0 366 262" style="enable-background:new 0 0 366 262;" xml:space="preserve">
<style type="text/css">
	.st0{fill:#EEF5F9;}
	.st1{clip-path:url(#SVGID_00000081644691107509700810000009178661563374652843_);}
	.st2{fill:#565656;}
	.st3{fill:#FFFFFF;}
	.st4{fill:#EEEEEE;}
	.st5{opacity:0.69;}
	.st6{opacity:0.69;fill:url(#SVGID_00000032649396938206116420000011460147986269329084_);enable-background:new    ;}
	.st7{opacity:0.69;fill:#F6E5E0;enable-background:new    ;}
	.st8{opacity:0.69;fill:#FFDCD1;enable-background:new    ;}
	.st9{opacity:0.69;fill:#FFEEE9;enable-background:new    ;}
	.st10{opacity:0.69;fill:url(#SVGID_00000132067166203671435860000004061128621347470467_);enable-background:new    ;}
	.st11{opacity:0.69;fill:url(#SVGID_00000051358137883906408100000000261048493267348353_);enable-background:new    ;}
	.st12{opacity:0.69;fill:url(#SVGID_00000158707140075711754850000014213875354151112608_);enable-background:new    ;}
	.st13{opacity:0.69;fill:url(#SVGID_00000016037159948526983250000017704410142669530789_);enable-background:new    ;}
	.st14{fill:#EF6238;}
	.st15{fill:#2A2A2A;}
	.st16{fill:#A33717;}
	.st17{opacity:0.36;fill:#FFFFFF;enable-background:new    ;}
	.st18{fill:#212121;}
	.st19{opacity:0.19;fill:#FFFFFF;enable-background:new    ;}
	.st20{fill:#FFB27D;}
	.st21{fill:#F3A570;}
	.st22{fill:#F5AB78;}
	.st23{fill:#EAA97C;}
	.st24{fill:#FFB480;}
	.st25{fill:none;stroke:#000000;stroke-dasharray:12,6;}
</style>
<circle class="st0" cx="196" cy="112" r="112"/>
<g>
	<defs>
		<rect id="SVGID_1_" x="91.8" y="2.9" width="200.6" height="201.6"/>
	</defs>
	<clipPath id="SVGID_00000142876721681778188770000015942067743177906067_">
		<use xlink:href="#SVGID_1_"  style="overflow:visible;"/>
	</clipPath>
	<g style="clip-path:url(#SVGID_00000142876721681778188770000015942067743177906067_);">
		<path class="st2" d="M224.7,33.5l-64.1-6.6l-64.1,7.5v159.1l64.1-3.9l64.1,4.4l64-6.7V29.8L224.7,33.5z"/>
		<path class="st3" d="M162,185.9l-60.9,3.7V38.7l60.9-7.1V185.9z"/>
		<path class="st4" d="M222.9,190l-60.9-4.1V31.6l60.9,6.3V190z"/>
		<path class="st3" d="M283.7,183.7l-60.8,6.3V37.9l60.8-3.5V183.7z"/>
		<path class="st3" d="M162,31.6h-1.4v154.3h1.4V31.6z"/>
		<g class="st5">
			
				<linearGradient id="SVGID_00000116236714882719547100000001695526006433384882_" gradientUnits="userSpaceOnUse" x1="243.6703" y1="212.97" x2="290.5984" y2="298.5353" gradientTransform="matrix(1 0 0 -1 0 264)">
				<stop  offset="0" style="stop-color:#4F52FF"/>
				<stop  offset="1" style="stop-color:#4042E2"/>
			</linearGradient>
			
				<path style="opacity:0.69;fill:url(#SVGID_00000116236714882719547100000001695526006433384882_);enable-background:new    ;" d="
				M238.9,41.9l15.2,11.5L243.8,63l-12.2-11.2L238.9,41.9z"/>
			<path class="st7" d="M150.2,153.4l12.3,6.3l12.3-2l-1.1-8.3l-11.2-2.6L150.2,153.4z"/>
			<path class="st8" d="M137.6,64.8l-33.5,11.7l0.7,2.7l4.8-1.7l31,9.7l0.5-2.2l-27.9-8.7l24-8.3l22.4,17l-3.1,24.5l-24.5,2
				l-21.5,33.4l2,1.7l20.8-32.3l25.3-2.1l3.6-28.5L137.6,64.8z"/>
			<path class="st9" d="M127.1,163.2l-25.6-24.9l1.6-2.2l25.6,24.9L127.1,163.2z"/>
			
				<linearGradient id="SVGID_00000024718612679404112430000009003188867759508885_" gradientUnits="userSpaceOnUse" x1="176.73" y1="146.7462" x2="225.255" y2="146.7462" gradientTransform="matrix(1 0 0 -1 0 264)">
				<stop  offset="0" style="stop-color:#DAE3FE"/>
				<stop  offset="1" style="stop-color:#E9EFFD"/>
			</linearGradient>
			
				<path style="opacity:0.69;fill:url(#SVGID_00000024718612679404112430000009003188867759508885_);enable-background:new    ;" d="
				M225.3,138.3L210,95.1l-2.3,1.1l8,22.7l-39,13.8l0.7,2.7l39.2-13.9l6.3,17.8L225.3,138.3z"/>
			
				<linearGradient id="SVGID_00000014605151887721269940000000865582479614374817_" gradientUnits="userSpaceOnUse" x1="233.987" y1="135.931" x2="259.682" y2="135.931" gradientTransform="matrix(1 0 0 -1 0 264)">
				<stop  offset="0" style="stop-color:#DAE3FE"/>
				<stop  offset="1" style="stop-color:#E9EFFD"/>
			</linearGradient>
			
				<path style="opacity:0.69;fill:url(#SVGID_00000014605151887721269940000000865582479614374817_);enable-background:new    ;" d="
				M257.9,129.9l-7.4,9.3l-14.7-33.1l-1.8,1l15,33.9l0,0l-5.7,7.2l1.8,1.9l14.5-18.2L257.9,129.9z"/>
			
				<linearGradient id="SVGID_00000153703226528694182430000008725147627754572183_" gradientUnits="userSpaceOnUse" x1="178.646" y1="196.6243" x2="219.361" y2="196.6243" gradientTransform="matrix(1 0 0 -1 0 264)">
				<stop  offset="0" style="stop-color:#DAE3FE"/>
				<stop  offset="1" style="stop-color:#E9EFFD"/>
			</linearGradient>
			
				<path style="opacity:0.69;fill:url(#SVGID_00000153703226528694182430000008725147627754572183_);enable-background:new    ;" d="
				M217,87.5L212,68L206,50.2L178.8,52l-0.1-2.8l29-2l6.8,19.9l5,19.6L217,87.5z"/>
			<path class="st9" d="M138.9,65.1l-2-0.2l1-15.5l24.7,5.9l-0.4,2.2l-22.5-5.4L138.9,65.1z"/>
			
				<linearGradient id="SVGID_00000155120235157407053480000012921769841540579222_" gradientUnits="userSpaceOnUse" x1="238.247" y1="211.7812" x2="255.774" y2="211.7812" gradientTransform="matrix(1 0 0 -1 0 264)">
				<stop  offset="0" style="stop-color:#DAE3FE"/>
				<stop  offset="1" style="stop-color:#E9EFFD"/>
			</linearGradient>
			
				<path style="opacity:0.69;fill:url(#SVGID_00000155120235157407053480000012921769841540579222_);enable-background:new    ;" d="
				M243.4,64.7l-1.2-1.8l10.3-9.4l-14.3-11.8l1.2-1.9l16.4,13.6L243.4,64.7z"/>
			<path class="st9" d="M162.9,179.2l-36.4-16.6l0.9-2.6l34.6,15.8l9.8-15.8l-8.8,2.4l-15.1-8.1l1-2.6l14.3,7.6l14.4-4L162.9,179.2z
				"/>
			<path class="st8" d="M241.9,148.7l-24.8,30.8L192,152.6L177.9,132l-1.5,1.4l14.2,20.6l0,0.1l25.3,27l-3.9,4.9l1.8,1.9l30-37.4
				L241.9,148.7z"/>
		</g>
		<path class="st14" d="M170.5,86.3l-8.6-11c-19.4-7.8-41.4-16-58.5-16.9l0.1-2.6c17.5,1,39.8,9.2,59.4,17.1l0.3,0.1l9,11.5
			L170.5,86.3z"/>
		<path class="st14" d="M279.1,173.9c-18.9-13.3-40.2-28-55-33.6L176,160.7l-0.8-2.4l48.9-20.8l0.4,0.1c15.1,5.7,36.7,20.5,55.8,34
			L279.1,173.9z"/>
		<path class="st14" d="M185.1,77.2L170.3,35l2.1-1l14.8,42.1L185.1,77.2z"/>
		<path class="st14" d="M252.1,88.8c-3.8-17.1-11.2-28.8-22.5-35.9l1.1-2.2c6.3,3.9,11.4,9.3,15.4,15.9c3.6,6,6.3,13.1,8.2,21.6
			L252.1,88.8z"/>
		<path class="st14" d="M136.6,159l-1.9-1.4l21.9-38.7l1.9,1.4L136.6,159z"/>
		<path class="st14" d="M258.2,90.3L194,87.3l0.1-2.6l63.7,2.9l23.4-11L282,79L258.2,90.3z"/>
		<path class="st14" d="M104.8,173.7l-0.8-2.4l58.3-25.9l11.5,1.3l-0.2,2.5l-10.9-1.2L104.8,173.7z"/>
		<path class="st14" d="M180,121.8c-25-0.3-48.5-1.8-60.5-16.1l1.6-1.8c11.4,13.7,34.3,15,58.9,15.3L180,121.8z"/>
		<path class="st14" d="M177.8,182.3l-5.2-35.9l0.1-0.3l15.1-55.3l6.8-13.2l26.7-16.6L239,38.5l1.6,1.7l-18.1,22.9l-26.5,16.5
			l-6.3,12.3l-14.9,54.7l5.1,35.3L177.8,182.3z"/>
		<path class="st14" d="M281.7,179.6l-31.2-65l-57.8-24.3l-10.3-2.8l-37.3-3.2l-41.2,34.7l-1.3-2.1l41.9-35.3l0.4,0l37.9,3.3
			l10.6,2.9l0.1,0l58.6,24.7l0.2,0.4l31.4,65.4L281.7,179.6z"/>
		<path class="st14" d="M188.5,91.2c4.3,0,7.7-3.4,7.7-7.7c0-4.3-3.5-7.7-7.7-7.7c-4.3,0-7.7,3.4-7.7,7.7
			C180.8,87.7,184.2,91.2,188.5,91.2z"/>
		<path class="st15" d="M188.5,89c3.1,0,5.5-2.5,5.5-5.5c0-3-2.5-5.5-5.5-5.5s-5.5,2.5-5.5,5.5C183,86.5,185.4,89,188.5,89z"/>
		<path class="st14" d="M231,170.2c5.6,0,10.2-4.5,10.2-10.1S236.7,150,231,150c-5.6,0-10.2,4.5-10.2,10.1S225.4,170.2,231,170.2z"
			/>
		<path class="st16" d="M282.3,48.4c0,19.2-29.1,68.3-44.3,92.6c-1.2,1.9-3.7,3-8.4,3c-2.2,0-1.4-1.1-2.5-3
			c-15.2-24.2-44.3-73.3-44.3-92.6c0-25.1,22.3-45.5,49.8-45.5C260,2.9,282.3,23.3,282.3,48.4z"/>
		<path class="st14" d="M279.3,48.4c0,19.2-29.1,68.3-44.3,92.6c-1.2,1.9-3.2,3-5.5,3c-2.2,0-4.3-1.1-5.5-3
			c-15.2-24.2-44.3-73.3-44.3-92.6c0-25.1,22.3-45.5,49.8-45.5C257,2.9,279.3,23.3,279.3,48.4z"/>
		<path class="st17" d="M252.3,71.8c11.9-11.8,11.9-30.9,0-42.8c-11.9-11.8-31.1-11.8-43,0c-11.9,11.8-11.9,30.9,0,42.8
			C221.2,83.6,240.4,83.6,252.3,71.8z"/>
		<path class="st17" d="M227.8,69.5c12.2,0,22.1-9.8,22.1-22s-9.9-22-22.1-22c-12.2,0-22.1,9.8-22.1,22S215.6,69.5,227.8,69.5z"/>
		<path class="st3" d="M229.6,88.8c-20.4,0-36.9-16.5-36.9-36.7c0-0.4,0.3-0.7,0.7-0.7c0.4,0,0.7,0.3,0.7,0.7
			c0,19.5,16,35.4,35.6,35.4c19.6,0,35.6-15.9,35.6-35.4s-16-35.4-35.6-35.4c-11.3,0-21.8,5.2-28.5,14.3c-0.2,0.3-0.6,0.3-0.9,0.1
			c-0.3-0.2-0.4-0.6-0.1-0.9c7-9.4,17.8-14.8,29.6-14.8c20.4,0,36.9,16.5,36.9,36.7C266.5,72.3,249.9,88.8,229.6,88.8z"/>
		<path class="st18" d="M199.5,139.7l-67.2,42.2c-2.8,1.8-3.5,5.6-1.5,8.2l0.3,0.4c1.8,2.4,5.1,2.8,7.5,1.1l63.7-47.9L199.5,139.7z"
			/>
		<path class="st19" d="M237.2,151.7c19.9-4.3,32.6-23.5,28.3-43c-4.2-19.4-23.8-31.7-43.7-27.4c-19.9,4.3-32.6,23.5-28.3,43
			C197.7,143.8,217.3,156,237.2,151.7z"/>
		<path d="M221,77.4c-22.1,4.8-36.2,26.2-31.5,47.8s26.5,35.3,48.6,30.5c22.1-4.8,36.2-26.2,31.5-47.8
			C264.8,86.2,243.1,72.6,221,77.4z M236.8,149.9c-18.9,4.1-37.4-7.6-41.5-26c-4-18.4,8-36.7,26.9-40.8s37.4,7.6,41.5,26
			C267.7,127.6,255.7,145.8,236.8,149.9z"/>
		<path d="M132.4,196.3c0,0-0.5,2.8-0.8,5.6c-0.1,1.1,0.7,2,1.8,2.1c3.7,0.2,11.6,0.6,14.5,0.5c0.4,0,0.7-0.5,0.6-0.8
			c-0.1-0.3-0.4-0.6-0.7-0.8l-13-6.1L132.4,196.3z"/>
		<path class="st20" d="M132,194.7l0.4,3.3c0,0,2.3,1.1,3.9-0.1l-0.9-3.7L132,194.7z"/>
		<path d="M132.9,131.7c-0.2,0.9-1.3,43.6,3.1,62.8c0.1,0.3-0.1,0.6-0.4,0.8c-0.7,0.3-2.1,0.7-3.7,0.7c-0.5,0-1-0.3-1.1-0.8
			c-1.3-4.5-7.3-26.8-8-48.1c-0.7-23.8,0-0.8,0-0.8l0.7-14.7L132.9,131.7z"/>
		<path d="M117.3,197.7c0,0-0.8,1.4-1.6,5.2c-0.1,0.7,0.3,1.3,1,1.4c1.2,0.1,3.1,0.3,4.6,0.3c0.7,0,1.2-0.6,1.2-1.3
			c-0.2-1.4-0.6-3.6-2.2-5.4L117.3,197.7z"/>
		<path class="st20" d="M116.7,193.3l0.9,5.1c0,0,0.9,0.7,2.7,0.2l-0.4-5.5L116.7,193.3z"/>
		<path d="M114.7,132.9c-4,22.5,0.3,55.8,1.8,62.3c0.1,0.4,0.4,0.7,0.8,0.8c0.7,0.1,1.8,0.2,2.9-0.1c0.4-0.1,0.7-0.5,0.7-0.9
			c0.3-5.2,0.2-37.5,3.8-50.2c0.2-0.6,0.6-1.2,1.1-1.6l6.8-4.7l0.6-7.8L114.7,132.9z"/>
		<path class="st14" d="M139,90.4c-11.3-0.3-23.7,2.7-23.7,2.7c-3.5,19.5-1,42-1,42c8.7,2.4,18.6-1.2,18.6-1.2
			c1.5-8.1,8.5-31,8.5-31c5.5-0.6,10-2.2,13.8-4.2c-2.8-3.3-4.1-7.5-4.7-10C146.6,89.8,142.5,90.4,139,90.4z"/>
		<path class="st20" d="M172.5,74.2c-1.1-1.3-2.5-0.7-2.5-0.7c-1.7,6.9-10.5,12.5-19.4,15.2c0.6,2.5,1.9,6.7,4.7,10
			C170.1,90.5,172.5,74.2,172.5,74.2z"/>
		<path class="st20" d="M172.2,74.5c0.1,0.4-1.2,0.9-2-0.6c0-0.7-0.4-3.8,0-4.4c2.3-3.1,6.8-6.9,6.8-6.9c0.7,0.7,0.1,1.5,0.1,1.5
			l-2.2,2.2c0.4,0.8,1,1.5,1.2,2.5c0.2,0.7,0.1,1.5-0.3,2.2c-0.4,0.7-0.9,1.6-1.4,2.2C173.5,74.5,172.2,74.5,172.2,74.5z"/>
		<path class="st21" d="M174,67.7l-2,1.6l-0.6,1.6l1.7,2c0,0,0.6-3.3,1.1-4C174.6,68.3,174.4,67.9,174,67.7z"/>
		<path class="st14" d="M119.6,104l-4.2-10.9c0,0-10.6,7-12.4,16c2,0.2,5.6,0.7,9.1,2.5C112.9,107.4,119.6,104,119.6,104z"/>
		<path class="st20" d="M128.6,114.3c0,0-11.9,6.5-15.8,0.8c-0.8-1.2-1-2.4-0.8-3.5c-3.5-1.8-7.1-2.4-9.1-2.5
			c-0.5,2.7-0.3,5.6,1.3,8.5c6.9,12.8,26-0.5,26-0.5L128.6,114.3z"/>
		<path class="st22" d="M127.7,81.2l-3.7,10.3c-0.1,0.2,0,0.4,0.2,0.5c1,0.5,4.5,2.1,8.7-0.5c0.4-0.3,0.8-0.7,0.8-1.2l1.2-8.9
			L127.7,81.2z"/>
		<path class="st20" d="M135.6,71.7c0,0,3.9,7.4,3.3,10.4c-0.5,3-5.4,2.7-9.6,0.3l-2.9-8L135.6,71.7z"/>
		<path d="M129.5,78.4c0.2-0.1,0.2-0.3,0.1-0.4c-0.3-0.5-0.9-1.5-1.1-2.3c0,0-0.7-0.5,1.8-1c2.5-0.6,6.3-1.5,7.1-3.6
			c0.8-2.1-1.2-7.3-4.4-3.2c-0.1,0.2-0.4,0.2-0.5,0c-0.5-0.7-1.9-2.1-3.8-1.3c-1.8,0.8-2,2.1-2,2.8c0,0.2-0.2,0.3-0.4,0.3
			c-0.9-0.2-3.1-0.3-4.1,1.9c-0.9,1.8-0.3,2.9,0.2,3.4c0.2,0.2,0.1,0.4-0.1,0.5c-0.6,0.2-1.4,0.7-1.3,2.1c0.1,1.9,2.3,1.8,2.9,1.7
			c0.1,0,0.2,0,0.3,0.1c0.5,0.6,2.9,3.1,5.4,3.4c0.2,0,0.4-0.2,0.3-0.4l-1.1-3.2c-0.1-0.2,0-0.3,0.2-0.4L129.5,78.4z"/>
		<path class="st23" d="M130,78.9c0,0-2.8-1.9-3-0.3c-0.2,1.6,2.5,2.4,3.9,1.8L130,78.9z"/>
		<path d="M126.2,124.6l6.5-22.5c0.1-0.3,0.3-0.4,0.6-0.5c1.2-0.1,4.6-0.5,8.5-0.9c4.7-0.4,10.2-0.7,13.5-0.4c0.5,0,0.7,0.5,0.5,0.9
			c-1.9,3.8-9.5,19-13.4,24c-0.1,0.2-0.3,0.3-0.5,0.3l-15-0.1C126.4,125.4,126.1,125,126.2,124.6z"/>
		<path class="st24" d="M127.8,119.1c0,0-0.9-3.7-0.5-5c0.4-1.3,1.1-3,3.4-2.6c2.3,0.4,5.1,1.4,5.1,1.4s-0.1,1.7-1.9,1.2l1.1,0.8
			c0,0-0.2,1.4-1.7,0.6l1,1.1c0,0-0.6,1.1-1.8,0.4C131.5,116.3,130.9,119.6,127.8,119.1z"/>
	</g>
</g>
<path class="st25" d="M95,48H-91"/>
<path class="st25" d="M196,226.7V237c0,13.3,10.7,24,24,24h330c13.3,0,24-10.7,24-24v-12"/>
</svg>
