<svg width="506" height="261" viewBox="0 0 506 261" fill="none" xmlns="http://www.w3.org/2000/svg">
<path d="M115.486 37.051C58.1385 35.315 8.46931 78.1071 0.966935 134.267C-7.23928 195.666 37.9189 250.906 93.4908 259.754C162.604 270.762 229.645 207.09 223.623 138.019C219.088 85.9871 173.777 38.827 115.486 37.051Z" fill="#EEF5F9"/>
<path d="M206.359 138.998L208.331 136.37L199.975 122.645C199.975 122.645 198.582 120.199 197.657 120.39C196.731 120.58 132.104 120.58 131.179 120.39C130.253 120.199 128.861 122.645 128.861 122.645L120.504 136.37L122.477 138.998H206.359Z" fill="black"/>
<path opacity="0.3" d="M208.331 136.36L199.975 122.636C199.975 122.636 198.582 120.189 197.657 120.38C197.44 120.424 193.634 120.458 187.951 120.484C187.648 124.822 186.93 128.943 183.34 131.467C173.652 138.148 162.45 133.289 151.551 136.022C149.172 136.751 146.94 137.792 144.777 138.998H206.368L208.331 136.36Z" fill="black"/>
<path d="M110.392 177.178V188.942C110.392 188.942 110.505 194.416 113.411 194.529C116.318 194.642 122.234 194.529 122.234 194.529C122.234 194.529 124.786 194.295 124.786 192.551C124.786 190.807 124.786 183.824 124.786 183.824L110.392 177.178Z" fill="black"/>
<path d="M218.78 177.178V188.942C218.78 188.942 218.668 194.416 215.761 194.529C212.855 194.642 206.938 194.529 206.938 194.529C206.938 194.529 204.386 194.295 204.386 192.551C204.386 190.807 204.386 183.824 204.386 183.824L218.78 177.178Z" fill="black"/>
<path d="M120.219 138.027H118.282C117.174 138.027 116.266 137.124 116.266 136.005V133.888C116.266 132.682 115.202 131.754 114.008 131.928C110.773 132.396 105.202 133.602 105.202 136.239C105.202 137.48 106.517 140.039 108.913 140.117C111.309 140.195 119.596 140.742 119.596 140.742L120.219 138.027Z" fill="#EF6238"/>
<path d="M208.6 138.027H210.538C211.645 138.027 212.553 137.124 212.553 136.005V133.888C212.553 132.682 213.617 131.754 214.811 131.928C218.046 132.396 223.617 133.602 223.617 136.239C223.617 137.48 222.302 140.039 219.906 140.117C217.51 140.195 209.223 140.742 209.223 140.742L208.6 138.027Z" fill="#CD5835"/>
<path d="M220.986 158.899C220.986 158.899 221.142 155.811 219.36 152.965C218.036 150.849 212.508 143.422 212.508 143.422L198.685 120.441C197.985 119.261 196.998 118.715 195.978 118.515C195.225 118.316 194.135 118.151 192.544 118.116C187.44 118.004 141.385 118.004 136.282 118.116C134.699 118.151 133.609 118.316 132.856 118.515C131.835 118.715 130.841 119.261 130.14 120.441L116.317 143.422C116.317 143.422 110.832 150.875 109.466 152.965C107.372 156.167 107.839 158.899 107.839 158.899C107.839 158.899 108.419 176.762 108.185 180.596C107.952 184.44 220.865 184.44 220.631 180.596C220.406 176.762 220.986 158.899 220.986 158.899ZM164.447 138.061H164.369L123.505 137.011C123.021 136.916 122.606 136.803 122.251 136.682C123.306 134.704 127.77 126.393 130.538 122.81L198.339 122.888C201.107 126.505 205.519 134.721 206.566 136.69C206.211 136.812 205.804 136.925 205.311 137.02L164.447 138.061Z" fill="#EF6238"/>
<path d="M191.558 189.48C191.558 189.48 216.635 188.465 219.879 182.652C221.661 179.451 221.929 177.221 221.808 175.859C221.73 174.948 220.909 174.289 220.009 174.419C216.938 174.862 209.455 175.92 206.523 176.111C195.987 176.779 132.822 176.779 122.286 176.111C119.354 175.929 111.871 174.862 108.8 174.419C107.901 174.289 107.079 174.948 107.001 175.859C106.88 177.221 107.148 179.451 108.93 182.652C112.165 188.465 137.251 189.48 137.251 189.48H191.558Z" fill="#EF6338"/>
<path opacity="0.1" d="M122.296 176.12C119.363 175.938 111.881 174.871 108.81 174.428C108.369 174.368 107.945 174.489 107.616 174.749C109.217 175.634 110.765 176.658 112.313 177.552C112.313 177.552 114.588 178.705 117.036 179.599C126.024 182.861 162.451 182.939 162.451 182.939C162.451 182.939 187.796 183 205.746 181.568C207.735 181.412 212.424 180.978 216.498 177.699C217.995 176.493 218.972 175.253 219.5 174.507C216.178 174.984 209.31 175.947 206.533 176.12C195.997 176.788 132.832 176.788 122.296 176.12Z" fill="white"/>
<path d="M196.757 161.172L195.936 159.151C195.503 158.084 194.465 157.39 193.323 157.39H135.513C134.363 157.39 133.333 158.084 132.901 159.151L132.079 161.172C131.318 163.037 132.684 165.076 134.691 165.076H194.154C196.152 165.076 197.51 163.029 196.757 161.172Z" fill="#CD5835"/>
<path d="M196.523 169.119L195.442 170.004C195.295 170.125 195.105 170.194 194.914 170.194H133.904C133.713 170.194 133.523 170.125 133.376 170.004L132.295 169.119C131.689 168.624 132.035 167.635 132.822 167.635H196.004C196.783 167.635 197.138 168.624 196.523 169.119Z" fill="#D4552F"/>
<path d="M134.656 157.503L121.888 150.979C121.888 150.979 117.131 148.419 115.271 149.469C113.411 150.519 112.373 153.781 112.373 155.525C112.373 157.268 112.607 164.955 132.459 164.955C134.431 164.955 135.997 163.09 136.231 160.765C136.455 158.439 134.656 157.503 134.656 157.503Z" fill="white"/>
<path d="M194.17 157.503L206.938 150.979C206.938 150.979 211.696 148.419 213.555 149.469C215.415 150.519 216.453 153.781 216.453 155.525C216.453 157.268 216.22 164.955 196.367 164.955C194.395 164.955 192.829 163.09 192.596 160.765C192.371 158.439 194.17 157.503 194.17 157.503Z" fill="white"/>
<path d="M237.334 208.722L6.33594 206.744V212.583C6.33594 214.17 7.33937 215.515 8.70613 215.758L74.0247 227.261C74.8033 227.4 75.5818 227.435 76.369 227.365L234.817 214.248C236.236 214.136 237.326 212.782 237.326 211.151V208.722H237.334Z" fill="#BFC8D6"/>
<path d="M153.512 199.361L8.73179 210.049C6.14535 210.24 4.03467 208.21 4.03467 205.512V97.3823C4.03467 94.6842 6.14535 92.498 8.73179 92.498H153.512C155.649 92.498 157.37 94.476 157.37 96.9138V194.659C157.37 197.097 155.64 199.205 153.512 199.361Z" fill="#BFC8D6"/>
<path d="M155.821 199.361L11.0409 210.049C8.44578 210.24 6.34375 208.21 6.34375 205.512V97.3823C6.34375 94.6842 8.45443 92.498 11.0409 92.498H155.821C157.958 92.498 159.679 94.476 159.679 96.9138V194.659C159.679 197.097 157.949 199.205 155.821 199.361Z" fill="black"/>
<path d="M151.307 192.464L16.4572 201.755C14.3466 201.903 12.6338 200.229 12.6338 198.025V103.359C12.6338 101.156 14.3466 99.36 16.4572 99.3513L151.307 98.7701C153.072 98.7614 154.491 100.384 154.491 102.388V188.612C154.491 190.625 153.072 192.343 151.307 192.464Z" fill="white"/>
<path d="M161.591 198.763L6.34375 210.015L74.0326 221.935C74.8111 222.074 75.5897 222.108 76.3768 222.039L237.334 208.722L164.057 198.841C163.235 198.737 162.413 198.711 161.591 198.763Z" fill="url(#paint0_linear_2_80)"/>
<path d="M28.9902 210.11L158.243 200.61L198.243 205.954L70.1052 216.122L28.9902 210.11Z" fill="#E9EDF2"/>
<path d="M70.8682 197.852L15.8608 201.565C14.2432 201.678 12.8765 200.394 12.8765 198.772V102.137C12.8765 100.592 14.1221 99.3431 15.6619 99.3344L70.8682 99.1089V197.852Z" fill="#E9EDF2"/>
<path d="M141.913 148.228L83.9556 150.267V144.385L141.913 142.563V148.228Z" fill="#E9EDF2"/>
<path d="M141.913 157.494L83.9556 159.897V154.015L141.913 151.838V157.494Z" fill="#E9EDF2"/>
<path d="M58.315 149.131L25.0371 150.268V145.878L58.315 144.828V149.131Z" fill="white"/>
<path d="M58.315 156.175L25.0371 157.459V153.069L58.315 151.872V156.175Z" fill="white"/>
<path d="M58.315 163.22L25.0371 164.66V160.27L58.315 158.917V163.22Z" fill="white"/>
<path d="M58.315 170.264L25.0371 171.851V167.461L58.315 165.969V170.264Z" fill="white"/>
<path d="M134.464 179.599L94.102 181.837C92 181.95 90.2354 180.276 90.2354 178.168V172.824C90.2354 170.872 91.7665 169.258 93.7128 169.154L134.075 167.098C136.169 166.994 137.925 168.668 137.925 170.768V175.929C137.925 177.881 136.402 179.486 134.464 179.599Z" fill="#EF6238"/>
<path d="M135.885 120.979C134.276 119.608 127.97 118.307 127.97 118.307L123.065 123.729L106.724 123.989C100.981 122.297 96.3873 120.935 90.6435 119.244C90.4705 119.2 89.9947 119.096 89.6487 119.322C89.3719 119.504 89.2941 119.669 89.3114 120.094L89.7266 132.907C89.7439 133.332 90.0899 133.671 90.4878 133.653L93.0829 133.532C93.0829 133.532 93.0656 127.164 98.9219 127.069C104.787 126.973 104.683 133.185 104.683 133.185L122.39 132.907C122.39 132.907 122.061 126.704 128.082 126.609C134.103 126.514 134.475 132.916 134.475 132.916L136.43 132.881C137.027 132.101 138.488 129.984 138.497 127.017C138.497 126.21 138.488 124.57 137.52 122.896C137.39 122.644 136.888 121.829 135.885 120.979Z" fill="#E9EDF2"/>
<path d="M92.6499 117.682C92.6499 117.682 103.809 111.636 111.707 111.592L112.044 121.63L107.027 121.708L92.6499 117.682Z" fill="#E9EDF2"/>
<path d="M114.682 111.54C114.682 111.54 120.374 111.063 125.91 117.388L121.87 121.465L114.95 121.578C114.941 121.578 114.595 111.462 114.682 111.54Z" fill="#E9EDF2"/>
<path d="M99.9712 137.373C102.05 136.929 103.358 134.791 102.892 132.598C102.426 130.405 100.363 128.987 98.2838 129.431C96.2046 129.876 94.8968 132.014 95.3627 134.207C95.8287 136.4 97.892 137.817 99.9712 137.373Z" fill="#E9EDF2"/>
<path d="M129.15 136.914C131.23 136.47 132.537 134.332 132.071 132.139C131.605 129.946 129.542 128.528 127.463 128.972C125.384 129.417 124.076 131.555 124.542 133.748C125.008 135.941 127.071 137.358 129.15 136.914Z" fill="#E9EDF2"/>
<path d="M113 35.1772L113 25.0001C113 11.7452 123.745 1 137 1L481 1.00003C494.255 1.00003 505 11.7452 505 25L505 37" stroke="black" stroke-dasharray="12 6"/>
<defs>
<linearGradient id="paint0_linear_2_80" x1="6.34081" y1="210.408" x2="237.338" y2="210.408" gradientUnits="userSpaceOnUse">
<stop offset="0.494" stop-color="#EBEFF2"/>
<stop offset="1" stop-color="white"/>
</linearGradient>
</defs>
</svg>
