<?xml version="1.0" encoding="utf-8"?>
<!-- Generator: Adobe Illustrator 26.1.0, SVG Export Plug-In . SVG Version: 6.00 Build 0)  -->
<svg version="1.1" id="Layer_1" xmlns="http://www.w3.org/2000/svg" xmlns:xlink="http://www.w3.org/1999/xlink" x="0px" y="0px"
	 viewBox="0 0 353.5 224" style="enable-background:new 0 0 353.5 224;" xml:space="preserve">
<style type="text/css">
	.st0{fill:#EEF5F9;}
	.st1{clip-path:url(#SVGID_00000113335711445975615820000005563253878910176139_);}
	.st2{fill:#FAFAFA;}
	.st3{fill:#EBEBEB;}
	.st4{fill:#263238;}
	.st5{fill:#EF6238;}
	.st6{opacity:0.5;}
	.st7{opacity:0.5;enable-background:new    ;}
	.st8{fill:#E0E0E0;}
	.st9{opacity:0.4;}
	.st10{opacity:0.4;enable-background:new    ;}
	.st11{fill:#714438;}
	.st12{fill:#FFFFFF;}
	.st13{fill:none;stroke:#000000;stroke-dasharray:12,6;}
</style>
<path class="st0" d="M269.6,192.5c-4.6,4.8-8.9,7.9-12.4,10.4c-40.4,28.9-88.2,20.5-98.4,18.4c-15-3-44-8.9-65-33.5
	C62.1,150.7,67,92.2,91.6,53.5c4.5-7.1,28.3-46.3,76.6-52.6c29.3-3.8,63.4,3.9,88.1,24.5C308.2,68.6,304.5,156,269.6,192.5z"/>
<g>
	<defs>
		<rect id="SVGID_1_" x="68.5" y="7.4" width="231" height="194.9"/>
	</defs>
	<clipPath id="SVGID_00000057142861435662219120000018185238868430765727_">
		<use xlink:href="#SVGID_1_"  style="overflow:visible;"/>
	</clipPath>
	<g style="clip-path:url(#SVGID_00000057142861435662219120000018185238868430765727_);">
		<path d="M189.3,201.8l-66.1-0.3c-8,0-14.4-6.5-14.3-14.5l0.7-165.5c0.1-7.9,6.5-14.4,14.5-14.3l66.1,0.3c8,0,14.4,6.5,14.3,14.5
			l-0.7,165.5C203.7,195.4,197.2,201.8,189.3,201.8z"/>
		<path class="st2" d="M190,13.1l-12.8,0c-1.7,0-3.1,1.4-3.1,3.2v2.3c0,1.8-1.4,3.2-3.1,3.2l-25-0.1c-1.7,0-3.1-1.5-3.1-3.3v-2.3
			c0-1.8-1.4-3.3-3.1-3.3h-4.5l-11.2,0c-5.6,0-10.1,4.5-10.1,10l-0.6,161.6c0,5.6,4.5,10.1,10,10.1l66,0.3c5.6,0.1,10.1-4.5,10.1-10
			l0.7-161.6C200.1,17.7,195.6,13.2,190,13.1z"/>
		<path class="st3" d="M113.8,42.2h10.8l9.7,9.6l-10,10l-10.3-10.3L113.8,42.2z"/>
		<path class="st3" d="M136.4,47.7l-5.4-5.4h12.2L136.4,47.7z"/>
		<path class="st3" d="M141.2,52.1l9.5-9.5h33.2c0,0,5.1,22.7-14.9,37.2L141.2,52.1z"/>
		<path class="st3" d="M137.1,55.1L127,65.2l28.1,28.1l10.1-10.5L137.1,55.1z"/>
		<path class="st3" d="M113.7,71l6.4-6.6l-6.2-6.2L113.7,71z"/>
		<path class="st3" d="M123.9,68.3l-9.8,9.7v13.6l20.2,20.7l17.1-15.9L123.9,68.3z"/>
		<path class="st3" d="M172.8,82.6c0,0,20.9-15.4,14.2-40h13l-0.1,69.8L172.8,82.6z"/>
		<path class="st3" d="M168.8,86.7l-10.1,10.6l31.1,31l9.5-10L168.8,86.7z"/>
		<path class="st3" d="M154.4,100.1l-15.9,15.8l31.8,31.6l15.9-15.4L154.4,100.1z"/>
		<path class="st3" d="M146.1,179.2l24.4-25.2l23.1,23.6L146.1,179.2z"/>
		<path class="st3" d="M174.2,150.8l25.4-25.1c0,1.1-0.2,52-0.2,52L174.2,150.8z"/>
		<path class="st3" d="M152.6,136.7l14.4,14.4l-28.4,29.3l-13.1-15.7L152.6,136.7z"/>
		<path class="st3" d="M113.7,166.6c1.3-0.1,36.1-32.6,36.1-32.6l-36.1-37.4V166.6z"/>
		<path class="st3" d="M113.2,174l8.4-7.4l11.6,13.7h-19.9v-5.2"/>
		<path class="st4" d="M124,32.4c-0.1,0-1.1-0.9-2.5-2.1c0-0.4,0-0.1,0-0.2l0,0l0.1,0l0.1-0.1c0.1-0.1,0.1-0.1,0.2-0.2
			c0.1-0.1,0.3-0.3,0.4-0.4c0.2-0.2,0.5-0.5,0.8-0.7c0.4-0.4,0.7-0.6,0.7-0.6c0,0-0.2,0.3-0.6,0.7c-0.2,0.2-0.5,0.5-0.7,0.7
			c-0.1,0.1-0.3,0.3-0.4,0.4c-0.1,0-0.1,0.1-0.2,0.2l-0.1,0.1l0,0l-0.1,0c0-0.1,0,0.2,0-0.2C123.1,31.3,124.1,32.3,124,32.4z"/>
		<path class="st4" d="M192.8,28.6c0,0.3-0.2,0.5-0.5,0.5c-0.3,0-0.5-0.2-0.5-0.5s0.2-0.5,0.5-0.5C192.6,28.1,192.8,28.3,192.8,28.6
			z"/>
		<path class="st4" d="M192.6,30.1c0.2,0.2,0.2,0.5,0,0.7c-0.2,0.2-0.5,0.2-0.7,0s-0.2-0.5,0-0.7C192.1,29.9,192.4,29.9,192.6,30.1z
			"/>
		<path class="st4" d="M192.8,32.3c0,0.3-0.2,0.5-0.5,0.5c-0.3,0-0.5-0.2-0.5-0.5c0-0.3,0.2-0.5,0.5-0.5
			C192.6,31.8,192.8,32,192.8,32.3z"/>
		<path class="st4" d="M169.5,30.8h-23.3v1.9h23.3V30.8z"/>
		<path class="st5" d="M166.9,65.6c0-9-9.5-14.8-19.3-10.2c-2.2,1-4,2.8-5.1,4.9c-2.4,4.7-1.3,10.1,0.8,14.6L151,94
			c1.1,2.7,5,2.7,6.1,0l7.4-19.2C167,68.9,166.9,65.6,166.9,65.6z M157.8,73.5c-6.5,3.8-13.1-3.2-9.6-10.1c0.5-0.9,1.2-1.7,2.1-2.2
			c6.5-3.8,13.1,3.2,9.6,10.1C159.4,72.2,158.7,73,157.8,73.5z"/>
		<path class="st5" d="M284.9,151.5H81.3v29.8h203.5V151.5z"/>
		<g class="st6">
			<g class="st6">
				<path class="st7" d="M284.9,151.5H81.3v29.8h203.5V151.5z"/>
			</g>
		</g>
		<path class="st4" d="M110,200.7c10.8-0.7,19-10.1,18.3-20.9c-0.7-10.8-10.1-19-20.9-18.2c-10.8,0.7-19,10.1-18.3,20.9
			S99.1,201.4,110,200.7z"/>
		<path class="st4" d="M89,180.8L89,180.8c-0.1,10.8,8.5,19.7,19.3,19.9c10.8,0.1,19.7-8.5,19.9-19.3v0L89,180.8z"/>
		<path class="st2" d="M94.9,180.9c-0.1,7.6,6,13.8,13.6,14c7.6,0.1,13.9-6,14-13.6c0.1-7.6-6-13.8-13.6-14
			C101.2,167.3,95,173.4,94.9,180.9z"/>
		<path class="st8" d="M108.9,167.4c-7.6-0.1-13.9,6-14,13.6l27.6,0.4C122.5,173.8,116.5,167.5,108.9,167.4z"/>
		<path class="st4" d="M100.2,181c-0.1,4.6,3.6,8.4,8.3,8.5c4.6,0.1,8.4-3.6,8.5-8.2c0.1-4.6-3.6-8.4-8.3-8.5
			C104.1,172.7,100.3,176.4,100.2,181z"/>
		<path class="st4" d="M259.9,200.7c10.8-0.6,19.1-9.9,18.5-20.7c-0.6-10.8-9.9-19.1-20.7-18.4c-10.8,0.6-19.1,9.9-18.5,20.7
			C239.8,193.1,249,201.4,259.9,200.7z"/>
		<path class="st4" d="M239.1,180.8L239.1,180.8c-0.1,10.8,8.5,19.7,19.3,19.9c10.8,0.1,19.7-8.5,19.9-19.3v0L239.1,180.8z"/>
		<path class="st2" d="M245,180.9c-0.1,7.6,6,13.8,13.6,14c7.6,0.1,13.9-6,14-13.6c0.1-7.6-6-13.9-13.6-14
			C251.3,167.3,245.1,173.4,245,180.9z"/>
		<path class="st8" d="M258.9,167.4c-7.6-0.1-13.9,6-14,13.6l27.6,0.4C272.6,173.8,266.5,167.5,258.9,167.4z"/>
		<path class="st4" d="M250.3,181c-0.1,4.6,3.6,8.4,8.3,8.5c4.6,0.1,8.4-3.6,8.5-8.2c0.1-4.6-3.6-8.4-8.3-8.5
			C254.2,172.7,250.4,176.4,250.3,181z"/>
		<path class="st5" d="M134.4,134.7c0,0-28.9,2.1-39.6,4.5c-7.6,1.7-22.1,4.6-21.9,13.7l1.1,6.6c0,0-5.4,2.5-5.4,8.8
			s-1.3,16,11.3,16.4c2.1,0.1,6,0,6,0s-2.4-26.8,22.2-27.6c25.1-0.8,23.4,27.3,23.4,27.3h104.7c0,0-4.3-27.4,22.7-27.5
			c27,0,22.9,27.6,22.9,27.6s9.9,0.8,14.6-7.5c4.6-8.4,3.4-14.3,3.4-14.3l-0.1-5.3c0-1.8-1.5-3.2-3.3-3.3c0,0,1.8-13.3-1-15.6
			c-2.8-2.3-17.9-16.2-17.9-16.2l0.7-0.4c1.2-0.8,1-2.6-0.4-3c-5.8-2-17.2-5.9-19.8-6.8c-0.4-0.1-0.8-0.2-1.2-0.3
			c-1.6-0.1-6.1-0.4-14.4-0.5c-10.1-0.1-50.3,0-50.3,0s-13.8,1.2-21.5,4.5C162.4,119.6,134.4,134.7,134.4,134.7z"/>
		<g class="st9">
			<g class="st9">
				<g class="st9">
					<path class="st10" d="M75.9,167.6c-1.1-0.2-2.6-0.2-3.4,0.5c-0.6,0.5-0.7,1.4-0.8,2.2c-0.1,1.1-0.2,2.2,0.1,3.3
						c0.3,1.1,0.9,2.1,1.8,2.6c1,0.5,2.3,0.4,3-0.4c0.7-0.7,0.8-1.8,0.7-2.8c0-1.4,0.1-2.6-0.2-4c0-0.3-0.2-0.6-0.4-0.8
						C76.5,167.8,76.2,167.6,75.9,167.6z"/>
				</g>
			</g>
		</g>
		<path class="st2" d="M74,159.6c3.1,0,6.1-0.2,9.1-0.4c0.3,0,0.7-0.1,0.9-0.3c0.3-0.3,0.3-0.7,0.3-1.1c0-1.6-0.1-3.5-1.3-4.6
			c-0.8-0.7-1.8-0.8-2.8-1c-2.5-0.2-5.1,0-7.4,0.7L74,159.6z"/>
		<path class="st11" d="M137.7,183.7c0,0,0-0.1,0-0.3c0-0.2,0-0.4,0-0.8c0-0.7-0.1-1.7-0.1-3c-0.1-1.3-0.1-2.9-0.3-4.7
			c-0.2-1.8-0.5-3.9-1.1-6.1c-0.6-2.2-1.5-4.6-3-6.9c-1.4-2.3-3.2-4.6-5.7-6.4c-5-3.5-11.6-5.5-18.6-5.6c-7-0.1-13.7,2.1-18.5,5.8
			c-2.4,1.8-4.4,3.9-6,6.1c-1.6,2.2-2.7,4.5-3.5,6.6c-0.8,2.2-1.2,4.2-1.5,6c-0.3,1.8-0.2,3.4-0.2,4.7c0.1,1.3,0.2,2.3,0.4,2.9
			c0.1,0.3,0.1,0.6,0.1,0.8c0,0.2,0,0.3,0,0.3s0-0.1-0.1-0.3c0-0.2-0.1-0.4-0.1-0.8c-0.1-0.7-0.3-1.6-0.4-2.9
			c-0.1-1.3-0.1-2.9,0.1-4.7c0.2-1.8,0.7-3.9,1.5-6c0.8-2.2,1.9-4.4,3.5-6.7c1.5-2.2,3.6-4.4,6-6.2c4.8-3.7,11.6-5.9,18.6-5.9
			s13.8,2.1,18.7,5.6c2.5,1.8,4.3,4.1,5.8,6.4c1.4,2.3,2.3,4.7,2.9,6.9c0.6,2.2,0.9,4.3,1.1,6.1c0.2,1.8,0.3,3.4,0.3,4.7
			c0,1.3,0.1,2.3,0.1,3c0,0.3,0,0.6,0,0.8C137.7,183.6,137.7,183.7,137.7,183.7z"/>
		<path class="st4" d="M138.8,184.1c0,0,0-0.1,0-0.2c0-0.1,0-0.4,0-0.7c0-0.6,0-1.4-0.1-2.5c-0.1-2.2-0.1-5.5-0.3-9.6
			c-0.1-4.1-0.3-9.2-0.4-14.9c0-1.4-0.1-2.9-0.1-4.5c0-0.8,0-1.5,0.1-2.3c0.1-0.4,0.1-0.8,0.2-1.2c0.1-0.4,0.1-0.8,0.3-1.2
			c0.4-1.6,0.9-3.2,1.7-4.7c0.7-1.5,1.6-3,2.7-4.5c5.6-3.5,11.7-7.4,18.1-11.4c1.6-1,3.2-2.1,4.9-3.1c1.6-1.1,3.4-2.1,5.2-2.9
			c1.8-0.8,3.7-1.6,5.6-2.2c1-0.3,1.9-0.6,2.9-0.9c1-0.3,2-0.6,3-0.7c3.9-0.9,7.9-1.3,11.7-1.5c3.9-0.2,7.6-0.2,11.3,0h0.1l0,0.1
			c-1.7,7.8-3.4,15.1-4.9,21.8c-0.9,1.5-1.7,3.1-2.2,4.7c-0.5,1.6-0.8,3.2-0.7,4.8c0.1,1.6,0.2,3.2,0.2,4.7c0,1.5,0.1,3,0.1,4.4
			c0.1,5.8,0.1,10.8,0.1,14.9s0,7.4,0,9.6c0,1.1,0,1.9,0,2.5c0,0.3,0,0.5,0,0.7c0,0.1,0,0.2,0,0.2s0-0.1,0-0.2c0-0.1,0-0.4,0-0.7
			c0-0.6,0-1.4,0-2.5c0-2.2,0-5.5-0.1-9.6c0-4.1-0.1-9.2-0.1-14.9c0-1.4-0.1-2.9-0.1-4.4c0-1.5-0.1-3.1-0.2-4.7
			c-0.1-1.6,0.2-3.3,0.7-4.9c0.5-1.6,1.3-3.2,2.2-4.7v0c1.5-6.7,3.1-14,4.8-21.8l0.1,0.1c-3.7-0.2-7.4-0.2-11.3,0s-7.8,0.6-11.7,1.5
			c-1,0.2-2,0.5-3,0.7c-1,0.3-2,0.6-2.9,0.9c-1.9,0.7-3.8,1.4-5.6,2.2c-1.8,0.8-3.6,1.8-5.2,2.9c-1.7,1-3.3,2.1-4.9,3.1
			c-6.5,4.1-12.5,7.9-18.2,11.4h0c-1.1,1.4-1.9,2.9-2.7,4.4c-0.7,1.5-1.2,3.1-1.6,4.7c-0.8,3.2-0.4,6.2-0.4,9.1
			c0.1,5.8,0.3,10.8,0.4,14.9c0.1,4.1,0.2,7.4,0.2,9.6c0,1.1,0,1.9,0,2.5c0,0.3,0,0.5,0,0.7C138.8,184.1,138.8,184.1,138.8,184.1z"
			/>
		<path class="st4" d="M205.4,115.8c0,0,0.1,0,0.2,0c0.1,0,0.3,0,0.5,0c0.4,0,1.1,0,1.9,0c1.7,0,4.1-0.1,7.2-0.1
			c6.1-0.1,14.7-0.3,24.4-0.4h0l0,0c1.1,1.3,2.2,2.7,3.4,4.2c3.4,4.2,6.8,8.3,9.8,11.9c0.4,0.5,0.7,0.9,1.1,1.4
			c0.4,0.4,0.7,1,0.9,1.5c0.5,1,0.7,2.1,0.7,3.2c0,1.1-0.2,2.1-0.6,3c-0.4,0.9-0.8,1.8-1.1,2.6c-1.4,3.3-2.6,5.9-3.4,7.8
			c-0.4,0.9-0.7,1.6-0.9,2.1c-0.1,0.2-0.2,0.4-0.3,0.6c-0.1,0.1-0.1,0.2-0.1,0.2s0-0.1,0.1-0.2c0-0.1,0.1-0.3,0.2-0.6
			c0.2-0.5,0.5-1.2,0.9-2.1c0.8-1.8,1.9-4.5,3.3-7.8c0.6-1.6,1.8-3.4,1.7-5.5c0-1-0.3-2.1-0.7-3.1c-0.3-0.5-0.6-1-0.9-1.4
			c-0.4-0.4-0.7-0.9-1.1-1.4c-3-3.7-6.3-7.7-9.8-11.9c-1.2-1.4-2.3-2.8-3.4-4.2l0.1,0c-9.7,0.1-18.2,0.3-24.4,0.4
			c-3,0-5.5,0.1-7.2,0.1c-0.8,0-1.5,0-1.9,0c-0.2,0-0.4,0-0.5,0C205.5,115.8,205.4,115.8,205.4,115.8z"/>
		<path class="st4" d="M193.1,148.2c0,0,0.1,0,0.3,0c0.2,0,0.5-0.1,0.8-0.3c0.3-0.2,0.6-0.5,0.8-1c0.1-0.3,0.1-0.5,0.1-0.8
			s-0.1-0.6-0.2-0.9c-0.3-0.5-0.9-1-1.7-1c-0.8,0-1.6,0-2.5,0c-1.8,0-3.7,0-5.7,0c-0.5,0-1,0.2-1.3,0.5c-0.3,0.3-0.6,0.7-0.6,1.2
			c0,0.5,0,0.9,0.2,1.3c0.2,0.4,0.6,0.7,1,0.8c0.4,0.2,0.8,0.1,1.2,0.1c0.4,0,0.8,0,1.2,0c0.8,0,1.5,0,2.2,0c1.3,0,2.3,0,3.1,0
			c0.4,0,0.6,0,0.8,0C193,148.2,193.1,148.2,193.1,148.2s-0.1,0-0.3,0c-0.2,0-0.5,0-0.8,0c-0.8,0-1.8,0-3.1,0c-0.7,0-1.4,0-2.2,0
			c-0.4,0-0.8,0-1.2,0c-0.2,0-0.4,0-0.6,0s-0.4-0.1-0.7-0.1c-0.4-0.2-0.8-0.5-1-0.9c-0.3-0.4-0.3-0.9-0.3-1.4c0-0.5,0.3-1,0.7-1.3
			s0.9-0.6,1.4-0.6c2,0,3.9,0,5.7,0c0.9,0,1.7,0,2.5,0c0.8,0,1.5,0.5,1.8,1.1c0.1,0.3,0.2,0.6,0.2,0.9s0,0.6-0.1,0.8
			c-0.2,0.5-0.5,0.8-0.8,1.1c-0.3,0.2-0.6,0.3-0.8,0.3C193.2,148.2,193.1,148.2,193.1,148.2z"/>
		<path class="st4" d="M247.4,148.2c0,0,0.1,0,0.3,0c0.2,0,0.5-0.1,0.8-0.3c0.3-0.2,0.6-0.5,0.8-1c0.1-0.3,0.1-0.5,0.1-0.8
			s-0.1-0.6-0.2-0.9c-0.3-0.5-0.9-1-1.7-1c-0.8,0-1.6,0-2.5,0c-1.8,0-3.7,0-5.7,0c-0.5,0-1,0.2-1.3,0.5c-0.3,0.3-0.5,0.7-0.6,1.2
			c0,0.5,0,0.9,0.2,1.3c0.2,0.4,0.5,0.7,1,0.8c0.4,0.2,0.8,0.1,1.2,0.1c0.4,0,0.8,0,1.2,0c0.8,0,1.5,0,2.2,0c1.3,0,2.3,0,3.1,0
			c0.4,0,0.6,0,0.8,0C247.3,148.2,247.4,148.2,247.4,148.2s-0.1,0-0.3,0c-0.2,0-0.5,0-0.8,0c-0.8,0-1.8,0-3.1,0c-0.7,0-1.4,0-2.2,0
			c-0.4,0-0.8,0-1.2,0c-0.2,0-0.4,0-0.6,0s-0.4-0.1-0.7-0.1c-0.4-0.2-0.8-0.5-1-0.9c-0.3-0.4-0.3-0.9-0.3-1.4c0-0.5,0.3-1,0.7-1.3
			c0.4-0.3,0.9-0.6,1.4-0.6c2,0,3.9,0,5.7,0c0.9,0,1.7,0,2.5,0c0.8,0,1.5,0.5,1.8,1.1c0.1,0.3,0.2,0.6,0.2,0.9s0,0.6-0.1,0.8
			c-0.2,0.5-0.5,0.8-0.8,1.1c-0.3,0.2-0.6,0.3-0.8,0.3C247.5,148.2,247.4,148.2,247.4,148.2z"/>
		<path class="st2" d="M295,139.3h-10.9c-1.5,0-2.9,0.8-3.6,2.1c-0.6,1.1-0.6,2.3-0.1,3.5l4.3,9.7l10.9-0.1
			C295.6,154.5,297.9,142.2,295,139.3z"/>
		<path class="st4" d="M144.2,137.9l56-1l36.5-0.7l12-6.9c1-0.5,1.2-1.8,0.6-2.7l-7.5-9.8c-0.8-1-2-1.6-3.3-1.6l-40.8-0.3
			c0,0-15.4-0.9-27.4,5.9C157.5,127.8,144.2,137.9,144.2,137.9z"/>
		<path d="M169.8,115.8c0,0,2.8,1.3,1,2.5c-1.8,1.2-30.2,19.1-30.2,19.1l-6.5-3C145.6,127.9,157.3,121.7,169.8,115.8z"/>
		<path class="st4" d="M141.5,137.7c0,0-0.1,0-0.2,0c-0.1,0-0.3,0.1-0.5,0.1c-0.5,0.1-1.1,0.2-2,0.4c-1.7,0.3-4.3,0.8-7.3,1.4
			c-6.2,1.1-14.9,2.3-24.5,3.2c-2.4,0.2-4.7,0.4-7,0.5c-2.3,0.1-4.4,0.3-6.5,0.5c-4.1,0.4-7.9,1-10.9,1.9c-3,0.9-5.4,2-6.9,2.9
			c-0.8,0.4-1.3,0.8-1.7,1.1c-0.2,0.1-0.3,0.2-0.4,0.3c-0.1,0.1-0.1,0.1-0.1,0.1s0,0,0.1-0.1c0.1-0.1,0.3-0.2,0.4-0.3
			c0.4-0.3,1-0.7,1.7-1.1c1.5-0.9,3.8-2.1,6.9-2.9c3-0.9,6.8-1.5,10.9-1.9c2.1-0.2,4.3-0.3,6.5-0.5c2.3-0.1,4.6-0.3,7-0.6
			c9.6-0.8,18.2-2.1,24.5-3.1c3.1-0.5,5.6-1,7.4-1.3c0.8-0.1,1.5-0.3,2-0.4c0.2,0,0.4-0.1,0.5-0.1
			C141.5,137.7,141.5,137.7,141.5,137.7z"/>
		<path class="st4" d="M299.3,162.8c0,0-3.7,0.1-8.3,0.1c-4.6,0-8.3,0-8.3-0.1c0-0.1,3.7-0.1,8.3-0.1
			C295.6,162.7,299.3,162.8,299.3,162.8z"/>
		<path class="st4" d="M231,172.3c0,0-21.1,0.1-47.1,0.1c-26,0-47.1,0-47.1-0.1c0,0,21.1-0.1,47.1-0.1S231,172.3,231,172.3z"/>
		<path class="st4" d="M83.4,163.1c0,0-3,0.1-6.6,0.1c-3.7,0-6.6,0-6.6-0.1c0-0.1,3-0.1,6.6-0.1C80.4,163,83.4,163.1,83.4,163.1z"/>
		<path d="M277.2,122.2c0,0-2.5,2.8-1.5,4.8c1,2.1,11.2,9.2,11.2,9.2l7.4,1.4L277.2,122.2z"/>
		<path d="M207.1,117.2l-1.7,17.9l29.7-0.9l12-6.9l-7.7-10.1H207.1z"/>
		<path d="M151.2,136.1c0,0,17.9-12.9,25-15.5c6.8-2.5,10.4-3.1,16.8-3.3c6.1-0.2,9.9,0,9.9,0l-4.7,18.2L151.2,136.1z"/>
		<path class="st5" d="M148.6,136.1c0-1.1,0.6-2.2,1.6-2.7l4.1-2.3c1.2-0.7,2.5-1,3.9-1c0.8,0,1.7,0.1,2.5,0.4
			c1.8,0.6,2.9,2.2,3,4.1c0.1,2.6-1.9,4.7-4.5,4.7h-7.3C150,139.2,148.6,137.8,148.6,136.1z"/>
		<path class="st4" d="M148.6,136.1c0,0,0,0.1,0,0.4c0,0.3,0.1,0.6,0.4,1.1c0.3,0.4,0.7,0.9,1.2,1.2c0.3,0.1,0.7,0.3,1.1,0.3
			c0.4,0,0.8,0,1.2,0c1.8,0,3.9,0,6.3,0c0.6,0,1.2-0.1,1.8-0.3c0.6-0.2,1.1-0.6,1.5-1c0.4-0.4,0.8-1,1.1-1.6
			c0.2-0.6,0.3-1.3,0.3-1.9c-0.1-1.3-0.8-2.6-1.8-3.3c-0.5-0.4-1.1-0.6-1.7-0.7c-0.6-0.1-1.2-0.2-1.8-0.2c-1.2,0-2.3,0.3-3.2,0.7
			c-0.5,0.2-0.9,0.5-1.3,0.7c-0.4,0.2-0.8,0.5-1.2,0.7c-0.8,0.4-1.5,0.8-2.1,1.2c-0.6,0.3-1,0.8-1.2,1.2c-0.3,0.4-0.3,0.8-0.4,1.1
			C148.6,136,148.6,136.1,148.6,136.1c0,0,0-0.1,0-0.4c0-0.3,0.1-0.7,0.3-1.1c0.2-0.4,0.6-1,1.3-1.3c0.6-0.4,1.3-0.8,2.1-1.2
			c0.4-0.2,0.8-0.4,1.2-0.7c0.4-0.2,0.8-0.5,1.4-0.7c1-0.4,2.1-0.7,3.3-0.7c0.6,0,1.2,0.1,1.8,0.2c0.6,0.1,1.2,0.4,1.8,0.7
			c1.1,0.7,1.8,2,1.9,3.4c0,0.7,0,1.4-0.3,2c-0.3,0.6-0.6,1.2-1.1,1.6c-0.5,0.4-1,0.8-1.6,1c-0.6,0.2-1.2,0.3-1.8,0.3
			c-2.3,0-4.5,0-6.3,0c-0.4,0-0.9,0-1.3,0c-0.4-0.1-0.8-0.2-1.1-0.4c-0.6-0.4-1-0.8-1.3-1.3c-0.2-0.4-0.3-0.8-0.3-1.1
			C148.6,136.2,148.6,136.1,148.6,136.1z"/>
		<path class="st12" d="M286.5,183.8c0,0,0-0.1,0-0.3c0-0.2,0-0.4,0-0.7c0-0.3,0.1-0.7,0.1-1.2c0-0.5,0-1,0.1-1.6c0-0.6,0-1.3,0-2.1
			c0-0.8,0-1.6-0.1-2.5c-0.1-1.8-0.4-3.8-1.1-5.9c-0.3-1.1-0.7-2.2-1.2-3.3c-0.5-1.1-1.1-2.2-1.8-3.3c-1.4-2.2-3.4-4.2-5.7-6
			c-2.4-1.7-5.2-3.1-8.2-4.1c-3-1-6.4-1.3-9.8-1.3c-3.4,0-6.7,0.4-9.8,1.4c-1.5,0.5-3,1.1-4.3,1.8c-1.4,0.7-2.6,1.6-3.8,2.5
			c-2.3,1.8-4.3,3.8-5.8,5.9c-0.8,1.1-1.4,2.2-1.9,3.2c-0.5,1.1-1,2.2-1.3,3.2c-1.5,4.2-1.9,7.8-2.1,10.3c-0.1,1.2,0,2.2,0,2.9
			c0,0.3,0,0.6,0,0.7c0,0.2,0,0.3,0,0.3s0-0.1,0-0.3c0-0.2,0-0.4-0.1-0.7c0-0.7-0.1-1.6,0-2.9c0.1-2.5,0.6-6.1,2.1-10.3
			c0.4-1.1,0.8-2.1,1.3-3.2c0.5-1.1,1.2-2.2,1.9-3.3c1.5-2.1,3.5-4.2,5.8-6c1.2-0.9,2.4-1.8,3.8-2.5c1.4-0.7,2.8-1.3,4.4-1.8
			c3.1-1,6.4-1.4,9.8-1.4c3.4,0,6.8,0.4,9.8,1.3c3.1,0.9,5.9,2.3,8.3,4.1c1.2,0.9,2.3,1.8,3.2,2.9c1,1,1.8,2.1,2.5,3.2
			s1.3,2.2,1.8,3.4c0.5,1.1,0.8,2.2,1.2,3.3c0.6,2.2,0.9,4.1,1,5.9c0.1,0.9,0.1,1.7,0.1,2.5c0,0.8,0,1.5,0,2.1c0,0.6,0,1.2-0.1,1.6
			c0,0.5-0.1,0.9-0.1,1.2c0,0.3,0,0.6-0.1,0.7C286.6,183.8,286.5,183.8,286.5,183.8z"/>
		<path class="st12" d="M197.3,137.9C197.3,137.9,197.2,137.9,197.3,137.9c-0.1,0-0.2,0-0.3,0c-0.2,0-0.6,0-1,0
			c-0.8,0-2.1,0-3.5,0.1c-3,0.1-7.1,0.1-11.6,0.3c-4.5,0.1-8.7,0.2-11.6,0.2c-1.5,0-2.7,0-3.5,0c-0.4,0-0.7,0-1,0
			c-0.1,0-0.2,0-0.3,0c-0.1,0-0.1,0-0.1,0s0,0,0.1,0c0.1,0,0.1,0,0.3,0c0.2,0,0.5,0,1,0c0.8,0,2.1,0,3.5-0.1c3-0.1,7.1-0.1,11.6-0.3
			c4.5-0.1,8.6-0.2,11.6-0.2c1.5,0,2.7,0,3.5,0c0.4,0,0.7,0,1,0c0.1,0,0.2,0,0.3,0C197.2,137.9,197.3,137.9,197.3,137.9z"/>
		<path class="st12" d="M192.4,143.5c0,0-1.4,0.1-3.2,0.1c-1.8,0-3.2,0-3.2-0.1c0,0,1.4-0.1,3.2-0.1
			C191,143.4,192.4,143.4,192.4,143.5z"/>
		<path class="st12" d="M237.6,137.9c0,0-7.9,0.1-17.7,0.2c-9.8,0.1-17.7,0.1-17.7,0c0,0,7.9-0.1,17.7-0.2
			C229.6,137.9,237.6,137.9,237.6,137.9z"/>
		<path class="st12" d="M246.4,143.1c0,0-2.2,0.1-5,0.1c-2.8,0-5,0-5,0c0,0,2.2-0.1,5-0.1C244.1,143.1,246.4,143.1,246.4,143.1z"/>
		<path class="st12" d="M94.4,140.4c0,0-0.1,0-0.2,0c-0.1,0-0.4,0-0.6,0.1c-0.3,0-0.6,0.1-1,0.1c-0.4,0.1-0.8,0.1-1.3,0.2
			c-1,0.2-2.1,0.4-3.3,0.7c-1.2,0.3-2.6,0.8-4,1.3c-1.4,0.5-2.7,1.1-3.8,1.7c-1.1,0.6-2.1,1.2-2.9,1.7c-0.4,0.3-0.8,0.5-1.1,0.7
			c-0.3,0.2-0.6,0.4-0.8,0.6c-0.2,0.1-0.4,0.3-0.5,0.4c-0.1,0.1-0.2,0.1-0.2,0.1s0-0.1,0.1-0.1c0.1-0.1,0.3-0.2,0.5-0.4
			c0.2-0.2,0.5-0.4,0.8-0.6c0.3-0.2,0.7-0.5,1.1-0.7c0.8-0.6,1.8-1.1,2.9-1.8c1.1-0.6,2.4-1.2,3.8-1.8c1.4-0.5,2.8-1,4-1.3
			c1.2-0.3,2.4-0.5,3.3-0.7c0.5-0.1,0.9-0.1,1.3-0.2c0.4,0,0.7-0.1,1-0.1c0.3,0,0.5,0,0.6,0C94.3,140.4,94.4,140.4,94.4,140.4z"/>
		<path class="st12" d="M159.9,131.8c0,0-0.1-0.1-0.4-0.3c-0.3-0.2-0.7-0.4-1.2-0.5c-0.6-0.1-1.2,0-1.9,0.2
			c-0.7,0.2-1.5,0.4-2.3,0.8c-1.6,0.7-2.9,1.6-3.7,2.3c-0.9,0.7-1.3,1.3-1.4,1.2c0,0,0.1-0.1,0.3-0.4c0.2-0.3,0.5-0.6,1-1
			c0.8-0.8,2.2-1.7,3.8-2.4c0.8-0.4,1.6-0.6,2.3-0.8c0.7-0.2,1.4-0.3,2-0.2c0.6,0.1,1,0.3,1.2,0.5c0.1,0.1,0.2,0.2,0.3,0.3
			C159.9,131.7,159.9,131.8,159.9,131.8z"/>
		<path class="st4" d="M278.1,122.1c0,0-0.6,0.1-1.6,0.1c-0.5,0-1.1-0.1-1.8-0.2c-0.7-0.1-1.5-0.4-2.3-0.7c-0.8-0.3-1.8-0.7-2.7-1.1
			c-0.5-0.2-1-0.4-1.5-0.6c-0.5-0.2-1.1-0.4-1.7-0.6c-2.2-0.8-4.8-1.5-7.5-2.1c-5.4-1.1-10.4-1.6-14-1.7c-0.9,0-1.7,0-2.4-0.1
			c-0.7,0-1.3,0-1.8,0c-0.5,0-0.9,0-1.2,0c-0.1,0-0.2,0-0.3,0c-0.1,0-0.1,0-0.1,0s0,0,0.1,0c0.1,0,0.2,0,0.3,0c0.3,0,0.7,0,1.2-0.1
			c0.5,0,1.1,0,1.8,0c0.7,0,1.5,0,2.4,0c3.6,0.1,8.6,0.6,14,1.7c2.7,0.6,5.2,1.3,7.5,2.1c0.6,0.2,1.1,0.4,1.7,0.6
			c0.5,0.2,1,0.4,1.5,0.6c1,0.4,1.9,0.8,2.7,1.2c0.8,0.3,1.6,0.6,2.3,0.7c0.7,0.1,1.3,0.2,1.8,0.3c0.5,0,0.9,0,1.2,0
			c0.1,0,0.2,0,0.3,0C278,122.1,278,122.1,278.1,122.1z"/>
	</g>
</g>
<path class="st13" d="M87.5,13h23H-128h3"/>
<path class="st13" d="M300,155.4h146.5"/>
</svg>
