<?xml version="1.0" encoding="utf-8"?>
<!-- Generator: Adobe Illustrator 26.1.0, SVG Export Plug-In . SVG Version: 6.00 Build 0)  -->
<svg version="1.1" id="Layer_1" xmlns="http://www.w3.org/2000/svg" xmlns:xlink="http://www.w3.org/1999/xlink" x="0px" y="0px"
	 viewBox="0 0 369 295" style="enable-background:new 0 0 369 295;" xml:space="preserve">
<style type="text/css">
	.st0{clip-path:url(#SVGID_00000063613151996090973440000007719647562016739755_);}
	.st1{clip-path:url(#SVGID_00000151516283376170966410000007309842733670454939_);}
	.st2{fill:#EEF5F9;}
	.st3{fill:url(#SVGID_00000114791624627947032870000016247981298309926049_);}
	.st4{fill:#7D97F4;}
	.st5{fill:#FFFFFF;}
	.st6{fill:#E9EDF2;}
	.st7{fill:#EF6238;}
	.st8{fill:#2B2B2B;}
	.st9{fill:#BDD0FB;}
	.st10{fill:url(#SVGID_00000128449607709968227980000015400927629729013662_);}
	.st11{fill:url(#SVGID_00000130637806595576986620000012030225145874368677_);}
	.st12{fill:url(#SVGID_00000006698968104389605250000011780051884845830555_);}
	.st13{fill:url(#SVGID_00000075147270327714259060000006932651328445509534_);}
	.st14{fill:url(#SVGID_00000039831426140886261310000010032551504126710446_);}
	.st15{fill:url(#SVGID_00000044175223031903193390000002330385032819452545_);}
	.st16{fill:url(#SVGID_00000098189549996166424930000013913604336459926150_);}
	.st17{fill:url(#SVGID_00000056386302214117868310000017423109317330718110_);}
	.st18{fill:url(#SVGID_00000183935023889226490440000007303003548034985360_);}
	.st19{fill:url(#SVGID_00000058585223751736635670000014466684800546209461_);}
	.st20{fill:url(#SVGID_00000083072354908562492380000000270865483411277716_);}
	.st21{opacity:0.5;fill:#FFFFFF;enable-background:new    ;}
	.st22{opacity:0.42;fill:#E9EDF2;enable-background:new    ;}
	.st23{opacity:0.74;fill:#EF6238;enable-background:new    ;}
	.st24{fill:none;stroke:#000000;stroke-dasharray:12,6;}
</style>
<g>
	<g>
		<defs>
			<rect id="SVGID_1_" x="69" y="37" width="224" height="224"/>
		</defs>
		<clipPath id="SVGID_00000090262802930897423710000010206609036769287830_">
			<use xlink:href="#SVGID_1_"  style="overflow:visible;"/>
		</clipPath>
		<g style="clip-path:url(#SVGID_00000090262802930897423710000010206609036769287830_);">
			<g>
				<g>
					<defs>
						<rect id="SVGID_00000034073485870993400170000011952402031402096543_" x="69" y="37" width="224" height="224"/>
					</defs>
					<clipPath id="SVGID_00000012430303109293917690000006630894949623882430_">
						<use xlink:href="#SVGID_00000034073485870993400170000011952402031402096543_"  style="overflow:visible;"/>
					</clipPath>
					<g style="clip-path:url(#SVGID_00000012430303109293917690000006630894949623882430_);">
						<path class="st2" d="M266.2,229.1c-4.6,4.8-8.9,7.9-12.3,10.4c-40.3,28.8-87.9,20.4-98,18.4c-14.9-3-43.8-8.9-64.7-33.4
							C59.5,187.4,64.5,129,89,90.4c4.5-7.1,28.2-46.2,76.3-52.5c29.1-3.8,63.1,3.9,87.7,24.4C304.6,105.5,300.9,192.7,266.2,229.1z
							"/>
						<path d="M181.1,185.4l-4.1,36.5h47.3l-6.2-36.5H181.1z"/>
						<path d="M98.9,93v85.9c0,7.1,5.6,12.8,12.7,13c31.4,0.8,141.4,2.8,171.4,2.3c5.1-0.1,9.3-4.2,9.5-9.3c0.6-20,1.5-68-2-90.2
							c-0.7-4.7-4.7-8.2-9.5-8.4c-26.3-0.8-143-3.5-172.9-2.8C103,83.6,98.9,87.8,98.9,93z"/>
						
							<linearGradient id="SVGID_00000160897003046624959300000008715696386383883189_" gradientUnits="userSpaceOnUse" x1="203.6199" y1="810.3622" x2="188.8659" y2="1001.2045" gradientTransform="matrix(1 0 0 1 0 -784)">
							<stop  offset="0" style="stop-color:#53D8FF"/>
							<stop  offset="1" style="stop-color:#3840F7"/>
						</linearGradient>
						<path style="fill:url(#SVGID_00000160897003046624959300000008715696386383883189_);" d="M104.3,92.6v81.6
							c0,4.1,3.3,7.5,7.5,7.6l166.9,2.1c4.1,0.1,7.5-3.2,7.5-7.3l0.3-80.9c0-2.9-2.3-5.3-5.3-5.4l-170.9-3.4
							C107,86.7,104.3,89.3,104.3,92.6z"/>
						<path class="st4" d="M287.4,187.2L287.4,187.2l-183.1-3.1c-0.1,0-0.3-0.1-0.3-0.3c0-0.1,0.1-0.3,0.3-0.3l183.1,3.1
							c0.1,0,0.3,0.1,0.3,0.3C287.7,187.1,287.5,187.2,287.4,187.2z"/>
						<path d="M234.5,229.3h-69.2c-1.9,0-3.3-1.3-2.9-2.8l0.9-3.5c0.3-1.1,1.4-1.8,2.8-1.9l66.7-2.1c1.4,0,2.7,0.7,3,1.8l1.6,5.6
							C237.8,228,236.4,229.3,234.5,229.3z"/>
						<path class="st5" d="M104.3,92.6v81.6c0,4.1,3.3,7.5,7.5,7.6l166.9,2.1c4.1,0.1,7.5-3.2,7.5-7.3l0.3-80.9
							c0-2.9-2.3-5.3-5.3-5.4l-170.9-3.4C107,86.7,104.3,89.3,104.3,92.6z"/>
						<path class="st6" d="M286.4,105.2v-9.5c0-2.9-2.3-5.3-5.3-5.4l-170.9-3.4c-3.3-0.1-5.9,2.6-5.9,5.8v12.5H286.4z"/>
						<path class="st7" d="M117.2,98.3c0.2-1-0.4-2.1-1.5-2.3c-1-0.2-2.1,0.4-2.4,1.4c-0.2,1,0.4,2.1,1.5,2.3
							C115.9,100,116.9,99.4,117.2,98.3z"/>
						<path class="st7" d="M123.9,98.3c0.2-1-0.4-2.1-1.5-2.3c-1.1-0.2-2.1,0.4-2.4,1.4c-0.2,1,0.4,2.1,1.5,2.3
							C122.6,100,123.7,99.4,123.9,98.3z"/>
						<path class="st7" d="M130.5,98.2c0.2-1.1-0.6-2.1-1.6-2.2c-1.1-0.2-2.1,0.5-2.2,1.6c-0.2,1.1,0.6,2.1,1.6,2.2
							C129.4,100,130.4,99.2,130.5,98.2z"/>
						<path class="st6" d="M276.2,179.4L115.8,177c-2.4,0-4.4-2-4.4-4.5v-16c0-2.3,1.8-4.1,4.1-4.1l160.9,1.8c1.8,0,3.3,1.5,3.3,3.4
							V176C279.7,177.9,278.1,179.4,276.2,179.4z"/>
						<path class="st6" d="M218.5,150.5L115.9,149c-2.5,0-4.5-2.1-4.5-4.6v-31.7c0-1.8,1.5-3.2,3.2-3.2h103.2c2.1,0,3.7,1.7,3.7,3.7
							v34.3C221.5,149.2,220.1,150.5,218.5,150.5z"/>
						<path class="st6" d="M276.3,150.5h-48.9c-1.7,0-3.1-1.4-3.1-3.1v-34c0-2.1,1.7-3.9,3.9-3.9h49.1c1.3,0,2.3,1.1,2.3,2.3v35.3
							C279.7,149,278.2,150.5,276.3,150.5z"/>
						<path d="M79.7,226.7c0,1.3,1.1,2.4,2.4,2.4h128c1.3,0,2.4-1.1,2.4-2.4l1.1-73.4c0-1.3-1.5-3.8-4.3-3.6L84,146.4
							c-1.6,0-3.2,0.6-4.4,1.7c-1.2,1.1-1.8,2.7-1.8,4.4L79.7,226.7z"/>
						<path class="st5" d="M82,224.4c0,1.2,1,2.2,2.2,2.2H207c1.2,0,2.2-1,2.2-2.2l1-66.6c-0.1-4-3.6-5.4-5.8-5.4l-119.9-3.2
							c-1.1,0-2.3,0.4-3.1,1.2c-0.8,0.8-1.3,1.9-1.2,3.1L82,224.4z"/>
						<path class="st8" d="M69.8,235.1h150c0.2,0,0.5-0.2,0.5-0.5v-5.5c0-0.2-0.2-0.5-0.5-0.5h-150c-0.2,0-0.5,0.2-0.5,0.5v5.5
							C69.3,234.9,69.5,235.1,69.8,235.1z"/>
						<path class="st6" d="M210.1,164.5l0.1-6.7c-0.1-4-3.6-5.5-5.8-5.4l-119.9-3.2c-1.1,0-2.3,0.4-3.1,1.2c-0.8,0.8-1.3,2-1.2,3.1
							l0.3,11L210.1,164.5L210.1,164.5z"/>
						<path class="st5" d="M207.9,192.7c-0.2,0-0.3-0.2-0.3-0.3l0.1-5.4c0-0.2,0.2-0.3,0.3-0.3c0.2,0,0.3,0.2,0.3,0.3l-0.1,5.4
							C208.2,192.6,208.1,192.7,207.9,192.7z"/>
						<path class="st9" d="M208.1,179.5c-0.2,0-0.3-0.2-0.3-0.3l0.3-20.7c0-1.2-0.4-2.2-1.1-2.9c-1.4-1.3-3.5-1.2-3.6-1.2l-38.3-1
							c-0.2,0-0.3-0.2-0.3-0.3c0-0.2,0.1-0.3,0.3-0.3l38.3,1c0.2,0,2.5-0.1,4.1,1.4c0.9,0.8,1.3,2,1.3,3.4l-0.3,20.7
							C208.4,179.3,208.3,179.5,208.1,179.5z"/>
						<path class="st6" d="M155.9,198.4H88.7c-1.7,0-3-1.3-3-3v-24.7c0-1.7,1.4-3,3-3h67.2c1.7,0,3,1.3,3,3v24.7
							C158.9,197.1,157.6,198.4,155.9,198.4z"/>
						<path class="st6" d="M204.4,198.4h-39.5c-1.2,0-2.2-1-2.2-2.2v-26.4c0-1.2,1-2.2,2.2-2.2h39.5c1.2,0,2.2,1,2.2,2.2v26.4
							C206.6,197.5,205.6,198.4,204.4,198.4z"/>
						<path class="st6" d="M203.9,223.7H88.4c-1.5,0-2.7-1.2-2.7-2.7v-15.5c0-1.5,1.2-2.7,2.7-2.7H204c1.5,0,2.7,1.2,2.7,2.7V221
							C206.6,222.5,205.4,223.7,203.9,223.7z"/>
						<path class="st7" d="M88.1,156.9c0.1-0.8-0.4-1.6-1.3-1.8c-0.8-0.1-1.6,0.4-1.8,1.3c-0.1,0.8,0.4,1.6,1.3,1.8
							C87.2,158.3,88,157.7,88.1,156.9z"/>
						<path class="st7" d="M92.8,157.8c0.6-0.6,0.6-1.6,0-2.2c-0.6-0.6-1.6-0.6-2.2,0s-0.6,1.6,0,2.2
							C91.3,158.4,92.2,158.4,92.8,157.8z"/>
						<path class="st7" d="M97.6,158.1c0.6-0.6,0.6-1.6,0-2.2c-0.6-0.6-1.6-0.6-2.2,0s-0.6,1.6,0,2.2
							C96.1,158.7,97,158.7,97.6,158.1z"/>
						<path class="st5" d="M205.5,130.3c11.7,0,21.1-9.6,21.1-21.4s-9.5-21.4-21.1-21.4s-21.1,9.6-21.1,21.4
							C184.4,120.8,193.8,130.3,205.5,130.3z"/>
						<path class="st7" d="M204.8,120.5c-0.9,0-1.8-0.5-2.2-1.3l-8-13.4c-0.7-1.3-0.3-2.9,0.9-3.6c1.2-0.8,2.8-0.3,3.6,0.9l5.5,9.3
							l7.3-14.5c0.7-1.3,2.2-1.8,3.5-1.2c1.3,0.7,1.8,2.3,1.1,3.6l-9.4,18.7C206.6,119.9,205.8,120.5,204.8,120.5L204.8,120.5z"/>
						<path class="st5" d="M110.6,212.3c11.7,0,21.1-9.6,21.1-21.4s-9.5-21.4-21.1-21.4s-21.1,9.6-21.1,21.4S98.9,212.3,110.6,212.3
							z"/>
						<path class="st7" d="M109.9,202.4c-0.9,0-1.8-0.5-2.2-1.3l-8-13.4c-0.7-1.3-0.3-2.9,0.9-3.6c1.2-0.8,2.8-0.3,3.6,0.9l5.5,9.3
							l7.3-14.5c0.7-1.3,2.2-1.8,3.5-1.2c1.3,0.7,1.8,2.3,1.1,3.6l-9.4,18.7C111.8,201.9,110.9,202.4,109.9,202.4L109.9,202.4z"/>
						
							<linearGradient id="SVGID_00000083060573020816817910000006301055087712392380_" gradientUnits="userSpaceOnUse" x1="135.2224" y1="800.0862" x2="79.7204" y2="902.4055" gradientTransform="matrix(1 0 0 1 0 -784)">
							<stop  offset="0" style="stop-color:#FEBBBA"/>
							<stop  offset="1" style="stop-color:#FF928E"/>
						</linearGradient>
						<path style="fill:url(#SVGID_00000083060573020816817910000006301055087712392380_);" d="M106.2,89.3c2.7-5.3,7.8-9,13.7-9.7
							l0.4-25.4c0-0.2-0.2-0.4-0.4-0.4C103.3,54,88.6,64.3,81.8,79.6c-0.1,0.2,0,0.5,0.2,0.6L106.2,89.3z"/>
						
							<linearGradient id="SVGID_00000044889430547213654670000001355009821731452093_" gradientUnits="userSpaceOnUse" x1="121.2991" y1="877.4339" x2="132.2251" y2="904.6111" gradientTransform="matrix(1 0 0 1 0 -784)">
							<stop  offset="0" style="stop-color:#FF928E"/>
							<stop  offset="1" style="stop-color:#FE7062"/>
						</linearGradient>
						<path style="fill:url(#SVGID_00000044889430547213654670000001355009821731452093_);" d="M139,101.5c-0.3,0-0.6,0.2-0.7,0.5
							c-0.3,0.9-0.8,2.7-0.9,2.9c-0.4,1.1-0.9,2.1-1.5,3.1c-1.1,1.9-2.4,3.6-4.1,4.9c-4.2,3.4-10.3,4-15.4,2.4
							c-0.1,0-0.3-0.1-0.4-0.2c-0.3-0.1-0.6,0-0.7,0.3l-12.8,23.2c6.2,3.1,12,3.9,19.4,3.4c21.3-1.4,38-18.6,39.8-40L139,101.5z"/>
						
							<linearGradient id="SVGID_00000063592669035680536360000007027991881203942334_" gradientUnits="userSpaceOnUse" x1="177.9137" y1="823.2439" x2="122.4137" y2="925.5615" gradientTransform="matrix(1 0 0 1 0 -784)">
							<stop  offset="0" style="stop-color:#FEBBBA"/>
							<stop  offset="1" style="stop-color:#FF928E"/>
						</linearGradient>
						<path style="fill:url(#SVGID_00000063592669035680536360000007027991881203942334_);" d="M139,101.5
							c-1.4,8.5-7.7,15.1-16.2,15.4c-2.4,0.1-5.3-0.5-7.4-1.3c-0.2-0.1-0.5,0-0.6,0.2l-13.1,22.5c6.2,3.1,13.2,4.6,20.5,4.2
							c21.3-1.4,38-19.1,39.8-40.5L139,101.5z"/>
						
							<linearGradient id="SVGID_00000153672485355079580370000006475505381351564684_" gradientUnits="userSpaceOnUse" x1="148.9505" y1="954.6363" x2="122.5925" y2="924.1553" gradientTransform="matrix(1 0 0 1 0 -784)">
							<stop  offset="0" style="stop-color:#FF928E"/>
							<stop  offset="1" style="stop-color:#FE7062"/>
						</linearGradient>
						<path style="fill:url(#SVGID_00000153672485355079580370000006475505381351564684_);" d="M99,134.7l12.7-22.7
							c0.1-0.2,0-0.4-0.1-0.5c-3.9-3.3-7-7.7-7-13.4c0-1.4-0.6-3.5-0.3-4.8l-23.9-8.5c-1.3,4.3-2,8.9-2,13.6
							c0,15.4,8.2,28.9,19.4,36.6C98.1,135.3,98.7,135.2,99,134.7z"/>
						
							<linearGradient id="SVGID_00000091734775404517927600000008329877673299310742_" gradientUnits="userSpaceOnUse" x1="138.7752" y1="802.0143" x2="83.2751" y2="904.3318" gradientTransform="matrix(1 0 0 1 0 -784)">
							<stop  offset="0" style="stop-color:#FEBBBA"/>
							<stop  offset="1" style="stop-color:#FF928E"/>
						</linearGradient>
						<path style="fill:url(#SVGID_00000091734775404517927600000008329877673299310742_);" d="M97.7,134.1l13.2-22.5
							c0.2-0.3,0.1-0.7-0.1-0.9c-3.8-3.3-6.2-8.3-6.2-13.9c0-1.4,0.2-2.8,0.4-4.1l-24.3-9.1c-0.2-0.1-0.4,0-0.5,0.2
							c-1.3,4.2-1.9,8.7-1.9,13.3C78.3,112.9,86,126.4,97.7,134.1z"/>
						<path d="M124.5,79.8c7.5,1.3,13.4,7.6,14.4,15.5c0.1,0.4,0.4,0.7,0.8,0.8l36.5,1.2c0.1-0.1,0.2-0.2,0.3-0.3
							c-0.1-30.4-22-56.5-51.3-60L124.5,79.8z"/>
						
							<linearGradient id="SVGID_00000133503598023847987810000004459595645816115337_" gradientUnits="userSpaceOnUse" x1="123.6885" y1="1007.5258" x2="151.2945" y2="1023.3177" gradientTransform="matrix(1 0 0 1 0 -784)">
							<stop  offset="0" style="stop-color:#FEBBBA"/>
							<stop  offset="1" style="stop-color:#FF928E"/>
						</linearGradient>
						<path style="fill:url(#SVGID_00000133503598023847987810000004459595645816115337_);" d="M127.9,249.2
							c0,0,17.6-30.6,19.9-33.5c0.4-0.5,1-0.7,1.6-0.7l4.9,0.6l5.8,12.4l-9.6-5.6c0.9,6.5-11.4,16.3-15.6,19.8
							c-0.4,0.4-0.5,1-0.1,1.4l1.7,1.8c-2.8,2.8-6,4.6-9.6,5.4L127.9,249.2z"/>
						<path d="M135.6,244.5c0,0,1.1,0.3,1.4,1.3c0.2,0.5,0,1-0.4,1.3c-1.8,1.3-7.6,5.4-10.3,6.1c-0.2,0.1-0.4-0.1-0.4-0.4
							c0.1-0.6,0.6-1.9,2-3.7l-0.1,0.3c-0.2,0.3,0.2,0.7,0.5,0.5C130.1,248.9,133.8,246.7,135.6,244.5z"/>
						
							<linearGradient id="SVGID_00000088852260415689185180000014375215346114723769_" gradientUnits="userSpaceOnUse" x1="126.3572" y1="1011.4617" x2="31.9182" y2="952.2077" gradientTransform="matrix(1 0 0 1 0 -784)">
							<stop  offset="0" style="stop-color:#FEBBBA"/>
							<stop  offset="1" style="stop-color:#FF928E"/>
						</linearGradient>
						<path style="fill:url(#SVGID_00000088852260415689185180000014375215346114723769_);" d="M134.7,256.8c0,0,2.7-6.3,2.7-6.4
							c2.4-14.6,8.3-27.2,10-30.5c0.3-0.6,0.8-0.9,1.5-1l4.9-0.4l8.1,11l-10.5-3.5c2.3,6.2-7.8,18.2-11.2,22.5
							c-0.3,0.4-0.2,1.1,0.2,1.4l2,1.4c-2.1,3.3-4.9,5.7-8.3,7.2L134.7,256.8z"/>
						<path d="M141.3,250.6c0,0,1.1,0.1,1.7,1c0.3,0.4,0.2,1-0.1,1.3c-1.5,1.6-6.4,6.8-8.8,8.1c-0.2,0.1-0.4,0-0.4-0.3
							c0-0.6,0.2-2,1.2-4l-0.1,0.3c-0.1,0.4,0.3,0.6,0.6,0.4C136.8,256,140,253,141.3,250.6z"/>
						<path class="st7" d="M176.8,216.2c0,0,4.4,6.6,4.8,9.6c0.4,3-1.2,4-5.9,4.4c-13.8,1.1-20.7-3-20.7-3c-0.9-6-1.6-7.6-9.5-10.8
							c0,0,10,0.8,12,0C159.5,215.6,176.8,216.2,176.8,216.2z"/>
						<path d="M159.1,179.3c0,0,3.1-3.7,6.4,0.8c0.6,0.8,2.9,0.1,3.7,1.8c0.4,0.9,1.4,1.4,2.3,1.2c2.4-0.4,6.3-0.5,8.3,3.3
							c1.5,2.9,0.3,4.5-1.1,5.5c-1.1,0.7-1.5,2.1-0.8,3.2c0.6,1.1,0.7,2.5-0.9,4.2c-3.6,3.9-10.8-2.5-10.8-2.5l-5.7-13.5
							L159.1,179.3z"/>
						<path class="st7" d="M164.8,215.3c0,0-5.2-4.9-7.7-8.2c-1.4-1.8-1.8-4.1-1.2-6.2c1.2-3.9,3.2-8,3.4-8.6c0.3-1,6.1-0.9,6.1-0.9
							s11.4,7.4,15.9,19.9l-5,1.6c0,0-3-5-5.9-8.2c0,0,5.1,6.7,5.3,9.5L164.8,215.3z"/>
						
							<linearGradient id="SVGID_00000098911736610300141060000003156122672807872167_" gradientUnits="userSpaceOnUse" x1="172.067" y1="998.604" x2="199.59" y2="998.604" gradientTransform="matrix(1 0 0 1 0 -784)">
							<stop  offset="0" style="stop-color:#FEBBBA"/>
							<stop  offset="1" style="stop-color:#FF928E"/>
						</linearGradient>
						<path style="fill:url(#SVGID_00000098911736610300141060000003156122672807872167_);" d="M154.9,217.3l3.9-4.2l4.5,1.2
							c0,0,5.2,0.8,8.2,0s3-0.8,3-0.8l6.8-2.1l1.1,3c0.3,0.8,0,1.6-0.7,2.1c-0.6,0.4-1.3,0.9-1.7,1.1c-0.9,0.4-20.5,0.1-20.5,0.1
							L154.9,217.3z"/>
						
							<linearGradient id="SVGID_00000066477176464275844160000018317586376377404068_" gradientUnits="userSpaceOnUse" x1="160.8841" y1="985.3735" x2="161.5181" y2="975.4795" gradientTransform="matrix(1 0 0 1 0 -784)">
							<stop  offset="0" style="stop-color:#FEBBBA"/>
							<stop  offset="1" style="stop-color:#FF928E"/>
						</linearGradient>
						<path style="fill:url(#SVGID_00000066477176464275844160000018317586376377404068_);" d="M161.4,184.5l3.9,7.2
							c-0.3,1.6-4.2,1.6-4.9,0.7c-0.1-0.1-0.1-0.2-0.1-0.3l-2.3-4.8c-0.1-0.5,1.2-2.1,1.6-2.3l1.6-0.8
							C161.7,183.8,159.3,183.8,161.4,184.5z"/>
						
							<linearGradient id="SVGID_00000171715241737230544070000004426838418843792573_" gradientUnits="userSpaceOnUse" x1="161.7657" y1="977.0184" x2="149.8297" y2="954.1224" gradientTransform="matrix(1 0 0 1 0 -784)">
							<stop  offset="0" style="stop-color:#FEBBBA"/>
							<stop  offset="1" style="stop-color:#FF928E"/>
						</linearGradient>
						<path style="fill:url(#SVGID_00000171715241737230544070000004426838418843792573_);" d="M153.5,182.8c0,0-0.4,2.4,1.5,5.6
							c1.9,3.1,3.8,3,4.8,1.9s2.1-3,1.6-6.1C160.9,181,154.2,179.7,153.5,182.8z"/>
						<path d="M159.1,184.5c0,0-3.1-4.1-5.5-0.5v1.2c0,0-3.1-0.1-2.8-3s2.9-4.8,6.4-3.8s5.6,2.1,6,4.5s-1.6,2-1.6,2
							s-0.8-1.7-1.7-1.8s-0.6,1.2-0.6,1.2L159.1,184.5z"/>
						
							<linearGradient id="SVGID_00000072964854884579235960000018390007778682287527_" gradientUnits="userSpaceOnUse" x1="164.5258" y1="975.579" x2="152.5888" y2="952.683" gradientTransform="matrix(1 0 0 1 0 -784)">
							<stop  offset="0" style="stop-color:#FEBBBA"/>
							<stop  offset="1" style="stop-color:#FF928E"/>
						</linearGradient>
						<path style="fill:url(#SVGID_00000072964854884579235960000018390007778682287527_);" d="M159.8,184.4c0,0-1.6-2.1-0.1-2.5
							s1.4,2,1.3,3L159.8,184.4z"/>
						<path d="M167.8,218.9C167.8,218.9,167.7,218.9,167.8,218.9h-17.9c-0.4,0-0.8-0.4-0.8-0.8c0-0.4,0.4-0.8,0.8-0.8h17.9
							c0.4,0,0.8,0.4,0.8,0.8C168.5,218.6,168.2,218.9,167.8,218.9z"/>
						<path d="M133.8,202.7h14.9c1.1,0,2.1,0.6,2.6,1.6l6.9,14.6h-18.5c-0.7,0-1.3-0.4-1.6-1.1l-5.3-13.5
							C132.4,203.6,132.9,202.7,133.8,202.7z"/>
						<path d="M144.3,210.2c0.3,1,0.1,2-0.5,2.2s-1.4-0.4-1.7-1.5c-0.3-1-0.1-2,0.5-2.2C143.2,208.5,143.9,209.2,144.3,210.2z"/>
						<path d="M188.1,180.3c-0.3,12.9-1.2,57.2-0.7,72.9c0,1.7,1.2,3,2.6,3.1c7.1,0.3,32.9,1,44.5,0.4c2.4-0.1,4.3-2.4,4.4-5.2
							c0.2-13.5,0.8-51.5-0.5-68.9c-0.2-2.1-1.6-3.7-3.3-3.9c-7.7-0.9-33.7-3.1-43.6-2.3C189.5,176.5,188.1,178.2,188.1,180.3z"/>
						<path class="st5" d="M191.2,184.3c-0.4,10.4-1.6,44.9-1.2,57.7c0.1,1.9,1.3,3.4,2.9,3.5c6.6,0.4,29,1.4,38.7,0.5
							c1.7-0.2,3.1-1.8,3.2-3.8c0.5-10.6,1.9-42.7,1.5-55.4c-0.1-2-1.4-3.7-3.1-3.8c-7.1-0.7-30.9-2.5-39.1-2
							C192.5,181,191.3,182.5,191.2,184.3z"/>
						<path class="st21" d="M205.5,178.6c0,0.4,0.3,0.7,0.6,0.7c1.7,0.1,6.4,0.4,8.5,0.5c0.4,0,0.7-0.4,0.7-0.9v-0.1
							c-0.1-0.3-0.3-0.6-0.6-0.6c-1.4-0.2-5.7-0.6-8.5-0.5C205.8,177.9,205.5,178.2,205.5,178.6z"/>
						<path class="st6" d="M236.4,190.7c0-1.4,0-2.8-0.1-3.9c-0.1-2-1.4-3.7-3.1-3.8c-7.1-0.7-30.9-2.5-39.1-2
							c-1.5,0.1-2.8,1.5-2.8,3.3c-0.1,1.6-0.1,2.9-0.2,5.4L236.4,190.7z"/>
						<path class="st6" d="M213.4,212.8h-18.5c-1.1,0-2-0.9-2-2v-16.2c0-1,0.8-1.9,1.8-1.8l18.7,0.5c1,0,1.9,0.9,1.9,1.9V211
							C215.2,212,214.4,212.8,213.4,212.8z"/>
						<path class="st22" d="M233.5,212.8h-15.9c-0.4,0-0.7-0.3-0.7-0.7v-18.3c0-0.3,0.2-0.6,0.6-0.6h16.1c0.3,0,0.6,0.3,0.6,0.6
							v18.4C234.1,212.6,233.8,212.8,233.5,212.8z"/>
						<path class="st6" d="M233.5,228.7h-40.7c-0.4,0-0.6-0.3-0.6-0.6v-12.2c0-0.3,0.2-0.5,0.5-0.5h40.8c0.3,0,0.6,0.3,0.6,0.6v12.2
							C234.1,228.5,233.8,228.7,233.5,228.7z"/>
						<path class="st6" d="M229.7,243.8l-35.7-0.5c-1.1,0-1.9-0.8-1.9-1.7V233c0-0.8,0.8-1.5,1.7-1.5h37.5c0.9,0,1.6,0.6,1.6,1.4v8
							C233,242.5,231.5,243.8,229.7,243.8z"/>
						<path class="st23" d="M195.4,187.6c0.6-0.3,0.9-1,0.7-1.6c-0.3-0.6-1-0.9-1.6-0.7c-0.6,0.3-0.9,1-0.7,1.6
							C194.1,187.6,194.8,187.9,195.4,187.6z"/>
						<path class="st23" d="M200,187.5c0.5-0.5,0.5-1.3,0-1.8s-1.3-0.5-1.8,0s-0.5,1.3,0,1.8S199.5,188,200,187.5z"/>
						<path class="st23" d="M203.5,188c0.6-0.3,0.9-1,0.7-1.6c-0.3-0.6-1-0.9-1.6-0.7c-0.6,0.3-0.9,1-0.7,1.6
							C202.2,187.9,202.9,188.2,203.5,188z"/>
						<path class="st5" d="M215,226.9c9,0,16.4-7.4,16.4-16.5s-7.3-16.5-16.4-16.5c-9,0-16.4,7.4-16.4,16.5
							C198.6,219.6,205.9,226.9,215,226.9z"/>
						<path class="st7" d="M214.4,219.3c-0.7,0-1.4-0.4-1.7-1l-6.2-10.4c-0.6-1-0.3-2.2,0.7-2.8s2.2-0.3,2.8,0.7l4.3,7.2l5.6-11.2
							c0.5-1,1.7-1.4,2.7-0.9s1.4,1.7,0.9,2.8l-7.3,14.5C215.9,218.9,215.2,219.3,214.4,219.3C214.5,219.3,214.4,219.3,214.4,219.3z
							"/>
					</g>
				</g>
			</g>
		</g>
	</g>
</g>
<path class="st24" d="M189,238.5v9c0,13.3,10.7,24,24,24h360c13.3,0,24-10.7,24-24v-8"/>
<path class="st24" d="M-205,35.2V25c0-13.3,10.7-24,24-24h344c13.3,0,24,10.7,24,24v12"/>
</svg>
