<?xml version="1.0" encoding="utf-8"?>
<!-- Generator: Adobe Illustrator 26.1.0, SVG Export Plug-In . SVG Version: 6.00 Build 0)  -->
<svg version="1.1" id="Layer_1" xmlns="http://www.w3.org/2000/svg" xmlns:xlink="http://www.w3.org/1999/xlink" x="0px" y="0px"
	 viewBox="0 0 360.5 254" style="enable-background:new 0 0 360.5 254;" xml:space="preserve">
<style type="text/css">
	.st0{fill:#EEF5F9;}
	.st1{fill:#FFFFFF;}
	.st2{fill:#EF6238;}
	.st3{opacity:0.78;fill:#FFFFFF;enable-background:new    ;}
	.st4{fill:#EBEBEB;}
	.st5{fill:none;stroke:#000000;stroke-dasharray:12,6;}
</style>
<path class="st0" d="M271.5,192.5c-4.6,4.8-9,7.9-12.4,10.4c-40.4,28.9-88.2,20.4-98.4,18.4c-15-3-44-8.9-65-33.5
	C64,150.7,68.9,92.2,93.5,53.5c4.5-7.1,28.3-46.3,76.6-52.6c29.2-3.8,63.4,3.9,88.1,24.5C310.1,68.7,306.4,156,271.5,192.5z"/>
<path d="M70.5,94.8v94.6c0,7.8,6,14.1,13.6,14.4c33.6,0.9,151.1,3.1,183,2.6c5.5-0.1,9.9-4.6,10.1-10.3c0.6-22,1.6-74.8-2.1-99.4
	c-0.8-5.2-5-9-10.1-9.2c-28.1-0.9-152.7-3.9-184.6-3.1C74.9,84.5,70.5,89.1,70.5,94.8z"/>
<path class="st1" d="M76.3,94.3v89.9c0,4.5,3.5,8.3,8,8.3l178.3,2.3c4.4,0.1,8-3.5,8-8.1l0.3-89.1c0-3.2-2.5-5.9-5.6-5.9L82.7,87.9
	C79.1,87.8,76.3,90.7,76.3,94.3z"/>
<path class="st2" d="M76.4,106.2l194.5,4.5V98.3c0-3.9-3.1-7-7-7.1L83.2,88c-3.8-0.1-6.9,3-6.9,6.8L76.4,106.2z"/>
<path class="st3" d="M86.5,97.4c1-0.9,1-2.5,0-3.4c-1-0.9-2.5-0.9-3.4,0c-1,0.9-1,2.5,0,3.4C84,98.4,85.6,98.4,86.5,97.4z"/>
<path class="st3" d="M94.4,97.5c1-0.9,1-2.5,0-3.4c-1-0.9-2.5-0.9-3.4,0c-1,0.9-1,2.5,0,3.4C91.9,98.4,93.4,98.4,94.4,97.5z"/>
<path class="st3" d="M101.9,96.1c0.2-1.3-0.7-2.6-2-2.8c-1.3-0.2-2.6,0.7-2.8,2c-0.2,1.3,0.7,2.6,2,2.8
	C100.4,98.3,101.6,97.4,101.9,96.1z"/>
<path class="st4" d="M227.6,194.4l-122.5-1.5c18.7-56.1,21.4-104.7,1.5-144.1c-0.6-1.3,0.2-2.7,1.6-2.7h117.3c2.1,0,3.9,1.3,4.7,3.3
	C245.6,90.4,240.4,141.2,227.6,194.4z"/>
<path class="st1" d="M221.3,66.9h-53.8c-0.6,0-1.1-0.7-1.3-1.6l-1.8-8.6c-0.2-1,0.2-2.1,0.8-2.1h54.5c0.5,0,0.9,0.6,1,1.4l1.3,9.2
	C222.1,66.1,221.8,66.9,221.3,66.9z"/>
<path class="st1" d="M230,80.6h-60.7c-0.3,0-0.6-0.4-0.7-0.9l-0.4-2.8c-0.1-0.5,0.1-1,0.4-1h60.9c0.3,0,0.5,0.4,0.6,0.8l0.2,2.8
	C230.5,80.1,230.3,80.6,230,80.6z"/>
<path class="st1" d="M230.6,89.8h-60.3c-0.4,0-0.7-0.5-0.8-1.1l-0.2-2.3c-0.1-0.6,0.2-1.2,0.6-1.2h60.4c0.3,0,0.5,0.4,0.6,0.8
	L231,89C231.1,89.4,230.9,89.8,230.6,89.8z"/>
<path class="st1" d="M231.8,104.9c0,0.3-0.2,0.5-0.5,0.5l-104-0.2c-0.7,0-1.3-0.6-1.3-1.3v-2.4c0-0.5,0.4-0.9,0.9-0.9h103.7
	c0.6,0,1,0.4,1,1L231.8,104.9z"/>
<path class="st1" d="M230.8,114.5H126.6v-3.2c0-0.8,0.6-1.4,1.4-1.4h102.9c0.6,0,1,0.4,1,1l-0.1,2.7
	C231.7,114.1,231.3,114.5,230.8,114.5z"/>
<path class="st1" d="M230.3,124.2H126.6v-4.6h104.2c0.4,0,0.7,0.4,0.7,0.8l-0.2,2.9C231.3,123.8,230.8,124.2,230.3,124.2z"/>
<path class="st1" d="M229.7,133.6H125V129h104.9c0.5,0,0.9,0.4,0.9,0.9l-0.2,2.7C230.6,133.1,230.2,133.6,229.7,133.6z"/>
<path class="st1" d="M227.7,147.2H122v-4.6h106.2c0.6,0,1.1,0.5,1.1,1.2l-0.3,2.3C228.9,146.8,228.4,147.2,227.7,147.2z"/>
<path class="st1" d="M226.7,156.5H122v-4.6h105.5c0.4,0,0.6,0.3,0.6,0.7l-0.4,3C227.7,156.1,227.2,156.5,226.7,156.5z"/>
<path class="st1" d="M222.6,172.7H119.9V168h103.8c0.4,0,0.7,0.4,0.7,0.8l-0.5,2.8C223.8,172.2,223.2,172.7,222.6,172.7z"/>
<path class="st1" d="M220.3,182H117.7v-4.6h103.5c0.5,0,0.9,0.5,0.8,1l-0.5,2.7C221.4,181.6,220.9,182,220.3,182z"/>
<path class="st5" d="M237.5,195v12c0,13.3,10.7,24,24,24h344c13.3,0,24-10.7,24-24v-32.3"/>
<path class="st5" d="M-81,157.4H65.5"/>
</svg>
