<svg width="681" height="258" viewBox="0 0 681 258" fill="none" xmlns="http://www.w3.org/2000/svg">
<path d="M461.038 192.496C456.442 197.317 452.083 200.423 448.646 202.877C408.23 231.74 360.405 223.329 350.236 221.272C335.227 218.238 306.21 212.369 285.234 187.818C253.497 150.671 258.44 92.1509 283.058 53.5187C287.559 46.4498 311.342 7.22982 359.688 0.939367C388.941 -2.86509 423.042 4.80736 447.74 25.4022C499.585 68.6412 495.888 155.969 461.038 192.496Z" fill="#EEF5F9"/>
<path d="M439.022 14.78C438.825 14.7721 438.667 14.6138 438.667 14.4238C438.628 12.4133 438.006 2.4322 429.264 0.350485C419.529 -1.96868 415.071 7.98079 415.071 7.98079C415.071 7.98079 403.021 3.33454 400.713 15.7773C393.16 17.5978 391.199 27.5156 396.106 32.3598C396.886 33.1276 397.933 33.5629 399.028 33.5708L446.338 33.9982C447.725 34.0141 448.961 33.0959 449.355 31.7582C450.828 26.7479 452.765 15.1045 439.022 14.78Z" fill="#D45834"/>
<path d="M437.934 14.9938C437.737 14.9859 437.58 14.8276 437.58 14.6376C437.54 12.7063 436.926 3.45339 428.688 1.51415C419.481 -0.654629 415.267 8.63788 415.267 8.63788C415.267 8.63788 403.879 4.30032 401.689 15.9199C394.617 17.6059 392.727 26.7005 397.208 31.2755C397.996 32.075 399.059 32.534 400.177 32.542L444.715 32.9377C446.109 32.9535 447.338 32.0354 447.732 30.6898C449.118 25.9327 450.764 15.3025 437.934 14.9938Z" fill="#EF6238"/>
<path d="M476.393 56.5094C476.196 56.5014 476.031 56.3431 476.031 56.1453C475.992 54.0873 475.354 43.8925 466.414 41.7553C456.459 39.3808 451.907 49.5519 451.907 49.5519C451.907 49.5519 439.597 44.8027 437.234 57.5225C429.516 59.3826 427.508 69.522 432.532 74.4691C433.328 75.2527 434.399 75.7038 435.517 75.7117L483.867 76.1471C485.285 76.1629 486.545 75.2289 486.947 73.8596C488.451 68.7305 490.436 56.8339 476.393 56.5094Z" fill="#D45834"/>
<path d="M475.284 56.7226C475.087 56.7147 474.921 56.5564 474.921 56.3585C474.882 54.3876 474.252 44.9289 465.833 42.9422C456.421 40.7259 452.113 50.2242 452.113 50.2242C452.113 50.2242 440.472 45.7917 438.236 57.6645C431.005 59.3901 429.076 68.6826 433.652 73.3526C434.455 74.1678 435.55 74.6348 436.692 74.6507L482.207 75.0543C483.632 75.0702 484.892 74.1282 485.286 72.7589C486.712 67.8989 488.397 57.0392 475.284 56.7226Z" fill="#EF6238"/>
<path d="M475.014 120.869C474.802 120.861 474.636 120.694 474.636 120.481C474.597 118.328 473.927 107.626 464.555 105.394C454.12 102.909 449.347 113.571 449.347 113.571C449.347 113.571 436.438 108.592 433.957 121.929C425.861 123.884 423.758 134.507 429.027 139.699C429.862 140.522 430.988 140.989 432.154 140.997L482.859 141.456C484.347 141.472 485.662 140.49 486.088 139.058C487.671 133.691 489.742 121.217 475.014 120.869Z" fill="#D45834"/>
<path d="M473.857 121.098C473.652 121.09 473.479 120.924 473.479 120.71C473.44 118.644 472.778 108.726 463.949 106.645C454.081 104.318 449.568 114.283 449.568 114.283C449.568 114.283 437.36 109.637 435.013 122.087C427.429 123.892 425.405 133.644 430.209 138.543C431.052 139.398 432.194 139.889 433.399 139.905L481.126 140.332C482.615 140.348 483.938 139.358 484.356 137.926C485.844 132.82 487.608 121.43 473.857 121.098Z" fill="#EF6238"/>
<path d="M426.862 87.0448H425.649C425.2 87.0448 424.837 86.6809 424.837 86.2299C424.837 85.779 425.2 85.415 425.649 85.415H426.862C427.31 85.415 427.673 85.779 427.673 86.2299C427.673 86.6809 427.31 87.0448 426.862 87.0448Z" fill="black"/>
<path d="M459.294 87.0456H458.01C457.561 87.0456 457.199 86.6815 457.199 86.2304C457.199 85.7792 457.561 85.4151 458.01 85.4151H459.294C459.491 85.4151 459.68 85.3518 459.829 85.233C460.184 84.956 460.688 85.0193 460.963 85.3755C461.239 85.7317 461.176 86.2383 460.822 86.5153C460.38 86.8557 459.853 87.0456 459.294 87.0456ZM455.616 87.0456H453.221C452.772 87.0456 452.41 86.6815 452.41 86.2304C452.41 85.7792 452.772 85.4151 453.221 85.4151H455.616C456.065 85.4151 456.427 85.7792 456.427 86.2304C456.427 86.6815 456.065 87.0456 455.616 87.0456ZM450.819 87.0456H448.425C447.976 87.0456 447.614 86.6815 447.614 86.2304C447.614 85.7792 447.976 85.4151 448.425 85.4151H450.819C451.268 85.4151 451.63 85.7792 451.63 86.2304C451.63 86.6815 451.268 87.0456 450.819 87.0456ZM446.031 87.0456H443.636C443.187 87.0456 442.825 86.6815 442.825 86.2304C442.825 85.7792 443.187 85.4151 443.636 85.4151H446.031C446.48 85.4151 446.842 85.7792 446.842 86.2304C446.842 86.6815 446.48 87.0456 446.031 87.0456ZM441.242 87.0456H438.848C438.399 87.0456 438.037 86.6815 438.037 86.2304C438.037 85.7792 438.399 85.4151 438.848 85.4151H441.242C441.691 85.4151 442.053 85.7792 442.053 86.2304C442.045 86.6815 441.683 87.0456 441.242 87.0456ZM436.446 87.0456H434.051C433.602 87.0456 433.24 86.6815 433.24 86.2304C433.24 85.7792 433.602 85.4151 434.051 85.4151H436.446C436.895 85.4151 437.257 85.7792 437.257 86.2304C437.257 86.6815 436.895 87.0456 436.446 87.0456ZM431.657 87.0456H429.263C428.814 87.0456 428.452 86.6815 428.452 86.2304C428.452 85.7792 428.814 85.4151 429.263 85.4151H431.657C432.106 85.4151 432.468 85.7792 432.468 86.2304C432.46 86.6815 432.106 87.0456 431.657 87.0456ZM460.979 84.4811C460.53 84.4811 460.168 84.117 460.168 83.6658V81.2596C460.168 80.8084 460.53 80.4443 460.979 80.4443C461.428 80.4443 461.79 80.8084 461.79 81.2596V83.6658C461.79 84.117 461.428 84.4811 460.979 84.4811ZM460.979 79.6686C460.53 79.6686 460.168 79.3045 460.168 78.8533V76.4471C460.168 75.9959 460.53 75.6318 460.979 75.6318C461.428 75.6318 461.79 75.9959 461.79 76.4471V78.8533C461.79 79.3045 461.428 79.6686 460.979 79.6686Z" fill="black"/>
<path d="M460.98 74.8485C460.531 74.8485 460.169 74.4844 460.169 74.0332V72.8143C460.169 72.3631 460.531 71.999 460.98 71.999C461.429 71.999 461.791 72.3631 461.791 72.8143V74.0332C461.791 74.4844 461.429 74.8485 460.98 74.8485Z" fill="black"/>
<path d="M389.112 41.4383H387.899C387.45 41.4383 387.087 41.0744 387.087 40.6235C387.087 40.1725 387.45 39.8086 387.899 39.8086H389.112C389.561 39.8086 389.923 40.1725 389.923 40.6235C389.915 41.0744 389.553 41.4383 389.112 41.4383Z" fill="black"/>
<path d="M421.537 41.4386H420.253C419.805 41.4386 419.442 41.0745 419.442 40.6233C419.442 40.1722 419.805 39.8081 420.253 39.8081H421.537C421.734 39.8081 421.923 39.7448 422.073 39.626C422.427 39.349 422.931 39.4123 423.207 39.7685C423.483 40.1247 423.42 40.6313 423.065 40.9083C422.624 41.2566 422.096 41.4386 421.537 41.4386ZM417.859 41.4386H415.465C415.016 41.4386 414.654 41.0745 414.654 40.6233C414.654 40.1722 415.016 39.8081 415.465 39.8081H417.859C418.308 39.8081 418.67 40.1722 418.67 40.6233C418.67 41.0745 418.308 41.4386 417.859 41.4386ZM413.071 41.4386H410.676C410.227 41.4386 409.865 41.0745 409.865 40.6233C409.865 40.1722 410.227 39.8081 410.676 39.8081H413.071C413.52 39.8081 413.882 40.1722 413.882 40.6233C413.874 41.0745 413.512 41.4386 413.071 41.4386ZM408.274 41.4386H405.88C405.431 41.4386 405.069 41.0745 405.069 40.6233C405.069 40.1722 405.431 39.8081 405.88 39.8081H408.274C408.723 39.8081 409.085 40.1722 409.085 40.6233C409.085 41.0745 408.723 41.4386 408.274 41.4386ZM403.486 41.4386H401.091C400.643 41.4386 400.28 41.0745 400.28 40.6233C400.28 40.1722 400.643 39.8081 401.091 39.8081H403.486C403.935 39.8081 404.297 40.1722 404.297 40.6233C404.297 41.0745 403.935 41.4386 403.486 41.4386ZM398.689 41.4386H396.295C395.846 41.4386 395.484 41.0745 395.484 40.6233C395.484 40.1722 395.846 39.8081 396.295 39.8081H398.689C399.138 39.8081 399.501 40.1722 399.501 40.6233C399.501 41.0745 399.138 41.4386 398.689 41.4386ZM393.901 41.4386H391.507C391.058 41.4386 390.695 41.0745 390.695 40.6233C390.695 40.1722 391.058 39.8081 391.507 39.8081H393.901C394.35 39.8081 394.712 40.1722 394.712 40.6233C394.712 41.0745 394.35 41.4386 393.901 41.4386ZM423.223 38.882C422.774 38.882 422.411 38.5179 422.411 38.0667V35.6605C422.411 35.2093 422.774 34.8452 423.223 34.8452C423.672 34.8452 424.034 35.2093 424.034 35.6605V38.0667C424.034 38.5179 423.672 38.882 423.223 38.882ZM423.223 34.0695C422.774 34.0695 422.411 33.7054 422.411 33.2542V30.848C422.411 30.3968 422.774 30.0327 423.223 30.0327C423.672 30.0327 424.034 30.3968 424.034 30.848V33.2542C424.034 33.7054 423.672 34.0695 423.223 34.0695Z" fill="black"/>
<path d="M423.222 29.2489C422.773 29.2489 422.411 28.8848 422.411 28.4336V27.2147C422.411 26.7635 422.773 26.3994 423.222 26.3994C423.671 26.3994 424.033 26.7635 424.033 27.2147V28.4336C424.033 28.8848 423.671 29.2489 423.222 29.2489Z" fill="black"/>
<path d="M427.136 100.929H425.923C425.474 100.929 425.112 100.565 425.112 100.114C425.112 99.6628 425.474 99.2988 425.923 99.2988H427.136C427.585 99.2988 427.947 99.6628 427.947 100.114C427.939 100.565 427.577 100.929 427.136 100.929Z" fill="black"/>
<path d="M461.247 110.713C460.798 110.713 460.436 110.349 460.436 109.897V107.491C460.436 107.04 460.798 106.676 461.247 106.676C461.696 106.676 462.058 107.04 462.058 107.491V109.897C462.058 110.356 461.696 110.713 461.247 110.713ZM461.247 105.9C460.798 105.9 460.436 105.536 460.436 105.085V102.679C460.436 102.227 460.798 101.863 461.247 101.863C461.696 101.863 462.058 102.227 462.058 102.679V105.085C462.058 105.536 461.696 105.9 461.247 105.9ZM460.593 101.286C460.42 101.286 460.247 101.23 460.097 101.111C459.94 100.993 459.759 100.929 459.562 100.929H458.278C457.829 100.929 457.467 100.565 457.467 100.114C457.467 99.6629 457.829 99.2988 458.278 99.2988H459.562C460.121 99.2988 460.649 99.4809 461.09 99.8292C461.444 100.106 461.507 100.613 461.231 100.969C461.074 101.183 460.838 101.286 460.593 101.286ZM455.884 100.929H453.489C453.04 100.929 452.678 100.565 452.678 100.114C452.678 99.6629 453.04 99.2988 453.489 99.2988H455.884C456.333 99.2988 456.695 99.6629 456.695 100.114C456.695 100.565 456.333 100.929 455.884 100.929ZM451.095 100.929H448.701C448.252 100.929 447.89 100.565 447.89 100.114C447.89 99.6629 448.252 99.2988 448.701 99.2988H451.095C451.544 99.2988 451.906 99.6629 451.906 100.114C451.898 100.565 451.536 100.929 451.095 100.929ZM446.299 100.929H443.904C443.455 100.929 443.093 100.565 443.093 100.114C443.093 99.6629 443.455 99.2988 443.904 99.2988H446.299C446.748 99.2988 447.11 99.6629 447.11 100.114C447.11 100.565 446.748 100.929 446.299 100.929ZM441.51 100.929H439.116C438.667 100.929 438.305 100.565 438.305 100.114C438.305 99.6629 438.667 99.2988 439.116 99.2988H441.51C441.959 99.2988 442.321 99.6629 442.321 100.114C442.321 100.565 441.959 100.929 441.51 100.929ZM436.714 100.929H434.319C433.871 100.929 433.508 100.565 433.508 100.114C433.508 99.6629 433.871 99.2988 434.319 99.2988H436.714C437.163 99.2988 437.525 99.6629 437.525 100.114C437.525 100.565 437.163 100.929 436.714 100.929ZM431.925 100.929H429.531C429.082 100.929 428.72 100.565 428.72 100.114C428.72 99.6629 429.082 99.2988 429.531 99.2988H431.925C432.374 99.2988 432.736 99.6629 432.736 100.114C432.736 100.565 432.374 100.929 431.925 100.929Z" fill="black"/>
<path d="M461.246 114.346C460.797 114.346 460.435 113.982 460.435 113.531V112.312C460.435 111.861 460.797 111.497 461.246 111.497C461.695 111.497 462.057 111.861 462.057 112.312V113.531C462.057 113.982 461.695 114.346 461.246 114.346Z" fill="black"/>
<path d="M401.918 65.0735C401.359 65.0577 400.91 64.6065 400.902 64.0445C400.8 58.2822 399.012 29.6844 373.951 23.7084C346.046 17.0516 333.28 45.5703 333.28 45.5703C333.28 45.5703 298.752 32.2568 292.136 67.9071C270.493 73.1312 264.87 101.539 278.944 115.422C281.181 117.631 284.181 118.873 287.316 118.905L422.876 120.132C426.853 120.172 430.381 117.552 431.515 113.721C435.745 99.3465 441.289 65.9996 401.918 65.0735Z" fill="#D45834"/>
<path d="M398.822 65.6826C398.263 65.6668 397.814 65.2156 397.806 64.6536C397.696 59.1288 395.924 32.6127 372.32 27.0483C345.935 20.8348 333.862 47.4617 333.862 47.4617C333.862 47.4617 301.216 35.0348 294.963 68.3184C274.69 73.1467 269.279 99.2195 282.109 112.311C284.362 114.607 287.425 115.913 290.631 115.944L418.244 117.084C422.229 117.124 425.765 114.488 426.884 110.649C430.861 97.0111 435.579 66.5612 398.822 65.6826Z" fill="#EF6238"/>
<path d="M344.258 58.7969L341.139 64.2347L335.807 61.3852L336.744 64.8995L342.068 67.749L345.195 62.3192L344.258 58.7969Z" fill="white"/>
<path d="M379.99 50.4227L375.887 48.7605C374.714 47.217 373.265 45.8635 371.571 44.7554C363.191 39.2781 351.559 41.8268 345.644 50.4227C343.187 53.9925 342.021 58.1163 342.265 62.2481C342.312 63.0554 342.415 63.8549 342.564 64.6622C342.698 65.3509 342.242 66.0395 341.541 66.2057C340.84 66.3719 340.17 65.9445 340.036 65.2638C339.926 64.6781 339.839 64.1003 339.776 63.5145C339.241 58.4804 340.548 53.4068 343.541 49.0534C350.275 39.2701 363.514 36.3732 373.06 42.6025C374.241 43.3781 375.32 44.2567 376.289 45.2303C377.809 46.758 379.053 48.5151 379.99 50.4227Z" fill="white"/>
<path d="M378.061 63.9022L381.18 58.4724L386.504 61.3219L385.575 57.8075L380.243 54.958L377.124 60.3879L378.061 63.9022Z" fill="white"/>
<path d="M378.769 73.6536C372.035 83.4368 358.796 86.3338 349.25 80.1045C348.069 79.3288 346.99 78.4503 346.021 77.4767C344.54 75.9807 343.319 74.2789 342.39 72.4189L346.73 74.3343C347.848 75.7116 349.187 76.9384 350.739 77.9437C359.118 83.421 370.751 80.8723 376.666 72.2764C379.123 68.7066 380.289 64.5828 380.045 60.451C379.997 59.6437 379.895 58.8442 379.745 58.0369C379.612 57.3483 380.068 56.6596 380.769 56.4934C381.47 56.3272 382.14 56.7546 382.274 57.4353C382.384 58.0211 382.47 58.5989 382.533 59.1846C383.069 64.2345 381.762 69.3082 378.769 73.6536Z" fill="white"/>
<path d="M330.557 176.18L327.265 205.886H365.494L360.517 176.18H330.557Z" fill="black"/>
<path d="M264.021 100.866V170.869C264.021 176.631 268.589 181.341 274.314 181.483C299.753 182.14 388.743 183.739 412.961 183.383C417.128 183.319 420.498 179.971 420.617 175.792C421.081 159.526 421.845 120.425 419.034 102.267C418.443 98.4442 415.23 95.5868 411.386 95.4602C390.066 94.7715 295.745 92.5948 271.534 93.1489C267.36 93.2439 264.021 96.6712 264.021 100.866Z" fill="black"/>
<path d="M268.391 100.526V167.038C268.391 170.402 271.077 173.141 274.424 173.188L409.48 174.866C412.795 174.914 415.513 172.238 415.528 168.898L415.757 102.98C415.765 100.597 413.874 98.6423 411.504 98.5868L273.235 95.7769C270.581 95.7215 268.391 97.8666 268.391 100.526Z" fill="white"/>
<path d="M373.731 211.957H317.773C316.253 211.957 315.111 210.873 315.402 209.701L316.119 206.844C316.331 205.989 317.277 205.356 318.387 205.324L372.337 203.63C373.502 203.591 374.534 204.216 374.786 205.11L376.078 209.654C376.424 210.841 375.274 211.957 373.731 211.957Z" fill="black"/>
<path d="M415.741 105.608L415.749 103.012C415.757 100.629 413.867 98.6661 411.496 98.6028L273.109 95.7929C270.455 95.7296 268.155 97.8667 268.155 100.534V105.616H415.741V105.608Z" fill="#D8DEE8"/>
<path d="M275.306 103.248C276.576 103.248 277.606 102.214 277.606 100.937C277.606 99.6608 276.576 98.626 275.306 98.626C274.036 98.626 273.006 99.6608 273.006 100.937C273.006 102.214 274.036 103.248 275.306 103.248Z" fill="#EF6238"/>
<path d="M289.302 103.249C290.572 103.249 291.602 102.214 291.602 100.938C291.602 99.6613 290.572 98.6265 289.302 98.6265C288.032 98.6265 287.002 99.6613 287.002 100.938C287.002 102.214 288.032 103.249 289.302 103.249Z" fill="#EF6238"/>
<path d="M282.207 103.248C283.477 103.248 284.507 102.214 284.507 100.937C284.507 99.6608 283.477 98.626 282.207 98.626C280.937 98.626 279.907 99.6608 279.907 100.937C279.907 102.214 280.937 103.248 282.207 103.248Z" fill="#EF6238"/>
<path opacity="0.57" d="M359.57 137.981H272.36C272.022 137.981 271.746 137.704 271.746 137.364V110.27C271.746 109.929 272.022 109.652 272.36 109.652H359.57C359.909 109.652 360.184 109.929 360.184 110.27V137.364C360.184 137.704 359.909 137.981 359.57 137.981Z" fill="#D8DEE8"/>
<path opacity="0.57" d="M411.591 128.467H364.21C363.8 128.467 363.478 128.134 363.478 127.731V110.285C363.478 109.874 363.808 109.549 364.21 109.549H411.599C412.009 109.549 412.332 109.882 412.332 110.285V127.731C412.324 128.134 412.001 128.467 411.591 128.467Z" fill="#D8DEE8"/>
<path opacity="0.57" d="M411.772 149.331H364.414C364.005 149.331 363.666 148.991 363.666 148.579V131.166C363.666 130.754 364.005 130.414 364.414 130.414H411.772C412.181 130.414 412.52 130.754 412.52 131.166V148.579C412.52 148.999 412.181 149.331 411.772 149.331Z" fill="#D8DEE8"/>
<path opacity="0.32" d="M411.819 170.196H364.744C364.248 170.196 363.854 169.793 363.854 169.302V152.173C363.854 151.675 364.256 151.279 364.744 151.279H411.819C412.315 151.279 412.709 151.682 412.709 152.173V169.302C412.709 169.793 412.315 170.196 411.819 170.196Z" fill="white"/>
<path opacity="0.57" d="M359.289 169.706H272.26C271.866 169.706 271.551 169.389 271.551 168.993V142.082C271.551 141.686 271.866 141.369 272.26 141.369H359.289C359.682 141.369 359.997 141.686 359.997 142.082V168.993C359.997 169.389 359.682 169.706 359.289 169.706Z" fill="#D8DEE8"/>
<path d="M339.494 216.501C339.494 217.641 340.423 218.575 341.558 218.575H453.285C454.419 218.575 455.348 217.641 455.348 216.501L456.278 151.975C456.278 150.836 454.939 148.604 452.489 148.778L343.298 145.936C341.873 145.896 340.494 146.451 339.486 147.464C338.478 148.477 337.927 149.854 337.958 151.287L339.494 216.501Z" fill="black"/>
<path d="M330.878 223.933H461.704C461.948 223.933 462.153 223.735 462.153 223.482V218.709C462.153 218.464 461.956 218.258 461.704 218.258H330.878C330.633 218.258 330.429 218.456 330.429 218.709V223.482C330.429 223.727 330.626 223.933 330.878 223.933Z" fill="black"/>
<path d="M341.534 214.506C341.534 215.582 342.416 216.469 343.487 216.469H450.592C451.663 216.469 452.545 215.582 452.545 214.506L453.419 155.925C453.317 152.403 450.237 151.136 448.378 151.208L343.732 148.39C342.731 148.366 341.763 148.754 341.054 149.458C340.345 150.171 339.951 151.144 339.983 152.149L341.534 214.506Z" fill="white"/>
<path opacity="0.57" d="M409.834 187.879H345.772C345.433 187.879 345.158 187.602 345.158 187.261V166.365C345.158 166.025 345.433 165.748 345.772 165.748H409.834C410.173 165.748 410.449 166.025 410.449 166.365V187.261C410.449 187.602 410.173 187.879 409.834 187.879Z" fill="#D8DEE8"/>
<path opacity="0.57" d="M448.205 180.454H413.606C413.196 180.454 412.874 180.122 412.874 179.718V166.412C412.874 166.001 413.204 165.676 413.606 165.676H448.205C448.614 165.676 448.937 166.009 448.937 166.412V179.718C448.945 180.122 448.614 180.454 448.205 180.454Z" fill="#D8DEE8"/>
<path opacity="0.57" d="M448.338 196.752H413.763C413.354 196.752 413.015 196.411 413.015 196V182.718C413.015 182.306 413.354 181.966 413.763 181.966H448.338C448.748 181.966 449.087 182.306 449.087 182.718V196C449.087 196.419 448.748 196.752 448.338 196.752Z" fill="white"/>
<path opacity="0.57" d="M448.33 213.049H414.047C413.551 213.049 413.157 212.646 413.157 212.155V199.166C413.157 198.667 413.558 198.271 414.047 198.271H448.33C448.827 198.271 449.22 198.675 449.22 199.166V212.155C449.228 212.653 448.827 213.049 448.33 213.049Z" fill="#D8DEE8"/>
<path opacity="0.57" d="M409.598 212.669H345.717C345.323 212.669 345.008 212.353 345.008 211.957V191.243C345.008 190.847 345.323 190.53 345.717 190.53H409.598C409.992 190.53 410.307 190.847 410.307 191.243V211.957C410.307 212.353 409.992 212.669 409.598 212.669Z" fill="#D8DEE8"/>
<path d="M453.34 160.627L453.419 155.577C453.317 152.213 450.237 151.01 448.378 151.081L343.732 148.39C342.731 148.366 341.763 148.738 341.054 149.411C340.345 150.092 339.951 151.01 339.983 151.975L340.211 160.627H453.34Z" fill="#D8DEE8"/>
<path d="M345.496 157.255C346.766 157.255 347.796 156.22 347.796 154.944C347.796 153.667 346.766 152.632 345.496 152.632C344.226 152.632 343.196 153.667 343.196 154.944C343.196 156.22 344.226 157.255 345.496 157.255Z" fill="#EF6238"/>
<path d="M359.492 157.255C360.762 157.255 361.792 156.22 361.792 154.944C361.792 153.667 360.762 152.632 359.492 152.632C358.222 152.632 357.192 153.667 357.192 154.944C357.192 156.22 358.222 157.255 359.492 157.255Z" fill="#EF6238"/>
<path d="M352.394 157.255C353.664 157.255 354.694 156.22 354.694 154.944C354.694 153.667 353.664 152.632 352.394 152.632C351.124 152.632 350.095 153.667 350.095 154.944C350.095 156.22 351.124 157.255 352.394 157.255Z" fill="#EF6238"/>
<path d="M658 13L681 13L442.5 13L445.5 13" stroke="black" stroke-dasharray="12 6"/>
<path d="M1.0006 224L1.00057 233C1.00053 246.255 11.7457 257 25.0006 257L385 257C398.255 257 409 246.255 409 233L409 225" stroke="black" stroke-dasharray="12 6"/>
</svg>
