<?xml version="1.0" encoding="utf-8"?>
<!-- Generator: Adobe Illustrator 26.1.0, SVG Export Plug-In . SVG Version: 6.00 Build 0)  -->
<svg version="1.1" id="Layer_1" xmlns="http://www.w3.org/2000/svg" xmlns:xlink="http://www.w3.org/1999/xlink" x="0px" y="0px"
	 viewBox="0 0 418 287" style="enable-background:new 0 0 418 287;" xml:space="preserve">
<style type="text/css">
	.st0{fill:#EEF5F9;}
	.st1{clip-path:url(#SVGID_00000067227967675075901970000011303733842411439745_);}
	.st2{fill:#1F1F1F;}
	.st3{fill:#E85D34;}
	.st4{fill:#B64C41;}
	.st5{fill:#D45834;}
	.st6{fill:#6B6B6B;}
	.st7{fill:#434343;}
	.st8{fill:#FFFFFF;}
	.st9{fill:#EF6238;fill-opacity:0.22;}
	.st10{fill:#EF6238;}
	.st11{fill:#F2F2F2;}
	.st12{fill:#FFB27D;}
	.st13{fill:#E2915A;}
	.st14{fill:#2B2B2B;}
	.st15{fill:#232323;}
	.st16{fill:#2D2D2D;}
	.st17{fill:#D9E9F9;}
	.st18{fill:#BA4C43;}
	.st19{fill:#E9F3FE;}
	.st20{fill:#F5F5F5;}
	.st21{fill:none;stroke:#000000;stroke-dasharray:12,6;}
</style>
<circle class="st0" cx="213.4" cy="112" r="112"/>
<g>
	<defs>
		<rect id="SVGID_1_" x="79" y="5.8" width="287.3" height="153.9"/>
	</defs>
	<clipPath id="SVGID_00000130643316474049399590000008244483111932604596_">
		<use xlink:href="#SVGID_1_"  style="overflow:visible;"/>
	</clipPath>
	<g style="clip-path:url(#SVGID_00000130643316474049399590000008244483111932604596_);">
		<path class="st2" d="M99.2,146.8h217.7l-8.8-32.4H99.2V146.8z"/>
		<path d="M260.9,107.1c-3.3-0.1-6.7-0.2-10.2-0.2c0,0-19.5-16.8-42.1-22.5C231.8,90.1,260.9,107.1,260.9,107.1z"/>
		<path class="st3" d="M84.3,119.7v-18.6c0,0,21.9-2.5,35.2-7.3c30.7-11.2,47.2-11.4,75-11.4c21.2,0,42.6,14.1,51.7,20.8
			c3.1,2.3,6.8,3.5,10.6,3.6c33.5,0.7,54.2,7.4,64.4,11.8c4.8,2.1,7.9,6.8,7.9,12.1v6.2c0.7,0,1.3,0.6,1.3,1.2v10.4
			c0,0.7-0.6,1.2-1.3,1.2h-14.3h-5.7c2-3.5,3.1-7.6,3-11.9c-0.3-12.4-10.5-22.4-22.9-22.7c-13.2-0.3-24,10.3-24,23.3
			c0,4.1,1.1,8,3,11.3H145.2c2-3.5,3.1-7.6,3-11.9c-0.3-12.4-10.5-22.4-22.9-22.7c-13.2-0.3-24,10.3-24,23.3c0,4.1,1.1,8,3,11.3
			h-4.9c-17,0-19.4-17.2-19.5-25.7C79.7,121.8,81.8,119.7,84.3,119.7z"/>
		<path d="M205.3,85.9c19.4,4.9,40.2,21.5,40.2,21.5l-55-1.2c-2.2,0-4.1-1.3-5-3.2L177,84.9h20.4C200,84.9,202.7,85.2,205.3,85.9z"
			/>
		<path d="M173.7,85.3l7.7,17.6c0.6,1.4-0.4,2.9-1.9,2.9c-7.8,0-28.3-0.3-40-3.2c-2.8-0.7-3.8-4.2-1.7-6.2
			C142.6,91.7,153,85.3,173.7,85.3z"/>
		<path class="st4" d="M327.7,124.9h-8c0,0-13.2-12.2-34.2-15.6C285.4,109.3,324.4,113.6,327.7,124.9z"/>
		<path class="st4" d="M84.3,119.7h2.1c1.2,0,2.3-0.7,2.8-1.8c1.2-2.6,3.9-7.5,8.1-11c1.6-1.4,0.6-4-1.5-4H84.3V119.7z"/>
		<path d="M189.8,111.4h10.7c0.6,0,1.1-0.5,1.1-1.1c0-0.6-0.5-1.1-1.1-1.1h-10.7c-0.6,0-1.1,0.5-1.1,1.1
			C188.8,110.9,189.2,111.4,189.8,111.4z"/>
		<path d="M142.5,111.4h10.7c0.6,0,1.1-0.5,1.1-1.1c0-0.6-0.5-1.1-1.1-1.1h-10.7c-0.6,0-1.1,0.5-1.1,1.1
			C141.5,110.9,141.9,111.4,142.5,111.4z"/>
		<path class="st5" d="M151.6,118.3H248c4,0,6.4,4.3,4.4,7.7l-6.2,10.1c-1.4,2.2-4.3,2.8-6.4,1.3
			C231.5,131.6,207.8,119.5,151.6,118.3z"/>
		<path d="M139,153.1c8-7.9,8-20.8,0-28.7s-20.9-7.9-28.9,0c-8,7.9-8,20.8,0,28.7C118.1,161,131,161,139,153.1z"/>
		<path class="st6" d="M124.5,126.2c7,0,12.7,5.6,12.7,12.6c0,6.9-5.7,12.6-12.7,12.6c-7,0-12.7-5.6-12.7-12.6
			C111.9,131.8,117.5,126.2,124.5,126.2z M122.8,127.6c-2.8,0.4-5.2,1.8-6.9,3.8l4.4,2.7c0.7-0.6,1.6-1.1,2.5-1.4V127.6z
			 M126.3,127.6v5.1c1,0.3,1.8,0.7,2.5,1.4l4.4-2.7C131.5,129.4,129,128,126.3,127.6z M135,143.2c0.6-1.4,0.9-2.8,0.9-4.4
			c0-1.6-0.3-3.1-0.9-4.4l-4.4,2.7c0.2,0.6,0.3,1.1,0.3,1.8c0,0.6-0.1,1.2-0.2,1.7L135,143.2z M126.3,149.9c2.8-0.4,5.2-1.8,7-3.9
			l-4.4-2.7c-0.7,0.7-1.6,1.2-2.6,1.4L126.3,149.9L126.3,149.9z M127.4,138.8c0-1.6-1.3-2.8-2.9-2.8c-1.6,0-2.9,1.3-2.9,2.8
			c0,1.6,1.3,2.8,2.9,2.8C126.1,141.6,127.4,140.3,127.4,138.8z M122.8,149.9v-5.1c-1-0.3-1.8-0.8-2.6-1.4l-4.4,2.7
			C117.6,148.1,120,149.5,122.8,149.9z M118.4,140.5c-0.1-0.5-0.2-1.1-0.2-1.7c0-0.6,0.1-1.2,0.3-1.8l-4.4-2.7
			c-0.6,1.4-0.9,2.9-0.9,4.4c0,1.6,0.3,3,0.9,4.4L118.4,140.5z"/>
		<path d="M303.1,153.1c8-7.9,8-20.8,0-28.7s-20.9-7.9-28.9,0s-8,20.8,0,28.7C282.2,161,295.1,161,303.1,153.1z"/>
		<path class="st6" d="M288.6,126.2c7,0,12.6,5.6,12.6,12.6c0,6.9-5.7,12.6-12.6,12.6c-7,0-12.7-5.6-12.7-12.6
			C276,131.9,281.6,126.2,288.6,126.2z M286.9,127.6c-2.8,0.4-5.2,1.8-6.9,3.8l4.4,2.7c0.7-0.6,1.6-1.1,2.5-1.4V127.6z M290.3,127.6
			v5.1c1,0.3,1.8,0.8,2.5,1.4l4.4-2.7C295.5,129.4,293.1,128,290.3,127.6z M299.1,143.2c0.6-1.4,0.9-2.8,0.9-4.4
			c0-1.6-0.3-3.1-0.9-4.4l-4.4,2.7c0.2,0.6,0.3,1.1,0.3,1.8c0,0.6-0.1,1.2-0.2,1.7L299.1,143.2z M290.3,150c2.8-0.4,5.2-1.8,7-3.9
			l-4.4-2.7c-0.7,0.7-1.6,1.2-2.6,1.4L290.3,150L290.3,150z M291.5,138.8c0-1.6-1.3-2.9-2.9-2.9c-1.6,0-2.9,1.3-2.9,2.9
			c0,1.6,1.3,2.8,2.9,2.8C290.2,141.6,291.5,140.4,291.5,138.8z M286.9,150v-5.1c-1-0.3-1.9-0.8-2.6-1.4l-4.4,2.7
			C281.7,148.1,284.1,149.6,286.9,150z M282.5,140.5c-0.1-0.5-0.2-1.1-0.2-1.7c0-0.6,0.1-1.2,0.3-1.8l-4.4-2.7
			c-0.6,1.4-0.9,2.9-0.9,4.4c0,1.6,0.3,3,0.9,4.4L282.5,140.5z"/>
		<path d="M199.6,159.2h-59.4c-1.9,0-3.4-1.5-3.4-3.4V37.9c0-1.8,1.5-3.4,3.4-3.4h59.4c1.9,0,3.4,1.5,3.4,3.4v117.9
			C202.9,157.7,201.4,159.2,199.6,159.2z"/>
		<path class="st7" d="M201.4,159.4H142c-1.9,0-3.4-1.5-3.4-3.4V37.5c0-1.8,1.5-3.4,3.4-3.4h59.4c1.9,0,3.4,1.5,3.4,3.4V156
			C204.8,157.8,203.3,159.4,201.4,159.4z"/>
		<path d="M181.4,38.8h-17.2c-0.4,0-0.7,0.3-0.7,0.7c0,0.4,0.3,0.7,0.7,0.7h17.2c0.4,0,0.7-0.3,0.7-0.7
			C182.1,39.1,181.8,38.8,181.4,38.8z"/>
		<path d="M161.2,38.8c-0.4,0-0.7,0.3-0.7,0.7c0,0.4,0.3,0.7,0.7,0.7c0.4,0,0.7-0.3,0.7-0.7C161.8,39.1,161.5,38.8,161.2,38.8z"/>
		<path class="st8" d="M199.2,44h-55v100.8h55V44z"/>
		<path class="st9" d="M199.2,133.1h-55v11.7h55V133.1z"/>
		<path class="st10" d="M179.1,54.5c-0.1,0-0.3-0.1-0.4-0.2l-4.7-6.9c-0.1-0.2-0.1-0.5,0.1-0.7c0.2-0.1,0.5-0.1,0.7,0.1l4.7,6.9
			c0.1,0.2,0.1,0.5-0.1,0.7C179.3,54.5,179.2,54.5,179.1,54.5z"/>
		<path class="st10" d="M179.5,59.1c0-1.2,1-2.2,2.2-2.2c1.2,0,2.2,1,2.2,2.2s-1,2.2-2.2,2.2C180.5,61.3,179.5,60.3,179.5,59.1z"/>
		<path class="st11" d="M171.6,133l-7.1-11.6c-1.9-3-5.8-4.1-8.9-2.5l-11.3,5.8v8.3L171.6,133z"/>
		<path class="st11" d="M144.2,109.2c-0.1-0.6,22.2-11.9,30.1-16c1.5-0.8,2-2.6,1.1-4l-0.4-0.7c-0.6-0.9-1.7-1.2-2.7-0.7l-10.7,5.4
			c-2.1,1.1-4.7,0.3-6-1.6l-11.5-18.9L144.2,109.2z"/>
		<path class="st11" d="M150,53.6l5.3,9c1.1,1.8,3.5,2.5,5.4,1.4l5.6-3.1c1.1-0.6,1.9-1.8,2-3.1c0.1-1.3,0.4-2.9,1.2-4.4
			c0.7-1.2,0.6-2.7-0.1-3.9c-0.7-1.2-2-1.9-3.4-1.9h-12.6C150.3,47.7,148.4,51,150,53.6z"/>
		<path class="st11" d="M199.1,57.2v21.7c-1.2-4.5-3.4-8.6-4.8-10.9c-0.7-1.1-0.8-2.5-0.3-3.8c0.5-1.2,0.7-2.4,0.8-3.4
			c0.1-1.4,1.1-2.6,2.5-3L199.1,57.2z"/>
		<path class="st11" d="M197.1,94.3c0.9-1.1,1.6-2.2,2.1-3.5V103l-2.5-5.2C196.1,96.6,196.3,95.3,197.1,94.3z"/>
		<path class="st11" d="M199.1,123.4v9.8h-11.7l-12.4-18.9c-1.6-2.4-0.8-5.7,1.8-7.1l3.5-1.9c3-1.7,6.9-0.7,8.7,2.2L199.1,123.4z"/>
		<path class="st11" d="M162.2,75.3l11.6-6.2c0.6-0.3,1.3-0.3,1.8-0.1c1.5,0.6,4.5,1.8,6.9,1.8c0.8,0,1.6,0.5,1.9,1.2
			c0.9,1.8,2.4,5.1,3.2,8.2c0.6,2.3-2.4,3.7-3.8,1.8l-5.2-7.2c-0.6-0.8-1.6-1.1-2.6-0.7L164,79.1c-1,0.4-2.1,0-2.7-0.9
			C160.8,77.1,161.2,75.8,162.2,75.3z"/>
		<path class="st10" d="M185.9,137h-28.4c-0.3,0-0.6,0.3-0.6,0.6c0,0.3,0.3,0.6,0.6,0.6h28.4c0.3,0,0.6-0.3,0.6-0.6
			C186.5,137.3,186.2,137,185.9,137z"/>
		<path class="st10" d="M185.9,139.6h-28.4c-0.3,0-0.6,0.3-0.6,0.6c0,0.3,0.3,0.6,0.6,0.6h28.4c0.3,0,0.6-0.3,0.6-0.6
			C186.5,139.9,186.2,139.6,185.9,139.6z"/>
		<path class="st10" d="M149.9,135.3c-1.4,0-2.5,1.1-2.5,2.5s2.5,4.5,2.5,4.5s2.5-3.1,2.5-4.5S151.3,135.3,149.9,135.3z M149.9,139
			c-0.7,0-1.2-0.5-1.2-1.2c0-0.7,0.5-1.2,1.2-1.2s1.2,0.5,1.2,1.2C151,138.5,150.5,139,149.9,139z"/>
		<path class="st10" d="M168.7,86.9c-1.4,0-2.5,1.1-2.5,2.5c0,1.4,2.5,4.5,2.5,4.5s2.5-3.1,2.5-4.5
			C171.2,88.1,170.1,86.9,168.7,86.9z M168.7,90.6c-0.7,0-1.2-0.5-1.2-1.2c0-0.7,0.5-1.2,1.2-1.2s1.2,0.5,1.2,1.2
			C169.9,90.1,169.3,90.6,168.7,90.6z"/>
		<path class="st10" d="M178.2,133.2l-15.8-25.7c-0.1-0.2-0.4-0.3-0.6-0.2c-0.2,0.1-0.3,0.4-0.2,0.6l15.5,25.2H178.2z"/>
		<path class="st10" d="M177.9,123c0,0.6-0.5,1.1-1.1,1.1c-0.6,0-1.1-0.5-1.1-1.1c0-0.6,0.5-1.1,1.1-1.1
			C177.4,121.9,177.9,122.4,177.9,123z"/>
		<path class="st10" d="M176.8,120.3c-1.5,0-2.7,1.2-2.7,2.6c0,1.5,1.2,2.6,2.7,2.6s2.7-1.2,2.7-2.6
			C179.5,121.5,178.3,120.3,176.8,120.3z M176.8,125.1c-1.2,0-2.2-1-2.2-2.2c0-1.2,1-2.2,2.2-2.2c1.2,0,2.2,1,2.2,2.2
			C179,124.2,178,125.1,176.8,125.1z"/>
		<path class="st12" d="M123.5,52.7v0.8c0,0,0.2,2.5-2.9,2.9c-3.1,0.4-5.7,0.3-5.6-1.6c0.3-1.5,0.8-3.9,0.8-5.1c0-0.5,0-1-0.1-1.5
			l6.1-0.1l1.8,0.3L123.5,52.7z"/>
		<path class="st13" d="M123.5,48.3l0,4.4c-0.6,0.3-1.4,0.5-2.2,0.5c-2.8,0-4.6-2-5.6-3.5c0-0.5,0-1-0.1-1.5l6.1-0.1L123.5,48.3z"/>
		<path class="st12" d="M115.1,47.1c0.7,3.8,5.6,3.7,7.8,3.4c0.6-0.1,1-0.1,1-0.1c0.7-0.2,1.1-1.2,1.2-2.6c0.4-2.7-0.1-6.7-0.6-7.8
			c-0.7-1.5-2-3.2-7-2C112.6,39.2,114.2,42.3,115.1,47.1z"/>
		<path d="M111.1,159h7c-0.1-0.4-0.2-1.5-0.6-2.5c-0.1-0.4-0.2-0.7-0.4-1c-0.7-1.3-5-0.5-5-0.5s-0.4,0.3-0.7,1.6
			C111.3,157.3,111.2,158.1,111.1,159z"/>
		<path d="M132.2,156.9c0,0.9,0.1,1.8,0.5,2.2h13.8c-0.2-0.5-0.7-1.2-2.1-1.5c-1.6-0.3-4.1-1-5.6-2.6c-0.5-0.5-0.9-1.2-1.1-1.9
			c-0.6-2.9-5.4,0.9-5.4,0.9S132.1,155.5,132.2,156.9z"/>
		<path class="st14" d="M123,125.9c0.2,1,0.3,1.9,0.4,2.5c0.4,8.5,7.2,27.9,8.4,28.3c1.9,0.7,4.8-0.8,6.3-1.3
			c0.6-0.2,1.1-0.8,0.9-1.5c-3.3-15.3-4.6-37.2-5-50.2c-0.2-6.6-1.4-11.1-1.4-11.1s-16.5-4.4-16.6,1.2
			C116,98.7,121.5,117.9,123,125.9z"/>
		<path class="st15" d="M123,125.9l11-22.2c-0.2-6.6-1.4-11.1-1.4-11.1s-16.5-4.4-16.6,1.2C116,98.7,121.5,117.9,123,125.9z"/>
		<path class="st14" d="M126.7,93.8l-8.7,62.6c0,0-3.8,0.9-6.8,0.2c0,0-2.6-33.3-2.3-41.4c0.2-8.1-1.8-21.6,0.5-23
			C111.6,90.8,126.7,93.8,126.7,93.8z"/>
		<path d="M126,36.4c0,0-2.2-0.2-4.8-1.3c-2.1-0.9-4.7,0.1-5.6,0.5c0-0.1,0.1-0.3,0.2-0.5c0,0-0.4,0.3-0.4,0.6c0,0-0.1,0.1,0,0.1
			c0,0-0.4-0.1-0.7,0c0,0,0.2,0,0.3,0.1c0,0,0,0,0,0c-3.3,1.6-3.6,6.7-2.5,7.8c1.3,1.4,2.8,4.6,2.8,4.6s0.6-0.8,0.3-2
			c-0.2-1.2,0.9-1.2,2.2-1.8c1.4-0.6,0.2-2.2,1.4-3.1c1.2-1,5.6-0.4,5.5-1.1C126.5,39.8,126,36.6,126,36.4z"/>
		<path class="st8" d="M114.2,55.8l2,42.7c0,0,16.7,0.3,16.2-3.5c-0.5-3.8-6-37.9-6-37.9L114.2,55.8z"/>
		<path class="st16" d="M108.2,80c1,3-0.9,12.9-1.6,16.3c-0.1,0.7-0.2,1.1-0.2,1.1c2.3,3.7,10.8,3.7,10.8,3.7
			c1.6-7.2,2.5-18.6,2.5-18.6l-6.5-28.3l-8.2,7.5c0,0,0.6,4.6,1.4,9.2C107,74.7,107.6,78.5,108.2,80z"/>
		<path class="st8" d="M122.1,47.7c0,0,0.2,0.5,1.4,0.3c0,0,1-0.1,1-0.7C124.5,47.4,123.4,47.1,122.1,47.7z"/>
		<path class="st14" d="M131.5,56.4C131.5,56.4,131.5,56.4,131.5,56.4c0.4,0.4,11.6,11.2,13.7,15.4c2.2,4.3-10.1,12.8-10.1,12.8
			s-0.8,0.3-1.3,0.2c0.6,4.7,1.2,9.1,0.8,11c-0.7,3.4-3.8,4.5-3.8,4.2c0-0.1-0.8-12.3-1.8-18.6c-2.1-14-4.7-27.1-4.7-27.1
			C128.1,54.7,131.5,56.4,131.5,56.4z M138.2,73.7C138.2,73.6,138.2,73.6,138.2,73.7c0-0.7-2.3-2-4.9-3.6c0,0-0.1-0.1-0.1-0.1
			c0,1.3,0,2.6,0,3.8c-0.1,2.2,0,4.9,0.3,7.6C134.7,79.4,137.9,74.4,138.2,73.7z"/>
		<path class="st17" d="M113.7,54.2c0-0.4,1.9-1,1.9-1s2.2,3.1,5.9,3.1c0,0-1,2-2.3,2.5C119.2,58.9,113.8,56.6,113.7,54.2z"/>
		<path class="st10" d="M126.6,85.2c-0.1,1-0.6,1.9-1.3,2.6l-1.2,1.1c-0.3,0.3-0.8,0.2-1-0.1l-1.4-1.8c-0.4-0.5-0.6-1.1-0.5-1.7
			c0.1-1.4,0.4-4,0.6-6.6c0.2-2.1,0.3-4.1,0.3-5.3c0-3.9-0.8-16.4-0.8-16.4l0.9,0.1c0,0,2.3,4.9,3.6,11.5c0.3,1.6,0.5,3.4,0.7,5.2
			C126.6,73.5,127.1,80.7,126.6,85.2z"/>
		<path class="st5" d="M126.6,85.2c-0.1,1-0.6,1.9-1.3,2.6l-1.2,1.1c-0.3,0.3-0.8,0.2-1-0.1l-1.4-1.8c-0.4-0.5-0.6-1.1-0.5-1.7
			c0.1-1.4,0.4-4,0.6-6.6c2.6-2.9,3.7-6.9,4.1-10.2c0.3,1.6,0.5,3.4,0.7,5.2C126.6,73.5,127.1,80.7,126.6,85.2z"/>
		<path class="st17" d="M121.5,56.3c0,0,1.9-1.1,1.9-2.4c0,0,1.3-0.2,1.8,0.4c0,0,0.5,2.1-0.1,3.4C125.1,57.7,122.3,57.3,121.5,56.3
			z"/>
		<path class="st18" d="M120.2,56.1l2.6-0.6c0,0,0.3,0,0.3,0.5c0,0.4-0.7,1.7-1.1,1.8C121.8,57.8,119.6,56.9,120.2,56.1z"/>
		<path class="st19" d="M114,54c0-0.4,1.3-1.2,1.3-1.2s2.6,3,6.2,3c0,0-1,2-2.3,2.5C119.2,58.3,114.1,56.4,114,54z"/>
		<path class="st19" d="M121.5,55.7c0,0,2-1,2-2.3c0,0,1.2,0.5,1.7,1.1c0,0,0.5,1.3-0.1,2.6C125.1,57.2,122.3,56.7,121.5,55.7z"/>
		<path class="st12" d="M136,85.3c0-1.1-1-2-2.1-1.8c-0.3,0-0.6,0.2-0.8,0.4c-0.7,1-1.5,3.9-0.1,4c0.5,0.1,1.2-0.3,1.8-0.7
			c0.5-0.4,1.2-1,1.2-1.7L136,85.3L136,85.3z"/>
		<path class="st15" d="M106.6,96.3c2.4-2.5,6.5-7.4,6.4-11.4c-0.2-5.6-6.7-13.9-6.7-13.9c0.6,3.7,1.3,7.5,1.8,9
			C109.2,83,107.3,92.9,106.6,96.3z"/>
		<path class="st12" d="M106.7,86.6c0,0,1.7,0.9,2.8,0.4c1-0.4,2.3-0.7,3.4,0.6c1.2,1.3,1.4,2.2,1.2,2.7c-0.2,0.5-3,0.3-3.4,0
			c-0.5-0.3-1.2-1.1-1.6-0.9c-1.3,0.4-2.3-0.6-2.9-1.3C105.8,87.6,106.8,87.3,106.7,86.6z"/>
		<path class="st14" d="M113.2,54.2c0,0-6.9,0.8-8.5,3.7c-1.6,3-10,15-9.8,20c0.3,5,11.5,10.6,11.5,10.6s2.5-1,2.5-2.2
			c0-1.1-7.8-7.8-7.3-9.1c0.5-1.2,9-11.1,9.9-14.4C112.3,59.7,113.2,54.2,113.2,54.2z"/>
		<path class="st15" d="M133.2,70C133.2,70,133.2,70,133.2,70c2.6,1.7,5,3,5,3.6c0.3-1.1-3-5.6-4.1-6.5C133,66.1,133.2,70,133.2,70z
			"/>
		<path class="st15" d="M115.3,52.7c0,0,5.2,21.7,4.4,29.8c0,0-1.9-8.7-6.5-15.9c0,0,1.7-1.5,1.6-2c0,0-1.3-0.4-2.5-0.1
			c0,0,0.1-9.3,0.9-10.3C113.9,53.2,115.3,52.7,115.3,52.7z"/>
		<path class="st15" d="M123.5,53.5c-0.1,0,5.2,21.2,5.6,27.9c0,0-0.5-12.1-0.5-15.6c0,0-2.2-1.1-2.2-1.5c0-0.4,2.3-1.5,2.3-1.5
			s-1.5-7.4-2.3-8.3C125.7,53.8,123.5,53.5,123.5,53.5z"/>
		<path class="st20" d="M198.6,113.2l-10.5-18.6c2.4-1.7,3.9-4.1,4.6-7.1c1.9-8.6-4.1-19.6-6-23c1.3-1.4,2.2-3.3,2.2-5.5
			c0-4.2-3.2-7.7-7.1-7.7c-3.9,0-7.1,3.4-7.1,7.7c0,0.8,0.1,1.6,0.3,2.3c-7.7,4.8-15.9,9.8-18.8,11.4l-10.2-18.4
			c-0.4-0.7,0.1,1.6-0.6,2.1c-0.7,0.5-0.9,1.4-0.5,2.2l13.1,23.6c1.5,2.6,4.5,3.5,7,2.1l8.3-4.8c1.2-0.7,2.7-0.3,3.4,1l7.4,13.1
			c-14.9,8.5-36.3,20.6-37.9,21.3c-0.7,0.2-1.2,1.1-1,1.9c0.2,0.7-0.8,2.4-0.2,2.4c0.1,0-0.5-0.1-0.4-0.1c0.4-0.1,3.3-1.4,22.9-12.5
			c7.6-4.3,15.2-8.7,18.1-10.3l13,22.8c0.3,0.5-1.7-3.4-1.2-3.4c0.3,0,0.5-0.1,0.8-0.2C198.8,115,199,114,198.6,113.2z M181.6,54.6
			c2.3,0,4.2,2,4.2,4.5c0,2.5-1.9,4.5-4.2,4.5s-4.2-2-4.2-4.5C177.5,56.6,179.4,54.6,181.6,54.6z M171.8,76.7l-8.4,4.8
			c-1.1,0.6-2.5,0.2-3.1-0.9l-2.8-5.1c1.5-0.8,4.3-2.4,9.8-5.8c3.7-2.2,7.3-4.5,9-5.5c1.3,1.6,3.2,2.6,5.4,2.6
			c0.9,0,1.7-0.2,2.4-0.5c0.7,1.2,2.1,3.7,3.4,6.7c1.6,3.9,3.3,9.4,2.3,13.8c-0.5,2.1-1.5,3.8-3.2,5.1l-7.5-13.2
			C177.6,76.1,174.4,75.2,171.8,76.7z"/>
		<path class="st20" d="M186.3,56.6c-0.2,0-0.3-0.1-0.4-0.2c-0.1-0.2,0-0.5,0.2-0.6l11.7-7.1c0.2-0.1,0.5,0,0.6,0.2
			c0.1,0.2,0,0.5-0.2,0.6l-11.7,7.1C186.4,56.6,186.4,56.6,186.3,56.6z"/>
		<path d="M336.7,159.7H79.3c-0.2,0-0.3-0.2-0.3-0.4c0-0.2,0.2-0.4,0.3-0.4h257.4c0.2,0,0.3,0.2,0.3,0.4
			C337,159.5,336.9,159.7,336.7,159.7z"/>
	</g>
</g>
<path class="st21" d="M500,56H314"/>
<path class="st21" d="M-127,232l0,12c0,13.3,10.7,24,24,24h344c13.3,0,24-10.7,24-24v-32.3"/>
</svg>
