<svg width="77" height="77" viewBox="0 0 77 77" fill="none" xmlns="http://www.w3.org/2000/svg">
<g clip-path="url(#clip0_268_4460)">
<rect width="77" height="77" rx="16" fill="url(#paint0_linear_268_4460)"/>
<g clip-path="url(#clip1_268_4460)">
<rect width="77" height="77" rx="14.4941" fill="url(#paint1_linear_268_4460)"/>
<g clip-path="url(#clip2_268_4460)">
<rect width="77" height="77" rx="14.4941" fill="#1877F2"/>
<path d="M77 38.5127C77 57.9633 62.5863 74.0435 43.8616 76.653C42.1108 76.8958 40.3196 77.0227 38.5014 77.0227C36.4025 77.0227 34.3415 76.8554 32.3344 76.5315C14.001 73.5794 0 57.68 0 38.5127C0 17.2433 17.2382 0 38.4987 0C59.7591 0 77 17.2433 77 38.5127Z" fill="#1877F2"/>
<path d="M44.1955 30.9217V39.3112H54.5708L52.9279 50.6125H44.1955V77.9334C42.4447 78.1763 40.6534 78.3031 38.8352 78.3031C36.7364 78.3031 34.6754 78.1358 32.6683 77.812V50.6125H23.0996V39.3112H32.6683V29.0462C32.6683 22.6778 37.829 17.5129 44.1982 17.5129V17.5183C44.2171 17.5183 44.2333 17.5129 44.2522 17.5129H54.5735V27.2868H47.8293C45.8249 27.2868 44.1982 28.914 44.1982 30.919L44.1955 30.9217Z" fill="white"/>
</g>
</g>
</g>
<defs>
<linearGradient id="paint0_linear_268_4460" x1="11.2493" y1="65.7507" x2="65.7507" y2="11.252" gradientUnits="userSpaceOnUse">
<stop stop-color="#FAAD4F"/>
<stop offset="0.35" stop-color="#DD2A7B"/>
<stop offset="0.62" stop-color="#9537B0"/>
<stop offset="1" stop-color="#515BD4"/>
</linearGradient>
<linearGradient id="paint1_linear_268_4460" x1="11.2493" y1="65.7507" x2="65.7507" y2="11.252" gradientUnits="userSpaceOnUse">
<stop stop-color="#FAAD4F"/>
<stop offset="0.35" stop-color="#DD2A7B"/>
<stop offset="0.62" stop-color="#9537B0"/>
<stop offset="1" stop-color="#515BD4"/>
</linearGradient>
<clipPath id="clip0_268_4460">
<rect width="77" height="77" rx="16" fill="white"/>
</clipPath>
<clipPath id="clip1_268_4460">
<rect width="77" height="77" rx="14.4941" fill="white"/>
</clipPath>
<clipPath id="clip2_268_4460">
<rect width="77" height="77" rx="14.4941" fill="white"/>
</clipPath>
</defs>
</svg>
