<svg width="77" height="77" viewBox="0 0 77 77" fill="none" xmlns="http://www.w3.org/2000/svg">
<rect width="77" height="77" rx="16" fill="url(#paint0_linear_268_4470)"/>
<path d="M49.8784 15.3999H26.0525C19.4701 15.3999 14.1152 20.7564 14.1152 27.3407V49.1444C14.1152 55.7287 19.4701 61.0851 26.0525 61.0851H49.8784C56.4608 61.0851 61.8157 55.7287 61.8157 49.1444V27.3407C61.8157 20.7564 56.4608 15.3999 49.8784 15.3999ZM18.3263 27.3407C18.3263 23.0798 21.7928 19.6122 26.0525 19.6122H49.8784C54.1381 19.6122 57.6046 23.0798 57.6046 27.3407V49.1444C57.6046 53.4053 54.1381 56.8728 49.8784 56.8728H26.0525C21.7928 56.8728 18.3263 53.4053 18.3263 49.1444V27.3407Z" fill="white"/>
<path d="M37.967 49.3469C44.088 49.3469 49.0706 44.3655 49.0706 38.24C49.0706 32.1144 44.0907 27.1331 37.967 27.1331C31.8432 27.1331 26.8633 32.1144 26.8633 38.24C26.8633 44.3655 31.8432 49.3469 37.967 49.3469ZM37.967 31.3481C41.768 31.3481 44.8595 34.4405 44.8595 38.2427C44.8595 42.0448 41.768 45.1373 37.967 45.1373C34.1659 45.1373 31.0744 42.0448 31.0744 38.2427C31.0744 34.4405 34.1659 31.3481 37.967 31.3481Z" fill="white"/>
<path d="M50.0972 28.9266C51.7455 28.9266 53.0889 27.5855 53.0889 25.934C53.0889 24.2826 51.7482 22.9414 50.0972 22.9414C48.4462 22.9414 47.1055 24.2826 47.1055 25.934C47.1055 27.5855 48.4462 28.9266 50.0972 28.9266Z" fill="white"/>
<defs>
<linearGradient id="paint0_linear_268_4470" x1="11.2493" y1="65.7507" x2="65.7507" y2="11.252" gradientUnits="userSpaceOnUse">
<stop stop-color="#FAAD4F"/>
<stop offset="0.35" stop-color="#DD2A7B"/>
<stop offset="0.62" stop-color="#9537B0"/>
<stop offset="1" stop-color="#515BD4"/>
</linearGradient>
</defs>
</svg>
