<svg width="77" height="77" viewBox="0 0 77 77" fill="none" xmlns="http://www.w3.org/2000/svg">
<g clip-path="url(#clip0_268_4488)">
<rect width="77" height="77" rx="16" fill="url(#paint0_linear_268_4488)"/>
<g clip-path="url(#clip1_268_4488)">
<rect width="77" height="77" rx="14.4941" fill="url(#paint1_linear_268_4488)"/>
<g clip-path="url(#clip2_268_4488)">
<rect width="77" height="77" rx="14.4941" fill="#1877F2"/>
<g clip-path="url(#clip3_268_4488)">
<rect width="77" height="77" rx="16" fill="#1C1C1B"/>
<rect width="77" height="77" rx="16" fill="#0A66C2"/>
<g clip-path="url(#clip4_268_4488)">
<path d="M16.6836 22.6749C16.6836 21.2297 17.1894 20.0374 18.201 19.098C19.2127 18.1586 20.5278 17.689 22.1464 17.689C23.7362 17.689 25.0224 18.1514 26.0051 19.0764C27.0167 20.0302 27.5226 21.273 27.5226 22.805C27.5226 24.1923 27.0312 25.3485 26.0485 26.2734C25.0368 27.2273 23.7072 27.7042 22.0597 27.7042H22.0164C20.4266 27.7042 19.1404 27.2273 18.1577 26.2734C17.1749 25.3196 16.6836 24.1201 16.6836 22.6749ZM17.2472 60.6113V31.6495H26.8722V60.6113H17.2472ZM32.205 60.6113H41.83V44.4395C41.83 43.4279 41.9456 42.6475 42.1768 42.0983C42.5815 41.1156 43.1957 40.2846 44.0195 39.6053C44.8432 38.9261 45.8765 38.5865 47.1194 38.5865C50.3567 38.5865 51.9753 40.7687 51.9753 45.1332V60.6113H61.6003V44.006C61.6003 39.7282 60.5886 36.4837 58.5653 34.2726C56.5421 32.0614 53.8685 30.9559 50.5445 30.9559C46.8159 30.9559 43.9111 32.56 41.83 35.7684V35.8551H41.7866L41.83 35.7684V31.6495H32.205C32.2628 32.5745 32.2917 35.4504 32.2917 40.2774C32.2917 45.1043 32.2628 51.8822 32.205 60.6113Z" fill="white"/>
</g>
</g>
</g>
</g>
</g>
<defs>
<linearGradient id="paint0_linear_268_4488" x1="11.2493" y1="65.7507" x2="65.7507" y2="11.252" gradientUnits="userSpaceOnUse">
<stop stop-color="#FAAD4F"/>
<stop offset="0.35" stop-color="#DD2A7B"/>
<stop offset="0.62" stop-color="#9537B0"/>
<stop offset="1" stop-color="#515BD4"/>
</linearGradient>
<linearGradient id="paint1_linear_268_4488" x1="11.2493" y1="65.7507" x2="65.7507" y2="11.252" gradientUnits="userSpaceOnUse">
<stop stop-color="#FAAD4F"/>
<stop offset="0.35" stop-color="#DD2A7B"/>
<stop offset="0.62" stop-color="#9537B0"/>
<stop offset="1" stop-color="#515BD4"/>
</linearGradient>
<clipPath id="clip0_268_4488">
<rect width="77" height="77" rx="16" fill="white"/>
</clipPath>
<clipPath id="clip1_268_4488">
<rect width="77" height="77" rx="14.4941" fill="white"/>
</clipPath>
<clipPath id="clip2_268_4488">
<rect width="77" height="77" rx="14.4941" fill="white"/>
</clipPath>
<clipPath id="clip3_268_4488">
<rect width="77" height="77" rx="16" fill="white"/>
</clipPath>
<clipPath id="clip4_268_4488">
<rect x="16.6836" y="16.6836" width="44.9167" height="44.9167" fill="white"/>
</clipPath>
</defs>
</svg>
