<svg width="77" height="77" viewBox="0 0 77 77" fill="none" xmlns="http://www.w3.org/2000/svg">
<g clip-path="url(#clip0_268_4479)">
<rect width="77" height="77" rx="16" fill="url(#paint0_linear_268_4479)"/>
<g clip-path="url(#clip1_268_4479)">
<rect width="77" height="77" rx="14.4941" fill="url(#paint1_linear_268_4479)"/>
<g clip-path="url(#clip2_268_4479)">
<rect width="77" height="77" rx="14.4941" fill="#1877F2"/>
<rect width="77" height="77" rx="16" fill="#1C1C1B"/>
<path d="M50.9598 36.2397C57.8629 39.1458 61.2592 46.1023 59.0067 53.3015C57.4718 58.2153 53.099 62.1846 48.4133 63.9791C42.5056 66.2484 34.5719 66.1027 28.7451 63.6849C16.927 58.7874 14.17 45.1875 15.3435 33.8732C16.1609 25.9534 19.4573 18.2333 26.7354 14.264C32.2196 11.2607 39.2388 10.8344 45.2436 12.0918C51.4777 13.3978 56.5384 17.0865 59.6056 22.6722C60.5524 24.3857 61.3185 26.2799 61.8904 28.3874C61.9066 28.4683 61.8742 28.552 61.7933 28.5681L57.4529 29.7123C57.372 29.7285 57.2883 29.6799 57.2721 29.6151C56.6193 27.1326 55.5915 24.928 54.1699 23.0041C49.7297 16.9624 41.5857 15.3461 34.5665 16.6035C26.2903 18.0903 21.7206 23.9026 20.3826 31.8845C19.29 38.366 19.6327 45.8756 22.6189 51.8525C25.133 56.8823 29.6866 59.7048 35.1708 60.49C38.1246 60.8975 41.0138 60.8489 43.8382 60.3254C47.8873 59.5753 52.2276 56.8958 53.9892 53.0587C55.133 50.5762 55.2463 47.4272 53.9892 44.9608C53.2716 43.5577 52.1926 42.4298 50.7737 41.5825C50.7089 41.5339 50.6091 41.5663 50.5767 41.631C50.5606 41.6472 50.5605 41.6634 50.5605 41.6796C50.396 42.8885 50.1209 44.0785 49.7108 45.2388C49.1228 46.8875 48.2757 48.3095 47.1481 49.4671C43.3607 53.369 36.7678 53.7117 32.3114 50.9027C28.7533 48.6495 27.4152 44.0461 29.112 40.2575C30.8735 36.3395 35.1843 34.6422 39.2792 34.4452C41.5964 34.3319 43.7357 34.429 45.7103 34.707C45.7912 34.7232 45.8559 34.6584 45.8748 34.5774V34.5289C45.6941 33.6303 45.4837 32.8964 45.222 32.3243C43.8516 29.3048 40.7656 28.5034 37.6823 28.8947C35.7076 29.1402 34.1565 30.0711 32.9965 31.6713C32.948 31.736 32.867 31.7522 32.7996 31.7037L29.112 29.1888C29.0473 29.1402 29.0311 29.0592 29.0797 28.9756C31.0543 26.199 33.7303 24.5826 37.1265 24.1428C39.9347 23.7677 43.0829 24.2076 45.5323 25.6944C49.2037 27.9475 50.5093 31.9978 50.8357 36.0939C50.8681 36.1749 50.9004 36.2235 50.949 36.2397H50.9598ZM33.3472 42.6402C32.6135 45.1065 34.3103 47.0494 36.6113 47.6349C39.843 48.4525 43.4335 47.7321 44.9685 44.4185C45.5727 43.1124 45.9315 41.5771 46.0448 39.8312C46.0448 39.7502 45.9963 39.6855 45.9315 39.6855C43.5333 39.2133 41.0677 39.1134 38.5536 39.359C36.5142 39.5722 33.9838 40.5031 33.3472 42.6402Z" fill="white"/>
</g>
</g>
</g>
<defs>
<linearGradient id="paint0_linear_268_4479" x1="11.2493" y1="65.7507" x2="65.7507" y2="11.252" gradientUnits="userSpaceOnUse">
<stop stop-color="#FAAD4F"/>
<stop offset="0.35" stop-color="#DD2A7B"/>
<stop offset="0.62" stop-color="#9537B0"/>
<stop offset="1" stop-color="#515BD4"/>
</linearGradient>
<linearGradient id="paint1_linear_268_4479" x1="11.2493" y1="65.7507" x2="65.7507" y2="11.252" gradientUnits="userSpaceOnUse">
<stop stop-color="#FAAD4F"/>
<stop offset="0.35" stop-color="#DD2A7B"/>
<stop offset="0.62" stop-color="#9537B0"/>
<stop offset="1" stop-color="#515BD4"/>
</linearGradient>
<clipPath id="clip0_268_4479">
<rect width="77" height="77" rx="16" fill="white"/>
</clipPath>
<clipPath id="clip1_268_4479">
<rect width="77" height="77" rx="14.4941" fill="white"/>
</clipPath>
<clipPath id="clip2_268_4479">
<rect width="77" height="77" rx="14.4941" fill="white"/>
</clipPath>
</defs>
</svg>
