<svg width="77" height="77" viewBox="0 0 77 77" fill="none" xmlns="http://www.w3.org/2000/svg">
<g clip-path="url(#clip0_268_4499)">
<rect width="77" height="77" rx="16" fill="url(#paint0_linear_268_4499)"/>
<g clip-path="url(#clip1_268_4499)">
<rect width="77" height="77" rx="14.4941" fill="url(#paint1_linear_268_4499)"/>
<g clip-path="url(#clip2_268_4499)">
<rect width="77" height="77" rx="14.4941" fill="#1877F2"/>
<g clip-path="url(#clip3_268_4499)">
<rect width="77" height="77" rx="16" fill="#1C1C1B"/>
<g clip-path="url(#clip4_268_4499)">
<rect width="77" height="77" rx="16" fill="#0A66C2"/>
<rect width="77" height="77" rx="16" fill="black"/>
<path d="M48.9808 31.2573C52.0343 33.4478 55.7749 34.7367 59.815 34.7367V26.9346C59.0504 26.9348 58.2878 26.8548 57.5397 26.6957V32.837C53.5 32.837 49.7598 31.5482 46.7055 29.3578V45.2795C46.7055 53.2444 40.2717 59.7007 32.3356 59.7007C29.3745 59.7007 26.6222 58.8023 24.3359 57.2615C26.9454 59.9391 30.5844 61.6002 34.6104 61.6002C42.5469 61.6002 48.9811 55.1439 48.9811 47.1787V31.2573H48.9808ZM51.7876 23.386C50.2271 21.6751 49.2025 19.464 48.9808 17.0196V16.0161H46.8246C47.3674 19.123 49.2185 21.7772 51.7876 23.386ZM29.3555 51.1495C28.4836 50.0023 28.0125 48.5989 28.0146 47.1559C28.0146 43.5131 30.9574 40.5594 34.588 40.5594C35.2646 40.5592 35.9372 40.6632 36.582 40.8685V32.8921C35.8284 32.7885 35.0679 32.7445 34.3077 32.7606V38.9691C33.6624 38.7637 32.9895 38.6594 32.3127 38.6601C28.6821 38.6601 25.7395 41.6134 25.7395 45.2567C25.7395 47.8328 27.2104 50.0631 29.3555 51.1495Z" fill="#FF004F"/>
<path d="M46.7054 29.3577C49.7597 31.548 53.4999 32.8369 57.5396 32.8369V26.6956C55.2847 26.2135 53.2884 25.0309 51.7875 23.386C49.2183 21.7771 47.3673 19.1228 46.8245 16.0161H41.161V47.1784C41.1482 50.8112 38.2104 53.7528 34.5876 53.7528C32.4527 53.7528 30.5561 52.7316 29.3549 51.1495C27.21 50.0631 25.7391 47.8326 25.7391 45.2569C25.7391 41.6139 28.6817 38.6603 32.3123 38.6603C33.0079 38.6603 33.6784 38.769 34.3073 38.9692V32.7608C26.5106 32.9224 20.2402 39.3157 20.2402 47.1785C20.2402 51.1036 21.8017 54.6618 24.336 57.2617C26.6223 58.8023 29.3745 59.7009 32.3357 59.7009C40.2719 59.7009 46.7056 53.2442 46.7056 45.2795V29.3577H46.7054Z" fill="white"/>
<path d="M57.5413 26.6954V25.0349C55.5079 25.038 53.5143 24.4665 51.7891 23.3857C53.3163 25.0637 55.3274 26.2207 57.5413 26.6954ZM46.8262 16.016C46.7744 15.7191 46.7347 15.4202 46.7071 15.1202V14.1167H38.8872V45.2793C38.8747 48.9117 35.9371 51.8532 32.314 51.8532C31.2503 51.8532 30.246 51.5998 29.3566 51.1496C30.5577 52.7314 32.4544 53.7525 34.5892 53.7525C38.2117 53.7525 41.15 50.8113 41.1626 47.1784V16.016H46.8262ZM34.3093 32.7607V30.9929C33.6558 30.9032 32.9971 30.8583 32.3375 30.8586C24.4006 30.8584 17.9668 37.3151 17.9668 45.2793C17.9668 50.2724 20.4954 54.6728 24.3378 57.2612C21.8035 54.6615 20.2421 51.1031 20.2421 47.1782C20.2421 39.3156 26.5123 32.9223 34.3093 32.7607Z" fill="#00F2EA"/>
</g>
</g>
</g>
</g>
</g>
<defs>
<linearGradient id="paint0_linear_268_4499" x1="11.2493" y1="65.7507" x2="65.7507" y2="11.252" gradientUnits="userSpaceOnUse">
<stop stop-color="#FAAD4F"/>
<stop offset="0.35" stop-color="#DD2A7B"/>
<stop offset="0.62" stop-color="#9537B0"/>
<stop offset="1" stop-color="#515BD4"/>
</linearGradient>
<linearGradient id="paint1_linear_268_4499" x1="11.2493" y1="65.7507" x2="65.7507" y2="11.252" gradientUnits="userSpaceOnUse">
<stop stop-color="#FAAD4F"/>
<stop offset="0.35" stop-color="#DD2A7B"/>
<stop offset="0.62" stop-color="#9537B0"/>
<stop offset="1" stop-color="#515BD4"/>
</linearGradient>
<clipPath id="clip0_268_4499">
<rect width="77" height="77" rx="16" fill="white"/>
</clipPath>
<clipPath id="clip1_268_4499">
<rect width="77" height="77" rx="14.4941" fill="white"/>
</clipPath>
<clipPath id="clip2_268_4499">
<rect width="77" height="77" rx="14.4941" fill="white"/>
</clipPath>
<clipPath id="clip3_268_4499">
<rect width="77" height="77" rx="16" fill="white"/>
</clipPath>
<clipPath id="clip4_268_4499">
<rect width="77" height="77" rx="16" fill="white"/>
</clipPath>
</defs>
</svg>
