<svg width="77" height="77" viewBox="0 0 77 77" fill="none" xmlns="http://www.w3.org/2000/svg">
<g clip-path="url(#clip0_268_4513)">
<rect width="77" height="77" rx="16" fill="url(#paint0_linear_268_4513)"/>
<g clip-path="url(#clip1_268_4513)">
<rect width="77" height="77" rx="14.4941" fill="url(#paint1_linear_268_4513)"/>
<g clip-path="url(#clip2_268_4513)">
<rect width="77" height="77" rx="14.4941" fill="#1877F2"/>
<g clip-path="url(#clip3_268_4513)">
<rect width="77" height="77" rx="16" fill="#1C1C1B"/>
<g clip-path="url(#clip4_268_4513)">
<rect width="77" height="77" rx="16" fill="#0A66C2"/>
<g clip-path="url(#clip5_268_4513)">
<rect width="77" height="77" rx="16" fill="black"/>
<rect width="77" height="77" rx="16" fill="#FF0000"/>
<path d="M60.2793 28.1202C59.7509 26.1575 58.2033 24.6099 56.2406 24.0815C52.6548 23.1001 38.3117 23.1001 38.3117 23.1001C38.3117 23.1001 23.9685 23.1001 20.3827 24.0437C18.4577 24.5722 16.8724 26.1575 16.344 28.1202C15.4004 31.706 15.4004 39.1418 15.4004 39.1418C15.4004 39.1418 15.4004 46.6153 16.344 50.1633C16.8724 52.1261 18.42 53.6736 20.3827 54.2021C24.0063 55.1834 38.3117 55.1834 38.3117 55.1834C38.3117 55.1834 52.6548 55.1834 56.2406 54.2398C58.2033 53.7114 59.7509 52.1638 60.2793 50.2011C61.2229 46.6153 61.2229 39.1795 61.2229 39.1795C61.2229 39.1795 61.2607 31.706 60.2793 28.1202Z" fill="white"/>
<path d="M33.7441 46.0114L45.6716 39.1418L33.7441 32.2722V46.0114Z" fill="#FF0000"/>
</g>
</g>
</g>
</g>
</g>
</g>
<defs>
<linearGradient id="paint0_linear_268_4513" x1="11.2493" y1="65.7507" x2="65.7507" y2="11.252" gradientUnits="userSpaceOnUse">
<stop stop-color="#FAAD4F"/>
<stop offset="0.35" stop-color="#DD2A7B"/>
<stop offset="0.62" stop-color="#9537B0"/>
<stop offset="1" stop-color="#515BD4"/>
</linearGradient>
<linearGradient id="paint1_linear_268_4513" x1="11.2493" y1="65.7507" x2="65.7507" y2="11.252" gradientUnits="userSpaceOnUse">
<stop stop-color="#FAAD4F"/>
<stop offset="0.35" stop-color="#DD2A7B"/>
<stop offset="0.62" stop-color="#9537B0"/>
<stop offset="1" stop-color="#515BD4"/>
</linearGradient>
<clipPath id="clip0_268_4513">
<rect width="77" height="77" rx="16" fill="white"/>
</clipPath>
<clipPath id="clip1_268_4513">
<rect width="77" height="77" rx="14.4941" fill="white"/>
</clipPath>
<clipPath id="clip2_268_4513">
<rect width="77" height="77" rx="14.4941" fill="white"/>
</clipPath>
<clipPath id="clip3_268_4513">
<rect width="77" height="77" rx="16" fill="white"/>
</clipPath>
<clipPath id="clip4_268_4513">
<rect width="77" height="77" rx="16" fill="white"/>
</clipPath>
<clipPath id="clip5_268_4513">
<rect width="77" height="77" rx="16" fill="white"/>
</clipPath>
</defs>
</svg>
