<svg width="540" height="540" viewBox="0 0 540 540" fill="none" xmlns="http://www.w3.org/2000/svg">
<path d="M270 540C419.117 540 540 419.117 540 270C540 120.883 419.117 0 270 0C120.883 0 0 120.883 0 270C0 419.117 120.883 540 270 540Z" fill="white"/>
<path d="M337.846 149.761C255.125 135.693 149.481 169.125 150.087 253.616C55.6014 275.891 47.3941 349.264 69.7116 396.765H466.94C514.445 251.837 420.566 163.87 337.846 149.761Z" fill="#EEF5F9"/>
<path d="M99.6295 259.477C128.144 259.477 151.259 236.364 151.259 207.853C151.259 179.342 128.144 156.229 99.6295 156.229C71.1153 156.229 48 179.342 48 207.853C48 236.364 71.1153 259.477 99.6295 259.477Z" fill="#2D2D2D"/>
<path d="M163.622 180.465C166.315 168.781 159.026 157.126 147.341 154.433C135.656 151.741 124 159.029 121.307 170.713C118.614 182.397 125.903 194.051 137.588 196.744C149.273 199.437 160.929 192.148 163.622 180.465Z" fill="#EF6238"/>
<path d="M500.685 304.413C511.232 293.867 511.232 276.769 500.685 266.223C490.138 255.677 473.038 255.677 462.492 266.223C451.945 276.769 451.945 293.867 462.491 304.413C473.038 314.959 490.138 314.959 500.685 304.413Z" fill="#2D2D2D"/>
<path d="M57.911 226.124H55.849C55.7277 226.124 55.6064 226.003 55.6064 225.881V225.558C55.6064 225.437 55.7277 225.315 55.849 225.315H57.911C58.0323 225.315 58.1536 225.437 58.1536 225.558V225.881C58.1536 226.003 58.0323 226.124 57.911 226.124Z" fill="#A9C5E8"/>
<path d="M61.3495 226.124H59.2875C59.1662 226.124 59.0449 226.003 59.0449 225.881V225.558C59.0449 225.437 59.1662 225.315 59.2875 225.315H61.3495C61.4707 225.315 61.592 225.437 61.592 225.558V225.881C61.592 226.003 61.4707 226.124 61.3495 226.124Z" fill="#A9C5E8"/>
<path d="M58.1914 225.034V222.972C58.1914 222.851 58.3127 222.729 58.434 222.729H58.7574C58.8787 222.729 59 222.851 59 222.972V225.034C59 225.155 58.8787 225.276 58.7574 225.276H58.434C58.3127 225.276 58.1914 225.155 58.1914 225.034Z" fill="#A9C5E8"/>
<path d="M58.1914 228.469V226.408C58.1914 226.286 58.3127 226.165 58.434 226.165H58.7574C58.8787 226.165 59 226.286 59 226.408V228.469C59 228.591 58.8787 228.712 58.7574 228.712H58.434C58.3127 228.712 58.1914 228.591 58.1914 228.469Z" fill="#A9C5E8"/>
<path d="M183.144 377.111C203.148 357.108 203.148 324.678 183.144 304.675C163.139 284.673 130.705 284.673 110.701 304.675C90.6963 324.678 90.6963 357.108 110.701 377.111C130.705 397.113 163.139 397.113 183.144 377.111Z" fill="#EF6238"/>
<path d="M175.554 377.127C195.558 357.125 195.558 324.694 175.554 304.692C155.549 284.69 123.116 284.69 103.111 304.692C83.1065 324.694 83.1065 357.125 103.111 377.127C123.116 397.13 155.549 397.13 175.554 377.127Z" fill="#EF6238"/>
<path d="M139.334 376.51C159.006 376.51 174.953 360.564 174.953 340.894C174.953 321.224 159.006 305.279 139.334 305.279C119.662 305.279 103.715 321.224 103.715 340.894C103.715 360.564 119.662 376.51 139.334 376.51Z" fill="white"/>
<path d="M157.504 348.697C161.809 338.663 157.165 327.04 147.13 322.735C137.096 318.43 125.471 323.074 121.166 333.107C116.86 343.141 121.505 354.764 131.539 359.069C141.574 363.374 153.198 358.73 157.504 348.697Z" fill="#EF6238"/>
<path d="M139.171 338.509C139.535 338.509 139.859 338.388 140.142 338.105C140.667 337.58 140.667 336.69 140.142 336.165L74.4423 270.836C73.9167 270.311 73.0272 270.311 72.5016 270.836C71.976 271.362 71.976 272.251 72.5016 272.777L138.201 338.105C138.443 338.388 138.807 338.509 139.171 338.509Z" fill="#2C303C"/>
<path d="M74.4365 270.837V261.458L88.5467 275.567V284.663L74.4365 270.837Z" fill="#2C313C"/>
<path d="M72.9873 273.383L63.6074 273.464L77.8793 287.451L86.9357 287.37L72.9873 273.383Z" fill="#2C313C"/>
<path d="M76.543 276.94L63.3223 277.102L69.5081 283.044L82.4458 282.842L76.543 276.94Z" fill="#2C303C"/>
<path d="M384.095 208.216H337.762V391.71H384.095V208.216Z" fill="#EF6238"/>
<path d="M374.597 306.693H347.307V375.094H374.597V306.693Z" fill="white"/>
<path d="M366.805 249.863C374.624 246.625 378.337 237.662 375.098 229.844C371.859 222.026 362.896 218.314 355.077 221.552C347.258 224.79 343.545 233.753 346.784 241.571C350.023 249.389 358.987 253.101 366.805 249.863Z" fill="white"/>
<path d="M366.739 241.517C369.945 238.312 369.945 233.116 366.739 229.911C363.534 226.706 358.338 226.706 355.133 229.911C351.927 233.116 351.927 238.312 355.133 241.517C358.338 244.722 363.534 244.722 366.739 241.517Z" fill="#EF6238"/>
<path d="M426.339 222.103L385.205 228.863L411.967 391.665L453.101 384.904L426.339 222.103Z" fill="#2C313C"/>
<path d="M432.257 310.857L408.04 314.837L418.014 375.514L442.232 371.534L432.257 310.857Z" fill="white"/>
<path d="M415.97 262.126C422.766 258.693 425.493 250.402 422.061 243.606C418.628 236.811 410.336 234.084 403.539 237.516C396.743 240.948 394.016 249.24 397.448 256.035C400.881 262.831 409.173 265.558 415.97 262.126Z" fill="white"/>
<path d="M409.775 257.212C413.861 257.212 417.173 253.9 417.173 249.814C417.173 245.728 413.861 242.416 409.775 242.416C405.689 242.416 402.376 245.728 402.376 249.814C402.376 253.9 405.689 257.212 409.775 257.212Z" fill="#2C313C"/>
<path d="M315 391.752H165.731C163.427 391.752 161.526 389.892 161.526 387.547V166.457C161.526 164.152 163.386 162.252 165.731 162.252H314.959C317.264 162.252 319.164 164.112 319.164 166.457V387.547C319.164 389.852 317.304 391.752 315 391.752Z" fill="#2B303B"/>
<path d="M320.987 391.752H171.758C169.454 391.752 167.554 389.892 167.554 387.547V166.457C167.554 164.152 169.414 162.252 171.758 162.252H320.987C323.291 162.252 325.192 164.112 325.192 166.457V387.547C325.192 389.852 323.291 391.752 320.987 391.752Z" fill="#3F434D"/>
<path d="M316.663 339.724V175.311H176.652V339.724C176.652 357.35 190.965 371.661 208.592 371.661H292.283C274.615 371.661 316.663 357.35 316.663 339.724Z" fill="white"/>
<rect x="176.655" y="267.334" width="140.293" height="104.704" fill="white"/>
<path d="M213.556 350.757H192.047C189.622 350.757 187.681 348.816 187.681 346.391L185.942 323.146C185.942 321.084 187.64 319.386 189.702 319.386H211.818C214.244 319.386 216.184 321.327 216.184 323.752L217.357 346.997C217.316 349.059 215.618 350.757 213.556 350.757Z" fill="#EF6238"/>
<path d="M201.996 342.712C201.552 342.712 201.147 342.51 200.905 342.105L193.668 331.19C193.263 330.584 193.425 329.775 194.032 329.371C194.638 328.967 195.447 329.129 195.851 329.735L201.956 338.952L211.538 323.792C211.942 323.186 212.751 322.984 213.357 323.388C213.964 323.792 214.166 324.601 213.762 325.207L203.088 342.065C202.886 342.469 202.482 342.712 201.996 342.712Z" fill="white"/>
<path d="M258.686 333.337H227.231C226.099 333.337 225.169 332.407 225.169 331.275V329.011C225.169 327.879 226.099 326.95 227.231 326.95H258.686C259.818 326.95 260.748 327.879 260.748 329.011V331.275C260.748 332.407 259.818 333.337 258.686 333.337Z" fill="#EF6238"/>
<path d="M294.264 345.547H227.231C226.099 345.547 225.169 344.617 225.169 343.485V341.221C225.169 340.089 226.099 339.159 227.231 339.159H294.305C295.437 339.159 296.367 340.089 296.367 341.221V343.485C296.326 344.617 295.437 345.547 294.264 345.547Z" fill="#EF6238"/>
<path d="M214.895 233.404H188.332C186.998 233.404 185.906 232.313 185.906 230.979V204.419C185.906 203.085 186.998 201.993 188.332 201.993H214.895C216.229 201.993 217.321 203.085 217.321 204.419V230.979C217.321 232.313 216.229 233.404 214.895 233.404Z" fill="#EF6238"/>
<path d="M200.5 227.42C200.056 227.42 199.651 227.218 199.409 226.814L192.172 215.899C191.767 215.292 191.929 214.484 192.536 214.08C193.142 213.675 193.951 213.837 194.355 214.443L200.46 223.661L210.042 208.501C210.446 207.894 211.255 207.692 211.861 208.097C212.468 208.501 212.67 209.309 212.266 209.916L201.632 226.773C201.39 227.178 200.985 227.38 200.5 227.42C200.541 227.42 200.5 227.42 200.5 227.42Z" fill="white"/>
<path d="M258.686 215.98H227.231C226.099 215.98 225.169 215.05 225.169 213.918V211.654C225.169 210.522 226.099 209.592 227.231 209.592H258.686C259.818 209.592 260.748 210.522 260.748 211.654V213.918C260.748 215.05 259.818 215.98 258.686 215.98Z" fill="#EF6238"/>
<path d="M294.264 228.186H227.231C226.099 228.186 225.169 227.256 225.169 226.124V223.86C225.169 222.728 226.099 221.798 227.231 221.798H294.305C295.437 221.798 296.367 222.728 296.367 223.86V226.124C296.326 227.256 295.437 228.186 294.264 228.186Z" fill="#EF6238"/>
<path d="M258.686 274.639H227.231C226.099 274.639 225.169 273.709 225.169 272.578V270.314C225.169 269.182 226.099 268.252 227.231 268.252H258.686C259.818 268.252 260.748 269.182 260.748 270.314V272.578C260.748 273.75 259.818 274.639 258.686 274.639Z" fill="#EF6238"/>
<path d="M294.264 286.845H227.231C226.099 286.845 225.169 285.916 225.169 284.784V282.52C225.169 281.388 226.099 280.458 227.231 280.458H294.305C295.437 280.458 296.367 281.388 296.367 282.52V284.784C296.326 285.916 295.437 286.845 294.264 286.845Z" fill="#EF6238"/>
<path d="M214.896 289.434H188.333C186.999 289.434 185.907 288.342 185.907 287.008V260.448C185.907 259.114 186.999 258.022 188.333 258.022H214.896C216.23 258.022 217.322 259.114 217.322 260.448V287.008C217.322 288.342 216.23 289.434 214.896 289.434Z" fill="#EF6238"/>
<path d="M200.5 283.408C200.056 283.408 199.651 283.206 199.409 282.802L192.172 271.887C191.767 271.28 191.929 270.472 192.536 270.067C193.142 269.663 193.951 269.825 194.355 270.431L200.46 279.648L210.042 264.489C210.446 263.882 211.255 263.68 211.861 264.084C212.468 264.489 212.67 265.297 212.266 265.904L201.632 282.802C201.39 283.166 200.985 283.408 200.5 283.408C200.541 283.408 200.5 283.408 200.5 283.408Z" fill="white"/>
<path d="M336.999 139.254C336.999 120.893 322.104 106 303.741 106C285.378 106 270.483 120.893 270.483 139.254C270.483 155.215 281.732 168.508 296.716 171.753L303.297 188.158L310.411 171.842C325.617 168.686 336.999 155.304 336.999 139.254Z" fill="#EF6238"/>
<path d="M302.502 157.348C301.657 157.348 300.902 156.948 300.457 156.237L286.94 135.875C286.184 134.719 286.496 133.208 287.652 132.452C288.808 131.696 290.319 132.008 291.075 133.163L302.502 150.369L320.421 122.049C321.132 120.893 322.688 120.537 323.844 121.293C325 122.049 325.356 123.561 324.6 124.716L304.547 156.193C304.103 156.904 303.347 157.348 302.502 157.348Z" fill="white"/>
<path d="M471.266 407.639H65.3458C62.5561 407.639 60.292 405.376 60.292 402.586V396.805C60.292 394.016 62.5561 391.752 65.3458 391.752H471.266C474.056 391.752 476.32 394.016 476.32 396.805V402.546C476.32 405.376 474.056 407.639 471.266 407.639Z" fill="#D5DBDF"/>
</svg>
