<svg width="540" height="540" viewBox="0 0 540 540" fill="none" xmlns="http://www.w3.org/2000/svg">
<path d="M270 540C419.117 540 540 419.117 540 270C540 120.883 419.117 0 270 0C120.883 0 0 120.883 0 270C0 419.117 120.883 540 270 540Z" fill="white"/>
<g clip-path="url(#clip0_0_1)">
<path d="M430.635 425.632C460.977 391.421 479.268 347.258 479.268 299.023C479.268 190.475 386.649 102.468 272.353 102.468C158.057 102.468 65.4375 190.475 65.4375 299.023C65.4375 347.258 83.7289 391.421 114.071 425.632H430.635Z" fill="#DAE9F2" fill-opacity="0.45"/>
<mask id="mask0_0_1" style="mask-type:alpha" maskUnits="userSpaceOnUse" x="65" y="102" width="415" height="323">
<path d="M430.592 424.5C460.941 390.409 479.237 346.401 479.237 298.334C479.237 190.167 386.595 102.468 272.27 102.468C157.944 102.468 65.3018 190.167 65.3018 298.334C65.3018 346.401 83.5978 390.409 113.947 424.5H430.592Z" fill="#DDE9F3"/>
</mask>
<g mask="url(#mask0_0_1)">
<path d="M173.734 262.706C169.815 261.683 165.333 258.436 166.329 254.307C160.352 256.107 156.268 245.025 150.158 246.331C148.996 246.578 147.834 247.284 146.671 246.931C144.347 246.225 143.749 241.673 141.093 242.979C140.794 243.12 140.528 243.367 140.296 243.649C138.171 246.367 134.651 248.343 131.397 247.355C128.375 246.437 126.35 242.237 128.209 239.52C125.852 239.308 123.029 238.814 122.1 236.485C121.469 234.932 121.967 233.132 121.568 231.509C121.17 229.886 118.812 228.721 118.148 230.238C117.285 233.168 113.367 234.226 111.009 232.427C108.651 230.662 108.087 226.921 109.316 224.168C110.544 221.38 113.234 219.58 116.056 218.91C121.601 217.639 127.778 220.78 130.301 226.18C130.932 222.757 131.596 219.298 132.227 215.875C133.057 211.534 133.887 207.087 135.846 203.17C138.171 204.758 141.823 202.817 141.989 199.888C144.38 200.664 147.103 200.135 149.062 198.512C148.464 195.794 148.597 192.865 149.461 190.218L145.111 188.701C148 183.795 156.467 185.207 157.795 190.818L165.1 190.536C164.004 185.03 161.049 179.948 156.899 176.455C155.77 175.537 154.574 174.655 153.81 173.349C152.25 170.596 153.18 166.326 150.656 164.526C148.597 167.561 144.845 169.149 141.392 168.408C140.86 165.797 139.034 163.22 136.378 163.115C134.85 163.044 133.422 163.997 132.891 165.514C132.194 167.526 133.655 168.832 134.087 170.49C135.249 175.043 128.541 180.16 131.596 183.583C130.002 186.124 126.151 183.654 125.354 180.725C124.557 177.831 124.856 174.337 122.863 172.184C120.472 169.608 115.824 170.314 114.429 166.397C113.665 164.209 114.429 161.773 116.156 160.327C119.609 157.397 124.059 158.491 127.744 160.327C125.619 156.092 126.449 150.41 129.67 147.057C128.707 145.61 127.379 144.445 125.885 143.704C125.055 146.528 123.129 148.963 120.672 150.304L119.476 145.61C118.381 147.375 115.492 146.704 114.562 144.834C113.665 142.928 114.263 140.599 115.292 138.799C116.355 136.999 117.783 135.481 118.779 133.611C114.429 130.717 108.685 136.47 109.05 141.904C109.249 145.01 110.743 147.975 113.035 149.916C104.932 147.904 96.4319 145.928 88.4295 148.222C85.8395 148.963 83.0502 150.127 80.5931 148.998C78.2687 147.904 77.1065 145.045 74.9482 143.563C71.196 140.987 66.348 143.493 61.9982 144.587C51.4057 147.304 40.5476 141.022 29.6231 141.446C26.7343 141.552 23.613 142.328 21.8863 144.763C20.3589 146.916 20.8569 150.621 22.9821 151.786C19.2631 150.727 14.9464 152.315 12.7549 155.739L24.1775 157.821C21.1226 159.832 19.0971 163.503 18.8646 167.314C20.9898 168.691 22.7828 170.632 24.0114 172.961L17.4036 179.137C23.3141 179.948 29.5567 177.584 33.6409 172.925C35.3344 170.984 36.6958 168.655 38.6881 167.032C44.2666 162.479 56.0876 166.679 60.7364 171.126C67.7759 177.866 70.0006 189.583 78.2687 194.453C74.3505 198.9 72.5242 204.37 74.1512 208.323C75.2802 211.075 78.0695 213.016 79.8958 214.252C82.0209 215.698 84.0132 216.545 85.4078 217.004C92.7794 223.004 97.4945 228.509 100.583 232.709C102.542 235.356 105.132 239.944 110.245 241.214C112.37 241.743 114.628 241.39 116.753 242.026C122.83 243.79 126.35 252.895 132.592 251.978C133.09 257.448 131.098 263.13 127.346 266.941C131.463 270.294 130.401 277.458 133.655 281.764C135.481 284.163 138.403 285.328 140.263 287.657C144.779 293.233 141.325 301.597 139.433 308.656C137.175 317.055 137.44 325.948 137.706 334.701C137.839 339.218 138.237 344.264 141.392 347.264C143.616 349.382 148.431 348.711 148.099 345.57C147.867 343.029 144.347 341.865 144.247 339.324C144.214 338.477 144.579 337.7 144.945 336.959C147.667 331.277 150.424 325.49 154.574 320.866C155.969 319.314 157.563 317.831 158.326 315.855C159.09 313.879 158.692 311.161 156.865 310.208C159.522 308.409 163.075 310.702 166.163 309.926C171.476 308.585 171.276 300.045 175.361 296.198C177.054 294.574 179.478 293.833 180.773 291.857C181.57 290.692 181.869 289.245 182.134 287.834C182.865 284.128 183.596 280.387 184.326 276.682C184.891 273.894 185.389 270.823 184.16 268.282C182.334 264.471 177.652 263.73 173.734 262.706Z" fill="#D5DBDF"/>
<path d="M155.271 336.852C155.636 337.099 156.001 337.417 156.3 337.734C156.964 337.382 157.628 337.029 158.292 336.676L155.271 336.852Z" fill="#D5DBDF"/>
<path d="M152.313 342.534C152.612 344.052 154.405 344.899 155.767 344.334C157.128 343.77 157.859 342.076 157.693 340.558C157.56 339.499 157.029 338.511 156.331 337.77C156.132 337.876 155.9 337.982 155.7 338.088C153.94 339.005 151.915 340.523 152.313 342.534Z" fill="#D5DBDF"/>
<path d="M144.315 138.798C143.651 138.022 142.423 138.339 141.559 138.869C140.696 139.398 139.833 140.139 138.836 140.033C136.612 139.786 136.645 136.116 134.951 134.563C133.822 133.54 132.162 133.681 130.734 133.187C130.103 132.975 129.473 132.622 128.842 132.763C127.679 133.01 127.347 134.563 127.082 135.763C126.816 136.998 125.92 138.445 124.791 138.022C124.625 136.54 124.459 135.057 124.293 133.54C124.093 131.916 117.286 137.316 121.636 141.198C125.92 145.009 131.133 138.445 133.258 145.398C133.69 146.809 135.051 147.586 136.18 148.433C137.309 149.315 138.338 150.797 137.741 152.138C137.209 153.373 135.682 153.585 134.453 153.973C133.225 154.362 131.93 155.773 132.627 156.903C135.25 158.879 139.733 156.126 141.792 158.738C142.19 159.232 142.423 159.867 142.854 160.326C143.286 160.785 144.116 160.926 144.481 160.396C144.216 161.42 145.743 161.914 146.64 161.455C147.536 160.996 148.433 160.114 149.396 160.396C149.96 156.973 144.315 154.679 145.477 151.468C147.437 151.679 147.935 154.715 149.761 155.526C151.587 156.338 153.413 154.538 154.675 152.915C154.509 151.221 152.65 150.409 151.089 150.021C149.528 149.633 147.669 149.103 147.138 147.48C146.839 146.527 147.104 145.398 146.64 144.515C146.208 143.704 145.245 143.28 144.847 142.433C144.415 141.339 145.112 139.751 144.315 138.798Z" fill="#D5DBDF"/>
<path d="M103.636 132.658C102.308 131.776 100.448 133.328 100.448 134.987C100.448 136.646 101.71 138.057 103.071 138.869L103.404 139.787C105.495 139.893 107.521 138.022 107.72 135.799C107.919 133.575 106.292 131.317 104.234 130.964C103.902 131.423 103.669 132.023 103.636 132.658Z" fill="#D5DBDF"/>
<path d="M76.5765 140.175C78.9341 140.704 81.5905 141.339 82.8191 143.527C83.45 144.657 83.616 146.104 84.5126 147.056C85.9404 148.539 88.2316 147.868 90.1575 147.304C92.4486 146.598 100.484 146.951 100.418 144.021C100.385 142.822 94.4742 136.434 93.6108 135.904C92.3822 135.163 91.1536 136.751 89.8918 137.422C88.4308 138.198 86.5713 137.669 85.3095 136.54C84.0477 135.41 83.2508 133.858 82.4539 132.305C80.1627 132.975 77.6059 132.516 75.6468 131.14C73.8205 132.587 72.2267 134.281 70.832 136.187C71.5625 138.657 74.2522 139.645 76.5765 140.175Z" fill="#D5DBDF"/>
<path d="M80.8281 127.611C82.588 128.67 83.3517 130.646 84.8127 132.093C86.4066 133.646 88.6977 133.893 90.8561 133.964C92.1843 133.999 93.5457 133.964 94.7411 133.47C95.9697 132.94 97.0654 131.846 97.2314 130.47C97.5635 128.035 94.9735 126.129 92.6823 126.235C92.782 125.247 92.6159 124.259 92.1843 123.376C91.1881 124.294 90.9557 126.058 91.7194 127.223C89.9927 126.8 88.2661 126.341 86.5394 125.917C86.0745 125.811 85.6096 125.67 85.3108 125.282C85.0784 124.929 85.0451 124.47 84.8459 124.082C84.3478 123.023 83.0196 122.918 81.8907 122.953C80.7285 122.988 79.4999 123.023 78.4705 123.588C77.408 124.153 76.5778 125.317 76.7439 126.553C77.1755 129.411 79.6991 126.905 80.8281 127.611Z" fill="#D5DBDF"/>
<path d="M98.2259 121.542C98.3587 122.247 99.2552 122.353 99.9193 122.283C101.712 122.142 103.539 122 105.332 121.859C105.597 122.247 105.763 122.706 105.896 123.165C106.394 122.777 106.295 121.894 105.963 121.33C105.597 120.765 105.066 120.342 104.767 119.777C104.468 119.248 104.369 118.577 104.004 118.083C103.672 117.624 103.14 117.412 102.609 117.201C100.982 116.601 97.7942 115.683 96.3332 117.165C94.7061 118.824 97.8606 119.777 98.2259 121.542Z" fill="#D5DBDF"/>
<path d="M109.615 126.588C111.641 128.105 113.7 129.658 116.057 130.505C117.551 131.034 119.079 131.246 120.639 131.423C123.329 131.705 126.152 131.846 128.708 130.964C129.04 130.858 129.406 130.682 129.605 130.364C130.136 129.482 128.974 128.529 128.011 128.493C127.048 128.458 125.952 128.776 125.189 128.176C127.347 126.376 131.066 128.741 133.025 126.694C133.656 126.023 133.888 125.035 134.32 124.153C134.685 123.376 135.25 122.741 135.781 122.07C136.976 120.588 138.271 119.071 139.998 118.435C141.526 117.871 143.285 118.083 144.746 117.271C146.34 116.353 147.17 114.448 148.432 113.036C149.76 111.554 151.62 110.671 153.513 110.566C154.542 110.53 155.771 110.601 156.335 109.683C157.066 108.519 155.903 107.036 154.741 106.436C152.118 105.06 149.063 105.166 146.141 105.307C142.09 105.484 138.039 105.695 133.955 105.978C125.62 106.507 116.92 107.495 109.947 112.401C109.615 112.648 109.25 112.895 109.018 113.283C108.52 114.165 108.951 115.33 109.582 116.106C110.08 116.741 111.94 118.047 111.641 119.035C111.309 120.094 109.416 119.424 109.117 120.765C108.818 122.106 110.213 122.706 109.649 124.082C109.416 124.611 108.619 124.294 108.586 125.176C108.586 125.67 109.25 126.27 109.615 126.588Z" fill="#D5DBDF"/>
<path d="M206.009 137.458C205.81 136.681 205.577 135.869 205.677 135.058C205.942 132.481 209.163 130.929 208.997 128.352C208.898 126.447 206.939 124.823 207.47 123.023C207.669 122.318 208.234 121.788 208.765 121.329C212.417 118.083 216.336 114.765 218.129 110.107C214.875 110.354 211.355 110.53 208.599 108.695C207.47 107.954 206.54 106.931 205.478 106.084C202.954 104.072 199.833 103.119 196.711 102.731C192.528 102.166 188.244 102.519 184.16 103.719C180.208 104.884 176.357 106.895 172.272 106.895C170.114 106.895 167.889 106.366 165.797 106.966C164.004 107.495 162.51 108.801 160.949 109.93C157.396 112.507 153.379 114.201 149.261 115.471C148.63 115.683 147.9 116 147.767 116.671C147.634 117.483 148.498 118.224 148.331 119.036C148.132 119.953 146.904 119.988 146.04 119.918C144.646 119.847 143.185 120.271 142.222 121.329C141.79 121.788 141.458 122.423 141.325 123.094L141.06 122.953C141.126 123.094 141.192 123.2 141.259 123.341C141.159 124.047 141.259 124.788 141.624 125.423C142.753 127.329 145.376 127.082 147.435 126.623L145.708 125.635C146.173 125.67 146.638 125.706 147.07 125.706C149.361 125.706 151.851 125.423 153.777 126.729C154.441 127.188 154.973 127.788 155.504 128.388C156.998 130.082 158.492 131.776 160.02 133.47C160.75 134.281 161.481 135.128 161.713 136.187C162.078 137.775 161.282 139.54 161.813 141.093C162.444 142.928 164.702 143.845 164.901 145.786C165.067 147.445 163.539 149.068 164.104 150.621C164.37 151.327 164.967 151.786 165.366 152.386C165.864 153.162 165.963 154.115 166.163 155.033C167.258 160.256 171.409 164.632 176.357 165.691C176.888 165.796 177.419 165.867 177.917 165.691C178.581 165.444 179.046 164.844 179.445 164.208C180.773 162.126 181.703 159.762 183.064 157.679C184.425 155.597 186.351 153.727 188.709 153.409C190.801 153.127 193.026 154.044 194.985 153.268C197.542 152.28 198.538 148.998 200.729 147.304C202.19 146.174 204.183 145.822 205.378 144.375C206.872 142.504 206.607 139.751 206.009 137.458Z" fill="#D5DBDF"/>
<path d="M216.832 156.055C217.164 155.808 217.496 155.35 217.297 154.961C217.23 154.785 217.064 154.679 216.932 154.608C214.076 152.773 205.608 150.55 205.642 156.161C205.642 158.243 206.638 160.643 208.464 161.349C211.353 162.478 212.283 160.149 213.777 158.279C214.574 157.291 215.836 156.832 216.832 156.055Z" fill="#D5DBDF"/>
<path d="M255.682 127.293C257.575 127.222 257.641 124.54 259.036 123.94C260.331 123.375 262.29 125.21 263.95 125.422C264.78 125.528 265.644 125.422 266.374 124.999C267.105 124.575 267.669 123.728 267.603 122.846C267.536 121.787 266.706 120.975 265.909 120.305C266.773 119.987 267.702 119.634 268.367 118.964C269.031 118.293 269.396 117.164 268.997 116.282C268.466 115.223 267.105 115.011 265.976 115.011C261.626 115.011 257.309 115.541 252.992 116.07C249.838 116.458 248.443 116.846 250.137 120.128C251.067 121.822 253.723 127.363 255.682 127.293Z" fill="#D5DBDF"/>
<path d="M478.592 151.68C470.889 152.915 464.381 142.822 456.743 144.48C455.947 145.327 455.116 146.174 454.32 147.021C453.423 146.421 452.726 145.539 452.261 144.516C444.192 143.528 436.189 141.798 428.386 139.398C426.494 138.834 424.435 138.057 423.439 136.222C422.443 134.422 423.571 131.423 425.531 131.67C421.812 129.199 417.528 127.682 413.178 127.294C410.057 127.011 405.973 128.105 405.607 131.458C408.197 131.74 410.787 132.023 413.378 132.305C414.739 135.269 412.614 139.01 409.725 140.281C406.836 141.586 403.582 141.128 400.494 140.669C398.203 139.434 397.007 136.328 397.771 133.717C390.732 136.116 382.962 136.01 375.988 133.434C376.951 131.705 377.914 129.976 378.911 128.246C376.287 126.023 372.602 125.317 369.414 126.447C370.676 124.717 368.285 122.212 366.259 122.6C364.234 122.988 362.773 124.823 361.146 126.2C357.593 129.235 352.579 130.187 348.262 128.635C347.034 133.222 341.422 135.763 337.47 133.505C338.267 135.446 338.367 137.704 337.736 139.716C335.777 138.234 332.888 138.34 330.995 139.893C331.992 135.94 325.948 133.293 323.259 136.222C320.602 139.151 321.764 144.41 324.686 147.021C320.635 148.821 315.489 147.304 312.932 143.528C313.496 146.633 309.213 148.08 306.39 147.127C303.568 146.139 300.646 144.092 297.857 145.257C300.247 146.845 302.339 148.927 304 151.362C300.38 152.033 296.661 152.139 293.009 151.715C292.71 149.703 291.614 147.833 290.053 146.668C289.887 150.48 288.327 154.185 285.77 156.797C283.645 158.985 280.391 160.467 277.701 159.091C275.012 157.75 274.547 152.703 277.369 151.715C278.664 151.256 280.092 151.75 281.453 151.644C282.815 151.539 284.342 150.162 283.711 148.856C279.594 143.351 272.853 140.175 266.212 140.598C259.604 141.057 253.295 145.116 249.842 151.115C248.514 153.48 247.518 156.126 245.625 157.962C244.33 159.197 242.636 160.009 241.674 161.561C239.88 164.455 241.64 168.584 244.463 170.314C247.285 172.043 250.705 172.043 253.959 172.008C253.993 171.09 254.026 170.137 254.059 169.22C254.192 165.69 254.391 162.02 256.151 159.02C257.911 156.056 261.862 154.221 264.652 156.091C263.921 159.903 262.726 163.608 261.132 167.067C264.054 166.573 267.142 167.384 269.566 169.22C265.814 167.631 261.032 171.125 261.132 175.431C257.446 181.748 246.488 179.948 244.795 172.713C243.467 178.96 238.453 184.148 232.542 185.418C231.214 185.701 229.52 186.089 229.222 187.5C228.657 190.253 233.638 190.183 234.767 192.723C238.054 199.993 214.91 191.912 222.879 203.699C229.819 214.004 237.755 192.053 245.758 198.652C247.451 200.029 248.016 202.464 249.278 204.299C250.539 206.134 253.561 207.087 254.624 205.111C254.192 201.299 251.934 197.805 248.779 195.935C249.676 193.112 253.76 193.959 255.852 195.935C257.944 197.911 260.036 200.735 262.825 200.276C266.976 199.605 267.872 192.3 272.023 191.841C273.617 191.665 275.111 192.618 276.705 192.865C278.299 193.112 280.358 192.053 280.059 190.359C280.822 193.959 286.501 195.264 285.969 198.864C285.571 201.511 282.25 202.076 279.727 201.758C276.406 201.335 272.92 200.523 269.865 201.899C266.81 203.276 264.917 208.04 267.374 210.404C269.964 209.522 272.754 208.605 275.344 209.522C277.934 210.44 279.793 214.004 278.133 216.298C277.203 217.604 275.51 218.027 273.949 218.204C270.994 218.557 267.972 218.38 265.05 217.745C258.741 220.18 251.137 218.063 246.787 212.663C245.891 211.534 245.094 210.263 243.898 209.522C237.556 205.64 230.649 219.862 224.34 215.98C214.91 223.709 211.357 238.602 216.205 250.178C219.991 252.083 224.141 253.213 228.358 253.46C235.829 253.919 244.695 252.189 249.709 258.083C247.186 261.683 246.654 266.765 248.348 270.894C248.945 272.376 249.842 273.787 249.875 275.376C249.975 278.269 247.451 280.493 246.82 283.281C246.156 286.316 247.85 289.316 249.444 291.962C253.229 298.068 257.014 304.209 260.767 310.314C265.548 307.314 270.33 304.314 275.111 301.315C276.473 300.468 278 299.409 278.332 297.75C278.664 296.197 277.867 294.68 277.668 293.092C276.805 286.704 285.338 282.61 285.438 276.152C285.471 274.176 284.674 272.305 284.575 270.329C284.11 261.153 297.757 256.918 297.89 247.707C287.397 247.566 277.768 237.932 277.004 226.815C284.077 227.45 290.087 234.614 289.788 242.167C296.728 242.519 303.634 237.649 306.025 230.697C306.357 229.709 306.623 228.615 306.324 227.591C305.66 225.403 302.97 224.98 300.845 224.591C298.687 224.203 296.13 222.474 296.827 220.286C305.56 218.874 314.858 224.097 318.676 232.567C320.27 236.132 320.967 240.12 322.96 243.472C324.952 246.79 328.937 249.366 332.324 247.778C333.386 247.284 334.316 246.366 334.648 245.202C335.08 243.825 334.681 242.343 334.582 240.861C334.017 233.308 343.447 227.415 349.391 231.614C352.147 233.555 353.741 236.838 355.069 240.014C356.829 244.284 358.29 248.66 359.419 253.177C359.95 255.33 360.548 257.659 362.275 258.93C364.001 260.165 367.089 259.142 366.89 256.918C364.699 253.177 362.54 249.401 360.349 245.66C361.544 243.296 364.998 244.637 366.857 246.472C368.717 248.307 371.406 250.495 373.432 248.872C375.192 247.46 374.527 244.425 373.232 242.519C371.937 240.614 370.144 238.779 370.144 236.414C370.111 232.885 373.863 230.979 376.819 229.391C383.758 225.65 389.636 216.227 385.153 209.452C383.991 207.722 382.397 205.04 384.091 203.946C387.976 202.958 389.868 209.275 393.587 210.863C396.841 212.24 400.826 208.534 399.963 204.934C399.664 203.593 398.8 202.252 399.166 200.946C399.863 198.3 403.682 199.041 405.84 197.523C408.596 195.547 407.699 190.359 410.455 188.383C412.415 186.971 415.669 187.606 416.698 185.383C417.96 182.63 414.208 180.477 411.385 179.983C408.563 179.454 404.844 177.089 406.272 174.443C412.182 169.467 420.384 167.702 427.656 169.855C428.32 167.42 429.648 165.196 431.408 163.538C434.795 164.243 438.414 163.538 441.336 161.597C443.329 163.502 442 167.208 439.842 168.902C437.684 170.596 434.894 171.372 433.035 173.419C430.146 176.56 430.677 182.418 434.031 184.959C441.104 184.289 440.141 171.725 446.018 167.455C449.04 165.267 453.024 165.902 456.644 165.408C460.263 164.914 464.381 161.879 463.418 158.138C463.218 157.432 462.853 156.691 463.019 155.95C463.218 155.068 464.115 154.574 464.912 154.362C468.166 153.444 471.885 154.715 474.01 157.468C475.936 157.185 477.796 156.374 479.389 155.174C479.124 154.115 478.858 152.915 478.592 151.68Z" fill="#D5DBDF"/>
<path d="M299.12 136.469C301.411 140.175 302.307 138.587 305.561 136.434C307.421 135.199 322.729 124.682 324.322 126.835C322.928 125 320.703 124.047 318.478 123.87C316.254 123.694 314.062 124.188 311.937 124.788C308.284 125.811 304.698 127.117 301.245 128.705C298.09 130.152 297.161 133.258 299.12 136.469Z" fill="#D5DBDF"/>
<path d="M298.52 117.342C299.549 115.683 299.582 113.389 298.62 111.695C296.793 111.201 294.801 112.33 293.838 114.024C295.1 115.506 296.727 116.671 298.52 117.342Z" fill="#D5DBDF"/>
<path d="M293.407 113.459L293.308 115.612C293.374 115.048 293.573 114.518 293.839 114.024C293.673 113.812 293.54 113.636 293.407 113.459Z" fill="#D5DBDF"/>
<path d="M293.305 115.612C293.271 115.859 293.271 116.071 293.271 116.318L293.305 115.612Z" fill="#D5DBDF"/>
<path d="M305.89 114.977C305.857 115.083 305.857 115.188 305.824 115.294L305.957 115.012C308.879 116.847 312.432 117.482 315.752 116.741C317.346 116.388 319.239 114.8 318.409 113.283C317.844 112.295 316.516 112.259 315.586 111.659C315.188 111.412 314.856 111.024 314.424 110.848C313.693 110.601 312.93 111.059 312.232 111.448C310.738 112.224 309.012 112.577 307.318 112.4L307.717 111.624C306.189 111.377 304.894 113.53 305.757 114.871C305.824 114.941 305.857 114.977 305.89 114.977Z" fill="#D5DBDF"/>
<path d="M353.971 111.095L353.174 112.295C353.373 112.189 353.606 112.119 353.805 112.083C353.871 111.73 353.938 111.413 353.971 111.095Z" fill="#D5DBDF"/>
<path d="M352.374 113.494L353.171 112.259C352.706 112.541 352.341 112.929 352.374 113.494Z" fill="#D5DBDF"/>
<path d="M353.175 117.765C353.308 118.435 353.773 118.965 354.271 119.353C357.724 122.141 363.037 118.859 366.922 120.941C368.416 120.129 369.114 118.012 368.416 116.424C365.428 116.53 362.439 116.671 359.451 116.777C360.049 115.577 359.484 113.989 358.488 113.142C357.459 112.295 356.13 112.048 354.835 111.977C354.537 111.977 354.171 111.977 353.839 112.083C353.64 113.424 353.441 114.765 353.242 116.141C353.142 116.671 353.076 117.235 353.175 117.765Z" fill="#D5DBDF"/>
<path d="M295.629 276.611C292.408 279.046 289.619 282.081 287.328 285.504C284.837 289.28 287.294 300.433 293.271 297.68C295.961 296.445 294.932 292.81 295.894 290.41C296.824 287.975 299.348 286.351 299.713 283.669C300.145 280.775 297.754 278.411 295.629 276.611Z" fill="#D5DBDF"/>
<path d="M376.186 275.447C377.248 275.517 378.344 276.294 379.373 275.87C380.004 275.623 380.469 274.952 381.067 274.635C382.495 273.894 384.055 275.164 385.217 276.293C385.151 274.67 383.922 273.329 382.495 272.729C381.067 272.164 379.506 272.2 377.979 272.447C376.484 272.659 374.791 272.976 373.562 272.023C372.965 271.564 372.599 270.859 372.101 270.294C371.304 269.447 370.242 268.988 369.179 268.529C366.955 267.577 363.866 266.906 361.874 265.459C361.509 265.177 358.919 262.036 359.218 262.071C355.001 261.259 357.89 266.694 358.222 269.059C358.321 269.659 358.388 270.329 358.753 270.788C359.085 271.212 359.616 271.388 360.114 271.564C362.14 272.2 364.265 272.376 366.357 272.129C366.622 274.988 369.545 277.246 372.201 276.576C373.562 276.294 374.791 275.341 376.186 275.447Z" fill="#D5DBDF"/>
<path d="M383.823 260.235C385.218 258.506 385.218 255.612 383.624 254.13C381.997 252.647 378.975 253.389 378.444 255.577C378.245 256.353 378.278 257.306 377.614 257.694C377.116 257.976 376.485 257.729 375.887 257.623C374.492 257.341 372.932 258.082 372.268 259.423L374.592 258.223C372.865 260.482 373.197 264.223 375.289 266.093C377.381 267.999 380.901 267.717 382.727 265.529C382.993 265.211 383.225 264.823 383.292 264.399C383.391 263.517 382.694 262.705 382.827 261.823C382.893 261.188 383.425 260.729 383.823 260.235Z" fill="#D5DBDF"/>
<path d="M387.312 261.683L387.709 262.953C387.809 262.424 387.742 261.93 387.312 261.683Z" fill="#D5DBDF"/>
<path d="M386.978 264.189C386.28 264.824 385.317 265.424 385.251 266.412C385.185 267.753 386.745 268.388 388.007 268.6C389.767 268.882 392.125 268.812 392.589 267.012C392.888 265.883 392.125 264.647 391.128 264.118C390.132 263.589 388.97 263.553 387.874 263.553L387.708 262.989C387.575 263.412 387.31 263.871 386.978 264.189Z" fill="#D5DBDF"/>
<path d="M390.034 249.614C389.702 252.119 393.322 252.931 394.384 255.154C394.915 254.907 395.314 254.484 395.58 253.955C396.31 252.472 395.912 250.214 394.384 249.543C393.853 249.331 393.288 249.261 392.823 248.908C391.595 248.061 391.993 245.767 392.491 244.638C390.864 245.802 390.3 247.637 390.034 249.614Z" fill="#D5DBDF"/>
<path d="M418.022 200.029C419.715 198.723 421.575 196.641 420.745 194.594C420.147 193.111 418.354 192.512 417.59 191.135C416.528 190.782 415.399 191.735 414.934 192.864C414.469 193.958 414.403 195.194 413.971 196.323C413.705 197.029 413.307 197.629 413.108 198.37C412.61 200.24 413.639 202.075 414.901 203.628C415.366 202.146 416.76 200.946 418.022 200.029Z" fill="#D5DBDF"/>
<path d="M414.902 203.593C414.77 203.946 414.736 204.299 414.736 204.687C415.068 204.617 415.367 204.546 415.699 204.546C415.434 204.228 415.168 203.911 414.902 203.593Z" fill="#D5DBDF"/>
<path d="M400.263 213.439C397.208 216.686 400.363 224.591 401.957 219.439C402.123 218.874 402.189 218.204 402.588 217.815C403.219 217.18 404.248 217.498 405.111 217.639C407.137 217.992 409.229 217.145 410.856 215.804C412.483 214.463 413.711 212.663 414.94 210.898C415.438 210.157 416.003 209.345 415.969 208.428C415.936 207.299 415.073 206.381 414.84 205.287C414.807 205.075 414.774 204.899 414.774 204.687C411.354 205.499 408.996 209.345 405.676 210.898C403.816 211.745 401.658 211.957 400.263 213.439Z" fill="#D5DBDF"/>
<path d="M429.681 270.999C430.345 270.682 430.877 269.835 430.644 269.094C430.379 268.282 429.416 268.035 428.619 267.929C426.427 267.682 424.203 267.788 422.011 268.141C420.915 268.317 419.753 268.564 418.79 268.035C417.927 267.541 417.429 266.518 416.731 265.812C414.374 263.447 409.526 264.329 408.497 261.047C408.131 262.706 406.106 263.13 404.512 262.882C403.449 262.741 402.586 262.494 401.59 262.741C401.822 263.094 403.283 267.364 402.088 267.153C405.442 267.753 408.829 268.353 412.182 268.953C412.049 272.658 414.805 276.258 418.259 276.823C418.956 276.928 419.72 276.964 420.318 277.317C421.546 278.022 422.21 279.999 423.638 279.893C424.9 279.787 425.398 278.093 425.298 276.787C425.132 274.529 424.203 272.376 422.675 270.788C424.302 270.929 425.896 271.035 427.523 271.176C428.22 271.247 429.017 271.317 429.681 270.999Z" fill="#D5DBDF"/>
<path d="M428.054 299.867C427.822 298.667 428.685 297.432 428.486 296.232C428.12 293.938 425.032 294.079 423.007 293.197C420.649 292.138 419.587 289.315 418.425 286.88C417.262 284.445 415.204 281.904 412.68 282.363C411.418 284.092 410.522 286.068 410.09 288.186C408.098 287.621 408.828 284.409 408.164 282.327C407.367 279.857 404.346 279.116 401.888 279.363C398.335 279.716 394.882 281.339 392.226 283.845C391.96 282.574 390.101 282.539 389.237 283.457C386.05 286.845 386.481 289.809 381.334 291.185C378.512 291.927 375.291 290.656 374.826 294.256C373.93 300.996 386.78 306.572 381.235 314.619C385.286 316.666 390.798 314.478 393.122 310.454C393.388 309.996 393.654 309.466 394.085 309.184C394.517 308.902 395.048 308.866 395.579 308.866C398.701 308.76 401.855 308.69 404.976 308.584C405.674 308.549 406.371 308.549 407.035 308.831C409.36 309.784 409.227 313.278 408.662 315.854C411.817 315.289 414.54 318.148 417.661 318.96C419.188 319.348 420.782 319.242 422.343 319.136C424.335 318.995 426.859 318.43 427.257 316.313C427.656 314.266 425.564 312.325 425.962 310.243C426.56 307.455 431.242 306.678 430.71 303.855C430.445 302.232 428.353 301.49 428.054 299.867Z" fill="#D5DBDF"/>
<path d="M455.315 318.678C454.518 321.466 451.994 323.548 449.272 323.725C448.607 323.76 447.844 323.76 447.478 324.325C447.312 324.607 447.279 324.925 447.246 325.242C447.146 326.583 447.213 327.925 447.445 329.266L447.777 326.725C447.644 328.524 448.873 330.289 450.467 330.96C452.16 331.665 454.153 331.312 455.78 330.43C456.477 330.042 457.108 329.583 457.606 328.948C458.735 327.466 458.801 325.313 458.204 323.478C457.606 321.713 456.444 320.16 455.315 318.678Z" fill="#D5DBDF"/>
<path d="M461.785 312.608C460.258 311.832 458.465 311.973 456.771 312.22C456.971 314.02 457.303 315.855 458.432 317.231C459.727 318.819 462.45 319.243 463.578 317.514C464.608 315.855 463.479 313.455 461.785 312.608Z" fill="#D5DBDF"/>
<path d="M456.277 312.291C456.443 312.256 456.609 312.256 456.774 312.22C456.741 311.903 456.708 311.585 456.675 311.303L456.277 312.291Z" fill="#D5DBDF"/>
</g>
<path d="M302.784 412.477C300.593 406.835 298.468 401.426 296.475 396.251C293.553 382.095 284.09 337.925 272.634 309.646C270.974 305.54 268.151 299.029 261.809 293.22C250.254 282.603 235.046 281.702 227.575 281.835C227.575 281.869 227.575 281.902 227.575 281.935C227.276 281.869 226.944 281.802 226.645 281.769C222.859 281.401 217.248 280.7 210.54 279.398C207.817 278.864 205.593 278.363 204.265 278.063C203.567 277.896 203.036 277.762 202.969 277.762C183.777 273.155 160.035 281.835 160.035 281.835C147.318 286.476 138.784 289.715 132.409 298.562C127.859 304.839 126.664 310.915 124.638 321.031C123.842 324.971 123.177 332.383 122.812 347.039C122.613 356.187 123.642 362.965 124.406 369.809C129.686 416.817 131.578 419.021 133.704 420.457C136.227 422.159 148.579 421.458 173.184 419.922C184.673 419.221 183.013 419.221 184.673 419.188C212.798 418.353 223.357 425.999 252.113 422.36C253.275 422.226 254.238 422.093 254.77 421.992C255.168 418.887 255.699 414.313 256.098 408.771C257.625 386.77 255.4 371.478 256.563 371.311C257.36 371.211 258.489 378.69 261.344 388.005C264.997 399.924 269.712 409.172 273.298 415.348C277.947 419.789 282.297 421.892 283.791 420.657C285.086 419.589 284.754 415.649 283.957 413.078C283.758 412.444 283.558 411.943 283.459 411.776C283.426 411.743 283.426 411.709 283.426 411.709C283.492 411.409 287.908 411.442 302.784 412.477Z" fill="#EF6238"/>
<path opacity="0.71" d="M140.247 404.465C141.21 403.363 142.239 402.361 143.335 401.426C150.873 395.15 157.182 388.539 162.627 389.574C168.305 390.676 169.335 399.056 171.394 398.789C177.171 397.988 171.892 331.214 173.286 331.081C173.95 331.014 178.3 345.904 178.333 365.269C178.333 374.717 177.304 378.991 180.359 383.698C185.14 391.043 195.135 392.078 203.569 393.113C216.088 394.649 233.62 397.186 256.1 401.727C256.133 406.401 255.934 411.409 255.403 416.717C255.203 418.52 255.004 420.256 254.772 421.992C254.24 422.059 253.277 422.193 252.115 422.36C223.36 425.999 212.767 418.32 184.676 419.188C177.968 419.388 176.773 419.889 160.701 420.624C152.068 421.024 145.062 421.225 140.679 421.358C140.745 419.388 140.778 417.352 140.745 415.282C140.712 411.442 140.513 407.87 140.247 404.465Z" fill="#7C2923"/>
<path opacity="0.71" d="M256.364 368.908C256.364 368.908 256.165 370.444 256.298 371.846C256.364 371.512 256.43 371.312 256.563 371.312C256.796 371.279 257.095 371.946 257.427 373.182C257.692 372.414 257.991 371.078 258.323 368.942C260.249 357.39 256.331 313.72 256.331 313.72V368.908H256.364Z" fill="#7C2923"/>
<path d="M218.742 253.858C218.742 253.858 215.92 277.563 218.311 283.472C218.377 283.639 218.543 284.04 218.377 284.44C217.182 287.045 202.206 282.637 186.865 277.362C190.02 261.671 193.174 245.979 196.329 230.254C196.329 230.254 221.631 245.411 218.742 253.858Z" fill="#FD906C"/>
<path d="M198.384 239.033C197.886 247.28 203.697 253.156 203.033 253.523C202.136 253.991 194.2 242.606 189.684 227.983C186.862 218.835 186.463 211.857 187.194 205.78C187.692 201.741 188.621 195.063 193.403 192.225C195.296 191.09 196.856 191.057 198.649 190.823C202.734 190.322 208.545 188.286 215.451 181.141C229.065 185.815 242.381 191.09 241.816 193.728C241.716 194.229 241.119 194.496 240.92 194.596C235.075 197.3 199.579 219.669 198.384 239.033Z" fill="#2C313C"/>
<path d="M221.164 279.799C223.123 280.7 225.016 280.834 225.016 280.834C225.581 280.867 226.145 280.867 226.71 280.8C226.71 280.8 227.639 280.7 228.569 280.433C240.124 277.228 247.33 259.132 247.33 259.132C249.522 253.657 249.555 251.253 251.381 242.873C252.875 236.095 255.366 226.213 259.616 214.227C259.118 213.76 254.104 209.152 248.891 204.512C246.533 202.842 231.757 192.76 217.279 198.035C198.95 204.712 195.563 230.72 197.887 245.711C198.153 247.38 198.485 248.949 198.884 250.485C199.448 254.325 201.009 261.069 205.923 267.746C205.923 267.746 211.568 275.458 221.164 279.799Z" fill="#FD906C"/>
<path d="M198.88 250.452C199.212 251.186 199.511 251.921 199.81 252.622C199.976 252.989 200.109 253.356 200.241 253.724C200.407 254.091 200.573 254.425 200.739 254.792L201.736 256.895C202.101 257.563 202.466 258.264 202.831 258.932C204.326 261.636 206.019 264.24 207.912 266.678C209.804 269.115 211.83 271.452 214.022 273.655C214.586 274.19 215.117 274.757 215.715 275.258L216.578 276.059L217.475 276.827C218.637 277.862 219.832 278.864 221.128 279.765C219.633 279.198 218.272 278.396 216.91 277.528L215.914 276.86L214.951 276.159C214.287 275.692 213.69 275.191 213.092 274.69C210.635 272.654 208.443 270.317 206.484 267.779C204.525 265.242 202.865 262.471 201.57 259.533C201.237 258.798 200.939 258.064 200.64 257.329C200.64 257.329 199.644 254.291 199.577 253.89C199.478 253.49 199.411 253.123 199.312 252.722C199.179 252.021 199.013 251.253 198.88 250.452Z" fill="#D85920"/>
<path d="M201.935 230.988C203.031 231.155 204.89 231.021 205.256 229.719C205.521 228.884 205.787 227.883 206.119 226.781C207.115 223.342 208.277 219.937 209.572 216.598C210.402 214.461 211.232 212.224 212.461 210.288C212.793 209.754 213.324 208.719 213.955 208.485C215.582 207.884 216.246 210.321 217.741 210.689C218.903 210.956 220.098 209.687 219.799 208.552C220.729 210.054 222.555 210.956 224.315 210.755C226.075 210.588 227.669 209.353 228.333 207.717C226.972 209.32 228.134 212.224 230.226 212.625C232.285 213.026 234.41 211.089 234.41 208.986C234.343 210.755 235.505 212.458 237.166 213.026C238.826 213.593 240.818 212.892 241.781 211.456C241.715 213.293 242.479 215.229 244.039 216.164C245.6 217.099 247.924 216.732 248.821 215.129C249.651 216.297 251.079 216.999 252.507 216.932C253.968 216.865 255.163 216.064 256.026 214.929C256.458 215.93 257.355 216.665 257.554 217.8C257.786 219.035 257.222 220.671 256.923 221.84C256.159 224.945 255.296 226.447 255.362 226.48C255.495 226.547 257.587 221.773 261.206 214.127C262.036 212.391 262.468 211.49 262.701 210.054C263.232 206.549 261.605 205.681 261.904 202.075C262.136 198.97 263.497 198.202 262.966 195.831C262.601 194.262 261.704 193.127 260.974 192.393C261.007 192.226 261.074 190.056 259.48 188.119C258.517 186.951 256.724 186.316 255.395 187.051C255.661 183.946 253.702 180.808 250.813 179.706C247.924 178.604 244.371 179.672 242.545 182.176C241.582 180.941 240.586 179.639 239.258 178.838C237.929 178.036 236.136 177.769 234.808 178.604C233.812 179.238 233.082 180.474 231.886 180.574C231.288 180.607 230.724 180.34 230.126 180.14C228.366 179.472 226.374 179.439 224.581 180.006C224.05 180.173 223.518 180.407 222.987 180.44C222.489 180.474 222.024 180.407 221.526 180.307C218.969 179.773 215.914 178.637 213.49 180.14C211.963 181.108 210.369 182.443 208.908 183.579C204.625 186.917 201.038 191.091 198.415 195.865C197.751 197.1 197.187 198.335 197.187 198.335C194.763 202.809 194.364 207.784 194.364 207.784C193.833 210.689 193.501 215.062 194.829 219.97C195.626 222.908 196.689 224.744 197.851 226.781C200.076 230.453 201.238 230.887 201.935 230.988Z" fill="#2C313C"/>
<path d="M247.261 189.922C247.394 189.722 247.593 189.588 247.825 189.522C248.058 189.455 248.323 189.455 248.556 189.488C248.788 189.522 249.021 189.622 249.253 189.722C249.319 189.755 249.353 189.789 249.419 189.822L249.485 189.889L249.718 190.056C249.751 190.089 249.817 190.123 249.851 190.156C250.216 190.456 250.515 190.857 250.747 191.291C250.98 191.725 251.112 192.193 251.179 192.693C251.245 193.194 251.212 193.695 251.079 194.162C250.946 194.63 250.714 195.064 250.415 195.464C250.349 195.565 250.249 195.665 250.183 195.732C250.116 195.832 250.017 195.898 249.917 195.965C249.751 196.132 249.552 196.266 249.353 196.366C249.153 196.466 248.954 196.566 248.722 196.633C248.523 196.7 248.29 196.733 248.058 196.733C248.39 196.433 248.689 196.166 248.921 195.865C249.153 195.565 249.353 195.231 249.519 194.897C249.651 194.563 249.784 194.229 249.817 193.862C249.884 193.528 249.884 193.161 249.851 192.827C249.817 192.493 249.718 192.126 249.585 191.792C249.452 191.458 249.286 191.158 249.087 190.857L249.021 190.757L248.888 190.59L248.855 190.557C248.821 190.523 248.788 190.49 248.755 190.456C248.622 190.323 248.489 190.223 248.323 190.123C248.024 189.889 247.692 189.755 247.261 189.922Z" fill="#22262E"/>
<path d="M246.3 210.588C246.565 210.655 246.798 210.688 247.03 210.722C247.263 210.755 247.495 210.789 247.761 210.789C248.226 210.822 248.691 210.822 249.155 210.755C249.388 210.722 249.62 210.688 249.82 210.655C249.919 210.622 250.052 210.622 250.152 210.588C250.251 210.555 250.384 210.521 250.45 210.488C250.55 210.455 250.616 210.421 250.65 210.388C250.683 210.354 250.683 210.354 250.716 210.321C250.749 210.288 250.749 210.254 250.783 210.154C250.816 210.087 250.816 209.987 250.849 209.887C250.849 209.887 250.982 208.685 251.015 208.451C251.048 207.984 251.081 207.517 251.048 207.083C251.015 206.649 250.949 206.215 250.783 205.781C250.616 205.347 250.384 204.946 249.986 204.579C250.484 204.679 250.982 205.013 251.314 205.413C251.679 205.847 251.912 206.348 252.044 206.882C252.177 207.416 252.244 207.951 252.244 208.485C252.244 208.752 252.244 209.019 252.21 209.253L252.144 209.82C252.144 209.887 252.144 209.954 252.111 210.021C252.078 210.154 252.077 210.321 252.011 210.488C251.945 210.655 251.878 210.822 251.745 211.022C251.679 211.122 251.613 211.189 251.513 211.256C251.447 211.323 251.347 211.389 251.247 211.456C251.081 211.556 250.915 211.623 250.749 211.657C250.583 211.69 250.45 211.723 250.318 211.723C250.251 211.723 250.185 211.757 250.118 211.757C250.052 211.757 249.986 211.757 249.919 211.757C249.654 211.757 249.388 211.757 249.122 211.757C248.591 211.69 248.06 211.59 247.562 211.356C247.097 211.223 246.665 210.955 246.3 210.588Z" fill="#22262E"/>
<path d="M240.619 200.239C240.751 200.372 240.851 200.573 240.884 200.806C240.917 201.04 240.884 201.274 240.785 201.474C240.619 201.908 240.253 202.275 239.755 202.476C239.689 202.509 239.622 202.509 239.556 202.542L239.39 202.576C239.324 202.576 239.257 202.576 239.191 202.609C239.124 202.609 239.058 202.609 238.992 202.609C238.759 202.609 238.494 202.542 238.294 202.476C237.829 202.309 237.464 202.075 237.132 201.775C236.966 201.641 236.833 201.474 236.7 201.307C236.568 201.14 236.435 200.94 236.335 200.74C236.136 200.339 236.003 199.872 236.036 199.371C236.036 199.304 236.036 199.237 236.07 199.204C236.07 199.137 236.103 199.07 236.103 199.003C236.136 198.937 236.136 198.87 236.169 198.837C236.202 198.77 236.236 198.736 236.236 198.67C236.335 198.469 236.501 198.269 236.667 198.135C236.833 198.002 237.066 197.868 237.265 197.835C237.497 197.802 237.697 197.802 237.896 197.902C237.497 198.035 237.298 198.302 237.165 198.569C237.099 198.703 237.066 198.837 237.032 199.003C237.032 199.037 237.032 199.07 237.032 199.104V199.204V199.304C237.032 199.337 237.032 199.371 237.066 199.404C237.132 199.671 237.232 199.938 237.398 200.172C237.564 200.406 237.763 200.673 237.995 200.873C238.46 201.307 238.992 201.574 239.456 201.574C239.689 201.574 239.955 201.441 240.187 201.24C240.453 200.94 240.652 200.639 240.619 200.239Z" fill="#22262E"/>
<path d="M235.505 190.49C235.505 190.256 235.505 190.056 235.472 189.855C235.439 189.655 235.373 189.488 235.306 189.288C235.14 188.954 234.941 188.62 234.675 188.353C234.177 187.819 233.546 187.385 232.882 187.051C232.55 186.884 232.185 186.75 231.82 186.65C231.454 186.55 231.089 186.483 230.691 186.416C230.292 186.35 229.927 186.35 229.495 186.35C229.097 186.35 228.665 186.416 228.233 186.45C228.399 186.283 228.565 186.149 228.765 186.016C228.964 185.882 229.163 185.782 229.362 185.682C229.562 185.615 229.794 185.515 230.027 185.448C230.259 185.381 230.491 185.348 230.724 185.315C231.189 185.248 231.654 185.281 232.118 185.348C232.583 185.415 233.048 185.582 233.447 185.782C233.878 185.982 234.277 186.25 234.642 186.55C234.742 186.617 234.808 186.717 234.908 186.784L235.041 186.917L235.173 187.051C235.339 187.251 235.472 187.451 235.572 187.652C235.804 188.086 235.97 188.553 235.97 189.054C235.97 189.288 235.97 189.555 235.871 189.755C235.738 190.122 235.638 190.323 235.505 190.49Z" fill="#22262E"/>
<path d="M221.658 189.588C221.293 189.688 220.994 189.855 220.761 190.022C220.529 190.222 220.33 190.456 220.197 190.689C220.064 190.923 219.964 191.19 219.898 191.424C219.865 191.658 219.865 191.891 219.931 192.092C219.998 192.292 220.097 192.459 220.263 192.626C220.429 192.793 220.662 192.926 220.894 193.027C221.16 193.127 221.425 193.193 221.724 193.193C222.023 193.193 222.322 193.127 222.654 192.926C222.554 193.294 222.256 193.627 221.89 193.794C221.525 193.995 221.093 194.062 220.662 194.028C220.23 193.995 219.798 193.828 219.433 193.561C219.234 193.427 219.068 193.26 218.935 193.06C218.802 192.86 218.67 192.626 218.603 192.392C218.47 191.925 218.503 191.424 218.636 190.99C218.769 190.556 219.035 190.189 219.367 189.922C219.699 189.654 220.064 189.454 220.463 189.354C220.894 189.354 221.326 189.387 221.658 189.588Z" fill="#22262E"/>
<path d="M227.374 199.171C227.274 199.638 227.108 200.072 226.876 200.473C226.809 200.573 226.776 200.673 226.71 200.773C226.643 200.874 226.577 200.974 226.51 201.074C226.377 201.274 226.211 201.441 226.079 201.642C225.747 201.975 225.415 202.309 225.016 202.576C224.618 202.843 224.219 203.077 223.754 203.277C223.323 203.478 222.858 203.611 222.393 203.712C221.928 203.812 221.43 203.845 220.932 203.812C220.799 203.812 220.699 203.778 220.567 203.778C220.434 203.745 220.334 203.745 220.201 203.712C219.969 203.645 219.736 203.578 219.504 203.478C219.438 203.444 219.404 203.411 219.338 203.411C219.272 203.378 219.238 203.344 219.172 203.311C219.072 203.244 218.973 203.177 218.873 203.111C218.674 202.977 218.508 202.81 218.375 202.61C218.84 202.743 219.238 202.81 219.67 202.81C220.102 202.81 220.5 202.81 220.899 202.743C221.297 202.677 221.696 202.61 222.094 202.476C222.492 202.343 222.858 202.209 223.223 202.042C223.588 201.875 223.954 201.708 224.319 201.508C224.684 201.308 225.016 201.074 225.381 200.84C226.079 200.373 226.71 199.805 227.374 199.171Z" fill="#22262E"/>
<path d="M209.072 197.802C208.973 197.935 208.773 198.069 208.574 198.102C208.375 198.135 208.176 198.102 207.976 198.035C207.777 197.968 207.611 197.902 207.445 197.802C207.279 197.701 207.146 197.601 206.98 197.468L206.781 197.301C206.715 197.234 206.648 197.201 206.615 197.134C206.482 197 206.383 196.9 206.283 196.767C206.051 196.499 205.851 196.232 205.652 195.898C205.453 195.598 205.32 195.231 205.22 194.864C205.121 194.496 205.088 194.096 205.121 193.695C205.154 193.495 205.187 193.328 205.254 193.127C205.254 193.094 205.287 193.027 205.32 192.994C205.353 192.96 205.353 192.894 205.386 192.86C205.42 192.76 205.486 192.693 205.519 192.593C205.719 192.293 206.017 192.026 206.383 191.892C206.316 192.059 206.25 192.193 206.217 192.36C206.183 192.526 206.15 192.66 206.15 192.794C206.117 193.094 206.15 193.361 206.217 193.628C206.283 193.895 206.349 194.162 206.449 194.396C206.549 194.663 206.681 194.897 206.847 195.164C206.98 195.431 207.146 195.665 207.346 195.932L207.844 196.733C208.01 196.967 208.176 197.234 208.342 197.434C208.441 197.534 208.541 197.635 208.674 197.701C208.74 197.802 208.906 197.835 209.072 197.802Z" fill="#22262E"/>
<path d="M196.324 195.097C196.158 195.097 195.992 195.097 195.859 195.13C195.726 195.163 195.594 195.23 195.494 195.297C195.262 195.43 195.096 195.597 194.93 195.798C194.764 195.998 194.631 196.198 194.531 196.432C194.465 196.532 194.431 196.632 194.398 196.766C194.365 196.833 194.365 196.9 194.332 196.933L194.299 197.133C194.166 197.634 194.133 198.168 194.133 198.702C194.133 198.969 194.166 199.27 194.199 199.537C194.199 199.604 194.232 199.671 194.232 199.771C194.232 199.838 194.265 199.938 194.265 200.004C194.299 200.071 194.299 200.171 194.332 200.238C194.365 200.305 194.365 200.405 194.398 200.472C194.099 200.305 193.834 200.071 193.635 199.804C193.435 199.537 193.236 199.237 193.137 198.903C192.904 198.235 192.838 197.5 193.037 196.799C193.07 196.699 193.07 196.632 193.103 196.532C193.137 196.432 193.17 196.365 193.203 196.265C193.269 196.098 193.369 195.898 193.469 195.764C193.701 195.464 193.967 195.197 194.265 194.996C194.432 194.896 194.598 194.83 194.764 194.763C194.93 194.696 195.129 194.663 195.328 194.663C195.527 194.663 195.726 194.696 195.892 194.763C196.092 194.83 196.258 194.93 196.324 195.097Z" fill="#22262E"/>
<path d="M191.609 206.114C191.277 206.214 191.011 206.314 190.779 206.448C190.546 206.581 190.314 206.748 190.115 206.882C189.716 207.215 189.45 207.583 189.284 208.017C189.118 208.417 189.052 208.918 189.085 209.419C189.118 209.686 189.152 209.953 189.251 210.22C189.351 210.487 189.45 210.754 189.616 211.055C189.284 210.988 188.986 210.821 188.72 210.587C188.454 210.354 188.255 210.053 188.089 209.719C187.79 209.052 187.757 208.25 188.056 207.516C188.355 206.781 188.952 206.247 189.616 205.98C189.949 205.847 190.314 205.78 190.646 205.813C190.978 205.813 191.31 205.913 191.609 206.114Z" fill="#22262E"/>
<path d="M198.418 206.582C198.684 206.481 199.016 206.448 199.315 206.548C199.613 206.615 199.912 206.782 200.145 206.982C200.377 207.183 200.61 207.45 200.742 207.75C200.875 208.051 200.975 208.385 200.975 208.752C200.975 209.119 200.875 209.453 200.709 209.753C200.543 210.054 200.344 210.321 200.078 210.488C199.813 210.688 199.547 210.822 199.248 210.889C198.949 210.955 198.617 210.922 198.352 210.822C198.584 210.655 198.783 210.488 198.949 210.321C199.115 210.154 199.215 209.954 199.315 209.787C199.514 209.42 199.613 209.052 199.613 208.752C199.613 208.418 199.547 208.051 199.348 207.683C199.248 207.516 199.148 207.316 198.982 207.149C198.816 206.916 198.65 206.749 198.418 206.582Z" fill="#22262E"/>
<path d="M205.059 216.43C205.258 216.364 205.49 216.464 205.656 216.597C205.822 216.764 205.955 216.965 205.988 217.165C206.055 217.399 206.055 217.599 206.022 217.833C205.988 218.066 205.889 218.267 205.723 218.467C205.59 218.634 205.424 218.768 205.258 218.868C205.092 218.968 204.893 219.035 204.727 219.068C204.561 219.101 204.361 219.101 204.195 219.101C204.029 219.068 203.83 219.035 203.631 218.934C203.73 218.734 203.863 218.601 203.963 218.467C204.063 218.333 204.162 218.233 204.262 218.133C204.461 217.933 204.594 217.766 204.727 217.632C204.793 217.532 204.926 217.399 204.992 217.198C205.026 217.098 205.092 216.998 205.125 216.864C205.125 216.798 205.158 216.631 205.059 216.43Z" fill="#22262E"/>
<path d="M190.315 221.105C190.547 221.005 190.813 221.071 191.045 221.171C191.278 221.305 191.477 221.472 191.61 221.706C191.743 221.939 191.842 222.206 191.842 222.474C191.875 222.741 191.809 223.041 191.709 223.308C191.61 223.575 191.444 223.809 191.244 223.976C191.045 224.143 190.813 224.276 190.58 224.377C190.348 224.443 190.115 224.51 189.85 224.477C189.783 224.477 189.717 224.477 189.684 224.443C189.617 224.443 189.551 224.41 189.518 224.41C189.451 224.377 189.418 224.377 189.352 224.343C189.285 224.31 189.252 224.276 189.186 224.243C189.219 224.21 189.285 224.176 189.318 224.143C189.352 224.11 189.418 224.076 189.451 224.043C189.484 224.009 189.518 223.976 189.584 223.943L189.684 223.842C189.816 223.709 189.949 223.575 190.049 223.475C190.248 223.241 190.414 223.008 190.481 222.774C190.547 222.574 190.613 222.34 190.613 222.04C190.613 221.906 190.613 221.739 190.547 221.572C190.547 221.472 190.447 221.305 190.315 221.105Z" fill="#22262E"/>
<path d="M200.575 224.777C200.641 224.878 200.707 224.978 200.741 225.078C200.807 225.178 200.84 225.278 200.873 225.378L201.106 225.912C201.172 226.079 201.239 226.213 201.338 226.347C201.405 226.48 201.471 226.58 201.571 226.68V226.714C201.571 226.714 201.571 226.714 201.604 226.747L201.637 226.781C201.67 226.814 201.704 226.847 201.737 226.881C201.836 226.947 201.936 226.981 202.069 227.048C202.202 227.081 202.335 227.114 202.467 227.114C202.6 227.114 202.799 227.081 202.965 226.881C203.032 226.981 203.032 227.114 202.999 227.248C202.965 227.381 202.899 227.515 202.833 227.615C202.667 227.849 202.401 227.982 202.102 228.049C201.836 228.116 201.538 228.116 201.272 228.016C201.139 227.982 201.006 227.916 200.873 227.816C200.84 227.782 200.807 227.782 200.774 227.749C200.741 227.715 200.707 227.715 200.674 227.682C200.641 227.649 200.608 227.615 200.575 227.582L200.541 227.548L200.508 227.515C200.342 227.315 200.209 227.048 200.143 226.814C200.076 226.547 200.043 226.313 200.077 226.079C200.077 225.846 200.143 225.612 200.209 225.412C200.243 225.312 200.309 225.211 200.342 225.111C200.442 224.978 200.508 224.878 200.575 224.777Z" fill="#22262E"/>
<path d="M259.414 211.456C259.946 210.321 260.112 209.153 260.012 208.017C259.912 206.882 259.514 205.814 258.85 204.979C258.186 204.145 257.256 203.51 256.194 203.143C255.131 202.776 253.936 202.676 252.707 202.909C253.205 202.509 253.836 202.275 254.467 202.141C255.098 202.008 255.795 202.008 256.426 202.108C257.09 202.208 257.721 202.442 258.319 202.776C258.451 202.876 258.617 202.976 258.75 203.043L259.149 203.343L259.514 203.711L259.846 204.111L260.145 204.545C260.244 204.679 260.311 204.846 260.41 205.013L260.61 205.48C260.676 205.647 260.709 205.814 260.776 205.981L260.909 206.482C260.942 206.649 260.975 206.816 260.975 206.982C260.975 207.149 261.008 207.316 261.008 207.483V207.984C260.975 208.652 260.809 209.32 260.51 209.92C260.278 210.521 259.912 211.056 259.414 211.456Z" fill="#22262E"/>
<path d="M203 235.127C202.535 239.534 200.144 242.906 197.687 242.639C195.23 242.372 193.636 238.566 194.101 234.159C194.566 229.752 196.957 226.38 199.414 226.647C201.838 226.914 203.465 230.72 203 235.127Z" fill="#FD906C"/>
<path d="M200.906 232.756C200.441 233.324 200.075 233.925 199.876 234.559C199.677 235.194 199.544 235.795 199.544 236.396C199.544 236.696 199.644 237.03 199.777 237.33C199.876 237.631 199.876 237.931 199.777 238.198C199.644 238.466 199.544 238.766 199.278 239.1C199.079 239.434 198.814 239.768 198.349 240.168C198.249 240.235 198.083 240.268 197.95 240.202C196.589 239.534 195.891 238.666 195.559 237.764C195.161 236.83 195.858 236.028 196.257 235.327C196.688 234.593 197.319 233.925 198.083 233.458C198.847 232.957 199.71 232.623 200.706 232.456C200.806 232.423 200.939 232.489 201.005 232.589C200.972 232.656 200.972 232.69 200.906 232.756Z" fill="#D85920"/>
<path d="M197.222 228.884C197.72 228.617 198.351 228.551 198.948 228.717C199.546 228.884 200.077 229.285 200.443 229.819C200.808 230.353 200.941 230.954 201.007 231.522C201.007 231.822 200.974 232.09 200.941 232.39C200.874 232.657 200.808 232.958 200.675 233.225C200.542 232.958 200.476 232.69 200.409 232.423C200.343 232.156 200.243 231.923 200.177 231.689C199.978 231.221 199.812 230.787 199.579 230.42C199.314 230.053 199.048 229.752 198.65 229.519C198.251 229.252 197.786 229.051 197.222 228.884Z" fill="#D85920"/>
<path d="M245.97 406.133C214.425 399.222 182.88 392.345 151.336 385.434C148.646 387.236 135.796 396.117 132.077 404.531C131.147 406.601 130.981 408.303 130.914 408.637C130.748 410.307 132.176 416.951 135.198 420.723C139.216 425.731 148.181 428.402 157.943 426.299C188.027 424.095 218.144 421.892 248.228 419.688C247.498 415.181 246.734 410.641 245.97 406.133Z" fill="#EF6238"/>
<path d="M169.597 390.909C168.734 390.275 167.738 389.807 166.709 389.474C165.679 389.14 164.617 388.939 163.521 388.873C162.458 388.806 161.363 388.839 160.3 389.04C159.237 389.206 158.208 389.54 157.245 390.041C158.341 390.108 159.37 390.108 160.4 390.108C160.765 390.108 162.193 390.175 163.454 390.241C164.849 390.342 166.941 390.509 169.597 390.909Z" fill="#9D3929"/>
<path d="M251.287 397.453C252.051 396.852 253.611 395.75 256.533 393.447C259.754 390.909 261.879 388.973 265.465 386.502C268.919 384.132 270.679 382.963 271.874 382.897C274.63 382.796 277.187 384.098 279.876 386.102C281.072 387.003 282.267 387.904 283.164 389.073C284.027 390.275 284.525 391.811 284.093 393.113C283.994 393.413 283.828 393.714 283.496 393.814C283.197 393.914 282.865 393.781 282.566 393.647C279.71 392.445 277.054 390.709 274.763 388.606C272.837 390.676 270.513 392.345 267.956 393.58C270.446 395.283 272.937 396.952 275.427 398.655C276.988 399.69 278.581 400.825 279.511 402.428C280.74 404.498 280.607 406.935 280.374 409.205C280.142 411.576 279.81 413.946 279.445 416.316C279.345 416.951 279.212 417.619 278.714 418.019C278.183 418.453 277.452 418.386 277.253 418.386C275.593 418.186 274.431 416.083 274.198 415.682C272.571 412.711 274.066 410.908 273.169 408.337C272.638 406.768 271.11 404.731 266.76 402.928C272.737 409.973 273.136 412.878 272.339 414.213C272.007 414.781 270.878 415.949 269.284 416.45C267.557 416.984 266.86 416.216 265.93 416.917C265.067 417.585 265.399 418.52 264.104 420.657C263.739 421.258 263.373 421.692 263.307 421.792C262.51 422.927 259.854 423.328 252.814 421.425C252.814 421.024 252.814 420.59 253.013 420.223C253.412 419.522 254.242 419.288 254.973 418.954C255.703 418.654 256.467 418.019 256.367 417.251C256.268 416.55 255.537 416.116 254.84 415.949C254.474 415.849 254.109 415.816 253.777 415.882C252.781 416.016 252.051 416.851 251.32 417.518C250.689 418.119 249.992 418.62 249.228 419.054C248.83 419.288 248.398 419.488 248.033 419.822C247.999 419.855 247.933 419.922 247.9 419.956C245.642 419.221 243.118 418.32 240.196 417.218C243.583 405.466 247.833 400.124 251.287 397.453Z" fill="#FD906C"/>
<path d="M265.831 415.449C265.964 414.881 265.931 414.313 265.864 413.779C265.798 413.245 265.632 412.711 265.4 412.177C265.2 411.676 264.901 411.175 264.569 410.741C264.237 410.307 263.839 409.906 263.341 409.606C263.474 410.174 263.673 410.674 263.839 411.142C264.038 411.643 264.237 412.11 264.437 412.577C264.636 413.045 264.835 413.512 265.068 414.013C265.3 414.48 265.532 414.981 265.831 415.449Z" fill="#D85920"/>
<path opacity="0.5" d="M279.148 413.545C279.28 413.378 279.48 413.211 279.679 413.145C279.778 413.111 279.878 413.111 279.944 413.145C279.812 414.213 279.646 415.315 279.48 416.383C279.38 417.017 279.247 417.685 278.749 418.086C278.218 418.52 277.487 418.453 277.288 418.453C277.155 418.42 276.989 418.386 276.856 418.353C277.089 416.583 278.085 414.747 279.148 413.545Z" fill="white"/>
<path opacity="0.5" d="M284.259 392.345C282.565 390.842 280.772 388.205 281.503 387.37C282.133 387.904 282.698 388.438 283.163 389.106C283.86 390.041 284.325 391.243 284.259 392.345Z" fill="white"/>
<path d="M203.328 234.169C203.942 228.635 201.544 223.824 197.972 223.423C194.4 223.022 191.007 227.184 190.392 232.718C189.778 238.252 192.176 243.063 195.748 243.463C199.32 243.864 202.714 239.703 203.328 234.169Z" fill="#EF6238"/>
<path d="M216.182 263.808L216.581 262.672C206.254 259.133 201.505 253.124 199.38 248.683C197.056 243.876 197.156 239.803 197.156 239.769L195.96 239.736C195.96 239.903 195.827 244.076 198.285 249.151C200.509 253.792 205.424 260.135 216.182 263.808Z" fill="#282222"/>
<path d="M214.422 262.704C213.99 264.474 216.945 266.777 221.063 267.812C225.18 268.847 228.866 268.246 229.298 266.477C229.729 264.707 226.774 262.404 222.657 261.369C218.539 260.334 214.853 260.935 214.422 262.704Z" fill="#282222"/>
<path d="M187.359 232.357C186.794 237.465 189.218 241.939 192.805 242.34C196.357 242.74 199.711 238.934 200.276 233.826C200.84 228.718 198.416 224.244 194.83 223.843C191.277 223.443 187.923 227.249 187.359 232.357Z" fill="#322C39"/>
<path d="M193.933 197.802C197.918 188.954 206.485 181.442 216.347 178.204C223.287 175.9 230.26 175.9 236.503 178.07C237.466 178.037 238.462 178.304 239.292 178.805C239.79 179.105 240.222 179.472 240.653 179.873C240.819 179.94 240.952 180.04 241.118 180.107C241.849 180.507 242.546 180.941 243.21 181.409C243.476 181.108 243.808 180.841 244.107 180.608C243.31 180.073 242.513 179.539 241.683 179.072C234.112 174.798 224.98 174.097 215.982 177.069C200.143 182.31 193.502 195.899 192.871 197.301C186.396 211.991 192.174 225.279 193.103 227.282C193.402 227.516 193.801 227.583 194.1 227.416C194.465 227.215 194.498 226.815 194.531 226.748C192.506 222.074 188.488 209.888 193.933 197.802Z" fill="#EF6238"/>
<path d="M195.327 425.432H415.478C417.603 425.432 419.33 423.695 419.33 421.559V419.021C419.33 416.885 417.603 415.148 415.478 415.148H195.327C193.202 415.148 191.476 416.885 191.476 419.021V421.559C191.476 423.695 193.202 425.432 195.327 425.432Z" fill="#2A303B"/>
<path d="M287.176 417.919H415.547C422.753 417.919 429.062 413.078 430.954 406.067L456.821 310.815C459.61 300.598 451.94 290.516 441.414 290.516H313.043C305.837 290.516 299.528 295.357 297.635 302.368L271.768 397.62C268.979 407.836 276.616 417.919 287.176 417.919Z" fill="#2A303B"/>
<path d="M287.172 418.42C287.437 418.42 287.67 418.186 287.67 417.919C287.67 417.652 287.437 417.418 287.172 417.418C282.29 417.418 277.808 415.182 274.852 411.309C271.897 407.402 270.934 402.461 272.229 397.754L298.096 302.502C299.922 295.724 306.065 291.017 313.038 291.017H441.41C441.675 291.017 441.908 290.783 441.908 290.516C441.908 290.249 441.675 290.015 441.41 290.015H313.038C305.634 290.015 299.092 295.023 297.133 302.201L271.266 397.453C269.905 402.461 270.934 407.736 274.056 411.876C277.21 416.05 281.992 418.42 287.172 418.42Z" fill="white"/>
<path d="M195.327 425.899H415.478C415.743 425.899 415.976 425.665 415.976 425.398C415.976 425.131 415.743 424.897 415.478 424.897H195.327C193.468 424.897 191.974 423.395 191.974 421.525V418.988C191.974 417.118 193.468 415.616 195.327 415.616H277.543C277.809 415.616 278.041 415.382 278.041 415.115C278.041 414.848 277.809 414.614 277.543 414.614H195.327C192.937 414.614 191.011 416.584 191.011 418.954V421.492C191.011 423.962 192.937 425.899 195.327 425.899Z" fill="white"/>
<path d="M385.483 358.305C388.778 351.84 387.917 344.779 383.56 342.533C379.203 340.288 372.999 343.708 369.703 350.173C366.408 356.638 367.269 363.7 371.626 365.945C375.983 368.191 382.187 364.77 385.483 358.305Z" fill="white"/>
<path d="M90.8705 428.181H449.773C451.914 428.181 453.631 427.332 453.631 426.294C453.631 425.255 451.896 424.406 449.773 424.406H90.8705C88.7293 424.406 87.0127 425.255 87.0127 426.294C87.0127 427.332 88.7478 428.181 90.8705 428.181Z" fill="#2C313D"/>
<path d="M150.937 228.924C150.937 228.924 28.8513 168.194 68.7894 123.516C108.728 78.8381 183.162 96.6998 186.9 143.712C190.686 190.771 100.115 179.721 150.937 228.924Z" fill="#EF6238"/>
<path d="M77.6162 136.432C77.6162 137.095 78.1844 137.663 78.8473 137.663H132.732C133.395 137.663 133.963 137.095 133.963 136.432C133.963 135.77 133.395 135.202 132.732 135.202H78.8473C78.1844 135.202 77.6162 135.77 77.6162 136.432Z" fill="white"/>
<path d="M148.785 137.663H164.789C165.452 137.663 166.02 137.095 166.02 136.432C166.02 135.77 165.452 135.202 164.789 135.202H148.785C148.122 135.202 147.554 135.77 147.554 136.432C147.554 137.095 148.122 137.663 148.785 137.663Z" fill="white"/>
<path d="M75.8174 147.364C75.8174 148.026 76.3856 148.594 77.0485 148.594H97.2671C97.93 148.594 98.4982 148.026 98.4982 147.364C98.4982 146.701 97.93 146.133 97.2671 146.133H77.0485C76.3856 146.133 75.8174 146.654 75.8174 147.364Z" fill="white"/>
<path d="M125.771 147.364C125.771 148.026 126.34 148.594 127.003 148.594H162.989C163.652 148.594 164.22 148.026 164.22 147.364C164.22 146.701 163.652 146.133 162.989 146.133H127.003C126.292 146.133 125.771 146.654 125.771 147.364Z" fill="white"/>
<path d="M75.2487 159.479H129.039C129.702 159.479 130.27 158.911 130.27 158.249C130.27 157.586 129.702 157.018 129.039 157.018H75.2487C74.5858 157.018 74.0176 157.586 74.0176 158.249C74.0176 158.958 74.5384 159.479 75.2487 159.479Z" fill="white"/>
<path d="M142.532 159.479H161.141C161.804 159.479 162.372 158.911 162.372 158.249C162.372 157.586 161.804 157.018 161.141 157.018H142.532C141.869 157.018 141.301 157.586 141.301 158.249C141.301 158.958 141.822 159.479 142.532 159.479Z" fill="white"/>
<path d="M354.54 237.531C379.523 237.531 399.776 217.325 399.776 192.4C399.776 167.476 379.523 147.27 354.54 147.27C329.557 147.27 309.304 167.476 309.304 192.4C309.304 217.325 329.557 237.531 354.54 237.531Z" fill="#EF6238"/>
<path d="M354.019 237.641C379.108 237.641 399.447 217.342 399.447 192.301C399.447 167.261 379.108 146.961 354.019 146.961C328.93 146.961 308.592 167.261 308.592 192.301C308.592 217.342 328.93 237.641 354.019 237.641Z" fill="#EF6238"/>
<path d="M354.5 173.332C351.617 173.22 349.558 172.325 348.369 170.534C347.179 168.8 346.584 166.618 346.584 164.045C346.584 161.472 347.225 159.402 348.552 157.723C349.879 156.045 351.892 155.206 354.592 155.206C357.337 155.206 359.442 155.989 360.907 157.5C362.371 159.066 363.103 161.248 363.103 164.101C363.103 166.954 362.417 169.248 360.998 170.87C359.58 172.66 357.429 173.443 354.5 173.332Z" fill="white"/>
<path d="M363.103 178.288H346.584V221.155H363.103V178.288Z" fill="white"/>
<path d="M365.645 221.155H339.218C338.721 221.155 338.335 220.851 338.335 220.461C338.335 219.94 338.887 219.506 339.549 219.506H365.479C365.976 219.506 366.417 219.81 366.417 220.244V220.591C366.362 220.895 366.031 221.155 365.645 221.155Z" fill="white"/>
<path d="M363.11 179.937H337.77C337.147 179.937 336.68 179.546 336.68 179.026C336.68 178.635 337.095 178.288 337.562 178.288H362.175C362.695 178.288 363.11 178.635 363.11 179.069V179.937Z" fill="white"/>
</g>
<defs>
<clipPath id="clip0_0_1">
<rect width="418" height="370" fill="white" transform="translate(61 65)"/>
</clipPath>
</defs>
</svg>
