<svg width="540" height="540" viewBox="0 0 540 540" fill="none" xmlns="http://www.w3.org/2000/svg">
<path d="M270 540C419.117 540 540 419.117 540 270C540 120.883 419.117 0 270 0C120.883 0 0 120.883 0 270C0 419.117 120.883 540 270 540Z" fill="white"/>
<path d="M356.445 225.61L478.5 177.564L431.521 96.0952L309.465 144.141L356.445 225.61Z" fill="#414141"/>
<path d="M269.642 452.975C370.329 452.975 451.951 371.049 451.951 269.988C451.951 168.927 370.329 87.0005 269.642 87.0005C168.955 87.0005 87.332 168.927 87.332 269.988C87.332 371.049 168.955 452.975 269.642 452.975Z" fill="#EF6238"/>
<path d="M119.667 432.442L245.53 382.867L197.103 298.851L71.2148 348.4L119.667 432.442Z" fill="#414141"/>
<path d="M308.018 182.34L401.266 345.864L441.393 330.07C448.145 310.938 451.825 290.354 451.825 268.929C451.825 221.011 433.474 177.398 403.449 144.79L308.018 182.34Z" fill="#ECF5FF"/>
<path d="M308.018 182.396L401.266 345.921L441.393 330.126C448.145 310.994 451.825 290.411 451.825 268.986C451.825 251.205 449.287 234.034 444.591 217.781L338.297 170.474L308.018 182.396Z" fill="white"/>
<path d="M418.068 314.187L420.403 307.589C420.429 307.563 420.429 307.512 420.454 307.487C420.683 306.672 420.581 305.729 420.073 304.838L342.307 169.973L308.119 183.423L389.667 326.415L416.368 315.894C417.231 315.588 417.815 314.951 418.068 314.187Z" fill="#ECF5FF"/>
<path d="M399.792 296.507L395.325 297.347L304.259 139.402C303.218 137.619 300.959 136.727 299.183 137.441L65.5533 229.405L62.3553 226.068L60.0203 232.692C59.7411 233.532 59.8426 234.5 60.3756 235.418L153.218 396.445C154.259 398.229 156.518 399.12 158.294 398.407L395.756 304.939C396.594 304.608 397.178 303.971 397.431 303.232L399.792 296.507Z" fill="#111A2C"/>
<path d="M399.413 293.858C400.454 295.641 399.845 297.653 398.043 298.367L160.581 391.835C158.804 392.548 156.52 391.656 155.505 389.873L62.6619 228.871C61.6213 227.087 62.2305 225.075 64.0325 224.362L301.494 130.894C303.271 130.18 305.555 131.072 306.571 132.855L399.413 293.858Z" fill="#20293E"/>
<path d="M163.549 379.556L77.8892 230.858L95.5034 223.929L79.945 218.095L64.0059 224.362C62.2293 225.075 61.6201 227.087 62.6354 228.871L155.478 389.898C156.519 391.682 158.777 392.573 160.554 391.86L324.996 327.128L311.722 321.218L163.549 379.556Z" fill="#282D39"/>
<path d="M164.768 375.658L380.2 290.851L297.306 147.07L81.8496 231.876L164.768 375.658Z" fill="#FFFEFE"/>
<path d="M261.799 268.001C247.763 268.001 233.753 260.689 226.875 248.538C222.484 240.768 221.595 232.157 224.387 224.311C227.255 216.184 233.677 209.841 242.408 206.427C260.123 199.524 282.002 207.115 291.189 223.343C295.58 231.113 296.469 239.723 293.677 247.57C290.809 255.696 284.387 262.039 275.656 265.453C271.215 267.185 266.494 268.001 261.799 268.001ZM256.291 204.644C251.672 204.644 247.052 205.459 242.687 207.141C234.159 210.478 227.915 216.643 225.123 224.566C222.408 232.208 223.271 240.589 227.56 248.156C236.57 264.077 258.017 271.516 275.403 264.74C283.931 261.403 290.174 255.238 292.966 247.315C295.682 239.672 294.819 231.291 290.53 223.725C283.778 211.803 270.073 204.644 256.291 204.644Z" fill="white"/>
<path d="M163.448 239.087L276.722 194.505L258.245 162.432L144.971 207.039L163.448 239.087Z" fill="#E8E8E8"/>
<path d="M284.389 229.151C290.708 240.309 285.937 253.225 273.754 257.989C261.571 262.753 246.546 257.556 240.251 246.372C233.932 235.214 238.703 222.298 250.886 217.534C263.069 212.796 278.094 217.993 284.389 229.151Z" fill="#C8E2FA"/>
<path d="M337.815 229.457C337.815 229.457 332.714 223.343 328.247 222.578C323.78 221.814 317.942 227.113 317.942 227.113C317.942 227.113 314.744 223.801 312.409 223.062C310.074 222.349 306.775 222.629 302.739 228.336C298.704 234.042 292.638 243.57 292.638 243.57C292.638 243.57 278.272 239.927 269.77 235.392C261.267 230.832 255.506 226.654 255.836 234.399C256.09 240.844 271.419 251.391 286.724 259.772C285.607 262.268 284.338 266.497 287.689 267.796C290.734 268.994 296.216 267.796 299.846 266.752C313.475 275.159 334.084 294.825 343.704 305.194L380.176 290.826L344.313 228.616C340.709 228.106 337.815 229.457 337.815 229.457Z" fill="#C8E2FA"/>
<path d="M281.113 226.63C287.433 237.788 282.661 250.704 270.479 255.468C258.296 260.232 243.271 255.035 236.976 243.851C230.656 232.693 235.428 219.777 247.611 215.013C259.793 210.275 274.793 215.472 281.113 226.63Z" fill="#EF6238"/>
<path d="M270.81 230.655C274.186 236.616 271.648 243.494 265.125 246.016C258.628 248.564 250.633 245.787 247.257 239.826C243.881 233.865 246.42 226.986 252.942 224.464C259.44 221.917 267.435 224.694 270.81 230.655Z" fill="white"/>
<path d="M310.806 279.922C293.674 269.732 281.136 279.744 292.202 288.049C299.842 293.781 311.238 303.487 322.101 313.728L341.898 305.932C334.334 298.698 322.025 286.597 310.806 279.922Z" fill="#C8E2FA"/>
<path d="M255.806 234.424C256.01 239.213 264.512 246.245 275.147 252.995C279.537 249.989 282.405 245.684 283.446 240.92C278.979 239.468 273.725 237.532 269.74 235.418C261.238 230.883 255.502 226.68 255.806 234.424Z" fill="#F24B64"/>
<path d="M421.976 270.395C399.844 257.148 357.306 219.801 351.138 213.917C344.971 208.057 337.306 212.948 337.306 212.948C337.306 212.948 332.204 207.726 327.737 207.726C323.27 207.726 317.433 214.018 317.433 214.018C317.433 214.018 314.235 211.242 311.9 210.91C309.565 210.579 306.265 211.445 302.23 217.84C298.194 224.234 292.128 234.806 292.128 234.806C292.128 234.806 277.763 233.634 269.26 230.526C260.757 227.418 254.996 224.234 255.326 231.902C255.656 239.595 277.763 249.505 295.427 255.186C313.092 260.842 349.894 292.125 348.499 293.399C347.128 294.672 327.433 275.26 310.326 268C293.194 260.74 280.656 272.917 291.722 279.311C302.788 285.705 321.773 299.131 335.554 311.333C356.087 329.522 392.103 334.541 407.458 334.388C415.707 334.312 427.737 336.452 438.6 338.897C446.011 320.632 450.554 300.888 451.696 280.254C443.854 279.54 433.169 277.095 421.976 270.395Z" fill="white"/>
<path d="M422.485 272.866C400.354 259.619 357.815 222.273 351.648 216.388C345.48 210.529 337.815 215.42 337.815 215.42C337.815 215.42 332.714 210.198 328.247 210.198C323.78 210.198 317.942 216.49 317.942 216.49C317.942 216.49 314.744 213.713 312.409 213.382C310.074 213.051 306.775 213.917 302.739 220.311C298.704 226.706 292.638 237.278 292.638 237.278C292.638 237.278 278.272 236.106 269.77 232.998C261.267 229.89 255.506 226.706 255.836 234.374C256.166 242.067 278.272 251.977 295.937 257.658C313.602 263.313 350.404 294.597 349.008 295.87C347.638 297.144 327.942 277.732 310.836 270.472C293.704 263.211 281.166 275.388 292.232 281.783C303.298 288.177 322.282 301.602 336.064 313.805C356.597 331.994 392.612 337.013 407.968 336.86C415.861 336.783 427.232 338.745 437.714 341.063C445.354 322.899 450.15 303.233 451.546 282.649C443.755 281.859 433.374 279.388 422.485 272.866Z" fill="url(#paint0_linear_0_1)"/>
<path d="M287.687 252.435C287.687 252.435 282.814 261.3 287.687 262.37C292.56 263.466 303.525 257.403 303.525 257.403L287.687 252.435Z" fill="url(#paint1_linear_0_1)"/>
<path d="M294.794 155.146L92.5859 234.908L97.3829 243.264L299.616 163.476L294.794 155.146Z" fill="#626262"/>
<path d="M293.725 157.413L290.553 158.661L293.7 164.088L296.873 162.839L293.725 157.413Z" fill="white"/>
<path d="M289.387 159.12L286.215 160.368L289.337 165.795L292.509 164.546L289.387 159.12Z" fill="white"/>
<path d="M148.246 264.154L154.337 265.759L190.987 251.289L172.51 219.241L102.434 246.907L119.033 275.694L148.246 264.154Z" fill="#FF7044"/>
<path d="M104.031 232.055L98.752 240.844L107.178 237.481L104.031 232.055Z" fill="white"/>
<path d="M285.048 160.853L281.875 162.101L284.997 167.527L288.169 166.279L285.048 160.853Z" fill="#FF7044"/>
<path d="M280.706 162.559L277.533 163.807L280.655 169.259L283.828 167.985L280.706 162.559Z" fill="#FF7044"/>
<path d="M153.17 221.253L266.393 176.596L261.596 168.24L148.373 212.898L153.17 221.253Z" fill="#565656"/>
<path d="M160.428 244.41L145.504 243.748C145.631 245.557 146.189 247.391 147.179 249.149C151.062 256.002 160.276 259.211 167.763 256.282C167.864 256.231 167.966 256.205 168.067 256.154L160.428 244.41Z" fill="white"/>
<path d="M160.402 243.29L166.621 231.852C162.585 230.094 157.864 229.814 153.702 231.444C148.55 233.457 145.555 237.864 145.453 242.628L160.402 243.29Z" fill="#ECF5FF"/>
<path d="M174.286 238.577C172.763 235.877 170.403 233.737 167.636 232.31L161.367 243.825L169.058 255.671C171.849 254.244 173.88 252.079 174.997 249.531C176.494 246.219 176.367 242.245 174.286 238.577Z" fill="#ECF5FF"/>
<path d="M418.93 216.134L400.453 223.42L401.138 224.617L419.616 217.331L418.93 216.134Z" fill="#B5B5B5"/>
<path d="M407.357 223.598L401.85 225.764L402.535 226.961L408.042 224.795L407.357 223.598Z" fill="#B5B5B5"/>
<path d="M293.524 194.403L285.605 197.537L286.316 198.76L294.209 195.652L293.524 194.403Z" fill="#292E3A"/>
<path d="M298.347 195.473L287.053 199.956L287.763 201.205L299.058 196.695L298.347 195.473Z" fill="#292E3A"/>
<path d="M201.848 230.247L197.889 231.801L198.599 233.023L202.559 231.469L201.848 230.247Z" fill="#292E3A"/>
<path d="M210.658 229.737L199.338 234.22L200.049 235.443L211.368 230.96L210.658 229.737Z" fill="#292E3A"/>
<path d="M180.909 266.65L152.609 277.91L154.589 281.324L182.863 270.064L180.909 266.65Z" fill="#FF7144"/>
<path d="M197.533 266.65L155.73 283.235L157.685 286.648L199.512 270.064L197.533 266.65Z" fill="#FF7044"/>
<path d="M407.914 321.727C392.558 321.88 356.543 320.861 336.01 302.672C323.751 291.82 299.437 276.484 300.147 278.216C300.756 279.744 300.807 281.222 300.198 282.445C299.64 283.566 298.574 284.381 297.178 284.839C308.371 291.896 324.132 303.334 336.036 313.856C356.569 332.045 392.584 337.063 407.939 336.91C415.833 336.834 427.203 338.796 437.685 341.114C439.944 335.713 441.975 330.211 443.726 324.555C431.772 323.103 417.355 321.651 407.914 321.727Z" fill="#EA5D54"/>
<path d="M302.279 239.698C302.279 239.698 320.452 243.876 336.467 254.753C352.203 265.428 310.503 221.279 309.437 227.24C308.802 230.934 306.086 235.8 302.279 239.698Z" fill="#EA5D54"/>
<path d="M293.067 255.772C291.9 257.81 288.55 262.651 285.555 259.746C285.656 261.02 286.24 262.065 287.687 262.37C290.961 263.109 296.976 260.613 300.58 258.906C300.58 258.906 294.057 253.989 293.067 255.772Z" fill="#EA5D54"/>
<path d="M317.939 216.49C317.939 216.49 340.579 237.558 347.178 244.334C354.386 251.722 338.523 232.692 323.676 215.726C322.33 214.223 317.939 216.49 317.939 216.49Z" fill="#EA5D54"/>
<path d="M337.812 215.42C337.812 215.42 350.477 228.973 354.234 233.508C356.873 236.692 348.32 223.063 342.609 215.522C341.899 214.58 337.812 215.42 337.812 215.42Z" fill="#EA5D54"/>
<path d="M154.032 235.01L267.306 190.429L223.727 114.819L110.453 159.426L154.032 235.01Z" fill="white"/>
<path d="M169.616 363.251L274.033 322.007L244.033 269.987L178.17 295.997L171.088 294.138L137.408 307.436L169.616 363.251Z" fill="#292E3A"/>
<path d="M173.297 356.577L158.018 330.057L158.297 329.955L250.632 293.348L265.911 319.867L265.632 319.969L173.297 356.577ZM158.754 330.312L173.525 355.94L265.2 319.587L250.429 293.959L158.754 330.312Z" fill="white"/>
<path d="M186.339 319.007L186.01 319.199L201.049 345.282L201.379 345.091L186.339 319.007Z" fill="white"/>
<path d="M216.16 307.321L215.83 307.513L230.87 333.596L231.199 333.405L216.16 307.321Z" fill="white"/>
<path d="M241.644 297.25L241.314 297.442L256.354 323.525L256.684 323.334L241.644 297.25Z" fill="white"/>
<path d="M254.219 299.995L162.059 336.524L162.198 336.88L254.359 300.35L254.219 299.995Z" fill="white"/>
<path d="M257.988 306.496L165.828 343.026L165.968 343.381L258.128 306.852L257.988 306.496Z" fill="white"/>
<path d="M261.732 313.037L169.572 349.566L169.712 349.922L261.872 313.392L261.732 313.037Z" fill="white"/>
<path d="M222.431 160.368C213.497 144.548 192.278 137.186 174.994 143.886L179.74 152.114C192.025 147.427 207.05 152.674 213.421 163.883C213.421 163.909 213.446 163.934 213.446 163.96L222.456 160.419C222.456 160.393 222.431 160.393 222.431 160.368Z" fill="#292E3A"/>
<path d="M208.371 165.871C213.295 174.583 209.589 184.646 200.072 188.365C190.554 192.085 178.853 188.009 173.93 179.296C169.006 170.584 172.711 160.521 182.229 156.802C191.721 153.082 203.422 157.158 208.371 165.871Z" fill="#B5B5B5"/>
<path d="M212.71 185.309C210.401 188.595 207 191.295 202.685 192.977C190.375 197.766 175.248 192.518 168.852 181.258C162.482 169.998 167.279 156.955 179.588 152.166C179.639 152.14 179.69 152.14 179.741 152.115L174.995 143.886C174.969 143.886 174.944 143.912 174.918 143.912C157.634 150.663 150.883 168.954 159.842 184.774C168.802 200.594 190.071 207.981 207.355 201.231C213.421 198.861 218.192 195.066 221.441 190.455L212.71 185.309Z" fill="url(#paint2_linear_0_1)"/>
<path d="M221.442 190.455C227.432 181.946 228.244 170.66 222.457 160.419L213.447 163.96C213.447 163.935 213.422 163.91 213.422 163.884C217.559 171.195 216.975 179.245 212.711 185.309L221.442 190.455Z" fill="#292E3A"/>
<path d="M189.743 165.845L177.637 170.584L179.616 173.997L191.698 169.233L189.743 165.845Z" fill="white"/>
<path d="M202.661 167.271L180.758 175.908L182.712 179.321L204.641 170.66L202.661 167.271Z" fill="white"/>
<path d="M137.435 155.961L121.598 162.177L122.283 163.4L138.146 157.184L137.435 155.961Z" fill="#B5B5B5"/>
<path d="M131.19 161.388L123.018 164.598L123.728 165.846L131.875 162.61L131.19 161.388Z" fill="#B5B5B5"/>
<path d="M149.817 284.992C152.584 289.909 150.503 295.59 145.147 297.679C139.792 299.768 133.193 297.475 130.401 292.558C127.635 287.642 129.716 281.961 135.071 279.872C140.427 277.783 147.026 280.076 149.817 284.992Z" fill="#FF7044"/>
<path d="M276.798 391.427L248.498 402.687L250.452 406.1L278.752 394.84L276.798 391.427Z" fill="white"/>
<path d="M293.423 391.427L251.621 408.011L253.575 411.425L295.377 394.84L293.423 391.427Z" fill="white"/>
<path d="M245.683 409.769C248.449 414.686 246.368 420.367 241.013 422.456C235.657 424.545 229.058 422.252 226.266 417.335C223.5 412.418 225.581 406.738 230.936 404.649C236.317 402.56 242.916 404.852 245.683 409.769Z" fill="white"/>
<path d="M119.409 360.985C122.176 365.902 120.094 371.583 114.739 373.671C109.384 375.76 102.785 373.468 99.993 368.551C97.2265 363.634 99.3077 357.953 104.663 355.864C110.018 353.775 116.617 356.068 119.409 360.985Z" fill="white"/>
<path d="M453.423 160.394C456.19 165.311 454.108 170.992 448.753 173.081C443.398 175.17 436.799 172.877 434.007 167.96C431.24 163.043 433.321 157.363 438.677 155.274C444.032 153.21 450.631 155.477 453.423 160.394Z" fill="white"/>
<path d="M197.382 233.992C198.118 235.316 197.56 236.845 196.113 237.405C194.667 237.966 192.89 237.354 192.154 236.03C191.418 234.705 191.976 233.176 193.423 232.616C194.87 232.056 196.646 232.667 197.382 233.992Z" fill="#292E3A"/>
<path d="M285.248 200.186C285.984 201.511 285.425 203.039 283.979 203.6C282.532 204.16 280.755 203.549 280.019 202.224C279.283 200.899 279.842 199.371 281.288 198.81C282.71 198.25 284.486 198.861 285.248 200.186Z" fill="#292E3A"/>
<path d="M260.199 298.061L244.031 269.987L219.209 279.795L260.199 298.061Z" fill="#292E3A"/>
<path d="M177.51 303.055L149.211 314.315L151.165 317.728L179.465 306.468L177.51 303.055Z" fill="white"/>
<path d="M288.321 333.064L260.021 344.324L261.976 347.712L290.275 336.452L288.321 333.064Z" fill="#111A2C"/>
<path d="M194.716 304.226L152.914 320.81L154.868 324.224L196.67 307.64L194.716 304.226Z" fill="white"/>
<path d="M392.204 192.365L364.412 191.142C364.666 194.505 365.681 197.918 367.534 201.205C374.767 213.968 391.925 219.929 405.859 214.477C406.036 214.401 406.24 214.324 406.417 214.248L392.204 192.365Z" fill="url(#paint3_linear_0_1)"/>
<path d="M392.181 190.276L403.754 168.953C396.267 165.693 387.485 165.183 379.693 168.215C370.074 171.959 364.516 180.137 364.338 189.053L392.181 190.276Z" fill="#292E3A"/>
<path d="M418.018 181.512C415.175 176.468 410.759 172.494 405.632 169.87L393.982 191.32L408.323 213.382C413.526 210.732 417.307 206.682 419.388 201.969C422.13 195.727 421.901 188.34 418.018 181.512Z" fill="#B5B5B5"/>
<path d="M411.875 185.258L402.637 188.901L403.322 190.098L412.561 186.455L411.875 185.258Z" fill="white"/>
<path d="M409.539 189.08L404.057 191.245L404.742 192.442L410.224 190.251L409.539 189.08Z" fill="white"/>
<path d="M383.701 199.651L378.473 201.714L379.183 202.912L384.412 200.848L383.701 199.651Z" fill="white"/>
<path d="M388.37 200.695L379.893 204.083L380.578 205.281L389.055 201.893L388.37 200.695Z" fill="white"/>
<path d="M385.858 174.915L378.473 177.845L379.183 179.042L386.544 176.112L385.858 174.915Z" fill="white"/>
<path d="M388.928 176.597L379.893 180.214L380.578 181.411L389.639 177.794L388.928 176.597Z" fill="white"/>
<path d="M180.225 323.358L161.215 330.822L161.925 332.07L180.936 324.581L180.225 323.358Z" fill="white"/>
<path d="M168.32 331L162.66 333.268L163.371 334.491L169.031 332.249L168.32 331Z" fill="white"/>
<path d="M219.793 331.484L200.809 338.974L201.494 340.196L220.504 332.707L219.793 331.484Z" fill="white"/>
<path d="M207.888 339.152L202.229 341.394L202.939 342.616L208.599 340.375L207.888 339.152Z" fill="white"/>
<path d="M181.926 338.592L168.729 343.789L169.439 345.037L182.637 339.84L181.926 338.592Z" fill="white"/>
<path d="M175.834 343.967L170.174 346.235L170.884 347.457L176.544 345.216L175.834 343.967Z" fill="white"/>
<path d="M235.454 309.321L222.256 314.518L222.967 315.741L236.164 310.544L235.454 309.321Z" fill="white"/>
<path d="M229.361 314.696L223.701 316.938L224.412 318.161L230.072 315.919L229.361 314.696Z" fill="white"/>
<path d="M179.106 331.765L164.918 337.369L165.629 338.592L179.816 332.987L179.106 331.765Z" fill="white"/>
<path d="M188.8 330.873L166.363 339.789L167.074 341.012L189.51 332.095L188.8 330.873Z" fill="white"/>
<path d="M126.52 251.671L113.322 256.868L114.033 258.091L127.231 252.894L126.52 251.671Z" fill="white"/>
<path d="M120.402 257.046L114.768 259.288L115.478 260.536L121.113 258.295L120.402 257.046Z" fill="white"/>
<path d="M123.7 244.844L109.512 250.448L110.222 251.671L124.41 246.067L123.7 244.844Z" fill="white"/>
<path d="M133.368 243.952L110.957 252.868L111.668 254.091L134.079 245.175L133.368 243.952Z" fill="white"/>
<path d="M416.115 122.156L400.303 128.372L401.166 129.849L416.953 123.633L416.115 122.156Z" fill="white"/>
<path d="M408.804 128.575L402.027 131.276L402.89 132.753L409.642 130.053L408.804 128.575Z" fill="white"/>
<path d="M106.216 343.407L90.4297 349.623L91.2673 351.1L107.079 344.884L106.216 343.407Z" fill="white"/>
<path d="M98.9309 349.852L92.1543 352.552L93.0172 354.004L99.7685 351.33L98.9309 349.852Z" fill="white"/>
<path d="M412.739 113.978L395.76 120.677L396.597 122.155L413.577 115.43L412.739 113.978Z" fill="white"/>
<path d="M424.337 112.882L397.484 123.582L398.322 125.059L425.175 114.36L424.337 112.882Z" fill="white"/>
<path d="M441.901 287.565C444.262 288.584 412.155 283.235 385.734 263.084C376.165 255.772 365.759 239.902 368.703 238.577C371.013 237.532 379.185 247.009 389.262 255.314C409.084 271.694 432.079 283.362 441.901 287.565Z" fill="#FCA99B"/>
<path d="M383.778 305.296C382.458 308.404 375.986 308.608 369.26 305.754C362.559 302.901 358.168 298.086 359.488 294.978C360.808 291.87 367.28 291.667 374.006 294.52C380.706 297.373 385.097 302.188 383.778 305.296Z" fill="#FCA99B"/>
<path d="M399.59 270.854C398.752 272.127 393.169 269.835 387.128 265.759C381.087 261.683 376.874 257.352 377.737 256.078C378.575 254.804 384.158 257.097 390.199 261.173C396.214 265.249 400.427 269.605 399.59 270.854Z" fill="#FDC5BC"/>
<path d="M414.717 279.948C414.413 280.509 412.027 279.795 409.387 278.369C406.748 276.942 404.819 275.337 405.123 274.777C405.428 274.216 407.814 274.93 410.453 276.356C413.118 277.808 415.022 279.413 414.717 279.948Z" fill="#FDC5BC"/>
<path d="M257.203 233.227C263.7 236.487 269.995 237.099 271.264 234.602C271.416 234.296 271.467 233.991 271.492 233.634C270.883 233.456 270.324 233.252 269.766 233.048C262.076 230.246 256.619 227.367 255.908 232.539C256.314 232.768 256.746 232.997 257.203 233.227Z" fill="#FDC5BC"/>
<path d="M348.981 295.921C348.93 295.972 348.854 295.998 348.753 295.972C354.92 297.119 331.824 264.256 298.296 252.436C280.174 246.041 266.57 242.144 260.961 238.704C255.352 235.265 256.392 230.935 256.392 230.935C255.961 231.699 255.758 232.82 255.834 234.425C256.164 242.118 278.271 252.028 295.936 257.709C313.575 263.364 350.377 294.648 348.981 295.921Z" fill="#EA5D54"/>
<path d="M194.867 241.302L194.664 240.767L213.09 233.277L221.923 235.647L221.771 236.207L213.141 233.889L194.867 241.302Z" fill="#292E3A"/>
<path d="M69.7446 177.259L60.8867 180.749L62.4857 183.5L71.3182 180.01L69.7446 177.259Z" fill="#292E3A"/>
<path d="M89.3905 176.138L64.1113 186.175L65.7103 188.926L90.9895 178.889L89.3905 176.138Z" fill="#292E3A"/>
<path d="M59.7446 185.665C61.4197 188.62 60.1507 192.034 56.9273 193.308C53.704 194.556 49.7192 193.18 48.0441 190.225C46.369 187.27 47.638 183.856 50.8614 182.583C54.1101 181.334 58.0695 182.71 59.7446 185.665Z" fill="#292E3A"/>
<path d="M54.1346 201.995L53.6523 200.798L94.8706 184.086L114.617 189.385L114.261 190.633L94.9722 185.462L54.1346 201.995Z" fill="#292E3A"/>
<path d="M126.291 169.896L126.062 169.361L144.514 161.871L153.321 164.24L153.194 164.801L144.54 162.508L126.291 169.896Z" fill="#B5B5B5"/>
<path d="M282.89 211.879L282.383 211.599L285.961 205.204L302.154 198.606L302.383 199.141L286.368 205.663L282.89 211.879Z" fill="#292E3A"/>
<path d="M206.443 142.765L205.936 142.485L209.514 136.09L225.707 129.467L225.936 130.027L209.92 136.549L206.443 142.765Z" fill="#B5B5B5"/>
<path d="M213.499 126.155L205.605 129.289L206.316 130.512L214.21 127.404L213.499 126.155Z" fill="#B5B5B5"/>
<path d="M218.347 127.226L207.053 131.709L207.738 132.957L219.058 128.448L218.347 127.226Z" fill="#B5B5B5"/>
<defs>
<linearGradient id="paint0_linear_0_1" x1="324.383" y1="329.907" x2="427.523" y2="131.514" gradientUnits="userSpaceOnUse">
<stop stop-color="#FA8875"/>
<stop offset="1" stop-color="#FCA99B"/>
</linearGradient>
<linearGradient id="paint1_linear_0_1" x1="271.187" y1="302.252" x2="374.326" y2="103.86" gradientUnits="userSpaceOnUse">
<stop stop-color="#FA8875"/>
<stop offset="1" stop-color="#FCA99B"/>
</linearGradient>
<linearGradient id="paint2_linear_0_1" x1="146.136" y1="284.48" x2="244.223" y2="40.1702" gradientUnits="userSpaceOnUse">
<stop stop-color="#FF9D43"/>
<stop offset="1" stop-color="#FF5343"/>
</linearGradient>
<linearGradient id="paint3_linear_0_1" x1="324.309" y1="356.013" x2="422.396" y2="111.704" gradientUnits="userSpaceOnUse">
<stop stop-color="#FF9D43"/>
<stop offset="1" stop-color="#FF5343"/>
</linearGradient>
</defs>
</svg>
