<svg width="540" height="540" viewBox="0 0 540 540" fill="none" xmlns="http://www.w3.org/2000/svg">
<path d="M270 540C419.117 540 540 419.117 540 270C540 120.883 419.117 0 270 0C120.883 0 0 120.883 0 270C0 419.117 120.883 540 270 540Z" fill="white"/>
<g clip-path="url(#clip0_494_1683)">
<path d="M493.044 247.829C493.044 258.042 484.756 266.313 474.521 266.313C464.286 266.313 455.998 258.042 455.998 247.829C455.998 237.616 464.286 229.345 474.521 229.345C484.756 229.345 493.044 237.645 493.044 247.829Z" fill="#2A2F3A"/>
<path d="M471.926 259.339C470.893 259.339 469.891 258.839 469.271 258.015L463.402 250.215C462.31 248.743 462.605 246.683 464.051 245.564C465.525 244.475 467.59 244.77 468.711 246.212L471.926 250.48L480.302 239.325C481.394 237.853 483.488 237.559 484.963 238.677C486.437 239.766 486.732 241.856 485.611 243.327L474.58 258.015C473.961 258.868 472.988 259.339 471.926 259.339Z" fill="#EAF0FD"/>
<path d="M443.435 264.488C443.435 262.928 442.166 261.398 440.603 261.074L434.557 259.779C431.696 259.161 429.424 257.071 428.51 254.304C427.507 251.243 426.268 248.27 424.823 245.445C423.496 242.855 423.643 239.764 425.207 237.321L428.569 232.141C429.454 230.817 429.247 228.815 428.156 227.726L425.885 225.43L417.243 216.806L414.972 214.54C413.851 213.451 411.875 213.245 410.548 214.128L405.357 217.483C402.908 219.073 399.812 219.191 397.216 217.866C394.384 216.424 391.405 215.188 388.338 214.216C385.565 213.304 383.471 211.038 382.852 208.183L381.554 202.149C381.23 200.589 379.696 199.323 378.133 199.323H374.888H362.648H359.403C357.84 199.323 356.306 200.589 355.982 202.149L354.684 208.183C354.065 211.038 351.971 213.304 349.198 214.216C346.131 215.217 343.152 216.453 340.32 217.866C337.725 219.191 334.628 219.043 332.18 217.483L326.988 214.128C325.661 213.275 323.656 213.451 322.564 214.54L320.293 216.836L311.651 225.46L309.38 227.756C308.289 228.845 308.082 230.846 308.967 232.171L312.329 237.351C313.922 239.794 314.04 242.884 312.713 245.474C311.268 248.3 310.029 251.273 309.026 254.334C308.112 257.1 305.841 259.19 302.98 259.808L296.933 261.103C295.37 261.427 294.102 262.958 294.102 264.517V267.755V279.97V283.207C294.102 284.767 295.37 286.298 296.933 286.622L302.98 287.917C305.841 288.535 308.112 290.625 309.026 293.391C310.029 296.452 311.268 299.425 312.713 302.251C314.04 304.841 313.893 307.931 312.329 310.374L308.967 315.554C308.112 316.879 308.289 318.88 309.38 319.969L311.681 322.236L320.323 330.86L322.623 333.126C323.714 334.215 325.72 334.421 327.047 333.538L332.239 330.183C334.687 328.593 337.784 328.475 340.379 329.8C343.211 331.242 346.19 332.478 349.257 333.45C352.03 334.362 354.124 336.628 354.743 339.483L356.041 345.517C356.365 347.077 357.899 348.343 359.462 348.343H362.707H374.918H378.162C379.725 348.343 381.259 347.077 381.584 345.517L382.881 339.483C383.501 336.628 385.595 334.362 388.367 333.45C391.435 332.449 394.414 331.213 397.245 329.771C399.841 328.446 402.938 328.593 405.386 330.153L410.577 333.509C411.904 334.392 413.91 334.186 415.001 333.096L417.273 330.801L425.915 322.177L428.186 319.881C429.277 318.792 429.483 316.791 428.599 315.466L425.236 310.286C423.643 307.843 423.525 304.752 424.853 302.162C426.298 299.337 427.537 296.364 428.54 293.303C429.454 290.536 431.725 288.447 434.586 287.828L440.633 286.533C442.196 286.21 443.464 284.679 443.464 283.119V279.882V267.667V264.488H443.435ZM369.314 302.251C353.15 302.545 339.966 289.418 340.261 273.259C340.556 258.042 352.973 245.621 368.222 245.357C384.386 245.062 397.57 258.189 397.275 274.348C396.98 289.565 384.563 301.956 369.314 302.251Z" fill="#2A2F3A"/>
<path d="M224.228 382.927C224.228 381.602 223.137 380.278 221.81 379.984L216.618 378.894C214.17 378.365 212.194 376.569 211.427 374.185C210.572 371.566 209.51 369.005 208.271 366.591C207.151 364.355 207.239 361.706 208.625 359.616L211.516 355.171C212.253 354.024 212.106 352.316 211.162 351.375L209.186 349.403L201.753 341.985L199.777 340.013C198.833 339.072 197.122 338.895 195.972 339.66L191.518 342.545C189.424 343.899 186.74 344.016 184.528 342.898C182.08 341.662 179.543 340.602 176.918 339.749C174.529 338.983 172.73 337.011 172.199 334.568L171.078 329.388C170.783 328.034 169.485 326.975 168.129 326.975H165.356H154.856H152.083C150.756 326.975 149.429 328.064 149.134 329.388L148.043 334.568C147.512 337.011 145.713 338.983 143.323 339.749C140.698 340.602 138.132 341.662 135.714 342.898C133.472 344.016 130.818 343.928 128.723 342.545L124.27 339.66C123.119 338.924 121.409 339.072 120.465 340.013L118.518 341.985L111.085 349.403L109.109 351.375C108.165 352.316 107.988 354.024 108.755 355.171L111.646 359.616C113.003 361.706 113.121 364.384 112 366.591C110.761 369.034 109.699 371.566 108.844 374.185C108.077 376.569 106.101 378.365 103.653 378.894L98.4616 379.984C97.1048 380.278 96.043 381.573 96.043 382.927V385.693V396.172V398.938C96.043 400.292 97.1343 401.587 98.4616 401.882L103.653 402.971C106.101 403.501 108.077 405.296 108.844 407.68C109.699 410.3 110.761 412.86 112 415.274C113.121 417.511 113.032 420.16 111.646 422.249L108.755 426.694C108.018 427.842 108.165 429.549 109.109 430.491L111.085 432.433L118.518 439.85L120.494 441.822C121.438 442.764 123.149 442.941 124.299 442.175L128.753 439.291C130.847 437.937 133.531 437.819 135.743 438.938C138.191 440.174 140.728 441.234 143.353 442.087C145.742 442.852 147.541 444.824 148.072 447.267L149.163 452.448C149.458 453.772 150.756 454.861 152.113 454.861H154.885H165.386H168.158C169.485 454.861 170.813 453.772 171.108 452.448L172.229 447.267C172.759 444.824 174.559 442.852 176.948 442.087C179.573 441.234 182.139 440.174 184.557 438.938C186.799 437.819 189.454 437.908 191.548 439.291L196.001 442.175C197.152 442.911 198.862 442.764 199.806 441.822L201.782 439.85L209.215 432.433L211.191 430.461C212.135 429.519 212.312 427.812 211.545 426.664L208.655 422.22C207.298 420.13 207.18 417.452 208.301 415.244C209.54 412.801 210.601 410.27 211.457 407.651C212.224 405.266 214.2 403.471 216.648 402.941L221.839 401.823C223.196 401.528 224.258 400.233 224.258 398.88V396.113V385.635V382.927H224.228ZM160.578 415.362C146.686 415.627 135.36 404.325 135.625 390.462C135.861 377.393 146.538 366.739 159.634 366.503C173.526 366.238 184.852 377.541 184.587 391.404C184.351 404.472 173.674 415.127 160.578 415.362Z" fill="#2A2F3A"/>
<path d="M268.323 217.484C198.42 217.484 141.73 274.055 141.73 343.811C141.73 392.022 168.807 433.935 208.596 455.215C223.815 463.368 242.102 452.095 241.689 434.877C241.689 434.377 241.659 433.847 241.659 433.346C241.659 411.448 252.897 392.258 269.68 381.662C286.462 392.228 297.7 411.419 297.7 433.346C297.7 433.494 297.7 433.611 297.7 433.759C297.582 451.095 316.341 462.044 331.413 453.39C369.373 431.58 394.915 390.698 394.915 343.841C394.915 274.025 338.256 217.484 268.323 217.484Z" fill="#EF6238"/>
<path d="M325.516 317.821C323.599 317.821 322.065 319.352 322.065 321.265V337.953L307.878 326.681V308.726C307.878 303.37 303.543 299.043 298.175 299.043C292.806 299.043 288.471 303.37 288.471 308.726V356.467C288.471 359.351 289.739 361.941 291.745 363.707V381.544C291.745 384.634 294.252 388.019 297.349 389.108L323.363 398.232C326.46 399.321 328.967 397.703 328.967 394.612V385.812V349.02V321.265C328.967 319.352 327.434 317.821 325.516 317.821Z" fill="#2A2F3A"/>
<path d="M241.513 299.043C236.145 299.043 231.81 303.37 231.81 308.726V326.475L217.328 337.953V321.236C217.328 319.322 215.794 317.792 213.877 317.792C211.96 317.792 210.426 319.322 210.426 321.236V348.991V385.782V394.583C210.426 397.673 212.933 399.292 216.03 398.203L242.044 389.079C245.141 387.99 247.648 384.605 247.648 381.514V363.913C249.831 362.147 251.217 359.44 251.217 356.408V308.726C251.217 303.37 246.882 299.043 241.513 299.043Z" fill="#1F232C"/>
<path d="M249.951 422.544C249.951 439.88 257.856 455.068 269.683 463.427C281.511 455.068 289.415 439.88 289.415 422.544C289.415 405.208 281.511 390.021 269.683 381.662C257.856 390.021 249.951 405.208 249.951 422.544Z" fill="#EF6238"/>
<path d="M269.711 438.203C275.787 438.203 280.712 426.923 280.712 413.008C280.712 399.094 275.787 387.813 269.711 387.813C263.635 387.813 258.709 399.094 258.709 413.008C258.709 426.923 263.635 438.203 269.711 438.203Z" fill="white"/>
<path d="M288.765 389.285L283.073 365.856C282.66 364.119 280.89 362.677 279.12 362.677H260.244C258.503 362.677 256.734 364.09 256.291 365.856L250.599 389.285C250.186 391.021 251.248 392.464 253.017 392.464H286.347C288.116 392.434 289.178 391.021 288.765 389.285Z" fill="#1F232C"/>
<path d="M216.032 338.984L242.046 318.293C245.143 315.85 247.65 316.35 247.65 319.44V381.544C247.65 384.635 245.143 388.02 242.046 389.079L216.032 398.203C212.935 399.293 210.428 397.674 210.428 394.583V349.021C210.428 345.93 212.935 341.456 216.032 338.984Z" fill="#2A2F3A"/>
<path d="M296.198 388.578C299.265 386.93 301.389 383.545 301.389 379.631V361.824V319.264V299.573C300.386 299.22 299.324 299.014 298.204 299.014C295.549 299.014 293.16 300.073 291.39 301.78V311.464C289.68 311.022 288.529 311.994 288.529 314.26V357.203C288.736 359.763 289.945 362.059 291.774 363.649V381.485C291.744 384.252 293.661 387.166 296.198 388.578Z" fill="#1F232C"/>
<path d="M271.479 114.675C271.479 115.911 270.477 116.911 269.238 116.911C267.999 116.911 266.996 115.911 266.996 114.675V87.3019C266.996 86.0657 267.999 85.0649 269.238 85.0649C270.477 85.0649 271.479 86.0657 271.479 87.3019V114.675Z" fill="#3B414F"/>
<path d="M277.614 121.62H260.861L266.937 102.754H271.539L277.614 121.62Z" fill="#3B414F"/>
<path d="M271.542 102.754H271.158L273.488 121.62H277.618L271.542 102.754Z" fill="#1F232C"/>
<path d="M298.174 370.33C298.174 375.481 293.985 379.66 288.824 379.66H250.569C245.407 379.66 241.219 375.481 241.219 370.33V191.672C241.219 186.521 245.407 182.341 250.569 182.341H288.853C294.015 182.341 298.203 186.521 298.203 191.672V370.33H298.174Z" fill="#2A2F3A"/>
<path d="M288.854 182.341H280.713C285.875 182.341 290.063 186.521 290.063 191.672V370.33C290.063 375.481 285.875 379.66 280.713 379.66H288.854C294.015 379.66 298.203 375.481 298.203 370.33V191.672C298.174 186.521 293.986 182.341 288.854 182.341Z" fill="#1F232C"/>
<path d="M249.359 370.33V191.672C249.359 186.521 253.548 182.341 258.709 182.341H250.569C245.407 182.341 241.219 186.521 241.219 191.672V370.33C241.219 375.481 245.407 379.66 250.569 379.66H258.709C253.548 379.631 249.359 375.481 249.359 370.33Z" fill="#3B414F"/>
<path d="M272.248 300.897L286.405 379.631H269.711L272.248 300.897Z" fill="#1A1E26"/>
<path d="M272.485 395.79C272.485 397.32 271.246 398.586 269.683 398.586C268.149 398.586 266.881 397.35 266.881 395.79V301.84C266.881 300.309 268.12 299.043 269.683 299.043C271.217 299.043 272.485 300.28 272.485 301.84V395.79Z" fill="#1D1E21"/>
<path d="M300.71 186.992C300.71 190.347 297.996 193.055 294.634 193.055H243.844C240.481 193.055 237.768 190.347 237.768 186.992C237.768 183.637 240.481 180.929 243.844 180.929H294.604C297.996 180.929 300.71 183.637 300.71 186.992Z" fill="#1F232C"/>
<path d="M297.732 186.992H240.777L261.424 122.828H277.056L297.732 186.992Z" fill="#2A2F3A"/>
<path d="M296.318 181.164L277.53 122.828H272.516L283.724 181.076C286.467 181.664 288.531 184.107 288.531 187.021C288.531 190.376 285.818 193.084 282.456 193.084H294.666C298.029 193.084 300.743 190.376 300.743 187.021C300.713 184.225 298.855 181.9 296.318 181.164Z" fill="#1F232C"/>
<path d="M241.485 181.164L260.273 122.828H265.287L254.079 181.076C251.336 181.664 249.271 184.107 249.271 187.021C249.271 190.376 251.985 193.084 255.347 193.084H243.137C239.774 193.084 237.061 190.376 237.061 187.021C237.09 184.225 238.948 181.9 241.485 181.164Z" fill="#3B414F"/>
<path d="M280.151 121.621C280.151 122.798 279.207 123.74 278.027 123.74H260.419C259.239 123.74 258.295 122.798 258.295 121.621C258.295 120.443 259.239 119.501 260.419 119.501H278.027C279.207 119.531 280.151 120.473 280.151 121.621Z" fill="#2A2F3A"/>
<path d="M291.775 229.463C291.775 242.178 281.894 252.451 269.713 252.451C257.531 252.451 247.65 242.149 247.65 229.463C247.65 216.778 257.531 206.476 269.713 206.476C281.894 206.447 291.775 216.748 291.775 229.463Z" fill="#1D1E21"/>
<path d="M288.117 229.464C288.117 239.618 279.858 247.86 269.682 247.86C259.507 247.86 251.248 239.618 251.248 229.464C251.248 219.31 259.507 211.068 269.682 211.068C279.888 211.068 288.117 219.31 288.117 229.464Z" fill="#3B414F"/>
<path d="M282.484 229.463C282.484 236.527 276.762 242.237 269.684 242.237C262.605 242.237 256.883 236.527 256.883 229.463C256.883 222.399 262.605 216.689 269.684 216.689C276.762 216.689 282.484 222.399 282.484 229.463Z" fill="#EAF0FD"/>
<path d="M300.975 245.033C300.975 246.564 299.736 247.829 298.173 247.829C296.639 247.829 295.371 246.593 295.371 245.033V213.834C295.371 212.304 296.61 211.038 298.173 211.038C299.707 211.038 300.975 212.274 300.975 213.834V245.033Z" fill="#2A2F3A"/>
<path d="M244.022 245.033C244.022 246.564 242.783 247.829 241.22 247.829C239.686 247.829 238.418 246.593 238.418 245.033V213.834C238.418 212.304 239.657 211.038 241.22 211.038C242.754 211.038 244.022 212.274 244.022 213.834V245.033Z" fill="#2A2F3A"/>
<path d="M318.451 367.703C321.206 364.799 321.079 360.216 318.169 357.467C315.258 354.719 310.666 354.845 307.911 357.749C305.157 360.653 305.283 365.236 308.194 367.985C311.104 370.734 315.697 370.608 318.451 367.703Z" fill="white"/>
<path d="M231.329 367.839C234.163 365.011 234.163 360.427 231.329 357.599C228.496 354.772 223.902 354.772 221.068 357.599C218.235 360.427 218.235 365.011 221.068 367.839C223.902 370.667 228.496 370.667 231.329 367.839Z" fill="white"/>
<path d="M446.413 156.851C446.413 155.173 445.056 153.819 443.375 153.819H405.975C404.294 153.819 402.938 155.173 402.938 156.851C402.938 158.529 404.294 159.883 405.975 159.883H443.375C445.056 159.883 446.413 158.529 446.413 156.851Z" fill="#EF6238"/>
<path d="M431.312 143.106C431.312 141.428 429.955 140.074 428.274 140.074H405.975C404.294 140.074 402.938 141.428 402.938 143.106C402.938 144.784 404.294 146.137 405.975 146.137H428.274C429.955 146.137 431.312 144.784 431.312 143.106Z" fill="#EF6238"/>
<path d="M423.052 192.937V184.314C404.618 184.314 389.605 169.332 389.605 150.937H380.963C380.963 174.1 399.84 192.937 423.052 192.937Z" fill="#EF6238"/>
<path d="M423.052 192.936C446.265 192.936 465.142 174.099 465.142 150.935C465.142 127.771 446.265 108.934 423.052 108.934C399.84 108.934 380.963 127.771 380.963 150.935H389.605C389.605 132.539 404.618 117.558 423.052 117.558C441.487 117.558 456.5 132.539 456.5 150.935C456.5 169.331 441.487 184.312 423.052 184.312V192.936Z" fill="#2A2F3A"/>
<path d="M189.893 146.256C189.893 147.875 188.595 149.17 186.973 149.17H150.93C149.308 149.17 148.01 147.875 148.01 146.256C148.01 144.637 149.308 143.342 150.93 143.342H186.973C188.595 143.342 189.893 144.667 189.893 146.256Z" fill="#EF6238"/>
<path d="M189.893 159.501C189.893 161.12 188.595 162.415 186.973 162.415H150.93C149.308 162.415 148.01 161.12 148.01 159.501C148.01 157.882 149.308 156.587 150.93 156.587H186.973C188.595 156.587 189.893 157.911 189.893 159.501Z" fill="#EF6238"/>
<path d="M357.518 281.824C357.518 283.443 356.22 284.738 354.598 284.738H318.555C316.933 284.738 315.635 283.443 315.635 281.824C315.635 280.205 316.933 278.91 318.555 278.91H354.598C356.22 278.91 357.518 280.205 357.518 281.824Z" fill="white"/>
<path d="M342.947 295.069C342.947 296.687 341.649 297.983 340.027 297.983H318.555C316.933 297.983 315.635 296.687 315.635 295.069C315.635 293.45 316.933 292.155 318.555 292.155H340.027C341.649 292.155 342.947 293.45 342.947 295.069Z" fill="white"/>
<path d="M175.352 172.775C175.352 174.394 174.054 175.689 172.432 175.689H150.93C149.308 175.689 148.01 174.394 148.01 172.775C148.01 171.156 149.308 169.861 150.93 169.861H172.432C174.054 169.861 175.352 171.156 175.352 172.775Z" fill="#EF6238"/>
<path d="M89.1407 240.03C89.1407 241.649 87.8429 242.944 86.2207 242.944H50.1778C48.5556 242.944 47.2578 241.649 47.2578 240.03C47.2578 238.411 48.5556 237.116 50.1778 237.116H86.2207C87.8429 237.087 89.1407 238.411 89.1407 240.03Z" fill="#2A2F3A"/>
<path d="M74.5997 253.274C74.5997 254.893 73.3019 256.188 71.6797 256.188H50.1778C48.5556 256.188 47.2578 254.893 47.2578 253.274C47.2578 251.655 48.5556 250.36 50.1778 250.36H71.6797C73.3019 250.36 74.5997 251.655 74.5997 253.274Z" fill="#2A2F3A"/>
<path d="M390.934 87.9788C390.934 89.5976 389.636 90.8927 388.014 90.8927H351.971C350.349 90.8927 349.051 89.5976 349.051 87.9788C349.051 86.36 350.349 85.0649 351.971 85.0649H388.014C389.636 85.0355 390.934 86.36 390.934 87.9788Z" fill="#EF6238"/>
<path d="M376.393 101.224C376.393 102.843 375.095 104.138 373.473 104.138H351.971C350.349 104.138 349.051 102.843 349.051 101.224C349.051 99.6051 350.349 98.3101 351.971 98.3101H373.473C375.095 98.3101 376.393 99.6051 376.393 101.224Z" fill="#EF6238"/>
<path d="M123.355 143.343C114.418 143.343 107.162 150.583 107.162 159.502C107.162 168.42 114.418 175.66 123.355 175.66C132.292 175.66 139.548 168.42 139.548 159.502C139.548 150.583 132.321 143.343 123.355 143.343ZM133.088 155.587L123.414 168.42C122.853 169.156 121.998 169.568 121.084 169.568C120.169 169.568 119.314 169.126 118.754 168.42L113.622 161.591C112.648 160.296 112.914 158.501 114.211 157.53C115.509 156.558 117.308 156.823 118.282 158.118L121.084 161.856L128.428 152.114C129.401 150.819 131.201 150.583 132.498 151.525C133.796 152.496 134.062 154.292 133.088 155.587Z" fill="#EF6238"/>
<path d="M368.754 148.729H329.939C329.909 148.729 329.88 148.729 329.85 148.729C329.496 148.699 329.142 148.817 328.877 149.082L316.489 161.444C316.194 161.355 315.899 161.296 315.604 161.296C313.952 161.296 312.596 162.65 312.596 164.299C312.596 165.947 313.952 167.301 315.604 167.301C317.256 167.301 318.613 165.947 318.613 164.299C318.613 163.857 318.524 163.445 318.347 163.062L330.263 151.171H368.754C369.433 151.171 369.993 150.612 369.993 149.935C369.993 149.288 369.433 148.729 368.754 148.729Z" fill="#2A2F3A"/>
<path d="M120.318 185.932H177.892C177.922 185.932 177.951 185.932 177.981 185.932C178.334 185.902 178.688 186.02 178.954 186.285L191.342 198.647C191.637 198.558 191.932 198.5 192.227 198.5C193.878 198.5 195.235 199.853 195.235 201.502C195.235 203.15 193.878 204.504 192.227 204.504C190.575 204.504 189.218 203.15 189.218 201.502C189.218 201.06 189.307 200.648 189.484 200.266L177.568 188.375H120.347C119.669 188.375 119.109 187.815 119.109 187.138C119.079 186.491 119.639 185.932 120.318 185.932Z" fill="#2A2F3A"/>
<path d="M435.148 453.625C435.148 455.215 433.85 456.539 432.228 456.539H365.127C363.534 456.539 362.207 455.244 362.207 453.625V363.56C362.207 361.942 363.505 360.646 365.127 360.646H410.874L435.148 384.87V453.625Z" fill="#2A2F3A"/>
<path d="M410.873 360.676V382.015C410.873 383.604 412.171 384.929 413.793 384.929H435.177L410.873 360.676Z" fill="#1F2125"/>
<path d="M402.464 371.86C402.464 373.391 401.225 374.627 399.692 374.627H373.942C372.409 374.627 371.17 373.391 371.17 371.86C371.17 370.33 372.409 369.094 373.942 369.094H399.692C401.225 369.064 402.464 370.33 402.464 371.86Z" fill="white"/>
<path d="M402.464 384.458C402.464 385.988 401.225 387.224 399.692 387.224H373.942C372.409 387.224 371.17 385.988 371.17 384.458C371.17 382.927 372.409 381.691 373.942 381.691H399.692C401.225 381.691 402.464 382.927 402.464 384.458Z" fill="white"/>
<path d="M427.242 397.379C427.242 398.91 426.003 400.146 424.47 400.146H373.915C372.381 400.146 371.143 398.91 371.143 397.379C371.143 395.849 372.381 394.613 373.915 394.613H424.47C426.003 394.613 427.242 395.849 427.242 397.379Z" fill="white"/>
<path d="M121.792 227.286C112.737 236.322 107.162 248.772 107.162 262.547C107.162 290.096 129.549 312.436 157.156 312.436V262.576L121.792 227.286Z" fill="#D5DBDF"/>
<path d="M157.158 312.465C184.766 312.465 207.152 290.126 207.152 262.576H157.158V312.465Z" fill="white"/>
<path d="M157.153 212.688C143.35 212.688 130.844 218.28 121.818 227.286L157.153 262.547H207.147C207.147 235.027 184.761 212.688 157.153 212.688Z" fill="#2A2F3A"/>
<path d="M48.4966 264.519H122.264C122.293 264.519 122.323 264.519 122.352 264.519C122.706 264.489 123.06 264.607 123.325 264.872L135.713 277.234C136.008 277.145 136.303 277.086 136.598 277.086C138.25 277.086 139.607 278.44 139.607 280.089C139.607 281.737 138.25 283.091 136.598 283.091C134.946 283.091 133.59 281.737 133.59 280.089C133.59 279.647 133.678 279.235 133.855 278.852L121.939 266.962H48.4966C47.8182 266.962 47.2578 266.402 47.2578 265.725C47.2578 265.078 47.8182 264.519 48.4966 264.519Z" fill="#2A2F3A"/>
<path d="M177.211 336.394C167.772 336.394 160.104 344.046 160.104 353.465C160.104 362.883 167.772 370.536 177.211 370.536C186.649 370.536 194.318 362.883 194.318 353.465C194.318 344.046 186.649 336.394 177.211 336.394ZM187.475 349.315L177.27 362.883C176.68 363.649 175.795 364.119 174.822 364.119C173.848 364.119 172.934 363.678 172.373 362.883L166.946 355.672C165.914 354.318 166.209 352.405 167.566 351.375C168.923 350.374 170.84 350.639 171.872 351.993L174.851 355.937L182.608 345.636C183.641 344.282 185.558 344.017 186.914 345.017C188.212 346.048 188.507 347.961 187.475 349.315Z" fill="white"/>
<path d="M337.372 97.1035C337.372 85.448 327.904 76 316.224 76C304.544 76 295.076 85.448 295.076 97.1035C295.076 100.959 296.109 104.579 297.937 107.699L316.224 138.398L334.511 107.699C336.31 104.579 337.372 100.959 337.372 97.1035ZM316.224 111.172C308.437 111.172 302.125 104.874 302.125 97.1035C302.125 89.3332 308.437 83.0345 316.224 83.0345C324.011 83.0345 330.323 89.3332 330.323 97.1035C330.323 104.874 324.011 111.172 316.224 111.172Z" fill="#EF6238"/>
<path d="M312.772 106.139C312.241 106.139 311.71 106.021 311.209 105.756C310.147 105.197 309.469 104.079 309.469 102.872V91.3341C309.469 90.1273 310.147 89.0089 311.209 88.4496C312.271 87.8904 313.569 87.9493 314.571 88.5968L323.331 94.3657C324.246 94.9838 324.806 96.0139 324.806 97.1029C324.806 98.192 324.246 99.2221 323.331 99.8402L314.571 105.609C314.011 105.962 313.392 106.139 312.772 106.139Z" fill="#EF6238"/>
<path d="M80.6486 377.923C80.6486 370.623 74.7201 364.707 67.4054 364.707C60.0906 364.707 54.1621 370.623 54.1621 377.923C54.1621 380.336 54.811 382.602 55.9613 384.545L67.4054 403.765L78.8494 384.545C79.9997 382.632 80.6486 380.365 80.6486 377.923ZM67.4349 386.752C62.5682 386.752 58.6159 382.808 58.6159 377.952C58.6159 373.095 62.5682 369.151 67.4349 369.151C72.3015 369.151 76.2539 373.095 76.2539 377.952C76.2539 382.808 72.3015 386.752 67.4349 386.752Z" fill="#EF6238"/>
<path d="M65.2521 383.603C64.9277 383.603 64.5738 383.515 64.2788 383.368C63.6004 383.015 63.1875 382.308 63.1875 381.572V374.361C63.1875 373.596 63.6004 372.919 64.2788 372.566C64.9572 372.213 65.7536 372.242 66.373 372.654L71.859 376.274C72.4489 376.657 72.7734 377.305 72.7734 377.982C72.7734 378.658 72.4194 379.306 71.859 379.689L66.373 383.309C66.0485 383.486 65.6651 383.603 65.2521 383.603Z" fill="#EF6238"/>
</g>
<defs>
<clipPath id="clip0_494_1683">
<rect width="445.787" height="387.456" fill="white" transform="translate(47.2578 76)"/>
</clipPath>
</defs>
</svg>
