<svg width="540" height="540" viewBox="0 0 540 540" fill="none" xmlns="http://www.w3.org/2000/svg">
<path d="M270 540C419.117 540 540 419.117 540 270C540 120.883 419.117 0 270 0C120.883 0 0 120.883 0 270C0 419.117 120.883 540 270 540Z" fill="white"/>
<g clip-path="url(#clip0_0_1)">
<path d="M148.31 406.312H80.8999C75.9814 406.312 72.0117 402.298 72.0117 397.382V244.245C72.0117 239.303 76.0064 235.315 80.8999 235.315H148.31C153.229 235.315 157.198 239.328 157.198 244.245V397.382C157.198 402.323 153.229 406.312 148.31 406.312Z" fill="#EF6238"/>
<path d="M471.699 406.312H358.25C353.332 406.312 349.362 402.299 349.362 397.382V270.734C349.362 265.792 353.357 261.804 358.25 261.804H471.699C476.618 261.804 480.588 265.817 480.588 270.734V397.382C480.588 402.324 476.618 406.312 471.699 406.312Z" fill="#EF6238"/>
<path d="M318.116 396.479H280.69V394.322H318.116C323.434 394.322 327.778 389.982 327.778 384.614V371.596H329.925V384.614C329.9 391.161 324.607 396.479 318.116 396.479Z" fill="url(#paint0_linear_0_1)"/>
<path d="M366.421 267.194C367.103 268.131 368.3 268.509 369.373 268.118L373.78 266.606C374.723 266.291 375.755 266.532 376.48 267.242C378.621 269.36 380.989 271.173 383.517 272.662C384.387 273.171 384.868 274.109 384.817 275.123L384.504 279.794C384.416 280.946 385.097 282.028 386.161 282.425C388.978 283.514 391.899 284.283 394.871 284.79C396.012 284.968 397.118 284.385 397.615 283.344L399.667 279.141C400.106 278.25 401.011 277.667 402.018 277.663C404.947 277.644 407.9 277.264 410.808 276.505C411.789 276.255 412.803 276.565 413.463 277.312L416.527 280.836C417.283 281.701 418.508 281.976 419.543 281.52C420.894 280.911 422.25 280.211 423.569 279.446C424.888 278.682 426.148 277.864 427.37 276.982C428.303 276.297 428.678 275.094 428.289 274.016L426.782 269.59C426.468 268.642 426.708 267.605 427.414 266.877C429.522 264.728 431.326 262.35 432.807 259.811C433.314 258.938 434.247 258.455 435.257 258.506L439.907 258.822C441.054 258.911 442.131 258.228 442.526 257.159C443.609 254.33 444.373 251.396 444.876 248.41C445.054 247.265 444.473 246.154 443.436 245.654L439.251 243.591C438.364 243.15 437.783 242.241 437.779 241.23C437.759 238.287 437.38 235.32 436.623 232.399C436.374 231.414 436.682 230.396 437.425 229.733L440.932 226.657C441.793 225.897 442.066 224.667 441.612 223.627C441.005 222.27 440.308 220.907 439.546 219.582C438.784 218.257 437.97 216.991 437.091 215.763C436.409 214.826 435.211 214.449 434.138 214.839L429.732 216.351C428.789 216.667 427.756 216.425 427.032 215.716C424.891 213.597 422.523 211.784 419.995 210.296C419.125 209.786 418.644 208.849 418.695 207.834L419.008 203.163C419.095 202.012 418.415 200.929 417.351 200.532C414.534 199.443 411.613 198.675 408.64 198.168C407.5 197.989 406.394 198.573 405.897 199.614L403.844 203.816C403.405 204.708 402.501 205.29 401.494 205.295C398.564 205.313 395.611 205.693 392.704 206.452C391.723 206.702 390.709 206.392 390.049 205.645L386.985 202.121C386.228 201.257 385.004 200.982 383.968 201.437C382.618 202.047 381.261 202.746 379.942 203.511C378.623 204.276 377.364 205.093 376.141 205.976C375.209 206.661 374.834 207.863 375.223 208.941L376.73 213.368C377.044 214.315 376.804 215.352 376.098 216.08C373.99 218.23 372.186 220.608 370.705 223.147C370.198 224.02 369.265 224.503 368.255 224.451L363.604 224.135C362.458 224.047 361.38 224.73 360.986 225.798C359.903 228.628 359.139 231.561 358.635 234.547C358.458 235.693 359.039 236.804 360.076 237.303L364.26 239.367C365.148 239.808 365.728 240.717 365.733 241.728C365.753 244.671 366.132 247.637 366.889 250.558C367.138 251.543 366.83 252.562 366.087 253.224L362.579 256.301C361.719 257.06 361.446 258.29 361.9 259.331C362.507 260.687 363.204 262.05 363.965 263.375C364.74 264.722 365.554 265.988 366.421 267.194ZM394.414 228.632C401.484 224.533 410.523 226.967 414.586 234.083C418.669 241.187 416.249 250.266 409.166 254.344C402.096 258.443 393.057 256.008 388.994 248.892C384.923 241.811 387.343 232.732 394.414 228.632Z" fill="#2A303B"/>
<path d="M361.411 199.302C362.068 197.914 361.715 196.266 360.587 195.232L355.985 191.046C355.002 190.159 354.618 188.756 354.976 187.479C356.061 183.626 356.628 179.665 356.732 175.747C356.769 174.422 357.545 173.223 358.733 172.652L364.372 170C365.756 169.344 366.576 167.878 366.347 166.364C365.797 162.371 364.826 158.448 363.466 154.639C362.963 153.193 361.534 152.271 360.027 152.356L353.808 152.667C352.481 152.743 351.249 152.027 350.599 150.874C348.695 147.439 346.336 144.227 343.595 141.312C342.663 140.339 342.37 138.932 342.826 137.685L344.942 131.821C345.458 130.376 345.002 128.754 343.774 127.836C342.188 126.643 340.541 125.501 338.787 124.441C337.054 123.394 335.27 122.433 333.477 121.583C332.094 120.924 330.454 121.279 329.424 122.413L325.255 127.037C324.371 128.025 322.975 128.41 321.703 128.052C317.868 126.964 313.925 126.395 310.024 126.292C308.705 126.256 307.512 125.476 306.944 124.284L304.298 118.586C303.644 117.196 302.185 116.373 300.678 116.603C296.703 117.158 292.796 118.134 289.004 119.502C287.565 120.008 286.646 121.443 286.729 122.958L287.037 129.203C287.112 130.537 286.399 131.775 285.25 132.427C281.83 134.342 278.632 136.713 275.729 139.466C274.759 140.403 273.359 140.698 272.118 140.241L266.28 138.118C264.842 137.6 263.227 138.058 262.313 139.292C261.124 140.886 259.987 142.541 258.931 144.303C257.887 146.044 256.93 147.837 256.083 149.638C255.426 151.027 255.779 152.674 256.908 153.708L261.509 157.894C262.493 158.781 262.876 160.184 262.519 161.461C261.434 165.314 260.867 169.275 260.762 173.193C260.726 174.518 259.949 175.717 258.762 176.288L253.122 178.94C251.738 179.596 250.918 181.062 251.147 182.576C251.698 186.569 252.668 190.493 254.028 194.301C254.531 195.747 255.96 196.669 257.468 196.585L263.686 196.273C265.014 196.198 266.246 196.913 266.895 198.066C268.799 201.501 271.158 204.713 273.899 207.628C274.831 208.601 275.124 210.008 274.668 211.255L272.553 217.119C272.037 218.564 272.492 220.186 273.72 221.104C275.307 222.297 276.954 223.439 278.708 224.499C280.441 225.546 282.225 226.507 284.018 227.357C285.4 228.017 287.041 227.661 288.07 226.527L292.239 221.904C293.123 220.915 294.52 220.53 295.791 220.888C299.626 221.977 303.569 222.545 307.47 222.648C308.789 222.684 309.983 223.464 310.55 224.656L313.188 230.32C313.841 231.71 315.3 232.533 316.808 232.302C320.783 231.748 324.69 230.772 328.482 229.404C329.921 228.898 330.84 227.462 330.756 225.948L330.449 219.702C330.374 218.369 331.087 217.131 332.235 216.478C335.656 214.564 338.854 212.193 341.757 209.439C342.726 208.503 344.127 208.208 345.368 208.665L351.206 210.788C352.644 211.306 354.259 210.847 355.173 209.614C356.362 208.02 357.499 206.365 358.555 204.602C359.62 202.875 360.565 201.103 361.411 199.302ZM297.739 192.79C287.664 186.7 284.425 173.53 290.513 163.42C296.579 153.298 309.692 150.039 319.755 156.15C329.83 162.24 333.069 175.41 326.981 185.52C320.894 195.63 307.815 198.879 297.739 192.79Z" fill="#2A303B"/>
<path d="M252.096 176.317H187.383C185.435 176.317 183.862 174.737 183.862 172.781V163.926C183.862 161.969 185.435 160.389 187.383 160.389H252.096V176.317Z" fill="#0C192D"/>
<path d="M150.607 288.794H65.0713C58.2803 288.794 52.7627 283.275 52.7627 276.427V226.812H150.607V288.794Z" fill="#414141"/>
<path d="M173.527 406.312H312.717V176.318H173.527V406.312Z" fill="#EF6238"/>
<path d="M121.433 406H174.031V175.635H131.474C125.932 175.635 121.433 180.082 121.433 185.558V406Z" fill="#2A2F3A"/>
<path d="M187.158 228.768H299.084V201.151H187.158V228.768Z" fill="#2A2F3A"/>
<path d="M187.158 271.611H299.084V243.994H187.158V271.611Z" fill="#2A2F3A"/>
<path d="M187.158 314.454H299.084V286.837H187.158V314.454Z" fill="#2A2F3A"/>
<path d="M187.158 357.323H299.084V329.681H187.158V357.323Z" fill="#2A2F3A"/>
<path d="M129.073 207.415H166.323V202.699H129.073V207.415Z" fill="#0C192D"/>
<path d="M129.073 217.308H166.323V212.592H129.073V217.308Z" fill="#0C192D"/>
<path d="M129.073 227.2H166.323V222.484H129.073V227.2Z" fill="#0C192D"/>
<path d="M129.073 335.966H166.323V331.25H129.073V335.966Z" fill="#0C192D"/>
<path d="M129.073 345.858H166.323V341.142H129.073V345.858Z" fill="#0C192D"/>
<path d="M129.073 355.751H166.323V351.035H129.073V355.751Z" fill="#0C192D"/>
<path d="M287.874 212.338H294.44V205.741H287.874V212.338Z" fill="url(#paint1_linear_0_1)"/>
<path d="M277.562 212.338H284.129V205.741H277.562V212.338Z" fill="url(#paint2_linear_0_1)"/>
<path d="M267.251 212.338H273.817V205.741H267.251V212.338Z" fill="#EF6238"/>
<path d="M256.939 212.338H263.506V205.741H256.939V212.338Z" fill="url(#paint3_linear_0_1)"/>
<path d="M263.506 248.635H256.939V255.232H263.506V248.635Z" fill="url(#paint4_linear_0_1)"/>
<path d="M273.817 248.635H267.251V255.232H273.817V248.635Z" fill="url(#paint5_linear_0_1)"/>
<path d="M284.129 248.635H277.562V255.232H284.129V248.635Z" fill="#EF6238"/>
<path d="M294.44 248.635H287.874V255.232H294.44V248.635Z" fill="url(#paint6_linear_0_1)"/>
<path d="M287.874 298.1H294.44V291.503H287.874V298.1Z" fill="url(#paint7_linear_0_1)"/>
<path d="M277.563 298.1H284.13V291.503H277.563V298.1Z" fill="url(#paint8_linear_0_1)"/>
<path d="M267.253 298.1H273.819V291.503H267.253V298.1Z" fill="#EF6238"/>
<path d="M256.941 298.1H263.508V291.503H256.941V298.1Z" fill="#EF6238"/>
<path d="M287.874 341.143H294.44V334.546H287.874V341.143Z" fill="url(#paint9_linear_0_1)"/>
<path d="M277.562 341.143H284.129V334.546H277.562V341.143Z" fill="url(#paint10_linear_0_1)"/>
<path d="M267.251 341.143H273.817V334.546H267.251V341.143Z" fill="#EF6238"/>
<path d="M256.939 341.143H263.506V334.546H256.939V341.143Z" fill="url(#paint11_linear_0_1)"/>
<path d="M192.52 311.218H200.26V290.625H192.52V311.218Z" fill="#0C192D"/>
<path d="M205.946 311.218H213.686V290.625H205.946V311.218Z" fill="#0C192D"/>
<path d="M219.374 311.218H227.113V290.625H219.374V311.218Z" fill="#0C192D"/>
<path d="M232.801 311.218H240.541V290.625H232.801V311.218Z" fill="#0C192D"/>
<path d="M192.52 268.11H200.26V247.516H192.52V268.11Z" fill="#0C192D"/>
<path d="M205.946 268.11H213.686V247.516H205.946V268.11Z" fill="#0C192D"/>
<path d="M219.374 268.11H227.113V247.516H219.374V268.11Z" fill="#0C192D"/>
<path d="M232.801 268.11H240.541V247.516H232.801V268.11Z" fill="#0C192D"/>
<path d="M192.52 225.259H200.26V204.665H192.52V225.259Z" fill="#0C192D"/>
<path d="M205.946 225.259H213.686V204.665H205.946V225.259Z" fill="#0C192D"/>
<path d="M219.374 225.259H227.113V204.665H219.374V225.259Z" fill="#0C192D"/>
<path d="M232.801 225.259H240.541V204.665H232.801V225.259Z" fill="#0C192D"/>
<path d="M192.52 353.81H200.26V333.216H192.52V353.81Z" fill="#0C192D"/>
<path d="M205.946 353.81H213.686V333.216H205.946V353.81Z" fill="#0C192D"/>
<path d="M219.374 353.81H227.113V333.216H219.374V353.81Z" fill="#0C192D"/>
<path d="M232.801 353.81H240.541V333.216H232.801V353.81Z" fill="#0C192D"/>
<path d="M217.992 160.39L282.706 160.39C284.654 160.39 286.227 161.97 286.227 163.926L286.227 172.781C286.227 174.738 284.654 176.318 282.706 176.318L217.992 176.318L217.992 160.39Z" fill="#0C192D"/>
<path d="M275.679 168.341C275.679 170.272 274.106 171.853 272.184 171.853C270.261 171.853 268.688 170.272 268.688 168.341C268.688 166.409 270.261 164.829 272.184 164.829C274.106 164.829 275.679 166.409 275.679 168.341Z" fill="white"/>
<path d="M263.793 168.341C263.793 170.272 262.221 171.853 260.298 171.853C258.376 171.853 256.803 170.272 256.803 168.341C256.803 166.409 258.376 164.829 260.298 164.829C262.245 164.829 263.793 166.409 263.793 168.341Z" fill="white"/>
<path d="M251.935 168.341C251.935 170.272 250.362 171.853 248.44 171.853C246.517 171.853 244.944 170.272 244.944 168.341C244.944 166.409 246.517 164.829 248.44 164.829C250.362 164.829 251.935 166.409 251.935 168.341Z" fill="#EF6238"/>
<path d="M238.889 157.078H236.692L236.567 154.067H236.292C236.018 154.067 235.793 153.842 235.793 153.566V153.39C235.793 153.114 236.018 152.889 236.292 152.889H236.517L235.394 126.902C235.344 125.974 234.595 125.246 233.671 125.246C232.747 125.246 231.998 125.974 231.948 126.902L230.825 152.889H231.049C231.324 152.889 231.549 153.114 231.549 153.39V153.566C231.549 153.842 231.324 154.067 231.049 154.067H230.775L230.65 157.078H228.453C226.63 157.078 225.157 158.557 225.157 160.389H242.135C242.21 158.557 240.712 157.078 238.889 157.078Z" fill="url(#paint12_linear_0_1)"/>
<path d="M225.259 133.801C221.414 129.938 221.414 123.642 225.259 119.779L227.131 121.66C224.31 124.495 224.31 129.085 227.131 131.919L225.259 133.801Z" fill="#EF6238"/>
<path d="M242.16 133.801L240.287 131.919C243.108 129.085 243.108 124.495 240.287 121.66L242.16 119.779C246.005 123.642 246.005 129.938 242.16 133.801Z" fill="#EF6238"/>
<path d="M219.938 139.143C213.172 132.346 213.172 121.259 219.938 114.461L221.81 116.342C216.043 122.137 216.043 131.493 221.81 137.287L219.938 139.143Z" fill="#EF6238"/>
<path d="M247.478 139.144L245.605 137.262C251.373 131.468 251.373 122.112 245.605 116.317L247.478 114.436C254.244 121.259 254.244 132.346 247.478 139.144Z" fill="#EF6238"/>
<path d="M213.674 145.439C203.438 135.155 203.438 118.424 213.674 108.139L215.547 110.02C206.334 119.276 206.334 134.302 215.547 143.558L213.674 145.439Z" fill="#EF6238"/>
<path d="M253.744 145.439L251.871 143.558C261.084 134.302 261.084 119.276 251.871 110.02L253.744 108.139C263.98 118.424 263.98 135.155 253.744 145.439Z" fill="#EF6238"/>
<path d="M299.084 228.768H187.158V233.057H299.084V228.768Z" fill="#DBE7F2"/>
<path d="M299.084 271.611H187.158V275.901H299.084V271.611Z" fill="#DBE7F2"/>
<path d="M299.084 314.455H187.158V318.744H299.084V314.455Z" fill="#DBE7F2"/>
<path d="M299.084 357.323H187.158V361.662H299.084V357.323Z" fill="#DBE7F2"/>
<path d="M386.827 372.323H348.578V395.927H386.827V372.323Z" fill="url(#paint13_linear_0_1)"/>
<path d="M448.842 247.23H286.559V359.48H448.842V247.23Z" fill="#2D2D2D"/>
<path d="M443.35 372.324H292.027C289.006 372.324 286.534 369.865 286.534 366.805V359.456H448.818V366.805C448.843 369.865 446.371 372.324 443.35 372.324Z" fill="#DAE7F2"/>
<path d="M347.899 372.252L387.348 382.523V372.252H347.899Z" fill="url(#paint14_linear_0_1)"/>
<path d="M412.44 406.312H323.459V400.543C323.459 398.009 325.506 395.927 328.053 395.927H407.847C410.368 395.927 412.44 397.984 412.44 400.543V406.312Z" fill="#DAE7F2"/>
<path d="M370.7 388.476H364.833C363.534 388.476 362.511 387.423 362.511 386.143V372.322H373.047V386.143C373.022 387.448 371.998 388.476 370.7 388.476Z" fill="white"/>
<path d="M396.486 312.674H365.827C364.479 312.674 363.405 311.595 363.405 310.241C363.405 308.886 364.479 307.808 365.827 307.808H396.486C397.834 307.808 398.908 308.886 398.908 310.241C398.908 311.595 397.809 312.674 396.486 312.674Z" fill="#EF6238"/>
<path d="M380.158 322.507H365.827C364.479 322.507 363.405 321.428 363.405 320.074C363.405 318.719 364.479 317.641 365.827 317.641H380.158C381.506 317.641 382.58 318.719 382.58 320.074C382.58 321.428 381.506 322.507 380.158 322.507Z" fill="#EF6238"/>
<path d="M416.733 322.507H390.767C389.419 322.507 388.346 321.428 388.346 320.074C388.346 318.719 389.419 317.641 390.767 317.641H416.733C418.081 317.641 419.155 318.719 419.155 320.074C419.155 321.428 418.081 322.507 416.733 322.507Z" fill="#EF6238"/>
<path d="M405.798 284.329H365.826C364.478 284.329 363.404 283.251 363.404 281.896C363.404 280.542 364.478 279.463 365.826 279.463H405.798C407.146 279.463 408.22 280.542 408.22 281.896C408.22 283.251 407.146 284.329 405.798 284.329Z" fill="#DBE7F2"/>
<path d="M390.842 294.163H364.502C363.903 294.163 363.429 293.686 363.429 293.084V290.375C363.429 289.773 363.903 289.296 364.502 289.296H390.842C391.441 289.296 391.916 289.773 391.916 290.375V293.084C391.916 293.686 391.416 294.163 390.842 294.163Z" fill="#DBE7F2"/>
<path d="M418.082 294.163H399.856C399.257 294.163 398.782 293.686 398.782 293.084V290.375C398.782 289.773 399.257 289.296 399.856 289.296H418.082C418.681 289.296 419.155 289.773 419.155 290.375V293.084C419.155 293.686 418.681 294.163 418.082 294.163Z" fill="#DBE7F2"/>
<path d="M351.721 279.488L346.079 285.157C345.155 286.085 345.155 287.565 346.079 288.468L351.721 294.137C352.645 295.065 354.118 295.065 355.017 294.137C355.941 293.209 355.941 291.729 355.017 290.826L351.022 286.813L355.017 282.799C355.941 281.871 355.941 280.391 355.017 279.488C354.118 278.56 352.62 278.56 351.721 279.488Z" fill="#DBE7F2"/>
<path d="M433.213 294.162L438.855 288.494C439.779 287.565 439.779 286.085 438.855 285.182L433.213 279.513C432.289 278.585 430.816 278.585 429.917 279.513C428.994 280.442 428.994 281.922 429.917 282.825L433.912 286.838L429.917 290.851C428.994 291.78 428.994 293.259 429.917 294.162C430.841 295.066 432.314 295.066 433.213 294.162Z" fill="#DBE7F2"/>
<path d="M415.363 372.323H446.696C448.819 368.41 450.017 364.071 450.042 359.48H412.018C412.043 364.071 413.241 368.41 415.363 372.323Z" fill="url(#paint15_linear_0_1)"/>
<path d="M331.402 308.621C328.556 308.621 326.009 307.492 324.162 305.661C323.487 304.984 322.364 304.984 321.69 305.661C319.842 307.492 317.271 308.621 314.449 308.621H306.735C305.511 308.621 304.513 309.599 304.513 310.803V322.241C304.513 333.604 311.978 343.487 322.963 348.429C333.924 343.462 341.414 333.604 341.414 322.241V310.803C341.414 309.599 340.415 308.621 339.191 308.621H331.402Z" fill="#EF6238"/>
<path d="M321.767 335.56C321.118 335.56 320.493 335.284 320.044 334.808L312.879 327.057C311.98 326.104 312.055 324.599 313.003 323.695C313.952 322.792 315.45 322.868 316.349 323.821L321.567 329.465L330.755 316.998C331.529 315.945 333.027 315.719 334.075 316.496C335.124 317.274 335.349 318.779 334.575 319.833L323.689 334.582C323.265 335.159 322.616 335.51 321.916 335.535C321.867 335.56 321.817 335.56 321.767 335.56Z" fill="white"/>
<path d="M159.247 253.526H136.152V304.647H159.247V253.526Z" fill="url(#paint16_linear_0_1)"/>
<path d="M121.696 362.089H109.587C103.795 362.089 99.0762 358.025 99.0762 353.033V269.705C99.0762 264.713 103.795 260.649 109.587 260.649H136.152V262.807H109.612C104.993 262.807 101.248 265.892 101.248 269.705V353.033C101.248 356.846 104.993 359.931 109.612 359.931H121.721V362.089H121.696Z" fill="white"/>
<path d="M121.696 379.296H109.587C103.795 379.296 99.0762 375.233 99.0762 370.241V286.912C99.0762 281.921 103.795 277.857 109.587 277.857H136.152V280.014H109.612C104.993 280.014 101.248 283.099 101.248 286.912V370.241C101.248 374.054 104.993 377.139 109.612 377.139H121.721V379.296H121.696Z" fill="white"/>
<path d="M121.696 396.478H109.587C103.795 396.478 99.0762 392.415 99.0762 387.423V304.094C99.0762 299.103 103.795 295.039 109.587 295.039H136.152V297.196H109.612C104.993 297.196 101.248 300.282 101.248 304.094V387.423C101.248 391.236 104.993 394.321 109.612 394.321H121.721V396.478H121.696Z" fill="white"/>
<path d="M147.687 257.113H136.152V266.444H147.687V257.113Z" fill="url(#paint17_linear_0_1)"/>
<path d="M147.687 274.42H136.152V283.752H147.687V274.42Z" fill="url(#paint18_linear_0_1)"/>
<path d="M147.687 291.453H136.152V300.784H147.687V291.453Z" fill="url(#paint19_linear_0_1)"/>
<path d="M104.295 316.612H95.6562V339.639H104.295V316.612Z" fill="url(#paint20_linear_0_1)"/>
<path d="M240.537 372.323H187.158V396.103H240.537V372.323Z" fill="#2A2F3A"/>
<path d="M211.701 379.999H218.267V376.713H211.701V379.999Z" fill="url(#paint21_linear_0_1)"/>
<path d="M201.39 379.999H207.956V376.713H201.39V379.999Z" fill="#EF6238"/>
<path d="M191.078 379.999H197.644V376.713H191.078V379.999Z" fill="url(#paint22_linear_0_1)"/>
<path d="M115.057 244.37H91.7633C91.214 244.37 90.7646 243.919 90.7646 243.367V240.809C90.7646 240.257 91.214 239.805 91.7633 239.805H115.057C115.607 239.805 116.056 240.257 116.056 240.809V243.367C116.056 243.919 115.607 244.37 115.057 244.37Z" fill="white"/>
<path d="M106.594 253.325H91.7389C91.1896 253.325 90.7402 252.873 90.7402 252.322V249.763C90.7402 249.211 91.1896 248.76 91.7389 248.76H106.594C107.143 248.76 107.593 249.211 107.593 249.763V252.322C107.618 252.848 107.143 253.325 106.594 253.325Z" fill="white"/>
<path d="M83.1477 245.398C83.1227 245.097 82.898 244.872 82.5984 244.822L81.425 244.596C81.1753 244.546 80.9756 244.345 80.9007 244.119C80.701 243.367 80.4014 242.664 80.0269 242.012C79.902 241.786 79.902 241.51 80.0518 241.31L80.7259 240.306C80.9007 240.056 80.8757 239.73 80.701 239.504C80.2266 238.902 79.6773 238.35 79.0781 237.848C78.8534 237.673 78.5289 237.648 78.2792 237.823L77.2805 238.5C77.0808 238.651 76.8062 238.651 76.5815 238.526C75.9323 238.149 75.2333 237.848 74.4843 237.648C74.2346 237.572 74.0598 237.372 74.0099 237.121L73.7852 235.942C73.7353 235.641 73.4856 235.44 73.211 235.39C72.8364 235.34 72.437 235.34 72.0625 235.34C71.663 235.34 71.2885 235.365 70.914 235.39C70.6144 235.415 70.3897 235.641 70.3398 235.942L70.1151 237.121C70.0651 237.372 69.8654 237.572 69.6407 237.648C68.8917 237.848 68.1926 238.149 67.5435 238.526C67.3188 238.651 67.0442 238.651 66.8444 238.5L65.8458 237.823C65.5961 237.648 65.2715 237.673 65.0468 237.848C64.4476 238.325 63.8984 238.877 63.399 239.479C63.2243 239.704 63.1993 240.031 63.3741 240.281L64.0482 241.285C64.198 241.485 64.198 241.761 64.0731 241.987C63.6986 242.639 63.399 243.342 63.1993 244.094C63.1244 244.345 62.9247 244.521 62.675 244.571L61.5015 244.796C61.2019 244.847 61.0022 245.097 60.9523 245.373C60.9023 245.75 60.9023 246.151 60.9023 246.527C60.9023 246.929 60.9273 247.305 60.9523 247.681C60.9772 247.982 61.2019 248.208 61.5015 248.258L62.675 248.484C62.9247 248.534 63.1244 248.735 63.1993 248.96C63.399 249.713 63.6986 250.415 64.0731 251.067C64.198 251.293 64.198 251.569 64.0482 251.77L63.3741 252.773C63.1993 253.024 63.2243 253.35 63.399 253.576C63.8734 254.178 64.4227 254.73 65.0219 255.231C65.2466 255.407 65.5711 255.432 65.8208 255.256L66.8195 254.579C67.0442 254.429 67.2938 254.429 67.5185 254.554C68.1677 254.93 68.8667 255.231 69.6157 255.432C69.8654 255.507 70.0402 255.708 70.0901 255.959L70.3148 257.138C70.3647 257.439 70.6144 257.639 70.889 257.69C71.2635 257.74 71.663 257.74 72.0375 257.74C72.437 257.74 72.8115 257.715 73.186 257.69C73.4856 257.664 73.7103 257.439 73.7602 257.138L73.9849 255.959C74.0349 255.708 74.2346 255.507 74.4593 255.432C75.2083 255.231 75.9074 254.93 76.5565 254.554C76.7812 254.429 77.0558 254.429 77.2556 254.579L78.2542 255.256C78.5039 255.432 78.8285 255.407 79.0532 255.231C79.6524 254.755 80.2016 254.203 80.701 253.601C80.8757 253.375 80.9007 253.049 80.7259 252.798L80.0518 251.795C79.902 251.594 79.902 251.318 80.0269 251.093C80.4014 250.44 80.701 249.738 80.9007 248.985C80.9756 248.735 81.1753 248.559 81.425 248.509L82.5984 248.283C82.898 248.233 83.0978 247.982 83.1477 247.706C83.1976 247.33 83.1977 246.929 83.1977 246.552C83.1977 246.176 83.1727 245.775 83.1477 245.398ZM72.0125 250.365C69.9153 250.365 68.2176 248.659 68.2176 246.552C68.2176 244.445 69.9153 242.74 72.0125 242.74C74.1098 242.74 75.8075 244.445 75.8075 246.552C75.8075 248.659 74.1098 250.365 72.0125 250.365Z" fill="white"/>
</g>
<defs>
<linearGradient id="paint0_linear_0_1" x1="316.456" y1="371.52" x2="315.771" y2="400.518" gradientUnits="userSpaceOnUse">
<stop stop-color="#FF9D43"/>
<stop offset="0.860391" stop-color="#FF5343"/>
</linearGradient>
<linearGradient id="paint1_linear_0_1" x1="292.766" y1="200.274" x2="288.983" y2="220.67" gradientUnits="userSpaceOnUse">
<stop stop-color="#C8DBEC"/>
<stop offset="1" stop-color="#E9F1F7"/>
</linearGradient>
<linearGradient id="paint2_linear_0_1" x1="282.796" y1="198.424" x2="279.012" y2="218.821" gradientUnits="userSpaceOnUse">
<stop stop-color="#C8DBEC"/>
<stop offset="1" stop-color="#E9F1F7"/>
</linearGradient>
<linearGradient id="paint3_linear_0_1" x1="262.854" y1="194.726" x2="259.071" y2="215.122" gradientUnits="userSpaceOnUse">
<stop stop-color="#C8DBEC"/>
<stop offset="1" stop-color="#E9F1F7"/>
</linearGradient>
<linearGradient id="paint4_linear_0_1" x1="258.615" y1="243.16" x2="262.398" y2="263.557" gradientUnits="userSpaceOnUse">
<stop stop-color="#C8DBEC"/>
<stop offset="1" stop-color="#E9F1F7"/>
</linearGradient>
<linearGradient id="paint5_linear_0_1" x1="268.585" y1="241.31" x2="272.368" y2="261.707" gradientUnits="userSpaceOnUse">
<stop stop-color="#C8DBEC"/>
<stop offset="1" stop-color="#E9F1F7"/>
</linearGradient>
<linearGradient id="paint6_linear_0_1" x1="288.526" y1="237.612" x2="292.31" y2="258.009" gradientUnits="userSpaceOnUse">
<stop stop-color="#C8DBEC"/>
<stop offset="1" stop-color="#E9F1F7"/>
</linearGradient>
<linearGradient id="paint7_linear_0_1" x1="292.766" y1="286.045" x2="288.983" y2="306.442" gradientUnits="userSpaceOnUse">
<stop stop-color="#C8DBEC"/>
<stop offset="1" stop-color="#E9F1F7"/>
</linearGradient>
<linearGradient id="paint8_linear_0_1" x1="282.797" y1="284.196" x2="279.013" y2="304.593" gradientUnits="userSpaceOnUse">
<stop stop-color="#C8DBEC"/>
<stop offset="1" stop-color="#E9F1F7"/>
</linearGradient>
<linearGradient id="paint9_linear_0_1" x1="292.644" y1="334.526" x2="292.284" y2="342.202" gradientUnits="userSpaceOnUse">
<stop stop-color="#FF9D43"/>
<stop offset="0.860391" stop-color="#FF5343"/>
</linearGradient>
<linearGradient id="paint10_linear_0_1" x1="282.796" y1="327.239" x2="279.012" y2="347.635" gradientUnits="userSpaceOnUse">
<stop stop-color="#C8DBEC"/>
<stop offset="1" stop-color="#E9F1F7"/>
</linearGradient>
<linearGradient id="paint11_linear_0_1" x1="262.854" y1="323.54" x2="259.071" y2="343.937" gradientUnits="userSpaceOnUse">
<stop stop-color="#C8DBEC"/>
<stop offset="1" stop-color="#E9F1F7"/>
</linearGradient>
<linearGradient id="paint12_linear_0_1" x1="225.21" y1="142.803" x2="242.198" y2="142.803" gradientUnits="userSpaceOnUse">
<stop offset="0.00704225" stop-color="#2D3952"/>
<stop offset="1" stop-color="#111E32"/>
</linearGradient>
<linearGradient id="paint13_linear_0_1" x1="367.695" y1="374.142" x2="367.695" y2="391.913" gradientUnits="userSpaceOnUse">
<stop stop-color="#C8DBEC"/>
<stop offset="1" stop-color="#E9F1F7"/>
</linearGradient>
<linearGradient id="paint14_linear_0_1" x1="367.629" y1="364.726" x2="367.629" y2="406.105" gradientUnits="userSpaceOnUse">
<stop stop-color="#8DAFC8"/>
<stop offset="1" stop-color="#D5E4F0"/>
</linearGradient>
<linearGradient id="paint15_linear_0_1" x1="457.606" y1="365.898" x2="423.683" y2="365.898" gradientUnits="userSpaceOnUse">
<stop stop-color="#8DAFC8"/>
<stop offset="1" stop-color="#D5E4F0"/>
</linearGradient>
<linearGradient id="paint16_linear_0_1" x1="147.692" y1="253.537" x2="147.692" y2="304.655" gradientUnits="userSpaceOnUse">
<stop stop-color="#C8DBEC"/>
<stop offset="1" stop-color="#E9F1F7"/>
</linearGradient>
<linearGradient id="paint17_linear_0_1" x1="148.733" y1="261.787" x2="115.795" y2="261.787" gradientUnits="userSpaceOnUse">
<stop stop-color="#8DAFC8"/>
<stop offset="1" stop-color="#D5E4F0"/>
</linearGradient>
<linearGradient id="paint18_linear_0_1" x1="148.733" y1="279.096" x2="115.795" y2="279.096" gradientUnits="userSpaceOnUse">
<stop stop-color="#8DAFC8"/>
<stop offset="1" stop-color="#D5E4F0"/>
</linearGradient>
<linearGradient id="paint19_linear_0_1" x1="148.733" y1="296.119" x2="115.795" y2="296.119" gradientUnits="userSpaceOnUse">
<stop stop-color="#8DAFC8"/>
<stop offset="1" stop-color="#D5E4F0"/>
</linearGradient>
<linearGradient id="paint20_linear_0_1" x1="107.213" y1="354.681" x2="96.34" y2="315.112" gradientUnits="userSpaceOnUse">
<stop stop-color="#8DAFC8"/>
<stop offset="1" stop-color="#D5E4F0"/>
</linearGradient>
<linearGradient id="paint21_linear_0_1" x1="216.112" y1="372.23" x2="213.926" y2="384.018" gradientUnits="userSpaceOnUse">
<stop stop-color="#C8DBEC"/>
<stop offset="1" stop-color="#E9F1F7"/>
</linearGradient>
<linearGradient id="paint22_linear_0_1" x1="195.884" y1="370.093" x2="193.698" y2="381.88" gradientUnits="userSpaceOnUse">
<stop stop-color="#C8DBEC"/>
<stop offset="1" stop-color="#E9F1F7"/>
</linearGradient>
<clipPath id="clip0_0_1">
<rect width="428" height="314" fill="white" transform="translate(53 92)"/>
</clipPath>
</defs>
</svg>
