<svg width="255" height="255" viewBox="0 0 255 255" fill="none" xmlns="http://www.w3.org/2000/svg">
<path d="M127.5 255C197.916 255 255 197.916 255 127.5C255 57.0837 197.916 0 127.5 0C57.0837 0 0 57.0837 0 127.5C0 197.916 57.0837 255 127.5 255Z" fill="black" fill-opacity="0.1"/>
<path d="M127.499 170.786C154.883 170.786 177.083 142.068 177.083 106.643C177.083 71.2171 154.883 42.499 127.499 42.499C100.115 42.499 77.916 71.2171 77.916 106.643C77.916 142.068 100.115 170.786 127.499 170.786Z" fill="white"/>
<path d="M127.498 175.312C87.5559 175.312 52.5328 189.675 31.873 211.515C55.2874 238.078 89.3268 254.802 127.498 254.802C165.669 254.802 199.709 238.078 223.123 211.515C202.463 189.872 167.243 175.312 127.498 175.312Z" fill="white"/>
<path d="M130.846 208.368H123.959C113.531 208.368 105.07 199.907 105.07 189.479V146.389C105.07 135.961 113.531 127.5 123.959 127.5H130.846C141.274 127.5 149.735 135.961 149.735 146.389V189.479C149.735 199.907 141.274 208.368 130.846 208.368Z" fill="white"/>
<path d="M84.6047 109.595C87.5561 117.859 86.3755 125.926 82.0468 127.303C77.7181 128.877 72.0121 123.171 69.0607 114.907C66.1093 106.643 67.2899 98.5763 71.6186 97.199C75.9473 95.6249 81.85 101.134 84.6047 109.595Z" fill="white"/>
<path d="M170.195 109.595C167.244 117.859 168.425 125.926 172.753 127.303C177.082 128.877 182.788 123.171 185.739 114.907C188.691 106.643 187.51 98.5763 183.182 97.199C178.853 95.6249 172.95 101.134 170.195 109.595Z" fill="white"/>
<path d="M188.298 115.104C187.117 99.3635 187.708 83.0325 182.592 68.0788C176.886 51.1575 163.703 36.7941 146.978 30.4978C130.254 24.2015 110.381 26.7594 96.4113 37.9746C91.4923 41.9098 87.1636 47.4191 87.5571 53.7154C79.0965 50.764 69.6521 56.8635 65.7169 64.9306C61.7817 72.9978 61.9784 82.2455 62.5687 91.2964C64.1428 117.465 68.2747 144.225 61.1914 169.607C82.8349 170.197 104.675 170.984 126.319 171.574C133.205 171.771 140.289 171.968 147.175 171.771C164.884 170.984 183.379 167.049 200.103 172.951C193.61 154.063 189.675 134.583 188.298 115.104Z" fill="white"/>
</svg>
