<svg width="255" height="255" viewBox="0 0 255 255" fill="none" xmlns="http://www.w3.org/2000/svg">
<path d="M255 127.5C255 57.0837 197.916 2.77087e-06 127.5 5.83684e-06C57.0837 8.90281e-06 -8.68512e-06 57.0837 -5.59506e-06 127.5C-2.50499e-06 197.916 57.0837 255 127.5 255C197.916 255 255 197.916 255 127.5Z" fill="black" fill-opacity="0.1"/>
<path d="M127.416 179.85C154.8 179.85 176.999 149.106 176.999 111.181C176.999 73.256 154.8 42.5117 127.416 42.5117C100.031 42.5117 77.832 73.256 77.832 111.181C77.832 149.106 100.031 179.85 127.416 179.85Z" fill="white"/>
<path d="M126.631 175.326C85.1147 175.326 48.1238 185.361 23.332 200.905C46.353 233.567 84.3276 254.817 127.418 254.817C170.115 254.817 207.893 233.764 230.914 201.692C206.319 185.558 168.738 175.326 126.631 175.326Z" fill="white"/>
<path d="M135.09 208.382H119.94C109.511 208.382 101.051 199.921 101.051 189.493V146.403C101.051 135.974 109.511 127.514 119.94 127.514H135.09C145.519 127.514 153.979 135.974 153.979 146.403V189.493C153.979 199.921 145.519 208.382 135.09 208.382Z" fill="white"/>
<path d="M85.7014 115.118C87.2754 126.137 84.7175 135.581 80.192 136.368C75.6666 137.155 70.7476 128.891 69.3702 117.873C67.7962 106.854 70.3541 97.4098 74.8795 96.6228C79.405 95.639 84.324 104.1 85.7014 115.118Z" fill="white"/>
<path d="M169.13 115.118C167.556 126.136 170.114 135.581 174.639 136.368C179.165 137.155 184.084 128.891 185.461 117.872C187.035 106.854 184.477 97.4092 179.952 96.6222C175.426 95.8351 170.704 104.099 169.13 115.118Z" fill="white"/>
<path d="M79.6027 108.43C78.0286 97.4111 76.2578 86.3926 74.6837 75.374C74.0934 71.4388 73.5032 67.1101 74.8805 63.3717C76.2578 59.6332 80.5865 56.6818 84.325 58.0591C82.7509 50.3855 91.2116 44.6795 98.6885 42.3183C111.084 37.9896 124.267 35.8253 137.253 37.5961C150.24 39.3669 162.832 45.073 171.686 54.7142C174.441 57.8624 176.802 61.2073 178.18 65.1425C180.737 72.6194 179.163 80.8833 177.392 88.7537C176.015 94.8533 174.835 101.15 173.457 107.249C173.064 108.626 172.867 110.201 171.883 111.184C170.309 112.955 167.751 112.955 165.39 112.955C140.795 112.955 116.2 113.152 91.6051 113.152C87.0796 113.152 80.98 111.971 80.3898 107.446" fill="white"/>
</svg>
