<?xml version="1.0" encoding="utf-8"?>
<!-- Generator: Adobe Illustrator 26.1.0, SVG Export Plug-In . SVG Version: 6.00 Build 0)  -->
<svg width="232"  version="1.1" id="Layer_1" xmlns="http://www.w3.org/2000/svg" xmlns:xlink="http://www.w3.org/1999/xlink" x="0px" y="0px"
	 viewBox="0 0 232 129" style="enable-background:new 0 0 232 129;" xml:space="preserve">
<style type="text/css">
	.st0{clip-path:url(#SVGID_00000175295739894682747310000003167199815030742173_);}
	.st1{fill:#EF6238;}
	.st2{fill:#F7B58E;}
	.st3{fill:#D64C36;}
	.st4{fill:#F3835F;}
	.st5{fill:#FD906C;}
	.st6{fill:#282222;}
	.st7{fill:#EDECEC;}
	.st8{fill:#FFFFFF;}
	.st9{fill:#E5E5E5;}
	.st10{fill:#BFE3ED;}
</style>
<g>
	<defs>
		<rect id="SVGID_1_" y="16" width="232" height="113"/>
	</defs>
	<clipPath id="SVGID_00000044867500734281876710000011771885161824960138_">
		<use xlink:href="#SVGID_1_"  style="overflow:visible;"/>
	</clipPath>
	<g style="clip-path:url(#SVGID_00000044867500734281876710000011771885161824960138_);">
		<path class="st1" d="M142.9,33.9c8.7,0,15.7,7,15.7,15.7c0,3.2-1,5.1-2.8,8.7c-2.7,5.3,1.7,7.6,1.7,7.6S145.9,66,142.9,66
			c-8.7,0-15.7-7.7-15.7-16.4C127.2,40.9,134.2,33.9,142.9,33.9z"/>
		<path class="st2" d="M199.1,72.5c-0.3,0-0.6,0.4-0.6,0.4l-2.7,3.6l-1-1.1c-0.9-0.9-4,1.4-3.3,0.3l4.5-6.3c0,0,0.4-0.7,1.6-1.1
			c1.3-0.4,8.1-1.5,8.1-1.5s1.1,0,0.3,0.9c-0.8,0.9-4.1,1.5-4.1,1.5s-0.3,0.1-0.1,0.1c0.3,0.1,3.2-0.6,3.9-1.1
			c0.7-0.5,2.8-3.9,4.4-3.9c0.6,0-3.8,6.1-3.8,6.1s-0.4,0.7-1.5,0.9C203.6,71.6,199.4,72.4,199.1,72.5z"/>
		<path class="st1" d="M163.2,101.9c0,0,20.1,3.7,34-26.9c-5.7,0-5.9,0-5.9,0s-18.7,20.2-33.2,8.7
			C143.6,72.2,163.2,101.9,163.2,101.9z"/>
		<path class="st3" d="M164.6,128.2l-1.4-32.2c0.1-6.8-4.8-13.8-8.7-18.4c-0.1-0.1-0.2,0-0.3,0c-3,0-8.2-0.3-14.8,6
			c-6.1,5.7-2.7,38.5-1.7,44.6H164.6z"/>
		<path class="st2" d="M158.6,122.6c0,0,2.6-1.6,6.1-1.6c1.6,0,3.3,1.2,4.7,2.4c1.1,1,0.4,2.4-1.1,2.4h-11.8L158.6,122.6z"/>
		<path class="st1" d="M147.1,80.7c-7.5-5-15.3,14.6-15.3,24.8s25.2,20.7,25.2,20.7l1.5-3.6c0,0-13.7-13.7-16.2-18.7
			C144.9,95.9,152.2,84.1,147.1,80.7z"/>
		<path class="st4" d="M71.1,68.6L71,79.6h-6.1l-1-4.7l6-6.3H71.1z"/>
		<path class="st5" d="M60.6,76c-4.5-6-3.5-14.7-3.5-14.7l4.3-2.6l6.7,2.6l1.4,7c0,0.1-0.6,0.1-0.6,0.2c0.6,2.6-0.5,4.2-2.4,6.1
			C65.3,75.8,62.3,77.5,60.6,76z"/>
		<path class="st6" d="M67.6,63.8c-0.6-1.1-1.3-3.8-2.4-3.3c-0.8,0.4-3.8,1.4-4.8,1.7c-2.4,0.7-6.9,1.1-8-2.6
			c-0.5-1.8,0.7-3.9,1.7-4.7c1-0.8,2.2-1.1,3.4-1.1c2.9,0.1,6.7,0.7,8.3,0.4c2.5-0.4,4.9-0.5,5.5,1.5c0.6,2.1,0.4,5.7,0,8
			c-0.3,1.4-0.7,2.6-1.5,3.8L67.6,63.8z"/>
		<path class="st3" d="M57.5,85.4c0,0-6.1,16-10.2,19.7c-4.1,3.7-9.1,6.1-9.1,6.1l3.3,7.1c0,0,13.9-3.8,16-10.4
			C58.7,104.1,57.5,85.4,57.5,85.4z"/>
		<path class="st1" d="M60.1,73.4l0-0.8l-1.6,0c-0.3,0-0.6-0.1-0.8-0.4c-0.2-0.2-0.3-0.6-0.2-0.9l0.3-1.2L57.3,68l-0.7,3.2
			c-0.1,0.6,0,1.1,0.4,1.6c0.4,0.4,0.9,0.7,1.5,0.7L60.1,73.4z"/>
		<path class="st6" d="M59.8,73.7l1.1,0c0.4,0,0.7-0.3,0.7-0.8c0-0.4-0.3-0.7-0.8-0.7l-1.1,0c-0.4,0-0.7,0.3-0.7,0.8
			C59.1,73.4,59.4,73.7,59.8,73.7z"/>
		<path class="st1" d="M55.8,128.2l-0.7-30.9c-0.1-6.8,0.7-15.4,12.1-19.7c0.1,0,0.2,0,0.3,0c3,0,8.2-0.3,14.8,6
			c6.1,5.7,0,38.5-1.1,44.6H55.8z"/>
		<path class="st2" d="M63.1,122.6c0,0-2.6-1.6-6.1-1.6c-1.6,0-3.3,1.2-4.7,2.4c-1.1,1-0.4,2.4,1.1,2.4h11.8L63.1,122.6z"/>
		<path class="st3" d="M74.6,80.7c7.5-5,15.3,14.6,15.3,24.8s-25.2,20.7-25.2,20.7l-1.5-3.6c0,0,13.7-13.7,16.2-18.7
			C76.8,95.9,69.5,84.1,74.6,80.7z"/>
		<path class="st1" d="M62,54.3c0.4-0.7,3.3-0.5,3.3-0.5c3.3,0,6,3.1,6,6.4v5.6h-1v-5.6c0-2.8-2.3-5.6-5.1-5.6L62,54.3z"/>
		<path class="st1" d="M70.4,70.7c1.9,0,3.4-1.5,3.4-3.4c0-1.9-1.5-3.4-3.4-3.4c-1.9,0-3.4,1.5-3.4,3.4
			C67.1,69.2,68.6,70.7,70.4,70.7z"/>
		<path class="st6" d="M61.3,126H16.5v2.1h44.8V126z"/>
		<path class="st6" d="M5,104.4h34.9L51.4,128H16.5L5,104.4z"/>
		<path class="st7" d="M28,114.6c0,0.8-0.6,1.4-1.4,1.4c-0.8,0-1.4-0.6-1.4-1.4c0-0.8,0.6-1.4,1.4-1.4S28,113.8,28,114.6z"/>
		<path class="st4" d="M105.2,73.9v7.9l3.7,5.7l3.3-5.5v-8L105.2,73.9z"/>
		<path class="st6" d="M122,57.9c0.2-2.2,0.7-3.6,0-5.8c-0.3-0.9-0.7-1.8-1.3-2.6c-5.4-7.8-10.5-4.7-11.8-3.7v24.9
			c0.3-0.1,1.2,0.1,4.4,1.2c6.6,2.3,11.2-0.7,11.2-0.7S120.8,70,122,57.9z"/>
		<path class="st6" d="M109,46v6.4V46C109,46,109,46,109,46z"/>
		<path class="st6" d="M95.9,57.9c-0.2-2.2-0.7-3.6,0-5.8c0.3-0.9,0.7-1.8,1.3-2.6c5.4-7.8,10.9-4.7,12.2-3.7L109,70.7
			c-0.3-0.1-1.2,0.1-4.4,1.2c-6.6,2.3-11.1-0.7-11.1-0.7S97.1,70,95.9,57.9z"/>
		<path class="st6" d="M109,46v6.4V46C108.9,46,108.9,46,109,46z"/>
		<path class="st1" d="M129,104.6l-3.3-2.1l10.2-4.5l-5.3-9.6c-2-4.1-10-7.5-14.8-7.5l-6.8,4.9l-6.4-5.1c-4.8,0-12.4,3.6-14.4,7.7
			L82.9,98l10.2,4.5l-3.3,2.1L88,120.2l21.4-0.3l21.4,0.3L129,104.6z"/>
		<path class="st2" d="M135.9,98l2.1,6.9c1.5,5.1-0.1,10.5-4.2,14.1l-9.6,7.5l-3.1-8.3l5.3-4.9c1.7-1.6,2.2-4,1.3-6.2l-2-4.5
			L135.9,98z"/>
		<path class="st2" d="M83,98l-2.1,6.9c-1.5,5.1,0.1,10.5,4.2,14.1l9.6,7.5l3.1-8.3l-5.3-4.9c-1.7-1.6-2.2-4-1.3-6.2l2-4.5L83,98z"
			/>
		<path class="st6" d="M85.8,129h47.4l2.3-27.9c0.1-1.2-0.9-2.2-2.1-2.2H85.5c-1.2,0-2.1,0.9-2.1,2.1L85.8,129z"/>
		<path class="st3" d="M112.4,77.9l-3.4,8l-3.8-8l-3.4,2.8l7.2,5.8l6.9-5.6L112.4,77.9z"/>
		<path class="st1" d="M118.1,62.9c1.2-0.5,1.8-1.9,1.3-3.1c-0.5-1.2-1.9-1.8-3.1-1.3c-1.2,0.5-1.8,1.9-1.3,3.1
			C115.6,62.8,116.9,63.4,118.1,62.9z"/>
		<path class="st1" d="M101.2,62.9c1.2-0.5,1.8-1.9,1.3-3.1c-0.5-1.2-1.9-1.8-3.1-1.3c-1.2,0.5-1.8,1.9-1.3,3.1
			C98.7,62.8,100,63.4,101.2,62.9z"/>
		<path class="st5" d="M108.8,75c-2.8,0-4.9-1.6-6.3-3.9c-0.9-1.6-1.4-3.4-1.4-5.3v-7c0-4.2,3.5-7.7,7.7-7.7c4.2,0,7.7,3.5,7.7,7.7
			v6.6c0,1.4-0.3,2.9-0.9,4.2C114.3,72.8,112.3,75,108.8,75z"/>
		<path class="st6" d="M109.1,50.2c-2.5-4.3-10.3,0.9-10.3,0.9l2.4,9.6c0,0,5.9-1,7.9-5.5c1.7,4.5,7.5,5.5,7.5,5.5l2.9-9.6
			C119.4,51.1,111.5,45.9,109.1,50.2z"/>
		<path class="st1" d="M99.3,59.3c0-0.2-0.8-6.1,2.4-9.8c1.6-1.9,4-2.8,7.1-2.8c3.1,0,5.5,1,7.2,2.9c3.2,3.6,2.5,9.2,2.5,9.5
			l-1.4-0.2c0-0.1,0.7-5.3-2.1-8.5c-1.4-1.6-3.5-2.4-6.2-2.4c-2.7,0-4.7,0.8-6.1,2.4c-2.8,3.3-2,8.7-2,8.8L99.3,59.3z"/>
		<path class="st1" d="M107.2,71.4c-0.1,0-2.7-0.2-4.8-1.1c-1.9-0.8-3.2-2.7-3.2-4.9v-3.1h1.3v3.1c0,1.6,1,3.1,2.4,3.7
			c1.9,0.8,4.2,1,4.2,1L107.2,71.4z"/>
		<path class="st1" d="M111,72.3h-3.1c-0.4,0-0.8-0.4-0.8-0.8V70c0-0.4,0.4-0.8,0.8-0.8h3.1c0.4,0,0.8,0.4,0.8,0.8v1.5
			C111.8,71.9,111.4,72.3,111,72.3z"/>
		<path class="st8" d="M109,114.7c0.8,0,1.4-0.6,1.4-1.4s-0.6-1.4-1.4-1.4s-1.4,0.6-1.4,1.4S108.2,114.7,109,114.7z"/>
		<path class="st4" d="M155.1,72.7l-1.5,9.1l-6.2-5.4l2-9.9L155.1,72.7z"/>
		<path class="st6" d="M156.2,57.1c-4.4,0.6-6.7,6.3-6.7,6.3l0.1,16.8l-7.6-6.3c0,0-0.6-8,1.3-16.2c1.6-5.2,8.3-6.6,13-4
			c2.3,1.2,3.6,3.7,4.4,6.1c1.1,3.2,1.2,6.7,0.5,10.1l-2.6,12.4l-4.1-4.4c0,0,0-2,0.8-5.1C156.8,66.5,159.2,56.7,156.2,57.1z"/>
		<path class="st2" d="M148.2,63.6c0.5-0.5,1.4-0.4,2.1,0.2c0.6,0.6,0.8,1.5,0.3,1.9c-0.5,0.5-1.4,0.4-2.1-0.2
			C147.8,64.9,147.7,64.1,148.2,63.6z"/>
		<path class="st5" d="M157,72.8c0.9,0,1.7-0.2,2.1-0.5c2.5-4-0.3-14.6-0.3-14.6l-4-1.8l-5,3.4l-0.3,7.1c-0.1,1.9,0.8,3.7,2.2,4.9
			C153.2,72.3,155.1,72.9,157,72.8z"/>
		<path class="st6" d="M157,56.5c0.9,3.2-8,7.1-8,7.1l-1.7-4.2l3.9-4.7l4.9,0.8C156.2,55.4,156.8,55.9,157,56.5z"/>
		<path class="st6" d="M157.1,57.1c0.2,1.3,2.1,2.8,2.1,2.8l0.2-1.5l-0.4-1.1l-1-0.6C157.9,56.8,156.9,55.9,157.1,57.1z"/>
		<path class="st2" d="M171.2,123.1c0-0.4-0.2-0.8-0.6-1l-4-1.6c-1-0.4-2.1-0.4-3.1,0l-3.9,1.7l-0.9,1.2l0.2,2.2
			c0.8-0.3,1.2-0.5,1.2-0.5l2.5-0.3c0,0,5.4,3.7,7.2-0.5c0.7,4.1,1.9,3.6,1.9,3.6L171.2,123.1z"/>
		<path class="st6" d="M203.2,126h-44.8v2.1h44.8V126z"/>
		<path class="st6" d="M216.2,104.4h-34.9L169.8,128h34.9L216.2,104.4z"/>
		<path class="st7" d="M193.6,114.6c0,0.8,0.6,1.4,1.4,1.4c0.8,0,1.4-0.6,1.4-1.4c0-0.8-0.6-1.4-1.4-1.4
			C194.2,113.2,193.6,113.8,193.6,114.6z"/>
		<path class="st8" d="M140.6,53.4l5.9-6.7c1.2,0.4,2.5,0,3.4-1c0.6-0.7,0.9-1.7,0.8-2.6l-1,1.1c-0.6,0.7-1.3,1-2,0.9l-1.7-1.5l0,0
			c-0.2-0.7,0-1.4,0.6-2.1l1-1.1c-0.9,0-1.8,0.4-2.4,1.1c-0.9,1-1.1,2.5-0.5,3.6l0,0l-0.1-0.1l-5.8,6.6c-1.2-0.4-2.5,0-3.4,1
			c-0.6,0.7-0.9,1.7-0.8,2.6l1-1.1c0.6-0.7,1.3-1,2-0.9l1.7,1.5l0,0c0.2,0.7,0,1.4-0.6,2.1l-1,1.1c0.9,0,1.8-0.4,2.4-1.1
			C140.9,55.9,141.1,54.5,140.6,53.4z"/>
		<path class="st1" d="M34.3,49.2c7.4,0,13.4,6,13.4,13.4c0,2.7-0.8,4.3-2.4,7.4c-2.3,4.5,1.5,6.4,1.5,6.4s-9.9,0.1-12.5,0.1
			c-7.4,0-13.4-6.6-13.4-13.9C20.9,55.2,26.9,49.2,34.3,49.2z"/>
		<path class="st6" d="M81.6,16.2c9.3,1.4,15.8,10,14.4,19.3c-0.5,3.5-1.8,5.3-4.4,8.9c-3.7,5.3,0.7,8.4,0.7,8.4s-12.5-1.7-15.8-2.2
			c-9.3-1.4-15.7-10.7-14.3-20.1C63.6,21.3,72.3,14.8,81.6,16.2z"/>
		<path class="st6" d="M208.5,61.8c4.3-4.3,4.3-11.3,0-15.7c-4.3-4.3-11.3-4.3-15.7,0c-4.3,4.3-4.3,11.3,0,15.7
			C197.2,66.1,204.2,66.1,208.5,61.8z"/>
		<path class="st8" d="M89.8,35.1c-0.1-0.2-0.8-0.7-1.8-1c0-0.8,0-1.7-0.2-2.5c0.8-0.4,1.6-0.8,1.6-1.2c0.1-0.9-1.2-2.8-1.5-3
			c-0.2-0.1-1.1,0.1-2,0.6c-0.5-0.6-1.2-1.2-1.9-1.6c0.3-0.8,0.5-1.7,0.3-2c-0.5-0.7-2.8-1.2-3.2-1c-0.2,0.1-0.7,0.8-1,1.8
			c-0.9-0.1-1.7,0-2.5,0.1c-0.4-0.8-0.8-1.5-1.2-1.6c-0.9-0.1-2.8,1.2-3,1.5c-0.1,0.2,0.1,1,0.5,1.8c-0.7,0.6-1.3,1.2-1.8,2
			c-0.7-0.3-1.5-0.4-1.8-0.2c-0.7,0.5-1.2,2.8-1,3.2c0.1,0.2,0.7,0.6,1.5,0.9c-0.1,0.9,0,1.9,0.2,2.8c-0.7,0.3-1.3,0.7-1.3,1.1
			c-0.1,0.9,1.2,2.8,1.5,3c0.2,0.1,0.9-0.1,1.6-0.4c0.6,0.7,1.3,1.3,2.1,1.8c-0.2,0.7-0.4,1.4-0.2,1.7c0.5,0.7,2.8,1.2,3.2,1
			c0.2-0.1,0.6-0.7,0.9-1.5c0.9,0.1,1.8,0,2.7-0.3c0.3,0.7,0.7,1.3,1.1,1.4c0.9,0.1,2.8-1.2,3-1.5c0.1-0.2-0.1-1-0.5-1.8
			c0.6-0.6,1.2-1.3,1.7-2c0.8,0.3,1.6,0.5,1.9,0.2C89.5,37.8,90,35.5,89.8,35.1z M78.2,37.3c-2-0.7-3.1-2.8-2.5-4.9
			c0.7-2,2.9-3.1,4.9-2.5c2,0.7,3.1,2.8,2.5,4.9C82.4,36.9,80.3,38,78.2,37.3z"/>
		<path class="st9" d="M41.2,57.7c-1.4,0.9-5.2,1.5-7.1-1v14.4C42.6,65.1,41.2,57.7,41.2,57.7z"/>
		<path class="st8" d="M27,57.7c1.4,0.9,5.2,1.5,7.1-1v14.4C25.6,65.1,27,57.7,27,57.7z"/>
		<path class="st8" d="M199.2,54.4c0.7-1,1-1.9,1-2.6c0-0.8-0.3-1.4-0.8-1.8c-0.5-0.4-1.3-0.6-2.2-0.6c-0.6,0-1.1,0.1-1.6,0.4
			c-0.5,0.3-0.8,0.7-1,1.1l1.1,0.9c0.4-0.7,0.9-1,1.5-1c0.8,0,1.3,0.3,1.3,1c0,0.6-0.3,1.3-0.9,2.2l-2.9,4.3v0.5h6.1v-1.5h-3.5
			L199.2,54.4z"/>
		<path class="st8" d="M206.8,55v-5.6H206l-5.1,5.9v0.9h4.2v2.4h1.6v-2.4h0.9V55H206.8z M205.2,55h-2.4l2.4-2.8V55z"/>
		<path class="st8" d="M43.4,34.1c-1.3,1.4-2.3,2.1-3,2.1c-0.4,0-0.7-0.2-0.9-0.6c-0.2-0.4-0.4-0.8-0.4-1.4c0-1.2,0.4-2.9,1.2-5
			l2.2-0.4h0.1l-0.8,2.7c-0.4,1.1-0.5,1.9-0.5,2.4c0,0.2,0,0.3,0.1,0.5c0.1,0.1,0.2,0.2,0.3,0.2c0.2,0,0.4-0.1,0.7-0.2
			c0.2-0.2,0.6-0.5,1.1-1.1L43.4,34.1L43.4,34.1z M43.2,25.4c0,1.4-0.5,2-1.5,2c-0.5,0-0.9-0.1-1.3-0.4c0.3-0.5,0.6-1.1,0.8-1.7
			c0.4,0.3,0.8,0.4,1.1,0.4C42.6,25.8,42.9,25.7,43.2,25.4z"/>
		<path class="st10" d="M174.4,40.5V39l0.3,1.5H174.4z"/>
		<path class="st1" d="M157.8,71.2l0-0.8l1.6,0c0.3,0,0.6-0.1,0.8-0.4c0.2-0.2,0.3-0.6,0.2-0.9l-0.4-1l0-2.6l1.2,3.5
			c0.1,0.6,0,1.1-0.4,1.6c-0.4,0.4-0.9,0.7-1.5,0.7L157.8,71.2z"/>
		<path d="M158,71.5l-1.1,0c-0.4,0-0.7-0.3-0.7-0.8c0-0.4,0.3-0.7,0.8-0.7l1.1,0c0.4,0,0.8,0.3,0.7,0.8
			C158.8,71.2,158.4,71.5,158,71.5z"/>
		<path class="st1" d="M155.3,53.2c-0.4-0.7-2.8-0.5-2.8-0.5c-3.3,0-6,3.1-6,6.4v5.6h1v-5.6c0-2.8,2.3-5.6,5.1-5.6L155.3,53.2z"/>
		<path class="st1" d="M149.2,69.1c1.6-1,2.1-3.1,1.1-4.6c-1-1.6-3.1-2.1-4.6-1.1c-1.6,1-2.1,3.1-1.1,4.6
			C145.5,69.5,147.6,70,149.2,69.1z"/>
		<path class="st1" d="M170.9,16.3c-4.9,0-8.9,4-8.9,8.9c0,1.8,0.5,2.9,1.6,4.9c1.5,3-1,4.3-1,4.3s6.6,0,8.3,0
			c4.9,0,8.9-4.4,8.9-9.3C179.8,20.2,175.8,16.3,170.9,16.3z"/>
		<path class="st8" d="M167.3,26.4c0.6-0.1,1-0.7,0.8-1.3c-0.1-0.6-0.7-1-1.3-0.8c-0.6,0.1-1,0.7-0.8,1.3
			C166.2,26.2,166.7,26.5,167.3,26.4z"/>
		<path class="st8" d="M171.1,26.4c0.6-0.1,1-0.7,0.8-1.3c-0.1-0.6-0.7-1-1.3-0.8c-0.6,0.1-1,0.7-0.8,1.3
			C169.9,26.2,170.5,26.5,171.1,26.4z"/>
		<path class="st8" d="M174.7,26.4c0.6-0.1,1-0.7,0.8-1.3c-0.1-0.6-0.7-1-1.3-0.8c-0.6,0.1-1,0.7-0.8,1.3
			C173.6,26.2,174.2,26.5,174.7,26.4z"/>
		<path class="st1" d="M37.5,34.1c5,0,9-4,9-9c0-5-4-9-9-9s-9,4-9,9C28.4,30,32.5,34.1,37.5,34.1z"/>
		<path class="st1" d="M37.4,34.1c5,0,9.1-4,9.1-9c0-5-4.1-9-9.1-9c-5,0-9.1,4-9.1,9C28.3,30,32.4,34.1,37.4,34.1z"/>
		<path class="st8" d="M37.5,21.3c-0.6,0-1-0.2-1.2-0.6c-0.2-0.3-0.4-0.8-0.4-1.3c0-0.5,0.1-0.9,0.4-1.3c0.3-0.3,0.7-0.5,1.2-0.5
			c0.5,0,1,0.2,1.3,0.5c0.3,0.3,0.4,0.7,0.4,1.3c0,0.6-0.1,1-0.4,1.3C38.5,21.1,38.1,21.3,37.5,21.3z"/>
		<path class="st8" d="M39.2,22.2h-3.3v8.5h3.3V22.2z"/>
		<path class="st8" d="M39.7,30.8h-5.3c-0.1,0-0.2-0.1-0.2-0.1c0-0.1,0.1-0.2,0.2-0.2h5.2c0.1,0,0.2,0.1,0.2,0.1v0.1
			C39.8,30.7,39.8,30.8,39.7,30.8z"/>
		<path class="st8" d="M39.2,22.6h-5.1c-0.1,0-0.2-0.1-0.2-0.2c0-0.1,0.1-0.1,0.2-0.1H39c0.1,0,0.2,0.1,0.2,0.2V22.6z"/>
	</g>
</g>
</svg>
