<svg width="241" height="136" viewBox="0 0 241 136" fill="none" xmlns="http://www.w3.org/2000/svg">
<g clip-path="url(#clip0_298_9684)">
<path d="M18.8133 113.017C38.2546 121.009 105.58 115.36 151.737 116.585C186.594 117.506 194.786 118.995 213.83 118.575C241.645 117.959 241.645 87.5993 240.744 72.2717C239.487 50.9084 236.256 25.7296 196.778 4.77739C177.303 -5.55891 132.221 1.69377 103.034 18.7482C75.8396 34.6351 54.3483 10.3361 28.567 17.0872C-2.65321 25.2526 -11.7209 100.468 18.8133 113.017Z" fill="#EEF5F9"/>
<path d="M121.815 136C185.48 136 237.091 133.758 237.091 130.992C237.091 128.226 185.48 125.984 121.815 125.984C58.1499 125.984 6.53906 128.226 6.53906 130.992C6.53906 133.758 58.1499 136 121.815 136Z" fill="#DEE9F7"/>
<path d="M178.774 94.523L172.781 90.9789C170.607 89.6961 169.855 86.9332 171.078 84.7294L193.693 43.4829L210.738 53.5643L185.113 93.0264C183.75 95.1479 180.947 95.8058 178.774 94.523Z" fill="#FFA633"/>
<path d="M191.371 47.6767C191.371 47.6767 195.364 49.1322 199.86 51.7964C204.357 54.4525 208.143 57.6019 208.143 57.6019L210.73 53.5726L193.686 43.4912L191.371 47.6767Z" fill="#FF822B"/>
<path d="M170.731 85.5435C170.334 86.744 170.466 88.035 171.028 89.1205L181.27 95.1808C182.501 95.1561 183.692 94.6463 184.568 93.7336L170.731 85.5435Z" fill="#D2E7FF"/>
<path d="M184.75 59.7975L178.914 70.438L181.972 82.3942L193.991 79.3599L200.595 69.1799L197.388 56.6069L184.75 59.7975Z" fill="#FF822B"/>
<path d="M206.242 50.9082L180.675 90.3292C179.295 92.4754 176.476 93.1661 174.311 91.8834L178.782 94.5312C180.956 95.8139 183.758 95.1561 185.114 93.0346L210.738 53.5725L206.242 50.9082Z" fill="#FF822B"/>
<path d="M197.106 69.7163L194.76 60.5352L185.531 62.8693L187.877 72.0504L197.106 69.7163Z" fill="#EBE9F8"/>
<path opacity="0.36" d="M176.005 87.9202L175.187 87.435C174.434 86.991 173.376 85.922 174.6 83.8169L196.876 45.3662L202.77 48.8528L179.452 86.695C178.179 88.7671 176.757 88.3642 176.005 87.9202Z" fill="#FDEAE8"/>
<path d="M181.404 95.1271L170.988 88.9658L167.803 94.2948L178.218 100.456L181.404 95.1271Z" fill="#FF822B"/>
<path d="M168.6 94.7699L169.426 95.2633L172.617 89.9348L171.79 89.4414L168.6 94.7699ZM170.592 95.9458L171.418 96.4392L174.609 91.1107L173.782 90.6173L170.592 95.9458ZM172.592 97.1299L173.419 97.6233L176.609 92.2948L175.783 91.8014L172.592 97.1299ZM174.592 98.314L175.419 98.8074L178.61 93.4789L177.783 92.9855L174.592 98.314ZM179.775 94.1614L176.584 99.4899L177.411 99.9833L180.602 94.6548L179.775 94.1614Z" fill="#FFA633"/>
<path d="M101.66 37.5297L97.1387 53.0958H104.619L106.711 42.7184C106.992 41.3123 108.231 40.2926 109.67 40.2926C114.935 42.1017 120.118 42.1593 125.201 40.2926C126.64 40.2926 127.879 41.3041 128.161 42.7184L130.252 53.0958H137.732L133.211 37.5297C132.74 35.9016 131.244 34.7832 129.549 34.7832H105.314C103.627 34.775 102.131 35.9016 101.66 37.5297Z" fill="#EF6238"/>
<path opacity="0.54" d="M131.731 52.1667L129.4 41.5919C129.086 40.1529 127.705 39.125 126.102 39.125C120.431 41.0327 114.654 40.9669 108.793 39.125C107.19 39.125 105.809 40.1611 105.495 41.5919L103.164 52.1667H97.4193L97.1465 53.0959H104.627L106.718 42.7184C106.999 41.3123 108.239 40.2927 109.678 40.2927C114.943 42.1017 120.126 42.1593 125.209 40.2927C126.647 40.2927 127.887 41.3041 128.168 42.7184L130.26 53.0959H137.74L137.467 52.1667H131.731Z" fill="#EF6238"/>
<path opacity="0.36" d="M102.471 38.5657C102.917 36.9375 104.339 35.8192 105.942 35.8192H128.93C130.542 35.8192 131.955 36.9375 132.401 38.5657L136.402 53.0875H137.733L133.211 37.5214C132.74 35.8932 131.244 34.7749 129.55 34.7749H105.314C103.62 34.7749 102.123 35.8932 101.652 37.5214L97.1309 53.0875H98.4617L102.471 38.5657Z" fill="#FDEAE8"/>
<path d="M173.946 127.958H60.935C59.0752 127.958 57.5708 126.453 57.5708 124.595L54.7852 84.1459L57.5708 52.5038C57.5708 50.6454 59.0752 49.1406 60.935 49.1406H173.946C175.806 49.1406 177.31 50.6454 177.31 52.5038L180.096 84.1459L177.31 124.595C177.31 126.453 175.806 127.958 173.946 127.958Z" fill="#EF6238"/>
<path opacity="0.54" d="M175.203 124.249H59.6787C58.8439 124.249 58.0834 123.945 57.4883 123.46L57.5627 124.595C57.5627 126.453 59.0671 127.958 60.9269 127.958H173.938C175.798 127.958 177.302 126.453 177.302 124.595L177.385 123.46C176.79 123.945 176.038 124.249 175.203 124.249Z" fill="#F49377"/>
<path opacity="0.36" d="M173.947 49.1489H60.9357C59.2329 49.1489 57.8443 50.4153 57.6211 52.0434C57.8525 53.6798 59.2412 54.9379 60.9357 54.9379H173.947C175.65 54.9379 177.038 53.6716 177.261 52.0434C177.038 50.4153 175.641 49.1489 173.947 49.1489Z" fill="#FDEAE8"/>
<path opacity="0.54" d="M55.6771 97.1298H179.202L179.698 89.9429H55.1895L55.6771 97.1298Z" fill="#F49377"/>
<path d="M179.509 94.1204H55.372C54.2809 94.1204 53.3965 93.2405 53.3965 92.1551V83.1098C53.3965 82.0244 54.2809 81.1445 55.372 81.1445H179.509C180.6 81.1445 181.485 82.0244 181.485 83.1098V92.1551C181.485 93.2323 180.6 94.1204 179.509 94.1204Z" fill="#F49377"/>
<path d="M181.485 86.2344H53.3965V89.0137H181.485V86.2344Z" fill="#EF6238"/>
<path d="M127.534 69.8788C127.534 75.1251 123.277 79.3846 118.02 79.3846C112.763 79.3846 108.506 75.1333 108.506 69.8788C108.506 64.6326 112.763 60.373 118.02 60.373C123.277 60.373 127.534 64.6326 127.534 69.8788Z" fill="#FFFAFF"/>
<path d="M124.515 67.4779H120.424V63.3911H115.613V67.4779H111.521V72.2802H115.613V76.367H120.424V72.2802H124.515V67.4779Z" fill="#72C0FF"/>
<path d="M49.479 99.8104C47.3051 99.8104 45.5527 98.0589 45.5527 95.9045V84.0387C45.5527 81.8843 47.3134 80.1328 49.479 80.1328C51.653 80.1328 53.4053 81.8843 53.4053 84.0387V95.9045C53.4136 98.0589 51.653 99.8104 49.479 99.8104Z" fill="#FF822B"/>
<path d="M48.9417 99.7691C50.3965 99.5718 51.5207 98.3465 51.5207 96.8417V83.0929C51.5207 81.5963 50.3965 80.3629 48.9417 80.1655C47.0241 80.4287 45.5527 82.0568 45.5527 84.0303V95.8961C45.5527 97.8778 47.0323 99.506 48.9417 99.7691Z" fill="#FFA633"/>
<path d="M48.4459 96.7763C47.3796 96.7763 46.5117 95.9128 46.5117 94.8521V83.4632C46.5117 82.4025 47.3796 81.5391 48.4459 81.5391C49.5122 81.5391 50.3801 82.4025 50.3801 83.4632V94.8521C50.3719 95.9128 49.5122 96.7763 48.4459 96.7763Z" fill="#FFBB7B"/>
<path d="M48.4379 86.0616C47.727 86.0616 47.1484 85.486 47.1484 84.7788V83.4302C47.1484 82.7231 47.727 82.1475 48.4379 82.1475C49.1488 82.1475 49.7274 82.7231 49.7274 83.4302V84.7788C49.7274 85.4942 49.1488 86.0616 48.4379 86.0616Z" fill="#FFD6A1"/>
<path d="M54.6535 97.2779H44.3046C43.9657 97.2779 43.7012 97.0065 43.7012 96.6776V96.0773C43.7012 95.7402 43.9739 95.4771 44.3046 95.4771H54.6535C54.9924 95.4771 55.2569 95.7484 55.2569 96.0773V96.6776C55.2651 97.0147 54.9924 97.2779 54.6535 97.2779Z" fill="#FF822B"/>
<path d="M52.8441 97.2777H44.694C44.3964 97.2777 44.1484 97.0393 44.1484 96.735V96.0032C44.1484 95.7071 44.3882 95.4604 44.694 95.4604H52.8441C53.1417 95.4604 53.3897 95.6989 53.3897 96.0032V96.735C53.3897 97.0393 53.1417 97.2777 52.8441 97.2777Z" fill="#FFA633"/>
<path d="M50.4621 96.8502H45.2216C45.0149 96.8502 44.8496 96.6857 44.8496 96.4802V95.8881C44.8496 95.6825 45.0149 95.5181 45.2216 95.5181H50.4621C50.6688 95.5181 50.8341 95.6825 50.8341 95.8881V96.4802C50.8341 96.6857 50.6688 96.8502 50.4621 96.8502Z" fill="#FFBB7B"/>
<path d="M55.3227 97.6313H43.6348V108.675H55.3227V97.6313Z" fill="#DDD4EA"/>
<path d="M51.2733 97.6313H44.5449V108.675H51.2733V97.6313Z" fill="#E5E2FA"/>
<path d="M49.2644 97.6313H45.5117V108.675H49.2644V97.6313Z" fill="#F7F6FF"/>
<path opacity="0.59" d="M55.3227 97.6313H43.6348V100.468H55.3227V97.6313Z" fill="#C2BAD6"/>
<path d="M56.1828 99.6048H42.7755C42.3374 99.6048 41.9902 99.2512 41.9902 98.8236V98.0424C41.9902 97.6066 42.3457 97.2612 42.7755 97.2612H56.1828C56.6208 97.2612 56.968 97.6148 56.968 98.0424V98.8236C56.9763 99.2512 56.6208 99.6048 56.1828 99.6048Z" fill="#DDD4EA"/>
<path d="M53.843 99.6048H43.271C42.8825 99.6048 42.5684 99.2923 42.5684 98.9058V97.9602C42.5684 97.5737 42.8825 97.2612 43.271 97.2612H53.8348C54.2232 97.2612 54.5374 97.5737 54.5374 97.9602V98.9058C54.5456 99.2923 54.2315 99.6048 53.843 99.6048Z" fill="#E5E2FA"/>
<path d="M50.7525 99.0456H43.9662C43.7017 99.0456 43.4785 98.8318 43.4785 98.5604V97.7957C43.4785 97.5326 43.6934 97.3105 43.9662 97.3105H50.7525C51.017 97.3105 51.2402 97.5243 51.2402 97.7957V98.5604C51.2402 98.8318 51.017 99.0456 50.7525 99.0456Z" fill="#F7F6FF"/>
<path d="M54.3886 130.498H44.5688C42.0642 130.498 40.0391 128.475 40.0391 125.992V105.772C40.0391 103.28 42.0725 101.266 44.5688 101.266H54.3886C56.8932 101.266 58.9266 103.288 58.9266 105.772V125.992C58.9266 128.475 56.8932 130.498 54.3886 130.498Z" fill="#DDD4EA"/>
<path d="M50.6683 129.619H44.5929C42.4933 129.619 40.7988 127.925 40.7988 125.845V105.032C40.7988 102.944 42.5016 101.258 44.5929 101.258H50.6683C52.7678 101.258 54.4623 102.944 54.4623 105.032V125.845C54.4623 127.933 52.7678 129.619 50.6683 129.619Z" fill="#E5E2FA"/>
<path d="M48.0652 128.632H45.5689C43.8496 128.632 42.4609 127.242 42.4609 125.54V105.344C42.4609 103.634 43.8579 102.252 45.5689 102.252H48.0652C49.7845 102.252 51.1732 103.642 51.1732 105.344V125.54C51.1732 127.242 49.7845 128.632 48.0652 128.632Z" fill="#F7F6FF"/>
<path d="M194.321 97.4834H176.863V115.804H194.321V97.4834Z" fill="#8E2842"/>
<path d="M188.254 97.4834H178.211V115.804H188.254V97.4834Z" fill="#A83150"/>
<path d="M185.27 97.4834H179.666V115.804H185.27V97.4834Z" fill="#B4334C"/>
<path opacity="0.6" d="M194.321 101.866H176.863V105.32H194.321V101.866Z" fill="#B2FAF1"/>
<path d="M195.61 102.252H175.582C174.937 102.252 174.408 101.726 174.408 101.085V98.0998C174.408 97.4584 174.937 96.9321 175.582 96.9321H195.61C196.263 96.9321 196.784 97.4584 196.784 98.0998V101.085C196.784 101.726 196.255 102.252 195.61 102.252Z" fill="#8E2842"/>
<path d="M192.097 102.252H176.317C175.739 102.252 175.268 101.784 175.268 101.208V97.9764C175.268 97.4008 175.739 96.9321 176.317 96.9321H192.097C192.676 96.9321 193.147 97.4008 193.147 97.9764V101.208C193.147 101.784 192.684 102.252 192.097 102.252Z" fill="#B4334C"/>
<path d="M187.492 101.414H177.35C176.953 101.414 176.631 101.093 176.631 100.698V97.7379C176.631 97.3432 176.953 97.0225 177.35 97.0225H187.492C187.889 97.0225 188.211 97.3432 188.211 97.7379V100.698C188.211 101.093 187.889 101.414 187.492 101.414Z" fill="#C6414E"/>
<path d="M195.378 96.8913H176.21C175.846 96.8913 175.557 96.6035 175.557 96.2416V90.3046C175.557 89.0219 176.606 87.9775 177.896 87.9775H193.7C194.99 87.9775 196.039 89.0219 196.039 90.3046V96.2416C196.031 96.6035 195.742 96.8913 195.378 96.8913Z" fill="#E56860"/>
<path d="M190.892 96.8913H176.666V89.9182C176.666 88.8492 177.534 87.9775 178.617 87.9775H188.949C190.024 87.9775 190.9 88.841 190.9 89.9182V96.8913H190.892Z" fill="#FF8383"/>
<path d="M187.626 96.8913H178.385V89.5482C178.385 88.6848 179.087 87.9858 179.955 87.9858H186.055C186.923 87.9858 187.626 88.6848 187.626 89.5482V96.8913Z" fill="#FFA3A6"/>
<path d="M192.924 132.513H178.26C174.524 132.513 171.49 129.496 171.49 125.779V111.454C171.49 107.729 174.524 104.72 178.26 104.72H192.924C196.66 104.72 199.693 107.738 199.693 111.454V125.779C199.693 129.496 196.668 132.513 192.924 132.513Z" fill="#8E2842"/>
<path d="M187.369 131.198H178.293C175.161 131.198 172.623 128.673 172.623 125.557V110.352C172.623 107.236 175.161 104.711 178.293 104.711H187.369C190.502 104.711 193.04 107.236 193.04 110.352V125.565C193.04 128.673 190.502 131.198 187.369 131.198Z" fill="#B4334C"/>
<path d="M183.476 129.717H177.946C175.376 129.717 173.301 127.645 173.301 125.096V110.821C173.301 108.264 175.384 106.2 177.946 106.2H183.476C186.047 106.2 188.121 108.272 188.121 110.821V125.096C188.121 127.653 186.038 129.717 183.476 129.717Z" fill="#C6414E"/>
<path d="M171.49 126.264H185.236C186.096 126.264 186.799 125.573 186.799 124.709V112.433C186.799 111.577 186.096 110.878 185.236 110.878H171.49V126.264Z" fill="#FFAEB3"/>
<path d="M185.056 110.878H172.963V126.264H185.056V110.878Z" fill="#FFD6D5"/>
<path d="M178.517 120.68H171.491V121.905H178.517V120.68ZM180.054 118.164H171.482V119.389H180.054V118.164ZM171.491 124.422H181.104V123.197H171.491V124.422ZM171.491 113.929V116.873H183.757V113.929H171.491Z" fill="#F84248"/>
<path d="M172.963 113.929V116.873H183.758V113.929H172.963ZM178.518 120.68H172.963V121.905H178.518V120.68ZM180.055 118.164H172.963V119.389H180.055V118.164ZM172.963 124.422H181.105V123.197H172.963V124.422Z" fill="#FF5168"/>
<path d="M37.2373 130.951C37.2208 131.033 37.1464 131.091 37.0637 131.091H31.9885C31.9389 131.091 31.8976 131.066 31.8562 131.033C31.8232 131 31.8066 130.959 31.8066 130.91V128.098C32.4514 128.098 33.1044 128.106 33.7574 128.106C33.7243 128.714 33.7243 128.895 33.8318 129.117C34.0384 129.496 34.4269 129.611 34.989 129.833C35.1957 129.907 35.4354 130.005 35.6999 130.104C36.1132 130.277 36.6009 130.482 37.1464 130.745C37.2208 130.787 37.2539 130.869 37.2373 130.951Z" fill="#F9AF8F"/>
<path d="M24.3432 130.951C24.335 130.968 24.3102 131.042 24.2441 131.074C24.2193 131.083 24.1945 131.091 24.1614 131.091H19.0861C18.9952 131.091 18.9043 131.009 18.9043 130.918C18.9456 130.647 18.987 130.384 19.0283 130.112C19.1275 129.43 19.2349 128.747 19.3341 128.065C19.921 128.065 20.5079 128.057 21.0948 128.057C21.0038 128.402 20.9625 128.879 21.2105 129.224C21.4006 129.487 21.7312 129.652 22.0949 129.833C22.3346 129.948 22.409 129.964 22.8058 130.104C23.7316 130.466 24.3763 130.811 24.3432 130.951Z" fill="#F9AF8F"/>
<path d="M31.8066 130.112V130.918C31.8066 131.017 31.8893 131.099 31.9885 131.099H37.0637C37.1464 131.099 37.2208 131.041 37.2373 130.959C37.2621 130.877 37.2208 130.795 37.1464 130.762C36.6009 130.499 36.1132 130.293 35.6999 130.121L31.8066 130.112Z" fill="#222222"/>
<path d="M18.8945 130.918C18.8945 131.009 18.9855 131.091 19.0764 131.091H24.1516C24.1847 131.091 24.2095 131.083 24.2343 131.074C24.3087 131.041 24.3252 130.967 24.3335 130.951C24.3665 130.803 23.7218 130.458 22.796 130.112H19.0103C18.9772 130.384 18.9359 130.647 18.8945 130.918Z" fill="#222222"/>
<path d="M38.832 60.7598C38.0302 60.7516 37.2201 60.7516 36.4183 60.7433C36.3687 60.5131 36.3191 60.2746 36.2695 60.0362C36.5092 59.921 36.749 59.7977 36.9887 59.6744C37.0383 59.5263 37.1044 59.2879 37.1457 58.9918C37.2697 58.0709 36.9804 57.6597 37.2201 57.339C37.4763 57.0019 38.1459 56.9196 38.5344 57.1334C39.361 57.5939 39.0882 59.5839 38.832 60.7598Z" fill="#F9AF8F"/>
<path d="M39.0395 64.4933C39.213 62.9473 39.2296 61.6563 39.2213 60.7518H38.8328C38.031 60.7436 37.221 60.7436 36.4192 60.7354H36.2043C35.9976 62.3471 35.7414 63.671 35.543 64.6248C34.8156 68.0209 34.4354 68.7363 33.9311 69.279C33.5096 69.7313 33.0384 70.0438 32.6086 70.2576C32.9392 69.5586 33.2699 68.7692 33.5509 67.8811C34.0882 66.2119 34.3196 64.7153 34.4188 63.5312H34.1047C33.4021 63.5312 32.7078 63.5229 31.9969 63.5229H31.7241C31.534 64.4357 31.2117 65.5129 30.6909 66.6723C29.9305 68.3581 28.9799 69.6655 28.1202 70.6358C27.2358 70.3645 26.5993 69.9862 26.3513 69.8382C25.5495 69.9369 24.7477 70.0356 23.9542 70.1425C23.6153 70.5783 23.0946 71.2772 22.5408 72.1818C19.7882 76.6139 19.0278 81.0872 18.6393 85.5688C17.6474 97.0481 18.9038 111.331 19.0774 113.33C24.756 113.313 30.4347 113.305 36.1216 113.288C34.2948 100.855 32.4598 88.4222 30.6331 75.9808C33.2699 76.0054 34.766 75.0927 35.4603 74.55C38.1798 72.4613 38.5931 68.5143 39.0395 64.4933Z" fill="white"/>
<path d="M68.978 54.5597L52.0082 74.2373C51.1072 75.2898 49.5119 75.4049 48.4621 74.5086L13.7454 44.8894C12.6874 43.9931 12.5717 42.4061 13.4726 41.3618L30.4425 21.6759C31.3435 20.6234 32.9388 20.5083 33.9886 21.4046L68.7053 51.0238C69.755 51.9283 69.879 53.5071 68.978 54.5597Z" fill="white"/>
<g opacity="0.63">
<path d="M59.5299 63.4401C59.3315 63.6704 58.9844 63.6951 58.7447 63.4977L23.6643 33.566C23.4328 33.3687 23.408 33.0233 23.6064 32.7848C23.8048 32.5546 24.1519 32.5299 24.3917 32.7273L59.4803 62.6672C59.7035 62.8645 59.7283 63.2099 59.5299 63.4401Z" fill="#DDD3DD"/>
<path d="M59.1007 63.3498C58.9023 63.5801 58.5551 63.6047 58.3154 63.4074L23.2268 33.4757C22.9953 33.2783 22.9705 32.933 23.1689 32.6945C23.3673 32.4643 23.7144 32.4396 23.9542 32.637L59.0428 62.5769C59.2743 62.7742 59.2991 63.1196 59.1007 63.3498Z" fill="#DDD3DD"/>
</g>
<path d="M21.5148 37.8915C24.0442 37.7024 26.2512 39.5854 26.4495 42.1017C26.6397 44.6179 24.7468 46.8134 22.2174 47.0108C19.6881 47.1999 17.4811 45.3169 17.2827 42.8006C17.0926 40.2762 18.9855 38.0806 21.5148 37.8915Z" fill="#DDD3DD"/>
<path d="M21.5482 38.4014C23.7965 38.2287 25.7555 39.9062 25.9291 42.1346C26.1027 44.3713 24.4165 46.3201 22.1764 46.4928C19.9281 46.6655 17.9691 44.988 17.7955 42.7596C17.6219 40.5229 19.3081 38.5658 21.5482 38.4014Z" fill="#F84248"/>
<path d="M21.5888 38.9112C23.5561 38.7632 25.2671 40.2269 25.4159 42.1757C25.5647 44.1328 24.0934 45.8349 22.1343 45.983C20.1671 46.131 18.456 44.6673 18.3072 42.7184C18.1584 40.7614 19.6298 39.0592 21.5888 38.9112Z" fill="#FF7478"/>
<path d="M22.1341 45.9829C22.3242 45.9664 22.4978 45.9335 22.6796 45.8924L22.1423 38.9111C21.9605 38.8946 21.7786 38.8946 21.5885 38.9029C21.3984 38.9193 21.2248 38.9522 21.043 38.9933L21.5803 45.9746C21.7621 45.9911 21.9522 45.9993 22.1341 45.9829Z" fill="#F84248"/>
<path d="M19.6725 40.5721C20.2428 40.5885 20.6809 41.345 20.6561 42.2578C20.6231 43.1705 20.1354 43.8859 19.565 43.8695C18.9947 43.853 18.5566 43.0965 18.5896 42.1838C18.6062 41.2792 19.1021 40.5556 19.6725 40.5721Z" fill="#FFFAFF"/>
<path d="M30.7726 45.7855C33.302 45.5964 35.509 47.4795 35.7074 49.9957C35.8975 52.512 34.0046 54.7075 31.4752 54.9048C28.9459 55.094 26.7389 53.2109 26.5405 50.6947C26.3504 48.1784 28.2433 45.9829 30.7726 45.7855Z" fill="#DDD3DD"/>
<path d="M30.8139 46.2954C33.0622 46.1227 35.0212 47.8002 35.1948 50.0287C35.3684 52.2653 33.6821 54.2142 31.4421 54.3868C29.1938 54.5595 27.2348 52.882 27.0612 50.6536C26.8876 48.4252 28.5656 46.4681 30.8139 46.2954Z" fill="#F84248"/>
<path d="M30.8555 46.8135C32.8228 46.6655 34.5339 48.1292 34.6826 50.0781C34.8314 52.0351 33.3601 53.7373 31.4011 53.8853C29.4338 54.0333 27.7228 52.5696 27.574 50.6208C27.4169 48.6637 28.8883 46.9615 30.8555 46.8135Z" fill="#FF7478"/>
<path d="M31.4016 53.8852C31.5918 53.8688 31.7653 53.8359 31.9472 53.7947L31.4099 46.8134C31.2281 46.797 31.0462 46.797 30.8561 46.8052C30.666 46.8217 30.4924 46.8545 30.3105 46.8957L30.8478 53.877C31.0297 53.8934 31.2115 53.9016 31.4016 53.8852Z" fill="#F84248"/>
<path d="M28.9303 48.4744C29.5006 48.4908 29.9387 49.2474 29.9139 50.1601C29.8809 51.0729 29.3932 51.7883 28.8228 51.7718C28.2525 51.7554 27.8144 50.9989 27.8475 50.0861C27.8723 49.1816 28.3599 48.4579 28.9303 48.4744Z" fill="#FFFAFF"/>
<path d="M40.0393 53.6879C42.5687 53.4988 44.7757 55.3818 44.974 57.8981C45.1642 60.4143 43.2713 62.6098 40.7419 62.8072C38.2126 62.9963 36.0056 61.1132 35.8072 58.597C35.6088 56.0808 37.51 53.8852 40.0393 53.6879Z" fill="#DDD3DD"/>
<path d="M40.0716 54.1978C42.32 54.0251 44.279 55.7026 44.4526 57.931C44.6261 60.1677 42.9399 62.1165 40.6998 62.2892C38.4515 62.4619 36.4925 60.7844 36.3189 58.556C36.1453 56.3193 37.8316 54.3705 40.0716 54.1978Z" fill="#F84248"/>
<path d="M40.1142 54.7076C42.0815 54.5596 43.7925 56.0233 43.9413 57.9721C44.0901 59.9292 42.6187 61.6313 40.6597 61.7793C38.6924 61.9274 36.9814 60.4637 36.8326 58.5148C36.6838 56.566 38.1552 54.8638 40.1142 54.7076Z" fill="#FF7478"/>
<path d="M40.6595 61.7875C40.8496 61.7711 41.0232 61.7382 41.205 61.6971L40.6677 54.7158C40.4859 54.6993 40.304 54.6993 40.1139 54.7075C39.9238 54.724 39.7502 54.7569 39.5684 54.798L40.1056 61.7793C40.2875 61.7958 40.4776 61.804 40.6595 61.7875Z" fill="#F84248"/>
<path d="M38.1961 56.3767C38.7664 56.3932 39.2045 57.1497 39.1714 58.0625C39.1384 58.9752 38.6507 59.6906 38.0803 59.6742C37.51 59.6577 37.0719 58.9012 37.0967 57.9885C37.1298 57.0757 37.6257 56.3603 38.1961 56.3767Z" fill="#FFFAFF"/>
<path d="M49.2961 61.5902C51.8254 61.4011 54.0324 63.2842 54.2308 65.8004C54.4209 68.3166 52.528 70.5122 49.9987 70.7095C47.4693 70.8987 45.2623 69.0156 45.0639 66.4994C44.8738 63.9831 46.7667 61.7876 49.2961 61.5902Z" fill="#DDD3DD"/>
<path d="M49.3365 62.1001C51.5848 61.9274 53.5438 63.6049 53.7174 65.8333C53.891 68.07 52.2047 70.0188 49.9647 70.1915C47.7163 70.3642 45.7573 68.6867 45.5837 66.4583C45.4019 64.2216 47.0881 62.2728 49.3365 62.1001Z" fill="#F84248"/>
<path d="M49.379 62.6099C51.3463 62.4619 53.0573 63.9256 53.2061 65.8744C53.3549 67.8315 51.8835 69.5337 49.9245 69.6817C47.9573 69.8297 46.2462 68.366 46.0974 66.4172C45.9404 64.4683 47.4117 62.7662 49.379 62.6099Z" fill="#FF7478"/>
<path d="M49.9251 69.6899C50.1152 69.6734 50.2888 69.6405 50.4706 69.5994L49.9333 62.6181C49.7515 62.6017 49.5697 62.6017 49.3795 62.6099C49.1894 62.6263 49.0158 62.6592 48.834 62.7003L49.3713 69.6817C49.5531 69.6981 49.735 69.6981 49.9251 69.6899Z" fill="#F84248"/>
<path d="M47.4519 64.2791C48.0223 64.2955 48.4604 65.052 48.4273 65.9648C48.3942 66.8776 47.9066 67.5929 47.3362 67.5765C46.7659 67.5601 46.3278 66.8035 46.3526 65.8908C46.3939 64.978 46.8816 64.2626 47.4519 64.2791Z" fill="#FFFAFF"/>
<path d="M32.4426 25.2118C34.9719 25.0227 37.1789 26.9058 37.3773 29.422C37.5674 31.9382 35.6745 34.1338 33.1452 34.3311C30.6158 34.5202 28.4088 32.6372 28.2104 30.1209C28.0203 27.5965 29.9132 25.4009 32.4426 25.2118Z" fill="#DDD3DD"/>
<path d="M32.4829 25.7217C34.7313 25.549 36.6903 27.2265 36.8639 29.4549C37.0374 31.6916 35.3512 33.6404 33.1111 33.8131C30.8628 33.9858 28.9038 32.3083 28.7302 30.0799C28.5484 27.8432 30.2346 25.8944 32.4829 25.7217Z" fill="#F84248"/>
<path d="M32.5165 26.2315C34.4838 26.0835 36.1948 27.5472 36.3436 29.496C36.4924 31.4531 35.0211 33.1553 33.0621 33.3033C31.0948 33.4513 29.3838 31.9876 29.235 30.0387C29.0862 28.0817 30.5575 26.3795 32.5165 26.2315Z" fill="#FF7478"/>
<path d="M33.0618 33.3032C33.2519 33.2867 33.4255 33.2538 33.6073 33.2127L33.0701 26.2314C32.8882 26.215 32.7064 26.215 32.5163 26.2232C32.3261 26.2396 32.1526 26.2725 31.9707 26.3136L32.508 33.2949C32.6981 33.3114 32.88 33.3196 33.0618 33.3032Z" fill="#F84248"/>
<path d="M30.5999 27.9005C31.1703 27.917 31.6083 28.6735 31.5836 29.5862C31.5505 30.499 31.0628 31.2144 30.4925 31.1979C29.9221 31.1815 29.484 30.425 29.5088 29.5122C29.5419 28.5995 30.0296 27.8758 30.5999 27.9005Z" fill="#FFFAFF"/>
<path d="M41.7004 33.1142C44.2297 32.925 46.4367 34.8081 46.6351 37.3243C46.8252 39.8406 44.9323 42.0361 42.403 42.2335C39.8736 42.4226 37.6666 40.5395 37.4682 38.0233C37.2781 35.4988 39.171 33.3033 41.7004 33.1142Z" fill="#DDD3DD"/>
<path d="M41.7416 33.624C43.9899 33.4514 45.9489 35.1288 46.1225 37.3573C46.2961 39.5939 44.6099 41.5428 42.3698 41.7155C40.1215 41.8881 38.1625 40.2107 37.9889 37.9822C37.8153 35.7456 39.4933 33.7967 41.7416 33.624Z" fill="#F84248"/>
<path d="M41.7833 34.1338C43.7506 33.9858 45.4616 35.4495 45.6104 37.3984C45.7592 39.3554 44.2878 41.0576 42.3288 41.2056C40.3615 41.3536 38.6505 39.8899 38.5017 37.9411C38.3447 35.984 39.816 34.2819 41.7833 34.1338Z" fill="#FF7478"/>
<path d="M42.3294 41.2055C42.5195 41.1891 42.6931 41.1562 42.8749 41.1151L42.3376 34.1337C42.1558 34.1173 41.9739 34.1173 41.7838 34.1255C41.5937 34.142 41.4201 34.1749 41.2383 34.216L41.7756 41.1973C41.9574 41.2137 42.1393 41.222 42.3294 41.2055Z" fill="#F84248"/>
<path d="M39.8658 35.8029C40.4362 35.8193 40.8743 36.5758 40.8495 37.4886C40.8164 38.4013 40.3287 39.1167 39.7584 39.1003C39.188 39.0838 38.7499 38.3273 38.783 37.4146C38.7995 36.5018 39.2872 35.7782 39.8658 35.8029Z" fill="#FFFAFF"/>
<path d="M50.966 41.0165C53.4953 40.8274 55.7023 42.7104 55.9007 45.2267C56.0908 47.7429 54.1979 49.9384 51.6686 50.1358C49.1392 50.3249 46.9322 48.4419 46.7339 45.9256C46.5437 43.4012 48.4366 41.2056 50.966 41.0165Z" fill="#DDD3DD"/>
<path d="M51.0064 41.5264C53.2547 41.3537 55.2137 43.0312 55.3873 45.2596C55.5609 47.4963 53.8746 49.4451 51.6346 49.6178C49.3863 49.7905 47.4272 48.113 47.2537 45.8846C47.0718 43.6479 48.7581 41.6991 51.0064 41.5264Z" fill="#F84248"/>
<path d="M51.04 42.0362C53.0072 41.8882 54.7183 43.3519 54.8671 45.3007C55.0158 47.2578 53.5445 48.9599 51.5855 49.108C49.6182 49.256 47.9072 47.7923 47.7584 45.8434C47.6096 43.8864 49.0809 42.1842 51.04 42.0362Z" fill="#FF7478"/>
<path d="M51.5852 49.1079C51.7753 49.0914 51.9489 49.0585 52.1308 49.0174L51.5935 42.0361C51.4117 42.0196 51.2298 42.0196 51.0397 42.0279C50.8496 42.0443 50.676 42.0772 50.4941 42.1183L51.0314 49.0996C51.2215 49.1161 51.4034 49.1243 51.5852 49.1079Z" fill="#F84248"/>
<path d="M49.1218 43.6971C49.6922 43.7135 50.1303 44.47 50.0972 45.3828C50.0642 46.2955 49.5765 47.0109 49.0061 46.9945C48.4358 46.978 47.9977 46.2215 48.0225 45.3088C48.0638 44.4042 48.5515 43.6806 49.1218 43.6971Z" fill="#FFFAFF"/>
<path d="M60.2238 48.9188C62.7532 48.7297 64.9601 50.6128 65.1585 53.129C65.3486 55.6452 63.4558 57.8408 60.9264 58.0381C58.397 58.2273 56.1901 56.3442 55.9917 53.828C55.8016 51.3035 57.6944 49.108 60.2238 48.9188Z" fill="#DDD3DD"/>
<path d="M60.265 49.4287C62.5134 49.256 64.4724 50.9335 64.646 53.162C64.8195 55.3986 63.1333 57.3475 60.8933 57.5201C58.6449 57.6928 56.6859 56.0153 56.5123 53.7869C56.3388 51.5503 58.0167 49.6014 60.265 49.4287Z" fill="#F84248"/>
<path d="M60.3067 49.9385C62.274 49.7905 63.985 51.2542 64.1338 53.2031C64.2826 55.1601 62.8113 56.8623 60.8523 57.0103C58.885 57.1583 57.1739 55.6946 57.0252 53.7458C56.8681 51.7887 58.3394 50.0865 60.3067 49.9385Z" fill="#FF7478"/>
<path d="M60.8528 57.0102C61.0429 56.9938 61.2165 56.9609 61.3984 56.9197L60.8611 49.9384C60.6792 49.922 60.4974 49.922 60.3073 49.9302C60.1171 49.9467 59.9436 49.9795 59.7617 50.0207L60.299 57.002C60.4809 57.0184 60.6627 57.0266 60.8528 57.0102Z" fill="#F84248"/>
<path d="M58.3894 51.5994C58.9598 51.6158 59.3979 52.3724 59.3648 53.2851C59.3317 54.1979 58.8441 54.9133 58.2737 54.8968C57.7034 54.8804 57.2653 54.1239 57.2901 53.2111C57.3231 52.3066 57.8108 51.5829 58.3894 51.5994Z" fill="#FFFAFF"/>
<path d="M35.1708 60.5953C35.0799 61.1134 34.9228 61.763 34.6253 62.4701C34.4599 62.8731 34.2781 63.2267 34.0962 63.5309C33.3936 63.5309 32.6993 63.5227 31.9884 63.5227C31.9636 63.2924 31.9388 63.0046 31.8975 62.6839C31.881 62.5277 31.8644 62.3797 31.8479 62.2481C31.7487 61.2367 31.7322 60.8338 31.9967 60.6364C32.129 60.546 32.3356 60.4802 32.4513 60.5624C32.5836 60.6446 32.5753 60.8338 32.6249 61.0805C32.658 61.2531 32.7406 61.4752 32.8977 61.7301C33.6581 61.3436 34.4103 60.9653 35.1708 60.5953Z" fill="#F9AF8F"/>
<path d="M27.599 62.4126C27.2187 62.6675 26.574 62.7826 25.6317 62.9471C24.2017 63.202 23.6809 63.0622 23.4908 63.424C23.0941 64.1065 24.4579 65.5373 24.1521 65.8087C24.0116 65.9402 23.6644 65.636 23.3668 65.8169C23.1437 65.9649 23.0362 66.3514 23.1685 66.6721C23.2924 66.9846 23.5983 67.0832 23.6479 67.0997C24.0694 67.2312 24.4166 66.9352 24.4414 66.9188C24.9622 68.0042 24.9208 68.9416 24.491 69.2048C24.4083 69.2541 24.2182 69.3528 23.8297 69.2377C23.2511 69.2788 22.9618 69.1225 22.8213 68.9663C22.5898 68.7278 22.6394 68.4482 22.3419 68.2344C22.127 68.0782 22.036 68.1687 21.7219 68.0207C21.6227 67.9713 21.1681 67.7493 21.0359 67.3628C20.8623 66.8859 21.3334 66.631 21.1681 66.1376C21.0524 65.7922 20.8127 65.8333 20.6226 65.3893C20.5812 65.2988 20.4324 64.9453 20.5068 64.5506C20.6226 63.9749 21.102 63.8845 21.1268 63.3418C21.1433 63.0869 21.0441 63.0869 21.0524 62.7908C21.0689 62.2728 21.383 61.911 21.4326 61.8452C21.8459 61.3683 22.2013 61.5656 22.5898 61.1051C22.8626 60.7844 22.7304 60.6364 23.0279 60.291C23.0775 60.2253 23.4412 59.8306 24.0198 59.7154C24.5985 59.6003 24.7224 59.9128 25.3258 59.8223C25.8466 59.7401 25.8714 59.4852 26.3591 59.4605C26.8798 59.4276 27.2766 59.6743 27.3923 59.7565C27.4832 59.8141 28.0288 60.2006 28.128 60.9242C28.252 61.7794 27.6568 62.3632 27.599 62.4126Z" fill="#222222"/>
<path d="M28.0371 68.1194C27.6817 68.4977 27.194 68.6375 27.194 68.6375C26.7973 68.7773 26.4418 68.769 26.2269 68.7608C26.2682 69.1144 26.3096 69.4762 26.3509 69.838C26.2186 69.9532 25.8053 70.3067 25.1606 70.3725C24.5572 70.4301 24.1108 70.2163 23.9538 70.1258C23.9125 69.8298 23.8794 69.542 23.8381 69.246C24.2266 69.3611 24.4167 69.2624 24.4993 69.2131C24.9209 68.9417 24.9622 68.0125 24.4497 66.9271C24.4249 66.9435 24.0778 67.2396 23.6562 67.108C23.6066 67.0916 23.3008 66.9929 23.1768 66.6804C23.0445 66.3679 23.152 65.9732 23.3752 65.8252C23.6727 65.6361 24.0199 65.9486 24.1604 65.817C24.4663 65.5456 23.1024 64.1148 23.4992 63.4323C23.6893 63.0705 24.21 63.2185 25.64 62.9554C26.5823 62.7827 27.2188 62.6758 27.6073 62.4209C28.8224 64.4191 28.7811 67.3465 28.0371 68.1194Z" fill="#F9AF8F"/>
<path d="M33.6512 64.1229C33.5603 64.2216 33.5686 64.3778 33.6678 64.4683C33.7669 64.5587 33.924 64.5505 34.0149 64.4518C34.1058 64.3531 34.0976 64.1969 33.9984 64.1065C33.8909 64.016 33.7421 64.0242 33.6512 64.1229Z" fill="#2B92D5"/>
<path d="M33.452 65.2577C33.3611 65.3563 33.3693 65.5126 33.4685 65.603C33.5677 65.6935 33.7248 65.6853 33.8157 65.5866C33.9066 65.4879 33.8984 65.3317 33.7992 65.2412C33.7 65.1508 33.5429 65.159 33.452 65.2577Z" fill="#2B92D5"/>
<path d="M34.5584 113.296C34.5502 118.238 34.5336 123.172 34.5254 128.106H33.7484C33.1036 128.106 32.4506 128.098 31.7976 128.098H30.9793C30.4586 123.164 29.9461 118.238 29.4336 113.305C31.1446 113.305 32.8557 113.305 34.5584 113.296Z" fill="#222222"/>
<path d="M25.6491 113.313C24.4506 118.23 23.252 123.139 22.0452 128.057H21.0781C20.4912 128.057 19.9043 128.065 19.3174 128.065H18.4082C19.0447 123.156 19.6729 118.239 20.3094 113.329C22.0948 113.321 23.8719 113.321 25.6491 113.313Z" fill="#222222"/>
<path d="M88.4358 114.127H84.7988C84.8319 113.798 84.8732 113.469 84.9063 113.132H88.4027C88.411 113.469 88.4193 113.806 88.4358 114.127Z" fill="white"/>
<path d="M96.8583 132.333C96.8253 132.407 96.7674 132.472 96.6765 132.472H91.6012C91.5516 132.439 91.4855 132.382 91.4277 132.291C91.2954 132.119 91.3037 131.93 91.3119 131.601V131.494C91.3202 131.338 91.3202 131.181 91.3285 131.025C91.3285 130.704 91.3285 130.392 91.3119 130.096C91.3285 130.079 91.3285 130.063 91.3202 130.047C91.1879 128.048 90.8573 126.404 90.2704 124.142C89.3777 120.705 88.9066 118.987 88.6503 117.235C88.5511 116.569 88.4767 115.401 88.4354 114.127C88.4189 113.798 88.4106 113.469 88.4023 113.132H91.3946C91.4029 113.485 91.4194 113.839 91.4359 114.201C91.874 114.193 92.3038 114.193 92.7419 114.193C92.8577 120.516 93.0064 128.418 93.1387 129.323C93.1718 129.553 93.2461 129.783 93.2544 129.808C93.3453 130.088 93.5189 130.622 93.9818 130.935C94.0645 130.992 94.2546 131.058 94.6183 131.206C94.9159 131.329 95.0977 131.387 95.3292 131.477C95.3457 131.486 95.3622 131.494 95.3622 131.494C95.3953 131.502 95.4366 131.518 95.4779 131.543C95.8582 131.716 96.2797 131.897 96.7674 132.135C96.8335 132.16 96.8749 132.242 96.8583 132.333Z" fill="#F9AF8F"/>
<path d="M86.7573 132.333C86.7408 132.415 86.6664 132.472 86.5838 132.472H81.5085C81.4589 132.472 81.4176 132.448 81.3845 132.423C81.3762 132.398 81.3515 132.349 81.3349 132.3C81.2192 132.028 81.2275 131.782 81.2853 131.494C81.3184 131.28 81.368 131.041 81.4176 130.762C81.4424 130.581 81.4672 130.301 81.492 129.973C81.6573 127.974 81.5664 126.313 81.3267 123.978C80.9547 120.442 80.748 118.682 80.748 116.914C80.748 116.322 80.7646 115.286 80.7976 114.127H83.9883C84.0048 113.79 84.0296 113.469 84.0461 113.132H84.9141C84.881 113.469 84.8397 113.798 84.8066 114.127C84.0131 121.741 83.4923 128.583 83.4262 128.994C83.4262 128.994 83.3849 129.216 83.3849 129.528C83.3849 129.841 83.4345 130.195 83.575 130.54C83.6494 130.688 83.732 130.77 83.8064 130.828C83.856 130.869 83.9304 130.926 84.509 131.222C84.7239 131.329 84.9058 131.362 85.2199 131.502C85.6332 131.675 86.1209 131.88 86.6664 132.143C86.7408 132.168 86.7821 132.259 86.7573 132.333Z" fill="#F9AF8F"/>
<path d="M90.8658 65.5866C90.8492 65.4715 90.8327 65.3728 90.8079 65.2741C90.6261 65.1014 90.4111 64.8794 90.2045 64.5752C89.8987 64.1147 89.7085 63.6131 89.6176 63.0621C89.0059 64.5341 87.8157 65.5702 86.3443 66.1787C86.1046 65.8826 85.7492 65.8826 85.526 66.0635C85.2615 66.2773 85.3359 66.6803 85.3442 66.7214C85.4186 67.0914 85.7823 67.3792 86.2534 67.4697C86.3609 67.8315 86.5179 68.514 86.3691 69.3445C86.2699 69.9201 86.055 70.3642 85.8897 70.652C85.6252 70.6931 85.1706 70.7835 84.6581 70.9973C81.1368 72.4775 79.2191 78.0444 79.6242 81.8517C79.6324 81.9832 79.6572 82.1066 79.6738 82.2381C78.748 81.5803 77.6238 80.5195 77.4998 79.1134C77.3263 77.2139 79.153 76.6301 79.9548 73.752C80.707 71.022 79.4341 70.2737 80.4921 68.5551C81.4427 67.0174 82.8313 67.3463 84.1291 65.1754C84.5258 64.5176 84.8151 63.4486 85.5012 62.7826C87.2784 61.0311 90.6178 61.4669 91.5932 63.1361C92.18 64.164 92.2048 65.6524 90.8658 65.5866Z" fill="#222222"/>
<path d="M90.9576 81.9669C90.1724 82.0985 89.1887 82.2547 88.048 82.4027C87.3372 82.4932 86.7337 82.5672 86.2047 82.6165C86.5519 80.2894 86.7337 77.4607 86.4279 74.262C86.3039 72.971 86.1138 71.7786 85.8906 70.6768C86.7172 70.685 87.5521 70.6932 88.3869 70.7014C89.2052 72.0747 90.2385 74.1797 90.7427 76.8522C90.7758 77.0989 90.8171 77.3538 90.8584 77.6087C90.8832 77.7814 90.9163 77.9459 90.9328 78.1186C91.1312 79.7467 91.0485 81.1117 90.9576 81.9669Z" fill="#2B92D5"/>
<path d="M90.6588 84.6392C90.5679 85.8233 90.5183 87.3527 90.51 89.3345H85.4844L85.7158 85.5766C87.6831 85.4615 89.3693 85.0585 90.6588 84.6392Z" fill="#2B92D5"/>
<path d="M91.3787 113.14H84.0469C84.1378 111.586 84.237 110.032 84.3279 108.486C84.7081 102.105 85.0966 95.7237 85.4851 89.3427C87.1466 89.3345 88.7998 89.3345 90.4612 89.3345C90.4447 91.6451 90.7505 100.723 91.3787 113.14Z" fill="#222222"/>
<path d="M91.6511 84.2858C91.3535 84.4009 91.0229 84.516 90.6592 84.6394C89.3697 85.0588 87.6917 85.4617 85.7162 85.5768L85.4847 89.3347C85.0962 95.7158 84.716 102.097 84.3275 108.478C84.2366 110.032 84.1374 111.586 84.0465 113.132C84.0299 113.469 84.0051 113.79 83.9886 114.127H79.2109C79.4011 111.356 79.5912 109.086 79.7234 107.549C80.7319 95.6582 81.5915 90.9135 82.1619 88.1506C82.385 87.0405 82.5917 86.1442 82.7074 85.6262C82.0048 85.5686 81.4841 85.4124 81.046 85.0588C80.3186 84.4832 79.8722 83.4882 79.6904 82.2712C79.6656 82.1314 79.649 81.9998 79.6408 81.8765C79.2357 78.0692 81.1617 72.5023 84.6747 71.0221C85.1872 70.8083 85.6418 70.7179 85.9063 70.6768C85.9972 71.1044 86.0799 71.5484 86.146 72.0089C86.2617 72.7325 86.3609 73.4808 86.4436 74.2702C86.7494 77.4689 86.5676 80.3059 86.2204 82.6248C86.7412 82.5754 87.3528 82.5096 88.0637 82.411C89.1713 82.2629 90.1467 82.1149 90.9154 81.9834C90.932 81.9751 90.9485 81.9751 90.9733 81.9751C91.1717 81.9423 91.3618 81.9011 91.5354 81.8765C91.5602 82.6741 91.6098 83.4799 91.6511 84.2858Z" fill="white"/>
<path d="M99.7022 80.2398C99.3055 80.6839 98.8013 81.1773 98.1979 81.6789C96.6852 82.9288 95.2139 84.1458 93.8996 83.7757C93.2383 83.5866 92.7506 83.0439 92.3787 82.3696C92.3704 82.4436 92.3704 82.5176 92.3622 82.5834C92.2795 83.8168 93.7591 96.6365 96.0735 114.143C94.5361 114.16 92.9904 114.176 91.4364 114.193C91.4198 113.839 91.4033 113.477 91.3785 113.132C90.7503 100.723 90.4527 91.6451 90.4527 89.3262C90.461 88.7671 90.5437 86.0288 90.6511 84.6309C90.7255 83.751 90.7751 83.5701 90.8412 82.789C90.8578 82.5423 90.8826 82.2709 90.8991 81.9749C90.99 80.577 91.0479 78.7268 90.7503 76.8437C90.5271 75.4623 89.9733 73.2421 88.3945 70.7012C88.5846 70.7094 88.8905 70.7505 89.2294 70.8821C90.5189 71.359 91.3702 72.6254 92.4861 75.3883C93.9409 78.9899 93.9657 80.4865 94.8419 80.6263C95.3379 80.7168 95.9743 80.1741 97.2473 79.1051C97.4953 78.8995 97.7184 78.7021 97.9168 78.5048L99.7022 80.2398Z" fill="white"/>
<path d="M86.6665 132.135C86.7409 132.168 86.7822 132.258 86.7574 132.332C86.7409 132.415 86.6665 132.472 86.5838 132.472H81.5086C81.459 132.472 81.4176 132.448 81.3846 132.423C81.3763 132.398 81.3515 132.349 81.335 132.3C81.2192 132.036 81.2275 131.773 81.2854 131.494H85.2282C85.6332 131.666 86.1209 131.872 86.6665 132.135Z" fill="#222222"/>
<path d="M96.8581 132.332C96.825 132.406 96.7671 132.472 96.6762 132.472H91.6009C91.5513 132.439 91.4852 132.382 91.4274 132.291C91.3034 132.11 91.3034 131.929 91.3116 131.601V131.494H95.3619C95.7669 131.675 96.2381 131.872 96.7671 132.127C96.8332 132.16 96.8828 132.242 96.8581 132.332Z" fill="#222222"/>
<path d="M90.5593 68.1028C90.3692 68.5222 89.8732 69.6076 88.9722 69.7309C88.7821 69.7638 88.6168 69.7309 88.5011 69.7063C88.468 70.0352 88.4267 70.3641 88.3936 70.693C88.2283 70.8164 87.8811 71.0466 87.3769 71.0959C87.1537 71.1206 86.9554 71.1042 86.7735 71.0631C86.3106 70.9726 85.9965 70.7424 85.8973 70.6684C86.0626 70.3723 86.2776 69.9283 86.3768 69.3527C86.5255 68.5222 86.3685 67.8396 86.261 67.4778C85.7899 67.3874 85.4344 67.0996 85.3518 66.7295C85.3435 66.6802 85.2691 66.2773 85.5336 66.0717C85.7568 65.8826 86.1122 65.8908 86.3519 66.1868C87.8233 65.5783 89.0136 64.5422 89.6252 63.0703C89.7162 63.613 89.9063 64.1229 90.2121 64.5833C90.4105 64.8876 90.6337 65.1178 90.8155 65.2823C90.8403 65.3728 90.8569 65.4714 90.8734 65.5948C90.9643 66.195 91.0056 67.1407 90.5593 68.1028Z" fill="#F9AF8F"/>
<path d="M83.6408 75.9971C83.3102 77.2058 83.0788 78.2502 82.9217 79.0725C82.4754 81.416 82.6076 81.9341 82.9052 82.263C83.3598 82.7646 84.1699 82.7728 84.7154 82.7153C84.2608 82.6084 83.6161 82.3699 83.2689 81.8025C82.8308 81.0871 83.1614 80.3141 83.4177 78.538C83.5665 77.4854 83.6243 76.6056 83.6408 75.9971Z" fill="#CED0E9"/>
<path d="M92.6592 88.027C94.1967 89.2358 96.4202 88.9726 97.6353 87.4432L104.389 78.9406C105.604 77.4111 105.339 75.1991 103.802 73.9904C102.264 72.7816 100.041 73.0447 98.8256 74.5742L92.0724 83.0768C90.8655 84.598 91.1218 86.8182 92.6592 88.027Z" fill="#DDD4EA"/>
<path d="M93.0635 88.2983C92.146 87.3526 92.0468 85.856 92.8899 84.7953L100.701 74.9606C101.544 73.8998 103.032 73.6531 104.165 74.3192C105.371 75.5691 105.504 77.5426 104.388 78.9405L97.6345 87.4431C96.5269 88.841 94.5679 89.1781 93.0635 88.2983Z" fill="#E5E2FA"/>
<path d="M95.1062 86.4566C95.8584 87.0486 96.9577 86.9253 97.5529 86.1688L104.042 78.0033C104.637 77.255 104.513 76.1614 103.752 75.5693C103 74.9773 101.901 75.1006 101.306 75.8571L94.8169 84.0226C94.2217 84.7709 94.3457 85.8645 95.1062 86.4566Z" fill="#F7F6FF"/>
<path d="M101.033 83.1672L97.6353 87.4431C96.4202 88.9726 94.1967 89.2275 92.6592 88.027C91.1218 86.8182 90.8655 84.6062 92.0724 83.0767L95.4696 78.8008L101.033 83.1672Z" fill="#FF5168"/>
<path d="M101.206 78.7763C101.71 79.171 102.438 79.0888 102.835 78.5872L103.595 77.6333C103.992 77.1317 103.909 76.4081 103.405 76.0134C102.901 75.6187 102.173 75.7009 101.777 76.2025L101.016 77.1564C100.619 77.6498 100.702 78.3816 101.206 78.7763Z" fill="#FFFAFF"/>
<path d="M95.3131 82.263C95.3048 82.3205 95.2387 82.6001 94.9164 82.8797C94.1972 83.5375 92.4366 83.9405 91.6348 84.1049C91.6017 83.4389 91.5687 82.7728 91.5273 82.1067C92.3126 81.9916 92.6102 81.7696 92.7176 81.5476C92.7672 81.4571 92.8829 81.1611 93.1805 80.8897C93.2962 80.7993 93.3954 80.7253 93.4533 80.6924C93.4616 80.9473 93.4616 81.2104 93.4616 81.4736C93.6103 81.4982 93.8253 81.5229 94.0815 81.4818C94.5609 81.3996 94.7014 81.1693 94.9246 81.2351C95.2305 81.3173 95.404 81.8436 95.3131 82.263Z" fill="#F9AF8F"/>
<path d="M91.1553 83.6112C91.0314 83.5619 90.8826 83.6276 90.833 83.751C90.7834 83.8743 90.8495 84.0224 90.9735 84.0717C91.0975 84.121 91.2463 84.0552 91.2959 83.9319C91.3455 83.8086 91.2876 83.6605 91.1553 83.6112Z" fill="#2B92D5"/>
<path d="M90.0225 83.8251C89.8985 83.7757 89.7498 83.8415 89.7002 83.9649C89.6506 84.0882 89.7167 84.2362 89.8407 84.2856C89.9647 84.3349 90.1135 84.2691 90.1631 84.1458C90.2126 84.0142 90.1465 83.8744 90.0225 83.8251Z" fill="#2B92D5"/>
<path d="M205.962 82.4846C208.723 82.0241 210.93 81.6458 212.508 81.4238C212.938 81.3663 213.839 81.2429 214.368 80.5522C214.724 80.0917 214.74 79.5819 214.765 79.1296C214.765 79.1296 214.897 76.893 215.344 74.5494C215.583 73.2584 215.732 72.5019 216.336 71.7207C216.939 70.9395 217.691 70.5037 218.228 70.2652C218.815 69.961 219.46 69.7718 219.642 69.7554C220.427 69.6649 221.221 69.5827 222.014 69.5005C222.436 69.5745 222.99 69.6896 223.626 69.9116C223.626 69.9116 224.345 70.1665 224.973 70.4955C226.205 71.1615 228.329 74.3027 228.8 79.6148C229.048 82.4106 229.181 83.9894 228.114 85.0666C227.883 85.2968 227.627 85.4695 227.329 85.6011C227.337 85.8067 227.354 86.004 227.362 86.2096C227.866 95.074 228.371 103.947 228.875 112.811C223.204 112.811 217.542 112.819 211.872 112.819C212.971 101.126 213.98 91.2338 214.724 84.3183C213.566 84.5732 212.294 84.6801 211.07 84.7788C208.913 84.9515 207.136 84.7952 205.945 84.6308C205.954 83.9236 205.954 83.2082 205.962 82.4846Z" fill="white"/>
<path d="M209.244 131.609C209.26 131.691 209.334 131.748 209.417 131.748H214.492C214.592 131.748 214.674 131.666 214.674 131.568V128.747C214.029 128.755 213.376 128.755 212.732 128.755C212.765 129.364 212.765 129.553 212.657 129.775C212.451 130.161 212.062 130.277 211.492 130.49C211.293 130.573 211.054 130.655 210.781 130.77C210.682 130.811 210.566 130.86 210.459 130.91C210.235 131 209.996 131.107 209.731 131.222C209.599 131.288 209.467 131.346 209.334 131.411C209.26 131.444 209.219 131.526 209.244 131.609Z" fill="#F9AF8F"/>
<mask id="path-136-inside-1_298_9684" fill="white">
<path d="M214.674 130.762V131.568C214.674 131.666 214.592 131.748 214.492 131.748H209.417C209.334 131.748 209.26 131.691 209.244 131.609C209.219 131.526 209.26 131.444 209.334 131.403C209.88 131.14 210.368 130.934 210.781 130.762H214.674Z"/>
</mask>
<path d="M214.674 130.762V131.568C214.674 131.666 214.592 131.748 214.492 131.748H209.417C209.334 131.748 209.26 131.691 209.244 131.609C209.219 131.526 209.26 131.444 209.334 131.403C209.88 131.14 210.368 130.934 210.781 130.762H214.674Z" fill="#222222"/>
<path d="M214.674 130.762H215.674V129.762H214.674V130.762ZM209.244 131.609L210.224 131.412L210.215 131.365L210.201 131.32L209.244 131.609ZM209.334 131.403L208.9 130.502L208.875 130.514L208.851 130.528L209.334 131.403ZM210.781 130.762V129.762H210.58L210.395 129.839L210.781 130.762ZM213.674 130.762V131.568H215.674V130.762H213.674ZM213.674 131.568C213.674 131.109 214.044 130.748 214.492 130.748V132.748C215.139 132.748 215.674 132.224 215.674 131.568H213.674ZM214.492 130.748H209.417V132.748H214.492V130.748ZM209.417 130.748C209.786 130.748 210.142 131.003 210.224 131.412L208.263 131.806C208.378 132.379 208.883 132.748 209.417 132.748V130.748ZM210.201 131.32C210.334 131.76 210.088 132.129 209.818 132.278L208.851 130.528C208.432 130.759 208.104 131.293 208.286 131.897L210.201 131.32ZM209.769 132.304C210.289 132.053 210.755 131.856 211.167 131.684L210.395 129.839C209.98 130.013 209.471 130.227 208.9 130.502L209.769 132.304ZM210.781 131.762H214.674V129.762H210.781V131.762Z" fill="#222222" mask="url(#path-136-inside-1_298_9684)"/>
<path d="M221.005 131.609C221.022 131.691 221.096 131.748 221.179 131.748H226.254C226.353 131.748 226.436 131.666 226.436 131.568V128.755C225.791 128.747 225.138 128.747 224.493 128.747C224.527 129.356 224.527 129.545 224.419 129.767C224.212 130.153 223.824 130.268 223.254 130.482C223.055 130.564 222.815 130.647 222.543 130.762C222.444 130.803 222.328 130.852 222.22 130.901C221.997 130.992 221.757 131.099 221.493 131.214C221.361 131.28 221.228 131.337 221.096 131.403C221.022 131.444 220.98 131.526 221.005 131.609Z" fill="#F9AF8F"/>
<mask id="path-139-inside-2_298_9684" fill="white">
<path d="M226.436 130.762V131.568C226.436 131.666 226.353 131.748 226.254 131.748H221.179C221.096 131.748 221.022 131.691 221.005 131.609C220.98 131.526 221.022 131.444 221.096 131.403C221.642 131.14 222.129 130.934 222.543 130.762H226.436Z"/>
</mask>
<path d="M226.436 130.762V131.568C226.436 131.666 226.353 131.748 226.254 131.748H221.179C221.096 131.748 221.022 131.691 221.005 131.609C220.98 131.526 221.022 131.444 221.096 131.403C221.642 131.14 222.129 130.934 222.543 130.762H226.436Z" fill="#222222"/>
<path d="M226.436 130.762H227.436V129.762H226.436V130.762ZM221.005 131.609L221.986 131.412L221.976 131.365L221.963 131.32L221.005 131.609ZM221.096 131.403L220.662 130.502L220.637 130.514L220.612 130.528L221.096 131.403ZM222.543 130.762V129.762H222.342L222.157 129.839L222.543 130.762ZM225.436 130.762V131.568H227.436V130.762H225.436ZM225.436 131.568C225.436 131.109 225.806 130.748 226.254 130.748V132.748C226.901 132.748 227.436 132.223 227.436 131.568H225.436ZM226.254 130.748H221.179V132.748H226.254V130.748ZM221.179 130.748C221.548 130.748 221.904 131.003 221.986 131.412L220.025 131.806C220.14 132.379 220.644 132.748 221.179 132.748V130.748ZM221.963 131.32C222.095 131.76 221.85 132.129 221.58 132.278L220.612 130.528C220.194 130.759 219.866 131.293 220.048 131.897L221.963 131.32ZM221.531 132.304C222.05 132.053 222.517 131.856 222.928 131.684L222.157 129.839C221.742 130.013 221.233 130.227 220.662 130.502L221.531 132.304ZM222.543 131.762H226.436V129.762H222.543V131.762Z" fill="#222222" mask="url(#path-139-inside-2_298_9684)"/>
<path d="M224.001 128.248L223.488 120.753L222.979 113.327C223.635 113.327 224.293 113.325 224.951 113.323L224.954 113.323C225.623 113.322 226.293 113.32 226.962 113.32C226.927 115.807 226.894 118.294 226.862 120.78L226.862 120.781C226.829 123.272 226.796 125.764 226.761 128.255C226.306 128.254 225.851 128.253 225.396 128.251L225.395 128.251C224.931 128.25 224.466 128.248 224.001 128.248Z" fill="#222222" stroke="#222222"/>
<path d="M216.591 120.7C216.142 123.217 215.693 125.734 215.246 128.25C214.349 128.255 213.449 128.255 212.551 128.256C212.931 123.277 213.311 118.305 213.69 113.334C215.091 113.328 216.497 113.328 217.904 113.328C217.467 115.784 217.029 118.242 216.591 120.7Z" fill="#222222" stroke="#222222"/>
<path d="M222.013 69.5087C221.782 70.3721 221.402 71.6302 220.757 73.0857C220.286 74.1547 219.393 76.1776 218.947 76.0624C218.5 75.9473 218.632 73.7847 218.897 72.3045C219.095 71.2109 219.401 70.3392 219.641 69.7472C219.707 69.6732 220.269 69.0647 221.104 69.1305C221.55 69.1716 221.873 69.3936 222.013 69.5087Z" fill="#2B92D5"/>
<path d="M216.592 86.0371C218.055 86.4154 220.006 86.7608 222.328 86.7608C224.271 86.769 225.974 86.5305 227.362 86.218C227.354 86.0125 227.337 85.8151 227.329 85.6095C226.346 86.0454 224.916 86.0371 222.626 86.1276C220.254 86.2098 218.295 85.9713 216.922 85.7411V84.853C216.815 84.8613 216.708 84.8612 216.6 84.8695C216.592 85.2559 216.592 85.6424 216.592 86.0371Z" fill="#CED0E9"/>
<path d="M219.6 69.2701C219.608 69.4345 219.616 69.5908 219.633 69.7552C219.864 69.8374 220.253 69.9279 220.724 69.9032C221.327 69.8621 221.774 69.6483 222.013 69.5085C222.03 69.0892 222.046 68.6616 222.063 68.2422C222.063 68.2504 222.055 68.2586 222.046 68.2669C221.459 68.8589 220.575 69.1878 219.732 69.2701C219.691 69.2701 219.641 69.2701 219.6 69.2701Z" fill="#F9AF8F"/>
<path d="M222.418 64.6738C222.22 64.9781 221.798 65.0932 221.393 64.9452C220.649 65.8662 220.145 66.0306 219.806 65.9731C219.252 65.8744 219.046 65.1837 218.277 65.0439C217.93 64.9781 217.616 65.0603 217.409 65.1343C217.401 65.1672 217.401 65.2001 217.393 65.233C217.417 64.6245 217.475 63.7529 217.607 62.7332C217.698 62.0836 217.765 61.6396 217.822 61.3271C218.905 61.8616 220.467 60.661 221.269 61.3106C221.608 61.582 221.856 62.2398 221.443 63.868C221.707 63.5966 222.112 63.572 222.352 63.7775C222.65 64.016 222.575 64.4436 222.418 64.6738Z" fill="#F9AF8F"/>
<path d="M217.277 66.606C217.244 67.6832 217.235 68.226 217.5 68.596C217.855 69.0894 218.69 69.3278 219.599 69.2703C219.641 69.2703 219.69 69.2703 219.732 69.262C220.575 69.1798 221.459 68.8509 222.046 68.2588C222.054 68.2506 222.063 68.2424 222.063 68.2342C222.608 67.675 222.782 67.009 223.071 65.7673C223.195 65.2492 223.393 64.2296 223.327 62.9139C223.261 61.7791 223.236 61.2117 222.856 60.6855C222.278 59.855 221.327 59.6412 220.401 59.4274C220.062 59.3451 217.582 58.786 217.128 59.674C216.913 60.0934 217.153 60.817 217.649 61.1871C217.715 61.2364 217.781 61.2775 217.847 61.3186C218.93 61.8531 220.5 60.6526 221.294 61.3022C221.633 61.5736 221.881 62.2314 221.467 63.8595C221.732 63.5882 222.137 63.5635 222.377 63.7691C222.658 63.9993 222.583 64.4269 222.426 64.6654C222.236 64.9614 221.798 65.0848 221.401 64.9368C220.657 65.8577 220.153 66.0222 219.814 65.9646C219.26 65.866 219.046 65.1752 218.285 65.0354C217.93 64.9697 217.624 65.0437 217.417 65.1259C217.409 65.1588 217.409 65.1917 217.401 65.2246C217.335 65.5864 217.277 66.0551 217.277 66.606Z" fill="#1B296D"/>
<path d="M220.121 83.2824C220.518 83.2741 220.89 83.2659 221.22 83.2495C223.783 83.1672 224.659 83.0274 225.097 82.3861C225.395 81.9502 225.37 81.4404 225.271 80.6181C225.13 79.5409 224.849 78.069 224.295 76.2764C224.246 76.3504 224.51 77.4194 224.651 79.7054C224.725 80.8895 224.709 81.424 224.353 81.868C224.171 82.0982 223.915 82.2874 222.626 82.6656C220.956 83.1672 220.121 83.2083 220.121 83.2824Z" fill="#CED0E9"/>
<path d="M215.731 123.328H206.341C205.011 123.328 203.928 122.251 203.928 120.927V89.0544C203.928 87.7305 205.011 86.6533 206.341 86.6533H215.731C217.062 86.6533 218.145 87.7305 218.145 89.0544V120.927C218.145 122.259 217.07 123.328 215.731 123.328Z" fill="#FF822B"/>
<path d="M213.211 123.328H207.169C206.044 123.328 205.127 122.423 205.127 121.305V88.6762C205.127 87.5578 206.036 86.6533 207.169 86.6533H213.211C214.335 86.6533 215.253 87.5578 215.253 88.6762V121.305C215.253 122.423 214.335 123.328 213.211 123.328Z" fill="#FFA633"/>
<path d="M210.25 123.328H208.754C208.043 123.328 207.465 122.752 207.465 122.045V87.9361C207.465 87.2289 208.043 86.6533 208.754 86.6533H210.25C210.961 86.6533 211.548 87.2289 211.548 87.9361V122.045C211.548 122.752 210.97 123.328 210.25 123.328Z" fill="#FFBB7B"/>
<path d="M208.045 88.7913C208.045 88.2404 208.5 87.7881 209.053 87.7881H209.698C210.252 87.7881 210.707 88.2404 210.707 88.7913C210.707 89.3422 210.26 89.7945 209.698 89.7945H209.053C208.5 89.7863 208.045 89.3422 208.045 88.7913Z" fill="#FFFAFF"/>
<path d="M216.591 97.3599H205.416V107.121H216.591V97.3599Z" fill="#F2D0BC"/>
<path d="M215.277 97.3599H205.416V107.121H215.277V97.3599Z" fill="#FFE1CC"/>
<path d="M211.516 97.3599H207.375V107.121H211.516V97.3599Z" fill="#FFECE3"/>
<path d="M214.269 101.307H207.508C207.136 101.307 206.83 101.003 206.83 100.633V99.728C206.83 99.3497 207.136 99.0537 207.508 99.0537H214.269C214.65 99.0537 214.947 99.358 214.947 99.728V100.633C214.955 101.003 214.65 101.307 214.269 101.307Z" fill="#F2D0BC"/>
<path d="M211.748 103.535H207.409C207.086 103.535 206.83 103.28 206.83 102.96V102.581C206.83 102.261 207.086 102.006 207.409 102.006H211.748C212.071 102.006 212.327 102.261 212.327 102.581V102.96C212.327 103.28 212.071 103.535 211.748 103.535Z" fill="#F2D0BC"/>
<path d="M211.748 105.599H207.409C207.086 105.599 206.83 105.344 206.83 105.024V104.645C206.83 104.325 207.086 104.07 207.409 104.07H211.748C212.071 104.07 212.327 104.325 212.327 104.645V105.024C212.327 105.336 212.071 105.599 211.748 105.599Z" fill="#F2D0BC"/>
<path d="M214.378 105.599H213.518C213.196 105.599 212.939 105.344 212.939 105.024V104.645C212.939 104.325 213.196 104.07 213.518 104.07H214.378C214.7 104.07 214.956 104.325 214.956 104.645V105.024C214.956 105.336 214.692 105.599 214.378 105.599Z" fill="#F2D0BC"/>
<path d="M216.673 86.8674H205.398V73.9737C205.398 73.2665 205.977 72.6909 206.688 72.6909H215.392C216.103 72.6909 216.681 73.2665 216.681 73.9737V86.8674H216.673Z" fill="#DDD4EA"/>
<path d="M213.953 86.8674H206.117V73.7599C206.117 73.1679 206.597 72.6909 207.192 72.6909H212.879C213.474 72.6909 213.953 73.1679 213.953 73.7599V86.8674Z" fill="#E5E2FA"/>
<path d="M212.152 86.8673H207.061V73.546C207.061 73.0691 207.449 72.6826 207.928 72.6826H211.293C211.772 72.6826 212.161 73.0691 212.161 73.546V86.8673H212.152Z" fill="#F7F6FF"/>
<path d="M206.423 83.2495C206.522 84.0224 205.853 84.8694 205.299 84.8118C204.795 84.7625 204.423 83.9895 204.464 83.3482C204.497 82.8548 204.786 82.1558 205.315 82.09C205.844 82.0325 206.357 82.6739 206.423 83.2495Z" fill="#F9AF8F"/>
<path d="M212.789 83.7755C212.789 83.7755 212.797 84.1703 213.186 84.5814C213.64 85.0583 215.029 85.4366 216.914 85.5846V83.348C216.839 83.3315 216.773 83.3068 216.699 83.2739C216.525 83.1999 216.343 83.1342 216.145 82.9779C215.847 82.723 215.798 82.4928 215.492 82.3612C215.376 82.3119 215.269 82.2954 215.194 82.2954V83.0519C215.004 83.1095 214.715 83.1835 214.368 83.1835C213.64 83.1917 213.285 82.9368 213.004 83.1588C212.781 83.348 212.789 83.6933 212.789 83.7755Z" fill="#F9AF8F"/>
<path d="M219.187 85.7736C219.063 85.8312 218.914 85.7819 218.856 85.6585C218.798 85.5352 218.848 85.3872 218.972 85.3296C219.096 85.272 219.245 85.3214 219.302 85.4447C219.36 85.5681 219.311 85.7161 219.187 85.7736Z" fill="#2B92D5"/>
<path d="M218.038 85.6423C217.914 85.6999 217.766 85.6505 217.708 85.5272C217.65 85.4038 217.699 85.2558 217.823 85.1982C217.947 85.1407 218.096 85.19 218.154 85.3134C218.212 85.4367 218.162 85.5847 218.038 85.6423Z" fill="#2B92D5"/>
<path d="M150.355 45.0785C151.265 45.6541 152.215 46.2955 153.191 47.0026C154.199 47.7345 155.125 48.4663 155.976 49.1735H170.665C171.227 49.0008 171.632 48.7541 171.929 48.5075C173.459 47.2658 173.831 44.7496 173.087 42.1017C172.822 40.9916 172.582 39.6513 172.475 38.1218C172.467 38.0231 172.458 37.908 172.45 37.8011C173.516 37.6202 173.905 37.2749 174.062 37.1268C174.583 36.617 174.905 35.8852 175.013 34.2159C175.021 34.0843 175.021 33.9528 175.029 33.813C175.153 30.458 174.401 24.4717 170.45 22.8106C169.946 22.5968 169.491 22.5064 169.177 22.457C168.317 22.4653 167.466 22.4735 166.598 22.4817C166.358 22.4899 166.003 22.531 165.623 22.6873C164.184 23.2711 163.788 24.891 162.754 27.4319C161.556 30.3758 160.936 31.8477 159.919 32.0697C159.167 32.2342 158.373 31.823 156.877 31.0089C156.042 30.5567 155.389 30.0962 154.951 29.7673C154.389 30.31 153.827 30.8609 153.265 31.4119C153.794 31.9546 154.662 32.7851 155.869 33.6321C157.737 34.9478 159.25 35.9921 160.729 35.548C161.06 35.4494 162.126 35.0546 162.903 33.2785C162.895 34.8655 162.862 36.4937 162.804 38.1629C162.763 39.3553 162.713 40.5312 162.647 41.6906C156.373 42.6527 151.827 43.5243 151.265 43.845C150.843 44.0835 150.62 44.4289 150.62 44.4289C150.455 44.6509 150.389 44.8976 150.355 45.0785Z" fill="white"/>
<path d="M152.322 72.1075C152.331 72.1404 152.389 72.1897 152.397 72.198C152.455 72.2473 152.521 72.2637 152.562 72.272H157.935C158.15 72.2884 158.282 72.2144 158.348 72.1568C158.563 71.9595 158.505 71.5812 158.34 71.0056C158.166 70.4053 157.869 69.5995 157.654 68.5552C157.563 68.1276 157.489 67.6506 157.389 66.6886C157.241 65.3975 157.265 64.5588 157.092 63.1856C156.513 58.4985 155.083 58.0051 154.844 54.3458C154.786 53.4495 154.794 52.2325 155.067 50.7442C155.141 50.4564 155.215 50.185 155.29 49.9219C155.075 50.1603 154.86 50.3988 154.637 50.6373C154.315 51.032 154.017 51.4267 153.752 51.7967C153.091 52.7341 152.595 53.614 152.207 54.3787C152.141 54.5103 152.083 54.6337 152.025 54.757C151.967 54.8803 151.909 54.9955 151.86 55.1106C151.636 55.6204 151.455 56.0809 151.322 56.5085C152.752 60.6693 154.182 64.8219 155.621 68.9745C155.835 69.912 155.711 70.1258 155.711 70.1258C155.654 70.2244 155.571 70.2902 155.406 70.4136C155.257 70.5287 155.149 70.5616 154.893 70.7178C154.678 70.8412 154.562 70.9152 154.405 70.9892C154.24 71.0878 154.042 71.1865 153.62 71.3839C152.967 71.7046 152.289 71.9842 152.322 72.1075Z" fill="#F7A284"/>
<path d="M158.34 72.1565C158.274 72.2141 158.15 72.2881 157.927 72.2716H152.554C152.513 72.2634 152.447 72.247 152.389 72.1976C152.38 72.1894 152.323 72.1401 152.314 72.1072C152.273 71.9838 152.959 71.7042 153.612 71.3918C154.034 71.1862 154.232 71.0875 154.397 70.9971H158.332C158.505 71.5727 158.563 71.9592 158.34 72.1565Z" fill="#222222"/>
<path d="M139.866 72.132C139.874 72.1895 139.924 72.2471 139.973 72.2718C139.998 72.28 140.023 72.2882 140.056 72.2882H145.668C145.677 72.28 145.701 72.28 145.726 72.2718C145.759 72.2636 145.784 72.2389 145.817 72.206C145.85 72.1567 145.859 72.1155 145.859 72.0909C145.916 71.8113 145.983 71.4413 146.09 71.0054C146.148 70.767 146.214 70.5038 146.297 70.216C147.156 67.19 148.413 65.5125 149.272 63.9666C151.099 60.6938 150.314 59.5179 151.322 56.5165C151.463 56.0972 151.636 55.6284 151.86 55.1186C151.909 55.0035 151.967 54.8802 152.025 54.765C152.083 54.6417 152.141 54.5101 152.207 54.3868C152.587 53.622 153.091 52.7422 153.752 51.8048C154.017 51.4265 154.315 51.04 154.637 50.6453C154.852 50.4069 155.075 50.1684 155.29 49.9299C155.513 49.6832 155.736 49.4365 155.968 49.1899C155.769 48.5978 155.381 47.7097 154.604 46.8627C153.066 45.177 151.083 44.8234 150.438 44.7412C150.339 45.0948 150.248 45.4566 150.149 45.8184C150.149 45.8102 150.14 45.7938 150.14 45.7855C148.355 53.4 146.569 61.0063 144.784 68.6208C144.693 69.0072 144.536 69.7555 143.908 70.2325C143.908 70.2325 143.685 70.4052 142.346 70.915C142.346 70.915 142.255 70.9561 142.098 71.0219C141.577 71.2357 140.37 71.7373 139.973 71.9346C139.891 71.9511 139.841 72.0415 139.866 72.132Z" fill="#F9AF8F"/>
<path d="M146.098 70.9971C145.999 71.4411 145.924 71.8029 145.866 72.0825C145.866 72.1072 145.858 72.1483 145.825 72.1976C145.792 72.2305 145.767 72.2552 145.734 72.2634H139.981C139.923 72.2387 139.882 72.1812 139.874 72.1236C139.849 72.0332 139.898 71.9427 139.973 71.9098C140.37 71.7125 141.576 71.2109 142.097 70.9971H146.098Z" fill="#222222"/>
<path d="M163.035 36.5922C163.696 36.88 164.424 37.1432 165.209 37.3816C167.97 38.1875 170.491 38.2697 172.458 38.1217C172.45 38.0066 172.442 37.8914 172.433 37.7763C171.574 37.8503 170.623 37.8832 169.598 37.8257C166.912 37.6859 164.68 37.028 163.052 36.3784C163.043 36.4524 163.035 36.5264 163.035 36.5922Z" fill="#CED0E9"/>
<path d="M171.491 27.9414C171.838 29.1831 172.07 30.2685 172.235 31.1237C172.739 33.7551 172.4 34.232 172.252 34.4211C171.731 35.079 170.739 35.1859 168.987 35.0707C167.433 34.9638 165.655 34.7089 165.672 34.602C165.68 34.5198 166.614 34.6267 168.408 34.5691C170.458 34.5034 171.499 34.4622 171.88 33.9524C172.276 33.4179 172.053 32.8505 171.731 30.581C171.566 29.4791 171.508 28.5746 171.491 27.9414Z" fill="#CED0E9"/>
<path d="M165.805 27.8677C166.193 28.0157 167.317 26.2066 169.161 22.4487C168.301 22.457 167.45 22.4652 166.582 22.4734C165.706 25.9353 165.441 27.7361 165.805 27.8677Z" fill="#2F74FF"/>
<path d="M163.73 35.8109C163.862 35.7616 164.011 35.8274 164.061 35.9507C164.11 36.0823 164.044 36.2303 163.92 36.2796C163.788 36.329 163.639 36.2632 163.589 36.1398C163.532 36.0165 163.598 35.8685 163.73 35.8109Z" fill="#2F74FF"/>
<path d="M164.904 36.0331C165.036 35.9837 165.185 36.0495 165.234 36.1729C165.284 36.3044 165.218 36.4524 165.094 36.5018C164.962 36.5511 164.813 36.4853 164.763 36.362C164.705 36.2304 164.772 36.0824 164.904 36.0331Z" fill="#2F74FF"/>
<path d="M164.035 17.1941C164.052 17.0708 164.068 16.9721 164.093 16.8735C164.283 16.7008 164.506 16.4623 164.713 16.1498C165.027 15.6811 165.225 15.1548 165.325 14.5875C165.953 16.1087 167.184 17.1777 168.705 17.8109C168.953 17.5066 169.317 17.5066 169.548 17.6958C169.821 17.9095 169.747 18.3289 169.739 18.3783C169.656 18.7565 169.292 19.0608 168.804 19.1512C168.697 19.5295 168.532 20.2367 168.68 21.0918C168.78 21.6839 169.003 22.1444 169.176 22.4486C169.648 22.5144 170.069 22.6378 170.449 22.8022C175.136 24.8415 174.987 33.7388 174.963 34.742C177.244 33.3277 177.773 32.0778 177.839 31.1815C177.996 29.027 176.062 28.3774 175.301 25.6474C174.524 22.8269 175.839 22.0539 174.748 20.2778C173.764 18.6907 172.326 19.0279 170.995 16.7912C170.59 16.1169 170.284 15.0068 169.581 14.3161C167.746 12.4988 164.3 12.9593 163.291 14.6779C162.679 15.7222 162.646 17.2517 164.035 17.1941Z" fill="#222222"/>
<path d="M164.349 19.7926C164.547 20.2284 165.052 21.3467 165.986 21.47C166.184 21.5029 166.349 21.47 166.473 21.4454C166.506 21.7825 166.548 22.1279 166.581 22.465C166.754 22.5884 167.118 22.8268 167.631 22.8844C167.862 22.9091 168.069 22.8926 168.259 22.8515C168.738 22.7528 169.061 22.5226 169.168 22.4486C168.994 22.1443 168.78 21.6838 168.672 21.0918C168.523 20.2366 168.68 19.5294 168.796 19.1512C169.284 19.0607 169.656 18.7565 169.73 18.3782C169.738 18.3289 169.813 17.9095 169.54 17.6957C169.309 17.4983 168.945 17.5066 168.697 17.8108C167.176 17.1859 165.953 16.1087 165.316 14.5874C165.225 15.1466 165.027 15.6728 164.704 16.1498C164.498 16.4622 164.275 16.7007 164.085 16.8734C164.06 16.9721 164.043 17.0707 164.027 17.1941C163.928 17.819 163.886 18.7976 164.349 19.7926Z" fill="#F9AF8F"/>
<path d="M160.118 25.5403C162.722 28.1306 162.722 32.3243 160.118 34.9145C157.514 37.5048 153.299 37.5048 150.695 34.9145C148.091 32.3243 148.091 28.1306 150.695 25.5403C153.299 22.9501 157.514 22.9501 160.118 25.5403Z" fill="#DDD4EA"/>
<path d="M159.524 26.1325C161.797 28.3938 161.797 32.0613 159.524 34.3226C157.25 36.5839 153.564 36.5839 151.291 34.3226C149.018 32.0613 149.018 28.3938 151.291 26.1325C153.564 23.8712 157.25 23.8712 159.524 26.1325Z" fill="white"/>
<path d="M151.149 34.4624C151.289 34.6022 151.455 34.7173 151.62 34.8242L160.018 26.4697C159.911 26.297 159.795 26.1408 159.654 26.001C159.514 25.8612 159.349 25.7461 159.183 25.6392L150.785 33.9937C150.893 34.1582 151.008 34.3226 151.149 34.4624Z" fill="#DDD4EA"/>
<path d="M159.035 34.2157C159.044 34.2733 159.118 34.5693 159.44 34.8571C160.259 35.5972 162.383 36.033 163.052 36.1646C163.086 35.4656 163.127 34.7831 163.16 34.0924C162.176 33.9855 161.829 33.7306 161.705 33.4839C161.656 33.3934 161.532 33.0809 161.234 32.8096C161.118 32.7109 161.019 32.6369 160.945 32.604C160.936 32.8671 160.936 33.1385 160.936 33.4099C160.788 33.4345 160.556 33.4592 160.292 33.4181C159.796 33.3358 159.655 33.0892 159.416 33.1632C159.126 33.2372 158.944 33.7881 159.035 34.2157Z" fill="#F9AF8F"/>
</g>
<defs>
<clipPath id="clip0_298_9684">
<rect width="241" height="136" fill="white"/>
</clipPath>
</defs>
</svg>
