<svg width="244" height="187" viewBox="0 0 244 187" fill="none" xmlns="http://www.w3.org/2000/svg">
<g clip-path="url(#clip0_298_9606)">
<path d="M71.9683 143.949H98.9941L98.9941 29.5682H71.9683L71.9683 143.949Z" fill="#EEF5F9"/>
<path d="M37.1343 143.944H64.1602L64.1602 60.5831H37.1343L37.1343 143.944Z" fill="#EEF5F9"/>
<path d="M52.2574 143.937H79.2832L79.2832 46.7305H52.2574L52.2574 143.937Z" fill="#EEF5F9"/>
<path d="M88.7144 143.944H115.74L115.74 60.5831H88.7144L88.7144 143.944Z" fill="#EEF5F9"/>
<path d="M162.468 143.944H199.85V60.5831H162.468V143.944Z" fill="#EEF5F9"/>
<path d="M202.725 143.948H243.68V91.9137H202.725V143.948Z" fill="#EEF5F9"/>
<path d="M134.229 143.937H165.945V46.7305H134.229V143.937Z" fill="#EEF5F9"/>
<path d="M111.336 29.5591L138.362 38.9734V143.94H111.336V29.5591Z" fill="#EEF5F9"/>
<path d="M194.383 29.5591L221.409 38.9734V143.94H194.383V29.5591Z" fill="#EEF5F9"/>
<path d="M-0.045681 143.953H37.7012L37.7012 41.5595H-0.045681L-0.045681 143.953Z" fill="#EEF5F9"/>
<path d="M6.16804 51.0811H31.4883L31.4883 34.4171H6.16804L6.16804 51.0811Z" fill="#EEF5F9"/>
<path d="M12.1788 37.5703H25.4785L25.4785 22.7647H12.1788L12.1788 37.5703Z" fill="#EEF5F9"/>
<path d="M17.661 25.5488H19.9961L19.9961 9.02781H17.661L17.661 25.5488Z" fill="#EEF5F9"/>
<path d="M37.1284 74.9648H40.8848V67.8173H37.1284V74.9648Z" fill="#EEF5F9"/>
<path d="M167.449 84.0127H171.205V76.8652H167.449V84.0127Z" fill="#EEF5F9"/>
<path d="M188.246 72.2769H192.002V65.1293H188.246V72.2769Z" fill="#EEF5F9"/>
<path d="M135.191 70.603H138.947V63.4555H135.191V70.603Z" fill="#EEF5F9"/>
<path d="M204.037 50.5435H207.793V43.3959H204.037V50.5435Z" fill="#EEF5F9"/>
<path d="M59.7885 69.084H63.5449V61.9364H59.7885V69.084Z" fill="#EEF5F9"/>
<path d="M16.9506 32.6909H20.707V25.5434H16.9506V32.6909Z" fill="#EEF5F9"/>
<path d="M14.3295 65.8281H18.0859V58.6806H14.3295V65.8281Z" fill="#EEF5F9"/>
<path d="M77.7748 53.8779H81.5312V46.7304H77.7748V53.8779Z" fill="#EEF5F9"/>
<path d="M244 153.999H-39.3555V169.274H244V153.999Z" fill="#FAFFF5"/>
<path d="M196.648 16.1741C197.602 17.7466 196.831 19.993 195.267 20.9528C193.704 21.9126 191.633 21.7492 190.029 20.8915C189.176 20.4218 188.384 19.7683 187.43 19.5845C185.095 19.0944 182.232 21.9534 180.039 20.2993C178.15 18.8698 179.044 17.5628 180.485 16.4396C184.79 13.1109 191.876 17.5832 196.648 16.1741Z" fill="#FAFFF5"/>
<path d="M55.5095 19.38C56.4638 20.9524 55.6922 23.1988 54.1288 24.1586C52.5653 25.1184 50.4942 24.955 48.8901 24.0973C48.0373 23.6276 47.2454 22.9742 46.2911 22.7904C43.956 22.3002 41.093 25.1593 38.9001 23.5051C37.0117 22.0756 37.9051 20.7686 39.3468 19.6454C43.6514 16.2963 50.7378 20.7686 55.5095 19.38Z" fill="#FAFFF5"/>
<path d="M162.82 37.8414C163.774 39.4139 163.003 41.6602 161.439 42.62C159.876 43.5798 157.805 43.4165 156.201 42.5588C155.348 42.0891 154.556 41.4356 153.602 41.2518C151.267 40.7617 148.404 43.6207 146.211 41.9665C144.322 40.537 145.216 39.2301 146.657 38.1069C150.962 34.7577 158.048 39.2301 162.82 37.8414Z" fill="#FAFFF5"/>
<path d="M129.419 24.4651C128.059 25.2207 126.394 25.5066 124.769 25.772C123.571 25.9558 122.394 26.16 121.196 26.3438C118.515 26.7727 115.693 27.2015 113.114 26.4868C111.246 25.9763 109.642 24.8735 107.734 24.4855C105.825 24.0975 103.794 24.4242 101.825 24.3425C101.256 24.3221 100.688 24.2608 100.18 24.0566C99.0836 23.6482 98.4136 22.6067 98.5963 21.6469C98.7994 20.6871 99.8349 19.8702 101.053 19.7681C102.637 19.6252 104.546 20.5237 105.662 19.5843C106.048 19.2576 106.19 18.8083 106.454 18.3999C107.003 17.6034 108.038 17.1337 109.074 16.807C112.363 15.7859 115.104 16.5007 118.394 16.8887C120.627 17.1337 122.658 16.7253 124.871 16.5823C127.693 16.3986 130.556 16.7253 131.551 19.1963C132.302 21.0751 131.389 23.3623 129.419 24.4651Z" fill="#FAFFF5"/>
<path d="M149.724 8.82215C149.156 8.61794 148.587 8.33203 147.998 8.16866C147.207 7.94403 146.354 7.94403 145.542 7.94403C142.313 7.96445 139.064 7.98487 135.836 7.98487C135.531 7.98487 135.186 7.98487 134.963 7.76023C134.78 7.59686 134.719 7.3518 134.699 7.10674C134.536 5.22796 136.546 3.73719 138.414 3.79845C139.044 3.81888 139.734 3.9414 140.283 3.63508C140.709 3.39002 140.953 2.92033 141.237 2.5119C143.024 -0.142903 147.105 -0.816813 149.643 1.10281C150.212 1.53166 150.699 2.06262 151.267 2.49148C152.993 3.79845 155.247 4.06393 157.318 4.65616C159.491 5.2688 161.461 7.61728 158.902 9.1489C157.115 10.17 151.511 9.45522 149.724 8.82215Z" fill="#FAFFF5"/>
<path d="M94.2018 75.8535H93.8332C75.7433 75.8535 58.7103 84.4807 47.9203 99.0901L37.3515 113.428C36.1963 115.01 34.6479 116.295 32.9028 117.16L14.051 126.48C10.7083 128.136 8.61914 131.547 8.61914 135.28V150.68C8.61914 153.202 10.6346 155.229 13.1416 155.229H97.1021L94.2018 75.8535Z" fill="#EF6238"/>
<path d="M87.8595 153.004H62.5681V152.855C62.7401 139.902 52.8595 135.477 52.7612 135.453L52.6875 135.428V111.598L52.7121 111.573L58.8567 101.933C63.2563 95.011 70.7528 90.8828 78.9129 90.8828H89.8258V130.162L87.8595 131.423V153.004ZM62.863 152.732H87.5891V131.275L89.5554 130.014V91.1547H78.9129C70.8511 91.1547 63.4284 95.2335 59.0779 102.056L52.9579 111.672V135.23C53.941 135.7 62.9614 140.347 62.863 152.732Z" fill="#3F3334"/>
<path d="M61.2645 118.421H77.0194C81.9105 118.421 85.8431 114.441 85.8431 109.546V98.7685C85.8431 97.0381 84.4421 95.6538 82.7462 95.6538H78.9857C72.9639 95.6538 67.2371 98.2247 63.2062 102.748L60.3551 105.962L59.7652 116.839C59.6914 117.679 60.3796 118.421 61.2645 118.421Z" fill="#FAFFF5"/>
<path d="M55.982 106.382H53.0326C52.9343 106.382 52.8359 106.456 52.8359 106.58V118.223C52.8359 118.321 52.9097 118.42 53.0326 118.42H55.982C56.0803 118.42 56.1786 118.346 56.1786 118.223V106.58C56.1541 106.481 56.0803 106.382 55.982 106.382Z" fill="#3F3334"/>
<path d="M40.9881 117.21L61.8553 93.5034H52.4417C50.7704 95.2338 49.2219 97.0878 47.7718 99.0654L37.203 113.403C36.5394 114.293 35.7528 115.084 34.8926 115.776L40.9881 117.21Z" fill="#FAFFF5"/>
<path d="M10.8535 137.034C10.8535 137.034 12.3037 130.978 15.3268 129.05C18.35 127.122 23.9048 126.701 23.9048 127.814C23.9048 128.901 19.5298 133.03 19.5298 134.414C19.5298 135.798 20.0705 137.034 20.0705 137.034H10.8535Z" fill="#FFC75A"/>
<path d="M12.871 145.514C12.871 145.514 13.2396 147.244 13.8295 147.244C14.3948 147.244 15.6483 143.561 15.5009 143.116C15.3534 142.671 12.3056 142.943 12.2319 143.042C12.1582 143.116 12.871 145.514 12.871 145.514Z" fill="#3F3334"/>
<path d="M78.0527 125.886C78.0527 124.403 79.4291 123.192 81.1251 123.192C82.821 123.192 84.1974 124.403 84.1974 125.886C84.1974 127.37 82.821 128.581 81.1251 128.581C79.4537 128.581 78.0527 127.37 78.0527 125.886Z" fill="#FAFFF5"/>
<path d="M75.7194 124.823H86.7552C86.8044 124.823 86.8535 124.872 86.8535 124.922V126.553C86.8535 126.603 86.8044 126.652 86.7552 126.652H75.7194C75.6702 126.652 75.6211 126.603 75.6211 126.553V124.922C75.6211 124.872 75.6702 124.823 75.7194 124.823Z" fill="#3F3334"/>
<path d="M220.954 72.3677H92.9735C92.654 72.3677 92.4082 72.6396 92.4082 72.9362V154.635C92.4082 154.956 92.6786 155.204 92.9735 155.204H220.954C221.274 155.204 221.52 154.932 221.52 154.635V72.961C221.544 72.6396 221.274 72.3677 220.954 72.3677Z" fill="#FBFBFB"/>
<path d="M221.543 149.073H6.0625V156.539H221.543V149.073Z" fill="#222222"/>
<path d="M44.5035 168.231C52.9332 168.231 59.7669 161.358 59.7669 152.88C59.7669 144.402 52.9332 137.529 44.5035 137.529C36.0739 137.529 29.2402 144.402 29.2402 152.88C29.2402 161.358 36.0739 168.231 44.5035 168.231Z" fill="#332729"/>
<path d="M32.9277 152.88C32.9277 146.477 38.1138 141.237 44.5043 141.237C50.8701 141.237 56.0808 146.453 56.0808 152.88C56.0808 159.282 50.8947 164.523 44.5043 164.523C38.1138 164.523 32.9277 159.307 32.9277 152.88ZM34.0338 152.88C34.0338 158.689 38.7283 163.41 44.5043 163.41C50.2802 163.41 54.9747 158.689 54.9747 152.88C54.9747 147.071 50.2802 142.349 44.5043 142.349C38.7283 142.349 34.0338 147.071 34.0338 152.88Z" fill="#FAFFF5"/>
<path d="M40.8652 152.88C40.8652 150.878 42.4874 149.246 44.4783 149.246C46.4692 149.246 48.0913 150.878 48.0913 152.88C48.0913 154.882 46.4692 156.514 44.4783 156.514C42.4874 156.538 40.8652 154.907 40.8652 152.88Z" fill="#FAFFF5"/>
<path d="M43.9137 150.111L42.6602 142.201H46.3224L45.0197 150.111H43.9137Z" fill="#FAFFF5"/>
<path d="M41.8271 151.347L35.707 146.205L38.4844 143.783L42.6628 150.63L41.8271 151.347Z" fill="#FAFFF5"/>
<path d="M41.3354 154.017L33.3965 154.734L33.6423 151.051L41.4091 152.905L41.3354 154.017Z" fill="#FAFFF5"/>
<path d="M47.1579 151.347L53.278 146.205L50.5006 143.783L46.3223 150.63L47.1579 151.347Z" fill="#FAFFF5"/>
<path d="M43.9137 155.97L42.6602 163.88H46.3224L45.0197 155.97H43.9137Z" fill="#FAFFF5"/>
<path d="M41.8271 154.709L35.707 159.851L38.4844 162.298L42.6628 155.451L41.8271 154.709Z" fill="#FAFFF5"/>
<path d="M47.1579 154.734L53.278 159.876L50.5006 162.299L46.3223 155.451L47.1579 154.734Z" fill="#FAFFF5"/>
<path d="M47.6745 154.017L55.6134 154.734L55.343 151.051L47.5762 152.905L47.6745 154.017Z" fill="#FAFFF5"/>
<path d="M170.961 168.231C179.39 168.231 186.224 161.358 186.224 152.88C186.224 144.402 179.39 137.529 170.961 137.529C162.531 137.529 155.697 144.402 155.697 152.88C155.697 161.358 162.531 168.231 170.961 168.231Z" fill="#332729"/>
<path d="M159.406 152.88C159.406 146.477 164.592 141.237 170.983 141.237C177.373 141.237 182.559 146.453 182.559 152.88C182.559 159.282 177.373 164.523 170.983 164.523C164.592 164.523 159.406 159.307 159.406 152.88ZM160.488 152.88C160.488 158.689 165.182 163.41 170.958 163.41C176.734 163.41 181.429 158.689 181.429 152.88C181.429 147.071 176.734 142.349 170.958 142.349C165.182 142.349 160.488 147.071 160.488 152.88Z" fill="#FAFFF5"/>
<path d="M167.344 152.879C167.344 150.877 168.966 149.246 170.957 149.246C172.948 149.246 174.57 150.877 174.57 152.879C174.57 154.882 172.948 156.513 170.957 156.513C168.966 156.538 167.344 154.906 167.344 152.879Z" fill="#FAFFF5"/>
<path d="M170.393 150.111L169.115 142.201H172.802L171.499 150.111H170.393Z" fill="#FAFFF5"/>
<path d="M168.281 151.347L162.186 146.205L164.963 143.783L169.117 150.63L168.281 151.347Z" fill="#FAFFF5"/>
<path d="M167.788 154.017L159.85 154.734L160.12 151.051L167.862 152.905L167.788 154.017Z" fill="#FAFFF5"/>
<path d="M173.636 151.347L179.732 146.205L176.979 143.783L172.801 150.63L173.636 151.347Z" fill="#FAFFF5"/>
<path d="M170.393 155.97L169.115 163.88H172.802L171.499 155.97H170.393Z" fill="#FAFFF5"/>
<path d="M168.281 154.709L162.186 159.851L164.963 162.298L169.117 155.451L168.281 154.709Z" fill="#FAFFF5"/>
<path d="M173.636 154.734L179.732 159.876L176.979 162.298L172.801 155.451L173.636 154.734Z" fill="#FAFFF5"/>
<path d="M174.128 154.017L182.067 154.734L181.797 151.051L174.055 152.905L174.128 154.017Z" fill="#FAFFF5"/>
<path d="M100.126 99.337H148.497V96.8403H97.0781L100.126 99.337Z" fill="#EF6238"/>
<path d="M100.126 106.382H148.497V103.885H97.0781L100.126 106.382Z" fill="#EF6238"/>
<path d="M174.906 120.016H184.664V88.6957H174.906V120.016Z" fill="#222222"/>
<path d="M195.367 109.262V99.4487H164.226V109.262H195.367Z" fill="#222222"/>
<path d="M87.0496 76.6937C87.0496 76.6937 87.1479 70.761 85.8453 70.4149C84.5426 70.0689 79.0861 69.7722 78.0784 70.4149C77.0707 71.0576 76.4316 78.5725 76.4316 78.5725L87.0496 78.523V76.6937Z" fill="#FAFFF5"/>
</g>
<defs>
<clipPath id="clip0_298_9606">
<rect width="244" height="187" fill="white"/>
</clipPath>
</defs>
</svg>
