<svg width="171" height="171" viewBox="0 0 171 171" fill="none" xmlns="http://www.w3.org/2000/svg">
<g clip-path="url(#clip0_298_9161)">
<path d="M150.542 146.68C147.048 150.356 143.739 152.72 141.123 154.595C110.394 176.587 74.0396 170.179 66.3096 168.611C54.9018 166.301 32.8415 161.83 16.8964 143.121C-7.22698 114.813 -3.46942 70.2219 15.2386 40.7806C18.6585 35.3959 36.7402 5.50733 73.4932 0.716829C95.7316 -2.18075 121.66 3.66341 140.43 19.3581C179.841 52.2974 177.035 118.85 150.542 146.68Z" fill="#EEF5F9"/>
<path d="M85.5836 113.31L82.4707 141.14H118.554L113.851 113.31H85.5836Z" fill="black"/>
<path d="M22.791 42.7514V108.336C22.791 113.733 27.1012 118.144 32.5042 118.284C56.5109 118.903 140.485 120.398 163.344 120.061C167.273 120.006 170.454 116.869 170.57 112.949C171.012 97.7135 171.725 61.0741 169.078 44.0624C168.52 40.4787 165.493 37.8016 161.858 37.6852C141.744 37.0481 52.7226 35.0082 29.8825 35.5228C25.9407 35.6085 22.791 38.8185 22.791 42.7514Z" fill="black"/>
<path d="M26.916 42.4329V104.746C26.916 107.895 29.4518 110.462 32.6076 110.511L160.058 112.079C163.189 112.128 165.756 109.616 165.768 106.492L165.983 44.7363C165.989 42.5003 164.208 40.6748 161.973 40.6196L31.484 37.9916C28.979 37.9303 26.916 39.9335 26.916 42.4329Z" fill="url(#paint0_linear_298_9161)"/>
<path d="M166.727 114.664C166.727 114.664 166.721 114.664 166.727 114.664L26.9175 112.287C26.8069 112.287 26.7148 112.189 26.7148 112.079C26.7148 111.968 26.8069 111.876 26.9236 111.876L166.733 114.253C166.844 114.253 166.936 114.351 166.936 114.462C166.93 114.572 166.838 114.664 166.727 114.664Z" fill="#7D97F4"/>
<path d="M126.327 146.831H73.5186C72.0819 146.831 71.0075 145.814 71.2837 144.718L71.9591 142.047C72.1617 141.244 73.052 140.65 74.1019 140.62L125.013 139.033C126.112 138.996 127.088 139.584 127.328 140.417L128.55 144.675C128.863 145.784 127.782 146.831 126.327 146.831Z" fill="black"/>
<path d="M26.916 42.4329V104.746C26.916 107.895 29.4518 110.462 32.6076 110.511L160.058 112.079C163.189 112.128 165.756 109.616 165.768 106.492L165.983 44.7363C165.989 42.5003 164.208 40.6748 161.973 40.6196L31.484 37.9916C28.979 37.9303 26.916 39.9335 26.916 42.4329Z" fill="white"/>
<path d="M165.953 52.0733L165.978 44.8386C165.984 42.6026 164.203 40.7832 161.968 40.728L31.5156 38.1C29.0105 38.0387 26.9844 40.0481 26.9844 42.5474V52.0733H165.953Z" fill="#E9EDF2"/>
<path d="M36.7625 46.8092C36.9518 46.0091 36.4552 45.2073 35.6533 45.0184C34.8514 44.8294 34.0478 45.3249 33.8585 46.125C33.6691 46.9251 34.1657 47.7269 34.9676 47.9158C35.7695 48.1047 36.5731 47.6093 36.7625 46.8092Z" fill="#EF6238"/>
<path d="M41.9383 46.8097C42.1276 46.0096 41.631 45.2078 40.8291 45.0189C40.0272 44.83 39.2236 45.3254 39.0343 46.1255C38.8449 46.9256 39.3415 47.7274 40.1434 47.9163C40.9453 48.1052 41.7489 47.6098 41.9383 46.8097Z" fill="#EF6238"/>
<path d="M46.9775 46.7029C47.1095 45.8913 46.5571 45.1267 45.7437 44.995C44.9304 44.8633 44.164 45.4144 44.032 46.2259C43.9 47.0374 44.4523 47.8021 45.2657 47.9338C46.0791 48.0655 46.8455 47.5144 46.9775 46.7029Z" fill="#EF6238"/>
<path d="M158.21 108.673L35.7022 106.909C33.8419 106.884 32.3438 105.371 32.3438 103.509V91.275C32.3438 89.5475 33.7559 88.1507 35.4935 88.1691L158.29 89.5597C159.702 89.5781 160.832 90.7237 160.832 92.1265V106.094C160.832 107.533 159.653 108.691 158.21 108.673Z" fill="#E9EDF2"/>
<path d="M114.108 86.6439L35.7943 85.5228C33.8848 85.4983 32.3438 83.9423 32.3438 82.031V57.8396C32.3438 56.4735 33.4551 55.3647 34.8242 55.3647H113.586C115.158 55.3647 116.435 56.6389 116.435 58.2072V84.3589C116.428 85.6331 115.385 86.6622 114.108 86.6439Z" fill="#E9EDF2"/>
<path d="M158.247 86.6809H120.935C119.615 86.6809 118.547 85.6149 118.547 84.2979V58.3361C118.547 56.7004 119.879 55.3711 121.519 55.3711H159.033C160.021 55.3711 160.826 56.1736 160.826 57.1599V84.1018C160.832 85.5231 159.677 86.6809 158.247 86.6809Z" fill="#E9EDF2"/>
<path d="M8.15877 144.787C8.15877 145.78 8.96923 146.588 9.96388 146.588H107.691C108.686 146.588 109.496 145.78 109.496 144.787L110.307 88.753C110.307 87.7606 109.134 85.8309 106.991 85.9718L11.4804 83.5092C10.234 83.4786 9.02449 83.9564 8.14649 84.8324C7.26236 85.7084 6.77732 86.9091 6.80801 88.1527L8.15877 144.787Z" fill="black"/>
<path d="M9.94658 143.054C9.94658 143.991 10.7141 144.757 11.6535 144.757H105.335C106.274 144.757 107.042 143.991 107.042 143.054L107.809 92.1837C107.717 89.1207 105.028 88.0242 103.401 88.0854L11.8622 85.635C10.9842 85.6105 10.1369 85.9475 9.5168 86.5662C8.89667 87.1849 8.55284 88.0303 8.5774 88.9002L9.94658 143.054Z" fill="white"/>
<path d="M0.582391 151.238H115.102C115.293 151.238 115.452 151.085 115.452 150.889V146.656C115.452 146.466 115.299 146.307 115.102 146.307H0.582391C0.392057 146.307 0.232422 146.46 0.232422 146.656V150.889C0.232422 151.079 0.392057 151.238 0.582391 151.238Z" fill="#2B2B2B"/>
<path d="M107.741 97.3014L107.815 92.2046C107.723 89.1416 105.034 88.0266 103.407 88.094L11.8681 85.6375C10.9901 85.613 10.1428 85.9438 9.52265 86.5625C8.90253 87.1813 8.5587 88.0573 8.58326 88.9333L8.79202 97.3075H107.741V97.3014Z" fill="#E9EDF2"/>
<path d="M106.035 118.893C105.894 118.893 105.783 118.777 105.783 118.642L105.845 114.519C105.845 114.384 105.961 114.274 106.096 114.274C106.238 114.274 106.348 114.39 106.342 114.525L106.281 118.648C106.287 118.783 106.17 118.893 106.035 118.893Z" fill="white"/>
<path d="M106.181 108.779C106.04 108.779 105.93 108.663 105.93 108.528L106.163 92.7289C106.157 91.7916 105.874 91.0381 105.316 90.5052C104.272 89.5066 102.614 89.5618 102.547 89.5618L73.2905 88.7776C73.1493 88.7715 73.0449 88.6612 73.0449 88.5203C73.0511 88.3794 73.1554 88.263 73.3028 88.2753L102.541 89.0594C102.725 89.0472 104.487 89.0165 105.66 90.1437C106.323 90.7747 106.66 91.6446 106.66 92.7289L106.427 108.534C106.433 108.669 106.323 108.779 106.181 108.779Z" fill="#BDD0FB"/>
<path d="M66.3511 123.23H15.0469C13.7698 123.23 12.7383 122.201 12.7383 120.927V102.108C12.7383 100.833 13.7698 99.8042 15.0469 99.8042H66.3573C67.6344 99.8042 68.6659 100.833 68.6659 102.108V120.927C68.6659 122.201 67.6282 123.23 66.3511 123.23Z" fill="#E9EDF2"/>
<path d="M103.368 123.23H73.2339C72.3191 123.23 71.5762 122.488 71.5762 121.576V101.452C71.5762 100.539 72.3191 99.7979 73.2339 99.7979H103.368C104.283 99.7979 105.026 100.539 105.026 101.452V121.576C105.026 122.495 104.283 123.23 103.368 123.23Z" fill="#E9EDF2"/>
<path d="M102.994 142.545H14.7706C13.647 142.545 12.7383 141.639 12.7383 140.518V128.676C12.7383 127.555 13.647 126.648 14.7706 126.648H102.994C104.117 126.648 105.026 127.555 105.026 128.676V140.518C105.026 141.633 104.117 142.545 102.994 142.545Z" fill="#E9EDF2"/>
<path d="M14.6183 91.5065C14.722 90.8687 14.2879 90.2676 13.6485 90.1641C13.0092 90.0606 12.4069 90.4938 12.3031 91.1316C12.1993 91.7695 12.6335 92.3705 13.2728 92.4741C13.9121 92.5776 14.5145 92.1444 14.6183 91.5065Z" fill="#EF6238"/>
<path d="M18.2025 92.2575C18.6605 91.8006 18.6605 91.0598 18.2025 90.6028C17.7445 90.1459 17.002 90.1459 16.5441 90.6028C16.0861 91.0598 16.0861 91.8006 16.5441 92.2575C17.002 92.7145 17.7445 92.7145 18.2025 92.2575Z" fill="#EF6238"/>
<path d="M21.8626 92.4753C22.3206 92.0184 22.3206 91.2775 21.8626 90.8206C21.4047 90.3637 20.6622 90.3637 20.2042 90.8206C19.7463 91.2775 19.7463 92.0184 20.2042 92.4753C20.6622 92.9322 21.4047 92.9322 21.8626 92.4753Z" fill="#EF6238"/>
<path d="M104.204 71.2571C113.115 71.2571 120.339 63.9589 120.339 54.956C120.339 45.9531 113.115 38.6548 104.204 38.6548C95.2924 38.6548 88.0684 45.9531 88.0684 54.956C88.0684 63.9589 95.2924 71.2571 104.204 71.2571Z" fill="white"/>
<path d="M103.633 63.7404C102.933 63.7404 102.282 63.3728 101.92 62.7602L95.8479 52.5482C95.2769 51.5926 95.5839 50.3551 96.5294 49.7793C97.475 49.2034 98.7029 49.5159 99.2678 50.4715L103.48 57.5592L109.049 46.5019C109.552 45.5095 110.749 45.1113 111.732 45.6197C112.714 46.1282 113.107 47.3411 112.604 48.3335L105.395 62.6316C105.064 63.287 104.413 63.7097 103.688 63.7342C103.682 63.7404 103.658 63.7404 103.633 63.7404Z" fill="#EF6238"/>
<path d="M31.7546 133.822C40.6659 133.822 47.89 126.523 47.89 117.52C47.89 108.518 40.6659 101.219 31.7546 101.219C22.8432 101.219 15.6191 108.518 15.6191 117.52C15.6191 126.523 22.8432 133.822 31.7546 133.822Z" fill="white"/>
<path d="M31.1898 126.305C30.4899 126.305 29.8391 125.938 29.4768 125.325L23.4045 115.113C22.8335 114.157 23.1405 112.92 24.0861 112.344C25.0316 111.768 26.2595 112.081 26.8244 113.036L31.0363 120.124L36.6051 109.067C37.1086 108.074 38.3059 107.676 39.2882 108.185C40.2706 108.693 40.6636 109.906 40.1601 110.898L32.9704 125.203C32.6388 125.858 31.988 126.281 31.2635 126.305C31.2389 126.305 31.2144 126.305 31.1898 126.305Z" fill="#EF6238"/>
<path d="M28.3723 39.9291C30.4537 35.8982 34.328 33.0558 38.8223 32.5473L39.1293 13.1342C39.1293 12.9688 38.9942 12.834 38.8284 12.834C26.1497 12.9688 14.963 20.8467 9.74414 32.5044C9.67046 32.676 9.75028 32.872 9.92833 32.9394L28.3723 39.9291Z" fill="url(#paint1_linear_298_9161)"/>
<path d="M53.4292 49.2345C53.1713 49.2284 52.938 49.3938 52.8582 49.6389C52.6433 50.3311 52.2442 51.6665 52.1766 51.8319C51.8574 52.6528 51.489 53.4492 51.0531 54.2149C50.2487 55.63 49.2172 56.9287 47.9402 57.9579C44.7168 60.5614 40.0812 61.0454 36.2131 59.7589C36.1026 59.7222 35.9921 59.6854 35.8877 59.6425C35.6851 59.569 35.4579 59.6487 35.3597 59.8386L25.6035 77.5794C30.3373 79.9501 34.7948 80.5688 40.3821 80.2074C56.6219 79.166 69.3743 66.0135 70.7926 49.7001L53.4292 49.2345Z" fill="url(#paint2_linear_298_9161)"/>
<path d="M53.4293 49.2344C52.3733 55.7095 47.5781 60.7696 41.0576 60.9901C39.2218 61.0513 37.036 60.6287 35.4274 59.9793C35.2616 59.9119 35.0651 59.9793 34.9792 60.1386L24.959 77.3403C29.6928 79.711 35.0406 80.8688 40.6278 80.5135C56.8676 79.4721 69.62 65.9215 71.0383 49.6019L53.4293 49.2344Z" fill="url(#paint3_linear_298_9161)"/>
<path d="M22.8644 74.6141L32.5653 57.247C32.6329 57.1245 32.6022 56.9713 32.4978 56.8794C29.5077 54.3678 27.1193 51.0046 27.1193 46.6368C27.1193 45.5587 26.6404 43.9965 26.8614 42.9857L8.62006 36.48C7.60699 39.7696 7.06055 43.2675 7.06055 46.8941C7.06055 58.6131 13.3047 68.9231 21.8698 74.8469C22.2075 75.0797 22.6679 74.9694 22.8644 74.6141Z" fill="url(#paint4_linear_298_9161)"/>
<path d="M21.8943 74.1178L31.9514 56.9651C32.0803 56.7445 32.0373 56.4689 31.847 56.3035C28.9613 53.7735 27.1255 49.9692 27.1255 45.6749C27.1255 44.5968 27.2421 43.5492 27.4631 42.5384L8.89021 35.6161C8.74286 35.561 8.57708 35.6406 8.5341 35.7938C7.57629 38.9976 7.06055 42.4037 7.06055 45.9261C7.06055 57.933 13.0039 68.2736 21.8943 74.1178Z" fill="url(#paint5_linear_298_9161)"/>
<path d="M42.377 32.6391C48.1361 33.6009 52.5936 38.4343 53.3549 44.4806C53.3979 44.8053 53.6619 45.0503 53.9873 45.0626L81.8253 45.9937C81.9112 45.908 81.9603 45.8651 82.0463 45.7793C81.9603 22.5435 65.26 2.63416 42.8927 0L42.377 32.6391Z" fill="#EF6238"/>
<path d="M44.9354 162.019C44.96 162.007 58.3448 138.63 60.1499 136.425C60.4569 136.057 60.9235 135.867 61.4024 135.922L65.1354 136.364L69.5254 145.834L62.2129 141.589C62.9374 146.582 53.5434 154 50.3262 156.708C50.0008 156.983 49.9701 157.474 50.2648 157.78L51.548 159.121C49.4359 161.259 46.9984 162.625 44.2539 163.263L44.9354 162.019Z" fill="url(#paint6_linear_298_9161)"/>
<path d="M50.8122 158.399C50.8122 158.399 51.6349 158.662 51.9112 159.391C52.0463 159.74 51.8989 160.133 51.5981 160.353C50.2473 161.321 45.7898 164.439 43.733 165.046C43.5672 165.095 43.4014 164.941 43.4444 164.77C43.5488 164.292 43.8926 163.343 44.9916 161.946L44.8934 162.148C44.7706 162.399 45.0407 162.663 45.2863 162.522C46.6555 161.756 49.4614 160.059 50.8122 158.399Z" fill="black"/>
<path d="M50.1499 167.759C50.1745 167.747 52.1822 162.92 52.2006 162.901C54.0426 151.722 58.5308 142.141 59.857 139.623C60.078 139.2 60.5017 138.918 60.9806 138.882L64.7258 138.563L70.9455 146.949L62.9269 144.266C64.646 149.008 56.9528 158.172 54.3496 161.468C54.0856 161.805 54.1592 162.289 54.5092 162.534L56.038 163.588C54.4048 166.105 52.2989 167.937 49.7324 169.113L50.1499 167.759Z" fill="url(#paint7_linear_298_9161)"/>
<path d="M55.1709 163.03C55.1709 163.03 56.0305 163.122 56.448 163.783C56.6506 164.096 56.5892 164.512 56.3374 164.788C55.2077 166.007 51.4747 169.958 49.5898 170.975C49.4363 171.061 49.246 170.944 49.2521 170.767C49.2582 170.277 49.3995 169.278 50.1976 167.692L50.1424 167.906C50.0687 168.176 50.3941 168.378 50.609 168.194C51.7817 167.153 54.1824 164.929 55.1709 163.03Z" fill="black"/>
<path d="M82.2731 136.792C82.2731 136.792 85.6623 141.822 85.9447 144.119C86.221 146.416 85.0053 147.207 81.4565 147.501C70.896 148.371 65.6895 145.216 65.6895 145.216C64.965 140.621 64.4554 139.451 58.4199 136.952C58.4199 136.952 66.0517 137.558 67.5867 136.964C69.1216 136.364 82.2731 136.792 82.2731 136.792Z" fill="#EF6238"/>
<path d="M68.7539 108.601C68.7539 108.601 71.1177 105.814 73.6289 109.232C74.0833 109.851 75.8331 109.342 76.4717 110.635C76.8032 111.302 77.5154 111.682 78.2522 111.547C80.0819 111.21 83.0781 111.18 84.5578 114.047C85.6875 116.234 84.8157 117.514 83.686 118.243C82.8571 118.776 82.5624 119.866 83.0597 120.718C83.5386 121.533 83.6307 122.635 82.3905 123.959C79.6091 126.93 74.1078 122.072 74.1078 122.072L69.7363 111.768L68.7539 108.601Z" fill="black"/>
<path d="M73.107 136.125C73.107 136.125 69.1591 132.376 67.2128 129.889C66.1629 128.547 65.8313 126.777 66.3164 125.147C67.2067 122.164 68.7784 119.076 68.9258 118.592C69.1468 117.857 73.5736 117.888 73.5736 117.888C73.5736 117.888 82.286 123.53 85.7059 133.086L81.8624 134.281C81.8624 134.281 79.5906 130.471 77.3373 128.051C77.3373 128.051 81.2238 133.178 81.3651 135.273L73.107 136.125Z" fill="#EF6238"/>
<path d="M65.5859 137.607L68.5515 134.385L71.9775 135.304C71.9775 135.304 75.9745 135.923 78.2585 135.304C80.5425 134.685 80.5425 134.685 80.5425 134.685L85.7061 133.08L86.5166 135.365C86.7253 135.947 86.5166 136.59 86.0131 136.946C85.5649 137.264 85.043 137.613 84.7053 137.754C84.0238 138.048 69.0304 137.846 69.0304 137.846L65.5859 137.607Z" fill="url(#paint8_linear_298_9161)"/>
<path d="M70.5349 112.577L73.5127 118.096C73.3162 119.303 70.277 119.334 69.8043 118.617C69.7552 118.544 69.7306 118.458 69.7122 118.372L67.9316 114.684C67.858 114.323 68.8465 113.11 69.1657 112.938L70.3507 112.307C70.7989 112.068 68.9017 112.05 70.5349 112.577Z" fill="url(#paint9_linear_298_9161)"/>
<path d="M64.5099 111.278C64.5099 111.278 64.1722 113.14 65.6458 115.517C67.1132 117.888 68.5807 117.784 69.3236 116.938C70.0665 116.093 70.9568 114.684 70.5516 112.319C70.1402 109.948 65.0195 108.901 64.5099 111.278Z" fill="url(#paint10_linear_298_9161)"/>
<path d="M68.7719 112.571C68.7719 112.571 66.3958 109.452 64.5661 112.172L64.5968 113.11C64.5968 113.11 62.2207 112.999 62.4786 110.812C62.7364 108.625 64.6766 107.137 67.3658 107.884C70.0551 108.632 71.6269 109.483 71.9277 111.345C72.2286 113.208 70.7059 112.901 70.7059 112.901C70.7059 112.901 70.1226 111.615 69.4227 111.529C68.7227 111.443 68.9745 112.46 68.9745 112.46L68.7719 112.571Z" fill="black"/>
<path d="M69.3113 112.491C69.3113 112.491 68.0772 110.898 69.2008 110.561C70.3243 110.231 70.2814 112.124 70.2077 112.828L69.3113 112.491Z" fill="url(#paint11_linear_298_9161)"/>
<path d="M75.4023 138.882C75.39 138.882 75.3839 138.882 75.3716 138.882L61.7289 138.87C61.3912 138.87 61.1211 138.594 61.1211 138.257C61.1211 137.92 61.3974 137.644 61.7351 137.65L75.3777 137.663C75.7154 137.663 75.9856 137.938 75.9856 138.275C75.9795 138.6 75.7277 138.863 75.4023 138.882Z" fill="black"/>
<path d="M49.4557 126.52H60.8205C61.6616 126.52 62.423 127.003 62.7791 127.757L68.0348 138.869H53.9132C53.3729 138.869 52.8878 138.539 52.6914 138.036L48.6145 127.751C48.3812 127.163 48.8171 126.52 49.4557 126.52Z" fill="black"/>
<path d="M57.462 132.217C57.7076 132.982 57.5234 133.724 57.0568 133.871C56.584 134.024 56.0069 133.528 55.7613 132.762C55.5157 131.996 55.6999 131.255 56.1665 131.108C56.6393 130.961 57.2164 131.457 57.462 132.217Z" fill="black"/>
<path d="M90.905 109.422C90.6963 119.235 90.0209 153.1 90.3402 165.095C90.377 166.369 91.2489 167.386 92.3356 167.429C97.7202 167.637 117.466 168.157 126.276 167.723C128.112 167.631 129.574 165.897 129.61 163.753C129.795 153.449 130.2 124.473 129.236 111.192C129.119 109.599 128.051 108.337 126.688 108.178C120.824 107.492 100.993 105.82 93.3794 106.395C92.0102 106.5 90.9357 107.817 90.905 109.422Z" fill="black"/>
<path d="M93.3063 112.43C93.0178 120.351 92.103 146.711 92.3915 156.457C92.4345 157.884 93.3984 159.036 94.6141 159.116C99.6365 159.459 116.76 160.212 124.122 159.526C125.448 159.404 126.486 158.148 126.559 156.598C126.934 148.518 128.002 123.971 127.726 114.335C127.683 112.797 126.664 111.541 125.35 111.407C119.922 110.837 101.724 109.483 95.4676 109.881C94.2887 109.961 93.3555 111.057 93.3063 112.43Z" fill="white"/>
<path opacity="0.5" d="M104.217 108.111C104.217 108.411 104.419 108.662 104.677 108.674C105.948 108.754 109.534 108.975 111.136 109.079C111.449 109.097 111.701 108.766 111.64 108.405L111.627 108.344C111.585 108.099 111.413 107.909 111.198 107.884C110.117 107.768 106.851 107.449 104.683 107.535C104.419 107.559 104.217 107.811 104.217 108.111Z" fill="white"/>
<path d="M127.774 117.336C127.768 116.27 127.756 115.223 127.731 114.347C127.688 112.809 126.669 111.547 125.355 111.412C119.927 110.843 101.729 109.489 95.4726 109.887C94.2999 109.961 93.3667 111.069 93.3114 112.442C93.2684 113.673 93.2316 114.641 93.1641 116.558L127.774 117.336Z" fill="#E9EDF2"/>
<path d="M110.222 134.226H96.0693C95.2343 134.226 94.5527 133.527 94.5527 132.67V120.271C94.5527 119.487 95.1851 118.856 95.9465 118.874L110.234 119.223C111.02 119.241 111.646 119.903 111.646 120.712V132.768C111.646 133.57 111.007 134.226 110.222 134.226Z" fill="#E9EDF2"/>
<path opacity="0.42" d="M125.559 134.226H113.451C113.144 134.226 112.898 133.981 112.898 133.674V119.683C112.898 119.444 113.089 119.254 113.328 119.254H125.589C125.829 119.254 126.025 119.45 126.025 119.689V133.766C126.019 134.017 125.81 134.226 125.559 134.226Z" fill="#E9EDF2"/>
<path d="M125.577 146.374H94.54C94.2699 146.374 94.0488 146.153 94.0488 145.883V136.584C94.0488 136.364 94.2269 136.186 94.4479 136.186H125.558C125.816 136.186 126.025 136.394 126.025 136.652V145.932C126.019 146.177 125.822 146.374 125.577 146.374Z" fill="#E9EDF2"/>
<path d="M122.702 157.878L95.4844 157.498C94.6801 157.486 94.0293 156.898 94.0293 156.181V149.608C94.0293 148.971 94.6064 148.462 95.3125 148.462H123.942C124.624 148.462 125.17 148.952 125.177 149.559L125.195 155.679C125.207 156.904 124.078 157.896 122.702 157.878Z" fill="#E9EDF2"/>
<path opacity="0.74" d="M96.5126 114.991C97.0014 114.789 97.2334 114.23 97.031 113.743C96.8285 113.255 96.2682 113.024 95.7795 113.226C95.2907 113.428 95.0586 113.987 95.2611 114.474C95.4635 114.962 96.0239 115.193 96.5126 114.991Z" fill="#EF6238"/>
<path opacity="0.74" d="M100.022 114.873C100.396 114.5 100.396 113.895 100.022 113.522C99.6479 113.149 99.0415 113.149 98.6675 113.522C98.2934 113.895 98.2934 114.5 98.6675 114.873C99.0415 115.247 99.6479 115.247 100.022 114.873Z" fill="#EF6238"/>
<path opacity="0.74" d="M102.702 115.262C103.191 115.06 103.423 114.501 103.22 114.013C103.018 113.526 102.458 113.294 101.969 113.496C101.48 113.698 101.248 114.257 101.451 114.745C101.653 115.232 102.213 115.464 102.702 115.262Z" fill="#EF6238"/>
<path d="M111.437 145.008C118.331 145.008 123.92 139.36 123.92 132.394C123.92 125.428 118.331 119.781 111.437 119.781C104.544 119.781 98.9551 125.428 98.9551 132.394C98.9551 139.36 104.544 145.008 111.437 145.008Z" fill="white"/>
<path d="M111.001 139.194C110.461 139.194 109.957 138.906 109.675 138.434L104.978 130.532C104.536 129.79 104.775 128.835 105.506 128.388C106.237 127.947 107.188 128.185 107.624 128.921L110.884 134.403L115.195 125.851C115.581 125.086 116.515 124.779 117.276 125.165C118.037 125.557 118.338 126.495 117.951 127.267L112.376 138.33C112.118 138.839 111.615 139.163 111.056 139.182C111.038 139.194 111.019 139.194 111.001 139.194Z" fill="#EF6238"/>
</g>
<defs>
<linearGradient id="paint0_linear_298_9161" x1="102.756" y1="-8.12168" x2="91.4923" y2="137.57" gradientUnits="userSpaceOnUse">
<stop stop-color="#53D8FF"/>
<stop offset="1" stop-color="#3840F7"/>
</linearGradient>
<linearGradient id="paint1_linear_298_9161" x1="50.6224" y1="-15.9286" x2="8.25328" y2="62.1823" gradientUnits="userSpaceOnUse">
<stop stop-color="#FEBBBA"/>
<stop offset="1" stop-color="#FF928E"/>
</linearGradient>
<linearGradient id="paint2_linear_298_9161" x1="39.9016" y1="43.0924" x2="48.2424" y2="63.8397" gradientUnits="userSpaceOnUse">
<stop stop-color="#FF928E"/>
<stop offset="1" stop-color="#FE7062"/>
</linearGradient>
<linearGradient id="paint3_linear_298_9161" x1="83.2691" y1="1.77971" x2="40.8999" y2="79.8908" gradientUnits="userSpaceOnUse">
<stop stop-color="#FEBBBA"/>
<stop offset="1" stop-color="#FF928E"/>
</linearGradient>
<linearGradient id="paint4_linear_298_9161" x1="61.0754" y1="101.984" x2="40.9539" y2="78.7145" gradientUnits="userSpaceOnUse">
<stop stop-color="#FF928E"/>
<stop offset="1" stop-color="#FE7062"/>
</linearGradient>
<linearGradient id="paint5_linear_298_9161" x1="53.3778" y1="-14.4338" x2="11.0087" y2="63.6771" gradientUnits="userSpaceOnUse">
<stop stop-color="#FEBBBA"/>
<stop offset="1" stop-color="#FF928E"/>
</linearGradient>
<linearGradient id="paint6_linear_298_9161" x1="41.7281" y1="142.431" x2="62.8025" y2="154.487" gradientUnits="userSpaceOnUse">
<stop stop-color="#FEBBBA"/>
<stop offset="1" stop-color="#FF928E"/>
</linearGradient>
<linearGradient id="paint7_linear_298_9161" x1="43.7709" y1="145.427" x2="-28.3234" y2="100.193" gradientUnits="userSpaceOnUse">
<stop stop-color="#FEBBBA"/>
<stop offset="1" stop-color="#FF928E"/>
</linearGradient>
<linearGradient id="paint8_linear_298_9161" x1="78.6825" y1="135.505" x2="99.6991" y2="135.505" gradientUnits="userSpaceOnUse">
<stop stop-color="#FEBBBA"/>
<stop offset="1" stop-color="#FF928E"/>
</linearGradient>
<linearGradient id="paint9_linear_298_9161" x1="70.1289" y1="125.483" x2="70.6126" y2="117.93" gradientUnits="userSpaceOnUse">
<stop stop-color="#FEBBBA"/>
<stop offset="1" stop-color="#FF928E"/>
</linearGradient>
<linearGradient id="paint10_linear_298_9161" x1="70.8425" y1="119.092" x2="61.7301" y2="101.613" gradientUnits="userSpaceOnUse">
<stop stop-color="#FEBBBA"/>
<stop offset="1" stop-color="#FF928E"/>
</linearGradient>
<linearGradient id="paint11_linear_298_9161" x1="72.9357" y1="118.001" x2="63.8229" y2="100.522" gradientUnits="userSpaceOnUse">
<stop stop-color="#FEBBBA"/>
<stop offset="1" stop-color="#FF928E"/>
</linearGradient>
<clipPath id="clip0_298_9161">
<rect width="171" height="171" fill="white"/>
</clipPath>
</defs>
</svg>
