<svg width="174" height="173" viewBox="0 0 174 173" fill="none" xmlns="http://www.w3.org/2000/svg">
<circle cx="87" cy="86.5" r="86.5" fill="#EEF5F9"/>
<g clip-path="url(#clip0_298_9243)">
<path d="M109.181 25.8733L59.6658 20.7705L10.1504 26.5413V149.401L59.6658 146.359L109.181 149.727L158.635 144.585V23.0216L109.181 25.8733Z" fill="#565656"/>
<path d="M60.7266 143.558L13.6816 146.443V29.8983L60.7266 24.4194V143.558Z" fill="white"/>
<path d="M107.777 146.758L60.7266 143.558V24.4194L107.777 29.264V146.758Z" fill="#EEEEEE"/>
<path d="M154.766 141.874L107.777 146.758V29.2641L154.766 26.5527V141.874Z" fill="white"/>
<path d="M60.7262 24.4194H59.6602V143.592H60.7262V24.4194Z" fill="white"/>
<g opacity="0.69">
<path opacity="0.69" d="M120.141 32.334L131.899 41.227L123.882 48.653L114.436 39.9696L120.141 32.334Z" fill="url(#paint0_linear_298_9243)"/>
<path opacity="0.69" d="M51.5918 118.448L61.1255 123.295L70.6321 121.742L69.7728 115.321L61.1255 113.343L51.5918 118.448Z" fill="#F6E5E0"/>
<path opacity="0.69" d="M41.8672 50.0713L15.9961 59.0717L16.5508 61.1727L20.2871 59.8724L44.2275 67.3521L44.6245 65.6595L23.0444 58.9159L41.5626 52.4732L58.8408 65.5789L56.4642 84.4987L37.5707 86.0408L20.9506 111.817L22.4843 113.128L38.5769 88.1579L58.1338 86.562L60.9075 64.515L41.8672 50.0713Z" fill="#FFDCD1"/>
<path opacity="0.69" d="M33.7918 126.035L14.0391 106.771L15.2736 105.1L35.0263 124.358L33.7918 126.035Z" fill="#FFEEE9"/>
<path opacity="0.69" d="M109.594 106.841L97.8033 73.4507L96.0358 74.2782L102.236 91.8438L72.1172 102.494L72.6774 104.595L102.959 93.8857L107.827 107.663L109.594 106.841Z" fill="url(#paint1_linear_298_9243)"/>
<path opacity="0.69" d="M134.774 100.345L129.037 107.524L117.703 81.9355L116.338 82.7308L127.927 108.889L127.96 108.867L123.544 114.396L124.947 115.885L136.183 101.828L134.774 100.345Z" fill="url(#paint2_linear_298_9243)"/>
<path opacity="0.69" d="M103.208 67.61L99.3743 52.5108L94.6863 38.7495L73.7099 40.1842L73.5957 37.9919L95.9589 36.4604L101.196 51.8499L105.041 66.9975L103.208 67.61Z" fill="url(#paint3_linear_298_9243)"/>
<path opacity="0.69" d="M42.8997 50.2537L41.377 50.1194L42.1764 38.1636L61.2765 42.7041L60.9665 44.429L43.5632 40.2914L42.8997 50.2537Z" fill="#FFEEE9"/>
<path opacity="0.69" d="M123.643 49.937L122.691 48.5614L130.636 41.2643L119.629 32.151L120.521 30.7217L133.165 41.1891L123.643 49.937Z" fill="url(#paint4_linear_298_9243)"/>
<path opacity="0.69" d="M61.4513 138.394L33.3613 125.541L34.0683 123.499L60.7661 135.718L68.3691 123.493L61.5383 125.369L49.8999 119.141L50.7048 117.153L61.7395 123.058L72.8885 119.99L61.4513 138.394Z" fill="#FFEEE9"/>
<path opacity="0.69" d="M122.466 114.821L103.35 138.614L83.9341 117.852L72.9973 101.973L71.8008 103.064L82.7703 118.996L82.8084 119.05L102.316 139.904L99.2871 143.681L100.685 145.17L123.869 116.309L122.466 114.821Z" fill="#FFDCD1"/>
</g>
<path d="M67.304 66.6698L60.6364 58.1852C45.6859 52.124 28.6579 45.8586 15.4531 45.1385L15.5347 43.1665C29.0222 43.9027 46.295 50.2701 61.4087 56.4066L61.6153 56.4925L68.5766 65.3479L67.304 66.6698Z" fill="#EF6238"/>
<path d="M151.205 134.278C136.64 123.993 120.172 112.677 108.73 108.303L71.5303 124.095L70.9375 122.241L108.697 106.212L108.98 106.32C120.613 110.683 137.342 122.171 152.108 132.596L151.205 134.278Z" fill="#EF6238"/>
<path d="M78.5674 59.5875L67.1465 27.0677L68.74 26.3262L80.1609 58.846L78.5674 59.5875Z" fill="#EF6238"/>
<path d="M130.322 68.5878C127.369 55.4069 121.674 46.3312 112.924 40.8342L113.745 39.0986C118.574 42.1292 122.577 46.2614 125.65 51.3876C128.435 56.041 130.512 61.5057 131.986 68.0935L130.322 68.5878Z" fill="#EF6238"/>
<path d="M41.1393 122.768L39.709 121.661L56.5847 91.7793L58.0205 92.8862L41.1393 122.768Z" fill="#EF6238"/>
<path d="M135.058 69.711L85.4805 67.4381L85.5512 65.4607L134.754 67.7175L152.804 59.2061L153.457 61.0384L135.058 69.711Z" fill="#EF6238"/>
<path d="M16.5848 134.165L15.9648 132.322L61.0067 112.338L69.8552 113.349L69.6866 115.315L61.246 114.353L16.5848 134.165Z" fill="#EF6238"/>
<path d="M74.6318 94.0528C55.2924 93.8164 37.1713 92.688 27.9258 81.5919L29.1658 80.2271C37.949 90.7697 55.6895 91.8497 74.6482 92.0808L74.6318 94.0528Z" fill="#EF6238"/>
<path d="M72.9334 140.806L68.8926 113.112L68.9524 112.886L80.5963 70.1892L85.8118 60.0281L106.467 47.1911L120.243 29.749L121.516 31.0816L107.544 48.7655L87.0518 61.5058L82.1735 71.0006L70.6547 113.252L74.6248 140.479L72.9334 140.806Z" fill="#EF6238"/>
<path d="M153.195 138.684L129.064 88.4587L84.4522 69.6625L76.512 67.4863L47.6933 64.9769L15.8725 91.8009L14.8555 90.205L47.1875 62.9512L47.5029 62.978L76.7785 65.525L84.9472 67.7657L84.9961 67.7872L130.255 86.8574L130.413 87.1798L154.696 137.727L153.195 138.684Z" fill="#EF6238"/>
<path d="M81.2052 70.4117C84.5071 70.4117 87.1839 67.7501 87.1839 64.4668C87.1839 61.1836 84.5071 58.522 81.2052 58.522C77.9033 58.522 75.2266 61.1836 75.2266 64.4668C75.2266 67.7501 77.9033 70.4117 81.2052 70.4117Z" fill="#EF6238"/>
<path d="M81.2047 68.7276C83.569 68.7276 85.4857 66.82 85.4857 64.4668C85.4857 62.1137 83.569 60.2061 81.2047 60.2061C78.8405 60.2061 76.9238 62.1137 76.9238 64.4668C76.9238 66.82 78.8405 68.7276 81.2047 68.7276Z" fill="#2A2A2A"/>
<path d="M114.06 131.46C118.396 131.46 121.911 127.962 121.911 123.646C121.911 119.331 118.396 115.832 114.06 115.832C109.724 115.832 106.209 119.331 106.209 123.646C106.209 127.962 109.724 131.46 114.06 131.46Z" fill="#EF6238"/>
<path d="M153.63 37.3533C153.63 52.2183 131.137 90.1384 119.417 108.849C118.509 110.303 116.546 111.184 112.919 111.184C111.199 111.184 111.876 110.297 110.968 108.849C99.2473 90.1384 76.7598 52.2239 76.7598 37.3589C76.7598 17.9694 93.968 2.25684 115.198 2.25684C136.422 2.25684 153.63 17.9694 153.63 37.3533Z" fill="#A33717"/>
<path d="M151.359 37.3533C151.359 52.2183 128.866 90.1384 117.145 108.849C116.237 110.303 114.641 111.184 112.921 111.184C111.2 111.184 109.61 110.297 108.696 108.849C96.9758 90.1384 74.4883 52.2239 74.4883 37.3589C74.4939 17.9694 91.6966 2.25684 112.926 2.25684C134.15 2.25684 151.359 17.9694 151.359 37.3533Z" fill="#EF6238"/>
<path opacity="0.36" d="M130.448 55.4751C139.609 46.3575 139.609 31.5751 130.448 22.4575C121.288 13.34 106.435 13.34 97.2744 22.4575C88.1137 31.5751 88.1137 46.3575 97.2744 55.4751C106.435 64.5926 121.287 64.5926 130.448 55.4751Z" fill="white"/>
<path opacity="0.36" d="M111.589 53.6496C121.009 53.6496 128.645 46.0493 128.645 36.6739C128.645 27.2985 121.009 19.6982 111.589 19.6982C102.169 19.6982 94.5332 27.2985 94.5332 36.6739C94.5332 46.0493 102.169 53.6496 111.589 53.6496Z" fill="white"/>
<path d="M112.927 68.5764C97.208 68.5764 84.416 55.8447 84.416 40.1995C84.416 39.9188 84.6473 39.6886 84.9293 39.6886C85.2113 39.6886 85.4425 39.9188 85.4425 40.1995C85.4425 55.289 97.772 67.5604 112.933 67.5604C128.094 67.5604 140.418 55.289 140.418 40.1995C140.418 25.11 128.088 12.8386 112.927 12.8386C104.162 12.8386 96.1251 16.8523 90.8797 23.8582C90.7105 24.0827 90.389 24.1276 90.1634 23.9592C89.9378 23.7908 89.8927 23.4708 90.0619 23.2463C95.5047 15.9822 103.841 11.8169 112.933 11.8169C128.652 11.8169 141.444 24.5486 141.444 40.1939C141.439 55.8503 128.647 68.5764 112.927 68.5764Z" fill="white"/>
<path d="M89.6659 107.866L37.7929 140.459C35.6158 141.823 35.0743 144.748 36.6084 146.803L36.8623 147.139C38.2215 148.958 40.8104 149.323 42.6265 147.953L91.8205 110.937L89.6659 107.866Z" fill="#212121"/>
<path opacity="0.19" d="M118.81 117.173C134.167 113.851 143.959 98.9905 140.682 83.9817C137.404 68.9728 122.298 59.4989 106.941 62.8211C91.584 66.1433 81.7919 81.0035 85.0696 96.0123C88.3473 111.021 103.454 120.495 118.81 117.173Z" fill="white"/>
<path d="M106.272 59.7517C89.1822 63.4511 78.2853 79.9832 81.9345 96.6838C85.5837 113.384 102.392 123.927 119.481 120.227C136.571 116.528 147.468 99.9958 143.819 83.2953C140.17 66.6003 123.362 56.0579 106.272 59.7517ZM118.511 115.793C103.931 118.947 89.5939 109.954 86.4805 95.707C83.3671 81.4596 92.6622 67.3525 107.242 64.1977C121.822 61.0428 136.16 70.0358 139.273 84.2833C142.381 98.5307 133.086 112.638 118.511 115.793Z" fill="black"/>
<path d="M37.8675 151.636C37.8675 151.636 37.4614 153.792 37.2527 155.931C37.1737 156.767 37.8111 157.497 38.6571 157.542C41.5167 157.688 47.642 157.974 49.8417 157.901C50.1745 157.89 50.3888 157.553 50.2703 157.25C50.1688 156.992 49.977 156.784 49.7232 156.666L39.6498 151.939L37.8675 151.636Z" fill="black"/>
<path d="M37.5684 150.362L37.8504 152.95C37.8504 152.95 39.6157 153.786 40.834 152.877L40.129 149.986L37.5684 150.362Z" fill="#FFB27D"/>
<path d="M38.262 101.748C38.121 102.421 37.2242 135.441 40.6309 150.272C40.6873 150.513 40.5632 150.76 40.332 150.856C39.7849 151.069 38.7189 151.383 37.4385 151.411C37.0437 151.423 36.6884 151.159 36.5812 150.783C35.5998 147.341 30.9072 130.091 30.4334 113.648C29.9032 95.2806 30.439 113.025 30.439 113.025L30.9636 101.68L38.262 101.748Z" fill="black"/>
<path d="M26.2203 152.652C26.2203 152.652 25.5999 153.736 24.9794 156.632C24.8666 157.154 25.2332 157.66 25.7634 157.716C26.7053 157.817 28.1605 157.952 29.328 157.952C29.8639 157.952 30.2869 157.491 30.2305 156.958C30.112 155.897 29.7285 154.157 28.4933 152.793L26.2203 152.652Z" fill="black"/>
<path d="M25.7188 149.323L26.4012 153.242C26.4012 153.242 27.1063 153.775 28.522 153.405L28.2174 149.194L25.7188 149.323Z" fill="#FFB27D"/>
<path d="M24.2174 102.629C21.1491 120.026 24.4317 145.703 25.5767 150.732C25.6444 151.041 25.8925 151.277 26.2084 151.333C26.7386 151.428 27.6128 151.507 28.4758 151.266C28.7747 151.181 28.9834 150.918 29.0003 150.609C29.1977 146.556 29.1526 121.642 31.9501 111.824C32.0911 111.324 32.4013 110.892 32.83 110.6L38.1092 106.94L38.5717 100.945L24.2174 102.629Z" fill="black"/>
<path d="M43.0182 69.7892C34.3266 69.5646 24.71 71.8887 24.71 71.8887C21.9745 86.9108 23.9486 104.291 23.9486 104.291C30.6605 106.109 38.2804 103.353 38.2804 103.353C39.4592 97.0715 44.8456 79.4222 44.8456 79.4222C49.0983 78.9394 52.6065 77.7493 55.5056 76.1663C53.3341 73.6121 52.3245 70.373 51.8958 68.4644C48.8163 69.3794 45.6973 69.8565 43.0182 69.7892Z" fill="#EF6238"/>
<path d="M68.8171 57.2874C67.9711 56.2545 66.8882 56.7261 66.8882 56.7261C65.5571 62.0927 58.8058 66.3871 51.8965 68.453C52.3308 70.3672 53.3347 73.6007 55.5062 76.1549C67.0066 69.8732 68.8171 57.2874 68.8171 57.2874Z" fill="#FFB27D"/>
<path d="M68.6074 57.5457C68.692 57.832 67.6542 58.2474 67.0564 57.0854C67.0395 56.5297 66.7236 54.1551 67.062 53.706C68.8556 51.3202 72.3243 48.3394 72.3243 48.3394C72.8996 48.9176 72.4146 49.4733 72.4146 49.4733L70.7338 51.1855C71.0778 51.8142 71.4952 52.3475 71.687 53.111C71.8336 53.6892 71.7321 54.301 71.4388 54.8175C71.1399 55.3396 70.7338 56.0188 70.3559 56.5465C69.6283 57.5513 68.6074 57.5457 68.6074 57.5457Z" fill="#FFB27D"/>
<path d="M69.9899 52.2969L68.4614 53.5655L67.9707 54.8342L69.3131 56.3443C69.3131 56.3443 69.7925 53.8182 70.1366 53.2736C70.4806 52.7291 70.3058 52.4597 69.9899 52.2969Z" fill="#F3A570"/>
<path d="M27.9624 80.2979L24.7079 71.8887C24.7079 71.8887 16.5353 77.3002 15.1309 84.2499C16.665 84.379 19.4513 84.8 22.1699 86.1978C22.8072 82.9195 27.9624 80.2979 27.9624 80.2979Z" fill="#EF6238"/>
<path d="M34.9854 88.2467C34.9854 88.2467 25.8201 93.2877 22.7856 88.881C22.1539 87.966 22.0129 87.0622 22.1765 86.2033C19.4579 84.8055 16.6716 84.3789 15.1375 84.2554C14.7145 86.3493 14.9062 88.5835 16.1245 90.8514C21.4207 100.715 36.1698 90.4977 36.1698 90.4977L34.9854 88.2467Z" fill="#FFB27D"/>
<path d="M34.2808 62.6826L31.4381 70.6204C31.393 70.7495 31.4437 70.901 31.5678 70.9684C32.318 71.3894 35.0253 72.6132 38.3135 70.5811C38.6576 70.3677 38.8945 70.0197 38.9452 69.6211L39.9097 62.7388L34.2808 62.6826Z" fill="#F5AB78"/>
<path d="M40.3662 55.3677C40.3662 55.3677 43.3499 61.088 42.9381 63.3839C42.5264 65.6799 38.7644 65.4778 35.4931 63.5804L33.2539 57.4166L40.3662 55.3677Z" fill="#FFB27D"/>
<path d="M35.6733 60.5603C35.8087 60.5041 35.8594 60.3413 35.7804 60.2178C35.5379 59.8473 35.0923 59.0839 34.9513 58.4215C34.9513 58.4215 34.4099 58.0678 36.3501 57.6243C38.2903 57.1809 41.1838 56.4904 41.8042 54.8568C42.4133 53.2625 40.8961 49.2263 38.3862 52.4093C38.2903 52.5328 38.1042 52.5328 38.014 52.4093C37.6135 51.8816 36.5532 50.7757 35.0641 51.4269C33.671 52.0331 33.5018 53.0436 33.5187 53.5544C33.5244 53.706 33.389 53.8183 33.2367 53.7902C32.5373 53.6499 30.8509 53.5208 30.05 55.2329C29.3901 56.6419 29.8018 57.4503 30.1797 57.8433C30.3038 57.9724 30.2474 58.1801 30.0782 58.2306C29.6157 58.3653 29.0178 58.7527 29.063 59.8249C29.1306 61.3125 30.8058 61.2002 31.2796 61.1329C31.3585 61.1216 31.4375 61.1497 31.4882 61.2058C31.8943 61.6605 33.7105 63.586 35.6958 63.833C35.8707 63.8555 36.0004 63.6871 35.9497 63.5243L35.1149 61.0262C35.0754 60.9083 35.1318 60.7848 35.2446 60.7343L35.6733 60.5603Z" fill="black"/>
<path d="M36.0133 60.9138C36.0133 60.9138 33.8644 59.415 33.6952 60.6612C33.526 61.9018 35.6241 62.48 36.6732 62.0253L36.0133 60.9138Z" fill="#EAA97C"/>
<path d="M33.1129 96.2125L38.1045 78.8607C38.1609 78.6642 38.3301 78.5182 38.5332 78.4958C39.4356 78.3891 42.0583 78.0972 45.0871 77.839C48.7307 77.5302 52.9665 77.2832 55.4933 77.4965C55.8543 77.5246 56.0686 77.9063 55.9107 78.2263C54.4724 81.123 48.5558 92.906 45.5891 96.7682C45.4932 96.8973 45.3409 96.9703 45.1773 96.9703L33.5924 96.8637C33.2596 96.8581 33.0171 96.5381 33.1129 96.2125Z" fill="black"/>
<path d="M34.3184 92.0189C34.3184 92.0189 33.6246 89.1728 33.901 88.1623C34.183 87.1519 34.7245 85.8551 36.535 86.1414C38.3455 86.4277 40.4831 87.1912 40.4831 87.1912C40.4831 87.1912 40.3759 88.5048 38.9997 88.0837L39.8514 88.7405C39.8514 88.7405 39.7273 89.7959 38.5654 89.2289L39.3607 90.099C39.3607 90.099 38.8587 90.9635 38.0071 90.4078C37.1554 89.8576 36.7436 92.3669 34.3184 92.0189Z" fill="#FFB480"/>
</g>
<defs>
<linearGradient id="paint0_linear_298_9243" x1="123.831" y1="39.4189" x2="160.075" y2="-26.6651" gradientUnits="userSpaceOnUse">
<stop stop-color="#4F52FF"/>
<stop offset="1" stop-color="#4042E2"/>
</linearGradient>
<linearGradient id="paint1_linear_298_9243" x1="72.1182" y1="90.5586" x2="109.593" y2="90.5586" gradientUnits="userSpaceOnUse">
<stop stop-color="#DAE3FE"/>
<stop offset="1" stop-color="#E9EFFD"/>
</linearGradient>
<linearGradient id="paint2_linear_298_9243" x1="116.34" y1="98.9099" x2="136.181" y2="98.9099" gradientUnits="userSpaceOnUse">
<stop stop-color="#DAE3FE"/>
<stop offset="1" stop-color="#E9EFFD"/>
</linearGradient>
<linearGradient id="paint3_linear_298_9243" x1="73.5949" y1="52.0366" x2="105.043" y2="52.0366" gradientUnits="userSpaceOnUse">
<stop stop-color="#DAE3FE"/>
<stop offset="1" stop-color="#E9EFFD"/>
</linearGradient>
<linearGradient id="paint4_linear_298_9243" x1="119.628" y1="40.3293" x2="133.163" y2="40.3293" gradientUnits="userSpaceOnUse">
<stop stop-color="#DAE3FE"/>
<stop offset="1" stop-color="#E9EFFD"/>
</linearGradient>
<clipPath id="clip0_298_9243">
<rect width="154.948" height="155.7" fill="white" transform="translate(6.51758 2.25684)"/>
</clipPath>
</defs>
</svg>
