<svg width="232" height="113" viewBox="0 0 232 113" fill="none" xmlns="http://www.w3.org/2000/svg">
<g clip-path="url(#clip0_298_8908)">
<path d="M142.895 17.8701C151.586 17.8701 158.632 24.9104 158.632 33.5942C158.632 36.8267 157.654 38.6712 155.808 42.3329C153.121 47.6656 157.554 49.921 157.554 49.921C157.554 49.921 145.929 50.0032 142.886 50.0032C134.195 50.0032 127.148 42.2872 127.148 33.6034C127.158 24.9104 134.204 17.8701 142.895 17.8701Z" fill="#EF6238"/>
<path d="M199.117 56.4589C198.788 56.4772 198.505 56.879 198.505 56.879L195.809 60.4767L194.767 59.3536C193.908 58.4222 190.792 60.7781 191.45 59.6914L195.992 53.3726C195.992 53.3726 196.44 52.6329 197.555 52.3225C198.871 51.9572 205.643 50.8615 205.643 50.8615C205.643 50.8615 206.694 50.8888 205.926 51.8111C205.158 52.7334 201.859 53.3452 201.859 53.3452C201.859 53.3452 201.585 53.4456 201.713 53.473C202.014 53.5369 204.866 52.916 205.579 52.3864C206.291 51.8568 208.421 48.4599 209.929 48.5238C210.541 48.5512 206.136 54.6509 206.136 54.6509C206.136 54.6509 205.752 55.3815 204.683 55.5184C203.614 55.6463 199.446 56.4407 199.117 56.4589Z" fill="#F7B58E"/>
<path d="M163.239 85.8616C163.239 85.8616 183.362 89.5233 197.254 58.9517C191.524 58.9517 191.313 58.9517 191.313 58.9517C191.313 58.9517 172.579 79.1592 158.093 67.6629C143.608 56.1666 163.239 85.8616 163.239 85.8616Z" fill="#EF6238"/>
<path d="M164.611 112.151L163.167 79.9448C163.295 73.1328 158.405 66.1017 154.476 61.5361C154.393 61.4813 154.275 61.5361 154.174 61.5361C151.149 61.5361 146.022 61.2256 139.333 67.5262C133.273 73.2333 136.637 105.978 137.66 112.151H164.611Z" fill="#D64C36"/>
<path d="M158.633 106.626C158.633 106.626 161.265 105.074 164.692 105.074C166.319 105.074 168.019 106.233 169.353 107.448C170.423 108.425 169.737 109.895 168.293 109.895H156.449L158.633 106.626Z" fill="#F7B58E"/>
<path d="M147.118 64.7044C139.633 59.7369 131.865 79.2597 131.865 89.5233C131.865 99.7869 157.107 110.206 157.107 110.206L158.633 106.626C158.633 106.626 144.934 92.9384 142.448 87.9618C144.879 79.8623 152.181 68.0647 147.118 64.7044Z" fill="#EF6238"/>
<path d="M71.1109 52.6055L70.9921 63.5539H64.9239L63.9277 58.8878L69.9594 52.6055H71.1109Z" fill="#F3835F"/>
<path d="M60.581 60.0295C56.0846 54.0211 57.0625 45.319 57.0625 45.319L61.3578 42.6709L68.0657 45.2733L69.4731 52.3227C69.4914 52.3866 68.8791 52.4414 68.8974 52.5053C69.5005 55.1351 68.4313 56.724 66.503 58.605C65.3058 59.7738 62.2717 61.4814 60.581 60.0295Z" fill="#FD906C"/>
<path d="M67.5557 47.848C66.9068 46.7705 66.258 44.0311 65.1247 44.579C64.3022 44.9807 61.3595 45.9943 60.3634 46.2865C57.9781 46.9988 53.4452 47.3366 52.3577 43.7115C51.8185 41.8944 53.1071 39.8124 54.085 39.0089C55.0445 38.2236 56.2874 37.8766 57.5212 37.9314C60.4182 38.0683 64.1926 38.598 65.8193 38.3514C68.2777 37.977 70.7543 37.8583 71.3209 39.8489C71.9241 41.9765 71.7687 45.5012 71.33 47.8388C71.0742 49.1903 70.5807 50.4869 69.877 51.6649L67.5557 47.848Z" fill="#282222"/>
<path d="M57.5121 69.3979C57.5121 69.3979 51.3982 85.4325 47.3223 89.1125C43.2463 92.8015 38.2656 95.2122 38.2656 95.2122L41.5648 102.325C41.5648 102.325 55.5016 98.5268 57.5213 91.8792C58.6728 88.1263 57.5121 69.3979 57.5121 69.3979Z" fill="#D64C36"/>
<path d="M60.0612 57.4361L60.0703 56.5869L58.4801 56.5778C58.1603 56.5778 57.8678 56.4317 57.6668 56.1943C57.4657 55.9477 57.3835 55.6281 57.4474 55.3176L57.7582 54.1123L57.3103 51.9756L56.6158 55.1533C56.5061 55.7103 56.6523 56.2856 57.0088 56.7239C57.3743 57.1622 57.9044 57.4179 58.471 57.4179L60.0612 57.4361Z" fill="#EF6238"/>
<path d="M59.8499 57.7282L60.9648 57.71C61.3761 57.7008 61.7142 57.363 61.7051 56.9429C61.696 56.532 61.3578 56.1942 60.9374 56.2033L59.8225 56.2216C59.4112 56.2307 59.0731 56.5686 59.0822 56.9886C59.0914 57.3995 59.4386 57.7282 59.8499 57.7282Z" fill="#282222"/>
<path d="M55.8035 112.151L55.1181 81.2685C54.9902 74.4566 55.8401 65.8731 67.2271 61.5358C67.3185 61.4992 67.4282 61.5358 67.5287 61.5358C70.5537 61.5358 75.6806 61.2253 82.3703 67.5259C88.4294 73.233 82.3246 105.978 81.301 112.151H55.8035Z" fill="#EF6238"/>
<path d="M63.0596 106.627C63.0596 106.627 60.4276 105.074 57.0005 105.074C55.3738 105.074 53.6739 106.234 52.3397 107.448C51.2704 108.425 51.9558 109.896 53.3998 109.896H65.2438L63.0596 106.627Z" fill="#F7B58E"/>
<path d="M74.5756 64.7049C82.0603 59.7374 89.8284 79.2602 89.8284 89.5238C89.8284 99.7874 64.5867 110.206 64.5867 110.206L63.0605 106.627C63.0605 106.627 76.7598 92.9389 79.2455 87.9623C76.8146 79.8628 69.5126 68.0652 74.5756 64.7049Z" fill="#D64C36"/>
<path d="M61.9727 38.3333C62.4113 37.6302 65.3175 37.8129 65.3175 37.8129C68.6258 37.8129 71.3218 40.8718 71.3218 44.1774V49.8205H70.3622V44.1774C70.3622 41.3923 68.0957 38.5799 65.3084 38.5799L61.9727 38.3333Z" fill="#EF6238"/>
<path d="M70.4269 54.6696C72.2894 54.6696 73.7992 53.161 73.7992 51.3001C73.7992 49.4392 72.2894 47.9307 70.4269 47.9307C68.5645 47.9307 67.0547 49.4392 67.0547 51.3001C67.0547 53.161 68.5645 54.6696 70.4269 54.6696Z" fill="#EF6238"/>
<path d="M61.3132 109.959H16.4961V112.041H61.3132V109.959Z" fill="#282222"/>
<path d="M5.02734 88.437H39.9471L51.4164 112.041H16.4967L5.02734 88.437Z" fill="#282222"/>
<path d="M28.0113 98.5724C28.0113 99.3486 27.3808 99.9695 26.6131 99.9695C25.8363 99.9695 25.2148 99.3394 25.2148 98.5724C25.2148 97.7962 25.8454 97.1753 26.6131 97.1753C27.3808 97.1753 28.0113 97.8054 28.0113 98.5724Z" fill="#EDECEC"/>
<path d="M105.234 57.9019V65.7639L108.972 71.4527L112.262 66.0013V58.0297L105.234 57.9019Z" fill="#F3835F"/>
<path d="M122.014 41.8668C122.233 39.6479 122.699 38.2873 122.05 36.1141C121.767 35.1827 121.328 34.3061 120.762 33.5025C115.315 25.7318 110.261 28.8273 108.973 29.8226V54.6872C109.256 54.5411 110.206 54.7602 113.414 55.8925C119.994 58.2119 124.564 55.162 124.564 55.162C124.564 55.162 120.826 54.0206 122.014 41.8668Z" fill="#282222"/>
<path d="M108.973 29.9507V36.3883L109.018 29.9872C109.018 29.9963 109 29.9781 108.973 29.9507Z" fill="#282222"/>
<path d="M95.9306 41.8668C95.7113 39.6479 95.2452 38.2873 95.8941 36.1141C96.1774 35.1827 96.616 34.3061 97.1826 33.5025C102.629 25.7318 108.049 28.8273 109.337 29.8226L108.972 54.6872C108.689 54.5411 107.738 54.7602 104.53 55.8925C97.9503 58.2119 93.3809 55.162 93.3809 55.162C93.3809 55.162 97.1095 54.0206 95.9306 41.8668Z" fill="#282222"/>
<path d="M108.962 29.9502V36.3878L108.916 29.9867C108.916 29.9959 108.934 29.9776 108.962 29.9502Z" fill="#282222"/>
<path d="M129.023 88.6374L125.751 86.5829L135.95 82.0355L130.632 72.4293C128.676 68.3294 120.634 64.9051 115.817 64.9051L108.972 69.8269L102.584 64.7134C97.768 64.7134 90.1736 68.3385 88.227 72.4293L82.9082 82.0355L93.1072 86.5829L89.8355 88.6374L88.026 104.243L109.429 103.905L130.833 104.243L129.023 88.6374Z" fill="#EF6238"/>
<path d="M135.95 82.0444L138.052 88.9934C139.587 94.0612 137.952 99.5035 133.802 103.092L124.252 110.543L121.182 102.197L126.464 97.2755C128.2 95.6592 128.712 93.2303 127.771 91.121L125.742 86.5827L135.95 82.0444Z" fill="#F7B58E"/>
<path d="M83.009 82.0444L80.907 88.9934C79.3717 94.0612 81.0076 99.5035 85.1566 103.092L94.7068 110.543L97.7774 102.197L92.4952 97.2755C90.7588 95.6592 90.247 93.2303 91.1883 91.121L93.2171 86.5827L83.009 82.0444Z" fill="#F7B58E"/>
<path d="M85.8234 113H133.254L135.521 85.0947C135.603 83.8894 134.643 82.8667 133.437 82.8667H85.5401C84.3886 82.8667 83.4473 83.7981 83.4473 84.9578L85.8234 113Z" fill="#282222"/>
<path d="M112.354 61.8647L108.972 69.9003L105.17 61.8647L101.789 64.6315L108.945 70.4299L115.817 64.8142L112.354 61.8647Z" fill="#D64C36"/>
<path d="M118.124 46.8928C119.322 46.3968 119.891 45.024 119.395 43.8265C118.899 42.6291 117.525 42.0605 116.326 42.5565C115.128 43.0525 114.559 44.4253 115.055 45.6227C115.552 46.8202 116.925 47.3888 118.124 46.8928Z" fill="#EF6238"/>
<path d="M101.227 46.8933C102.426 46.3973 102.995 45.0245 102.499 43.827C102.002 42.6296 100.628 42.061 99.4297 42.557C98.2313 43.053 97.6622 44.4258 98.1586 45.6232C98.655 46.8207 100.029 47.3893 101.227 46.8933Z" fill="#EF6238"/>
<path d="M108.845 58.9519C106.03 58.9519 103.91 57.3265 102.575 55.0528C101.634 53.4548 101.168 51.6194 101.168 49.7658V42.7894C101.168 38.5708 104.622 35.1191 108.845 35.1191C113.067 35.1191 116.521 38.5708 116.521 42.7894V49.4188C116.521 50.8524 116.238 52.286 115.662 53.6009C114.282 56.7786 112.281 58.9519 108.845 58.9519Z" fill="#FD906C"/>
<path d="M109.063 34.1965C106.577 29.8591 98.7363 35.1188 98.7363 35.1188L101.149 44.7249C101.149 44.7249 107.08 43.757 109.027 39.2461C110.727 43.757 116.53 44.7249 116.53 44.7249L119.399 35.1188C119.39 35.1188 111.549 29.8683 109.063 34.1965Z" fill="#282222"/>
<path d="M99.2569 43.3096C99.2203 43.0631 98.4709 37.1916 101.697 33.5117C103.342 31.6307 105.718 30.6719 108.752 30.6719C111.832 30.6719 114.245 31.6307 115.926 33.53C119.125 37.1368 118.476 42.78 118.449 43.0174L117.087 42.8622C117.096 42.78 117.772 37.5295 114.967 34.3701C113.541 32.7629 111.448 31.9503 108.761 31.9503C106.111 31.9503 104.064 32.7629 102.666 34.3518C99.8235 37.6025 100.701 43.0813 100.71 43.1361L99.2569 43.3096Z" fill="#EF6238"/>
<path d="M107.19 55.3543C107.089 55.3451 104.494 55.1625 102.374 54.2585C100.427 53.4276 99.166 51.51 99.166 49.3824V46.2412H100.445V49.3824C100.445 50.9986 101.396 52.4596 102.876 53.0806C104.796 53.9024 107.08 54.0759 107.099 54.0759L107.19 55.3543Z" fill="#EF6238"/>
<path d="M110.991 56.3037H107.856C107.409 56.3037 107.043 55.9385 107.043 55.491V54.0026C107.043 53.5552 107.409 53.1899 107.856 53.1899H110.991C111.439 53.1899 111.804 53.5552 111.804 54.0026V55.491C111.804 55.9385 111.439 56.3037 110.991 56.3037Z" fill="#EF6238"/>
<path d="M108.973 98.6823C109.755 98.6823 110.39 98.0486 110.39 97.2669C110.39 96.4852 109.755 95.8516 108.973 95.8516C108.191 95.8516 107.557 96.4852 107.557 97.2669C107.557 98.0486 108.191 98.6823 108.973 98.6823Z" fill="white"/>
<path d="M155.097 56.6599L153.607 65.7729L147.393 60.3489L149.394 50.4141L155.097 56.6599Z" fill="#F3835F"/>
<path d="M156.165 41.0635C151.724 41.6662 149.512 47.355 149.512 47.355L149.567 64.1931L141.954 57.9017C141.954 57.9017 141.306 49.9391 143.206 41.657C144.851 36.4431 151.505 35.0734 156.175 37.6119C158.441 38.8446 159.794 41.2735 160.598 43.6842C161.676 46.9167 161.768 50.4048 161.055 53.7378L158.414 66.0924L154.274 61.7094C154.274 61.7094 154.274 59.6823 155.105 56.6415C156.787 50.4596 159.154 40.6526 156.165 41.0635Z" fill="#282222"/>
<path d="M148.204 47.5923C148.698 47.1083 149.639 47.1996 150.288 47.7932C150.937 48.3867 151.065 49.2633 150.562 49.7381C150.069 50.2221 149.136 50.1308 148.478 49.5372C147.83 48.9437 147.711 48.0671 148.204 47.5923Z" fill="#F7B58E"/>
<path d="M156.951 56.797C157.81 56.7696 158.605 56.6327 159.026 56.2583C161.502 52.3044 158.678 41.6573 158.678 41.6573L154.712 39.8311L149.676 43.2736L149.393 50.4142C149.32 52.3227 150.152 54.1489 151.641 55.336C153.241 56.3131 155.078 56.8609 156.951 56.797Z" fill="#FD906C"/>
<path d="M157.007 40.4788C157.957 43.6656 149.056 47.5373 149.056 47.5373L147.393 43.3826L151.267 38.6343L156.166 39.4196C156.166 39.4196 156.842 39.9492 157.007 40.4788Z" fill="#282222"/>
<path d="M157.06 41.1458C157.234 42.3968 159.199 43.9217 159.199 43.9217L159.382 42.4242L158.934 41.365L157.929 40.8079C157.929 40.8079 156.878 39.8948 157.06 41.1458Z" fill="#282222"/>
<path d="M171.162 107.138C171.199 106.699 170.934 106.288 170.523 106.124L166.529 104.572C165.542 104.188 164.445 104.179 163.458 104.553L159.51 106.243L158.633 107.476L158.806 109.667C159.574 109.347 160.022 109.156 160.022 109.156L162.553 108.836C162.553 108.836 168 112.516 169.755 108.306C170.486 112.379 171.637 111.877 171.637 111.877L171.162 107.138Z" fill="#F7B58E"/>
<path d="M203.157 109.959H158.34V112.041H203.157V109.959Z" fill="#282222"/>
<path d="M216.18 88.437H181.26L169.791 112.041H204.711L216.18 88.437Z" fill="#282222"/>
<path d="M193.562 98.5724C193.562 99.3485 194.193 99.9695 194.961 99.9695C195.738 99.9695 196.359 99.3394 196.359 98.5724C196.359 97.7962 195.728 97.1753 194.961 97.1753C194.184 97.1753 193.562 97.8054 193.562 98.5724Z" fill="#EDECEC"/>
<path d="M140.581 37.4225L146.467 30.7018C147.637 31.0762 148.998 30.7292 149.885 29.7156C150.534 28.976 150.79 28.0446 150.689 27.1589L149.702 28.282C149.126 28.9395 148.404 29.323 147.737 29.1952L146.037 27.7068L146.019 27.725C145.772 27.0676 146.065 26.2914 146.65 25.6157L147.646 24.4834C146.75 24.4925 145.855 24.876 145.206 25.6157C144.292 26.6566 144.146 28.0903 144.721 29.2043L144.676 29.2499L144.612 29.1952L138.79 35.8427C137.62 35.4684 136.259 35.8154 135.372 36.8289C134.723 37.5686 134.468 38.5 134.568 39.3857L135.555 38.2625C136.131 37.6051 136.853 37.2216 137.52 37.3494L139.22 38.8378L139.238 38.8196C139.485 39.477 139.192 40.2532 138.607 40.9289L137.611 42.0612C138.507 42.052 139.403 41.6685 140.051 40.9289C140.947 39.9153 141.111 38.5274 140.581 37.4225Z" fill="white"/>
<path d="M34.2602 33.1738C41.6444 33.1738 47.6395 39.1548 47.6395 46.5421C47.6395 49.2906 46.8079 50.852 45.2452 53.9658C42.9604 58.495 46.7257 60.4125 46.7257 60.4125C46.7257 60.4125 36.8465 60.4764 34.2602 60.4764C26.876 60.4764 20.8809 53.9202 20.8809 46.5329C20.8809 39.1548 26.8668 33.1738 34.2602 33.1738Z" fill="#EF6238"/>
<path d="M81.6015 0.182484C90.9323 1.54305 97.4027 10.1995 96.041 19.5317C95.5383 23.0016 94.2041 24.8279 91.6452 28.4713C87.9256 33.7766 92.3306 36.8904 92.3306 36.8904C92.3306 36.8904 79.8377 35.1554 76.5751 34.6806C67.2352 33.32 60.8745 23.933 62.2362 14.61C63.5979 5.27776 72.2707 -1.17808 81.6015 0.182484Z" fill="#282222"/>
<path d="M208.512 45.7656C212.841 41.4401 212.841 34.4271 208.512 30.1015C204.183 25.776 197.164 25.776 192.835 30.1016C188.506 34.4271 188.506 41.4401 192.835 45.7656C197.164 50.0911 204.183 50.0911 208.512 45.7656Z" fill="#282222"/>
<path d="M89.8451 19.1211C89.772 18.902 89.0044 18.4545 88.0722 18.1258C88.1179 17.2766 88.0448 16.4365 87.8529 15.6238C88.6388 15.2677 89.4339 14.802 89.4979 14.382C89.635 13.5236 88.319 11.5604 87.99 11.4052C87.7798 11.3047 86.8933 11.533 85.9885 11.9804C85.4493 11.3595 84.8188 10.8025 84.1059 10.3551C84.4075 9.54237 84.6451 8.65664 84.3892 8.30965C83.8775 7.60654 81.5653 7.14084 81.218 7.26868C80.9987 7.34173 80.5509 8.09963 80.231 9.03102C79.372 8.94884 78.5129 9.00363 77.6904 9.17712C77.334 8.41922 76.8953 7.67959 76.4841 7.61567C75.625 7.4787 73.6602 8.79361 73.5048 9.12233C73.4134 9.32322 73.6053 10.0994 73.9892 10.9395C73.3037 11.4965 72.7006 12.1631 72.2071 12.921C71.4668 12.6653 70.7174 12.4918 70.4067 12.7201C69.703 13.2314 69.2369 15.5416 69.3649 15.8886C69.438 16.0804 70.0503 16.4639 70.8545 16.7744C70.7631 17.7149 70.818 18.6463 71.0282 19.5412C70.3702 19.8699 69.7761 20.2625 69.7213 20.6278C69.5842 21.4861 70.9002 23.4494 71.2292 23.6046C71.412 23.6959 72.0883 23.5315 72.8559 23.2028C73.45 23.9059 74.1719 24.5269 74.9853 25.0199C74.7477 25.7231 74.6106 26.4079 74.8299 26.7001C75.3417 27.4032 77.6539 27.8689 78.0011 27.7411C78.1931 27.668 78.5769 27.0471 78.8876 26.2435C79.8106 26.3075 80.7337 26.2161 81.6019 25.9879C81.94 26.6818 82.3513 27.3302 82.726 27.385C83.585 27.5219 85.5499 26.207 85.7052 25.8783C85.7966 25.6774 85.6047 24.8921 85.2117 24.052C85.8515 23.4768 86.4181 22.801 86.8659 22.0431C87.6427 22.3262 88.4652 22.5271 88.8033 22.2897C89.4979 21.7783 89.964 19.4681 89.8451 19.1211ZM78.2296 21.3035C76.2008 20.6369 75.095 18.4545 75.7621 16.4274C76.4293 14.4002 78.6135 13.2953 80.6423 13.9619C82.6711 14.6285 83.7769 16.8109 83.1098 18.838C82.4426 20.8652 80.2584 21.9701 78.2296 21.3035Z" fill="white"/>
<path d="M41.1707 41.6936C39.7907 42.625 35.9341 43.2094 34.0332 40.6709V55.0892C42.5689 49.09 41.1707 41.6936 41.1707 41.6936Z" fill="#E5E5E5"/>
<path d="M27.0227 41.6936C28.4026 42.625 32.2592 43.2094 34.1601 40.6709V55.0892C25.6244 49.09 27.0227 41.6936 27.0227 41.6936Z" fill="white"/>
<path d="M199.164 38.3791C199.849 37.3381 200.187 36.4615 200.187 35.7584C200.187 34.9913 199.922 34.3978 199.383 33.9686C198.853 33.5395 198.113 33.3203 197.162 33.3203C196.596 33.3203 196.075 33.4664 195.609 33.7586C195.143 34.0508 194.796 34.4161 194.576 34.8544L195.682 35.7218C196.075 35.0461 196.587 34.7083 197.226 34.7083C198.058 34.7083 198.478 35.0553 198.478 35.7492C198.478 36.3336 198.186 37.0642 197.601 37.9225L194.677 42.2233V42.6982H200.727V41.2463H197.263L199.164 38.3791Z" fill="white"/>
<path d="M206.767 39.0001V33.4482H206.045L200.982 39.3562V40.2967H205.186V42.7074H206.758V40.2967H207.69V39.0001H206.767ZM205.186 39.0001H202.819L205.186 36.2333V39.0001Z" fill="white"/>
<path d="M43.4014 18.1166C42.0671 19.5137 41.0801 20.2168 40.413 20.2168C40.0474 20.2168 39.7458 20.0342 39.4899 19.6598C39.2432 19.2855 39.1152 18.8198 39.1152 18.2627C39.1152 17.0574 39.5265 15.3773 40.3398 13.2314L42.5058 12.784H42.6063L41.7564 15.4503C41.4 16.5552 41.2263 17.3405 41.2263 17.8062C41.2263 17.9979 41.272 18.144 41.3543 18.2627C41.4365 18.3815 41.537 18.4362 41.665 18.4362C41.8843 18.4362 42.1128 18.3541 42.3321 18.1897C42.5606 18.0253 42.9079 17.6783 43.3922 17.1396V18.1166H43.4014ZM43.2277 9.4419C43.2277 10.8025 42.7251 11.4873 41.7198 11.4873C41.2263 11.4873 40.8151 11.3412 40.4678 11.0399C40.7968 10.5377 41.0527 9.98065 41.2355 9.35059C41.6833 9.62453 42.0488 9.77063 42.323 9.77063C42.6246 9.77063 42.9262 9.66105 43.2277 9.4419Z" fill="white"/>
<path d="M174.371 24.4835V23.0298L174.673 24.4835H174.371Z" fill="#BFE3ED"/>
<path d="M157.792 55.2262L157.783 54.3769L159.373 54.3678C159.693 54.3678 159.986 54.2217 160.187 53.9843C160.388 53.7378 160.47 53.4182 160.406 53.1077L160.004 52.085L159.995 49.4917L161.238 52.9433C161.347 53.5003 161.201 54.0756 160.845 54.5139C160.479 54.9522 159.949 55.2079 159.383 55.2079L157.792 55.2262Z" fill="#EF6238"/>
<path d="M158.002 55.509L156.887 55.4907C156.476 55.4816 156.138 55.1437 156.147 54.7237C156.156 54.3128 156.494 53.9749 156.914 53.9841L158.029 54.0023C158.441 54.0115 158.779 54.3493 158.77 54.7694C158.76 55.1894 158.413 55.5181 158.002 55.509Z" fill="black"/>
<path d="M155.334 37.2191C154.895 36.516 152.537 36.6986 152.537 36.6986C149.229 36.6986 146.533 39.7576 146.533 43.0631V48.7063H147.493V43.0631C147.493 40.2781 149.759 37.4656 152.547 37.4656L155.334 37.2191Z" fill="#EF6238"/>
<path d="M149.207 53.0591C150.792 52.0809 151.282 50.0045 150.303 48.4214C149.324 46.8383 147.246 46.3481 145.662 47.3263C144.077 48.3046 143.587 50.381 144.566 51.964C145.545 53.5471 147.623 54.0374 149.207 53.0591Z" fill="#EF6238"/>
<path d="M170.888 0.255859C165.962 0.255859 161.969 4.24624 161.969 9.16802C161.969 11.0034 162.517 12.0444 163.568 14.1172C165.094 17.1397 162.581 18.418 162.581 18.418C162.581 18.418 169.17 18.4637 170.888 18.4637C175.814 18.4637 179.808 14.0898 179.808 9.16802C179.808 4.23711 175.814 0.255859 170.888 0.255859Z" fill="#EF6238"/>
<path d="M167.331 10.4098C167.921 10.2707 168.286 9.68054 168.146 9.09159C168.007 8.50264 167.416 8.13794 166.827 8.277C166.238 8.41607 165.873 9.00625 166.012 9.5952C166.151 10.1842 166.742 10.5489 167.331 10.4098Z" fill="white"/>
<path d="M171.077 10.4093C171.667 10.2702 172.032 9.68005 171.892 9.0911C171.753 8.50215 171.163 8.13745 170.573 8.27652C169.984 8.41558 169.619 9.00576 169.758 9.59471C169.897 10.1837 170.488 10.5484 171.077 10.4093Z" fill="white"/>
<path d="M174.741 10.4073C175.331 10.2683 175.696 9.6781 175.556 9.08915C175.417 8.5002 174.827 8.13549 174.237 8.27456C173.648 8.41363 173.283 9.00381 173.422 9.59276C173.561 10.1817 174.152 10.5464 174.741 10.4073Z" fill="white"/>
<path d="M37.4809 18.0576C42.4765 18.0576 46.5262 14.029 46.5262 9.05954C46.5262 4.09007 42.4765 0.0615234 37.4809 0.0615234C32.4853 0.0615234 28.4355 4.09007 28.4355 9.05954C28.4355 14.029 32.4853 18.0576 37.4809 18.0576Z" fill="#EF6238"/>
<path d="M37.3766 18.0796C42.3933 18.0796 46.4602 14.0323 46.4602 9.0398C46.4602 4.04726 42.3933 0 37.3766 0C32.3598 0 28.293 4.04726 28.293 9.0398C28.293 14.0323 32.3598 18.0796 37.3766 18.0796Z" fill="#EF6238"/>
<path d="M37.4736 5.25787C36.8971 5.23556 36.4854 5.0571 36.2475 4.70018C36.0096 4.35441 35.8906 3.91942 35.8906 3.40634C35.8906 2.89327 36.0187 2.48058 36.2841 2.14596C36.5494 1.81135 36.952 1.64404 37.4919 1.64404C38.0409 1.64404 38.4618 1.8002 38.7545 2.10135C39.0473 2.41365 39.1937 2.84865 39.1937 3.4175C39.1937 3.98634 39.0565 4.44365 38.7728 4.76711C38.4892 5.12403 38.0592 5.28018 37.4736 5.25787Z" fill="white"/>
<path d="M39.1937 6.24609H35.8906V14.7928H39.1937V6.24609Z" fill="white"/>
<path d="M39.703 14.7926H34.4187C34.3194 14.7926 34.2422 14.732 34.2422 14.6542C34.2422 14.5504 34.3525 14.4639 34.4849 14.4639H39.67C39.7692 14.4639 39.8575 14.5244 39.8575 14.6109V14.6801C39.8465 14.7407 39.7803 14.7926 39.703 14.7926Z" fill="white"/>
<path d="M39.1951 6.57482H34.1282C34.0036 6.57482 33.9102 6.49696 33.9102 6.39315C33.9102 6.3153 33.9932 6.24609 34.0867 6.24609H39.0083C39.1121 6.24609 39.1951 6.3153 39.1951 6.40181V6.57482Z" fill="white"/>
</g>
<defs>
<clipPath id="clip0_298_8908">
<rect width="232" height="113" fill="white"/>
</clipPath>
</defs>
</svg>
