<svg width="209" height="136" viewBox="0 0 209 136" fill="none" xmlns="http://www.w3.org/2000/svg">
<path d="M128.081 19.3378C91.5272 13.121 44.8432 27.8947 45.1112 65.2309C3.35824 75.0741 -0.268569 107.498 9.59349 128.488H185.127C206.12 64.4449 164.635 25.5724 128.081 19.3378Z" fill="#EEF5F9"/>
<path d="M22.8149 67.821C35.4153 67.821 45.6299 57.6074 45.6299 45.0084C45.6299 32.4093 35.4153 22.1958 22.8149 22.1958C10.2146 22.1958 0 32.4093 0 45.0084C0 57.6074 10.2146 67.821 22.8149 67.821Z" fill="#2D2D2D"/>
<path d="M51.0919 32.9056C52.282 27.7426 49.0609 22.5925 43.8974 21.4025C38.7338 20.2126 33.5832 23.4334 32.3931 28.5964C31.203 33.7594 34.4242 38.9095 39.5877 40.0994C44.7512 41.2894 49.9019 38.0686 51.0919 32.9056Z" fill="#EF6238"/>
<path d="M200.041 87.6787C204.702 83.0186 204.702 75.4629 200.041 70.8027C195.381 66.1425 187.824 66.1425 183.164 70.8027C178.503 75.4629 178.503 83.0186 183.164 87.6788C187.824 92.3389 195.381 92.3389 200.041 87.6787Z" fill="#2D2D2D"/>
<path d="M4.37969 53.0824H3.46852C3.41493 53.0824 3.36133 53.0288 3.36133 52.9752V52.8323C3.36133 52.7787 3.41493 52.7251 3.46852 52.7251H4.37969C4.43329 52.7251 4.48689 52.7787 4.48689 52.8323V52.9752C4.48689 53.0288 4.43329 53.0824 4.37969 53.0824Z" fill="#A9C5E8"/>
<path d="M5.89922 53.0824H4.98806C4.93446 53.0824 4.88086 53.0288 4.88086 52.9752V52.8323C4.88086 52.7787 4.93446 52.7251 4.98806 52.7251H5.89922C5.95282 52.7251 6.00642 52.7787 6.00642 52.8323V52.9752C6.00642 53.0288 5.95282 53.0824 5.89922 53.0824Z" fill="#A9C5E8"/>
<path d="M4.50391 52.6008V51.6897C4.50391 51.6361 4.55751 51.5825 4.6111 51.5825H4.75403C4.80763 51.5825 4.86123 51.6361 4.86123 51.6897V52.6008C4.86123 52.6544 4.80763 52.708 4.75403 52.708H4.6111C4.55751 52.708 4.50391 52.6544 4.50391 52.6008Z" fill="#A9C5E8"/>
<path d="M4.50391 54.1188V53.2078C4.50391 53.1542 4.55751 53.1006 4.6111 53.1006H4.75403C4.80763 53.1006 4.86123 53.1542 4.86123 53.2078V54.1188C4.86123 54.1724 4.80763 54.226 4.75403 54.226H4.6111C4.55751 54.226 4.50391 54.1724 4.50391 54.1188Z" fill="#A9C5E8"/>
<path d="M59.7176 119.803C68.5575 110.964 68.5575 96.6334 59.7176 87.7944C50.8776 78.9554 36.5453 78.9554 27.7053 87.7944C18.8654 96.6334 18.8654 110.964 27.7053 119.803C36.5453 128.642 50.8776 128.642 59.7176 119.803Z" fill="#EF6238"/>
<path d="M56.3641 119.81C65.204 110.971 65.204 96.6402 56.3641 87.8012C47.5241 78.9622 33.1918 78.9622 24.3518 87.8012C15.5119 96.6402 15.5119 110.971 24.3518 119.81C33.1918 128.649 47.5241 128.649 56.3641 119.81Z" fill="#EF6238"/>
<path d="M40.3591 119.538C49.0521 119.538 56.0991 112.492 56.0991 103.8C56.0991 95.1078 49.0521 88.0615 40.3591 88.0615C31.6662 88.0615 24.6191 95.1078 24.6191 103.8C24.6191 112.492 31.6662 119.538 40.3591 119.538Z" fill="white"/>
<path d="M48.3892 107.247C50.2917 102.813 48.2394 97.677 43.8052 95.7747C39.371 93.8723 34.234 95.9245 32.3315 100.358C30.429 104.792 32.4814 109.928 36.9156 111.831C41.3498 113.733 46.4867 111.681 48.3892 107.247Z" fill="#EF6238"/>
<path d="M40.2857 102.745C40.4465 102.745 40.5894 102.692 40.7145 102.567C40.9467 102.334 40.9467 101.941 40.7145 101.709L11.6822 72.8407C11.4499 72.6084 11.0568 72.6084 10.8246 72.8407C10.5923 73.0729 10.5923 73.4659 10.8246 73.6982L39.8569 102.567C39.9641 102.692 40.1249 102.745 40.2857 102.745Z" fill="#2C303C"/>
<path d="M11.6816 72.8413V68.6968L17.9169 74.9314V78.9508L11.6816 72.8413Z" fill="#2C313C"/>
<path d="M11.0395 73.9663L6.89453 74.002L13.2012 80.1831L17.2032 80.1473L11.0395 73.9663Z" fill="#2C313C"/>
<path d="M12.6117 75.5386L6.76953 75.61L9.50304 78.2361L15.2202 78.1468L12.6117 75.5386Z" fill="#2C303C"/>
<path d="M148.519 45.1689H128.045V126.255H148.519V45.1689Z" fill="#EF6238"/>
<path d="M144.323 88.686H132.264V118.912H144.323V88.686Z" fill="white"/>
<path d="M140.88 63.5728C144.335 62.1418 145.976 58.1812 144.545 54.7264C143.113 51.2717 139.152 49.6312 135.697 51.0622C132.242 52.4933 130.602 56.4539 132.033 59.9086C133.464 63.3633 137.425 65.0038 140.88 63.5728Z" fill="white"/>
<path d="M140.85 59.8846C142.266 58.4684 142.266 56.1723 140.85 54.7561C139.433 53.3399 137.137 53.3399 135.721 54.7561C134.304 56.1723 134.304 58.4684 135.721 59.8846C137.137 61.3008 139.433 61.3008 140.85 59.8846Z" fill="#EF6238"/>
<path d="M167.187 51.3056L149.01 54.293L160.836 126.234L179.013 123.247L167.187 51.3056Z" fill="#2C313C"/>
<path d="M169.801 90.5258L159.1 92.2847L163.507 119.097L174.209 117.339L169.801 90.5258Z" fill="white"/>
<path d="M162.605 68.9911C165.608 67.4744 166.813 63.8105 165.296 60.8075C163.779 57.8045 160.115 56.5995 157.112 58.1162C154.109 59.6328 152.903 63.2967 154.42 66.2998C155.937 69.3028 159.601 70.5077 162.605 68.9911Z" fill="white"/>
<path d="M159.867 66.82C161.673 66.82 163.137 65.3564 163.137 63.5509C163.137 61.7454 161.673 60.2817 159.867 60.2817C158.061 60.2817 156.598 61.7454 156.598 63.5509C156.598 65.3564 158.061 66.82 159.867 66.82Z" fill="#2C313C"/>
<path d="M117.987 126.273H52.026C51.0077 126.273 50.168 125.451 50.168 124.415V26.7153C50.168 25.697 50.9898 24.8574 52.026 24.8574H117.97C118.988 24.8574 119.828 25.6792 119.828 26.7153V124.415C119.828 125.433 119.006 126.273 117.987 126.273Z" fill="#2B303B"/>
<path d="M120.632 126.273H54.6881C53.6698 126.273 52.8301 125.451 52.8301 124.415V26.7153C52.8301 25.697 53.6519 24.8574 54.6881 24.8574H120.632C121.65 24.8574 122.49 25.6792 122.49 26.7153V124.415C122.49 125.433 121.65 126.273 120.632 126.273Z" fill="#3F434D"/>
<path d="M118.722 103.282V30.6279H56.8516V103.282C56.8516 111.07 63.1761 117.394 70.9657 117.394H107.948C100.141 117.394 118.722 111.07 118.722 103.282Z" fill="white"/>
<rect x="56.8535" y="71.293" width="61.9952" height="46.2683" fill="white"/>
<path d="M73.1595 108.158H63.6548C62.5828 108.158 61.7253 107.3 61.7253 106.228L60.957 95.9563C60.957 95.0452 61.7074 94.2949 62.6186 94.2949H72.3913C73.4633 94.2949 74.3208 95.1524 74.3208 96.2243L74.839 106.496C74.8211 107.407 74.0707 108.158 73.1595 108.158Z" fill="#EF6238"/>
<path d="M68.0521 104.603C67.8556 104.603 67.677 104.513 67.5698 104.335L64.3717 99.5114C64.1931 99.2435 64.2645 98.8862 64.5325 98.7075C64.8005 98.5289 65.1579 98.6004 65.3365 98.8683L68.0343 102.941L72.2685 96.2423C72.4472 95.9743 72.8045 95.885 73.0725 96.0636C73.3405 96.2423 73.4298 96.5996 73.2512 96.8675L68.5345 104.317C68.4452 104.496 68.2665 104.603 68.0521 104.603Z" fill="white"/>
<path d="M93.102 100.459H79.2022C78.7019 100.459 78.291 100.048 78.291 99.5477V98.5473C78.291 98.0471 78.7019 97.6362 79.2022 97.6362H93.102C93.6022 97.6362 94.0131 98.0471 94.0131 98.5473V99.5477C94.0131 100.048 93.6022 100.459 93.102 100.459Z" fill="#EF6238"/>
<path d="M108.824 105.854H79.2022C78.7019 105.854 78.291 105.443 78.291 104.943V103.942C78.291 103.442 78.7019 103.031 79.2022 103.031H108.842C109.342 103.031 109.753 103.442 109.753 103.942V104.943C109.735 105.443 109.342 105.854 108.824 105.854Z" fill="#EF6238"/>
<path d="M73.7514 56.2989H62.0134C61.4238 56.2989 60.9414 55.8166 60.9414 55.2271V43.4903C60.9414 42.9008 61.4238 42.4185 62.0134 42.4185H73.7514C74.341 42.4185 74.8233 42.9008 74.8233 43.4903V55.2271C74.8233 55.8166 74.341 56.2989 73.7514 56.2989Z" fill="#EF6238"/>
<path d="M67.392 53.6545C67.1955 53.6545 67.0168 53.5652 66.9096 53.3865L63.7116 48.5632C63.5329 48.2952 63.6044 47.9379 63.8724 47.7593C64.1404 47.5807 64.4977 47.6521 64.6764 47.9201L67.3741 51.9931L71.6084 45.294C71.787 45.0261 72.1444 44.9368 72.4123 45.1154C72.6803 45.294 72.7697 45.6513 72.591 45.9193L67.8922 53.3687C67.785 53.5473 67.6064 53.6366 67.392 53.6545C67.4099 53.6545 67.392 53.6545 67.392 53.6545Z" fill="white"/>
<path d="M93.102 48.5989H79.2022C78.7019 48.5989 78.291 48.188 78.291 47.6878V46.6874C78.291 46.1872 78.7019 45.7764 79.2022 45.7764H93.102C93.6022 45.7764 94.0131 46.1872 94.0131 46.6874V47.6878C94.0131 48.188 93.6022 48.5989 93.102 48.5989Z" fill="#EF6238"/>
<path d="M108.824 53.9939H79.2022C78.7019 53.9939 78.291 53.5831 78.291 53.0829V52.0825C78.291 51.5823 78.7019 51.1714 79.2022 51.1714H108.842C109.342 51.1714 109.753 51.5823 109.753 52.0825V53.0829C109.735 53.5831 109.342 53.9939 108.824 53.9939Z" fill="#EF6238"/>
<path d="M93.102 74.5203H79.2022C78.7019 74.5203 78.291 74.1094 78.291 73.6092V72.6088C78.291 72.1086 78.7019 71.6978 79.2022 71.6978H93.102C93.6022 71.6978 94.0131 72.1086 94.0131 72.6088V73.6092C94.0131 74.1273 93.6022 74.5203 93.102 74.5203Z" fill="#EF6238"/>
<path d="M108.824 79.9153H79.2022C78.7019 79.9153 78.291 79.5044 78.291 79.0042V78.0038C78.291 77.5036 78.7019 77.0928 79.2022 77.0928H108.842C109.342 77.0928 109.753 77.5036 109.753 78.0038V79.0042C109.735 79.5044 109.342 79.9153 108.824 79.9153Z" fill="#EF6238"/>
<path d="M73.7514 81.0587H62.0134C61.4238 81.0587 60.9414 80.5764 60.9414 79.9869V68.2501C60.9414 67.6606 61.4238 67.1782 62.0134 67.1782H73.7514C74.341 67.1782 74.8233 67.6606 74.8233 68.2501V79.9869C74.8233 80.5764 74.341 81.0587 73.7514 81.0587Z" fill="#EF6238"/>
<path d="M67.392 78.3967C67.1955 78.3967 67.0168 78.3074 66.9096 78.1287L63.7116 73.3054C63.5329 73.0374 63.6044 72.6801 63.8724 72.5015C64.1404 72.3229 64.4977 72.3943 64.6764 72.6623L67.3741 76.7353L71.6084 70.0362C71.787 69.7683 72.1444 69.6789 72.4123 69.8576C72.6803 70.0362 72.7697 70.3935 72.591 70.6615L67.8922 78.1287C67.785 78.2895 67.6064 78.3967 67.392 78.3967C67.4099 78.3967 67.392 78.3967 67.392 78.3967Z" fill="white"/>
<path d="M127.708 14.6951C127.708 6.58134 121.126 0 113.011 0C104.896 0 98.3145 6.58134 98.3145 14.6951C98.3145 21.7479 103.285 27.622 109.907 29.0561L112.815 36.3054L115.958 29.0954C122.678 27.7006 127.708 21.7872 127.708 14.6951Z" fill="#EF6238"/>
<path d="M112.463 22.6909C112.09 22.6909 111.756 22.5141 111.559 22.1998L105.586 13.202C105.252 12.6912 105.39 12.0233 105.901 11.6893C106.412 11.3553 107.08 11.4928 107.414 12.0036L112.463 19.6065L120.381 7.09217C120.696 6.58138 121.383 6.42421 121.894 6.75819C122.405 7.09217 122.562 7.76013 122.228 8.27092L113.367 22.1801C113.17 22.4945 112.836 22.6909 112.463 22.6909Z" fill="white"/>
<path d="M187.04 133.293H7.6649C6.43214 133.293 5.43164 132.293 5.43164 131.06V128.505C5.43164 127.273 6.43214 126.272 7.6649 126.272H187.04C188.273 126.272 189.273 127.273 189.273 128.505V131.042C189.273 132.293 188.273 133.293 187.04 133.293Z" fill="#D5DBDF"/>
</svg>
