<svg width="124" height="68" viewBox="0 0 124 68" fill="none" xmlns="http://www.w3.org/2000/svg">
<g clip-path="url(#clip0_298_6053)">
<path d="M53.2433 34.0709C53.2433 44.934 44.3811 53.6809 33.5338 53.6809C22.6155 53.6809 13.8242 44.8634 13.8242 34.0709C13.8242 23.2784 22.6864 14.4609 33.5338 14.4609C44.3811 14.4609 53.2433 23.2078 53.2433 34.0709Z" fill="#E9EAEB"/>
<path d="M115.351 34.0709C115.351 44.934 106.489 53.6809 95.6412 53.6809C84.7229 53.6809 75.9316 44.8634 75.9316 34.0709C75.9316 23.2784 84.7938 14.4609 95.6412 14.4609C106.489 14.4609 115.351 23.2078 115.351 34.0709Z" fill="#E9EAEB"/>
<path d="M95.2152 46.2029C95.2152 46.2029 93.0883 46.3439 92.9465 46.2029C92.8047 46.1323 92.0957 42.817 92.0957 42.3232C92.0957 41.8294 92.2375 40.1365 92.8756 40.0659C93.5137 40.0659 98.3347 38.7257 98.9728 39.7838C99.6818 40.8419 97.4839 47.5431 95.2152 46.2029Z" fill="#CCCCCC"/>
<path d="M95.1443 34.494L92.0957 33.0127L92.1666 39.855C92.1666 39.855 93.3719 41.2658 95.2152 41.2658C97.413 41.2658 98.2638 39.9256 98.2638 39.9256L98.1929 34.0002L95.1443 34.494Z" fill="#FFDBA8"/>
<path d="M98.1943 35.6222C98.1943 35.6222 96.7763 36.9624 92.168 39.5018V34.9873L98.1943 35.6222Z" fill="#F0BD6D"/>
<path d="M95.1447 39.5723V42.1117L94.3648 42.3938L93.2305 40.5598C93.3014 40.5598 94.3648 39.6428 95.1447 39.5723Z" fill="#CB532F"/>
<path d="M92.0963 37.8799L91.3164 38.3031L92.9471 42.9587L95.1449 39.5728C95.1449 39.5728 93.9396 39.4317 92.0963 37.8799Z" fill="#DFE1DE"/>
<path d="M90.3249 29.4148C90.3249 29.4148 91.1048 34.9169 91.2466 35.199C91.3884 35.4812 94.2243 36.9625 95.1459 36.892L95.075 23.4895C95.075 23.4895 89.1905 21.0912 90.3249 29.4148Z" fill="#FFDBA8"/>
<path d="M99.8953 29.3441C99.8953 29.3441 99.1863 34.9167 99.0445 35.1283C98.9027 35.4105 96.0668 36.9623 95.1451 36.8918L95.0742 23.4893C95.0742 23.4893 100.604 22.2901 99.8953 29.3441Z" fill="#FFDBA8"/>
<path d="M99.0449 32.6593C99.0449 32.6593 99.8957 32.9415 100.392 31.3191C100.959 29.4851 100.534 28.6386 100.037 28.7091C99.8248 28.7091 99.683 28.7797 99.6121 28.8502C99.2576 29.0618 99.1867 29.4145 99.1867 29.4145L99.0449 32.6593Z" fill="#FFDBA8"/>
<path d="M91.1754 32.7304C91.1754 32.7304 90.3246 33.0126 89.8283 31.4607C89.2611 29.6267 89.6156 28.7802 90.1828 28.8507C90.3955 28.8507 90.5373 28.9213 90.6082 28.9918C90.9627 29.2034 91.0336 29.5561 91.0336 29.5561L91.1754 32.7304Z" fill="#FFDBA8"/>
<path d="M89.7567 24.4067C89.3313 25.5354 90.253 28.8507 90.253 28.8507L90.8202 29.6972L90.6784 27.8632C90.6784 27.8632 91.8127 25.3237 91.5291 24.4067L90.7493 23.3486C90.7493 23.3486 89.8985 24.054 89.7567 24.4067Z" fill="#A83D0D"/>
<path d="M100.321 24.3364C100.747 25.465 99.8961 28.7804 99.8961 28.7804L99.3289 29.6269L99.4707 27.7928C99.4707 27.7928 98.2655 25.2534 98.6199 24.3364L99.3289 23.2783C99.3998 23.2783 100.251 23.9837 100.321 24.3364Z" fill="#A83D0D"/>
<path d="M95.0748 20.9502C93.6568 20.9502 91.6008 21.585 90.75 23.278L91.5299 24.3361C91.5299 24.3361 93.515 25.3942 95.1457 25.4647C96.2091 25.5353 97.8398 25.6058 99.045 24.5477L99.3995 23.1369C99.3995 23.278 98.3361 20.9502 95.0748 20.9502Z" fill="#A83D0D"/>
<path d="M95.1445 39.5723V42.1117L95.9244 42.3938L96.9879 40.4893C97.0588 40.4893 95.9953 39.6428 95.1445 39.5723Z" fill="#EF6238"/>
<path d="M98.1931 37.8096L98.8312 38.2328L97.4842 42.8884L95.1445 39.5731C95.1445 39.5731 96.4207 39.3614 98.1931 37.8096Z" fill="#FAF8FA"/>
<path d="M89.6861 43.3108L90.3241 42.3938L90.6077 41.9L89.4025 39.9954L88.9771 39.29L84.4396 41.4062C84.0851 41.7589 83.5889 44.4394 83.2344 47.1199L95.9251 50.7174L89.6861 43.3108Z" fill="#2E2D2D"/>
<path d="M95.2168 48.9546L95.1459 42.1123L94.366 42.3945C94.366 42.3945 93.8697 44.6517 93.7988 45.7804L94.2951 47.5438L95.2168 48.9546Z" fill="#CB532F"/>
<path d="M96.1385 47.5438L96.6348 45.7804C96.493 44.6517 95.9967 42.3945 95.9967 42.3945L95.2168 42.1123L95.2877 48.9546L96.1385 47.5438Z" fill="#EF6238"/>
<path d="M90.6072 41.9002L90.3236 42.394L89.6855 43.311L95.2156 50.0123V48.9542L91.3162 38.3027L88.9766 39.2903L89.4019 39.9957L90.6072 41.9002Z" fill="#3D3D3D"/>
<path d="M100.746 43.2402L100.108 42.3232L99.7537 41.9L100.888 39.9954L101.313 39.29L105.851 41.3357C106.205 41.6884 106.702 44.3689 107.127 47.0494L94.5781 50.788L100.746 43.2402Z" fill="#313131"/>
<path d="M99.7542 41.8299L100.109 42.3237L100.747 43.2407L95.2168 50.0125V48.9544L98.9744 38.2324L101.314 39.22L100.889 39.9254L99.7542 41.8299Z" fill="#434141"/>
<path d="M89.4019 39.9954L88.9766 39.29L89.4019 39.9954Z" fill="#597D90"/>
<path d="M38.9226 20.7388C41.6167 22.2906 42.4675 23.772 42.2548 38.7263H34.2434L34.1016 19.6807C34.1016 19.7512 36.8666 19.5396 38.9226 20.7388Z" fill="#3E3E3E"/>
<path d="M29.4942 20.7388C26.8001 22.2906 25.9493 23.772 26.162 38.7263H34.1735L34.3153 19.6807C34.3153 19.7512 31.5502 19.5396 29.4942 20.7388Z" fill="#3E3E3E"/>
<path d="M34.1015 35.2703L30.5566 33.5068V41.4778C30.5566 41.4778 31.9037 43.1002 34.1015 43.1002C36.6538 43.1002 37.6464 41.6189 37.6464 41.6189V34.706L34.1015 35.2703Z" fill="#FFDBA8"/>
<path d="M37.6464 36.6099C37.6464 36.6099 35.9449 38.1618 30.5566 41.0539V35.834L37.6464 36.6099Z" fill="#F0BD6D"/>
<path d="M28.2175 28.7801C28.2175 28.7801 29.1392 35.6224 29.281 35.9751C29.4937 36.3278 32.9677 38.1618 34.102 38.0913V20.9502C32.755 20.9502 27.3668 21.2324 28.2175 28.7801Z" fill="#FFDBA8"/>
<path d="M34.1725 20.9502H34.1016V38.0913C35.2359 38.1618 38.7099 36.2572 38.9226 35.9751C39.1353 35.6224 39.9861 28.7801 39.9861 28.7801C40.6241 21.2324 35.5904 20.9502 34.1725 20.9502Z" fill="#FFDBA8"/>
<path d="M28.7849 32.8719C28.7849 32.8719 28.005 33.2246 27.4378 31.3906C26.7289 29.0628 26.7998 28.3574 27.3669 28.3574C28.2886 28.3574 28.5013 28.9217 28.5013 28.9217L28.7849 32.8719Z" fill="#FFDBA8"/>
<path d="M34.315 19.6807H34.2441H34.1732C32.6135 19.6807 25.7364 21.7263 28.2887 28.5686C28.2887 28.5686 31.7627 28.1454 34.1732 26.7346C36.9382 25.1827 38.7107 22.7139 38.7107 22.7139C38.9943 20.4566 35.733 19.7512 34.315 19.6807Z" fill="#3E3E3E"/>
<path d="M35.0249 52.6931L33.0398 52.8342C33.0398 52.8342 29.2113 44.44 29.2822 43.8757C29.2822 43.3114 34.1033 41.8301 34.1033 41.8301C34.1033 41.8301 38.0026 41.8301 38.5698 42.0417C39.846 42.5355 37.0101 50.5064 35.0249 52.6931Z" fill="#F2F2F2"/>
<path d="M38.4979 22.1494C38.4979 22.1494 37.8598 25.5353 39.9158 28.639C41.9719 31.6722 40.5539 24.5478 40.5539 24.5478C40.5539 24.5478 39.136 22.1494 38.4979 22.1494Z" fill="#3E3E3E"/>
<path d="M39.4199 32.801C39.4199 32.801 40.2707 33.0126 40.767 31.1786C41.2633 29.0624 41.1924 28.5686 40.6252 28.4981C40.1289 28.4276 39.5617 28.9213 39.5617 28.9213L39.4199 32.801Z" fill="#FFDBA8"/>
<path d="M34.7396 52.3405H33.3926V41.8301H34.8105L34.7396 52.3405Z" fill="#F8F8F8"/>
<path d="M37.6464 39.4316C37.6464 39.4316 37.1502 41.1951 34.1016 41.83C34.1016 41.83 35.165 44.7926 38.0718 43.664C41.0495 42.4648 39.5607 40.137 37.6464 39.4316Z" fill="#E5E5E5"/>
<path d="M30.5574 39.3613C30.5574 39.3613 31.0536 41.1954 34.1022 41.7597C34.1022 41.7597 33.0388 44.7223 30.132 43.5937C27.1543 42.4651 28.6431 40.0667 30.5574 39.3613Z" fill="#D7D7D7"/>
<path d="M27.2962 45.9912L28.0761 44.8626L28.5015 44.2983L27.0835 41.9705L26.5163 41.124L20.9154 43.6634C20.49 44.0867 20.0646 46.2029 19.5684 49.5182L32.7553 52.6219L27.2962 45.9912Z" fill="#BFBFBF"/>
<path d="M40.8372 45.9915L35.2363 52.8338L48.2106 49.1657C47.7143 45.8504 47.5725 44.0164 47.1471 43.5931L41.5462 41.0537L39.7029 44.2985L40.8372 45.9915Z" fill="#D1D1D1"/>
<path d="M28.4304 44.2987L28.076 44.863L27.2961 45.9916L32.8261 53.1867L33.5351 52.834L32.3298 49.0954L30.2738 41.9004L29.6357 39.7842L26.4453 41.1244L27.0125 41.9709L28.4304 44.2987Z" fill="#9E9E9E"/>
<path d="M40.8386 45.9914L39.7042 44.2985L41.6185 41.1242L38.5699 39.8545L37.9318 41.9001L35.9467 48.6014L34.5996 52.8337L35.8049 52.6927L40.8386 45.9914Z" fill="#C2C2C2"/>
<path d="M33.5352 44.6512C33.5352 44.9334 33.7478 45.2155 34.1023 45.2155V44.1574C33.7478 44.0869 33.5352 44.3691 33.5352 44.6512Z" fill="#F7F7F7"/>
<path d="M34.0312 44.0869V45.145C34.3148 45.145 34.5984 44.8628 34.5984 44.5807C34.5984 44.2985 34.3857 44.0869 34.0312 44.0869Z" fill="white"/>
<path d="M33.9613 44.6508C33.9613 44.7214 33.8904 44.7919 33.8195 44.7919C33.7486 44.7919 33.6777 44.7214 33.6777 44.6508C33.6777 44.5803 33.7486 44.5098 33.8195 44.5098C33.8904 44.5098 33.9613 44.5803 33.9613 44.6508Z" fill="#C9C9C9"/>
<path d="M34.3871 44.6508C34.3871 44.7214 34.3162 44.7919 34.2453 44.7919C34.1744 44.7919 34.1035 44.7214 34.1035 44.6508C34.1035 44.5803 34.1744 44.5098 34.2453 44.5098C34.3871 44.5098 34.3871 44.5803 34.3871 44.6508Z" fill="#D4D4D4"/>
<path d="M33.5352 49.1666C33.5352 49.4488 33.7478 49.7309 34.1023 49.7309V48.6729C33.7478 48.6729 33.5352 48.8845 33.5352 49.1666Z" fill="#F7F7F7"/>
<path d="M34.0312 48.6729V49.7309C34.3148 49.7309 34.5984 49.4488 34.5984 49.1666C34.5984 48.8845 34.3857 48.6729 34.0312 48.6729Z" fill="white"/>
<path d="M33.9613 49.1665C33.9613 49.237 33.8904 49.3075 33.8195 49.3075C33.7486 49.3075 33.6777 49.237 33.6777 49.1665C33.6777 49.0959 33.7486 49.0254 33.8195 49.0254C33.9613 49.0959 33.9613 49.0959 33.9613 49.1665Z" fill="#C9C9C9"/>
<path d="M34.3871 49.1665C34.3871 49.237 34.3162 49.3075 34.2453 49.3075C34.1744 49.3075 34.1035 49.237 34.1035 49.1665C34.1035 49.0959 34.1744 49.0254 34.2453 49.0254C34.3871 49.0959 34.3871 49.0959 34.3871 49.1665Z" fill="#D4D4D4"/>
<path d="M49.6993 54.8797C51.6844 53.3983 53.4568 51.7054 54.8748 49.7303L63.0989 53.1867H63.1698L68.2035 41.2656L59.9085 37.7386C60.263 35.3402 60.3339 32.8714 59.9794 30.473L68.2744 27.1577H68.3453L63.4534 15.166L55.0875 18.5519C53.5986 16.5768 51.8971 14.8133 49.912 13.332L53.3859 5.14938V5.07884L41.546 0.0705394L38.0011 8.32365C35.5906 7.97095 33.1092 7.97095 30.6987 8.25311L27.3665 0.0705394V0L15.3139 4.86722L18.717 13.1909C16.7318 14.6722 14.9594 16.3651 13.5415 18.3403L5.24643 14.8133H5.17553L0.0708977 26.6639L8.36592 30.1909C8.01144 32.5892 7.94054 35.0581 8.29503 37.4564L0.0708977 40.8423H0L4.89194 52.834L13.2579 49.4481C14.7467 51.4232 16.4483 53.1867 18.4334 54.6681L14.8885 62.8506V62.9212L26.8702 67.9295L30.4151 59.6763C32.8256 60.029 35.307 60.029 37.7176 59.7469L41.0497 68V68.0705L53.1023 63.2033L49.6993 54.8797ZM41.3333 52.3402C36.5832 54.2448 31.2659 54.3154 26.5157 52.3402C21.7656 50.4357 17.9371 46.8382 15.8102 42.1826C15.6684 41.971 15.5975 41.6888 15.5266 41.4772C13.5415 36.61 13.5415 31.249 15.6684 26.3817C17.7244 21.5145 21.5529 17.7759 26.4448 15.8008C31.195 13.8963 36.5123 13.8257 41.2624 15.8008C46.0835 17.6349 49.8411 21.2324 51.968 25.888C52.1098 26.0996 52.1807 26.3817 52.2516 26.5934C56.3636 36.6805 51.4717 48.249 41.3333 52.3402Z" fill="#EF6238"/>
<path d="M52.2507 26.593C52.1798 26.3814 52.038 26.0992 51.9671 25.8876C47.5714 16.2237 36.3696 11.7092 26.4439 15.7299C21.552 17.705 17.7235 21.4436 15.6675 26.3109C13.6114 31.1781 13.5405 36.5391 15.5257 41.4063C15.5966 41.6179 15.7384 41.9001 15.8093 42.1117C20.2049 51.7756 31.4067 56.2901 41.3324 52.2694C51.4708 48.2486 56.3627 36.6801 52.2507 26.593ZM40.6234 50.4353C31.6903 54.0328 21.6229 50.0826 17.6526 41.3357C17.5817 41.1241 17.4399 40.9125 17.369 40.7009C15.5966 36.3275 15.5966 31.4602 17.5108 27.0868C19.3541 22.7133 22.8281 19.3275 27.2238 17.564C36.1569 13.9665 46.2244 17.9872 50.1946 26.6636C50.2655 26.8752 50.4073 27.0868 50.4782 27.2984C54.1649 36.398 49.7692 46.7673 40.6234 50.4353Z" fill="#CB532F"/>
<path d="M113.79 46.1323C114.854 44.3689 115.705 42.5348 116.272 40.5597L123.716 40.7008H123.787L124.07 29.9788L116.555 29.8377C116.13 27.8626 115.35 25.9581 114.357 24.1946L119.746 19.1157L119.817 19.0452L112.372 11.2859L106.913 16.4352C105.212 15.3772 103.297 14.5307 101.312 13.9664L101.454 6.55973V6.48919L90.6777 6.20703L90.5359 13.6842C88.5507 14.178 86.6365 14.8834 84.8641 15.8709L79.7594 10.5099L79.6885 10.4394L71.8898 17.846L77.0653 23.2776C76.0019 25.0411 75.1511 26.8751 74.5839 28.8502L67.1396 28.7091H67.0687L66.7852 39.4311L74.3003 39.5722C74.7257 41.5473 75.5056 43.4518 76.4981 45.2153L71.1099 50.2942L71.039 50.3647L78.4833 58.124L83.9424 52.9747C85.6439 54.0328 87.5582 54.8792 89.5433 55.4435L89.4015 62.8502V62.9207L100.178 63.2029L100.32 55.7257C102.305 55.2319 104.219 54.5265 105.992 53.539L111.096 58.9L111.167 58.9705L118.966 51.5639L113.79 46.1323ZM106.63 46.6967C103.51 49.6593 99.469 51.2817 95.1442 51.2112C90.8904 51.2112 86.8492 49.5888 83.7297 46.6261C83.5879 46.485 83.4461 46.344 83.3043 46.1323C80.2557 42.9581 78.6251 38.7962 78.7669 34.4228C78.8378 30.0494 80.6811 25.9581 83.8715 22.9249C86.991 19.9622 91.0322 18.3398 95.3569 18.4103C99.6108 18.4103 103.652 20.0328 106.771 22.9954C106.913 23.1365 107.055 23.2776 107.197 23.4892C113.436 30.0494 113.152 40.4892 106.63 46.6967Z" fill="#EF6238"/>
<path d="M107.125 23.4893C106.983 23.3482 106.841 23.2072 106.7 22.9955C100.319 16.8586 90.2514 16.7881 83.8706 22.925C80.6802 25.9582 78.9078 30.0495 78.766 34.4229C78.6951 38.7964 80.2548 42.9582 83.3034 46.1325C83.4452 46.2735 83.587 46.4146 83.7288 46.6262C90.1096 52.7632 100.177 52.8337 106.558 46.6968C113.151 40.4893 113.435 30.0495 107.125 23.4893ZM105.494 45.4976C99.6808 50.9997 90.6768 50.9997 84.9341 45.4271C84.7923 45.286 84.6505 45.1449 84.5087 45.0038C81.7437 42.1823 80.3257 38.4437 80.3966 34.4935C80.4675 30.5433 82.0982 26.8752 85.005 24.1242C90.8186 18.6221 99.8226 18.6221 105.565 24.1947C105.707 24.3358 105.849 24.4769 105.991 24.6179C111.592 30.4727 111.379 39.8545 105.494 45.4976Z" fill="#CB532F"/>
</g>
<defs>
<clipPath id="clip0_298_6053">
<rect width="124" height="68" fill="white"/>
</clipPath>
</defs>
</svg>
