<svg width="84" height="68" viewBox="0 0 84 68" fill="none" xmlns="http://www.w3.org/2000/svg">
<g clip-path="url(#clip0_298_5945)">
<path fill-rule="evenodd" clip-rule="evenodd" d="M0 68.0002C0.0168709 59.7414 3.28982 52.2658 8.58164 46.8463C13.8847 41.4153 21.2067 38.0576 29.2991 38.0576C37.3858 38.0576 44.7134 41.4153 50.0165 46.8463C55.3027 52.26 58.5812 59.7414 58.5981 68.0002H0Z" fill="white"/>
<path fill-rule="evenodd" clip-rule="evenodd" d="M0 68.0002C0.0168709 59.7414 3.28982 52.2658 8.58164 46.8463C13.8847 41.4153 21.2067 38.0576 29.2991 38.0576C37.3858 38.0576 44.7134 41.4153 50.0165 46.8463C55.3027 52.26 58.5812 59.7414 58.5981 68.0002H56.4443C56.4274 60.3461 53.3963 53.4234 48.4981 48.4071C43.5887 43.3792 36.801 40.2634 29.3047 40.2634C21.8084 40.2634 15.0263 43.3734 10.1113 48.4071C5.2131 53.4234 2.17634 60.3461 2.16509 68.0002H0Z" fill="black"/>
<path fill-rule="evenodd" clip-rule="evenodd" d="M25.1382 52.1736L22.7031 42.8723C24.857 42.2791 27.0727 41.9854 29.294 41.9854C31.521 41.9854 33.7367 42.2848 35.8849 42.8723L33.4499 52.1736C32.1227 51.8108 30.7337 51.6149 29.294 51.6149C27.86 51.6149 26.4653 51.8108 25.1382 52.1736Z" fill="#FFA286"/>
<path fill-rule="evenodd" clip-rule="evenodd" d="M17.9401 56.4294L11.293 49.622C12.8676 48.0094 14.639 46.6156 16.5679 45.4753C18.4968 44.3349 20.5607 43.4595 22.7089 42.8721L25.1383 52.1733C22.3771 52.9278 19.9027 54.4195 17.9401 56.4294Z" fill="#EF6238"/>
<path fill-rule="evenodd" clip-rule="evenodd" d="M13.7833 63.8014L4.70117 61.3076C5.27478 59.1075 6.12957 56.9939 7.24305 55.0184C8.35652 53.043 9.71744 51.2288 11.2921 49.6162L17.9392 56.4295C15.9765 58.4452 14.52 60.9735 13.7833 63.8014Z" fill="#FFA286"/>
<path fill-rule="evenodd" clip-rule="evenodd" d="M33.4492 52.1733L35.8842 42.8721C38.0325 43.4595 40.0963 44.3407 42.0252 45.4753C43.9541 46.6156 45.7255 48.0094 47.3002 49.622L40.6474 56.4294C38.6848 54.4195 36.216 52.9278 33.4492 52.1733Z" fill="#EF6238"/>
<path fill-rule="evenodd" clip-rule="evenodd" d="M40.6484 56.4295L47.3012 49.6162C48.8758 51.2288 50.2367 53.043 51.3502 55.0184C52.4637 56.9939 53.3185 59.1075 53.8921 61.3076L44.8099 63.8014C44.0676 60.9735 42.6111 58.4452 40.6484 56.4295Z" fill="#FFA286"/>
<path fill-rule="evenodd" clip-rule="evenodd" d="M29.2936 63.7783C31.5824 63.7783 33.4438 65.6616 33.4719 67.9999H25.1152C25.149 65.6616 27.0048 63.7783 29.2936 63.7783Z" fill="#FCABE3"/>
<path fill-rule="evenodd" clip-rule="evenodd" d="M29.2929 53.0264C37.3797 53.0264 43.9368 59.7244 43.9705 68.0005H14.6152C14.649 59.7244 21.2061 53.0264 29.2929 53.0264Z" fill="#EF6238"/>
<path fill-rule="evenodd" clip-rule="evenodd" d="M29.2936 63.7783C31.5824 63.7783 33.4438 65.6616 33.4719 67.9999H25.1152C25.149 65.6616 27.0048 63.7783 29.2936 63.7783Z" fill="black"/>
<path fill-rule="evenodd" clip-rule="evenodd" d="M28.4941 65.4372L41.9121 49.0117L31.6152 67.6546L28.4941 65.4372Z" fill="black"/>
<path fill-rule="evenodd" clip-rule="evenodd" d="M81.0822 18.1703C81.2903 18.2913 81.2397 18.608 81.1497 18.9191L80.7785 20.1976L81.504 20.1343C81.7233 20.117 81.937 20.117 82.0719 20.1976L83.3822 20.9636C83.4441 20.9982 83.4835 21.05 83.5116 21.1191C83.6691 21.5798 83.8153 21.9945 83.9727 22.4553C84.0515 22.6856 83.8265 22.893 83.5622 23.0715L82.2182 23.9988C82.235 24.2406 82.235 24.4825 82.2238 24.7302L83.5791 25.6747C83.8378 25.8533 84.0627 26.0606 83.984 26.291C83.8265 26.7517 83.6803 27.1606 83.5228 27.6214C83.4441 27.8517 83.1404 27.8632 82.8311 27.8402L81.189 27.6962C81.0484 27.8978 80.8966 28.0879 80.7335 28.2606L81.1778 29.8675C81.2621 30.1727 81.3071 30.478 81.0991 30.6047C80.6885 30.8523 80.323 31.0712 79.9125 31.3188C79.8281 31.3707 79.7325 31.3822 79.6482 31.3303L78.3097 30.5528C78.1916 30.4837 78.0567 30.3858 77.933 30.2591L77.618 29.9366C77.5393 29.9481 77.4606 29.9596 77.3818 29.9712L76.662 31.5089C76.5271 31.7969 76.364 32.0503 76.1334 32.0042C75.6723 31.912 75.2561 31.8314 74.7894 31.7393C74.75 31.7335 74.7163 31.7105 74.6825 31.6932L73.3722 30.933C73.2204 30.8408 73.181 30.5759 73.1641 30.311L73.1079 29.3664L72.2925 29.7926C72.0619 29.9136 71.8201 30.0172 71.6683 29.9251L70.3636 29.1648C70.3298 29.1476 70.3017 29.1245 70.2736 29.0957C69.9643 28.7387 69.6831 28.4161 69.3682 28.0533C69.2107 27.8748 69.3457 27.5983 69.5144 27.3392L70.4367 25.9281C70.3973 25.8417 70.3636 25.7611 70.3298 25.6747L69.9249 25.571C69.7618 25.5307 69.6156 25.4674 69.5032 25.3983L68.2266 24.6553C68.1422 24.6092 68.0466 24.4768 68.0466 24.3789C68.0466 23.9008 68.041 23.4689 68.041 22.9909C68.041 22.7547 68.3166 22.6338 68.609 22.5532L70.1611 22.1327C70.2286 21.8793 70.3186 21.6259 70.4254 21.3783L69.5088 20.0421C69.3288 19.7887 69.1939 19.518 69.3401 19.3395C69.6381 18.9766 69.9024 18.6426 70.2005 18.2798C70.3467 18.0955 70.6335 18.1876 70.9091 18.3201L72.3487 19.017C72.5737 18.8615 72.8042 18.7232 73.046 18.6023L73.136 17.007C73.1529 16.696 73.2091 16.4022 73.4341 16.3562C73.8896 16.264 74.2945 16.1834 74.75 16.0912C74.8175 16.0797 74.885 16.0912 74.9412 16.1258L76.2234 16.8745C76.3583 16.9551 76.4821 17.1337 76.5777 17.341L76.8813 17.9803L77.8992 16.9666C78.1242 16.742 78.3716 16.552 78.5741 16.6787L81.0822 18.1703ZM77.5843 21.4071C76.3359 21.073 74.9749 21.6144 74.3057 22.8181C73.6365 24.0218 73.8727 25.4962 74.7894 26.4234C76.0378 26.7575 77.3987 26.2161 78.0679 25.0124C78.7371 23.8145 78.5009 22.3343 77.5843 21.4071Z" fill="black"/>
<path fill-rule="evenodd" clip-rule="evenodd" d="M78.5799 16.6673C78.9904 16.9207 79.3616 17.1511 79.7721 17.4045C79.9746 17.5312 79.9296 17.8422 79.8396 18.1532L79.3785 19.737C79.5416 19.9098 79.6878 20.0883 79.8284 20.2784L81.5042 20.1344C81.8191 20.1056 82.1228 20.1229 82.2015 20.3533C82.359 20.814 82.5052 21.2287 82.6627 21.6894C82.7414 21.9198 82.5164 22.1271 82.2521 22.3057L80.9081 23.2387C80.925 23.4806 80.925 23.7225 80.9137 23.9701L82.269 24.9146C82.5277 25.0932 82.7526 25.3005 82.6739 25.5309C82.5164 25.9916 82.3702 26.4005 82.2128 26.8613C82.134 27.0916 81.8304 27.1032 81.5211 27.0801L79.879 26.9361C79.7384 27.1377 79.5865 27.3278 79.4235 27.5006L79.8677 29.1074C79.9521 29.4126 79.9971 29.7179 79.789 29.8446C79.3785 30.0922 79.0129 30.3111 78.6024 30.5587C78.4 30.6797 78.1581 30.4954 77.9388 30.2708L76.7804 29.0844C76.5498 29.142 76.3136 29.188 76.0774 29.2168L75.3576 30.7546C75.2226 31.0425 75.0595 31.2959 74.829 31.2499C74.3678 31.1577 73.9517 31.0771 73.4849 30.9849C73.2543 30.9389 73.1925 30.6394 73.1756 30.3226L73.0744 28.6985C72.9619 28.6409 72.8438 28.5833 72.7314 28.5142C72.6189 28.4451 72.5064 28.376 72.3996 28.3011L70.9937 29.0383C70.7181 29.1823 70.4369 29.2802 70.2794 29.1016C69.9701 28.7446 69.689 28.422 69.374 28.0592C69.2166 27.8807 69.3516 27.6042 69.5203 27.3451L70.4425 25.934C70.3413 25.7037 70.257 25.4618 70.1839 25.2141L68.6261 24.8052C68.3281 24.7246 68.0525 24.6151 68.0525 24.3733C68.0525 23.8952 68.0469 23.4633 68.0469 22.9853C68.0469 22.7491 68.3224 22.6282 68.6149 22.5476L70.167 22.1271C70.2345 21.8737 70.3244 21.6203 70.4313 21.3727L69.509 20.0423C69.3291 19.7889 69.1941 19.5182 69.3403 19.3396C69.6384 18.9768 69.9027 18.6428 70.2007 18.2799C70.3469 18.0956 70.6337 18.1878 70.9093 18.3202L72.3489 19.0171C72.5739 18.8616 72.8045 18.7234 73.0463 18.6024L73.1363 17.0071C73.1531 16.6961 73.2094 16.4024 73.4343 16.3563C73.8898 16.2642 74.2947 16.1835 74.7502 16.0914C74.9752 16.0453 75.1383 16.2987 75.2732 16.5752L75.9762 18.0668C76.2124 18.0899 76.4486 18.1302 76.6791 18.182L77.8995 16.961C78.13 16.7249 78.3775 16.5406 78.5799 16.6673ZM76.9772 20.9407C75.5769 20.1229 73.7942 20.624 72.9957 22.058C72.1971 23.4921 72.6864 25.3178 74.0866 26.1356C75.4869 26.9534 77.2696 26.4524 78.0682 25.0183C78.8667 23.5785 78.3775 21.7528 76.9772 20.9407Z" fill="#494949"/>
<path fill-rule="evenodd" clip-rule="evenodd" d="M70.8131 30.2012C71.0605 30.4258 70.9143 30.8347 70.7119 31.2321L69.8739 32.8678L70.8749 32.9772C71.1786 33.0117 71.4654 33.0751 71.6341 33.2191L73.2144 34.6128C73.2875 34.6762 73.3325 34.7568 73.3493 34.8547C73.4449 35.5228 73.5349 36.1275 73.6305 36.8014C73.6811 37.1354 73.3156 37.3543 72.9163 37.527L70.8468 38.4255C70.8075 38.7595 70.7456 39.0936 70.6612 39.4218L72.2583 41.069C72.562 41.3858 72.8151 41.7256 72.6464 42.0135C72.309 42.5952 72.0109 43.1193 71.6735 43.6952C71.5048 43.9832 71.0886 43.9199 70.6725 43.7989L68.4849 43.1539C68.2375 43.39 67.9844 43.6031 67.7145 43.7989L67.9 46.1026C67.9338 46.5403 67.9113 46.9665 67.6076 47.0817C66.989 47.3063 66.4323 47.5021 65.8137 47.7268C65.69 47.7728 65.555 47.7613 65.4538 47.6749L63.8398 46.2581C63.6992 46.1314 63.5417 45.9586 63.4068 45.7571L63.0637 45.233C62.9513 45.2272 62.8444 45.2215 62.7319 45.2157L61.3542 47.1105C61.1011 47.4618 60.8087 47.7671 60.505 47.6404C59.9033 47.387 59.3578 47.1623 58.7504 46.9147C58.6998 46.8917 58.6605 46.8571 58.6211 46.8225L57.0409 45.4288C56.8553 45.2618 56.8778 44.8932 56.9228 44.5303L57.0858 43.2345L55.8711 43.5916C55.5281 43.6895 55.1738 43.7644 54.9882 43.6031L53.4136 42.2093C53.3743 42.1748 53.3349 42.1402 53.3068 42.0942C52.975 41.524 52.6769 41.0056 52.3508 40.4355C52.1877 40.1475 52.4351 39.8135 52.7388 39.5025L54.3584 37.838C54.3303 37.7113 54.3078 37.5904 54.2853 37.4637L53.7623 37.2103C53.5542 37.1066 53.3686 36.9799 53.228 36.859L51.6816 35.4998C51.5803 35.4134 51.4847 35.206 51.5072 35.0736C51.6309 34.4228 51.7378 33.8411 51.8615 33.1903C51.9234 32.8678 52.3226 32.7814 52.75 32.7526L54.9657 32.6028C55.1288 32.2746 55.3088 31.9578 55.5169 31.6526L54.6002 29.6022C54.4259 29.2106 54.3078 28.8075 54.5552 28.6001C55.0557 28.1855 55.5056 27.8111 56.0005 27.3964C56.2479 27.1891 56.6078 27.3907 56.9509 27.6441L58.7279 28.9802C59.071 28.8305 59.4253 28.7038 59.7852 28.6059L60.325 26.4634C60.4319 26.0488 60.5837 25.6571 60.9043 25.6571C61.5454 25.6571 62.119 25.6514 62.7601 25.6514C62.8613 25.6514 62.94 25.6859 63.0131 25.7493L64.5652 27.12C64.7283 27.264 64.8464 27.5404 64.9252 27.8457L65.167 28.7959L66.8147 27.6902C67.1802 27.4425 67.5626 27.2582 67.8101 27.4886L70.8131 30.2012ZM65.212 33.6568C63.6036 32.862 61.6129 33.2306 60.3925 34.6819C59.1722 36.1333 59.1103 38.2009 60.117 39.7156C61.7253 40.5104 63.7161 40.1418 64.9364 38.6904C66.1567 37.2333 66.2186 35.1657 65.212 33.6568Z" fill="#BD4A28"/>
<path fill-rule="evenodd" clip-rule="evenodd" d="M67.7991 27.4828C68.294 27.9378 68.7382 28.3525 69.2275 28.8075C69.4749 29.0378 69.3287 29.441 69.1263 29.8384L68.0915 31.8714C68.2659 32.1479 68.4233 32.4358 68.5639 32.7295L70.8752 32.9887C71.3082 33.0348 71.7188 33.1385 71.7638 33.4783C71.8594 34.1463 71.9493 34.7511 72.0449 35.4249C72.0955 35.7589 71.73 35.9778 71.3307 36.1506L69.2612 37.049C69.2219 37.3831 69.16 37.7171 69.0757 38.0454L70.6728 39.6925C70.9764 40.0093 71.2295 40.3491 71.0608 40.6371C70.7234 41.2188 70.4253 41.7428 70.0879 42.3188C69.9192 42.6067 69.503 42.5434 69.0869 42.4224L66.8993 41.7774C66.6519 42.0135 66.3988 42.2266 66.1289 42.4224L66.3144 44.7262C66.3482 45.1639 66.3257 45.5901 66.022 45.7052C65.4034 45.9299 64.8467 46.1257 64.2281 46.3503C63.9188 46.4597 63.6432 46.143 63.4014 45.7744L62.1361 43.8508C61.8043 43.868 61.4781 43.8623 61.1463 43.8392L59.7685 45.734C59.5155 46.0854 59.223 46.3906 58.9194 46.2639C58.3176 46.0105 57.7721 45.7859 57.1648 45.5382C56.8611 45.4115 56.8611 44.9853 56.9173 44.5534L57.2041 42.3188C57.0636 42.2094 56.923 42.0999 56.788 41.979C56.6474 41.858 56.5181 41.7313 56.3887 41.5989L54.2911 42.2151C53.8806 42.3361 53.47 42.3937 53.307 42.1114C52.9752 41.5413 52.6771 41.0229 52.3509 40.4528C52.1879 40.1648 52.4353 39.8308 52.739 39.5198L54.3586 37.8553C54.2799 37.5098 54.2236 37.1642 54.1955 36.8129L52.1822 35.8338C51.7998 35.6495 51.4512 35.4191 51.513 35.0909C51.6367 34.4401 51.7436 33.8584 51.8673 33.2076C51.9292 32.885 52.3284 32.7987 52.7558 32.7699L54.9716 32.6201C55.1346 32.2918 55.3146 31.9751 55.5227 31.6698L54.6004 29.6022C54.4261 29.2106 54.308 28.8075 54.5554 28.6001C55.0559 28.1855 55.5058 27.8111 56.0007 27.3964C56.2481 27.1891 56.608 27.3907 56.9511 27.6441L58.7282 28.9802C59.0712 28.8305 59.4255 28.7038 59.7854 28.6059L60.3253 26.4634C60.4321 26.0488 60.584 25.6571 60.9045 25.6571C61.5456 25.6571 62.1192 25.6514 62.7603 25.6514C63.0809 25.6514 63.2383 26.0372 63.3452 26.4519L63.9131 28.6692C64.2281 28.7671 64.5374 28.8823 64.8354 29.0206L66.8093 27.6959C67.1749 27.4425 67.5573 27.2525 67.7991 27.4828ZM64.5149 32.8505C62.8222 31.3588 60.2747 31.5546 58.8181 33.2882C57.3616 35.0217 57.5528 37.6307 59.2455 39.1224C60.9382 40.614 63.4858 40.4182 64.9423 38.6847C66.3932 36.9569 66.202 34.3422 64.5149 32.8505Z" fill="#EF6238"/>
<path d="M29.8171 30.8643H28.8555V39.7451H29.8171V30.8643Z" fill="black"/>
<path fill-rule="evenodd" clip-rule="evenodd" d="M25.0309 35.8463C25.6214 35.8463 26.1613 35.5987 26.5549 35.1955C26.9486 34.7924 27.1904 34.2395 27.1904 33.6347V27.5529C27.1904 27.2822 27.4041 27.0576 27.674 27.0576C27.9384 27.0576 28.1577 27.2765 28.1577 27.5529V33.6347C28.1577 34.5159 27.809 35.3164 27.241 35.8924C26.673 36.4741 25.897 36.8311 25.0366 36.8311C20.7739 36.8311 16.5168 36.8311 12.2541 36.8311C11.6749 36.8311 11.1462 37.073 10.7638 37.4647C10.3814 37.8563 10.1452 38.3977 10.1452 38.9909V44.3528H9.18359V38.9909C9.18359 38.127 9.53226 37.338 10.089 36.7678C10.6457 36.1976 11.4162 35.8405 12.2597 35.8405C16.5112 35.8463 20.7739 35.8463 25.0309 35.8463Z" fill="black"/>
<path fill-rule="evenodd" clip-rule="evenodd" d="M33.6404 35.8463C33.0499 35.8463 32.5101 35.5987 32.1164 35.1955C31.7228 34.7924 31.4809 34.2395 31.4809 33.6347V27.5529C31.4809 27.2822 31.2672 27.0576 30.9973 27.0576C30.733 27.0576 30.5137 27.2765 30.5137 27.5529V33.6347C30.5137 34.5159 30.8623 35.3164 31.4303 35.8924C31.9983 36.4741 32.78 36.8311 33.6348 36.8311C37.8975 36.8311 42.1546 36.8311 46.4173 36.8311C46.9965 36.8311 47.5251 37.073 47.9075 37.4647C48.2899 37.8563 48.5261 38.3977 48.5261 38.9909V44.3528H49.4878V38.9909C49.4878 38.127 49.1391 37.338 48.5824 36.7678C48.0256 36.1976 47.2552 35.8405 46.4116 35.8405C42.1602 35.8463 37.8975 35.8463 33.6404 35.8463Z" fill="black"/>
<path d="M9.8751 46.9553C11.1328 46.7967 12.0268 45.624 11.8719 44.336C11.7171 43.048 10.572 42.1324 9.31434 42.291C8.05666 42.4496 7.16264 43.6223 7.31749 44.9103C7.47234 46.1983 8.61742 47.1139 9.8751 46.9553Z" fill="#EF6238"/>
<path fill-rule="evenodd" clip-rule="evenodd" d="M29.3394 44.2084C30.6047 44.2084 31.6338 43.1544 31.6338 41.8586C31.6338 40.5627 30.6047 39.5088 29.3394 39.5088C28.0741 39.5088 27.0449 40.5627 27.0449 41.8586C27.0393 43.1487 28.0741 44.2084 29.3394 44.2084Z" fill="#EF6238"/>
<path fill-rule="evenodd" clip-rule="evenodd" d="M48.9937 46.973C50.259 46.973 51.2881 45.9191 51.2881 44.6232C51.2881 43.3274 50.259 42.2734 48.9937 42.2734C47.7283 42.2734 46.6992 43.3274 46.6992 44.6232C46.6992 45.9191 47.7283 46.973 48.9937 46.973Z" fill="#EF6238"/>
<path fill-rule="evenodd" clip-rule="evenodd" d="M29.3383 0C22.8599 0 17.6074 5.24096 17.6074 11.7029C17.6074 15.3773 19.2833 18.6774 21.9545 20.7968C23.6303 22.1272 24.8057 23.9126 25.0587 26.5849C25.503 26.5849 33.1736 26.5849 33.6179 26.5849C33.8653 23.9126 35.0463 22.1272 36.7221 20.7968C39.3933 18.6774 41.0691 15.3715 41.0691 11.7029C41.0635 5.24096 35.8167 0 29.3383 0Z" fill="#EF6238"/>
<path fill-rule="evenodd" clip-rule="evenodd" d="M26.3854 26.5905L24.3216 11.3802C24.3103 11.288 24.3047 11.2074 24.3047 11.1383C24.3047 10.7236 24.4509 10.3435 24.704 10.0498C24.957 9.75603 25.3113 9.56022 25.7275 9.50263C25.8118 9.49111 25.8905 9.48535 25.9693 9.48535C26.2842 9.48535 26.5429 9.73876 26.5429 10.0555C26.5429 10.3723 26.2842 10.6257 25.9693 10.6257C25.9299 10.6257 25.9018 10.6257 25.8849 10.6314C25.7556 10.6487 25.6487 10.7063 25.57 10.7927C25.4969 10.8791 25.4519 11 25.4519 11.1325C25.4519 11.1671 25.4519 11.2016 25.4575 11.2247L27.5439 26.5847C28.7417 26.5847 29.9452 26.5847 31.143 26.5847L33.2294 11.2247C33.235 11.2016 33.235 11.1728 33.235 11.1325C33.235 10.9943 33.19 10.8791 33.1169 10.7927C33.0438 10.7063 32.9313 10.6487 32.802 10.6314C32.7795 10.6314 32.7513 10.6257 32.7176 10.6257C32.4027 10.6257 32.144 10.3723 32.144 10.0555C32.144 9.73876 32.4027 9.48535 32.7176 9.48535C32.7907 9.48535 32.8694 9.49111 32.9594 9.50263C33.3756 9.56022 33.7299 9.75603 33.9829 10.0498C34.236 10.3435 34.3822 10.7178 34.3822 11.1383C34.3822 11.2131 34.3766 11.2938 34.3653 11.3802L32.3015 26.5905H26.3854ZM31.4073 8.87486C31.0699 8.78271 30.7156 8.98429 30.6256 9.32409L30.1364 11.144C30.0464 11.4838 30.2488 11.8351 30.5863 11.9273C30.9237 12.0194 31.278 11.8179 31.3679 11.4781L31.8572 9.65813C31.9528 9.31257 31.7503 8.96125 31.4073 8.87486ZM28.0781 8.87486C27.7407 8.78271 27.3864 8.98429 27.2964 9.32409L26.8072 11.144C26.7172 11.4838 26.9197 11.8351 27.2571 11.9273C27.5945 12.0194 27.9488 11.8179 28.0388 11.4781L28.528 9.65813C28.6236 9.31257 28.4212 8.96125 28.0781 8.87486ZM29.7427 8.87486C29.4053 8.78271 29.051 8.98429 28.961 9.32409L28.4718 11.144C28.3818 11.4838 28.5843 11.8351 28.9217 11.9273C29.2591 12.0194 29.6134 11.8179 29.7034 11.4781L30.1926 9.65813C30.2882 9.31257 30.0858 8.96125 29.7427 8.87486Z" fill="white"/>
<path fill-rule="evenodd" clip-rule="evenodd" d="M33.6501 28.3018C30.7708 28.3018 27.8972 28.3018 25.0179 28.3018C24.6355 28.3018 24.3262 28.6934 24.3262 29.1772C24.3262 29.6552 24.6355 30.0526 25.0179 30.0526C27.8972 30.0526 30.7708 30.0526 33.6501 30.0526C34.0325 30.0526 34.3418 29.661 34.3418 29.1772C34.3418 28.6934 34.0325 28.3018 33.6501 28.3018Z" fill="black"/>
<path fill-rule="evenodd" clip-rule="evenodd" d="M24.4395 29.6493C24.5632 29.8855 24.7769 30.0467 25.0187 30.0467C27.898 30.0467 30.7716 30.0467 33.6509 30.0467C33.8928 30.0467 34.1065 29.8912 34.2302 29.6493C34.1065 29.4132 33.8928 29.252 33.6509 29.252C30.7716 29.252 27.898 29.252 25.0187 29.252C24.7769 29.2577 24.5632 29.4132 24.4395 29.6493Z" fill="#919191"/>
<path fill-rule="evenodd" clip-rule="evenodd" d="M33.2576 30.0469C30.6426 30.0469 28.0276 30.0469 25.4183 30.0469C25.0359 30.0469 24.7266 30.4385 24.7266 30.9223C24.7266 31.4003 25.0359 31.7977 25.4183 31.7977C28.0333 31.7977 30.6482 31.7977 33.2576 31.7977C33.64 31.7977 33.9493 31.4061 33.9493 30.9223C33.9493 30.4385 33.64 30.0469 33.2576 30.0469Z" fill="black"/>
<path fill-rule="evenodd" clip-rule="evenodd" d="M24.834 31.4003C24.9577 31.6364 25.1714 31.7977 25.4132 31.7977C28.0282 31.7977 30.6432 31.7977 33.2525 31.7977C33.4943 31.7977 33.708 31.6422 33.8318 31.4003C33.708 31.1642 33.4943 31.0029 33.2525 31.0029C30.6375 31.0029 28.0226 31.0029 25.4132 31.0029C25.1714 31.0029 24.9577 31.1642 24.834 31.4003Z" fill="#919191"/>
<path fill-rule="evenodd" clip-rule="evenodd" d="M33.8871 26.5508H24.7825C24.3158 26.5508 23.9277 26.9424 23.9277 27.4262C23.9277 27.9042 24.3101 28.3016 24.7825 28.3016H33.8871C34.3539 28.3016 34.7419 27.91 34.7419 27.4262C34.7419 26.9424 34.3595 26.5508 33.8871 26.5508Z" fill="black"/>
<path fill-rule="evenodd" clip-rule="evenodd" d="M24.041 27.9042C24.1647 28.1404 24.3784 28.3016 24.6202 28.3016H34.0454C34.2872 28.3016 34.5009 28.1461 34.6247 27.9042C34.5009 27.6681 34.2872 27.5068 34.0454 27.5068H24.6259C24.3841 27.5068 24.1704 27.6681 24.041 27.9042Z" fill="#919191"/>
<path fill-rule="evenodd" clip-rule="evenodd" d="M25.4512 31.7979C25.7211 32.656 26.3903 33.2607 27.1608 33.2607H31.3054C32.0814 33.2607 32.745 32.6502 33.0149 31.7979H25.4512Z" fill="black"/>
<path fill-rule="evenodd" clip-rule="evenodd" d="M29.7094 1.41699C28.3372 1.41699 27.0269 1.70496 25.8516 2.22905C26.4927 2.11387 27.1562 2.05051 27.8311 2.05051C33.9608 2.05051 38.9321 7.00927 38.9321 13.1314C38.9321 13.2524 38.9321 13.3791 38.9265 13.5C39.1458 12.6879 39.2639 11.8356 39.2639 10.9601C39.2639 5.69039 34.9843 1.41699 29.7094 1.41699Z" fill="white"/>
</g>
<defs>
<clipPath id="clip0_298_5945">
<rect width="84" height="68" fill="white"/>
</clipPath>
</defs>
</svg>
