<svg width="78" height="68" viewBox="0 0 78 68" fill="none" xmlns="http://www.w3.org/2000/svg">
<g clip-path="url(#clip0_298_6380)">
<path d="M2.31836 66.2945H75.6801L38.9993 2.52344L2.31836 66.2945Z" fill="#EF6238"/>
<path d="M15.5078 58.6544H62.4919L38.9999 17.8047L15.5078 58.6544Z" fill="white"/>
<path d="M77.1497 68.0001H0.849231C0.548277 68.0001 0.265027 67.8402 0.123402 67.5736C-0.0359258 67.3071 -0.0359258 66.9873 0.123402 66.7208L38.2736 0.391002C38.5746 -0.142053 39.4421 -0.142053 39.743 0.391002L77.8932 66.7208C78.0526 66.9873 78.0526 67.3071 77.8932 67.5736C77.7339 67.8402 77.4507 68.0001 77.1497 68.0001ZM2.31859 66.2943H75.6981L38.9995 2.52322L2.31859 66.2943Z" fill="#EF6238"/>
<path d="M63.9615 60.3422H14.0387C13.7377 60.3422 13.4545 60.1823 13.3129 59.9158C13.1535 59.6493 13.1535 59.3294 13.3129 59.0629L38.2743 15.6723C38.5752 15.1392 39.4427 15.1392 39.7436 15.6723L64.705 59.0629C64.8644 59.3294 64.8644 59.6493 64.705 59.9158C64.5457 60.1823 64.2625 60.3422 63.9615 60.3422ZM15.508 58.6542H62.4922L39.0001 17.8045L15.508 58.6542Z" fill="#EF6238"/>
<path d="M63.8009 30.1533C63.5177 30.1533 63.2344 29.9934 63.0751 29.7269C62.8449 29.3182 62.9866 28.8029 63.3937 28.5719L70.953 24.2542C71.3601 24.0232 71.8735 24.1653 72.1037 24.574C72.3338 24.9827 72.1922 25.498 71.785 25.729L64.2258 30.0467C64.1019 30.1178 63.9602 30.1533 63.8009 30.1533Z" fill="black"/>
<path d="M60.5439 25.5511C60.3137 25.5511 60.0836 25.4445 59.9243 25.249C59.6233 24.8937 59.6587 24.3606 60.0128 24.0408L63.5534 20.9846C63.9075 20.6825 64.4386 20.7181 64.7572 21.0734C65.0582 21.4288 65.0228 21.9619 64.6687 22.2639L61.1104 25.3201C60.9511 25.4978 60.7563 25.5689 60.5439 25.5511Z" fill="black"/>
<path d="M56.472 21.6776C56.2949 21.6776 56.1179 21.6065 55.9586 21.4999C55.5868 21.2156 55.5337 20.6648 55.817 20.3094L61.2164 13.4686C61.4997 13.0954 62.0308 13.0421 62.4025 13.3264C62.7743 13.6107 62.8274 14.1615 62.5442 14.5169L57.1447 21.3578C56.9854 21.571 56.7375 21.6776 56.472 21.6776Z" fill="black"/>
<path d="M51.7454 18.639C51.6215 18.639 51.4976 18.6035 51.3737 18.5502C50.9488 18.3369 50.7895 17.8217 51.0019 17.413L53.3387 12.8998C53.5511 12.4733 54.0645 12.3134 54.4717 12.5267C54.8966 12.7399 55.0559 13.2552 54.8435 13.6638L52.5067 18.177C52.365 18.4791 52.0464 18.639 51.7454 18.639Z" fill="black"/>
<path d="M66.0667 35.3063C65.7126 35.3063 65.394 35.0753 65.2877 34.72C65.1461 34.2758 65.3762 33.796 65.8188 33.6361L70.2446 32.1258C70.6872 31.9836 71.1652 32.2146 71.3245 32.6588C71.4661 33.103 71.236 33.5828 70.7934 33.7427L66.3676 35.253C66.2614 35.2886 66.1729 35.3063 66.0667 35.3063Z" fill="black"/>
<path d="M67.324 40.796C66.9169 40.796 66.5628 40.4762 66.5097 40.0675C66.4566 39.6055 66.7752 39.1791 67.2355 39.108L75.8392 37.9531C76.2995 37.8998 76.7244 38.2196 76.7952 38.6816C76.866 39.1436 76.5297 39.57 76.0694 39.6411L67.4657 40.796C67.4125 40.796 67.3594 40.8138 67.324 40.796Z" fill="black"/>
<path d="M72.5635 46.7309C72.5458 46.7309 72.5458 46.7309 72.5281 46.7309L67.465 46.4288C67.0047 46.3933 66.6329 46.0024 66.6684 45.5226C66.7038 45.0606 67.0401 44.6875 67.5712 44.723L72.6343 45.0251C73.0946 45.0606 73.4664 45.4515 73.4309 45.9313C73.3955 46.3933 73.0238 46.7486 72.5635 46.7309Z" fill="black"/>
<path d="M14.1962 30.1533C14.4795 30.1533 14.7627 29.9934 14.922 29.7269C15.1522 29.3182 15.0105 28.8029 14.6034 28.5719L7.04414 24.2542C6.63696 24.0232 6.12357 24.1653 5.89343 24.574C5.66329 24.9827 5.80492 25.498 6.21209 25.729L13.7713 30.0467C13.8952 30.1178 14.0546 30.1533 14.1962 30.1533Z" fill="black"/>
<path d="M17.454 25.5511C17.6842 25.5511 17.9143 25.4445 18.0736 25.249C18.3746 24.8937 18.3392 24.3606 17.9851 24.0408L14.4445 20.9846C14.0904 20.6825 13.5593 20.7181 13.2407 21.0734C12.9397 21.4288 12.9751 21.9619 13.3292 22.2639L16.8875 25.3201C17.0469 25.4978 17.2593 25.5689 17.454 25.5511Z" fill="black"/>
<path d="M21.5259 21.6778C21.7029 21.6778 21.8799 21.6067 22.0393 21.5001C22.411 21.2158 22.4641 20.665 22.1809 20.3096L16.7814 13.451C16.4982 13.0778 15.9671 13.0245 15.5953 13.3088C15.2235 13.5931 15.1704 14.144 15.4537 14.4993L20.8531 21.3402C21.0125 21.5712 21.2603 21.6778 21.5259 21.6778Z" fill="black"/>
<path d="M26.2523 18.639C26.3762 18.639 26.5001 18.6035 26.624 18.5502C27.0489 18.3369 27.2082 17.8217 26.9958 17.413L24.659 12.8998C24.4466 12.4733 23.9332 12.3134 23.526 12.5267C23.1011 12.7399 22.9418 13.2552 23.1542 13.6638L25.491 18.177C25.6504 18.4791 25.9513 18.639 26.2523 18.639Z" fill="black"/>
<path d="M11.9303 35.3063C12.2844 35.3063 12.603 35.0753 12.7093 34.72C12.8509 34.2758 12.6208 33.796 12.1782 33.6361L7.75239 32.1258C7.30981 31.9836 6.83183 32.2146 6.6725 32.6588C6.53087 33.103 6.76101 33.5828 7.20359 33.7427L11.6294 35.253C11.7356 35.2886 11.8241 35.3063 11.9303 35.3063Z" fill="black"/>
<path d="M10.674 40.796C11.0811 40.796 11.4352 40.4762 11.4883 40.0675C11.5414 39.6055 11.2228 39.1791 10.7625 39.108L2.15876 37.9531C1.69848 37.8998 1.2736 38.2196 1.20279 38.6816C1.13198 39.1436 1.46834 39.57 1.92862 39.6411L10.5323 40.796C10.5855 40.796 10.6386 40.8138 10.674 40.796Z" fill="black"/>
<path d="M5.43424 46.7309C5.45195 46.7309 5.45195 46.7309 5.46965 46.7309L10.5327 46.4288C10.993 46.3933 11.3648 46.0024 11.3294 45.5226C11.294 45.0606 10.9576 44.6875 10.4265 44.723L5.36343 45.0251C4.90315 45.0606 4.53138 45.4515 4.56679 45.9313C4.6022 46.3933 4.99166 46.7486 5.43424 46.7309Z" fill="black"/>
<path d="M36.6621 51.4048C36.6621 49.9833 37.6712 48.935 38.9989 48.935C40.309 48.935 41.3357 49.9833 41.3357 51.4048C41.3357 52.7907 40.3267 53.8391 38.9989 53.8391C37.6889 53.8391 36.6621 52.7907 36.6621 51.4048ZM37.2817 36.3904L37.1578 32.8545H40.8046L40.7161 36.3904L40.2027 46.8028H37.7774L37.2817 36.3904Z" fill="black"/>
</g>
<defs>
<clipPath id="clip0_298_6380">
<rect width="78" height="68" fill="white"/>
</clipPath>
</defs>
</svg>
