<svg width="54" height="74" viewBox="0 0 54 74" fill="none" xmlns="http://www.w3.org/2000/svg">
<g clip-path="url(#clip0_298_5923)">
<path d="M26.9355 58.2969V58.3615C23.2888 58.3615 20.3584 64.5372 20.3584 72.1355C20.3584 79.7338 26.9355 85.9094 26.9355 85.9094V85.8447C26.9355 85.8447 33.5125 79.6691 33.5125 72.0708C33.5125 64.4725 30.5822 58.2969 26.9355 58.2969Z" fill="white"/>
<path d="M27.3581 44.9751L5.90123 63.9224L0.952148 45.0398L12.9667 34.5962L23.9068 31.7832L27.3581 44.9751Z" fill="#F47653"/>
<path d="M26.6416 45.396L48.0985 64.3433L53.0476 45.4607L41.033 35.0494L30.1255 32.2041L26.6416 45.396Z" fill="#EF6238"/>
<path d="M26.9666 0.193999V58.135H14.3009C11.5007 51.9594 9.80762 43.7144 9.80762 34.6288C9.80762 26.1575 13.1287 18.3976 16.8405 12.3836C21.4966 4.81764 26.7712 0 26.7712 0C26.7712 0 26.8364 0.0646663 26.9666 0.193999Z" fill="#332E30"/>
<path d="M44.1593 34.6288C44.1593 43.6821 42.4662 51.9594 39.6661 58.135H26.9678V0.193999C27.1306 0.0646663 27.1957 0 27.1957 0C27.1957 0 32.4704 4.81764 37.1264 12.4159C40.8382 18.4299 44.1593 26.1575 44.1593 34.6288Z" fill="#231F20"/>
<path d="M39.6007 58.2324C39.1123 59.8491 38.5262 61.3687 37.875 62.7591H16.0274C15.3762 61.3687 14.7902 59.8491 14.3018 58.2324H39.6007Z" fill="white"/>
<path d="M26.9663 0.193999V15.7139C23.0591 15.7139 19.5101 14.4529 16.8076 12.3836C21.4962 4.81764 26.7709 0 26.7709 0C26.7709 0 26.836 0.0646663 26.9663 0.193999Z" fill="#F7755C"/>
<path d="M26.999 0.193999V15.7139C30.9062 15.7139 34.4552 14.4529 37.1577 12.3836C32.5016 4.81764 27.2269 0 27.2269 0C27.2269 0 27.1293 0.0646663 26.999 0.193999Z" fill="#EF6238"/>
<path d="M27.0002 19.2383V34.4025C22.7674 34.4025 19.3486 31.0076 19.3486 26.8042C19.3812 22.6333 22.8 19.2383 27.0002 19.2383Z" fill="#F47653"/>
<path d="M27.001 19.2383V34.4025C31.2337 34.4025 34.6525 31.0076 34.6525 26.8042C34.6525 22.6333 31.2337 19.2383 27.001 19.2383Z" fill="#EF6238"/>
<path d="M29.4966 32.7405C32.779 31.3711 34.3221 27.6186 32.9431 24.359C31.5641 21.0995 27.7853 19.5672 24.5029 20.9365C21.2205 22.3059 19.6775 26.0584 21.0564 29.318C22.4354 32.5776 26.2142 34.1099 29.4966 32.7405Z" fill="white"/>
<path d="M27.0324 39.4141L26.9673 76.8559C26.9673 76.8559 20.7158 62.4999 21.9856 51.2803C22.8648 43.8437 27.0324 39.4141 27.0324 39.4141Z" fill="#F47856"/>
<path d="M26.999 39.4141L27.0641 76.8559C27.0641 76.8559 33.3156 62.4999 32.0458 51.2803C31.1667 43.8437 26.999 39.4141 26.999 39.4141Z" fill="#EF6238"/>
</g>
<defs>
<clipPath id="clip0_298_5923">
<rect width="52.0956" height="73.7353" fill="white" transform="translate(0.952148)"/>
</clipPath>
</defs>
</svg>
