<svg width="48" height="68" viewBox="0 0 48 68" fill="none" xmlns="http://www.w3.org/2000/svg">
<g clip-path="url(#clip0_298_5993)">
<path d="M34.1994 46.2406C33.6905 46.2406 33.1863 46.1547 32.6966 45.9827L32.0676 45.7629L31.7219 46.3314C31.0546 47.4301 30.0031 48.161 28.7595 48.395C28.4907 48.4476 28.217 48.4715 27.9433 48.4715C26.9686 48.4715 26.0372 48.1514 25.245 47.5495L24.7168 47.1483L24.2127 47.583C23.3869 48.2947 22.3834 48.6721 21.3127 48.6721C21.1255 48.6721 20.9382 48.6626 20.7558 48.6387C19.5026 48.481 18.4079 47.8123 17.6733 46.7566L17.294 46.212L16.6794 46.4699C16.1177 46.704 15.5271 46.8234 14.9318 46.8234C14.2836 46.8234 13.6546 46.6849 13.0641 46.4078C11.9214 45.8728 11.0859 44.8983 10.721 43.6706L10.625 43.3506V54.8869V67.0682C10.625 67.7942 11.4172 68.2385 12.0414 67.8707L23.5213 61.097C23.819 60.9202 24.1839 60.9202 24.4816 61.097L35.9471 67.8707C36.5713 68.2385 37.3635 67.7895 37.3635 67.0682V54.8869V44.8983C37.0562 45.2136 36.7009 45.4859 36.3024 45.7056C35.6494 46.0591 34.9436 46.2406 34.1994 46.2406Z" fill="#EF6238"/>
<path d="M46.8705 24.41L46.0735 23.4928C45.7278 23.0963 45.7038 22.3511 46.0255 21.9307L46.7649 20.9705C47.2114 20.3878 47.3842 19.6855 47.2498 18.9881C47.1154 18.2907 46.6976 17.6983 46.0687 17.3209L45.0268 16.6952C44.5755 16.4229 44.321 15.7207 44.4986 15.2239L44.902 14.0822C45.1468 13.3943 45.094 12.6682 44.7483 12.0472C44.4074 11.4262 43.8217 10.9915 43.1063 10.8243L41.9203 10.5472C41.4066 10.4278 40.9457 9.84022 40.9601 9.31476L40.9889 8.10618C41.0081 7.37531 40.7296 6.70654 40.2111 6.21929C39.7501 5.78936 39.1452 5.55051 38.5018 5.55051C38.425 5.55051 38.3482 5.55529 38.2713 5.56006L37.0614 5.66038C37.0374 5.66038 37.0086 5.66516 36.9846 5.66516C36.4661 5.66516 35.9091 5.25912 35.7651 4.78142L35.4194 3.62062C35.2081 2.91841 34.7376 2.36905 34.0942 2.06333C33.7629 1.90569 33.4124 1.82926 33.0475 1.82926C32.7066 1.82926 32.3705 1.89614 32.0441 2.03467L30.9253 2.50281C30.8005 2.55536 30.6565 2.58402 30.5028 2.58402C30.0659 2.58402 29.6338 2.37861 29.4177 2.06811L28.7263 1.0745C28.3086 0.472602 27.6893 0.0904447 26.9835 0.00445941C26.8778 -0.00987148 26.7722 -0.0146484 26.6714 -0.0146484C26.0712 -0.0146484 25.4999 0.200315 25.0293 0.606356L24.1075 1.39933C23.9058 1.5713 23.6082 1.67162 23.2865 1.67162C23.0032 1.67162 22.7295 1.59041 22.5423 1.4471L21.5772 0.71145C21.1259 0.367508 20.5929 0.185984 20.0456 0.185984C19.8919 0.185984 19.7383 0.200315 19.5847 0.228977C18.8837 0.362731 18.2883 0.778327 17.909 1.40411L17.28 2.44071C17.0736 2.78465 16.6078 3.0235 16.1517 3.0235C16.0269 3.0235 15.9069 3.00439 15.8012 2.96617L14.6633 2.57924C14.38 2.47892 14.0872 2.43116 13.7991 2.43116C13.3814 2.43116 12.9877 2.53147 12.618 2.7321C11.9938 3.07127 11.5569 3.65406 11.3888 4.36582L11.1103 5.54573C10.9903 6.05687 10.419 6.50113 9.88601 6.50113H9.86681L8.65208 6.47246C8.62807 6.47246 8.60407 6.47246 8.58006 6.47246C7.87427 6.47246 7.22609 6.74475 6.75556 7.24633C6.26583 7.76224 6.03537 8.44535 6.09778 9.17622L6.19861 10.38C6.24182 10.9055 5.82411 11.5217 5.31517 11.6698L4.14845 12.0137C3.44266 12.2239 2.89051 12.6921 2.58323 13.3322C2.28074 13.9723 2.27114 14.6984 2.55442 15.3719L3.02495 16.485C3.2314 16.9722 3.02014 17.684 2.58323 17.9849L1.58455 18.6728C0.979589 19.0884 0.595484 19.7046 0.50906 20.4069C0.427438 21.1043 0.643497 21.797 1.12363 22.3511L1.92064 23.2635C2.26634 23.66 2.29035 24.4052 1.96866 24.8255L1.22926 25.7857C0.782735 26.3685 0.609888 27.0707 0.744324 27.7682C0.878761 28.4656 1.29647 29.0579 1.92545 29.4353L2.96733 30.0611C3.41865 30.3334 3.67312 31.0356 3.49547 31.5324L3.09216 32.6693C2.8473 33.3572 2.90011 34.0833 3.24581 34.7043C3.5867 35.3253 4.17246 35.76 4.88785 35.9272L6.07378 36.2043C6.58752 36.3237 7.04844 36.9113 7.03404 37.4367L7.00523 38.6453C6.98603 39.3762 7.2645 40.0449 7.78304 40.5322C8.24397 40.9621 8.84893 41.1962 9.49231 41.1962C9.56913 41.1962 9.64595 41.1914 9.72277 41.1866L10.9327 41.0863C10.9567 41.0863 10.9855 41.0815 11.0095 41.0815C11.24 41.0815 11.48 41.1628 11.6865 41.2965C11.941 41.4589 12.1474 41.7025 12.2291 41.9653L12.5747 43.1261C12.786 43.8283 13.2565 44.3776 13.8999 44.6834C14.2312 44.841 14.5817 44.9174 14.9466 44.9174C15.2875 44.9174 15.6236 44.8506 15.9501 44.712L17.0688 44.2439C17.1936 44.1913 17.3376 44.1627 17.4913 44.1627C17.9234 44.1627 18.3603 44.3681 18.5764 44.6786L19.2678 45.677C19.6855 46.2789 20.3049 46.661 21.0106 46.747C21.1163 46.7613 21.2219 46.7661 21.3227 46.7661C21.9229 46.7661 22.4942 46.5512 22.9648 46.1451L23.8866 45.3521C24.0883 45.1802 24.386 45.0799 24.7077 45.0799C24.9909 45.0799 25.2646 45.1611 25.4519 45.3044L26.4169 46.04C26.8682 46.384 27.4012 46.5655 27.9485 46.5655C28.1022 46.5655 28.2558 46.5512 28.4095 46.5225C29.1105 46.3887 29.7058 45.9731 30.0851 45.3474L30.7141 44.3108C30.9205 43.9668 31.3863 43.728 31.8424 43.728C31.9672 43.728 32.0873 43.7471 32.1929 43.7853L33.3404 44.1866C33.6237 44.2869 33.9166 44.3347 34.2046 44.3347C34.6224 44.3347 35.0161 44.2343 35.3858 44.0337C36.0099 43.6945 36.4468 43.1118 36.6149 42.4L36.8502 41.3873L36.8886 41.2201C37.0038 40.7185 37.5848 40.2647 38.1081 40.2647H38.1273L39.342 40.2933C39.3612 40.2933 39.3805 40.2933 39.3997 40.2933C40.1102 40.2933 40.7632 40.0211 41.2386 39.5195C41.7283 39.0036 41.9588 38.3205 41.8963 37.5896L41.7955 36.3858C41.7523 35.8603 42.17 35.2441 42.6789 35.096L43.8457 34.7521C44.5515 34.5419 45.1036 34.0737 45.4109 33.4336C45.7134 32.7935 45.723 32.0674 45.4397 31.3939L44.9692 30.2808C44.7627 29.7936 44.974 29.0818 45.4061 28.7809L46.4048 28.093C47.0097 27.6774 47.3938 27.0612 47.4803 26.3589C47.5667 25.6567 47.3554 24.9641 46.8705 24.41ZM23.9971 42.3809C13.4678 42.3809 4.90226 33.8588 4.90226 23.3829C4.90226 12.907 13.4678 4.38493 23.9971 4.38493C34.5263 4.38493 43.0919 12.907 43.0919 23.3829C43.0967 33.8588 34.5311 42.3809 23.9971 42.3809Z" fill="black"/>
<path d="M36.1987 35.5196C42.9374 28.815 42.9374 17.9447 36.1987 11.2401C29.4599 4.53551 18.5342 4.53551 11.7954 11.2401C5.05661 17.9447 5.05661 28.815 11.7954 35.5196C18.5342 42.2243 29.4599 42.2243 36.1987 35.5196Z" fill="#EF6238"/>
<path d="M34.5068 16.8532C34.406 16.1701 34.0459 15.5682 33.4937 15.1526C33.0424 14.8135 32.5046 14.6367 31.9381 14.6367C31.1219 14.6367 30.3441 15.0237 29.8591 15.6733L22.4219 25.5616L18.6193 21.463C18.1295 20.9375 17.4334 20.6318 16.7132 20.6318C16.0602 20.6318 15.4312 20.8754 14.9511 21.3197C13.8996 22.2846 13.8324 23.9231 14.807 24.9693L20.5974 31.2032C20.8231 31.4468 21.0919 31.6427 21.3992 31.786C21.7881 32.0057 22.2299 32.1252 22.6764 32.1252C23.4926 32.1252 24.2704 31.7382 24.7553 31.0886L34.0219 18.7688C34.43 18.2147 34.6028 17.5363 34.5068 16.8532Z" fill="white"/>
</g>
<defs>
<clipPath id="clip0_298_5993">
<rect width="47" height="68" fill="white" transform="translate(0.5)"/>
</clipPath>
</defs>
</svg>
