<svg width="81" height="64" viewBox="0 0 81 64" fill="none" xmlns="http://www.w3.org/2000/svg">
<g clip-path="url(#clip0_298_6267)">
<path d="M61.8861 33.075C61.8861 33.075 61.2803 30.0243 59.9889 29.562C58.6976 29.0996 59.1585 30.8046 59.6786 31.37C60.1987 31.9325 61.8447 33.4932 61.8447 33.4932L61.8861 33.075Z" fill="#9DB8FF"/>
<path d="M58.9221 35.2805C58.9221 35.2805 57.876 31.1579 57.0515 31.7821C56.227 32.4064 56.4723 33.3958 57.22 34.2204C57.9676 35.0449 58.4907 35.5632 58.4907 35.5632L58.9635 35.4601L58.9221 35.2805Z" fill="#BBCEFF"/>
<path d="M58.175 36.1197C58.175 36.1197 61.1951 36.0637 61.1921 37.0797C61.1892 38.0956 60.4593 38.2546 59.3482 37.9631C58.2371 37.6715 57.3564 36.6321 57.3564 36.6321L58.175 36.1197Z" fill="#BBCEFF"/>
<path d="M59.7025 14.0936C59.7025 14.0936 59.0967 11.0428 57.8053 10.5805C56.514 10.1182 56.975 11.8232 57.495 12.3886C58.0151 12.951 59.6611 14.5117 59.6611 14.5117L59.7025 14.0936Z" fill="#9DB8FF"/>
<path d="M56.7384 16.299C56.7384 16.299 55.6924 12.1764 54.8679 12.8007C54.0434 13.425 54.2887 14.4144 55.0363 15.2389C55.784 16.0634 56.307 16.5817 56.307 16.5817L56.7798 16.4786L56.7384 16.299Z" fill="#BBCEFF"/>
<path d="M55.9914 17.1382C55.9914 17.1382 59.0115 17.0823 59.0085 18.0982C59.0056 19.1141 58.2757 19.2732 57.1646 18.9816C56.0535 18.6901 55.1729 17.6506 55.1729 17.6506L55.9914 17.1382Z" fill="#BBCEFF"/>
<path d="M60.4705 59.1913H1.44614C0.701465 59.1913 0.0986328 58.5906 0.0986328 57.8485V12.126C0.0986328 11.3839 0.701465 10.7832 1.44614 10.7832H60.4705C61.2152 10.7832 61.818 11.3839 61.818 12.126V57.8514C61.8151 58.5906 61.2122 59.1913 60.4705 59.1913Z" fill="black"/>
<path d="M58.3403 57.0829H3.57412C2.9506 57.0829 2.44824 56.5794 2.44824 55.961V21.4696C2.44824 20.8483 2.95356 20.3477 3.57412 20.3477H58.3433C58.9668 20.3477 59.4691 20.8512 59.4691 21.4696V55.958C59.4691 56.5794 58.9638 57.0829 58.3403 57.0829Z" fill="white"/>
<path d="M11.6801 28.8462H8.15765C7.56664 28.8462 7.08496 28.3662 7.08496 27.7773V24.2672C7.08496 23.6782 7.56664 23.1982 8.15765 23.1982H11.6801C12.2711 23.1982 12.7528 23.6782 12.7528 24.2672V27.7773C12.7557 28.3662 12.274 28.8462 11.6801 28.8462ZM8.15765 23.5487C7.76167 23.5487 7.43957 23.8696 7.43957 24.2642V27.7743C7.43957 28.1689 7.76167 28.4899 8.15765 28.4899H11.6801C12.0761 28.4899 12.3982 28.1689 12.3982 27.7743V24.2672C12.3982 23.8726 12.0761 23.5516 11.6801 23.5516H8.15765V23.5487Z" fill="#E9EAEB"/>
<path d="M20.1049 28.8462H16.5795C15.9885 28.8462 15.5068 28.3662 15.5068 27.7773V24.2672C15.5068 23.6782 15.9885 23.1982 16.5795 23.1982H20.1049C20.6959 23.1982 21.1776 23.6782 21.1776 24.2672V27.7773C21.1776 28.3662 20.6959 28.8462 20.1049 28.8462ZM16.5795 23.5487C16.1835 23.5487 15.8614 23.8696 15.8614 24.2642V27.7743C15.8614 28.1689 16.1835 28.4899 16.5795 28.4899H20.1049C20.5009 28.4899 20.823 28.1689 20.823 27.7743V24.2672C20.823 23.8726 20.5009 23.5516 20.1049 23.5516H16.5795V23.5487Z" fill="#E9EAEB"/>
<path d="M28.4233 28.8462H24.8979C24.3069 28.8462 23.8252 28.3662 23.8252 27.7773V24.2672C23.8252 23.6782 24.3069 23.1982 24.8979 23.1982H28.4203C29.0113 23.1982 29.493 23.6782 29.493 24.2672V27.7773C29.496 28.3662 29.0143 28.8462 28.4233 28.8462ZM24.8979 23.5487C24.5019 23.5487 24.1798 23.8696 24.1798 24.2642V27.7743C24.1798 28.1689 24.5019 28.4899 24.8979 28.4899H28.4203C28.8163 28.4899 29.1384 28.1689 29.1384 27.7743V24.2672C29.1384 23.8726 28.8163 23.5516 28.4203 23.5516H24.8979V23.5487Z" fill="#E9EAEB"/>
<path d="M36.8461 28.8462H33.3237C32.7327 28.8462 32.251 28.3662 32.251 27.7773V24.2672C32.251 23.6782 32.7327 23.1982 33.3237 23.1982H36.8461C37.4371 23.1982 37.9188 23.6782 37.9188 24.2672V27.7773C37.9188 28.3662 37.4371 28.8462 36.8461 28.8462ZM33.3207 23.5487C32.9247 23.5487 32.6026 23.8696 32.6026 24.2642V27.7743C32.6026 28.1689 32.9247 28.4899 33.3207 28.4899H36.8431C37.2391 28.4899 37.5612 28.1689 37.5612 27.7743V24.2672C37.5612 23.8726 37.2391 23.5516 36.8431 23.5516H33.3207V23.5487Z" fill="#E9EAEB"/>
<path d="M45.4379 28.8462H41.9155C41.3244 28.8462 40.8428 28.3662 40.8428 27.7773V24.2672C40.8428 23.6782 41.3244 23.1982 41.9155 23.1982H45.4379C46.0289 23.1982 46.5106 23.6782 46.5106 24.2672V27.7773C46.5106 28.3662 46.0289 28.8462 45.4379 28.8462ZM41.9155 23.5487C41.5195 23.5487 41.1974 23.8696 41.1974 24.2642V27.7743C41.1974 28.1689 41.5195 28.4899 41.9155 28.4899H45.4379C45.8339 28.4899 46.156 28.1689 46.156 27.7743V24.2672C46.156 23.8726 45.8339 23.5516 45.4379 23.5516H41.9155V23.5487Z" fill="#E9EAEB"/>
<path d="M53.7563 28.8462H50.2338C49.6428 28.8462 49.1611 28.3662 49.1611 27.7773V24.2672C49.1611 23.6782 49.6428 23.1982 50.2338 23.1982H53.7563C54.3473 23.1982 54.8289 23.6782 54.8289 24.2672V27.7773C54.8289 28.3662 54.3502 28.8462 53.7563 28.8462ZM50.2338 23.5487C49.8378 23.5487 49.5157 23.8696 49.5157 24.2642V27.7743C49.5157 28.1689 49.8378 28.4899 50.2338 28.4899H53.7563C54.1522 28.4899 54.4743 28.1689 54.4743 27.7743V24.2672C54.4743 23.8726 54.1522 23.5516 53.7563 23.5516H50.2338V23.5487Z" fill="#E9EAEB"/>
<path d="M11.6801 36.9644H8.15765C7.56664 36.9644 7.08496 36.4844 7.08496 35.8954V32.3853C7.08496 31.7964 7.56664 31.3164 8.15765 31.3164H11.6801C12.2711 31.3164 12.7528 31.7964 12.7528 32.3853V35.8954C12.7557 36.4844 12.274 36.9644 11.6801 36.9644ZM8.15765 31.6668C7.76167 31.6668 7.43957 31.9878 7.43957 32.3824V35.8925C7.43957 36.2871 7.76167 36.608 8.15765 36.608H11.6801C12.0761 36.608 12.3982 36.2871 12.3982 35.8925V32.3824C12.3982 31.9878 12.0761 31.6668 11.6801 31.6668H8.15765Z" fill="#E9EAEB"/>
<path d="M20.1049 36.9644H16.5795C15.9885 36.9644 15.5068 36.4844 15.5068 35.8954V32.3853C15.5068 31.7964 15.9885 31.3164 16.5795 31.3164H20.1049C20.6959 31.3164 21.1776 31.7964 21.1776 32.3853V35.8954C21.1776 36.4844 20.6959 36.9644 20.1049 36.9644ZM16.5795 31.6668C16.1835 31.6668 15.8614 31.9878 15.8614 32.3824V35.8925C15.8614 36.2871 16.1835 36.608 16.5795 36.608H20.1049C20.5009 36.608 20.823 36.2871 20.823 35.8925V32.3824C20.823 31.9878 20.5009 31.6668 20.1049 31.6668H16.5795Z" fill="#E9EAEB"/>
<path d="M28.4233 36.9644H24.8979C24.3069 36.9644 23.8252 36.4844 23.8252 35.8954V32.3853C23.8252 31.7964 24.3069 31.3164 24.8979 31.3164H28.4203C29.0113 31.3164 29.493 31.7964 29.493 32.3853V35.8954C29.496 36.4844 29.0143 36.9644 28.4233 36.9644ZM24.8979 31.6668C24.5019 31.6668 24.1798 31.9878 24.1798 32.3824V35.8925C24.1798 36.2871 24.5019 36.608 24.8979 36.608H28.4203C28.8163 36.608 29.1384 36.2871 29.1384 35.8925V32.3824C29.1384 31.9878 28.8163 31.6668 28.4203 31.6668H24.8979Z" fill="#E9EAEB"/>
<path d="M36.8461 36.9644H33.3237C32.7327 36.9644 32.251 36.4844 32.251 35.8954V32.3853C32.251 31.7964 32.7327 31.3164 33.3237 31.3164H36.8461C37.4371 31.3164 37.9188 31.7964 37.9188 32.3853V35.8954C37.9188 36.4844 37.4371 36.9644 36.8461 36.9644ZM33.3207 31.6668C32.9247 31.6668 32.6026 31.9878 32.6026 32.3824V35.8925C32.6026 36.2871 32.9247 36.608 33.3207 36.608H36.8431C37.2391 36.608 37.5612 36.2871 37.5612 35.8925V32.3824C37.5612 31.9878 37.2391 31.6668 36.8431 31.6668H33.3207Z" fill="#E9EAEB"/>
<path d="M45.4379 36.9644H41.9155C41.3244 36.9644 40.8428 36.4844 40.8428 35.8954V32.3853C40.8428 31.7964 41.3244 31.3164 41.9155 31.3164H45.4379C46.0289 31.3164 46.5106 31.7964 46.5106 32.3853V35.8954C46.5106 36.4844 46.0289 36.9644 45.4379 36.9644ZM41.9155 31.6668C41.5195 31.6668 41.1974 31.9878 41.1974 32.3824V35.8925C41.1974 36.2871 41.5195 36.608 41.9155 36.608H45.4379C45.8339 36.608 46.156 36.2871 46.156 35.8925V32.3824C46.156 31.9878 45.8339 31.6668 45.4379 31.6668H41.9155Z" fill="#E9EAEB"/>
<path d="M53.7563 36.9644H50.2338C49.6428 36.9644 49.1611 36.4844 49.1611 35.8954V32.3853C49.1611 31.7964 49.6428 31.3164 50.2338 31.3164H53.7563C54.3473 31.3164 54.8289 31.7964 54.8289 32.3853V35.8954C54.8289 36.4844 54.3502 36.9644 53.7563 36.9644ZM50.2338 31.6668C49.8378 31.6668 49.5157 31.9878 49.5157 32.3824V35.8925C49.5157 36.2871 49.8378 36.608 50.2338 36.608H53.7563C54.1522 36.608 54.4743 36.2871 54.4743 35.8925V32.3824C54.4743 31.9878 54.1522 31.6668 53.7563 31.6668H50.2338Z" fill="#E9EAEB"/>
<path d="M11.6801 45.0835H8.15765C7.56664 45.0835 7.08496 44.6035 7.08496 44.0146V40.5045C7.08496 39.9155 7.56664 39.4355 8.15765 39.4355H11.6801C12.2711 39.4355 12.7528 39.9155 12.7528 40.5045V44.0146C12.7557 44.6035 12.274 45.0835 11.6801 45.0835ZM8.15765 39.786C7.76167 39.786 7.43957 40.1069 7.43957 40.5015V44.0116C7.43957 44.4062 7.76167 44.7272 8.15765 44.7272H11.6801C12.0761 44.7272 12.3982 44.4062 12.3982 44.0116V40.5015C12.3982 40.1069 12.0761 39.786 11.6801 39.786H8.15765Z" fill="#E9EAEB"/>
<path d="M20.1049 45.0835H16.5795C15.9885 45.0835 15.5068 44.6035 15.5068 44.0146V40.5045C15.5068 39.9155 15.9885 39.4355 16.5795 39.4355H20.1049C20.6959 39.4355 21.1776 39.9155 21.1776 40.5045V44.0146C21.1776 44.6035 20.6959 45.0835 20.1049 45.0835ZM16.5795 39.786C16.1835 39.786 15.8614 40.1069 15.8614 40.5015V44.0116C15.8614 44.4062 16.1835 44.7272 16.5795 44.7272H20.1049C20.5009 44.7272 20.823 44.4062 20.823 44.0116V40.5015C20.823 40.1069 20.5009 39.786 20.1049 39.786H16.5795Z" fill="#E9EAEB"/>
<path d="M28.4233 45.0835H24.8979C24.3069 45.0835 23.8252 44.6035 23.8252 44.0146V40.5045C23.8252 39.9155 24.3069 39.4355 24.8979 39.4355H28.4203C29.0113 39.4355 29.493 39.9155 29.493 40.5045V44.0146C29.496 44.6035 29.0143 45.0835 28.4233 45.0835ZM24.8979 39.786C24.5019 39.786 24.1798 40.1069 24.1798 40.5015V44.0116C24.1798 44.4062 24.5019 44.7272 24.8979 44.7272H28.4203C28.8163 44.7272 29.1384 44.4062 29.1384 44.0116V40.5015C29.1384 40.1069 28.8163 39.786 28.4203 39.786H24.8979Z" fill="#E9EAEB"/>
<path d="M36.8461 45.0835H33.3237C32.7327 45.0835 32.251 44.6035 32.251 44.0146V40.5045C32.251 39.9155 32.7327 39.4355 33.3237 39.4355H36.8461C37.4371 39.4355 37.9188 39.9155 37.9188 40.5045V44.0146C37.9188 44.6035 37.4371 45.0835 36.8461 45.0835ZM33.3207 39.786C32.9247 39.786 32.6026 40.1069 32.6026 40.5015V44.0116C32.6026 44.4062 32.9247 44.7272 33.3207 44.7272H36.8431C37.2391 44.7272 37.5612 44.4062 37.5612 44.0116V40.5015C37.5612 40.1069 37.2391 39.786 36.8431 39.786H33.3207Z" fill="#E9EAEB"/>
<path d="M45.4379 45.0835H41.9155C41.3244 45.0835 40.8428 44.6035 40.8428 44.0146V40.5045C40.8428 39.9155 41.3244 39.4355 41.9155 39.4355H45.4379C46.0289 39.4355 46.5106 39.9155 46.5106 40.5045V44.0146C46.5106 44.6035 46.0289 45.0835 45.4379 45.0835ZM41.9155 39.786C41.5195 39.786 41.1974 40.1069 41.1974 40.5015V44.0116C41.1974 44.4062 41.5195 44.7272 41.9155 44.7272H45.4379C45.8339 44.7272 46.156 44.4062 46.156 44.0116V40.5015C46.156 40.1069 45.8339 39.786 45.4379 39.786H41.9155Z" fill="#E9EAEB"/>
<path d="M53.7563 45.0835H50.2338C49.6428 45.0835 49.1611 44.6035 49.1611 44.0146V40.5045C49.1611 39.9155 49.6428 39.4355 50.2338 39.4355H53.7563C54.3473 39.4355 54.8289 39.9155 54.8289 40.5045V44.0146C54.8289 44.6035 54.3502 45.0835 53.7563 45.0835ZM50.2338 39.786C49.8378 39.786 49.5157 40.1069 49.5157 40.5015V44.0116C49.5157 44.4062 49.8378 44.7272 50.2338 44.7272H53.7563C54.1522 44.7272 54.4743 44.4062 54.4743 44.0116V40.5015C54.4743 40.1069 54.1522 39.786 53.7563 39.786H50.2338Z" fill="#E9EAEB"/>
<path d="M11.6801 53.1987H8.15765C7.56664 53.1987 7.08496 52.7187 7.08496 52.1298V48.6197C7.08496 48.0308 7.56664 47.5508 8.15765 47.5508H11.6801C12.2711 47.5508 12.7528 48.0308 12.7528 48.6197V52.1298C12.7557 52.7187 12.274 53.1987 11.6801 53.1987ZM8.15765 47.9012C7.76167 47.9012 7.43957 48.2222 7.43957 48.6168V52.1269C7.43957 52.5214 7.76167 52.8424 8.15765 52.8424H11.6801C12.0761 52.8424 12.3982 52.5214 12.3982 52.1269V48.6168C12.3982 48.2222 12.0761 47.9012 11.6801 47.9012H8.15765Z" fill="#E9EAEB"/>
<path d="M20.1049 53.1987H16.5795C15.9885 53.1987 15.5068 52.7187 15.5068 52.1298V48.6197C15.5068 48.0308 15.9885 47.5508 16.5795 47.5508H20.1049C20.6959 47.5508 21.1776 48.0308 21.1776 48.6197V52.1298C21.1776 52.7187 20.6959 53.1987 20.1049 53.1987ZM16.5795 47.9012C16.1835 47.9012 15.8614 48.2222 15.8614 48.6168V52.1269C15.8614 52.5214 16.1835 52.8424 16.5795 52.8424H20.1049C20.5009 52.8424 20.823 52.5214 20.823 52.1269V48.6168C20.823 48.2222 20.5009 47.9012 20.1049 47.9012H16.5795Z" fill="#E9EAEB"/>
<path d="M28.4233 53.1987H24.8979C24.3069 53.1987 23.8252 52.7187 23.8252 52.1298V48.6197C23.8252 48.0308 24.3069 47.5508 24.8979 47.5508H28.4203C29.0113 47.5508 29.493 48.0308 29.493 48.6197V52.1298C29.496 52.7187 29.0143 53.1987 28.4233 53.1987ZM24.8979 47.9012C24.5019 47.9012 24.1798 48.2222 24.1798 48.6168V52.1269C24.1798 52.5214 24.5019 52.8424 24.8979 52.8424H28.4203C28.8163 52.8424 29.1384 52.5214 29.1384 52.1269V48.6168C29.1384 48.2222 28.8163 47.9012 28.4203 47.9012H24.8979Z" fill="#E9EAEB"/>
<path d="M36.8461 53.1987H33.3237C32.7327 53.1987 32.251 52.7187 32.251 52.1298V48.6197C32.251 48.0308 32.7327 47.5508 33.3237 47.5508H36.8461C37.4371 47.5508 37.9188 48.0308 37.9188 48.6197V52.1298C37.9188 52.7187 37.4371 53.1987 36.8461 53.1987ZM33.3207 47.9012C32.9247 47.9012 32.6026 48.2222 32.6026 48.6168V52.1269C32.6026 52.5214 32.9247 52.8424 33.3207 52.8424H36.8431C37.2391 52.8424 37.5612 52.5214 37.5612 52.1269V48.6168C37.5612 48.2222 37.2391 47.9012 36.8431 47.9012H33.3207Z" fill="#E9EAEB"/>
<path d="M45.4379 53.1987H41.9155C41.3244 53.1987 40.8428 52.7187 40.8428 52.1298V48.6197C40.8428 48.0308 41.3244 47.5508 41.9155 47.5508H45.4379C46.0289 47.5508 46.5106 48.0308 46.5106 48.6197V52.1298C46.5106 52.7187 46.0289 53.1987 45.4379 53.1987ZM41.9155 47.9012C41.5195 47.9012 41.1974 48.2222 41.1974 48.6168V52.1269C41.1974 52.5214 41.5195 52.8424 41.9155 52.8424H45.4379C45.8339 52.8424 46.156 52.5214 46.156 52.1269V48.6168C46.156 48.2222 45.8339 47.9012 45.4379 47.9012H41.9155Z" fill="#E9EAEB"/>
<path d="M53.7563 53.1987H50.2338C49.6428 53.1987 49.1611 52.7187 49.1611 52.1298V48.6197C49.1611 48.0308 49.6428 47.5508 50.2338 47.5508H53.7563C54.3473 47.5508 54.8289 48.0308 54.8289 48.6197V52.1298C54.8289 52.7187 54.3502 53.1987 53.7563 53.1987ZM50.2338 47.9012C49.8378 47.9012 49.5157 48.2222 49.5157 48.6168V52.1269C49.5157 52.5214 49.8378 52.8424 50.2338 52.8424H53.7563C54.1522 52.8424 54.4743 52.5214 54.4743 52.1269V48.6168C54.4743 48.2222 54.1522 47.9012 53.7563 47.9012H50.2338Z" fill="#E9EAEB"/>
<path d="M6.56944 17.0262C7.83264 17.0262 8.85666 16.0057 8.85666 14.747C8.85666 13.4882 7.83264 12.4678 6.56944 12.4678C5.30625 12.4678 4.28223 13.4882 4.28223 14.747C4.28223 16.0057 5.30625 17.0262 6.56944 17.0262Z" fill="white"/>
<path d="M14.7433 17.0262C16.0065 17.0262 17.0305 16.0057 17.0305 14.747C17.0305 13.4882 16.0065 12.4678 14.7433 12.4678C13.4801 12.4678 12.4561 13.4882 12.4561 14.747C12.4561 16.0057 13.4801 17.0262 14.7433 17.0262Z" fill="white"/>
<path d="M23.1066 17.0262C24.3697 17.0262 25.3938 16.0057 25.3938 14.747C25.3938 13.4882 24.3697 12.4678 23.1066 12.4678C21.8434 12.4678 20.8193 13.4882 20.8193 14.747C20.8193 16.0057 21.8434 17.0262 23.1066 17.0262Z" fill="white"/>
<path d="M31.2804 17.0262C32.5436 17.0262 33.5676 16.0057 33.5676 14.747C33.5676 13.4882 32.5436 12.4678 31.2804 12.4678C30.0172 12.4678 28.9932 13.4882 28.9932 14.747C28.9932 16.0057 30.0172 17.0262 31.2804 17.0262Z" fill="white"/>
<path d="M39.3448 17.0262C40.608 17.0262 41.6321 16.0057 41.6321 14.747C41.6321 13.4882 40.608 12.4678 39.3448 12.4678C38.0816 12.4678 37.0576 13.4882 37.0576 14.747C37.0576 16.0057 38.0816 17.0262 39.3448 17.0262Z" fill="white"/>
<path d="M47.5187 17.0262C48.7819 17.0262 49.8059 16.0057 49.8059 14.747C49.8059 13.4882 48.7819 12.4678 47.5187 12.4678C46.2555 12.4678 45.2314 13.4882 45.2314 14.747C45.2314 16.0057 46.2555 17.0262 47.5187 17.0262Z" fill="white"/>
<path d="M55.1632 17.0262C56.4264 17.0262 57.4504 16.0057 57.4504 14.747C57.4504 13.4882 56.4264 12.4678 55.1632 12.4678C53.9 12.4678 52.876 13.4882 52.876 14.747C52.876 16.0057 53.9 17.0262 55.1632 17.0262Z" fill="white"/>
<path d="M6.85603 6.2002C5.93996 6.2002 5.19824 6.93932 5.19824 7.85218V13.1026C5.19824 14.0155 5.93996 14.7546 6.85603 14.7546C7.7721 14.7546 8.51382 14.0155 8.51382 13.1026V7.85218C8.51382 6.93932 7.7721 6.2002 6.85603 6.2002Z" fill="#EF6238"/>
<path d="M14.8502 6.2002C13.9341 6.2002 13.1924 6.93932 13.1924 7.85218V13.1026C13.1924 14.0155 13.9341 14.7546 14.8502 14.7546C15.7662 14.7546 16.508 14.0155 16.508 13.1026V7.85218C16.505 6.93932 15.7633 6.2002 14.8502 6.2002Z" fill="#EF6238"/>
<path d="M23.2799 6.2002C22.3638 6.2002 21.6221 6.93932 21.6221 7.85218V13.1026C21.6221 14.0155 22.3638 14.7546 23.2799 14.7546C24.1959 14.7546 24.9376 14.0155 24.9376 13.1026V7.85218C24.9347 6.93932 24.193 6.2002 23.2799 6.2002Z" fill="#EF6238"/>
<path d="M31.5064 6.2002C30.5904 6.2002 29.8486 6.93932 29.8486 7.85218V13.1026C29.8486 14.0155 30.5904 14.7546 31.5064 14.7546C32.4225 14.7546 33.1642 14.0155 33.1642 13.1026V7.85218C33.1613 6.93932 32.4195 6.2002 31.5064 6.2002Z" fill="#EF6238"/>
<path d="M39.5709 6.2002C38.6548 6.2002 37.9131 6.93932 37.9131 7.85218V13.1026C37.9131 14.0155 38.6548 14.7546 39.5709 14.7546C40.4869 14.7546 41.2287 14.0155 41.2287 13.1026V7.85218C41.2287 6.93932 40.4869 6.2002 39.5709 6.2002Z" fill="#EF6238"/>
<path d="M47.5611 6.2002C46.645 6.2002 45.9033 6.93932 45.9033 7.85218V13.1026C45.9033 14.0155 46.645 14.7546 47.5611 14.7546C48.4772 14.7546 49.2189 14.0155 49.2189 13.1026V7.85218C49.2189 6.93932 48.4772 6.2002 47.5611 6.2002Z" fill="#EF6238"/>
<path d="M55.2681 6.2002C54.3521 6.2002 53.6104 6.93932 53.6104 7.85218V13.1026C53.6104 14.0155 54.3521 14.7546 55.2681 14.7546C56.1842 14.7546 56.9259 14.0155 56.9259 13.1026V7.85218C56.923 6.93932 56.1813 6.2002 55.2681 6.2002Z" fill="#EF6238"/>
<path d="M70.6494 57.5488L72.2205 56.3496L75.6851 62.7877C75.8592 63.1096 75.6666 63.5765 75.2664 63.8347C74.8699 64.0894 74.403 64.0434 74.2252 63.7357L70.6494 57.5488Z" fill="black"/>
<path d="M51.099 57.5488L49.5279 56.3496L46.0633 62.7877C45.8892 63.1096 46.0819 63.5765 46.4821 63.8347C46.8785 64.0894 47.3454 64.0434 47.5233 63.7357L51.099 57.5488Z" fill="black"/>
<path d="M70.7198 33.9852L72.0186 35.0479L77.7436 28.0996L76.4448 27.037L70.7198 33.9852Z" fill="black"/>
<path d="M69.7979 27.289L78.4124 34.2504L78.7316 33.8684C80.6867 31.5265 80.3385 28.0708 77.959 26.1466C75.5796 24.2224 72.0685 24.5652 70.1134 26.907L69.7979 27.289Z" fill="#EF6238"/>
<path d="M45.3232 27.037L44.0244 28.0996L49.7494 35.0478L51.0482 33.9852L45.3232 27.037Z" fill="black"/>
<path d="M51.949 27.289L43.3345 34.2504L43.0153 33.8684C41.0602 31.5265 41.4084 28.0708 43.7879 26.1466C46.1673 24.2224 49.6784 24.5652 51.6335 26.907L51.949 27.289Z" fill="#EF6238"/>
<path d="M60.8732 64.0004C70.4968 64.0004 78.2982 56.199 78.2982 46.5754C78.2982 36.9518 70.4968 29.1504 60.8732 29.1504C51.2497 29.1504 43.4482 36.9518 43.4482 46.5754C43.4482 56.199 51.2497 64.0004 60.8732 64.0004Z" fill="#EF6238"/>
<path d="M60.8744 62.2996C69.5591 62.2996 76.5994 55.2593 76.5994 46.5746C76.5994 37.8899 69.5591 30.8496 60.8744 30.8496C52.1897 30.8496 45.1494 37.8899 45.1494 46.5746C45.1494 55.2593 52.1897 62.2996 60.8744 62.2996Z" fill="white"/>
<path d="M60.4486 46.1496C59.9799 46.1496 59.5986 45.7775 59.5986 45.3201V35.9291C59.5986 35.4717 59.9799 35.0996 60.4486 35.0996C60.9174 35.0996 61.2986 35.4717 61.2986 35.9291V45.3201C61.2986 45.7775 60.9209 46.1496 60.4486 46.1496Z" fill="black"/>
<path d="M65.2333 52.7871C64.8887 53.0609 64.4037 52.9822 64.1485 52.6125L60.6005 47.4776C60.3452 47.1079 60.4186 46.5876 60.7632 46.3137C61.1078 46.0399 61.5928 46.1186 61.848 46.4883L65.396 51.6232C65.6513 51.9929 65.5779 52.5132 65.2333 52.7871Z" fill="black"/>
<path d="M60.874 48.7002C62.0476 48.7002 62.999 47.7488 62.999 46.5752C62.999 45.4016 62.0476 44.4502 60.874 44.4502C59.7004 44.4502 58.749 45.4016 58.749 46.5752C58.749 47.7488 59.7004 48.7002 60.874 48.7002Z" fill="black"/>
<path d="M61.4967 32.6752C61.666 32.2679 61.4719 31.801 61.0632 31.6323C60.6544 31.4636 60.1858 31.657 60.0165 32.0643C59.8472 32.4716 60.0413 32.9385 60.4501 33.1072C60.8588 33.276 61.3274 33.0825 61.4967 32.6752Z" fill="black"/>
<path d="M61.5421 60.7212C61.6257 60.2882 61.3414 59.8697 60.9069 59.7863C60.4725 59.703 60.0525 59.9863 59.9689 60.4193C59.8852 60.8522 60.1696 61.2707 60.604 61.3541C61.0384 61.4374 61.4584 61.1541 61.5421 60.7212Z" fill="black"/>
<path d="M47.3482 46.7788C47.5175 46.3715 47.3234 45.9045 46.9147 45.7358C46.506 45.5671 46.0374 45.7605 45.8681 46.1678C45.6988 46.5751 45.8929 47.042 46.3016 47.2108C46.7103 47.3795 47.1789 47.1861 47.3482 46.7788Z" fill="black"/>
<path d="M75.6964 46.6196C75.7801 46.1867 75.4957 45.7681 75.0613 45.6848C74.6268 45.6014 74.2068 45.8848 74.1232 46.3177C74.0395 46.7506 74.3239 47.1691 74.7583 47.2525C75.1927 47.3359 75.6127 47.0525 75.6964 46.6196Z" fill="black"/>
<path d="M51.3114 55.8797C50.9981 55.5675 50.4926 55.5675 50.1793 55.8797C49.866 56.1919 49.866 56.6956 50.1793 57.0078C50.4926 57.32 50.9981 57.32 51.3114 57.0078C51.6247 56.6956 51.6247 56.1919 51.3114 55.8797Z" fill="black"/>
<path d="M71.3006 37.09C71.6278 36.7933 71.6518 36.2884 71.354 35.9623C71.0563 35.6362 70.5496 35.6124 70.2224 35.9091C69.8952 36.2058 69.8712 36.7106 70.169 37.0367C70.4667 37.3628 70.9734 37.3867 71.3006 37.09Z" fill="black"/>
<path d="M70.193 55.8797C70.5063 55.5675 71.0118 55.5675 71.3251 55.8797C71.6384 56.1919 71.6384 56.6956 71.3251 57.0078C71.0118 57.32 70.5063 57.32 70.193 57.0078C69.8797 56.6956 69.8797 56.1919 70.193 55.8797Z" fill="black"/>
<path d="M51.4601 36.8604C51.6579 36.4661 51.4975 35.9866 51.1019 35.7895C50.7062 35.5923 50.225 35.7521 50.0272 36.1464C49.8293 36.5407 49.9897 37.0202 50.3854 37.2173C50.7811 37.4145 51.2622 37.2546 51.4601 36.8604Z" fill="black"/>
<path d="M4.04024 46.217L4.02246 46.1934L4.02542 46.1904L4.04617 46.2111L4.03728 46.1993L4.04617 46.2111C4.04617 46.2141 4.0432 46.2141 4.04024 46.217Z" fill="white"/>
<path d="M76.7686 46.126C76.7686 46.126 76.8749 46.8651 77.0227 47.0948C77.0256 47.0948 76.8306 46.2202 76.7686 46.126Z" fill="#D3A9AC"/>
<path d="M76.499 46.126C76.499 46.126 76.6261 46.7591 76.7532 46.9888C76.7591 47.0005 76.765 47.0094 76.7709 47.0182C76.9039 47.2155 76.765 47.0094 76.765 47.0094C76.765 47.0094 76.4961 46.6177 76.499 46.126Z" fill="#D3A9AC"/>
</g>
<defs>
<clipPath id="clip0_298_6267">
<rect width="80.75" height="63.75" fill="white" transform="translate(0.0986328 0.25)"/>
</clipPath>
</defs>
</svg>
