<svg width="74" height="68" viewBox="0 0 74 68" fill="none" xmlns="http://www.w3.org/2000/svg">
<path d="M16.155 17.3373C16.7031 17.8759 17.5927 17.8759 18.1408 17.3373C18.6889 16.7986 18.6889 15.9245 18.1408 15.3859L13.1762 10.5075C12.6281 9.96886 11.7385 9.96886 11.1904 10.5075C10.6423 11.0461 10.6423 11.9202 11.1904 12.4588L16.155 17.3373Z" fill="#EF6238"/>
<path d="M37.0034 9.65968C37.7806 9.65968 38.4052 9.0416 38.4052 8.28225V1.37743C38.4052 0.613663 37.7762 0 37.0034 0C36.2306 0 35.6016 0.618078 35.6016 1.37743V8.27342C35.5971 9.0416 36.2261 9.65968 37.0034 9.65968Z" fill="#EF6238"/>
<path d="M1.90177 37.248H8.9196C9.69687 37.248 10.3214 36.63 10.3214 35.8706C10.3214 35.1068 9.69237 34.4932 8.9196 34.4932H1.90177C1.129 34.4888 0.5 35.1068 0.5 35.8706C0.5 36.63 1.129 37.248 1.90177 37.248Z" fill="#EF6238"/>
<path d="M18.1408 54.404C17.5927 53.8653 16.7031 53.8653 16.155 54.404L11.1904 59.2824C10.6423 59.821 10.6423 60.6952 11.1904 61.2338C11.7385 61.7724 12.6281 61.7724 13.1762 61.2338L18.1408 56.3553C18.6889 55.8167 18.6889 54.9426 18.1408 54.404Z" fill="#EF6238"/>
<path d="M60.8289 61.2338C61.377 61.7724 62.2666 61.7724 62.8147 61.2338C63.3629 60.6952 63.3629 59.821 62.8147 59.2824L57.8501 54.404C57.3019 53.8653 56.4124 53.8653 55.8642 54.404C55.3161 54.9426 55.3161 55.8167 55.8642 56.3553L60.8289 61.2338Z" fill="#EF6238"/>
<path d="M65.0795 37.248H72.0973C72.8746 37.248 73.4991 36.6299 73.4991 35.8706C73.4991 35.1068 72.8701 34.4932 72.0973 34.4932H65.0795C64.3022 34.4932 63.6777 35.1112 63.6777 35.8706C63.6777 36.6299 64.3067 37.248 65.0795 37.248Z" fill="#EF6238"/>
<path d="M62.8147 10.5075C62.2666 9.96886 61.377 9.96886 60.8289 10.5075L55.8642 15.3859C55.3161 15.9245 55.3161 16.7986 55.8642 17.3373C56.4124 17.8759 57.3019 17.8759 57.8501 17.3373L62.8147 12.4588C63.3629 11.9202 63.3629 11.0461 62.8147 10.5075Z" fill="#EF6238"/>
<path fill-rule="evenodd" clip-rule="evenodd" d="M37.5534 14.54C26.9459 14.54 18.3457 22.9638 18.3457 33.3501C18.3457 39.256 21.0897 44.5602 25.4634 47.9668C28.2074 50.1051 30.1318 52.9748 30.5462 57.27C31.2736 57.27 43.8332 57.27 44.5607 57.27C44.9658 52.9748 46.8995 50.1051 49.6434 47.9668C54.0172 44.5602 56.7612 39.2468 56.7612 33.3501C56.7519 22.9638 48.161 14.54 37.5534 14.54Z" fill="#EF6238"/>
<path fill-rule="evenodd" clip-rule="evenodd" d="M32.7214 57.2797L29.3421 32.8322C29.3237 32.6841 29.3145 32.5545 29.3145 32.4434C29.3145 31.7769 29.5539 31.1659 29.9682 30.6938C30.3826 30.2217 30.9627 29.907 31.6441 29.8144C31.7822 29.7959 31.9111 29.7866 32.04 29.7866C32.5556 29.7866 32.9792 30.194 32.9792 30.7031C32.9792 31.2122 32.5556 31.6195 32.04 31.6195C31.9755 31.6195 31.9295 31.6195 31.9019 31.6288C31.6901 31.6565 31.5151 31.7491 31.3862 31.888C31.2665 32.0268 31.1929 32.2212 31.1929 32.4341C31.1929 32.4897 31.1929 32.5452 31.2021 32.5822L34.6182 57.2705C36.5795 57.2705 38.55 57.2705 40.5113 57.2705L43.9274 32.5822C43.9366 32.5452 43.9366 32.4989 43.9366 32.4341C43.9366 32.212 43.863 32.0268 43.7433 31.888C43.6235 31.7491 43.4394 31.6565 43.2276 31.6288C43.1908 31.6288 43.1447 31.6195 43.0895 31.6195C42.5738 31.6195 42.1503 31.2122 42.1503 30.7031C42.1503 30.194 42.5738 29.7866 43.0895 29.7866C43.2092 29.7866 43.3381 29.7959 43.4854 29.8144C44.1668 29.907 44.7469 30.2217 45.1613 30.6938C45.5756 31.1659 45.815 31.7676 45.815 32.4434C45.815 32.5637 45.8058 32.6933 45.7874 32.8322L42.4081 57.2797H32.7214ZM40.944 28.8054C40.3916 28.6573 39.8115 28.9813 39.6641 29.5275L38.8631 32.4526C38.7157 32.9988 39.0472 33.5635 39.5997 33.7116C40.1522 33.8597 40.7323 33.5357 40.8796 32.9895L41.6807 30.0644C41.8372 29.5089 41.5057 28.9443 40.944 28.8054ZM35.493 28.8054C34.9405 28.6573 34.3604 28.9813 34.2131 29.5275L33.412 32.4526C33.2646 32.9988 33.5961 33.5635 34.1486 33.7116C34.7011 33.8597 35.2812 33.5357 35.4285 32.9895L36.2296 30.0644C36.3861 29.5089 36.0546 28.9443 35.493 28.8054ZM38.2185 28.8054C37.666 28.6573 37.0859 28.9813 36.9386 29.5275L36.1375 32.4526C35.9902 32.9988 36.3217 33.5635 36.8741 33.7116C37.4266 33.8597 38.0067 33.5357 38.154 32.9895L38.9551 30.0644C39.1117 29.5089 38.7802 28.9443 38.2185 28.8054Z" fill="white"/>
<path fill-rule="evenodd" clip-rule="evenodd" d="M44.6124 60.0293C39.898 60.0293 35.1927 60.0293 30.4783 60.0293C29.8521 60.0293 29.3457 60.6588 29.3457 61.4364C29.3457 62.2047 29.8521 62.8434 30.4783 62.8434C35.1927 62.8434 39.898 62.8434 44.6124 62.8434C45.2386 62.8434 45.745 62.2139 45.745 61.4364C45.745 60.6588 45.2386 60.0293 44.6124 60.0293Z" fill="#333333"/>
<path fill-rule="evenodd" clip-rule="evenodd" d="M29.5293 62.1954C29.7319 62.5749 30.0818 62.8341 30.4777 62.8341C35.1922 62.8341 39.8974 62.8341 44.6119 62.8341C45.0078 62.8341 45.3577 62.5842 45.5603 62.1954C45.3577 61.8158 45.0078 61.5566 44.6119 61.5566C39.8974 61.5566 35.1922 61.5566 30.4777 61.5566C30.0818 61.5659 29.7319 61.8158 29.5293 62.1954Z" fill="#8D8D8D"/>
<path fill-rule="evenodd" clip-rule="evenodd" d="M43.9684 62.834C39.6867 62.834 35.4051 62.834 31.1326 62.834C30.5064 62.834 30 63.4635 30 64.241C30 65.0094 30.5064 65.6481 31.1326 65.6481C35.4143 65.6481 39.696 65.6481 43.9684 65.6481C44.5946 65.6481 45.101 65.0186 45.101 64.241C45.101 63.4635 44.5946 62.834 43.9684 62.834Z" fill="#333333"/>
<path fill-rule="evenodd" clip-rule="evenodd" d="M30.1758 65.0098C30.3784 65.3894 30.7283 65.6485 31.1242 65.6485C35.4059 65.6485 39.6876 65.6485 43.96 65.6485C44.356 65.6485 44.7059 65.3986 44.9084 65.0098C44.7059 64.6303 44.356 64.3711 43.96 64.3711C39.6783 64.3711 35.3967 64.3711 31.1242 64.3711C30.7283 64.3711 30.3784 64.6303 30.1758 65.0098Z" fill="#8D8D8D"/>
<path fill-rule="evenodd" clip-rule="evenodd" d="M45.0006 57.2148H30.093C29.3287 57.2148 28.6934 57.8443 28.6934 58.6219C28.6934 59.3902 29.3195 60.029 30.093 60.029H45.0006C45.7648 60.029 46.4002 59.3995 46.4002 58.6219C46.4002 57.8443 45.774 57.2148 45.0006 57.2148Z" fill="#333333"/>
<path fill-rule="evenodd" clip-rule="evenodd" d="M28.877 59.3897C29.0795 59.7692 29.4294 60.0284 29.8254 60.0284H45.2578C45.6538 60.0284 46.0037 59.7785 46.2062 59.3897C46.0037 59.0102 45.6538 58.751 45.2578 58.751H29.8346C29.4386 58.751 29.0887 59.0102 28.877 59.3897Z" fill="#8D8D8D"/>
<path fill-rule="evenodd" clip-rule="evenodd" d="M31.1895 65.6484C31.6314 67.0277 32.7272 67.9997 33.9887 67.9997H40.7749C42.0456 67.9997 43.1321 67.0185 43.5741 65.6484H31.1895Z" fill="#333333"/>
<path fill-rule="evenodd" clip-rule="evenodd" d="M38.1584 16.8164C35.9117 16.8164 33.7663 17.2793 31.8418 18.1216C32.8915 17.9365 33.978 17.8347 35.083 17.8347C45.1196 17.8347 53.2594 25.8049 53.2594 35.645C53.2594 35.8394 53.2594 36.0431 53.2502 36.2375C53.6093 34.9322 53.8027 33.5622 53.8027 32.1551C53.8027 23.6851 46.7954 16.8164 38.1584 16.8164Z" fill="white"/>
</svg>
