<svg width="86" height="68" viewBox="0 0 86 68" fill="none" xmlns="http://www.w3.org/2000/svg">
<g clip-path="url(#clip0_437_1505)">
<path d="M73.1956 41.9814C73.1956 43.2253 72.1916 44.2101 70.9818 44.2101H17.7216C16.486 44.2101 15.5078 43.1994 15.5078 41.9814V8.47378C15.5078 7.22987 16.5117 6.24512 17.7216 6.24512H70.956C72.1916 6.24512 73.1698 7.25579 73.1698 8.47378V41.9814H73.1956Z" fill="#F1F1F2"/>
<path d="M70.981 6.24495C72.2166 6.24495 73.1948 7.25562 73.1948 8.47361V41.9812C73.1948 43.2251 72.1909 44.2099 70.981 44.2099H17.7209C16.4853 44.2099 15.5071 43.1992 15.5071 41.9812V8.47361C15.5071 7.22971 16.511 6.24495 17.7209 6.24495H70.981ZM70.981 6.01172H17.7209C16.3823 6.01172 15.2754 7.12605 15.2754 8.47361V41.9812C15.2754 43.3288 16.3823 44.4431 17.7209 44.4431H70.9553C72.2939 44.4431 73.4008 43.3547 73.4008 41.9812V8.47361C73.4008 7.12605 72.3196 6.01172 70.981 6.01172Z" fill="#F1F1F2"/>
<path d="M73.1952 38.4311H15.5332V8.47378C15.5332 7.22987 16.5371 6.24512 17.747 6.24512H70.9814C72.217 6.24512 73.1952 7.25579 73.1952 8.47378V38.4311Z" fill="#404041"/>
<path d="M15.7383 41.9814C15.7383 43.0957 16.6392 44.0028 17.7462 44.0028H44.3633V38.457H15.7383V41.9814Z" fill="#E7E7E8"/>
<path d="M52.3703 44.21H36.2559V52.3472H52.3703V44.21Z" fill="#D0D2D3"/>
<path d="M44.3388 44.21H36.2559V52.3472H44.3388V44.21Z" fill="#C2C3C4"/>
<path d="M72.0876 7.4375H16.5879V38.0168H72.0876V7.4375Z" fill="white"/>
<path d="M72.0876 7.46289H16.5879V38.0162H72.0876V7.46289Z" fill="#E9EAEB"/>
<path d="M57.6983 52.3467H31.0039V53.3055H57.6983V52.3467Z" fill="#A6A8AB"/>
<path d="M44.364 52.3467H31.0039V53.3055H44.364V52.3467Z" fill="#97999C"/>
<path d="M57.8011 53.4357H30.875V52.2695H57.8011V53.4357ZM31.1067 53.2025H57.5952V52.4768H31.1067V53.2025Z" fill="#231F20"/>
<path fill-rule="evenodd" clip-rule="evenodd" d="M45.3933 41.0483C45.3933 41.6184 44.93 42.0849 44.3637 42.0849C43.7973 42.0849 43.334 41.6184 43.334 41.0483C43.334 40.4782 43.7973 40.0117 44.3637 40.0117C44.93 40.0117 45.3933 40.4782 45.3933 41.0483Z" fill="#D0D2D3"/>
<path d="M44.3381 42.1888C43.6945 42.1888 43.1797 41.6705 43.1797 41.0226C43.1797 40.3747 43.6945 39.8564 44.3381 39.8564C44.9816 39.8564 45.4965 40.3747 45.4965 41.0226C45.4965 41.6705 44.9816 42.1888 44.3381 42.1888ZM44.3381 40.1156C43.8232 40.1156 43.4114 40.5302 43.4114 41.0485C43.4114 41.5668 43.8232 41.9814 44.3381 41.9814C44.8529 41.9814 45.2648 41.5668 45.2648 41.0485C45.2905 40.5302 44.8529 40.1156 44.3381 40.1156Z" fill="#231F20"/>
<path d="M70.1836 10.1582H42.2793V36.2542H70.1836V10.1582Z" fill="white"/>
<path fill-rule="evenodd" clip-rule="evenodd" d="M37.0534 12.6457C37.8257 12.5679 38.8296 13.2158 39.1128 13.7082C38.8553 13.5008 38.5722 13.2935 38.3405 13.2158C39.5761 13.9414 39.885 15.1853 39.9108 15.3408C40.1939 17.1289 39.885 20.2905 38.5979 22.1563C37.6197 23.5557 30.3605 24.0999 28.9447 21.7935C27.7863 19.8759 27.6061 15.8073 29.0219 13.7859C30.309 11.9201 32.8832 11.6868 34.0931 11.7646C33.8871 11.6868 33.4238 11.5573 32.9089 11.5832C35.1228 11.1944 35.9722 11.9201 37.0534 12.6457Z" fill="black"/>
<path fill-rule="evenodd" clip-rule="evenodd" d="M31.2103 25.6027C25.4698 28.5311 23.5649 29.8268 22.8441 30.4488C21.763 31.4076 21.1709 34.9838 20.5273 38.0158H33.8617H47.196C46.5525 34.9838 45.9604 31.4076 44.8792 30.4488C44.1842 29.8268 42.3308 28.557 36.5903 25.6286C36.5903 25.6286 35.2775 25.1104 33.7845 25.1104C32.0597 25.1363 31.2103 25.6027 31.2103 25.6027Z" fill="#959595"/>
<path fill-rule="evenodd" clip-rule="evenodd" d="M36.744 24.4111V28.4279C35.1738 30.3715 32.5996 30.2938 31.0293 28.4279V24.4111H36.744Z" fill="#F7D2BE"/>
<path fill-rule="evenodd" clip-rule="evenodd" d="M33.8609 24.4111H31.0293V28.4279C31.8016 29.3608 32.8312 29.8273 33.8609 29.8532V24.4111Z" fill="#EDCAB6"/>
<path fill-rule="evenodd" clip-rule="evenodd" d="M33.8874 13.3193C26.0875 13.3193 28.9706 23.3742 29.4855 24.1517C30.0518 24.9809 32.5745 26.2767 33.8359 26.2767C35.0972 26.2767 37.6972 25.0068 38.2635 24.1517C38.7783 23.3742 41.6872 13.3193 33.8874 13.3193Z" fill="#FFDECC"/>
<path fill-rule="evenodd" clip-rule="evenodd" d="M27.8898 18.5285C28.3017 18.3989 28.8165 18.8653 29.0482 19.565C29.2799 20.2907 29.1512 20.9644 28.7393 21.094C28.3274 21.2236 27.8126 20.7571 27.5809 20.0574C27.3235 19.3318 27.478 18.658 27.8898 18.5285Z" fill="#F5D5C4"/>
<path fill-rule="evenodd" clip-rule="evenodd" d="M39.8587 18.5285C39.4469 18.3989 38.932 18.8653 38.7003 19.565C38.4687 20.2907 38.5974 20.9644 39.0093 21.094C39.4211 21.2236 39.936 20.7571 40.1676 20.0574C40.3993 19.3318 40.2706 18.658 39.8587 18.5285Z" fill="#FFDECC"/>
<path fill-rule="evenodd" clip-rule="evenodd" d="M37.6966 15.6777C37.156 15.0298 36.3065 15.7036 37.0016 16.2478C36.255 16.0923 36.0491 15.7036 36.2035 15.2889C36.5382 14.356 35.1739 15.0557 34.0412 15.7813C33.2432 16.2737 32.471 16.3514 31.6987 16.17C32.7026 15.9886 32.5482 15.263 31.7759 15.5222C30.8492 15.8331 28.9958 16.8956 28.5067 20.6014C27.3483 16.4292 29.3047 12.9566 33.7838 12.7493C38.5461 12.542 40.4767 16.3514 39.1639 20.4719C39.2668 18.2432 38.7263 16.792 37.6966 15.6777Z" fill="black"/>
<path fill-rule="evenodd" clip-rule="evenodd" d="M30.7465 25.7588L28.7129 26.8731L31.6475 30.9676L33.887 28.8426L30.7465 25.7588Z" fill="white"/>
<path fill-rule="evenodd" clip-rule="evenodd" d="M37.0546 25.7588L39.0882 26.8731L36.1536 30.9676L33.9141 28.8426L37.0546 25.7588Z" fill="white"/>
<path fill-rule="evenodd" clip-rule="evenodd" d="M35.4067 38.0161L34.4285 31.071L35.1235 29.9826L33.8879 28.8164L32.6523 29.9826L33.3473 31.071L32.3691 38.0161H35.4067Z" fill="#231F20"/>
<path fill-rule="evenodd" clip-rule="evenodd" d="M25.9844 38.0166H26.6022C26.2933 36.0471 26.422 34.4922 26.422 34.4922C26.422 34.4922 26.2933 37.291 25.9844 38.0166Z" fill="#998F7A"/>
<path fill-rule="evenodd" clip-rule="evenodd" d="M41.7897 38.0166H41.1719C41.4808 36.4358 41.3521 34.4922 41.3521 34.4922C41.3521 34.4922 41.4808 37.3428 41.7897 38.0166Z" fill="#998F7A"/>
<path d="M45.8308 15.9368C45.6763 15.3407 45.007 15.6776 44.7239 15.9368C44.2605 16.3773 44.1061 17.2325 44.7239 17.6212C45.1358 17.8804 45.5991 17.4917 45.8565 17.2066C46.2169 16.792 46.5773 16.0664 46.3714 15.5221C46.3456 15.4444 46.1397 15.5221 46.1654 15.574C46.2941 15.9109 46.1912 16.2996 46.0367 16.6365C45.8823 16.9734 45.5219 17.5694 45.11 17.5694C44.6209 17.5953 44.4922 16.8179 44.5694 16.5069C44.6724 16.1441 45.4447 15.263 45.6249 15.9886C45.6506 16.0664 45.8565 16.0145 45.8308 15.9368Z" fill="#A9A9A9"/>
<path d="M45.2129 17.2332C45.2129 18.0107 45.2901 18.7622 45.3931 19.5396C45.3931 19.6174 45.6248 19.5655 45.599 19.4878C45.5218 18.7363 45.4188 17.9847 45.4188 17.2332C45.4446 17.1036 45.2129 17.1555 45.2129 17.2332Z" fill="#A9A9A9"/>
<path d="M45.4446 19.5909C45.0585 20.161 44.5694 20.6534 44.209 21.2494C44.209 21.2753 44.3892 21.2494 44.4149 21.1976C44.7753 20.6016 45.2644 20.1092 45.6505 19.5391C45.6763 19.5391 45.4961 19.5391 45.4446 19.5909Z" fill="#A9A9A9"/>
<path d="M45.5993 19.798C46.0884 19.9017 46.5003 20.2386 46.9122 20.4977C46.9894 20.5495 47.1696 20.4459 47.0924 20.3941C46.6805 20.109 46.2429 19.798 45.7538 19.6684C45.6508 19.6425 45.4706 19.7721 45.5993 19.798Z" fill="#A9A9A9"/>
<path d="M45.1366 18.0878C44.7247 18.2692 44.3901 18.5801 44.0297 18.8652C43.9782 18.917 44.1841 18.8911 44.2356 18.8652C44.5445 18.5801 44.8792 18.321 45.2653 18.1396C45.394 18.0618 45.1881 18.0619 45.1366 18.0878Z" fill="#A9A9A9"/>
<path d="M45.5484 17.984C45.8315 18.1395 46.1404 18.295 46.4236 18.4764C46.5008 18.5023 46.681 18.4245 46.6038 18.3727C46.3206 18.2172 46.0117 18.0617 45.7286 17.8803C45.6771 17.8285 45.4712 17.9322 45.5484 17.984Z" fill="#A9A9A9"/>
<path d="M54.1464 15.3933C53.8375 14.9786 52.8593 15.1601 52.6019 15.5747C52.1386 16.3262 53.0138 17.2073 53.7603 17.1555C54.5325 17.1296 55.0989 16.3521 54.6613 15.6524C54.1722 14.875 53.3999 14.7454 52.6019 15.1341C52.4732 15.2119 52.6791 15.2119 52.7306 15.1601C53.4514 14.7972 53.992 15.0823 54.4296 15.7043C54.8415 16.3003 54.3781 17.1814 53.6058 17.0259C53.1425 16.9222 52.7564 16.4817 52.6791 16.0411C52.5504 15.3933 53.5286 14.9009 53.9147 15.4451C53.992 15.5229 54.1979 15.4451 54.1464 15.3933Z" fill="#A9A9A9"/>
<path d="M53.7852 17.0771C53.7852 17.8287 53.7852 18.5802 53.7852 19.3317C53.7852 19.4354 53.9911 19.3835 53.9911 19.3058C53.9911 18.5543 53.9911 17.8027 53.9911 17.0512C53.9911 16.9476 53.7852 16.9994 53.7852 17.0771Z" fill="#A9A9A9"/>
<path d="M53.9149 19.3841C53.1169 19.6432 52.6793 20.2652 52.1644 20.913C52.113 20.9908 52.3189 20.9648 52.3704 20.913C52.8337 20.3688 53.2199 19.7209 53.9406 19.4877C54.0694 19.4359 54.0436 19.3581 53.9149 19.3841Z" fill="#A9A9A9"/>
<path d="M53.7611 19.5392C54.2759 19.7724 54.5591 20.2648 54.8938 20.7054C54.9195 20.7572 55.1254 20.6794 55.0997 20.6276C54.765 20.1871 54.5076 19.6947 53.9413 19.4355C53.8898 19.4355 53.7096 19.5133 53.7611 19.5392Z" fill="#A9A9A9"/>
<path d="M53.6564 17.5179C53.2188 17.7252 52.7812 17.9066 52.4208 18.2435C52.3179 18.3471 52.5238 18.373 52.601 18.2953C52.9357 17.9843 53.3475 17.8288 53.7594 17.6474C53.8881 17.5697 53.7594 17.466 53.6564 17.5179Z" fill="#A9A9A9"/>
<path d="M53.9916 17.5696C54.4035 17.9065 54.9698 17.9583 55.3817 18.3211C55.4332 18.3729 55.6391 18.2952 55.5877 18.2433C55.1758 17.8805 54.6095 17.8287 54.1976 17.4918C54.1204 17.4141 53.9144 17.5177 53.9916 17.5696Z" fill="#A9A9A9"/>
<path d="M45.3432 14.8229C46.9392 12.9052 50.1827 12.6979 52.0361 14.3305C52.1133 14.3823 52.2935 14.2786 52.2163 14.2009C50.2599 12.4905 46.8105 12.7497 45.163 14.771C45.06 14.8747 45.266 14.9006 45.3432 14.8229Z" fill="#A9A9A9"/>
<path d="M51.3407 13.4496C51.6496 13.7606 51.9842 14.0975 52.1644 14.5121C52.2159 14.4862 52.2417 14.4603 52.2931 14.4344C51.8298 14.5121 51.3664 14.5121 50.9031 14.5121C50.8259 14.5121 50.6714 14.6158 50.8259 14.6158C51.3149 14.6158 51.804 14.6158 52.2674 14.5121C52.2931 14.5121 52.4219 14.4862 52.3961 14.4344C52.1902 14.0197 51.8813 13.6829 51.5466 13.346C51.5209 13.3201 51.3149 13.3978 51.3407 13.4496Z" fill="#A9A9A9"/>
<path d="M46.5268 19.2281C47.9684 20.3684 50.4138 20.3425 51.8811 19.2541C52.0098 19.1763 51.8039 19.1245 51.7524 19.1763C50.3624 20.187 48.0971 20.187 46.7327 19.1245C46.6555 19.0726 46.4496 19.1763 46.5268 19.2281Z" fill="#A9A9A9"/>
<path d="M47.4269 19.2284C47.1694 19.047 46.6803 18.9692 46.4229 19.1765C46.1397 19.4098 46.7576 19.9022 46.912 20.0576C46.9378 20.0836 47.1437 20.0058 47.1179 19.9799C46.9378 19.7985 46.6803 19.6171 46.6031 19.3579C46.5774 19.3061 46.5774 19.2543 46.6031 19.2025C46.6546 19.0988 46.7833 19.1506 46.8605 19.1506C46.9892 19.1765 47.1179 19.2284 47.2209 19.2802C47.2724 19.332 47.4526 19.2543 47.4269 19.2284Z" fill="#A9A9A9"/>
<path d="M59.604 13.7599C59.707 13.6303 59.8872 13.5526 60.0159 13.4489C59.9386 13.4489 59.8872 13.4748 59.8099 13.4748C59.8872 13.734 59.8614 14.0191 59.7327 14.2782C59.707 14.3041 59.9129 14.3041 59.9386 14.2523C60.0673 13.9931 60.1188 13.7081 60.0159 13.4489C59.9901 13.3971 59.8357 13.4489 59.8099 13.4748C59.6812 13.5785 59.5268 13.6563 59.3981 13.7858C59.3466 13.8377 59.5783 13.8117 59.604 13.7599Z" fill="#A9A9A9"/>
<path d="M59.8344 12.957C59.4226 12.957 58.8562 13.0089 58.6503 13.4235C58.4959 13.7345 58.6761 14.0973 58.8563 14.3305C59.0879 14.6156 59.4226 14.8488 59.783 14.8747C60.1691 14.9006 60.5037 14.6933 60.6839 14.3305C60.7869 14.1232 60.8126 13.89 60.8384 13.6826C60.8384 13.6049 60.6325 13.6567 60.6325 13.7086C60.6067 14.0714 60.5037 14.6674 60.0661 14.7711C59.7572 14.8488 59.4226 14.6156 59.2166 14.4082C59.0107 14.2009 58.8048 13.89 58.8305 13.579C58.882 13.1384 59.4226 13.0866 59.7572 13.0866C59.8344 13.0607 59.9889 12.957 59.8344 12.957Z" fill="#A9A9A9"/>
<path d="M59.3719 16.3781C59.5006 16.1708 59.758 15.9635 59.861 16.3004C59.964 16.6373 59.6551 16.9483 59.3976 17.1037C59.3204 17.1556 59.3204 17.2333 59.3976 17.2333C59.6551 17.2851 59.9125 17.2851 60.1699 17.2851C60.2986 17.2851 60.3501 17.1297 60.1956 17.1297C59.964 17.1297 59.7065 17.1297 59.4749 17.0778C59.4749 17.1297 59.4749 17.1815 59.4749 17.2074C59.8353 17.0001 60.2471 16.5595 60.0154 16.119C59.9382 15.9894 59.7838 15.9117 59.6293 15.9376C59.3976 15.9635 59.2432 16.1449 59.1402 16.3263C59.0887 16.4559 59.3204 16.4559 59.3719 16.3781Z" fill="#A9A9A9"/>
<path d="M59.8097 15.5482C59.3206 15.4964 58.7286 15.5741 58.4969 16.0665C58.1623 16.6884 58.7801 17.4918 59.3464 17.6732C59.8612 17.8287 60.7622 17.6991 60.9681 17.1031C61.1741 16.5329 60.6078 15.8332 60.2731 15.4445C60.1959 15.3668 59.9899 15.4704 60.0672 15.5482C60.3503 15.8592 60.582 16.1961 60.7107 16.5848C60.9681 17.3363 60.2989 17.6214 59.6553 17.5695C59.0375 17.5177 58.6256 16.8957 58.6514 16.2997C58.6771 15.7555 59.3207 15.6778 59.7325 15.7296C59.8612 15.7037 59.9642 15.5482 59.8097 15.5482Z" fill="#A9A9A9"/>
<path d="M59.5515 19.2286C59.6287 19.0732 59.7832 18.9436 59.9119 19.0991C60.0406 19.2546 59.9376 19.436 59.7832 19.5396C59.7574 19.5655 59.7317 19.6174 59.7832 19.6433C59.9376 19.721 59.9891 19.8765 59.8346 19.9802C59.7059 20.0838 59.5257 20.0579 59.4485 19.9024C59.397 19.7988 59.1911 19.8765 59.2426 19.9543C59.3713 20.2393 59.7059 20.2652 59.9376 20.1097C60.195 19.9543 60.2208 19.6692 59.9376 19.5137C59.9376 19.5396 59.9376 19.5914 59.9376 19.6174C60.1693 19.436 60.298 19.125 60.0406 18.9177C59.7832 18.6844 59.4485 18.9436 59.3198 19.1768C59.2941 19.3064 59.5 19.3064 59.5515 19.2286Z" fill="#A9A9A9"/>
<path d="M60.5808 18.9432C60.4779 18.4249 59.7056 18.3731 59.268 18.4509C58.5987 18.6063 58.6245 19.4615 58.8047 19.9798C58.9848 20.4722 59.5512 20.6277 60.0403 20.5759C60.6323 20.4981 60.8125 20.0316 60.6066 19.5134C60.5808 19.4356 60.3492 19.4874 60.4006 19.5652C60.5551 19.9798 60.5036 20.3685 60.0145 20.4463C59.6284 20.4981 59.2165 20.3426 59.0363 19.9798C58.8819 19.6429 58.7532 18.7359 59.2423 18.5804C59.6026 18.4768 60.2462 18.5545 60.3492 18.9951C60.3749 19.0728 60.6066 19.021 60.5808 18.9432Z" fill="#A9A9A9"/>
<path d="M61.3028 13.1123C61.4057 13.6824 61.38 14.2784 61.5087 14.8486C61.5345 14.9263 61.7147 14.8486 61.7147 14.7967C61.8948 14.3821 61.7404 13.9415 61.8948 13.5528C61.8434 13.5787 61.7661 13.6047 61.7147 13.6306C61.8176 13.6565 61.8948 13.6824 61.9721 13.7342C62.0236 13.7861 62.2295 13.6824 62.1523 13.6306C62.0493 13.5787 61.9463 13.5528 61.8434 13.501C61.7919 13.4751 61.6889 13.5269 61.6632 13.5787C61.5087 13.9934 61.6632 14.4339 61.483 14.8226C61.5602 14.7967 61.6374 14.7967 61.6889 14.7708C61.5602 14.2007 61.5859 13.6047 61.483 13.0345C61.5087 12.9827 61.277 13.0345 61.3028 13.1123Z" fill="#A9A9A9"/>
<path d="M62.0234 13.087C62.0234 13.8385 62.1779 14.5642 62.3581 15.2638C62.3838 15.3675 62.6155 15.3157 62.564 15.212C62.3838 14.5123 62.2294 13.8126 62.2294 13.0611C62.2551 12.9574 62.0234 12.9834 62.0234 13.087Z" fill="#A9A9A9"/>
<path d="M62.4875 14.6157C63.0281 14.6157 63.6974 14.7712 64.135 14.4084C64.0577 14.4084 64.0063 14.4343 63.929 14.4343C63.9805 14.5639 64.0577 14.6675 64.135 14.7712C64.1607 14.823 64.3152 14.7712 64.3409 14.7453C64.7013 14.4084 64.83 13.9419 65.0617 13.5014C64.9845 13.5273 64.933 13.5273 64.8557 13.5532C65.0874 13.8642 65.2934 14.1492 65.6023 14.3825C65.6537 14.4343 65.8597 14.3306 65.8082 14.3047C65.4993 14.0715 65.2934 13.7864 65.0617 13.4754C65.0359 13.4236 64.8815 13.5014 64.8557 13.5273C64.6498 13.9419 64.4954 14.4084 64.1607 14.7453C64.2379 14.7453 64.2894 14.7193 64.3667 14.7193C64.3152 14.5898 64.2379 14.4861 64.1607 14.3825C64.135 14.3306 64.0063 14.3825 63.9548 14.4084C63.5944 14.7193 62.9766 14.5379 62.5647 14.5379C62.5132 14.512 62.3588 14.6157 62.4875 14.6157Z" fill="#A9A9A9"/>
<path d="M65.988 14.5379C66.2454 14.4342 66.2969 14.201 66.5028 14.0455C66.4514 14.0455 66.3999 14.0455 66.3484 14.0455C66.8632 14.512 67.3781 14.4083 68.0216 14.4601C68.1246 14.4601 68.2533 14.3046 68.0989 14.3046C67.5068 14.2528 66.9919 14.3565 66.5028 13.9159C66.4514 13.89 66.3741 13.89 66.3484 13.9159C66.1939 14.0714 66.091 14.3046 65.885 14.3824C65.7306 14.4601 65.8593 14.5897 65.988 14.5379Z" fill="#A9A9A9"/>
<path d="M62.745 16.119C62.4875 15.9376 62.0499 15.7562 61.7153 15.8339C61.3034 15.9376 61.4321 16.5336 61.5351 16.8187C61.6896 17.2074 61.9985 17.4147 62.4103 17.337C62.6677 17.2851 63.0539 17.0519 62.7707 16.7928C62.7192 16.7409 62.5133 16.8187 62.5648 16.8705C62.8479 17.1296 62.3588 17.2851 62.1529 17.2074C61.8955 17.1296 61.7925 16.8705 61.6895 16.6373C61.6381 16.5077 61.5094 15.9117 61.7668 15.9117C61.9985 15.9117 62.3074 16.0412 62.5133 16.1708C62.6163 16.2485 62.7964 16.1449 62.745 16.119Z" fill="#A9A9A9"/>
<path d="M62.4361 16.7401C62.5134 16.7142 62.6163 16.6624 62.6936 16.6365C62.6421 16.6106 62.6163 16.6106 62.5649 16.5847C62.6163 16.8179 62.5906 16.9993 62.5649 17.2066C62.5649 17.2843 62.6421 17.2843 62.6936 17.2584C62.7708 17.2325 62.848 17.2066 62.951 17.1807C63.0282 17.1548 63.0797 17.1289 63.1569 17.1029C63.3371 17.0252 63.4916 17.1029 63.6203 17.3362C63.6718 17.3362 63.749 17.3103 63.8005 17.3103C63.3371 16.8697 63.9292 15.7036 64.2381 15.2889C64.1609 15.2889 64.1094 15.2889 64.0322 15.2889C64.2638 15.7813 63.5688 15.8331 63.2856 16.0404C63.2599 16.0664 63.2341 16.1182 63.2856 16.1441C63.4916 16.2478 63.6718 16.3255 63.9034 16.4032C63.9549 16.4292 64.8816 16.6624 64.8044 16.7401C64.5213 17.0252 64.3925 17.2066 64.7529 17.4917C65.4222 18.01 65.7569 16.9734 65.8084 16.5069C65.7311 16.5069 65.6539 16.5328 65.5767 16.5328C65.6796 16.8697 65.8341 17.1807 66.2202 17.0511C66.4004 16.9993 66.5806 16.8179 66.7093 16.6883C66.9667 16.481 67.2242 16.6883 67.5073 16.792C67.6103 16.8179 67.7647 16.6883 67.636 16.6365C67.4301 16.5587 67.1212 16.3514 66.8895 16.4032C66.5034 16.481 66.04 17.2066 65.7826 16.4551C65.7569 16.3773 65.5767 16.4032 65.5509 16.481C65.5252 16.7142 65.4995 16.9215 65.3965 17.1289C65.242 17.5435 64.5213 17.2843 64.7787 16.9475C64.8559 16.8438 64.9846 16.7661 65.0618 16.6883C65.0876 16.6624 65.0876 16.6106 65.0618 16.5847C64.7787 16.4033 64.4955 16.3255 64.1866 16.2478C64.0322 16.2218 63.8777 16.17 63.7233 16.1182C63.3886 15.9886 63.9034 15.9109 63.9807 15.885C64.3411 15.7554 64.444 15.5481 64.2896 15.2112C64.2638 15.1334 64.1351 15.1593 64.0836 15.2112C63.7232 15.6776 63.1054 16.8956 63.6718 17.4139C63.7232 17.4658 63.8005 17.4139 63.852 17.388C63.8777 17.3621 63.9034 17.3362 63.9292 17.3103C63.9549 17.2843 63.9549 17.2584 63.9549 17.2584C63.7747 16.6365 63.1569 17.0252 62.7193 17.1029C62.7708 17.1289 62.7965 17.1548 62.848 17.1548C62.8738 16.9215 62.8995 16.7142 62.848 16.481C62.8223 16.4292 62.7708 16.4292 62.7193 16.4292C62.5906 16.481 62.5391 16.481 62.4104 16.5587C62.2045 16.6624 62.3332 16.792 62.4361 16.7401Z" fill="#A9A9A9"/>
<path d="M62.101 18.5807C62.0752 19.1249 61.8178 19.6173 61.7148 20.1615C61.7148 20.2392 61.9208 20.1874 61.9208 20.1355C62.0495 19.7209 62.101 19.2545 62.1525 18.8139C62.0752 18.8398 61.998 18.8398 61.9465 18.8657C62.2297 19.3063 62.4356 19.7727 62.6158 20.2651C62.6416 20.317 62.8475 20.2651 62.8218 20.2133C62.6158 19.7209 62.4356 19.2545 62.1525 18.8139C62.1267 18.7621 61.9465 18.788 61.9465 18.8657C61.895 19.3063 61.8693 19.7468 61.7148 20.1874C61.7921 20.1874 61.8693 20.1615 61.9208 20.1615C62.0237 19.6173 62.3069 19.1249 62.3069 18.5548C62.3069 18.477 62.101 18.5029 62.101 18.5807Z" fill="#A9A9A9"/>
<path d="M62.4869 19.8759C62.6928 19.565 62.9245 19.3058 63.1819 19.0726C63.1047 19.0726 63.0532 19.0726 62.976 19.0726C63.1304 19.3576 63.0275 19.7723 63.4136 19.8241C63.7225 19.8759 63.9799 19.4872 64.1601 19.3058C64.1086 19.3058 64.0314 19.3317 63.9799 19.3317C64.1859 19.6686 64.7779 19.4354 64.9066 19.7723C64.9324 19.8241 65.0096 19.7982 65.0611 19.7982C65.5502 19.565 65.7304 19.0467 65.9621 18.5802C65.8848 18.5802 65.8333 18.6061 65.7561 18.6061C65.7819 18.943 65.9621 19.0726 66.2967 19.0726C66.4512 19.0726 66.6056 19.0467 66.7343 19.0208C67.1719 18.943 66.966 19.3317 66.8373 19.565C66.7858 19.6686 66.966 19.6168 67.0175 19.5909C67.2492 19.4354 67.4551 19.2799 67.661 19.1244C67.7897 19.0467 67.5838 19.0208 67.5323 19.0726C67.3006 19.2281 67.0947 19.3836 66.8888 19.539C66.9402 19.539 66.9917 19.565 67.069 19.565C67.764 18.2433 66.065 19.5131 66.0135 18.5543C66.0135 18.4765 65.8333 18.5284 65.8076 18.5802C65.6017 18.9689 65.4472 19.5131 65.0096 19.6945C65.0611 19.6945 65.1126 19.6945 65.1641 19.7205C64.9839 19.254 64.4433 19.6427 64.2116 19.254C64.1859 19.2022 64.0572 19.254 64.0314 19.2799C63.9542 19.3576 63.5423 19.85 63.3879 19.565C63.2849 19.3836 63.3106 19.1762 63.2334 18.9948C63.2077 18.9171 63.079 18.9689 63.0275 18.9948C62.7443 19.254 62.5126 19.5131 62.3067 19.8241C62.2295 19.9796 62.4612 19.9537 62.4869 19.8759Z" fill="#A9A9A9"/>
<path d="M58.4195 21.068C59.166 20.8866 59.964 20.8607 60.7105 20.7829C61.56 20.6793 62.4095 20.5497 63.2332 20.4201C64.9837 20.1351 66.7084 20.0314 68.4589 20.0314C68.5361 20.0314 68.6906 19.9277 68.5361 19.9277C66.7599 19.9277 65.0094 20.0573 63.2332 20.3165C62.3838 20.446 61.56 20.5756 60.7105 20.6793C59.9383 20.7829 59.1145 20.8088 58.3423 20.9902C58.265 21.0162 58.2908 21.0939 58.4195 21.068Z" fill="#A9A9A9"/>
<path d="M43.7978 23.919C43.7721 25.0592 43.283 27.1583 44.2869 28.0653C44.3384 28.1171 44.4671 28.0912 44.5186 28.0394C44.5958 27.9876 45.2651 28.0394 45.3938 28.0135C45.9601 27.9357 46.372 27.8321 46.9641 27.9616C47.5046 28.0912 48.071 28.2985 48.6115 28.0394C49.1521 27.7802 49.1264 26.9251 49.1521 26.4327C49.2293 25.4479 49.1779 24.4373 49.1006 23.4525C49.1006 23.4266 49.0491 23.4007 49.0234 23.4007C48.3541 23.1934 47.6848 23.1934 46.9898 23.2193C45.8572 23.2711 44.7502 23.2193 43.6433 23.1934C43.4889 23.1934 43.3087 23.4007 43.5404 23.4007C44.3384 23.4007 45.1364 23.4784 45.9344 23.4525C46.372 23.4525 48.766 23.1156 48.8175 23.7376C48.8947 24.6446 48.8947 25.5516 48.8432 26.4586C48.8175 26.951 48.8432 27.9876 48.0452 27.9357C47.6848 27.9098 47.2987 27.7802 46.9641 27.7025C46.372 27.5729 45.8314 27.7284 45.2393 27.8321C45.0077 27.858 44.7245 27.7802 44.4928 27.8321C44.2354 27.9098 44.5958 27.9357 44.4156 27.6766C43.7206 26.6918 44.1324 25.0333 44.1324 23.8931C44.1067 23.7117 43.7978 23.7635 43.7978 23.919Z" fill="#A9A9A9"/>
<path d="M50.9799 25.8363C52.9106 25.8363 54.8412 25.7845 56.7719 25.7586C56.9006 25.7586 57.1065 25.5771 56.9006 25.5771C54.97 25.6031 53.0393 25.6549 51.1087 25.6549C50.9799 25.629 50.774 25.8363 50.9799 25.8363Z" fill="#A9A9A9"/>
<path d="M55.536 25.1628C56.1281 25.5775 56.9004 25.3961 57.5697 25.5516C57.5697 25.5257 57.5954 25.4997 57.5954 25.4479C57.1578 25.6811 56.6944 25.7848 56.2311 25.9662C56.0251 26.0439 56.2311 26.0958 56.334 26.0439C56.7974 25.8366 57.3122 25.7071 57.7756 25.4738C57.8013 25.4479 57.8786 25.3961 57.8013 25.3702C57.1578 25.1888 56.3855 25.3961 55.8192 24.9814C55.742 25.0074 55.4846 25.1369 55.536 25.1628Z" fill="#A9A9A9"/>
<path d="M60.1431 23.1415C59.3451 22.7787 58.4441 23.1156 58.4184 24.0744C58.3926 25.0592 59.551 25.6034 60.3748 25.2924C61.0698 25.0592 61.1213 24.2817 60.8381 23.7116C60.5035 23.0119 59.7827 22.9342 59.1649 23.3229C59.0362 23.4266 59.3451 23.4006 59.4223 23.3488C60.3233 22.7528 61.147 24.5409 60.4263 25.111C60.1688 25.3183 59.6797 25.1628 59.4223 25.0592C59.0877 24.9296 58.8817 24.6445 58.7788 24.3077C58.7016 24.0226 58.7273 23.7116 58.8817 23.4525C59.0877 23.0119 59.551 23.0897 59.9114 23.2711C59.9629 23.3229 60.2461 23.1933 60.1431 23.1415Z" fill="#A9A9A9"/>
<path d="M57.9823 27.2357C58.4971 26.5619 59.1149 25.9141 59.9387 25.6549C60.9426 25.3439 61.406 26.4064 61.5862 27.1839C61.6377 27.158 61.6891 27.1061 61.7406 27.0802C60.4278 27.4949 59.012 27.0284 57.6991 27.4171C57.5189 27.4689 57.5447 27.5985 57.7249 27.5467C59.0635 27.158 60.4535 27.6244 61.7664 27.2098C61.7921 27.2098 61.9208 27.158 61.9208 27.1061C61.303 24.411 58.8833 25.7327 57.7249 27.2616C57.6219 27.3394 57.9308 27.3135 57.9823 27.2357Z" fill="#A9A9A9"/>
<path d="M62.9506 25.1367C62.9506 25.4477 63.0279 25.7586 63.0536 26.0696C63.0536 26.1214 63.3625 26.0696 63.3625 25.9919C63.3625 25.6809 63.2853 25.3699 63.2595 25.0589C63.2595 25.0071 62.9249 25.0589 62.9506 25.1367Z" fill="#A9A9A9"/>
<path d="M62.4345 25.733C62.7949 25.6552 63.1553 25.6811 63.5157 25.707C63.6444 25.707 63.8503 25.5256 63.6444 25.5256C63.2325 25.5256 62.8206 25.4997 62.4087 25.5775C62.2028 25.6034 62.2543 25.7589 62.4345 25.733Z" fill="#A9A9A9"/>
<path d="M68.2263 23.7117C67.8144 22.3642 65.4461 22.3901 64.5967 23.2712C63.9016 23.9968 63.5412 26.6142 64.8026 27.0806C66.2441 27.5989 69.7708 25.2148 68.1748 23.7636C68.1233 23.7117 67.8401 23.8154 67.8659 23.8672C69.2302 25.137 66.4758 27.1843 65.2917 27.0288C64.3135 26.8992 64.2878 25.6294 64.365 24.8779C64.4679 23.8413 64.7768 22.8047 66.0382 22.8047C66.7332 22.8047 67.6857 23.038 67.9174 23.7895C67.9174 23.8672 68.2263 23.7636 68.2263 23.7117Z" fill="#A9A9A9"/>
<path d="M65.8848 23.4265C65.8848 24.4372 65.9362 25.4478 65.9877 26.4585C65.9877 26.5881 66.2967 26.5103 66.2967 26.3808C66.2452 25.396 66.1937 24.3853 66.1937 23.4006C66.1937 23.2451 65.8848 23.2969 65.8848 23.4265Z" fill="#A9A9A9"/>
<path d="M65.473 25.0855C65.4987 24.4635 65.8591 23.8934 66.271 23.4528C66.168 23.4788 66.065 23.5047 65.9878 23.5047C66.3482 24.023 66.6828 24.5413 66.9917 25.0595C67.0432 25.1373 67.3521 25.0336 67.2749 24.93C66.9403 24.4117 66.6056 23.8934 66.271 23.3751C66.2195 23.2973 66.0135 23.401 65.9878 23.4269C65.5502 23.8675 65.1898 24.4635 65.1641 25.0855C65.1641 25.2409 65.473 25.1632 65.473 25.0855Z" fill="#A9A9A9"/>
<path d="M44.5704 24.0486C44.8278 23.8931 45.0852 23.7117 45.3426 23.5562C45.2654 23.5562 45.1624 23.5562 45.0852 23.5303C45.1882 24.0745 44.4931 24.5669 44.1585 24.9038C44.0298 25.0334 44.2872 25.0593 44.3644 25.0075C45.0595 24.6447 45.6773 24.1782 46.3208 23.7636C46.2436 23.7376 46.1664 23.7117 46.0891 23.6599C45.5486 24.3596 44.7763 24.8261 44.21 25.4998C44.107 25.6294 44.3129 25.6553 44.4159 25.6035C45.6 25.0075 46.7069 24.3078 47.6079 23.323C47.5049 23.2971 47.4277 23.2971 47.3247 23.2712C46.7327 24.6187 45.3426 25.3962 44.3129 26.355C44.1842 26.4846 44.4674 26.5105 44.5446 26.4587C45.8832 25.4998 47.1703 24.4892 48.5089 23.5044C48.4316 23.4785 48.3544 23.4526 48.2515 23.4267C47.2475 25.0593 45.4713 25.9404 44.2615 27.3916C44.1328 27.5471 44.4417 27.5471 44.5189 27.4693C45.1882 26.7697 45.9604 26.1995 46.6812 25.5776C47.4535 24.9038 48.0455 24.0745 48.9465 23.5044C48.8693 23.4785 48.792 23.4526 48.6891 23.4267C48.4059 24.2041 47.6851 24.7483 47.1188 25.3443C46.5267 25.9663 46.0119 26.6919 45.5486 27.4175C45.4713 27.5471 45.703 27.5471 45.7545 27.4953C46.8099 26.9251 47.5564 26.0181 48.3287 25.1111C48.2257 25.1111 48.1485 25.0852 48.0455 25.0852C47.8653 26.0959 46.9129 26.6919 46.5525 27.6248C46.501 27.7803 46.7584 27.7544 46.8357 27.6767C47.402 27.0547 47.9426 26.4068 48.7406 26.1218C48.6633 26.0959 48.5861 26.07 48.5346 26.044C48.2257 26.7437 47.8911 27.3657 47.3505 27.9099C47.2218 28.0395 47.5307 28.0654 47.6079 27.9876C48.1485 27.4434 48.5089 26.7697 48.8435 26.07C48.895 25.9404 48.6891 25.9663 48.6376 25.9922C47.7881 26.3032 47.196 26.977 46.604 27.6248C46.7069 27.6507 46.7842 27.6507 46.8871 27.6767C47.2475 26.7178 48.2 26.1218 48.3802 25.0852C48.4059 24.9556 48.1485 25.0075 48.097 25.0593C47.3762 25.9145 46.6555 26.8215 45.6515 27.3398C45.7287 27.3657 45.806 27.3916 45.8575 27.4175C46.3723 26.5882 46.9901 25.7849 47.6851 25.0852C48.1742 24.5928 48.7406 24.1004 48.998 23.4267C49.0495 23.2712 48.8178 23.323 48.7406 23.3489C47.994 23.8154 47.402 24.4632 46.8099 25.0852C46.0377 25.9145 45.0595 26.5364 44.2872 27.3398C44.3644 27.3657 44.4674 27.3916 44.5446 27.4175C45.7545 25.9404 47.5564 25.0593 48.5604 23.4007C48.6376 23.2712 48.3802 23.2971 48.3029 23.323C46.9901 24.3078 45.6773 25.3184 44.3387 26.2773C44.4159 26.3032 44.4931 26.3291 44.5704 26.3809C45.6258 25.3962 47.0158 24.6187 47.6337 23.2453C47.7109 23.0898 47.4277 23.1416 47.3505 23.1934C46.4753 24.1264 45.4198 24.8001 44.2872 25.3962C44.3644 25.4221 44.4159 25.4739 44.4931 25.4998C45.0595 24.8261 45.8317 24.3596 46.3723 23.6599C46.501 23.5044 46.2178 23.5044 46.1406 23.5562C45.4971 23.945 44.905 24.3855 44.2357 24.7483C44.3129 24.7742 44.3644 24.8261 44.4417 24.852C44.8278 24.4632 45.5743 23.945 45.4456 23.323C45.4198 23.2193 45.2397 23.2712 45.1882 23.2971C44.9308 23.4526 44.6733 23.634 44.4159 23.7895C44.21 24.0486 44.4674 24.1264 44.5704 24.0486Z" fill="#A9A9A9"/>
<path d="M48.8159 31.5895C48.2753 31.3304 47.6318 31.5895 47.6061 32.2374C47.5803 32.9112 48.4041 33.2999 48.9704 33.0926C49.4337 32.9371 49.4852 32.3929 49.2793 32.0042C49.0476 31.5377 48.5328 31.46 48.1209 31.745C48.0179 31.8228 48.2496 31.7969 48.3011 31.7709C48.9189 31.3563 49.511 32.6002 48.9961 32.9889C48.8159 33.1444 48.4813 33.0148 48.3011 32.963C48.0694 32.8594 47.915 32.678 47.8635 32.4447C47.812 32.2374 47.8377 32.0301 47.915 31.8487C48.0694 31.5636 48.3783 31.5895 48.6357 31.7191C48.6872 31.7191 48.8931 31.6414 48.8159 31.5895Z" fill="#A9A9A9"/>
<path d="M47.3238 34.4399C47.6841 33.9735 48.1218 33.5329 48.6881 33.3515C49.3831 33.1442 49.7178 33.8698 49.8207 34.414C49.8465 34.3881 49.898 34.3622 49.9237 34.3363C48.997 34.6214 48.0445 34.3104 47.1178 34.5695C46.9891 34.5954 47.0149 34.6991 47.1436 34.6473C48.0703 34.3881 49.0227 34.6991 49.9494 34.414C49.9752 34.414 50.0524 34.3881 50.0524 34.3363C49.6148 32.4704 47.9416 33.3774 47.1436 34.4399C47.0663 34.5177 47.298 34.4659 47.3238 34.4399Z" fill="#A9A9A9"/>
<path d="M50.8765 30.8901C50.3359 30.5532 49.6923 30.8642 49.6666 31.7194C49.6409 32.5746 50.4646 33.0669 51.0309 32.8078C51.4943 32.6005 51.5458 31.9267 51.3398 31.4084C51.1082 30.8124 50.5933 30.7087 50.1814 31.0715C50.0785 31.1493 50.3102 31.1493 50.3616 31.0974C50.9794 30.5532 51.5715 32.134 51.0567 32.6523C50.8765 32.8337 50.5418 32.7041 50.3616 32.6005C50.13 32.4968 49.9755 32.2117 49.924 31.9267C49.8725 31.6675 49.8983 31.4084 49.9755 31.1752C50.13 30.7864 50.4389 30.8642 50.6963 31.0197C50.7478 31.0456 50.9537 30.9419 50.8765 30.8901Z" fill="#A9A9A9"/>
<path d="M49.384 34.4926C49.7443 33.8966 50.182 33.3264 50.7483 33.1191C51.4433 32.834 51.778 33.767 51.9067 34.4667C51.9324 34.4408 51.9839 34.4148 52.0096 34.3889C51.0829 34.7517 50.1305 34.3371 49.2038 34.6999C49.0751 34.7517 49.1008 34.8554 49.2295 34.8036C50.1562 34.4667 51.1087 34.8813 52.0354 34.4926C52.0611 34.4926 52.1383 34.4408 52.1383 34.4148C51.7007 32.0307 50.0275 33.1969 49.2295 34.5444C49.1265 34.5962 49.3325 34.5444 49.384 34.4926Z" fill="#A9A9A9"/>
<path d="M52.6259 31.3308C52.0338 31.0976 51.3388 31.3308 51.3131 31.9009C51.2873 32.497 52.1625 32.8339 52.8061 32.6525C53.3209 32.497 53.3724 32.0305 53.1407 31.6677C52.8833 31.2531 52.3427 31.1753 51.8794 31.4345C51.7764 31.4863 52.0081 31.4863 52.0596 31.4604C52.7289 31.0976 53.3724 32.186 52.8061 32.5488C52.6002 32.6784 52.2398 32.5747 52.0596 32.5229C51.8022 32.4451 51.6477 32.2637 51.5705 32.0564C51.519 31.875 51.5447 31.6936 51.6477 31.5381C51.8022 31.279 52.1368 31.3049 52.42 31.4345C52.4972 31.4345 52.7289 31.3567 52.6259 31.3308Z" fill="#A9A9A9"/>
<path d="M51.0053 33.8446C51.3914 33.4299 51.8547 33.0412 52.4725 32.8857C53.2191 32.7043 53.5795 33.3522 53.7082 33.8186C53.7339 33.7927 53.7854 33.7668 53.8111 33.7668C52.8072 34.026 51.7518 33.7409 50.7478 33.9741C50.6191 34.0001 50.6191 34.0778 50.7736 34.0519C51.7775 33.8186 52.8329 34.1037 53.8369 33.8446C53.8626 33.8446 53.9656 33.8186 53.9398 33.7927C53.4765 32.1342 51.6488 32.9375 50.7736 33.8705C50.7478 33.9223 50.9795 33.8964 51.0053 33.8446Z" fill="#A9A9A9"/>
<path d="M47.9668 30.0866C47.9668 30.2939 48.0183 30.5012 48.044 30.7345C48.044 30.7604 48.2757 30.7345 48.25 30.6826C48.25 30.4753 48.1985 30.268 48.1727 30.0348C48.1727 29.9829 47.9668 30.0089 47.9668 30.0866Z" fill="#A9A9A9"/>
<path d="M47.6334 30.4751C47.8908 30.4232 48.1225 30.4492 48.3799 30.4492C48.4572 30.4492 48.6116 30.3196 48.4572 30.3196C48.174 30.3196 47.8908 30.2937 47.6077 30.3714C47.4532 30.3973 47.479 30.501 47.6334 30.4751Z" fill="#A9A9A9"/>
<path d="M50.1289 29.7241C50.1289 29.9314 50.1804 30.1387 50.2061 30.372C50.2061 30.3979 50.4378 30.372 50.4121 30.3201C50.4121 30.1128 50.3606 29.9055 50.3348 29.6723C50.3348 29.6464 50.1289 29.6723 50.1289 29.7241Z" fill="#A9A9A9"/>
<path d="M49.7948 30.1382C50.0522 30.0863 50.2839 30.1122 50.5413 30.1122C50.6186 30.1122 50.773 29.9827 50.6186 29.9827C50.3354 29.9827 50.0522 29.9567 49.7691 30.0345C49.6146 30.0604 49.6661 30.1641 49.7948 30.1382Z" fill="#A9A9A9"/>
<path d="M52.0605 30.0348C52.0605 30.2422 52.112 30.4495 52.1378 30.6827C52.1378 30.7086 52.3695 30.6827 52.3437 30.6309C52.3437 30.4236 52.2922 30.2163 52.2665 29.983C52.2665 29.9312 52.0605 29.9571 52.0605 30.0348Z" fill="#A9A9A9"/>
<path d="M51.7002 30.4233C51.9576 30.3715 52.1893 30.3974 52.4467 30.3974C52.524 30.3974 52.6784 30.2678 52.524 30.2678C52.2408 30.2678 51.9576 30.2419 51.6745 30.3196C51.5458 30.3456 51.5715 30.4492 51.7002 30.4233Z" fill="#A9A9A9"/>
<path d="M54.7631 32.1599C55.5354 32.1599 56.3077 32.2117 57.0799 32.2117C57.1829 32.2117 57.3888 32.0563 57.2086 32.0303C56.4364 32.0303 55.6641 31.9785 54.8919 31.9785C54.7631 32.0044 54.5572 32.1599 54.7631 32.1599Z" fill="#A9A9A9"/>
<path d="M54.481 32.8855C55.5364 32.8855 56.6175 32.8337 57.673 32.8337C57.7244 32.8337 58.0076 32.7041 57.8532 32.7041C56.7977 32.7041 55.7166 32.7559 54.6611 32.7559C54.6097 32.7559 54.3522 32.8855 54.481 32.8855Z" fill="#A9A9A9"/>
<path d="M61.5338 30.9417C61.2764 30.3457 59.7061 30.4493 59.6546 31.175C59.6031 31.9265 60.3754 32.3152 60.8902 32.7298C61.3278 33.0926 61.3793 33.6109 60.71 33.7405C60.3239 33.8183 59.8348 33.7664 59.4744 33.6369C59.3972 33.6109 59.1397 33.7146 59.2427 33.7664C59.7318 33.9478 60.3239 33.9737 60.813 33.8442C61.1734 33.7664 61.8169 33.4295 61.4823 32.9631C61.0447 32.3411 60.2209 32.1597 59.9892 31.3564C59.7833 30.6307 61.0189 30.5012 61.2506 31.0454C61.2506 31.0972 61.5595 30.9936 61.5338 30.9417Z" fill="#A9A9A9"/>
<path d="M60.6325 29.7497C60.6325 31.4601 60.0405 33.0668 59.9375 34.7772C59.9375 34.9327 60.2207 34.8808 60.2464 34.7513C60.3494 33.0409 60.9414 31.4342 60.9414 29.7238C60.9414 29.5683 60.6325 29.6202 60.6325 29.7497Z" fill="#A9A9A9"/>
<path fill-rule="evenodd" clip-rule="evenodd" d="M68.9475 45.9727V52.3477C66.4506 55.4056 62.4091 55.3019 59.9121 52.3477V45.9986H68.9475V45.9727Z" fill="#F7D2BE"/>
<path fill-rule="evenodd" clip-rule="evenodd" d="M47.0421 55.509C45.3431 57.012 44.3392 61.9099 43.3867 67.4556H64.4436H85.5006C84.6511 62.791 83.5699 57.012 81.8452 55.509C78.2156 52.2696 73.7622 50.4038 69.1802 49.7041C67.6099 50.3001 65.9624 50.4815 64.4436 50.4815C62.7962 50.4815 61.2774 50.2742 59.7329 49.7818C54.8162 50.6111 50.2598 52.6325 47.0421 55.509Z" fill="#232323"/>
<path fill-rule="evenodd" clip-rule="evenodd" d="M54.97 36.6691C55.6135 36.4618 56.4373 37.1874 56.7977 38.3276C57.1581 39.442 56.9521 40.5304 56.2828 40.7636C55.6393 40.9709 54.8155 40.2453 54.4552 39.1051C54.0948 37.9648 54.3264 36.8764 54.97 36.6691Z" fill="#F7D7C6"/>
<path fill-rule="evenodd" clip-rule="evenodd" d="M73.5305 36.6691C72.8869 36.4618 72.0632 37.1874 71.7028 38.3276C71.3424 39.442 71.5484 40.5304 72.2177 40.7636C72.8612 40.9709 73.6849 40.2453 74.0453 39.1051C74.4057 37.9648 74.174 36.8764 73.5305 36.6691Z" fill="#FFDECC"/>
<path fill-rule="evenodd" clip-rule="evenodd" d="M51.959 67.4813H52.9372C52.6283 64.0346 52.654 61.9355 52.654 61.9355C52.654 61.9355 52.1649 65.0194 51.959 67.4813Z" fill="black"/>
<path fill-rule="evenodd" clip-rule="evenodd" d="M76.902 67.4813H75.9238C76.2327 64.7084 76.207 61.9355 76.207 61.9355C76.207 61.9355 76.6961 65.0453 76.902 67.4813Z" fill="black"/>
<path fill-rule="evenodd" clip-rule="evenodd" d="M59.3984 27.4177C58.1886 27.314 56.5925 28.2988 56.1292 29.1021C56.5153 28.7653 56.9529 28.4543 57.3648 28.3247C55.4084 29.465 54.9451 31.4604 54.8936 31.6936C54.4302 34.4924 55.151 39.5198 56.5925 42.811C60.3251 51.2851 69.6952 49.8079 71.9348 42.0854C72.9387 38.6646 74.303 32.3933 72.0892 29.2058C70.0556 26.2775 65.9884 25.9146 64.0835 26.0183C64.4181 25.8887 65.1389 25.6814 65.9626 25.7073C62.4617 25.0854 61.0717 26.2515 59.3984 27.4177Z" fill="black"/>
<path fill-rule="evenodd" clip-rule="evenodd" d="M18.4166 49.7822C10.2307 53.9544 7.50203 55.7944 6.4981 56.7014C4.95358 58.0749 4.10409 63.1541 3.20312 67.4819H22.2007H41.1983C40.2973 63.1541 39.4478 58.0489 37.9033 56.7014C36.8994 55.8203 34.2737 54.0063 26.0877 49.834C26.0877 49.834 24.1828 49.1084 22.0977 49.1084C19.6008 49.1084 18.4166 49.7822 18.4166 49.7822Z" fill="#EF6238"/>
<path fill-rule="evenodd" clip-rule="evenodd" d="M26.629 44.8838V50.6109C24.1835 53.3838 20.1935 53.2801 17.748 50.6109V44.8838H26.629Z" fill="#F7D2BE"/>
<path fill-rule="evenodd" clip-rule="evenodd" d="M22.1496 44.8838H17.7734V50.6109C18.9833 51.9326 20.5793 52.6323 22.1753 52.6582V44.8838H22.1496Z" fill="#EDCAB6"/>
<path fill-rule="evenodd" clip-rule="evenodd" d="M14.247 39.6749C14.8391 39.4935 15.5856 40.1414 15.8945 41.1521C16.2292 42.1627 16.0232 43.1475 15.4312 43.3289C14.8391 43.5103 14.0926 42.8624 13.7579 41.8518C13.449 40.8411 13.655 39.8823 14.247 39.6749Z" fill="#F5D5C4"/>
<path fill-rule="evenodd" clip-rule="evenodd" d="M30.2062 39.6749C29.6141 39.4935 28.8676 40.1414 28.5587 41.1521C28.2241 42.1627 28.43 43.1475 29.0221 43.3289C29.6141 43.5103 30.3349 42.8624 30.6696 41.8518C30.9785 40.8411 30.7725 39.8823 30.2062 39.6749Z" fill="#FFDECC"/>
<path fill-rule="evenodd" clip-rule="evenodd" d="M28.3789 51.0001L26.7056 49.834C26.7056 49.834 25.4958 51.2852 22.1751 51.2852C18.9058 51.2852 17.7474 49.834 17.7474 49.834L16.0742 50.9742C16.0742 50.9742 18.2623 53.2288 22.1493 53.2288C26.6284 53.2288 28.3789 51.0001 28.3789 51.0001Z" fill="#C05434"/>
<path fill-rule="evenodd" clip-rule="evenodd" d="M10.9512 67.482H11.8264C11.3888 64.6832 11.569 62.4805 11.569 62.4805C11.569 62.4805 11.3888 66.4454 10.9512 67.482Z" fill="#76C8FF"/>
<path fill-rule="evenodd" clip-rule="evenodd" d="M33.4494 67.482H32.5742C33.0118 65.2274 32.8316 62.4805 32.8316 62.4805C32.8316 62.4805 33.0118 66.5231 33.4494 67.482Z" fill="#76C8FF"/>
<path fill-rule="evenodd" clip-rule="evenodd" d="M29.6396 32.5487C29.1247 31.9527 28.4554 31.4603 27.6832 31.0975C28.2495 31.253 28.893 31.5122 29.5881 31.9527C28.6099 30.7865 27.4 30.0609 26.0357 29.8536C26.2674 29.8277 26.499 29.7759 26.7565 29.75C25.1347 29.3612 23.5902 29.5686 22.3031 30.3719C20.6814 29.3353 18.6992 29.3353 16.7943 30.1128C17.2319 30.0868 17.6438 30.0868 18.0042 30.1128C16.7943 30.4497 15.7132 31.2012 14.8122 32.2637C15.3785 31.9268 15.8933 31.6676 16.3824 31.4862C15.7389 31.9527 15.1983 32.5487 14.8122 33.3262C13.2677 36.4619 14.3746 43.2256 16.0478 45.9725C20.0378 52.5548 25.3149 50.0152 27.9148 46.3094C29.8198 43.6661 31.7761 34.9588 29.6396 32.5487Z" fill="black"/>
<path fill-rule="evenodd" clip-rule="evenodd" d="M37.8259 52.2705C33.424 57.5571 29.4855 54.7843 26.8598 57.5053C25.444 58.7751 24.2599 63.2324 23.8223 67.4565H41.3268H58.8314C58.5482 63.1806 57.1839 58.801 55.7938 57.5053C52.8335 54.7584 49.3583 57.3498 44.9049 52.2965C43.7466 50.9748 38.9586 50.8971 37.8259 52.2705Z" fill="#F7D2BE"/>
<path fill-rule="evenodd" clip-rule="evenodd" d="M41.1981 51.2852C39.7823 51.2852 38.3665 51.622 37.8259 52.2699C33.424 57.5565 29.4855 54.7836 26.8598 57.5047C25.444 58.7745 24.2599 63.2318 23.8223 67.4559H41.1981V51.2852Z" fill="#EDCAB6"/>
<path fill-rule="evenodd" clip-rule="evenodd" d="M47.7616 54.6804C47.324 54.4472 46.8864 54.1362 46.423 53.7734C45.4191 55.6393 42.6132 55.9503 41.1974 55.9762C39.8073 56.0021 36.7698 55.1469 36.0233 54.0067C35.4569 54.4472 34.8906 54.7841 34.3243 55.0433C33.0372 57.4792 33.1917 63.3619 30.0254 67.4564H52.5496C50.3101 64.6835 50.5932 58.5936 47.7616 54.6804Z" fill="#231F20"/>
<path fill-rule="evenodd" clip-rule="evenodd" d="M51.3917 42.4225C52.1382 38.6131 51.0056 34.7777 49.6928 33.1451C47.4017 30.2167 44.7246 28.7396 41.0949 28.7137C37.3366 28.6618 34.4792 31.1756 32.9347 33.6375C30.4892 37.5506 30.5665 41.0231 31.1328 43.4073C31.5961 45.3509 34.3248 50.6893 31.1328 52.6588C35.4832 54.9134 46.3206 55.7426 51.6234 52.5292C48.1225 50.767 50.9541 44.6771 51.3917 42.4225Z" fill="#EF6238"/>
</g>
<defs>
<clipPath id="clip0_437_1505">
<rect width="85" height="68" fill="white" transform="translate(0.5)"/>
</clipPath>
</defs>
</svg>
