<svg width="70" height="68" viewBox="0 0 70 68" fill="none" xmlns="http://www.w3.org/2000/svg">
<path fill-rule="evenodd" clip-rule="evenodd" d="M39.7197 4.85822C41.4884 5.29576 43.181 6.00488 44.6905 6.89505L46.3983 5.23541C47.359 4.25471 48.9905 4.25471 49.9359 5.23541L53.1837 8.44908C54.1748 9.3996 54.1748 11.014 53.1837 11.9494L51.5064 13.6392C52.4061 15.1329 53.1075 16.8076 53.5649 18.5578H55.9436C57.3312 18.5578 58.4748 19.6743 58.4748 21.0623V25.6037C58.4748 26.9767 57.3465 28.1083 55.9436 28.1083H53.5649C53.1075 29.8584 52.4061 31.503 51.5064 33.0268L53.1837 34.6865C54.1748 35.6672 54.1748 37.2514 53.1837 38.217L49.9359 41.4306C48.9753 42.4113 47.3437 42.4113 46.3983 41.4306L44.6905 39.771C43.181 40.6612 41.4884 41.3552 39.7197 41.8078V44.1615C39.7197 45.5345 38.5913 46.6661 37.1885 46.6661H32.6141C31.2265 46.6661 30.0829 45.5496 30.0829 44.1615V41.8078C28.3141 41.3552 26.6521 40.6612 25.112 39.771L23.4347 41.4306C22.4436 42.4113 20.8425 42.4113 19.8667 41.4306L16.6036 38.2321C15.6125 37.2514 15.6125 35.6672 16.6036 34.7016L18.2809 33.0419C17.3812 31.5181 16.6798 29.8735 16.2224 28.1234H13.8437C12.4561 28.1234 11.3125 27.0069 11.3125 25.6188V21.0623C11.3125 19.6894 12.4409 18.5578 13.8437 18.5578H16.2224C16.6798 16.8076 17.3812 15.1329 18.2809 13.6392L16.6036 11.9494C15.6125 10.9989 15.6125 9.38451 16.6036 8.44908L19.8514 5.23541C20.8425 4.25471 22.4436 4.25471 23.4195 5.23541L25.0968 6.89505C26.6368 6.00488 28.2989 5.28067 30.0676 4.85822V2.50455C30.0676 1.13157 31.196 0 32.5988 0H37.1885C38.5761 0 39.7197 1.11649 39.7197 2.50455V4.85822ZM34.9013 15.2989C39.3995 15.2989 43.0285 18.8897 43.0285 23.3406C43.0285 27.7612 39.3995 31.3672 34.9013 31.3672C30.4336 31.3672 26.7741 27.7763 26.7741 23.3406C26.7741 18.8897 30.4336 15.2989 34.9013 15.2989Z" fill="black"/>
<path fill-rule="evenodd" clip-rule="evenodd" d="M34.9018 11.4053C41.55 11.4053 46.963 16.7463 46.963 23.3396C46.963 29.9178 41.5652 35.2438 34.9018 35.2438C28.2537 35.2438 22.8711 29.9329 22.8711 23.3396C22.8711 16.7614 28.2537 11.4053 34.9018 11.4053ZM34.9018 15.2979C39.4 15.2979 43.029 18.8887 43.029 23.3396C43.029 27.7603 39.4 31.3662 34.9018 31.3662C30.4341 31.3662 26.7746 27.7754 26.7746 23.3396C26.7746 18.8887 30.4341 15.2979 34.9018 15.2979Z" fill="#434343"/>
<path fill-rule="evenodd" clip-rule="evenodd" d="M67.5464 51.2822C47.1597 51.2822 26.7578 51.2822 6.40159 51.2822C6.40159 53.1229 3.76367 54.9636 3.76367 56.8043C3.76367 59.2183 6.40159 61.6022 6.40159 63.986C26.7578 63.986 47.1597 63.986 67.5464 63.986C66.0368 59.7615 65.7014 55.5068 67.5464 51.2822Z" fill="#E9EAEB"/>
<path fill-rule="evenodd" clip-rule="evenodd" d="M66.7083 61.075C66.6168 60.6224 66.5406 60.1547 66.4796 59.7021H30.8906C30.5094 59.7021 30.2197 60.0189 30.2197 60.3961C30.2197 60.7733 30.5094 61.0901 30.8906 61.0901H66.7083V61.075ZM66.3119 57.1372C66.3119 56.6845 66.3424 56.247 66.3728 55.7793H22.4736C22.1229 55.7793 21.8027 56.066 21.8027 56.4431C21.8027 56.8203 22.1229 57.1372 22.4736 57.1372H66.3119Z" fill="#D6D6D6"/>
<path fill-rule="evenodd" clip-rule="evenodd" d="M67.5464 51.2822H7.59094C7.04201 51.5991 6.53882 52.0064 6.11187 52.3987C5.41046 53.8622 3.76367 55.3257 3.76367 56.7892C3.76367 59.2032 6.40159 61.5871 6.40159 63.9709H8.26185C7.36222 62.8846 6.81329 61.4966 6.81329 59.9727C6.81329 58.2225 7.54519 56.6383 8.70405 55.4917C9.8629 54.3148 11.4944 53.6208 13.2327 53.6208H66.7382C66.9365 52.8363 67.2109 52.0517 67.5464 51.2822Z" fill="#D6D6D6"/>
<path d="M69.5006 68.0008H12.3051C9.39275 68.0008 6.78532 66.824 4.89456 64.9531C2.97331 63.0521 1.81445 60.4721 1.81445 57.6205C1.81445 54.769 2.97331 52.189 4.89456 50.2879C6.78532 48.4171 9.39275 47.2402 12.3051 47.2402H69.5006V51.2686H12.3051C10.5364 51.2686 8.90481 51.9928 7.74595 53.1395C6.5871 54.2862 5.85519 55.8704 5.85519 57.6205C5.85519 59.3707 6.5871 60.9549 7.74595 62.1015C8.90481 63.2482 10.5364 63.9724 12.3051 63.9724H69.5006V68.0008Z" fill="black"/>
<path fill-rule="evenodd" clip-rule="evenodd" d="M35.7402 55.7939H41.3515V66.476L38.4696 65.0427L35.7402 66.476V55.7939Z" fill="#EF6238"/>
<path fill-rule="evenodd" clip-rule="evenodd" d="M2.45312 30.5215C22.8398 30.5215 43.2417 30.5215 63.5979 30.5215C63.5979 32.3622 66.2358 34.2029 66.2358 36.0737C66.2358 38.4576 63.5979 40.8716 63.5979 43.2554C43.2417 43.2554 22.8398 43.2554 2.45312 43.2554C3.96268 39.0007 4.31339 34.7762 2.45312 30.5215Z" fill="#E9EAEB"/>
<path fill-rule="evenodd" clip-rule="evenodd" d="M3.29102 40.3289C3.3825 39.8763 3.45874 39.4388 3.51974 38.9711H39.1087C39.4899 38.9711 39.7796 39.2879 39.7796 39.6651C39.7796 40.0423 39.4899 40.3289 39.1087 40.3289H3.29102ZM3.70271 36.3911C3.70271 35.9535 3.67222 35.5009 3.64172 35.0332H47.5409C47.8916 35.0332 48.2118 35.35 48.2118 35.7272C48.2118 36.1044 47.8916 36.3911 47.5409 36.3911H3.70271Z" fill="#D6D6D6"/>
<path fill-rule="evenodd" clip-rule="evenodd" d="M2.45312 30.5215H62.4085C62.9575 30.8685 63.4607 31.2457 63.8876 31.6681C64.589 33.1316 66.2358 34.5951 66.2358 36.0587C66.2358 38.4425 63.5979 40.8565 63.5979 43.2404H61.7376C62.6373 42.1541 63.1862 40.7358 63.1862 39.212C63.1862 37.492 62.4543 35.8776 61.2954 34.7309C60.1366 33.5843 58.505 32.8601 56.7668 32.8601H3.26127C3.06305 32.1057 2.80383 31.306 2.45312 30.5215Z" fill="#D6D6D6"/>
<path d="M0.5 47.2538H57.6955C60.6079 47.2538 63.2153 46.1072 65.1061 44.2061C67.0273 42.3353 68.1862 39.7553 68.1862 36.9037C68.1862 34.022 67.0273 31.442 65.1061 29.5711C63.2153 27.6701 60.6079 26.5234 57.6955 26.5234H0.5V30.5217H57.6955C59.4643 30.5217 61.0958 31.2459 62.2547 32.3925C63.4136 33.5392 64.1455 35.1536 64.1455 36.9037C64.1455 38.6237 63.4136 40.2381 62.2547 41.3847C61.0958 42.5314 59.4643 43.2556 57.6955 43.2556H0.5V47.2538Z" fill="#EF6238"/>
</svg>
