<svg width="50" height="69" viewBox="0 0 50 69" fill="none" xmlns="http://www.w3.org/2000/svg">
<path d="M46.2275 68.0034H1.99596C1.31308 68.0034 0.75 67.4524 0.75 66.7576V1.24579C0.75 0.563001 1.3011 0 1.99596 0H46.2155C46.8984 0 47.4614 0.551022 47.4614 1.24579V66.7576C47.4614 67.4404 46.9103 68.0034 46.2275 68.0034Z" fill="#2B303B"/>
<path d="M48.0046 68.0034H3.78502C3.10214 68.0034 2.53906 67.4524 2.53906 66.7576V1.24579C2.53906 0.563001 3.09016 0 3.78502 0H48.0046C48.6874 0 49.2505 0.551022 49.2505 1.24579V66.7576C49.2505 67.4404 48.6874 68.0034 48.0046 68.0034Z" fill="#343434"/>
<path d="M46.7214 52.5872V3.86963H5.2334V52.5872C5.2334 57.81 9.47445 62.0505 14.6979 62.0505H39.4972C34.2618 62.0505 46.7214 57.81 46.7214 52.5872Z" fill="white"/>
<rect x="5.23145" y="31.1372" width="41.5719" height="31.0259" fill="white"/>
<path d="M16.1679 55.8549H9.79438C9.07556 55.8549 8.50051 55.2799 8.50051 54.5611L7.98535 47.6731C7.98535 47.0622 8.48853 46.5591 9.09952 46.5591H15.6528C16.3716 46.5591 16.9467 47.1341 16.9467 47.8528L17.2941 54.7408C17.2821 55.3518 16.7789 55.8549 16.1679 55.8549Z" fill="#EF6238"/>
<path d="M12.7429 53.4724C12.6111 53.4724 12.4913 53.4125 12.4194 53.2927L10.2749 50.0584C10.1551 49.8787 10.203 49.6391 10.3827 49.5193C10.5624 49.3995 10.802 49.4474 10.9218 49.6271L12.7309 52.3584L15.5702 47.8662C15.69 47.6865 15.9296 47.6266 16.1093 47.7464C16.289 47.8662 16.3489 48.1058 16.2291 48.2855L13.0663 53.2808C13.0064 53.4005 12.8866 53.4724 12.7429 53.4724Z" fill="white"/>
<path d="M29.5372 50.6954H20.2165C19.881 50.6954 19.6055 50.4199 19.6055 50.0845V49.4137C19.6055 49.0783 19.881 48.8027 20.2165 48.8027H29.5372C29.8726 48.8027 30.1482 49.0783 30.1482 49.4137V50.0845C30.1482 50.4199 29.8726 50.6954 29.5372 50.6954Z" fill="#EF6238"/>
<path d="M40.0799 54.3112H20.2165C19.881 54.3112 19.6055 54.0356 19.6055 53.7002V53.0294C19.6055 52.694 19.881 52.4185 20.2165 52.4185H40.0919C40.4273 52.4185 40.7029 52.694 40.7029 53.0294V53.7002C40.6909 54.0356 40.4273 54.3112 40.0799 54.3112Z" fill="#EF6238"/>
<path d="M16.5704 21.0837H8.69929C8.30394 21.0837 7.98047 20.7602 7.98047 20.3649V12.4946C7.98047 12.0993 8.30394 11.7759 8.69929 11.7759H16.5704C16.9657 11.7759 17.2892 12.0993 17.2892 12.4946V20.3649C17.2892 20.7602 16.9657 21.0837 16.5704 21.0837Z" fill="#EF6238"/>
<path d="M12.3044 19.3098C12.1726 19.3098 12.0528 19.2499 11.9809 19.1301L9.83643 15.8958C9.71662 15.7161 9.76454 15.4765 9.94425 15.3567C10.124 15.2369 10.3636 15.2848 10.4834 15.4645L12.2924 18.1958L15.1317 13.7036C15.2516 13.5239 15.4912 13.464 15.6709 13.5838C15.8506 13.7036 15.9105 13.9432 15.7907 14.1229L12.6398 19.1182C12.568 19.2379 12.4481 19.2978 12.3044 19.3098C12.3164 19.3098 12.3044 19.3098 12.3044 19.3098Z" fill="white"/>
<path d="M29.5372 15.9191H20.2165C19.881 15.9191 19.6055 15.6435 19.6055 15.3081V14.6373C19.6055 14.3019 19.881 14.0264 20.2165 14.0264H29.5372C29.8726 14.0264 30.1482 14.3019 30.1482 14.6373V15.3081C30.1482 15.6435 29.8726 15.9191 29.5372 15.9191Z" fill="#EF6238"/>
<path d="M40.0799 19.5367H20.2165C19.881 19.5367 19.6055 19.2612 19.6055 18.9258V18.255C19.6055 17.9196 19.881 17.644 20.2165 17.644H40.0919C40.4273 17.644 40.7029 17.9196 40.7029 18.255V18.9258C40.6909 19.2612 40.4273 19.5367 40.0799 19.5367Z" fill="#EF6238"/>
<path d="M29.5372 33.3009H20.2165C19.881 33.3009 19.6055 33.0254 19.6055 32.69V32.0191C19.6055 31.6837 19.881 31.4082 20.2165 31.4082H29.5372C29.8726 31.4082 30.1482 31.6837 30.1482 32.0191V32.69C30.1482 33.0374 29.8726 33.3009 29.5372 33.3009Z" fill="#EF6238"/>
<path d="M40.0799 36.9196H20.2165C19.881 36.9196 19.6055 36.644 19.6055 36.3086V35.6378C19.6055 35.3024 19.881 35.0269 20.2165 35.0269H40.0919C40.4273 35.0269 40.7029 35.3024 40.7029 35.6378V36.3086C40.6909 36.644 40.4273 36.9196 40.0799 36.9196Z" fill="#EF6238"/>
<path d="M16.5704 37.6857H8.69929C8.30394 37.6857 7.98047 37.3623 7.98047 36.967V29.0967C7.98047 28.7014 8.30394 28.3779 8.69929 28.3779H16.5704C16.9657 28.3779 17.2892 28.7014 17.2892 29.0967V36.967C17.2892 37.3623 16.9657 37.6857 16.5704 37.6857Z" fill="#EF6238"/>
<path d="M12.3044 35.9011C12.1726 35.9011 12.0528 35.8413 11.9809 35.7215L9.83643 32.4871C9.71662 32.3074 9.76454 32.0678 9.94425 31.948C10.124 31.8282 10.3636 31.8762 10.4834 32.0558L12.2924 34.7871L15.1317 30.2949C15.2516 30.1152 15.4912 30.0553 15.6709 30.1751C15.8506 30.2949 15.9105 30.5345 15.7907 30.7142L12.6398 35.7215C12.568 35.8293 12.4481 35.9011 12.3044 35.9011C12.3164 35.9011 12.3044 35.9011 12.3044 35.9011Z" fill="white"/>
</svg>
