<svg width="70" height="67" viewBox="0 0 70 67" fill="none" xmlns="http://www.w3.org/2000/svg">
<g clip-path="url(#clip0_298_6226)">
<path d="M69.876 31.5779C69.9523 30.6935 70.0001 29.7995 70.0001 28.8959H59.8228C59.5268 28.6652 59.2022 28.2327 59.2022 27.406C59.2022 26.4159 59.6605 25.8295 59.9851 25.0413C59.9946 25.0124 60.0137 24.9836 60.0233 24.9548C60.0233 24.9451 60.0328 24.9451 60.0328 24.9355C60.0328 24.9451 60.0328 24.9451 60.0233 24.9548C60.1951 24.503 60.3001 24.0127 60.3001 23.4936C60.3001 21.3789 58.6771 19.6582 56.6627 19.6582C54.6578 19.6582 53.0252 21.3789 53.0252 23.4936C53.0252 24.0127 53.1207 24.503 53.3021 24.9548C53.3021 24.9451 53.3021 24.9451 53.3021 24.9355C53.3021 24.9451 53.3021 24.9451 53.3116 24.9548C53.3211 24.9836 53.3402 25.0124 53.3498 25.0413C53.6744 25.8391 54.1327 26.4255 54.1327 27.406C54.1327 28.2327 53.8081 28.6652 53.5121 28.8959H48.7576C48.7576 32.9813 45.5211 36.2977 41.4922 36.3938V41.575C41.7118 41.8922 42.1223 42.2286 42.9052 42.2286C43.8408 42.2286 44.3945 41.7384 45.1488 41.402C45.1774 41.3923 45.206 41.3731 45.2347 41.3635C45.6643 41.1809 46.1226 41.0751 46.619 41.0751C48.6239 41.0751 50.2565 42.7958 50.2565 44.9106C50.2565 47.0253 48.6335 48.746 46.619 48.746C46.1321 48.746 45.6643 48.6403 45.2347 48.4576C45.2442 48.4576 45.2442 48.4672 45.2538 48.4672C45.2442 48.4672 45.2442 48.4576 45.2347 48.4576C45.206 48.448 45.1774 48.4288 45.1488 48.4192C44.3945 48.0731 43.8408 47.5925 42.9052 47.5925C42.1223 47.5925 41.7118 47.9385 41.4922 48.2461V57.7819C42.3228 57.7723 43.1534 57.7338 43.9649 57.6569L45.2729 52.3988C46.7431 52.1489 48.1752 51.7644 49.5405 51.2453L53.283 55.1384C54.906 54.3886 56.4526 53.485 57.8943 52.4565L56.4144 47.2464C57.5506 46.2948 58.6007 45.247 59.5364 44.1031L64.7109 45.5931C65.7325 44.1416 66.6299 42.5843 67.3746 40.9502L63.508 37.182C64.014 35.8074 64.4054 34.3655 64.6537 32.8756L69.876 31.5779Z" fill="black"/>
<path d="M69.876 26.2136L64.6537 24.8967C64.4054 23.4164 64.0235 21.9745 63.508 20.5999L67.3746 16.8317C66.6299 15.1976 65.7325 13.6403 64.7109 12.1888L59.5364 13.6788C58.5912 12.5349 57.5506 11.4775 56.4144 10.5354L57.8943 5.32539C56.4526 4.29684 54.906 3.39326 53.283 2.64347L49.5405 6.53659C48.1752 6.02712 46.7431 5.64261 45.2729 5.38307L43.9649 0.124964C43.1534 0.0480631 42.3228 0.00961263 41.4922 0V9.53572C41.7118 9.85294 42.1223 10.1894 42.9052 10.1894C43.8408 10.1894 44.3945 9.69914 45.1488 9.3627C45.1774 9.35309 45.206 9.33386 45.2347 9.32425C45.6643 9.14161 46.1226 9.03587 46.619 9.03587C48.6239 9.03587 50.2565 10.7565 50.2565 12.8713C50.2565 14.9861 48.6335 16.7067 46.619 16.7067C46.1321 16.7067 45.6643 16.601 45.2347 16.4184C45.2442 16.4184 45.2442 16.4184 45.2538 16.428C45.2442 16.428 45.2442 16.4184 45.2347 16.4184C45.206 16.4088 45.1774 16.3895 45.1488 16.3799C44.3945 16.0339 43.8408 15.5532 42.9052 15.5532C42.1223 15.5532 41.7118 15.8993 41.4922 16.2069V21.3881C45.5211 21.4938 48.7576 24.8102 48.7576 28.8859H53.5121C53.8081 28.6552 54.1327 28.2227 54.1327 27.396C54.1327 26.4059 53.6648 25.8195 53.3498 25.0313C53.3402 25.0024 53.3212 24.9736 53.3116 24.9448C53.1398 24.493 53.0347 24.0027 53.0347 23.4836C53.0347 21.3593 54.6578 19.6482 56.6722 19.6482C58.6771 19.6482 60.3097 21.3689 60.3097 23.4836C60.3097 24.0027 60.2142 24.493 60.0328 24.9448C60.0328 24.9448 60.0424 24.9352 60.0424 24.9255C60.0424 24.9352 60.0424 24.9352 60.0328 24.9448C60.0233 24.9736 60.0042 25.0024 59.9946 25.0313C59.67 25.8291 59.2118 26.4155 59.2118 27.396C59.2118 28.2227 59.5364 28.6552 59.8323 28.8859H70.0096C70.0001 27.992 69.9523 27.098 69.876 26.2136Z" fill="#EF6238"/>
<path d="M46.6182 9.03587C46.1313 9.03587 45.6635 9.14161 45.2339 9.32425C45.2339 9.32425 45.2434 9.32425 45.253 9.31463C45.2434 9.31463 45.2434 9.31463 45.2339 9.32425C45.2052 9.33386 45.1766 9.35308 45.1479 9.3627C44.3937 9.70875 43.84 10.1894 42.9043 10.1894C42.1215 10.1894 41.7109 9.84333 41.4914 9.53572V0C41.4245 0 41.3672 0 41.3004 0C40.403 0 39.5151 0.0480631 38.6368 0.124964L37.3288 5.38307C35.8585 5.633 34.4264 6.0175 33.0612 6.53658L29.3187 2.64347C27.6957 3.39326 26.149 4.29684 24.7074 5.32539L26.1872 10.5354C25.0511 11.4871 24.0009 12.5349 23.0653 13.6788L17.8907 12.1888C16.8692 13.6403 15.9717 15.1976 15.227 16.8317L19.0937 20.5999C18.5877 21.9745 18.2058 23.4164 17.948 24.8967L12.7257 26.2136C12.6493 27.098 12.6016 27.992 12.6016 28.8956H23.1512C23.4472 29.1263 23.7718 29.5588 23.7718 30.3855C23.7718 31.3756 23.3135 31.962 22.9889 32.7502C22.9794 32.7791 22.9603 32.8079 22.9507 32.8367C22.9507 32.8463 22.9412 32.8463 22.9412 32.856C22.9412 32.8463 22.9412 32.8463 22.9507 32.8367C22.7789 33.2885 22.6738 33.7788 22.6738 34.2978C22.6738 36.4126 24.2969 38.1333 26.3113 38.1333C28.3162 38.1333 29.9488 36.4126 29.9488 34.2978C29.9488 33.7788 29.8533 33.2885 29.6719 32.8367C29.6719 32.8367 29.6815 32.8463 29.6815 32.856C29.6815 32.8463 29.6719 32.8463 29.6719 32.8367C29.6624 32.8079 29.6433 32.7791 29.6337 32.7502C29.3091 31.9524 28.8509 31.366 28.8509 30.3855C28.8509 29.5588 29.1755 29.1263 29.4714 28.8956H33.8441C33.8441 24.7525 37.1856 21.3881 41.3004 21.3881C41.3672 21.3881 41.4245 21.3881 41.4914 21.3977V16.2165C41.7109 15.8993 42.1215 15.5628 42.9043 15.5628C43.84 15.5628 44.3937 16.0531 45.1479 16.3895C45.1766 16.3991 45.2052 16.4184 45.2339 16.428C45.2434 16.428 45.2434 16.428 45.253 16.4376C45.2434 16.4376 45.2434 16.428 45.2339 16.428C45.6635 16.6106 46.1217 16.7164 46.6182 16.7164C48.6231 16.7164 50.2557 14.9957 50.2557 12.8809C50.2461 10.7565 48.6231 9.03587 46.6182 9.03587Z" fill="black"/>
<path d="M34.0071 50.2835C33.5202 50.2835 33.0524 50.3893 32.6228 50.5719C32.6228 50.5719 32.6323 50.5719 32.6419 50.5623C32.6323 50.5623 32.6323 50.5719 32.6228 50.5719C32.5941 50.5815 32.5655 50.6008 32.5368 50.6104C31.7826 50.9564 31.2289 51.437 30.2932 51.437C29.5104 51.437 29.0998 51.091 28.8803 50.7834V45.6022C28.8134 45.6022 28.7562 45.6022 28.6893 45.6022C24.5745 45.6022 21.233 42.2378 21.233 38.0947H16.8603C16.5644 38.3254 16.2398 38.758 16.2398 39.5847C16.2398 40.5748 16.698 41.1612 17.0226 41.9494C17.0322 41.9782 17.0513 42.0071 17.0608 42.0359C17.0608 42.0455 17.0704 42.0455 17.0704 42.0551C17.0704 42.0455 17.0608 42.0455 17.0608 42.0359C17.2327 42.4877 17.3377 42.9779 17.3377 43.497C17.3377 45.6118 15.7147 47.3325 13.7002 47.3325C11.6953 47.3325 10.0627 45.6118 10.0627 43.497C10.0627 42.9779 10.1582 42.4877 10.3396 42.0359C10.3492 42.0071 10.3683 41.9782 10.3778 41.9494C10.7024 41.1515 11.1607 40.5652 11.1607 39.5847C11.1607 38.758 10.8361 38.3254 10.5401 38.0947H0C0 38.9983 0.047736 39.8923 0.124114 40.7767L5.34643 42.0936C5.59466 43.5739 5.97654 45.0158 6.49209 46.4L2.62548 50.1682C3.37016 51.8023 4.2676 53.3596 5.28915 54.8111L10.4637 53.3211C11.4089 54.465 12.4495 55.5224 13.5857 56.4645L12.1058 61.6745C13.5475 62.703 15.0941 63.6066 16.7171 64.3564L20.4596 60.4633C21.8249 60.9728 23.257 61.3573 24.7272 61.6168L26.0352 66.8749C26.9135 66.9518 27.8014 66.9999 28.6989 66.9999C28.7657 66.9999 28.823 66.9999 28.8898 66.9999V57.4642C29.1094 57.147 29.5199 56.8105 30.3028 56.8105C31.2384 56.8105 31.7922 57.3008 32.5464 57.6372C32.575 57.6468 32.6037 57.666 32.6323 57.6756C32.6419 57.6756 32.6419 57.6853 32.6514 57.6853C32.6419 57.6853 32.6419 57.6756 32.6323 57.6756C33.0619 57.8583 33.5202 57.964 34.0167 57.964C36.0216 57.964 37.6541 56.2434 37.6541 54.1286C37.6446 52.0042 36.0216 50.2835 34.0071 50.2835Z" fill="#EF6238"/>
</g>
<defs>
<clipPath id="clip0_298_6226">
<rect width="70" height="67" fill="white"/>
</clipPath>
</defs>
</svg>
