<svg width="70" height="69" viewBox="0 0 70 69" fill="none" xmlns="http://www.w3.org/2000/svg">
<path d="M47.1164 0H3.39453V58.6867H47.1164V0Z" fill="#E9EAEB"/>
<path d="M49.5473 3.74121H0.966797V68.991H49.5473V3.74121Z" fill="#E9EAEB"/>
<path opacity="0.08" d="M47.1164 2.27246H3.39453V3.74215H47.1164V2.27246Z" fill="black"/>
<path d="M33.4678 12.6162H17.0448C16.6418 12.6162 16.3115 12.2852 16.3115 11.8813C16.3115 11.4774 16.6418 11.1465 17.0448 11.1465H33.4678C33.8708 11.1465 34.2011 11.4774 34.2011 11.8813C34.2011 12.2908 33.8764 12.6162 33.4678 12.6162Z" fill="black"/>
<path d="M6.45312 62.7084V57.8843C6.45312 57.4804 6.78338 57.1494 7.18639 57.1494C7.58941 57.1494 7.91966 57.4804 7.91966 57.8843V62.7084C7.91966 63.1123 7.58941 63.4433 7.18639 63.4433C6.77778 63.4433 6.45312 63.1123 6.45312 62.7084Z" fill="black"/>
<path d="M9.37793 62.7075V59.8354C9.37793 59.4315 9.70818 59.1006 10.1112 59.1006C10.5142 59.1006 10.8445 59.4315 10.8445 59.8354V62.7075C10.8445 63.1114 10.5142 63.4424 10.1112 63.4424C9.70818 63.4424 9.37793 63.1114 9.37793 62.7075Z" fill="black"/>
<path d="M12.3096 62.7081V56.8237C12.3096 56.4198 12.6398 56.0889 13.0428 56.0889C13.4459 56.0889 13.7761 56.4198 13.7761 56.8237V62.7081C13.7761 63.112 13.4459 63.4429 13.0428 63.4429C12.6398 63.4429 12.3096 63.112 12.3096 62.7081Z" fill="black"/>
<path d="M15.248 62.7082V58.1645C15.248 57.7607 15.5783 57.4297 15.9813 57.4297C16.3843 57.4297 16.7146 57.7607 16.7146 58.1645V62.7082C16.7146 63.1121 16.3843 63.4431 15.9813 63.4431C15.5783 63.4431 15.248 63.1121 15.248 62.7082Z" fill="black"/>
<path d="M18.1768 62.7076V58.938C18.1768 58.5341 18.507 58.2031 18.91 58.2031C19.313 58.2031 19.6433 58.5341 19.6433 58.938V62.7076C19.6433 63.1115 19.313 63.4424 18.91 63.4424C18.5014 63.4424 18.1768 63.1115 18.1768 62.7076Z" fill="black"/>
<path d="M21.1113 62.7078V54.602C21.1113 54.1982 21.4416 53.8672 21.8446 53.8672C22.2476 53.8672 22.5779 54.1982 22.5779 54.602V62.7078C22.5779 63.1117 22.2476 63.4426 21.8446 63.4426C21.436 63.4426 21.1113 63.1117 21.1113 62.7078Z" fill="black"/>
<path d="M15.3419 23.4873H7.18639C6.78338 23.4873 6.45312 23.1563 6.45312 22.7524C6.45312 22.3485 6.78338 22.0176 7.18639 22.0176H15.3475C15.7505 22.0176 16.0808 22.3485 16.0808 22.7524C16.0752 23.1563 15.7505 23.4873 15.3419 23.4873Z" fill="black"/>
<path d="M12.9518 31.7441H7.18639C6.78338 31.7441 6.45312 31.4131 6.45312 31.0093C6.45312 30.6054 6.78338 30.2744 7.18639 30.2744H12.9518C13.3548 30.2744 13.6851 30.6054 13.6851 31.0093C13.6851 31.4188 13.3548 31.7441 12.9518 31.7441Z" fill="black"/>
<path d="M15.3419 40.0068H7.18639C6.78338 40.0068 6.45312 39.6758 6.45312 39.272C6.45312 38.8681 6.78338 38.5371 7.18639 38.5371H15.3475C15.7505 38.5371 16.0808 38.8681 16.0808 39.272C16.0752 39.6814 15.7505 40.0068 15.3419 40.0068Z" fill="black"/>
<path d="M17.7992 48.2695H7.18639C6.78338 48.2695 6.45312 47.9385 6.45312 47.5347C6.45312 47.1308 6.78338 46.7998 7.18639 46.7998H17.7992C18.2022 46.7998 18.5325 47.1308 18.5325 47.5347C18.5269 47.9441 18.2022 48.2695 17.7992 48.2695Z" fill="black"/>
<path d="M41.451 41.3541C44.8742 37.9236 44.8742 32.3616 41.451 28.9311C38.0278 25.5005 32.4778 25.5005 29.0546 28.9311C25.6315 32.3616 25.6315 37.9236 29.0546 41.3541C32.4778 44.7846 38.0278 44.7846 41.451 41.3541Z" fill="#EF6138"/>
<path d="M34.3017 38.1997C34.1114 38.1997 33.9267 38.1268 33.7812 37.9866L31.6038 35.8045C31.3183 35.5184 31.3183 35.0528 31.6038 34.7667C31.8892 34.4806 32.3538 34.4806 32.6393 34.7667L34.2961 36.4271L38.4159 32.2985C38.7013 32.0125 39.1659 32.0125 39.4514 32.2985C39.7369 32.5846 39.7369 33.0502 39.4514 33.3363L34.8111 37.9866C34.6768 38.1268 34.4864 38.1997 34.3017 38.1997Z" fill="#E9EAEB"/>
<path d="M67.1011 66.9564L66.9948 67.0629C64.2408 69.8228 59.7181 69.604 57.244 66.5973L46.2338 53.2131L44.7896 51.4573L42.9648 49.2415L49.3236 42.8691L51.5346 44.6978L53.281 46.1451L66.631 57.1846C69.6368 59.664 69.8551 64.2021 67.1011 66.9564Z" fill="#EF6138"/>
<path opacity="0.08" d="M51.5346 44.6956C50.7789 46.0812 49.8105 47.377 48.6407 48.5494C47.4708 49.7218 46.1722 50.6866 44.7896 51.4495L42.9648 49.2337L49.3236 42.8613L51.5346 44.6956Z" fill="black"/>
<path d="M47.344 23.0328C40.6662 16.3406 29.8463 16.3406 23.1685 23.0328C16.4907 29.7249 16.4907 40.5681 23.1685 47.2603C29.8463 53.9524 40.6662 53.9524 47.344 47.2603C54.0218 40.5681 54.0218 29.7193 47.344 23.0328ZM43.9799 43.8889C43.756 44.1133 43.5265 44.3209 43.297 44.5284C41.573 46.0149 39.5355 46.9461 37.4141 47.322C35.9867 47.5744 34.5258 47.5744 33.0984 47.322C30.9826 46.9461 28.9451 46.0149 27.2155 44.5284C26.9804 44.3265 26.7509 44.1133 26.5326 43.8889C25.5978 42.9521 24.8477 41.9032 24.2712 40.7813C23.8122 39.8894 23.4708 38.947 23.2469 37.9877C22.9558 36.7593 22.8606 35.4971 22.9502 34.2462C23.0174 33.3038 23.1965 32.3614 23.482 31.4527C23.8906 30.1288 24.5343 28.8611 25.4019 27.7111C25.7433 27.2567 26.124 26.8192 26.5382 26.4041C27.0979 25.8431 27.6969 25.3495 28.3294 24.9176C32.4995 22.0736 38.0186 22.0736 42.1887 24.9176C42.8212 25.3495 43.4202 25.8431 43.9799 26.4041C44.3549 26.7799 44.6964 27.1726 45.0154 27.5765C48.7713 32.4231 48.4243 39.435 43.9799 43.8889Z" fill="#EF6138"/>
<path d="M62.1949 66.0355C60.0511 66.0355 58.3047 64.2853 58.3047 62.1369C58.3047 59.9884 60.0511 58.2383 62.1949 58.2383C64.3388 58.2383 66.0852 59.9884 66.0852 62.1369C66.0852 64.2853 64.3388 66.0355 62.1949 66.0355ZM62.1949 59.708C60.8571 59.708 59.7712 60.7962 59.7712 62.1369C59.7712 63.4776 60.8571 64.5658 62.1949 64.5658C63.5327 64.5658 64.6186 63.4776 64.6186 62.1369C64.6186 60.7962 63.5327 59.708 62.1949 59.708Z" fill="#EF6138"/>
</svg>
