<svg width="76" height="68" viewBox="0 0 76 68" fill="none" xmlns="http://www.w3.org/2000/svg">
<g clip-path="url(#clip0_298_6133)">
<path d="M54.661 42.5639C59.4227 42.5639 63.2829 38.7311 63.2829 34.0031C63.2829 29.2752 59.4227 25.4424 54.661 25.4424C49.8992 25.4424 46.0391 29.2752 46.0391 34.0031C46.0391 38.7311 49.8992 42.5639 54.661 42.5639Z" fill="white"/>
<path d="M71.6224 31.5938L75.873 29.0975L73.151 22.5671L68.3707 23.7853C67.412 22.4472 66.2387 21.3156 64.9448 20.377L66.1717 15.6572L59.6013 12.9346L57.0804 17.1484C55.4982 16.9021 53.8623 16.8888 52.2264 17.155L49.719 12.9612L43.1419 15.6639L44.3554 20.3903C43.0145 21.3489 41.868 22.5072 40.9227 23.7919L36.176 22.5737L33.4473 29.1174L37.6778 31.5938C37.4096 33.1781 37.4163 34.7891 37.6845 36.4134L33.4607 38.9031L36.1827 45.4334L40.9428 44.2286C41.9083 45.5599 43.048 46.7116 44.3822 47.6635L43.1553 52.3832L49.7458 55.0726L52.2331 50.8721C53.8288 51.1384 55.4647 51.1584 57.0938 50.8921L59.6013 55.0859L66.1784 52.3832L64.9649 47.6568C66.3058 46.6983 67.4522 45.54 68.3908 44.2286L73.1711 45.4401L75.8864 38.923L71.6492 36.4267C71.8637 34.8157 71.8906 33.1914 71.6224 31.5938ZM57.4291 40.6139C53.7349 42.1316 49.5312 40.3942 48.0093 36.7396C46.4874 33.0849 48.2105 28.8911 51.9046 27.3733C55.5853 25.8622 59.8091 27.613 61.3311 31.261C62.853 34.9156 61.1098 39.1028 57.4291 40.6139Z" fill="black"/>
<path d="M54.6607 15.2311C54.0171 15.2311 53.4941 14.7119 53.4941 14.0728V8.13486C53.4941 7.4958 54.0171 6.97656 54.6607 6.97656C55.3043 6.97656 55.8273 7.4958 55.8273 8.13486V14.0728C55.8273 14.7119 55.3043 15.2311 54.6607 15.2311Z" fill="black"/>
<path d="M54.6607 61.0239C54.0171 61.0239 53.4941 60.5046 53.4941 59.8656V53.921C53.4941 53.2819 54.0171 52.7627 54.6607 52.7627C55.3043 52.7627 55.8273 53.2819 55.8273 53.921V59.8656C55.8273 60.5113 55.3043 61.0239 54.6607 61.0239Z" fill="black"/>
<path d="M56.7148 6.45125C57.8485 5.3256 57.8485 3.50057 56.7148 2.37492C55.5811 1.24927 53.7431 1.24927 52.6094 2.37492C51.4757 3.50057 51.4757 5.3256 52.6094 6.45125C53.7431 7.5769 55.5811 7.5769 56.7148 6.45125Z" fill="white"/>
<path d="M56.7148 65.63C57.8485 64.5043 57.8485 62.6793 56.7148 61.5536C55.5811 60.428 53.7431 60.428 52.6094 61.5536C51.4757 62.6793 51.4757 64.5043 52.6094 65.63C53.7431 66.7556 55.5811 66.7556 56.7148 65.63Z" fill="white"/>
<path d="M10.3186 11.9364L7.99219 11.9165L8.02571 8.12203C8.05253 5.43931 10.2717 3.25586 12.9736 3.25586H51.1554V5.56579H12.9736C11.5455 5.56579 10.3723 6.71743 10.3589 8.142L10.3186 11.9364Z" fill="black"/>
<path d="M54.6613 8.88711C52.1941 8.88711 50.1895 6.8967 50.1895 4.44697C50.1895 1.99724 52.1941 0.00683594 54.6613 0.00683594C57.1285 0.00683594 59.1331 1.99724 59.1331 4.44697C59.1331 6.89004 57.1285 8.88711 54.6613 8.88711ZM54.6613 2.59636C53.6355 2.59636 52.8042 3.42181 52.8042 4.44031C52.8042 5.45882 53.6355 6.28427 54.6613 6.28427C55.6871 6.28427 56.5184 5.45882 56.5184 4.44031C56.5184 3.42181 55.6871 2.59636 54.6613 2.59636Z" fill="#EF6138"/>
<path d="M51.1554 64.745H12.9736C10.2717 64.745 8.05253 62.5616 8.02571 59.8788L7.99219 56.0844L10.3186 56.0645L10.3522 59.8589C10.3656 61.2768 11.5388 62.4351 12.9669 62.4351H51.1487V64.745H51.1554Z" fill="black"/>
<path d="M54.6613 68.0004C52.1941 68.0004 50.1895 66.01 50.1895 63.5603C50.1895 61.1105 52.1941 59.1201 54.6613 59.1201C57.1285 59.1201 59.1331 61.1105 59.1331 63.5603C59.1331 66.01 57.1285 68.0004 54.6613 68.0004ZM54.6613 61.7163C53.6355 61.7163 52.8042 62.5418 52.8042 63.5603C52.8042 64.5788 53.6355 65.4042 54.6613 65.4042C55.6871 65.4042 56.5184 64.5788 56.5184 63.5603C56.5184 62.5418 55.6871 61.7163 54.6613 61.7163Z" fill="#EF6138"/>
<path d="M3.33168 9.48633C1.56841 9.48633 0.126953 10.9109 0.126953 12.6683V55.3322C0.126953 57.0897 1.56841 58.5142 3.33168 58.5142H38.1613C39.9313 58.5142 41.366 57.083 41.366 55.3322V12.6683C41.366 10.9109 39.9245 9.48633 38.1613 9.48633H3.33168Z" fill="#E9EAEB"/>
<path d="M37.0407 18.8258H17.8996C17.3833 18.8258 16.9609 18.4065 16.9609 17.8939C16.9609 17.3813 17.3833 16.9619 17.8996 16.9619H37.034C37.5503 16.9619 37.9727 17.3813 37.9727 17.8939C37.9794 18.4065 37.557 18.8258 37.0407 18.8258Z" fill="#EF6238"/>
<path d="M34.3983 21.9811H17.9054C17.3892 21.9811 16.9668 21.5617 16.9668 21.0492C16.9668 20.5366 17.3892 20.1172 17.9054 20.1172H34.3983C34.9146 20.1172 35.337 20.5366 35.337 21.0492C35.337 21.5684 34.9146 21.9811 34.3983 21.9811Z" fill="#EF6238"/>
<path d="M37.0407 33.3512H17.8996C17.3833 33.3512 16.9609 32.9318 16.9609 32.4193C16.9609 31.9067 17.3833 31.4873 17.8996 31.4873H37.034C37.5503 31.4873 37.9727 31.9067 37.9727 32.4193C37.9794 32.9385 37.557 33.3512 37.0407 33.3512Z" fill="#EF6238"/>
<path d="M34.3983 36.5133H17.9054C17.3892 36.5133 16.9668 36.094 16.9668 35.5814C16.9668 35.0688 17.3892 34.6494 17.9054 34.6494H34.3983C34.9146 34.6494 35.337 35.0688 35.337 35.5814C35.337 36.094 34.9146 36.5133 34.3983 36.5133Z" fill="#EF6238"/>
<path d="M37.0407 47.8835H17.8996C17.3833 47.8835 16.9609 47.4641 16.9609 46.9515C16.9609 46.4389 17.3833 46.0195 17.8996 46.0195H37.034C37.5503 46.0195 37.9727 46.4389 37.9727 46.9515C37.9727 47.4641 37.557 47.8835 37.0407 47.8835Z" fill="#EF6238"/>
<path d="M34.3983 51.0387H17.9054C17.3892 51.0387 16.9668 50.6193 16.9668 50.1068C16.9668 49.5942 17.3892 49.1748 17.9054 49.1748H34.3983C34.9146 49.1748 35.337 49.5942 35.337 50.1068C35.337 50.626 34.9146 51.0387 34.3983 51.0387Z" fill="#EF6238"/>
</g>
<path d="M8.73487 24.1016C11.5872 24.1016 13.8994 21.7893 13.8994 18.937C13.8994 16.0847 11.5872 13.7725 8.73487 13.7725C5.88256 13.7725 3.57031 16.0847 3.57031 18.937C3.57031 21.7893 5.88256 24.1016 8.73487 24.1016Z" fill="#EF6238"/>
<path d="M7.19667 21.2041L5.58693 19.1541C5.45835 18.9914 5.48803 18.7549 5.65122 18.6292C5.81442 18.5011 6.0518 18.5307 6.17791 18.6933L7.32525 20.1545C7.45383 20.3171 7.68874 20.3467 7.85193 20.2185L11.6203 17.2888C11.7835 17.1607 12.0209 17.1902 12.147 17.3529C12.2756 17.5155 12.2459 17.752 12.0827 17.8777L7.72335 21.2682C7.56016 21.3963 7.32525 21.3668 7.19667 21.2041Z" fill="white"/>
<path d="M8.73487 38.7344C11.5872 38.7344 13.8994 36.4221 13.8994 33.5698C13.8994 30.7175 11.5872 28.4053 8.73487 28.4053C5.88256 28.4053 3.57031 30.7175 3.57031 33.5698C3.57031 36.4221 5.88256 38.7344 8.73487 38.7344Z" fill="#EF6238"/>
<path d="M7.19667 35.837L5.58693 33.7869C5.45835 33.6243 5.48803 33.3877 5.65122 33.262C5.81442 33.1339 6.0518 33.1635 6.17791 33.3261L7.32525 34.7873C7.45383 34.9499 7.68874 34.9795 7.85193 34.8513L11.6203 31.9216C11.7835 31.7935 12.0209 31.8231 12.147 31.9857C12.2756 32.1483 12.2459 32.3849 12.0827 32.5105L7.72335 35.901C7.56016 36.0292 7.32525 35.9996 7.19667 35.837Z" fill="white"/>
<path d="M8.73487 53.3672C11.5872 53.3672 13.8994 51.0549 13.8994 48.2026C13.8994 45.3503 11.5872 43.0381 8.73487 43.0381C5.88256 43.0381 3.57031 45.3503 3.57031 48.2026C3.57031 51.0549 5.88256 53.3672 8.73487 53.3672Z" fill="#EF6238"/>
<path d="M7.19667 50.4698L5.58693 48.4197C5.45835 48.2571 5.48803 48.0205 5.65122 47.8949C5.81442 47.7667 6.0518 47.7963 6.17791 47.9589L7.32525 49.4201C7.45383 49.5827 7.68874 49.6123 7.85193 49.4842L11.6203 46.5544C11.7835 46.4263 12.0209 46.4559 12.147 46.6185C12.2756 46.7811 12.2459 47.0177 12.0827 47.1433L7.72335 50.5338C7.56016 50.662 7.32525 50.6324 7.19667 50.4698Z" fill="white"/>
<defs>
<clipPath id="clip0_298_6133">
<rect width="75.7468" height="68" fill="white" transform="translate(0.126953)"/>
</clipPath>
</defs>
</svg>
