<svg width="86" height="68" viewBox="0 0 86 68" fill="none" xmlns="http://www.w3.org/2000/svg">
<g clip-path="url(#clip0_298_6549)">
<path d="M16.7297 27.416C16.7297 27.416 17.1968 29.6556 22.6066 29.6556C27.238 29.6556 31.8694 28.2655 35.6446 27.416C39.4198 26.6051 44.7517 23.0526 48.5269 25.408C52.3021 27.7635 61.02 29.4626 64.2503 29.8101C67.5196 30.1576 70.5942 27.5318 70.711 24.7902C70.8277 22.01 69.5823 18.998 69.5823 18.998C69.5823 18.998 75.6537 28.8833 75.537 35.2547C75.4202 41.6261 71.2558 53.0174 71.2558 53.0174C71.2558 53.0174 71.4504 38.035 66.2742 36.6835C60.3973 35.1003 54.6372 35.4864 50.8621 40.8538C47.0869 46.2212 46.1139 50.7005 46.3085 57.2649C46.4642 63.0957 48.7215 60.7789 52.1464 60.5472C55.5713 60.3155 55.0264 62.6323 55.0264 62.6323L53.2361 65.2967C53.2361 65.2967 47.2426 65.4898 41.5214 66.3779C35.8392 67.2661 33.7764 63.7522 33.7764 63.7522L35.4889 61.3967C35.4889 61.3967 40.8987 63.173 40.6652 56.8016C40.5484 53.7896 40.1592 53.0946 39.3419 47.65C38.5635 42.3212 33.2705 35.9884 27.7439 35.8339C22.2563 35.6795 21.1276 35.4092 17.7806 39.1162C14.2 43.0548 18.6757 49.0401 18.6757 49.0401C15.7567 49.7737 9.99667 38.6914 10.6972 32.2428C11.4367 25.7942 15.4454 20.2723 15.4454 20.2723L18.6757 20.1951C18.6757 20.1951 15.5232 23.5932 16.7297 27.416Z" fill="#414042"/>
<path d="M51.2505 59.8133C51.2505 59.8133 48.8764 60.5856 48.1369 60.2767C47.4364 59.9678 47.2418 58.9252 46.7748 57.9598C46.3077 56.9945 46.5023 56.7628 45.4126 56.6083C44.9066 56.5697 44.0893 56.5311 43.3499 56.5697C42.5715 56.5697 41.7542 56.5697 41.2871 56.6083C40.1974 56.7242 40.392 56.9945 39.925 57.9598C39.4579 58.9252 39.2633 59.9292 38.5628 60.2767C37.8622 60.5856 35.4492 59.8133 35.4492 59.8133C35.8384 60.5084 38.4849 60.8945 38.4849 60.8945C38.4849 60.8945 38.1736 61.7827 40.2752 62.8639C40.6644 63.0569 41.0925 63.2114 41.5206 63.3272V63.5975C41.5206 63.5975 42.2601 63.6748 43.3109 63.5975C44.3228 63.6748 45.1012 63.5975 45.1012 63.5975V63.3272C45.5293 63.2114 45.9575 63.0569 46.3467 62.8639C48.4872 61.7827 48.1369 60.8945 48.1369 60.8945C48.1369 60.8945 50.8613 60.547 51.2505 59.8133Z" fill="url(#paint0_radial_298_6549)"/>
<path d="M42.9991 0.0390625C24.0843 0.0390625 8.75 15.2531 8.75 34.0198C8.75 52.7864 24.0843 68.0005 42.9991 68.0005C61.9139 68.0005 77.2482 52.7864 77.2482 34.0198C77.2482 15.2531 61.9139 0.0390625 42.9991 0.0390625ZM42.9991 60.934C28.0151 60.934 15.8723 48.8863 15.8723 34.0198C15.8723 19.1532 28.0151 7.1055 42.9991 7.1055C57.9831 7.1055 70.1259 19.1532 70.1259 34.0198C70.1259 48.8863 57.9831 60.934 42.9991 60.934Z" fill="url(#paint1_radial_298_6549)"/>
<path d="M62.1487 28.9224C62.1487 28.9224 59.0351 28.3818 55.2599 27.1075C52.0685 26.0263 49.0328 24.5204 44.8685 24.1342C44.7128 24.0956 44.5571 24.0956 44.4403 24.0956C43.7787 24.057 43.1171 24.0184 42.4165 24.057C41.716 24.057 40.3538 24.4045 40.3538 24.4045C36.9289 24.9451 34.2045 26.1808 31.4413 27.1462C27.6661 28.4204 24.319 29.0383 24.319 29.0383C24.319 29.0383 23.5406 29.3086 23.5795 30.1967C23.6185 31.3938 23.7352 35.178 23.7352 35.6027C23.7741 36.4909 24.9028 36.4136 27.5493 36.877C29.7677 37.2631 34.477 39.58 36.9678 43.0167C39.4587 46.4148 39.8089 53.1723 40.0814 55.2575C40.237 56.6476 41.6381 56.2614 41.6381 56.2614H45.0241C45.0241 56.2614 46.4252 56.6476 46.5809 55.2575C46.8144 53.2109 47.2036 46.4534 49.6945 43.0167C52.1853 39.6186 56.8946 37.2631 59.113 36.877C61.7595 36.4136 62.6935 36.4136 62.6935 35.5255C62.6935 35.1007 62.8492 31.3165 62.8492 30.1195C62.9271 29.1927 62.1487 28.9224 62.1487 28.9224Z" fill="url(#paint2_radial_298_6549)"/>
<path d="M72.2683 16.4497C66.2747 6.60307 55.3384 0 42.8842 0C30.4299 0 19.5325 6.60307 13.5 16.4497C14.2784 16.527 15.7184 16.5656 16.3411 15.7933C17.2363 14.7507 24.8645 1.96934 42.8452 1.96934C60.826 1.96934 68.4542 14.7507 69.3494 15.7933C70.0888 16.5656 71.4899 16.527 72.2683 16.4497Z" fill="#424242"/>
<path d="M42.8834 27.8799C46.8921 27.8799 50.1613 31.1235 50.1613 35.1008C50.1613 39.0781 46.8921 42.3217 42.8834 42.3217C38.8747 42.3217 35.6055 39.0781 35.6055 35.1008C35.6444 31.1235 38.8747 27.8799 42.8834 27.8799Z" fill="#E0E0E0"/>
<path d="M5.83161 29.7331L6.80459 27.2618C6.80459 27.2618 4.93646 25.1766 4.31375 21.8558C3.69104 18.5349 3.72996 14.6349 3.76888 13.5537C3.84672 12.4724 4.70294 10.9279 5.90945 10.812C7.11595 10.6962 6.76567 10.3873 7.19379 9.73083C7.6219 9.07438 7.6219 8.03179 8.63381 7.87733C9.64571 7.68426 10.7355 7.2595 11.3582 6.4486C11.9809 5.59908 13.1874 4.40203 14.0825 4.36342C14.9777 4.28619 16.4955 4.90402 17.2739 4.36342C18.0523 3.82282 19.2199 3.20499 20.4264 3.70698C21.6329 4.17035 21.6329 3.59113 22.528 5.71493C22.6448 5.98523 22.8005 6.48721 22.8005 6.48721C22.8005 6.48721 21.8275 7.18227 21.1269 7.76149C20.4264 8.34071 20.115 8.64962 19.6091 9.15161C19.6091 9.15161 20.0761 11.5457 20.3875 13.0903C20.6988 14.6349 21.7886 16.5656 21.7886 16.5656C21.7886 16.5656 22.2945 17.3379 24.2405 14.3646C25.0189 13.2061 26.0697 13.0131 26.0697 13.0131C26.0697 13.0131 26.6535 15.4458 26.4589 16.3725C26.2643 17.2606 25.0189 21.431 24.6297 22.8597C24.2794 24.2885 22.8005 24.2885 22.2167 25.64C21.594 26.9529 19.4923 29.1153 18.0912 31.9341C16.6901 34.753 15.7171 38.9619 15.7171 38.9619C15.7171 38.9619 11.5528 32.5519 8.90624 32.4361C6.25972 32.3203 3.76888 35.255 3.76888 35.255L5.83161 29.7331Z" fill="#E7AD83"/>
<path d="M79.2333 29.0768L78.2603 26.6055C78.2603 26.6055 80.1284 24.5203 80.7511 21.1995C81.3738 17.8787 81.3349 13.9786 81.2571 12.8974C81.1792 11.8162 80.323 10.2716 79.1165 10.1558C77.91 10.0399 78.2603 9.73102 77.8322 9.07457C77.404 8.41813 77.404 7.37554 76.3921 7.22108C75.3802 7.02801 74.2905 6.60325 73.6678 5.79235C73.0451 4.94283 71.8386 3.74578 70.9434 3.70717C70.0483 3.62994 68.5304 4.24777 67.752 3.70717C66.9736 3.16657 65.8061 2.54874 64.5996 3.05073C63.3931 3.5141 63.3931 2.93488 62.4979 5.05867C62.3812 5.32898 62.2255 5.83096 62.2255 5.83096C62.2255 5.83096 63.1985 6.52602 63.899 7.10524C64.5996 7.68445 64.9109 7.99337 65.4169 8.49536C65.4169 8.49536 64.9498 10.8895 64.6385 12.434C64.3271 13.9786 63.2374 15.9093 63.2374 15.9093C63.2374 15.9093 62.7314 16.6816 60.7855 13.7083C60.0071 12.5499 58.9563 12.3568 58.9563 12.3568C58.9563 12.3568 58.3725 14.7895 58.5671 15.6776C58.7617 16.5658 60.0071 20.7361 60.3963 22.1649C60.7465 23.5936 62.2255 23.5936 62.8093 24.9451C63.432 26.258 65.5336 28.4204 66.9347 31.2392C68.3358 34.0581 69.3088 38.2671 69.3088 38.2671C69.3088 38.2671 73.5899 31.9729 76.2754 31.8571C78.9219 31.7412 81.4127 34.6759 81.4127 34.6759L79.2333 29.0768Z" fill="#E7AD83"/>
<path d="M10.7358 62.1696L17.7413 35.5257C17.7413 35.5257 17.2353 31.7415 10.7747 31.085C6.45467 30.6217 4.46978 31.9732 4.46978 31.9732L0.5 40.5456C1.78434 48.7704 5.44276 56.223 10.7358 62.1696Z" fill="#EF6238"/>
<path d="M85.4996 41.9354L80.5957 31.3165C80.5957 31.3165 78.6109 30.0036 74.2908 30.4283C67.8302 31.0848 67.3242 34.869 67.3242 34.869L74.7578 63.1734C80.1676 57.3812 83.9817 50.0445 85.4996 41.9354Z" fill="#EF6238"/>
</g>
<defs>
<radialGradient id="paint0_radial_298_6549" cx="0" cy="0" r="1" gradientUnits="userSpaceOnUse" gradientTransform="translate(43.3626 60.1382) scale(6.1258 6.07779)">
<stop/>
<stop offset="0.7991"/>
<stop offset="0.9306" stop-color="#2B2B2B"/>
<stop offset="0.9569" stop-color="#1A1A1A"/>
<stop offset="1"/>
</radialGradient>
<radialGradient id="paint1_radial_298_6549" cx="0" cy="0" r="1" gradientUnits="userSpaceOnUse" gradientTransform="translate(43.0083 34.0172) scale(34.2427 33.9743)">
<stop/>
<stop offset="0.7991"/>
<stop offset="0.9306" stop-color="#2B2B2B"/>
<stop offset="0.9569" stop-color="#1A1A1A"/>
<stop offset="1"/>
</radialGradient>
<radialGradient id="paint2_radial_298_6549" cx="0" cy="0" r="1" gradientUnits="userSpaceOnUse" gradientTransform="translate(43.3447 39.8591) rotate(-90.3003) scale(16.4992 29.3195)">
<stop/>
<stop offset="0.2778"/>
<stop offset="0.5713"/>
<stop offset="0.7836" stop-color="#171717"/>
<stop offset="0.8741" stop-color="#121212"/>
<stop offset="1"/>
</radialGradient>
<clipPath id="clip0_298_6549">
<rect width="85" height="68" fill="white" transform="translate(0.5)"/>
</clipPath>
</defs>
</svg>
