<svg width="613" height="606" viewBox="0 0 613 606" fill="none" xmlns="http://www.w3.org/2000/svg">
<path d="M602.836 461.995L588.853 420.969L565.505 428.925L517.814 288.963L464.646 307.081L464.806 307.557L447.657 381.596L423.258 486.926L437.491 518.359L487.695 501.247L505.971 495.016L526.316 488.079L542.927 536.839L596.096 518.721L579.484 469.96L602.836 461.995ZM506.16 449.156L494.099 453.267L471.001 461.142L486.766 382.851L488.249 376.355L512.334 447.05L506.16 449.156Z" fill="#222222"/>
<path opacity="0.25" d="M579.484 469.959L596.096 518.719L562.23 504.23L508.104 309.171L488.248 376.356L479.054 414.41L447.658 381.593L464.807 307.555L464.647 307.079L517.814 288.963L565.502 428.927L588.851 420.969L602.835 461.995L579.484 469.959Z" fill="#010101"/>
<path d="M19.2726 387.119C17.907 387.119 16.8957 387.045 16.4593 386.862C15.9499 386.648 14.3957 386 0.828125 361.776L3.26732 360.41C8.33425 369.456 16.0183 382.622 17.6454 384.305C19.122 384.544 27.2364 383.978 34.4262 383.256L34.7076 386.039C30.1805 386.493 23.234 387.119 19.2726 387.119Z" fill="#F26647"/>
<path d="M68.4546 398.866V399.677C68.4546 399.677 67.714 415.052 56.2054 414.389C56.1765 414.389 56.1491 414.382 56.1202 414.382C49.0034 413.921 40.1941 410.599 34.2877 408.132C30.5757 406.579 28.0027 405.362 27.7168 405.411C26.9686 405.529 36.4334 444.913 36.3072 447.156C36.2935 447.457 36.2235 447.778 36.1186 448.108C35.448 450.241 33.1061 452.799 31.701 453.011C31.5535 453.032 31.2539 452.758 30.8281 452.226C26.5489 446.905 9.60997 415.999 9.14768 405.907C8.65194 394.817 14.2572 388.138 21.8576 386.865C27.4644 385.928 43.8589 388.187 52.0722 389.439C54.9889 389.886 56.8684 390.201 56.8684 390.201L68.4546 398.866Z" fill="#0A2533"/>
<path opacity="0.25" d="M36.3098 447.156C36.2961 447.457 36.2262 447.778 36.1212 448.108C35.4506 450.241 33.1087 452.799 31.7036 453.011C31.5561 453.032 31.2565 452.758 30.8308 452.226C36.8572 443.716 21.1044 402.285 24.5305 402.166C26.2215 402.11 29.9624 404.985 34.2903 408.132C30.5783 406.579 28.0053 405.362 27.7194 405.411C26.9697 405.529 36.436 444.911 36.3098 447.156Z" fill="#010101"/>
<path opacity="0.25" d="M68.4566 398.866V399.677C68.4566 399.677 67.716 415.052 56.2074 414.389C58.4717 412.579 58.8915 409.39 58.7227 405.529C58.528 401.061 54.3948 393.412 52.0742 389.44C54.9909 389.887 56.8705 390.202 56.8705 390.202L68.4566 398.866Z" fill="#010101"/>
<path d="M43.964 348.378C43.5808 348.98 43.3284 349.483 43.3284 349.867C43.3284 349.867 43.3147 349.844 43.2873 349.797C43.1535 349.56 42.6715 348.728 42.051 347.762C41.0017 346.14 39.554 344.125 38.6796 343.88C37.2745 343.495 33.5352 348.221 28.4804 348.6C28.1443 348.63 27.8098 348.635 27.4661 348.623C21.9019 348.37 16.0001 340.476 20.7401 331.175C22.3976 334.581 25.8025 334.664 25.8025 334.664C25.8025 334.664 23.7252 334.246 23.6492 331.671C29.7091 332.748 32.8645 328.182 38.1003 329.846C43.3284 331.502 43.0014 334.663 43.0014 334.663C43.0014 334.663 46.9857 333.082 48.2296 338.068C49.2287 342.056 45.503 345.987 43.964 348.378Z" fill="#0A2533"/>
<path d="M43.2874 349.798C42.9316 351.056 42.2518 352.428 41.3364 353.538C40.2263 354.897 38.7573 355.888 37.0997 355.847C33.5626 355.764 30.0453 351.015 28.4805 348.601C33.5352 348.224 37.2746 343.498 38.6797 343.882C39.5541 344.126 41.0003 346.14 42.0511 347.763C42.67 348.729 43.1536 349.561 43.2874 349.798Z" fill="url(#paint0_linear_494_3626)"/>
<path d="M48.3965 350.279C48.3965 350.279 45.7399 356.349 44.7408 355.02C44.2024 354.3 42.6498 353.826 41.3359 353.537C42.2529 352.427 42.9311 351.055 43.287 349.797C43.3159 349.844 43.328 349.867 43.328 349.867C43.328 349.482 43.5805 348.978 43.9637 348.378C45.8934 349.833 48.3965 350.279 48.3965 350.279Z" fill="url(#paint1_linear_494_3626)"/>
<path d="M67.0852 401.544C62.8485 400.922 51.3901 388.461 51.3901 383.098C51.3901 382.342 51.3065 381.502 51.1666 380.588C50.2861 375.007 47.0638 366.826 45.721 361.043C44.1623 354.316 46.4053 351.798 46.4053 351.798C51.6213 342.827 63.4248 360.61 70.1569 374.867L70.1645 374.875C72.4289 379.678 73.9267 384.139 74.0651 387.127C74.5472 397.222 71.3218 402.166 67.0852 401.544Z" fill="#EF6238"/>
<path opacity="0.25" d="M67.0846 401.544C62.848 400.922 51.3896 388.461 51.3896 383.098C51.3896 382.342 51.306 381.502 51.1661 380.588L51.1387 378.197L55.2902 356.434C55.2902 356.434 61.0232 363.253 61.9386 375.462C62.848 387.671 76.2878 390.328 70.1625 374.875C72.4268 379.678 73.9247 384.14 74.0631 387.127C74.5466 397.222 71.3213 402.166 67.0846 401.544Z" fill="#010101"/>
<path d="M58.197 374.629C58.086 374.725 57.8898 374.802 57.6313 374.874C55.6665 375.417 49.9411 375.335 47.5567 374.866C47.2009 374.796 46.9135 374.712 46.7325 374.629C45.1601 373.88 46.7325 372.049 46.2367 368.811C45.7395 365.567 44.494 356.098 49.3116 353.189C54.3511 350.147 58.0282 361.662 58.197 367.398C58.3658 373.134 59.2812 373.713 58.197 374.629Z" fill="#EF6238"/>
<path d="M57.6324 374.874C57.6324 374.874 57.4027 388.879 54.7309 395.488C54.7309 395.495 54.7309 395.495 54.7309 395.501C53.8991 397.558 52.83 398.893 51.4523 398.866C45.6569 398.74 32.6398 384.971 31.4522 384.468C30.2706 383.971 24.349 384.845 24.5376 383.971C24.7262 383.098 27.0331 381.166 29.5209 380.237C32.0179 379.301 31.5769 379.859 47.5867 387.216C47.3692 385.803 47.4605 379.692 47.5304 376.23C47.538 375.705 47.5532 375.245 47.5593 374.867C49.9438 375.334 55.6676 375.418 57.6324 374.874Z" fill="url(#paint2_linear_494_3626)"/>
<path d="M41.0841 456.625C41.4901 459.121 24.7245 476.189 25.5974 471.707C26.4642 467.218 31.7014 453.009 31.7014 453.009C33.1066 452.798 35.4484 450.241 36.119 448.107C37.4907 450.484 40.7419 454.554 41.0841 456.625Z" fill="#5462AD"/>
<path opacity="0.25" d="M56.2054 404.203C56.2054 404.203 29.2938 399.149 23.9774 401.593C18.6611 404.036 33.7038 446.574 33.7038 446.574" stroke="white" stroke-width="0.4597" stroke-miterlimit="10"/>
<path opacity="0.25" d="M54.7313 395.488C55.2422 392.675 55.627 384.501 54.2143 381.271C53.2638 379.088 49.7267 377.214 47.5293 376.23C47.5369 375.705 47.5521 375.245 47.5582 374.867C49.9426 375.336 55.668 375.418 57.6328 374.875C57.6328 374.874 57.4031 388.879 54.7313 395.488Z" fill="#010101"/>
<path d="M489.66 300.758C489.116 302.856 488.207 305.555 486.794 309.169C484.78 314.351 481.739 321.413 477.258 331.259C477.147 336.26 475.553 368.152 475.12 375.494C475.063 376.39 475.028 376.921 475.015 376.991C474.952 377.312 473.798 377.928 472.54 378.243C471.351 378.55 470.08 378.591 469.533 377.864C468.407 376.369 460.808 346.207 460.439 339.106C460.062 332.001 459.691 333.622 468.407 305.338C466.289 306.331 452.559 305.96 452.559 305.96C452.559 305.96 455.075 340.601 455.089 340.852C455.089 340.887 455.068 340.97 455.019 341.089C454.859 341.565 454.355 342.622 453.81 343.153C453.565 343.396 453.313 343.536 453.082 343.466C452.949 343.433 452.627 343.138 452.16 342.642C449.525 339.843 442.295 330.433 438.38 321.657C433.772 311.314 432.645 304.083 437.01 296.86C441.372 289.63 463.463 289.077 463.463 289.077C464.862 289.468 468.077 289.852 471.258 290.608C472.195 290.826 473.132 291.085 474.014 291.378C478.853 292.986 488.073 295.027 490.059 293.882C490.5 295.424 490.597 297.228 489.66 300.758Z" fill="#383838"/>
<path d="M507.972 276.676C507.097 277.172 496.947 276.795 490.087 274.178C490.122 275.388 490.276 277.29 490.45 279.452C490.724 282.857 491.039 286.906 490.961 289.857C490.919 291.962 490.676 293.513 490.087 293.871C490.079 293.879 490.073 293.885 490.058 293.885C489.004 294.493 485.913 294.199 482.515 293.556C480.32 293.136 477.999 292.57 476.021 292.003C475.3 291.793 474.623 291.585 474.015 291.381C470.128 290.081 465.277 289.583 463.464 289.08C463.01 288.954 462.751 288.835 462.736 288.695C462.681 288.009 464.421 286.458 465.239 284.835C465.336 284.632 465.469 284.331 465.616 283.946C466.281 282.247 467.322 279.03 467.826 276.982C468.125 275.772 468.238 274.975 467.973 275.114C467.163 275.547 462.365 284.52 461.805 284.52C461.611 284.52 460.645 283.968 459.498 283.19C457.569 281.882 455.143 279.96 455.087 279.044C455.073 278.918 455.108 278.813 455.199 278.729C456.325 277.666 464.917 263.212 468.034 260.129C469.495 258.673 471.223 257.8 472.628 257.283C474.2 256.696 475.39 256.562 475.39 256.562C477.242 256.498 479.108 256.745 480.926 257.206C487.106 258.751 492.777 262.654 496.007 264.582C500.18 267.072 503.046 266.388 504.102 267.01C505.168 267.641 508.837 276.173 507.972 276.676Z" fill="#EF6238"/>
<path d="M490.961 289.857C485.214 289.927 472.441 289.416 465.617 283.948C466.282 282.249 467.323 279.032 467.827 276.983C467.827 276.983 481.312 281.073 490.45 279.452C490.724 282.858 491.039 286.906 490.961 289.857Z" fill="#F69181"/>
<path opacity="0.25" d="M480.929 257.209C480.707 259.6 479.86 262.173 477.258 261.971C473.589 261.685 472.798 258.684 472.631 257.286C474.203 256.699 475.392 256.565 475.392 256.565C477.245 256.502 479.111 256.746 480.929 257.209Z" fill="#222222"/>
<path d="M479.376 251.998C479.376 251.998 478.754 249.445 477.502 248.131C476.489 249.782 472.581 250.627 469.567 250.845C468.141 250.95 466.911 250.915 466.289 250.754C464.17 242.523 470.776 238.914 474.455 238.663C478.124 238.411 481.432 241.145 480.432 245.321C483.731 248.572 479.376 251.998 479.376 251.998Z" fill="#321212"/>
<path d="M479.375 251.998C479.187 252.544 478.893 253.502 478.39 254.396H478.382C477.558 255.885 476.174 257.207 473.776 256.235C473.692 256.2 473.609 256.165 473.531 256.124C471.512 255.207 470.463 253.424 469.932 252.019C469.765 251.578 469.646 251.173 469.568 250.845C472.581 250.627 476.491 249.782 477.503 248.131C477.56 248.195 477.616 248.258 477.671 248.32C478.81 249.677 479.375 251.998 479.375 251.998Z" fill="url(#paint3_linear_494_3626)"/>
<path d="M479.062 258.354C478.692 260.662 474.889 260.537 474.476 259.04C474.258 258.264 474.013 257.516 473.825 256.97C473.657 256.46 473.531 256.13 473.531 256.13V256.124C473.609 256.165 473.692 256.2 473.776 256.235C476.174 257.207 477.558 255.887 478.382 254.396H478.39C478.131 254.914 478.823 255.565 479.054 256.788C479.14 257.229 479.161 257.747 479.062 258.354Z" fill="url(#paint4_linear_494_3626)"/>
<path d="M459.311 349.701C458.94 352.568 444.112 363.784 444.365 361.791C444.608 359.797 452.16 342.645 452.16 342.645C452.628 343.141 452.95 343.436 453.081 343.469C453.829 343.687 454.78 341.784 455.017 341.092C457.011 343.596 459.646 347.141 459.311 349.701Z" fill="#262166"/>
<path d="M469.531 401.216C466.042 393.732 469.531 377.865 469.531 377.865C470.65 379.362 474.887 377.614 475.011 376.992C475.027 376.922 475.06 376.39 475.116 375.496C475.116 375.496 475.676 383.098 476.341 389.538C477.005 395.977 473.021 408.69 469.531 401.216Z" fill="#262166"/>
<path opacity="0.25" d="M468.406 305.339C466.288 306.333 452.557 305.962 452.557 305.962C452.557 305.962 455.074 340.602 455.088 340.853C455.088 340.888 455.066 340.972 455.018 341.091C454.858 341.567 454.353 342.624 453.809 343.155C451.278 331.301 446.231 308.575 450.256 304.673C455.41 299.687 469.364 298.36 469.566 299.45C469.77 300.548 468.406 305.339 468.406 305.339Z" fill="#222222"/>
<path d="M458.527 288.969C458.324 289.389 458.219 289.738 458.283 289.97C458.583 291.13 456.989 305.668 457.57 307.165C458.149 308.661 458.486 313.395 458.149 316.388C457.813 319.381 451.586 321.207 451.586 318.633C451.586 316.053 452.334 309.991 452.585 307.662C452.836 305.341 450.51 288.516 451.131 286.187C451.538 284.669 453.096 282.097 454.13 280.495C454.682 279.636 455.088 279.047 455.088 279.047C455.181 280.508 461.297 284.523 461.807 284.523C461.805 284.521 459.345 287.278 458.527 288.969Z" fill="url(#paint5_linear_494_3626)"/>
<path opacity="0.25" d="M489.66 300.758C486.912 300.556 483.822 299.353 481.668 297.191C479.165 294.688 474.991 292.367 471.258 290.612C472.195 290.829 473.131 291.088 474.013 291.381C478.852 292.989 488.072 295.03 490.058 293.885C490.499 295.424 490.596 297.228 489.66 300.758Z" fill="#222222"/>
<path opacity="0.25" d="M486.794 309.171C484.781 314.353 481.74 321.415 477.258 331.26C477.147 336.261 475.553 368.154 475.12 375.496C475.064 376.392 475.029 376.922 475.015 376.992C474.953 377.313 473.799 377.929 472.541 378.244C472.827 367.489 472.45 344.078 474.268 337.113C476.44 328.778 486.186 310.318 486.794 309.171Z" fill="#222222"/>
<path opacity="0.25" d="M476.02 292.003C475.3 291.793 474.623 291.585 474.015 291.381C470.128 290.081 465.277 289.583 463.464 289.08C463.009 288.954 462.751 288.835 462.736 288.695C462.681 288.009 464.421 286.458 465.239 284.835C466.049 283.212 468.783 274.674 467.973 275.114C467.162 275.547 462.365 284.52 461.805 284.52C461.61 284.52 460.645 283.968 459.498 283.191C459.617 282.988 459.749 282.784 459.896 282.568C462.883 278.164 467.784 272.682 468.615 267.947C469.279 264.458 470.278 266.45 470.109 270.94C469.96 274.97 469.743 287.305 476.02 292.003Z" fill="#222222"/>
<path opacity="0.25" d="M490.087 293.871C490.08 293.879 490.073 293.885 490.058 293.885C489.004 294.493 485.913 294.2 482.516 293.556C488.591 287.466 485.276 270.969 486.228 271.817C487.345 272.81 490.086 274.18 490.086 274.18C490.213 278.669 492.024 292.689 490.087 293.871Z" fill="#222222"/>
<path opacity="0.25" d="M461.805 284.521C461.805 284.521 459.345 287.278 458.527 288.969C458.505 288.598 458.48 288.256 458.443 287.948C458.255 286.166 455.479 282.29 454.129 280.494C454.681 279.635 455.087 279.046 455.087 279.046C455.18 280.508 461.296 284.521 461.805 284.521Z" fill="#222222"/>
<path opacity="0.25" d="M477.671 248.32C476.176 251.628 471.778 252.011 469.932 252.019C469.765 251.578 469.646 251.173 469.568 250.845C472.581 250.627 476.491 249.782 477.503 248.131C477.56 248.195 477.616 248.258 477.671 248.32Z" fill="#222222"/>
<path opacity="0.25" d="M479.053 256.789C478.773 257.006 478.432 257.168 478.005 257.265C475.999 257.72 474.587 257.329 473.825 256.971C473.657 256.462 473.531 256.132 473.531 256.132V256.126C473.609 256.167 473.692 256.202 473.776 256.237C476.174 257.209 477.558 255.889 478.382 254.398H478.39C478.131 254.915 478.823 255.565 479.053 256.789Z" fill="#222222"/>
<path d="M498.936 -1.20508V309.171" stroke="#0A2533" stroke-width="0.9195" stroke-miterlimit="10"/>
<path d="M512.018 272.229C512.004 272.312 511.984 272.396 511.969 272.474C511.145 276.229 508.138 276.627 507.571 276.382C507.006 276.138 505.509 274.417 504.201 268.356C504.173 268.236 504.153 268.117 504.124 267.993C504.124 267.993 501.3 260.748 499.972 257.265C496.694 255.321 496.072 256.112 495.609 253.867C495.155 251.622 496.61 248.72 497.442 248.3C498.274 247.888 502.007 251.377 502.51 252.664C503.006 253.949 512.766 268.242 512.018 272.229Z" fill="url(#paint6_linear_494_3626)"/>
<path opacity="0.25" d="M511.969 272.474C511.145 276.229 508.138 276.627 507.571 276.383C507.005 276.138 505.509 274.417 504.201 268.356C505.033 270.04 506.313 272.223 507.719 273.125C509.262 274.109 510.997 273.795 511.969 272.474Z" fill="#222222"/>
<path d="M401.893 468.785L393.881 427.858C387.953 397.587 376.522 375.505 359.589 361.601C342.649 347.707 321.726 343.197 296.815 348.078C271.905 352.959 254.239 364.972 243.828 384.109C233.412 403.256 231.175 428.016 237.124 458.393L245.163 499.476C251.071 529.642 262.489 551.675 279.428 565.569C286.579 571.436 294.452 575.631 303.044 578.143C314.796 581.592 327.898 581.891 342.348 579.065C349.836 577.604 356.674 575.485 362.847 572.715C377.135 566.31 387.915 556.43 395.187 543.06C405.605 523.915 407.836 499.153 401.893 468.785ZM351.878 523.719C349.138 532.112 343.342 537.174 334.49 538.908C325.325 540.704 317.878 538.13 312.133 531.181C308.217 526.446 304.869 519.419 302.092 510.098C302.092 510.091 302.092 510.083 302.092 510.083C302.086 510.069 302.086 510.054 302.078 510.034C300.792 505.713 299.632 500.895 298.596 495.588L287.349 438.131C284.714 423.039 284.706 411.39 287.32 403.179C289.936 394.972 295.723 389.985 304.679 388.237C311.51 386.894 317.402 388.049 322.352 391.685H322.36C324.045 392.929 325.623 394.453 327.092 396.273C332.874 403.426 337.348 415.09 340.508 431.25L351.393 486.848C354.458 503.035 354.62 515.32 351.878 523.719Z" fill="#EF6238"/>
<path opacity="0.25" d="M355.899 531.397C358.207 534.95 361.274 559.102 362.848 572.717C356.674 575.486 349.836 577.605 342.349 579.067C327.9 581.891 314.798 581.592 303.046 578.145C303.526 577.061 303.967 575.927 304.344 574.767C311.679 552.355 302.513 511.917 302.094 510.098C304.869 519.419 308.218 526.446 312.135 531.181C317.88 538.13 325.327 540.704 334.492 538.908C343.342 537.172 349.139 532.11 351.88 523.719C354.621 515.322 354.459 503.035 351.398 486.847L340.512 431.248C337.352 415.089 332.877 403.424 327.097 396.271C325.628 394.453 324.049 392.929 322.365 391.684C340.046 395.152 354.405 449.905 360.389 476.317C366.366 502.734 366.869 514.95 355.899 531.397Z" fill="#010101"/>
<path d="M304.344 -1.20508V361.665" stroke="#0A2533" stroke-width="0.9195" stroke-miterlimit="10"/>
<path d="M390.599 221.342C390.599 221.342 385.305 206.824 385.74 205.702C386.177 204.581 391.992 202.462 392.419 203.084C392.843 203.708 396.519 214.986 395.895 215.795C395.272 216.606 390.599 221.342 390.599 221.342Z" fill="#222222"/>
<path d="M302.51 202.304C302.51 202.304 305.741 203.644 307.178 207.134C308.614 210.623 308.054 198.037 308.054 198.037L306.497 196.604L302.51 202.304Z" fill="url(#paint7_linear_494_3626)"/>
<path d="M300.828 202.304C300.828 202.304 304.878 205.326 305.563 205.513C306.248 205.7 307.571 197.786 306.973 196.541C306.372 195.293 304.178 194.048 302.753 194.858C301.327 195.669 300.165 201.814 300.828 202.304Z" fill="url(#paint8_linear_494_3626)"/>
<path d="M311.605 203.209C311.605 203.209 308.38 195.731 306.972 194.423C305.562 193.115 302.946 194.797 302.758 195.482C302.569 196.166 305.887 196.665 306.972 197.788C308.054 198.91 305.125 207.197 307.93 210.126C310.732 213.054 311.605 203.209 311.605 203.209Z" fill="url(#paint9_linear_494_3626)"/>
<path d="M386.613 223.023C386.613 223.023 389.478 221.465 390.102 220.654C390.724 219.844 389.603 216.791 391.41 213.988C393.216 211.183 397.079 211.994 398.012 215.358C398.948 218.723 396.519 222.96 395.397 224.268C394.275 225.576 386.613 231.06 386.613 231.06" fill="url(#paint10_linear_494_3626)"/>
<path d="M388.665 229.524C388.581 230.021 388.07 230.873 387.079 232.035C383.443 236.286 373.425 244.607 355.367 254.118C355.011 255.572 354.731 257.055 354.521 258.537C353.85 263.27 353.863 268.054 354.088 272.353C354.142 273.459 354.212 274.536 354.29 275.57C354.62 280.101 355.067 283.843 354.948 286.011C354.892 286.961 354.725 287.605 354.404 287.89C353.998 288.246 353.571 288.569 353.124 288.856C344.104 294.647 327.688 285.997 325.032 283.394C324.822 283.192 324.696 283.023 324.67 282.905C324.208 281.157 325.997 279.289 326.997 276.296C327.164 275.786 327.333 274.646 327.5 273.087C327.976 268.478 328.388 260.234 328.536 254.031C328.619 250.072 328.598 246.948 328.417 246.122C328.409 246.109 328.409 246.093 328.409 246.093C327.914 244.058 312.79 221.207 308.254 213.109C307.422 211.633 306.948 210.648 306.974 210.368C307.141 208.543 310.629 202.062 311.378 202.145C311.504 202.159 311.966 202.74 312.664 203.704C316.168 208.572 325.591 223.284 327.325 225.158C328.948 226.913 337.203 235.606 340.742 239.332C341.741 240.374 342.363 241.031 342.363 241.031C344.279 240.996 346.2 240.822 348.124 240.522C365.119 237.9 381.82 225.998 386.191 222.69C386.91 222.145 387.296 221.836 387.296 221.836C387.296 221.836 389.042 227.196 388.665 229.524Z" fill="#EF6238"/>
<path d="M346.253 248.55C340.456 249.487 340.439 241.942 340.741 239.334C341.74 240.376 342.362 241.033 342.362 241.033C344.278 240.998 346.198 240.823 348.122 240.523C348.843 243.495 348.265 248.229 346.253 248.55Z" fill="#C54527"/>
<path d="M352.122 232.377C350.997 233.055 349.528 233.286 347.655 232.803C346.214 232.439 344.528 231.65 342.563 230.313C342.563 230.313 341.011 232.181 340.886 235.606C336.774 232.054 335.775 228.501 339.263 227.193C337.831 220.963 340.886 219.655 345.989 219.348C351.1 219.033 352.282 224.27 355.336 224.145C355.521 226.938 354.73 230.832 352.122 232.377Z" fill="#222222"/>
<path d="M352.122 232.377C352.065 232.88 351.982 233.46 351.863 234.083C351.177 237.728 349.387 242.811 346.69 242.531C346.55 242.525 346.404 242.496 346.249 242.447C343.823 241.685 342.362 239.329 341.6 237.595C341.097 236.47 340.887 235.609 340.887 235.609C340.928 234.526 341.109 233.595 341.341 232.833C341.837 231.189 342.564 230.316 342.564 230.316C344.529 231.651 346.214 232.442 347.655 232.806C349.527 233.286 350.996 233.055 352.122 232.377Z" fill="url(#paint11_linear_494_3626)"/>
<path d="M346.69 244.677C346.661 245.999 346.48 247.033 345.6 247.096C343.816 247.222 341.447 244.893 341.573 242.362C341.614 241.503 341.629 240.587 341.629 239.748C341.629 238.9 341.614 238.132 341.601 237.594C342.362 239.328 343.824 241.684 346.249 242.446C346.404 242.495 346.55 242.523 346.69 242.53C346.683 243.266 346.712 244.006 346.69 244.677Z" fill="url(#paint12_linear_494_3626)"/>
<path d="M388.666 229.523C388.582 230.021 388.071 230.873 387.079 232.035C387.127 229.063 386.477 224.553 386.191 222.691C386.911 222.147 387.297 221.838 387.297 221.838C387.297 221.838 389.043 227.196 388.666 229.523Z" fill="#C54527"/>
<path d="M312.662 203.707C310.007 205.98 308.711 210.932 308.252 213.113C307.42 211.638 306.946 210.652 306.972 210.372C307.139 208.547 310.627 202.066 311.376 202.15C311.503 202.162 311.964 202.742 312.662 203.707Z" fill="#C54527"/>
<path d="M354.288 275.57C348.347 276.43 337.167 277.193 327.498 273.088C327.974 268.479 328.386 260.235 328.534 254.033C333.322 256.06 343.661 259.668 354.521 258.535C353.674 264.488 353.911 270.522 354.288 275.57Z" fill="#FCAF17"/>
<path opacity="0.25" d="M353.122 288.858C343.403 295.095 325.1 284.572 324.669 282.906C324.206 281.158 325.996 279.291 326.995 276.297C327.163 275.788 327.331 274.647 327.499 273.088C327.975 268.479 328.387 260.236 328.534 254.033C328.618 250.074 328.597 246.95 328.416 246.124C328.625 246.767 331.912 257.186 333.595 267.325C335.342 277.792 334.965 282.78 340.076 286.143C343.067 288.108 348.528 289.144 353.122 288.858Z" fill="#222222"/>
<path d="M375.332 317.632C375.332 321.953 359.713 345.897 356.479 350.811C356.108 351.379 355.898 351.693 355.898 351.693C355.898 351.693 353.884 351.462 352.227 350.903C351.074 350.503 350.089 349.958 350.089 349.204C350.089 349.048 350.118 348.811 350.166 348.496C350.718 345.161 354.151 333.092 358.556 317.135C356.235 314.31 339.953 303.507 339.953 303.507C339.953 303.507 339.946 303.52 339.938 303.548C339.233 305.177 316.631 357.454 314.064 362.328C313.972 362.503 313.908 362.614 313.867 362.664C312.707 364.161 307.89 364.322 307.555 361.168C307.555 361.162 307.555 361.162 307.555 361.154C306.171 347.94 317.566 308.079 322.873 290.452C323.823 287.291 324.578 284.844 325.032 283.396C327.689 285.997 344.105 294.647 353.124 288.858C353.571 288.57 353.998 288.249 354.404 287.892C354.725 287.606 354.893 286.963 354.949 286.012C355.116 286.193 355.293 286.389 355.466 286.599C361.755 293.793 375.332 313.471 375.332 317.632Z" fill="#9DC2E7"/>
<path d="M315.656 369.643C315.034 372.755 298.583 381.978 300.081 376.398C301.297 371.873 305.868 363.979 307.553 361.154C307.553 361.162 307.553 361.162 307.553 361.168C307.889 364.322 312.707 364.163 313.866 362.664C313.907 362.616 313.971 362.505 314.062 362.328C314.901 364.734 316.062 367.629 315.656 369.643Z" fill="#222222"/>
<path d="M361.882 366.9C360.63 367.524 344.438 361.292 344.809 359.174C345.186 357.055 350.163 348.496 350.163 348.496C350.115 348.811 350.086 349.048 350.086 349.203C350.086 351.027 355.895 351.693 355.895 351.693C355.895 351.693 356.105 351.379 356.476 350.811C357.198 357.28 363.05 366.315 361.882 366.9Z" fill="#222222"/>
<path opacity="0.25" d="M337.834 301.722C337.834 301.722 319.891 336.965 313.162 361.154" stroke="#222222" stroke-width="0.4597" stroke-miterlimit="10"/>
<path opacity="0.25" d="M342.068 301.722C342.068 301.722 362.003 314.808 362.753 316.926C363.499 319.045 352.411 348.498 352.411 348.498" stroke="#222222" stroke-width="0.4597" stroke-miterlimit="10"/>
<path opacity="0.25" d="M355.464 286.598C353.27 295.366 340.559 292.983 334.058 291.297C330.276 290.318 325.94 290.283 322.873 290.45C323.823 287.29 324.578 284.842 325.032 283.394C327.689 285.995 344.105 294.645 353.124 288.856C353.571 288.569 353.998 288.248 354.405 287.89C354.725 287.604 354.893 286.961 354.949 286.01C355.115 286.193 355.29 286.389 355.464 286.598Z" fill="#222222"/>
<path opacity="0.25" d="M352.227 350.904C351.074 350.504 350.088 349.959 350.088 349.205C350.088 349.05 350.117 348.813 350.166 348.498C350.718 345.162 354.15 333.093 358.556 317.136C356.235 314.312 339.953 303.508 339.953 303.508C339.953 303.508 341.281 299.026 342.777 298.691C344.272 298.362 361.548 313.229 363.457 316.306C365.14 319.009 353.375 341.078 352.227 350.904Z" fill="#222222"/>
<path opacity="0.25" d="M352.122 232.377C352.066 232.88 351.982 233.46 351.863 234.083C347.508 236.301 343.235 231.308 342.726 231.37C342.432 231.405 341.83 232.161 341.342 232.832C341.838 231.187 342.564 230.314 342.564 230.314C344.529 231.65 346.214 232.441 347.656 232.804C349.528 233.286 350.997 233.055 352.122 232.377Z" fill="#222222"/>
<path opacity="0.25" d="M346.689 244.677C343.815 243.978 342.228 241.097 341.629 239.748C341.629 238.9 341.613 238.132 341.6 237.594C342.361 239.328 343.823 241.684 346.248 242.446C346.403 242.495 346.549 242.523 346.689 242.53C346.682 243.266 346.711 244.006 346.689 244.677Z" fill="#222222"/>
<path opacity="0.25" d="M354.522 258.537C353.852 263.27 353.864 268.053 354.089 272.353C352.956 267.577 351.964 262.444 353.123 259.473C355.121 254.355 355.339 254.118 355.368 254.118C355.01 255.572 354.731 257.054 354.522 258.537Z" fill="#222222"/>
<path d="M214.64 306.22L160.851 296.975L160.767 297.458L41.9783 431.227L39.5254 464.666L56.5632 467.595L86.0524 472.665L125.636 479.47L129.398 480.113L126.567 496.609L125.253 504.239L120.925 529.447L155.936 535.467L174.716 538.692L183.188 489.358L206.818 493.413L213.948 451.897L190.318 447.842L214.64 306.22ZM147.491 374.769L136.521 438.597L123.399 436.339L94.699 431.411L110.59 412.439L114.226 408.097L144.526 371.924L148.811 367.072L147.491 374.769Z" fill="#222222"/>
<path opacity="0.25" d="M190.318 447.842L213.948 451.897L206.818 493.413L183.188 489.358L174.715 538.692L155.936 535.466L188.942 329.478L214.64 306.22L190.318 447.842Z" fill="#0E0E0E"/>
<path d="M174.24 -1.20508V319.857" stroke="#0A2533" stroke-width="0.9195" stroke-miterlimit="10"/>
<path d="M264.695 255.846C270.063 255.846 274.414 251.494 274.414 246.125C274.414 240.757 270.063 236.405 264.695 236.405C259.328 236.405 254.977 240.757 254.977 246.125C254.977 251.494 259.328 255.846 264.695 255.846Z" fill="#EF6238"/>
<path d="M602.836 379.376C608.203 379.376 612.555 375.024 612.555 369.655C612.555 364.286 608.203 359.934 602.836 359.934C597.468 359.934 593.117 364.286 593.117 369.655C593.117 375.024 597.468 379.376 602.836 379.376Z" fill="#222222"/>
<path d="M94.7011 308.404C100.069 308.404 104.42 304.052 104.42 298.684C104.42 293.315 100.069 288.963 94.7011 288.963C89.3336 288.963 84.9824 293.315 84.9824 298.684C84.9824 304.052 89.3336 308.404 94.7011 308.404Z" fill="#222222"/>
<path d="M254.978 605.674C260.346 605.674 264.697 601.322 264.697 595.953C264.697 590.584 260.346 586.232 254.978 586.232C249.611 586.232 245.26 590.584 245.26 595.953C245.26 601.322 249.611 605.674 254.978 605.674Z" fill="#EF6238"/>
<path d="M547.28 279.135C549.35 279.135 551.028 277.457 551.028 275.386C551.028 273.316 549.35 271.637 547.28 271.637C545.21 271.637 543.531 273.316 543.531 275.386C543.531 277.457 545.21 279.135 547.28 279.135Z" fill="#F47920"/>
<path d="M260.948 337.516C263.018 337.516 264.696 335.838 264.696 333.767C264.696 331.696 263.018 330.018 260.948 330.018C258.877 330.018 257.199 331.696 257.199 333.767C257.199 335.838 258.877 337.516 260.948 337.516Z" fill="#222222"/>
<path d="M148.811 286.751C150.881 286.751 152.559 285.073 152.559 283.002C152.559 280.931 150.881 279.253 148.811 279.253C146.741 279.253 145.062 280.931 145.062 283.002C145.062 285.073 146.741 286.751 148.811 286.751Z" fill="#222222"/>
<defs>
<linearGradient id="paint0_linear_494_3626" x1="35.2097" y1="355.55" x2="36.5808" y2="342.589" gradientUnits="userSpaceOnUse">
<stop stop-color="#FBC4AF"/>
<stop offset="1" stop-color="#EA8B69"/>
</linearGradient>
<linearGradient id="paint1_linear_494_3626" x1="52.4796" y1="351.215" x2="40.5178" y2="352.088" gradientUnits="userSpaceOnUse">
<stop stop-color="#FBC4AF"/>
<stop offset="1" stop-color="#EA8B69"/>
</linearGradient>
<linearGradient id="paint2_linear_494_3626" x1="36.8213" y1="400.048" x2="47.79" y2="360.668" gradientUnits="userSpaceOnUse">
<stop stop-color="#FBC4AF"/>
<stop offset="1" stop-color="#EA8B69"/>
</linearGradient>
<linearGradient id="paint3_linear_494_3626" x1="474.286" y1="255.662" x2="474.785" y2="244.261" gradientUnits="userSpaceOnUse">
<stop stop-color="#FBC4AF"/>
<stop offset="1" stop-color="#EA8B69"/>
</linearGradient>
<linearGradient id="paint4_linear_494_3626" x1="476.5" y1="260.512" x2="476.127" y2="252.413" gradientUnits="userSpaceOnUse">
<stop stop-color="#FBC4AF"/>
<stop offset="1" stop-color="#EA8B69"/>
</linearGradient>
<linearGradient id="paint5_linear_494_3626" x1="451.504" y1="321.658" x2="460.479" y2="263.336" gradientUnits="userSpaceOnUse">
<stop stop-color="#FBC4AF"/>
<stop offset="1" stop-color="#EA8B69"/>
</linearGradient>
<linearGradient id="paint6_linear_494_3626" x1="501.694" y1="251.311" x2="508.674" y2="288.115" gradientUnits="userSpaceOnUse">
<stop stop-color="#FBC4AF"/>
<stop offset="1" stop-color="#EA8B69"/>
</linearGradient>
<linearGradient id="paint7_linear_494_3626" x1="303.801" y1="197.02" x2="308.165" y2="206.292" gradientUnits="userSpaceOnUse">
<stop stop-color="#FBC4AF"/>
<stop offset="1" stop-color="#EA8B69"/>
</linearGradient>
<linearGradient id="paint8_linear_494_3626" x1="297.187" y1="196.791" x2="308.027" y2="201.337" gradientUnits="userSpaceOnUse">
<stop stop-color="#FBC4AF"/>
<stop offset="1" stop-color="#EA8B69"/>
</linearGradient>
<linearGradient id="paint9_linear_494_3626" x1="303.406" y1="193.301" x2="310.386" y2="208.13" gradientUnits="userSpaceOnUse">
<stop stop-color="#FBC4AF"/>
<stop offset="1" stop-color="#EA8B69"/>
</linearGradient>
<linearGradient id="paint10_linear_494_3626" x1="402.76" y1="207.977" x2="382.946" y2="231.525" gradientUnits="userSpaceOnUse">
<stop stop-color="#FBC4AF"/>
<stop offset="1" stop-color="#EA8B69"/>
</linearGradient>
<linearGradient id="paint11_linear_494_3626" x1="347.354" y1="243.879" x2="345.235" y2="219.202" gradientUnits="userSpaceOnUse">
<stop stop-color="#FBC4AF"/>
<stop offset="1" stop-color="#EA8B69"/>
</linearGradient>
<linearGradient id="paint12_linear_494_3626" x1="343.732" y1="244.07" x2="344.729" y2="237.715" gradientUnits="userSpaceOnUse">
<stop stop-color="#FBC4AF"/>
<stop offset="1" stop-color="#EA8B69"/>
</linearGradient>
</defs>
</svg>
