<svg width="635" height="371" viewBox="0 0 635 371" fill="none" xmlns="http://www.w3.org/2000/svg">
<g clip-path="url(#clip0_298_9923)">
<path d="M537.57 122.304C447.385 141.089 500.253 -66.7322 377.383 21.4846C328.509 56.5778 258.153 14.1214 190.774 37.3202C128.902 58.631 144.146 128.558 150.125 151.426C162.225 197.635 101.984 179.203 67.0775 199.075C12.319 230.227 60.3419 355.802 112.099 356.321C163.832 356.841 543.951 355.283 543.951 355.283C543.951 355.283 566.521 337.654 578.526 301.286C603.105 226.757 617.002 105.76 537.57 122.304Z" fill="#EEF5F9"/>
<path d="M537.83 307.352H514.457V355.448H537.83V307.352Z" fill="#FBFBFB"/>
<path d="M193.54 172.525V151.497H199.945V115.366H234.19V151.497H266.213V101.961L301.568 88.6032V130.847H309.627V74.6084L344.959 86.2904V170.778H389.65V220.669H406.359V233.224H444.716V211.583H466.718V152.772H493.944V261.332H521.146V355.802H493.944H470.618H466.718H444.716H432.261H412.314H406.359H389.65H373.957H344.959H336.073H318.395H309.627H301.568H283.064H270.467H266.213H234.19H200.512H199.945H193.54H166.268V172.525H193.54Z" fill="#ECECEC"/>
<path d="M315.82 99.2856H339.666V90.5772H315.82V99.2856Z" fill="#FBFBFB"/>
<path d="M315.82 115.662H339.666V106.953H315.82V115.662Z" fill="#FBFBFB"/>
<path d="M315.82 130.403H339.666V121.695H315.82V130.403Z" fill="#FBFBFB"/>
<path d="M493.919 192.396H466.221V205.848H493.919V192.396Z" fill="#FBFBFB"/>
<path d="M493.919 233.696H466.48V247.148H493.919V233.696Z" fill="#FBFBFB"/>
<path d="M493.919 254.039H466.48V267.491H493.919V254.039Z" fill="#FBFBFB"/>
<path d="M466.944 288.747H494.383V275.295H466.944V288.747Z" fill="#C4D9ED"/>
<path d="M494.368 296.118H466.93V309.57H494.368V296.118Z" fill="#C4D9ED"/>
<path d="M466.944 330.856H494.383V317.404H466.944V330.856Z" fill="#FBFBFB"/>
<path d="M296.911 121.69H271.836V130.399H296.911V121.69Z" fill="#FBFBFB"/>
<path d="M296.911 107.082H271.836V115.79H296.911V107.082Z" fill="#FBFBFB"/>
<path d="M340.278 135.968H271.836V144.677H340.278V135.968Z" fill="#FBFBFB"/>
<path d="M340.278 149.09H271.836V157.798H340.278V149.09Z" fill="#FBFBFB"/>
<path d="M340.278 162.094H271.836V170.472H340.278V162.094Z" fill="#FBFBFB"/>
<path d="M493.919 213.376H466.48V226.828H493.919V213.376Z" fill="#C4D9ED"/>
<path d="M382.796 178.944H376.816V187.369H382.796V178.944Z" fill="#FBFBFB"/>
<path d="M371.592 178.944H365.613V187.369H371.592V178.944Z" fill="#FBFBFB"/>
<path d="M360.626 178.944H354.646V187.369H360.626V178.944Z" fill="#FBFBFB"/>
<path d="M350.253 178.944H344.273V187.369H350.253V178.944Z" fill="#FBFBFB"/>
<path d="M339.665 178.944H333.686V187.369H339.665V178.944Z" fill="#FBFBFB"/>
<path d="M328.958 178.944H322.979V187.369H328.958V178.944Z" fill="#FBFBFB"/>
<path d="M317.755 178.944H311.775V187.369H317.755V178.944Z" fill="#FBFBFB"/>
<path d="M306.813 178.944H300.834V187.369H306.813V178.944Z" fill="#FBFBFB"/>
<path d="M296.415 178.944H290.436V187.369H296.415V178.944Z" fill="#FBFBFB"/>
<path d="M285.85 178.944H279.871V187.369H285.85V178.944Z" fill="#FBFBFB"/>
<path d="M274.813 178.944H268.834V187.369H274.813V178.944Z" fill="#FBFBFB"/>
<path d="M263.612 178.944H257.633V187.369H263.612V178.944Z" fill="#FBFBFB"/>
<path d="M252.669 178.944H246.689V187.369H252.669V178.944Z" fill="#FBFBFB"/>
<path d="M242.27 178.944H236.291V187.369H242.27V178.944Z" fill="#FBFBFB"/>
<path d="M231.682 178.944H225.703V187.369H231.682V178.944Z" fill="#FBFBFB"/>
<path d="M220.977 178.944H214.998V187.369H220.977V178.944Z" fill="#FBFBFB"/>
<path d="M209.776 178.944H203.797V187.369H209.776V178.944Z" fill="#FBFBFB"/>
<path d="M198.833 178.944H192.854V187.369H198.833V178.944Z" fill="#FBFBFB"/>
<path d="M188.458 178.944H182.479V187.369H188.458V178.944Z" fill="#FBFBFB"/>
<path d="M177.87 178.944H171.891V187.369H177.87V178.944Z" fill="#FBFBFB"/>
<path d="M382.796 193.835H376.816V202.261H382.796V193.835Z" fill="#FBFBFB"/>
<path d="M371.592 193.835H365.613V202.261H371.592V193.835Z" fill="#FBFBFB"/>
<path d="M360.626 193.835H354.646V202.261H360.626V193.835Z" fill="#FBFBFB"/>
<path d="M350.253 193.835H344.273V202.261H350.253V193.835Z" fill="#FBFBFB"/>
<path d="M339.665 193.835H333.686V202.261H339.665V193.835Z" fill="#FBFBFB"/>
<path d="M328.958 193.835H322.979V202.261H328.958V193.835Z" fill="#FBFBFB"/>
<path d="M317.755 193.835H311.775V202.261H317.755V193.835Z" fill="#FBFBFB"/>
<path d="M306.813 193.835H300.834V202.261H306.813V193.835Z" fill="#FBFBFB"/>
<path d="M296.415 193.835H290.436V202.261H296.415V193.835Z" fill="#FBFBFB"/>
<path d="M285.85 193.835H279.871V202.261H285.85V193.835Z" fill="#FBFBFB"/>
<path d="M274.813 193.835H268.834V202.261H274.813V193.835Z" fill="#FBFBFB"/>
<path d="M263.612 193.835H257.633V202.261H263.612V193.835Z" fill="#FBFBFB"/>
<path d="M252.669 193.835H246.689V202.261H252.669V193.835Z" fill="#FBFBFB"/>
<path d="M242.27 193.835H236.291V202.261H242.27V193.835Z" fill="#FBFBFB"/>
<path d="M231.682 193.835H225.703V202.261H231.682V193.835Z" fill="#FBFBFB"/>
<path d="M220.977 193.835H214.998V202.261H220.977V193.835Z" fill="#FBFBFB"/>
<path d="M209.776 193.835H203.797V202.261H209.776V193.835Z" fill="#FBFBFB"/>
<path d="M198.833 193.835H192.854V202.261H198.833V193.835Z" fill="#FBFBFB"/>
<path d="M188.458 193.835H182.479V202.261H188.458V193.835Z" fill="#FBFBFB"/>
<path d="M177.87 193.835H171.891V202.261H177.87V193.835Z" fill="#FBFBFB"/>
<path d="M382.796 208.467H376.816V216.893H382.796V208.467Z" fill="#FBFBFB"/>
<path d="M371.592 208.467H365.613V216.893H371.592V208.467Z" fill="#FBFBFB"/>
<path d="M360.626 208.467H354.646V216.893H360.626V208.467Z" fill="#FBFBFB"/>
<path d="M350.253 208.467H344.273V216.893H350.253V208.467Z" fill="#FBFBFB"/>
<path d="M339.665 208.467H333.686V216.893H339.665V208.467Z" fill="#FBFBFB"/>
<path d="M328.958 208.467H322.979V216.893H328.958V208.467Z" fill="#FBFBFB"/>
<path d="M317.755 208.467H311.775V216.893H317.755V208.467Z" fill="#FBFBFB"/>
<path d="M306.813 208.467H300.834V216.893H306.813V208.467Z" fill="#FBFBFB"/>
<path d="M296.415 208.467H290.436V216.893H296.415V208.467Z" fill="#FBFBFB"/>
<path d="M285.85 208.467H279.871V216.893H285.85V208.467Z" fill="#FBFBFB"/>
<path d="M274.813 208.467H268.834V216.893H274.813V208.467Z" fill="#FBFBFB"/>
<path d="M263.612 208.467H257.633V216.893H263.612V208.467Z" fill="#FBFBFB"/>
<path d="M252.669 208.467H246.689V216.893H252.669V208.467Z" fill="#FBFBFB"/>
<path d="M242.27 208.467H236.291V216.893H242.27V208.467Z" fill="#FBFBFB"/>
<path d="M231.682 208.467H225.703V216.893H231.682V208.467Z" fill="#FBFBFB"/>
<path d="M220.977 208.467H214.998V216.893H220.977V208.467Z" fill="#FBFBFB"/>
<path d="M209.776 208.467H203.797V216.893H209.776V208.467Z" fill="#FBFBFB"/>
<path d="M198.833 208.467H192.854V216.893H198.833V208.467Z" fill="#FBFBFB"/>
<path d="M188.458 208.467H182.479V216.893H188.458V208.467Z" fill="#FBFBFB"/>
<path d="M177.87 208.467H171.891V216.893H177.87V208.467Z" fill="#FBFBFB"/>
<path d="M382.796 224.043H376.816V232.469H382.796V224.043Z" fill="#FBFBFB"/>
<path d="M371.592 224.043H365.613V232.469H371.592V224.043Z" fill="#FBFBFB"/>
<path d="M360.626 224.043H354.646V232.469H360.626V224.043Z" fill="#FBFBFB"/>
<path d="M350.253 224.043H344.273V232.469H350.253V224.043Z" fill="#FBFBFB"/>
<path d="M339.665 224.043H333.686V232.469H339.665V224.043Z" fill="#FBFBFB"/>
<path d="M328.958 224.043H322.979V232.469H328.958V224.043Z" fill="#FBFBFB"/>
<path d="M317.755 224.043H311.775V232.469H317.755V224.043Z" fill="#FBFBFB"/>
<path d="M306.813 224.043H300.834V232.469H306.813V224.043Z" fill="#FBFBFB"/>
<path d="M296.415 224.043H290.436V232.469H296.415V224.043Z" fill="#FBFBFB"/>
<path d="M285.85 224.043H279.871V232.469H285.85V224.043Z" fill="#FBFBFB"/>
<path d="M274.813 224.043H268.834V232.469H274.813V224.043Z" fill="#FBFBFB"/>
<path d="M263.612 224.043H257.633V232.469H263.612V224.043Z" fill="#FBFBFB"/>
<path d="M252.669 224.043H246.689V232.469H252.669V224.043Z" fill="#FBFBFB"/>
<path d="M242.27 224.043H236.291V232.469H242.27V224.043Z" fill="#FBFBFB"/>
<path d="M231.682 224.043H225.703V232.469H231.682V224.043Z" fill="#FBFBFB"/>
<path d="M220.977 224.043H214.998V232.469H220.977V224.043Z" fill="#FBFBFB"/>
<path d="M209.776 224.043H203.797V232.469H209.776V224.043Z" fill="#FBFBFB"/>
<path d="M198.833 224.043H192.854V232.469H198.833V224.043Z" fill="#FBFBFB"/>
<path d="M188.458 224.043H182.479V232.469H188.458V224.043Z" fill="#FBFBFB"/>
<path d="M177.87 224.043H171.891V232.469H177.87V224.043Z" fill="#FBFBFB"/>
<path d="M382.796 238.935H376.816V247.36H382.796V238.935Z" fill="#FBFBFB"/>
<path d="M371.592 238.935H365.613V247.36H371.592V238.935Z" fill="#FBFBFB"/>
<path d="M360.626 238.935H354.646V247.36H360.626V238.935Z" fill="#FBFBFB"/>
<path d="M350.253 238.935H344.273V247.36H350.253V238.935Z" fill="#FBFBFB"/>
<path d="M339.665 238.935H333.686V247.36H339.665V238.935Z" fill="#FBFBFB"/>
<path d="M328.958 238.935H322.979V247.36H328.958V238.935Z" fill="#FBFBFB"/>
<path d="M317.755 238.935H311.775V247.36H317.755V238.935Z" fill="#FBFBFB"/>
<path d="M306.813 238.935H300.834V247.36H306.813V238.935Z" fill="#FBFBFB"/>
<path d="M296.415 238.935H290.436V247.36H296.415V238.935Z" fill="#FBFBFB"/>
<path d="M285.85 238.935H279.871V247.36H285.85V238.935Z" fill="#FBFBFB"/>
<path d="M274.813 238.935H268.834V247.36H274.813V238.935Z" fill="#FBFBFB"/>
<path d="M263.612 238.935H257.633V247.36H263.612V238.935Z" fill="#FBFBFB"/>
<path d="M252.669 238.935H246.689V247.36H252.669V238.935Z" fill="#FBFBFB"/>
<path d="M242.27 238.935H236.291V247.36H242.27V238.935Z" fill="#FBFBFB"/>
<path d="M231.682 238.935H225.703V247.36H231.682V238.935Z" fill="#FBFBFB"/>
<path d="M220.977 238.935H214.998V247.36H220.977V238.935Z" fill="#FBFBFB"/>
<path d="M209.776 238.935H203.797V247.36H209.776V238.935Z" fill="#FBFBFB"/>
<path d="M188.458 238.935H182.479V247.36H188.458V238.935Z" fill="#FBFBFB"/>
<path d="M198.833 238.935H192.854V247.36H198.833V238.935Z" fill="#FBFBFB"/>
<path d="M177.87 238.935H171.891V247.36H177.87V238.935Z" fill="#FBFBFB"/>
<path d="M382.796 253.567H376.816V261.993H382.796V253.567Z" fill="#FBFBFB"/>
<path d="M371.592 253.567H365.613V261.992H371.592V253.567Z" fill="#FBFBFB"/>
<path d="M360.626 253.567H354.646V261.992H360.626V253.567Z" fill="#FBFBFB"/>
<path d="M350.253 253.567H344.273V261.993H350.253V253.567Z" fill="#FBFBFB"/>
<path d="M339.665 253.567H333.686V261.993H339.665V253.567Z" fill="#FBFBFB"/>
<path d="M328.958 253.567H322.979V261.993H328.958V253.567Z" fill="#FBFBFB"/>
<path d="M317.755 253.567H311.775V261.993H317.755V253.567Z" fill="#FBFBFB"/>
<path d="M306.813 253.567H300.834V261.992H306.813V253.567Z" fill="#FBFBFB"/>
<path d="M296.415 253.567H290.436V261.992H296.415V253.567Z" fill="#FBFBFB"/>
<path d="M285.85 253.567H279.871V261.993H285.85V253.567Z" fill="#FBFBFB"/>
<path d="M274.813 253.567H268.834V261.992H274.813V253.567Z" fill="#FBFBFB"/>
<path d="M263.612 253.567H257.633V261.993H263.612V253.567Z" fill="#FBFBFB"/>
<path d="M252.669 253.567H246.689V261.992H252.669V253.567Z" fill="#FBFBFB"/>
<path d="M242.27 253.567H236.291V261.992H242.27V253.567Z" fill="#FBFBFB"/>
<path d="M231.682 253.567H225.703V261.993H231.682V253.567Z" fill="#FBFBFB"/>
<path d="M220.977 253.567H214.998V261.993H220.977V253.567Z" fill="#FBFBFB"/>
<path d="M209.776 253.567H203.797V261.993H209.776V253.567Z" fill="#FBFBFB"/>
<path d="M188.458 253.567H182.479V261.992H188.458V253.567Z" fill="#FBFBFB"/>
<path d="M177.87 253.567H171.891V261.992H177.87V253.567Z" fill="#FBFBFB"/>
<path d="M121.671 236.906H108.342V326.94H121.671V236.906Z" fill="#ECECEC"/>
<path d="M121.669 354.18H135.967V291.64H121.669V354.18Z" fill="#ADC9E0"/>
<path d="M434.955 211.559V194.001H434.246V211.559H424.344V233.201H444.716V211.559H434.955Z" fill="#C4D9ED"/>
<path d="M493.943 166.247V152.795H488.2V146.942H487.491V152.795H466.599H466.221H462.275V146.942H461.542V152.795H456.484V211.606H466.599V186.26H493.943V172.808H466.599V166.247H493.943Z" fill="#ECECEC"/>
<path d="M198.076 250.004V325.901H121.67V236.906L198.076 250.004Z" fill="#ECECEC"/>
<path d="M102.757 355.433H198.094V291.406H102.757L102.757 355.433Z" fill="#ECECEC"/>
<path d="M102.757 274.332H198.094V253.516H102.757V274.332Z" fill="#ECECEC"/>
<path d="M191.603 308.768H186.711V315.659H191.603V308.768Z" fill="#FBFBFB"/>
<path d="M182.431 308.767H177.539V315.658H182.431V308.767Z" fill="#FBFBFB"/>
<path d="M173.474 308.768H168.582V315.659H173.474V308.768Z" fill="#FBFBFB"/>
<path d="M164.99 308.767H160.098V315.658H164.99V308.767Z" fill="#FBFBFB"/>
<path d="M156.341 308.768H151.449V315.659H156.341V308.768Z" fill="#FBFBFB"/>
<path d="M147.595 308.767H142.703V315.658H147.595V308.767Z" fill="#FBFBFB"/>
<path d="M138.451 308.768H133.559V315.659H138.451V308.768Z" fill="#FBFBFB"/>
<path d="M129.494 308.768H124.602V315.659H129.494V308.768Z" fill="#FBFBFB"/>
<path d="M121.007 308.768H116.115V315.659H121.007V308.768Z" fill="#FBFBFB"/>
<path d="M112.359 308.767H107.467V315.658H112.359V308.767Z" fill="#FBFBFB"/>
<path d="M191.603 320.945H186.711V327.836H191.603V320.945Z" fill="#FBFBFB"/>
<path d="M182.431 320.945H177.539V327.836H182.431V320.945Z" fill="#FBFBFB"/>
<path d="M173.474 320.945H168.582V327.836H173.474V320.945Z" fill="#FBFBFB"/>
<path d="M164.99 320.945H160.098V327.836H164.99V320.945Z" fill="#FBFBFB"/>
<path d="M156.341 320.945H151.449V327.836H156.341V320.945Z" fill="#FBFBFB"/>
<path d="M147.595 320.945H142.703V327.836H147.595V320.945Z" fill="#FBFBFB"/>
<path d="M138.451 320.945H133.559V327.836H138.451V320.945Z" fill="#FBFBFB"/>
<path d="M129.494 320.945H124.602V327.836H129.494V320.945Z" fill="#FBFBFB"/>
<path d="M121.007 320.945H116.115V327.836H121.007V320.945Z" fill="#FBFBFB"/>
<path d="M112.359 320.945H107.467V327.836H112.359V320.945Z" fill="#FBFBFB"/>
<path d="M191.603 284.271H186.711V291.162H191.603V284.271Z" fill="#FBFBFB"/>
<path d="M182.431 284.271H177.539V291.162H182.431V284.271Z" fill="#FBFBFB"/>
<path d="M173.474 284.271H168.582V291.162H173.474V284.271Z" fill="#FBFBFB"/>
<path d="M164.99 284.271H160.098V291.162H164.99V284.271Z" fill="#FBFBFB"/>
<path d="M156.341 284.271H151.449V291.162H156.341V284.271Z" fill="#FBFBFB"/>
<path d="M147.595 284.271H142.703V291.162H147.595V284.271Z" fill="#FBFBFB"/>
<path d="M138.451 284.271H133.559V291.162H138.451V284.271Z" fill="#FBFBFB"/>
<path d="M129.494 284.271H124.602V291.162H129.494V284.271Z" fill="#FBFBFB"/>
<path d="M191.603 296.424H186.711V303.316H191.603V296.424Z" fill="#FBFBFB"/>
<path d="M182.431 296.424H177.539V303.316H182.431V296.424Z" fill="#FBFBFB"/>
<path d="M173.474 296.424H168.582V303.316H173.474V296.424Z" fill="#FBFBFB"/>
<path d="M164.99 296.424H160.098V303.316H164.99V296.424Z" fill="#FBFBFB"/>
<path d="M156.341 296.424H151.449V303.316H156.341V296.424Z" fill="#FBFBFB"/>
<path d="M147.595 296.424H142.703V303.316H147.595V296.424Z" fill="#FBFBFB"/>
<path d="M138.451 296.424H133.559V303.316H138.451V296.424Z" fill="#FBFBFB"/>
<path d="M129.494 296.424H124.602V303.316H129.494V296.424Z" fill="#FBFBFB"/>
<path d="M121.007 296.424H116.115V303.316H121.007V296.424Z" fill="#FBFBFB"/>
<path d="M112.359 296.424H107.467V303.316H112.359V296.424Z" fill="#FBFBFB"/>
<path d="M191.603 332.91H186.711V339.801H191.603V332.91Z" fill="#FBFBFB"/>
<path d="M182.431 332.91H177.539V339.801H182.431V332.91Z" fill="#FBFBFB"/>
<path d="M173.474 332.91H168.582V339.801H173.474V332.91Z" fill="#FBFBFB"/>
<path d="M164.99 332.91H160.098V339.801H164.99V332.91Z" fill="#FBFBFB"/>
<path d="M156.341 332.91H151.449V339.801H156.341V332.91Z" fill="#FBFBFB"/>
<path d="M147.595 332.91H142.703V339.801H147.595V332.91Z" fill="#FBFBFB"/>
<path d="M138.451 332.91H133.559V339.801H138.451V332.91Z" fill="#FBFBFB"/>
<path d="M129.494 332.91H124.602V339.801H129.494V332.91Z" fill="#FBFBFB"/>
<path d="M121.007 332.91H116.115V339.801H121.007V332.91Z" fill="#FBFBFB"/>
<path d="M112.359 332.91H107.467V339.801H112.359V332.91Z" fill="#FBFBFB"/>
<path d="M128.217 222.604H126.799V240.658H128.217V222.604Z" fill="#D5E7F7"/>
<path d="M190.823 259.373H186.711V266.477H190.823V259.373Z" fill="#D5E7F7"/>
<path d="M149.96 259.373H145.848V266.477H149.96V259.373Z" fill="#D5E7F7"/>
<path d="M117.464 259.373H113.352V266.477H117.464V259.373Z" fill="#D5E7F7"/>
<path d="M451.969 275.303H314.777V355.448H451.969V275.303Z" fill="#ECECEC"/>
<path d="M327.492 283.516H320.166V294.678H327.492V283.516Z" fill="#D5E7F7"/>
<path d="M340.397 283.516H333.07V294.678H340.397V283.516Z" fill="#D5E7F7"/>
<path d="M353.371 283.516H346.045V294.678H353.371V283.516Z" fill="#D5E7F7"/>
<path d="M366.276 283.516H358.949V294.678H366.276V283.516Z" fill="#D5E7F7"/>
<path d="M379.557 283.516H372.23V294.678H379.557V283.516Z" fill="#D5E7F7"/>
<path d="M392.461 283.516H385.135V294.678H392.461V283.516Z" fill="#D5E7F7"/>
<path d="M405.436 283.516H398.109V294.678H405.436V283.516Z" fill="#D5E7F7"/>
<path d="M418.34 283.516H411.014V294.678H418.34V283.516Z" fill="#D5E7F7"/>
<path d="M431.883 283.516H424.557V294.678H431.883V283.516Z" fill="#D5E7F7"/>
<path d="M444.762 283.516H437.436V294.678H444.762V283.516Z" fill="#D5E7F7"/>
<path d="M327.492 300.012H320.166V311.175H327.492V300.012Z" fill="#D5E7F7"/>
<path d="M340.397 300.012H333.07V311.175H340.397V300.012Z" fill="#D5E7F7"/>
<path d="M353.371 300.012H346.045V311.175H353.371V300.012Z" fill="#D5E7F7"/>
<path d="M366.276 300.012H358.949V311.175H366.276V300.012Z" fill="#D5E7F7"/>
<path d="M379.557 300.012H372.23V311.175H379.557V300.012Z" fill="#D5E7F7"/>
<path d="M392.461 300.012H385.135V311.175H392.461V300.012Z" fill="#D5E7F7"/>
<path d="M405.436 300.012H398.109V311.175H405.436V300.012Z" fill="#D5E7F7"/>
<path d="M418.34 300.012H411.014V311.175H418.34V300.012Z" fill="#D5E7F7"/>
<path d="M431.883 300.012H424.557V311.175H431.883V300.012Z" fill="#D5E7F7"/>
<path d="M444.762 300.012H437.436V311.175H444.762V300.012Z" fill="#D5E7F7"/>
<path d="M327.492 317.735H320.166V328.898H327.492V317.735Z" fill="#D5E7F7"/>
<path d="M340.397 317.735H333.07V328.898H340.397V317.735Z" fill="#D5E7F7"/>
<path d="M353.371 317.735H346.045V328.898H353.371V317.735Z" fill="#D5E7F7"/>
<path d="M366.276 317.735H358.949V328.898H366.276V317.735Z" fill="#D5E7F7"/>
<path d="M379.557 317.735H372.23V328.898H379.557V317.735Z" fill="#D5E7F7"/>
<path d="M392.461 317.735H385.135V328.898H392.461V317.735Z" fill="#D5E7F7"/>
<path d="M405.436 317.735H398.109V328.898H405.436V317.735Z" fill="#D5E7F7"/>
<path d="M418.34 317.735H411.014V328.898H418.34V317.735Z" fill="#D5E7F7"/>
<path d="M431.883 317.735H424.557V328.898H431.883V317.735Z" fill="#D5E7F7"/>
<path d="M444.762 317.735H437.436V328.898H444.762V317.735Z" fill="#D5E7F7"/>
<path d="M327.492 334.208H320.166V345.371H327.492V334.208Z" fill="#D5E7F7"/>
<path d="M340.397 334.208H333.07V345.371H340.397V334.208Z" fill="#D5E7F7"/>
<path d="M353.371 334.208H346.045V345.371H353.371V334.208Z" fill="#D5E7F7"/>
<path d="M366.276 334.208H358.949V345.371H366.276V334.208Z" fill="#D5E7F7"/>
<path d="M379.557 334.208H372.23V345.371H379.557V334.208Z" fill="#D5E7F7"/>
<path d="M392.461 334.208H385.135V345.371H392.461V334.208Z" fill="#D5E7F7"/>
<path d="M405.436 334.208H398.109V345.371H405.436V334.208Z" fill="#D5E7F7"/>
<path d="M418.34 334.208H411.014V345.371H418.34V334.208Z" fill="#D5E7F7"/>
<path d="M431.883 334.208H424.557V345.371H431.883V334.208Z" fill="#D5E7F7"/>
<path d="M444.762 334.208H437.436V345.371H444.762V334.208Z" fill="#D5E7F7"/>
<path d="M404.703 278.961H433.347V254.04L404.703 264.966V278.961Z" fill="#C4D9ED"/>
<path d="M263.613 355.448H198.078V284.271L263.613 306.927V355.448Z" fill="#ECECEC"/>
<path d="M261.887 309.263H199.826V311.458H261.887V309.263Z" fill="#D5E7F7"/>
<path d="M261.887 316.343H199.826V318.538H261.887V316.343Z" fill="#D5E7F7"/>
<path d="M261.887 323.423H199.826V325.618H261.887V323.423Z" fill="#FBFBFB"/>
<path d="M261.887 330.479H199.826V332.674H261.887V330.479Z" fill="#FBFBFB"/>
<path d="M261.887 337.56H199.826V339.754H261.887V337.56Z" fill="#FBFBFB"/>
<path d="M261.887 344.616H199.826V346.811H261.887V344.616Z" fill="#FBFBFB"/>
<path d="M438.852 254.04H433.346V275.303H438.852V254.04Z" fill="#C4D9ED"/>
<path d="M427.301 272.018V264.702H416.122V272.018H427.301Z" fill="#D5E7F7"/>
<path d="M207.744 118.339H203.939V150.506H207.744V118.339Z" fill="#FBFBFB"/>
<path d="M215.307 118.339H211.502V150.506H215.307V118.339Z" fill="#FBFBFB"/>
<path d="M222.752 118.339H218.947V150.506H222.752V118.339Z" fill="#FBFBFB"/>
<path d="M230.455 118.339H226.65V150.506H230.455V118.339Z" fill="#FBFBFB"/>
<path d="M76.7656 355.826C76.7656 355.826 82.9339 338.81 111.814 343.412C140.717 348.014 153.503 344.781 167.73 341.123C181.934 337.442 188.055 337.253 201.573 342.185C215.115 347.094 219.842 357.218 263.894 347.094C307.947 336.97 328.791 328.71 356.277 336.521C383.763 344.333 417.606 330.055 451.496 343.412C485.386 356.794 537.734 333.288 564.25 355.826H76.7656Z" fill="#88B374"/>
<path d="M617.544 355.708H23.4963C23.2127 355.708 23 355.495 23 355.212V355.165C23 354.882 23.2127 354.669 23.4963 354.669H617.544C617.827 354.669 618.04 354.882 618.04 355.165V355.212C618.04 355.495 617.804 355.708 617.544 355.708Z" fill="#283250"/>
<path d="M498.667 264.188H127.553V318.562H498.667V264.188Z" fill="#EF6238"/>
<g opacity="0.5">
<path d="M498.667 264.188H127.553V318.562H498.667V264.188Z" fill="black"/>
</g>
<path d="M179.813 353.839C199.529 352.514 214.436 335.48 213.11 315.792C211.783 296.104 194.725 281.218 175.009 282.542C155.293 283.867 140.386 300.901 141.712 320.589C143.039 340.277 160.097 355.164 179.813 353.839Z" fill="#222222"/>
<path d="M141.639 317.594C141.639 317.618 141.639 317.665 141.639 317.689C141.355 337.418 157.142 353.655 176.899 353.938C196.657 354.221 212.917 338.457 213.2 318.727C213.2 318.703 213.2 318.656 213.2 318.633L141.639 317.594Z" fill="#222222"/>
<path d="M152.299 317.83C152.11 331.683 163.194 343.082 177.067 343.271C190.94 343.46 202.355 332.391 202.544 318.538C202.733 304.685 191.649 293.286 177.776 293.097C163.903 292.908 152.488 303.977 152.299 317.83Z" fill="#E0E0E0"/>
<path d="M177.776 293.121C163.903 292.932 152.488 304.001 152.299 317.854L202.543 318.585C202.732 304.709 191.648 293.31 177.776 293.121Z" fill="#E0E0E0"/>
<path d="M162.105 317.971C161.987 326.42 168.746 333.359 177.183 333.477C185.644 333.595 192.592 326.845 192.71 318.42C192.828 309.971 186.069 303.033 177.632 302.915C169.195 302.797 162.247 309.546 162.105 317.971Z" fill="#222222"/>
<path d="M453.103 353.868C472.83 352.727 487.896 335.832 486.753 316.132C485.611 296.432 468.692 281.387 448.964 282.528C429.237 283.67 414.171 300.565 415.313 320.264C416.456 339.964 433.375 355.009 453.103 353.868Z" fill="#222222"/>
<path d="M415.289 317.594C415.289 317.618 415.289 317.665 415.289 317.689C415.005 337.418 430.792 353.655 450.55 353.938C470.307 354.221 486.567 338.457 486.851 318.727C486.851 318.703 486.851 318.656 486.851 318.633L415.289 317.594Z" fill="#222222"/>
<path d="M425.924 317.83C425.735 331.684 436.819 343.082 450.692 343.271C464.565 343.46 475.98 332.392 476.169 318.538C476.358 304.685 465.274 293.286 451.401 293.098C437.552 292.909 426.137 303.977 425.924 317.83Z" fill="#E0E0E0"/>
<path d="M451.424 293.121C437.551 292.932 426.136 304.001 425.947 317.854L476.192 318.585C476.381 304.709 465.297 293.31 451.424 293.121Z" fill="#E0E0E0"/>
<path d="M435.755 317.972C435.637 326.421 442.396 333.359 450.833 333.477C459.294 333.595 466.242 326.845 466.361 318.42C466.479 309.971 459.72 303.033 451.283 302.915C442.822 302.797 435.874 309.547 435.755 317.972Z" fill="#222222"/>
<path d="M224.332 233.602C224.332 233.602 171.63 237.472 152.109 241.862C138.354 244.953 111.79 250.263 112.121 266.948L114.224 278.89C114.224 278.89 104.369 283.374 104.369 294.844C104.369 306.313 101.959 324.084 124.954 324.792C128.735 324.91 135.943 324.792 135.943 324.792C135.943 324.792 131.524 275.916 176.498 274.477C222.252 273.014 219.204 324.344 219.204 324.344H410.09C410.09 324.344 402.244 274.359 451.496 274.288C500.747 274.217 493.256 324.674 493.256 324.674C493.256 324.674 511.359 326.232 519.796 311.033C528.233 295.835 526.035 285.002 526.035 285.002L525.752 275.397C525.657 272.117 523.034 269.497 519.772 269.356C519.772 269.356 523.057 245.166 518.023 240.965C512.966 236.788 485.291 211.512 485.291 211.512L486.615 210.686C488.813 209.294 488.435 205.99 485.977 205.14C475.46 201.529 454.686 194.402 449.818 192.679C449.085 192.42 448.329 192.254 447.549 192.207C444.642 191.995 436.394 191.452 421.245 191.31C402.787 191.122 329.524 191.31 329.524 191.31C329.524 191.31 304.307 193.387 290.269 199.547C275.451 206.037 224.332 233.602 224.332 233.602Z" fill="#EF6238"/>
<g opacity="0.4">
<path d="M117.723 293.522C115.809 293.145 112.878 293.097 111.437 294.395C110.349 295.363 110.066 296.921 109.9 298.337C109.664 300.319 109.569 302.325 110.042 304.26C110.515 306.195 111.649 308.036 113.374 308.98C115.123 309.924 117.51 309.783 118.881 308.319C120.134 306.998 120.275 305.015 120.228 303.198C120.181 300.626 120.394 298.431 119.921 295.906C119.826 295.434 119.566 294.82 119.259 294.443C118.763 293.805 118.361 293.546 117.723 293.522Z" fill="black"/>
</g>
<path d="M114.224 278.89C119.826 278.89 125.238 278.583 130.815 278.206C131.43 278.158 132.068 278.111 132.517 277.686C133.06 277.191 133.084 276.388 133.107 275.657C133.131 272.66 132.989 269.261 130.721 267.302C129.326 266.099 127.435 265.745 125.592 265.58C121.102 265.155 116.399 265.509 112.121 266.925L114.224 278.89Z" fill="#FAFAFA"/>
<path d="M230.382 322.81C230.382 322.81 230.358 322.644 230.335 322.338C230.311 322.007 230.287 321.535 230.24 320.945C230.169 319.694 230.075 317.877 229.956 315.564C229.815 313.228 229.673 310.349 229.342 307.045C228.987 303.741 228.491 299.965 227.38 295.929C226.27 291.894 224.544 287.622 221.992 283.398C219.44 279.22 216.084 275.043 211.593 271.81C202.565 265.391 190.371 261.78 177.609 261.615C164.823 261.473 152.675 265.509 143.884 272.211C139.441 275.515 135.754 279.362 132.942 283.374C130.082 287.386 128.002 291.492 126.537 295.41C125.048 299.328 124.268 303.056 123.819 306.337C123.346 309.641 123.417 312.52 123.488 314.833C123.677 317.169 123.866 318.963 124.15 320.19C124.268 320.78 124.339 321.252 124.41 321.582C124.457 321.889 124.481 322.054 124.481 322.054C124.481 322.054 124.434 321.889 124.363 321.582C124.292 321.252 124.197 320.804 124.079 320.214C123.795 319.01 123.559 317.193 123.346 314.856C123.252 312.52 123.157 309.617 123.606 306.313C124.032 303.009 124.788 299.257 126.277 295.316C127.742 291.374 129.822 287.221 132.682 283.185C135.518 279.126 139.204 275.256 143.671 271.928C152.51 265.155 164.752 261.072 177.609 261.237C190.441 261.402 202.684 265.037 211.759 271.527C216.296 274.807 219.676 279.008 222.228 283.232C224.781 287.48 226.482 291.799 227.617 295.835C228.727 299.894 229.224 303.67 229.555 306.998C229.862 310.325 230.004 313.181 230.122 315.517C230.216 317.854 230.287 319.671 230.358 320.922C230.382 321.535 230.405 322.007 230.405 322.314C230.382 322.644 230.382 322.81 230.382 322.81Z" fill="white"/>
<path d="M232.39 323.636C232.39 323.636 232.39 323.494 232.367 323.234C232.367 322.951 232.343 322.574 232.319 322.054C232.296 320.992 232.248 319.458 232.178 317.429C232.059 313.37 231.894 307.446 231.681 299.918C231.469 292.366 231.232 283.232 230.925 272.73C230.854 270.111 230.783 267.397 230.712 264.612C230.618 263.22 230.76 261.804 230.901 260.364C230.996 259.656 231.114 258.924 231.209 258.216C231.35 257.508 231.492 256.777 231.658 256.069C232.343 253.19 233.312 250.31 234.635 247.502C235.959 244.694 237.542 241.932 239.527 239.384L239.551 239.36L239.575 239.336C249.784 232.917 260.892 225.932 272.638 218.545C275.568 216.704 278.546 214.816 281.571 212.928C284.525 210.922 287.716 209.223 291.025 207.665C294.333 206.108 297.76 204.762 301.281 203.582C303.03 202.969 304.826 202.473 306.646 201.93C308.466 201.482 310.286 200.963 312.129 200.585C319.243 199.004 326.404 198.225 333.446 197.895C340.465 197.564 347.366 197.588 354.078 197.966H354.267L354.22 198.154C351.053 212.291 348.075 225.625 345.334 237.85V237.873L345.31 237.897C343.632 240.634 342.309 243.514 341.316 246.416C340.371 249.319 339.756 252.316 339.969 255.243C340.205 258.169 340.276 261.048 340.347 263.833C340.395 266.618 340.465 269.332 340.513 271.952C340.678 282.43 340.702 291.587 340.725 299.115C340.725 306.644 340.749 312.567 340.749 316.626C340.749 318.632 340.725 320.19 340.725 321.252C340.725 321.771 340.725 322.172 340.725 322.432C340.725 322.692 340.702 322.833 340.702 322.833C340.702 322.833 340.702 322.692 340.678 322.432C340.678 322.149 340.678 321.771 340.655 321.252C340.655 320.19 340.631 318.656 340.631 316.626C340.607 312.591 340.584 306.667 340.536 299.115C340.489 291.587 340.418 282.43 340.253 271.952C340.205 269.332 340.135 266.618 340.087 263.833C340.016 261.048 339.922 258.193 339.686 255.266C339.473 252.293 340.087 249.272 341.033 246.322C342.025 243.396 343.349 240.493 345.027 237.732L345.003 237.779C347.721 225.554 350.699 212.22 353.866 198.084L354.007 198.296C347.319 197.918 340.418 197.895 333.423 198.225C326.404 198.556 319.266 199.334 312.176 200.916C310.333 201.293 308.513 201.812 306.717 202.261C304.921 202.804 303.125 203.299 301.376 203.913C297.855 205.093 294.451 206.438 291.143 207.996C287.858 209.553 284.667 211.252 281.737 213.235C278.712 215.123 275.734 217.011 272.803 218.852C261.057 226.238 249.926 233.2 239.717 239.62L239.764 239.596C237.779 242.121 236.219 244.882 234.895 247.644C233.572 250.428 232.603 253.284 231.918 256.14C230.405 261.874 231.161 267.515 231.185 272.73C231.445 283.209 231.681 292.366 231.87 299.918C232.059 307.446 232.201 313.393 232.296 317.429C232.343 319.435 232.367 320.992 232.39 322.054C232.39 322.574 232.414 322.975 232.414 323.234C232.414 323.494 232.39 323.636 232.39 323.636Z" fill="#263238"/>
<path d="M353.818 199.075C353.818 199.075 353.913 199.051 354.126 199.051C354.338 199.051 354.646 199.028 355.047 199.028C355.874 199.004 357.056 198.98 358.592 198.933C361.688 198.862 366.179 198.792 371.756 198.674C382.958 198.485 398.533 198.225 416.163 197.918H416.258L416.305 197.989C418.29 200.42 420.393 202.992 422.52 205.588C428.831 213.306 434.833 220.645 440.293 227.348C440.978 228.174 441.64 229 442.302 229.826C442.963 230.652 443.507 231.548 443.956 232.492C444.83 234.357 445.279 236.363 445.279 238.298C445.303 240.233 444.901 242.098 444.192 243.75C443.483 245.378 442.821 246.959 442.16 248.446C439.584 254.417 437.48 259.278 436.015 262.63C435.282 264.282 434.715 265.58 434.337 266.476C434.148 266.901 434.006 267.232 433.888 267.468C433.794 267.68 433.723 267.798 433.723 267.798C433.723 267.798 433.77 267.68 433.864 267.444C433.959 267.208 434.101 266.878 434.29 266.429C434.668 265.532 435.212 264.234 435.921 262.559C437.362 259.184 439.418 254.322 441.947 248.328C443.105 245.307 445.114 242.121 444.996 238.251C444.972 236.363 444.547 234.404 443.672 232.563C443.223 231.643 442.68 230.77 442.042 229.967C441.38 229.165 440.694 228.339 440.009 227.489C434.55 220.81 428.523 213.471 422.213 205.754C420.086 203.158 417.983 200.585 415.998 198.154L416.139 198.225C398.509 198.485 382.935 198.697 371.732 198.862C366.155 198.933 361.665 198.98 358.569 199.028C357.032 199.028 355.851 199.051 355.024 199.051C354.622 199.051 354.315 199.051 354.102 199.051C353.937 199.098 353.818 199.075 353.818 199.075Z" fill="#263238"/>
<path d="M331.415 258.051C331.415 258.028 331.604 258.028 331.958 257.981C332.289 257.91 332.809 257.792 333.376 257.414C333.92 257.06 334.511 256.447 334.818 255.55C334.96 255.101 335.031 254.63 335.007 254.087C334.983 253.568 334.865 253.001 334.582 252.505C334.038 251.491 332.88 250.641 331.509 250.641C330.091 250.641 328.579 250.641 326.995 250.665C323.805 250.665 320.331 250.665 316.668 250.688C315.793 250.688 314.942 251.019 314.304 251.609C313.666 252.175 313.264 252.977 313.193 253.803C313.099 254.653 313.217 255.455 313.619 256.163C313.997 256.871 314.635 257.391 315.32 257.674C316.029 257.981 316.786 257.933 317.542 257.933C318.298 257.933 319.031 257.933 319.74 257.933C321.158 257.933 322.458 257.957 323.663 257.957C326.05 257.981 327.964 258.004 329.359 258.004C329.997 258.028 330.517 258.028 330.895 258.028C331.226 258.028 331.415 258.028 331.415 258.051C331.415 258.075 331.226 258.075 330.871 258.075C330.493 258.075 329.973 258.099 329.335 258.099C327.964 258.122 326.026 258.122 323.639 258.146C322.434 258.146 321.111 258.169 319.716 258.169C319.007 258.169 318.275 258.169 317.518 258.169C317.14 258.169 316.762 258.193 316.36 258.169C315.959 258.146 315.557 258.051 315.179 257.91C314.422 257.603 313.737 257.013 313.312 256.258C312.863 255.503 312.744 254.582 312.839 253.709C312.933 252.812 313.382 251.939 314.068 251.302C314.753 250.665 315.699 250.287 316.668 250.287C320.331 250.287 323.828 250.287 326.995 250.311C328.579 250.311 330.091 250.334 331.509 250.334C332.998 250.358 334.251 251.278 334.794 252.387C335.078 252.93 335.22 253.52 335.22 254.087C335.243 254.63 335.172 255.172 335.007 255.621C334.676 256.541 334.038 257.178 333.471 257.532C332.88 257.886 332.36 258.004 332.006 258.051C331.604 258.075 331.415 258.051 331.415 258.051Z" fill="#263238"/>
<path d="M430.368 258.051C430.368 258.028 430.557 258.028 430.911 257.981C431.242 257.91 431.762 257.792 432.329 257.414C432.873 257.06 433.464 256.447 433.771 255.55C433.913 255.101 433.984 254.63 433.96 254.087C433.936 253.568 433.818 253.001 433.535 252.505C432.991 251.491 431.833 250.641 430.462 250.641C429.044 250.641 427.532 250.641 425.948 250.665C422.758 250.665 419.284 250.665 415.621 250.688C414.746 250.688 413.895 251.019 413.257 251.609C412.619 252.175 412.217 252.977 412.147 253.803C412.052 254.653 412.17 255.455 412.572 256.163C412.95 256.871 413.588 257.391 414.274 257.674C414.983 257.981 415.739 257.933 416.495 257.933C417.251 257.933 417.984 257.933 418.693 257.933C420.111 257.933 421.411 257.957 422.616 257.957C425.003 257.981 426.917 258.004 428.312 258.004C428.95 258.028 429.47 258.028 429.848 258.028C430.179 258.028 430.368 258.028 430.368 258.051C430.368 258.075 430.179 258.075 429.824 258.075C429.446 258.075 428.926 258.099 428.288 258.099C426.917 258.122 424.979 258.122 422.592 258.146C421.387 258.146 420.064 258.169 418.669 258.169C417.96 258.169 417.228 258.169 416.471 258.169C416.093 258.169 415.715 258.193 415.313 258.169C414.912 258.146 414.51 258.051 414.132 257.91C413.375 257.603 412.69 257.013 412.265 256.258C411.816 255.503 411.698 254.582 411.792 253.709C411.887 252.812 412.336 251.939 413.021 251.302C413.706 250.665 414.652 250.287 415.621 250.287C419.284 250.287 422.782 250.287 425.948 250.311C427.532 250.311 429.044 250.334 430.462 250.334C431.951 250.358 433.204 251.278 433.747 252.387C434.031 252.93 434.173 253.52 434.173 254.087C434.196 254.63 434.126 255.172 433.96 255.621C433.629 256.541 432.991 257.178 432.424 257.532C431.833 257.886 431.313 258.004 430.959 258.051C430.557 258.075 430.368 258.051 430.368 258.051Z" fill="#263238"/>
<path d="M517.125 241.909H497.32C494.602 241.909 492.121 243.419 490.845 245.803C489.805 247.761 489.734 250.098 490.632 252.127L498.407 269.733L518.236 269.544C518.236 269.568 522.443 247.242 517.125 241.909Z" fill="#FAFAFA"/>
<path d="M242.152 239.431L344.319 237.543L410.8 236.316L432.732 223.666C434.504 222.651 434.977 220.291 433.748 218.663L420.088 200.751C418.67 198.886 416.448 197.777 414.108 197.753L339.734 197.14C339.734 197.14 311.729 195.511 289.679 207.854C266.471 220.881 242.152 239.431 242.152 239.431Z" fill="#222222"/>
<path d="M288.97 199.051C288.97 199.051 294.098 201.388 290.766 203.535C287.434 205.706 235.677 238.274 235.677 238.274L223.789 232.894C244.846 221.164 266.14 209.789 288.97 199.051Z" fill="#455A64"/>
<path d="M237.354 239.101C237.354 239.101 237.236 239.124 237.047 239.171C236.81 239.219 236.503 239.289 236.101 239.384C235.251 239.549 234.045 239.809 232.462 240.139C229.295 240.776 224.734 241.649 219.062 242.617C207.718 244.576 191.954 246.841 174.442 248.352C170.07 248.729 165.792 249.036 161.656 249.319C157.521 249.579 153.526 249.839 149.745 250.193C142.182 250.853 135.376 251.963 129.87 253.591C124.339 255.172 120.109 257.202 117.344 258.807C115.926 259.562 114.91 260.293 114.177 260.742C113.822 260.954 113.563 261.143 113.373 261.261C113.184 261.379 113.09 261.426 113.09 261.426C113.09 261.426 113.184 261.355 113.35 261.237C113.539 261.096 113.799 260.931 114.153 260.695C114.862 260.223 115.855 259.467 117.273 258.712C120.038 257.06 124.268 254.983 129.799 253.379C135.329 251.703 142.135 250.57 149.698 249.886C153.479 249.532 157.473 249.272 161.609 248.989C165.745 248.706 170.023 248.399 174.395 248.021C191.883 246.511 207.647 244.269 218.991 242.381C224.663 241.437 229.248 240.587 232.415 240.021C233.974 239.714 235.203 239.502 236.054 239.337C236.456 239.266 236.763 239.219 236.999 239.171C237.236 239.101 237.354 239.101 237.354 239.101Z" fill="#263238"/>
<path d="M525.043 284.766C525.043 284.861 518.236 284.931 509.847 284.931C501.457 284.931 494.65 284.861 494.65 284.766C494.65 284.672 501.457 284.601 509.847 284.601C518.236 284.601 525.043 284.672 525.043 284.766Z" fill="#263238"/>
<path d="M400.471 302.136C400.471 302.23 362.044 302.301 314.635 302.301C267.227 302.301 228.799 302.23 228.799 302.136C228.799 302.042 267.227 301.971 314.635 301.971C362.044 301.947 400.471 302.018 400.471 302.136Z" fill="#263238"/>
<path d="M131.358 285.356C131.358 285.451 125.922 285.522 119.21 285.522C112.498 285.522 107.062 285.451 107.062 285.356C107.062 285.262 112.498 285.191 119.21 285.191C125.922 285.168 131.358 285.262 131.358 285.356Z" fill="#263238"/>
<path d="M484.748 210.804C484.748 210.804 480.187 215.902 481.983 219.654C483.779 223.407 502.308 236.505 502.308 236.505L515.755 239.03L484.748 210.804Z" fill="#455A64"/>
<path d="M356.843 201.695L353.818 234.31L407.962 232.776L429.776 220.103L415.643 201.695H356.843Z" fill="#455A64"/>
<path d="M254.984 235.985C254.984 235.985 287.646 212.432 300.526 207.759C312.957 203.252 319.432 202.119 331.131 201.789C342.286 201.482 349.092 201.789 349.092 201.789L340.466 234.947L254.984 235.985Z" fill="#455A64"/>
<path d="M250.211 236.08C250.211 234.003 251.322 232.115 253.141 231.1L260.633 226.899C262.76 225.696 265.194 225.059 267.629 225.059C269.165 225.059 270.654 225.295 272.072 225.767C275.286 226.805 277.413 229.849 277.531 233.224C277.72 237.897 273.962 241.791 269.283 241.791H255.907C252.763 241.791 250.211 239.242 250.211 236.08Z" fill="#EF6238"/>
<path d="M250.211 236.08C250.234 236.08 250.234 236.339 250.305 236.811C250.376 237.283 250.542 237.968 250.967 238.77C251.416 239.549 252.149 240.422 253.259 241.036C253.827 241.343 254.465 241.555 255.197 241.649C255.906 241.744 256.686 241.697 257.513 241.697C260.775 241.697 264.651 241.673 268.952 241.649C270.015 241.649 271.103 241.531 272.142 241.13C273.182 240.753 274.151 240.139 274.978 239.337C275.806 238.534 276.467 237.543 276.893 236.434C277.318 235.325 277.484 234.121 277.389 232.894C277.2 230.463 275.9 228.221 274.01 226.923C273.064 226.262 272.001 225.885 270.914 225.625C269.826 225.365 268.739 225.247 267.676 225.247C265.549 225.247 263.54 225.719 261.815 226.498C260.94 226.876 260.16 227.371 259.38 227.796C258.601 228.221 257.868 228.646 257.135 229.047C255.717 229.826 254.417 230.557 253.283 231.171C252.149 231.785 251.416 232.658 250.991 233.437C250.565 234.215 250.4 234.923 250.329 235.395C250.211 235.844 250.211 236.08 250.211 236.08C250.211 236.08 250.187 235.82 250.234 235.348C250.282 234.876 250.423 234.168 250.849 233.342C251.274 232.54 252.007 231.619 253.165 230.982C254.299 230.345 255.576 229.613 256.994 228.811C257.703 228.41 258.435 227.985 259.215 227.56C259.995 227.135 260.775 226.64 261.673 226.239C263.422 225.436 265.478 224.941 267.652 224.917C268.739 224.917 269.85 225.035 270.961 225.295C272.072 225.554 273.206 225.932 274.175 226.64C276.16 228.009 277.507 230.345 277.696 232.87C277.791 234.121 277.625 235.395 277.176 236.552C276.751 237.708 276.042 238.723 275.191 239.573C274.34 240.399 273.324 241.036 272.237 241.437C271.174 241.838 270.015 241.98 268.928 241.956C264.627 241.933 260.751 241.933 257.49 241.909C256.686 241.885 255.906 241.933 255.15 241.838C254.417 241.744 253.732 241.508 253.165 241.177C252.007 240.54 251.274 239.62 250.849 238.817C250.423 237.991 250.282 237.283 250.234 236.811C250.163 236.339 250.211 236.08 250.211 236.08Z" fill="#263238"/>
<path d="M501.763 323.117C501.763 323.117 501.763 322.951 501.787 322.645C501.811 322.338 501.834 321.866 501.882 321.299C501.929 320.709 502 319.978 502.023 319.105C502.047 318.231 502.094 317.217 502.118 316.084C502.118 314.951 502.118 313.7 502.094 312.308C502 310.939 502 309.429 501.811 307.824C501.527 304.614 500.983 300.98 499.873 297.086C499.306 295.151 498.644 293.121 497.746 291.115C496.895 289.085 495.808 287.056 494.508 285.05C491.956 281.038 488.363 277.333 484.062 274.147C479.737 270.984 474.632 268.435 469.055 266.76C463.477 265.061 457.404 264.423 451.235 264.4C445.043 264.376 438.993 265.226 433.439 266.996C430.651 267.869 428.004 268.978 425.522 270.253C423.041 271.551 420.772 273.108 418.645 274.737C414.438 278.041 410.893 281.769 408.057 285.593C406.663 287.528 405.528 289.534 404.536 291.493C403.591 293.499 402.763 295.434 402.102 297.369C399.384 305.015 398.533 311.6 398.249 316.107C398.131 318.373 398.155 320.143 398.202 321.323C398.226 321.913 398.273 322.361 398.273 322.668C398.297 322.975 398.297 323.14 398.297 323.14C398.297 323.14 398.273 322.975 398.249 322.668C398.226 322.361 398.179 321.889 398.131 321.323C398.06 320.119 398.013 318.373 398.108 316.084C398.368 311.553 399.195 304.968 401.865 297.275C402.503 295.339 403.354 293.381 404.3 291.375C405.292 289.392 406.427 287.363 407.821 285.427C410.657 281.581 414.226 277.828 418.456 274.501C420.583 272.849 422.875 271.291 425.38 269.969C427.886 268.671 430.556 267.562 433.345 266.665C438.946 264.895 445.02 264.046 451.235 264.069C457.451 264.117 463.548 264.73 469.173 266.453C474.798 268.152 479.926 270.701 484.275 273.911C486.449 275.515 488.434 277.238 490.183 279.103C491.956 280.943 493.515 282.902 494.768 284.932C496.068 286.961 497.155 288.991 498.006 291.044C498.904 293.074 499.542 295.103 500.133 297.062C501.243 300.98 501.763 304.638 502.023 307.847C502.212 309.452 502.189 310.963 502.283 312.331C502.283 313.724 502.283 314.975 502.283 316.107C502.236 317.24 502.189 318.255 502.142 319.128C502.094 320.001 502 320.733 501.952 321.323C501.905 321.913 501.858 322.361 501.834 322.668C501.811 322.951 501.763 323.117 501.763 323.117Z" fill="white"/>
<path d="M339.026 239.431C339.026 239.431 338.978 239.454 338.86 239.454C338.742 239.454 338.576 239.454 338.411 239.478C337.986 239.478 337.395 239.502 336.662 239.525C335.126 239.549 332.928 239.596 330.258 239.643C324.846 239.738 317.354 239.95 309.106 240.162C300.834 240.398 293.342 240.54 287.93 240.587C285.212 240.611 283.038 240.611 281.502 240.587C280.769 240.587 280.179 240.564 279.753 240.564C279.564 240.564 279.422 240.564 279.304 240.54C279.21 240.54 279.139 240.54 279.139 240.516C279.139 240.516 279.186 240.493 279.304 240.493C279.422 240.493 279.588 240.493 279.753 240.469C280.179 240.469 280.769 240.446 281.502 240.422C283.038 240.398 285.236 240.351 287.907 240.304C293.319 240.21 300.81 239.997 309.082 239.785C317.354 239.549 324.822 239.407 330.258 239.36C332.975 239.336 335.15 239.336 336.686 239.36C337.418 239.36 338.009 239.384 338.435 239.384C338.624 239.384 338.766 239.384 338.884 239.407C338.955 239.407 339.026 239.431 339.026 239.431Z" fill="white"/>
<path d="M330.138 249.485C330.138 249.579 327.515 249.65 324.277 249.65C321.039 249.65 318.416 249.579 318.416 249.485C318.416 249.39 321.039 249.319 324.277 249.319C327.515 249.296 330.138 249.367 330.138 249.485Z" fill="white"/>
<path d="M332.29 213.73C332.337 213.825 325.058 216.845 316.054 220.48C307.05 224.114 299.7 226.993 299.676 226.923C299.629 226.828 306.908 223.807 315.936 220.173C324.94 216.515 332.266 213.636 332.29 213.73Z" fill="white"/>
<path d="M317.566 216.019C317.614 216.114 310.689 219.158 302.087 222.816C293.508 226.498 286.512 229.401 286.489 229.306C286.441 229.212 293.366 226.167 301.968 222.509C310.524 218.828 317.519 215.925 317.566 216.019Z" fill="white"/>
<path d="M411.034 212.456C411.081 212.55 403.802 215.571 394.798 219.205C385.794 222.84 378.444 225.719 378.42 225.648C378.373 225.554 385.652 222.533 394.68 218.899C403.661 215.264 411.011 212.385 411.034 212.456Z" fill="white"/>
<path d="M396.289 214.745C396.336 214.84 389.412 217.884 380.809 221.542C372.23 225.224 365.235 228.127 365.211 228.032C365.164 227.938 372.088 224.893 380.691 221.235C389.27 217.554 396.265 214.651 396.289 214.745Z" fill="white"/>
<path d="M412.453 239.431C412.453 239.525 397.99 239.69 380.147 239.808C362.303 239.926 347.84 239.926 347.84 239.832C347.84 239.738 362.303 239.572 380.147 239.454C397.99 239.336 412.453 239.336 412.453 239.431Z" fill="white"/>
<path d="M428.476 248.918C428.476 249.012 424.411 249.13 419.425 249.178C414.415 249.225 410.35 249.178 410.35 249.083C410.35 248.989 414.415 248.871 419.401 248.824C424.411 248.776 428.476 248.824 428.476 248.918Z" fill="white"/>
<path d="M151.471 243.986C151.471 244.009 151.329 244.033 151.069 244.056C150.762 244.104 150.407 244.151 149.934 244.198C149.438 244.245 148.847 244.34 148.138 244.434C147.453 244.552 146.649 244.646 145.775 244.812C144.026 245.118 141.97 245.567 139.701 246.18C137.432 246.818 134.998 247.596 132.469 248.564C129.964 249.555 127.624 250.641 125.545 251.726C123.465 252.812 121.645 253.898 120.156 254.842C119.4 255.314 118.738 255.762 118.171 256.163C117.58 256.541 117.084 256.895 116.682 257.202C116.304 257.461 115.997 257.697 115.761 257.862C115.548 258.004 115.43 258.075 115.43 258.075C115.43 258.075 115.524 257.98 115.737 257.815C115.973 257.626 116.257 257.39 116.635 257.107C117.013 256.8 117.509 256.423 118.077 256.022C118.644 255.62 119.306 255.125 120.038 254.653C121.503 253.662 123.323 252.576 125.403 251.443C127.483 250.358 129.822 249.248 132.351 248.234C134.88 247.242 137.361 246.464 139.63 245.85C141.899 245.26 143.979 244.835 145.751 244.552C146.626 244.387 147.429 244.316 148.138 244.222C148.847 244.127 149.438 244.08 149.934 244.033C150.407 244.009 150.785 243.962 151.069 243.938C151.329 243.962 151.471 243.962 151.471 243.986Z" fill="white"/>
<path d="M270.913 228.221C270.89 228.245 270.724 227.961 270.275 227.607C269.826 227.253 269.07 226.852 268.054 226.711C267.037 226.569 265.809 226.758 264.485 227.088C263.162 227.419 261.72 227.891 260.278 228.528C257.371 229.779 255.008 231.431 253.425 232.776C251.841 234.121 250.99 235.089 250.943 235.041C250.92 235.018 251.132 234.782 251.51 234.333C251.889 233.909 252.479 233.295 253.259 232.587C254.795 231.195 257.182 229.472 260.137 228.197C261.602 227.56 263.067 227.088 264.414 226.781C265.761 226.451 267.037 226.286 268.101 226.475C269.164 226.64 269.944 227.112 270.37 227.513C270.583 227.725 270.724 227.891 270.819 228.032C270.89 228.127 270.913 228.221 270.913 228.221Z" fill="white"/>
<path d="M486.259 210.568C486.259 210.568 485.267 210.875 483.423 210.851C482.502 210.827 481.367 210.709 480.091 210.45C478.815 210.167 477.373 209.718 475.837 209.128C474.301 208.538 472.647 207.807 470.874 207.051C469.976 206.697 469.054 206.32 468.109 205.942C467.164 205.565 466.147 205.234 465.131 204.857C461.019 203.441 456.41 202.19 451.495 201.151C441.663 199.098 432.588 198.249 426.018 197.989C424.364 197.895 422.898 197.895 421.575 197.871C420.275 197.871 419.141 197.871 418.219 197.871C417.321 197.895 416.612 197.918 416.092 197.918C415.856 197.918 415.69 197.918 415.548 197.918C415.43 197.918 415.359 197.918 415.359 197.918C415.359 197.918 415.43 197.895 415.548 197.895C415.69 197.895 415.879 197.871 416.092 197.847C416.612 197.824 417.321 197.777 418.219 197.729C419.141 197.706 420.275 197.682 421.575 197.659C422.875 197.682 424.364 197.659 426.018 197.729C432.612 197.918 441.711 198.744 451.566 200.797C456.481 201.836 461.114 203.11 465.226 204.55C466.242 204.927 467.258 205.258 468.227 205.635C469.172 206.037 470.118 206.414 471.016 206.768C472.788 207.547 474.419 208.279 475.955 208.892C477.491 209.482 478.886 209.954 480.162 210.237C481.438 210.544 482.549 210.662 483.471 210.709C484.392 210.733 485.101 210.686 485.574 210.639C485.787 210.615 485.976 210.591 486.118 210.568C486.188 210.568 486.259 210.568 486.259 210.568Z" fill="#263238"/>
<path d="M346.222 45.0745C345.419 61.9957 334.169 72.5213 334.169 72.5213C334.169 72.5213 320.816 61.9957 320.013 45.0745C319.682 37.8529 325.874 32.0001 333.106 32.0001C340.361 31.9765 346.553 37.8529 346.222 45.0745Z" fill="#EF6238" stroke="#EF6238" stroke-width="0.2913" stroke-miterlimit="10"/>
<path d="M341.043 44.1776C341.043 48.6321 337.426 52.2444 332.964 52.2444C328.501 52.2444 324.885 48.6321 324.885 44.1776C324.885 39.7231 328.501 36.1108 332.964 36.1108C337.426 36.1108 341.043 39.7231 341.043 44.1776Z" fill="#E8F5F9" stroke="#EF6238"/>
<path d="M575.224 112.074C574.42 128.996 563.171 139.521 563.171 139.521C563.171 139.521 549.818 128.996 549.014 112.074C548.66 104.853 554.876 99 562.107 99C569.363 99 575.578 104.876 575.224 112.074Z" fill="#EF6238" stroke="#EF6238" stroke-width="0.2913" stroke-miterlimit="10"/>
<path d="M570.045 111.178C570.045 115.632 566.428 119.244 561.966 119.244C557.503 119.244 553.887 115.632 553.887 111.178C553.887 106.723 557.503 103.111 561.966 103.111C566.428 103.111 570.045 106.723 570.045 111.178Z" fill="#E8F5F9" stroke="#EF6238"/>
<path d="M112.224 50.0744C111.42 66.9956 100.171 77.5212 100.171 77.5212C100.171 77.5212 86.818 66.9956 86.0145 50.0744C85.66 42.8528 91.8755 37 99.1073 37C106.363 37 112.578 42.8764 112.224 50.0744Z" fill="#EF6238" stroke="#EF6238" stroke-width="0.2913" stroke-miterlimit="10"/>
<path d="M98.9656 57.7679C103.704 57.7679 107.545 53.9324 107.545 49.2011C107.545 44.4698 103.704 40.6343 98.9656 40.6343C94.2276 40.6343 90.3867 44.4698 90.3867 49.2011C90.3867 53.9324 94.2276 57.7679 98.9656 57.7679Z" fill="#E8F5F9"/>
<path d="M4.83432 59.6591C4.74609 59.6591 4.65786 59.637 4.56963 59.593C3.13589 58.9102 2.34182 58.5357 2.34182 58.5357C2.03301 58.3815 1.92273 58.0071 2.05507 57.7207C2.20947 57.4124 2.56239 57.3022 2.8712 57.4344C2.8712 57.4344 3.64322 57.8088 5.07696 58.4917C5.38576 58.6458 5.51811 58.9983 5.36371 59.3066C5.27548 59.5269 5.0549 59.6591 4.83432 59.6591Z" fill="#2897B6"/>
<path d="M574.868 152.941C574.14 152.941 573.412 152.919 572.684 152.875C572.353 152.853 572.089 152.567 572.111 152.236C572.133 151.906 572.42 151.641 572.751 151.663C574.361 151.752 575.971 151.73 577.581 151.619C577.934 151.597 578.221 151.84 578.243 152.192C578.265 152.522 578.022 152.831 577.669 152.853C576.743 152.919 575.794 152.941 574.868 152.941ZM567.854 152.302C567.81 152.302 567.788 152.302 567.743 152.302C566.133 152.016 564.501 151.597 562.891 151.091C562.56 150.981 562.383 150.65 562.494 150.32C562.604 149.989 562.935 149.813 563.266 149.923C564.832 150.408 566.398 150.804 567.964 151.091C568.295 151.157 568.516 151.465 568.449 151.796C568.405 152.104 568.14 152.302 567.854 152.302ZM582.5 152.192C582.213 152.192 581.949 151.994 581.904 151.707C581.838 151.377 582.059 151.047 582.39 150.981C583.934 150.672 585.522 150.276 587.088 149.769C587.419 149.659 587.75 149.835 587.86 150.166C587.97 150.496 587.794 150.826 587.463 150.937C585.853 151.443 584.242 151.862 582.632 152.17C582.588 152.192 582.544 152.192 582.5 152.192ZM558.457 149.439C558.369 149.439 558.303 149.417 558.215 149.395C556.715 148.778 555.215 148.095 553.715 147.346C553.406 147.192 553.296 146.818 553.45 146.531C553.605 146.223 553.98 146.113 554.266 146.267C555.722 146.994 557.2 147.677 558.678 148.271C558.987 148.404 559.141 148.756 559.009 149.064C558.92 149.285 558.7 149.439 558.457 149.439ZM591.852 149.241C591.61 149.241 591.389 149.108 591.279 148.866C591.147 148.558 591.279 148.205 591.588 148.051C593.043 147.412 594.499 146.707 595.955 145.915C596.242 145.76 596.617 145.87 596.793 146.157C596.948 146.443 596.837 146.818 596.551 146.994C595.073 147.809 593.573 148.536 592.095 149.174C592.029 149.241 591.941 149.241 591.852 149.241ZM549.7 145.055C549.59 145.055 549.48 145.033 549.392 144.967C548.002 144.152 546.59 143.249 545.223 142.324C544.936 142.126 544.87 141.752 545.068 141.465C545.267 141.179 545.642 141.113 545.929 141.311C547.296 142.236 548.686 143.117 550.031 143.91C550.318 144.086 550.428 144.461 550.252 144.747C550.119 144.945 549.899 145.055 549.7 145.055ZM600.477 144.571C600.278 144.571 600.08 144.483 599.97 144.285C599.793 143.998 599.859 143.624 600.146 143.426C601.469 142.567 602.815 141.619 604.138 140.606C604.403 140.408 604.8 140.452 604.999 140.716C605.197 140.981 605.153 141.377 604.888 141.575C603.543 142.589 602.175 143.558 600.83 144.439C600.719 144.527 600.609 144.571 600.477 144.571ZM305.413 143.249C305.082 143.249 304.795 142.985 304.795 142.633C304.795 142.302 305.06 142.016 305.413 142.016C306.979 142.016 308.611 141.906 310.243 141.685C310.574 141.641 310.883 141.884 310.927 142.214C310.971 142.544 310.729 142.853 310.398 142.897C308.699 143.117 307.023 143.227 305.413 143.249ZM300.494 142.963C300.472 142.963 300.45 142.963 300.406 142.963C298.729 142.743 297.097 142.412 295.509 141.972C295.178 141.884 295.002 141.553 295.09 141.223C295.178 140.892 295.531 140.716 295.84 140.804C297.362 141.223 298.95 141.553 300.56 141.752C300.891 141.796 301.134 142.104 301.09 142.434C301.068 142.743 300.803 142.963 300.494 142.963ZM315.14 142.038C314.853 142.038 314.611 141.84 314.545 141.575C314.456 141.245 314.677 140.915 315.008 140.848C316.552 140.496 318.118 140.033 319.684 139.505C320.015 139.395 320.346 139.571 320.456 139.901C320.566 140.232 320.39 140.562 320.059 140.672C318.449 141.201 316.861 141.663 315.273 142.038C315.228 142.038 315.184 142.038 315.14 142.038ZM291.075 140.32C290.987 140.32 290.899 140.298 290.833 140.276C289.311 139.593 287.833 138.778 286.443 137.853C286.157 137.677 286.09 137.28 286.267 136.994C286.443 136.707 286.84 136.641 287.127 136.818C288.451 137.699 289.884 138.47 291.34 139.13C291.649 139.263 291.781 139.637 291.649 139.945C291.539 140.188 291.296 140.32 291.075 140.32ZM541.561 139.571C541.429 139.571 541.296 139.527 541.186 139.439C539.907 138.47 538.605 137.434 537.326 136.355C537.061 136.135 537.039 135.76 537.26 135.496C537.48 135.232 537.855 135.21 538.12 135.43C539.399 136.487 540.679 137.522 541.936 138.47C542.201 138.668 542.267 139.064 542.046 139.329C541.936 139.483 541.76 139.571 541.561 139.571ZM324.449 138.932C324.206 138.932 323.985 138.8 323.875 138.558C323.743 138.249 323.897 137.897 324.206 137.743C324.801 137.478 325.419 137.214 326.037 136.928C326.787 136.575 327.559 136.091 328.353 135.474C328.617 135.276 329.014 135.32 329.213 135.584C329.434 135.848 329.367 136.245 329.103 136.443C328.242 137.126 327.382 137.655 326.544 138.051C325.926 138.337 325.309 138.624 324.691 138.888C324.625 138.91 324.537 138.932 324.449 138.932ZM608.329 138.646C608.153 138.646 607.976 138.58 607.866 138.426C607.646 138.161 607.668 137.787 607.932 137.566C609.146 136.531 610.359 135.43 611.55 134.285C611.792 134.042 612.189 134.064 612.41 134.307C612.653 134.549 612.631 134.945 612.388 135.166C611.175 136.311 609.94 137.434 608.726 138.492C608.616 138.58 608.462 138.646 608.329 138.646ZM282.914 134.923C282.76 134.923 282.627 134.879 282.495 134.769C281.26 133.646 280.113 132.412 279.076 131.113C278.856 130.848 278.9 130.452 279.164 130.254C279.429 130.033 279.826 130.077 280.025 130.342C281.017 131.597 282.12 132.787 283.311 133.866C283.554 134.086 283.576 134.483 283.355 134.725C283.245 134.857 283.069 134.923 282.914 134.923ZM534.017 133.271C533.863 133.271 533.731 133.227 533.598 133.117C532.429 132.06 531.216 130.914 530.003 129.747C529.76 129.505 529.76 129.13 529.981 128.888C530.224 128.646 530.599 128.646 530.841 128.866C532.054 130.033 533.245 131.157 534.414 132.214C534.657 132.434 534.679 132.831 534.459 133.073C534.348 133.205 534.194 133.271 534.017 133.271ZM332.235 133.139C332.103 133.139 331.948 133.095 331.838 132.985C331.573 132.765 331.551 132.368 331.772 132.126C332.698 131.025 333.691 129.725 334.727 128.271C334.926 127.985 335.301 127.919 335.588 128.117C335.874 128.315 335.941 128.69 335.742 128.976C334.683 130.496 333.691 131.796 332.72 132.919C332.566 133.051 332.389 133.139 332.235 133.139ZM615.454 131.862C615.3 131.862 615.145 131.796 615.035 131.685C614.792 131.443 614.77 131.069 615.013 130.826C616.116 129.659 617.219 128.448 618.299 127.214C618.52 126.95 618.917 126.928 619.16 127.148C619.424 127.368 619.446 127.765 619.226 128.007C618.123 129.263 617.02 130.496 615.895 131.663C615.763 131.796 615.608 131.862 615.454 131.862ZM276.804 127.28C276.584 127.28 276.385 127.17 276.275 126.972C275.459 125.518 274.731 123.998 274.135 122.456C274.025 122.148 274.179 121.796 274.488 121.663C274.797 121.553 275.15 121.707 275.282 122.016C275.856 123.514 276.54 124.967 277.334 126.355C277.51 126.641 277.4 127.016 277.113 127.192C277.003 127.258 276.914 127.28 276.804 127.28ZM526.959 126.443C526.805 126.443 526.65 126.377 526.518 126.267C525.415 125.144 524.268 123.932 523.099 122.699C522.856 122.456 522.878 122.06 523.121 121.84C523.364 121.619 523.761 121.619 523.981 121.862C525.128 123.095 526.275 124.285 527.378 125.408C527.621 125.65 527.621 126.047 527.378 126.267C527.268 126.399 527.113 126.443 526.959 126.443ZM337.926 125.122C337.815 125.122 337.705 125.1 337.595 125.033C337.308 124.857 337.22 124.483 337.396 124.196C338.19 122.919 339.029 121.531 339.911 119.989C340.087 119.703 340.462 119.593 340.749 119.769C341.036 119.945 341.146 120.32 340.97 120.606C340.065 122.17 339.227 123.536 338.433 124.835C338.323 125.011 338.124 125.122 337.926 125.122ZM621.917 124.439C621.784 124.439 621.652 124.395 621.542 124.307C621.277 124.086 621.233 123.712 621.454 123.448C622.468 122.192 623.483 120.892 624.453 119.571C624.652 119.307 625.049 119.24 625.314 119.439C625.578 119.637 625.645 120.033 625.446 120.298C624.453 121.619 623.439 122.941 622.424 124.196C622.27 124.373 622.093 124.439 621.917 124.439ZM287.701 119.681C286.642 119.681 285.539 119.637 284.392 119.571C284.061 119.549 283.796 119.263 283.818 118.91C283.841 118.58 284.127 118.315 284.48 118.337C286.201 118.448 287.833 118.492 289.333 118.426C289.664 118.426 289.951 118.668 289.973 119.02C289.995 119.351 289.73 119.637 289.377 119.659C288.826 119.659 288.274 119.681 287.701 119.681ZM520.209 119.285C520.033 119.285 519.879 119.218 519.746 119.086C518.643 117.875 517.562 116.663 516.46 115.43C516.239 115.188 516.261 114.791 516.504 114.571C516.746 114.351 517.143 114.373 517.364 114.615C518.445 115.848 519.548 117.06 520.651 118.271C520.871 118.514 520.849 118.91 520.606 119.13C520.518 119.24 520.364 119.285 520.209 119.285ZM294.208 119.064C293.921 119.064 293.678 118.866 293.612 118.58C293.546 118.249 293.744 117.919 294.097 117.853C295.752 117.5 297.252 116.994 298.597 116.355C298.906 116.201 299.259 116.333 299.413 116.641C299.568 116.95 299.435 117.302 299.126 117.456C297.693 118.139 296.083 118.69 294.34 119.042C294.296 119.064 294.252 119.064 294.208 119.064ZM279.539 119.02C279.517 119.02 279.473 119.02 279.451 119.02C277.907 118.8 276.253 118.492 274.576 118.139C274.246 118.073 274.025 117.743 274.091 117.412C274.157 117.082 274.488 116.862 274.819 116.928C276.473 117.28 278.084 117.566 279.628 117.787C279.958 117.831 280.201 118.139 280.135 118.492C280.091 118.8 279.826 119.02 279.539 119.02ZM273.319 118.139C273.032 118.139 272.79 117.941 272.724 117.655C272.371 116.003 272.172 114.351 272.106 112.699C272.084 112.368 272.349 112.082 272.702 112.06C273.032 112.06 273.319 112.302 273.341 112.655C273.407 114.24 273.606 115.848 273.937 117.412C274.003 117.743 273.804 118.073 273.451 118.139C273.407 118.139 273.363 118.139 273.319 118.139ZM342.889 116.619C342.778 116.619 342.69 116.597 342.58 116.531C342.293 116.377 342.183 116.003 342.337 115.694C343.109 114.285 343.903 112.853 344.719 111.399C344.874 111.091 345.249 111.003 345.558 111.157C345.866 111.311 345.955 111.685 345.8 111.994C345.006 113.47 344.212 114.901 343.418 116.311C343.308 116.509 343.109 116.619 342.889 116.619ZM270.143 116.575C269.988 116.575 269.856 116.531 269.746 116.421C268.797 115.584 267.827 114.24 266.746 112.302C266.592 112.016 266.702 111.641 266.989 111.465C267.297 111.311 267.65 111.421 267.827 111.707C268.819 113.514 269.724 114.747 270.562 115.496C270.827 115.716 270.849 116.113 270.606 116.355C270.474 116.509 270.319 116.575 270.143 116.575ZM627.784 116.575C627.674 116.575 627.542 116.531 627.431 116.465C627.144 116.267 627.078 115.892 627.277 115.606C628.203 114.263 629.108 112.897 629.99 111.531C630.166 111.245 630.541 111.157 630.828 111.355C631.115 111.531 631.203 111.906 631.005 112.192C630.122 113.558 629.196 114.945 628.269 116.311C628.181 116.465 627.983 116.575 627.784 116.575ZM302.898 114.769C302.722 114.769 302.567 114.703 302.457 114.571C302.237 114.329 302.237 113.932 302.501 113.712C303.803 112.522 304.773 111.245 305.633 110.122L306.626 110.848C305.722 112.038 304.707 113.359 303.317 114.615C303.207 114.725 303.053 114.769 302.898 114.769ZM513.68 111.928C513.504 111.928 513.349 111.862 513.217 111.707C512.136 110.474 511.056 109.24 509.975 108.007C509.754 107.743 509.776 107.368 510.041 107.148C510.306 106.928 510.681 106.95 510.901 107.214C511.982 108.448 513.063 109.681 514.122 110.914C514.342 111.179 514.32 111.553 514.055 111.774C513.967 111.884 513.835 111.928 513.68 111.928ZM272.922 108.381C272.9 108.381 272.878 108.381 272.834 108.381C272.503 108.337 272.26 108.029 272.304 107.699C272.525 106.025 272.9 104.373 273.407 102.809C273.518 102.478 273.871 102.302 274.179 102.412C274.51 102.522 274.687 102.875 274.576 103.183C274.091 104.681 273.738 106.245 273.518 107.853C273.496 108.161 273.231 108.381 272.922 108.381ZM265.114 108.205C264.871 108.205 264.65 108.073 264.562 107.853C264.011 106.619 263.415 105.232 262.599 103.315C262.467 103.007 262.621 102.655 262.93 102.522C263.239 102.39 263.614 102.544 263.724 102.853C264.518 104.747 265.136 106.135 265.665 107.346C265.797 107.655 265.665 108.007 265.356 108.161C265.29 108.183 265.202 108.205 265.114 108.205ZM347.609 107.985C347.521 107.985 347.41 107.963 347.322 107.919C347.013 107.765 346.903 107.39 347.08 107.082C347.852 105.65 348.646 104.218 349.44 102.765C349.594 102.456 349.969 102.368 350.278 102.522C350.565 102.677 350.675 103.051 350.521 103.359C349.727 104.813 348.954 106.245 348.16 107.677C348.028 107.875 347.83 107.985 347.609 107.985ZM309.207 107.258C309.096 107.258 308.986 107.236 308.898 107.17C308.611 106.994 308.501 106.619 308.677 106.333C309.405 105.077 309.802 103.58 309.868 101.928C309.891 101.597 310.155 101.333 310.508 101.333C310.839 101.355 311.104 101.619 311.104 101.972C311.038 103.844 310.574 105.518 309.736 106.95C309.626 107.148 309.405 107.258 309.207 107.258ZM507.217 104.527C507.041 104.527 506.887 104.461 506.754 104.307C505.673 103.073 504.593 101.84 503.512 100.606C503.291 100.342 503.313 99.9673 503.556 99.7471C503.799 99.5268 504.196 99.5488 504.416 99.7911C505.497 101.025 506.6 102.258 507.659 103.492C507.879 103.756 507.857 104.13 507.592 104.351C507.526 104.483 507.372 104.527 507.217 104.527ZM352.329 99.3506C352.219 99.3506 352.131 99.3286 352.021 99.2625C351.734 99.1083 351.623 98.7339 351.778 98.4255C352.572 96.9938 353.388 95.562 354.204 94.1303C354.381 93.844 354.756 93.7339 355.042 93.9101C355.329 94.0863 355.439 94.4607 355.263 94.7471C354.447 96.1568 353.631 97.5885 352.837 99.0202C352.77 99.2405 352.55 99.3506 352.329 99.3506ZM261.276 99.1524C261.033 99.1524 260.812 99.0202 260.702 98.7779C260.085 97.3242 259.445 95.8043 258.783 94.2625C258.651 93.9541 258.783 93.6017 259.114 93.4475C259.423 93.3153 259.776 93.4475 259.93 93.7779C260.592 95.3418 261.232 96.8396 261.849 98.3154C261.982 98.6237 261.827 98.9761 261.518 99.1083C261.43 99.1303 261.342 99.1524 261.276 99.1524ZM275.988 99.1083C275.878 99.1083 275.79 99.0863 275.679 99.0202C275.393 98.844 275.282 98.4695 275.437 98.1832C276.253 96.7294 277.223 95.3418 278.326 94.0642C278.547 93.7999 278.944 93.7779 279.186 93.9982C279.451 94.2184 279.473 94.6149 279.253 94.8572C278.216 96.0687 277.289 97.3902 276.495 98.7559C276.407 98.9982 276.187 99.1083 275.988 99.1083ZM309.78 97.7206C309.516 97.7206 309.273 97.5444 309.185 97.2801C308.721 95.7823 308.06 94.3506 307.199 92.9629C307.023 92.6766 307.111 92.3021 307.398 92.1259C307.685 91.9497 308.06 92.0378 308.236 92.3242C309.141 93.7779 309.868 95.3197 310.354 96.9277C310.442 97.2581 310.266 97.5885 309.957 97.6986C309.913 97.7206 309.846 97.7206 309.78 97.7206ZM500.711 97.1479C500.534 97.1479 500.38 97.0819 500.247 96.9497C499.144 95.7383 498.042 94.5268 496.939 93.3153C496.718 93.0731 496.718 92.6766 496.983 92.4563C497.225 92.236 497.622 92.236 497.843 92.5004C498.968 93.7118 500.071 94.9233 501.174 96.1347C501.394 96.377 501.372 96.7735 501.13 96.9938C500.997 97.1039 500.843 97.1479 500.711 97.1479ZM282.363 91.7294C282.186 91.7294 282.01 91.6413 281.877 91.4872C281.679 91.2228 281.723 90.8264 281.988 90.6281C283.267 89.6149 284.679 88.6898 286.201 87.8968C286.51 87.7426 286.862 87.8528 287.039 88.1391C287.193 88.4475 287.083 88.7999 286.796 88.9761C285.363 89.7471 283.995 90.6281 282.782 91.5973C282.627 91.6854 282.495 91.7294 282.363 91.7294ZM357.248 90.8264C357.138 90.8264 357.028 90.8043 356.939 90.7383C356.653 90.562 356.564 90.1876 356.719 89.9012C357.601 88.4475 358.461 87.0378 359.299 85.6942C359.476 85.4078 359.851 85.3197 360.138 85.496C360.424 85.6722 360.513 86.0466 360.336 86.333C359.498 87.6545 358.638 89.0642 357.755 90.518C357.667 90.7162 357.469 90.8264 357.248 90.8264ZM257.349 90.1215C257.107 90.1215 256.886 89.9893 256.798 89.7691C256.092 88.2272 255.386 86.7294 254.702 85.3418C254.548 85.0334 254.68 84.681 254.989 84.5268C255.298 84.3726 255.651 84.5048 255.805 84.8131C256.489 86.2228 257.195 87.7206 257.901 89.2845C258.033 89.5929 257.901 89.9453 257.592 90.0995C257.526 90.0995 257.438 90.1215 257.349 90.1215ZM494.027 89.9233C493.873 89.9233 493.696 89.8572 493.586 89.725C492.417 88.4916 491.248 87.3242 490.167 86.2228C489.924 85.9805 489.924 85.5841 490.167 85.3638C490.41 85.1215 490.785 85.1215 491.027 85.3638C492.13 86.4651 493.299 87.6545 494.468 88.888C494.711 89.1303 494.689 89.5268 494.446 89.7471C494.314 89.8792 494.159 89.9233 494.027 89.9233ZM304.619 89.4827C304.464 89.4827 304.332 89.4387 304.2 89.3286C302.987 88.2052 301.663 87.3462 300.273 86.7735C299.965 86.6413 299.81 86.2889 299.943 85.9805C300.075 85.6722 300.428 85.518 300.737 85.6501C302.237 86.2889 303.692 87.214 305.016 88.4255C305.258 88.6457 305.281 89.0422 305.06 89.2845C304.95 89.4167 304.795 89.4827 304.619 89.4827ZM103.652 87.0819C103.321 87.0819 103.057 86.8175 103.035 86.4871C103.035 86.1567 103.299 85.8704 103.63 85.8484H103.851C105.373 85.8043 106.939 85.6942 108.461 85.518C108.792 85.4739 109.101 85.7162 109.145 86.0686C109.189 86.399 108.946 86.7074 108.593 86.7515C107.027 86.9277 105.439 87.0378 103.873 87.0819H103.652C103.674 87.0819 103.674 87.0819 103.652 87.0819ZM98.7335 87.0819C97.1233 87.0378 95.4469 86.9497 93.7705 86.8175C93.4397 86.7955 93.175 86.4871 93.197 86.1567C93.2191 85.8264 93.5058 85.562 93.8587 85.5841C95.5131 85.7162 97.1674 85.8043 98.7335 85.8484C99.0643 85.8484 99.329 86.1347 99.329 86.4871C99.3511 86.8175 99.0643 87.0819 98.7335 87.0819ZM290.965 87.0819C290.723 87.0819 290.48 86.9277 290.392 86.6634C290.281 86.355 290.436 86.0026 290.767 85.8704C291.561 85.5841 292.377 85.3418 293.193 85.0995C294.009 84.8792 294.869 84.725 295.708 84.681C296.038 84.659 296.325 84.9233 296.347 85.2537C296.369 85.5841 296.105 85.8704 295.774 85.8924C295.024 85.9365 294.274 86.0466 293.546 86.2669C292.752 86.4871 291.958 86.7515 291.186 87.0158C291.098 87.0598 291.031 87.0819 290.965 87.0819ZM88.9399 86.355C88.9179 86.355 88.8958 86.355 88.8737 86.355C87.2856 86.1788 85.6313 85.9585 83.977 85.6942C83.6461 85.6501 83.4035 85.3418 83.4696 84.9894C83.5137 84.659 83.8226 84.4167 84.1755 84.4827C85.8077 84.725 87.4621 84.9453 89.0281 85.1215C89.359 85.1656 89.6016 85.4739 89.5575 85.8043C89.5134 86.1347 89.2487 86.355 88.9399 86.355ZM113.402 86.0246C113.115 86.0246 112.85 85.8263 112.806 85.518C112.74 85.1876 112.961 84.8572 113.291 84.7911C114.858 84.5048 116.446 84.1303 118.034 83.7118C118.365 83.6237 118.696 83.8219 118.784 84.1523C118.872 84.4827 118.674 84.8131 118.343 84.9012C116.732 85.3197 115.1 85.6942 113.512 86.0026C113.49 86.0246 113.446 86.0246 113.402 86.0246ZM79.2125 84.9012C79.1684 84.9012 79.1464 84.9012 79.1022 84.9012C77.5141 84.6149 75.9039 84.2845 74.2496 83.9541C73.9187 83.888 73.6981 83.5576 73.7643 83.2272C73.8305 82.8968 74.1613 82.6766 74.4922 82.7426C76.1245 83.073 77.7347 83.4034 79.3008 83.6898C79.6316 83.7559 79.8522 84.0642 79.786 84.3946C79.7419 84.681 79.4993 84.9012 79.2125 84.9012ZM122.909 83.5356C122.644 83.5356 122.401 83.3814 122.335 83.1171C122.225 82.7867 122.401 82.4563 122.732 82.3462C124.232 81.8396 125.776 81.2889 127.32 80.6722C127.629 80.54 127.982 80.6942 128.114 81.0246C128.246 81.333 128.092 81.6854 127.761 81.8175C126.195 82.4343 124.629 83.007 123.107 83.5136C123.041 83.5356 122.975 83.5356 122.909 83.5356ZM487.057 83.007C486.902 83.007 486.748 82.9409 486.638 82.8307C485.425 81.6854 484.211 80.584 483.042 79.5268C482.8 79.3065 482.778 78.91 482.998 78.6678C483.219 78.4255 483.616 78.4034 483.859 78.6237C485.05 79.681 486.263 80.8043 487.476 81.9497C487.719 82.192 487.741 82.5664 487.498 82.8087C487.388 82.9409 487.211 83.007 487.057 83.007ZM69.5734 82.8748C69.5293 82.8748 69.4851 82.8748 69.441 82.8528C67.8749 82.4783 66.2647 82.0819 64.6545 81.6633C64.3237 81.5752 64.1251 81.2449 64.2134 80.9145C64.3016 80.5841 64.6325 80.3858 64.9633 80.4739C66.5735 80.8924 68.1617 81.2889 69.7278 81.6413C70.0586 81.7294 70.2572 82.0378 70.191 82.3682C70.1028 82.6986 69.8381 82.8748 69.5734 82.8748ZM362.52 82.5224C362.41 82.5224 362.277 82.4783 362.167 82.4123C361.88 82.214 361.814 81.8396 362.013 81.5532C362.961 80.1435 363.932 78.7779 364.858 77.5224C365.056 77.2581 365.431 77.192 365.718 77.3902C365.983 77.5885 366.049 77.9849 365.851 78.2492C364.924 79.5048 363.976 80.8484 363.027 82.2581C362.917 82.4343 362.718 82.5224 362.52 82.5224ZM253.026 81.2889C252.806 81.2889 252.585 81.1788 252.475 80.9585C251.681 79.4827 250.887 78.051 250.092 76.6854C249.916 76.399 250.026 76.0246 250.313 75.8484C250.6 75.6722 250.975 75.7823 251.151 76.0686C251.945 77.4343 252.761 78.888 253.556 80.3858C253.71 80.6942 253.6 81.0466 253.291 81.2228C253.225 81.2448 253.136 81.2889 253.026 81.2889ZM60.0445 80.4299C60.0004 80.4299 59.9342 80.4299 59.8901 80.4078C58.3461 79.9673 56.7359 79.5268 55.1477 79.0422C54.8169 78.9541 54.6404 78.6017 54.7286 78.2713C54.8169 77.9409 55.1698 77.7647 55.5006 77.8528C57.0888 78.3153 58.6769 78.7779 60.221 79.2184C60.5518 79.3065 60.7283 79.6369 60.6401 79.9673C60.5518 80.2537 60.3092 80.4299 60.0445 80.4299ZM132.04 79.9453C131.798 79.9453 131.577 79.8131 131.489 79.5929C131.357 79.2845 131.489 78.9321 131.798 78.7779C133.231 78.1391 134.709 77.4343 136.209 76.6854C136.518 76.5312 136.893 76.6634 137.025 76.9497C137.18 77.2581 137.047 77.6105 136.761 77.7647C135.239 78.5136 133.739 79.2404 132.305 79.8792C132.217 79.9233 132.129 79.9453 132.04 79.9453ZM50.6039 77.6325C50.5377 77.6325 50.4715 77.6325 50.4274 77.6105C48.8393 77.1039 47.2732 76.5973 45.7291 76.0907C45.3983 75.9805 45.2439 75.6281 45.3321 75.3197C45.4424 74.9893 45.7953 74.8352 46.1041 74.9233C47.6481 75.4299 49.1922 75.9365 50.7803 76.4431C51.1112 76.5532 51.2876 76.8836 51.1774 77.214C51.1112 77.4563 50.8685 77.6325 50.6039 77.6325ZM479.734 76.4651C479.601 76.4651 479.447 76.421 479.337 76.3329C478.057 75.2757 476.778 74.2404 475.521 73.2933C475.256 73.0951 475.212 72.6986 475.41 72.4343C475.609 72.17 476.006 72.1039 476.271 72.3241C477.55 73.2933 478.829 74.3285 480.131 75.4078C480.395 75.6281 480.418 76.0026 480.219 76.2669C480.087 76.399 479.91 76.4651 479.734 76.4651ZM140.841 75.5841C140.621 75.5841 140.4 75.4739 140.29 75.2537C140.136 74.9453 140.246 74.5929 140.533 74.4167C141.9 73.6898 143.29 72.9189 144.834 72.0598C145.121 71.8836 145.495 71.9937 145.672 72.3021C145.848 72.5884 145.738 72.9629 145.429 73.1391C143.907 73.9981 142.496 74.7911 141.106 75.518C141.04 75.562 140.93 75.5841 140.841 75.5841ZM368.365 74.6149C368.233 74.6149 368.1 74.5708 367.968 74.4827C367.703 74.2625 367.659 73.888 367.88 73.6237C368.961 72.3021 370.064 71.0246 371.122 69.8792C371.343 69.6369 371.74 69.6149 371.983 69.8351C372.225 70.0554 372.247 70.4519 372.027 70.6942C370.968 71.8396 369.909 73.073 368.828 74.3726C368.718 74.5268 368.542 74.6149 368.365 74.6149ZM41.2735 74.5048C41.2073 74.5048 41.1412 74.4827 41.075 74.4607C39.5089 73.91 37.9428 73.3594 36.4429 72.8087C36.1341 72.6986 35.9576 72.3462 36.0679 72.0158C36.1782 71.7074 36.5311 71.5312 36.862 71.6413C38.384 72.192 39.928 72.7426 41.4941 73.2933C41.825 73.4034 41.9794 73.7559 41.8691 74.0642C41.7588 74.3506 41.5161 74.5048 41.2735 74.5048ZM248.041 72.8087C247.843 72.8087 247.644 72.7206 247.534 72.5224C246.629 71.1347 245.681 69.7911 244.732 68.5136C244.534 68.2492 244.578 67.8528 244.865 67.6545C245.13 67.4563 245.527 67.5003 245.725 67.7867C246.674 69.0642 247.644 70.4299 248.571 71.8396C248.747 72.1259 248.681 72.5003 248.394 72.6986C248.284 72.7647 248.151 72.8087 248.041 72.8087ZM32.0314 71.1347C31.9652 71.1347 31.877 71.1127 31.8108 71.0907C30.2447 70.4959 28.7007 69.9012 27.2228 69.3065C26.914 69.1744 26.7596 68.8219 26.8699 68.5136C27.0023 68.2052 27.3552 68.051 27.664 68.1611C29.1418 68.7558 30.6859 69.3285 32.252 69.9233C32.5608 70.0334 32.7372 70.4078 32.6049 70.7162C32.4946 71.0025 32.274 71.1347 32.0314 71.1347ZM149.4 70.7603C149.179 70.7603 148.981 70.6501 148.87 70.4519C148.694 70.1655 148.804 69.7911 149.091 69.6149C150.503 68.7999 151.914 67.9629 153.326 67.1259C153.613 66.9497 153.988 67.0378 154.164 67.3462C154.341 67.6325 154.252 68.0069 153.944 68.1832C152.532 69.0202 151.12 69.8572 149.708 70.6722C149.62 70.7162 149.51 70.7603 149.4 70.7603ZM471.925 70.4959C471.793 70.4959 471.683 70.4519 471.572 70.3858C470.227 69.4387 468.859 68.5356 467.514 67.6765C467.227 67.5003 467.139 67.1259 467.315 66.8395C467.492 66.5532 467.867 66.4651 468.154 66.6413C469.521 67.5003 470.911 68.4255 472.278 69.3726C472.565 69.5708 472.631 69.9453 472.433 70.2316C472.322 70.4078 472.124 70.4959 471.925 70.4959ZM22.8554 67.5444C22.7672 67.5444 22.701 67.5224 22.6128 67.5003C21.0247 66.8616 19.5027 66.2228 18.069 65.6061C17.7601 65.4739 17.6057 65.1215 17.7381 64.8131C17.8704 64.5047 18.2234 64.3506 18.5322 64.4827C19.9659 65.0995 21.4879 65.7162 23.076 66.355C23.3848 66.4871 23.5392 66.8396 23.4069 67.1479C23.3407 67.3902 23.0981 67.5444 22.8554 67.5444ZM375.049 67.4343C374.872 67.4343 374.718 67.3682 374.607 67.236C374.387 66.9937 374.387 66.5973 374.652 66.377C375.909 65.2096 377.21 64.1523 378.49 63.2052C378.754 63.0069 379.151 63.051 379.35 63.3373C379.548 63.6017 379.504 63.9981 379.217 64.1964C377.982 65.1215 376.725 66.1567 375.49 67.2801C375.357 67.3682 375.203 67.4343 375.049 67.4343ZM157.87 65.7382C157.649 65.7382 157.451 65.6281 157.34 65.4298C157.164 65.1435 157.274 64.7691 157.561 64.5928C158.973 63.7558 160.384 62.9188 161.818 62.0818C162.105 61.9056 162.48 62.0158 162.656 62.3021C162.833 62.5884 162.722 62.9629 162.436 63.1391C161.024 63.9541 159.612 64.7911 158.201 65.6281C158.09 65.7162 157.98 65.7382 157.87 65.7382ZM463.61 65.2536C463.499 65.2536 463.411 65.2316 463.301 65.1655C461.867 64.3726 460.433 63.6017 458.978 62.8968C458.669 62.7426 458.559 62.3902 458.691 62.0818C458.845 61.7735 459.22 61.6633 459.507 61.7955C460.963 62.5224 462.441 63.2933 463.874 64.1083C464.161 64.2845 464.271 64.6369 464.117 64.9453C464.029 65.1435 463.83 65.2536 463.61 65.2536ZM242.152 64.9453C241.975 64.9453 241.799 64.8792 241.689 64.725C240.608 63.4695 239.505 62.2801 238.38 61.1787C238.137 60.9365 238.137 60.562 238.38 60.3197C238.623 60.0774 238.998 60.0774 239.24 60.3197C240.387 61.4431 241.512 62.6765 242.615 63.9541C242.836 64.2184 242.813 64.5928 242.549 64.8131C242.439 64.8792 242.284 64.9453 242.152 64.9453ZM13.7898 63.7118C13.7016 63.7118 13.6133 63.6898 13.5472 63.6677C11.8708 62.9409 10.3709 62.258 9.04741 61.6633C8.7386 61.5312 8.60626 61.1567 8.7386 60.8483C8.87095 60.54 9.24593 60.4078 9.55473 60.54C10.8782 61.1347 12.3781 61.8175 14.0545 62.5444C14.3633 62.6765 14.5177 63.051 14.3633 63.3594C14.253 63.5796 14.0324 63.7118 13.7898 63.7118ZM382.967 61.6413C382.747 61.6413 382.548 61.5312 382.438 61.3329C382.283 61.0466 382.394 60.6721 382.681 60.4959C384.18 59.6589 385.724 58.9761 387.246 58.4695C387.577 58.3594 387.908 58.5356 388.018 58.8439C388.129 59.1743 387.952 59.5047 387.643 59.6149C386.188 60.1215 384.71 60.7602 383.276 61.5532C383.166 61.6193 383.055 61.6413 382.967 61.6413ZM454.809 60.9365C454.72 60.9365 454.654 60.9144 454.566 60.8924C453.066 60.2536 451.544 59.6589 450.022 59.1303C449.713 59.0202 449.537 58.6677 449.647 58.3373C449.758 58.0069 450.111 57.8528 450.441 57.9629C451.985 58.5135 453.529 59.1083 455.051 59.747C455.36 59.8792 455.515 60.2316 455.382 60.54C455.272 60.8043 455.051 60.9365 454.809 60.9365ZM166.384 60.8043C166.163 60.8043 165.965 60.6942 165.855 60.4959C165.678 60.2096 165.788 59.8351 166.097 59.6589C167.641 58.7999 169.053 58.029 170.421 57.2801C170.729 57.1259 171.082 57.236 171.259 57.5224C171.413 57.8307 171.303 58.1832 171.016 58.3594C169.649 59.0862 168.237 59.8572 166.715 60.7162C166.583 60.7823 166.494 60.8043 166.384 60.8043ZM392.165 58.3153C391.901 58.3153 391.636 58.1391 391.57 57.8528C391.481 57.5224 391.68 57.192 392.011 57.1039C393.621 56.6853 395.231 56.3109 396.819 55.9585C397.15 55.8924 397.481 56.0906 397.547 56.421C397.613 56.7514 397.415 57.0818 397.084 57.1479C395.518 57.5003 393.908 57.8748 392.32 58.2713C392.276 58.3153 392.209 58.3153 392.165 58.3153ZM235.16 58.051C235.027 58.051 234.895 58.0069 234.762 57.9188C233.505 56.8836 232.182 55.9144 230.858 55.0334C230.572 54.8572 230.505 54.4607 230.682 54.1743C230.858 53.888 231.255 53.8219 231.542 53.9981C232.888 54.9012 234.233 55.8924 235.535 56.9497C235.799 57.1699 235.843 57.5444 235.623 57.8087C235.512 57.9849 235.336 58.051 235.16 58.051ZM445.545 57.6545C445.478 57.6545 445.434 57.6545 445.368 57.6325C443.824 57.192 442.236 56.7735 440.648 56.421C440.317 56.355 440.118 56.0246 440.185 55.6942C440.251 55.3638 440.582 55.1655 440.912 55.2316C442.523 55.584 444.133 56.0025 445.699 56.4651C446.03 56.5532 446.206 56.9056 446.118 57.214C446.074 57.4783 445.831 57.6545 445.545 57.6545ZM401.76 56.2228C401.474 56.2228 401.209 56.0246 401.165 55.7162C401.099 55.3858 401.319 55.0554 401.65 55.0113C403.282 54.725 404.915 54.4607 406.525 54.2184C406.878 54.1743 407.164 54.3946 407.208 54.747C407.253 55.0774 407.032 55.3858 406.679 55.4298C405.091 55.6501 403.459 55.9144 401.849 56.2008C401.849 56.2228 401.804 56.2228 401.76 56.2228ZM175.075 56.2008C174.854 56.2008 174.634 56.0686 174.523 55.8483C174.369 55.54 174.501 55.1876 174.81 55.0334C176.332 54.2845 177.854 53.5796 179.288 52.9409C179.596 52.8087 179.971 52.9409 180.104 53.2492C180.236 53.5576 180.104 53.91 179.795 54.0642C178.361 54.6809 176.883 55.3858 175.361 56.1347C175.251 56.1787 175.163 56.2008 175.075 56.2008ZM435.994 55.518C435.972 55.518 435.927 55.518 435.883 55.518C434.295 55.2536 432.663 55.0334 431.053 54.8792C430.722 54.8351 430.479 54.5488 430.501 54.1964C430.545 53.866 430.854 53.6237 431.185 53.6457C432.817 53.8219 434.472 54.0422 436.082 54.3065C436.413 54.3505 436.633 54.6809 436.589 55.0113C436.545 55.2977 436.28 55.518 435.994 55.518ZM411.51 54.8572C411.201 54.8572 410.936 54.6149 410.892 54.3065C410.87 53.9761 411.113 53.6677 411.444 53.6457C413.098 53.4915 414.752 53.3594 416.384 53.2712C416.715 53.2492 417.002 53.5135 417.024 53.8439C417.046 54.1743 416.781 54.4607 416.451 54.4827C414.862 54.5708 413.208 54.6809 411.576 54.8351C411.554 54.8572 411.532 54.8572 411.51 54.8572ZM426.222 54.4827H426.2C424.656 54.4166 423.09 54.3726 421.524 54.3726H421.325C420.994 54.3726 420.708 54.1083 420.708 53.7558C420.708 53.4254 420.972 53.1391 421.325 53.1391H421.502C423.09 53.1391 424.7 53.1831 426.244 53.2492C426.575 53.2712 426.84 53.5576 426.818 53.888C426.818 54.2184 426.553 54.4827 426.222 54.4827ZM226.976 52.6545C226.888 52.6545 226.778 52.6325 226.689 52.5884C225.256 51.8616 223.778 51.2008 222.278 50.6501C221.969 50.54 221.793 50.1875 221.925 49.8571C222.035 49.5488 222.388 49.3726 222.719 49.5047C224.263 50.0774 225.785 50.7602 227.263 51.5091C227.572 51.6633 227.682 52.0378 227.528 52.3241C227.417 52.5444 227.197 52.6545 226.976 52.6545ZM184.074 52.258C183.832 52.258 183.589 52.1038 183.501 51.8616C183.39 51.5532 183.545 51.2008 183.854 51.0686C185.442 50.4739 187.008 49.9232 188.53 49.4607C188.861 49.3505 189.192 49.5488 189.302 49.8571C189.412 50.1875 189.214 50.5179 188.905 50.6281C187.405 51.0906 185.839 51.6193 184.295 52.214C184.229 52.236 184.14 52.258 184.074 52.258ZM193.471 49.3726C193.184 49.3726 192.941 49.1743 192.875 48.888C192.809 48.5576 193.007 48.2272 193.338 48.1611C194.971 47.7867 196.603 47.4783 198.213 47.236C198.544 47.1919 198.853 47.4122 198.919 47.7646C198.963 48.095 198.742 48.4034 198.39 48.4695C196.823 48.6897 195.213 48.9981 193.625 49.3726C193.559 49.3726 193.515 49.3726 193.471 49.3726ZM217.8 49.2404C217.756 49.2404 217.712 49.2404 217.646 49.2184C216.609 48.9761 215.55 48.7558 214.492 48.5796C213.962 48.4915 213.433 48.4034 212.903 48.3373C212.573 48.2933 212.33 47.9849 212.374 47.6545C212.418 47.3241 212.727 47.0818 213.058 47.1259C213.609 47.1919 214.139 47.2801 214.69 47.3682C215.793 47.5444 216.874 47.7646 217.933 48.029C218.263 48.1171 218.462 48.4475 218.374 48.7779C218.33 49.0642 218.087 49.2404 217.8 49.2404ZM203.176 47.9629C202.845 47.9629 202.58 47.7206 202.558 47.3902C202.536 47.0598 202.801 46.7734 203.132 46.7514C204.786 46.6633 206.441 46.6413 208.095 46.7074C208.426 46.7294 208.69 47.0157 208.69 47.3461C208.668 47.6765 208.404 47.9629 208.051 47.9409C206.441 47.8748 204.808 47.8968 203.198 47.9849C203.198 47.9629 203.176 47.9629 203.176 47.9629Z" fill="#222222"/>
<path d="M633.167 108.139C633.057 108.139 632.947 108.117 632.858 108.051C632.572 107.875 632.461 107.501 632.638 107.214C633.41 105.893 633.829 105.1 633.829 105.1C633.983 104.791 634.358 104.681 634.667 104.835C634.976 104.989 635.086 105.364 634.932 105.672C634.91 105.694 634.513 106.487 633.719 107.831C633.586 108.029 633.388 108.139 633.167 108.139Z" fill="#2897B6"/>
</g>
<defs>
<clipPath id="clip0_298_9923">
<rect width="635" height="371" fill="white"/>
</clipPath>
</defs>
</svg>
