<svg xmlns="http://www.w3.org/2000/svg" width="635" height="371" viewBox="0 0 635 371" fill="none" clip-path="url(#ClipPath-1)"><defs><clipPath id="ClipPath-1"><rect width="635" height="371" fill="#fff"/></clipPath><clipPath id="ClipPath-2"><rect x="246" y="265" width="82" height="24" fill="#fff"/></clipPath></defs><style>
@keyframes a0_t { 0% { transform: translate(10px,0px); } 100% { transform: translate(560px,0px); } }
@keyframes a1_t { 0% { transform: translate(-540.6px,0px); } 100% { transform: translate(9.4px,0px); } }
@keyframes a3_t { 0% { transform: translate(99.5px,76.8px) rotate(4deg); animation-timing-function: cubic-bezier(.4,0,.6,1); } 7.5% { transform: translate(99.5px,76.8px) rotate(-4deg); animation-timing-function: cubic-bezier(.5,0,.6,1); } 15% { transform: translate(99.5px,76.8px) rotate(6deg); animation-timing-function: cubic-bezier(.4,0,.3,1); } 22.5% { transform: translate(99.5px,76.8px) rotate(-0.5deg); animation-timing-function: cubic-bezier(.1,-1,.5,1.3); } 37.5% { transform: translate(99.5px,76.8px) rotate(0deg); } 100% { transform: translate(99.5px,76.8px) rotate(0deg); } }
@keyframes a2_t { 0% { transform: scale(0,0) translate(-13.1px,-38.3px); animation-timing-function: cubic-bezier(.4,0,.6,1); } 7.5% { transform: scale(1.1,1.1) translate(-13.1px,-38.3px); animation-timing-function: cubic-bezier(.4,0,1,1); } 15% { transform: scale(1,1) translate(-13.1px,-38.3px); animation-timing-function: cubic-bezier(.4,0,1,1); } 20% { transform: scale(1,1) translate(-13.1px,-38.3px); animation-timing-function: cubic-bezier(0,0,.6,1); } 37.5% { transform: scale(1,1) translate(-13.1px,-38.3px); animation-timing-function: cubic-bezier(.4,0,.6,1); } 42.5% { transform: scale(0,0) translate(-13.1px,-38.3px); } 100% { transform: scale(0,0) translate(-13.1px,-38.3px); } }
@keyframes a5_t { 0% { transform: translate(295.4px,77.3px) rotate(4deg); } 30% { transform: translate(295.4px,77.3px) rotate(4deg); animation-timing-function: cubic-bezier(.4,0,.6,1); } 37.5% { transform: translate(295.4px,77.3px) rotate(-4deg); animation-timing-function: cubic-bezier(.5,0,.6,1); } 45% { transform: translate(295.4px,77.3px) rotate(6deg); animation-timing-function: cubic-bezier(.4,0,.3,1); } 52.5% { transform: translate(295.4px,77.3px) rotate(-0.5deg); animation-timing-function: cubic-bezier(.1,-1,.5,1.3); } 67.5% { transform: translate(295.4px,77.3px) rotate(0deg); } 100% { transform: translate(295.4px,77.3px) rotate(0deg); } }
@keyframes a4_t { 0% { transform: scale(0,0) translate(-13.1px,-38.3px); } 30% { transform: scale(0,0) translate(-13.1px,-38.3px); animation-timing-function: cubic-bezier(.4,0,.6,1); } 37.5% { transform: scale(1.1,1.1) translate(-13.1px,-38.3px); animation-timing-function: cubic-bezier(.4,0,1,1); } 45% { transform: scale(1,1) translate(-13.1px,-38.3px); animation-timing-function: cubic-bezier(.4,0,1,1); } 50% { transform: scale(1,1) translate(-13.1px,-38.3px); animation-timing-function: cubic-bezier(0,0,.6,1); } 67.5% { transform: scale(1,1) translate(-13.1px,-38.3px); animation-timing-function: cubic-bezier(.4,0,.6,1); } 72.5% { transform: scale(0,0) translate(-13.1px,-38.3px); } 100% { transform: scale(0,0) translate(-13.1px,-38.3px); } }
@keyframes a7_t { 0% { transform: translate(569.3px,133.4px) rotate(4deg); } 57.5% { transform: translate(569.3px,133.4px) rotate(4deg); animation-timing-function: cubic-bezier(.4,0,.6,1); } 65% { transform: translate(569.3px,133.4px) rotate(-4deg); animation-timing-function: cubic-bezier(.5,0,.6,1); } 72.5% { transform: translate(569.3px,133.4px) rotate(6deg); animation-timing-function: cubic-bezier(.4,0,.3,1); } 80% { transform: translate(569.3px,133.4px) rotate(-0.5deg); animation-timing-function: cubic-bezier(.1,-1,.5,1.3); } 95% { transform: translate(569.3px,133.4px) rotate(0deg); } 100% { transform: translate(569.3px,133.4px) rotate(0deg); } }
@keyframes a6_t { 0% { transform: scale(0,0) translate(-13.1px,-38.3px); } 57.5% { transform: scale(0,0) translate(-13.1px,-38.3px); animation-timing-function: cubic-bezier(.4,0,.6,1); } 65% { transform: scale(1.1,1.1) translate(-13.1px,-38.3px); animation-timing-function: cubic-bezier(.4,0,1,1); } 72.5% { transform: scale(1,1) translate(-13.1px,-38.3px); animation-timing-function: cubic-bezier(.4,0,1,1); } 77.5% { transform: scale(1,1) translate(-13.1px,-38.3px); animation-timing-function: cubic-bezier(0,0,.6,1); } 95% { transform: scale(1,1) translate(-13.1px,-38.3px); animation-timing-function: cubic-bezier(.4,0,.6,1); } 100% { transform: scale(0,0) translate(-13.1px,-38.3px); } }
@keyframes a8_t { 0% { transform: translate(314.4px,312.5px) rotate(0deg) translate(-211px,-121.8px); animation-timing-function: cubic-bezier(.4,0,.6,1); } 12.5% { transform: translate(314.4px,312.5px) rotate(-1deg) translate(-211px,-121.8px); animation-timing-function: cubic-bezier(.4,0,.6,.8); } 25% { transform: translate(314.4px,312.5px) rotate(0deg) translate(-211px,-121.8px); animation-timing-function: cubic-bezier(.2,-107.6,.6,-283); } 37.5% { transform: translate(314.4px,312.5px) rotate(0deg) translate(-211px,-121.8px); animation-timing-function: cubic-bezier(.3,.3,.6,1); } 52.5% { transform: translate(314.4px,312.5px) rotate(-1.4deg) translate(-211px,-121.8px); animation-timing-function: cubic-bezier(.4,0,.6,1); } 70% { transform: translate(314.4px,312.5px) rotate(1deg) translate(-211px,-121.8px); animation-timing-function: cubic-bezier(.4,0,.6,1); } 85% { transform: translate(314.4px,312.5px) rotate(-1deg) translate(-211px,-121.8px); animation-timing-function: cubic-bezier(.4,0,1,1); } 100% { transform: translate(314.4px,312.5px) rotate(0deg) translate(-211px,-121.8px); } }
</style><path d="M537.6 122.3c-90.2 18.8-37.3-189-160.2-100.8c-48.9 35.1-119.2-7.4-186.6 15.8c-61.9 21.3-46.7 91.3-40.7 114.1c12.1 46.2-48.1 27.8-83 47.7c-54.8 31.1-6.8 156.7 45 157.2c51.7 .5 431.9-1 431.9-1c0 0 22.5-17.6 34.5-54c24.6-74.5 38.5-195.5-40.9-179Z" fill="#eef5f9"/><path d="M537.8 307.4h-23.3v48h23.3v-48Z" fill="#fbfbfb"/><path d="M193.5 172.5v-21h6.4v-36.1h34.3v36.1h32v-49.5l35.4-13.4v42.2h8v-56.2l35.4 11.7v84.5h44.7v49.9h16.7v12.5h38.3v-21.6h22v-58.8h27.2v108.5h27.2v94.5h-27.2h-23.3h-3.9h-22h-12.4h-20h-5.9h-16.7h-15.7h-29h-8.9h-17.7h-8.8h-8h-18.5h-12.6h-4.3h-32h-33.7h-0.6h-6.4h-27.2v-183.3h27.2Z" fill="#ececec"/><path d="M315.8 99.3h23.9v-8.7h-23.9v8.7Z" fill="#fbfbfb"/><path d="M315.8 115.7h23.9v-8.7h-23.9v8.7Z" fill="#fbfbfb"/><path d="M315.8 130.4h23.9v-8.7h-23.9v8.7Z" fill="#fbfbfb"/><path d="M493.9 192.4h-27.7v13.4h27.7v-13.4Z" fill="#fbfbfb"/><path d="M493.9 233.7h-27.4v13.4h27.4v-13.4Z" fill="#fbfbfb"/><path d="M493.9 254h-27.4v13.5h27.4v-13.5Z" fill="#fbfbfb"/><path d="M466.9 288.7h27.5v-13.4h-27.5v13.4Z" fill="#c4d9ed"/><path d="M494.4 296.1h-27.5v13.5h27.5v-13.5Z" fill="#c4d9ed"/><path d="M466.9 330.9h27.5v-13.5h-27.5v13.5Z" fill="#fbfbfb"/><path d="M296.9 121.7h-25.1v8.7h25.1v-8.7Z" fill="#fbfbfb"/><path d="M296.9 107.1h-25.1v8.7h25.1v-8.7Z" fill="#fbfbfb"/><path d="M340.3 136h-68.5v8.7h68.5v-8.7Z" fill="#fbfbfb"/><path d="M340.3 149.1h-68.5v8.7h68.5v-8.7Z" fill="#fbfbfb"/><path d="M340.3 162.1h-68.5v8.4h68.5v-8.4Z" fill="#fbfbfb"/><path d="M493.9 213.4h-27.4v13.4h27.4v-13.4Z" fill="#c4d9ed"/><path d="M382.8 178.9h-6v8.5h6v-8.5Z" fill="#fbfbfb"/><path d="M371.6 178.9h-6v8.5h6v-8.5Z" fill="#fbfbfb"/><path d="M360.6 178.9h-6v8.5h6v-8.5Z" fill="#fbfbfb"/><path d="M350.3 178.9h-6v8.5h6v-8.5Z" fill="#fbfbfb"/><path d="M339.7 178.9h-6v8.5h6v-8.5Z" fill="#fbfbfb"/><path d="M329 178.9h-6v8.5h6v-8.5Z" fill="#fbfbfb"/><path d="M317.8 178.9h-6v8.5h6v-8.5Z" fill="#fbfbfb"/><path d="M306.8 178.9h-6v8.5h6v-8.5Z" fill="#fbfbfb"/><path d="M296.4 178.9h-6v8.5h6v-8.5Z" fill="#fbfbfb"/><path d="M285.9 178.9h-6v8.5h6v-8.5Z" fill="#fbfbfb"/><path d="M274.8 178.9h-6v8.5h6v-8.5Z" fill="#fbfbfb"/><path d="M263.6 178.9h-6v8.5h6v-8.5Z" fill="#fbfbfb"/><path d="M252.7 178.9h-6v8.5h6v-8.5Z" fill="#fbfbfb"/><path d="M242.3 178.9h-6v8.5h6v-8.5Z" fill="#fbfbfb"/><path d="M231.7 178.9h-6v8.5h6v-8.5Z" fill="#fbfbfb"/><path d="M221 178.9h-6v8.5h6v-8.5Z" fill="#fbfbfb"/><path d="M209.8 178.9h-6v8.5h6v-8.5Z" fill="#fbfbfb"/><path d="M198.8 178.9h-5.9v8.5h5.9v-8.5Z" fill="#fbfbfb"/><path d="M188.5 178.9h-6v8.5h6v-8.5Z" fill="#fbfbfb"/><path d="M177.9 178.9h-6v8.5h6v-8.5Z" fill="#fbfbfb"/><path d="M382.8 193.8h-6v8.5h6v-8.5Z" fill="#fbfbfb"/><path d="M371.6 193.8h-6v8.5h6v-8.5Z" fill="#fbfbfb"/><path d="M360.6 193.8h-6v8.5h6v-8.5Z" fill="#fbfbfb"/><path d="M350.3 193.8h-6v8.5h6v-8.5Z" fill="#fbfbfb"/><path d="M339.7 193.8h-6v8.5h6v-8.5Z" fill="#fbfbfb"/><path d="M329 193.8h-6v8.5h6v-8.5Z" fill="#fbfbfb"/><path d="M317.8 193.8h-6v8.5h6v-8.5Z" fill="#fbfbfb"/><path d="M306.8 193.8h-6v8.5h6v-8.5Z" fill="#fbfbfb"/><path d="M296.4 193.8h-6v8.5h6v-8.5Z" fill="#fbfbfb"/><path d="M285.9 193.8h-6v8.5h6v-8.5Z" fill="#fbfbfb"/><path d="M274.8 193.8h-6v8.5h6v-8.5Z" fill="#fbfbfb"/><path d="M263.6 193.8h-6v8.5h6v-8.5Z" fill="#fbfbfb"/><path d="M252.7 193.8h-6v8.5h6v-8.5Z" fill="#fbfbfb"/><path d="M242.3 193.8h-6v8.5h6v-8.5Z" fill="#fbfbfb"/><path d="M231.7 193.8h-6v8.5h6v-8.5Z" fill="#fbfbfb"/><path d="M221 193.8h-6v8.5h6v-8.5Z" fill="#fbfbfb"/><path d="M209.8 193.8h-6v8.5h6v-8.5Z" fill="#fbfbfb"/><path d="M198.8 193.8h-5.9v8.5h5.9v-8.5Z" fill="#fbfbfb"/><path d="M188.5 193.8h-6v8.5h6v-8.5Z" fill="#fbfbfb"/><path d="M177.9 193.8h-6v8.5h6v-8.5Z" fill="#fbfbfb"/><path d="M382.8 208.5h-6v8.4h6v-8.4Z" fill="#fbfbfb"/><path d="M371.6 208.5h-6v8.4h6v-8.4Z" fill="#fbfbfb"/><path d="M360.6 208.5h-6v8.4h6v-8.4Z" fill="#fbfbfb"/><path d="M350.3 208.5h-6v8.4h6v-8.4Z" fill="#fbfbfb"/><path d="M339.7 208.5h-6v8.4h6v-8.4Z" fill="#fbfbfb"/><path d="M329 208.5h-6v8.4h6v-8.4Z" fill="#fbfbfb"/><path d="M317.8 208.5h-6v8.4h6v-8.4Z" fill="#fbfbfb"/><path d="M306.8 208.5h-6v8.4h6v-8.4Z" fill="#fbfbfb"/><path d="M296.4 208.5h-6v8.4h6v-8.4Z" fill="#fbfbfb"/><path d="M285.9 208.5h-6v8.4h6v-8.4Z" fill="#fbfbfb"/><path d="M274.8 208.5h-6v8.4h6v-8.4Z" fill="#fbfbfb"/><path d="M263.6 208.5h-6v8.4h6v-8.4Z" fill="#fbfbfb"/><path d="M252.7 208.5h-6v8.4h6v-8.4Z" fill="#fbfbfb"/><path d="M242.3 208.5h-6v8.4h6v-8.4Z" fill="#fbfbfb"/><path d="M231.7 208.5h-6v8.4h6v-8.4Z" fill="#fbfbfb"/><path d="M221 208.5h-6v8.4h6v-8.4Z" fill="#fbfbfb"/><path d="M209.8 208.5h-6v8.4h6v-8.4Z" fill="#fbfbfb"/><path d="M198.8 208.5h-5.9v8.4h5.9v-8.4Z" fill="#fbfbfb"/><path d="M188.5 208.5h-6v8.4h6v-8.4Z" fill="#fbfbfb"/><path d="M177.9 208.5h-6v8.4h6v-8.4Z" fill="#fbfbfb"/><path d="M382.8 224h-6v8.5h6v-8.5Z" fill="#fbfbfb"/><path d="M371.6 224h-6v8.5h6v-8.5Z" fill="#fbfbfb"/><path d="M360.6 224h-6v8.5h6v-8.5Z" fill="#fbfbfb"/><path d="M350.3 224h-6v8.5h6v-8.5Z" fill="#fbfbfb"/><path d="M339.7 224h-6v8.5h6v-8.5Z" fill="#fbfbfb"/><path d="M329 224h-6v8.5h6v-8.5Z" fill="#fbfbfb"/><path d="M317.8 224h-6v8.5h6v-8.5Z" fill="#fbfbfb"/><path d="M306.8 224h-6v8.5h6v-8.5Z" fill="#fbfbfb"/><path d="M296.4 224h-6v8.5h6v-8.5Z" fill="#fbfbfb"/><path d="M285.9 224h-6v8.5h6v-8.5Z" fill="#fbfbfb"/><path d="M274.8 224h-6v8.5h6v-8.5Z" fill="#fbfbfb"/><path d="M263.6 224h-6v8.5h6v-8.5Z" fill="#fbfbfb"/><path d="M252.7 224h-6v8.5h6v-8.5Z" fill="#fbfbfb"/><path d="M242.3 224h-6v8.5h6v-8.5Z" fill="#fbfbfb"/><path d="M231.7 224h-6v8.5h6v-8.5Z" fill="#fbfbfb"/><path d="M221 224h-6v8.5h6v-8.5Z" fill="#fbfbfb"/><path d="M209.8 224h-6v8.5h6v-8.5Z" fill="#fbfbfb"/><path d="M198.8 224h-5.9v8.5h5.9v-8.5Z" fill="#fbfbfb"/><path d="M188.5 224h-6v8.5h6v-8.5Z" fill="#fbfbfb"/><path d="M177.9 224h-6v8.5h6v-8.5Z" fill="#fbfbfb"/><path d="M382.8 238.9h-6v8.5h6v-8.5Z" fill="#fbfbfb"/><path d="M371.6 238.9h-6v8.5h6v-8.5Z" fill="#fbfbfb"/><path d="M360.6 238.9h-6v8.5h6v-8.5Z" fill="#fbfbfb"/><path d="M350.3 238.9h-6v8.5h6v-8.5Z" fill="#fbfbfb"/><path d="M339.7 238.9h-6v8.5h6v-8.5Z" fill="#fbfbfb"/><path d="M329 238.9h-6v8.5h6v-8.5Z" fill="#fbfbfb"/><path d="M317.8 238.9h-6v8.5h6v-8.5Z" fill="#fbfbfb"/><path d="M306.8 238.9h-6v8.5h6v-8.5Z" fill="#fbfbfb"/><path d="M296.4 238.9h-6v8.5h6v-8.5Z" fill="#fbfbfb"/><path d="M285.9 238.9h-6v8.5h6v-8.5Z" fill="#fbfbfb"/><path d="M274.8 238.9h-6v8.5h6v-8.5Z" fill="#fbfbfb"/><path d="M263.6 238.9h-6v8.5h6v-8.5Z" fill="#fbfbfb"/><path d="M252.7 238.9h-6v8.5h6v-8.5Z" fill="#fbfbfb"/><path d="M242.3 238.9h-6v8.5h6v-8.5Z" fill="#fbfbfb"/><path d="M231.7 238.9h-6v8.5h6v-8.5Z" fill="#fbfbfb"/><path d="M221 238.9h-6v8.5h6v-8.5Z" fill="#fbfbfb"/><path d="M209.8 238.9h-6v8.5h6v-8.5Z" fill="#fbfbfb"/><path d="M188.5 238.9h-6v8.5h6v-8.5Z" fill="#fbfbfb"/><path d="M198.8 238.9h-5.9v8.5h5.9v-8.5Z" fill="#fbfbfb"/><path d="M177.9 238.9h-6v8.5h6v-8.5Z" fill="#fbfbfb"/><path d="M382.8 253.6h-6v8.4h6v-8.4Z" fill="#fbfbfb"/><path d="M371.6 253.6h-6v8.4h6v-8.4Z" fill="#fbfbfb"/><path d="M360.6 253.6h-6v8.4h6v-8.4Z" fill="#fbfbfb"/><path d="M350.3 253.6h-6v8.4h6v-8.4Z" fill="#fbfbfb"/><path d="M339.7 253.6h-6v8.4h6v-8.4Z" fill="#fbfbfb"/><path d="M329 253.6h-6v8.4h6v-8.4Z" fill="#fbfbfb"/><path d="M317.8 253.6h-6v8.4h6v-8.4Z" fill="#fbfbfb"/><path d="M306.8 253.6h-6v8.4h6v-8.4Z" fill="#fbfbfb"/><path d="M296.4 253.6h-6v8.4h6v-8.4Z" fill="#fbfbfb"/><path d="M285.9 253.6h-6v8.4h6v-8.4Z" fill="#fbfbfb"/><path d="M274.8 253.6h-6v8.4h6v-8.4Z" fill="#fbfbfb"/><path d="M263.6 253.6h-6v8.4h6v-8.4Z" fill="#fbfbfb"/><path d="M252.7 253.6h-6v8.4h6v-8.4Z" fill="#fbfbfb"/><path d="M242.3 253.6h-6v8.4h6v-8.4Z" fill="#fbfbfb"/><path d="M231.7 253.6h-6v8.4h6v-8.4Z" fill="#fbfbfb"/><path d="M221 253.6h-6v8.4h6v-8.4Z" fill="#fbfbfb"/><path d="M209.8 253.6h-6v8.4h6v-8.4Z" fill="#fbfbfb"/><path d="M188.5 253.6h-6v8.4h6v-8.4Z" fill="#fbfbfb"/><path d="M177.9 253.6h-6v8.4h6v-8.4Z" fill="#fbfbfb"/><path d="M121.7 236.9h-13.4v90h13.4v-90Z" fill="#ececec"/><path d="M121.7 354.2h14.3v-62.6h-14.3v62.6Z" fill="#adc9e0"/><path d="M435 211.6v-17.6h-0.8v17.6h-9.9v21.6h20.4v-21.6h-9.7Z" fill="#c4d9ed"/><path d="M493.9 166.2v-13.4h-5.7v-5.9h-0.7v5.9h-20.9h-0.4h-3.9v-5.9h-0.8v5.9h-5v58.8h10.1v-25.3h27.3v-13.5h-27.3v-6.6h27.3Z" fill="#ececec"/><path d="M198.1 250v75.9h-76.4v-89l76.4 13.1Z" fill="#ececec"/><path d="M102.8 355.4h95.3v-64h-95.3v64Z" fill="#ececec"/><path d="M102.8 274.3h95.3v-20.8h-95.3v20.8Z" fill="#ececec"/><path d="M191.6 308.8h-4.9v6.9h4.9v-6.9Z" fill="#fbfbfb"/><path d="M182.4 308.8h-4.9v6.9h4.9v-6.9Z" fill="#fbfbfb"/><path d="M173.5 308.8h-4.9v6.9h4.9v-6.9Z" fill="#fbfbfb"/><path d="M165 308.8h-4.9v6.9h4.9v-6.9Z" fill="#fbfbfb"/><path d="M156.3 308.8h-4.9v6.9h4.9v-6.9Z" fill="#fbfbfb"/><path d="M147.6 308.8h-4.9v6.9h4.9v-6.9Z" fill="#fbfbfb"/><path d="M138.5 308.8h-4.9v6.9h4.9v-6.9Z" fill="#fbfbfb"/><path d="M129.5 308.8h-4.9v6.9h4.9v-6.9Z" fill="#fbfbfb"/><path d="M121 308.8h-4.9v6.9h4.9v-6.9Z" fill="#fbfbfb"/><path d="M112.4 308.8h-4.9v6.9h4.9v-6.9Z" fill="#fbfbfb"/><path d="M191.6 320.9h-4.9v6.9h4.9v-6.9Z" fill="#fbfbfb"/><path d="M182.4 320.9h-4.9v6.9h4.9v-6.9Z" fill="#fbfbfb"/><path d="M173.5 320.9h-4.9v6.9h4.9v-6.9Z" fill="#fbfbfb"/><path d="M165 320.9h-4.9v6.9h4.9v-6.9Z" fill="#fbfbfb"/><path d="M156.3 320.9h-4.9v6.9h4.9v-6.9Z" fill="#fbfbfb"/><path d="M147.6 320.9h-4.9v6.9h4.9v-6.9Z" fill="#fbfbfb"/><path d="M138.5 320.9h-4.9v6.9h4.9v-6.9Z" fill="#fbfbfb"/><path d="M129.5 320.9h-4.9v6.9h4.9v-6.9Z" fill="#fbfbfb"/><path d="M121 320.9h-4.9v6.9h4.9v-6.9Z" fill="#fbfbfb"/><path d="M112.4 320.9h-4.9v6.9h4.9v-6.9Z" fill="#fbfbfb"/><path d="M191.6 284.3h-4.9v6.9h4.9v-6.9Z" fill="#fbfbfb"/><path d="M182.4 284.3h-4.9v6.9h4.9v-6.9Z" fill="#fbfbfb"/><path d="M173.5 284.3h-4.9v6.9h4.9v-6.9Z" fill="#fbfbfb"/><path d="M165 284.3h-4.9v6.9h4.9v-6.9Z" fill="#fbfbfb"/><path d="M156.3 284.3h-4.9v6.9h4.9v-6.9Z" fill="#fbfbfb"/><path d="M147.6 284.3h-4.9v6.9h4.9v-6.9Z" fill="#fbfbfb"/><path d="M138.5 284.3h-4.9v6.9h4.9v-6.9Z" fill="#fbfbfb"/><path d="M129.5 284.3h-4.9v6.9h4.9v-6.9Z" fill="#fbfbfb"/><path d="M191.6 296.4h-4.9v6.9h4.9v-6.9Z" fill="#fbfbfb"/><path d="M182.4 296.4h-4.9v6.9h4.9v-6.9Z" fill="#fbfbfb"/><path d="M173.5 296.4h-4.9v6.9h4.9v-6.9Z" fill="#fbfbfb"/><path d="M165 296.4h-4.9v6.9h4.9v-6.9Z" fill="#fbfbfb"/><path d="M156.3 296.4h-4.9v6.9h4.9v-6.9Z" fill="#fbfbfb"/><path d="M147.6 296.4h-4.9v6.9h4.9v-6.9Z" fill="#fbfbfb"/><path d="M138.5 296.4h-4.9v6.9h4.9v-6.9Z" fill="#fbfbfb"/><path d="M129.5 296.4h-4.9v6.9h4.9v-6.9Z" fill="#fbfbfb"/><path d="M121 296.4h-4.9v6.9h4.9v-6.9Z" fill="#fbfbfb"/><path d="M112.4 296.4h-4.9v6.9h4.9v-6.9Z" fill="#fbfbfb"/><path d="M191.6 332.9h-4.9v6.9h4.9v-6.9Z" fill="#fbfbfb"/><path d="M182.4 332.9h-4.9v6.9h4.9v-6.9Z" fill="#fbfbfb"/><path d="M173.5 332.9h-4.9v6.9h4.9v-6.9Z" fill="#fbfbfb"/><path d="M165 332.9h-4.9v6.9h4.9v-6.9Z" fill="#fbfbfb"/><path d="M156.3 332.9h-4.9v6.9h4.9v-6.9Z" fill="#fbfbfb"/><path d="M147.6 332.9h-4.9v6.9h4.9v-6.9Z" fill="#fbfbfb"/><path d="M138.5 332.9h-4.9v6.9h4.9v-6.9Z" fill="#fbfbfb"/><path d="M129.5 332.9h-4.9v6.9h4.9v-6.9Z" fill="#fbfbfb"/><path d="M121 332.9h-4.9v6.9h4.9v-6.9Z" fill="#fbfbfb"/><path d="M112.4 332.9h-4.9v6.9h4.9v-6.9Z" fill="#fbfbfb"/><path d="M128.2 222.6h-1.4v18.1h1.4v-18.1Z" fill="#d5e7f7"/><path d="M190.8 259.4h-4.1v7.1h4.1v-7.1Z" fill="#d5e7f7"/><path d="M150 259.4h-4.2v7.1h4.2v-7.1Z" fill="#d5e7f7"/><path d="M117.5 259.4h-4.1v7.1h4.1v-7.1Z" fill="#d5e7f7"/><path d="M452 275.3h-137.2v80.1h137.2v-80.1Z" fill="#ececec"/><path d="M327.5 283.5h-7.3v11.2h7.3v-11.2Z" fill="#d5e7f7"/><path d="M340.4 283.5h-7.3v11.2h7.3v-11.2Z" fill="#d5e7f7"/><path d="M353.4 283.5h-7.4v11.2h7.4v-11.2Z" fill="#d5e7f7"/><path d="M366.3 283.5h-7.4v11.2h7.4v-11.2Z" fill="#d5e7f7"/><path d="M379.6 283.5h-7.4v11.2h7.4v-11.2Z" fill="#d5e7f7"/><path d="M392.5 283.5h-7.4v11.2h7.4v-11.2Z" fill="#d5e7f7"/><path d="M405.4 283.5h-7.3v11.2h7.3v-11.2Z" fill="#d5e7f7"/><path d="M418.3 283.5h-7.3v11.2h7.3v-11.2Z" fill="#d5e7f7"/><path d="M431.9 283.5h-7.3v11.2h7.3v-11.2Z" fill="#d5e7f7"/><path d="M444.8 283.5h-7.4v11.2h7.4v-11.2Z" fill="#d5e7f7"/><path d="M327.5 300h-7.3v11.2h7.3v-11.2Z" fill="#d5e7f7"/><path d="M340.4 300h-7.3v11.2h7.3v-11.2Z" fill="#d5e7f7"/><path d="M353.4 300h-7.4v11.2h7.4v-11.2Z" fill="#d5e7f7"/><path d="M366.3 300h-7.4v11.2h7.4v-11.2Z" fill="#d5e7f7"/><path d="M379.6 300h-7.4v11.2h7.4v-11.2Z" fill="#d5e7f7"/><path d="M392.5 300h-7.4v11.2h7.4v-11.2Z" fill="#d5e7f7"/><path d="M405.4 300h-7.3v11.2h7.3v-11.2Z" fill="#d5e7f7"/><path d="M418.3 300h-7.3v11.2h7.3v-11.2Z" fill="#d5e7f7"/><path d="M431.9 300h-7.3v11.2h7.3v-11.2Z" fill="#d5e7f7"/><path d="M444.8 300h-7.4v11.2h7.4v-11.2Z" fill="#d5e7f7"/><path d="M327.5 317.7h-7.3v11.2h7.3v-11.2Z" fill="#d5e7f7"/><path d="M340.4 317.7h-7.3v11.2h7.3v-11.2Z" fill="#d5e7f7"/><path d="M353.4 317.7h-7.4v11.2h7.4v-11.2Z" fill="#d5e7f7"/><path d="M366.3 317.7h-7.4v11.2h7.4v-11.2Z" fill="#d5e7f7"/><path d="M379.6 317.7h-7.4v11.2h7.4v-11.2Z" fill="#d5e7f7"/><path d="M392.5 317.7h-7.4v11.2h7.4v-11.2Z" fill="#d5e7f7"/><path d="M405.4 317.7h-7.3v11.2h7.3v-11.2Z" fill="#d5e7f7"/><path d="M418.3 317.7h-7.3v11.2h7.3v-11.2Z" fill="#d5e7f7"/><path d="M431.9 317.7h-7.3v11.2h7.3v-11.2Z" fill="#d5e7f7"/><path d="M444.8 317.7h-7.4v11.2h7.4v-11.2Z" fill="#d5e7f7"/><path d="M327.5 334.2h-7.3v11.2h7.3v-11.2Z" fill="#d5e7f7"/><path d="M340.4 334.2h-7.3v11.2h7.3v-11.2Z" fill="#d5e7f7"/><path d="M353.4 334.2h-7.4v11.2h7.4v-11.2Z" fill="#d5e7f7"/><path d="M366.3 334.2h-7.4v11.2h7.4v-11.2Z" fill="#d5e7f7"/><path d="M379.6 334.2h-7.4v11.2h7.4v-11.2Z" fill="#d5e7f7"/><path d="M392.5 334.2h-7.4v11.2h7.4v-11.2Z" fill="#d5e7f7"/><path d="M405.4 334.2h-7.3v11.2h7.3v-11.2Z" fill="#d5e7f7"/><path d="M418.3 334.2h-7.3v11.2h7.3v-11.2Z" fill="#d5e7f7"/><path d="M431.9 334.2h-7.3v11.2h7.3v-11.2Z" fill="#d5e7f7"/><path d="M444.8 334.2h-7.4v11.2h7.4v-11.2Z" fill="#d5e7f7"/><path d="M404.7 279h28.6v-25l-28.6 11v14Z" fill="#c4d9ed"/><path d="M263.6 355.4h-65.5v-71.1l65.5 22.6v48.5Z" fill="#ececec"/><path d="M261.9 309.3h-62.1v2.2h62.1v-2.2Z" fill="#d5e7f7"/><path d="M261.9 316.3h-62.1v2.2h62.1v-2.2Z" fill="#d5e7f7"/><path d="M261.9 323.4h-62.1v2.2h62.1v-2.2Z" fill="#fbfbfb"/><path d="M261.9 330.5h-62.1v2.2h62.1v-2.2Z" fill="#fbfbfb"/><path d="M261.9 337.6h-62.1v2.2h62.1v-2.2Z" fill="#fbfbfb"/><path d="M261.9 344.6h-62.1v2.2h62.1v-2.2Z" fill="#fbfbfb"/><path d="M438.9 254h-5.6v21.3h5.6v-21.3Z" fill="#c4d9ed"/><path d="M427.3 272v-7.3h-11.2v7.3h11.2Z" fill="#d5e7f7"/><path d="M207.7 118.3h-3.8v32.2h3.8v-32.2Z" fill="#fbfbfb"/><path d="M215.3 118.3h-3.8v32.2h3.8v-32.2Z" fill="#fbfbfb"/><path d="M222.8 118.3h-3.9v32.2h3.9v-32.2Z" fill="#fbfbfb"/><path d="M230.5 118.3h-3.8v32.2h3.8v-32.2Z" fill="#fbfbfb"/><path d="M76.8 354.7c0 0 6.1-11.3 35-8.3c28.9 3.1 41.7 .9 55.9-1.5c14.2-2.4 20.4-2.6 33.9 .7c13.5 3.3 18.2 10 62.3 3.3c44-6.7 64.9-12.2 92.4-7c27.5 5.1 61.3-4.3 95.2 4.5c33.9 8.9 86.2-6.7 112.8 8.3h-487.5Z" fill="#88b374" transform="translate(330.5,344.6) translate(-320.5,-344.6)" style="animation: 4s linear infinite both a0_t;"/><path d="M76.8 354.7c0 0 6.1-11.3 35-8.3c28.9 3.1 41.7 .9 55.9-1.5c14.2-2.4 20.4-2.6 33.9 .7c13.5 3.3 18.2 10 62.3 3.3c44-6.7 64.9-12.2 92.4-7c27.5 5.1 61.3-4.3 95.2 4.5c33.9 8.9 86.2-6.7 112.8 8.3h-487.5Z" fill="#88b374" transform="translate(-220.1,344.6) translate(-320.5,-344.6)" style="animation: 4s linear infinite both a1_t;"/><path d="M617.5 355.7h-594c-0.3 0-0.5-0.2-0.5-0.5c0-0.3 .2-0.5 .5-0.5h594c.3 0 .5 .2 .5 .5c0 .3-0.2 .5-0.5 .5Z" fill="#283250"/><path d="M498.7 264.2h-371.1v54.4h371.1v-54.4Z" fill="#ef6238"/><g style="animation: 4s linear infinite both a3_t;"><g transform="translate(99.5,76.8) rotate(4) scale(0,0) translate(-13.1,-38.3)" style="animation: 4s linear infinite both a2_t;"><path d="M26.2 13.1c-0.8 16.9-12 27.4-12 27.4c0 0-13.4-10.5-14.2-27.4c-0.3-7.2 5.9-13.1 13.1-13.1c7.3 0 13.5 5.9 13.1 13.1Z" fill="#ef6238" stroke="#ef6238" stroke-width=".3" stroke-miterlimit="10"/><path d="M13 20.8c4.7 0 8.5-3.9 8.5-8.6c0-4.7-3.8-8.6-8.5-8.6c-4.8 0-8.6 3.9-8.6 8.6c0 4.7 3.8 8.6 8.6 8.6Z" fill="#e8f5f9"/></g></g><g style="animation: 4s linear infinite both a5_t;"><g transform="translate(295.4,77.3) rotate(4) scale(0,0) translate(-13.1,-38.3)" style="animation: 4s linear infinite both a4_t;"><path d="M26.2 13.1c-0.8 16.9-12 27.4-12 27.4c0 0-13.4-10.5-14.2-27.4c-0.3-7.2 5.9-13.1 13.1-13.1c7.3 0 13.5 5.9 13.1 13.1Z" fill="#ef6238" stroke="#ef6238" stroke-width=".3" stroke-miterlimit="10"/><path d="M13 20.8c4.7 0 8.5-3.9 8.5-8.6c0-4.7-3.8-8.6-8.5-8.6c-4.8 0-8.6 3.9-8.6 8.6c0 4.7 3.8 8.6 8.6 8.6Z" fill="#e8f5f9"/></g></g><g style="animation: 4s linear infinite both a7_t;"><g transform="translate(569.3,133.4) rotate(4) scale(0,0) translate(-13.1,-38.3)" style="animation: 4s linear infinite both a6_t;"><path d="M26.2 13.1c-0.8 16.9-12 27.4-12 27.4c0 0-13.4-10.5-14.2-27.4c-0.3-7.2 5.9-13.1 13.1-13.1c7.3 0 13.5 5.9 13.1 13.1Z" fill="#ef6238" stroke="#ef6238" stroke-width=".3" stroke-miterlimit="10"/><path d="M13 20.8c4.7 0 8.5-3.9 8.5-8.6c0-4.7-3.8-8.6-8.5-8.6c-4.8 0-8.6 3.9-8.6 8.6c0 4.7 3.8 8.6 8.6 8.6Z" fill="#e8f5f9"/></g></g><path d="M4.8 59.7c-0.1 0-0.1-0.1-0.2-0.1c-1.5-0.7-2.3-1.1-2.3-1.1c-0.3-0.1-0.4-0.5-0.2-0.8c.1-0.3 .5-0.4 .8-0.3c0 0 .7 .4 2.2 1.1c.3 .1 .4 .5 .3 .8c-0.1 .2-0.3 .4-0.6 .4Z" fill="#2897b6"/><path d="M574.9 152.9c-0.8 0-1.5 0-2.2 0c-0.3 0-0.6-0.3-0.6-0.7c0-0.3 .3-0.6 .7-0.5c1.6 .1 3.2 0 4.8-0.1c.3 0 .6 .2 .6 .6c.1 .3-0.2 .6-0.5 .7c-1 0-1.9 0-2.8 0Zm-7-0.6c-0.1 0-0.1 0-0.2 0c-1.6-0.3-3.2-0.7-4.8-1.2c-0.3-0.1-0.5-0.5-0.4-0.8c.1-0.3 .4-0.5 .8-0.4c1.5 .5 3.1 .9 4.7 1.2c.3 .1 .5 .4 .4 .7c0 .3-0.3 .5-0.5 .5Zm14.6-0.1c-0.3 0-0.6-0.2-0.6-0.5c-0.1-0.3 .2-0.7 .5-0.7c1.5-0.3 3.1-0.7 4.7-1.2c.3-0.1 .6 0 .8 .4c.1 .3-0.1 .6-0.4 .7c-1.6 .5-3.3 1-4.9 1.3c0 0-0.1 0-0.1 0Zm-24-2.8c-0.1 0-0.2 0-0.3 0c-1.5-0.6-3-1.3-4.5-2.1c-0.3-0.1-0.4-0.5-0.3-0.8c.2-0.3 .6-0.4 .9-0.2c1.4 .7 2.9 1.4 4.4 2c.3 .1 .4 .5 .3 .8c-0.1 .2-0.3 .3-0.5 .3Zm33.4-0.2c-0.3 0-0.5-0.1-0.6-0.3c-0.2-0.3 0-0.7 .3-0.8c1.4-0.7 2.9-1.4 4.4-2.2c.2-0.1 .6 0 .8 .3c.1 .2 0 .6-0.2 .8c-1.5 .8-3 1.5-4.5 2.2c-0.1 0-0.2 0-0.2 0Zm-42.2-4.1c-0.1 0-0.2-0.1-0.3-0.1c-1.4-0.8-2.8-1.8-4.2-2.7c-0.3-0.2-0.3-0.5-0.1-0.8c.2-0.3 .5-0.4 .8-0.2c1.4 .9 2.8 1.8 4.1 2.6c.3 .2 .4 .6 .3 .8c-0.2 .2-0.4 .4-0.6 .4Zm50.8-0.5c-0.2 0-0.4-0.1-0.5-0.3c-0.2-0.3-0.1-0.7 .1-0.9c1.4-0.8 2.7-1.8 4-2.8c.3-0.2 .7-0.1 .9 .1c.2 .3 .2 .7-0.1 .9c-1.4 1-2.7 2-4.1 2.8c-0.1 .1-0.2 .2-0.3 .2Zm-295.1-1.4c-0.3 0-0.6-0.2-0.6-0.6c0-0.3 .3-0.6 .6-0.6c1.6 0 3.2-0.1 4.8-0.3c.4-0.1 .7 .2 .7 .5c.1 .3-0.2 .7-0.5 .7c-1.7 .2-3.4 .3-5 .3Zm-4.9-0.2c0 0 0 0-0.1 0c-1.7-0.3-3.3-0.6-4.9-1c-0.3-0.1-0.5-0.4-0.4-0.8c.1-0.3 .4-0.5 .7-0.4c1.6 .4 3.2 .8 4.8 1c.3 0 .5 .3 .5 .6c0 .3-0.3 .6-0.6 .6Zm14.6-1c-0.2 0-0.5-0.2-0.6-0.4c0-0.4 .2-0.7 .5-0.8c1.6-0.3 3.1-0.8 4.7-1.3c.3-0.1 .6 .1 .8 .4c.1 .3-0.1 .7-0.4 .8c-1.7 .5-3.2 1-4.8 1.3c-0.1 0-0.1 0-0.2 0Zm-24-1.7c-0.1 0-0.2 0-0.3 0c-1.5-0.7-3-1.5-4.4-2.4c-0.2-0.2-0.3-0.6-0.1-0.9c.1-0.3 .5-0.4 .8-0.2c1.4 .9 2.8 1.7 4.2 2.3c.3 .2 .5 .5 .3 .8c-0.1 .3-0.3 .4-0.5 .4Zm250.5-0.7c-0.2 0-0.3-0.1-0.4-0.2c-1.3-0.9-2.6-2-3.9-3c-0.2-0.3-0.3-0.6 0-0.9c.2-0.3 .6-0.3 .8-0.1c1.3 1.1 2.6 2.1 3.8 3.1c.3 .2 .4 .6 .1 .8c-0.1 .2-0.2 .3-0.4 .3Zm-217.2-0.7c-0.2 0-0.4-0.1-0.5-0.3c-0.2-0.4 0-0.7 .3-0.9c.6-0.2 1.2-0.5 1.8-0.8c.8-0.3 1.6-0.8 2.4-1.4c.2-0.2 .6-0.2 .8 .1c.2 .2 .2 .6-0.1 .8c-0.9 .7-1.7 1.3-2.6 1.7c-0.6 .2-1.2 .5-1.8 .8c-0.1 0-0.2 0-0.3 0Zm283.9-0.3c-0.1 0-0.3 0-0.4-0.2c-0.3-0.2-0.2-0.6 0-0.8c1.2-1.1 2.5-2.2 3.6-3.3c.3-0.3 .7-0.2 .9 0c.3 .2 .2 .6 0 .9c-1.2 1.1-2.5 2.2-3.7 3.3c-0.1 .1-0.2 .1-0.4 .1Zm-325.4-3.7c-0.1 0-0.3 0-0.4-0.1c-1.2-1.2-2.4-2.4-3.4-3.7c-0.2-0.3-0.2-0.6 .1-0.8c.2-0.3 .6-0.2 .8 0c1 1.3 2.1 2.5 3.3 3.6c.3 .2 .3 .6 .1 .8c-0.2 .2-0.3 .2-0.5 .2Zm251.1-1.6c-0.1 0-0.3-0.1-0.4-0.2c-1.2-1-2.4-2.2-3.6-3.4c-0.2-0.2-0.2-0.6 0-0.8c.2-0.3 .6-0.3 .8 0c1.3 1.1 2.4 2.3 3.6 3.3c.3 .2 .3 .6 .1 .9c-0.2 .1-0.3 .2-0.5 .2Zm-201.8-0.2c-0.1 0-0.3 0-0.4-0.1c-0.2-0.2-0.2-0.6 0-0.9c.9-1.1 1.9-2.4 2.9-3.8c.2-0.3 .6-0.4 .9-0.2c.3 .2 .3 .6 .1 .9c-1 1.5-2 2.8-3 3.9c-0.1 .2-0.3 .2-0.5 .2Zm283.3-1.2c-0.2 0-0.4-0.1-0.5-0.2c-0.2-0.3-0.2-0.6 0-0.9c1.1-1.1 2.2-2.4 3.3-3.6c.2-0.3 .6-0.3 .9-0.1c.2 .3 .2 .7 0 .9c-1.1 1.3-2.2 2.5-3.3 3.7c-0.1 .1-0.3 .2-0.4 .2Zm-338.7-4.6c-0.2 0-0.4-0.1-0.5-0.3c-0.8-1.5-1.6-3-2.2-4.5c-0.1-0.4 .1-0.7 .4-0.8c.3-0.1 .7 0 .8 .3c.6 1.5 1.2 3 2 4.4c.2 .2 .1 .6-0.2 .8c-0.1 .1-0.2 .1-0.3 .1Zm250.2-0.9c-0.2 0-0.4 0-0.5-0.1c-1.1-1.2-2.2-2.4-3.4-3.6c-0.2-0.2-0.2-0.6 0-0.9c.3-0.2 .7-0.2 .9 .1c1.1 1.2 2.3 2.4 3.4 3.5c.2 .2 .2 .6 0 .9c-0.1 .1-0.3 .1-0.4 .1Zm-189.1-1.3c-0.1 0-0.2 0-0.3-0.1c-0.3-0.1-0.4-0.5-0.2-0.8c.8-1.3 1.6-2.7 2.5-4.2c.2-0.3 .6-0.4 .8-0.2c.3 .1 .4 .5 .3 .8c-0.9 1.6-1.8 2.9-2.6 4.2c-0.1 .2-0.3 .3-0.5 .3Zm284-0.7c-0.1 0-0.2 0-0.4-0.1c-0.2-0.2-0.3-0.6 0-0.9c1-1.2 2-2.5 3-3.8c.2-0.3 .5-0.4 .8-0.2c.3 .2 .3 .6 .1 .9c-0.9 1.3-2 2.6-3 3.9c-0.1 .2-0.3 .2-0.5 .2Zm-334.2-4.7c-1.1 0-2.2-0.1-3.3-0.1c-0.3-0.1-0.6-0.3-0.6-0.7c0-0.3 .3-0.6 .7-0.6c1.7 .1 3.3 .2 4.8 .1c.4 0 .7 .3 .7 .6c0 .4-0.3 .6-0.6 .7c-0.6 0-1.1 0-1.7 0Zm232.5-0.4c-0.2 0-0.3-0.1-0.5-0.2c-1.1-1.2-2.1-2.4-3.2-3.7c-0.3-0.2-0.2-0.6 0-0.8c.2-0.2 .6-0.2 .9 0c1 1.2 2.1 2.5 3.2 3.7c.3 .2 .2 .6 0 .8c-0.1 .1-0.2 .2-0.4 .2Zm-226-0.2c-0.3 0-0.5-0.2-0.6-0.5c-0.1-0.4 .1-0.7 .5-0.7c1.7-0.4 3.2-0.9 4.5-1.5c.3-0.2 .7-0.1 .8 .2c.2 .3 0 .7-0.3 .9c-1.4 .6-3 1.2-4.8 1.5c0 .1 0 .1-0.1 .1Zm-14.7-0.1c0 0 0 0 0 0c-1.6-0.2-3.2-0.5-4.9-0.9c-0.4 0-0.6-0.4-0.5-0.7c.1-0.3 .4-0.5 .7-0.5c1.7 .4 3.3 .7 4.8 .9c.4 0 .6 .3 .5 .7c0 .3-0.3 .5-0.6 .5Zm-6.2-0.9c-0.3 0-0.5-0.2-0.6-0.4c-0.3-1.7-0.5-3.3-0.6-5c0-0.3 .2-0.6 .6-0.6c.3 0 .6 .2 .6 .6c.1 1.5 .3 3.1 .6 4.7c.1 .3-0.1 .7-0.4 .7c-0.1 0-0.1 0-0.2 0Zm69.6-1.5c-0.1 0-0.2 0-0.3-0.1c-0.3-0.1-0.4-0.5-0.3-0.8c.8-1.4 1.6-2.8 2.4-4.3c.2-0.3 .5-0.4 .9-0.2c.3 .1 .4 .5 .2 .8c-0.8 1.5-1.6 2.9-2.4 4.3c-0.1 .2-0.3 .3-0.5 .3Zm-72.8 0c-0.1 0-0.2-0.1-0.4-0.2c-0.9-0.8-1.9-2.2-3-4.1c-0.1-0.3 0-0.7 .3-0.8c.3-0.2 .6-0.1 .8 .2c1 1.8 1.9 3 2.8 3.8c.2 .2 .2 .6 0 .9c-0.1 .1-0.3 .2-0.5 .2Zm357.7 0c-0.1 0-0.3-0.1-0.4-0.1c-0.3-0.2-0.3-0.6-0.1-0.9c.9-1.3 1.8-2.7 2.7-4.1c.2-0.3 .5-0.3 .8-0.1c.3 .1 .4 .5 .2 .8c-0.9 1.4-1.8 2.7-2.7 4.1c-0.1 .2-0.3 .3-0.5 .3Zm-324.9-1.8c-0.2 0-0.3-0.1-0.4-0.2c-0.3-0.3-0.3-0.7 0-0.9c1.3-1.2 2.3-2.5 3.1-3.6l1 .7c-0.9 1.2-1.9 2.6-3.3 3.8c-0.1 .1-0.2 .2-0.4 .2Zm210.8-2.9c-0.2 0-0.4 0-0.5-0.2c-1.1-1.2-2.1-2.5-3.2-3.7c-0.2-0.3-0.2-0.6 0-0.9c.3-0.2 .7-0.2 .9 .1c1.1 1.2 2.2 2.5 3.2 3.7c.2 .3 .2 .7 0 .9c-0.1 .1-0.3 .1-0.4 .1Zm-240.8-3.5c0 0 0 0-0.1 0c-0.3-0.1-0.5-0.4-0.5-0.7c.2-1.7 .6-3.3 1.1-4.9c.1-0.3 .5-0.5 .8-0.4c.3 .1 .5 .5 .4 .8c-0.5 1.5-0.9 3-1.1 4.7c0 .3-0.3 .5-0.6 .5Zm-7.8-0.2c-0.2 0-0.4-0.1-0.5-0.3c-0.6-1.3-1.2-2.7-2-4.6c-0.1-0.3 0-0.6 .3-0.8c.3-0.1 .7 0 .8 .4c.8 1.8 1.4 3.2 2 4.4c.1 .4 0 .7-0.3 .9c-0.1 0-0.2 0-0.3 0Zm82.5-0.2c-0.1 0-0.2 0-0.3-0.1c-0.3-0.1-0.4-0.5-0.2-0.8c.8-1.5 1.5-2.9 2.3-4.3c.2-0.3 .6-0.4 .9-0.3c.3 .2 .4 .6 .2 .9c-0.8 1.4-1.5 2.8-2.3 4.3c-0.2 .2-0.4 .3-0.6 .3Zm-38.4-0.7c-0.1 0-0.2-0.1-0.3-0.1c-0.3-0.2-0.4-0.6-0.2-0.9c.7-1.2 1.1-2.7 1.2-4.4c0-0.3 .3-0.6 .6-0.6c.3 .1 .6 .3 .6 .7c-0.1 1.8-0.5 3.5-1.4 4.9c-0.1 .2-0.3 .4-0.5 .4Zm198-2.8c-0.2 0-0.3 0-0.4-0.2c-1.1-1.2-2.2-2.5-3.3-3.7c-0.2-0.3-0.2-0.6 .1-0.9c.2-0.2 .6-0.2 .8 .1c1.1 1.2 2.2 2.5 3.3 3.7c.2 .3 .2 .6-0.1 .9c-0.1 .1-0.2 .1-0.4 .1Zm-154.9-5.1c-0.1 0-0.2-0.1-0.3-0.1c-0.3-0.2-0.4-0.6-0.2-0.9c.8-1.4 1.6-2.8 2.4-4.3c.2-0.3 .6-0.4 .8-0.2c.3 .2 .4 .6 .3 .8c-0.9 1.5-1.7 2.9-2.5 4.3c0 .2-0.3 .4-0.5 .4Zm-91-0.2c-0.3 0-0.5-0.2-0.6-0.4c-0.6-1.5-1.3-3-1.9-4.5c-0.1-0.3 0-0.7 .3-0.9c.3-0.1 .7 0 .8 .4c.7 1.5 1.3 3 1.9 4.5c.2 .3 0 .7-0.3 .8c-0.1 0-0.2 .1-0.2 .1Zm14.7-0.1c-0.1 0-0.2 0-0.3-0.1c-0.3-0.2-0.4-0.5-0.3-0.8c.9-1.5 1.8-2.9 2.9-4.1c.2-0.3 .6-0.3 .9-0.1c.3 .2 .3 .6 .1 .9c-1.1 1.2-2 2.5-2.8 3.9c-0.1 .2-0.3 .3-0.5 .3Zm33.8-1.4c-0.3 0-0.5-0.2-0.6-0.4c-0.5-1.5-1.1-2.9-2-4.3c-0.2-0.3-0.1-0.7 .2-0.9c.3-0.2 .7-0.1 .8 .2c.9 1.5 1.7 3 2.2 4.6c0 .4-0.1 .7-0.4 .8c-0.1 0-0.2 0-0.2 0Zm190.9-0.6c-0.2 0-0.3 0-0.5-0.2c-1.1-1.2-2.2-2.4-3.3-3.6c-0.2-0.2-0.2-0.6 .1-0.8c.2-0.3 .6-0.3 .8 0c1.2 1.2 2.3 2.4 3.4 3.6c.2 .3 .2 .7-0.1 .9c-0.1 .1-0.3 .1-0.4 .1Zm-218.3-5.4c-0.2 0-0.4-0.1-0.5-0.2c-0.2-0.3-0.2-0.7 .1-0.9c1.3-1 2.7-1.9 4.2-2.7c.3-0.2 .7 0 .8 .2c.2 .3 .1 .7-0.2 .9c-1.4 .7-2.8 1.6-4 2.6c-0.2 .1-0.3 .1-0.4 .1Zm74.8-0.9c-0.1 0-0.2 0-0.3-0.1c-0.2-0.1-0.3-0.5-0.2-0.8c.9-1.5 1.8-2.9 2.6-4.2c.2-0.3 .6-0.4 .8-0.2c.3 .2 .4 .5 .2 .8c-0.8 1.4-1.7 2.8-2.5 4.2c-0.1 .2-0.3 .3-0.6 .3Zm-99.9-0.7c-0.2 0-0.4-0.1-0.5-0.3c-0.7-1.6-1.4-3.1-2.1-4.5c-0.2-0.3 0-0.6 .3-0.8c.3-0.1 .7 0 .8 .3c.7 1.4 1.4 2.9 2.1 4.5c.1 .3 0 .6-0.3 .8c-0.1 0-0.2 0-0.3 0Zm236.7-0.2c-0.1 0-0.3 0-0.4-0.2c-1.2-1.2-2.4-2.4-3.4-3.5c-0.3-0.2-0.3-0.6 0-0.8c.2-0.3 .6-0.3 .8 0c1.1 1.1 2.3 2.3 3.5 3.5c.2 .2 .2 .6-0.1 .8c-0.1 .2-0.2 .2-0.4 .2Zm-189.4-0.4c-0.1 0-0.3-0.1-0.4-0.2c-1.2-1.1-2.5-2-3.9-2.5c-0.3-0.2-0.5-0.5-0.4-0.8c.2-0.3 .5-0.5 .8-0.3c1.5 .6 3 1.5 4.3 2.7c.3 .2 .3 .6 .1 .9c-0.2 .1-0.3 .2-0.5 .2Zm-200.9-2.4c-0.4 0-0.6-0.3-0.7-0.6c0-0.3 .3-0.6 .6-0.7h.3c1.5 0 3-0.1 4.6-0.3c.3 0 .6 .2 .6 .6c.1 .3-0.2 .6-0.5 .7c-1.6 .1-3.2 .2-4.7 .3h-0.2c0 0 0 0 0 0Zm-5 0c-1.6-0.1-3.3-0.2-4.9-0.3c-0.4 0-0.6-0.3-0.6-0.6c0-0.4 .3-0.6 .7-0.6c1.6 .1 3.3 .2 4.8 .2c.4 0 .6 .3 .6 .7c.1 .3-0.2 .6-0.6 .6Zm192.3 0c-0.3 0-0.5-0.2-0.6-0.4c-0.1-0.3 0-0.7 .4-0.8c.8-0.3 1.6-0.6 2.4-0.8c.8-0.2 1.7-0.4 2.5-0.4c.3 0 .6 .2 .6 .6c.1 .3-0.2 .6-0.5 .6c-0.8 0-1.5 .1-2.3 .4c-0.7 .2-1.5 .5-2.3 .7c-0.1 .1-0.2 .1-0.2 .1Zm-202.1-0.7c0 0 0 0 0 0c-1.6-0.2-3.3-0.4-4.9-0.7c-0.4 0-0.6-0.4-0.5-0.7c0-0.3 .3-0.6 .7-0.5c1.6 .2 3.3 .4 4.8 .6c.4 .1 .6 .4 .6 .7c-0.1 .3-0.4 .6-0.7 .6Zm24.5-0.4c-0.3 0-0.6-0.2-0.6-0.5c-0.1-0.3 .2-0.6 .5-0.7c1.6-0.3 3.1-0.7 4.7-1.1c.4-0.1 .7 .1 .8 .5c.1 .3-0.1 .6-0.5 .7c-1.6 .4-3.2 .8-4.8 1.1c0 0-0.1 0-0.1 0Zm-34.2-1.1c0 0-0.1 0-0.1 0c-1.6-0.3-3.2-0.6-4.9-0.9c-0.3-0.1-0.5-0.4-0.4-0.8c0-0.3 .4-0.5 .7-0.5c1.6 .4 3.2 .7 4.8 1c.3 .1 .6 .4 .5 .7c-0.1 .3-0.3 .5-0.6 .5Zm43.7-1.4c-0.3 0-0.5-0.1-0.6-0.4c-0.1-0.3 .1-0.6 .4-0.8c1.5-0.5 3.1-1 4.6-1.6c.3-0.2 .7 0 .8 .3c.1 .3 0 .7-0.3 .8c-1.6 .6-3.2 1.2-4.7 1.7c-0.1 0-0.1 0-0.2 0Zm364.2-0.5c-0.2 0-0.4-0.1-0.5-0.2c-1.2-1.1-2.4-2.2-3.6-3.3c-0.2-0.2-0.2-0.6 0-0.8c.2-0.3 .6-0.3 .9-0.1c1.1 1.1 2.4 2.2 3.6 3.3c.2 .3 .2 .7 0 .9c-0.1 .1-0.3 .2-0.4 .2Zm-417.5-0.1c-0.1 0-0.1 0-0.2 0c-1.5-0.4-3.1-0.8-4.7-1.2c-0.4-0.1-0.6-0.5-0.5-0.8c.1-0.3 .4-0.5 .8-0.4c1.6 .4 3.2 .8 4.7 1.1c.4 .1 .6 .4 .5 .8c-0.1 .3-0.4 .5-0.6 .5Zm292.9-0.4c-0.1 0-0.2 0-0.3-0.1c-0.3-0.2-0.4-0.6-0.2-0.8c1-1.5 1.9-2.8 2.9-4.1c.2-0.2 .5-0.3 .8-0.1c.3 .2 .3 .6 .2 .8c-1 1.3-1.9 2.6-2.9 4.1c-0.1 .1-0.3 .2-0.5 .2Zm-109.5-1.2c-0.2 0-0.4-0.1-0.5-0.3c-0.8-1.5-1.6-2.9-2.4-4.3c-0.2-0.3-0.1-0.7 .2-0.9c.3-0.1 .7 0 .9 .3c.7 1.3 1.6 2.8 2.4 4.3c.1 .3 0 .6-0.3 .8c-0.1 0-0.2 .1-0.3 .1Zm-193-0.9c0 0-0.1 0-0.1 0c-1.6-0.4-3.2-0.9-4.8-1.4c-0.3 0-0.5-0.4-0.4-0.7c.1-0.4 .5-0.5 .8-0.4c1.6 .4 3.2 .9 4.7 1.3c.4 .1 .5 .4 .4 .8c0 .3-0.3 .4-0.6 .4Zm72-0.5c-0.2 0-0.4-0.1-0.5-0.3c-0.1-0.3 0-0.7 .3-0.8c1.4-0.7 2.9-1.4 4.4-2.1c.3-0.2 .7 0 .8 .2c.2 .4 0 .7-0.2 .9c-1.6 .7-3.1 1.4-4.5 2.1c-0.1 0-0.2 0-0.3 0Zm-81.4-2.3c-0.1 0-0.1 0-0.2 0c-1.6-0.5-3.1-1-4.7-1.5c-0.3-0.1-0.5-0.5-0.4-0.8c.1-0.3 .5-0.5 .8-0.4c1.5 .5 3.1 1 4.7 1.5c.3 .2 .5 .5 .4 .8c-0.1 .3-0.3 .4-0.6 .4Zm429.1-1.1c-0.1 0-0.3-0.1-0.4-0.2c-1.2-1-2.5-2.1-3.8-3c-0.2-0.2-0.3-0.6-0.1-0.9c.2-0.2 .6-0.3 .9-0.1c1.2 1 2.5 2 3.8 3.1c.3 .2 .3 .6 .1 .9c-0.1 .1-0.3 .2-0.5 .2Zm-338.9-0.9c-0.2 0-0.4-0.1-0.5-0.3c-0.2-0.4-0.1-0.7 .2-0.9c1.4-0.7 2.8-1.5 4.3-2.3c.3-0.2 .7-0.1 .9 .2c.1 .3 0 .7-0.3 .8c-1.5 .9-2.9 1.7-4.3 2.4c-0.1 .1-0.2 .1-0.3 .1Zm227.6-1c-0.2 0-0.3 0-0.4-0.1c-0.3-0.2-0.3-0.6-0.1-0.9c1.1-1.3 2.2-2.6 3.2-3.7c.2-0.3 .6-0.3 .9-0.1c.2 .3 .2 .7 0 .9c-1 1.1-2.1 2.4-3.2 3.7c-0.1 .1-0.3 .2-0.4 .2Zm-327.1-0.1c-0.1 0-0.2 0-0.2 0c-1.6-0.6-3.2-1.1-4.7-1.7c-0.3-0.1-0.4-0.5-0.3-0.8c.1-0.3 .4-0.5 .8-0.4c1.5 .6 3 1.1 4.6 1.7c.3 .1 .5 .5 .4 .8c-0.1 .3-0.4 .4-0.6 .4Zm206.7-1.7c-0.2 0-0.4-0.1-0.5-0.3c-0.9-1.4-1.8-2.7-2.8-4c-0.2-0.3-0.1-0.6 .2-0.8c.2-0.2 .6-0.2 .8 .1c1 1.3 1.9 2.6 2.9 4c.1 .3 .1 .7-0.2 .9c-0.1 .1-0.2 .1-0.4 .1Zm-216-1.7c0 0-0.1 0-0.2 0c-1.6-0.6-3.1-1.2-4.6-1.8c-0.3-0.1-0.4-0.5-0.3-0.8c.1-0.3 .5-0.4 .8-0.3c1.4 .6 3 1.1 4.6 1.7c.3 .1 .4 .5 .3 .8c-0.1 .3-0.3 .4-0.6 .4Zm117.4-0.3c-0.2 0-0.4-0.1-0.5-0.3c-0.2-0.3-0.1-0.7 .2-0.9c1.4-0.8 2.8-1.6 4.2-2.5c.3-0.2 .7-0.1 .9 .2c.1 .3 .1 .7-0.3 .9c-1.4 .8-2.8 1.7-4.2 2.5c-0.1 0-0.2 .1-0.3 .1Zm322.5-0.3c-0.1 0-0.2 0-0.3-0.1c-1.4-1-2.7-1.9-4.1-2.7c-0.3-0.2-0.4-0.6-0.2-0.9c.2-0.2 .6-0.3 .9-0.2c1.3 .9 2.7 1.8 4.1 2.8c.3 .2 .3 .5 .1 .8c-0.1 .2-0.3 .3-0.5 .3Zm-449-3c-0.1 0-0.2 0-0.3 0c-1.6-0.6-3.1-1.3-4.5-1.9c-0.3-0.1-0.5-0.5-0.4-0.8c.2-0.3 .5-0.4 .8-0.3c1.5 .6 3 1.2 4.6 1.9c.3 .1 .4 .4 .3 .7c-0.1 .3-0.3 .4-0.5 .4Zm352.1-0.1c-0.1 0-0.3 0-0.4-0.2c-0.2-0.2-0.2-0.6 .1-0.8c1.2-1.2 2.5-2.2 3.8-3.2c.3-0.2 .7-0.1 .8 .1c.2 .3 .2 .7-0.1 .9c-1.2 .9-2.5 2-3.7 3.1c-0.1 .1-0.3 .1-0.5 .1Zm-217.1-1.7c-0.3 0-0.5-0.1-0.6-0.3c-0.1-0.3 0-0.6 .3-0.8c1.4-0.8 2.8-1.7 4.2-2.5c.3-0.2 .7-0.1 .9 .2c.1 .3 0 .7-0.3 .8c-1.4 .9-2.8 1.7-4.2 2.5c-0.1 .1-0.2 .1-0.3 .1Zm305.7-0.4c-0.1 0-0.2-0.1-0.3-0.1c-1.4-0.8-2.9-1.6-4.3-2.3c-0.3-0.2-0.4-0.5-0.3-0.8c.1-0.3 .5-0.4 .8-0.3c1.5 .7 2.9 1.5 4.4 2.3c.3 .2 .4 .5 .2 .8c-0.1 .2-0.3 .4-0.5 .4Zm-221.4-0.4c-0.2 0-0.4 0-0.5-0.2c-1.1-1.2-2.2-2.4-3.3-3.5c-0.3-0.3-0.3-0.6 0-0.9c.2-0.2 .6-0.2 .8 0c1.2 1.1 2.3 2.4 3.4 3.7c.2 .2 .2 .6-0.1 .8c-0.1 .1-0.2 .1-0.3 .1Zm-228.4-1.2c-0.1 0-0.2 0-0.3 0c-1.6-0.8-3.1-1.4-4.5-2c-0.3-0.2-0.4-0.5-0.3-0.9c.2-0.3 .5-0.4 .9-0.3c1.3 .6 2.8 1.3 4.5 2c.3 .2 .4 .6 .3 .9c-0.1 .2-0.4 .3-0.6 .3Zm369.2-2.1c-0.3 0-0.5-0.1-0.6-0.3c-0.1-0.3 0-0.6 .3-0.8c1.5-0.8 3-1.5 4.5-2c.4-0.1 .7 0 .8 .3c.1 .4 0 .7-0.4 .8c-1.4 .5-2.9 1.2-4.3 2c-0.1 0-0.2 0-0.3 0Zm71.8-0.7c-0.1 0-0.1 0-0.2 0c-1.5-0.6-3.1-1.2-4.6-1.8c-0.3-0.1-0.5-0.4-0.4-0.8c.2-0.3 .5-0.4 .8-0.3c1.6 .5 3.1 1.1 4.7 1.7c.3 .2 .4 .5 .3 .8c-0.1 .3-0.3 .4-0.6 .4Zm-288.4-0.1c-0.2 0-0.4-0.1-0.5-0.3c-0.2-0.3-0.1-0.7 .2-0.8c1.5-0.9 3-1.7 4.3-2.4c.3-0.2 .7-0.1 .9 .2c.1 .3 0 .7-0.3 .9c-1.4 .7-2.8 1.5-4.3 2.3c-0.1 .1-0.2 .1-0.3 .1Zm225.8-2.5c-0.3 0-0.6-0.2-0.6-0.4c-0.1-0.4 .1-0.7 .4-0.8c1.6-0.4 3.2-0.8 4.8-1.1c.3-0.1 .7 .1 .7 .4c.1 .4-0.1 .7-0.4 .7c-1.6 .4-3.2 .8-4.8 1.2c0 0-0.1 0-0.1 0Zm-157-0.2c-0.2 0-0.3-0.1-0.4-0.2c-1.3-1-2.6-2-3.9-2.9c-0.3-0.1-0.4-0.5-0.2-0.8c.2-0.3 .6-0.4 .8-0.2c1.4 .9 2.7 1.9 4 2.9c.3 .3 .3 .6 .1 .9c-0.1 .2-0.3 .3-0.4 .3Zm210.3-0.4c0 0-0.1 0-0.1-0.1c-1.6-0.4-3.2-0.8-4.8-1.2c-0.3 0-0.5-0.4-0.4-0.7c.1-0.3 .4-0.5 .7-0.5c1.6 .4 3.2 .8 4.8 1.3c.3 .1 .5 .4 .4 .7c0 .3-0.3 .5-0.6 .5Zm-43.7-1.5c-0.3 0-0.6-0.2-0.6-0.5c-0.1-0.3 .1-0.6 .4-0.7c1.7-0.3 3.3-0.5 4.9-0.8c.4 0 .7 .2 .7 .5c.1 .4-0.2 .7-0.5 .7c-1.6 .3-3.2 .5-4.9 .8c0 0 0 0 0 0Zm-226.7 0c-0.2 0-0.5-0.1-0.6-0.4c-0.1-0.3 0-0.6 .3-0.8c1.5-0.7 3.1-1.4 4.5-2.1c.3-0.1 .7 0 .8 .3c.1 .4 0 .7-0.3 .9c-1.4 .6-2.9 1.3-4.4 2c-0.1 .1-0.2 .1-0.3 .1Zm260.9-0.7c0 0-0.1 0-0.1 0c-1.6-0.2-3.2-0.5-4.8-0.6c-0.4-0.1-0.6-0.4-0.6-0.7c0-0.3 .4-0.6 .7-0.6c1.6 .2 3.3 .4 4.9 .7c.3 .1 .5 .4 .5 .7c-0.1 .3-0.3 .5-0.6 .5Zm-24.5-0.6c-0.3 0-0.6-0.3-0.6-0.6c0-0.3 .2-0.6 .5-0.7c1.7-0.1 3.4-0.2 5-0.3c.3-0.1 .6 .2 .6 .5c0 .4-0.2 .7-0.6 .7c-1.5 .1-3.2 .2-4.8 .3c0 .1-0.1 .1-0.1 .1Zm14.7-0.4c-1.5-0.1-3.1-0.1-4.7-0.1h-0.2c-0.3 0-0.6-0.3-0.6-0.6c0-0.4 .3-0.7 .6-0.7h.2c1.6 0 3.2 .1 4.7 .1c.4 .1 .6 .4 .6 .7c0 .3-0.2 .6-0.6 .6Zm-199.2-1.8c-0.1 0-0.2-0.1-0.3-0.1c-1.4-0.7-2.9-1.4-4.4-1.9c-0.3-0.2-0.5-0.5-0.4-0.8c.1-0.4 .5-0.5 .8-0.4c1.6 .6 3.1 1.3 4.6 2c.3 .2 .4 .5 .2 .8c-0.1 .2-0.3 .4-0.5 .4Zm-42.9-0.4c-0.3 0-0.5-0.2-0.6-0.4c-0.1-0.3 0-0.7 .4-0.8c1.5-0.6 3.1-1.2 4.6-1.6c.4-0.1 .7 0 .8 .4c.1 .3-0.1 .6-0.4 .7c-1.5 .5-3.1 1-4.6 1.6c-0.1 0-0.2 .1-0.2 .1Zm9.4-2.9c-0.3 0-0.6-0.2-0.6-0.5c-0.1-0.3 .1-0.7 .4-0.7c1.7-0.4 3.3-0.7 4.9-1c.3 0 .7 .2 .7 .6c.1 .3-0.2 .6-0.5 .7c-1.6 .2-3.2 .5-4.8 .9c0 0-0.1 0-0.1 0Zm24.3-0.2c0 0-0.1 0-0.2 0c-1-0.2-2.1-0.4-3.1-0.6c-0.5-0.1-1.1-0.2-1.6-0.3c-0.3 0-0.6-0.3-0.5-0.6c0-0.4 .3-0.6 .7-0.6c.5 .1 1 .2 1.6 .3c1.1 .1 2.2 .4 3.2 .6c.4 .1 .6 .4 .5 .8c-0.1 .3-0.3 .4-0.6 .4Zm-14.6-1.2c-0.4 0-0.6-0.3-0.6-0.6c-0.1-0.3 .2-0.6 .5-0.6c1.7-0.1 3.3-0.2 5-0.1c.3 0 .6 .3 .6 .6c0 .4-0.3 .7-0.6 .6c-1.7 0-3.3 0-4.9 .1c0 0 0 0 0 0Z" fill="#222"/><path d="M633.2 108.1c-0.1 0-0.3 0-0.3 0c-0.3-0.2-0.4-0.6-0.3-0.9c.8-1.3 1.2-2.1 1.2-2.1c.2-0.3 .6-0.4 .9-0.3c.3 .2 .4 .6 .2 .9c0 0-0.4 .8-1.2 2.1c-0.1 .2-0.3 .3-0.5 .3Z" fill="#2897b6"/><path d="M616.3 355.7c3.5-7-4.5-18.4-24.3-21.2c-0.1 0 48 0 48 0l-2.1 21.2c0 0-21.6 0-21.6 0Z" fill="#fff"/><path d="M23.7 355.7c-2.9-8.9 4.5-18.4 24.3-21.2c.1 0-49 0-49 0v21.2c0 0 24.7 0 24.7 0Z" fill="#fff"/><g transform="translate(314.4,312.5) translate(-211,-121.8)" style="animation: 4s linear infinite both a8_t;"><g opacity=".5" transform="translate(-104.3,-191.2)"><path d="M498.7 264.2h-371.1v54.4h371.1v-54.4Z" fill="#000"/></g><path d="M120 42.4c0 0-52.7 3.9-72.2 8.3c-13.7 3.1-40.3 8.4-40 25l2.1 12c0 0-9.8 4.5-9.8 15.9c0 11.5-2.4 29.3 20.6 30c3.7 .1 10.9 0 10.9 0c0 0-4.4-48.9 40.6-50.3c45.8-1.5 42.7 49.8 42.7 49.8h190.9c0 0-7.9-49.9 41.4-50c49.2-0.1 41.8 50.4 41.8 50.4c0 0 18.1 1.5 26.5-13.7c8.4-15.2 6.2-26 6.2-26l-0.2-9.6c-0.1-3.3-2.8-5.9-6-6c0 0 3.3-24.2-1.8-28.4c-5-4.2-32.7-29.5-32.7-29.5l1.3-0.8c2.2-1.4 1.8-4.7-0.6-5.6c-10.5-3.6-31.3-10.7-36.2-12.4c-0.7-0.3-1.5-0.4-2.3-0.5c-2.9-0.2-11.1-0.7-26.3-0.9c-18.4-0.2-91.7 0-91.7 0c0 0-25.2 2.1-39.2 8.2c-14.8 6.5-66 34.1-66 34.1Z" fill="#ef6238"/><g opacity=".4" transform="translate(-104.3,-191.2)"><path d="M117.7 293.5c-1.9-0.4-4.8-0.4-6.3 .9c-1.1 1-1.3 2.5-1.5 3.9c-0.2 2-0.3 4 .1 6c.5 1.9 1.6 3.7 3.4 4.7c1.7 .9 4.1 .8 5.5-0.7c1.2-1.3 1.4-3.3 1.3-5.1c0-2.6 .2-4.8-0.3-7.3c-0.1-0.5-0.3-1.1-0.6-1.5c-0.5-0.6-0.9-0.9-1.6-0.9Z" fill="#000"/></g><path d="M9.9 87.7c5.6 0 11-0.3 16.6-0.7c.6 0 1.3-0.1 1.7-0.5c.6-0.5 .6-1.3 .6-2c0-3-0.1-6.4-2.4-8.4c-1.4-1.2-3.3-1.6-5.1-1.7c-4.5-0.4-9.2-0.1-13.5 1.3l2.1 12Z" fill="#fafafa"/><path d="M126.1 131.6c0 0 0-0.2-0.1-0.5c0-0.3 0-0.8-0.1-1.4c0-1.2-0.1-3-0.2-5.3c-0.2-2.4-0.3-5.3-0.7-8.6c-0.3-3.3-0.8-7-1.9-11.1c-1.1-4-2.9-8.3-5.4-12.5c-2.6-4.2-5.9-8.4-10.4-11.6c-9-6.4-21.2-10-34-10.2c-12.8-0.1-24.9 3.9-33.7 10.6c-4.5 3.3-8.1 7.2-11 11.2c-2.8 4-4.9 8.1-6.4 12c-1.5 3.9-2.2 7.7-2.7 10.9c-0.5 3.3-0.4 6.2-0.3 8.5c.2 2.4 .4 4.2 .7 5.4c.1 .6 .1 1.1 .2 1.4c.1 .3 .1 .5 .1 .5c0 0-0.1-0.2-0.1-0.5c-0.1-0.3-0.2-0.8-0.3-1.4c-0.3-1.2-0.5-3-0.8-5.3c0-2.4-0.1-5.3 .3-8.6c.4-3.3 1.2-7 2.7-11c1.4-3.9 3.5-8.1 6.4-12.1c2.8-4.1 6.5-7.9 11-11.3c8.8-6.7 21.1-10.8 33.9-10.7c12.8 .2 25.1 3.8 34.2 10.3c4.5 3.3 7.9 7.5 10.4 11.7c2.6 4.3 4.3 8.6 5.4 12.6c1.1 4.1 1.6 7.9 2 11.2c.3 3.3 .4 6.2 .5 8.5c.1 2.4 .2 4.2 .3 5.4c0 .6 0 1.1 0 1.4c0 .3 0 .5 0 .5Z" fill="#fff"/><path d="M128.1 132.4c0 0 0-0.1 0-0.4c0-0.2-0.1-0.6-0.1-1.1c0-1.1-0.1-2.6-0.1-4.7c-0.1-4-0.3-10-0.5-17.5c-0.2-7.5-0.5-16.7-0.8-27.2c0-2.6-0.1-5.3-0.2-8.1c-0.1-1.4 .1-2.8 .2-4.2c.1-0.7 .2-1.5 .3-2.2c.2-0.7 .3-1.4 .5-2.1c.6-2.9 1.6-5.8 2.9-8.6c1.4-2.8 2.9-5.6 4.9-8.1h.1v-0.1c10.2-6.4 21.3-13.4 33-20.8c3-1.8 5.9-3.7 9-5.6c2.9-2 6.1-3.7 9.4-5.2c3.3-1.6 6.8-2.9 10.3-4.1c1.7-0.6 3.5-1.1 5.3-1.7c1.9-0.4 3.7-0.9 5.5-1.3c7.1-1.6 14.3-2.4 21.3-2.7c7.1-0.3 14-0.3 20.7 .1h.2l-0.1 .2c-3.1 14.1-6.1 27.4-8.9 39.6v.1c-1.7 2.7-3 5.6-4 8.5c-0.9 2.9-1.5 5.9-1.3 8.8c.2 3 .3 5.8 .3 8.6c.1 2.8 .2 5.5 .2 8.2c.2 10.4 .2 19.6 .2 27.1c0 7.5 0 13.5 0 17.5c0 2 0 3.6 0 4.7c0 .5 0 .9 0 1.1c0 .3 0 .4 0 .4c0 0 0-0.1 0-0.4c0-0.3 0-0.6 0-1.1c0-1.1-0.1-2.6-0.1-4.7c0-4 0-9.9-0.1-17.5c0-7.5-0.1-16.7-0.2-27.1c-0.1-2.7-0.2-5.4-0.2-8.2c-0.1-2.8-0.2-5.6-0.4-8.5c-0.2-3 .4-6 1.3-9c1-2.9 2.3-5.8 4-8.6v.1c2.7-12.2 5.7-25.6 8.9-39.7l.1 .2c-6.7-0.4-13.6-0.4-20.6-0.1c-7 .4-14.1 1.1-21.2 2.7c-1.9 .4-3.7 .9-5.5 1.4c-1.8 .5-3.6 1-5.3 1.6c-3.5 1.2-6.9 2.5-10.3 4.1c-3.2 1.6-6.4 3.3-9.4 5.2c-3 1.9-6 3.8-8.9 5.7c-11.7 7.3-22.9 14.3-33.1 20.7h.1c-2 2.5-3.6 5.3-4.9 8c-1.3 2.8-2.3 5.7-3 8.5c-1.5 5.8-0.7 11.4-0.7 16.6c.2 10.5 .5 19.7 .7 27.2c.2 7.5 .3 13.5 .4 17.5c0 2 .1 3.6 .1 4.7c0 .5 0 .9 0 1.1c0 .3 0 .4 0 .4Z" fill="#263238"/><path d="M249.5 7.9c0 0 .1 0 .3 0c.2 0 .5-0.1 .9-0.1c.9 0 2.1 0 3.6-0.1c3.1 0 7.6-0.1 13.2-0.2c11.2-0.2 26.7-0.5 44.4-0.8h.1v.1c2 2.4 4.1 5 6.2 7.6c6.3 7.7 12.3 15 17.8 21.7c.7 .9 1.3 1.7 2 2.5c.7 .9 1.2 1.7 1.7 2.7c.8 1.9 1.3 3.9 1.3 5.8c0 1.9-0.4 3.8-1.1 5.4c-0.7 1.7-1.4 3.3-2 4.7c-2.6 6-4.7 10.9-6.2 14.2c-0.7 1.7-1.3 3-1.7 3.9c-0.2 .4-0.3 .7-0.4 1c-0.1 .2-0.2 .3-0.2 .3c0 0 .1-0.1 .2-0.4c.1-0.2 .2-0.5 .4-1c.4-0.9 .9-2.2 1.6-3.8c1.5-3.4 3.5-8.3 6-14.3c1.2-3 3.2-6.2 3.1-10c0-1.9-0.5-3.9-1.3-5.7c-0.5-1-1-1.8-1.7-2.6c-0.6-0.8-1.3-1.7-2-2.5c-5.5-6.7-11.5-14-17.8-21.7c-2.1-2.6-4.2-5.2-6.2-7.6h.1c-17.6 .3-33.2 .5-44.4 .7c-5.5 0-10 .1-13.1 .1c-1.6 0-2.7 .1-3.6 .1c-0.4 0-0.7 0-0.9 0c-0.2 0-0.3 0-0.3 0Z" fill="#263238"/><path d="M326.1 66.9c0-0.1 .2-0.1 .5-0.1c.3-0.1 .9-0.2 1.4-0.6c.6-0.3 1.2-1 1.5-1.9c.1-0.4 .2-0.9 .2-1.4c-0.1-0.5-0.2-1.1-0.5-1.6c-0.5-1-1.7-1.9-3-1.9c-1.5 0-3 0-4.6 .1c-3.1 0-6.6 0-10.3 0c-0.9 0-1.7 .3-2.3 .9c-0.7 .6-1.1 1.4-1.2 2.2c0 .9 .1 1.7 .5 2.4c.4 .7 1 1.2 1.7 1.5c.7 .3 1.4 .2 2.2 .2c.8 0 1.5 0 2.2 0c1.4 0 2.7 .1 3.9 .1c2.4 0 4.3 0 5.7 0c.7 0 1.2 0 1.5 0c.4 0 .6 0 .6 .1c0 0-0.2 0-0.6 0c-0.4 0-0.9 0-1.5 0c-1.4 0-3.3 0-5.7 0c-1.2 0-2.5 .1-3.9 .1c-0.7 0-1.5 0-2.2 0c-0.4 0-0.8 0-1.2 0c-0.4-0.1-0.8-0.1-1.2-0.3c-0.7-0.3-1.4-0.9-1.8-1.6c-0.5-0.8-0.6-1.7-0.5-2.6c.1-0.9 .5-1.8 1.2-2.4c.7-0.6 1.7-1 2.6-1c3.7 0 7.2 0 10.3 0c1.6 0 3.1 0 4.6 0c1.5 .1 2.7 1 3.2 2.1c.3 .5 .5 1.1 .5 1.7c0 .5-0.1 1.1-0.2 1.5c-0.4 .9-1 1.6-1.6 1.9c-0.6 .4-1.1 .5-1.4 .6c-0.4 0-0.6 0-0.6 0Z" fill="#263238"/><path d="M412.8 50.7h-19.8c-2.7 0-5.2 1.5-6.5 3.9c-1 2-1.1 4.3-0.2 6.3l7.8 17.6l19.8-0.2c0 .1 4.2-22.3-1.1-27.6Z" fill="#fafafa"/><path d="M137.9 48.2l102.1-1.9l66.5-1.2l21.9-12.6c1.8-1 2.3-3.4 1-5l-13.6-17.9c-1.4-1.9-3.7-3-6-3l-74.4-0.7c0 0-28-1.6-50 10.8c-23.2 13-47.5 31.5-47.5 31.5Z" fill="#222"/><path d="M184.7 7.9c0 0 5.1 2.3 1.8 4.4c-3.4 2.2-55.1 34.8-55.1 34.8l-11.9-5.4c21-11.7 42.3-23.1 65.2-33.8Z" fill="#455a64"/><path d="M133.1 47.9c0 0-0.2 0-0.4 .1c-0.2 0-0.5 .1-0.9 .2c-0.8 .1-2.1 .4-3.6 .7c-3.2 .7-7.8 1.5-13.4 2.5c-11.4 2-27.1 4.2-44.7 5.8c-4.3 .3-8.6 .6-12.7 .9c-4.2 .3-8.2 .5-12 .9c-7.5 .7-14.3 1.8-19.8 3.4c-5.6 1.6-9.8 3.6-12.6 5.2c-1.4 .8-2.4 1.5-3.1 1.9c-0.4 .3-0.6 .4-0.8 .6c-0.2 .1-0.3 .1-0.3 .1c0 0 .1 0 .3-0.2c.1-0.1 .4-0.3 .8-0.5c.7-0.5 1.7-1.2 3.1-2c2.7-1.6 7-3.7 12.5-5.3c5.5-1.7 12.3-2.8 19.9-3.5c3.8-0.4 7.8-0.6 11.9-0.9c4.1-0.3 8.4-0.6 12.8-1c17.5-1.5 33.2-3.7 44.6-5.6c5.7-1 10.2-1.8 13.4-2.4c1.6-0.3 2.8-0.5 3.7-0.7c.4 0 .7-0.1 .9-0.1c.2-0.1 .4-0.1 .4-0.1Z" fill="#263238"/><path d="M420.7 93.6c0 .1-6.8 .1-15.2 .1c-8.3 0-15.1 0-15.1-0.1c0-0.1 6.8-0.2 15.1-0.2c8.4 0 15.2 .1 15.2 .2Z" fill="#263238"/><path d="M296.2 110.9c0 .1-38.5 .2-85.9 .2c-47.4 0-85.8-0.1-85.8-0.2c0-0.1 38.4-0.1 85.8-0.1c47.4-0.1 85.9 0 85.9 .1Z" fill="#263238"/><path d="M27.1 94.2c0 .1-5.5 .1-12.2 .1c-6.7 0-12.1 0-12.1-0.1c0-0.1 5.4-0.2 12.1-0.2c6.7 0 12.2 .1 12.2 .2Z" fill="#263238"/><path d="M380.4 19.6c0 0-4.5 5.1-2.7 8.9c1.8 3.7 20.3 16.8 20.3 16.8l13.5 2.5l-31.1-28.2Z" fill="#455a64"/><path d="M252.5 10.5l-3 32.6l54.2-1.5l21.8-12.7l-14.2-18.4h-58.8Z" fill="#455a64"/><path d="M150.7 44.8c0 0 32.6-23.6 45.5-28.2c12.5-4.5 18.9-5.7 30.6-6c11.2-0.3 18 0 18 0l-8.6 33.1l-85.5 1.1Z" fill="#455a64"/><path d="M145.9 44.9c0-2.1 1.1-4 2.9-5l7.5-4.2c2.2-1.2 4.6-1.8 7-1.8c1.6 0 3.1 .2 4.5 .7c3.2 1 5.3 4 5.4 7.4c.2 4.7-3.5 8.6-8.2 8.6h-13.4c-3.1 0-5.7-2.6-5.7-5.7Z" fill="#ef6238"/><path d="M145.9 44.9c0 0 0 .2 .1 .7c.1 .5 .2 1.2 .7 2c.4 .7 1.1 1.6 2.3 2.2c.5 .3 1.2 .6 1.9 .6c.7 .1 1.5 .1 2.3 .1c3.3 0 7.2 0 11.5-0.1c1 0 2.1-0.1 3.1-0.5c1.1-0.3 2.1-1 2.9-1.8c.8-0.8 1.5-1.8 1.9-2.9c.4-1.1 .6-2.3 .5-3.5c-0.2-2.4-1.5-4.7-3.4-6c-0.9-0.6-2-1-3.1-1.3c-1.1-0.2-2.2-0.4-3.2-0.4c-2.2 0-4.2 .5-5.9 1.3c-0.9 .4-1.6 .9-2.4 1.3c-0.8 .4-1.5 .8-2.3 1.2c-1.4 .8-2.7 1.6-3.8 2.2c-1.2 .6-1.9 1.5-2.3 2.2c-0.4 .8-0.6 1.5-0.7 2c-0.1 .4-0.1 .7-0.1 .7c0 0 0-0.3 0-0.8c.1-0.4 .2-1.1 .6-2c.5-0.8 1.2-1.7 2.4-2.3c1.1-0.7 2.4-1.4 3.8-2.2c.7-0.4 1.4-0.8 2.2-1.2c.8-0.5 1.6-1 2.5-1.4c1.7-0.8 3.8-1.3 6-1.3c1 0 2.2 .1 3.3 .4c1.1 .3 2.2 .6 3.2 1.3c2 1.4 3.3 3.7 3.5 6.3c.1 1.2-0.1 2.5-0.5 3.7c-0.4 1.1-1.2 2.1-2 3c-0.9 .8-1.9 1.4-3 1.8c-1 .4-2.2 .6-3.3 .6c-4.3-0.1-8.1-0.1-11.4-0.1c-0.8 0-1.6 0-2.3-0.1c-0.8-0.1-1.5-0.3-2-0.6c-1.2-0.7-1.9-1.6-2.4-2.4c-0.4-0.8-0.5-1.5-0.6-2c0-0.5 0-0.7 0-0.7Z" fill="#263238"/><path d="M397.5 131.9c0 0 0-0.1 0-0.5c0-0.3 0-0.7 .1-1.3c0-0.6 .1-1.3 .1-2.2c0-0.9 .1-1.9 .1-3c0-1.1 0-2.4 0-3.8c-0.1-1.4-0.1-2.9-0.3-4.5c-0.3-3.2-0.8-6.8-1.9-10.7c-0.6-1.9-1.3-4-2.2-6c-0.8-2-1.9-4-3.2-6c-2.5-4.1-6.1-7.8-10.4-11c-4.4-3.1-9.5-5.7-15-7.3c-5.6-1.7-11.7-2.4-17.9-2.4c-6.2 0-12.2 .8-17.8 2.6c-2.7 .9-5.4 2-7.9 3.3c-2.5 1.3-4.7 2.8-6.9 4.4c-4.2 3.3-7.7 7.1-10.5 10.9c-1.4 1.9-2.6 3.9-3.6 5.9c-0.9 2-1.7 3.9-2.4 5.9c-2.7 7.6-3.6 14.2-3.9 18.7c-0.1 2.3 0 4 0 5.2c0 .6 .1 1.1 .1 1.4c0 .3 0 .4 0 .4c0 0 0-0.1-0.1-0.4c0-0.3 0-0.8-0.1-1.4c0-1.2-0.1-2.9 0-5.2c.3-4.5 1.1-11.1 3.8-18.8c.6-2 1.5-3.9 2.4-5.9c1-2 2.1-4 3.5-6c2.9-3.8 6.4-7.6 10.7-10.9c2.1-1.7 4.4-3.2 6.9-4.5c2.5-1.3 5.2-2.4 7.9-3.3c5.6-1.8 11.7-2.7 17.9-2.6c6.3 0 12.3 .6 18 2.4c5.6 1.7 10.7 4.2 15.1 7.4c2.1 1.6 4.1 3.3 5.9 5.2c1.8 1.8 3.3 3.8 4.6 5.8c1.3 2.1 2.4 4.1 3.2 6.1c.9 2.1 1.5 4.1 2.1 6.1c1.1 3.9 1.7 7.5 1.9 10.7c.2 1.7 .2 3.2 .3 4.5c0 1.4 0 2.7 0 3.8c-0.1 1.1-0.1 2.2-0.2 3c0 .9-0.1 1.6-0.1 2.2c-0.1 .6-0.1 1.1-0.2 1.4c0 .3 0 .4 0 .4Z" fill="#fff"/><path d="M234.7 48.2c0 0 0 .1-0.1 .1c-0.2 0-0.3 0-0.5 0c-0.4 0-1 0-1.7 0c-1.6 0-3.8 .1-6.4 .1c-5.5 .1-12.9 .3-21.2 .6c-8.3 .2-15.8 .3-21.2 .4c-2.7 0-4.9 0-6.4 0c-0.7 0-1.3 0-1.7 0c-0.2 0-0.4 0-0.5-0.1c-0.1 0-0.2 0-0.2 0c0 0 .1 0 .2 0c.1 0 .3 0 .5 0c.4 0 1-0.1 1.7-0.1c1.5 0 3.7 0 6.4-0.1c5.4-0.1 12.9-0.3 21.2-0.5c8.3-0.3 15.7-0.4 21.2-0.4c2.7-0.1 4.8-0.1 6.4 0c.7 0 1.3 0 1.7 0c.2 0 .4 0 .5 0c.1 0 .1 0 .1 0Z" fill="#fff"/><path d="M225.8 58.3c0 .1-2.6 .1-5.8 .1c-3.3 0-5.9 0-5.9-0.1c0-0.1 2.6-0.2 5.9-0.2c3.2 0 5.8 .1 5.8 .2Z" fill="#fff"/><path d="M228 22.5c0 .1-7.2 3.1-16.2 6.8c-9.1 3.6-16.4 6.5-16.4 6.4c-0.1-0.1 7.2-3.1 16.2-6.7c9-3.7 16.4-6.6 16.4-6.5Z" fill="#fff"/><path d="M213.3 24.8c0 .1-6.9 3.2-15.5 6.8c-8.6 3.7-15.6 6.6-15.6 6.5c-0.1-0.1 6.9-3.1 15.5-6.8c8.5-3.7 15.5-6.6 15.6-6.5Z" fill="#fff"/><path d="M306.7 21.3c.1 .1-7.2 3.1-16.2 6.7c-9 3.6-16.4 6.5-16.4 6.4c0 0 7.3-3.1 16.3-6.7c9-3.6 16.3-6.5 16.3-6.4Z" fill="#fff"/><path d="M292 23.5c0 .1-6.9 3.2-15.5 6.8c-8.6 3.7-15.6 6.6-15.6 6.5c0-0.1 6.9-3.1 15.5-6.8c8.6-3.6 15.6-6.5 15.6-6.5Z" fill="#fff"/><path d="M308.2 48.2c0 .1-14.5 .3-32.4 .4c-17.8 .1-32.3 .1-32.3 0c0-0.1 14.5-0.2 32.3-0.3c17.9-0.2 32.4-0.2 32.4-0.1Z" fill="#fff"/><path d="M324.2 57.7c0 .1-4.1 .2-9.1 .3c-5 0-9 0-9-0.1c0-0.1 4-0.2 9-0.3c5 0 9.1 0 9.1 .1Z" fill="#fff"/><path d="M47.2 52.8c0 0-0.2 0-0.4 .1c-0.3 0-0.7 .1-1.2 .1c-0.5 0-1.1 .1-1.8 .2c-0.6 .2-1.5 .2-2.3 .4c-1.8 .3-3.8 .8-6.1 1.4c-2.3 .6-4.7 1.4-7.2 2.4c-2.5 1-4.9 2-7 3.1c-2 1.1-3.9 2.2-5.3 3.1c-0.8 .5-1.5 1-2 1.4c-0.6 .3-1.1 .7-1.5 1c-0.4 .3-0.7 .5-0.9 .7c-0.3 .1-0.4 .2-0.4 .2c0 0 .1-0.1 .3-0.3c.3-0.2 .6-0.4 .9-0.7c.4-0.3 .9-0.7 1.5-1.1c.5-0.4 1.2-0.9 1.9-1.3c1.5-1 3.3-2.1 5.4-3.3c2.1-1 4.4-2.2 7-3.2c2.5-1 5-1.7 7.2-2.4c2.3-0.5 4.4-1 6.2-1.2c.8-0.2 1.6-0.3 2.3-0.4c.7-0.1 1.3-0.1 1.8-0.2c.5 0 .9 0 1.2-0.1c.2 .1 .4 .1 .4 .1Z" fill="#fff"/><path d="M166.6 37c0 0-0.2-0.2-0.6-0.6c-0.5-0.3-1.2-0.7-2.2-0.9c-1.1-0.1-2.3 .1-3.6 .4c-1.3 .3-2.8 .8-4.2 1.4c-2.9 1.3-5.3 2.9-6.9 4.3c-1.6 1.3-2.4 2.3-2.5 2.2c0 0 .2-0.2 .6-0.7c.4-0.4 1-1 1.8-1.7c1.5-1.4 3.9-3.1 6.8-4.4c1.5-0.6 3-1.1 4.3-1.4c1.4-0.3 2.6-0.5 3.7-0.3c1.1 .1 1.8 .6 2.3 1c.2 .2 .3 .4 .4 .5c.1 .1 .1 .2 .1 .2Z" fill="#fff"/><path d="M382 19.4c0 0-1 .3-2.9 .3c-0.9-0.1-2-0.2-3.3-0.4c-1.3-0.3-2.7-0.8-4.3-1.4c-1.5-0.6-3.2-1.3-4.9-2c-0.9-0.4-1.8-0.8-2.8-1.2c-0.9-0.3-2-0.7-3-1c-4.1-1.5-8.7-2.7-13.6-3.7c-9.8-2.1-18.9-3-25.5-3.2c-1.6-0.1-3.1-0.1-4.4-0.1c-1.3 0-2.5 0-3.4 0c-0.9 0-1.6 0-2.1 0c-0.2 0-0.4 0-0.6 0c-0.1 0-0.1 0-0.1 0c0 0 0 0 .1 0c.2 0 .4 0 .6-0.1c.5 0 1.2 0 2.1-0.1c.9 0 2.1 0 3.4 0c1.3 0 2.8 0 4.4 0c6.6 .2 15.7 1 25.6 3.1c4.9 1 9.5 2.3 13.6 3.7c1 .4 2.1 .8 3 1.1c1 .4 1.9 .8 2.8 1.2c1.8 .7 3.4 1.5 5 2.1c1.5 .6 2.9 1.1 4.2 1.3c1.2 .3 2.3 .5 3.3 .5c.9 0 1.6 0 2.1-0.1c.2 0 .4 0 .5 0c.1 0 .2 0 .2 0Z" fill="#263238"/><g opacity=".4" clip-path="url(#ClipPath-2)" transform="translate(-104.3,-191.2)"><path d="M258.5 271.7l9.6 7l-0.3 1.3c-0.4 1.9-1.3 3.6-2.5 4.9c-2.7 3.2-7 4.8-11.4 3.8c-2.6-0.5-4.8-1.9-6.5-3.8c-1.3-1.6 .2-3.9 2.2-3.4c.4 .1 .9 .3 1.2 .7c.9 1.1 2.2 2 3.8 2.4c.1 0 .1 0 .2 0c1.9 .4 3.8 .1 5.4-0.8c1.3-0.8 2.4-1.9 3-3.4l-7.3-5.3c-0.6-0.5-1-1.3-0.8-2.1c.4-1.5 2.2-2.2 3.4-1.3Zm-0.3 7.3l-7.3-5.4c.6-1.4 1.7-2.6 3-3.4c1.6-0.9 3.5-1.2 5.4-0.8c1.6 .3 3 1.2 4 2.4c.4 .4 .8 .6 1.3 .7c1.9 .5 3.4-1.8 2.1-3.3c-1.6-2-3.9-3.3-6.5-3.9c-4.4-1-8.7 .6-11.4 3.8c-1.2 1.3-2.1 3-2.5 4.9l-0.3 1.3l9.6 7.1c1.3 .9 3.1 .2 3.4-1.3c.2-0.8-0.1-1.6-0.8-2.1Z" fill="#fff"/><path d="M265.3 270.9c0 0-0.1-0.1-0.1-0.1c0 0-0.1-0.2-0.3-0.4c-0.1-0.1-0.1-0.2 0-0.3c.1 0 .2 0 .3 .1c.2 .2 .3 .4 .3 .4c.1 .1 0 .2-0.1 .2c0 .1 0 .1-0.1 .1Z" fill="#000"/><path d="M248.7 273.1c0 0-0.1 0-0.1 0c-0.1 0-0.1-0.1-0.1-0.2c.1-0.3 .2-0.7 .4-1c0-0.1 .2-0.1 .3 0c.1 0 .1 .1 .1 .2c-0.2 .3-0.3 .6-0.4 .9c0 .1-0.1 .1-0.2 .1Z" fill="#000"/><path d="M249.6 271.4c-0.1 0-0.1 0-0.1 0c-0.1-0.1-0.2-0.2-0.1-0.3c.2-0.3 .4-0.6 .6-0.8c.1-0.1 .2-0.1 .3 0c.1 0 .1 .1 0 .2c-0.2 .3-0.4 .5-0.6 .8c0 .1-0.1 .1-0.1 .1Z" fill="#000"/><path d="M250.8 269.9c0 0-0.1 0-0.1-0.1c-0.1-0.1-0.1-0.2 0-0.3c.2-0.2 .5-0.4 .7-0.6c.1-0.1 .2-0.1 .3 0c.1 .1 .1 .2 0 .3c-0.3 .2-0.5 .4-0.7 .6c-0.1 0-0.1 .1-0.2 .1Z" fill="#000"/><path d="M264.4 269.8c-0.1 0-0.1 0-0.2-0.1c-0.2-0.2-0.5-0.4-0.7-0.6c-0.1 0-0.1-0.2-0.1-0.3c.1 0 .2-0.1 .3 0c.3 .2 .6 .4 .8 .6c.1 .1 .1 .2 0 .3c0 .1-0.1 .1-0.1 .1Z" fill="#000"/><path d="M252.4 268.6c-0.1 0-0.2 0-0.2-0.1c-0.1 0 0-0.2 .1-0.2c.2-0.2 .5-0.4 .8-0.5c.1-0.1 .3 0 .3 .1c.1 .1 0 .2-0.1 .2c-0.3 .2-0.5 .3-0.8 .5c-0.1 0-0.1 0-0.1 0Z" fill="#000"/><path d="M262.8 268.6c-0.1 0-0.1 0-0.1 0c-0.3-0.2-0.6-0.3-0.9-0.5c-0.1 0-0.2-0.1-0.1-0.2c0-0.1 .2-0.2 .3-0.1c.3 .1 .6 .3 .9 .4c.1 .1 .1 .2 0 .3c0 .1-0.1 .1-0.1 .1Z" fill="#000"/><path d="M261 267.8c0 0-0.1 0-0.1 0c-0.3-0.1-0.6-0.2-0.9-0.3c-0.1 0-0.2-0.1-0.2-0.2c0-0.1 .2-0.2 .3-0.2c.3 .1 .6 .2 .9 .3c.1 0 .2 .1 .1 .2c0 .1-0.1 .2-0.1 .2Z" fill="#000"/><path d="M254.1 267.8c0 0-0.1-0.1-0.2-0.2c0-0.1 .1-0.2 .2-0.2c.3-0.1 .6-0.2 .9-0.3c.1 0 .2 0 .3 .1c0 .1-0.1 .2-0.2 .3c-0.3 0-0.6 .1-0.9 .2c0 .1 0 .1-0.1 .1Z" fill="#000"/><path d="M259 267.3c0 0 0 0 0 0c-0.3 0-0.6-0.1-1-0.1c-0.1 0-0.2-0.1-0.2-0.2c0-0.1 .2-0.2 .3-0.2c.3 .1 .6 .1 1 .1c.1 .1 .1 .2 .1 .3c0 0-0.1 .1-0.2 .1Z" fill="#000"/><path d="M256.1 267.3c-0.1 0-0.2-0.1-0.2-0.2c0-0.1 0-0.2 .1-0.2c.4 0 .7-0.1 1.1-0.1c.1 0 .2 .1 .2 .2c0 .1-0.1 .2-0.2 .2c-0.4 .1-0.7 .1-1 .1c0 0 0 0 0 0Z" fill="#000"/><path d="M248.7 274.8c0 0-0.1 0-0.1 0l-0.5-0.4v-0.1c.1-0.2 .1-0.3 .1-0.5c0-0.1 .1-0.2 .3-0.1c.1 0 .1 .1 .1 .2c0 .1 0 .2-0.1 .4l.3 .2c.1 0 .1 .2 .1 .3c-0.1 0-0.1 0-0.2 0Z" fill="#000"/><path d="M255.7 280c0 0 0 0-0.1 0l-0.7-0.5c-0.1-0.1-0.1-0.2 0-0.3c0-0.1 .2-0.1 .3 0l.7 .5c0 0 .1 .2 0 .3c0 0-0.1 0-0.2 0Z" fill="#000"/><path d="M254.3 279c0 0-0.1 0-0.1 0l-0.7-0.6c-0.1 0-0.1-0.1 0-0.2c0-0.1 .2-0.1 .3-0.1l.7 .5c0 .1 .1 .2 0 .3c0 .1-0.1 .1-0.2 .1Z" fill="#000"/><path d="M252.9 278c0 0-0.1-0.1-0.1-0.1l-0.7-0.5c-0.1-0.1-0.1-0.2 0-0.3c0-0.1 .2-0.1 .2 0l.8 .5c0 0 .1 .2 0 .3c0 0-0.1 .1-0.2 .1Z" fill="#000"/><path d="M251.5 276.9c0 0-0.1 0-0.1 0l-0.7-0.5c-0.1-0.1-0.1-0.2 0-0.3c0-0.1 .2-0.1 .2-0.1l.7 .5c.1 .1 .2 .2 .1 .3c-0.1 .1-0.1 .1-0.2 .1Z" fill="#000"/><path d="M250.1 275.9c0 0-0.1 0-0.1-0.1l-0.7-0.5c-0.1 0-0.1-0.2 0-0.3c0-0.1 .2-0.1 .2 0l.7 .5c.1 .1 .1 .2 .1 .3c-0.1 0-0.1 .1-0.2 .1Z" fill="#000"/><path d="M250.6 275.2c0 .1-0.1 0-0.1 0l-0.7-0.5c-0.1-0.1-0.1-0.2 0-0.3c0-0.1 .2-0.1 .2 0l.8 .5c0 0 .1 .2 0 .3c-0.1 0-0.1 .1-0.2 .1Z" fill="#000"/><path d="M251.1 274.6c0 0-0.1 0-0.1 0l-0.7-0.5c-0.1-0.1-0.1-0.2 0-0.3c0-0.1 .2-0.1 .3-0.1l.7 .6c0 0 .1 .1 0 .2c0 .1-0.1 .1-0.2 .1Z" fill="#000"/><path d="M249.1 277.1c0 0-0.1 0-0.1 0l-0.7-0.5c-0.1-0.1-0.1-0.2 0-0.3c0-0.1 .2-0.1 .2-0.1l.7 .6c.1 0 .1 .1 .1 .2c-0.1 .1-0.1 .1-0.2 .1Z" fill="#000"/><path d="M249.6 276.5c0 0-0.1 0-0.1 0l-0.7-0.6c-0.1 0-0.1-0.1-0.1-0.2c.1-0.1 .2-0.1 .3-0.1l.7 .5c.1 .1 .1 .2 .1 .3c-0.1 .1-0.1 .1-0.2 .1Z" fill="#000"/><path d="M256.8 280.9c0 0-0.1-0.1-0.1-0.1l-0.4-0.3c-0.1 0-0.1-0.2 0-0.2c0-0.1 .2-0.2 .3-0.1l.3 .3c.1 0 .2 .2 .1 .3c-0.1 0-0.1 .1-0.2 .1Z" fill="#000"/><path d="M248.8 283.1c.1 0 .1 0 .2 .1c0 0 0 .1 .2 .3c.1 .1 .1 .2 0 .3c-0.1 .1-0.2 .1-0.3 0c-0.2-0.3-0.3-0.4-0.3-0.4c0-0.1 0-0.2 .1-0.3c0 0 .1 0 .1 0Z" fill="#000"/><path d="M265.4 280.8c.1 0 .1 0 .1 0c.1 .1 .2 .2 .1 .3c-0.1 .3-0.2 .6-0.4 .9c0 .1-0.1 .1-0.2 .1c-0.1-0.1-0.2-0.2-0.1-0.3c.1-0.3 .3-0.6 .4-0.9c0 0 .1-0.1 .1-0.1Z" fill="#000"/><path d="M264.6 282.5c0 0 0 .1 .1 .1c0 0 .1 .1 0 .2c-0.2 .3-0.4 .6-0.6 .8c-0.1 .1-0.2 .1-0.3 .1c-0.1-0.1-0.1-0.2 0-0.3c.2-0.3 .4-0.5 .6-0.8c0 0 .1-0.1 .2-0.1Z" fill="#000"/><path d="M263.3 284.1c.1 0 .1 0 .1 0c.1 .1 .1 .2 0 .3c-0.2 .2-0.4 .5-0.7 .7c-0.1 .1-0.2 0-0.3 0c-0.1-0.1 0-0.2 0-0.3c.3-0.2 .5-0.4 .8-0.7c0 0 .1 0 .1 0Z" fill="#000"/><path d="M249.8 284.1c0 0 .1 .1 .1 .1c.3 .2 .5 .4 .8 .6c.1 .1 .1 .2 0 .3c-0.1 .1-0.2 .1-0.3 0c-0.2-0.2-0.5-0.4-0.8-0.6c0-0.1 0-0.2 0-0.3c.1 0 .1-0.1 .2-0.1Z" fill="#000"/><path d="M261.8 285.3c0 0 .1 0 .1 .1c.1 .1 .1 .2 0 .3c-0.3 .1-0.6 .3-0.9 .5c-0.1 0-0.2 0-0.3-0.1c0-0.1 0-0.2 .1-0.3c.3-0.1 .6-0.3 .9-0.5c0 0 0 0 .1 0Z" fill="#000"/><path d="M251.4 285.3c0 0 0 0 .1 .1c.3 .1 .5 .3 .8 .4c.1 .1 .2 .2 .1 .3c0 .1-0.1 .1-0.2 .1c-0.3-0.2-0.7-0.3-0.9-0.5c-0.1-0.1-0.2-0.2-0.1-0.3c0 0 .1-0.1 .2-0.1Z" fill="#000"/><path d="M253.2 286.1c0 0 0 0 0 .1c.3 .1 .6 .2 1 .2c.1 .1 .1 .2 .1 .3c0 .1-0.1 .1-0.2 .1c-0.4-0.1-0.7-0.2-1-0.3c-0.1 0-0.2-0.1-0.1-0.2c0-0.1 .1-0.2 .2-0.2Z" fill="#000"/><path d="M260 286.2c.1 0 .2 0 .2 .1c0 .1 0 .2-0.1 .3c-0.3 .1-0.7 .2-1 .3c-0.1 0-0.2-0.1-0.2-0.2c-0.1-0.1 0-0.2 .1-0.2c.3-0.1 .6-0.2 .9-0.3c.1 0 .1 0 .1 0Z" fill="#000"/><path d="M255.1 286.6c0 0 0 0 0 0c.3 0 .7 .1 1 .1c.1 0 .2 .1 .2 .2c0 .1-0.1 .2-0.2 .2c-0.4 0-0.7-0.1-1-0.1c-0.1 0-0.2-0.1-0.2-0.2c0-0.1 .1-0.2 .2-0.2Z" fill="#000"/><path d="M258.1 286.6c.1 0 .1 .1 .1 .2c.1 .1 0 .2-0.1 .2c-0.3 .1-0.7 .1-1 .1c-0.1 0-0.2-0.1-0.2-0.2c0-0.1 0-0.2 .2-0.2c.3 0 .6 0 .9-0.1c0 0 .1 0 .1 0Z" fill="#000"/><path d="M265.4 279.1c.1 0 .1 0 .1 0l.5 .4v.1c0 .2-0.1 .3-0.1 .5c0 .1-0.1 .2-0.2 .1c-0.1 0-0.2-0.1-0.2-0.2c.1-0.1 .1-0.2 .1-0.3l-0.3-0.2c-0.1-0.1-0.1-0.2 0-0.3c0-0.1 0-0.1 .1-0.1Z" fill="#000"/><path d="M258.4 273.9c0 0 .1 0 .1 0l.7 .6c.1 0 .1 .1 .1 .2c-0.1 .1-0.2 .1-0.3 .1l-0.7-0.5c-0.1-0.1-0.1-0.2-0.1-0.3c.1-0.1 .1-0.1 .2-0.1Z" fill="#000"/><path d="M259.8 274.9c0 0 .1 .1 .1 .1l.7 .5c.1 .1 .1 .2 .1 .3c-0.1 .1-0.2 .1-0.3 0l-0.7-0.5c-0.1-0.1-0.1-0.2-0.1-0.3c.1 0 .1-0.1 .2-0.1Z" fill="#000"/><path d="M261.2 276c0 0 .1 0 .1 0l.7 .5c.1 .1 .1 .2 .1 .3c-0.1 .1-0.2 .1-0.3 .1l-0.7-0.5c-0.1-0.1-0.1-0.2-0.1-0.3c.1-0.1 .1-0.1 .2-0.1Z" fill="#000"/><path d="M262.6 277c0 0 .1 0 .1 .1l.7 .5c.1 0 .1 .2 .1 .3c-0.1 0-0.2 .1-0.3 0l-0.7-0.5c-0.1-0.1-0.1-0.2-0.1-0.3c.1-0.1 .1-0.1 .2-0.1Z" fill="#000"/><path d="M264 278.1c0 0 .1 0 .1 0l.7 .5c.1 .1 .1 .2 .1 .3c-0.1 .1-0.2 .1-0.3 0l-0.7-0.5c-0.1 0-0.1-0.2-0.1-0.3c.1 0 .1 0 .2 0Z" fill="#000"/><path d="M263.5 278.7c.1 0 .1 0 .1 0l.7 .6c.1 0 .1 .1 .1 .2c-0.1 .1-0.2 .1-0.3 .1l-0.7-0.5c-0.1-0.1-0.1-0.2-0.1-0.3c.1-0.1 .1-0.1 .2-0.1Z" fill="#000"/><path d="M263 279.3c0 0 .1 0 .1 .1l.7 .5c.1 0 .1 .2 .1 .3c-0.1 0-0.2 .1-0.3 0l-0.7-0.5c-0.1-0.1-0.1-0.2-0.1-0.3c.1-0.1 .1-0.1 .2-0.1Z" fill="#000"/><path d="M265 276.8c.1 0 .1 0 .1 .1l.7 .5c.1 0 .1 .2 .1 .2c-0.1 .1-0.2 .1-0.3 .1l-0.7-0.5c-0.1-0.1-0.1-0.2 0-0.3c0-0.1 .1-0.1 .1-0.1Z" fill="#000"/><path d="M264.5 277.4c.1 0 .1 0 .1 .1l.7 .5c.1 0 .2 .2 .1 .3c-0.1 .1-0.2 .1-0.3 0l-0.7-0.5c-0.1-0.1-0.1-0.2 0-0.3c0 0 .1-0.1 .1-0.1Z" fill="#000"/><path d="M257.3 273.1c0 0 .1 0 .1 0l.4 .3c.1 .1 .1 .2 0 .3c0 .1-0.1 .1-0.2 0l-0.4-0.2c-0.1-0.1-0.1-0.2-0.1-0.3c.1-0.1 .1-0.1 .2-0.1Z" fill="#000"/><path d="M272.3 280.7l.4-0.8c.7 .6 2 1.1 3.2 1.1c1.9 0 2.7-0.7 2.7-1.7c0-2.6-6.1-1-6.1-4.6c0-1.4 1.2-2.6 3.6-2.6c1.2 0 2.3 .3 3.1 .8l-0.3 .9c-0.9-0.6-1.9-0.8-2.7-0.8c-1.8 0-2.6 .8-2.6 1.7c0 2.7 6 1.1 6 4.6c0 1.4-1.1 2.6-3.6 2.6c-1.5 0-3-0.5-3.7-1.2Zm16.5 .3v.8h-6.9v-9.6h6.7v.8h-5.7v3.5h5.1v.9h-5.1v3.5h5.9v.1Zm10.7-8.8v9.6h-0.9l-6.3-7.8v7.8h-1.1v-9.6h.9l6.3 7.8v-7.8h1.1Zm5.1 .9h-3.5v-0.9h7.9v.9h-3.4v8.7h-1.1v-8.7h.1Zm12.8 8.7l-2.2-3.1c-0.3 .1-0.5 .1-0.8 .1h-2.7v3h-1v-9.6h3.7c2.5 0 4 1.2 4 3.3c0 1.5-0.8 2.6-2.2 3l2.4 3.3h-1.2Zm-0.1-6.3c0-1.6-1-2.4-3-2.4h-2.6v4.8h2.6c2 0 3-0.9 3-2.4Zm6.8 3v3.3h-1.1v-3.3l-3.9-6.3h1.1l3.4 5.4l3.4-5.4h1l-3.9 6.3Z" fill="#fff"/></g><path d="M227.1 66.9c0-0.1 .2-0.1 .6-0.1c.3-0.1 .8-0.2 1.4-0.6c.5-0.3 1.1-1 1.4-1.9c.2-0.4 .2-0.9 .2-1.4c0-0.5-0.1-1.1-0.4-1.6c-0.6-1-1.7-1.9-3.1-1.9c-1.4 0-2.9 0-4.5 .1c-3.2 0-6.7 0-10.3 0c-0.9 0-1.8 .3-2.4 .9c-0.6 .6-1 1.4-1.1 2.2c-0.1 .9 0 1.7 .4 2.4c.4 .7 1 1.2 1.7 1.5c.7 .3 1.5 .2 2.2 .2c.8 0 1.5 0 2.2 0c1.5 0 2.8 .1 4 .1c2.4 0 4.3 0 5.7 0c.6 0 1.1 0 1.5 0c.3 0 .5 0 .5 .1c0 0-0.2 0-0.5 0c-0.4 0-0.9 0-1.6 0c-1.3 0-3.3 0-5.7 0c-1.2 0-2.5 .1-3.9 .1c-0.7 0-1.4 0-2.2 0c-0.4 0-0.7 0-1.1 0c-0.4-0.1-0.8-0.1-1.2-0.3c-0.8-0.3-1.5-0.9-1.9-1.6c-0.4-0.8-0.6-1.7-0.5-2.6c.1-0.9 .6-1.8 1.3-2.4c.7-0.6 1.6-1 2.6-1c3.6 0 7.1 0 10.3 0c1.6 0 3.1 0 4.5 0c1.5 .1 2.8 1 3.3 2.1c.3 .5 .4 1.1 .4 1.7c0 .5 0 1.1-0.2 1.5c-0.3 .9-1 1.6-1.5 1.9c-0.6 .4-1.1 .5-1.5 .6c-0.4 0-0.6 0-0.6 0Z" fill="#263238"/></g><g transform="translate(141.6,282.5)"><path d="M38.2 71.3c19.7-1.3 34.6-18.3 33.3-38c-1.3-19.7-18.4-34.6-38.1-33.3c-19.7 1.4-34.6 18.4-33.3 38.1c1.3 19.7 18.4 34.6 38.1 33.2Z" fill="#222"/><path d="M0 35.1c0 0 0 .1 0 .1c-0.2 19.7 15.5 36 35.3 36.2c19.8 .3 36-15.4 36.3-35.2c0 0 0 0 0-0.1l-71.6-1Z" fill="#222"/><path d="M10.7 35.3c-0.2 13.9 10.9 25.3 24.8 25.5c13.8 .2 25.3-10.9 25.4-24.8c.2-13.8-10.9-25.2-24.7-25.4c-13.9-0.2-25.3 10.9-25.5 24.7Z" fill="#e0e0e0"/><path d="M36.2 10.6c-13.9-0.2-25.3 10.9-25.5 24.8l50.2 .7c.2-13.9-10.9-25.3-24.7-25.5Z" fill="#e0e0e0"/><path d="M20.5 35.5c-0.1 8.4 6.6 15.4 15.1 15.5c8.4 .1 15.4-6.7 15.5-15.1c.1-8.4-6.6-15.4-15.1-15.5c-8.4-0.1-15.4 6.6-15.5 15.1Z" fill="#222"/></g><g transform="translate(415.3,282.5)"><path d="M37.8 71.4c19.7-1.2 34.8-18.1 33.7-37.8c-1.2-19.7-18.1-34.7-37.8-33.6c-19.8 1.2-34.8 18.1-33.7 37.8c1.2 19.7 18.1 34.7 37.8 33.6Z" fill="#222"/><path d="M0 35.1c0 0 0 .1 0 .1c-0.3 19.7 15.5 36 35.2 36.2c19.8 .3 36.1-15.4 36.4-35.2c0 0 0 0 0-0.1l-71.6-1Z" fill="#222"/><path d="M10.6 35.3c-0.2 13.9 10.9 25.3 24.8 25.5c13.9 .2 25.3-10.9 25.5-24.8c.2-13.8-10.9-25.2-24.8-25.4c-13.8-0.2-25.3 10.9-25.5 24.7Z" fill="#e0e0e0"/><path d="M36.1 10.6c-13.8-0.2-25.3 10.9-25.5 24.8l50.3 .7c.2-13.9-10.9-25.3-24.8-25.5Z" fill="#e0e0e0"/><path d="M20.5 35.5c-0.2 8.4 6.6 15.4 15 15.5c8.5 .1 15.4-6.7 15.6-15.1c.1-8.4-6.7-15.4-15.1-15.5c-8.5-0.1-15.4 6.6-15.5 15.1Z" fill="#222"/></g></svg>