<?xml version="1.0" encoding="utf-8"?>
<!-- Generator: Adobe Illustrator 26.1.0, SVG Export Plug-In . SVG Version: 6.00 Build 0)  -->
<svg width="635" height="371" version="1.1" id="Layer_1" xmlns="http://www.w3.org/2000/svg" xmlns:xlink="http://www.w3.org/1999/xlink" x="0px" y="0px"
	 viewBox="0 0 635 356.2" style="enable-background:new 0 0 635 356.2;" xml:space="preserve">
<style type="text/css">
	.st0{clip-path:url(#SVGID_00000182498843067031200140000005521962312002858387_);}
	.st1{fill:#EEF5F9;}
	.st2{fill:#FBFBFB;}
	.st3{fill:#ECECEC;}
	.st4{fill:#C4D9ED;}
	.st5{fill:#ADC9E0;}
	.st6{fill:#D5E7F7;}
	.st7{fill:#88B374;}
	.st8{fill:#283250;}
	.st9{fill:#EF6238;}
	.st10{opacity:0.5;}
	.st11{fill:#222222;}
	.st12{fill:#E0E0E0;}
	.st13{opacity:0.4;}
	.st14{fill:#FAFAFA;}
	.st15{fill:#FFFFFF;}
	.st16{fill:#263238;}
	.st17{fill:#455A64;}
	.st18{fill:#EF6238;stroke:#EF6238;stroke-width:0.2913;stroke-miterlimit:10;}
	.st19{fill:#E8F5F9;stroke:#EF6238;}
	.st20{fill:#E8F5F9;}
	.st21{fill:#2897B6;}
</style>
<g>
	<defs>
		<rect id="SVGID_1_" width="635" height="371"/>
	</defs>
	<clipPath id="SVGID_00000006691643436202988310000016806895670517149056_">
		<use xlink:href="#SVGID_1_"  style="overflow:visible;"/>
	</clipPath>
	<g style="clip-path:url(#SVGID_00000006691643436202988310000016806895670517149056_);">
		<path class="st1" d="M537.6,122.3c-90.2,18.8-37.3-189-160.2-100.8c-48.9,35.1-119.2-7.4-186.6,15.8
			c-61.9,21.3-46.6,91.2-40.6,114.1c12.1,46.2-48.1,27.8-83,47.6c-54.8,31.2-6.7,156.7,45,157.2c51.7,0.5,431.9-1,431.9-1
			s22.6-17.6,34.6-54C603.1,226.8,617,105.8,537.6,122.3z"/>
		<path class="st2" d="M537.8,307.4h-23.4v48.1h23.4V307.4z"/>
		<path class="st3" d="M193.5,172.5v-21h6.4v-36.1h34.2v36.1h32V102l35.4-13.4v42.2h8.1V74.6L345,86.3v84.5h44.7v49.9h16.7v12.6
			h38.4v-21.6h22v-58.8h27.2v108.6h27.2v94.5h-27.2h-23.3h-3.9h-22h-12.5h-19.9h-6h-16.7H374h-29h-8.9h-17.7h-8.8h-8.1h-18.5h-12.6
			h-4.3h-32h-33.7h-0.6h-6.4h-27.3V172.5H193.5z"/>
		<path class="st2" d="M315.8,99.3h23.8v-8.7h-23.8V99.3z"/>
		<path class="st2" d="M315.8,115.7h23.8V107h-23.8V115.7z"/>
		<path class="st2" d="M315.8,130.4h23.8v-8.7h-23.8V130.4z"/>
		<path class="st2" d="M493.9,192.4h-27.7v13.5h27.7V192.4z"/>
		<path class="st2" d="M493.9,233.7h-27.4v13.5h27.4V233.7z"/>
		<path class="st2" d="M493.9,254h-27.4v13.5h27.4V254z"/>
		<path class="st4" d="M466.9,288.7h27.4v-13.5h-27.4V288.7z"/>
		<path class="st4" d="M494.4,296.1h-27.4v13.5h27.4V296.1z"/>
		<path class="st2" d="M466.9,330.9h27.4v-13.5h-27.4V330.9z"/>
		<path class="st2" d="M296.9,121.7h-25.1v8.7h25.1V121.7z"/>
		<path class="st2" d="M296.9,107.1h-25.1v8.7h25.1V107.1z"/>
		<path class="st2" d="M340.3,136h-68.4v8.7h68.4V136z"/>
		<path class="st2" d="M340.3,149.1h-68.4v8.7h68.4V149.1z"/>
		<path class="st2" d="M340.3,162.1h-68.4v8.4h68.4V162.1z"/>
		<path class="st4" d="M493.9,213.4h-27.4v13.5h27.4V213.4z"/>
		<path class="st2" d="M382.8,178.9h-6v8.4h6V178.9z"/>
		<path class="st2" d="M371.6,178.9h-6v8.4h6V178.9z"/>
		<path class="st2" d="M360.6,178.9h-6v8.4h6V178.9z"/>
		<path class="st2" d="M350.3,178.9h-6v8.4h6V178.9z"/>
		<path class="st2" d="M339.7,178.9h-6v8.4h6V178.9z"/>
		<path class="st2" d="M329,178.9h-6v8.4h6V178.9z"/>
		<path class="st2" d="M317.8,178.9h-6v8.4h6V178.9z"/>
		<path class="st2" d="M306.8,178.9h-6v8.4h6V178.9z"/>
		<path class="st2" d="M296.4,178.9h-6v8.4h6V178.9z"/>
		<path class="st2" d="M285.9,178.9h-6v8.4h6V178.9z"/>
		<path class="st2" d="M274.8,178.9h-6v8.4h6V178.9z"/>
		<path class="st2" d="M263.6,178.9h-6v8.4h6V178.9z"/>
		<path class="st2" d="M252.7,178.9h-6v8.4h6V178.9z"/>
		<path class="st2" d="M242.3,178.9h-6v8.4h6V178.9z"/>
		<path class="st2" d="M231.7,178.9h-6v8.4h6V178.9z"/>
		<path class="st2" d="M221,178.9h-6v8.4h6V178.9z"/>
		<path class="st2" d="M209.8,178.9h-6v8.4h6V178.9z"/>
		<path class="st2" d="M198.8,178.9h-6v8.4h6V178.9z"/>
		<path class="st2" d="M188.5,178.9h-6v8.4h6V178.9z"/>
		<path class="st2" d="M177.9,178.9h-6v8.4h6V178.9z"/>
		<path class="st2" d="M382.8,193.8h-6v8.4h6V193.8z"/>
		<path class="st2" d="M371.6,193.8h-6v8.4h6V193.8z"/>
		<path class="st2" d="M360.6,193.8h-6v8.4h6V193.8z"/>
		<path class="st2" d="M350.3,193.8h-6v8.4h6V193.8z"/>
		<path class="st2" d="M339.7,193.8h-6v8.4h6V193.8z"/>
		<path class="st2" d="M329,193.8h-6v8.4h6V193.8z"/>
		<path class="st2" d="M317.8,193.8h-6v8.4h6V193.8z"/>
		<path class="st2" d="M306.8,193.8h-6v8.4h6V193.8z"/>
		<path class="st2" d="M296.4,193.8h-6v8.4h6V193.8z"/>
		<path class="st2" d="M285.9,193.8h-6v8.4h6V193.8z"/>
		<path class="st2" d="M274.8,193.8h-6v8.4h6V193.8z"/>
		<path class="st2" d="M263.6,193.8h-6v8.4h6V193.8z"/>
		<path class="st2" d="M252.7,193.8h-6v8.4h6V193.8z"/>
		<path class="st2" d="M242.3,193.8h-6v8.4h6V193.8z"/>
		<path class="st2" d="M231.7,193.8h-6v8.4h6V193.8z"/>
		<path class="st2" d="M221,193.8h-6v8.4h6V193.8z"/>
		<path class="st2" d="M209.8,193.8h-6v8.4h6V193.8z"/>
		<path class="st2" d="M198.8,193.8h-6v8.4h6V193.8z"/>
		<path class="st2" d="M188.5,193.8h-6v8.4h6V193.8z"/>
		<path class="st2" d="M177.9,193.8h-6v8.4h6V193.8z"/>
		<path class="st2" d="M382.8,208.5h-6v8.4h6V208.5z"/>
		<path class="st2" d="M371.6,208.5h-6v8.4h6V208.5z"/>
		<path class="st2" d="M360.6,208.5h-6v8.4h6V208.5z"/>
		<path class="st2" d="M350.3,208.5h-6v8.4h6V208.5z"/>
		<path class="st2" d="M339.7,208.5h-6v8.4h6V208.5z"/>
		<path class="st2" d="M329,208.5h-6v8.4h6V208.5z"/>
		<path class="st2" d="M317.8,208.5h-6v8.4h6V208.5z"/>
		<path class="st2" d="M306.8,208.5h-6v8.4h6V208.5z"/>
		<path class="st2" d="M296.4,208.5h-6v8.4h6V208.5z"/>
		<path class="st2" d="M285.9,208.5h-6v8.4h6V208.5z"/>
		<path class="st2" d="M274.8,208.5h-6v8.4h6V208.5z"/>
		<path class="st2" d="M263.6,208.5h-6v8.4h6V208.5z"/>
		<path class="st2" d="M252.7,208.5h-6v8.4h6V208.5z"/>
		<path class="st2" d="M242.3,208.5h-6v8.4h6V208.5z"/>
		<path class="st2" d="M231.7,208.5h-6v8.4h6V208.5z"/>
		<path class="st2" d="M221,208.5h-6v8.4h6V208.5z"/>
		<path class="st2" d="M209.8,208.5h-6v8.4h6V208.5z"/>
		<path class="st2" d="M198.8,208.5h-6v8.4h6V208.5z"/>
		<path class="st2" d="M188.5,208.5h-6v8.4h6V208.5z"/>
		<path class="st2" d="M177.9,208.5h-6v8.4h6V208.5z"/>
		<path class="st2" d="M382.8,224h-6v8.4h6V224z"/>
		<path class="st2" d="M371.6,224h-6v8.4h6V224z"/>
		<path class="st2" d="M360.6,224h-6v8.4h6V224z"/>
		<path class="st2" d="M350.3,224h-6v8.4h6V224z"/>
		<path class="st2" d="M339.7,224h-6v8.4h6V224z"/>
		<path class="st2" d="M329,224h-6v8.4h6V224z"/>
		<path class="st2" d="M317.8,224h-6v8.4h6V224z"/>
		<path class="st2" d="M306.8,224h-6v8.4h6V224z"/>
		<path class="st2" d="M296.4,224h-6v8.4h6V224z"/>
		<path class="st2" d="M285.9,224h-6v8.4h6V224z"/>
		<path class="st2" d="M274.8,224h-6v8.4h6V224z"/>
		<path class="st2" d="M263.6,224h-6v8.4h6V224z"/>
		<path class="st2" d="M252.7,224h-6v8.4h6V224z"/>
		<path class="st2" d="M242.3,224h-6v8.4h6V224z"/>
		<path class="st2" d="M231.7,224h-6v8.4h6V224z"/>
		<path class="st2" d="M221,224h-6v8.4h6V224z"/>
		<path class="st2" d="M209.8,224h-6v8.4h6V224z"/>
		<path class="st2" d="M198.8,224h-6v8.4h6V224z"/>
		<path class="st2" d="M188.5,224h-6v8.4h6V224z"/>
		<path class="st2" d="M177.9,224h-6v8.4h6V224z"/>
		<path class="st2" d="M382.8,238.9h-6v8.4h6V238.9z"/>
		<path class="st2" d="M371.6,238.9h-6v8.4h6V238.9z"/>
		<path class="st2" d="M360.6,238.9h-6v8.4h6V238.9z"/>
		<path class="st2" d="M350.3,238.9h-6v8.4h6V238.9z"/>
		<path class="st2" d="M339.7,238.9h-6v8.4h6V238.9z"/>
		<path class="st2" d="M329,238.9h-6v8.4h6V238.9z"/>
		<path class="st2" d="M317.8,238.9h-6v8.4h6V238.9z"/>
		<path class="st2" d="M306.8,238.9h-6v8.4h6V238.9z"/>
		<path class="st2" d="M296.4,238.9h-6v8.4h6V238.9z"/>
		<path class="st2" d="M285.9,238.9h-6v8.4h6V238.9z"/>
		<path class="st2" d="M274.8,238.9h-6v8.4h6V238.9z"/>
		<path class="st2" d="M263.6,238.9h-6v8.4h6V238.9z"/>
		<path class="st2" d="M252.7,238.9h-6v8.4h6V238.9z"/>
		<path class="st2" d="M242.3,238.9h-6v8.4h6V238.9z"/>
		<path class="st2" d="M231.7,238.9h-6v8.4h6V238.9z"/>
		<path class="st2" d="M221,238.9h-6v8.4h6V238.9z"/>
		<path class="st2" d="M209.8,238.9h-6v8.4h6V238.9z"/>
		<path class="st2" d="M188.5,238.9h-6v8.4h6V238.9z"/>
		<path class="st2" d="M198.8,238.9h-6v8.4h6V238.9z"/>
		<path class="st2" d="M177.9,238.9h-6v8.4h6V238.9z"/>
		<path class="st2" d="M382.8,253.6h-6v8.4h6V253.6z"/>
		<path class="st2" d="M371.6,253.6h-6v8.4h6V253.6z"/>
		<path class="st2" d="M360.6,253.6h-6v8.4h6V253.6z"/>
		<path class="st2" d="M350.3,253.6h-6v8.4h6V253.6z"/>
		<path class="st2" d="M339.7,253.6h-6v8.4h6V253.6z"/>
		<path class="st2" d="M329,253.6h-6v8.4h6V253.6z"/>
		<path class="st2" d="M317.8,253.6h-6v8.4h6V253.6z"/>
		<path class="st2" d="M306.8,253.6h-6v8.4h6V253.6z"/>
		<path class="st2" d="M296.4,253.6h-6v8.4h6V253.6z"/>
		<path class="st2" d="M285.9,253.6h-6v8.4h6V253.6z"/>
		<path class="st2" d="M274.8,253.6h-6v8.4h6V253.6z"/>
		<path class="st2" d="M263.6,253.6h-6v8.4h6V253.6z"/>
		<path class="st2" d="M252.7,253.6h-6v8.4h6V253.6z"/>
		<path class="st2" d="M242.3,253.6h-6v8.4h6V253.6z"/>
		<path class="st2" d="M231.7,253.6h-6v8.4h6V253.6z"/>
		<path class="st2" d="M221,253.6h-6v8.4h6V253.6z"/>
		<path class="st2" d="M209.8,253.6h-6v8.4h6V253.6z"/>
		<path class="st2" d="M188.5,253.6h-6v8.4h6V253.6z"/>
		<path class="st2" d="M177.9,253.6h-6v8.4h6V253.6z"/>
		<path class="st3" d="M121.7,236.9h-13.3v90h13.3V236.9z"/>
		<path class="st5" d="M121.7,354.2H136v-62.5h-14.3V354.2z"/>
		<path class="st4" d="M435,211.6V194h-0.7v17.6h-9.9v21.6h20.4v-21.6H435z"/>
		<path class="st3" d="M493.9,166.2v-13.5h-5.7v-5.9h-0.7v5.9h-20.9h-0.4h-3.9v-5.9h-0.7v5.9h-5.1v58.8h10.1v-25.3h27.3v-13.5h-27.3
			v-6.6H493.9z"/>
		<path class="st3" d="M198.1,250v75.9h-76.4v-89L198.1,250z"/>
		<path class="st3" d="M102.8,355.4h95.3v-64h-95.3V355.4z"/>
		<path class="st3" d="M102.8,274.3h95.3v-20.8h-95.3V274.3z"/>
		<path class="st2" d="M191.6,308.8h-4.9v6.9h4.9V308.8z"/>
		<path class="st2" d="M182.4,308.8h-4.9v6.9h4.9V308.8z"/>
		<path class="st2" d="M173.5,308.8h-4.9v6.9h4.9V308.8z"/>
		<path class="st2" d="M165,308.8h-4.9v6.9h4.9V308.8z"/>
		<path class="st2" d="M156.3,308.8h-4.9v6.9h4.9V308.8z"/>
		<path class="st2" d="M147.6,308.8h-4.9v6.9h4.9V308.8z"/>
		<path class="st2" d="M138.5,308.8h-4.9v6.9h4.9V308.8z"/>
		<path class="st2" d="M129.5,308.8h-4.9v6.9h4.9V308.8z"/>
		<path class="st2" d="M121,308.8h-4.9v6.9h4.9V308.8z"/>
		<path class="st2" d="M112.4,308.8h-4.9v6.9h4.9V308.8z"/>
		<path class="st2" d="M191.6,320.9h-4.9v6.9h4.9V320.9z"/>
		<path class="st2" d="M182.4,320.9h-4.9v6.9h4.9V320.9z"/>
		<path class="st2" d="M173.5,320.9h-4.9v6.9h4.9V320.9z"/>
		<path class="st2" d="M165,320.9h-4.9v6.9h4.9V320.9z"/>
		<path class="st2" d="M156.3,320.9h-4.9v6.9h4.9V320.9z"/>
		<path class="st2" d="M147.6,320.9h-4.9v6.9h4.9V320.9z"/>
		<path class="st2" d="M138.5,320.9h-4.9v6.9h4.9V320.9z"/>
		<path class="st2" d="M129.5,320.9h-4.9v6.9h4.9V320.9z"/>
		<path class="st2" d="M121,320.9h-4.9v6.9h4.9V320.9z"/>
		<path class="st2" d="M112.4,320.9h-4.9v6.9h4.9V320.9z"/>
		<path class="st2" d="M191.6,284.3h-4.9v6.9h4.9V284.3z"/>
		<path class="st2" d="M182.4,284.3h-4.9v6.9h4.9V284.3z"/>
		<path class="st2" d="M173.5,284.3h-4.9v6.9h4.9V284.3z"/>
		<path class="st2" d="M165,284.3h-4.9v6.9h4.9V284.3z"/>
		<path class="st2" d="M156.3,284.3h-4.9v6.9h4.9V284.3z"/>
		<path class="st2" d="M147.6,284.3h-4.9v6.9h4.9V284.3z"/>
		<path class="st2" d="M138.5,284.3h-4.9v6.9h4.9V284.3z"/>
		<path class="st2" d="M129.5,284.3h-4.9v6.9h4.9V284.3z"/>
		<path class="st2" d="M191.6,296.4h-4.9v6.9h4.9V296.4z"/>
		<path class="st2" d="M182.4,296.4h-4.9v6.9h4.9V296.4z"/>
		<path class="st2" d="M173.5,296.4h-4.9v6.9h4.9V296.4z"/>
		<path class="st2" d="M165,296.4h-4.9v6.9h4.9V296.4z"/>
		<path class="st2" d="M156.3,296.4h-4.9v6.9h4.9V296.4z"/>
		<path class="st2" d="M147.6,296.4h-4.9v6.9h4.9V296.4z"/>
		<path class="st2" d="M138.5,296.4h-4.9v6.9h4.9V296.4z"/>
		<path class="st2" d="M129.5,296.4h-4.9v6.9h4.9V296.4z"/>
		<path class="st2" d="M121,296.4h-4.9v6.9h4.9V296.4z"/>
		<path class="st2" d="M112.4,296.4h-4.9v6.9h4.9V296.4z"/>
		<path class="st2" d="M191.6,332.9h-4.9v6.9h4.9V332.9z"/>
		<path class="st2" d="M182.4,332.9h-4.9v6.9h4.9V332.9z"/>
		<path class="st2" d="M173.5,332.9h-4.9v6.9h4.9V332.9z"/>
		<path class="st2" d="M165,332.9h-4.9v6.9h4.9V332.9z"/>
		<path class="st2" d="M156.3,332.9h-4.9v6.9h4.9V332.9z"/>
		<path class="st2" d="M147.6,332.9h-4.9v6.9h4.9V332.9z"/>
		<path class="st2" d="M138.5,332.9h-4.9v6.9h4.9V332.9z"/>
		<path class="st2" d="M129.5,332.9h-4.9v6.9h4.9V332.9z"/>
		<path class="st2" d="M121,332.9h-4.9v6.9h4.9V332.9z"/>
		<path class="st2" d="M112.4,332.9h-4.9v6.9h4.9V332.9z"/>
		<path class="st6" d="M128.2,222.6h-1.4v18.1h1.4V222.6z"/>
		<path class="st6" d="M190.8,259.4h-4.1v7.1h4.1V259.4z"/>
		<path class="st6" d="M150,259.4h-4.1v7.1h4.1V259.4z"/>
		<path class="st6" d="M117.5,259.4h-4.1v7.1h4.1V259.4z"/>
		<path class="st3" d="M452,275.3H314.8v80.1H452V275.3z"/>
		<path class="st6" d="M327.5,283.5h-7.3v11.2h7.3V283.5z"/>
		<path class="st6" d="M340.4,283.5h-7.3v11.2h7.3V283.5z"/>
		<path class="st6" d="M353.4,283.5H346v11.2h7.3V283.5z"/>
		<path class="st6" d="M366.3,283.5h-7.3v11.2h7.3V283.5z"/>
		<path class="st6" d="M379.6,283.5h-7.3v11.2h7.3V283.5z"/>
		<path class="st6" d="M392.5,283.5h-7.3v11.2h7.3V283.5z"/>
		<path class="st6" d="M405.4,283.5h-7.3v11.2h7.3V283.5z"/>
		<path class="st6" d="M418.3,283.5H411v11.2h7.3V283.5z"/>
		<path class="st6" d="M431.9,283.5h-7.3v11.2h7.3V283.5z"/>
		<path class="st6" d="M444.8,283.5h-7.3v11.2h7.3V283.5z"/>
		<path class="st6" d="M327.5,300h-7.3v11.2h7.3V300z"/>
		<path class="st6" d="M340.4,300h-7.3v11.2h7.3V300z"/>
		<path class="st6" d="M353.4,300H346v11.2h7.3V300z"/>
		<path class="st6" d="M366.3,300h-7.3v11.2h7.3V300z"/>
		<path class="st6" d="M379.6,300h-7.3v11.2h7.3V300z"/>
		<path class="st6" d="M392.5,300h-7.3v11.2h7.3V300z"/>
		<path class="st6" d="M405.4,300h-7.3v11.2h7.3V300z"/>
		<path class="st6" d="M418.3,300H411v11.2h7.3V300z"/>
		<path class="st6" d="M431.9,300h-7.3v11.2h7.3V300z"/>
		<path class="st6" d="M444.8,300h-7.3v11.2h7.3V300z"/>
		<path class="st6" d="M327.5,317.7h-7.3v11.2h7.3V317.7z"/>
		<path class="st6" d="M340.4,317.7h-7.3v11.2h7.3V317.7z"/>
		<path class="st6" d="M353.4,317.7H346v11.2h7.3V317.7z"/>
		<path class="st6" d="M366.3,317.7h-7.3v11.2h7.3V317.7z"/>
		<path class="st6" d="M379.6,317.7h-7.3v11.2h7.3V317.7z"/>
		<path class="st6" d="M392.5,317.7h-7.3v11.2h7.3V317.7z"/>
		<path class="st6" d="M405.4,317.7h-7.3v11.2h7.3V317.7z"/>
		<path class="st6" d="M418.3,317.7H411v11.2h7.3V317.7z"/>
		<path class="st6" d="M431.9,317.7h-7.3v11.2h7.3V317.7z"/>
		<path class="st6" d="M444.8,317.7h-7.3v11.2h7.3V317.7z"/>
		<path class="st6" d="M327.5,334.2h-7.3v11.2h7.3V334.2z"/>
		<path class="st6" d="M340.4,334.2h-7.3v11.2h7.3V334.2z"/>
		<path class="st6" d="M353.4,334.2H346v11.2h7.3V334.2z"/>
		<path class="st6" d="M366.3,334.2h-7.3v11.2h7.3V334.2z"/>
		<path class="st6" d="M379.6,334.2h-7.3v11.2h7.3V334.2z"/>
		<path class="st6" d="M392.5,334.2h-7.3v11.2h7.3V334.2z"/>
		<path class="st6" d="M405.4,334.2h-7.3v11.2h7.3V334.2z"/>
		<path class="st6" d="M418.3,334.2H411v11.2h7.3V334.2z"/>
		<path class="st6" d="M431.9,334.2h-7.3v11.2h7.3V334.2z"/>
		<path class="st6" d="M444.8,334.2h-7.3v11.2h7.3V334.2z"/>
		<path class="st4" d="M404.7,279h28.6V254L404.7,265V279z"/>
		<path class="st3" d="M263.6,355.4h-65.5v-71.2l65.5,22.7V355.4z"/>
		<path class="st6" d="M261.9,309.3h-62.1v2.2h62.1V309.3z"/>
		<path class="st6" d="M261.9,316.3h-62.1v2.2h62.1V316.3z"/>
		<path class="st2" d="M261.9,323.4h-62.1v2.2h62.1V323.4z"/>
		<path class="st2" d="M261.9,330.5h-62.1v2.2h62.1V330.5z"/>
		<path class="st2" d="M261.9,337.6h-62.1v2.2h62.1V337.6z"/>
		<path class="st2" d="M261.9,344.6h-62.1v2.2h62.1V344.6z"/>
		<path class="st4" d="M438.9,254h-5.5v21.3h5.5V254z"/>
		<path class="st6" d="M427.3,272v-7.3h-11.2v7.3H427.3z"/>
		<path class="st2" d="M207.7,118.3h-3.8v32.2h3.8V118.3z"/>
		<path class="st2" d="M215.3,118.3h-3.8v32.2h3.8V118.3z"/>
		<path class="st2" d="M222.8,118.3h-3.8v32.2h3.8V118.3z"/>
		<path class="st2" d="M230.5,118.3h-3.8v32.2h3.8V118.3z"/>
		<path class="st7" d="M76.8,355.8c0,0,6.2-17,35-12.4c28.9,4.6,41.7,1.4,55.9-2.3c14.2-3.7,20.3-3.9,33.8,1.1
			c13.5,4.9,18.3,15,62.3,4.9c44.1-10.1,64.9-18.4,92.4-10.6c27.5,7.8,61.3-6.5,95.2,6.9c33.9,13.4,86.2-10.1,112.8,12.4H76.8z"/>
		<path class="st8" d="M617.5,355.7h-594c-0.3,0-0.5-0.2-0.5-0.5v0c0-0.3,0.2-0.5,0.5-0.5h594c0.3,0,0.5,0.2,0.5,0.5v0
			C618,355.5,617.8,355.7,617.5,355.7z"/>
		<path class="st9" d="M498.7,264.2H127.6v54.4h371.1V264.2z"/>
		<g class="st10">
			<path d="M498.7,264.2H127.6v54.4h371.1V264.2z"/>
		</g>
		<path class="st11" d="M179.8,353.8c19.7-1.3,34.6-18.4,33.3-38c-1.3-19.7-18.4-34.6-38.1-33.2c-19.7,1.3-34.6,18.4-33.3,38
			C143,340.3,160.1,355.2,179.8,353.8z"/>
		<path class="st11" d="M141.6,317.6C141.6,317.6,141.6,317.7,141.6,317.6c-0.3,19.8,15.5,36.1,35.3,36.3
			c19.8,0.3,36-15.5,36.3-35.2c0,0,0-0.1,0-0.1L141.6,317.6z"/>
		<path class="st12" d="M152.3,317.8c-0.2,13.9,10.9,25.3,24.8,25.4s25.3-10.9,25.5-24.7c0.2-13.9-10.9-25.3-24.8-25.4
			C163.9,292.9,152.5,304,152.3,317.8z"/>
		<path class="st12" d="M177.8,293.1c-13.9-0.2-25.3,10.9-25.5,24.7l50.2,0.7C202.7,304.7,191.6,293.3,177.8,293.1z"/>
		<path class="st11" d="M162.1,318c-0.1,8.4,6.6,15.4,15.1,15.5c8.5,0.1,15.4-6.6,15.5-15.1c0.1-8.4-6.6-15.4-15.1-15.5
			C169.2,302.8,162.2,309.5,162.1,318z"/>
		<path class="st11" d="M453.1,353.9c19.7-1.1,34.8-18,33.6-37.7c-1.1-19.7-18.1-34.7-37.8-33.6c-19.7,1.1-34.8,18-33.7,37.7
			C416.5,340,433.4,355,453.1,353.9z"/>
		<path class="st11" d="M415.3,317.6C415.3,317.6,415.3,317.7,415.3,317.6c-0.3,19.8,15.5,36.1,35.3,36.3
			c19.8,0.3,36-15.5,36.3-35.2c0,0,0-0.1,0-0.1L415.3,317.6z"/>
		<path class="st12" d="M425.9,317.8c-0.2,13.9,10.9,25.3,24.8,25.4c13.9,0.2,25.3-10.9,25.5-24.7c0.2-13.9-10.9-25.3-24.8-25.4
			C437.6,292.9,426.1,304,425.9,317.8z"/>
		<path class="st12" d="M451.4,293.1c-13.9-0.2-25.3,10.9-25.5,24.7l50.2,0.7C476.4,304.7,465.3,293.3,451.4,293.1z"/>
		<path class="st11" d="M435.8,318c-0.1,8.4,6.6,15.4,15.1,15.5c8.5,0.1,15.4-6.6,15.5-15.1c0.1-8.4-6.6-15.4-15.1-15.5
			C442.8,302.8,435.9,309.5,435.8,318z"/>
		<path class="st9" d="M224.3,233.6c0,0-52.7,3.9-72.2,8.3c-13.8,3.1-40.3,8.4-40,25.1l2.1,11.9c0,0-9.9,4.5-9.9,16
			c0,11.5-2.4,29.2,20.6,29.9c3.8,0.1,11,0,11,0s-4.4-48.9,40.6-50.3c45.8-1.5,42.7,49.9,42.7,49.9h190.9c0,0-7.8-50,41.4-50.1
			c49.3-0.1,41.8,50.4,41.8,50.4s18.1,1.6,26.5-13.6c8.4-15.2,6.2-26,6.2-26l-0.3-9.6c-0.1-3.3-2.7-5.9-6-6c0,0,3.3-24.2-1.7-28.4
			c-5.1-4.2-32.7-29.5-32.7-29.5l1.3-0.8c2.2-1.4,1.8-4.7-0.6-5.5c-10.5-3.6-31.3-10.7-36.2-12.5c-0.7-0.3-1.5-0.4-2.3-0.5
			c-2.9-0.2-11.2-0.8-26.3-0.9c-18.5-0.2-91.7,0-91.7,0s-25.2,2.1-39.3,8.2C275.5,206,224.3,233.6,224.3,233.6z"/>
		<g class="st13">
			<path d="M117.7,293.5c-1.9-0.4-4.8-0.4-6.3,0.9c-1.1,1-1.4,2.5-1.5,3.9c-0.2,2-0.3,4,0.1,5.9s1.6,3.8,3.3,4.7
				c1.7,0.9,4.1,0.8,5.5-0.7c1.3-1.3,1.4-3.3,1.3-5.1c0-2.6,0.2-4.8-0.3-7.3c-0.1-0.5-0.4-1.1-0.7-1.5
				C118.8,293.8,118.4,293.5,117.7,293.5z"/>
		</g>
		<path class="st14" d="M114.2,278.9c5.6,0,11-0.3,16.6-0.7c0.6,0,1.3-0.1,1.7-0.5c0.5-0.5,0.6-1.3,0.6-2c0-3-0.1-6.4-2.4-8.4
			c-1.4-1.2-3.3-1.6-5.1-1.7c-4.5-0.4-9.2-0.1-13.5,1.3L114.2,278.9z"/>
		<path class="st15" d="M230.4,322.8c0,0,0-0.2,0-0.5c0-0.3,0-0.8-0.1-1.4c-0.1-1.3-0.2-3.1-0.3-5.4c-0.1-2.3-0.3-5.2-0.6-8.5
			c-0.4-3.3-0.9-7.1-2-11.1c-1.1-4-2.8-8.3-5.4-12.5c-2.6-4.2-5.9-8.4-10.4-11.6c-9-6.4-21.2-10-34-10.2
			c-12.8-0.1-24.9,3.9-33.7,10.6c-4.4,3.3-8.1,7.2-10.9,11.2c-2.9,4-4.9,8.1-6.4,12c-1.5,3.9-2.3,7.6-2.7,10.9
			c-0.5,3.3-0.4,6.2-0.3,8.5c0.2,2.3,0.4,4.1,0.7,5.4c0.1,0.6,0.2,1.1,0.3,1.4c0,0.3,0.1,0.5,0.1,0.5s0-0.2-0.1-0.5
			c-0.1-0.3-0.2-0.8-0.3-1.4c-0.3-1.2-0.5-3-0.7-5.4c-0.1-2.3-0.2-5.2,0.3-8.5c0.4-3.3,1.2-7.1,2.7-11c1.5-3.9,3.5-8.1,6.4-12.1
			c2.8-4.1,6.5-7.9,11-11.3c8.8-6.8,21.1-10.9,33.9-10.7c12.8,0.2,25.1,3.8,34.2,10.3c4.5,3.3,7.9,7.5,10.5,11.7
			c2.6,4.2,4.3,8.6,5.4,12.6c1.1,4.1,1.6,7.8,1.9,11.2c0.3,3.3,0.4,6.2,0.6,8.5c0.1,2.3,0.2,4.2,0.2,5.4c0,0.6,0,1.1,0,1.4
			C230.4,322.6,230.4,322.8,230.4,322.8z"/>
		<path class="st16" d="M232.4,323.6c0,0,0-0.1,0-0.4c0-0.3,0-0.7,0-1.2c0-1.1-0.1-2.6-0.1-4.6c-0.1-4.1-0.3-10-0.5-17.5
			c-0.2-7.6-0.4-16.7-0.8-27.2c-0.1-2.6-0.1-5.3-0.2-8.1c-0.1-1.4,0-2.8,0.2-4.2c0.1-0.7,0.2-1.4,0.3-2.1c0.1-0.7,0.3-1.4,0.4-2.1
			c0.7-2.9,1.7-5.8,3-8.6c1.3-2.8,2.9-5.6,4.9-8.1l0,0l0,0c10.2-6.4,21.3-13.4,33.1-20.8c2.9-1.8,5.9-3.7,8.9-5.6
			c3-2,6.1-3.7,9.5-5.3c3.3-1.6,6.7-2.9,10.3-4.1c1.7-0.6,3.5-1.1,5.4-1.7c1.8-0.4,3.6-1,5.5-1.3c7.1-1.6,14.3-2.4,21.3-2.7
			c7-0.3,13.9-0.3,20.6,0.1h0.2l0,0.2c-3.2,14.1-6.1,27.5-8.9,39.7v0l0,0c-1.7,2.7-3,5.6-4,8.5c-0.9,2.9-1.6,5.9-1.3,8.8
			c0.2,2.9,0.3,5.8,0.4,8.6c0,2.8,0.1,5.5,0.2,8.1c0.2,10.5,0.2,19.6,0.2,27.2c0,7.5,0,13.5,0,17.5c0,2,0,3.6,0,4.6
			c0,0.5,0,0.9,0,1.2c0,0.3,0,0.4,0,0.4s0-0.1,0-0.4c0-0.3,0-0.7,0-1.2c0-1.1,0-2.6,0-4.6c0-4,0-10-0.1-17.5
			c0-7.5-0.1-16.7-0.3-27.2c0-2.6-0.1-5.3-0.2-8.1c-0.1-2.8-0.2-5.6-0.4-8.6c-0.2-3,0.4-6,1.3-8.9c1-2.9,2.3-5.8,4-8.6l0,0
			c2.7-12.2,5.7-25.6,8.9-39.7l0.1,0.2c-6.7-0.4-13.6-0.4-20.6-0.1c-7,0.3-14.2,1.1-21.2,2.7c-1.8,0.4-3.7,0.9-5.5,1.3
			c-1.8,0.5-3.6,1-5.3,1.7c-3.5,1.2-6.9,2.5-10.2,4.1c-3.3,1.6-6.5,3.3-9.4,5.2c-3,1.9-6,3.8-8.9,5.6c-11.7,7.4-22.9,14.3-33.1,20.8
			l0,0c-2,2.5-3.5,5.3-4.9,8c-1.3,2.8-2.3,5.6-3,8.5c-1.5,5.7-0.8,11.4-0.7,16.6c0.3,10.5,0.5,19.6,0.7,27.2
			c0.2,7.5,0.3,13.5,0.4,17.5c0,2,0.1,3.6,0.1,4.6c0,0.5,0,0.9,0,1.2C232.4,323.5,232.4,323.6,232.4,323.6z"/>
		<path class="st16" d="M353.8,199.1c0,0,0.1,0,0.3,0c0.2,0,0.5,0,0.9,0c0.8,0,2,0,3.5-0.1c3.1-0.1,7.6-0.1,13.2-0.3
			c11.2-0.2,26.8-0.4,44.4-0.8h0.1l0,0.1c2,2.4,4.1,5,6.2,7.6c6.3,7.7,12.3,15.1,17.8,21.8c0.7,0.8,1.3,1.7,2,2.5
			c0.7,0.8,1.2,1.7,1.7,2.7c0.9,1.9,1.3,3.9,1.3,5.8c0,1.9-0.4,3.8-1.1,5.5c-0.7,1.6-1.4,3.2-2,4.7c-2.6,6-4.7,10.8-6.1,14.2
			c-0.7,1.7-1.3,2.9-1.7,3.8c-0.2,0.4-0.3,0.8-0.4,1c-0.1,0.2-0.2,0.3-0.2,0.3s0-0.1,0.1-0.4c0.1-0.2,0.2-0.6,0.4-1
			c0.4-0.9,0.9-2.2,1.6-3.9c1.4-3.4,3.5-8.2,6-14.2c1.2-3,3.2-6.2,3-10.1c0-1.9-0.4-3.8-1.3-5.7c-0.4-0.9-1-1.8-1.6-2.6
			c-0.7-0.8-1.3-1.6-2-2.5c-5.5-6.7-11.5-14-17.8-21.7c-2.1-2.6-4.2-5.2-6.2-7.6l0.1,0.1c-17.6,0.3-33.2,0.5-44.4,0.6
			c-5.6,0.1-10.1,0.1-13.2,0.2c-1.5,0-2.7,0-3.5,0c-0.4,0-0.7,0-0.9,0C353.9,199.1,353.8,199.1,353.8,199.1z"/>
		<path class="st16" d="M331.4,258.1c0,0,0.2,0,0.5-0.1c0.3-0.1,0.9-0.2,1.4-0.6c0.5-0.4,1.1-1,1.4-1.9c0.1-0.4,0.2-0.9,0.2-1.5
			c0-0.5-0.1-1.1-0.4-1.6c-0.5-1-1.7-1.9-3.1-1.9c-1.4,0-2.9,0-4.5,0c-3.2,0-6.7,0-10.3,0c-0.9,0-1.7,0.3-2.4,0.9
			c-0.6,0.6-1,1.4-1.1,2.2c-0.1,0.9,0,1.7,0.4,2.4c0.4,0.7,1,1.2,1.7,1.5c0.7,0.3,1.5,0.3,2.2,0.3c0.8,0,1.5,0,2.2,0
			c1.4,0,2.7,0,3.9,0c2.4,0,4.3,0,5.7,0c0.6,0,1.2,0,1.5,0C331.2,258,331.4,258,331.4,258.1c0,0-0.2,0-0.5,0c-0.4,0-0.9,0-1.5,0
			c-1.4,0-3.3,0-5.7,0c-1.2,0-2.5,0-3.9,0c-0.7,0-1.4,0-2.2,0c-0.4,0-0.8,0-1.2,0c-0.4,0-0.8-0.1-1.2-0.3c-0.8-0.3-1.4-0.9-1.9-1.7
			c-0.4-0.8-0.6-1.7-0.5-2.5c0.1-0.9,0.5-1.8,1.2-2.4c0.7-0.6,1.6-1,2.6-1c3.7,0,7.2,0,10.3,0c1.6,0,3.1,0,4.5,0
			c1.5,0,2.7,0.9,3.3,2.1c0.3,0.5,0.4,1.1,0.4,1.7c0,0.5,0,1.1-0.2,1.5c-0.3,0.9-1,1.6-1.5,1.9c-0.6,0.4-1.1,0.5-1.5,0.5
			C331.6,258.1,331.4,258.1,331.4,258.1z"/>
		<path class="st16" d="M430.4,258.1c0,0,0.2,0,0.5-0.1c0.3-0.1,0.9-0.2,1.4-0.6c0.5-0.4,1.1-1,1.4-1.9c0.1-0.4,0.2-0.9,0.2-1.5
			c0-0.5-0.1-1.1-0.4-1.6c-0.5-1-1.7-1.9-3.1-1.9c-1.4,0-2.9,0-4.5,0c-3.2,0-6.7,0-10.3,0c-0.9,0-1.7,0.3-2.4,0.9
			c-0.6,0.6-1,1.4-1.1,2.2c-0.1,0.9,0,1.7,0.4,2.4c0.4,0.7,1,1.2,1.7,1.5c0.7,0.3,1.5,0.3,2.2,0.3c0.8,0,1.5,0,2.2,0
			c1.4,0,2.7,0,3.9,0c2.4,0,4.3,0,5.7,0c0.6,0,1.2,0,1.5,0C430.2,258,430.4,258,430.4,258.1c0,0-0.2,0-0.5,0c-0.4,0-0.9,0-1.5,0
			c-1.4,0-3.3,0-5.7,0c-1.2,0-2.5,0-3.9,0c-0.7,0-1.4,0-2.2,0c-0.4,0-0.8,0-1.2,0c-0.4,0-0.8-0.1-1.2-0.3c-0.8-0.3-1.4-0.9-1.9-1.7
			c-0.4-0.8-0.6-1.7-0.5-2.5c0.1-0.9,0.5-1.8,1.2-2.4c0.7-0.6,1.6-1,2.6-1c3.7,0,7.2,0,10.3,0c1.6,0,3.1,0,4.5,0
			c1.5,0,2.7,0.9,3.3,2.1c0.3,0.5,0.4,1.1,0.4,1.7c0,0.5,0,1.1-0.2,1.5c-0.3,0.9-1,1.6-1.5,1.9c-0.6,0.4-1.1,0.5-1.5,0.5
			C430.6,258.1,430.4,258.1,430.4,258.1z"/>
		<path class="st14" d="M517.1,241.9h-19.8c-2.7,0-5.2,1.5-6.5,3.9c-1,2-1.1,4.3-0.2,6.3l7.8,17.6l19.8-0.2
			C518.2,269.6,522.4,247.2,517.1,241.9z"/>
		<path class="st11" d="M242.2,239.4l102.2-1.9l66.5-1.2l21.9-12.6c1.8-1,2.2-3.4,1-5l-13.7-17.9c-1.4-1.9-3.6-3-6-3l-74.4-0.6
			c0,0-28-1.6-50.1,10.7C266.5,220.9,242.2,239.4,242.2,239.4z"/>
		<path class="st17" d="M289,199.1c0,0,5.1,2.3,1.8,4.5c-3.3,2.2-55.1,34.7-55.1,34.7l-11.9-5.4C244.8,221.2,266.1,209.8,289,199.1z
			"/>
		<path class="st16" d="M237.4,239.1c0,0-0.1,0-0.3,0.1c-0.2,0-0.5,0.1-0.9,0.2c-0.8,0.2-2.1,0.4-3.6,0.8c-3.2,0.6-7.7,1.5-13.4,2.5
			c-11.3,2-27.1,4.2-44.6,5.7c-4.4,0.4-8.6,0.7-12.8,1c-4.1,0.3-8.1,0.5-11.9,0.9c-7.6,0.7-14.4,1.8-19.9,3.4
			c-5.5,1.6-9.8,3.6-12.5,5.2c-1.4,0.8-2.4,1.5-3.2,1.9c-0.4,0.2-0.6,0.4-0.8,0.5c-0.2,0.1-0.3,0.2-0.3,0.2s0.1-0.1,0.3-0.2
			c0.2-0.1,0.4-0.3,0.8-0.5c0.7-0.5,1.7-1.2,3.1-2c2.8-1.7,7-3.7,12.5-5.3c5.5-1.7,12.3-2.8,19.9-3.5c3.8-0.4,7.8-0.6,11.9-0.9
			c4.1-0.3,8.4-0.6,12.8-1c17.5-1.5,33.3-3.8,44.6-5.6c5.7-0.9,10.3-1.8,13.4-2.4c1.6-0.3,2.8-0.5,3.6-0.7c0.4-0.1,0.7-0.1,0.9-0.2
			C237.2,239.1,237.4,239.1,237.4,239.1z"/>
		<path class="st16" d="M525,284.8c0,0.1-6.8,0.2-15.2,0.2c-8.4,0-15.2-0.1-15.2-0.2c0-0.1,6.8-0.2,15.2-0.2
			C518.2,284.6,525,284.7,525,284.8z"/>
		<path class="st16" d="M400.5,302.1c0,0.1-38.4,0.2-85.8,0.2c-47.4,0-85.8-0.1-85.8-0.2c0-0.1,38.4-0.2,85.8-0.2
			C362,301.9,400.5,302,400.5,302.1z"/>
		<path class="st16" d="M131.4,285.4c0,0.1-5.4,0.2-12.1,0.2s-12.1-0.1-12.1-0.2c0-0.1,5.4-0.2,12.1-0.2
			C125.9,285.2,131.4,285.3,131.4,285.4z"/>
		<path class="st17" d="M484.7,210.8c0,0-4.6,5.1-2.8,8.9c1.8,3.8,20.3,16.9,20.3,16.9l13.4,2.5L484.7,210.8z"/>
		<path class="st17" d="M356.8,201.7l-3,32.6l54.1-1.5l21.8-12.7l-14.1-18.4H356.8z"/>
		<path class="st17" d="M255,236c0,0,32.7-23.6,45.5-28.2c12.4-4.5,18.9-5.6,30.6-6c11.2-0.3,18,0,18,0l-8.6,33.2L255,236z"/>
		<path class="st9" d="M250.2,236.1c0-2.1,1.1-4,2.9-5l7.5-4.2c2.1-1.2,4.6-1.8,7-1.8c1.5,0,3,0.2,4.4,0.7c3.2,1,5.3,4.1,5.5,7.5
			c0.2,4.7-3.6,8.6-8.2,8.6h-13.4C252.8,241.8,250.2,239.2,250.2,236.1z"/>
		<path class="st16" d="M250.2,236.1c0,0,0,0.3,0.1,0.7c0.1,0.5,0.2,1.2,0.7,2c0.4,0.8,1.2,1.7,2.3,2.3c0.6,0.3,1.2,0.5,1.9,0.6
			c0.7,0.1,1.5,0,2.3,0c3.3,0,7.1,0,11.4,0c1.1,0,2.2-0.1,3.2-0.5c1-0.4,2-1,2.8-1.8c0.8-0.8,1.5-1.8,1.9-2.9
			c0.4-1.1,0.6-2.3,0.5-3.5c-0.2-2.4-1.5-4.7-3.4-6c-0.9-0.7-2-1-3.1-1.3c-1.1-0.3-2.2-0.4-3.2-0.4c-2.1,0-4.1,0.5-5.9,1.3
			c-0.9,0.4-1.7,0.9-2.4,1.3c-0.8,0.4-1.5,0.8-2.2,1.3c-1.4,0.8-2.7,1.5-3.9,2.1s-1.9,1.5-2.3,2.3c-0.4,0.8-0.6,1.5-0.7,2
			C250.2,235.8,250.2,236.1,250.2,236.1s0-0.3,0-0.7c0-0.5,0.2-1.2,0.6-2c0.4-0.8,1.2-1.7,2.3-2.4c1.1-0.6,2.4-1.4,3.8-2.2
			c0.7-0.4,1.4-0.8,2.2-1.3s1.6-0.9,2.5-1.3c1.7-0.8,3.8-1.3,6-1.3c1.1,0,2.2,0.1,3.3,0.4c1.1,0.3,2.2,0.6,3.2,1.3
			c2,1.4,3.3,3.7,3.5,6.2c0.1,1.3-0.1,2.5-0.5,3.7c-0.4,1.2-1.1,2.2-2,3c-0.9,0.8-1.9,1.5-3,1.9c-1.1,0.4-2.2,0.5-3.3,0.5
			c-4.3,0-8.2,0-11.4,0c-0.8,0-1.6,0-2.3-0.1c-0.7-0.1-1.4-0.3-2-0.7c-1.2-0.6-1.9-1.6-2.3-2.4c-0.4-0.8-0.6-1.5-0.6-2
			C250.2,236.3,250.2,236.1,250.2,236.1z"/>
		<path class="st15" d="M501.8,323.1c0,0,0-0.2,0-0.5c0-0.3,0-0.8,0.1-1.3c0-0.6,0.1-1.3,0.1-2.2c0-0.9,0.1-1.9,0.1-3
			c0-1.1,0-2.4,0-3.8c-0.1-1.4-0.1-2.9-0.3-4.5c-0.3-3.2-0.8-6.8-1.9-10.7c-0.6-1.9-1.2-4-2.1-6c-0.9-2-1.9-4.1-3.2-6.1
			c-2.6-4-6.1-7.7-10.4-10.9c-4.3-3.2-9.4-5.7-15-7.4c-5.6-1.7-11.7-2.3-17.8-2.4c-6.2,0-12.2,0.8-17.8,2.6c-2.8,0.9-5.4,2-7.9,3.3
			c-2.5,1.3-4.8,2.9-6.9,4.5c-4.2,3.3-7.8,7-10.6,10.9c-1.4,1.9-2.5,3.9-3.5,5.9c-0.9,2-1.8,3.9-2.4,5.9c-2.7,7.6-3.6,14.2-3.9,18.7
			c-0.1,2.3-0.1,4,0,5.2c0,0.6,0.1,1,0.1,1.3c0,0.3,0,0.5,0,0.5s0-0.2,0-0.5c0-0.3-0.1-0.8-0.1-1.3c-0.1-1.2-0.1-3,0-5.2
			c0.3-4.5,1.1-11.1,3.8-18.8c0.6-1.9,1.5-3.9,2.4-5.9c1-2,2.1-4,3.5-5.9c2.8-3.8,6.4-7.6,10.6-10.9c2.1-1.7,4.4-3.2,6.9-4.5
			c2.5-1.3,5.2-2.4,8-3.3c5.6-1.8,11.7-2.6,17.9-2.6c6.2,0,12.3,0.7,17.9,2.4c5.6,1.7,10.8,4.2,15.1,7.5c2.2,1.6,4.2,3.3,5.9,5.2
			c1.8,1.8,3.3,3.8,4.6,5.8c1.3,2,2.4,4.1,3.2,6.1c0.9,2,1.5,4.1,2.1,6c1.1,3.9,1.6,7.6,1.9,10.8c0.2,1.6,0.2,3.1,0.3,4.5
			c0,1.4,0,2.6,0,3.8c0,1.1-0.1,2.1-0.1,3c0,0.9-0.1,1.6-0.2,2.2c0,0.6-0.1,1-0.1,1.3C501.8,323,501.8,323.1,501.8,323.1z"/>
		<path class="st15" d="M339,239.4c0,0,0,0-0.2,0c-0.1,0-0.3,0-0.4,0c-0.4,0-1,0-1.7,0c-1.5,0-3.7,0.1-6.4,0.1
			c-5.4,0.1-12.9,0.3-21.2,0.5c-8.3,0.2-15.8,0.4-21.2,0.4c-2.7,0-4.9,0-6.4,0c-0.7,0-1.3,0-1.7,0c-0.2,0-0.3,0-0.4,0
			c-0.1,0-0.2,0-0.2,0c0,0,0,0,0.2,0c0.1,0,0.3,0,0.4,0c0.4,0,1,0,1.7,0c1.5,0,3.7-0.1,6.4-0.1c5.4-0.1,12.9-0.3,21.2-0.5
			c8.3-0.2,15.7-0.4,21.2-0.4c2.7,0,4.9,0,6.4,0c0.7,0,1.3,0,1.7,0c0.2,0,0.3,0,0.4,0C339,239.4,339,239.4,339,239.4z"/>
		<path class="st15" d="M330.1,249.5c0,0.1-2.6,0.2-5.9,0.2s-5.9-0.1-5.9-0.2c0-0.1,2.6-0.2,5.9-0.2
			C327.5,249.3,330.1,249.4,330.1,249.5z"/>
		<path class="st15" d="M332.3,213.7c0,0.1-7.2,3.1-16.2,6.8c-9,3.6-16.4,6.5-16.4,6.4c0-0.1,7.2-3.1,16.3-6.8
			C324.9,216.5,332.3,213.6,332.3,213.7z"/>
		<path class="st15" d="M317.6,216c0,0.1-6.9,3.1-15.5,6.8c-8.6,3.7-15.6,6.6-15.6,6.5c0-0.1,6.9-3.1,15.5-6.8
			C310.5,218.8,317.5,215.9,317.6,216z"/>
		<path class="st15" d="M411,212.5c0,0.1-7.2,3.1-16.2,6.7c-9,3.6-16.4,6.5-16.4,6.4c0-0.1,7.2-3.1,16.3-6.7
			C403.7,215.3,411,212.4,411,212.5z"/>
		<path class="st15" d="M396.3,214.7c0,0.1-6.9,3.1-15.5,6.8c-8.6,3.7-15.6,6.6-15.6,6.5c0-0.1,6.9-3.1,15.5-6.8
			C389.3,217.6,396.3,214.7,396.3,214.7z"/>
		<path class="st15" d="M412.5,239.4c0,0.1-14.5,0.3-32.3,0.4c-17.8,0.1-32.3,0.1-32.3,0s14.5-0.3,32.3-0.4
			C398,239.3,412.5,239.3,412.5,239.4z"/>
		<path class="st15" d="M428.5,248.9c0,0.1-4.1,0.2-9.1,0.3c-5,0-9.1,0-9.1-0.1c0-0.1,4.1-0.2,9.1-0.3
			C424.4,248.8,428.5,248.8,428.5,248.9z"/>
		<path class="st15" d="M151.5,244c0,0-0.1,0-0.4,0.1c-0.3,0-0.7,0.1-1.1,0.1c-0.5,0-1.1,0.1-1.8,0.2c-0.7,0.1-1.5,0.2-2.4,0.4
			c-1.7,0.3-3.8,0.8-6.1,1.4c-2.3,0.6-4.7,1.4-7.2,2.4c-2.5,1-4.8,2.1-6.9,3.2c-2.1,1.1-3.9,2.2-5.4,3.1c-0.8,0.5-1.4,0.9-2,1.3
			c-0.6,0.4-1.1,0.7-1.5,1c-0.4,0.3-0.7,0.5-0.9,0.7c-0.2,0.1-0.3,0.2-0.3,0.2s0.1-0.1,0.3-0.3c0.2-0.2,0.5-0.4,0.9-0.7
			c0.4-0.3,0.9-0.7,1.4-1.1c0.6-0.4,1.2-0.9,2-1.4c1.5-1,3.3-2.1,5.4-3.2c2.1-1.1,4.4-2.2,6.9-3.2c2.5-1,5-1.8,7.3-2.4
			c2.3-0.6,4.3-1,6.1-1.3c0.9-0.2,1.7-0.2,2.4-0.3c0.7-0.1,1.3-0.1,1.8-0.2c0.5,0,0.9-0.1,1.1-0.1C151.3,244,151.5,244,151.5,244z"
			/>
		<path class="st15" d="M270.9,228.2c0,0-0.2-0.3-0.6-0.6c-0.4-0.4-1.2-0.8-2.2-0.9c-1-0.1-2.2,0-3.6,0.4c-1.3,0.3-2.8,0.8-4.2,1.4
			c-2.9,1.3-5.3,2.9-6.9,4.2c-1.6,1.3-2.4,2.3-2.5,2.3c0,0,0.2-0.3,0.6-0.7c0.4-0.4,1-1,1.7-1.7c1.5-1.4,3.9-3.1,6.9-4.4
			c1.5-0.6,2.9-1.1,4.3-1.4c1.3-0.3,2.6-0.5,3.7-0.3c1.1,0.2,1.8,0.6,2.3,1c0.2,0.2,0.4,0.4,0.4,0.5
			C270.9,228.1,270.9,228.2,270.9,228.2z"/>
		<path class="st16" d="M486.3,210.6c0,0-1,0.3-2.8,0.3c-0.9,0-2.1-0.1-3.3-0.4c-1.3-0.3-2.7-0.7-4.3-1.3c-1.5-0.6-3.2-1.3-5-2.1
			c-0.9-0.4-1.8-0.7-2.8-1.1c-0.9-0.4-2-0.7-3-1.1c-4.1-1.4-8.7-2.7-13.6-3.7c-9.8-2.1-18.9-2.9-25.5-3.2c-1.7-0.1-3.1-0.1-4.4-0.1
			c-1.3,0-2.4,0-3.4,0c-0.9,0-1.6,0-2.1,0c-0.2,0-0.4,0-0.5,0c-0.1,0-0.2,0-0.2,0s0.1,0,0.2,0c0.1,0,0.3,0,0.5,0
			c0.5,0,1.2-0.1,2.1-0.1c0.9,0,2.1,0,3.4-0.1c1.3,0,2.8,0,4.4,0.1c6.6,0.2,15.7,1,25.5,3.1c4.9,1,9.5,2.3,13.7,3.8
			c1,0.4,2,0.7,3,1.1c0.9,0.4,1.9,0.8,2.8,1.1c1.8,0.8,3.4,1.5,4.9,2.1c1.5,0.6,2.9,1.1,4.2,1.3c1.3,0.3,2.4,0.4,3.3,0.5
			c0.9,0,1.6,0,2.1-0.1c0.2,0,0.4,0,0.5-0.1C486.2,210.6,486.3,210.6,486.3,210.6z"/>
		<path class="st18" d="M346.2,45.1c-0.8,16.9-12.1,27.4-12.1,27.4S320.8,62,320,45.1c-0.3-7.2,5.9-13.1,13.1-13.1
			C340.4,32,346.6,37.9,346.2,45.1z"/>
		<path class="st19" d="M341,44.2c0,4.5-3.6,8.1-8.1,8.1c-4.5,0-8.1-3.6-8.1-8.1s3.6-8.1,8.1-8.1C337.4,36.1,341,39.7,341,44.2z"/>
		<path class="st18" d="M575.2,112.1c-0.8,16.9-12.1,27.4-12.1,27.4S549.8,129,549,112.1c-0.4-7.2,5.9-13.1,13.1-13.1
			C569.4,99,575.6,104.9,575.2,112.1z"/>
		<path class="st19" d="M570,111.2c0,4.5-3.6,8.1-8.1,8.1c-4.5,0-8.1-3.6-8.1-8.1c0-4.5,3.6-8.1,8.1-8.1
			C566.4,103.1,570,106.7,570,111.2z"/>
		<path class="st18" d="M112.2,50.1c-0.8,16.9-12.1,27.4-12.1,27.4S86.8,67,86,50.1C85.7,42.9,91.9,37,99.1,37
			C106.4,37,112.6,42.9,112.2,50.1z"/>
		<path class="st20" d="M99,57.8c4.7,0,8.6-3.8,8.6-8.6s-3.8-8.6-8.6-8.6c-4.7,0-8.6,3.8-8.6,8.6S94.2,57.8,99,57.8z"/>
		<path class="st21" d="M4.8,59.7c-0.1,0-0.2,0-0.3-0.1c-1.4-0.7-2.2-1.1-2.2-1.1C2,58.4,1.9,58,2.1,57.7c0.2-0.3,0.5-0.4,0.8-0.3
			c0,0,0.8,0.4,2.2,1.1c0.3,0.2,0.4,0.5,0.3,0.8C5.3,59.5,5.1,59.7,4.8,59.7z"/>
		<path class="st11" d="M574.9,152.9c-0.7,0-1.5,0-2.2-0.1c-0.3,0-0.6-0.3-0.6-0.6c0-0.3,0.3-0.6,0.6-0.6c1.6,0.1,3.2,0.1,4.8,0
			c0.4,0,0.6,0.2,0.7,0.6c0,0.3-0.2,0.6-0.6,0.7C576.7,152.9,575.8,152.9,574.9,152.9z M567.9,152.3c0,0-0.1,0-0.1,0
			c-1.6-0.3-3.2-0.7-4.9-1.2c-0.3-0.1-0.5-0.4-0.4-0.8c0.1-0.3,0.4-0.5,0.8-0.4c1.6,0.5,3.1,0.9,4.7,1.2c0.3,0.1,0.6,0.4,0.5,0.7
			C568.4,152.1,568.1,152.3,567.9,152.3z M582.5,152.2c-0.3,0-0.6-0.2-0.6-0.5c-0.1-0.3,0.2-0.7,0.5-0.7c1.5-0.3,3.1-0.7,4.7-1.2
			c0.3-0.1,0.7,0.1,0.8,0.4c0.1,0.3-0.1,0.7-0.4,0.8c-1.6,0.5-3.2,0.9-4.8,1.2C582.6,152.2,582.5,152.2,582.5,152.2z M558.5,149.4
			c-0.1,0-0.2,0-0.2,0c-1.5-0.6-3-1.3-4.5-2c-0.3-0.2-0.4-0.5-0.3-0.8c0.2-0.3,0.5-0.4,0.8-0.3c1.5,0.7,2.9,1.4,4.4,2
			c0.3,0.1,0.5,0.5,0.3,0.8C558.9,149.3,558.7,149.4,558.5,149.4z M591.9,149.2c-0.2,0-0.5-0.1-0.6-0.4c-0.1-0.3,0-0.7,0.3-0.8
			c1.5-0.6,2.9-1.3,4.4-2.1c0.3-0.2,0.7,0,0.8,0.2c0.2,0.3,0,0.7-0.2,0.8c-1.5,0.8-3,1.5-4.5,2.2C592,149.2,591.9,149.2,591.9,149.2
			z M549.7,145.1c-0.1,0-0.2,0-0.3-0.1c-1.4-0.8-2.8-1.7-4.2-2.6c-0.3-0.2-0.4-0.6-0.2-0.9c0.2-0.3,0.6-0.4,0.9-0.2
			c1.4,0.9,2.8,1.8,4.1,2.6c0.3,0.2,0.4,0.6,0.2,0.8C550.1,144.9,549.9,145.1,549.7,145.1z M600.5,144.6c-0.2,0-0.4-0.1-0.5-0.3
			c-0.2-0.3-0.1-0.7,0.2-0.9c1.3-0.9,2.7-1.8,4-2.8c0.3-0.2,0.7-0.2,0.9,0.1c0.2,0.3,0.2,0.7-0.1,0.9c-1.3,1-2.7,2-4.1,2.9
			C600.7,144.5,600.6,144.6,600.5,144.6z M305.4,143.2c-0.3,0-0.6-0.3-0.6-0.6c0-0.3,0.3-0.6,0.6-0.6c1.6,0,3.2-0.1,4.8-0.3
			c0.3,0,0.6,0.2,0.7,0.5s-0.2,0.6-0.5,0.7C308.7,143.1,307,143.2,305.4,143.2z M300.5,143C300.5,143,300.5,143,300.5,143
			c-1.8-0.2-3.4-0.6-5-1c-0.3-0.1-0.5-0.4-0.4-0.7c0.1-0.3,0.4-0.5,0.8-0.4c1.5,0.4,3.1,0.7,4.7,0.9c0.3,0,0.6,0.4,0.5,0.7
			C301.1,142.7,300.8,143,300.5,143z M315.1,142c-0.3,0-0.5-0.2-0.6-0.5c-0.1-0.3,0.1-0.7,0.5-0.7c1.5-0.4,3.1-0.8,4.7-1.3
			c0.3-0.1,0.7,0.1,0.8,0.4c0.1,0.3-0.1,0.7-0.4,0.8c-1.6,0.5-3.2,1-4.8,1.4C315.2,142,315.2,142,315.1,142z M291.1,140.3
			c-0.1,0-0.2,0-0.2,0c-1.5-0.7-3-1.5-4.4-2.4c-0.3-0.2-0.4-0.6-0.2-0.9c0.2-0.3,0.6-0.4,0.9-0.2c1.3,0.9,2.8,1.7,4.2,2.3
			c0.3,0.1,0.4,0.5,0.3,0.8C291.5,140.2,291.3,140.3,291.1,140.3z M541.6,139.6c-0.1,0-0.3,0-0.4-0.1c-1.3-1-2.6-2-3.9-3.1
			c-0.3-0.2-0.3-0.6-0.1-0.9c0.2-0.3,0.6-0.3,0.9-0.1c1.3,1.1,2.6,2.1,3.8,3c0.3,0.2,0.3,0.6,0.1,0.9
			C541.9,139.5,541.8,139.6,541.6,139.6z M324.4,138.9c-0.2,0-0.5-0.1-0.6-0.4c-0.1-0.3,0-0.7,0.3-0.8c0.6-0.3,1.2-0.5,1.8-0.8
			c0.8-0.4,1.5-0.8,2.3-1.5c0.3-0.2,0.7-0.2,0.9,0.1c0.2,0.3,0.2,0.7-0.1,0.9c-0.9,0.7-1.7,1.2-2.6,1.6c-0.6,0.3-1.2,0.6-1.9,0.8
			C324.6,138.9,324.5,138.9,324.4,138.9z M608.3,138.6c-0.2,0-0.4-0.1-0.5-0.2c-0.2-0.3-0.2-0.6,0.1-0.9c1.2-1,2.4-2.1,3.6-3.3
			c0.2-0.2,0.6-0.2,0.9,0c0.2,0.2,0.2,0.6,0,0.9c-1.2,1.1-2.4,2.3-3.7,3.3C608.6,138.6,608.5,138.6,608.3,138.6z M282.9,134.9
			c-0.2,0-0.3,0-0.4-0.2c-1.2-1.1-2.4-2.4-3.4-3.7c-0.2-0.3-0.2-0.7,0.1-0.9c0.3-0.2,0.7-0.2,0.9,0.1c1,1.3,2.1,2.4,3.3,3.5
			c0.2,0.2,0.3,0.6,0,0.9C283.2,134.9,283.1,134.9,282.9,134.9z M534,133.3c-0.2,0-0.3,0-0.4-0.2c-1.2-1.1-2.4-2.2-3.6-3.4
			c-0.2-0.2-0.2-0.6,0-0.9c0.2-0.2,0.6-0.2,0.9,0c1.2,1.2,2.4,2.3,3.6,3.3c0.2,0.2,0.3,0.6,0,0.9C534.3,133.2,534.2,133.3,534,133.3
			z M332.2,133.1c-0.1,0-0.3,0-0.4-0.2c-0.3-0.2-0.3-0.6-0.1-0.9c0.9-1.1,1.9-2.4,3-3.9c0.2-0.3,0.6-0.4,0.9-0.2
			c0.3,0.2,0.4,0.6,0.2,0.9c-1.1,1.5-2.1,2.8-3,3.9C332.6,133.1,332.4,133.1,332.2,133.1z M615.5,131.9c-0.2,0-0.3-0.1-0.4-0.2
			c-0.2-0.2-0.3-0.6,0-0.9c1.1-1.2,2.2-2.4,3.3-3.6c0.2-0.3,0.6-0.3,0.9-0.1c0.3,0.2,0.3,0.6,0.1,0.9c-1.1,1.3-2.2,2.5-3.3,3.7
			C615.8,131.8,615.6,131.9,615.5,131.9z M276.8,127.3c-0.2,0-0.4-0.1-0.5-0.3c-0.8-1.5-1.5-3-2.1-4.5c-0.1-0.3,0-0.7,0.4-0.8
			c0.3-0.1,0.7,0,0.8,0.4c0.6,1.5,1.3,3,2.1,4.3c0.2,0.3,0.1,0.7-0.2,0.8C277,127.3,276.9,127.3,276.8,127.3z M527,126.4
			c-0.2,0-0.3-0.1-0.4-0.2c-1.1-1.1-2.2-2.3-3.4-3.6c-0.2-0.2-0.2-0.6,0-0.9c0.2-0.2,0.6-0.2,0.9,0c1.1,1.2,2.3,2.4,3.4,3.5
			c0.2,0.2,0.2,0.6,0,0.9C527.3,126.4,527.1,126.4,527,126.4z M337.9,125.1c-0.1,0-0.2,0-0.3-0.1c-0.3-0.2-0.4-0.5-0.2-0.8
			c0.8-1.3,1.6-2.7,2.5-4.2c0.2-0.3,0.6-0.4,0.8-0.2c0.3,0.2,0.4,0.6,0.2,0.8c-0.9,1.6-1.7,2.9-2.5,4.2
			C338.3,125,338.1,125.1,337.9,125.1z M621.9,124.4c-0.1,0-0.3,0-0.4-0.1c-0.3-0.2-0.3-0.6-0.1-0.9c1-1.3,2-2.6,3-3.9
			c0.2-0.3,0.6-0.3,0.9-0.1c0.3,0.2,0.3,0.6,0.1,0.9c-1,1.3-2,2.6-3,3.9C622.3,124.4,622.1,124.4,621.9,124.4z M287.7,119.7
			c-1.1,0-2.2,0-3.3-0.1c-0.3,0-0.6-0.3-0.6-0.7c0-0.3,0.3-0.6,0.7-0.6c1.7,0.1,3.4,0.2,4.9,0.1c0.3,0,0.6,0.2,0.6,0.6
			c0,0.3-0.2,0.6-0.6,0.6C288.8,119.7,288.3,119.7,287.7,119.7z M520.2,119.3c-0.2,0-0.3-0.1-0.5-0.2c-1.1-1.2-2.2-2.4-3.3-3.7
			c-0.2-0.2-0.2-0.6,0-0.9c0.2-0.2,0.6-0.2,0.9,0c1.1,1.2,2.2,2.4,3.3,3.7c0.2,0.2,0.2,0.6,0,0.9
			C520.5,119.2,520.4,119.3,520.2,119.3z M294.2,119.1c-0.3,0-0.5-0.2-0.6-0.5c-0.1-0.3,0.1-0.7,0.5-0.7c1.7-0.4,3.2-0.9,4.5-1.5
			c0.3-0.2,0.7,0,0.8,0.3c0.2,0.3,0,0.7-0.3,0.8c-1.4,0.7-3,1.2-4.8,1.6C294.3,119.1,294.3,119.1,294.2,119.1z M279.5,119
			C279.5,119,279.5,119,279.5,119c-1.6-0.2-3.3-0.5-5-0.9c-0.3-0.1-0.6-0.4-0.5-0.7c0.1-0.3,0.4-0.6,0.7-0.5
			c1.7,0.4,3.3,0.6,4.8,0.9c0.3,0,0.6,0.4,0.5,0.7C280.1,118.8,279.8,119,279.5,119z M273.3,118.1c-0.3,0-0.5-0.2-0.6-0.5
			c-0.4-1.7-0.6-3.3-0.6-5c0-0.3,0.2-0.6,0.6-0.6c0.3,0,0.6,0.2,0.6,0.6c0.1,1.6,0.3,3.2,0.6,4.8c0.1,0.3-0.1,0.7-0.5,0.7
			C273.4,118.1,273.4,118.1,273.3,118.1z M342.9,116.6c-0.1,0-0.2,0-0.3-0.1c-0.3-0.2-0.4-0.5-0.2-0.8c0.8-1.4,1.6-2.8,2.4-4.3
			c0.2-0.3,0.5-0.4,0.8-0.2c0.3,0.2,0.4,0.5,0.2,0.8c-0.8,1.5-1.6,2.9-2.4,4.3C343.3,116.5,343.1,116.6,342.9,116.6z M270.1,116.6
			c-0.2,0-0.3,0-0.4-0.2c-0.9-0.8-1.9-2.2-3-4.1c-0.2-0.3,0-0.7,0.2-0.8c0.3-0.2,0.7,0,0.8,0.2c1,1.8,1.9,3,2.7,3.8
			c0.3,0.2,0.3,0.6,0,0.9C270.5,116.5,270.3,116.6,270.1,116.6z M627.8,116.6c-0.1,0-0.2,0-0.4-0.1c-0.3-0.2-0.4-0.6-0.2-0.9
			c0.9-1.3,1.8-2.7,2.7-4.1c0.2-0.3,0.6-0.4,0.8-0.2c0.3,0.2,0.4,0.6,0.2,0.8c-0.9,1.4-1.8,2.8-2.7,4.1
			C628.2,116.5,628,116.6,627.8,116.6z M302.9,114.8c-0.2,0-0.3-0.1-0.4-0.2c-0.2-0.2-0.2-0.6,0-0.9c1.3-1.2,2.3-2.5,3.1-3.6l1,0.7
			c-0.9,1.2-1.9,2.5-3.3,3.8C303.2,114.7,303.1,114.8,302.9,114.8z M513.7,111.9c-0.2,0-0.3-0.1-0.5-0.2c-1.1-1.2-2.2-2.5-3.2-3.7
			c-0.2-0.3-0.2-0.6,0.1-0.9c0.3-0.2,0.6-0.2,0.9,0.1c1.1,1.2,2.2,2.5,3.2,3.7c0.2,0.3,0.2,0.6-0.1,0.9
			C514,111.9,513.8,111.9,513.7,111.9z M272.9,108.4C272.9,108.4,272.9,108.4,272.9,108.4c-0.4,0-0.7-0.4-0.6-0.7
			c0.2-1.7,0.6-3.3,1.1-4.9c0.1-0.3,0.5-0.5,0.8-0.4c0.3,0.1,0.5,0.5,0.4,0.8c-0.5,1.5-0.8,3.1-1.1,4.7
			C273.5,108.2,273.2,108.4,272.9,108.4z M265.1,108.2c-0.2,0-0.5-0.1-0.6-0.4c-0.6-1.2-1.1-2.6-2-4.5c-0.1-0.3,0-0.7,0.3-0.8
			c0.3-0.1,0.7,0,0.8,0.3c0.8,1.9,1.4,3.3,1.9,4.5c0.1,0.3,0,0.7-0.3,0.8C265.3,108.2,265.2,108.2,265.1,108.2z M347.6,108
			c-0.1,0-0.2,0-0.3-0.1c-0.3-0.2-0.4-0.5-0.2-0.8c0.8-1.4,1.6-2.9,2.4-4.3c0.2-0.3,0.5-0.4,0.8-0.2c0.3,0.2,0.4,0.5,0.2,0.8
			c-0.8,1.5-1.6,2.9-2.4,4.3C348,107.9,347.8,108,347.6,108z M309.2,107.3c-0.1,0-0.2,0-0.3-0.1c-0.3-0.2-0.4-0.6-0.2-0.8
			c0.7-1.3,1.1-2.8,1.2-4.4c0-0.3,0.3-0.6,0.6-0.6c0.3,0,0.6,0.3,0.6,0.6c-0.1,1.9-0.5,3.5-1.4,5
			C309.6,107.1,309.4,107.3,309.2,107.3z M507.2,104.5c-0.2,0-0.3-0.1-0.5-0.2c-1.1-1.2-2.2-2.5-3.2-3.7c-0.2-0.3-0.2-0.6,0-0.9
			c0.2-0.2,0.6-0.2,0.9,0c1.1,1.2,2.2,2.5,3.2,3.7c0.2,0.3,0.2,0.6-0.1,0.9C507.5,104.5,507.4,104.5,507.2,104.5z M352.3,99.4
			c-0.1,0-0.2,0-0.3-0.1c-0.3-0.2-0.4-0.5-0.2-0.8c0.8-1.4,1.6-2.9,2.4-4.3c0.2-0.3,0.6-0.4,0.8-0.2c0.3,0.2,0.4,0.6,0.2,0.8
			c-0.8,1.4-1.6,2.8-2.4,4.3C352.8,99.2,352.5,99.4,352.3,99.4z M261.3,99.2c-0.2,0-0.5-0.1-0.6-0.4c-0.6-1.5-1.3-3-1.9-4.5
			c-0.1-0.3,0-0.7,0.3-0.8c0.3-0.1,0.7,0,0.8,0.3c0.7,1.6,1.3,3.1,1.9,4.5c0.1,0.3,0,0.7-0.3,0.8C261.4,99.1,261.3,99.2,261.3,99.2z
			 M276,99.1c-0.1,0-0.2,0-0.3-0.1c-0.3-0.2-0.4-0.6-0.2-0.8c0.8-1.5,1.8-2.8,2.9-4.1c0.2-0.3,0.6-0.3,0.9-0.1
			c0.3,0.2,0.3,0.6,0.1,0.9c-1,1.2-2,2.5-2.8,3.9C276.4,99,276.2,99.1,276,99.1z M309.8,97.7c-0.3,0-0.5-0.2-0.6-0.4
			c-0.5-1.5-1.1-2.9-2-4.3c-0.2-0.3-0.1-0.7,0.2-0.8c0.3-0.2,0.7-0.1,0.8,0.2c0.9,1.5,1.6,3,2.1,4.6c0.1,0.3-0.1,0.7-0.4,0.8
			C309.9,97.7,309.8,97.7,309.8,97.7z M500.7,97.1c-0.2,0-0.3-0.1-0.5-0.2c-1.1-1.2-2.2-2.4-3.3-3.6c-0.2-0.2-0.2-0.6,0-0.9
			c0.2-0.2,0.6-0.2,0.9,0c1.1,1.2,2.2,2.4,3.3,3.6c0.2,0.2,0.2,0.6,0,0.9C501,97.1,500.8,97.1,500.7,97.1z M282.4,91.7
			c-0.2,0-0.4-0.1-0.5-0.2c-0.2-0.3-0.2-0.7,0.1-0.9c1.3-1,2.7-1.9,4.2-2.7c0.3-0.2,0.7,0,0.8,0.2c0.2,0.3,0,0.7-0.2,0.8
			c-1.4,0.8-2.8,1.7-4,2.6C282.6,91.7,282.5,91.7,282.4,91.7z M357.2,90.8c-0.1,0-0.2,0-0.3-0.1c-0.3-0.2-0.4-0.6-0.2-0.8
			c0.9-1.5,1.7-2.9,2.6-4.2c0.2-0.3,0.6-0.4,0.8-0.2c0.3,0.2,0.4,0.6,0.2,0.8c-0.8,1.3-1.7,2.7-2.6,4.2
			C357.7,90.7,357.5,90.8,357.2,90.8z M257.3,90.1c-0.2,0-0.5-0.1-0.6-0.4c-0.7-1.5-1.4-3-2.1-4.4c-0.2-0.3,0-0.7,0.3-0.8
			c0.3-0.2,0.7,0,0.8,0.3c0.7,1.4,1.4,2.9,2.1,4.5c0.1,0.3,0,0.7-0.3,0.8C257.5,90.1,257.4,90.1,257.3,90.1z M494,89.9
			c-0.2,0-0.3-0.1-0.4-0.2c-1.2-1.2-2.3-2.4-3.4-3.5c-0.2-0.2-0.2-0.6,0-0.9c0.2-0.2,0.6-0.2,0.9,0c1.1,1.1,2.3,2.3,3.4,3.5
			c0.2,0.2,0.2,0.6,0,0.9C494.3,89.9,494.2,89.9,494,89.9z M304.6,89.5c-0.2,0-0.3,0-0.4-0.2c-1.2-1.1-2.5-2-3.9-2.6
			c-0.3-0.1-0.5-0.5-0.3-0.8c0.1-0.3,0.5-0.5,0.8-0.3c1.5,0.6,3,1.6,4.3,2.8c0.2,0.2,0.3,0.6,0,0.9C305,89.4,304.8,89.5,304.6,89.5z
			 M103.7,87.1c-0.3,0-0.6-0.3-0.6-0.6c0-0.3,0.3-0.6,0.6-0.6h0.2c1.5,0,3.1-0.2,4.6-0.3c0.3,0,0.6,0.2,0.7,0.6
			c0,0.3-0.2,0.6-0.6,0.7c-1.6,0.2-3.2,0.3-4.7,0.3H103.7C103.7,87.1,103.7,87.1,103.7,87.1z M98.7,87.1c-1.6,0-3.3-0.1-5-0.3
			c-0.3,0-0.6-0.3-0.6-0.7c0-0.3,0.3-0.6,0.7-0.6c1.7,0.1,3.3,0.2,4.9,0.3c0.3,0,0.6,0.3,0.6,0.6C99.4,86.8,99.1,87.1,98.7,87.1z
			 M291,87.1c-0.2,0-0.5-0.2-0.6-0.4c-0.1-0.3,0-0.7,0.4-0.8c0.8-0.3,1.6-0.5,2.4-0.8c0.8-0.2,1.7-0.4,2.5-0.4
			c0.3,0,0.6,0.2,0.6,0.6c0,0.3-0.2,0.6-0.6,0.6c-0.8,0-1.5,0.2-2.2,0.4c-0.8,0.2-1.6,0.5-2.4,0.7C291.1,87.1,291,87.1,291,87.1z
			 M88.9,86.4C88.9,86.4,88.9,86.4,88.9,86.4c-1.7-0.2-3.3-0.4-5-0.7c-0.3,0-0.6-0.4-0.5-0.7c0-0.3,0.4-0.6,0.7-0.5
			c1.6,0.2,3.3,0.5,4.9,0.6c0.3,0,0.6,0.4,0.5,0.7C89.5,86.1,89.2,86.4,88.9,86.4z M113.4,86c-0.3,0-0.6-0.2-0.6-0.5
			c-0.1-0.3,0.2-0.7,0.5-0.7c1.6-0.3,3.2-0.7,4.7-1.1c0.3-0.1,0.7,0.1,0.8,0.4c0.1,0.3-0.1,0.7-0.4,0.7c-1.6,0.4-3.2,0.8-4.8,1.1
			C113.5,86,113.4,86,113.4,86z M79.2,84.9c0,0-0.1,0-0.1,0c-1.6-0.3-3.2-0.6-4.9-0.9c-0.3-0.1-0.6-0.4-0.5-0.7
			c0.1-0.3,0.4-0.6,0.7-0.5c1.6,0.3,3.2,0.7,4.8,0.9c0.3,0.1,0.6,0.4,0.5,0.7C79.7,84.7,79.5,84.9,79.2,84.9z M122.9,83.5
			c-0.3,0-0.5-0.2-0.6-0.4c-0.1-0.3,0.1-0.7,0.4-0.8c1.5-0.5,3-1.1,4.6-1.7c0.3-0.1,0.7,0,0.8,0.4c0.1,0.3,0,0.7-0.4,0.8
			c-1.6,0.6-3.1,1.2-4.7,1.7C123,83.5,123,83.5,122.9,83.5z M487.1,83c-0.2,0-0.3-0.1-0.4-0.2c-1.2-1.1-2.4-2.2-3.6-3.3
			c-0.2-0.2-0.3-0.6,0-0.9c0.2-0.2,0.6-0.3,0.9,0c1.2,1.1,2.4,2.2,3.6,3.3c0.2,0.2,0.3,0.6,0,0.9C487.4,82.9,487.2,83,487.1,83z
			 M69.6,82.9c0,0-0.1,0-0.1,0c-1.6-0.4-3.2-0.8-4.8-1.2c-0.3-0.1-0.5-0.4-0.4-0.7c0.1-0.3,0.4-0.5,0.7-0.4c1.6,0.4,3.2,0.8,4.8,1.2
			c0.3,0.1,0.5,0.4,0.5,0.7C70.1,82.7,69.8,82.9,69.6,82.9z M362.5,82.5c-0.1,0-0.2,0-0.4-0.1c-0.3-0.2-0.4-0.6-0.2-0.9
			c0.9-1.4,1.9-2.8,2.8-4c0.2-0.3,0.6-0.3,0.9-0.1c0.3,0.2,0.3,0.6,0.1,0.9c-0.9,1.3-1.9,2.6-2.8,4
			C362.9,82.4,362.7,82.5,362.5,82.5z M253,81.3c-0.2,0-0.4-0.1-0.6-0.3c-0.8-1.5-1.6-2.9-2.4-4.3c-0.2-0.3-0.1-0.7,0.2-0.8
			c0.3-0.2,0.7-0.1,0.8,0.2c0.8,1.4,1.6,2.8,2.4,4.3c0.2,0.3,0,0.7-0.3,0.8C253.2,81.2,253.1,81.3,253,81.3z M60,80.4
			c0,0-0.1,0-0.2,0c-1.5-0.4-3.2-0.9-4.7-1.4c-0.3-0.1-0.5-0.4-0.4-0.8c0.1-0.3,0.4-0.5,0.8-0.4c1.6,0.5,3.2,0.9,4.7,1.4
			c0.3,0.1,0.5,0.4,0.4,0.7C60.6,80.3,60.3,80.4,60,80.4z M132,79.9c-0.2,0-0.5-0.1-0.6-0.4c-0.1-0.3,0-0.7,0.3-0.8
			c1.4-0.6,2.9-1.3,4.4-2.1c0.3-0.2,0.7,0,0.8,0.3c0.2,0.3,0,0.7-0.3,0.8c-1.5,0.7-3,1.5-4.5,2.1C132.2,79.9,132.1,79.9,132,79.9z
			 M50.6,77.6c-0.1,0-0.1,0-0.2,0c-1.6-0.5-3.2-1-4.7-1.5c-0.3-0.1-0.5-0.5-0.4-0.8c0.1-0.3,0.5-0.5,0.8-0.4c1.5,0.5,3.1,1,4.7,1.5
			c0.3,0.1,0.5,0.4,0.4,0.8C51.1,77.5,50.9,77.6,50.6,77.6z M479.7,76.5c-0.1,0-0.3,0-0.4-0.1c-1.3-1.1-2.6-2.1-3.8-3
			c-0.3-0.2-0.3-0.6-0.1-0.9c0.2-0.3,0.6-0.3,0.9-0.1c1.3,1,2.6,2,3.9,3.1c0.3,0.2,0.3,0.6,0.1,0.9
			C480.1,76.4,479.9,76.5,479.7,76.5z M140.8,75.6c-0.2,0-0.4-0.1-0.6-0.3c-0.2-0.3,0-0.7,0.2-0.8c1.4-0.7,2.8-1.5,4.3-2.4
			c0.3-0.2,0.7-0.1,0.8,0.2c0.2,0.3,0.1,0.7-0.2,0.8c-1.5,0.9-2.9,1.7-4.3,2.4C141,75.6,140.9,75.6,140.8,75.6z M368.4,74.6
			c-0.1,0-0.3,0-0.4-0.1c-0.3-0.2-0.3-0.6-0.1-0.9c1.1-1.3,2.2-2.6,3.2-3.7c0.2-0.2,0.6-0.3,0.9,0c0.2,0.2,0.3,0.6,0,0.9
			c-1.1,1.1-2.1,2.4-3.2,3.7C368.7,74.5,368.5,74.6,368.4,74.6z M41.3,74.5c-0.1,0-0.1,0-0.2,0c-1.6-0.6-3.1-1.1-4.6-1.7
			c-0.3-0.1-0.5-0.5-0.4-0.8c0.1-0.3,0.5-0.5,0.8-0.4c1.5,0.6,3.1,1.1,4.6,1.7c0.3,0.1,0.5,0.5,0.4,0.8
			C41.8,74.4,41.5,74.5,41.3,74.5z M248,72.8c-0.2,0-0.4-0.1-0.5-0.3c-0.9-1.4-1.9-2.7-2.8-4c-0.2-0.3-0.2-0.7,0.1-0.9
			c0.3-0.2,0.7-0.2,0.9,0.1c0.9,1.3,1.9,2.6,2.8,4.1c0.2,0.3,0.1,0.7-0.2,0.9C248.3,72.8,248.2,72.8,248,72.8z M32,71.1
			c-0.1,0-0.2,0-0.2,0c-1.6-0.6-3.1-1.2-4.6-1.8c-0.3-0.1-0.5-0.5-0.4-0.8c0.1-0.3,0.5-0.5,0.8-0.4c1.5,0.6,3,1.2,4.6,1.8
			c0.3,0.1,0.5,0.5,0.4,0.8C32.5,71,32.3,71.1,32,71.1z M149.4,70.8c-0.2,0-0.4-0.1-0.5-0.3c-0.2-0.3-0.1-0.7,0.2-0.8
			c1.4-0.8,2.8-1.7,4.2-2.5c0.3-0.2,0.7-0.1,0.8,0.2c0.2,0.3,0.1,0.7-0.2,0.8c-1.4,0.8-2.8,1.7-4.2,2.5
			C149.6,70.7,149.5,70.8,149.4,70.8z M471.9,70.5c-0.1,0-0.2,0-0.4-0.1c-1.3-0.9-2.7-1.9-4.1-2.7c-0.3-0.2-0.4-0.6-0.2-0.8
			c0.2-0.3,0.6-0.4,0.8-0.2c1.4,0.9,2.8,1.8,4.1,2.7c0.3,0.2,0.4,0.6,0.2,0.9C472.3,70.4,472.1,70.5,471.9,70.5z M22.9,67.5
			c-0.1,0-0.2,0-0.2,0c-1.6-0.6-3.1-1.3-4.5-1.9c-0.3-0.1-0.5-0.5-0.3-0.8c0.1-0.3,0.5-0.5,0.8-0.3c1.4,0.6,3,1.2,4.5,1.9
			c0.3,0.1,0.5,0.5,0.3,0.8C23.3,67.4,23.1,67.5,22.9,67.5z M375,67.4c-0.2,0-0.3-0.1-0.4-0.2c-0.2-0.2-0.2-0.6,0-0.9
			c1.3-1.2,2.6-2.2,3.8-3.2c0.3-0.2,0.7-0.2,0.9,0.1c0.2,0.3,0.2,0.7-0.1,0.9c-1.2,0.9-2.5,2-3.7,3.1
			C375.4,67.4,375.2,67.4,375,67.4z M157.9,65.7c-0.2,0-0.4-0.1-0.5-0.3c-0.2-0.3-0.1-0.7,0.2-0.8c1.4-0.8,2.8-1.7,4.3-2.5
			c0.3-0.2,0.7-0.1,0.8,0.2c0.2,0.3,0.1,0.7-0.2,0.8c-1.4,0.8-2.8,1.7-4.2,2.5C158.1,65.7,158,65.7,157.9,65.7z M463.6,65.3
			c-0.1,0-0.2,0-0.3-0.1c-1.4-0.8-2.9-1.6-4.3-2.3c-0.3-0.2-0.4-0.5-0.3-0.8c0.2-0.3,0.5-0.4,0.8-0.3c1.5,0.7,2.9,1.5,4.4,2.3
			c0.3,0.2,0.4,0.5,0.2,0.8C464,65.1,463.8,65.3,463.6,65.3z M242.2,64.9c-0.2,0-0.4-0.1-0.5-0.2c-1.1-1.3-2.2-2.4-3.3-3.5
			c-0.2-0.2-0.2-0.6,0-0.9c0.2-0.2,0.6-0.2,0.9,0c1.1,1.1,2.3,2.4,3.4,3.6c0.2,0.3,0.2,0.6-0.1,0.9
			C242.4,64.9,242.3,64.9,242.2,64.9z M13.8,63.7c-0.1,0-0.2,0-0.2,0c-1.7-0.7-3.2-1.4-4.5-2c-0.3-0.1-0.4-0.5-0.3-0.8
			c0.1-0.3,0.5-0.4,0.8-0.3c1.3,0.6,2.8,1.3,4.5,2c0.3,0.1,0.5,0.5,0.3,0.8C14.3,63.6,14,63.7,13.8,63.7z M383,61.6
			c-0.2,0-0.4-0.1-0.5-0.3c-0.2-0.3,0-0.7,0.2-0.8c1.5-0.8,3-1.5,4.6-2c0.3-0.1,0.7,0.1,0.8,0.4c0.1,0.3-0.1,0.7-0.4,0.8
			c-1.5,0.5-2.9,1.1-4.4,1.9C383.2,61.6,383.1,61.6,383,61.6z M454.8,60.9c-0.1,0-0.2,0-0.2,0c-1.5-0.6-3-1.2-4.5-1.8
			c-0.3-0.1-0.5-0.5-0.4-0.8c0.1-0.3,0.5-0.5,0.8-0.4c1.5,0.6,3.1,1.1,4.6,1.8c0.3,0.1,0.5,0.5,0.3,0.8
			C455.3,60.8,455.1,60.9,454.8,60.9z M166.4,60.8c-0.2,0-0.4-0.1-0.5-0.3c-0.2-0.3-0.1-0.7,0.2-0.8c1.5-0.9,3-1.6,4.3-2.4
			c0.3-0.2,0.7,0,0.8,0.2c0.2,0.3,0,0.7-0.2,0.8c-1.4,0.7-2.8,1.5-4.3,2.4C166.6,60.8,166.5,60.8,166.4,60.8z M392.2,58.3
			c-0.3,0-0.5-0.2-0.6-0.5c-0.1-0.3,0.1-0.7,0.4-0.7c1.6-0.4,3.2-0.8,4.8-1.1c0.3-0.1,0.7,0.1,0.7,0.5c0.1,0.3-0.1,0.7-0.5,0.7
			c-1.6,0.4-3.2,0.7-4.8,1.1C392.3,58.3,392.2,58.3,392.2,58.3z M235.2,58.1c-0.1,0-0.3,0-0.4-0.1c-1.3-1-2.6-2-3.9-2.9
			c-0.3-0.2-0.4-0.6-0.2-0.9c0.2-0.3,0.6-0.4,0.9-0.2c1.3,0.9,2.7,1.9,4,3c0.3,0.2,0.3,0.6,0.1,0.9C235.5,58,235.3,58.1,235.2,58.1z
			 M445.5,57.7c-0.1,0-0.1,0-0.2,0c-1.5-0.4-3.1-0.9-4.7-1.2c-0.3-0.1-0.5-0.4-0.5-0.7c0.1-0.3,0.4-0.5,0.7-0.5
			c1.6,0.4,3.2,0.8,4.8,1.2c0.3,0.1,0.5,0.4,0.4,0.7C446.1,57.5,445.8,57.7,445.5,57.7z M401.8,56.2c-0.3,0-0.6-0.2-0.6-0.5
			c-0.1-0.3,0.2-0.7,0.5-0.7c1.6-0.3,3.3-0.6,4.9-0.8c0.4,0,0.6,0.2,0.7,0.5c0,0.3-0.2,0.6-0.5,0.7
			C405.1,55.7,403.5,55.9,401.8,56.2C401.8,56.2,401.8,56.2,401.8,56.2z M175.1,56.2c-0.2,0-0.4-0.1-0.6-0.4c-0.2-0.3,0-0.7,0.3-0.8
			c1.5-0.7,3-1.5,4.5-2.1c0.3-0.1,0.7,0,0.8,0.3c0.1,0.3,0,0.7-0.3,0.8c-1.4,0.6-2.9,1.3-4.4,2.1C175.3,56.2,175.2,56.2,175.1,56.2z
			 M436,55.5c0,0-0.1,0-0.1,0c-1.6-0.3-3.2-0.5-4.8-0.6c-0.3,0-0.6-0.3-0.6-0.7c0-0.3,0.4-0.6,0.7-0.6c1.6,0.2,3.3,0.4,4.9,0.7
			c0.3,0,0.6,0.4,0.5,0.7C436.5,55.3,436.3,55.5,436,55.5z M411.5,54.9c-0.3,0-0.6-0.2-0.6-0.6c0-0.3,0.2-0.6,0.6-0.7
			c1.7-0.2,3.3-0.3,4.9-0.4c0.3,0,0.6,0.2,0.6,0.6c0,0.3-0.2,0.6-0.6,0.6C414.9,54.6,413.2,54.7,411.5,54.9
			C411.6,54.9,411.5,54.9,411.5,54.9z M426.2,54.5L426.2,54.5c-1.6-0.1-3.1-0.1-4.7-0.1h-0.2c-0.3,0-0.6-0.3-0.6-0.6
			c0-0.3,0.3-0.6,0.6-0.6h0.2c1.6,0,3.2,0,4.7,0.1c0.3,0,0.6,0.3,0.6,0.6C426.8,54.2,426.6,54.5,426.2,54.5z M227,52.7
			c-0.1,0-0.2,0-0.3-0.1c-1.4-0.7-2.9-1.4-4.4-1.9c-0.3-0.1-0.5-0.5-0.4-0.8c0.1-0.3,0.5-0.5,0.8-0.4c1.5,0.6,3.1,1.3,4.5,2
			c0.3,0.2,0.4,0.5,0.3,0.8C227.4,52.5,227.2,52.7,227,52.7z M184.1,52.3c-0.2,0-0.5-0.2-0.6-0.4c-0.1-0.3,0-0.7,0.4-0.8
			c1.6-0.6,3.2-1.1,4.7-1.6c0.3-0.1,0.7,0.1,0.8,0.4c0.1,0.3-0.1,0.7-0.4,0.8c-1.5,0.5-3.1,1-4.6,1.6
			C184.2,52.2,184.1,52.3,184.1,52.3z M193.5,49.4c-0.3,0-0.5-0.2-0.6-0.5c-0.1-0.3,0.1-0.7,0.5-0.7c1.6-0.4,3.3-0.7,4.9-0.9
			c0.3,0,0.6,0.2,0.7,0.5c0,0.3-0.2,0.6-0.5,0.7c-1.6,0.2-3.2,0.5-4.8,0.9C193.6,49.4,193.5,49.4,193.5,49.4z M217.8,49.2
			c0,0-0.1,0-0.2,0c-1-0.2-2.1-0.5-3.2-0.6c-0.5-0.1-1.1-0.2-1.6-0.2c-0.3,0-0.6-0.4-0.5-0.7c0-0.3,0.4-0.6,0.7-0.5
			c0.6,0.1,1.1,0.2,1.6,0.2c1.1,0.2,2.2,0.4,3.2,0.7c0.3,0.1,0.5,0.4,0.4,0.7C218.3,49.1,218.1,49.2,217.8,49.2z M203.2,48
			c-0.3,0-0.6-0.2-0.6-0.6c0-0.3,0.2-0.6,0.6-0.6c1.7-0.1,3.3-0.1,5,0c0.3,0,0.6,0.3,0.6,0.6c0,0.3-0.3,0.6-0.6,0.6
			C206.4,47.9,204.8,47.9,203.2,48C203.2,48,203.2,48,203.2,48z"/>
		<path class="st21" d="M633.2,108.1c-0.1,0-0.2,0-0.3-0.1c-0.3-0.2-0.4-0.6-0.2-0.8c0.8-1.3,1.2-2.1,1.2-2.1
			c0.2-0.3,0.5-0.4,0.8-0.3s0.4,0.5,0.3,0.8c0,0-0.4,0.8-1.2,2.2C633.6,108,633.4,108.1,633.2,108.1z"/>
	</g>
</g>
</svg>
