<svg id="eV9hg5ipJ6E1" xmlns="http://www.w3.org/2000/svg" xmlns:xlink="http://www.w3.org/1999/xlink" viewBox="0 0 370 328" shape-rendering="geometricPrecision" text-rendering="geometricPrecision">
<style><![CDATA[
#eV9hg5ipJ6E36_tr {animation: eV9hg5ipJ6E36_tr__tr 3000ms linear infinite normal forwards}@keyframes eV9hg5ipJ6E36_tr__tr { 0% {transform: translate(319.280502px,235.169495px) rotate(0deg)} 23.333333% {transform: translate(319.280502px,235.169495px) rotate(-14deg);animation-timing-function: cubic-bezier(0.445,0.05,0.55,0.95)} 66.666667% {transform: translate(319.280502px,235.169495px) rotate(14deg);animation-timing-function: cubic-bezier(0.445,0.05,0.55,0.95)} 100% {transform: translate(319.280502px,235.169495px) rotate(0deg)}} #eV9hg5ipJ6E44_tr {animation: eV9hg5ipJ6E44_tr__tr 3000ms linear infinite normal forwards}@keyframes eV9hg5ipJ6E44_tr__tr { 0% {transform: translate(164.901031px,104.982px) rotate(-5deg);animation-timing-function: cubic-bezier(0.225,0.14,0.64,0.725)} 6.666667% {transform: translate(164.901031px,104.982px) rotate(0deg);animation-timing-function: cubic-bezier(0.225,0.14,0.64,0.725)} 13.333333% {transform: translate(164.901031px,104.982px) rotate(3deg);animation-timing-function: cubic-bezier(0.225,0.14,0.64,0.725)} 26.666667% {transform: translate(164.901031px,104.982px) rotate(0deg);animation-timing-function: cubic-bezier(0.08,0.84,1,1)} 80% {transform: translate(164.901031px,104.982px) rotate(0deg)} 86.666667% {transform: translate(164.901031px,104.982px) rotate(-4deg);animation-timing-function: cubic-bezier(0.225,0.14,0.64,0.725)} 93.333333% {transform: translate(164.901031px,104.982px) rotate(0deg);animation-timing-function: cubic-bezier(0.225,0.14,0.64,0.725)} 96.666667% {transform: translate(164.901031px,104.982px) rotate(-5deg)} 100% {transform: translate(164.901031px,104.982px) rotate(-5deg)}} #eV9hg5ipJ6E44_ts {animation: eV9hg5ipJ6E44_ts__ts 3000ms linear infinite normal forwards}@keyframes eV9hg5ipJ6E44_ts__ts { 0% {transform: scale(0.5,0.5);animation-timing-function: cubic-bezier(0.225,0.14,0.64,0.725)} 6.666667% {transform: scale(1,1);animation-timing-function: cubic-bezier(0.225,0.14,0.64,0.725)} 13.333333% {transform: scale(1.1,1.1);animation-timing-function: cubic-bezier(0.225,0.14,0.64,0.725)} 26.666667% {transform: scale(1,1);animation-timing-function: cubic-bezier(0.08,0.84,1,1)} 80% {transform: scale(1,1)} 86.666667% {transform: scale(1.1,1.1);animation-timing-function: cubic-bezier(0.225,0.14,0.64,0.725)} 93.333333% {transform: scale(1,1);animation-timing-function: cubic-bezier(0.225,0.14,0.64,0.725)} 96.666667% {transform: scale(0.5,0.5)} 100% {transform: scale(0.5,0.5)}} #eV9hg5ipJ6E44 {animation: eV9hg5ipJ6E44_c_o 3000ms linear infinite normal forwards}@keyframes eV9hg5ipJ6E44_c_o { 0% {opacity: 0;animation-timing-function: cubic-bezier(0.225,0.14,0.64,0.725)} 6.666667% {opacity: 1} 93.333333% {opacity: 1} 96.666667% {opacity: 0} 100% {opacity: 0}} #eV9hg5ipJ6E54_to {animation: eV9hg5ipJ6E54_to__to 3000ms linear infinite normal forwards}@keyframes eV9hg5ipJ6E54_to__to { 0% {transform: translate(181px,256.947998px);animation-timing-function: cubic-bezier(0,0,0.58,1)} 16.666667% {transform: translate(181px,253.947998px);animation-timing-function: cubic-bezier(0,0,0.58,1)} 30% {transform: translate(181px,257.947998px);animation-timing-function: cubic-bezier(0,0,0.58,1)} 46.666667% {transform: translate(181px,255.947998px);animation-timing-function: cubic-bezier(0,0,0.58,1)} 63.333333% {transform: translate(181px,253.947998px);animation-timing-function: cubic-bezier(0,0,0.58,1)} 76.666667% {transform: translate(181px,256.947998px);animation-timing-function: cubic-bezier(0,0,0.58,1)} 90% {transform: translate(181px,254.947998px);animation-timing-function: cubic-bezier(0,0,0.58,1)} 100% {transform: translate(181px,256.947998px)}} #eV9hg5ipJ6E58_to {animation: eV9hg5ipJ6E58_to__to 3000ms linear infinite normal forwards}@keyframes eV9hg5ipJ6E58_to__to { 0% {transform: translate(198.678857px,234.535516px)} 13.333333% {transform: translate(198.678857px,234.535516px);animation-timing-function: cubic-bezier(0.445,0.05,0.55,0.95)} 23.333333% {transform: translate(198.678857px,200.535516px)} 100% {transform: translate(198.678857px,200.535516px)}} #eV9hg5ipJ6E59_to {animation: eV9hg5ipJ6E59_to__to 3000ms linear infinite normal forwards}@keyframes eV9hg5ipJ6E59_to__to { 0% {transform: translate(198.678857px,234.535516px)} 66.666667% {transform: translate(198.678857px,234.535516px);animation-timing-function: cubic-bezier(0.445,0.05,0.55,0.95)} 76.666667% {transform: translate(198.678857px,200.535516px)} 100% {transform: translate(198.678857px,200.535516px)}}
]]></style>
<defs><linearGradient id="eV9hg5ipJ6E6-fill" x1="200.543" y1="68.5298" x2="139.19" y2="295.998" spreadMethod="pad" gradientUnits="userSpaceOnUse" gradientTransform="translate(0 0)"><stop id="eV9hg5ipJ6E6-fill-0" offset="0%" stop-color="#4f52ff"/><stop id="eV9hg5ipJ6E6-fill-1" offset="100%" stop-color="#4042e2"/></linearGradient><linearGradient id="eV9hg5ipJ6E7-fill" x1="162.813" y1="82.994" x2="147.272" y2="212.7" spreadMethod="pad" gradientUnits="userSpaceOnUse" gradientTransform="translate(0 0)"><stop id="eV9hg5ipJ6E7-fill-0" offset="0%" stop-color="#4f52ff"/><stop id="eV9hg5ipJ6E7-fill-1" offset="100%" stop-color="#4042e2"/></linearGradient><linearGradient id="eV9hg5ipJ6E27-fill" x1="203.372" y1="391.479" x2="205.174" y2="108.548" spreadMethod="pad" gradientUnits="userSpaceOnUse" gradientTransform="translate(0 0)"><stop id="eV9hg5ipJ6E27-fill-0" offset="0%" stop-color="#4f52ff"/><stop id="eV9hg5ipJ6E27-fill-1" offset="100%" stop-color="#4042e2"/></linearGradient><linearGradient id="eV9hg5ipJ6E37-fill" x1="387.105" y1="75.9343" x2="301.517" y2="276.798" spreadMethod="pad" gradientUnits="userSpaceOnUse" gradientTransform="translate(0 0)"><stop id="eV9hg5ipJ6E37-fill-0" offset="0%" stop-color="#f14c46"/><stop id="eV9hg5ipJ6E37-fill-1" offset="100%" stop-color="#fe7062"/></linearGradient></defs><g clip-path="url(#eV9hg5ipJ6E67)"><g><path d="M303.399,281.861c-6.69,7.056-13.017,11.611-18.017,15.203-58.795,42.265-128.365,29.95-143.143,26.944-21.832-4.438-64.03-13.031-94.5483-48.98C1.52577,220.635,8.72106,134.943,44.5215,78.3664C51.0712,68.0232,85.6626,10.5897,155.984,1.37359c42.55-5.57664,92.154,5.67055,128.083,35.83131c75.404,63.2921,70.04,191.1791,19.332,244.6561Z" fill="#eef5f9"/><path d="M199.449,191.789h-89.947l7.982,88.416c.211,2.336,2.16,4.121,4.507,4.121h77.458v-92.537Z" fill="#91b3fa"/><path d="M168.614,284.338h-35.977l-4.096-45.13c-.211-2.336,1.631-4.356,3.979-4.356h34.462c2.289,0,4.109,1.914,3.991,4.203l-2.359,45.283Z" fill="url(#eV9hg5ipJ6E6-fill)"/><path d="M193.674,196.297h-85.099c-2.336,0-3.956-2.348-3.111-4.532l.646-1.678c.493-1.292,1.737-2.137,3.11-2.137h84.454v8.347Z" fill="url(#eV9hg5ipJ6E7-fill)"/><path d="M148.694,204.645h-9.636v14.781h9.636v-14.781Z" opacity="0.76" fill="#fff"/><path d="M166.689,204.645h-9.637v14.781h9.637v-14.781Z" opacity="0.76" fill="#fff"/><path d="M130.7,204.645h-9.637v14.781h9.637v-14.781Z" opacity="0.76" fill="#fff"/><path d="M169.26,94.1099L180,284.338h178.802l7.7-190.2281h-197.242Z" fill="#e0e0e0"/><path d="M367.183,97.9724h-198.874c-.963,0-1.819-.634-2.101-1.5615l-1.209-3.9447c-.434-1.4206.622-2.8529,2.101-2.8529h200.693c1.35,0,2.383,1.2092,2.184,2.5359l-.611,3.9447c-.164,1.0801-1.091,1.8785-2.183,1.8785Z" fill="#d2d2d2"/><path d="M364.788,136.527l1.092-26.99h-195.752l1.526,26.99h193.134Z" fill="#fbfbfb"/><path d="M196.245,109.537h-4.496v26.99h4.496v-26.99Z" fill="#7d97f4"/><path d="M227.08,109.536h-4.496v26.991h4.496v-26.991Z" fill="#ececec"/><path d="M257.915,109.537h-4.495v26.99h4.495v-26.99Z" fill="#ececec"/><path d="M288.762,109.537h-4.495v26.99h4.495v-26.99Z" fill="#ececec"/><path d="M319.598,109.536h-4.495v26.991h4.495v-26.991Z" fill="#ececec"/><path d="M350.445,109.537h-4.496v26.99h4.496v-26.99Z" fill="#ececec"/><path d="M239.968,147.446h-46.294v19.924h46.294v-19.924Z" fill="#fbfbfb"/><path d="M238.254,149.383h-42.866v16.707h42.866v-16.707Z" fill="#fbfbfb"/><path d="M290.547,147.446h-46.294v19.924h46.294v-19.924Z" fill="#fbfbfb"/><path d="M288.833,149.383h-42.866v16.707h42.866v-16.707Z" fill="#fbfbfb"/><path d="M341.125,147.446h-46.294v19.923h46.294v-19.923Z" fill="#fbfbfb"/><path d="M339.411,149.383h-42.866v16.706h42.866v-16.706Z" fill="#fbfbfb"/><path d="M290.687,213.638h-87.376v75.184h87.376v-75.184Z" fill="#dedede"/><path d="M212.302,288.834h-14.777c-.716,0-1.292-.575-1.292-1.291v-76.477h16.058v77.768h.011Z" fill="url(#eV9hg5ipJ6E27-fill)"/><path d="M275.276,288.834h-56.542v-50.06c0-1.104.893-1.996,1.996-1.996h51.893c1.467,0,2.653,1.185,2.653,2.653v49.403Z" fill="#ececec"/><path d="M189.437,180.26l2.3,39.177h89.947v69.409h58.596c3.157,0,5.763-2.501,5.88-5.659l4.097-101.178c.094-2.383-1.796-4.367-4.167-4.391l-152.392-1.819c-2.442-.047-4.402,2.007-4.261,4.461Z" fill="#fbfbfb"/><path d="M190.986,206.57h99.701v-14.781h-100.57l.869,14.781Z" fill="#fbfbfb"/><path d="M209.732,191.789h-3.85v14.781h3.85v-14.781Z" fill="#ececec"/><path d="M227.08,191.789h-3.85v14.781h3.85v-14.781Z" fill="#ececec"/><path d="M244.428,191.789h-3.85v14.781h3.85v-14.781Z" fill="#ececec"/><path d="M261.777,191.789h-3.85v14.781h3.85v-14.781Z" fill="#ececec"/><path d="M279.126,191.789h-3.85v14.781h3.85v-14.781Z" fill="#ececec"/><g id="eV9hg5ipJ6E36_tr" transform="translate(319.280502,235.169495) rotate(0)"><g transform="scale(0.95,0.95) translate(-319.280502,-235.169494)"><path d="M319.281,259.589c13.484,0,24.414-10.933,24.414-24.42c0-13.486-10.93-24.419-24.414-24.419s-24.415,10.933-24.415,24.419c0,13.487,10.931,24.42,24.415,24.42Z" fill="url(#eV9hg5ipJ6E37-fill)"/><path d="M333.261,228.419h-8.111v-6.986c0-1.643-1.327-2.97-2.97-2.97h-5.951c-1.643,0-2.97,1.327-2.97,2.97v6.986h-8.111c-1.643,0-2.969,1.326-2.969,2.97v6.915c0,1.644,1.326,2.97,2.969,2.97h8.111v6.986c0,1.643,1.327,2.97,2.97,2.97h5.951c1.643,0,2.97-1.327,2.97-2.97v-6.986h8.111c1.643,0,2.969-1.326,2.969-2.97v-6.903c0-1.644-1.326-2.982-2.969-2.982Z" fill="#fff"/></g></g><path d="M3.73292,15.9903C2.53567,64.4777,-1.3613,231.741,0.493283,291.006c.199543,6.281,5.235077,11.318,11.503117,11.529c31.0465,1.022,120.3716,3.593,171.1606,1.456c10.576-.446,18.992-9.016,19.215-19.606c1.057-50.894,3.381-194.0435-2.148-259.6247-.657-7.8543-6.831-14.1118-14.672-14.89843-33.817-3.3812-123.6229-11.6581-167.4989-8.80521C10.13,1.57323,3.93247,8.06561,3.73292,15.9903Z" transform="translate(.251397 0)" fill="#222"/><path d="M16.3511,31.0531C14.6609,70.7704,9.30841,202.884,10.9987,251.735c.2464,7.138,5.8806,12.914,13.0055,13.337c29.3563,1.714,104.6658,5.506,147.7328,2.055c7.758-.623,13.838-6.892,14.261-14.664c2.183-40.516,8.451-163.5303,6.82-211.8416-.259-7.7016-6.233-13.9944-13.91-14.6871-31.762-2.8529-113.3402-9.6388-149.9387-7.6429-6.8667.3757-12.3247,5.8936-12.6182,12.7617Z" fill="#fbfbfb"/><path d="M80.4746,9.53314c0,1.49106,1.1621,2.71196,2.641,2.79416c7.3362.3875,27.9944,1.4676,37.2204,2.0076c1.82.1057,3.252-1.5262,2.9-3.3225l-.059-.3052c-.235-1.22103-1.244-2.13677-2.489-2.25417-6.244-.57527-25.0716-2.16021-37.5489-1.71408-1.4907.0587-2.6645,1.30317-2.6645,2.79419Z" opacity="0.5" fill="#fbfbfb"/><path d="M192.195,107.647l-34.99-.423c-1.972,0-3.569-1.597-3.58-3.569-.129-32.321-.247-75.8423-.036-79.9866-.011.2231-6.667-.4461-6.667-.4461-.105,2.1132.047-.8571-.011,3.5455-.024,2.5007-.047,6.0932-.059,10.672-.012,7.6664-.012,18.2444.023,31.4522.047,22.4591.153,45.059.153,45.282l.012,2.501c.011,2.395,1.96,4.332,4.343,4.332h7.535c1.303,0,2.372,1.057,2.372,2.372v41.102c0,2.712-2.195,4.908-4.907,4.908h-18.792c-2.113,0-3.991-1.327-4.707-3.311L118.399,125.95c-.833-2.313-3.04-3.863-5.493-3.863h-17.5244c-1.479,0-2.5706-1.373-2.242-2.817L115.524,20.9329l-9.238-.5987L84.9584,116.487c-.7278,3.276-3.627,5.6-6.984,5.6h-6.4911c-2.3827,0-4.3195-1.937-4.3078-4.32.0235-8.723.0587-21.4263.0705-34.0823.0235-13.2078.0235-23.774.0117-31.417-.0235-15.2506.5047-32.8845.2582-33.8824c0,0-4.3664-.0587-4.3664-.1409.1643,3.0759.5517,64.5598.493,99.8046c0,2.23-1.8077,4.038-4.0379,4.038h-6.1036c-2.6058,0-4.8125-1.937-5.1529-4.52-3.8148-28.8809-12.9703-98.0547-13.2286-99.6279-4.2021.094-8.0287.317-10.0476,1.1741c0,0,10.1415,76.3118,14.8132,111.6968.3873,2.9,2.8523,5.072,5.775,5.072h27.2318c2.418,0,4.0495,2.454,3.1222,4.684L56.8815,186.424c-1.1034,2.653-3.6974,4.379-6.5732,4.379h-39.2279l-.223,13.783h41.552c3.4391,0,6.5497-2.066,7.8643-5.248l24.6964-59.206c1.0799-2.583,3.5918-4.262,6.3854-4.262h18.6165c2.23,0,4.214,1.397,4.965,3.487l9.578,26.557c.61,1.69-.646,3.475-2.442,3.475h-26.5741c-1.3146,0-2.371,1.068-2.371,2.371v95.86h3.5331v-86.385c0-2.489,2.0189-4.52,4.519-4.52h22.889c2.617,0,4.953,1.643,5.845,4.109l28.5,78.965l5.305-8.265-25.788-71.463c-.587-1.632.622-3.346,2.348-3.346h24.414c2.536,0,4.59-2.055,4.59-4.591v-47.09c0-2.231,1.808-4.039,4.038-4.039l18.886.2v-13.548h-.012Z" opacity="0.73" fill="#e6e6e6"/><path d="M165.469,175.048h-33.97c-.833,0-1.573-.517-1.866-1.292l-16.961-44.484h-68.0327c-1.0095,0-1.8546-.751-1.9837-1.749L29.8496,28.2002c-.1408-1.0918.6338-2.1015,1.7255-2.2424s2.101.634,2.2419,1.7258L46.3999,125.269h67.6331c.834,0,1.573.516,1.867,1.291l16.961,44.484h30.589v-56.471c0-1.103.892-2.007,2.007-2.007c1.103,0,2.007.892,2.007,2.007v58.467c0,1.115-.892,2.008-1.995,2.008Z" fill="#ef6238"/><g id="eV9hg5ipJ6E44_tr" transform="translate(164.901031,104.982) rotate(-5)"><g id="eV9hg5ipJ6E44_ts" transform="scale(0.5,0.5)"><g id="eV9hg5ipJ6E44" transform="translate(-164.90103,-104.981999)" opacity="0"><path d="M164.975,75.631c14.502,0,26.258-11.7583,26.258-26.263s-11.756-26.263-26.258-26.263c-14.501,0-26.257,11.7583-26.257,26.263s11.756,26.263,26.257,26.263Z" fill="#ef6238"/><path d="M191.186,46.9142h-26.211-26.257c0,0-2.09,15.098,21.339,55.0268c1.021,1.738,2.888,3.041,4.907,3.041c2.018,0,3.885-1.421,4.918-3.158c23.44-39.9292,21.304-54.9098,21.304-54.9098Z" fill="#ef6238"/><path d="M175.783,60.0146c5.923-5.9236,5.923-15.5276,0-21.4512-5.922-5.9236-15.524-5.9236-21.446,0-5.923,5.9236-5.923,15.5276,0,21.4512c5.922,5.9236,15.524,5.9236,21.446,0Z" fill="#fbfbfb"/><path d="M165.057,65.2879c-8.826,0-16.01-7.1851-16.01-16.0138s7.184-16.0137,16.01-16.0137c8.827,0,16.011,7.185,16.011,16.0137c0,8.8405-7.184,16.0138-16.011,16.0138Zm0-30.3252c-7.887,0-14.308,6.422-14.308,14.3114c0,7.8895,6.421,14.3114,14.308,14.3114c7.888,0,14.309-6.4219,14.309-14.3114.012-7.8894-6.409-14.3114-14.309-14.3114Z" fill="#ef6238"/><path d="M149.88,31.4993c-.07,0-.14-.0352-.187-.0939-.094-.1057-.083-.2701.023-.364c4.261-3.663,9.696-5.6706,15.318-5.6706.141,0,.258.1175.258.2583s-.117.2583-.258.2583c-5.505,0-10.822,1.9724-14.989,5.5532-.047.0352-.106.0587-.165.0587Z" fill="#fff"/><path d="M141.77,49.1683c-.141,0-.258-.1174-.258-.2583c0-4.3908,1.22-8.676,3.521-12.386.07-.1174.235-.1526.352-.0822.118.0705.153.2348.082.3523-2.253,3.6277-3.439,7.819-3.439,12.1159-.012.1409-.117.2583-.258.2583Z" fill="#fff"/></g></g></g><path d="M255.925,227.271l-14.254-23.415c0,0-2.376-4.174-3.955-3.849-.369.074-6.862.134-16.556.178-.517,7.4-1.742,14.431-7.866,18.738-16.527,11.397-35.636,3.108-54.229,7.771-4.058,1.243-7.865,3.019-11.554,5.076h105.065l3.349-4.499Z" opacity="0.3"/><path d="M88.8544,296.909v20.07c0,0,.1918,9.339,5.1499,9.532c4.9581.192,15.0517,0,15.0517,0s4.353-.4,4.353-3.375s0-14.89,0-14.89L88.8544,296.909Z"/><path d="M273.751,296.909v20.07c0,0-.192,9.339-5.15,9.532-4.958.192-15.051,0-15.051,0s-4.353-.4-4.353-3.375s0-14.89,0-14.89l24.554-11.337Z"/><g id="eV9hg5ipJ6E54_to" transform="translate(181,256.947998)"><g transform="translate(-181,-256.947998)"><path d="M252.56,231.77l3.365-4.484-14.255-23.415c0,0-2.376-4.174-3.955-3.848-1.579.325-111.823.325-113.402,0-1.579-.326-3.955,3.848-3.955,3.848l-14.254,23.415l3.364,4.484h143.092Z"/><path d="M105.617,230.112h-3.305c-1.889,0-3.4385-1.539-3.4385-3.448v-3.612c0-2.057-1.815-3.641-3.8514-3.345-5.519.8-15.0221,2.857-15.0221,7.356c0,2.117,2.243,6.483,6.3305,6.616c4.0876.134,18.2245,1.066,18.2245,1.066l1.062-4.633Z" fill="#ef6238"/><path d="M256.383,230.112h3.306c1.888,0,3.438-1.539,3.438-3.448v-3.612c0-2.057,1.815-3.641,3.851-3.345c5.519.8,15.022,2.857,15.022,7.356c0,2.117-2.243,6.483-6.33,6.616-4.088.134-18.224,1.066-18.224,1.066l-1.063-4.633Z" fill="#cd5835"/><g id="eV9hg5ipJ6E58_to" transform="translate(198.678857,234.535516)"><path d="M180.225251,236.778L241.67,242.464399l5.328999-10.142138-63.590603-6.069975L180.225251,236.778Z" transform="scale(1.127268,0.455835) translate(-213.612125,-234.358342)" fill="#fff" stroke-width="0.74"/></g><g id="eV9hg5ipJ6E59_to" transform="translate(198.678857,234.535516)"><path d="M180.225251,236.778L241.67,242.464399l5.328999-10.142138-63.590603-6.069975L180.225251,236.778Z" transform="scale(1.127268,0.455835) translate(-213.612125,-234.358342)" fill="#fff" stroke-width="0.74"/></g><path d="M277.513,265.723c0,0,.266-5.269-2.774-10.124-2.257-3.611-11.687-16.281-11.687-16.281l-23.58-39.207c-1.196-2.013-2.878-2.945-4.619-3.286-1.284-.34-3.143-.621-5.858-.681-8.707-.192-87.269-.192-95.976,0-2.7.06-4.559.341-5.843.681-1.742.341-3.438,1.273-4.634,3.286L98.9616,239.318c0,0-9.3555,12.714-11.687,16.281-3.5711,5.462-2.7742,10.124-2.7742,10.124s.9887,30.475.5902,37.017c-.3984,6.557,192.2164,6.557,191.8174,0-.383-6.542.605-37.017.605-37.017Zm-96.447-35.551h-.133l-69.709-1.791c-.826-.163-1.535-.356-2.14-.563c1.801-3.374,9.415-17.554,14.137-23.666l115.66.133c4.722,6.172,12.248,20.188,14.034,23.548-.605.207-1.299.4-2.14.562l-69.709,1.777Z" fill="#ef6238"/><path d="M227.314,317.896c0,0,42.778-1.731,48.312-11.648c3.04-5.461,3.497-9.265,3.29-11.589-.132-1.554-1.534-2.679-3.069-2.457-5.238.755-18.003,2.561-23.005,2.886-17.973,1.14-125.724,1.14-143.697,0-5.002-.311-17.7667-2.131-23.0052-2.886-1.5346-.222-2.9365.903-3.0693,2.457-.2066,2.324.2509,6.128,3.2907,11.589c5.5189,9.917,48.3118,11.648,48.3118,11.648h92.641Z" fill="#ef6338"/><path d="M109.158,295.103c-5.002-.311-17.7663-2.131-23.0048-2.886-.7526-.104-1.4756.104-2.0364.548c2.73,1.509,5.3713,3.256,8.0127,4.78c0,0,3.8809,1.969,8.0565,3.493c15.332,5.565,77.471,5.698,77.471,5.698s43.237.104,73.856-2.338c3.394-.267,11.392-1.007,18.342-6.601c2.553-2.057,4.221-4.174,5.121-5.447-5.667.814-17.383,2.457-22.12,2.753-17.973,1.14-125.724,1.14-143.698,0Z" opacity="0.1" fill="#fff"/><path d="M236.181,269.601l-1.401-3.449c-.738-1.82-2.509-3.004-4.457-3.004h-98.616c-1.963,0-3.719,1.184-4.457,3.004l-1.402,3.449c-1.298,3.182,1.033,6.66,4.457,6.66h101.435c3.409,0,5.725-3.493,4.441-6.66Z" fill="#cd5835"/><path d="M235.783,283.159l-1.845,1.509c-.251.208-.575.326-.9.326h-104.076c-.325,0-.65-.118-.901-.326l-1.844-1.509c-1.033-.844-.443-2.531.9-2.531h107.78c1.328,0,1.933,1.687.886,2.531Z" fill="#d4552f"/><path d="M130.246,263.341l-21.78-11.131c0,0-8.116-4.366-11.2891-2.575-3.1726,1.791-4.9433,7.356-4.9433,10.331s.3984,16.089,34.2644,16.089c3.364,0,6.035-3.183,6.433-7.149.384-3.967-2.685-5.565-2.685-5.565Z" fill="#fff"/><path d="M231.769,263.341L253.55,252.21c0,0,8.116-4.366,11.288-2.575c3.173,1.791,4.944,7.356,4.944,10.331s-.399,16.089-34.264,16.089c-3.365,0-6.036-3.183-6.434-7.149-.384-3.967,2.685-5.565,2.685-5.565Z" fill="#fff"/></g></g></g><clipPath id="eV9hg5ipJ6E67"><rect width="370" height="328" rx="0" ry="0" fill="#fff"/></clipPath></g></svg>