<svg id="eymdXvrlhUa1" xmlns="http://www.w3.org/2000/svg" xmlns:xlink="http://www.w3.org/1999/xlink" viewBox="0 0 571 350" shape-rendering="geometricPrecision" text-rendering="geometricPrecision">
<style><![CDATA[
#eymdXvrlhUa3_to {animation: eymdXvrlhUa3_to__to 3000ms linear infinite normal forwards}@keyframes eymdXvrlhUa3_to__to { 0% {transform: translate(348.904022px,103.876586px);animation-timing-function: cubic-bezier(0.445,0.05,0.55,0.95)} 50% {transform: translate(346.495529px,110.982345px);animation-timing-function: cubic-bezier(0.445,0.05,0.55,0.95)} 100% {transform: translate(348.904022px,103.876586px)}} #eymdXvrlhUa57_tr {animation: eymdXvrlhUa57_tr__tr 3000ms linear infinite normal forwards}@keyframes eymdXvrlhUa57_tr__tr { 0% {transform: translate(496.69632px,181.565468px) rotate(0deg);animation-timing-function: cubic-bezier(0.445,0.05,0.55,0.95)} 50% {transform: translate(496.69632px,181.565468px) rotate(10deg);animation-timing-function: cubic-bezier(0.445,0.05,0.55,0.95)} 100% {transform: translate(496.69632px,181.565468px) rotate(0deg)}} #eymdXvrlhUa69_to {animation: eymdXvrlhUa69_to__to 3000ms linear infinite normal forwards}@keyframes eymdXvrlhUa69_to__to { 0% {transform: translate(179.137375px,97.190686px);animation-timing-function: cubic-bezier(0.445,0.05,0.55,0.95)} 33.333333% {transform: translate(178.114686px,103.006382px);animation-timing-function: cubic-bezier(0.445,0.05,0.55,0.95)} 100% {transform: translate(179.137375px,97.190686px)}} #eymdXvrlhUa158_tr {animation: eymdXvrlhUa158_tr__tr 3000ms linear infinite normal forwards}@keyframes eymdXvrlhUa158_tr__tr { 0% {transform: translate(176.145035px,218.210297px) rotate(0deg)} 100% {transform: translate(176.145035px,218.210297px) rotate(360deg)}}
]]></style>
<defs><linearGradient id="eymdXvrlhUa5-fill" x1="262.638" y1="148.97" x2="281.279" y2="148.97" spreadMethod="pad" gradientUnits="userSpaceOnUse" gradientTransform="translate(0 0)"><stop id="eymdXvrlhUa5-fill-0" offset="0%" stop-color="#dae3fe"/><stop id="eymdXvrlhUa5-fill-1" offset="100%" stop-color="#e9effd"/></linearGradient><linearGradient id="eymdXvrlhUa6-fill" x1="273.526" y1="124.111" x2="275.946" y2="124.111" spreadMethod="pad" gradientUnits="userSpaceOnUse" gradientTransform="translate(0 0)"><stop id="eymdXvrlhUa6-fill-0" offset="0%" stop-color="#dae3fe"/><stop id="eymdXvrlhUa6-fill-1" offset="100%" stop-color="#e9effd"/></linearGradient><linearGradient id="eymdXvrlhUa23-fill" x1="312.458" y1="96.875" x2="329.121" y2="96.875" spreadMethod="pad" gradientUnits="userSpaceOnUse" gradientTransform="translate(0 0)"><stop id="eymdXvrlhUa23-fill-0" offset="0%" stop-color="#fe7062"/><stop id="eymdXvrlhUa23-fill-1" offset="100%" stop-color="#ff928e"/></linearGradient><linearGradient id="eymdXvrlhUa24-fill" x1="383.74" y1="6.03664" x2="394.805" y2="6.03664" spreadMethod="pad" gradientUnits="userSpaceOnUse" gradientTransform="translate(0 0)"><stop id="eymdXvrlhUa24-fill-0" offset="0%" stop-color="#dae3fe"/><stop id="eymdXvrlhUa24-fill-1" offset="100%" stop-color="#e9effd"/></linearGradient><linearGradient id="eymdXvrlhUa26-fill" x1="377.228" y1="12.7828" x2="379.905" y2="12.7828" spreadMethod="pad" gradientUnits="userSpaceOnUse" gradientTransform="translate(0 0)"><stop id="eymdXvrlhUa26-fill-0" offset="0%" stop-color="#dae3fe"/><stop id="eymdXvrlhUa26-fill-1" offset="100%" stop-color="#e9effd"/></linearGradient><linearGradient id="eymdXvrlhUa27-fill" x1="365.448" y1="11.2472" x2="376.872" y2="11.2472" spreadMethod="pad" gradientUnits="userSpaceOnUse" gradientTransform="translate(0 0)"><stop id="eymdXvrlhUa27-fill-0" offset="0%" stop-color="#dae3fe"/><stop id="eymdXvrlhUa27-fill-1" offset="100%" stop-color="#e9effd"/></linearGradient><linearGradient id="eymdXvrlhUa29-fill" x1="321.465" y1="72.8853" x2="338.127" y2="72.8853" spreadMethod="pad" gradientUnits="userSpaceOnUse" gradientTransform="translate(0 0)"><stop id="eymdXvrlhUa29-fill-0" offset="0%" stop-color="#fe7062"/><stop id="eymdXvrlhUa29-fill-1" offset="100%" stop-color="#ff928e"/></linearGradient><linearGradient id="eymdXvrlhUa30-fill" x1="302.759" y1="119.519" x2="319.422" y2="119.519" spreadMethod="pad" gradientUnits="userSpaceOnUse" gradientTransform="translate(0 0)"><stop id="eymdXvrlhUa30-fill-0" offset="0%" stop-color="#fe7062"/><stop id="eymdXvrlhUa30-fill-1" offset="100%" stop-color="#ff928e"/></linearGradient><linearGradient id="eymdXvrlhUa41-fill" x1="396.198" y1="63.0376" x2="302.48" y2="139.542" spreadMethod="pad" gradientUnits="userSpaceOnUse" gradientTransform="translate(0 0)"><stop id="eymdXvrlhUa41-fill-0" offset="0%" stop-color="#a737d5"/><stop id="eymdXvrlhUa41-fill-1" offset="100%" stop-color="#ef497a"/></linearGradient><linearGradient id="eymdXvrlhUa47-fill" x1="142.527" y1="178.64" x2="182.133" y2="178.64" spreadMethod="pad" gradientUnits="userSpaceOnUse" gradientTransform="translate(0 0)"><stop id="eymdXvrlhUa47-fill-0" offset="0%" stop-color="#dae3fe"/><stop id="eymdXvrlhUa47-fill-1" offset="100%" stop-color="#e9effd"/></linearGradient><linearGradient id="eymdXvrlhUa48-fill" x1="139.541" y1="193.418" x2="179.147" y2="193.418" spreadMethod="pad" gradientUnits="userSpaceOnUse" gradientTransform="translate(0 0)"><stop id="eymdXvrlhUa48-fill-0" offset="0%" stop-color="#dae3fe"/><stop id="eymdXvrlhUa48-fill-1" offset="100%" stop-color="#e9effd"/></linearGradient><linearGradient id="eymdXvrlhUa49-fill" x1="142.527" y1="210.725" x2="182.133" y2="210.725" spreadMethod="pad" gradientUnits="userSpaceOnUse" gradientTransform="translate(0 0)"><stop id="eymdXvrlhUa49-fill-0" offset="0%" stop-color="#dae3fe"/><stop id="eymdXvrlhUa49-fill-1" offset="100%" stop-color="#e9effd"/></linearGradient><linearGradient id="eymdXvrlhUa50-fill" x1="145.663" y1="229.935" x2="185.268" y2="229.935" spreadMethod="pad" gradientUnits="userSpaceOnUse" gradientTransform="translate(0 0)"><stop id="eymdXvrlhUa50-fill-0" offset="0%" stop-color="#dae3fe"/><stop id="eymdXvrlhUa50-fill-1" offset="100%" stop-color="#e9effd"/></linearGradient><linearGradient id="eymdXvrlhUa52-fill" x1="496.667" y1="241.519" x2="493.182" y2="241.125" spreadMethod="pad" gradientUnits="userSpaceOnUse" gradientTransform="translate(0 0)"><stop id="eymdXvrlhUa52-fill-0" offset="0%" stop-color="#ff928e"/><stop id="eymdXvrlhUa52-fill-1" offset="100%" stop-color="#feb3b1"/></linearGradient><linearGradient id="eymdXvrlhUa54-fill" x1="478.75" y1="238.568" x2="475.265" y2="238.42" spreadMethod="pad" gradientUnits="userSpaceOnUse" gradientTransform="translate(0 0)"><stop id="eymdXvrlhUa54-fill-0" offset="0%" stop-color="#ff928e"/><stop id="eymdXvrlhUa54-fill-1" offset="100%" stop-color="#feb3b1"/></linearGradient><linearGradient id="eymdXvrlhUa56-fill" x1="493.907" y1="191.862" x2="499.47" y2="191.862" spreadMethod="pad" gradientUnits="userSpaceOnUse" gradientTransform="translate(0 0)"><stop id="eymdXvrlhUa56-fill-0" offset="0%" stop-color="#020039"/><stop id="eymdXvrlhUa56-fill-1" offset="100%" stop-color="#090056"/></linearGradient><linearGradient id="eymdXvrlhUa59-fill" x1="467.485" y1="134.274" x2="454.605" y2="132.817" spreadMethod="pad" gradientUnits="userSpaceOnUse" gradientTransform="translate(0 0)"><stop id="eymdXvrlhUa59-fill-0" offset="0%" stop-color="#ff928e"/><stop id="eymdXvrlhUa59-fill-1" offset="100%" stop-color="#feb3b1"/></linearGradient><linearGradient id="eymdXvrlhUa61-fill" x1="437.998" y1="133.797" x2="461.804" y2="171.503" spreadMethod="pad" gradientUnits="userSpaceOnUse" gradientTransform="translate(0 0)"><stop id="eymdXvrlhUa61-fill-0" offset="0%" stop-color="#ff928e"/><stop id="eymdXvrlhUa61-fill-1" offset="100%" stop-color="#feb3b1"/></linearGradient><linearGradient id="eymdXvrlhUa62-fill" x1="432.243" y1="137.429" x2="456.049" y2="175.137" spreadMethod="pad" gradientUnits="userSpaceOnUse" gradientTransform="translate(0 0)"><stop id="eymdXvrlhUa62-fill-0" offset="0%" stop-color="#ff928e"/><stop id="eymdXvrlhUa62-fill-1" offset="100%" stop-color="#feb3b1"/></linearGradient><linearGradient id="eymdXvrlhUa63-fill" x1="480.597" y1="137.909" x2="483.369" y2="148.691" spreadMethod="pad" gradientUnits="userSpaceOnUse" gradientTransform="translate(0 0)"><stop id="eymdXvrlhUa63-fill-0" offset="0%" stop-color="#ff928e"/><stop id="eymdXvrlhUa63-fill-1" offset="100%" stop-color="#feb3b1"/></linearGradient><linearGradient id="eymdXvrlhUa64-fill" x1="497.341" y1="126.8" x2="476.064" y2="131.001" spreadMethod="pad" gradientUnits="userSpaceOnUse" gradientTransform="translate(0 0)"><stop id="eymdXvrlhUa64-fill-0" offset="0%" stop-color="#ff928e"/><stop id="eymdXvrlhUa64-fill-1" offset="100%" stop-color="#feb3b1"/></linearGradient><linearGradient id="eymdXvrlhUa66-fill" x1="497.929" y1="129.78" x2="476.651" y2="133.981" spreadMethod="pad" gradientUnits="userSpaceOnUse" gradientTransform="translate(0 0)"><stop id="eymdXvrlhUa66-fill-0" offset="0%" stop-color="#ff928e"/><stop id="eymdXvrlhUa66-fill-1" offset="100%" stop-color="#feb3b1"/></linearGradient><linearGradient id="eymdXvrlhUa144-fill" x1="101.401" y1="340.276" x2="105.28" y2="339.837" spreadMethod="pad" gradientUnits="userSpaceOnUse" gradientTransform="translate(0 0)"><stop id="eymdXvrlhUa144-fill-0" offset="0%" stop-color="#ff928e"/><stop id="eymdXvrlhUa144-fill-1" offset="100%" stop-color="#feb3b1"/></linearGradient><linearGradient id="eymdXvrlhUa146-fill" x1="120.795" y1="338.766" x2="124.641" y2="339.297" spreadMethod="pad" gradientUnits="userSpaceOnUse" gradientTransform="translate(0 0)"><stop id="eymdXvrlhUa146-fill-0" offset="0%" stop-color="#ff928e"/><stop id="eymdXvrlhUa146-fill-1" offset="100%" stop-color="#feb3b1"/></linearGradient><linearGradient id="eymdXvrlhUa150-fill" x1="133.884" y1="223.17" x2="148.221" y2="221.548" spreadMethod="pad" gradientUnits="userSpaceOnUse" gradientTransform="translate(0 0)"><stop id="eymdXvrlhUa150-fill-0" offset="0%" stop-color="#ff928e"/><stop id="eymdXvrlhUa150-fill-1" offset="100%" stop-color="#feb3b1"/></linearGradient><linearGradient id="eymdXvrlhUa152-fill" x1="166.705" y1="222.638" x2="140.207" y2="264.608" spreadMethod="pad" gradientUnits="userSpaceOnUse" gradientTransform="translate(0 0)"><stop id="eymdXvrlhUa152-fill-0" offset="0%" stop-color="#ff928e"/><stop id="eymdXvrlhUa152-fill-1" offset="100%" stop-color="#feb3b1"/></linearGradient><linearGradient id="eymdXvrlhUa153-fill" x1="173.111" y1="226.682" x2="146.612" y2="268.653" spreadMethod="pad" gradientUnits="userSpaceOnUse" gradientTransform="translate(0 0)"><stop id="eymdXvrlhUa153-fill-0" offset="0%" stop-color="#ff928e"/><stop id="eymdXvrlhUa153-fill-1" offset="100%" stop-color="#feb3b1"/></linearGradient><linearGradient id="eymdXvrlhUa154-fill" x1="129.223" y1="203.345" x2="105.581" y2="261.706" spreadMethod="pad" gradientUnits="userSpaceOnUse" gradientTransform="translate(0 0)"><stop id="eymdXvrlhUa154-fill-0" offset="0%" stop-color="#ff928e"/><stop id="eymdXvrlhUa154-fill-1" offset="100%" stop-color="#feb3b1"/></linearGradient><linearGradient id="eymdXvrlhUa155-fill" x1="120.91" y1="214.527" x2="122.659" y2="236.508" spreadMethod="pad" gradientUnits="userSpaceOnUse" gradientTransform="translate(0 0)"><stop id="eymdXvrlhUa155-fill-0" offset="0%" stop-color="#ff928e"/><stop id="eymdXvrlhUa155-fill-1" offset="100%" stop-color="#feb3b1"/></linearGradient><linearGradient id="eymdXvrlhUa157-fill" x1="115.597" y1="237.877" x2="116.291" y2="222.614" spreadMethod="pad" gradientUnits="userSpaceOnUse" gradientTransform="translate(0 0)"><stop id="eymdXvrlhUa157-fill-0" offset="0%" stop-color="#ff928e"/><stop id="eymdXvrlhUa157-fill-1" offset="100%" stop-color="#feb3b1"/></linearGradient><linearGradient id="eymdXvrlhUa187-fill" x1="398.747" y1="288.98" x2="533.903" y2="288.98" spreadMethod="pad" gradientUnits="userSpaceOnUse" gradientTransform="translate(0 0)"><stop id="eymdXvrlhUa187-fill-0" offset="0%" stop-color="#fe7062"/><stop id="eymdXvrlhUa187-fill-1" offset="100%" stop-color="#ff928e"/></linearGradient><linearGradient id="eymdXvrlhUa188-fill" x1="398.747" y1="293.387" x2="532.236" y2="293.387" spreadMethod="pad" gradientUnits="userSpaceOnUse" gradientTransform="translate(0 0)"><stop id="eymdXvrlhUa188-fill-0" offset="0%" stop-color="#fe7062"/><stop id="eymdXvrlhUa188-fill-1" offset="100%" stop-color="#ff928e"/></linearGradient></defs><path d="M560.083,166.913c-15.125-22.187-47.155-34.076-47.993-67.318-.549-21.5877,8.793-33.3201-6.149-51.753-36.06-44.531-91.668-49.77147-139.164-31.1561-47.469,18.6155-85.413,55.9245-138.169,53.6823-28.759-1.2254-61.286-36.3965-89.731-39.0819-8.767-.8343-27.922,3.3111-35.563,5.3708C74.5809,44.3744,41.347,68.83,31.8217,101.055c-7.7458,26.15,26.8226,73.94,14.6805,99.517-12.9534,27.297-38.46755,46.226-44.87881,77.721-7.71967,37.804,12.97951,44.713,43.23021,54.047c20.7515,6.414,68.8224,12.358,85.9374-.704c20.83-15.904,40.168-14.392,64.452-13.766c46.24,1.147,92.453,12.097,138.091,19.867c39.096,6.674,89.548-16.634,129.193-15.383c29.1.913,41.896,34.52,57.623,1.304c18.815-39.708,71.649-110.207,39.933-156.745Z" fill="#eef5f9"/><g id="eymdXvrlhUa3_to" transform="translate(348.904022,103.876586)"><g transform="translate(-348.904022,-103.876586)"><path d="M317.921,8.91647c2.643-6.38764,9.97-9.411999,16.355-6.8048L432.852,42.5233c5.443,2.2161,8.165,8.317,6.202,13.8442L387.529,201.719c-1.544,4.328-6.359,6.518-10.651,4.849l-113.806-44.27c-4.03-1.564-5.993-6.127-4.344-10.116L317.921,8.91647Z" transform="translate(-.012855 0)" fill="#222"/><path d="M280.709,166.965c-.078,0-.157-.026-.235-.052l-12.561-5.345c-4.344-1.851-6.412-6.883-4.632-11.237l7.85-19.006c.131-.287.445-.444.759-.313.288.13.445.443.314.756l-7.85,19.006c-1.57,3.781.235,8.161,4.004,9.751l12.56,5.345c.288.13.419.469.314.756-.104.209-.314.339-.523.339Z" transform="translate(-.012855 0)" fill="url(#eymdXvrlhUa5-fill)"/><path d="M274.089,126.214c-.079,0-.157-.026-.21-.052-.287-.13-.444-.443-.314-.756l1.283-3.076c.13-.287.444-.443.759-.313.287.13.444.443.314.756l-1.283,3.076c-.104.235-.314.365-.549.365Z" transform="translate(-.012855 0)" fill="url(#eymdXvrlhUa6-fill)"/><path d="M329.854,2.89372c.837-2.033618,3.271-2.893995,5.207-1.7729C347.779,8.44706,391.742,33.059,431.204,45.8083c1.806.5735,2.774,2.5289,2.146,4.3018L381.929,196.244c-.707,2.007-2.905,3.076-4.92,2.372-16.486-5.657-84.288-29.148-106.898-41.298-1.387-.73-1.962-2.398-1.387-3.832L329.854,2.89372Z" transform="translate(-.012855 0)" fill="#fbfbfb"/><g opacity="0.6"><path d="M417.806,58.5314c.523.2086,1.125-.0522,1.334-.5736l.027-.0521c.209-.5476-.053-1.1733-.602-1.3819L382.897,41.1674c-.523-.2346-.994.0522-1.02.6258l-.053.9646c-.026.5736.393,1.2254.916,1.434l35.066,14.3396Z" fill="#ef6238"/></g><g opacity="0.6"><path d="M380.646,46.6426c-.523-.2346-.994.0522-1.02.6258l-.053.9646c-.026.5736.393,1.2254.916,1.434l35.04,14.3657c.523.2086,1.125-.0522,1.334-.5736l.027-.0522c.209-.5475-.053-1.1732-.602-1.3818L380.646,46.6426Z" fill="#ef6238"/></g><g opacity="0.6"><path d="M378.344,52.222c-.524-.2347-.995.0521-1.021.6257l-.052.9647c-.026.5736.392,1.2254.916,1.4339L413.226,69.612c.523.2086,1.125-.0521,1.335-.5736l.026-.0521c.209-.5475-.052-1.1733-.602-1.3818L378.344,52.222Z" fill="#ef6238"/></g><g opacity="0.6"><path d="M411.918,82.5438c.524.2086,1.125-.0522,1.309-.5997l.026-.0521c.183-.5475-.105-1.1733-.628-1.3818L329.252,45.5737c-.523-.2347-.837.0521-.68.5996l.445,1.5122c.157.5475.732,1.1732,1.256,1.4079l81.645,33.4504Z" fill="#ef6238"/></g><g opacity="0.6"><path d="M326.949,51.0488c-.523-.2347-.837.0521-.68.5996l.445,1.5122c.157.5475.733,1.1732,1.256,1.4079L409.642,88.045c.523.2085,1.125-.0522,1.308-.5997l.026-.0521c.183-.5476-.105-1.1733-.628-1.3819L326.949,51.0488Z" fill="#ef6238"/></g><g opacity="0.6"><path d="M343.827,78.4244c-.523-.2086-1.02.0782-1.073.6518l-.418,4.0672c-.053.5736.34,1.1993.863,1.4079l56.446,21.0397c.549.209,1.125-.078,1.334-.625l.785-2.242c.183-.548-.104-1.148-.628-1.382L343.827,78.4244Z" fill="#ef6238"/></g><path d="M314.126,91.4082c2.408.73,7.746,2.1119,10.18,2.9983c1.046.365,1.701,1.3297,1.622,2.3204-.183,1.9033-1.544,5.3191-2.8,8.4731-.392.939-1.544,1.382-2.617.965l-8.949-3.442c-1.099-.417-1.727-1.512-1.466-2.529l2.041-7.795c.184-.8083,1.099-1.2515,1.989-.9908Z" transform="translate(-.012855 0)" opacity="0.6" fill="#fff"/><g opacity="0.6"><path d="M334.825,102.41c-.523-.208-1.02.079-1.073.652l-.418,4.068c-.053.573.34,1.199.863,1.407l56.446,21.041c.549.208,1.125-.079,1.334-.626l.785-2.242c.183-.548-.104-1.148-.628-1.382L334.825,102.41Z" fill="#ef6238"/></g><path d="M314.048,93.0508c1.021-.1826,1.989.5214,2.146,1.5382l.733,4.7712c.078.4693.654.6778.994.3128l10.075-10.142c.497-.4953,1.334.0261,1.073.704-1.466,3.7022-5.103,10.429-13.32,14.131c0,0-2.826-2.503-3.297-9.3077-.052-.9386.628-1.825,1.596-2.0075Z" transform="translate(-.012855 0)" fill="url(#eymdXvrlhUa23-fill)"/><path d="M383.944,10.2461c-.157-.1564-.236-.39108-.157-.62573l.523-1.69468c.105-.31286.445-.49537.759-.39108s.497.44323.392.75609l-.523,1.69468c-.105.31282-.445.49532-.759.39112-.105-.0261-.183-.0783-.235-.1304Zm1.02-3.31114c-.157-.15644-.235-.39109-.157-.62573L385.2,5.0317c.68-2.16398,2.8-3.57187,5.05-3.33722c1.544.15643,2.983.67787,4.292,1.56432.262.1825.34.54751.157.83431-.183.26072-.55.33893-.838.15643-1.151-.75609-2.407-1.22539-3.742-1.35575-1.701-.1825-3.297.88645-3.794,2.50292l-.393,1.27752c-.104.31287-.444.49537-.758.39109-.079-.02608-.157-.07822-.21-.13036Z" fill="url(#eymdXvrlhUa24-fill)"/><path d="M363.349,14.2613l2.119-5.13619c.733-1.7729,2.8-2.58113,4.554-1.79897L405.087,23.1258c1.544.7039,2.329,2.4768,1.78,4.0672l-1.754,5.058-41.764-17.9897Z" fill="#222"/><path d="M379.338,13.6615c-.079,0-.157-.0261-.21-.0522l-1.517-.6257c-.288-.1304-.445-.4432-.314-.7561.13-.2868.444-.4432.759-.3129l1.517.6258c.288.1303.445.4432.314.7561-.104.2346-.34.365-.549.365Z" fill="url(#eymdXvrlhUa26-fill)"/><path d="M365.652,13.6094c-.183-.1564-.235-.4172-.157-.6779l.864-2.0857c.34-.86041,1.02-1.51221,1.884-1.87722s1.806-.36501,2.643,0l5.626,2.29432c.314.1304.445.4693.314.7822s-.471.4432-.785.3128l-5.626-2.2943c-1.151-.46929-2.486.0782-2.957,1.2254l-.864,2.0858c-.13.3128-.471.4432-.785.3128-.052,0-.104-.0261-.157-.0782Z" fill="url(#eymdXvrlhUa27-fill)"/><path d="M352.986,7.8214l62.177,25.4724c2.224.9125,3.48,3.3111,2.957,5.6576l-.079.3129c-.576,2.5811-3.349,4.015-5.783,2.9982L348.459,16.1384c-1.465-.5997-2.119-2.2944-1.465-3.7283l1.308-2.78973c.838-1.74683,2.879-2.52899,4.684-1.79897Z" fill="#ef6238"/><path d="M323.05,69.0645c1.021-.1825,1.989.5214,2.146,1.5382l.733,4.7712c.078.4693.654.6779.994.3129l10.075-10.142c.497-.4954,1.334.026,1.073.7039-1.466,3.7022-5.103,10.4288-13.32,14.131c0,0-2.826-2.5029-3.297-9.3077-.053-.9646.628-1.825,1.596-2.0075Z" transform="translate(-.012855 0)" fill="url(#eymdXvrlhUa29-fill)"/><path d="M304.366,115.707c1.021-.182,1.989.522,2.146,1.539l.733,4.771c.078.469.654.678.994.313l10.075-10.142c.497-.496,1.334.026,1.073.704-1.466,3.702-5.103,10.428-13.32,14.131c0,0-2.826-2.503-3.297-9.308-.079-.965.602-1.851,1.596-2.008Z" transform="translate(-.012855 0)" fill="url(#eymdXvrlhUa30-fill)"/><path d="M321.245,108.472h-.026l-11.201-4.301c-1.622-.626-2.538-2.217-2.145-3.729l2.538-9.7507c.157-.5736.523-1.069,1.073-1.3818.602-.339,1.361-.4172,2.067-.2086.968.2868,2.329.6518,3.795,1.0689c3.218.9126,6.882,1.9294,8.975,2.6594.027,0,.027,0,.053.0261c1.491.5475,2.433,1.9293,2.303,3.3893-.236,2.3726-1.806,6.4394-3.559,10.7414-.576,1.408-2.303,2.086-3.873,1.486Zm-7.982-18.4325c-.444-.1304-.916-.0782-1.308.1303-.314.1825-.523.4433-.602.7561l-2.538,9.7511c-.262,1.043.392,2.138,1.544,2.581l11.2,4.302h.026c1.073.391,2.25-.026,2.617-.939c1.727-4.249,3.271-8.2385,3.48-10.4807.105-.9907-.628-2.0075-1.701-2.3986-2.067-.73-5.862-1.799-8.897-2.6593-1.492-.3911-2.826-.7561-3.821-1.0429Z" fill="#ef6238"/><path d="M311.536,131.116h-.026l-11.2-4.302c-1.623-.626-2.539-2.216-2.146-3.754l2.538-9.751c.157-.574.524-1.069,1.073-1.382.602-.339,1.361-.417,2.067-.209.969.287,2.329.652,3.795,1.069c3.062.861,6.882,1.93,8.976,2.66c1.491.547,2.486,1.929,2.329,3.389-.236,2.373-1.806,6.44-3.559,10.742-.524,1.46-2.277,2.111-3.847,1.538Zm-7.955-18.459c-.445-.13-.916-.078-1.309.13-.314.183-.523.444-.602.756l-2.538,9.751c-.262,1.043.393,2.138,1.544,2.581l11.2,4.302c1.073.365,2.277,0,2.643-.938c1.727-4.25,3.271-8.239,3.481-10.481.104-.991-.629-2.008-1.701-2.373-2.068-.73-5.862-1.799-8.924-2.659-1.465-.391-2.826-.782-3.794-1.069Z" fill="#ef6238"/><path d="M330.247,84.4863h-.026L319.02,80.1844c-1.622-.6257-2.538-2.2161-2.145-3.7283l2.538-9.7509c.157-.5736.523-1.0689,1.073-1.3818.602-.3389,1.361-.4172,2.067-.2086.968.2868,2.329.6518,3.795,1.069c3.218.9125,6.882,1.9293,8.975,2.6593.027,0,.027,0,.053.0261c1.491.5475,2.433,1.9293,2.303,3.3893-.236,2.3726-1.806,6.4398-3.559,10.7417-.576,1.4079-2.303,2.0858-3.873,1.4861Zm-7.956-18.4329c-.444-.1304-.915-.0782-1.308.1304-.314.1825-.523.4432-.602.7561l-2.538,9.7509c-.262,1.0429.392,2.1379,1.544,2.5811l11.2,4.3019h.026c1.073.3911,2.251-.0261,2.617-.9386c1.727-4.2497,3.271-8.2387,3.48-10.4809.105-.9908-.628-2.0337-1.701-2.3726-2.067-.73-5.861-1.799-8.897-2.6593-1.492-.4172-2.852-.7822-3.821-1.069Z" fill="#ef6238"/><path d="M397.682,5.42279c-2.538-3.93687-5.652-5.136185-8.112-5.396905-2.224-.234648-4.318,1.147165-4.972,3.285075L381.327,13.9223l10.782,5.5794c0,0,10.572-6.3877,5.573-14.07891ZM389.361,11.654c-1.544-.6257-2.277-2.39862-1.649-3.9108.628-1.53825,2.408-2.26826,3.926-1.64254c1.543.62573,2.276,2.39863,1.648,3.91084-.628,1.5382-2.381,2.2682-3.925,1.6425Z" fill="#222"/></g></g><g opacity="0.6"><path d="M325.117,125.067c-.523-.208-1.02.078-1.073.652l-.418,4.067c-.053.574.34,1.2.863,1.408l56.446,21.04c.549.209,1.125-.078,1.334-.626l.785-2.242c.183-.547-.105-1.147-.628-1.382l-57.309-22.917Z" fill="#fff"/></g><path d="M301.356,154.398h-.026l-11.2-4.302c-1.623-.625-2.539-2.216-2.146-3.728l2.538-9.751c.157-.574.524-1.069,1.073-1.382.602-.339,1.361-.417,2.068-.208.968.286,2.329.651,3.794,1.069c3.219.912,6.882,1.929,8.976,2.659c1.518.6,2.486,1.929,2.329,3.389-.236,2.373-1.806,6.44-3.559,10.742-.55,1.434-2.277,2.086-3.847,1.512Zm-7.981-18.459c-.445-.13-.916-.078-1.309.131-.314.182-.523.443-.602.756l-2.538,9.751c-.262,1.042.393,2.137,1.544,2.581l11.2,4.302h.026c1.073.391,2.251-.026,2.617-.939c1.727-4.25,3.271-8.239,3.48-10.481.105-.991-.654-2.007-1.7-2.373-2.068-.73-5.862-1.798-8.898-2.659-1.491-.391-2.826-.782-3.82-1.069Z" fill="#fff"/><path d="M294.239,137.347c2.407.73,7.746,2.112,10.179,2.998c1.047.365,1.701,1.33,1.623,2.321-.184,1.903-1.544,5.318-2.8,8.473-.393.939-1.544,1.382-2.617.965l-8.95-3.442c-1.099-.417-1.727-1.512-1.465-2.529l2.041-7.795c.183-.834,1.099-1.278,1.989-.991Z" opacity="0.6" fill="#fff"/><g opacity="0.6"><path d="M314.938,148.35c-.524-.209-1.021.078-1.073.651l-.419,4.068c-.052.573.34,1.199.864,1.407l56.445,21.041c.55.208,1.125-.079,1.335-.626l.785-2.242c.183-.548-.105-1.148-.628-1.382L314.938,148.35Z" fill="#fff"/></g><path d="M294.161,138.99c1.02-.183,1.988.521,2.145,1.538l.733,4.771c.079.469.654.678.995.313l10.074-10.142c.498-.496,1.335.026,1.073.704-1.465,3.702-5.103,10.429-13.319,14.131c0,0-2.827-2.503-3.298-9.308-.052-.965.628-1.851,1.597-2.007Z" fill="url(#eymdXvrlhUa41-fill)"/><path d="M141.546,231.415c0,0,33.626,88.332,44.251,106.713c12.325,21.327,48.333,7.743,46.553-10.116-1.779-17.859-43.858-91.643-43.858-91.643l-46.946-4.954Z" fill="#222"/><path d="M186.974,167.043L395.929,94.8759L393.731,290.207L181.269,242.965l5.705-75.922Z" transform="translate(-.965304 1.306428)" fill="#414141"/><path d="M396.138,293.492c11.331,0,20.516-44.94,20.516-100.377s-9.185-100.377-20.516-100.377-20.516,44.94-20.516,100.377s9.185,100.377,20.516,100.377Z" fill="#222"/><path d="M397.682,286.636c-1.858-1.878-5.888-9.126-9.368-27.897-3.35-18.121-5.182-41.637-5.182-66.197s1.832-48.077,5.182-66.197c3.454-18.746,7.51-26.02,9.368-27.8972c1.858,1.8772,5.888,9.1252,9.368,27.8972c3.35,18.12,5.182,41.637,5.182,66.197s-1.832,48.076-5.182,66.197c-3.454,18.745-7.51,25.993-9.368,27.897Z" fill="#414141"/><path d="M153.269,162.846c9.84-1.148,23.918-1.539,39.174,1.929-5.024,26.124-4.265,53.369,1.544,81.579h-42.994c-6.856,0-12.692-4.953-13.765-11.706-2.146-13.531-4.763-36.24-1.963-54.491c1.414-9.151,8.767-16.242,18.004-17.311Z" fill="#222"/><path d="M179.071,182.869h-33.495c-1.125,0-2.146-.6-2.696-1.59-.549-.991-.497-2.164.131-3.103.262-.391.785-.521,1.204-.261.393.261.523.782.262,1.2-.262.417-.288.912-.053,1.355.236.444.681.704,1.178.704h33.495c.733,0,1.335-.599,1.335-1.329v-2.373c0-.73-.602-1.33-1.335-1.33h-33.757c-.471,0-.863-.391-.863-.86s.392-.86.863-.86h33.731c1.675,0,3.062,1.355,3.062,3.05v2.373c0,1.668-1.361,3.024-3.062,3.024Z" fill="url(#eymdXvrlhUa47-fill)"/><path d="M176.088,197.652h-33.495c-1.126,0-2.146-.6-2.696-1.591-.549-.99-.497-2.164.131-3.102.262-.391.785-.522,1.204-.261.392.261.523.782.261,1.199-.261.418-.287.913-.052,1.356.236.443.681.704,1.178.704h33.495c.733,0,1.335-.6,1.335-1.33v-2.372c0-.73-.602-1.33-1.335-1.33h-33.757c-.471,0-.864-.391-.864-.86s.393-.861.864-.861h33.731c1.675,0,3.062,1.356,3.062,3.051v2.372c0,1.643-1.361,3.025-3.062,3.025Z" fill="url(#eymdXvrlhUa48-fill)"/><path d="M179.071,214.964h-33.495c-1.125,0-2.146-.6-2.696-1.591-.549-.991-.497-2.164.131-3.102.262-.391.785-.522,1.204-.261.393.261.523.782.262,1.199-.262.417-.288.913-.053,1.356.236.443.681.704,1.178.704h33.495c.733,0,1.335-.6,1.335-1.33v-2.372c0-.73-.602-1.33-1.335-1.33h-33.757c-.471,0-.863-.391-.863-.86c0-.47.392-.861.863-.861h33.731c1.675,0,3.062,1.356,3.062,3.051v2.372c0,1.643-1.361,3.025-3.062,3.025Z" fill="url(#eymdXvrlhUa49-fill)"/><path d="M182.211,234.153h-33.495c-1.126,0-2.146-.6-2.696-1.591-.549-.991-.497-2.164.131-3.102.262-.391.785-.522,1.204-.261.392.261.523.782.262,1.199-.262.417-.288.913-.053,1.356.236.443.681.704,1.178.704h33.495c.733,0,1.335-.6,1.335-1.33v-2.372c0-.73-.602-1.33-1.335-1.33h-33.757c-.471,0-.863-.391-.863-.86c0-.47.392-.861.863-.861h33.731c1.675,0,3.062,1.356,3.062,3.051v2.372c0,1.669-1.387,3.025-3.062,3.025Z" fill="url(#eymdXvrlhUa50-fill)"/><path d="M496.232,242.444c0,0,.785,1.616.55,5.84-.026.391-.367.704-.759.651l-7.458-.834c-.288-.026-.471-.339-.367-.626.576-1.251,2.251-4.249,5.417-5.709l2.617.678Z" fill="#414141"/><path d="M496.887,239.628l-.811,3.493c-.079.313-.341.522-.655.522-.418,0-1.02-.026-1.57-.183-.523-.156-.837-.652-.785-1.173l.393-3.415l3.428.756Z" fill="url(#eymdXvrlhUa52-fill)"/><path d="M477.81,240.201c0,0,1.387,2.269,1.282,5.319-.026.73-.654,1.278-1.36,1.251l-11.672-.286c-.549-.026-.758-.73-.287-1.017c2.25-1.486,6.646-4.276,9.839-5.319l2.198.052Z" fill="#414141"/><path d="M478.83,236.864l-1.099,4.354c-.131.495-.628.782-1.099.678-.288-.078-.654-.209-.994-.469-.341-.235-.524-.678-.419-1.069l1.151-5.267l2.46,1.773Z" fill="url(#eymdXvrlhUa54-fill)"/><path d="M502.225,177.498c0,0,2.826,3.103,3.035,6.492.21,3.389-8.138,56.941-8.138,56.941s-3.193.157-4.684-.99c0,0,2.041-35.145,1.491-43.384c0,0-11.723,35.327-14.575,41.611c0,0-3.062.026-3.978-.652c0,0,7.301-46.669,10.755-54.725l16.094-5.293Z" fill="#222"/><path d="M494.191,195.384c-.026,0-.078,0-.104-.027-.157-.052-.21-.234-.157-.365l1.91-4.927c.026-.078.079-.131.131-.157l3.088-1.512c.131-.078.314,0,.392.131.079.13,0,.312-.131.391l-2.983,1.46-1.858,4.823c-.052.104-.183.183-.288.183Z" fill="url(#eymdXvrlhUa56-fill)"/><g id="eymdXvrlhUa57_tr" transform="translate(496.69632,181.565468) rotate(0)"><g transform="translate(-496.696305,-181.565466)"><path d="M474.826,142.927c13.32.391,16.46,3.493,16.46,3.493l-7.458,9.256c0,0-12.927-1.721-21.405-9.881c1.936-1.669,3.402-3.598,4.344-5.111c2.276,1.252,4.972,2.164,8.059,2.243Z" fill="#da5731"/><path d="M456.378,121.313c.053-.417.654-.469.785-.078l1.283,3.754c.235.73.261,1.512.052,2.242l-.838,2.008c-.287.991-.13,2.059.419,2.946c1.335,2.112,4.213,5.997,8.688,8.447-.968,1.512-2.407,3.442-4.344,5.11-3.114-2.998-5.626-6.857-6.673-11.836-.733-.313-1.177-1.095-1.047-1.877l1.675-10.716Z" fill="url(#eymdXvrlhUa59-fill)"/><path d="M469.854,148.219c5.208-4.458,14.315-5.71,19.522-6.075c2.277-.156,4.37,1.33,4.92,3.546c1.596,6.44,6.045,23.178,6.961,26.072.732,2.373,1.517,4.693,2.041,6.153.314.861-.157,1.825-1.021,2.112-4.553,1.59-12.561,3.051-15.806,3.624-.706.13-1.334-.469-1.256-1.199.079-.6-.026-1.226-.288-1.773l-9.656-21.092c-8.347,7.352-14.916,7.378-19.704,5.032c1.125-2.477,1.962-5.006,2.538-7.587c7.458-.392,11.749-8.813,11.749-8.813Z" fill="#ef6238"/><path d="M446.015,154.32l1.517-1.616c3.978,3.441,7.485,4.536,10.494,4.354-.55,2.555-1.387,5.084-2.538,7.587-6.281-3.103-9.473-10.325-9.473-10.325Z" fill="url(#eymdXvrlhUa61-fill)"/><path d="M446.957,154.477l-7.536-.548-6.464-4.615c1.073-.495,6.516,1.382,6.516,1.382s5.966-.235,7.536-.052c1.309.156.916,2.007.733,2.633-.026.131-.052.209-.052.209l-.733.991Z" fill="url(#eymdXvrlhUa62-fill)"/><path d="M483.358,132.211l2.878,10.064c0,0-4.893,2.633-8.531,1.903l-.994-8.864l6.647-3.103Z" fill="url(#eymdXvrlhUa63-fill)"/><path d="M476.815,123.164c0,0-3.454,5.501-4.082,8.552-.628,3.05-1.596,4.953,1.884,6.127c3.48,1.147,6.778-.183,8.871-2.999c0,0,3.271-4.354,2.983-6.387-.287-2.008-9.656-5.293-9.656-5.293Z" fill="url(#eymdXvrlhUa64-fill)"/><path d="M482.599,132.446l-.183-.131c-.236-.156-.314-.469-.131-.704.654-.886,1.962-2.972.785-3.702-1.544-.912-7.851-3.207-8.897-5.71-1.021-2.398.602-5.084,2.512-5.631.131-.026.262.026.314.156l.105.313c.078.209.366.209.444.026.079-.182.367-.182.445,0c.34.756,1.335,2.034,4.344,3.077c4.292,1.46,6.961,3.676,6.568,6.752-.026.183.157.339.341.261.366-.156.889-.156,1.491.521c1.073,1.2.157,3.755-2.826,5.528-.131.078-.183.287-.052.391.445.391,1.046,1.225-.969,1.955-2.093.73-3.506.443-4.056.261-.13-.052-.209-.183-.157-.313l.995-2.581c.052-.156-.026-.313-.183-.339l-.89-.13Z" fill="#222"/><path d="M482.389,132.993c0,0,1.544-3.624,3.088-2.294c1.544,1.303-1.518,4.067-2.879,4.015l-.209-1.721Z" fill="url(#eymdXvrlhUa66-fill)"/><path d="M439.996,150.592c13.426,0,24.31-10.844,24.31-24.221s-10.884-24.221-24.31-24.221-24.31,10.844-24.31,24.221s10.884,24.221,24.31,24.221Z" fill="#ef6238"/><path d="M430.968,140.215c-.261,0-.497-.182-.549-.443l-2.983-13.74c-.027-.157,0-.313.078-.443.079-.131.209-.209.366-.261.027,0,1.387-.313,2.486-1.173.419-.339.733-1.46,1.047-2.634.419-1.564.942-3.493,2.094-5.084c1.988-2.763,1.23-6.518,1.151-6.935-.157-.678.262-1.955,1.256-2.451.681-.338,1.806-.417,3.219,1.2c1.962,2.216,1.544,5.449,1.23,7.795-.105.756-.183,1.408-.157,1.851c0,.209.078.235.104.261.524.365,2.46-.13,4.03-.521.655-.157,1.309-.339,1.963-.47c3.219-.704,4.841-.026,5.443,2.217.366,1.355-.262,2.372-.785,2.998c1.204.756,1.884,1.642,1.989,2.633.131.965-.314,1.799-.707,2.321c1.047.677,1.57,1.72,1.466,2.946-.079.912-.55,1.746-1.178,2.294.628.417.785.965.811,1.33.105,1.408-1.517,2.998-3.846,3.78-3.35,1.121-17.769,2.503-18.397,2.555-.105-.026-.131-.026-.131-.026Zm-2.329-13.896l2.774,12.723c2.643-.261,14.733-1.486,17.638-2.451c2.067-.704,3.114-1.955,3.088-2.607-.027-.469-.733-.678-1.152-.756-.262-.052-.471-.287-.471-.574s.183-.521.471-.573c.759-.131,1.439-1.017,1.518-1.93.052-.547-.052-1.564-1.439-2.138-.184-.078-.314-.234-.341-.443-.026-.208.027-.391.184-.521c0,0,.994-.887.863-1.93-.104-.782-.785-1.486-2.067-2.138-.183-.078-.288-.26-.314-.469-.026-.208.078-.391.235-.495.053-.026,1.335-.965.969-2.347-.288-1.121-.838-2.085-4.083-1.381-.628.13-1.282.312-1.91.469-2.172.547-4.056,1.043-4.998.339-.236-.183-.55-.522-.576-1.121-.026-.548.079-1.252.183-2.06.288-2.138.681-5.058-.942-6.883-.418-.469-1.23-1.251-1.858-.939-.497.235-.68.991-.654,1.2.105.469.942,4.667-1.334,7.847-1.021,1.408-1.492,3.155-1.911,4.719-.392,1.487-.706,2.634-1.413,3.207-.89.678-1.858,1.069-2.46,1.252Z" fill="#fbfbfb"/></g></g><g id="eymdXvrlhUa69_to" transform="translate(179.137375,97.190686)"><g transform="translate(-179.137375,-97.190685)"><path d="M89.052,86.585c.2879-8.8124,7.3795-15.93,16.224-16.295l147.119-5.9705c11.043-.4432,19.522,9.5684,17.245,20.3362l-4.082,19.2153c-1.649,7.795-8.557,13.375-16.565,13.375h-126.262c-5.757,0-11.253,2.685-14.55,7.404-1.02,1.434-1.806,3.051-2.25,4.823-.184.678-1.099.835-1.44.209-1.125-1.929-2.904-5.162-4.317-8.76-.864-2.19-2.9574-3.676-5.3388-3.676-3.7159,0-6.6991-3.077-6.5682-6.779l.785-23.882Z" fill="#ef6238"/><path d="M104.989,122.773c-.471-1.017-.942-2.086-1.387-3.181-1.413-3.65-4.8677-6.022-8.7668-6.022-.785,0-1.5177-.313-2.0673-.887-.5495-.573-.8374-1.303-.8112-2.112l.8112-23.8817c.2356-6.8569,5.8094-12.4624,12.6921-12.7231l147.118-5.9705c.184,0,.367,0,.55,0c4.004,0,7.746,1.7729,10.258,4.8754c2.512,3.1026,3.48,7.1177,2.669,11.0285l-4.082,19.2154c-1.282,6.048-6.725,10.455-12.954,10.455h-126.288c-7.066,0-13.634,3.363-17.559,8.968-.079.079-.131.157-.183.235Z" fill="#fbfbfb"/><path d="M110.066,81.4488l137.671-5.788c1.1-.0522,2.042.4954,2.042,1.1732v2.9462c0,.6518-.812,1.1732-1.858,1.1993L110.249,83.8474c-1.073.0261-1.989-.5214-1.989-1.1993.026-.6518.785-1.1733,1.806-1.1993Z" fill="#ef6238"/><path d="M108.286,90.1569v1.0689c0,1.3558,2.015,2.4508,4.449,2.3987l117.601-2.7637c2.276-.0521,4.082-1.1211,4.082-2.3986c0-1.3557-1.989-2.4247-4.37-2.3986L112.447,87.7583c-2.329.026-4.161,1.095-4.161,2.3986Z" fill="#ef6238"/><path d="M108.286,102.619c0,1.304,2.486,2.347,5.443,2.268l91.38-2.502c3.507-.105,5.757-1.669,4.449-3.1291l-.523-.5736c-.812-.8865-2.827-1.46-4.999-1.4079l-88.318,1.9033c-4.161.0782-7.432,1.5903-7.432,3.4413Z" fill="#ef6238"/></g></g><path d="M145.602,52.8218l-1.858,1.3557c-.262.1825-.602.1304-.811-.1303-.184-.2607-.131-.5997.131-.8083l1.857-1.3557c.262-.1825.602-.1304.812.1304.183.2867.131.6257-.131.8082Z" fill="#ef6238"/><path d="M140.552,56.5762L138.72,57.958c-.261.1825-.602.1304-.811-.1043-.183-.2607-.131-.5996.105-.8082l1.831-1.3818c.262-.1825.602-.1304.812.1043.183.2607.13.6257-.105.8082Z" fill="#ef6238"/><path d="M135.501,60.3566l-1.832,1.3818c-.261.1825-.602.1304-.785-.1043-.183-.2607-.131-.5996.105-.7821l1.832-1.3818c.261-.1825.602-.1304.785.1042.183.2347.131.5997-.105.7822Z" fill="#ef6238"/><path d="M130.503,64.1631l-1.806,1.4078c-.235.1825-.602.1565-.785-.1042-.183-.2347-.157-.5997.105-.7822l1.805-1.4079c.236-.1825.602-.1564.785.1043.184.2346.131.5997-.104.7822Z" fill="#ef6238"/><path d="M125.531,68.0478l-1.806,1.434c-.235.1825-.601.1564-.785-.0782-.183-.2347-.157-.5997.079-.7822l1.805-1.4339c.236-.1825.602-.1565.786.0782.209.2346.157.5996-.079.7821Z" fill="#ef6238"/><path d="M120.612,71.9847l-1.78,1.46c-.235.2086-.602.1565-.785-.0782-.209-.2346-.157-.5996.079-.7822l1.779-1.46c.236-.2086.602-.1564.785.0782.21.2347.157.5997-.078.7822Z" fill="#ef6238"/><path d="M115.77,75.9998l-1.753,1.4861c-.236.2086-.576.1825-.785-.0522-.209-.2346-.183-.5735.052-.7821l1.754-1.4861c.235-.2086.575-.1825.785.0521.209.2347.183.5736-.053.7822Z" fill="#ef6238"/><path d="M110.981,80.0931l-1.727,1.5122c-.235.2086-.575.1825-.785-.0522-.209-.2346-.183-.5736.053-.7821l1.727-1.5122c.235-.2086.575-.1825.785.0521.183.2347.157.5736-.053.7822Z" fill="#ef6238"/><path d="M106.271,84.2646l-1.701,1.5383c-.235.2085-.576.1825-.785-.0261-.209-.2347-.183-.5736.026-.7822l1.701-1.5382c.236-.2086.576-.1825.785.0261.21.2346.183.5735-.026.7821Z" fill="#ef6238"/><path d="M101.639,88.5405l-1.6483,1.5643c-.2094.2086-.5757.2086-.7851-.0261-.2093-.2085-.2093-.5736.0262-.7821l1.6752-1.5904c.209-.2086.575-.2086.785.026.183.2347.157.5997-.053.8083Z" fill="#ef6238"/><path d="M97.1122,92.8945l-1.6225,1.6164c-.2093.2086-.5495.2086-.785,0-.2094-.2085-.2094-.5475,0-.7821l1.6224-1.6165c.2094-.2086.5496-.2086.7851,0c.2093.2347.2093.5736,0,.7822Z" fill="#ef6238"/><path d="M92.6901,97.3789L91.12,99.0475c-.2093.2085-.5495.2346-.7589.026-.2093-.2085-.2355-.5475-.0261-.7561l1.5701-1.6686c.2093-.2085.5495-.2346.7589-.026.2355.1825.2355.5214.0261.7561Z" fill="#ef6238"/><path d="M88.3981,101.968l-1.5178,1.694c-.2093.235-.5495.235-.7589.052-.2355-.208-.2355-.547-.0523-.756l1.5439-1.721c.2094-.234.5496-.234.7589-.052.2093.209.2355.548.0262.783Z" fill="#ef6238"/><path d="M84.2373,106.687l-1.4654,1.746c-.1832.235-.5234.261-.7589.079-.2355-.183-.2617-.522-.0785-.756l1.4654-1.747c.1832-.235.5234-.261.7589-.079.2617.183.2878.522.0785.757Z" fill="#ef6238"/><path d="M80.2597,111.536l-1.4131,1.799c-.1831.235-.5233.287-.7589.104-.2355-.182-.2878-.521-.1046-.756l1.4131-1.799c.1831-.235.5233-.287.7589-.104.2355.182.2878.521.1046.756Z" fill="#ef6238"/><path d="M76.4391,116.542l-1.3346,1.851c-.1831.235-.4972.287-.7588.13-.2356-.182-.2879-.495-.1309-.73l1.3346-1.877c.1832-.235.4972-.287.7589-.13.2617.156.314.495.1308.756Z" fill="#ef6238"/><path d="M72.8279,121.678l-1.2561,1.903c-.157.235-.4972.313-.7327.157-.2355-.157-.314-.496-.157-.73l1.2561-1.93c.157-.234.4972-.313.7327-.156.2617.156.3402.495.157.756Z" fill="#ef6238"/><path d="M69.4522,126.945L68.2746,128.9c-.157.261-.471.339-.7327.182-.2617-.156-.3402-.469-.1832-.73l1.1776-1.981c.157-.261.471-.339.7327-.183.2617.183.3402.496.1832.757Z" fill="#ef6238"/><path d="M66.3381,132.394l-1.0729,2.007c-.1308.261-.4448.365-.7065.209-.2617-.131-.3664-.444-.2094-.704l1.073-2.034c.1308-.261.4448-.365.7065-.208.2355.156.3402.469.2093.73Z" fill="#ef6238"/><path d="M63.5119,137.973l-.942,2.06c-.1309.26-.4187.365-.7066.26-.2617-.13-.3663-.417-.2617-.704l.9683-2.085c.1308-.261.4448-.391.7065-.261.2355.156.3402.469.2355.73Z" fill="#ef6238"/><path d="M61.0002,143.735l-.8113,2.112c-.1046.26-.4187.391-.6803.286-.2617-.104-.3926-.417-.2879-.677l.8374-2.138c.1047-.261.4187-.391.6804-.287.2355.104.3663.417.2617.704Z" fill="#ef6238"/><path d="M58.8542,149.601l-.6803,2.164c-.0785.261-.3664.417-.6543.339-.2616-.078-.4186-.365-.3401-.652l.6803-2.19c.0785-.261.3664-.417.6542-.339.2617.105.4187.391.3402.678Z" fill="#ef6238"/><path d="M57.1007,155.598l-.5234,2.216c-.0785.287-.3402.443-.628.391-.2879-.078-.4449-.339-.3926-.626l.5496-2.242c.0785-.287.3402-.443.628-.391.2617.078.4187.365.3664.652Z" fill="#ef6238"/><path d="M55.7661,161.725l-.3664,2.242v.026c-.0523.287-.314.469-.6019.417s-.471-.313-.4186-.6l.3663-2.268c.0523-.287.314-.469.6019-.417.2617.026.4448.287.4187.6Z" fill="#ef6238"/><path d="M54.8767,167.904l-.2094,2.268v.026c-.0262.287-.2617.495-.5495.469-.2879-.026-.4972-.26-.4711-.547l.2094-2.295c.0262-.286.2878-.495.5495-.469.2879,0,.4972.261.4711.548Z" fill="#ef6238"/><path d="M54.4315,174.135l-.0262,2.268v.026c0,.287-.2355.496-.5233.496s-.4972-.235-.4972-.522l.0261-2.294c0-.287.2356-.496.5234-.496.2879,0,.5234.235.4972.522Z" fill="#ef6238"/><path d="M54.4838,180.392l.1309,2.268v.026c.0261.287-.2094.522-.4711.522-.2878.026-.5233-.183-.5233-.469l-.1309-2.295c-.0261-.286.2094-.521.4711-.521.2616-.026.5233.182.5233.469Z" fill="#ef6238"/><path d="M55.0072,186.623l.3141,2.243c.0261.286-.1571.521-.4449.573-.2879.026-.5234-.156-.5757-.443l-.314-2.268c-.0262-.287.157-.522.4448-.574.2879,0,.5234.183.5757.469Z" fill="#ef6238"/><path d="M55.975,192.802l.4711,2.217c.0523.26-.1309.521-.3926.599-.2617.052-.5233-.13-.6018-.391l-.4711-2.242c-.0523-.261.1309-.548.3926-.6.2878-.052.5495.131.6018.417Z" fill="#ef6238"/><path d="M57.3881,198.903l.6281,2.19c.0785.261-.0785.548-.3402.626s-.5496-.078-.6019-.339l-.628-2.216c-.0785-.261.0785-.547.3401-.626.2356-.078.5234.079.6019.365Z" fill="#ef6238"/><path d="M59.2206,204.874l.785,2.138c.1047.26-.0261.547-.2878.625-.2617.105-.5496-.026-.6281-.286l-.785-2.164c-.1047-.261.0262-.548.2878-.626s.5496.052.6281.313Z" fill="#ef6238"/><path d="M61.5231,210.714l.9421,2.086c.1047.234,0,.547-.2355.651-.2355.105-.5496,0-.6542-.234l-.9421-2.086c-.1047-.261,0-.547.2355-.652.2355-.156.5234-.026.6542.235Z" fill="#ef6238"/><path d="M64.2182,216.345l1.0729,2.008c.1309.235.0262.521-.2093.652-.2356.13-.5234.026-.6542-.209l-1.0991-2.033c-.1309-.235-.0262-.548.2093-.652.2355-.105.5496,0,.6804.234Z" fill="#ef6238"/><path d="M67.3067,221.795l1.2037,1.929c.1309.235.0786.521-.157.678-.2355.13-.5233.078-.6803-.157l-1.23-1.955c-.1308-.235-.0785-.521.1571-.678.2616-.13.5495-.052.7065.183Z" fill="#ef6238"/><path d="M70.7347,227.035l1.3346,1.851c.157.209.1047.522-.1046.678s-.5234.104-.6804-.104l-1.3346-1.878c-.157-.208-.1047-.521.1047-.677.2355-.157.5233-.105.6803.13Z" fill="#ef6238"/><path d="M74.5022,232.041l1.4393,1.773c.157.208.1308.521-.0785.678-.2094.156-.5234.13-.6804-.079l-1.4655-1.773c-.157-.208-.1308-.521.0785-.677.2356-.157.5496-.131.7066.078Z" fill="#ef6238"/><path d="M78.5591,236.838l1.5439,1.695c.1832.182.157.495-.0261.678-.1832.182-.4973.156-.6804-.026l-1.544-1.695c-.1831-.183-.157-.496.0262-.678.2094-.209.4972-.183.6804.026Z" fill="#ef6238"/><path d="M82.8762,241.375l1.6224,1.59c.1832.183.1832.495,0,.678-.1832.182-.4972.182-.6804,0l-1.6486-1.617c-.1832-.182-.1832-.495,0-.677.2094-.157.5234-.157.7066.026Z" fill="#ef6238"/><path d="M87.4299,245.703l1.7009,1.512c.1832.182.2094.469.0262.678-.1832.182-.471.208-.6804.026l-1.7271-1.539c-.2094-.182-.2094-.469-.0262-.677.2094-.157.4972-.183.7066,0Z" fill="#ef6238"/><path d="M92.1925,249.822l1.7795,1.434c.2093.156.2355.469.0785.652-.1571.208-.4711.234-.6542.078l-1.8057-1.434c-.2093-.156-.2355-.469-.0785-.652.157-.234.4711-.261.6804-.078Z" fill="#ef6238"/><path d="M97.1379,253.707l1.8318,1.355c.2093.157.2617.444.1046.652-.157.209-.4448.261-.6542.105l-1.8579-1.356c-.2094-.157-.2617-.443-.1047-.652.157-.235.4449-.261.6804-.104Z" fill="#ef6238"/><path d="M102.241,257.383l1.884,1.277c.21.157.262.444.131.652-.157.209-.445.261-.654.13l-1.91-1.277c-.21-.156-.262-.443-.131-.652.157-.234.445-.287.68-.13Z" fill="#ef6238"/><path d="M107.475,260.824l1.936,1.2c.21.13.288.417.157.625-.131.209-.418.287-.628.157l-1.962-1.226c-.21-.13-.288-.417-.157-.651.157-.157.444-.235.654-.105Z" fill="#ef6238"/><path d="M112.866,264.083l1.988,1.147c.21.131.288.418.184.626-.131.209-.419.287-.629.183l-1.988-1.147c-.21-.131-.288-.418-.183-.626.104-.235.392-.313.628-.183Z" fill="#ef6238"/><path d="M118.361,267.16l2.015,1.069c.235.13.314.391.183.626-.131.234-.392.312-.628.182l-2.041-1.069c-.236-.13-.314-.391-.183-.626.157-.208.418-.313.654-.182Z" fill="#ef6238"/><path d="M123.961,270.028l2.067.99c.236.105.314.392.21.6-.105.235-.393.313-.602.209l-2.068-.991c-.235-.104-.314-.391-.209-.6.105-.234.366-.313.602-.208Z" fill="#ef6238"/><path d="M129.666,272.713l2.093.939c.236.104.341.365.236.6-.105.234-.366.338-.602.234l-2.093-.938c-.236-.105-.341-.365-.236-.6.079-.235.366-.339.602-.235Z" fill="#ef6238"/><path d="M135.449,275.216l2.119.86c.236.105.341.365.236.6s-.366.339-.602.235l-2.12-.861c-.235-.104-.34-.365-.235-.599.078-.209.34-.339.602-.235Z" fill="#ef6238"/><path d="M141.284,277.537l2.146.808c.235.078.34.339.262.573-.079.235-.341.339-.576.261l-2.146-.808c-.235-.078-.34-.339-.262-.574.079-.234.341-.365.576-.26Z" fill="#ef6238"/><path d="M147.225,279.674l2.172.73c.235.079.366.339.287.574-.078.235-.34.365-.575.287l-2.172-.73c-.236-.078-.367-.339-.288-.574.078-.261.34-.365.576-.287Z" fill="#ef6238"/><path d="M153.217,281.604l2.198.652c.236.078.366.312.288.547-.079.235-.314.365-.55.287l-2.198-.678c-.235-.078-.366-.313-.288-.547.079-.235.314-.313.55-.261Z" fill="#ef6238"/><path d="M159.262,283.377l2.224.599c.236.052.367.313.314.548-.052.234-.314.365-.549.313l-2.224-.6c-.236-.052-.367-.313-.314-.548.052-.234.314-.364.549-.312Z" fill="#ef6238"/><path d="M165.359,284.967l2.225.521c.235.053.392.287.314.522-.053.235-.288.391-.524.313l-2.25-.522c-.236-.052-.393-.287-.34-.521.104-.235.34-.365.575-.313Z" fill="#ef6238"/><path d="M171.509,286.349l2.25.443c.236.052.393.287.341.521-.053.235-.288.392-.524.339l-2.25-.443c-.236-.052-.393-.287-.34-.521.052-.235.287-.391.523-.339Z" fill="#ef6238"/><path d="M177.684,287.522l2.251.365c.235.052.392.261.366.495-.052.235-.261.392-.497.365l-2.277-.365c-.235-.052-.392-.26-.366-.495.052-.235.288-.391.523-.365Z" fill="#ef6238"/><path d="M183.913,288.513l2.277.313c.235.026.392.26.366.495s-.262.391-.497.365l-2.277-.313c-.235-.026-.392-.26-.366-.495.052-.235.262-.417.497-.365Z" fill="#ef6238"/><path d="M196.447,289.999l2.277.209c.235.026.418.234.392.469s-.235.417-.471.391l-2.303-.209c-.235-.026-.418-.234-.392-.469.052-.235.235-.391.497-.391Z" fill="#ef6238"/><path d="M202.727,290.52l2.277.157c.236.026.419.208.393.443-.027.235-.21.417-.445.391l-2.303-.156c-.236-.027-.419-.209-.393-.444.027-.208.236-.391.471-.391Z" fill="#ef6238"/><path d="M209.008,290.911l2.303.105c.235,0,.418.208.392.443c0,.235-.209.417-.445.391l-2.302-.104c-.236,0-.419-.209-.393-.444.026-.234.209-.417.445-.391Z" fill="#ef6238"/><path d="M215.315,291.094l2.303.026c.236,0,.419.183.419.417c0,.235-.183.417-.419.417l-2.303-.026c-.235,0-.419-.182-.419-.417s.184-.417.419-.417Z" fill="#ef6238"/><path d="M221.622,291.146l2.303-.026c.235,0,.418.183.418.417c0,.235-.183.417-.418.417l-2.303.027c-.236,0-.419-.183-.419-.418c0-.234.183-.417.419-.417Z" fill="#ef6238"/><path d="M227.928,291.016l2.303-.105c.236,0,.419.157.419.391c0,.235-.157.418-.393.418l-2.303.104c-.235,0-.418-.157-.418-.391-.026-.235.157-.417.392-.417Z" fill="#ef6238"/><path d="M234.209,290.703l2.276-.157c.236-.026.419.157.445.392.026.234-.157.417-.392.443l-2.303.156c-.236.026-.419-.156-.445-.391.026-.235.183-.443.419-.443Z" fill="#ef6238"/><path d="M240.489,290.207l2.276-.234c.236-.026.419.13.445.365.026.234-.131.417-.366.443l-2.277.235c-.235.026-.418-.131-.445-.365-.026-.235.157-.417.367-.444Z" fill="#ef6238"/><path d="M246.769,289.53l2.277-.287c.209-.026.419.13.445.339.026.208-.131.417-.34.443l-2.277.287c-.236.026-.419-.131-.445-.339-.052-.209.105-.417.34-.443Z" fill="#ef6238"/><path d="M252.997,288.669l2.251-.365c.209-.026.419.105.471.339.026.209-.105.417-.34.469l-2.277.365c-.209.027-.419-.104-.471-.338c0-.209.157-.418.366-.47Z" fill="#ef6238"/><path d="M259.226,287.626l2.25-.417c.21-.052.419.104.471.313.053.209-.104.417-.314.469l-2.25.417c-.209.053-.419-.104-.471-.312-.052-.209.078-.418.314-.47Z" fill="#ef6238"/><path d="M265.401,286.401l2.224-.495c.209-.052.419.078.471.313.052.208-.079.417-.314.469l-2.251.495c-.209.052-.418-.078-.471-.313-.026-.208.131-.417.341-.469Z" fill="#ef6238"/><path d="M102.293,340.735c0,0-1.152,1.616-1.649,6.309-.052.444.288.835.733.861l8.348.417c.34.026.601-.287.497-.626-.419-1.46-1.727-5.058-4.92-7.248l-3.009.287Z" fill="#222"/><path d="M101.168,338.18l.916,3.885c.078.339.366.573.733.573.471,0,1.125-.026,1.753-.208.576-.157.942-.73.863-1.304l-.418-3.78-3.847.834Z" fill="url(#eymdXvrlhUa144-fill)"/><path d="M121.37,341.022c0,0-1.675,2.424-1.779,5.814-.026.808.628,1.46,1.439,1.486l12.98.443c.601.026.889-.756.392-1.121-2.407-1.799-7.118-5.188-10.572-6.57l-2.46-.052Z" fill="#222"/><path d="M121.056,336.876l.34,4.98c.026.548.524.991,1.073.939.34-.026.759-.105,1.204-.313.419-.183.68-.626.68-1.095l-.235-5.997-3.062,1.486Z" fill="url(#eymdXvrlhUa146-fill)"/><path d="M95.2016,271.279c0,0-3.1402,3.468-3.3757,7.222s9.0541,63.381,9.0541,63.381s3.559.183,5.234-1.095c0,0-2.277-39.108-1.675-48.285c0,0,13.058,39.316,16.224,46.33c0,0,3.402.026,4.423-.73c0,0-8.138-51.936-11.985-60.904l-17.8994-5.919Z" fill="#222"/><path d="M104.152,291.303c-.184,0-.341-.105-.393-.287l-2.067-5.345-3.2712-1.617c-.2094-.104-.3141-.365-.1832-.573.1047-.209.3663-.313.5757-.183l3.4277,1.695c.105.052.184.13.21.235l2.119,5.501c.079.208-.026.469-.235.547-.079,0-.131.027-.183.027Z" fill="#414141"/><path d="M125.688,232.797c-14.811.443-18.318,3.885-18.318,3.885l8.322,10.298c0,0,14.392-1.903,23.839-11.002-2.172-1.852-3.768-3.989-4.841-5.684-2.538,1.408-5.548,2.399-9.002,2.503Z" fill="#da5731"/><path d="M146.256,208.758c-.078-.469-.733-.521-.863-.078l-1.414,4.198c-.287.808-.287,1.695-.052,2.503l.916,2.242c.314,1.121.157,2.294-.471,3.285-1.465,2.347-4.71,6.674-9.682,9.412c1.073,1.695,2.669,3.833,4.841,5.684c3.454-3.337,6.254-7.639,7.432-13.193.811-.365,1.308-1.225,1.177-2.112l-1.884-11.941Z" fill="url(#eymdXvrlhUa150-fill)"/><path d="M131.262,238.689c-5.784-4.98-15.911-6.361-21.746-6.753-2.539-.182-4.841,1.487-5.469,3.963-1.78,7.17-6.7519,25.812-7.7463,29.045-.8113,2.633-1.701,5.24-2.2767,6.857-.3402.964.1832,2.033,1.1514,2.372c5.0506,1.773,13.9736,3.39,17.5856,4.015.785.131,1.491-.521,1.413-1.329-.079-.678.026-1.356.314-1.982l10.755-23.491c9.29,8.187,16.617,8.213,21.955,5.606-1.256-2.764-2.198-5.58-2.826-8.448-8.348-.469-13.11-9.855-13.11-9.855Z" fill="#ef6238"/><path d="M157.77,245.494l-1.701-1.799c-4.422,3.806-8.347,5.058-11.697,4.849.628,2.842,1.57,5.658,2.826,8.448c7.013-3.468,10.572-11.498,10.572-11.498Z" fill="url(#eymdXvrlhUa152-fill)"/><path d="M156.724,245.65l8.373-.625l7.197-5.137c-1.178-.573-7.249,1.539-7.249,1.539s-6.621-.261-8.4-.052c-1.465.156-1.021,2.242-.837,2.946.052.13.078.234.078.234l.838,1.095Z" fill="url(#eymdXvrlhUa153-fill)"/><path d="M116.215,220.856l-3.192,11.185c0,0,5.443,2.92,9.473,2.138l1.099-9.882-7.38-3.441Z" fill="url(#eymdXvrlhUa154-fill)"/><path d="M122.809,212.747c.105.131,4.449,10.873,4.449,10.873l-6.228,2.346-5.626-9.594c.026,0,5.443-5.841,7.405-3.625Z" fill="url(#eymdXvrlhUa155-fill)"/><path d="M118.02,217.649l2.564,5.267c.027.078.079.13.131.182.314.339,1.44,1.46,2.513.209.968-1.121,1.857-2.138,2.773-2.399.419-.13.838.078.995.469.392.965,1.23,3.207,1.675,5.241.078.417-.157.834-.576.938-1.23.365-3.821,1.095-6.045,1.2-.314,0-.576-.131-.733-.391-.759-1.252-3.088-5.084-3.899-6.049-.759-.913-2.355-.704-3.009-.574-.21.052-.445,0-.628-.13-.654-.443-1.911-1.617-.524-3.363.288-.365.236-.887-.157-1.174-.732-.547-1.596-1.59-.628-3.102.995-1.538,2.512-1.486,3.481-1.252.392.105.785-.104.942-.469.104-.208.288-.365.628-.391.471,0,.837-.443.759-.912-.131-.913.078-2.086,1.596-2.738c2.695-1.173,4.736,1.304,5.155,3.311.393,1.982-2.591,3.103-4.422,3.181-1.387.052-2.251,1.538-2.591,2.242-.131.209-.131.469,0,.704Z" fill="#222"/><path d="M118.36,224.271c0,0-.838-3.441-2.329-3.441-1.466,0-2.748,1.356-1.099,3.128c2.093,2.217,3.428.313,3.428.313Z" fill="url(#eymdXvrlhUa157-fill)"/><g id="eymdXvrlhUa158_tr" transform="translate(176.145035,218.210297) rotate(0)"><path d="M212.776,222.551l-18.213,8.942c-1.413.704-2.407,2.034-2.617,3.598l-2.931,19.997c-.575,3.911-5.417,5.476-8.19,2.634l-14.131-14.496c-1.099-1.121-2.696-1.643-4.24-1.382l-19.992,3.389c-3.926.678-6.909-3.441-5.051-6.935l9.447-17.885c.733-1.382.733-3.051,0-4.459l-9.421-17.911c-1.858-3.494,1.152-7.587,5.051-6.935l19.993,3.441c1.544.261,3.14-.234,4.239-1.382l14.183-14.47c2.774-2.841,7.615-1.277,8.165,2.66l2.904,19.997c.236,1.564,1.204,2.894,2.617,3.598l18.187,8.969c3.559,1.825,3.559,6.883,0,8.63Z" transform="translate(-176.145035,-218.210297)" fill="#ef6238"/></g><path d="M196.295,322.063l-.001-.003-2.223-29.662c0-.001-.001-.002-.001-.004-.128-1.867.497-3.667,1.743-4.992c1.269-1.349,3.049-2.134,4.873-2.134h124.353c3.572,0,6.326,2.903,6.35,6.612v25.286c0,3.575-2.712,6.457-6.247,6.583h-.001l-121.996,4.406c0,0,0,0-.001,0-3.573.128-6.594-2.579-6.849-6.092Z" fill="#fbfbfb" stroke="#ef6238" stroke-width="3"/><path d="M223.139,318.652l-3.925-1.695c-.314-.13-.655-.104-.942.079l-3.612,2.268c-.706.443-1.622-.104-1.544-.939l.393-4.223c.026-.339-.105-.652-.366-.861l-3.271-2.737c-.629-.522-.393-1.565.418-1.747l4.161-.939c.314-.078.602-.287.707-.599l1.596-3.937c.314-.782,1.387-.861,1.805-.131l2.172,3.65c.157.287.471.47.812.496l4.265.287c.837.052,1.23,1.042.68,1.668l-2.826,3.181c-.209.261-.314.6-.209.912l1.047,4.12c.209.782-.602,1.46-1.361,1.147Z" fill="#ef6238"/><path d="M214.242,312.994c-.105-.182-.262-.365-.419-.495l-2.145-1.773c-.236-.182-.314-.469-.262-.756.078-.287.288-.495.576-.574l2.721-.599c.628-.131,1.152-.6,1.413-1.2l1.047-2.581c.105-.26.366-.443.654-.469s.576.13.707.365l.732,1.225-.183.105-.732-1.226c-.105-.182-.288-.286-.524-.26-.209.026-.392.13-.471.339l-1.047,2.581c-.261.678-.863,1.173-1.57,1.329l-2.721.6c-.21.052-.367.209-.419.391-.052.209.026.417.183.548l2.146,1.772c.183.157.34.339.471.548l-.157.13Z" fill="#ef6238"/><path d="M215.001,317.792c-.131,0-.288-.026-.393-.105-.262-.156-.393-.417-.366-.73l.209-2.112.209.027-.209,2.111c-.026.209.078.391.262.522.183.104.392.104.575,0l2.356-1.486c.601-.391,1.386-.443,2.041-.157l2.564,1.095c.183.079.419.052.576-.078s.235-.339.183-.547l-.68-2.686c-.184-.704,0-1.434.471-1.981l1.831-2.086c.131-.156.184-.365.105-.574-.078-.208-.262-.312-.471-.339l-2.774-.182c-.288-.026-.575-.104-.811-.209l.105-.182c.235.104.471.182.732.208l2.774.183c.288.026.55.209.654.469.105.261.053.574-.13.782l-1.832,2.086c-.419.496-.602,1.147-.445,1.799l.68,2.686c.079.286-.026.573-.235.756-.236.182-.524.234-.785.13l-2.565-1.095c-.602-.261-1.282-.209-1.831.13l-2.356,1.486c-.157.053-.314.079-.444.079Z" fill="#ef6238"/><path d="M245.801,318.652l-3.925-1.695c-.314-.13-.654-.104-.942.079l-3.612,2.268c-.706.443-1.622-.104-1.543-.939l.392-4.223c.026-.339-.105-.652-.366-.861l-3.271-2.737c-.628-.522-.393-1.565.418-1.747l4.161-.939c.314-.078.602-.287.707-.599l1.596-3.937c.314-.782,1.387-.861,1.806-.131l2.172,3.65c.157.287.471.47.811.496l4.265.287c.838.052,1.23,1.042.681,1.668l-2.827,3.181c-.209.261-.314.6-.209.912l1.047,4.12c.235.782-.602,1.46-1.361,1.147Z" fill="#ef6238"/><path d="M236.904,312.994c-.104-.182-.261-.365-.419-.495l-2.145-1.773c-.236-.182-.314-.469-.262-.756.079-.287.288-.495.576-.574l2.721-.599c.628-.131,1.152-.6,1.413-1.2l1.047-2.581c.105-.26.366-.443.654-.469s.576.13.707.365l.733,1.225-.184.105-.732-1.226c-.105-.182-.314-.286-.524-.26-.209.026-.392.13-.471.339l-1.047,2.581c-.261.678-.863,1.173-1.57,1.329l-2.721.6c-.209.052-.366.209-.419.391-.052.209.026.417.183.548l2.146,1.772c.183.157.34.339.471.548l-.157.13Z" fill="#ef6238"/><path d="M237.663,317.792c-.131,0-.288-.026-.393-.105-.262-.156-.392-.417-.366-.73l.209-2.112.209.027-.209,2.111c-.026.209.079.391.262.522.183.104.392.104.575,0l2.356-1.486c.602-.391,1.387-.443,2.041-.157l2.564,1.095c.183.079.419.052.576-.078s.235-.339.183-.547l-.68-2.686c-.183-.704,0-1.434.471-1.981l1.832-2.086c.13-.156.183-.365.104-.574-.078-.208-.261-.312-.471-.339l-2.774-.182c-.287-.026-.575-.104-.811-.209l.105-.182c.235.104.471.182.733.208l2.773.183c.288.026.55.209.655.469.104.261.052.574-.131.782l-1.832,2.086c-.419.496-.602,1.147-.445,1.799l.68,2.686c.079.286-.026.573-.235.756-.236.182-.523.234-.785.13l-2.565-1.095c-.601-.261-1.282-.209-1.831.13l-2.356,1.486c-.157.053-.287.079-.444.079Z" fill="#ef6238"/><path d="M268.698,318.652l-3.925-1.695c-.314-.13-.654-.104-.942.079l-3.611,2.268c-.707.443-1.623-.104-1.544-.939l.392-4.223c.027-.339-.104-.652-.366-.861l-3.271-2.737c-.628-.522-.392-1.565.419-1.747l4.161-.939c.314-.078.601-.287.706-.599l1.596-3.937c.314-.782,1.387-.861,1.806-.131l2.172,3.65c.157.287.471.47.811.496l4.266.287c.837.052,1.23,1.042.68,1.668l-2.826,3.181c-.209.261-.314.6-.21.912l1.047,4.12c.21.782-.602,1.46-1.361,1.147Z" fill="#ef6238"/><path d="M259.802,312.994c-.105-.182-.262-.365-.419-.495l-2.146-1.773c-.235-.182-.314-.469-.262-.756.079-.287.288-.495.576-.574l2.722-.599c.628-.131,1.151-.6,1.413-1.2l1.047-2.581c.104-.26.366-.443.654-.469s.575.13.706.365l.733,1.225-.183.105-.733-1.226c-.105-.182-.288-.286-.523-.26-.21.026-.393.13-.471.339l-1.047,2.581c-.262.678-.864,1.173-1.57,1.329l-2.722.6c-.209.052-.366.209-.418.391-.053.209.026.417.183.548l2.146,1.772c.183.157.34.339.471.548l-.157.13Z" fill="#ef6238"/><path d="M260.56,317.792c-.131,0-.288-.026-.392-.105-.262-.156-.393-.417-.367-.73l.21-2.112.209.027-.209,2.111c-.027.209.078.391.261.522.183.104.393.104.576,0l2.355-1.486c.602-.391,1.387-.443,2.041-.157l2.565,1.095c.183.079.418.052.575-.078s.236-.339.184-.547l-.681-2.686c-.183-.704,0-1.434.471-1.981l1.832-2.086c.131-.156.183-.365.105-.574-.079-.208-.262-.312-.471-.339l-2.774-.182c-.288-.026-.576-.104-.811-.209l.104-.182c.236.104.471.182.733.208l2.774.183c.288.026.549.209.654.469.105.261.052.574-.131.782l-1.832,2.086c-.418.496-.601,1.147-.444,1.799l.68,2.686c.078.286-.026.573-.236.756-.235.182-.523.234-.785.13l-2.564-1.095c-.602-.261-1.282-.209-1.832.13l-2.355,1.486c-.157.053-.314.079-.445.079Z" fill="#ef6238"/><path d="M291.962,318.652l-3.925-1.695c-.314-.13-.654-.104-.942.079l-3.611,2.268c-.707.443-1.623-.104-1.544-.939l.392-4.223c.026-.339-.105-.652-.366-.861l-3.271-2.737c-.628-.522-.393-1.565.418-1.747l4.161-.939c.314-.078.602-.287.707-.599l1.596-3.937c.314-.782,1.387-.861,1.806-.131l2.172,3.65c.157.287.471.47.811.496l4.265.287c.838.052,1.23,1.042.681,1.668l-2.827,3.181c-.209.261-.314.6-.209.912l1.047,4.12c.235.782-.576,1.46-1.361,1.147Z" fill="#ef6238"/><path d="M283.065,312.994c-.104-.182-.261-.365-.418-.495l-2.146-1.773c-.236-.182-.314-.469-.262-.756.079-.287.288-.495.576-.574l2.721-.599c.628-.131,1.152-.6,1.413-1.2l1.047-2.581c.105-.26.367-.443.654-.469.288-.026.576.13.707.365l.733,1.225-.184.105-.732-1.226c-.105-.182-.314-.286-.524-.26-.209.026-.392.13-.471.339l-1.046,2.581c-.262.678-.864,1.173-1.57,1.329l-2.722.6c-.209.052-.366.209-.419.391-.052.209.026.417.183.548l2.146,1.772c.183.157.34.339.471.548l-.157.13Z" fill="#ef6238"/><path d="M283.85,317.792c-.131,0-.288-.026-.393-.105-.261-.156-.392-.417-.366-.73l.209-2.112.21.027-.21,2.111c-.026.209.079.391.262.522.183.104.393.104.576,0l2.355-1.486c.602-.391,1.387-.443,2.041-.157l2.565,1.095c.183.079.418.052.575-.078s.236-.339.183-.547l-.68-2.686c-.183-.704,0-1.434.471-1.981l1.832-2.086c.131-.156.183-.365.105-.574-.079-.208-.262-.312-.471-.339l-2.774-.182c-.288-.026-.576-.104-.812-.209l.105-.182c.236.104.471.182.733.208l2.774.183c.288.026.549.209.654.469.105.261.052.574-.131.782l-1.832,2.086c-.418.496-.602,1.147-.445,1.799l.681,2.686c.078.286-.026.573-.236.756-.235.182-.523.234-.785.13l-2.564-1.095c-.602-.261-1.283-.209-1.832.13l-2.355,1.486c-.183.053-.314.079-.445.079Z" fill="#ef6238"/><path d="M315.251,318.652l-3.925-1.695c-.314-.13-.654-.104-.942.079l-3.611,2.268c-.707.443-1.623-.104-1.544-.939l.392-4.223c.026-.339-.104-.652-.366-.861l-3.271-2.737c-.628-.522-.393-1.565.419-1.747l4.16-.939c.314-.078.602-.287.707-.599l1.596-3.937c.314-.782,1.387-.861,1.806-.131l2.172,3.65c.157.287.471.47.811.496l4.265.287c.838.052,1.23,1.042.681,1.668l-2.826,3.181c-.21.261-.314.6-.21.912l1.047,4.12c.209.782-.602,1.46-1.361,1.147Z" fill="#ef6238"/><path d="M306.328,312.994c-.105-.182-.262-.365-.419-.495l-2.146-1.773c-.235-.182-.314-.469-.261-.756.078-.287.287-.495.575-.574l2.722-.599c.628-.131,1.151-.6,1.413-1.199l1.047-2.582c.104-.26.366-.443.654-.469s.576.13.706.365l.733,1.225-.183.105-.733-1.226c-.104-.182-.314-.286-.523-.26-.21.026-.393.13-.471.339l-1.047,2.581c-.262.678-.863,1.173-1.57,1.329l-2.722.6c-.209.052-.366.209-.418.391-.053.209.026.417.183.548l2.146,1.773c.183.156.34.338.471.547l-.157.13Z" fill="#ef6238"/><path d="M307.113,317.792c-.131,0-.288-.026-.393-.105-.261-.156-.392-.417-.366-.73l.209-2.112.21.027-.21,2.111c-.026.209.079.391.262.522.183.104.392.104.576,0l2.355-1.486c.602-.391,1.387-.443,2.041-.157l2.564,1.095c.184.079.419.052.576-.078s.236-.339.183-.547l-.68-2.686c-.183-.704,0-1.434.471-1.981l1.832-2.086c.131-.156.183-.365.104-.574-.078-.208-.261-.312-.471-.339l-2.773-.182c-.288-.026-.576-.104-.812-.209l.105-.182c.236.104.471.182.733.208l2.774.183c.287.026.549.209.654.469.104.261.052.574-.131.782l-1.832,2.086c-.419.496-.602,1.147-.445,1.799l.681,2.686c.078.286-.026.573-.236.756-.235.182-.523.234-.785.13l-2.564-1.095c-.602-.261-1.283-.209-1.832.13l-2.355,1.486c-.157.053-.314.079-.445.079Z" fill="#ef6238"/><path d="M312.792,293.571c0,1.199-.995,2.19-2.198,2.19h-95.515c-1.204,0-2.198-.991-2.198-2.19v-.183c0-1.199.994-2.19,2.198-2.19h95.489c1.203,0,2.198.991,2.198,2.19v.183h.026Z" fill="#ef6238"/><path d="M405.977,269.715h123.541v-18.876h-123.541c2.643,0,2.643,18.876,0,18.876Z" fill="#fbfbfb"/><path d="M529.493,264.996v-8.63c0-3.05-2.434-5.501-5.443-5.501h-117.549c-2.355,0-4.291-1.46-4.291-3.285c0-.548.575-.991,1.308-.991h128.487c2.957,0,7.615,3.546,7.615,7.9v12.071c0,4.119-4.553,7.457-7.327,7.457h-128.121c-1.099,0-1.989-.678-1.989-1.512c0-1.513,1.623-2.764,3.612-2.764h119.014c2.59-.026,4.684-2.138,4.684-4.745Z" fill="#222"/><path d="M526.065,255.271h-115.822c-.314,0-.575-.261-.575-.574s.261-.573.575-.573h115.822c.314,0,.575.26.575.573c0,.339-.235.574-.575.574Z" fill="#ddd"/><path d="M526.065,258.087h-115.822c-.314,0-.575-.261-.575-.574s.261-.573.575-.573h115.822c.314,0,.575.26.575.573s-.235.574-.575.574Z" fill="#ddd"/><path d="M526.065,260.876h-115.822c-.314,0-.575-.26-.575-.573s.261-.574.575-.574h115.822c.314,0,.575.261.575.574c0,.339-.235.573-.575.573Z" fill="#ddd"/><path d="M526.065,263.692h-115.822c-.314,0-.575-.261-.575-.573c0-.313.261-.574.575-.574h115.822c.314,0,.575.261.575.574c0,.312-.235.573-.575.573Z" fill="#ddd"/><path d="M526.065,266.482h-115.822c-.314,0-.575-.261-.575-.574s.261-.573.575-.573h115.822c.314,0,.575.26.575.573c0,.339-.235.574-.575.574Z" fill="#ddd"/><path d="M540.064,347.435h-186.188c-2.748,0-4.972-2.216-4.972-4.953v-27.011c0-2.737,2.224-4.953,4.972-4.953h186.188c2.748,0,4.972,2.216,4.972,4.953v27.037c0,2.737-2.224,4.927-4.972,4.927Z" fill="#222"/><path d="M392.343,343.212h-19.469c-.994,0-1.779-.808-1.779-1.773v-24.873c0-.99.811-1.773,1.779-1.773h19.469c.995,0,1.78.809,1.78,1.773v24.873c0,.965-.811,1.773-1.78,1.773Z" fill="#3c3b3b"/><path d="M541.687,276.024v6.362c0,1.095-.628,2.138-1.753,2.842l-1.1.704c-.889.573-.706,1.642.367,2.033.706.261.837.965.261,1.356l-1.386.912c-.916.6-.916,1.643,0,2.243l.994.652c.863.573.837,1.564-.052,2.111l-1.073.652c-.733.469-.864,1.278-.288,1.825l.576.574c.418.417.654.912.654,1.434v10.037h-144.607v-34.389l147.407.652Z" fill="#fbfbfb"/><path d="M399.278,283.403h137.332c.288,0,.55-.183.55-.391c0-.235-.236-.392-.55-.392h-137.332c-.288,0-.549.183-.549.392.026.208.261.391.549.391Z" fill="#ef6238"/><path d="M399.278,289.373h134.061c.288,0,.55-.182.55-.391c0-.208-.236-.391-.55-.391h-134.061c-.288,0-.549.183-.549.391c0,.209.261.391.549.391Z" fill="url(#eymdXvrlhUa187-fill)"/><path d="M399.278,293.779h132.412c.288,0,.55-.182.55-.391c0-.234-.236-.391-.55-.391h-132.412c-.288,0-.549.183-.549.391.026.209.261.391.549.391Z" fill="url(#eymdXvrlhUa188-fill)"/><path d="M391.663,273.235h153.19c1.178,0,2.198.625,2.329,1.486.131.99-.916,1.825-2.224,1.825h-142.042c-2.486,0-4.658,1.303-5.182,3.102-2.329,8.135-2.145,16.582.053,25.316.497,2.034,2.878,3.494,5.652,3.494h138.614c1.178,0,2.198.626,2.329,1.486.131.991-.916,1.825-2.224,1.825h-149.474c-3.585,0-6.647-1.903-7.275-4.51-2.591-10.586-2.8-20.754,0-30.374.628-2.164,3.219-3.677,6.202-3.677h.052v.027Z" fill="#ef6238"/><path d="M149.527,38.7168l2.669,9.3598l5.208-5.814-7.877-3.5458Z" fill="#ef6238"/><path d="M190.167,21.431L171.142,50.736c-.366.5736-.942.9386-1.596,1.0689s-1.335-.026-1.884-.3911L138.877,31.2863c-.341-.2347-.498-.6258-.393-1.0169.079-.391.419-.6778.811-.756l50.872-8.0824Z" fill="#ef6238"/><path d="M149.527,38.7168l40.64-17.2858-35.982,20.5709.628,2.6072-5.286-5.8923Z" fill="#d45833"/><path d="M156.933,43.9051l-4.737,4.1715l1.989-6.0748l2.748,1.9033Z" fill="#ef6238"/></svg>