<svg width="571" height="350" viewBox="0 0 571 350" fill="none" xmlns="http://www.w3.org/2000/svg">
<path d="M560.083 166.913C544.958 144.725 512.928 132.837 512.09 99.5948C511.541 78.0071 520.883 66.2747 505.941 47.8418C469.881 3.31082 414.273 -1.92965 366.777 16.6858C319.308 35.3012 281.364 72.6102 228.608 70.368C199.849 69.1427 167.322 33.9715 138.877 31.2861C130.11 30.4518 110.955 34.5972 103.314 36.6569C74.581 44.3742 41.3471 68.8298 31.8218 101.055C24.076 127.205 58.6445 174.995 46.5023 200.572C33.549 227.869 8.03477 246.797 1.62352 278.292C-6.09616 316.097 14.603 323.006 44.8537 332.34C65.6052 338.753 113.677 344.698 130.791 331.636C151.621 315.732 170.959 317.244 195.243 317.87C241.483 319.017 287.696 329.967 333.334 337.737C372.43 344.411 422.882 321.103 462.527 322.354C491.627 323.267 504.423 356.873 520.15 323.658C538.965 283.95 591.799 213.451 560.083 166.913Z" fill="#EEF5F9"/>
<path d="M317.922 8.91665C320.565 2.52901 327.892 -0.495346 334.277 2.11186L432.853 42.5235C438.296 44.7396 441.018 50.8405 439.055 56.3677L387.53 201.719C385.986 206.047 381.171 208.237 376.879 206.569L263.073 162.298C259.043 160.734 257.08 156.171 258.729 152.182L317.922 8.91665Z" fill="#222222"/>
<path d="M280.711 166.965C280.632 166.965 280.554 166.939 280.475 166.913L267.915 161.568C263.571 159.717 261.503 154.685 263.283 150.331L271.133 131.325C271.264 131.038 271.578 130.881 271.892 131.012C272.18 131.142 272.337 131.455 272.206 131.768L264.356 150.774C262.786 154.555 264.591 158.935 268.36 160.525L280.92 165.87C281.208 166 281.339 166.339 281.234 166.626C281.13 166.835 280.92 166.965 280.711 166.965Z" fill="url(#paint0_linear_335_495)"/>
<path d="M274.09 126.214C274.011 126.214 273.933 126.188 273.88 126.162C273.592 126.032 273.435 125.719 273.566 125.406L274.848 122.33C274.979 122.043 275.293 121.886 275.607 122.017C275.895 122.147 276.052 122.46 275.921 122.773L274.639 125.849C274.534 126.084 274.325 126.214 274.09 126.214Z" fill="url(#paint1_linear_335_495)"/>
<path d="M329.855 2.89372C330.692 0.860102 333.126 -0.000274599 335.062 1.12082C347.78 8.44706 391.743 33.059 431.205 45.8083C433.011 46.3818 433.979 48.3372 433.351 50.1101L381.93 196.244C381.223 198.251 379.025 199.32 377.01 198.616C360.524 192.959 292.722 169.468 270.112 157.318C268.725 156.588 268.15 154.92 268.725 153.486L329.855 2.89372Z" fill="#FBFBFB"/>
<g opacity="0.6">
<path d="M417.807 58.5315C418.33 58.7401 418.932 58.4794 419.142 57.9579L419.168 57.9058C419.377 57.3583 419.115 56.7325 418.566 56.524L382.898 41.1675C382.375 40.9329 381.904 41.2197 381.878 41.7933L381.825 42.7579C381.799 43.3315 382.218 43.9833 382.741 44.1919L417.807 58.5315Z" fill="#EF6238"/>
</g>
<g opacity="0.6">
<path d="M380.648 46.6426C380.125 46.408 379.654 46.6948 379.628 47.2684L379.575 48.233C379.549 48.8066 379.968 49.4584 380.491 49.667L415.531 64.0327C416.054 64.2413 416.656 63.9805 416.865 63.4591L416.892 63.4069C417.101 62.8594 416.839 62.2337 416.29 62.0251L380.648 46.6426Z" fill="#EF6238"/>
</g>
<g opacity="0.6">
<path d="M378.344 52.2217C377.82 51.9871 377.349 52.2739 377.323 52.8475L377.271 53.8121C377.245 54.3857 377.663 55.0375 378.187 55.2461L413.226 69.6118C413.749 69.8204 414.351 69.5596 414.561 69.0382L414.587 68.986C414.796 68.4385 414.535 67.8128 413.985 67.6042L378.344 52.2217Z" fill="#EF6238"/>
</g>
<g opacity="0.6">
<path d="M411.918 82.5438C412.442 82.7524 413.043 82.4916 413.227 81.9441L413.253 81.892C413.436 81.3445 413.148 80.7187 412.625 80.5102L329.252 45.5737C328.729 45.339 328.415 45.6258 328.572 46.1733L329.017 47.6855C329.174 48.233 329.749 48.8587 330.273 49.0934L411.918 82.5438Z" fill="#EF6238"/>
</g>
<g opacity="0.6">
<path d="M326.951 51.0488C326.428 50.8141 326.114 51.1009 326.271 51.6484L326.716 53.1606C326.873 53.7081 327.449 54.3338 327.972 54.5685L409.644 88.045C410.167 88.2535 410.769 87.9928 410.952 87.4453L410.978 87.3932C411.161 86.8456 410.873 86.2199 410.35 86.0113L326.951 51.0488Z" fill="#EF6238"/>
</g>
<path d="M330.248 84.4866H330.222L319.021 80.1847C317.399 79.559 316.483 77.9686 316.876 76.4564L319.414 66.7054C319.571 66.1319 319.937 65.6365 320.487 65.3236C321.089 64.9847 321.848 64.9065 322.554 65.1151C323.522 65.4018 324.883 65.7669 326.349 66.184C329.567 67.0965 333.231 68.1133 335.324 68.8434C335.351 68.8434 335.35 68.8434 335.377 68.8694C336.868 69.4169 337.81 70.7988 337.679 72.2588C337.444 74.6313 335.874 78.6986 334.121 83.0005C333.545 84.4083 331.818 85.0862 330.248 84.4866ZM322.292 66.0536C321.848 65.9233 321.377 65.9754 320.984 66.184C320.67 66.3665 320.461 66.6272 320.382 66.9401L317.844 76.691C317.582 77.7339 318.236 78.8289 319.388 79.2722L330.588 83.574H330.614C331.687 83.9651 332.865 83.548 333.231 82.6354C334.958 78.3857 336.502 74.3967 336.711 72.1545C336.816 71.1638 336.083 70.1209 335.01 69.7819C332.943 69.0519 329.149 67.983 326.113 67.1226C324.621 66.7054 323.261 66.3404 322.292 66.0536Z" fill="#EF6238"/>
<path opacity="0.6" d="M323.128 67.4219C325.536 68.1519 330.874 69.5337 333.308 70.4202C334.354 70.7852 335.009 71.7499 334.93 72.7406C334.747 74.6438 333.386 78.0593 332.13 81.214C331.738 82.1526 330.586 82.5958 329.513 82.1787L320.564 78.7372C319.465 78.32 318.837 77.225 319.098 76.2082L321.139 68.4126C321.322 67.6044 322.238 67.1612 323.128 67.4219Z" fill="white"/>
<g opacity="0.6">
<path d="M343.828 78.4244C343.305 78.2158 342.808 78.5026 342.755 79.0762L342.337 83.1434C342.284 83.717 342.677 84.3427 343.2 84.5513L399.646 105.591C400.195 105.8 400.771 105.513 400.98 104.966L401.765 102.724C401.948 102.176 401.66 101.576 401.137 101.342L343.828 78.4244Z" fill="#EF6238"/>
</g>
<path d="M323.05 69.0647C324.071 68.8822 325.039 69.5862 325.196 70.603L325.929 75.3742C326.007 75.8435 326.583 76.052 326.923 75.687L336.998 65.545C337.495 65.0496 338.333 65.5711 338.071 66.249C336.605 69.9512 332.968 76.6778 324.751 80.38C324.751 80.38 321.925 77.8771 321.454 71.0723C321.402 70.1076 322.082 69.2472 323.05 69.0647Z" fill="url(#paint2_linear_335_495)"/>
<path d="M321.246 108.472H321.22L310.019 104.171C308.397 103.545 307.481 101.954 307.874 100.442L310.412 90.6913C310.569 90.1177 310.935 89.6223 311.485 89.3095C312.087 88.9705 312.846 88.8923 313.552 89.1009C314.52 89.3877 315.881 89.7527 317.347 90.1698C320.565 91.0824 324.229 92.0992 326.322 92.8292C326.349 92.8292 326.349 92.8292 326.375 92.8553C327.866 93.4028 328.808 94.7846 328.678 96.2446C328.442 98.6172 326.872 102.684 325.119 106.986C324.543 108.394 322.816 109.072 321.246 108.472ZM313.264 90.0395C312.819 89.9091 312.348 89.9613 311.956 90.1698C311.642 90.3523 311.433 90.6131 311.354 90.9259L308.816 100.677C308.554 101.72 309.208 102.815 310.36 103.258L321.56 107.56H321.586C322.659 107.951 323.836 107.534 324.203 106.621C325.93 102.372 327.474 98.3825 327.683 96.1403C327.788 95.1496 327.055 94.1328 325.982 93.7417C323.915 93.0117 320.12 91.9427 317.085 91.0824C315.593 90.6913 314.259 90.3263 313.264 90.0395Z" fill="#EF6238"/>
<path opacity="0.6" d="M314.128 91.4082C316.536 92.1382 321.874 93.5201 324.308 94.4065C325.354 94.7715 326.009 95.7362 325.93 96.7269C325.747 98.6302 324.386 102.046 323.13 105.2C322.738 106.139 321.586 106.582 320.513 106.165L311.564 102.723C310.465 102.306 309.837 101.211 310.098 100.194L312.139 92.399C312.323 91.5907 313.238 91.1475 314.128 91.4082Z" fill="white"/>
<g opacity="0.6">
<path d="M334.826 102.411C334.303 102.202 333.806 102.489 333.753 103.063L333.335 107.13C333.282 107.703 333.675 108.329 334.198 108.538L390.644 129.578C391.193 129.786 391.769 129.5 391.978 128.952L392.763 126.71C392.946 126.162 392.659 125.563 392.135 125.328L334.826 102.411Z" fill="#EF6238"/>
</g>
<path d="M314.048 93.0506C315.069 92.8681 316.037 93.572 316.194 94.5888L316.927 99.36C317.005 99.8293 317.581 100.038 317.921 99.6729L327.996 89.5308C328.493 89.0355 329.331 89.5569 329.069 90.2348C327.604 93.937 323.966 100.664 315.749 104.366C315.749 104.366 312.923 101.863 312.452 95.0581C312.4 94.1195 313.08 93.2331 314.048 93.0506Z" fill="url(#paint3_linear_335_495)"/>
<path d="M311.537 131.116H311.511L300.31 126.814C298.688 126.189 297.772 124.598 298.165 123.06L300.703 113.309C300.86 112.735 301.226 112.24 301.776 111.927C302.378 111.588 303.137 111.51 303.843 111.719C304.811 112.005 306.172 112.37 307.638 112.788C310.699 113.648 314.52 114.717 316.613 115.447C318.105 115.994 319.099 117.376 318.942 118.836C318.707 121.209 317.137 125.276 315.383 129.578C314.86 131.038 313.107 131.69 311.537 131.116ZM303.582 112.657C303.137 112.527 302.666 112.579 302.273 112.788C301.959 112.97 301.75 113.231 301.671 113.544L299.133 123.295C298.871 124.337 299.525 125.432 300.677 125.876L311.877 130.178C312.95 130.543 314.154 130.178 314.52 129.239C316.247 124.989 317.791 121 318 118.758C318.105 117.767 317.372 116.75 316.299 116.385C314.232 115.655 310.438 114.586 307.376 113.726C305.911 113.335 304.55 112.944 303.582 112.657Z" fill="#EF6238"/>
<path opacity="0.6" d="M304.419 114.065C306.827 114.795 312.165 116.177 314.599 117.063C315.645 117.428 316.3 118.393 316.221 119.383C316.038 121.287 314.677 124.702 313.421 127.857C313.029 128.795 311.877 129.239 310.804 128.822L301.855 125.38C300.756 124.963 300.128 123.868 300.389 122.851L302.43 115.056C302.614 114.221 303.529 113.778 304.419 114.065Z" fill="white"/>
<g opacity="0.6">
<path d="M325.117 125.067C324.594 124.858 324.097 125.145 324.044 125.719L323.626 129.786C323.573 130.36 323.966 130.985 324.489 131.194L380.935 152.234C381.484 152.443 382.06 152.156 382.269 151.608L383.054 149.366C383.237 148.819 382.95 148.219 382.426 147.984L325.117 125.067Z" fill="white"/>
</g>
<path d="M304.368 115.707C305.389 115.525 306.357 116.229 306.514 117.246L307.247 122.017C307.325 122.486 307.901 122.695 308.241 122.33L318.316 112.188C318.813 111.692 319.65 112.214 319.389 112.892C317.923 116.594 314.286 123.32 306.069 127.023C306.069 127.023 303.243 124.52 302.772 117.715C302.693 116.75 303.374 115.864 304.368 115.707Z" fill="url(#paint4_linear_335_495)"/>
<path d="M301.357 154.398H301.331L290.131 150.096C288.508 149.471 287.592 147.88 287.985 146.368L290.523 136.617C290.68 136.043 291.047 135.548 291.596 135.235C292.198 134.896 292.957 134.818 293.664 135.027C294.632 135.313 295.993 135.678 297.458 136.096C300.677 137.008 304.34 138.025 306.434 138.755C307.951 139.355 308.92 140.684 308.763 142.144C308.527 144.517 306.957 148.584 305.204 152.886C304.654 154.32 302.927 154.972 301.357 154.398ZM293.376 135.939C292.931 135.809 292.46 135.861 292.067 136.07C291.753 136.252 291.544 136.513 291.465 136.826L288.927 146.577C288.665 147.619 289.32 148.714 290.471 149.158L301.671 153.46H301.697C302.77 153.851 303.948 153.434 304.314 152.521C306.041 148.271 307.585 144.282 307.794 142.04C307.899 141.049 307.14 140.033 306.094 139.667C304.026 138.937 300.232 137.869 297.196 137.008C295.705 136.617 294.37 136.226 293.376 135.939Z" fill="white"/>
<path opacity="0.6" d="M294.239 137.347C296.647 138.077 301.985 139.459 304.419 140.345C305.466 140.71 306.12 141.675 306.041 142.666C305.858 144.569 304.497 147.984 303.241 151.139C302.849 152.078 301.697 152.521 300.625 152.104L291.675 148.662C290.576 148.245 289.948 147.15 290.21 146.133L292.251 138.338C292.434 137.503 293.35 137.06 294.239 137.347Z" fill="white"/>
<g opacity="0.6">
<path d="M314.94 148.35C314.416 148.141 313.919 148.428 313.867 149.001L313.448 153.069C313.396 153.642 313.788 154.268 314.312 154.477L370.757 175.517C371.306 175.725 371.882 175.439 372.091 174.891L372.876 172.649C373.06 172.101 372.772 171.502 372.248 171.267L314.94 148.35Z" fill="white"/>
</g>
<path d="M294.162 138.99C295.182 138.807 296.15 139.511 296.307 140.528L297.04 145.299C297.119 145.768 297.694 145.977 298.035 145.612L308.109 135.47C308.607 134.974 309.444 135.496 309.182 136.174C307.717 139.876 304.079 146.603 295.863 150.305C295.863 150.305 293.036 147.802 292.565 140.997C292.513 140.032 293.193 139.146 294.162 138.99Z" fill="url(#paint5_linear_335_495)"/>
<path d="M397.683 5.42279C395.145 1.48592 392.031 0.286605 389.571 0.0258853C387.347 -0.208763 385.253 1.17305 384.599 3.31096L381.328 13.9223L392.11 19.5017C392.11 19.5017 402.682 13.114 397.683 5.42279ZM389.362 11.654C387.818 11.0283 387.085 9.25538 387.713 7.7432C388.341 6.20495 390.121 5.47494 391.638 6.10066C393.182 6.72639 393.915 8.49929 393.287 10.0115C392.659 11.5497 390.906 12.2797 389.362 11.654Z" fill="#222222"/>
<path d="M383.944 10.246C383.787 10.0896 383.708 9.85496 383.787 9.62031L384.31 7.92563C384.415 7.61277 384.755 7.43026 385.069 7.53455C385.383 7.63884 385.566 7.97777 385.461 8.29064L384.938 9.98532C384.833 10.2982 384.493 10.4807 384.179 10.3764C384.075 10.3503 383.996 10.2982 383.944 10.246ZM384.964 6.93489C384.807 6.77846 384.729 6.54381 384.807 6.30917L385.2 5.03164C385.88 2.86766 388 1.45977 390.25 1.69442C391.794 1.85085 393.233 2.37229 394.542 3.25874C394.804 3.44124 394.882 3.80625 394.699 4.09304C394.516 4.35376 394.149 4.43198 393.861 4.24948C392.71 3.49339 391.454 3.02409 390.119 2.89373C388.418 2.71123 386.822 3.78018 386.325 5.39665L385.932 6.67417C385.828 6.98704 385.488 7.16954 385.174 7.06525C385.095 7.03918 385.017 6.98704 384.964 6.93489Z" fill="url(#paint6_linear_335_495)"/>
<path d="M363.35 14.2611L365.469 9.12487C366.202 7.35197 368.269 6.54374 370.023 7.3259L405.088 23.1255C406.632 23.8295 407.417 25.6024 406.868 27.1928L405.114 32.2507L363.35 14.2611Z" fill="#222222"/>
<path d="M379.338 13.6615C379.259 13.6615 379.181 13.6354 379.128 13.6093L377.611 12.9836C377.323 12.8532 377.166 12.5404 377.297 12.2275C377.427 11.9407 377.741 11.7843 378.056 11.9146L379.573 12.5404C379.861 12.6707 380.018 12.9836 379.887 13.2965C379.783 13.5311 379.547 13.6615 379.338 13.6615Z" fill="url(#paint7_linear_335_495)"/>
<path d="M365.653 13.6094C365.47 13.453 365.418 13.1922 365.496 12.9315L366.36 10.8458C366.7 9.98539 367.38 9.33359 368.244 8.96858C369.107 8.60357 370.05 8.60357 370.887 8.96858L376.513 11.2629C376.827 11.3933 376.958 11.7322 376.827 12.0451C376.696 12.3579 376.356 12.4883 376.042 12.3579L370.416 10.0636C369.265 9.59431 367.93 10.1418 367.459 11.289L366.595 13.3748C366.465 13.6876 366.124 13.818 365.81 13.6876C365.758 13.6876 365.706 13.6615 365.653 13.6094Z" fill="url(#paint8_linear_335_495)"/>
<path d="M352.987 7.8214L415.163 33.2938C417.387 34.2063 418.643 36.6049 418.12 38.9514L418.041 39.2643C417.465 41.8454 414.692 43.2793 412.258 42.2625L348.459 16.1384C346.994 15.5387 346.34 13.844 346.994 12.4101L348.302 9.62037C349.14 7.87354 351.181 7.09138 352.987 7.8214Z" fill="#EF6238"/>
<path d="M141.545 231.415C141.545 231.415 175.171 319.747 185.796 338.128C198.121 359.455 234.129 345.871 232.349 328.012C230.57 310.153 188.491 236.369 188.491 236.369L141.545 231.415Z" fill="#222222"/>
<path d="M186.974 167.043L395.929 94.8755L393.731 290.207L181.27 242.965L186.974 167.043Z" fill="#414141"/>
<path d="M396.137 293.492C407.468 293.492 416.653 248.552 416.653 193.115C416.653 137.678 407.468 92.7378 396.137 92.7378C384.806 92.7378 375.621 137.678 375.621 193.115C375.621 248.552 384.806 293.492 396.137 293.492Z" fill="#222222"/>
<path d="M397.68 286.636C395.823 284.758 391.793 277.51 388.312 258.739C384.963 240.618 383.131 217.102 383.131 192.542C383.131 167.982 384.963 144.465 388.312 126.345C391.766 107.599 395.823 100.325 397.68 98.4478C399.538 100.325 403.568 107.573 407.049 126.345C410.398 144.465 412.23 167.982 412.23 192.542C412.23 217.102 410.398 240.618 407.049 258.739C403.595 277.484 399.538 284.732 397.68 286.636Z" fill="#414141"/>
<path d="M153.268 162.845C163.108 161.698 177.186 161.307 192.443 164.775C187.418 190.899 188.177 218.144 193.986 246.354H150.992C144.136 246.354 138.3 241.4 137.227 234.648C135.081 221.116 132.465 198.407 135.265 180.157C136.678 171.006 144.031 163.914 153.268 162.845Z" fill="#222222"/>
<path d="M179.07 182.869H145.574C144.449 182.869 143.428 182.269 142.879 181.278C142.329 180.288 142.382 179.114 143.01 178.176C143.271 177.785 143.795 177.654 144.213 177.915C144.606 178.176 144.737 178.697 144.475 179.114C144.213 179.532 144.187 180.027 144.423 180.47C144.658 180.913 145.103 181.174 145.6 181.174H179.096C179.829 181.174 180.43 180.574 180.43 179.844V177.472C180.43 176.742 179.829 176.142 179.096 176.142H145.339C144.868 176.142 144.475 175.751 144.475 175.282C144.475 174.812 144.868 174.421 145.339 174.421H179.07C180.745 174.421 182.131 175.777 182.131 177.472V179.844C182.131 181.513 180.771 182.869 179.07 182.869Z" fill="url(#paint9_linear_335_495)"/>
<path d="M176.087 197.651H142.592C141.467 197.651 140.446 197.052 139.896 196.061C139.347 195.07 139.399 193.897 140.027 192.958C140.289 192.567 140.812 192.437 141.231 192.698C141.624 192.958 141.754 193.48 141.493 193.897C141.231 194.314 141.205 194.81 141.44 195.253C141.676 195.696 142.121 195.957 142.618 195.957H176.113C176.846 195.957 177.448 195.357 177.448 194.627V192.255C177.448 191.525 176.846 190.925 176.113 190.925H142.356C141.885 190.925 141.493 190.534 141.493 190.064C141.493 189.595 141.885 189.204 142.356 189.204H176.087C177.762 189.204 179.149 190.56 179.149 192.255V194.627C179.149 196.27 177.788 197.651 176.087 197.651Z" fill="url(#paint10_linear_335_495)"/>
<path d="M179.07 214.963H145.574C144.449 214.963 143.428 214.364 142.879 213.373C142.329 212.382 142.382 211.209 143.01 210.27C143.271 209.879 143.795 209.749 144.213 210.01C144.606 210.27 144.737 210.792 144.475 211.209C144.213 211.626 144.187 212.122 144.423 212.565C144.658 213.008 145.103 213.269 145.6 213.269H179.096C179.829 213.269 180.43 212.669 180.43 211.939V209.567C180.43 208.837 179.829 208.237 179.096 208.237H145.339C144.868 208.237 144.475 207.846 144.475 207.377C144.475 206.907 144.868 206.516 145.339 206.516H179.07C180.745 206.516 182.131 207.872 182.131 209.567V211.939C182.131 213.582 180.771 214.963 179.07 214.963Z" fill="url(#paint11_linear_335_495)"/>
<path d="M182.21 234.152H148.715C147.59 234.152 146.569 233.553 146.019 232.562C145.47 231.571 145.522 230.398 146.15 229.459C146.412 229.068 146.935 228.938 147.354 229.199C147.747 229.459 147.877 229.981 147.616 230.398C147.354 230.815 147.328 231.311 147.563 231.754C147.799 232.197 148.244 232.458 148.741 232.458H182.237C182.969 232.458 183.571 231.858 183.571 231.128V228.756C183.571 228.025 182.969 227.426 182.237 227.426H148.479C148.008 227.426 147.616 227.035 147.616 226.565C147.616 226.096 148.008 225.705 148.479 225.705H182.21C183.885 225.705 185.272 227.061 185.272 228.756V231.128C185.272 232.797 183.885 234.152 182.21 234.152Z" fill="url(#paint12_linear_335_495)"/>
<path d="M496.231 242.444C496.231 242.444 497.016 244.06 496.781 248.284C496.755 248.675 496.415 248.988 496.022 248.935L488.564 248.101C488.276 248.075 488.093 247.762 488.198 247.475C488.773 246.224 490.448 243.226 493.615 241.766L496.231 242.444Z" fill="#414141"/>
<path d="M496.887 239.628L496.076 243.122C495.997 243.435 495.735 243.643 495.421 243.643C495.003 243.643 494.401 243.617 493.851 243.461C493.328 243.304 493.014 242.809 493.066 242.287L493.459 238.872L496.887 239.628Z" fill="url(#paint13_linear_335_495)"/>
<path d="M477.81 240.202C477.81 240.202 479.197 242.47 479.092 245.52C479.066 246.25 478.438 246.798 477.732 246.772L466.06 246.485C465.511 246.459 465.302 245.755 465.773 245.468C468.023 243.982 472.419 241.192 475.612 240.149L477.81 240.202Z" fill="#414141"/>
<path d="M478.83 236.864L477.731 241.218C477.6 241.714 477.103 242 476.632 241.896C476.344 241.818 475.978 241.688 475.638 241.427C475.297 241.192 475.114 240.749 475.219 240.358L476.37 235.091L478.83 236.864Z" fill="url(#paint14_linear_335_495)"/>
<path d="M502.226 177.499C502.226 177.499 505.052 180.601 505.261 183.99C505.471 187.38 497.123 240.932 497.123 240.932C497.123 240.932 493.93 241.088 492.439 239.941C492.439 239.941 494.48 204.796 493.93 196.557C493.93 196.557 482.207 231.885 479.355 238.168C479.355 238.168 476.293 238.194 475.377 237.516C475.377 237.516 482.678 190.847 486.132 182.791L502.226 177.499Z" fill="#222222"/>
<path d="M494.191 195.384C494.165 195.384 494.113 195.384 494.087 195.358C493.93 195.306 493.877 195.123 493.93 194.993L495.84 190.065C495.866 189.987 495.919 189.935 495.971 189.909L499.059 188.396C499.19 188.318 499.373 188.396 499.451 188.527C499.53 188.657 499.451 188.84 499.32 188.918L496.337 190.378L494.479 195.201C494.427 195.306 494.296 195.384 494.191 195.384Z" fill="url(#paint15_linear_335_495)"/>
<path d="M474.826 142.927C488.145 143.318 491.286 146.42 491.286 146.42L483.828 155.676C483.828 155.676 470.9 153.955 462.422 145.795C464.358 144.126 465.824 142.197 466.766 140.685C469.042 141.936 471.738 142.849 474.826 142.927Z" fill="#DA5731"/>
<path d="M456.377 121.313C456.43 120.896 457.031 120.844 457.162 121.235L458.445 124.989C458.68 125.719 458.706 126.501 458.497 127.231L457.659 129.239C457.372 130.23 457.529 131.298 458.078 132.185C459.413 134.297 462.291 138.182 466.766 140.632C465.798 142.144 464.359 144.074 462.422 145.742C459.308 142.744 456.796 138.885 455.749 133.906C455.016 133.593 454.572 132.811 454.702 132.029L456.377 121.313Z" fill="url(#paint16_linear_335_495)"/>
<path d="M469.854 148.219C475.062 143.761 484.168 142.51 489.376 142.145C491.653 141.988 493.746 143.474 494.296 145.69C495.892 152.13 500.341 168.868 501.256 171.762C501.989 174.135 502.774 176.455 503.298 177.915C503.612 178.776 503.141 179.74 502.277 180.027C497.724 181.618 489.716 183.078 486.471 183.651C485.765 183.782 485.137 183.182 485.215 182.452C485.294 181.852 485.189 181.227 484.927 180.679L475.271 159.587C466.923 166.939 460.355 166.965 455.566 164.619C456.692 162.142 457.529 159.613 458.105 157.032C465.563 156.641 469.854 148.219 469.854 148.219Z" fill="#EF6238"/>
<path d="M446.016 154.321L447.533 152.704C451.511 156.146 455.018 157.241 458.027 157.058C457.477 159.613 456.64 162.142 455.489 164.645C449.208 161.543 446.016 154.321 446.016 154.321Z" fill="url(#paint17_linear_335_495)"/>
<path d="M446.957 154.477L439.421 153.929L432.957 149.315C434.03 148.819 439.473 150.697 439.473 150.697C439.473 150.697 445.439 150.462 447.009 150.644C448.318 150.801 447.925 152.652 447.742 153.278C447.716 153.408 447.69 153.486 447.69 153.486L446.957 154.477Z" fill="url(#paint18_linear_335_495)"/>
<path d="M483.358 132.211L486.236 142.275C486.236 142.275 481.343 144.908 477.705 144.178L476.711 135.314L483.358 132.211Z" fill="url(#paint19_linear_335_495)"/>
<path d="M476.816 123.164C476.816 123.164 473.362 128.665 472.734 131.716C472.106 134.766 471.138 136.669 474.618 137.843C478.098 138.99 481.396 137.66 483.489 134.844C483.489 134.844 486.76 130.49 486.472 128.457C486.184 126.449 476.816 123.164 476.816 123.164Z" fill="url(#paint20_linear_335_495)"/>
<path d="M482.601 132.446L482.418 132.316C482.182 132.159 482.104 131.846 482.287 131.612C482.941 130.725 484.249 128.639 483.072 127.909C481.528 126.997 475.221 124.703 474.175 122.2C473.154 119.801 474.776 117.116 476.687 116.568C476.818 116.542 476.948 116.594 477.001 116.724L477.105 117.037C477.184 117.246 477.472 117.246 477.55 117.063C477.629 116.881 477.917 116.881 477.995 117.063C478.335 117.819 479.33 119.097 482.339 120.14C486.631 121.6 489.3 123.816 488.907 126.893C488.881 127.075 489.064 127.231 489.248 127.153C489.614 126.997 490.137 126.997 490.739 127.675C491.812 128.874 490.896 131.429 487.913 133.202C487.782 133.28 487.73 133.489 487.861 133.593C488.305 133.984 488.907 134.818 486.892 135.548C484.799 136.278 483.386 135.992 482.836 135.809C482.705 135.757 482.627 135.627 482.679 135.496L483.674 132.915C483.726 132.759 483.648 132.602 483.49 132.576L482.601 132.446Z" fill="#222222"/>
<path d="M482.391 132.993C482.391 132.993 483.935 129.369 485.478 130.699C487.022 132.003 483.961 134.766 482.6 134.714L482.391 132.993Z" fill="url(#paint21_linear_335_495)"/>
<path d="M439.996 150.592C453.422 150.592 464.306 139.748 464.306 126.371C464.306 112.994 453.422 102.15 439.996 102.15C426.57 102.15 415.686 112.994 415.686 126.371C415.686 139.748 426.57 150.592 439.996 150.592Z" fill="#EF6238"/>
<path d="M430.968 140.215C430.707 140.215 430.471 140.033 430.419 139.772L427.436 126.032C427.409 125.875 427.436 125.719 427.514 125.589C427.593 125.458 427.723 125.38 427.88 125.328C427.907 125.328 429.267 125.015 430.366 124.155C430.785 123.816 431.099 122.695 431.413 121.521C431.832 119.957 432.355 118.028 433.507 116.437C435.495 113.674 434.737 109.919 434.658 109.502C434.501 108.824 434.92 107.547 435.914 107.051C436.595 106.713 437.72 106.634 439.133 108.251C441.095 110.467 440.677 113.7 440.363 116.046C440.258 116.802 440.18 117.454 440.206 117.897C440.206 118.106 440.284 118.132 440.31 118.158C440.834 118.523 442.77 118.028 444.34 117.637C444.995 117.48 445.649 117.298 446.303 117.167C449.522 116.463 451.144 117.141 451.746 119.384C452.112 120.739 451.484 121.756 450.961 122.382C452.165 123.138 452.845 124.024 452.95 125.015C453.081 125.98 452.636 126.814 452.243 127.336C453.29 128.013 453.813 129.056 453.709 130.282C453.63 131.194 453.159 132.028 452.531 132.576C453.159 132.993 453.316 133.541 453.342 133.906C453.447 135.314 451.825 136.904 449.496 137.686C446.146 138.807 431.727 140.189 431.099 140.241C430.994 140.215 430.968 140.215 430.968 140.215ZM428.639 126.319L431.413 139.042C434.056 138.781 446.146 137.556 449.051 136.591C451.118 135.887 452.165 134.636 452.139 133.984C452.112 133.515 451.406 133.306 450.987 133.228C450.725 133.176 450.516 132.941 450.516 132.654C450.516 132.367 450.699 132.133 450.987 132.081C451.746 131.95 452.426 131.064 452.505 130.151C452.557 129.604 452.453 128.587 451.066 128.013C450.882 127.935 450.752 127.779 450.725 127.57C450.699 127.362 450.752 127.179 450.909 127.049C450.909 127.049 451.903 126.162 451.772 125.119C451.668 124.337 450.987 123.633 449.705 122.981C449.522 122.903 449.417 122.721 449.391 122.512C449.365 122.304 449.469 122.121 449.626 122.017C449.679 121.991 450.961 121.052 450.595 119.67C450.307 118.549 449.757 117.585 446.512 118.289C445.884 118.419 445.23 118.601 444.602 118.758C442.43 119.305 440.546 119.801 439.604 119.097C439.368 118.914 439.054 118.575 439.028 117.976C439.002 117.428 439.107 116.724 439.211 115.916C439.499 113.778 439.892 110.858 438.269 109.033C437.851 108.564 437.039 107.782 436.411 108.094C435.914 108.329 435.731 109.085 435.757 109.294C435.862 109.763 436.699 113.961 434.423 117.141C433.402 118.549 432.931 120.296 432.512 121.86C432.12 123.347 431.806 124.494 431.099 125.067C430.209 125.745 429.241 126.136 428.639 126.319Z" fill="#FBFBFB"/>
<path d="M89.0529 86.5849C89.3407 77.7725 96.4324 70.6549 105.277 70.2899L252.396 64.3194C263.439 63.8761 271.918 73.8878 269.641 84.6555L265.559 103.871C263.91 111.666 257.002 117.246 248.994 117.246H122.732C116.975 117.246 111.479 119.931 108.182 124.65C107.161 126.084 106.376 127.7 105.931 129.473C105.748 130.151 104.832 130.308 104.492 129.682C103.367 127.753 101.588 124.52 100.174 120.922C99.3109 118.732 97.2174 117.246 94.8361 117.246C91.1202 117.246 88.137 114.169 88.2678 110.467L89.0529 86.5849Z" fill="#EF6238"/>
<path d="M104.989 122.773C104.518 121.756 104.047 120.687 103.602 119.592C102.189 115.942 98.7343 113.569 94.8352 113.569C94.0502 113.569 93.3175 113.257 92.7679 112.683C92.2184 112.109 91.9305 111.379 91.9567 110.571L92.7679 86.6892C93.0035 79.8323 98.5773 74.2268 105.46 73.9661L252.578 67.9956C252.762 67.9956 252.945 67.9956 253.128 67.9956C257.132 67.9956 260.874 69.7685 263.386 72.8711C265.898 75.9736 266.866 79.9887 266.055 83.8995L261.973 103.115C260.691 109.163 255.248 113.569 249.019 113.569H122.731C115.665 113.569 109.097 116.933 105.172 122.538C105.093 122.616 105.041 122.695 104.989 122.773Z" fill="#FBFBFB"/>
<path d="M110.067 81.4486L247.739 75.6607C248.838 75.6085 249.78 76.156 249.78 76.8339V79.78C249.78 80.4318 248.969 80.9533 247.922 80.9794L110.251 83.8473C109.178 83.8734 108.262 83.3258 108.262 82.648C108.288 81.9962 109.047 81.4747 110.067 81.4486Z" fill="#EF6238"/>
<path d="M108.287 90.1568V91.2257C108.287 92.5815 110.302 93.6765 112.736 93.6243L230.337 90.8607C232.613 90.8086 234.419 89.7396 234.419 88.4621C234.419 87.1063 232.43 86.0374 230.049 86.0635L112.448 87.7581C110.119 87.7842 108.287 88.8532 108.287 90.1568Z" fill="#EF6238"/>
<path d="M108.287 102.619C108.287 103.923 110.773 104.966 113.73 104.887L205.11 102.384C208.617 102.28 210.867 100.716 209.559 99.2558L209.035 98.6822C208.224 97.7957 206.209 97.2221 204.037 97.2743L115.719 99.1775C111.558 99.2557 108.287 100.768 108.287 102.619Z" fill="#EF6238"/>
<path d="M145.602 52.822L143.744 54.1778C143.482 54.3603 143.142 54.3081 142.933 54.0474C142.749 53.7867 142.802 53.4478 143.064 53.2392L144.921 51.8834C145.183 51.7009 145.523 51.7531 145.733 52.0138C145.916 52.3006 145.864 52.6395 145.602 52.822Z" fill="#EF6238"/>
<path d="M140.552 56.5765L138.72 57.9583C138.459 58.1408 138.118 58.0886 137.909 57.854C137.726 57.5933 137.778 57.2543 138.014 57.0458L139.845 55.6639C140.107 55.4814 140.447 55.5336 140.657 55.7682C140.84 56.029 140.787 56.394 140.552 56.5765Z" fill="#EF6238"/>
<path d="M135.5 60.357L133.669 61.7389C133.407 61.9214 133.067 61.8692 132.884 61.6346C132.7 61.3738 132.753 61.0349 132.988 60.8524L134.82 59.4706C135.082 59.2881 135.422 59.3402 135.605 59.5749C135.788 59.8095 135.736 60.1745 135.5 60.357Z" fill="#EF6238"/>
<path d="M130.502 64.1633L128.696 65.5712C128.461 65.7537 128.094 65.7276 127.911 65.4669C127.728 65.2323 127.754 64.8672 128.016 64.6847L129.821 63.2768C130.057 63.0943 130.423 63.1204 130.606 63.3811C130.79 63.6158 130.737 63.9808 130.502 64.1633Z" fill="#EF6238"/>
<path d="M125.531 68.048L123.726 69.482C123.49 69.6645 123.124 69.6384 122.941 69.4038C122.757 69.1691 122.784 68.8041 123.019 68.6216L124.825 67.1876C125.06 67.0051 125.427 67.0312 125.61 67.2659C125.819 67.5005 125.767 67.8655 125.531 68.048Z" fill="#EF6238"/>
<path d="M120.612 71.9852L118.832 73.4452C118.597 73.6538 118.23 73.6016 118.047 73.367C117.838 73.1324 117.89 72.7673 118.126 72.5848L119.905 71.1248C120.141 70.9162 120.507 70.9684 120.69 71.203C120.9 71.4377 120.847 71.8027 120.612 71.9852Z" fill="#EF6238"/>
<path d="M115.77 76.0001L114.017 77.4863C113.781 77.6948 113.441 77.6688 113.232 77.4341C113.022 77.1995 113.049 76.8605 113.284 76.6519L115.037 75.1658C115.273 74.9573 115.613 74.9833 115.822 75.218C116.032 75.4526 116.006 75.7916 115.77 76.0001Z" fill="#EF6238"/>
<path d="M110.982 80.0934L109.255 81.6056C109.02 81.8142 108.679 81.7881 108.47 81.5534C108.261 81.3188 108.287 80.9799 108.522 80.7713L110.25 79.2591C110.485 79.0505 110.825 79.0766 111.035 79.3113C111.218 79.5459 111.192 79.8848 110.982 80.0934Z" fill="#EF6238"/>
<path d="M106.271 84.2647L104.57 85.803C104.335 86.0116 103.995 85.9855 103.785 85.7769C103.576 85.5423 103.602 85.2033 103.811 84.9948L105.512 83.4565C105.748 83.2479 106.088 83.274 106.297 83.4826C106.507 83.7172 106.481 84.0562 106.271 84.2647Z" fill="#EF6238"/>
<path d="M101.638 88.5408L99.9897 90.1052C99.7804 90.3137 99.414 90.3137 99.2047 90.0791C98.9953 89.8705 98.9953 89.5055 99.2308 89.2969L100.906 87.7065C101.115 87.498 101.481 87.498 101.691 87.7326C101.874 87.9673 101.848 88.3323 101.638 88.5408Z" fill="#EF6238"/>
<path d="M97.1114 92.8946L95.4889 94.5111C95.2796 94.7197 94.9394 94.7197 94.7039 94.5111C94.4945 94.3025 94.4945 93.9636 94.7039 93.729L96.3263 92.1125C96.5357 91.9039 96.8759 91.9039 97.1114 92.1125C97.3207 92.3471 97.3207 92.6861 97.1114 92.8946Z" fill="#EF6238"/>
<path d="M92.6911 97.3791L91.121 99.0477C90.9117 99.2563 90.5715 99.2824 90.3621 99.0738C90.1528 98.8652 90.1266 98.5263 90.3359 98.3177L91.9061 96.6491C92.1154 96.4405 92.4556 96.4144 92.6649 96.623C92.9004 96.8055 92.9004 97.1444 92.6911 97.3791Z" fill="#EF6238"/>
<path d="M88.3979 101.968L86.8802 103.663C86.6708 103.897 86.3306 103.897 86.1213 103.715C85.8858 103.506 85.8858 103.167 86.069 102.959L87.6129 101.238C87.8222 101.003 88.1624 101.003 88.3718 101.186C88.5811 101.394 88.6073 101.733 88.3979 101.968Z" fill="#EF6238"/>
<path d="M84.2375 106.687L82.772 108.434C82.5889 108.668 82.2487 108.694 82.0132 108.512C81.7777 108.329 81.7515 107.99 81.9347 107.756L83.4001 106.009C83.5833 105.774 83.9235 105.748 84.159 105.931C84.4207 106.113 84.4468 106.452 84.2375 106.687Z" fill="#EF6238"/>
<path d="M80.2599 111.536L78.8468 113.335C78.6636 113.57 78.3234 113.622 78.0879 113.44C77.8524 113.257 77.8 112.918 77.9832 112.683L79.3963 110.884C79.5795 110.65 79.9197 110.598 80.1552 110.78C80.3907 110.963 80.443 111.302 80.2599 111.536Z" fill="#EF6238"/>
<path d="M76.4391 116.542L75.1045 118.393C74.9213 118.628 74.6073 118.68 74.3456 118.523C74.1101 118.341 74.0577 118.028 74.2147 117.793L75.5493 115.916C75.7325 115.681 76.0465 115.629 76.3082 115.786C76.5699 115.942 76.6222 116.281 76.4391 116.542Z" fill="#EF6238"/>
<path d="M72.8271 121.678L71.571 123.582C71.414 123.816 71.0738 123.894 70.8383 123.738C70.6028 123.582 70.5243 123.243 70.6813 123.008L71.9374 121.079C72.0944 120.844 72.4346 120.766 72.6701 120.922C72.9318 121.079 73.0103 121.418 72.8271 121.678Z" fill="#EF6238"/>
<path d="M69.4514 126.945L68.2738 128.9C68.1168 129.161 67.8028 129.239 67.5411 129.083C67.2794 128.926 67.2009 128.613 67.3579 128.353L68.5355 126.371C68.6925 126.11 69.0065 126.032 69.2682 126.189C69.5299 126.371 69.6084 126.684 69.4514 126.945Z" fill="#EF6238"/>
<path d="M66.338 132.394L65.2651 134.401C65.1342 134.662 64.8202 134.766 64.5585 134.61C64.2968 134.48 64.1922 134.167 64.3492 133.906L65.4221 131.872C65.5529 131.612 65.8669 131.507 66.1286 131.664C66.3641 131.82 66.4688 132.133 66.338 132.394Z" fill="#EF6238"/>
<path d="M63.5129 137.973L62.5708 140.033C62.44 140.293 62.1521 140.398 61.8643 140.293C61.6026 140.163 61.4979 139.876 61.6026 139.59L62.5708 137.504C62.7017 137.243 63.0157 137.113 63.2774 137.243C63.5129 137.399 63.6176 137.712 63.5129 137.973Z" fill="#EF6238"/>
<path d="M60.9992 143.735L60.188 145.847C60.0833 146.108 59.7693 146.238 59.5076 146.134C59.2459 146.029 59.1151 145.717 59.2197 145.456L60.0571 143.318C60.1618 143.057 60.4758 142.927 60.7375 143.031C60.973 143.135 61.1039 143.448 60.9992 143.735Z" fill="#EF6238"/>
<path d="M58.8552 149.601L58.1748 151.765C58.0963 152.026 57.8085 152.183 57.5206 152.104C57.2589 152.026 57.1019 151.739 57.1804 151.453L57.8608 149.262C57.9393 149.002 58.2272 148.845 58.515 148.924C58.7767 149.028 58.9337 149.315 58.8552 149.601Z" fill="#EF6238"/>
<path d="M57.1008 155.598L56.5774 157.814C56.4989 158.101 56.2372 158.257 55.9494 158.205C55.6615 158.127 55.5045 157.866 55.5568 157.579L56.1064 155.337C56.1849 155.05 56.4466 154.894 56.7344 154.946C56.9961 155.024 57.1531 155.311 57.1008 155.598Z" fill="#EF6238"/>
<path d="M55.7669 161.725L55.4006 163.967V163.993C55.3482 164.28 55.0865 164.462 54.7987 164.41C54.5108 164.358 54.3277 164.097 54.38 163.811L54.7464 161.542C54.7987 161.255 55.0604 161.073 55.3482 161.125C55.6099 161.151 55.7931 161.412 55.7669 161.725Z" fill="#EF6238"/>
<path d="M54.8767 167.904L54.6673 170.172V170.199C54.6411 170.485 54.4056 170.694 54.1178 170.668C53.8299 170.642 53.6206 170.407 53.6467 170.12L53.8561 167.826C53.8823 167.539 54.1439 167.331 54.4056 167.357C54.6935 167.357 54.9028 167.617 54.8767 167.904Z" fill="#EF6238"/>
<path d="M54.4315 174.135L54.4053 176.403V176.43C54.4053 176.716 54.1698 176.925 53.882 176.925C53.5941 176.925 53.3848 176.69 53.3848 176.403L53.4109 174.109C53.4109 173.822 53.6465 173.614 53.9343 173.614C54.2222 173.614 54.4577 173.848 54.4315 174.135Z" fill="#EF6238"/>
<path d="M54.4847 180.392L54.6155 182.661V182.687C54.6417 182.974 54.4062 183.208 54.1445 183.208C53.8566 183.234 53.6211 183.026 53.6211 182.739L53.4903 180.445C53.4641 180.158 53.6996 179.923 53.9613 179.923C54.223 179.897 54.4847 180.106 54.4847 180.392Z" fill="#EF6238"/>
<path d="M55.0074 186.624L55.3214 188.866C55.3476 189.153 55.1644 189.387 54.8766 189.439C54.5887 189.465 54.3532 189.283 54.3009 188.996L53.9869 186.728C53.9607 186.441 54.1439 186.206 54.4317 186.154C54.7196 186.154 54.9551 186.337 55.0074 186.624Z" fill="#EF6238"/>
<path d="M55.976 192.803L56.447 195.019C56.4994 195.28 56.3162 195.541 56.0545 195.619C55.7928 195.671 55.5311 195.488 55.4526 195.228L54.9816 192.985C54.9293 192.725 55.1124 192.438 55.3741 192.386C55.662 192.334 55.9237 192.516 55.976 192.803Z" fill="#EF6238"/>
<path d="M57.3881 198.904L58.0162 201.094C58.0947 201.354 57.9377 201.641 57.676 201.719C57.4143 201.798 57.1264 201.641 57.0741 201.38L56.4461 199.164C56.3676 198.904 56.5246 198.617 56.7862 198.539C57.0218 198.46 57.3096 198.617 57.3881 198.904Z" fill="#EF6238"/>
<path d="M59.2216 204.874L60.0066 207.012C60.1113 207.273 59.9804 207.559 59.7188 207.638C59.4571 207.742 59.1692 207.612 59.0907 207.351L58.3057 205.187C58.201 204.926 58.3318 204.639 58.5935 204.561C58.8552 204.483 59.1431 204.613 59.2216 204.874Z" fill="#EF6238"/>
<path d="M61.5241 210.714L62.4661 212.8C62.5708 213.035 62.4661 213.348 62.2306 213.452C61.9951 213.556 61.6811 213.452 61.5764 213.217L60.6343 211.131C60.5297 210.871 60.6343 210.584 60.8698 210.48C61.1054 210.323 61.3932 210.454 61.5241 210.714Z" fill="#EF6238"/>
<path d="M64.2182 216.345L65.2911 218.353C65.422 218.588 65.3173 218.874 65.0818 219.005C64.8462 219.135 64.5584 219.031 64.4276 218.796L63.3285 216.763C63.1976 216.528 63.3023 216.215 63.5378 216.111C63.7733 216.006 64.0874 216.111 64.2182 216.345Z" fill="#EF6238"/>
<path d="M67.3067 221.795L68.5104 223.724C68.6413 223.959 68.589 224.246 68.3534 224.402C68.1179 224.533 67.8301 224.481 67.6731 224.246L66.4431 222.29C66.3123 222.056 66.3646 221.769 66.6002 221.613C66.8618 221.482 67.1497 221.56 67.3067 221.795Z" fill="#EF6238"/>
<path d="M70.7357 227.035L72.0703 228.886C72.2273 229.095 72.175 229.408 71.9656 229.564C71.7563 229.721 71.4423 229.668 71.2853 229.46L69.9507 227.583C69.7937 227.374 69.846 227.061 70.0553 226.905C70.2909 226.748 70.5787 226.801 70.7357 227.035Z" fill="#EF6238"/>
<path d="M74.5032 232.041L75.9424 233.814C76.0994 234.023 76.0733 234.335 75.8639 234.492C75.6546 234.648 75.3406 234.622 75.1835 234.414L73.7181 232.641C73.5611 232.432 73.5873 232.119 73.7966 231.963C74.0321 231.806 74.3462 231.833 74.5032 232.041Z" fill="#EF6238"/>
<path d="M78.5581 236.838L80.102 238.533C80.2852 238.715 80.2591 239.028 80.0759 239.211C79.8927 239.393 79.5787 239.367 79.3955 239.185L77.8516 237.49C77.6684 237.307 77.6946 236.994 77.8777 236.812C78.0871 236.603 78.3749 236.629 78.5581 236.838Z" fill="#EF6238"/>
<path d="M82.8752 241.375L84.4976 242.965C84.6808 243.148 84.6808 243.46 84.4976 243.643C84.3144 243.825 84.0004 243.825 83.8172 243.643L82.1686 242.026C81.9855 241.844 81.9855 241.531 82.1686 241.349C82.378 241.192 82.692 241.192 82.8752 241.375Z" fill="#EF6238"/>
<path d="M87.4307 245.703L89.1316 247.215C89.3148 247.398 89.341 247.684 89.1578 247.893C88.9746 248.076 88.6868 248.102 88.4774 247.919L86.7503 246.381C86.5409 246.198 86.5409 245.912 86.7241 245.703C86.9335 245.547 87.2213 245.52 87.4307 245.703Z" fill="#EF6238"/>
<path d="M92.1934 249.822L93.9729 251.256C94.1822 251.413 94.2084 251.726 94.0514 251.908C93.8944 252.117 93.5803 252.143 93.3972 251.986L91.5915 250.552C91.3822 250.396 91.356 250.083 91.513 249.901C91.6701 249.666 91.9841 249.64 92.1934 249.822Z" fill="#EF6238"/>
<path d="M97.1389 253.707L98.9706 255.063C99.18 255.219 99.2323 255.506 99.0753 255.715C98.9183 255.923 98.6305 255.975 98.4211 255.819L96.5632 254.463C96.3538 254.307 96.3015 254.02 96.4585 253.811C96.6155 253.577 96.9033 253.551 97.1389 253.707Z" fill="#EF6238"/>
<path d="M102.242 257.383L104.126 258.66C104.335 258.817 104.388 259.104 104.257 259.312C104.1 259.521 103.812 259.573 103.603 259.443L101.692 258.165C101.483 258.009 101.431 257.722 101.562 257.513C101.719 257.279 102.006 257.226 102.242 257.383Z" fill="#EF6238"/>
<path d="M107.474 260.825L109.41 262.024C109.62 262.154 109.698 262.441 109.568 262.65C109.437 262.858 109.149 262.936 108.939 262.806L106.977 261.581C106.767 261.45 106.689 261.164 106.82 260.929C106.977 260.772 107.265 260.694 107.474 260.825Z" fill="#EF6238"/>
<path d="M112.866 264.084L114.854 265.231C115.064 265.361 115.142 265.648 115.038 265.857C114.907 266.065 114.619 266.143 114.41 266.039L112.421 264.892C112.211 264.762 112.133 264.475 112.238 264.266C112.342 264.032 112.63 263.953 112.866 264.084Z" fill="#EF6238"/>
<path d="M118.362 267.16L120.377 268.229C120.612 268.359 120.691 268.62 120.56 268.855C120.429 269.089 120.167 269.168 119.932 269.037L117.891 267.968C117.655 267.838 117.577 267.577 117.708 267.343C117.865 267.134 118.126 267.03 118.362 267.16Z" fill="#EF6238"/>
<path d="M123.962 270.028L126.029 271.018C126.265 271.123 126.343 271.41 126.238 271.618C126.134 271.853 125.846 271.931 125.637 271.827L123.569 270.836C123.334 270.732 123.255 270.445 123.36 270.236C123.465 270.002 123.726 269.923 123.962 270.028Z" fill="#EF6238"/>
<path d="M129.666 272.713L131.759 273.652C131.995 273.756 132.1 274.017 131.995 274.252C131.89 274.486 131.629 274.59 131.393 274.486L129.3 273.548C129.064 273.443 128.959 273.183 129.064 272.948C129.143 272.713 129.43 272.609 129.666 272.713Z" fill="#EF6238"/>
<path d="M135.449 275.216L137.569 276.077C137.804 276.181 137.909 276.442 137.804 276.676C137.7 276.911 137.438 277.015 137.202 276.911L135.083 276.051C134.847 275.946 134.743 275.686 134.847 275.451C134.926 275.242 135.187 275.112 135.449 275.216Z" fill="#EF6238"/>
<path d="M141.285 277.537L143.431 278.345C143.666 278.423 143.771 278.684 143.693 278.919C143.614 279.153 143.352 279.258 143.117 279.179L140.971 278.371C140.736 278.293 140.631 278.032 140.709 277.798C140.788 277.563 141.05 277.433 141.285 277.537Z" fill="#EF6238"/>
<path d="M147.225 279.675L149.397 280.405C149.633 280.483 149.764 280.744 149.685 280.978C149.607 281.213 149.345 281.343 149.11 281.265L146.938 280.535C146.702 280.457 146.571 280.196 146.65 279.962C146.728 279.701 146.99 279.597 147.225 279.675Z" fill="#EF6238"/>
<path d="M153.217 281.604L155.415 282.256C155.651 282.334 155.781 282.569 155.703 282.804C155.624 283.038 155.389 283.169 155.153 283.09L152.955 282.413C152.72 282.334 152.589 282.1 152.667 281.865C152.746 281.63 152.981 281.552 153.217 281.604Z" fill="#EF6238"/>
<path d="M159.262 283.377L161.486 283.976C161.722 284.028 161.853 284.289 161.8 284.524C161.748 284.758 161.486 284.889 161.251 284.837L159.027 284.237C158.791 284.185 158.66 283.924 158.713 283.689C158.765 283.455 159.027 283.325 159.262 283.377Z" fill="#EF6238"/>
<path d="M165.359 284.967L167.584 285.489C167.819 285.541 167.976 285.776 167.898 286.01C167.845 286.245 167.61 286.401 167.374 286.323L165.124 285.802C164.888 285.75 164.731 285.515 164.784 285.28C164.888 285.046 165.124 284.915 165.359 284.967Z" fill="#EF6238"/>
<path d="M171.508 286.349L173.759 286.792C173.994 286.844 174.151 287.079 174.099 287.314C174.046 287.548 173.811 287.705 173.575 287.653L171.325 287.209C171.089 287.157 170.932 286.922 170.985 286.688C171.037 286.453 171.273 286.297 171.508 286.349Z" fill="#EF6238"/>
<path d="M177.684 287.522L179.935 287.887C180.17 287.939 180.327 288.148 180.301 288.383C180.249 288.617 180.04 288.774 179.804 288.748L177.527 288.383C177.292 288.331 177.135 288.122 177.161 287.887C177.213 287.653 177.449 287.496 177.684 287.522Z" fill="#EF6238"/>
<path d="M183.914 288.513L186.191 288.826C186.426 288.852 186.583 289.086 186.557 289.321C186.531 289.556 186.295 289.712 186.06 289.686L183.783 289.373C183.548 289.347 183.391 289.113 183.417 288.878C183.469 288.643 183.679 288.461 183.914 288.513Z" fill="#EF6238"/>
<path d="M196.447 289.999L198.724 290.208C198.959 290.234 199.142 290.442 199.116 290.677C199.09 290.912 198.881 291.094 198.645 291.068L196.342 290.859C196.107 290.833 195.924 290.625 195.95 290.39C196.002 290.155 196.185 289.999 196.447 289.999Z" fill="#EF6238"/>
<path d="M202.727 290.521L205.004 290.677C205.24 290.703 205.423 290.885 205.397 291.12C205.37 291.355 205.187 291.537 204.952 291.511L202.649 291.355C202.413 291.329 202.23 291.146 202.256 290.912C202.283 290.703 202.492 290.521 202.727 290.521Z" fill="#EF6238"/>
<path d="M209.008 290.912L211.311 291.016C211.546 291.016 211.729 291.225 211.703 291.459C211.703 291.694 211.494 291.876 211.258 291.85L208.956 291.746C208.72 291.746 208.537 291.537 208.563 291.303C208.589 291.068 208.772 290.886 209.008 290.912Z" fill="#EF6238"/>
<path d="M215.315 291.094L217.618 291.12C217.854 291.12 218.037 291.303 218.037 291.537C218.037 291.772 217.854 291.955 217.618 291.955L215.315 291.929C215.08 291.929 214.896 291.746 214.896 291.511C214.896 291.277 215.08 291.094 215.315 291.094Z" fill="#EF6238"/>
<path d="M221.622 291.146L223.925 291.12C224.16 291.12 224.343 291.303 224.343 291.537C224.343 291.772 224.16 291.954 223.925 291.954L221.622 291.981C221.386 291.981 221.203 291.798 221.203 291.563C221.203 291.329 221.386 291.146 221.622 291.146Z" fill="#EF6238"/>
<path d="M227.928 291.016L230.231 290.912C230.467 290.912 230.65 291.068 230.65 291.303C230.65 291.537 230.493 291.72 230.257 291.72L227.954 291.824C227.719 291.824 227.536 291.668 227.536 291.433C227.51 291.198 227.693 291.016 227.928 291.016Z" fill="#EF6238"/>
<path d="M234.208 290.703L236.484 290.546C236.72 290.52 236.903 290.703 236.929 290.938C236.955 291.172 236.772 291.355 236.537 291.381L234.234 291.537C233.998 291.563 233.815 291.381 233.789 291.146C233.815 290.911 233.972 290.703 234.208 290.703Z" fill="#EF6238"/>
<path d="M240.488 290.208L242.765 289.973C243 289.947 243.183 290.103 243.21 290.338C243.236 290.573 243.079 290.755 242.843 290.781L240.567 291.016C240.331 291.042 240.148 290.886 240.122 290.651C240.095 290.416 240.279 290.234 240.488 290.208Z" fill="#EF6238"/>
<path d="M246.768 289.53L249.045 289.243C249.254 289.217 249.464 289.373 249.49 289.582C249.516 289.791 249.359 289.999 249.15 290.025L246.873 290.312C246.637 290.338 246.454 290.182 246.428 289.973C246.376 289.764 246.533 289.556 246.768 289.53Z" fill="#EF6238"/>
<path d="M252.997 288.67L255.248 288.305C255.457 288.278 255.666 288.409 255.719 288.643C255.745 288.852 255.614 289.061 255.379 289.113L253.102 289.478C252.893 289.504 252.683 289.373 252.631 289.139C252.631 288.93 252.788 288.722 252.997 288.67Z" fill="#EF6238"/>
<path d="M259.226 287.626L261.476 287.209C261.686 287.157 261.895 287.314 261.947 287.522C262 287.731 261.843 287.939 261.633 287.991L259.383 288.409C259.174 288.461 258.964 288.304 258.912 288.096C258.86 287.887 258.99 287.679 259.226 287.626Z" fill="#EF6238"/>
<path d="M265.402 286.401L267.626 285.906C267.835 285.854 268.045 285.984 268.097 286.219C268.149 286.427 268.018 286.636 267.783 286.688L265.532 287.183C265.323 287.236 265.114 287.105 265.061 286.871C265.035 286.662 265.192 286.453 265.402 286.401Z" fill="#EF6238"/>
<path d="M102.295 340.735C102.295 340.735 101.143 342.351 100.646 347.044C100.594 347.488 100.934 347.879 101.379 347.905L109.726 348.322C110.067 348.348 110.328 348.035 110.224 347.696C109.805 346.236 108.496 342.638 105.304 340.448L102.295 340.735Z" fill="#222222"/>
<path d="M101.168 338.18L102.084 342.065C102.162 342.404 102.45 342.638 102.817 342.638C103.288 342.638 103.942 342.612 104.57 342.43C105.146 342.273 105.512 341.7 105.433 341.126L105.015 337.346L101.168 338.18Z" fill="url(#paint22_linear_335_495)"/>
<path d="M121.37 341.021C121.37 341.021 119.695 343.446 119.591 346.836C119.564 347.644 120.219 348.296 121.03 348.322L134.009 348.765C134.611 348.791 134.899 348.009 134.402 347.644C131.994 345.845 127.284 342.455 123.83 341.074L121.37 341.021Z" fill="#222222"/>
<path d="M121.057 336.876L121.397 341.856C121.423 342.403 121.92 342.847 122.47 342.795C122.81 342.769 123.229 342.69 123.673 342.482C124.092 342.299 124.354 341.856 124.354 341.387L124.118 335.39L121.057 336.876Z" fill="url(#paint23_linear_335_495)"/>
<path d="M95.2024 271.279C95.2024 271.279 92.0622 274.747 91.8267 278.501C91.5912 282.256 100.881 341.882 100.881 341.882C100.881 341.882 104.44 342.065 106.115 340.787C106.115 340.787 103.838 301.679 104.44 292.502C104.44 292.502 117.498 331.819 120.664 338.832C120.664 338.832 124.066 338.858 125.087 338.102C125.087 338.102 116.948 286.166 113.102 277.198L95.2024 271.279Z" fill="#222222"/>
<path d="M104.151 291.303C103.968 291.303 103.811 291.199 103.759 291.016L101.692 285.671L98.4206 284.055C98.2112 283.951 98.1066 283.69 98.2374 283.481C98.3421 283.273 98.6038 283.168 98.8131 283.299L102.241 284.993C102.346 285.046 102.424 285.124 102.451 285.228L104.57 290.729C104.649 290.938 104.544 291.199 104.335 291.277C104.256 291.277 104.204 291.303 104.151 291.303Z" fill="#414141"/>
<path d="M125.689 232.797C110.878 233.24 107.371 236.682 107.371 236.682L115.693 246.98C115.693 246.98 130.085 245.077 139.532 235.978C137.36 234.127 135.764 231.989 134.691 230.294C132.153 231.702 129.143 232.693 125.689 232.797Z" fill="#DA5731"/>
<path d="M146.258 208.759C146.179 208.289 145.525 208.237 145.394 208.68L143.981 212.878C143.693 213.686 143.693 214.573 143.929 215.381L144.845 217.623C145.159 218.744 145.002 219.917 144.374 220.908C142.908 223.255 139.663 227.583 134.691 230.32C135.764 232.015 137.361 234.153 139.533 236.004C142.987 232.667 145.787 228.365 146.964 222.811C147.776 222.446 148.273 221.586 148.142 220.7L146.258 208.759Z" fill="url(#paint24_linear_335_495)"/>
<path d="M131.262 238.689C125.478 233.709 115.351 232.328 109.516 231.936C106.977 231.754 104.674 233.423 104.046 235.899C102.267 243.069 97.2949 261.711 96.3005 264.944C95.4893 267.577 94.5996 270.184 94.0239 271.801C93.6837 272.765 94.2071 273.834 95.1753 274.173C100.226 275.946 109.149 277.563 112.76 278.188C113.546 278.319 114.252 277.667 114.174 276.859C114.095 276.181 114.2 275.503 114.488 274.877L125.243 251.386C134.533 259.573 141.86 259.599 147.198 256.992C145.942 254.228 145 251.412 144.372 248.544C136.024 248.075 131.262 238.689 131.262 238.689Z" fill="#EF6238"/>
<path d="M157.771 245.494L156.07 243.695C151.648 247.501 147.723 248.753 144.373 248.544C145.001 251.386 145.943 254.202 147.199 256.992C154.212 253.524 157.771 245.494 157.771 245.494Z" fill="url(#paint25_linear_335_495)"/>
<path d="M156.724 245.65L165.098 245.025L172.295 239.888C171.117 239.315 165.046 241.427 165.046 241.427C165.046 241.427 158.425 241.166 156.646 241.374C155.18 241.531 155.625 243.617 155.808 244.321C155.861 244.451 155.887 244.555 155.887 244.555L156.724 245.65Z" fill="url(#paint26_linear_335_495)"/>
<path d="M116.216 220.856L113.023 232.041C113.023 232.041 118.466 234.961 122.496 234.179L123.595 224.297L116.216 220.856Z" fill="url(#paint27_linear_335_495)"/>
<path d="M122.812 212.748C122.917 212.878 127.261 223.62 127.261 223.62L121.032 225.966L115.406 216.372C115.432 216.372 120.849 210.531 122.812 212.748Z" fill="url(#paint28_linear_335_495)"/>
<path d="M118.022 217.649L120.586 222.916C120.612 222.994 120.665 223.046 120.717 223.098C121.031 223.437 122.156 224.558 123.229 223.307C124.198 222.186 125.087 221.169 126.003 220.908C126.422 220.778 126.841 220.986 126.998 221.377C127.39 222.342 128.227 224.584 128.672 226.618C128.751 227.035 128.515 227.452 128.097 227.556C126.867 227.921 124.276 228.651 122.052 228.756C121.738 228.756 121.476 228.625 121.319 228.365C120.56 227.113 118.231 223.281 117.42 222.316C116.661 221.403 115.065 221.612 114.411 221.742C114.201 221.795 113.966 221.742 113.782 221.612C113.128 221.169 111.872 219.996 113.259 218.249C113.547 217.884 113.495 217.362 113.102 217.075C112.369 216.528 111.506 215.485 112.474 213.973C113.468 212.435 114.986 212.487 115.954 212.721C116.347 212.826 116.74 212.617 116.897 212.252C117.001 212.044 117.184 211.887 117.525 211.861C117.996 211.861 118.362 211.418 118.283 210.949C118.153 210.036 118.362 208.863 119.88 208.211C122.575 207.038 124.616 209.515 125.035 211.522C125.427 213.504 122.444 214.625 120.612 214.703C119.226 214.755 118.362 216.241 118.022 216.945C117.891 217.154 117.891 217.414 118.022 217.649Z" fill="#222222"/>
<path d="M118.362 224.272C118.362 224.272 117.524 220.83 116.033 220.83C114.567 220.83 113.285 222.186 114.934 223.959C117.027 226.175 118.362 224.272 118.362 224.272Z" fill="url(#paint29_linear_335_495)"/>
<path d="M212.777 222.551L194.564 231.493C193.151 232.197 192.156 233.527 191.947 235.091L189.016 255.088C188.44 258.999 183.599 260.564 180.825 257.722L166.694 243.226C165.595 242.105 163.999 241.583 162.455 241.844L142.462 245.233C138.537 245.911 135.554 241.792 137.412 238.298L146.859 220.413C147.591 219.031 147.591 217.362 146.859 215.954L137.438 198.043C135.58 194.549 138.589 190.456 142.489 191.108L162.481 194.549C164.025 194.81 165.621 194.315 166.72 193.167L180.904 178.697C183.678 175.856 188.519 177.42 189.068 181.357L191.973 201.354C192.208 202.918 193.177 204.248 194.59 204.952L212.777 213.921C216.336 215.746 216.336 220.804 212.777 222.551Z" fill="#EF6238"/>
<path d="M196.295 322.063L196.295 322.06L194.071 292.398C194.071 292.397 194.071 292.395 194.071 292.394C193.943 290.527 194.568 288.727 195.814 287.402C197.082 286.053 198.862 285.268 200.687 285.268H325.039C328.612 285.268 331.366 288.171 331.39 291.88V317.166C331.39 320.741 328.678 323.623 325.143 323.749L325.142 323.749L203.146 328.155C203.146 328.155 203.145 328.155 203.145 328.155C199.572 328.283 196.55 325.576 196.295 322.063Z" fill="#FBFBFB" stroke="#EF6238" stroke-width="3"/>
<path d="M223.139 318.652L219.214 316.957C218.9 316.827 218.559 316.853 218.272 317.035L214.66 319.304C213.954 319.747 213.038 319.199 213.116 318.365L213.509 314.141C213.535 313.802 213.404 313.49 213.143 313.281L209.872 310.543C209.243 310.022 209.479 308.979 210.29 308.797L214.451 307.858C214.765 307.78 215.053 307.571 215.158 307.258L216.754 303.321C217.068 302.539 218.141 302.461 218.559 303.191L220.731 306.841C220.888 307.128 221.202 307.31 221.543 307.337L225.808 307.623C226.645 307.675 227.038 308.666 226.488 309.292L223.662 312.473C223.453 312.733 223.348 313.072 223.453 313.385L224.5 317.505C224.709 318.287 223.898 318.965 223.139 318.652Z" fill="#EF6238"/>
<path d="M214.242 312.994C214.137 312.812 213.98 312.629 213.823 312.499L211.678 310.726C211.442 310.543 211.364 310.257 211.416 309.97C211.494 309.683 211.704 309.474 211.992 309.396L214.713 308.797C215.341 308.666 215.865 308.197 216.126 307.597L217.173 305.016C217.278 304.755 217.539 304.573 217.827 304.547C218.115 304.521 218.403 304.677 218.534 304.912L219.266 306.137L219.083 306.241L218.351 305.016C218.246 304.834 218.063 304.729 217.827 304.755C217.618 304.781 217.435 304.886 217.356 305.094L216.309 307.675C216.048 308.353 215.446 308.849 214.739 309.005L212.018 309.605C211.808 309.657 211.651 309.813 211.599 309.996C211.547 310.204 211.625 310.413 211.782 310.543L213.928 312.316C214.111 312.473 214.268 312.655 214.399 312.864L214.242 312.994Z" fill="#EF6238"/>
<path d="M215 317.792C214.87 317.792 214.713 317.766 214.608 317.687C214.346 317.531 214.215 317.27 214.242 316.957L214.451 314.845L214.66 314.871L214.451 316.983C214.425 317.192 214.529 317.374 214.713 317.505C214.896 317.609 215.105 317.609 215.288 317.505L217.643 316.019C218.245 315.628 219.03 315.575 219.685 315.862L222.249 316.957C222.432 317.035 222.668 317.009 222.825 316.879C222.982 316.749 223.06 316.54 223.008 316.332L222.328 313.646C222.144 312.942 222.328 312.212 222.799 311.665L224.63 309.579C224.761 309.422 224.814 309.214 224.735 309.005C224.657 308.797 224.473 308.692 224.264 308.666L221.49 308.484C221.202 308.458 220.915 308.38 220.679 308.275L220.784 308.093C221.019 308.197 221.255 308.275 221.516 308.301L224.29 308.484C224.578 308.51 224.84 308.692 224.944 308.953C225.049 309.214 224.997 309.527 224.814 309.735L222.982 311.821C222.563 312.316 222.38 312.968 222.537 313.62L223.217 316.305C223.296 316.592 223.191 316.879 222.982 317.062C222.746 317.244 222.458 317.296 222.197 317.192L219.632 316.097C219.03 315.836 218.35 315.888 217.8 316.227L215.445 317.713C215.288 317.765 215.131 317.792 215 317.792Z" fill="#EF6238"/>
<path d="M245.801 318.652L241.876 316.957C241.562 316.827 241.222 316.853 240.934 317.035L237.322 319.304C236.616 319.747 235.7 319.199 235.779 318.365L236.171 314.141C236.197 313.802 236.066 313.49 235.805 313.281L232.534 310.543C231.906 310.022 232.141 308.979 232.952 308.797L237.113 307.858C237.427 307.78 237.715 307.571 237.82 307.258L239.416 303.321C239.73 302.539 240.803 302.461 241.222 303.191L243.394 306.841C243.551 307.128 243.865 307.31 244.205 307.337L248.47 307.623C249.308 307.675 249.7 308.666 249.151 309.292L246.324 312.473C246.115 312.733 246.01 313.072 246.115 313.385L247.162 317.505C247.397 318.287 246.56 318.965 245.801 318.652Z" fill="#EF6238"/>
<path d="M236.904 312.994C236.8 312.812 236.643 312.629 236.485 312.499L234.34 310.726C234.104 310.543 234.026 310.257 234.078 309.97C234.157 309.683 234.366 309.474 234.654 309.396L237.375 308.797C238.003 308.666 238.527 308.197 238.788 307.597L239.835 305.016C239.94 304.755 240.201 304.573 240.489 304.547C240.777 304.521 241.065 304.677 241.196 304.912L241.929 306.137L241.745 306.241L241.013 305.016C240.908 304.834 240.699 304.729 240.489 304.755C240.28 304.781 240.097 304.886 240.018 305.094L238.971 307.675C238.71 308.353 238.108 308.849 237.401 309.005L234.68 309.605C234.471 309.657 234.314 309.813 234.261 309.996C234.209 310.204 234.287 310.413 234.444 310.543L236.59 312.316C236.773 312.473 236.93 312.655 237.061 312.864L236.904 312.994Z" fill="#EF6238"/>
<path d="M237.663 317.792C237.532 317.792 237.375 317.766 237.27 317.687C237.008 317.531 236.878 317.27 236.904 316.957L237.113 314.845L237.322 314.871L237.113 316.983C237.087 317.192 237.192 317.374 237.375 317.505C237.558 317.609 237.767 317.609 237.95 317.505L240.306 316.019C240.907 315.628 241.692 315.575 242.347 315.862L244.911 316.957C245.094 317.035 245.33 317.009 245.487 316.879C245.644 316.749 245.722 316.54 245.67 316.332L244.99 313.646C244.807 312.942 244.99 312.212 245.461 311.665L247.293 309.579C247.423 309.422 247.476 309.214 247.397 309.005C247.319 308.797 247.136 308.692 246.926 308.666L244.152 308.484C243.864 308.458 243.577 308.38 243.341 308.275L243.446 308.093C243.681 308.197 243.917 308.275 244.178 308.301L246.952 308.484C247.24 308.51 247.502 308.692 247.607 308.953C247.711 309.214 247.659 309.527 247.476 309.735L245.644 311.821C245.225 312.316 245.042 312.968 245.199 313.62L245.879 316.305C245.958 316.592 245.853 316.879 245.644 317.062C245.408 317.244 245.121 317.296 244.859 317.192L242.294 316.097C241.693 315.836 241.012 315.888 240.463 316.227L238.107 317.713C237.95 317.765 237.82 317.792 237.663 317.792Z" fill="#EF6238"/>
<path d="M268.699 318.652L264.774 316.957C264.46 316.827 264.12 316.853 263.832 317.035L260.221 319.304C259.514 319.747 258.598 319.199 258.677 318.365L259.069 314.141C259.096 313.802 258.965 313.49 258.703 313.281L255.432 310.543C254.804 310.022 255.04 308.979 255.851 308.797L260.012 307.858C260.326 307.78 260.613 307.571 260.718 307.258L262.314 303.321C262.628 302.539 263.701 302.461 264.12 303.191L266.292 306.841C266.449 307.128 266.763 307.31 267.103 307.337L271.369 307.623C272.206 307.675 272.599 308.666 272.049 309.292L269.223 312.473C269.013 312.733 268.909 313.072 269.013 313.385L270.06 317.505C270.27 318.287 269.458 318.965 268.699 318.652Z" fill="#EF6238"/>
<path d="M259.803 312.994C259.698 312.812 259.541 312.629 259.384 312.499L257.238 310.726C257.003 310.543 256.924 310.257 256.976 309.97C257.055 309.683 257.264 309.474 257.552 309.396L260.274 308.797C260.902 308.666 261.425 308.197 261.687 307.597L262.733 305.016C262.838 304.755 263.1 304.573 263.388 304.547C263.676 304.521 263.963 304.677 264.094 304.912L264.827 306.137L264.644 306.241L263.911 305.016C263.806 304.834 263.623 304.729 263.388 304.755C263.178 304.781 262.995 304.886 262.917 305.094L261.87 307.675C261.608 308.353 261.006 308.849 260.3 309.005L257.578 309.605C257.369 309.657 257.212 309.813 257.16 309.996C257.107 310.204 257.186 310.413 257.343 310.543L259.489 312.316C259.672 312.473 259.829 312.655 259.96 312.864L259.803 312.994Z" fill="#EF6238"/>
<path d="M260.561 317.792C260.43 317.792 260.273 317.766 260.168 317.687C259.907 317.531 259.776 317.27 259.802 316.957L260.011 314.845L260.221 314.871L260.011 316.983C259.985 317.192 260.09 317.374 260.273 317.505C260.456 317.609 260.666 317.609 260.849 317.505L263.204 316.019C263.806 315.628 264.591 315.575 265.245 315.862L267.81 316.957C267.993 317.035 268.228 317.009 268.385 316.879C268.542 316.749 268.621 316.54 268.569 316.332L267.888 313.646C267.705 312.942 267.888 312.212 268.359 311.665L270.191 309.579C270.322 309.422 270.374 309.214 270.296 309.005C270.217 308.797 270.034 308.692 269.825 308.666L267.051 308.484C266.763 308.458 266.475 308.38 266.24 308.275L266.344 308.093C266.58 308.197 266.815 308.275 267.077 308.301L269.851 308.484C270.139 308.51 270.4 308.692 270.505 308.953C270.61 309.214 270.557 309.527 270.374 309.735L268.542 311.821C268.124 312.316 267.94 312.968 268.097 313.62L268.778 316.305C268.856 316.592 268.752 316.879 268.542 317.062C268.307 317.244 268.019 317.296 267.757 317.192L265.193 316.097C264.591 315.836 263.911 315.888 263.361 316.227L261.006 317.713C260.849 317.765 260.692 317.792 260.561 317.792Z" fill="#EF6238"/>
<path d="M291.961 318.652L288.036 316.957C287.722 316.827 287.382 316.853 287.094 317.035L283.483 319.304C282.776 319.747 281.86 319.199 281.939 318.365L282.331 314.141C282.357 313.802 282.227 313.49 281.965 313.281L278.694 310.543C278.066 310.022 278.301 308.979 279.112 308.797L283.273 307.858C283.587 307.78 283.875 307.571 283.98 307.258L285.576 303.321C285.89 302.539 286.963 302.461 287.382 303.191L289.554 306.841C289.711 307.128 290.025 307.31 290.365 307.337L294.63 307.623C295.468 307.675 295.86 308.666 295.311 309.292L292.485 312.473C292.275 312.733 292.171 313.072 292.275 313.385L293.322 317.505C293.557 318.287 292.746 318.965 291.961 318.652Z" fill="#EF6238"/>
<path d="M283.064 312.994C282.96 312.812 282.803 312.629 282.646 312.499L280.5 310.726C280.264 310.543 280.186 310.257 280.238 309.97C280.317 309.683 280.526 309.474 280.814 309.396L283.535 308.797C284.163 308.666 284.687 308.197 284.948 307.597L285.995 305.016C286.1 304.755 286.362 304.573 286.649 304.547C286.937 304.521 287.225 304.677 287.356 304.912L288.089 306.137L287.905 306.241L287.173 305.016C287.068 304.834 286.859 304.729 286.649 304.755C286.44 304.781 286.257 304.886 286.178 305.094L285.132 307.675C284.87 308.353 284.268 308.849 283.562 309.005L280.84 309.605C280.631 309.657 280.474 309.813 280.421 309.996C280.369 310.204 280.448 310.413 280.605 310.543L282.75 312.316C282.933 312.473 283.091 312.655 283.221 312.864L283.064 312.994Z" fill="#EF6238"/>
<path d="M283.848 317.792C283.717 317.792 283.56 317.766 283.456 317.687C283.194 317.531 283.063 317.27 283.089 316.957L283.299 314.845L283.508 314.871L283.299 316.983C283.272 317.192 283.377 317.374 283.56 317.505C283.743 317.609 283.953 317.609 284.136 317.505L286.491 316.019C287.093 315.628 287.878 315.575 288.532 315.862L291.097 316.957C291.28 317.035 291.515 317.009 291.672 316.879C291.829 316.749 291.908 316.54 291.856 316.332L291.175 313.646C290.992 312.942 291.175 312.212 291.646 311.665L293.478 309.579C293.609 309.422 293.661 309.214 293.583 309.005C293.504 308.797 293.321 308.692 293.112 308.666L290.338 308.484C290.05 308.458 289.762 308.38 289.527 308.275L289.631 308.093C289.867 308.197 290.102 308.275 290.364 308.301L293.138 308.484C293.426 308.51 293.687 308.692 293.792 308.953C293.897 309.214 293.844 309.527 293.661 309.735L291.829 311.821C291.411 312.316 291.228 312.968 291.385 313.62L292.065 316.305C292.143 316.592 292.039 316.879 291.829 317.062C291.594 317.244 291.306 317.296 291.044 317.192L288.48 316.097C287.878 315.836 287.198 315.888 286.648 316.227L284.293 317.713C284.11 317.765 283.979 317.792 283.848 317.792Z" fill="#EF6238"/>
<path d="M315.25 318.652L311.325 316.957C311.011 316.827 310.671 316.853 310.383 317.035L306.772 319.304C306.065 319.747 305.149 319.199 305.228 318.365L305.62 314.141C305.646 313.802 305.516 313.49 305.254 313.281L301.983 310.543C301.355 310.022 301.59 308.979 302.402 308.797L306.562 307.858C306.876 307.78 307.164 307.571 307.269 307.258L308.865 303.321C309.179 302.539 310.252 302.461 310.671 303.191L312.843 306.841C313 307.128 313.314 307.31 313.654 307.337L317.919 307.623C318.757 307.675 319.149 308.666 318.6 309.292L315.774 312.473C315.564 312.733 315.46 313.072 315.564 313.385L316.611 317.505C316.82 318.287 316.009 318.965 315.25 318.652Z" fill="#EF6238"/>
<path d="M306.326 312.994C306.221 312.812 306.064 312.629 305.907 312.499L303.762 310.726C303.526 310.543 303.448 310.257 303.5 309.97C303.578 309.683 303.788 309.474 304.076 309.396L306.797 308.797C307.425 308.666 307.948 308.197 308.21 307.597L309.257 305.016C309.362 304.755 309.623 304.573 309.911 304.547C310.199 304.521 310.487 304.677 310.618 304.912L311.35 306.137L311.167 306.241L310.434 305.016C310.33 304.834 310.12 304.729 309.911 304.755C309.702 304.781 309.519 304.886 309.44 305.094L308.393 307.675C308.132 308.353 307.53 308.849 306.823 309.005L304.102 309.605C303.892 309.657 303.735 309.813 303.683 309.996C303.631 310.204 303.709 310.413 303.866 310.543L306.012 312.316C306.195 312.473 306.352 312.655 306.483 312.864L306.326 312.994Z" fill="#EF6238"/>
<path d="M307.112 317.792C306.981 317.792 306.824 317.766 306.719 317.687C306.458 317.531 306.327 317.27 306.353 316.957L306.562 314.845L306.772 314.871L306.562 316.983C306.536 317.192 306.641 317.374 306.824 317.505C307.007 317.609 307.216 317.609 307.4 317.505L309.755 316.019C310.357 315.628 311.142 315.575 311.796 315.862L314.36 316.957C314.544 317.035 314.779 317.009 314.936 316.879C315.093 316.749 315.172 316.54 315.119 316.332L314.439 313.646C314.256 312.942 314.439 312.212 314.91 311.665L316.742 309.579C316.873 309.422 316.925 309.214 316.846 309.005C316.768 308.797 316.585 308.692 316.375 308.666L313.602 308.484C313.314 308.458 313.026 308.38 312.79 308.275L312.895 308.093C313.131 308.197 313.366 308.275 313.628 308.301L316.402 308.484C316.689 308.51 316.951 308.692 317.056 308.953C317.16 309.214 317.108 309.527 316.925 309.735L315.093 311.821C314.674 312.316 314.491 312.968 314.648 313.62L315.329 316.305C315.407 316.592 315.302 316.879 315.093 317.062C314.858 317.244 314.57 317.296 314.308 317.192L311.744 316.097C311.142 315.836 310.461 315.888 309.912 316.227L307.557 317.713C307.4 317.765 307.243 317.792 307.112 317.792Z" fill="#EF6238"/>
<path d="M312.792 293.571C312.792 294.77 311.797 295.761 310.594 295.761H215.079C213.875 295.761 212.881 294.77 212.881 293.571V293.388C212.881 292.189 213.875 291.198 215.079 291.198H310.567C311.771 291.198 312.766 292.189 312.766 293.388V293.571H312.792Z" fill="#EF6238"/>
<path d="M405.977 269.715H529.518V250.839H405.977C408.62 250.839 408.62 269.715 405.977 269.715Z" fill="#FBFBFB"/>
<path d="M529.493 264.996V256.366C529.493 253.315 527.059 250.865 524.05 250.865H406.501C404.146 250.865 402.21 249.405 402.21 247.58C402.21 247.032 402.785 246.589 403.518 246.589H532.005C534.962 246.589 539.62 250.135 539.62 254.489V266.56C539.62 270.679 535.067 274.017 532.293 274.017H404.172C403.073 274.017 402.184 273.339 402.184 272.504C402.184 270.992 403.806 269.741 405.795 269.741H524.809C527.399 269.715 529.493 267.603 529.493 264.996Z" fill="#222222"/>
<path d="M526.065 255.271H410.244C409.93 255.271 409.668 255.01 409.668 254.697C409.668 254.384 409.93 254.124 410.244 254.124H526.065C526.379 254.124 526.641 254.384 526.641 254.697C526.641 255.036 526.405 255.271 526.065 255.271Z" fill="#DDDDDD"/>
<path d="M526.065 258.087H410.244C409.93 258.087 409.668 257.826 409.668 257.513C409.668 257.2 409.93 256.939 410.244 256.939H526.065C526.379 256.939 526.641 257.2 526.641 257.513C526.641 257.826 526.405 258.087 526.065 258.087Z" fill="#DDDDDD"/>
<path d="M526.065 260.876H410.244C409.93 260.876 409.668 260.615 409.668 260.303C409.668 259.99 409.93 259.729 410.244 259.729H526.065C526.379 259.729 526.641 259.99 526.641 260.303C526.641 260.642 526.405 260.876 526.065 260.876Z" fill="#DDDDDD"/>
<path d="M526.065 263.692H410.244C409.93 263.692 409.668 263.431 409.668 263.119C409.668 262.806 409.93 262.545 410.244 262.545H526.065C526.379 262.545 526.641 262.806 526.641 263.119C526.641 263.431 526.405 263.692 526.065 263.692Z" fill="#DDDDDD"/>
<path d="M526.065 266.482H410.244C409.93 266.482 409.668 266.221 409.668 265.908C409.668 265.595 409.93 265.334 410.244 265.334H526.065C526.379 265.334 526.641 265.595 526.641 265.908C526.641 266.247 526.405 266.482 526.065 266.482Z" fill="#DDDDDD"/>
<path d="M540.064 347.436H353.876C351.129 347.436 348.904 345.219 348.904 342.482V315.471C348.904 312.734 351.129 310.518 353.876 310.518H540.064C542.812 310.518 545.036 312.734 545.036 315.471V342.508C545.036 345.245 542.812 347.436 540.064 347.436Z" fill="#222222"/>
<path d="M392.343 343.212H372.873C371.879 343.212 371.094 342.404 371.094 341.439V316.566C371.094 315.576 371.905 314.793 372.873 314.793H392.343C393.337 314.793 394.122 315.602 394.122 316.566V341.439C394.122 342.404 393.311 343.212 392.343 343.212Z" fill="#3C3B3B"/>
<path d="M541.686 276.024V282.386C541.686 283.481 541.058 284.524 539.933 285.228L538.834 285.932C537.944 286.505 538.127 287.574 539.2 287.965C539.906 288.226 540.037 288.93 539.462 289.321L538.075 290.234C537.159 290.833 537.159 291.876 538.075 292.476L539.069 293.128C539.933 293.701 539.906 294.692 539.017 295.239L537.944 295.891C537.211 296.361 537.08 297.169 537.656 297.716L538.232 298.29C538.65 298.707 538.886 299.202 538.886 299.724V309.762H394.279V275.373L541.686 276.024Z" fill="#FBFBFB"/>
<path d="M399.278 283.403H536.61C536.898 283.403 537.159 283.22 537.159 283.012C537.159 282.777 536.924 282.621 536.61 282.621H399.278C398.99 282.621 398.729 282.803 398.729 283.012C398.755 283.22 398.99 283.403 399.278 283.403Z" fill="#EF6238"/>
<path d="M399.278 289.373H533.339C533.627 289.373 533.888 289.19 533.888 288.982C533.888 288.773 533.653 288.591 533.339 288.591H399.278C398.99 288.591 398.729 288.773 398.729 288.982C398.729 289.19 398.99 289.373 399.278 289.373Z" fill="url(#paint30_linear_335_495)"/>
<path d="M399.278 293.779H531.69C531.978 293.779 532.24 293.597 532.24 293.388C532.24 293.154 532.004 292.997 531.69 292.997H399.278C398.99 292.997 398.729 293.18 398.729 293.388C398.755 293.597 398.99 293.779 399.278 293.779Z" fill="url(#paint31_linear_335_495)"/>
<path d="M391.663 273.235H544.853C546.031 273.235 547.051 273.86 547.182 274.721C547.313 275.711 546.266 276.546 544.958 276.546H402.916C400.43 276.546 398.258 277.849 397.734 279.648C395.405 287.783 395.588 296.23 397.787 304.964C398.284 306.998 400.665 308.458 403.439 308.458H542.053C543.231 308.458 544.251 309.084 544.382 309.944C544.513 310.935 543.466 311.769 542.158 311.769H392.684C389.099 311.769 386.037 309.866 385.409 307.259C382.818 296.673 382.609 286.505 385.409 276.885C386.037 274.721 388.628 273.208 391.611 273.208H391.663V273.235Z" fill="#EF6238"/>
<path d="M149.525 38.7168L152.195 48.0766L157.402 42.2626L149.525 38.7168Z" fill="#EF6238"/>
<path d="M190.166 21.4312L171.141 50.7361C170.775 51.3097 170.199 51.6747 169.545 51.8051C168.891 51.9354 168.211 51.779 167.661 51.414L138.876 31.2864C138.536 31.0517 138.379 30.6606 138.483 30.2696C138.562 29.8785 138.902 29.5917 139.294 29.5135L190.166 21.4312Z" fill="#EF6238"/>
<path d="M149.525 38.7169L190.165 21.4312L154.183 42.002L154.811 44.6092L149.525 38.7169Z" fill="#D45833"/>
<path d="M156.932 43.9052L152.195 48.0767L154.184 42.002L156.932 43.9052Z" fill="#EF6238"/>
<defs>
<linearGradient id="paint0_linear_335_495" x1="262.64" y1="148.97" x2="281.281" y2="148.97" gradientUnits="userSpaceOnUse">
<stop stop-color="#DAE3FE"/>
<stop offset="1" stop-color="#E9EFFD"/>
</linearGradient>
<linearGradient id="paint1_linear_335_495" x1="273.527" y1="124.111" x2="275.947" y2="124.111" gradientUnits="userSpaceOnUse">
<stop stop-color="#DAE3FE"/>
<stop offset="1" stop-color="#E9EFFD"/>
</linearGradient>
<linearGradient id="paint2_linear_335_495" x1="321.465" y1="72.8856" x2="338.127" y2="72.8856" gradientUnits="userSpaceOnUse">
<stop stop-color="#FE7062"/>
<stop offset="1" stop-color="#FF928E"/>
</linearGradient>
<linearGradient id="paint3_linear_335_495" x1="312.459" y1="96.8748" x2="329.121" y2="96.8748" gradientUnits="userSpaceOnUse">
<stop stop-color="#FE7062"/>
<stop offset="1" stop-color="#FF928E"/>
</linearGradient>
<linearGradient id="paint4_linear_335_495" x1="302.761" y1="119.519" x2="319.424" y2="119.519" gradientUnits="userSpaceOnUse">
<stop stop-color="#FE7062"/>
<stop offset="1" stop-color="#FF928E"/>
</linearGradient>
<linearGradient id="paint5_linear_335_495" x1="396.199" y1="63.0376" x2="302.481" y2="139.542" gradientUnits="userSpaceOnUse">
<stop stop-color="#A737D5"/>
<stop offset="1" stop-color="#EF497A"/>
</linearGradient>
<linearGradient id="paint6_linear_335_495" x1="383.74" y1="6.03658" x2="394.805" y2="6.03658" gradientUnits="userSpaceOnUse">
<stop stop-color="#DAE3FE"/>
<stop offset="1" stop-color="#E9EFFD"/>
</linearGradient>
<linearGradient id="paint7_linear_335_495" x1="377.228" y1="12.7828" x2="379.905" y2="12.7828" gradientUnits="userSpaceOnUse">
<stop stop-color="#DAE3FE"/>
<stop offset="1" stop-color="#E9EFFD"/>
</linearGradient>
<linearGradient id="paint8_linear_335_495" x1="365.449" y1="11.2472" x2="376.873" y2="11.2472" gradientUnits="userSpaceOnUse">
<stop stop-color="#DAE3FE"/>
<stop offset="1" stop-color="#E9EFFD"/>
</linearGradient>
<linearGradient id="paint9_linear_335_495" x1="142.526" y1="178.64" x2="182.131" y2="178.64" gradientUnits="userSpaceOnUse">
<stop stop-color="#DAE3FE"/>
<stop offset="1" stop-color="#E9EFFD"/>
</linearGradient>
<linearGradient id="paint10_linear_335_495" x1="139.54" y1="193.418" x2="179.146" y2="193.418" gradientUnits="userSpaceOnUse">
<stop stop-color="#DAE3FE"/>
<stop offset="1" stop-color="#E9EFFD"/>
</linearGradient>
<linearGradient id="paint11_linear_335_495" x1="142.526" y1="210.725" x2="182.131" y2="210.725" gradientUnits="userSpaceOnUse">
<stop stop-color="#DAE3FE"/>
<stop offset="1" stop-color="#E9EFFD"/>
</linearGradient>
<linearGradient id="paint12_linear_335_495" x1="145.662" y1="229.935" x2="185.268" y2="229.935" gradientUnits="userSpaceOnUse">
<stop stop-color="#DAE3FE"/>
<stop offset="1" stop-color="#E9EFFD"/>
</linearGradient>
<linearGradient id="paint13_linear_335_495" x1="496.667" y1="241.519" x2="493.182" y2="241.125" gradientUnits="userSpaceOnUse">
<stop stop-color="#FF928E"/>
<stop offset="1" stop-color="#FEB3B1"/>
</linearGradient>
<linearGradient id="paint14_linear_335_495" x1="478.75" y1="238.568" x2="475.265" y2="238.42" gradientUnits="userSpaceOnUse">
<stop stop-color="#FF928E"/>
<stop offset="1" stop-color="#FEB3B1"/>
</linearGradient>
<linearGradient id="paint15_linear_335_495" x1="493.907" y1="191.862" x2="499.47" y2="191.862" gradientUnits="userSpaceOnUse">
<stop stop-color="#020039"/>
<stop offset="1" stop-color="#090056"/>
</linearGradient>
<linearGradient id="paint16_linear_335_495" x1="467.484" y1="134.274" x2="454.604" y2="132.817" gradientUnits="userSpaceOnUse">
<stop stop-color="#FF928E"/>
<stop offset="1" stop-color="#FEB3B1"/>
</linearGradient>
<linearGradient id="paint17_linear_335_495" x1="437.999" y1="133.797" x2="461.805" y2="171.503" gradientUnits="userSpaceOnUse">
<stop stop-color="#FF928E"/>
<stop offset="1" stop-color="#FEB3B1"/>
</linearGradient>
<linearGradient id="paint18_linear_335_495" x1="432.243" y1="137.43" x2="456.049" y2="175.137" gradientUnits="userSpaceOnUse">
<stop stop-color="#FF928E"/>
<stop offset="1" stop-color="#FEB3B1"/>
</linearGradient>
<linearGradient id="paint19_linear_335_495" x1="480.597" y1="137.909" x2="483.369" y2="148.691" gradientUnits="userSpaceOnUse">
<stop stop-color="#FF928E"/>
<stop offset="1" stop-color="#FEB3B1"/>
</linearGradient>
<linearGradient id="paint20_linear_335_495" x1="497.342" y1="126.8" x2="476.064" y2="131.001" gradientUnits="userSpaceOnUse">
<stop stop-color="#FF928E"/>
<stop offset="1" stop-color="#FEB3B1"/>
</linearGradient>
<linearGradient id="paint21_linear_335_495" x1="497.931" y1="129.78" x2="476.653" y2="133.981" gradientUnits="userSpaceOnUse">
<stop stop-color="#FF928E"/>
<stop offset="1" stop-color="#FEB3B1"/>
</linearGradient>
<linearGradient id="paint22_linear_335_495" x1="101.401" y1="340.276" x2="105.28" y2="339.838" gradientUnits="userSpaceOnUse">
<stop stop-color="#FF928E"/>
<stop offset="1" stop-color="#FEB3B1"/>
</linearGradient>
<linearGradient id="paint23_linear_335_495" x1="120.795" y1="338.766" x2="124.641" y2="339.297" gradientUnits="userSpaceOnUse">
<stop stop-color="#FF928E"/>
<stop offset="1" stop-color="#FEB3B1"/>
</linearGradient>
<linearGradient id="paint24_linear_335_495" x1="133.885" y1="223.17" x2="148.222" y2="221.548" gradientUnits="userSpaceOnUse">
<stop stop-color="#FF928E"/>
<stop offset="1" stop-color="#FEB3B1"/>
</linearGradient>
<linearGradient id="paint25_linear_335_495" x1="166.706" y1="222.638" x2="140.208" y2="264.608" gradientUnits="userSpaceOnUse">
<stop stop-color="#FF928E"/>
<stop offset="1" stop-color="#FEB3B1"/>
</linearGradient>
<linearGradient id="paint26_linear_335_495" x1="173.112" y1="226.681" x2="146.613" y2="268.653" gradientUnits="userSpaceOnUse">
<stop stop-color="#FF928E"/>
<stop offset="1" stop-color="#FEB3B1"/>
</linearGradient>
<linearGradient id="paint27_linear_335_495" x1="129.224" y1="203.345" x2="105.582" y2="261.706" gradientUnits="userSpaceOnUse">
<stop stop-color="#FF928E"/>
<stop offset="1" stop-color="#FEB3B1"/>
</linearGradient>
<linearGradient id="paint28_linear_335_495" x1="120.913" y1="214.527" x2="122.662" y2="236.508" gradientUnits="userSpaceOnUse">
<stop stop-color="#FF928E"/>
<stop offset="1" stop-color="#FEB3B1"/>
</linearGradient>
<linearGradient id="paint29_linear_335_495" x1="115.599" y1="237.878" x2="116.293" y2="222.614" gradientUnits="userSpaceOnUse">
<stop stop-color="#FF928E"/>
<stop offset="1" stop-color="#FEB3B1"/>
</linearGradient>
<linearGradient id="paint30_linear_335_495" x1="398.746" y1="288.979" x2="533.903" y2="288.979" gradientUnits="userSpaceOnUse">
<stop stop-color="#FE7062"/>
<stop offset="1" stop-color="#FF928E"/>
</linearGradient>
<linearGradient id="paint31_linear_335_495" x1="398.746" y1="293.386" x2="532.236" y2="293.386" gradientUnits="userSpaceOnUse">
<stop stop-color="#FE7062"/>
<stop offset="1" stop-color="#FF928E"/>
</linearGradient>
</defs>
</svg>
