<svg width="485" height="266" viewBox="0 0 485 266" fill="none" xmlns="http://www.w3.org/2000/svg">
<g clip-path="url(#clip0_298_7129)">
<path d="M84.4494 22.0587C49.8734 50.9078 101.27 82.3952 77.0512 98.8526C52.8545 115.288 -54.4639 219.526 65.2575 240.676C206.042 265.546 177.254 282.133 249.888 241.087C322.521 200.019 314.949 204.15 378.77 225.365C442.613 246.58 504.562 204.236 479.147 159.708C453.732 115.159 439.74 116.543 462.74 85.8338C485.74 55.1248 434.823 -38.8402 352.832 28.7411C270.842 96.3224 258.679 59.9258 219.664 29.5196C198.535 13.0406 139.066 -23.529 84.4494 22.0587Z" fill="#EEF5F9"/>
<path d="M15.131 63.7475C14.9134 63.7475 14.7175 63.5962 14.6958 63.3799C14.587 62.796 14.5 62.1905 14.4129 61.6066C14.3694 61.3687 14.5435 61.1308 14.8046 61.1092C15.0439 61.0659 15.2833 61.2389 15.3051 61.4984C15.3921 62.0823 15.4791 62.6662 15.5879 63.2501C15.6315 63.488 15.4574 63.7259 15.218 63.7692C15.1963 63.7475 15.1745 63.7475 15.131 63.7475Z" fill="#222222"/>
<path d="M14.457 56.308C14.2176 56.308 14 56.1134 14 55.8755V55.5943C14 54.513 14.0435 53.4101 14.1088 52.3288C14.1306 52.0909 14.3482 51.8963 14.5875 51.9179C14.8269 51.9395 15.0227 52.1558 15.0009 52.3937C14.9139 53.4534 14.8921 54.5347 14.8921 55.5943V55.8755C14.9139 56.0917 14.7181 56.308 14.457 56.308ZM15.3491 47.1818C15.3273 47.1818 15.2838 47.1818 15.2621 47.1818C15.0227 47.1386 14.8704 46.9007 14.9139 46.6628C15.1533 45.5166 15.4361 44.3488 15.7408 43.2243C15.806 42.9864 16.0672 42.8566 16.2848 42.9215C16.5241 42.9864 16.6547 43.2243 16.5894 43.4621C16.2848 44.5651 16.0019 45.6896 15.7843 46.8358C15.7408 47.0304 15.5667 47.1818 15.3491 47.1818ZM18.069 38.4017C18.0038 38.4017 17.9602 38.38 17.895 38.3584C17.6774 38.2719 17.5686 37.9908 17.6556 37.7745C18.1126 36.6932 18.6348 35.6119 19.1788 34.5739C19.2876 34.3576 19.5705 34.2711 19.7881 34.3792C20.0057 34.4874 20.0927 34.7685 19.9839 34.9848C19.4399 36.0012 18.9394 37.0609 18.5042 38.1205C18.4172 38.3152 18.2431 38.4017 18.069 38.4017ZM22.5515 30.3784C22.4645 30.3784 22.3775 30.3568 22.2904 30.2919C22.0946 30.1405 22.0293 29.881 22.1816 29.6648C22.8562 28.7132 23.5742 27.7617 24.3358 26.8534C24.4881 26.6587 24.771 26.6371 24.9668 26.7885C25.1627 26.9399 25.1844 27.221 25.0321 27.4156C24.2923 28.3023 23.596 29.2322 22.9214 30.1838C22.8126 30.3135 22.6821 30.3784 22.5515 30.3784ZM28.5789 23.4365C28.4701 23.4365 28.3396 23.3932 28.2525 23.3067C28.0785 23.1337 28.1002 22.8526 28.2743 22.6795C29.1229 21.8794 30.0368 21.1008 30.9507 20.3439C31.1466 20.1926 31.4294 20.2142 31.5818 20.4088C31.7341 20.6034 31.7123 20.8846 31.5165 21.036C30.6243 21.7496 29.7322 22.5282 28.8836 23.3067C28.7965 23.3932 28.6877 23.4365 28.5789 23.4365ZM35.8902 17.8353C35.7379 17.8353 35.5855 17.7704 35.4985 17.6191C35.3679 17.4028 35.4332 17.1433 35.6508 17.0135C36.6518 16.408 37.6962 15.8025 38.7407 15.2835C38.9583 15.1753 39.2411 15.2618 39.3499 15.4781C39.4587 15.6943 39.3717 15.9755 39.1541 16.0836C38.1314 16.6026 37.1087 17.1865 36.1078 17.7921C36.0425 17.8137 35.9772 17.8353 35.8902 17.8353ZM83.152 17.7921C83.065 17.7921 82.9997 17.7704 82.9127 17.7272C81.9335 17.1217 80.9108 16.5594 79.8663 16.0404C79.6488 15.9322 79.5617 15.6511 79.6705 15.4348C79.7793 15.2186 80.0622 15.1321 80.2798 15.2402C81.3242 15.7808 82.3687 16.3648 83.3914 16.9703C83.609 17.1 83.6743 17.3812 83.5437 17.5758C83.4567 17.7056 83.3044 17.7921 83.152 17.7921ZM44.2023 13.8561C44.0283 13.8561 43.8542 13.748 43.7889 13.5534C43.7019 13.3155 43.8324 13.056 44.05 12.9911C45.1598 12.5802 46.2913 12.2342 47.4445 11.9098C47.6839 11.8449 47.9232 11.9747 47.9885 12.2126C48.0538 12.4504 47.9232 12.6883 47.6839 12.7532C46.5741 13.056 45.4426 13.4236 44.3547 13.8129C44.2894 13.8345 44.2459 13.8561 44.2023 13.8561ZM74.8399 13.8129C74.7963 13.8129 74.7311 13.8129 74.6876 13.7913C73.5996 13.402 72.4898 13.056 71.3583 12.7532C71.119 12.6883 70.9884 12.4504 71.0537 12.2126C71.119 11.9747 71.3583 11.8449 71.5977 11.9098C72.7292 12.2126 73.8824 12.5802 74.9922 12.9695C75.2315 13.056 75.3403 13.3155 75.2533 13.5317C75.188 13.7048 75.0139 13.8129 74.8399 13.8129ZM53.1455 11.607C52.9279 11.607 52.7321 11.4556 52.7104 11.2178C52.6668 10.9799 52.8409 10.742 53.0803 10.7204C54.2553 10.5474 55.4521 10.4392 56.6271 10.3527C56.8664 10.3311 57.084 10.5257 57.1058 10.7636C57.1275 11.0015 56.9317 11.2178 56.6924 11.2394C55.5391 11.3043 54.3641 11.434 53.2326 11.5854C53.1891 11.607 53.1673 11.607 53.1455 11.607ZM65.8749 11.607C65.8532 11.607 65.8314 11.607 65.8096 11.607C64.6564 11.434 63.4814 11.3259 62.3499 11.261C62.1105 11.2394 61.9147 11.0231 61.9364 10.7852C61.9582 10.5474 62.1758 10.3527 62.4151 10.3743C63.5902 10.4392 64.7869 10.569 65.962 10.742C66.2013 10.7852 66.3754 11.0015 66.3536 11.2394C66.2883 11.4556 66.0925 11.607 65.8749 11.607Z" fill="#222222"/>
<path d="M89.2235 22.2254C89.1147 22.2254 89.0059 22.1821 88.9189 22.1172C88.4837 21.728 88.0268 21.3387 87.5481 20.9711C87.3522 20.8197 87.3305 20.5385 87.4828 20.3439C87.6351 20.1493 87.918 20.1277 88.1138 20.279C88.5707 20.6467 89.0495 21.0359 89.5064 21.4468C89.7023 21.6198 89.7022 21.901 89.5499 22.074C89.4629 22.1821 89.3541 22.2254 89.2235 22.2254Z" fill="#222222"/>
<path d="M104.585 53.7562C104.346 53.7562 104.15 53.5616 104.128 53.3237C104.107 52.7398 104.063 52.1343 103.998 51.5504C103.976 51.3125 104.15 51.0962 104.411 51.0746C104.651 51.0529 104.868 51.226 104.89 51.4855C104.934 52.091 104.977 52.6965 105.021 53.2804C105.042 53.5183 104.847 53.7346 104.585 53.7562C104.607 53.7562 104.607 53.7562 104.585 53.7562Z" fill="#222222"/>
<path d="M59.8257 100.793C59.5864 100.793 59.3688 100.598 59.3688 100.338C59.3688 100.101 59.5646 99.8844 59.8257 99.8844C60.9572 99.8844 62.1105 99.8195 63.242 99.733C63.4813 99.7113 63.6989 99.906 63.7207 100.144C63.7425 100.382 63.5466 100.598 63.3073 100.62C62.1758 100.728 61.0007 100.793 59.8257 100.793ZM54.2117 100.468C54.19 100.468 54.1682 100.468 54.1682 100.468C53.2543 100.36 52.3187 100.209 51.383 100.057C51.1654 100.014 50.926 99.9709 50.7084 99.9276C50.4691 99.8844 50.3168 99.6465 50.3603 99.4086C50.4038 99.1707 50.6432 98.9977 50.8825 99.0626C51.1001 99.1058 51.3177 99.1491 51.5571 99.1923C52.4492 99.3653 53.3849 99.4951 54.277 99.6032C54.5164 99.6248 54.6905 99.8627 54.6687 100.101C54.6252 100.295 54.4293 100.468 54.2117 100.468ZM68.856 99.8411C68.6384 99.8411 68.4643 99.6897 68.4208 99.4951C68.3773 99.2572 68.5296 99.0193 68.7689 98.9761C69.8787 98.7382 71.0102 98.457 72.0981 98.1326C72.3375 98.0678 72.5769 98.1975 72.6639 98.4354C72.7292 98.6733 72.5986 98.9112 72.3593 98.9977C71.2495 99.3221 70.0963 99.6032 68.9648 99.8411C68.9212 99.8195 68.8995 99.8411 68.856 99.8411ZM45.3556 98.5003C45.3121 98.5003 45.2685 98.5003 45.225 98.4787C44.1153 98.111 43.0273 97.7001 41.9393 97.2676C41.7 97.1811 41.6129 96.9216 41.7 96.6837C41.787 96.4458 42.0481 96.3593 42.2875 96.4458C43.3319 96.8783 44.4199 97.2892 45.5079 97.6352C45.7473 97.7218 45.8778 97.9596 45.7908 98.1975C45.7037 98.3922 45.5297 98.5003 45.3556 98.5003ZM77.5163 97.0946C77.3422 97.0946 77.1681 96.9865 77.1029 96.8351C76.9941 96.6188 77.1029 96.3377 77.3422 96.2512C78.3867 95.797 79.4311 95.2996 80.4321 94.7806C80.6497 94.6725 80.9325 94.7374 81.0413 94.9753C81.1501 95.1915 81.0631 95.4726 80.8455 95.5808C79.8228 96.1214 78.7566 96.6188 77.6904 97.0946C77.6251 97.073 77.5598 97.0946 77.5163 97.0946ZM37.0652 94.8239C36.9999 94.8239 36.9129 94.8022 36.8476 94.759C35.8466 94.1751 34.8457 93.5696 33.8883 92.8992C33.6924 92.7694 33.6272 92.4883 33.7795 92.272C33.91 92.0774 34.1929 92.0125 34.4105 92.1639C35.3462 92.8126 36.3253 93.4182 37.3045 93.9805C37.5221 94.1102 37.5874 94.3697 37.4786 94.586C37.3698 94.7374 37.2175 94.8239 37.0652 94.8239ZM85.4368 92.6613C85.2845 92.6613 85.1539 92.5964 85.0669 92.4666C84.9146 92.272 84.9798 91.9909 85.1757 91.8395C86.1113 91.1907 87.0252 90.4987 87.9174 89.785C88.1132 89.6336 88.3961 89.6552 88.5484 89.8499C88.7007 90.0445 88.679 90.3257 88.4831 90.477C87.591 91.2123 86.6553 91.926 85.6979 92.5748C85.6109 92.6396 85.5238 92.6613 85.4368 92.6613ZM92.3128 86.779C92.204 86.779 92.0952 86.7357 92.0082 86.6492C91.8341 86.4762 91.8124 86.1951 91.9864 86.0221C92.7698 85.2003 93.5314 84.3353 94.2494 83.4486C94.4018 83.254 94.6846 83.2323 94.8805 83.3837C95.0763 83.5351 95.0981 83.8162 94.9457 84.0109C94.2059 84.8975 93.4443 85.7842 92.6392 86.6276C92.5522 86.7357 92.4216 86.779 92.3128 86.779ZM97.8615 79.6208C97.7745 79.6208 97.7092 79.5992 97.6222 79.5559C97.4046 79.4261 97.3393 79.145 97.4699 78.9504C98.0791 77.9772 98.6449 76.9824 99.1671 75.9876C99.2759 75.7714 99.5588 75.6848 99.7764 75.793C99.994 75.9011 100.081 76.1822 99.9722 76.3985C99.4282 77.4149 98.8625 78.4314 98.2314 79.4261C98.1662 79.5559 98.0138 79.6208 97.8615 79.6208ZM101.844 71.511C101.8 71.511 101.735 71.511 101.691 71.4894C101.452 71.4029 101.343 71.1434 101.43 70.9271C101.822 69.8674 102.17 68.7645 102.496 67.6832C102.562 67.4453 102.823 67.3156 103.04 67.3805C103.28 67.4453 103.41 67.7048 103.345 67.9211C103.019 69.024 102.67 70.1486 102.257 71.2299C102.213 71.4029 102.039 71.511 101.844 71.511ZM104.128 62.7741C104.107 62.7741 104.085 62.7741 104.063 62.7741C103.824 62.7309 103.65 62.5146 103.693 62.2551C103.867 61.1305 103.998 60.006 104.085 58.8598C104.107 58.6219 104.302 58.4273 104.563 58.4489C104.803 58.4705 104.999 58.6868 104.977 58.9247C104.89 60.0709 104.759 61.2387 104.585 62.3848C104.52 62.6227 104.346 62.7741 104.128 62.7741Z" fill="#222222"/>
<path d="M29.6677 89.5259C29.5589 89.5259 29.4501 89.4826 29.3631 89.4177C28.9061 89.0068 28.4709 88.5959 28.0358 88.185C27.8617 88.012 27.8617 87.7309 28.014 87.5579C28.1881 87.3849 28.4709 87.3849 28.645 87.5363C29.0585 87.9472 29.5154 88.3364 29.9506 88.7257C30.1464 88.8987 30.1464 89.1798 29.9941 89.3528C29.9071 89.4826 29.7983 89.5259 29.6677 89.5259Z" fill="#222222"/>
<path d="M32.6268 77.1769C32.7574 77.3716 32.9967 77.4581 33.2143 77.4148L39.6117 75.8577C41.8311 77.9771 44.3988 79.772 47.2493 81.1129L48.0326 87.6007C48.0544 87.8385 48.2285 88.0116 48.4461 88.0548L56.1707 89.72C56.3883 89.7633 56.6277 89.6768 56.7582 89.4821L60.1745 83.881C63.3296 83.8161 66.4195 83.2538 69.3135 82.2158L74.4923 86.2599C74.6664 86.4112 74.9275 86.4112 75.1233 86.2815L81.76 82.0212C81.9559 81.8914 82.0429 81.6535 81.9994 81.4372L80.4327 75.0792C82.5651 72.8733 84.3712 70.3215 85.7203 67.4885L92.2482 66.7099C92.4875 66.6883 92.6616 66.5153 92.7051 66.299L94.3806 58.6218C94.4241 58.4055 94.3371 58.1677 94.1412 58.0379L88.4837 54.6426C88.4185 51.5068 87.8527 48.4359 86.8083 45.5597L90.8773 40.4127C91.0296 40.2397 91.0296 39.9802 90.8991 39.7855L86.6124 33.1896C86.4819 32.995 86.2425 32.9085 86.0249 32.9517L79.6276 34.5088C77.4081 32.3894 74.8405 30.5945 71.99 29.2537L71.2066 22.7659C71.1849 22.528 71.0108 22.355 70.7932 22.3117L63.0685 20.6681C62.8509 20.6249 62.6116 20.7114 62.481 20.906L59.0647 26.5072C55.9096 26.572 52.8197 27.1343 49.9257 28.1724L44.7469 24.1283C44.5728 23.9769 44.3117 23.9769 44.1159 24.1067L37.4792 28.367C37.2834 28.4968 37.1963 28.7346 37.2399 28.9509L38.8066 35.309C36.6741 37.5148 34.8681 40.0667 33.519 42.8997L26.9911 43.6782C26.7517 43.6998 26.5776 43.8729 26.5341 44.0891L24.8586 51.7664C24.8151 51.9826 24.9022 52.2205 25.098 52.3503L30.7337 55.7455C30.799 58.8813 31.3648 61.9522 32.4092 64.8285L28.3402 69.9755C28.1879 70.1485 28.1879 70.408 28.3184 70.6026L32.6268 77.1769Z" fill="#222222"/>
<path d="M59.6305 62.8174C55.518 62.8174 52.1017 59.5735 51.9494 55.4429C51.8841 53.4101 52.6022 51.4637 54.0166 49.9715C55.4092 48.4793 57.324 47.6143 59.3694 47.5494C63.6126 47.398 67.1811 50.7068 67.3117 54.9239C67.377 56.9567 66.6589 58.9031 65.2445 60.3953C63.8519 61.8875 61.9371 62.7525 59.8917 62.8174C59.8046 62.8174 59.7176 62.8174 59.6305 62.8174ZM59.6305 48.8902C59.5653 48.8902 59.4782 48.8902 59.4129 48.8902C57.7157 48.9551 56.149 49.6688 54.9957 50.8798C53.8425 52.1125 53.2332 53.7128 53.2985 55.3997C53.3638 57.0865 54.0818 58.6436 55.3004 59.7897C56.5407 60.9359 59.4565 61.5415 61.1537 61.4766H59.8481C61.5454 61.4117 63.1121 60.698 64.2653 59.4654C65.4186 58.2327 66.0279 56.6323 65.9626 54.9455C65.8973 53.2587 65.1792 51.7016 63.9607 50.5554C62.7639 49.4741 61.2408 48.8902 59.6305 48.8902Z" fill="#FBFBFB"/>
<path d="M59.7614 74.6898C58.3905 74.6898 56.9979 74.5385 55.6053 74.2573C54.2344 73.9546 52.8853 73.522 51.6233 72.9598L53.4728 71.7487C54.6479 72.2893 54.6043 72.7002 55.8882 72.9598C55.9752 72.9814 56.0622 73.003 56.171 73.0246C62.1332 74.2141 68.03 72.3758 72.2079 68.548C74.7973 66.1908 76.7339 63.0767 77.626 59.4435C77.6695 59.2705 77.713 59.1191 77.7348 58.9461C78.0177 57.6485 78.1482 56.351 78.1482 55.0534C78.1482 51.5716 77.1473 48.1763 75.2107 45.1703C72.556 41.0614 68.4434 38.25 63.6346 37.2119C53.7122 35.0926 43.9204 41.3641 41.7879 51.2256C41.505 52.5015 41.3745 53.7991 41.3745 55.0967C41.3745 57.0863 41.7009 59.0542 42.3537 60.9573L41.0699 61.3898C40.3735 59.357 40.0254 57.2376 40.0254 55.0967C40.0254 53.7126 40.1777 52.3285 40.4606 50.9661C42.7453 40.391 53.277 33.6437 63.9174 35.936C69.0745 37.0389 73.4917 40.0666 76.3422 44.4783C78.4311 47.6789 79.4973 51.3337 79.4973 55.075C79.4973 56.4591 79.345 57.8648 79.0404 59.2489C77.0603 68.3967 68.8569 74.6898 59.7614 74.6898Z" fill="#FBFBFB"/>
<path d="M96.9897 38.5964L100.493 37.4502C101.82 38.5315 103.344 39.4181 104.997 40.0453L105.737 43.6352C105.759 43.765 105.868 43.8515 105.998 43.8731L110.394 44.457C110.524 44.4786 110.655 44.4138 110.698 44.284L112.352 41.0185C114.115 40.8455 115.812 40.3913 117.378 39.6777L120.447 41.7105C120.555 41.7754 120.686 41.7754 120.795 41.6889L124.32 39.0289C124.429 38.9424 124.472 38.8126 124.429 38.7045L123.275 35.2227C124.363 33.9035 125.255 32.3897 125.886 30.7461L129.499 30.0108C129.629 29.9892 129.716 29.8811 129.738 29.7513L130.325 25.3829C130.347 25.2531 130.282 25.1234 130.151 25.0801L126.866 23.4365C126.692 21.6848 126.235 19.998 125.517 18.4409L127.562 15.3916C127.627 15.2835 127.627 15.1538 127.54 15.0456L124.864 11.5422C124.777 11.4341 124.646 11.3908 124.537 11.4341L121.034 12.5803C119.707 11.499 118.184 10.6123 116.53 9.98514L115.79 6.39522C115.768 6.26546 115.659 6.17896 115.529 6.15734L111.133 5.57343C111.003 5.55181 110.872 5.61668 110.829 5.74644L109.175 9.01197C107.413 9.18498 105.715 9.63912 104.149 10.3528L101.081 8.31994C100.972 8.25506 100.841 8.25506 100.732 8.34156L97.1856 11.0016C97.0768 11.0881 97.0332 11.2178 97.0768 11.326L98.23 14.8077C97.142 16.1269 96.2499 17.6407 95.6189 19.2843L92.0068 20.0196C91.8762 20.0412 91.7892 20.1494 91.7674 20.2791L91.1799 24.6476C91.1581 24.7773 91.2234 24.9071 91.354 24.9503L94.6397 26.5939C94.8138 28.3456 95.2707 30.0325 95.9888 31.5895L93.9434 34.6388C93.8781 34.7469 93.8781 34.8767 93.9651 34.9848L96.6416 38.4882C96.7286 38.5964 96.8592 38.6396 96.9897 38.5964Z" fill="#222222"/>
<path d="M110.743 29.5995C109.699 29.5995 108.72 29.2535 107.893 28.6047C106.935 27.8478 106.326 26.7665 106.174 25.5338C105.891 23.0252 107.697 20.7545 110.221 20.4733C112.745 20.1922 115.03 21.9871 115.313 24.4958C115.596 27.0044 113.79 29.2751 111.265 29.5563C111.091 29.5779 110.917 29.5995 110.743 29.5995ZM110.743 21.7925C110.613 21.7925 110.504 21.7925 110.373 21.8141C108.589 22.0088 107.305 23.6307 107.501 25.4041C107.61 26.2691 108.023 27.026 108.72 27.5667C109.394 28.1073 110.243 28.3452 111.113 28.2371C112.897 28.0424 115.487 26.4205 115.291 24.6471C115.095 23.0036 112.375 21.7925 110.743 21.7925Z" fill="#FBFBFB"/>
<path d="M89.57 36.109C89.3959 36.109 89.2436 36.0225 89.1784 35.8711C88.8955 35.3305 88.6561 34.7682 88.4168 34.2275C88.3297 33.9897 88.4385 33.7301 88.6561 33.6436C88.8955 33.5571 89.1566 33.6653 89.2436 33.8815C89.4612 34.4222 89.7223 34.9628 89.9835 35.4818C90.0923 35.6981 90.0052 35.9792 89.7876 36.0874C89.7223 36.109 89.6571 36.109 89.57 36.109Z" fill="#222222"/>
<path d="M87.2426 28.713C87.025 28.713 86.8292 28.5617 86.8074 28.3238C86.7857 28.1291 86.7639 27.9345 86.7422 27.7399C86.6334 26.8316 86.5898 25.88 86.5898 24.9717C86.5898 24.842 86.5898 24.6906 86.5898 24.5609C86.5898 24.323 86.8074 24.1283 87.0468 24.1283C87.2862 24.1283 87.482 24.3446 87.482 24.5825C87.482 24.7122 87.482 24.842 87.482 24.9717C87.482 25.8584 87.5255 26.7451 87.6343 27.6318C87.6561 27.8264 87.6778 27.9994 87.6996 28.194C87.7431 28.4319 87.569 28.6698 87.3079 28.6914C87.2862 28.713 87.2644 28.713 87.2426 28.713ZM87.8954 19.1111C87.8519 19.1111 87.8084 19.1111 87.7649 19.0895C87.5255 19.0246 87.3949 18.7867 87.4602 18.5488C87.8084 17.3378 88.2436 16.1483 88.7658 15.0238C88.8746 14.8075 89.1357 14.6994 89.3533 14.8075C89.5709 14.9157 89.6797 15.1752 89.5709 15.3914C89.0704 16.4944 88.6353 17.6405 88.3089 18.7867C88.2653 18.9813 88.0913 19.1111 87.8954 19.1111ZM92.3561 10.5688C92.2473 10.5688 92.1603 10.5256 92.0733 10.4607C91.8774 10.3093 91.8557 10.0282 92.008 9.83354C92.8131 8.86037 93.6835 7.95208 94.6191 7.10866C94.7932 6.93565 95.0979 6.95728 95.2502 7.15191C95.4242 7.32492 95.4025 7.62769 95.2067 7.77907C94.3145 8.57923 93.4659 9.46589 92.6825 10.3958C92.6173 10.5039 92.4867 10.5688 92.3561 10.5688ZM99.885 4.49191C99.7327 4.49191 99.5586 4.40541 99.4933 4.25403C99.3845 4.03777 99.4715 3.75663 99.6891 3.6485C100.799 3.08622 101.974 2.58882 103.171 2.19956C103.41 2.11305 103.649 2.24281 103.736 2.48069C103.823 2.71858 103.693 2.95647 103.454 3.04297C102.3 3.41061 101.169 3.88639 100.103 4.44866C100.016 4.47029 99.9502 4.49191 99.885 4.49191ZM112.941 1.9833C112.919 1.9833 112.919 1.9833 112.897 1.9833C111.7 1.87517 110.46 1.85354 109.263 1.94004C109.002 1.96167 108.806 1.76704 108.785 1.52915C108.763 1.29126 108.959 1.075 109.198 1.05338C110.46 0.966872 111.722 0.988499 112.984 1.09663C113.224 1.11826 113.419 1.33452 113.398 1.5724C113.354 1.81029 113.158 1.9833 112.941 1.9833Z" fill="#222222"/>
<path d="M120.513 3.95127C120.448 3.95127 120.382 3.92964 120.339 3.90802C119.817 3.67013 119.251 3.45387 118.707 3.23761C118.468 3.15111 118.359 2.89159 118.446 2.67533C118.533 2.43745 118.794 2.32932 119.012 2.41582C119.577 2.63208 120.165 2.84834 120.709 3.10785C120.926 3.21598 121.035 3.4755 120.926 3.69176C120.839 3.86476 120.665 3.95127 120.513 3.95127Z" fill="#222222"/>
<path d="M133.375 18.3111C133.179 18.3111 133.005 18.1813 132.94 18.0083C132.766 17.446 132.57 16.9054 132.352 16.3647C132.265 16.1269 132.374 15.8673 132.592 15.7808C132.831 15.6943 133.092 15.8025 133.179 16.0187C133.397 16.581 133.614 17.1433 133.788 17.7272C133.854 17.9651 133.723 18.203 133.506 18.2895C133.462 18.2895 133.419 18.3111 133.375 18.3111Z" fill="#222222"/>
<path d="M110.765 49.0415C109.634 49.0415 108.459 48.955 107.327 48.8036C107.088 48.7604 106.914 48.5441 106.935 48.3062C106.979 48.0683 107.197 47.8953 107.436 47.917C108.524 48.0683 109.634 48.1548 110.765 48.1548C110.852 48.1548 110.939 48.1548 111.026 48.1548C111.266 48.1548 111.461 48.3495 111.483 48.5874C111.483 48.8253 111.287 49.0415 111.048 49.0415C110.939 49.0415 110.852 49.0415 110.765 49.0415ZM116.901 48.2413C116.705 48.2413 116.531 48.1116 116.466 47.917C116.401 47.6791 116.553 47.4412 116.793 47.3763C117.946 47.0735 119.077 46.6626 120.165 46.1869C120.383 46.0787 120.666 46.1869 120.753 46.4248C120.862 46.641 120.753 46.9222 120.513 47.0087C119.382 47.5061 118.207 47.917 117.01 48.2413C116.967 48.2413 116.923 48.2413 116.901 48.2413ZM125.409 44.0026C125.279 44.0026 125.148 43.9378 125.061 43.8296C124.909 43.635 124.931 43.3539 125.126 43.2025C126.062 42.4672 126.954 41.667 127.759 40.802C127.933 40.629 128.216 40.6074 128.39 40.7804C128.564 40.9534 128.586 41.2345 128.412 41.4075C127.564 42.3158 126.65 43.1592 125.67 43.9161C125.605 43.981 125.518 44.0026 125.409 44.0026ZM131.567 36.7796C131.502 36.7796 131.415 36.7579 131.35 36.7147C131.132 36.6066 131.045 36.3254 131.176 36.1091C131.741 35.0711 132.242 33.9682 132.655 32.8653C132.742 32.6274 133.003 32.5192 133.221 32.6057C133.46 32.6922 133.569 32.9518 133.482 33.168C133.069 34.3142 132.546 35.4604 131.959 36.5417C131.894 36.6931 131.741 36.7796 131.567 36.7796ZM134.374 27.7183C134.353 27.7183 134.353 27.7183 134.331 27.7183C134.091 27.6966 133.896 27.4804 133.917 27.2209C133.983 26.5072 134.026 25.7503 134.026 25.0366C134.026 24.5825 134.004 24.1283 133.983 23.6742C133.961 23.4363 134.157 23.22 134.396 23.1984C134.635 23.1768 134.853 23.3714 134.875 23.6093C134.897 24.0851 134.918 24.5609 134.918 25.0366C134.918 25.7935 134.875 26.5505 134.809 27.3074C134.809 27.5453 134.614 27.7183 134.374 27.7183Z" fill="#222222"/>
<path d="M101.649 47.2465C101.583 47.2465 101.54 47.2249 101.475 47.2032C100.909 46.9654 100.343 46.7058 99.8208 46.4463C99.6032 46.3382 99.5162 46.0571 99.625 45.8408C99.7338 45.6245 100.017 45.538 100.234 45.6462C100.756 45.9057 101.3 46.1652 101.823 46.3814C102.062 46.4679 102.149 46.7275 102.062 46.9653C101.975 47.1384 101.823 47.2465 101.649 47.2465Z" fill="#222222"/>
<path d="M110.853 36.2391C110.352 36.2391 109.83 36.1958 109.33 36.131C108.59 36.0228 107.85 35.8715 107.154 35.6119C107.089 35.5903 107.045 35.5687 106.98 35.5471L107.437 34.2928C108.111 34.5306 108.808 34.7037 109.504 34.7902C112.159 35.1362 114.791 34.4441 116.902 32.8438C119.035 31.2219 120.384 28.8863 120.754 26.2695C120.819 25.8154 120.841 25.3828 120.841 24.9287C120.841 22.7661 120.123 20.6684 118.773 18.9167C117.141 16.7973 114.791 15.4565 112.159 15.0889C106.697 14.3536 101.649 18.1814 100.909 23.6311C100.844 24.0637 100.822 24.5178 100.822 24.9503C100.822 26.2911 101.105 27.6319 101.627 28.8646L100.387 29.4053C99.7773 27.9996 99.4727 26.4858 99.4727 24.9503C99.4727 24.4529 99.5162 23.9555 99.5815 23.4581C100.408 17.2947 106.131 12.9479 112.333 13.7697C115.335 14.1589 119.317 15.716 121.145 18.0949C122.668 20.0845 122.168 22.4633 122.168 24.9287C122.168 25.4261 122.124 25.9451 122.059 26.4425C121.667 29.4269 120.101 32.0869 117.707 33.9035C115.705 35.4389 113.312 36.2391 110.853 36.2391Z" fill="#FBFBFB"/>
<path d="M369.719 65.7214C369.698 64.8131 369.328 63.9264 368.653 63.2993C367.979 62.6721 367.086 62.3261 366.173 62.3693L296.15 65.1591C294.953 65.2024 294.018 66.1972 294.039 67.4082L297.586 216.195L368.392 215.33C369.306 215.309 370.176 214.941 370.807 214.314C371.438 213.665 371.787 212.8 371.787 211.892L369.719 65.7214Z" fill="#FFCEC7"/>
<path d="M313.318 93.1867L302.068 93.2084L301.916 74.0693H313.209L313.318 93.1867Z" fill="#F3F1FB"/>
<path d="M329.509 93.1435L318.281 93.1651L318.172 74.0693H329.422L329.509 93.1435Z" fill="#F3F1FB"/>
<path d="M346.523 93.1002L335.339 93.1219L335.273 74.0693H346.48L346.523 93.1002Z" fill="#F3F1FB"/>
<path d="M363.016 93.0786L351.875 93.1002L351.854 74.0693H363.016V93.0786Z" fill="#F3F1FB"/>
<path d="M313.494 120.327L302.244 120.371L302.113 101.383L313.385 101.34L313.494 120.327Z" fill="#F3F1FB"/>
<path d="M329.617 120.241L318.411 120.284L318.324 101.318L329.53 101.296L329.617 120.241Z" fill="#F3F1FB"/>
<path d="M346.569 120.154L335.429 120.197L335.363 101.275L346.526 101.231L346.569 120.154Z" fill="#F3F1FB"/>
<path d="M363.02 120.046L351.901 120.111L351.879 101.232L363.02 101.188V120.046Z" fill="#F3F1FB"/>
<path d="M313.645 148.182L302.439 148.268L302.309 129.389L313.537 129.324L313.645 148.182Z" fill="#F3F1FB"/>
<path d="M329.705 148.052L318.564 148.139L318.455 129.302L329.64 129.216L329.705 148.052Z" fill="#F3F1FB"/>
<path d="M346.612 147.9L335.515 147.987L335.449 129.194L346.59 129.107L346.612 147.9Z" fill="#F3F1FB"/>
<path d="M363.019 147.771L351.944 147.857L351.922 129.086L363.019 129.021V147.771Z" fill="#F3F1FB"/>
<path d="M313.797 175.43L302.634 175.56L302.504 157.243L313.688 157.135L313.797 175.43Z" fill="#F3F1FB"/>
<path d="M329.812 175.236L318.693 175.366L318.605 157.092L329.746 156.983L329.812 175.236Z" fill="#F3F1FB"/>
<path d="M346.676 175.041L335.6 175.171L335.535 156.919L346.633 156.811L346.676 175.041Z" fill="#F3F1FB"/>
<path d="M363.017 174.847L351.985 174.976L351.941 156.767L363.017 156.659V174.847Z" fill="#F3F1FB"/>
<path d="M313.949 202.938L302.83 203.09L302.699 184.902L313.84 184.751L313.949 202.938Z" fill="#F3F1FB"/>
<path d="M329.921 202.701L318.845 202.852L318.736 184.708L329.855 184.557L329.921 202.701Z" fill="#F3F1FB"/>
<path d="M346.718 202.441L335.665 202.614L335.621 184.492L346.675 184.34L346.718 202.441Z" fill="#F3F1FB"/>
<path d="M363.017 202.203L352.006 202.376L351.984 184.275L363.017 184.124V202.203Z" fill="#F3F1FB"/>
<path d="M199.777 50.8428C199.756 50.0426 199.407 49.2857 198.82 48.7451C198.211 48.2044 197.427 47.9449 196.622 48.0098L115.698 54.9734C114.197 55.1031 113 56.3574 113 57.8496V219.504C113 221.104 114.393 222.272 116.003 222.272H200.735C201.518 222.272 202.258 222.013 202.824 221.472C203.368 220.91 203.672 220.196 203.651 219.418L199.777 50.8428Z" fill="#FFCEC7"/>
<path d="M129.143 62.9748L122.681 63.3857C122.006 63.4289 121.375 64.0561 121.375 64.7697V212.238C121.375 212.973 122.093 213.362 122.789 213.362H129.23C129.927 213.362 130.492 212.865 130.492 212.129L130.383 64.1426C130.383 63.4289 129.818 62.9315 129.143 62.9748Z" fill="#F3F1FB"/>
<path d="M144.112 62.0016L137.65 62.4125C136.954 62.4558 136.301 63.0829 136.301 63.8182L136.453 212.108C136.453 212.843 137.128 213.341 137.824 213.341H144.352C145.048 213.341 145.505 212.843 145.505 212.108L145.266 63.1694C145.266 62.4558 144.809 61.9584 144.112 62.0016Z" fill="#F3F1FB"/>
<path d="M159.302 61.007L152.752 61.4395C152.056 61.4828 151.664 62.1099 151.664 62.8452L151.99 212.13C151.99 212.887 152.404 213.384 153.1 213.384H159.715C160.411 213.384 161.173 212.887 161.173 212.13L160.738 62.1964C160.738 61.4612 159.998 60.9638 159.302 61.007Z" fill="#F3F1FB"/>
<path d="M174.664 60.0124L168.027 60.4449C167.331 60.4882 166.809 61.1153 166.809 61.8506L167.287 212.108C167.287 212.865 167.81 213.362 168.528 213.362H175.23C175.948 213.362 176.579 212.865 176.579 212.108L175.991 61.2018C176.013 60.4665 175.382 59.9691 174.664 60.0124Z" fill="#F3F1FB"/>
<path d="M190.245 58.9958L183.521 59.4283C182.803 59.4716 182.172 60.1203 182.172 60.8556L182.825 212.086C182.825 212.843 183.477 213.341 184.196 213.341H190.985C191.703 213.341 192.247 212.843 192.247 212.065L191.485 60.1852C191.507 59.4499 190.963 58.9525 190.245 58.9958Z" fill="#F3F1FB"/>
<path d="M237.377 89.64C237.355 88.8614 237.029 88.1261 236.463 87.5855C235.898 87.0448 235.136 86.7637 234.374 86.7853L171.337 88.7966C169.727 88.8398 168.464 90.1806 168.53 91.7809L171.641 195.521C171.685 197.1 172.99 198.332 174.579 198.332L236.333 197.727C237.116 197.727 237.856 197.402 238.4 196.862C238.944 196.299 239.249 195.564 239.227 194.786L237.377 89.64Z" fill="#FFA397"/>
<path d="M230.806 94.6143H174.667C174.123 94.6143 173.688 94.9603 173.688 95.4793L173.731 100.367C173.731 100.886 174.188 101.448 174.732 101.448L231.024 101.491C231.59 101.491 232.003 100.886 232.003 100.367L231.829 95.4577C231.829 94.9603 231.35 94.6143 230.806 94.6143Z" fill="#F1F1F2"/>
<path d="M231.155 105.211L174.776 105.125C174.232 105.125 173.797 105.644 173.797 106.163L173.84 111.137C173.84 111.656 174.297 112.153 174.841 112.153L231.373 112.304C231.939 112.304 232.374 111.807 232.352 111.288L232.178 106.271C232.2 105.752 231.721 105.211 231.155 105.211Z" fill="#F1F1F2"/>
<path d="M231.548 116.435L174.929 116.24C174.385 116.24 173.928 116.5 173.95 117.019L174.015 122.036C174.015 122.555 174.472 122.966 175.016 122.966L231.787 123.225C232.353 123.225 232.788 122.836 232.766 122.296L232.592 117.235C232.57 116.694 232.113 116.435 231.548 116.435Z" fill="#F1F1F2"/>
<path d="M231.916 127.378L175.036 127.097C174.492 127.097 174.035 127.443 174.035 127.983L174.1 133.044C174.1 133.584 174.557 133.866 175.123 133.887L232.155 134.233C232.721 134.233 233.178 133.931 233.156 133.411L232.982 128.308C232.938 127.745 232.481 127.378 231.916 127.378Z" fill="#F1F1F2"/>
<path d="M232.286 138.407L175.167 138.018C174.601 138.018 174.166 138.472 174.166 139.012L174.231 144.116C174.231 144.657 174.688 145.241 175.254 145.241L232.547 145.695C233.113 145.695 233.548 145.111 233.526 144.592L233.352 139.445C233.33 138.883 232.852 138.407 232.286 138.407Z" fill="#F1F1F2"/>
<path d="M232.656 149.544L175.276 149.068C174.711 149.068 174.275 149.631 174.275 150.171L174.341 155.318C174.341 155.859 174.798 156.335 175.363 156.335L232.918 156.897C233.483 156.897 233.94 156.421 233.918 155.881L233.744 150.669C233.723 150.128 233.244 149.544 232.656 149.544Z" fill="#F1F1F2"/>
<path d="M233.07 161.179L175.429 160.595C174.863 160.595 174.428 160.876 174.428 161.417L174.493 166.607C174.493 167.148 174.95 167.537 175.516 167.537L233.309 168.186C233.875 168.186 234.332 167.818 234.31 167.278L234.136 162.023C234.114 161.482 233.636 161.179 233.07 161.179Z" fill="#F1F1F2"/>
<path d="M233.439 172.511L175.537 171.819C174.971 171.819 174.514 172.209 174.536 172.749L174.601 178.004C174.601 178.545 175.058 178.826 175.624 178.848L233.679 179.605C234.244 179.605 234.701 179.345 234.701 178.783L234.527 173.485C234.505 172.922 234.027 172.511 233.439 172.511Z" fill="#F1F1F2"/>
<path d="M233.831 183.952L175.667 183.151C175.101 183.151 174.645 183.649 174.645 184.211L174.71 189.509C174.71 190.072 175.189 190.634 175.754 190.634L234.092 191.499C234.679 191.499 235.115 190.937 235.093 190.396L234.919 185.054C234.897 184.492 234.418 183.952 233.831 183.952Z" fill="#F1F1F2"/>
<path d="M335.293 103.935C335.271 103.156 334.945 102.421 334.379 101.88C333.813 101.34 333.052 101.059 332.29 101.08L269.274 103.091C267.664 103.135 266.402 104.476 266.467 106.076L269.579 209.816C269.622 211.395 270.928 212.627 272.516 212.627L334.27 212.022C335.054 212.022 335.793 211.697 336.337 211.157C336.881 210.594 337.164 209.859 337.164 209.081L335.293 103.935Z" fill="#FFA397"/>
<path d="M328.722 108.909H272.604C272.06 108.909 271.625 109.255 271.625 109.774L271.669 114.662C271.669 115.181 272.125 115.743 272.669 115.743L328.962 115.786C329.527 115.786 329.941 115.181 329.941 114.662L329.767 109.753C329.723 109.255 329.266 108.909 328.722 108.909Z" fill="#FFA397"/>
<path d="M329.071 119.506L272.692 119.419C272.148 119.419 271.713 119.938 271.713 120.457L271.756 125.431C271.756 125.951 272.213 126.448 272.757 126.448L329.289 126.599C329.855 126.599 330.29 126.102 330.268 125.583L330.094 120.566C330.116 120.025 329.637 119.506 329.071 119.506Z" fill="#FFA397"/>
<path d="M329.462 130.73L272.843 130.535C272.299 130.535 271.842 130.795 271.864 131.314L271.929 136.331C271.929 136.85 272.386 137.261 272.93 137.261L329.701 137.52C330.267 137.52 330.702 137.131 330.68 136.59L330.506 131.53C330.484 130.989 330.027 130.73 329.462 130.73Z" fill="#FFA397"/>
<path d="M329.832 141.651L272.952 141.37C272.408 141.37 271.951 141.716 271.951 142.256L272.016 147.317C272.016 147.857 272.473 148.139 273.039 148.16L330.071 148.506C330.637 148.506 331.094 148.203 331.072 147.684L330.898 142.581C330.854 142.018 330.397 141.672 329.832 141.651Z" fill="#FFA397"/>
<path d="M330.202 152.702L273.083 152.312C272.517 152.312 272.082 152.767 272.082 153.307L272.147 158.411C272.147 158.952 272.604 159.536 273.17 159.536L330.463 159.99C331.029 159.99 331.464 159.406 331.442 158.887L331.268 153.74C331.246 153.178 330.768 152.702 330.202 152.702Z" fill="#FFA397"/>
<path d="M330.572 163.839L273.192 163.363C272.627 163.363 272.191 163.926 272.191 164.466L272.257 169.613C272.257 170.154 272.714 170.63 273.279 170.63L330.834 171.192C331.399 171.192 331.856 170.716 331.835 170.175L331.66 164.964C331.639 164.423 331.138 163.839 330.572 163.839Z" fill="#FFA397"/>
<path d="M330.964 175.453L273.323 174.869C272.757 174.869 272.322 175.15 272.322 175.69L272.388 180.881C272.388 181.421 272.844 181.811 273.41 181.811L331.204 182.459C331.77 182.459 332.226 182.092 332.205 181.551L332.031 176.296C332.009 175.777 331.552 175.453 330.964 175.453Z" fill="#FFA397"/>
<path d="M331.355 186.784L273.453 186.092C272.887 186.092 272.43 186.482 272.452 187.022L272.517 192.277C272.517 192.818 272.974 193.099 273.54 193.121L331.595 193.878C332.16 193.878 332.617 193.618 332.617 193.056L332.443 187.757C332.4 187.217 331.921 186.806 331.355 186.784Z" fill="#FFA397"/>
<path d="M331.747 198.224L273.583 197.424C273.018 197.424 272.561 197.922 272.561 198.484L272.626 203.782C272.626 204.345 273.105 204.907 273.67 204.907L332.008 205.772C332.595 205.772 333.031 205.21 333.009 204.669L332.835 199.327C332.813 198.765 332.312 198.246 331.747 198.224Z" fill="#FFA397"/>
<path d="M111.779 234.09C83.1218 244.353 54.4644 254.647 25.807 264.91C25.6765 264.91 59.2515 265.848 58.9034 264.91C58.664 263.971 131.211 234.544 130.906 234.544C124.465 234.393 118.09 234.241 111.779 234.09Z" fill="#ECECEC"/>
<path d="M146.377 233.878C125.422 244.323 104.925 254.768 84.9277 265.243C96.0034 265.243 107.079 265.243 118.155 265.243C133.038 255.01 148.531 244.807 164.655 234.574C158.475 234.332 152.383 234.09 146.377 233.878Z" fill="#ECECEC"/>
<path d="M177.929 234.514C177.559 234.816 177.168 235.119 176.798 235.422C164.503 245.352 153.167 255.282 142.766 265.213C151.339 265.243 159.912 265.304 168.529 265.334C178.756 254.828 189.005 244.293 199.232 233.787C192.247 234.029 185.132 234.271 177.929 234.514Z" fill="#ECECEC"/>
<path d="M326.176 233.878C344.519 244.323 363.341 254.768 382.642 265.243C393.718 265.243 404.793 265.243 415.869 265.243C392.303 255.01 369.347 244.807 347 234.574C339.971 234.332 333.03 234.09 326.176 233.878Z" fill="#ECECEC"/>
<path d="M360.1 234.514C360.861 234.816 361.623 235.119 362.406 235.422C387.451 245.352 413.454 255.282 440.393 265.213C449.118 265.243 457.866 265.304 466.635 265.334C437.303 254.828 407.993 244.293 378.661 233.787C372.59 234.029 366.388 234.271 360.1 234.514Z" fill="#ECECEC"/>
<path d="M217.422 234.695C211.525 244.868 205.607 255.04 199.71 265.213C199.492 265.213 235.635 266.848 234.221 265.304C232.828 263.76 239.03 233.757 238.812 233.757C231.805 234.09 224.69 234.393 217.422 234.695Z" fill="#ECECEC"/>
<path d="M253.848 233.787C255.675 244.474 257.525 255.161 259.353 265.849C268.492 265.849 277.609 265.849 286.748 265.849C283.071 254.889 278.588 243.96 273.279 233C266.903 233.272 260.441 233.515 253.848 233.787Z" fill="#ECECEC"/>
<path d="M293.777 233.151C304.918 244.05 316.037 254.95 327.178 265.849C340.278 265.909 353.399 265.939 366.541 266C345.369 255.252 326.177 244.535 308.966 233.787C303.852 233.575 298.782 233.363 293.777 233.151Z" fill="#ECECEC"/>
<path d="M250.17 60.5099C265.793 60.5099 278.458 47.9229 278.458 32.396C278.458 16.8692 265.793 4.28223 250.17 4.28223C234.548 4.28223 221.883 16.8692 221.883 32.396C221.883 47.9229 234.548 60.5099 250.17 60.5099Z" fill="#EF6238"/>
<path d="M278.414 30.1904H250.17H221.883C221.883 30.1904 219.642 46.1504 244.883 88.8834C245.993 90.7433 247.995 92.0408 250.17 92.0408C252.346 92.0408 254.37 90.6784 255.458 88.8186C280.721 46.0639 278.414 30.1904 278.414 30.1904Z" fill="#EF6238"/>
<path d="M250.714 93.1215H250.17C247.711 93.1215 245.405 91.8456 244.164 89.7479C229.411 64.7698 223.993 49.0045 222.057 40.1594C221.513 38.1266 221.186 36.1586 221.077 34.1041C220.903 32.0064 221.034 31.1414 221.056 31.0549L221.121 30.6007C222.252 15.5058 234.917 3.74121 250.148 3.74121C265.576 3.74121 278.349 15.6571 279.219 30.8819C279.241 31.0765 279.284 31.5955 279.263 32.4389V32.5471C279.263 35.3152 278.871 38.0401 278.088 40.6784C276.086 49.5019 270.929 65.1591 256.415 89.7046C255.197 91.8456 252.955 93.1215 250.714 93.1215ZM222.666 31.9848C222.666 31.9848 222.666 33.0877 222.753 33.996V34.0393C222.84 35.9856 223.145 37.8671 223.667 39.7918V39.835C225.582 48.5503 230.935 64.1643 245.579 88.9693C246.514 90.5697 248.56 91.5645 250.431 91.5645L250.714 92.3863V91.5645C251.606 91.5645 254.174 90.5697 255.131 88.9477C269.536 64.5319 274.954 49.0261 276.76 40.3108V40.2675C277.652 37.7806 277.761 35.1854 277.761 32.5687L277.652 32.4606C277.652 31.6388 277.609 31.2062 277.609 31.0981V31.0549C276.804 16.6952 264.749 5.42804 250.192 5.42804C235.656 5.42804 223.602 16.7601 222.775 31.2495L222.731 31.9848H222.666Z" fill="#EF6238"/>
<path d="M250.257 48.5506C259.283 48.5506 266.599 41.2792 266.599 32.3095C266.599 23.3398 259.283 16.0684 250.257 16.0684C241.232 16.0684 233.916 23.3398 233.916 32.3095C233.916 41.2792 241.232 48.5506 250.257 48.5506Z" fill="#FBFBFB"/>
<path d="M250.257 49.437C240.748 49.437 233.002 41.7382 233.002 32.2876C233.002 22.837 240.748 15.1382 250.257 15.1382C259.766 15.1382 267.513 22.837 267.513 32.2876C267.513 41.7382 259.788 49.437 250.257 49.437ZM250.257 16.9764C241.749 16.9764 234.83 23.8535 234.83 32.3092C234.83 40.765 241.749 47.6421 250.257 47.6421C258.765 47.6421 265.685 40.765 265.685 32.3092C265.685 23.8535 258.765 16.9764 250.257 16.9764Z" fill="#EF6238"/>
<g clip-path="url(#clip1_298_7129)">
<path d="M433.845 222.294L397.618 231.181L359.953 228.539C359.953 228.539 344.839 212.206 362.832 196.353C380.825 180.5 413.932 183.142 414.892 185.784C415.851 188.427 431.685 213.647 433.845 222.294Z" fill="#828282"/>
<path d="M166.108 226.858L126.283 231.182L93.4156 227.098C93.4156 227.098 78.3014 216.77 83.8193 209.564C89.5771 202.358 116.447 168.25 156.032 174.976C195.616 181.701 166.108 226.858 166.108 226.858Z" fill="#828282"/>
<path d="M400.018 254C413.268 254 424.009 243.246 424.009 229.981C424.009 216.715 413.268 205.961 400.018 205.961C386.768 205.961 376.027 216.715 376.027 229.981C376.027 243.246 386.768 254 400.018 254Z" fill="#2D2D2D"/>
<path d="M403.594 244.914C411.841 242.94 416.928 234.645 414.956 226.387C412.983 218.13 404.698 213.037 396.451 215.012C388.203 216.987 383.117 225.281 385.089 233.539C387.061 241.796 395.346 246.889 403.594 244.914Z" fill="#3D3D3D"/>
<path d="M396.42 229.98C396.42 231.902 398.099 233.583 400.019 233.583C401.938 233.583 403.617 231.902 403.617 229.98C403.617 228.059 401.938 226.377 400.019 226.377C397.859 226.377 396.42 228.059 396.42 229.98Z" fill="#E1E9F5"/>
<path d="M383.225 229.981C383.225 239.348 390.662 246.794 400.018 246.794C409.375 246.794 416.812 239.348 416.812 229.981C416.812 220.613 409.375 213.167 400.018 213.167C390.662 213.167 383.225 220.613 383.225 229.981ZM384.664 229.981C384.664 221.574 391.621 214.608 400.018 214.608C408.415 214.608 415.372 221.574 415.372 229.981C415.372 238.388 408.415 245.353 400.018 245.353C391.621 245.353 384.664 238.388 384.664 229.981Z" fill="#D5DDE8"/>
<path d="M378.188 231.422C378.907 231.422 379.627 230.701 379.627 229.981C379.627 218.691 388.743 209.564 400.019 209.564C411.295 209.564 420.411 218.691 420.411 229.981C420.411 230.701 421.131 231.422 421.851 231.422C422.57 231.422 423.29 230.701 423.29 229.981C423.29 217.25 412.974 206.682 400.019 206.682C387.064 206.682 376.748 217.01 376.748 229.981C376.748 230.701 377.468 231.422 378.188 231.422Z" fill="#3D3D3D"/>
<path d="M400.018 239.108C405.186 239.108 409.375 234.914 409.375 229.74C409.375 224.567 405.186 220.373 400.018 220.373C394.851 220.373 390.662 224.567 390.662 229.74C390.662 234.914 394.851 239.108 400.018 239.108Z" fill="#E1E9F5"/>
<path d="M44.9548 205.721C45.4346 205 45.6745 204.039 45.6745 203.079C45.1947 199.476 44.475 192.51 44.475 175.216C44.475 153.358 45.9144 127.897 48.5534 118.77C51.1924 109.642 54.791 107.961 60.069 107.721C73.2639 107 293.739 106.52 314.851 107.721C329.006 108.441 346.759 116.608 356.595 125.255C369.79 136.785 401.458 161.765 405.056 163.686C408.655 165.608 436.724 173.775 440.563 180.74C442.962 184.824 444.881 197.074 445.601 203.559C445.841 205.961 446.081 208.603 446.081 211.005L445.841 219.172L445.601 224.216C444.641 226.858 442.242 228.78 439.363 229.26L426.648 230.941C426.648 230.461 426.648 229.74 426.648 229.26C426.648 214.848 414.653 203.559 400.018 203.559C399.778 203.559 399.538 203.559 399.299 203.559C384.664 204.039 373.628 216.289 373.628 230.941C373.628 232.383 373.628 233.824 373.628 235.025C333.324 234.784 227.045 234.064 154.833 233.584C154.833 232.142 154.833 230.941 154.833 229.5C154.833 215.088 142.837 203.799 128.203 203.799C127.963 203.799 127.723 203.799 127.483 203.799C120.286 204.039 113.808 206.922 109.01 212.206C104.212 217.49 101.813 224.216 101.813 231.182C101.813 231.902 101.813 232.863 101.813 233.584C91.9767 233.584 85.2593 233.584 83.5799 233.584C68.9456 234.064 54.791 230.701 54.791 230.701L49.9929 229.5C48.0736 229.02 46.6341 227.338 46.1543 225.177L44.475 208.843C44.2351 207.642 44.475 206.441 44.9548 205.721Z" fill="#222222"/>
<path d="M127.723 254C140.973 254 151.714 243.246 151.714 229.981C151.714 216.715 140.973 205.961 127.723 205.961C114.473 205.961 103.732 216.715 103.732 229.981C103.732 243.246 114.473 254 127.723 254Z" fill="#2D2D2D"/>
<path d="M131.247 244.929C139.5 242.978 144.61 234.698 142.662 226.436C140.713 218.173 132.443 213.057 124.191 215.008C115.938 216.959 110.828 225.239 112.776 233.501C114.725 241.764 122.995 246.88 131.247 244.929Z" fill="#3D3D3D"/>
<path d="M124.125 229.98C124.125 231.902 125.804 233.583 127.724 233.583C129.643 233.583 131.322 231.902 131.322 229.98C131.322 228.059 129.643 226.377 127.724 226.377C125.804 226.377 124.125 228.059 124.125 229.98Z" fill="#E1E9F5"/>
<path d="M110.93 229.981C110.93 239.348 118.367 246.794 127.723 246.794C137.08 246.794 144.517 239.348 144.517 229.981C144.517 220.613 137.08 213.167 127.723 213.167C118.367 213.167 110.93 220.613 110.93 229.981ZM112.369 229.981C112.369 221.574 119.326 214.608 127.723 214.608C136.12 214.608 143.077 221.574 143.077 229.981C143.077 238.388 136.12 245.353 127.723 245.353C119.326 245.353 112.369 238.388 112.369 229.981Z" fill="#D5DDE8"/>
<path d="M105.891 231.422C106.61 231.422 107.33 230.701 107.33 229.981C107.33 218.691 116.447 209.564 127.722 209.564C138.998 209.564 148.114 218.691 148.114 229.981C148.114 230.701 148.834 231.422 149.554 231.422C150.274 231.422 150.993 230.701 150.993 229.981C150.993 217.25 140.677 206.682 127.722 206.682C115.007 206.682 104.451 217.01 104.451 229.981C104.451 230.701 105.171 231.422 105.891 231.422Z" fill="#3D3D3D"/>
<path d="M127.724 239.108C132.891 239.108 137.08 234.914 137.08 229.74C137.08 224.567 132.891 220.373 127.724 220.373C122.556 220.373 118.367 224.567 118.367 229.74C118.367 234.914 122.556 239.108 127.724 239.108Z" fill="#E1E9F5"/>
<path d="M156.99 213.888C156.99 213.888 158.43 217.25 159.389 221.094C160.349 224.697 163.468 227.339 167.306 227.339H360.672C364.271 227.339 367.389 225.417 369.069 222.054L369.788 220.853L156.99 213.888Z" fill="#3D3D3D"/>
<path d="M447.999 198.035C447.999 198.035 438.882 198.275 435.763 197.074C432.644 195.873 432.165 181.941 431.685 180.02C431.205 178.338 426.887 175.696 426.887 175.696C426.887 175.696 438.642 175.936 443.2 180.981C447.759 186.025 447.999 198.035 447.999 198.035Z" fill="#C9E7FF"/>
<path d="M348.917 126.696L369.549 156C371.708 159.123 369.549 163.686 365.711 163.686H99.4132C95.8146 163.686 93.1756 160.564 93.4155 157.201L96.7742 128.858C97.0141 125.976 99.6531 123.574 102.772 123.574L344.359 124.054C346.038 124.054 347.958 125.015 348.917 126.696Z" fill="#49586B"/>
<path d="M97.4941 142.549L98.9336 129.098C99.1735 127.177 100.853 125.735 102.772 125.735L344.119 126.216C345.319 126.216 346.518 126.696 347.238 127.897L356.355 140.628C296.378 135.343 162.269 135.583 97.4941 142.549Z" fill="#6A809C"/>
<path d="M308.854 177.618H316.531C317.97 177.618 319.17 176.417 319.17 174.976C319.17 173.534 317.97 172.333 316.531 172.333H308.854C307.414 172.333 306.215 173.534 306.215 174.976C306.215 176.417 307.414 177.618 308.854 177.618Z" fill="#3D3D3D"/>
<path d="M272.319 177.618H279.996C281.435 177.618 282.635 176.417 282.635 174.976C282.635 173.534 281.435 172.333 279.996 172.333H272.319C270.879 172.333 269.68 173.534 269.68 174.976C269.68 176.417 270.879 177.618 272.319 177.618Z" fill="#3D3D3D"/>
<path d="M305.735 175.936H319.889C320.609 175.936 321.089 175.456 321.089 174.735C321.089 174.015 320.609 173.534 319.889 173.534H305.735C305.015 173.534 304.535 174.015 304.535 174.735C304.535 175.456 305.015 175.936 305.735 175.936Z" fill="#313131"/>
<path d="M269.2 175.936H283.354C284.074 175.936 284.554 175.456 284.554 174.735C284.554 174.015 284.074 173.534 283.354 173.534H269.2C268.48 173.534 268 174.015 268 174.735C268 175.456 268.48 175.936 269.2 175.936Z" fill="#313131"/>
<path d="M300.215 125H299.256V234.049H300.215V125Z" fill="#3D3D3D"/>
<path d="M447.279 205.961H422.568C422.568 205.961 432.165 215.329 430.725 231.182C430.725 231.182 441.761 231.662 445.599 227.098C449.198 223.015 447.279 205.961 447.279 205.961Z" fill="#3D3D3D"/>
<path d="M45.4339 204.04H70.8641V220.373C70.8641 225.897 66.5458 230.221 61.0279 230.221H46.1536L41.3555 207.883L45.4339 204.04Z" fill="#333333"/>
<path d="M50.7109 117.569C53.11 110.123 55.9889 109.402 60.0673 109.162C67.5045 108.682 146.914 108.201 214.328 108.201C271.186 108.201 306.932 108.441 314.609 108.922C323.006 109.402 333.322 112.765 342.439 117.329H50.7109V117.569Z" fill="#3D3D3D"/>
<path d="M370.27 235.025C370.27 233.103 370.27 231.182 370.27 230.941C370.27 214.368 382.985 200.917 399.058 200.437C399.298 200.437 399.538 200.437 400.018 200.437C415.612 200.437 428.567 212.446 429.527 227.579V230.701L426.408 231.182C426.408 230.701 426.408 229.981 426.408 229.5C426.408 215.088 414.413 203.799 399.778 203.799C399.538 203.799 399.298 203.799 399.058 203.799C384.424 204.28 373.388 216.53 373.388 231.182C373.388 232.623 373.388 234.064 373.388 235.265C372.429 235.025 371.469 235.025 370.27 235.025Z" fill="#CFD3D1"/>
<path d="M98.6934 233.343C98.6934 232.142 98.6934 231.182 98.6934 230.221C98.9333 222.294 101.572 215.088 106.85 209.804C112.368 204.039 119.565 200.677 127.482 200.437C127.722 200.437 127.962 200.437 128.442 200.437C144.756 200.437 157.951 213.407 157.951 229.26C157.951 229.5 157.951 231.422 157.951 233.343C156.991 233.343 156.031 233.343 155.072 233.343C155.072 231.902 155.072 230.701 155.072 229.26C155.072 214.848 143.076 203.559 128.442 203.559C128.202 203.559 127.962 203.559 127.722 203.559C120.525 203.799 114.047 206.682 109.249 211.966C104.451 217.25 102.052 223.976 102.052 230.941C102.052 231.662 102.052 232.623 102.052 233.343C100.613 233.343 99.653 233.343 98.6934 233.343Z" fill="#CFD3D1"/>
<g opacity="0.4" clip-path="url(#clip2_298_7129)">
<path d="M170.504 176.735L180.11 183.706L179.811 185.044C179.393 186.912 178.511 188.573 177.331 189.941C174.612 193.088 170.265 194.691 165.888 193.735C163.288 193.162 161.062 191.779 159.449 189.868C158.149 188.323 159.598 186.044 161.585 186.485C162.048 186.588 162.452 186.823 162.751 187.176C163.722 188.338 165.036 189.176 166.575 189.573C166.665 189.588 166.739 189.618 166.829 189.632C168.726 190.044 170.608 189.706 172.162 188.809C173.507 188.029 174.597 186.853 175.225 185.382L167.949 180.118C167.277 179.618 166.948 178.779 167.143 177.97C167.486 176.47 169.264 175.823 170.504 176.735ZM170.175 184L162.885 178.632C163.512 177.162 164.618 175.985 165.948 175.206C167.501 174.309 169.383 173.97 171.281 174.382C172.924 174.75 174.328 175.618 175.344 176.823C175.658 177.191 176.076 177.441 176.554 177.544C178.526 177.985 179.96 175.706 178.676 174.176C177.077 172.235 174.821 170.853 172.222 170.279C167.845 169.309 163.498 170.912 160.779 174.073C159.598 175.441 158.732 177.103 158.299 178.97L158 180.309L167.621 187.382C168.861 188.294 170.653 187.647 170.982 186.147C171.176 185.338 170.862 184.5 170.175 184Z" fill="white"/>
<path d="M177.332 175.868C177.272 175.868 177.197 175.838 177.168 175.78C177.168 175.78 177.078 175.647 176.884 175.427C176.809 175.338 176.824 175.221 176.914 175.147C177.003 175.074 177.123 175.088 177.197 175.177C177.392 175.412 177.496 175.559 177.496 175.574C177.556 175.662 177.526 175.78 177.437 175.838C177.407 175.853 177.362 175.868 177.332 175.868Z" fill="black"/>
<path d="M160.69 178.132C160.66 178.132 160.645 178.132 160.615 178.118C160.51 178.073 160.466 177.971 160.495 177.868C160.615 177.559 160.749 177.25 160.899 176.941C160.944 176.838 161.063 176.809 161.168 176.853C161.272 176.897 161.302 177.015 161.257 177.118C161.108 177.412 160.973 177.706 160.869 178C160.854 178.088 160.764 178.132 160.69 178.132Z" fill="black"/>
<path d="M161.57 176.383C161.541 176.383 161.496 176.368 161.466 176.353C161.376 176.294 161.346 176.177 161.406 176.088C161.585 175.809 161.795 175.53 162.004 175.28C162.078 175.191 162.198 175.177 162.287 175.25C162.377 175.324 162.392 175.441 162.317 175.53C162.108 175.78 161.929 176.044 161.75 176.309C161.705 176.353 161.645 176.383 161.57 176.383Z" fill="black"/>
<path d="M162.825 174.868C162.78 174.868 162.721 174.853 162.691 174.809C162.616 174.736 162.616 174.603 162.691 174.53C162.93 174.294 163.184 174.059 163.438 173.853C163.527 173.78 163.647 173.794 163.722 173.883C163.796 173.971 163.781 174.089 163.692 174.162C163.438 174.368 163.199 174.574 162.975 174.809C162.915 174.839 162.87 174.868 162.825 174.868Z" fill="black"/>
<path d="M176.361 174.794C176.316 174.794 176.256 174.779 176.226 174.735C175.987 174.515 175.748 174.309 175.479 174.118C175.389 174.059 175.375 173.926 175.434 173.838C175.494 173.75 175.628 173.735 175.718 173.794C175.987 174 176.256 174.206 176.495 174.441C176.57 174.515 176.585 174.632 176.51 174.721C176.465 174.765 176.405 174.794 176.361 174.794Z" fill="black"/>
<path d="M164.365 173.633C164.306 173.633 164.231 173.603 164.201 173.544C164.141 173.456 164.171 173.338 164.261 173.28C164.545 173.103 164.843 172.927 165.142 172.78C165.247 172.736 165.366 172.765 165.411 172.868C165.456 172.971 165.426 173.088 165.321 173.133C165.038 173.28 164.754 173.427 164.47 173.603C164.44 173.618 164.395 173.633 164.365 173.633Z" fill="black"/>
<path d="M174.761 173.618C174.731 173.618 174.687 173.603 174.657 173.589C174.373 173.427 174.089 173.28 173.79 173.133C173.686 173.089 173.641 172.971 173.701 172.868C173.745 172.765 173.865 172.721 173.969 172.78C174.268 172.927 174.582 173.074 174.866 173.25C174.955 173.309 174.985 173.427 174.941 173.515C174.896 173.574 174.836 173.618 174.761 173.618Z" fill="black"/>
<path d="M172.969 172.78C172.955 172.78 172.925 172.78 172.91 172.765C172.611 172.662 172.297 172.574 171.969 172.5C171.864 172.471 171.789 172.368 171.819 172.265C171.849 172.162 171.954 172.088 172.058 172.118C172.387 172.191 172.715 172.294 173.029 172.397C173.134 172.427 173.194 172.544 173.149 172.647C173.134 172.736 173.044 172.78 172.969 172.78Z" fill="black"/>
<path d="M166.143 172.765C166.068 172.765 165.979 172.721 165.949 172.633C165.904 172.53 165.964 172.412 166.068 172.383C166.382 172.265 166.711 172.177 167.039 172.089C167.144 172.059 167.248 172.133 167.278 172.236C167.308 172.339 167.233 172.442 167.129 172.471C166.815 172.544 166.501 172.633 166.203 172.75C166.188 172.765 166.158 172.765 166.143 172.765Z" fill="black"/>
<path d="M171.043 172.324C171.028 172.324 171.028 172.324 171.013 172.324C170.699 172.28 170.371 172.25 170.042 172.235C169.937 172.235 169.848 172.132 169.848 172.03C169.848 171.927 169.952 171.838 170.057 171.838C170.4 171.853 170.729 171.882 171.058 171.941C171.162 171.956 171.237 172.059 171.222 172.162C171.222 172.25 171.132 172.324 171.043 172.324Z" fill="black"/>
<path d="M168.069 172.309C167.965 172.309 167.89 172.235 167.875 172.132C167.86 172.03 167.935 171.927 168.039 171.912C168.368 171.868 168.712 171.838 169.055 171.838C169.16 171.838 169.264 171.927 169.264 172.03C169.264 172.132 169.175 172.235 169.07 172.235C168.741 172.25 168.413 172.265 168.099 172.309C168.084 172.309 168.069 172.309 168.069 172.309Z" fill="black"/>
<path d="M160.719 179.824C160.674 179.824 160.629 179.809 160.599 179.779L160.121 179.426L160.136 179.309C160.151 179.147 160.181 178.985 160.211 178.824C160.241 178.721 160.345 178.647 160.45 178.676C160.554 178.706 160.629 178.809 160.599 178.912C160.569 179.029 160.554 179.132 160.539 179.25L160.823 179.471C160.913 179.529 160.928 179.662 160.868 179.75C160.838 179.794 160.778 179.824 160.719 179.824Z" fill="black"/>
<path d="M167.74 185.044C167.695 185.044 167.651 185.029 167.621 185L166.919 184.485C166.829 184.426 166.814 184.294 166.874 184.206C166.934 184.118 167.068 184.103 167.158 184.162L167.86 184.676C167.949 184.735 167.964 184.868 167.905 184.956C167.86 185.015 167.8 185.044 167.74 185.044Z" fill="black"/>
<path d="M166.336 184C166.291 184 166.246 183.985 166.216 183.956L165.514 183.441C165.425 183.383 165.41 183.25 165.469 183.162C165.529 183.074 165.664 183.059 165.753 183.118L166.455 183.633C166.545 183.691 166.56 183.824 166.5 183.912C166.455 183.971 166.396 184 166.336 184Z" fill="black"/>
<path d="M164.932 182.956C164.887 182.956 164.842 182.942 164.812 182.912L164.11 182.397C164.02 182.339 164.005 182.206 164.065 182.118C164.125 182.03 164.259 182.015 164.349 182.074L165.051 182.589C165.141 182.647 165.156 182.78 165.096 182.868C165.051 182.927 164.991 182.956 164.932 182.956Z" fill="black"/>
<path d="M163.527 181.912C163.482 181.912 163.438 181.897 163.408 181.868L162.706 181.353C162.616 181.294 162.601 181.162 162.661 181.074C162.721 180.985 162.855 180.971 162.945 181.029L163.647 181.544C163.736 181.603 163.751 181.735 163.692 181.824C163.647 181.882 163.587 181.912 163.527 181.912Z" fill="black"/>
<path d="M162.123 180.868C162.078 180.868 162.033 180.853 162.004 180.824L161.301 180.309C161.212 180.25 161.197 180.118 161.257 180.03C161.316 179.941 161.451 179.927 161.54 179.985L162.243 180.5C162.332 180.559 162.347 180.691 162.287 180.78C162.243 180.838 162.183 180.868 162.123 180.868Z" fill="black"/>
<path d="M162.631 180.25C162.586 180.25 162.541 180.235 162.511 180.206L161.809 179.691C161.72 179.633 161.705 179.5 161.764 179.412C161.824 179.324 161.959 179.309 162.048 179.368L162.75 179.883C162.84 179.941 162.855 180.074 162.795 180.162C162.75 180.221 162.691 180.25 162.631 180.25Z" fill="black"/>
<path d="M163.139 179.618C163.094 179.618 163.049 179.603 163.019 179.574L162.317 179.059C162.227 179 162.212 178.868 162.272 178.78C162.332 178.691 162.466 178.677 162.556 178.735L163.258 179.25C163.348 179.309 163.363 179.441 163.303 179.53C163.258 179.588 163.198 179.618 163.139 179.618Z" fill="black"/>
<path d="M161.121 182.118C161.076 182.118 161.031 182.103 161.002 182.074L160.299 181.559C160.21 181.5 160.195 181.368 160.255 181.28C160.314 181.191 160.449 181.177 160.538 181.235L161.241 181.75C161.33 181.809 161.345 181.941 161.285 182.03C161.241 182.088 161.181 182.118 161.121 182.118Z" fill="black"/>
<path d="M161.615 181.5C161.57 181.5 161.526 181.485 161.496 181.456L160.794 180.941C160.704 180.883 160.689 180.75 160.749 180.662C160.808 180.574 160.943 180.559 161.033 180.618L161.735 181.133C161.824 181.191 161.839 181.324 161.78 181.412C161.735 181.471 161.675 181.5 161.615 181.5Z" fill="black"/>
<path d="M168.831 185.853C168.786 185.853 168.741 185.839 168.711 185.809L168.323 185.53C168.233 185.471 168.218 185.339 168.278 185.25C168.338 185.162 168.472 185.147 168.562 185.206L168.95 185.486C169.04 185.544 169.055 185.677 168.995 185.765C168.95 185.824 168.891 185.853 168.831 185.853Z" fill="black"/>
<path d="M160.793 188.074C160.853 188.074 160.928 188.103 160.957 188.162C160.957 188.162 161.047 188.294 161.241 188.515C161.316 188.603 161.301 188.721 161.211 188.794C161.122 188.868 161.002 188.853 160.928 188.765C160.733 188.53 160.629 188.383 160.629 188.368C160.569 188.28 160.599 188.162 160.689 188.103C160.718 188.074 160.763 188.074 160.793 188.074Z" fill="black"/>
<path d="M177.436 185.794C177.465 185.794 177.48 185.794 177.51 185.809C177.615 185.853 177.66 185.956 177.63 186.059C177.51 186.368 177.376 186.677 177.226 186.986C177.182 187.089 177.062 187.118 176.957 187.074C176.853 187.03 176.823 186.912 176.868 186.809C177.017 186.515 177.152 186.221 177.256 185.927C177.286 185.853 177.361 185.794 177.436 185.794Z" fill="black"/>
<path d="M176.553 187.544C176.582 187.544 176.627 187.559 176.657 187.574C176.747 187.633 176.777 187.75 176.717 187.839C176.538 188.118 176.329 188.397 176.119 188.647C176.045 188.736 175.925 188.75 175.836 188.677C175.746 188.603 175.731 188.486 175.806 188.397C176.015 188.147 176.194 187.883 176.373 187.618C176.418 187.574 176.478 187.544 176.553 187.544Z" fill="black"/>
<path d="M175.313 189.074C175.358 189.074 175.418 189.088 175.448 189.133C175.522 189.206 175.522 189.338 175.448 189.412C175.209 189.647 174.955 189.883 174.701 190.088C174.611 190.162 174.492 190.147 174.417 190.059C174.342 189.971 174.357 189.853 174.447 189.78C174.701 189.574 174.94 189.368 175.164 189.133C175.209 189.088 175.254 189.074 175.313 189.074Z" fill="black"/>
<path d="M161.779 189.147C161.823 189.147 161.883 189.162 161.913 189.206C162.152 189.427 162.391 189.633 162.66 189.824C162.75 189.883 162.765 190.015 162.705 190.103C162.645 190.192 162.511 190.206 162.421 190.147C162.152 189.942 161.883 189.736 161.644 189.5C161.569 189.427 161.554 189.309 161.629 189.221C161.674 189.162 161.719 189.147 161.779 189.147Z" fill="black"/>
<path d="M173.775 190.309C173.835 190.309 173.909 190.338 173.939 190.397C173.999 190.486 173.969 190.603 173.879 190.662C173.596 190.838 173.297 191.015 172.998 191.162C172.893 191.206 172.774 191.177 172.729 191.074C172.684 190.971 172.714 190.853 172.819 190.809C173.103 190.662 173.386 190.515 173.67 190.338C173.7 190.324 173.73 190.309 173.775 190.309Z" fill="black"/>
<path d="M163.362 190.324C163.392 190.324 163.437 190.338 163.467 190.353C163.75 190.515 164.034 190.662 164.333 190.809C164.438 190.853 164.482 190.971 164.423 191.074C164.378 191.177 164.258 191.221 164.154 191.162C163.855 191.015 163.541 190.868 163.257 190.691C163.168 190.633 163.138 190.515 163.183 190.427C163.228 190.353 163.287 190.324 163.362 190.324Z" fill="black"/>
<path d="M165.155 191.147C165.17 191.147 165.2 191.147 165.215 191.162C165.514 191.265 165.828 191.353 166.156 191.427C166.261 191.456 166.335 191.559 166.306 191.662C166.276 191.765 166.171 191.839 166.067 191.809C165.738 191.736 165.409 191.633 165.096 191.53C164.991 191.5 164.931 191.383 164.976 191.28C165.006 191.206 165.081 191.147 165.155 191.147Z" fill="black"/>
<path d="M171.997 191.177C172.072 191.177 172.162 191.221 172.192 191.309C172.236 191.412 172.177 191.53 172.072 191.559C171.758 191.677 171.43 191.765 171.101 191.853C170.997 191.883 170.892 191.809 170.862 191.706C170.832 191.603 170.907 191.5 171.011 191.471C171.325 191.397 171.639 191.309 171.938 191.191C171.953 191.177 171.968 191.177 171.997 191.177Z" fill="black"/>
<path d="M167.082 191.603C167.097 191.603 167.097 191.603 167.111 191.603C167.425 191.647 167.754 191.677 168.082 191.691C168.187 191.691 168.277 191.794 168.277 191.897C168.277 192 168.172 192.088 168.068 192.088C167.724 192.074 167.395 192.044 167.067 191.985C166.962 191.971 166.887 191.868 166.902 191.765C166.902 191.677 166.992 191.603 167.082 191.603Z" fill="black"/>
<path d="M170.054 191.633C170.159 191.633 170.234 191.706 170.249 191.809C170.264 191.912 170.189 192.015 170.084 192.03C169.756 192.074 169.412 192.103 169.069 192.103C168.964 192.103 168.859 192.015 168.859 191.912C168.859 191.809 168.949 191.706 169.054 191.706C169.382 191.692 169.711 191.677 170.025 191.633C170.04 191.633 170.054 191.633 170.054 191.633Z" fill="black"/>
<path d="M177.406 184.103C177.451 184.103 177.496 184.118 177.525 184.147L178.004 184.5L177.989 184.618C177.974 184.779 177.944 184.941 177.914 185.103C177.884 185.206 177.779 185.279 177.675 185.25C177.57 185.221 177.496 185.118 177.525 185.015C177.555 184.897 177.57 184.794 177.585 184.677L177.301 184.456C177.212 184.397 177.197 184.265 177.257 184.177C177.286 184.132 177.346 184.103 177.406 184.103Z" fill="black"/>
<path d="M170.384 178.897C170.429 178.897 170.473 178.912 170.503 178.941L171.205 179.456C171.295 179.515 171.31 179.647 171.25 179.735C171.19 179.823 171.056 179.838 170.966 179.779L170.264 179.265C170.175 179.206 170.16 179.073 170.219 178.985C170.264 178.912 170.324 178.897 170.384 178.897Z" fill="black"/>
<path d="M171.788 179.941C171.833 179.941 171.878 179.956 171.908 179.986L172.61 180.5C172.699 180.559 172.714 180.691 172.655 180.78C172.595 180.868 172.46 180.883 172.371 180.824L171.669 180.294C171.579 180.236 171.564 180.103 171.624 180.015C171.669 179.956 171.728 179.941 171.788 179.941Z" fill="black"/>
<path d="M173.192 180.985C173.237 180.985 173.282 181 173.312 181.029L174.014 181.544C174.104 181.603 174.119 181.735 174.059 181.824C173.999 181.912 173.865 181.927 173.775 181.868L173.073 181.353C172.983 181.294 172.968 181.162 173.028 181.074C173.073 181 173.133 180.985 173.192 180.985Z" fill="black"/>
<path d="M174.597 182.015C174.641 182.015 174.686 182.029 174.716 182.059L175.418 182.573C175.508 182.632 175.523 182.765 175.463 182.853C175.403 182.941 175.269 182.956 175.179 182.897L174.477 182.382C174.388 182.323 174.373 182.191 174.432 182.103C174.477 182.044 174.537 182.015 174.597 182.015Z" fill="black"/>
<path d="M176.001 183.059C176.046 183.059 176.091 183.074 176.12 183.103L176.823 183.618C176.912 183.677 176.927 183.809 176.867 183.897C176.808 183.986 176.673 184 176.584 183.941L175.881 183.427C175.792 183.368 175.777 183.236 175.837 183.147C175.881 183.088 175.941 183.059 176.001 183.059Z" fill="black"/>
<path d="M175.509 183.691C175.554 183.691 175.598 183.706 175.628 183.736L176.33 184.25C176.42 184.309 176.435 184.441 176.375 184.53C176.315 184.618 176.181 184.633 176.091 184.574L175.389 184.059C175.3 184 175.285 183.868 175.344 183.78C175.389 183.721 175.449 183.691 175.509 183.691Z" fill="black"/>
<path d="M174.985 184.324C175.03 184.324 175.075 184.338 175.105 184.368L175.807 184.883C175.897 184.941 175.912 185.074 175.852 185.162C175.792 185.25 175.658 185.265 175.568 185.206L174.866 184.691C174.776 184.633 174.761 184.5 174.821 184.412C174.866 184.338 174.926 184.324 174.985 184.324Z" fill="black"/>
<path d="M177.017 181.809C177.061 181.809 177.106 181.824 177.136 181.853L177.838 182.368C177.928 182.427 177.943 182.559 177.883 182.647C177.823 182.736 177.689 182.75 177.599 182.691L176.897 182.177C176.807 182.118 176.793 181.986 176.852 181.897C176.897 181.838 176.957 181.809 177.017 181.809Z" fill="black"/>
<path d="M176.524 182.427C176.569 182.427 176.614 182.441 176.644 182.471L177.346 182.986C177.436 183.044 177.451 183.177 177.391 183.265C177.331 183.353 177.197 183.368 177.107 183.309L176.405 182.794C176.315 182.736 176.3 182.603 176.36 182.515C176.405 182.456 176.465 182.427 176.524 182.427Z" fill="black"/>
<path d="M169.294 178.088C169.339 178.088 169.384 178.103 169.413 178.132L169.802 178.412C169.891 178.471 169.906 178.603 169.847 178.691C169.787 178.78 169.652 178.794 169.563 178.735L169.174 178.456C169.085 178.397 169.07 178.265 169.13 178.177C169.174 178.118 169.234 178.088 169.294 178.088Z" fill="black"/>
<path d="M184.293 185.662L184.696 184.868C185.398 185.544 186.653 186.044 187.938 186.044C189.776 186.044 190.582 185.28 190.582 184.338C190.582 181.691 184.532 183.309 184.532 179.735C184.532 178.309 185.652 177.088 188.147 177.088C189.253 177.088 190.403 177.412 191.195 177.941L190.851 178.75C190.015 178.206 189.029 177.956 188.162 177.956C186.369 177.956 185.563 178.75 185.563 179.706C185.563 182.353 191.613 180.75 191.613 184.28C191.613 185.706 190.463 186.912 187.953 186.912C186.459 186.927 185.01 186.412 184.293 185.662ZM200.801 185.956V186.838H193.854V177.162H200.591V178.044H194.9V181.485H199.979V182.353H194.9V185.941H200.801V185.956ZM211.452 177.162V186.824H210.6L204.281 178.985V186.824H203.236V177.162H204.087L210.421 185V177.162H211.452ZM216.561 178.059H213.11V177.177H221.043V178.059H217.592V186.838H216.546V178.059H216.561ZM229.409 186.838L227.168 183.735C226.914 183.765 226.66 183.78 226.376 183.78H223.732V186.838H222.701V177.162H226.376C228.871 177.162 230.395 178.412 230.395 180.471C230.395 181.985 229.588 183.059 228.154 183.515L230.559 186.824H229.409V186.838ZM229.349 180.485C229.349 178.941 228.303 178.059 226.346 178.059H223.732V182.912H226.346C228.318 182.897 229.349 182 229.349 180.485ZM236.071 183.5V186.838H235.041V183.5L231.112 177.177H232.217L235.578 182.603L238.97 177.162H240.015L236.071 183.5Z" fill="white"/>
</g>
</g>
<path d="M83.6877 251.813C83.6877 251.813 83.1873 254.538 82.9044 257.22C82.7956 258.28 83.6007 259.188 84.6669 259.253C88.279 259.426 96.0037 259.793 98.7671 259.707C99.1806 259.685 99.4634 259.274 99.3111 258.885C99.1806 258.561 98.9412 258.301 98.6148 258.15L85.9072 252.203L83.6877 251.813Z" fill="#222222"/>
<path d="M83.3164 250.213L83.6646 253.478C83.6646 253.478 85.884 254.538 87.429 253.392L86.5368 249.759L83.3164 250.213Z" fill="url(#paint0_linear_298_7129)"/>
<path d="M84.1868 188.989C84.0127 189.833 82.8812 231.42 87.1678 250.105C87.2331 250.407 87.0808 250.732 86.7979 250.84C86.1016 251.121 84.7525 251.51 83.1423 251.532C82.6418 251.554 82.2066 251.208 82.0543 250.732C80.814 246.385 74.8954 224.672 74.2861 203.955C73.6116 180.815 74.2861 203.176 74.2861 203.176L74.9389 188.881L84.1868 188.989Z" fill="#3D3D3D"/>
<path d="M68.9991 253.111C68.9991 253.111 68.2158 254.473 67.4325 258.128C67.3019 258.777 67.7588 259.426 68.4334 259.491C69.6302 259.62 71.458 259.793 72.9376 259.793C73.6122 259.793 74.1562 259.209 74.0691 258.539C73.9168 257.198 73.4381 255.014 71.8714 253.284L68.9991 253.111Z" fill="#222222"/>
<path d="M68.3691 248.916L69.2395 253.846C69.2395 253.846 70.1317 254.517 71.916 254.063L71.5243 248.764L68.3691 248.916Z" fill="url(#paint1_linear_298_7129)"/>
<path d="M66.4755 190.092C62.6023 212 66.7584 244.352 68.1945 250.688C68.2815 251.078 68.5862 251.38 68.9778 251.445C69.6524 251.553 70.7404 251.662 71.8501 251.359C72.22 251.251 72.5029 250.926 72.5029 250.537C72.764 245.433 72.6987 214.054 76.2238 201.684C76.3979 201.057 76.7895 200.516 77.3335 200.148L83.992 195.542L84.5795 187.995L66.4755 190.092Z" fill="#3D3D3D"/>
<path d="M90.1926 148.722C79.2258 148.441 67.1057 151.361 67.1057 151.361C63.6459 170.283 66.1482 192.169 66.1482 192.169C74.6127 194.461 84.2305 190.98 84.2305 190.98C85.7101 183.064 92.5209 160.833 92.5209 160.833C97.8955 160.227 102.313 158.735 105.968 156.724C103.205 153.545 101.943 149.458 101.399 147.057C97.5038 148.203 93.5653 148.809 90.1926 148.722Z" fill="#EF6238"/>
<path d="M122.745 132.978C121.678 131.681 120.308 132.265 120.308 132.265C118.632 139.034 110.124 144.44 101.398 147.035C101.942 149.436 103.204 153.523 105.946 156.745C120.438 148.83 122.745 132.978 122.745 132.978Z" fill="url(#paint2_linear_298_7129)"/>
<path d="M122.463 133.303C122.572 133.67 121.267 134.189 120.505 132.719C120.483 132.027 120.092 129.021 120.505 128.458C122.768 125.452 127.142 121.689 127.142 121.689C127.86 122.425 127.251 123.117 127.251 123.117L125.118 125.279C125.553 126.08 126.076 126.75 126.315 127.701C126.489 128.437 126.38 129.194 126.01 129.864C125.64 130.513 125.118 131.378 124.639 132.048C123.747 133.303 122.463 133.303 122.463 133.303Z" fill="url(#paint3_linear_298_7129)"/>
<path d="M124.226 126.685L122.289 128.285L121.68 129.886L123.377 131.789C123.377 131.789 123.986 128.61 124.421 127.918C124.835 127.226 124.617 126.901 124.226 126.685Z" fill="url(#paint4_linear_298_7129)"/>
<path d="M71.197 161.957L67.0844 151.36C67.0844 151.36 56.7703 158.173 55.0078 166.931C56.9444 167.082 60.4477 167.623 63.8857 169.396C64.6908 165.266 71.197 161.957 71.197 161.957Z" fill="#EF6238"/>
<path d="M80.0533 171.97C80.0533 171.97 68.4989 178.328 64.6692 172.77C63.8641 171.624 63.69 170.478 63.9076 169.397C60.4696 167.645 56.9663 167.104 55.0297 166.931C54.4857 169.57 54.7468 172.381 56.27 175.236C62.9502 187.649 81.5547 174.803 81.5547 174.803L80.0533 171.97Z" fill="url(#paint5_linear_298_7129)"/>
<path d="M79.1624 139.769L75.5721 149.76C75.5068 149.933 75.5721 150.106 75.7244 150.192C76.6601 150.733 80.0763 152.268 84.2324 149.695C84.6676 149.435 84.9722 148.981 85.0375 148.484L86.2561 139.812L79.1624 139.769Z" fill="url(#paint6_linear_298_7129)"/>
<path d="M86.8419 130.556C86.8419 130.556 90.6063 137.757 90.0841 140.655C89.5619 143.553 84.8183 143.293 80.7057 140.893L77.877 133.129L86.8419 130.556Z" fill="url(#paint7_linear_298_7129)"/>
<path d="M80.9241 137.108C81.0981 137.044 81.1634 136.827 81.0546 136.676C80.75 136.2 80.1842 135.249 80.0102 134.427C80.0102 134.427 79.3356 133.973 81.7727 133.432C84.2098 132.87 87.8654 132.005 88.6487 129.95C89.4103 127.939 87.4955 122.857 84.3403 126.858C84.2098 127.009 83.9922 127.009 83.8616 126.858C83.3611 126.187 82.0121 124.803 80.1407 125.625C78.3782 126.382 78.1824 127.658 78.1824 128.307C78.1824 128.501 78.0083 128.631 77.8342 128.609C76.9421 128.436 74.8314 128.263 73.8087 130.426C72.9818 132.199 73.504 133.216 73.9828 133.713C74.1351 133.865 74.0698 134.146 73.8522 134.211C73.2647 134.384 72.5031 134.859 72.5684 136.222C72.6554 138.103 74.7661 137.952 75.3754 137.865C75.4842 137.844 75.5712 137.887 75.6365 137.952C76.137 138.514 78.4435 140.958 80.9458 141.261C81.1634 141.282 81.3375 141.066 81.2722 140.871L80.206 137.714C80.1625 137.563 80.2278 137.411 80.3801 137.346L80.9241 137.108Z" fill="#5D3314"/>
<path d="M81.36 137.541C81.36 137.541 78.6401 135.659 78.4442 137.217C78.2266 138.774 80.8813 139.509 82.2087 138.947L81.36 137.541Z" fill="url(#paint8_linear_298_7129)"/>
<path d="M77.7025 182.005L83.991 160.141C84.0563 159.903 84.2739 159.708 84.535 159.687C85.6665 159.557 88.9739 159.189 92.8036 158.865C97.3949 158.475 102.748 158.173 105.925 158.432C106.382 158.475 106.643 158.951 106.447 159.362C104.641 163.017 97.1773 177.852 93.4347 182.718C93.3041 182.87 93.13 182.978 92.9124 182.978L78.29 182.848C77.8765 182.826 77.5719 182.415 77.7025 182.005Z" fill="#4D4D4D"/>
<path d="M79.2255 176.728C79.2255 176.728 78.3551 173.138 78.7033 171.862C79.0515 170.586 79.7478 168.964 82.0325 169.31C84.3173 169.678 87.0155 170.629 87.0155 170.629C87.0155 170.629 86.8849 172.294 85.1441 171.754L86.2321 172.576C86.2321 172.576 86.0798 173.895 84.6002 173.203L85.6011 174.306C85.6011 174.306 84.9701 175.387 83.8821 174.695C82.7941 174.003 82.2719 177.16 79.2255 176.728Z" fill="url(#paint9_linear_298_7129)"/>
<path d="M92.3906 165.396C92.3906 166.412 93.2175 167.234 94.2402 167.234C95.2629 167.234 96.0898 166.412 96.0898 165.396C96.0898 164.379 95.2629 163.558 94.2402 163.558C93.2175 163.558 92.3906 164.379 92.3906 165.396Z" fill="#3D3D3D"/>
<path d="M84.7092 166.607L84.2305 166.477L85.5143 162.152C85.7319 161.438 86.2976 160.919 87.0157 160.768C91.0848 159.924 101.79 159.751 102.247 159.751V160.249C102.139 160.249 91.1283 160.422 87.1245 161.265C86.5805 161.373 86.1671 161.784 85.993 162.303L84.7092 166.607Z" fill="#3D3D3D"/>
<path d="M21.3965 259.274C21.3965 259.209 21.3965 259.144 21.4182 259.058C22.4627 254.992 26.6841 252.895 26.6841 252.895L28.7295 253.046C29.9045 256.636 30.6443 258.388 30.4702 259.382C30.4702 259.404 30.4485 259.426 30.4485 259.469C28.7512 259.62 25.2915 259.707 21.3965 259.274Z" fill="#222222"/>
<path d="M30.4267 259.469C30.3397 259.793 30.1003 260.053 29.7739 260.118C27.3804 260.615 23.5942 260.226 22.0058 260.01C21.6576 259.966 21.3965 259.642 21.3965 259.274C25.2915 259.707 28.7512 259.62 30.4267 259.469Z" fill="#91B3FA"/>
<path d="M25.0078 249.759L25.9 254.019C25.9652 254.322 26.2046 254.56 26.5092 254.603C26.8574 254.646 27.3796 254.646 27.8801 254.581C28.337 254.516 28.6634 254.041 28.5764 253.543L27.9671 249.759H25.0078Z" fill="url(#paint10_linear_298_7129)"/>
<path d="M47.7248 259.426C45.5488 259.361 44.4173 259.102 43.8516 258.885C43.8516 259.102 43.8516 259.318 43.8516 259.556C43.8516 259.794 44.0474 259.988 44.265 259.988L56.1893 259.902C56.5809 259.902 56.7985 259.469 56.6245 259.123C55.0578 259.231 51.0758 259.512 47.7248 259.426Z" fill="#91B3FA"/>
<path d="M56.6245 259.102C56.6027 259.08 56.6027 259.037 56.5809 259.015C55.5365 257.545 52.8383 254.647 47.5507 253.371L45.0048 253.284C45.0048 253.284 43.8733 255.231 43.8516 258.864C44.4391 259.102 45.5488 259.361 47.7248 259.404C51.0758 259.512 55.0578 259.231 56.6245 259.102Z" fill="#222222"/>
<path d="M44.5273 249.456C44.5491 249.651 44.8973 252.505 45.0496 253.63C45.0713 253.889 45.2672 254.106 45.5065 254.127C45.9417 254.171 46.638 254.235 47.2473 254.106C47.5737 254.041 47.813 253.716 47.813 253.349V248.851L44.5273 249.456Z" fill="url(#paint11_linear_298_7129)"/>
<path d="M26.7059 193.769C26.7059 193.769 22.6368 229.733 24.8998 252.203C24.8998 252.203 27.6198 252.203 28.9689 251.748C28.9689 251.748 33.1902 216.584 34.5611 206.528C34.6046 206.139 35.1486 206.139 35.2357 206.507C36.9329 214.963 43.5478 248.158 44.3529 251.294C44.3529 251.294 46.6159 252.203 48.422 251.294C48.422 251.294 44.8099 203.198 42.0899 194.656L26.7059 193.769Z" fill="#222222"/>
<path d="M18.5668 151.972C18.5668 151.972 35.7569 149.268 49.3349 152.88L48.421 166.807C48.421 166.807 44.8089 186.141 42.0889 194.683C42.0889 194.683 31.6878 196.478 26.7049 193.775C26.7049 193.775 22.6358 169.489 20.3728 165.899C20.3728 165.92 18.1098 156.47 18.5668 151.972Z" fill="#EF6238"/>
<path d="M30.512 139.683L28.793 151.188C28.793 151.188 33.5801 153.372 36.9311 151.101L36.213 142.97L30.512 139.683Z" fill="url(#paint12_linear_298_7129)"/>
<path d="M37.8674 132.2C37.911 132.286 38.9554 138.104 39.5864 141.694C39.8476 143.186 38.7596 144.548 37.2364 144.656L35.8438 144.743C33.2979 144.894 31.0567 143.099 30.665 140.591L29.6641 134.081C29.6858 134.06 36.5619 129.843 37.8674 132.2Z" fill="url(#paint13_linear_298_7129)"/>
<path d="M28.1839 134.06C27.6617 133.411 27.183 132.351 28.3145 131.227C29.4678 130.102 30.7516 130.383 31.5784 130.751C31.9484 130.924 32.3836 130.837 32.6447 130.535C32.7535 130.405 32.9275 130.297 33.1887 130.34C33.6674 130.383 34.1026 130.081 34.1461 129.605C34.2331 128.783 34.6901 127.831 36.1262 127.55C38.7809 127.031 40.1082 129.691 40.0647 131.551C40.0212 133.411 37.1054 133.8 35.4517 133.497C34.2331 133.281 33.1887 134.341 32.7099 134.903C32.5359 135.119 32.4706 135.379 32.5359 135.66L32.9493 137.455C32.6664 138.017 32.3618 138.58 31.9701 139.055C31.6655 139.401 31.3608 139.596 31.0127 139.661C30.5122 138.753 29.1196 138.58 28.4886 138.558C28.2492 138.558 28.0099 138.45 27.8576 138.255C27.3788 137.693 26.6173 136.46 28.0751 135.249C28.4451 134.99 28.4886 134.427 28.1839 134.06Z" fill="#222222"/>
<path d="M31.5128 141.607C31.5128 141.607 31.4476 138.363 30.142 138.061C28.8146 137.758 27.4003 138.709 28.5318 140.656C29.9244 143.078 31.5128 141.607 31.5128 141.607Z" fill="url(#paint14_linear_298_7129)"/>
<path d="M18.5668 151.966C18.5668 151.966 -8.11046 180.728 23.3104 191.758V189.509C23.3104 189.509 11.5602 179.625 20.5905 166.131C20.5905 166.131 19.459 153.328 18.5668 151.966Z" fill="#EF6238"/>
<path d="M23.5275 189.725C23.5275 189.725 27.5966 187.022 29.4026 187.93C31.2087 188.839 31.2087 190.179 31.2087 190.179C31.2087 190.179 30.2948 191.974 28.9457 191.52C27.5966 191.066 24.4197 191.974 23.0706 191.52C23.0923 191.542 22.6354 189.725 23.5275 189.725Z" fill="url(#paint15_linear_298_7129)"/>
<path d="M49.3133 152.88C49.3133 152.88 77.1221 180.756 45.7012 191.763V189.514C45.7012 189.514 57.4514 179.631 48.4211 166.137C48.4211 166.137 47.5072 155.129 49.3133 152.88Z" fill="#EF6238"/>
<path d="M45.4839 189.725C45.4839 189.725 41.4148 187.022 39.6088 187.93C37.8027 188.839 37.8027 190.179 37.8027 190.179C37.8027 190.179 38.7166 191.974 40.0657 191.52C41.4148 191.066 44.5917 191.974 45.9408 191.52C45.9191 191.542 46.376 189.725 45.4839 189.725Z" fill="url(#paint16_linear_298_7129)"/>
<path d="M449.029 249.742C449.029 249.742 449.943 251.17 450.161 255.149C450.183 255.517 449.878 255.841 449.508 255.841H442.414C442.132 255.841 441.936 255.56 442.023 255.3C442.436 254.068 443.698 251.105 446.505 249.396L449.029 249.742Z" fill="#222222"/>
<path d="M449.356 247.039L448.964 250.391C448.921 250.672 448.703 250.91 448.42 250.953C448.029 250.996 447.463 251.04 446.919 250.932C446.418 250.845 446.07 250.413 446.07 249.915V246.693L449.356 247.039Z" fill="url(#paint17_linear_298_7129)"/>
<path d="M431.492 249.375C431.492 249.375 432.841 251.472 432.82 254.348C432.82 255.019 432.232 255.56 431.558 255.56H420.547C420.025 255.56 419.829 254.911 420.243 254.608C422.331 253.159 426.422 250.434 429.382 249.375H431.492Z" fill="#222222"/>
<path d="M432.624 245.763L431.775 249.893C431.688 250.348 431.231 250.672 430.752 250.564C430.469 250.499 430.143 250.391 429.773 250.153C429.447 249.937 429.273 249.547 429.338 249.158L430.23 244.163L432.624 245.763Z" fill="url(#paint18_linear_298_7129)"/>
<path d="M447.767 188.346C447.767 188.346 450.748 190.962 451.292 194.098C451.858 197.234 449.704 248.228 449.704 248.228C449.704 248.228 446.723 248.726 445.2 247.796C445.2 247.796 443.372 214.708 442.001 207.052C442.001 207.052 434.755 241.329 432.732 247.514C432.732 247.514 429.859 247.861 428.945 247.32C428.945 247.32 430.838 202.878 433.232 194.985L447.767 188.346Z" fill="#222222"/>
<path d="M442.112 206.015C442.09 206.015 442.046 206.015 442.025 205.993C441.829 205.95 441.72 205.734 441.763 205.539L443.026 200.716C443.047 200.63 443.113 200.543 443.178 200.5L445.919 198.748C446.094 198.64 446.311 198.684 446.42 198.857C446.529 199.03 446.485 199.246 446.311 199.354L443.7 201.019L442.482 205.69C442.416 205.907 442.264 206.015 442.112 206.015Z" fill="#2F2F2F"/>
<path d="M418.413 158.87C430.947 157.831 434.211 160.405 434.211 160.405L428.183 169.856C428.183 169.856 415.867 169.618 407.055 162.849C408.708 161.075 409.862 159.129 410.58 157.615C412.864 158.567 415.497 159.129 418.413 158.87Z" fill="#DF5A33"/>
<path d="M398.785 140.596C398.807 140.206 399.351 140.098 399.525 140.444L401.114 143.84C401.418 144.488 401.527 145.224 401.397 145.937L400.831 147.905C400.657 148.857 400.918 149.852 401.527 150.609C402.985 152.425 406.118 155.756 410.579 157.615C409.839 159.129 408.708 161.097 407.054 162.849C403.812 160.362 401.048 157.01 399.525 152.468C398.807 152.252 398.307 151.56 398.35 150.803L398.785 140.596Z" fill="url(#paint19_linear_298_7129)"/>
<path d="M414.279 164.362C418.696 159.648 427.095 157.507 431.948 156.62C434.08 156.231 436.169 157.421 436.931 159.432C439.128 165.271 445.069 180.495 446.222 183.112C447.158 185.253 448.159 187.351 448.79 188.67C449.16 189.449 448.833 190.379 448.05 190.768C443.959 192.736 436.604 194.942 433.601 195.807C432.949 196.001 432.296 195.504 432.296 194.834C432.296 194.25 432.144 193.687 431.839 193.19L420.524 174.462C413.474 182.226 407.316 182.939 402.572 181.231C403.377 178.787 403.9 176.322 404.139 173.878C411.167 172.688 414.279 164.362 414.279 164.362Z" fill="#EF6238"/>
<path d="M392.586 172.559L393.848 170.894C397.939 173.683 401.355 174.354 404.162 173.878C403.901 176.343 403.4 178.787 402.595 181.231C396.35 178.982 392.586 172.559 392.586 172.559Z" fill="url(#paint20_linear_298_7129)"/>
<path d="M393.478 172.602L386.362 172.883L379.812 169.25C380.748 168.666 386.079 169.856 386.079 169.856C386.079 169.856 391.65 169.012 393.151 169.012C394.391 169.012 394.217 170.807 394.13 171.413C394.109 171.542 394.087 171.607 394.087 171.607L393.478 172.602Z" fill="url(#paint21_linear_298_7129)"/>
<path d="M425.268 147.948L429.032 157.053C429.032 157.053 424.724 160.016 421.242 159.734L419.371 151.538L425.268 147.948Z" fill="url(#paint22_linear_298_7129)"/>
<path d="M418.935 141.742C418.848 141.872 416.215 151.301 416.215 151.301L421.677 152.685L425.506 144.099C425.506 144.099 420.371 139.709 418.935 141.742Z" fill="url(#paint23_linear_298_7129)"/>
<path d="M423.439 145.397L421.785 150.068C421.764 150.133 421.742 150.176 421.698 150.241C421.481 150.565 420.61 151.603 419.609 150.652C418.696 149.808 417.825 149.051 417.042 148.9C416.694 148.835 416.346 149.051 416.258 149.397C416.019 150.263 415.519 152.209 415.345 153.961C415.301 154.307 415.562 154.631 415.91 154.696C416.977 154.89 419.24 155.258 421.133 155.128C421.394 155.107 421.611 154.955 421.72 154.717C422.242 153.593 423.831 150.154 424.418 149.268C424.984 148.446 426.333 148.468 426.921 148.511C427.117 148.532 427.291 148.468 427.443 148.338C427.943 147.905 428.901 146.781 427.552 145.462C427.269 145.18 427.269 144.726 427.574 144.467C428.139 143.926 428.77 142.975 427.813 141.785C426.834 140.574 425.55 140.769 424.766 141.05C424.44 141.158 424.092 141.028 423.918 140.747C423.809 140.574 423.657 140.466 423.352 140.488C422.96 140.531 422.612 140.185 422.612 139.796C422.634 139.017 422.351 138.044 421.002 137.633C418.609 136.898 417.129 139.19 416.977 140.898C416.824 142.607 419.457 143.256 421.002 143.148C422.177 143.061 423.047 144.229 423.396 144.77C423.483 144.986 423.504 145.202 423.439 145.397Z" fill="#222222"/>
<path d="M423.766 150.998C423.766 150.998 424.157 148.035 425.398 147.884C426.638 147.732 427.856 148.749 426.616 150.414C425.093 152.49 423.766 150.998 423.766 150.998Z" fill="url(#paint24_linear_298_7129)"/>
<path d="M380.312 171.24C397.605 171.24 411.624 157.307 411.624 140.12C411.624 122.933 397.605 109 380.312 109C363.019 109 349 122.933 349 140.12C349 157.307 363.019 171.24 380.312 171.24Z" fill="url(#paint25_linear_298_7129)"/>
<path d="M380.313 170.202C397.029 170.202 410.58 156.734 410.58 140.12C410.58 123.506 397.029 110.038 380.313 110.038C363.596 110.038 350.045 123.506 350.045 140.12C350.045 156.734 363.596 170.202 380.313 170.202Z" fill="#EF6238"/>
<path d="M352.395 138.974C352.395 138.974 352.373 138.974 352.395 138.974C352.199 138.974 352.068 138.823 352.068 138.65C352.134 137.46 352.264 136.271 352.482 135.125C352.504 134.952 352.678 134.843 352.852 134.865C353.026 134.887 353.135 135.06 353.113 135.233C352.917 136.357 352.765 137.525 352.721 138.671C352.699 138.823 352.569 138.974 352.395 138.974Z" fill="#BDD0FB"/>
<path d="M355.332 127.944C355.288 127.944 355.245 127.923 355.179 127.901C355.027 127.814 354.962 127.62 355.049 127.468C359.879 117.931 369.562 112.006 380.29 112.006C382.009 112.006 383.728 112.157 385.382 112.46C385.556 112.482 385.665 112.655 385.643 112.828C385.621 113.001 385.447 113.109 385.273 113.087C383.641 112.784 381.965 112.633 380.29 112.633C369.802 112.633 360.336 118.429 355.614 127.728C355.571 127.879 355.462 127.944 355.332 127.944Z" fill="#BDD0FB"/>
<path d="M380.965 166.244C395.121 166.244 406.598 154.838 406.598 140.768C406.598 126.699 395.121 115.293 380.965 115.293C366.808 115.293 355.332 126.699 355.332 140.768C355.332 154.838 366.808 166.244 380.965 166.244Z" fill="#FBFBFB"/>
<path d="M372.196 154.544C372.065 154.544 371.913 154.544 371.782 154.523C370.716 154.415 369.737 153.831 369.128 152.966L362.687 143.904C361.49 142.218 361.903 139.882 363.601 138.693C365.298 137.503 367.648 137.914 368.845 139.601L372.827 145.224L392.367 127.663C393.912 126.279 396.284 126.387 397.676 127.923C399.069 129.458 398.96 131.815 397.415 133.2L374.742 153.593C374.024 154.22 373.11 154.544 372.196 154.544Z" fill="#EF6238"/>
</g>
<defs>
<linearGradient id="paint0_linear_298_7129" x1="83.3006" y1="251.805" x2="87.4516" y2="251.844" gradientUnits="userSpaceOnUse">
<stop stop-color="#FF928E"/>
<stop offset="1" stop-color="#FEB3B1"/>
</linearGradient>
<linearGradient id="paint1_linear_298_7129" x1="68.3433" y1="251.452" x2="71.9272" y2="251.486" gradientUnits="userSpaceOnUse">
<stop stop-color="#FF928E"/>
<stop offset="1" stop-color="#FEB3B1"/>
</linearGradient>
<linearGradient id="paint2_linear_298_7129" x1="102.561" y1="154.115" x2="124.451" y2="131.002" gradientUnits="userSpaceOnUse">
<stop stop-color="#FF928E"/>
<stop offset="1" stop-color="#FEB3B1"/>
</linearGradient>
<linearGradient id="paint3_linear_298_7129" x1="101.022" y1="152.656" x2="122.913" y2="129.543" gradientUnits="userSpaceOnUse">
<stop stop-color="#FF928E"/>
<stop offset="1" stop-color="#FEB3B1"/>
</linearGradient>
<linearGradient id="paint4_linear_298_7129" x1="122.66" y1="130.282" x2="128.633" y2="121.23" gradientUnits="userSpaceOnUse">
<stop stop-color="#FF928E"/>
<stop offset="1" stop-color="#FEB3B1"/>
</linearGradient>
<linearGradient id="paint5_linear_298_7129" x1="54.7232" y1="173.748" x2="81.5617" y2="174.004" gradientUnits="userSpaceOnUse">
<stop stop-color="#FF928E"/>
<stop offset="1" stop-color="#FEB3B1"/>
</linearGradient>
<linearGradient id="paint6_linear_298_7129" x1="82.0783" y1="142.579" x2="76.8349" y2="162.465" gradientUnits="userSpaceOnUse">
<stop stop-color="#FF928E"/>
<stop offset="1" stop-color="#FEB3B1"/>
</linearGradient>
<linearGradient id="paint7_linear_298_7129" x1="81.2866" y1="127.989" x2="86.129" y2="142.2" gradientUnits="userSpaceOnUse">
<stop stop-color="#FF928E"/>
<stop offset="1" stop-color="#FEB3B1"/>
</linearGradient>
<linearGradient id="paint8_linear_298_7129" x1="77.2322" y1="129.371" x2="82.0747" y2="143.582" gradientUnits="userSpaceOnUse">
<stop stop-color="#FF928E"/>
<stop offset="1" stop-color="#FEB3B1"/>
</linearGradient>
<linearGradient id="paint9_linear_298_7129" x1="78.6096" y1="173.023" x2="87.0002" y2="173.023" gradientUnits="userSpaceOnUse">
<stop stop-color="#FF928E"/>
<stop offset="1" stop-color="#FEB3B1"/>
</linearGradient>
<linearGradient id="paint10_linear_298_7129" x1="27.4973" y1="245.646" x2="25.7054" y2="261.381" gradientUnits="userSpaceOnUse">
<stop stop-color="#FF928E"/>
<stop offset="1" stop-color="#FEB3B1"/>
</linearGradient>
<linearGradient id="paint11_linear_298_7129" x1="46.6055" y1="247.659" x2="44.9293" y2="262.378" gradientUnits="userSpaceOnUse">
<stop stop-color="#FF928E"/>
<stop offset="1" stop-color="#FEB3B1"/>
</linearGradient>
<linearGradient id="paint12_linear_298_7129" x1="33.8386" y1="137.311" x2="31.8889" y2="165.102" gradientUnits="userSpaceOnUse">
<stop stop-color="#FF928E"/>
<stop offset="1" stop-color="#FEB3B1"/>
</linearGradient>
<linearGradient id="paint13_linear_298_7129" x1="33.5622" y1="129.293" x2="35.5121" y2="144.988" gradientUnits="userSpaceOnUse">
<stop stop-color="#FF928E"/>
<stop offset="1" stop-color="#FEB3B1"/>
</linearGradient>
<linearGradient id="paint14_linear_298_7129" x1="28.5032" y1="129.921" x2="30.453" y2="145.617" gradientUnits="userSpaceOnUse">
<stop stop-color="#FF928E"/>
<stop offset="1" stop-color="#FEB3B1"/>
</linearGradient>
<linearGradient id="paint15_linear_298_7129" x1="30.7689" y1="187.164" x2="16.3696" y2="199.539" gradientUnits="userSpaceOnUse">
<stop stop-color="#FF928E"/>
<stop offset="1" stop-color="#FEB3B1"/>
</linearGradient>
<linearGradient id="paint16_linear_298_7129" x1="39.4789" y1="187.826" x2="47.5707" y2="195.968" gradientUnits="userSpaceOnUse">
<stop stop-color="#FF928E"/>
<stop offset="1" stop-color="#FEB3B1"/>
</linearGradient>
<linearGradient id="paint17_linear_298_7129" x1="449.348" y1="248.822" x2="446.038" y2="248.822" gradientUnits="userSpaceOnUse">
<stop stop-color="#FF928E"/>
<stop offset="1" stop-color="#FEB3B1"/>
</linearGradient>
<linearGradient id="paint18_linear_298_7129" x1="432.624" y1="247.361" x2="429.332" y2="247.361" gradientUnits="userSpaceOnUse">
<stop stop-color="#FF928E"/>
<stop offset="1" stop-color="#FEB3B1"/>
</linearGradient>
<linearGradient id="paint19_linear_298_7129" x1="410.595" y1="151.553" x2="398.36" y2="151.553" gradientUnits="userSpaceOnUse">
<stop stop-color="#FF928E"/>
<stop offset="1" stop-color="#FEB3B1"/>
</linearGradient>
<linearGradient id="paint20_linear_298_7129" x1="2813.21" y1="1584.03" x2="2769.1" y2="1557.97" gradientUnits="userSpaceOnUse">
<stop stop-color="#FF928E"/>
<stop offset="1" stop-color="#FEB3B1"/>
</linearGradient>
<linearGradient id="paint21_linear_298_7129" x1="2812.68" y1="1584.93" x2="2768.57" y2="1558.87" gradientUnits="userSpaceOnUse">
<stop stop-color="#FF928E"/>
<stop offset="1" stop-color="#FEB3B1"/>
</linearGradient>
<linearGradient id="paint22_linear_298_7129" x1="412.633" y1="134.448" x2="437.996" y2="181.337" gradientUnits="userSpaceOnUse">
<stop stop-color="#FF928E"/>
<stop offset="1" stop-color="#FEB3B1"/>
</linearGradient>
<linearGradient id="paint23_linear_298_7129" x1="451.607" y1="146.944" x2="430.585" y2="146.944" gradientUnits="userSpaceOnUse">
<stop stop-color="#FF928E"/>
<stop offset="1" stop-color="#FEB3B1"/>
</linearGradient>
<linearGradient id="paint24_linear_298_7129" x1="427.406" y1="162.188" x2="425.385" y2="149.421" gradientUnits="userSpaceOnUse">
<stop stop-color="#FF928E"/>
<stop offset="1" stop-color="#FEB3B1"/>
</linearGradient>
<linearGradient id="paint25_linear_298_7129" x1="348.983" y1="140.121" x2="411.62" y2="140.121" gradientUnits="userSpaceOnUse">
<stop stop-color="#DAE3FE"/>
<stop offset="1" stop-color="#E9EFFD"/>
</linearGradient>
<clipPath id="clip0_298_7129">
<rect width="485" height="266" fill="white"/>
</clipPath>
<clipPath id="clip1_298_7129">
<rect width="416" height="147" fill="white" transform="translate(32 107)"/>
</clipPath>
<clipPath id="clip2_298_7129">
<rect width="82" height="24" fill="white" transform="translate(158 170)"/>
</clipPath>
</defs>
</svg>
