<svg width="370" height="328" viewBox="0 0 370 328" fill="none" xmlns="http://www.w3.org/2000/svg">
<g clip-path="url(#clip0_298_8392)">
<path d="M303.398 281.861C296.708 288.917 290.381 293.472 285.381 297.064C226.586 339.329 157.016 327.014 142.238 324.008C120.406 319.57 78.2081 310.977 47.6897 275.028C1.52479 220.635 8.72009 134.943 44.5205 78.3664C51.0702 68.0232 85.6616 10.5897 155.983 1.37359C198.533 -4.20305 248.137 7.04414 284.066 37.2049C359.47 100.497 354.106 228.384 303.398 281.861Z" fill="#EEF5F9"/>
<path d="M199.449 191.789H109.502L117.484 280.205C117.695 282.541 119.643 284.325 121.991 284.325H199.449V191.789Z" fill="#91B3FA"/>
<path d="M168.613 284.337H132.636L128.54 239.208C128.329 236.871 130.172 234.852 132.519 234.852H166.981C169.27 234.852 171.09 236.766 170.972 239.055L168.613 284.337Z" fill="url(#paint0_linear_298_8392)"/>
<path d="M193.673 196.297H108.574C106.238 196.297 104.618 193.949 105.463 191.765L106.109 190.086C106.602 188.795 107.846 187.95 109.219 187.95H193.673V196.297Z" fill="url(#paint1_linear_298_8392)"/>
<path opacity="0.76" d="M148.693 204.645H139.057V219.426H148.693V204.645Z" fill="white"/>
<path opacity="0.76" d="M166.688 204.645H157.051V219.426H166.688V204.645Z" fill="white"/>
<path opacity="0.76" d="M130.699 204.645H121.062V219.426H130.699V204.645Z" fill="white"/>
<path d="M169.258 94.1099L179.998 284.338H358.8L366.5 94.1099H169.258Z" fill="#E0E0E0"/>
<path d="M367.181 97.9724H168.307C167.344 97.9724 166.488 97.3384 166.206 96.4109L164.997 92.4662C164.563 91.0456 165.619 89.6133 167.098 89.6133H367.791C369.141 89.6133 370.174 90.8225 369.975 92.1492L369.364 96.0939C369.2 97.174 368.273 97.9724 367.181 97.9724Z" fill="#D2D2D2"/>
<path d="M364.787 136.528L365.879 109.537H170.127L171.653 136.528H364.787Z" fill="#FBFBFB"/>
<path d="M196.244 109.537H191.748V136.528H196.244V109.537Z" fill="#7D97F4"/>
<path d="M227.078 109.536H222.582V136.527H227.078V109.536Z" fill="#ECECEC"/>
<path d="M257.914 109.537H253.418V136.528H257.914V109.537Z" fill="#ECECEC"/>
<path d="M288.761 109.537H284.266V136.528H288.761V109.537Z" fill="#ECECEC"/>
<path d="M319.597 109.536H315.102V136.527H319.597V109.536Z" fill="#ECECEC"/>
<path d="M350.443 109.537H345.947V136.528H350.443V109.537Z" fill="#ECECEC"/>
<path d="M239.966 147.446H193.672V167.37H239.966V147.446Z" fill="#FBFBFB"/>
<path d="M238.251 149.383H195.385V166.09H238.251V149.383Z" fill="#FBFBFB"/>
<path d="M290.546 147.446H244.252V167.37H290.546V147.446Z" fill="#FBFBFB"/>
<path d="M288.831 149.383H245.965V166.09H288.831V149.383Z" fill="#FBFBFB"/>
<path d="M341.124 147.446H294.83V167.369H341.124V147.446Z" fill="#FBFBFB"/>
<path d="M339.41 149.383H296.543V166.089H339.41V149.383Z" fill="#FBFBFB"/>
<path d="M290.685 213.638H203.309V288.822H290.685V213.638Z" fill="#DEDEDE"/>
<path d="M212.302 288.834H197.524C196.808 288.834 196.232 288.259 196.232 287.543V211.066H212.29V288.834H212.302Z" fill="url(#paint2_linear_298_8392)"/>
<path d="M275.276 288.834H218.734V238.774C218.734 237.67 219.626 236.778 220.73 236.778H272.623C274.09 236.778 275.276 237.964 275.276 239.431V288.834Z" fill="#ECECEC"/>
<path d="M189.435 180.26L191.735 219.437H281.683V288.846H340.278C343.435 288.846 346.041 286.345 346.158 283.187L350.255 182.009C350.349 179.626 348.459 177.642 346.088 177.618L193.696 175.799C191.254 175.752 189.294 177.806 189.435 180.26Z" fill="#FBFBFB"/>
<path d="M190.986 206.57H290.687V191.789H190.117L190.986 206.57Z" fill="#FBFBFB"/>
<path d="M209.731 191.789H205.881V206.57H209.731V191.789Z" fill="#ECECEC"/>
<path d="M227.08 191.789H223.23V206.57H227.08V191.789Z" fill="#ECECEC"/>
<path d="M244.428 191.789H240.578V206.57H244.428V191.789Z" fill="#ECECEC"/>
<path d="M261.776 191.789H257.926V206.57H261.776V191.789Z" fill="#ECECEC"/>
<path d="M279.125 191.789H275.275V206.57H279.125V191.789Z" fill="#ECECEC"/>
<path d="M319.28 259.589C332.764 259.589 343.695 248.656 343.695 235.169C343.695 221.683 332.764 210.75 319.28 210.75C305.796 210.75 294.865 221.683 294.865 235.169C294.865 248.656 305.796 259.589 319.28 259.589Z" fill="url(#paint3_linear_298_8392)"/>
<path d="M333.26 228.419H325.149V221.433C325.149 219.79 323.822 218.463 322.179 218.463H316.228C314.585 218.463 313.258 219.79 313.258 221.433V228.419H305.147C303.504 228.419 302.178 229.745 302.178 231.389V238.304C302.178 239.948 303.504 241.274 305.147 241.274H313.258V248.26C313.258 249.903 314.585 251.23 316.228 251.23H322.179C323.822 251.23 325.149 249.903 325.149 248.26V241.274H333.26C334.903 241.274 336.229 239.948 336.229 238.304V231.401C336.229 229.757 334.903 228.419 333.26 228.419Z" fill="white"/>
<path d="M3.73195 15.9904C2.53469 64.4777 -1.36227 231.742 0.492306 291.006C0.691849 297.287 5.72738 302.324 11.9954 302.535C43.042 303.557 132.367 306.128 183.156 303.991C193.732 303.545 202.148 294.975 202.371 284.385C203.428 233.491 205.752 90.3416 200.223 24.7603C199.566 16.9061 193.392 10.6485 185.551 9.86193C151.734 6.48073 61.9281 -1.79617 18.0521 1.05672C10.1291 1.57329 3.93149 8.06567 3.73195 15.9904Z" fill="#222222"/>
<path d="M16.3502 31.053C14.6599 70.7704 9.30749 202.884 10.9977 251.735C11.2442 258.873 16.8784 264.649 24.0033 265.072C53.3596 266.786 128.67 270.578 171.736 267.127C179.494 266.504 185.575 260.235 185.997 252.463C188.18 211.947 194.448 88.9326 192.817 40.6213C192.559 32.9197 186.584 26.6269 178.907 25.9342C147.145 23.0814 65.5669 16.2955 28.9684 18.2913C22.1017 18.667 16.6436 24.1849 16.3502 31.053Z" fill="#FBFBFB"/>
<path opacity="0.5" d="M80.4727 9.53344C80.4727 11.0245 81.6347 12.2454 83.1137 12.3276C90.4498 12.7151 111.108 13.7952 120.334 14.3352C122.154 14.4409 123.586 12.809 123.234 11.0127L123.175 10.7075C122.94 9.48648 121.931 8.57074 120.686 8.45334C114.442 7.87806 95.6145 6.29312 83.1371 6.73925C81.6464 6.79796 80.4727 8.04243 80.4727 9.53344Z" fill="#FBFBFB"/>
<path opacity="0.73" d="M192.193 107.647L157.203 107.224C155.231 107.224 153.634 105.628 153.623 103.655C153.494 71.3343 153.376 27.813 153.588 23.6687C153.576 23.8918 146.92 23.2226 146.92 23.2226C146.815 25.3358 146.967 22.3655 146.909 26.7681C146.885 29.2688 146.862 32.8614 146.85 37.4401C146.838 45.1065 146.838 55.6845 146.873 68.8923C146.92 91.3514 147.026 113.951 147.026 114.175L147.038 116.675C147.05 119.07 148.998 121.007 151.381 121.007H158.917C160.219 121.007 161.288 122.064 161.288 123.379V164.482C161.288 167.194 159.093 169.389 156.381 169.389H137.589C135.476 169.389 133.598 168.062 132.882 166.078L118.398 125.95C117.564 123.637 115.357 122.087 112.904 122.087H95.3796C93.9006 122.087 92.809 120.714 93.1377 119.27L115.522 20.9332L106.284 20.3345L84.9564 116.487C84.2287 119.763 81.3294 122.087 77.9724 122.087H71.4814C69.0986 122.087 67.1619 120.15 67.1736 117.767C67.1971 109.044 67.2323 96.341 67.244 83.685C67.2675 70.4772 67.2675 59.911 67.2558 52.268C67.2323 37.0174 67.7605 19.3835 67.514 18.3856C67.514 18.3856 63.1475 18.3269 63.1475 18.2447C63.3118 21.3207 63.6992 82.8045 63.6405 118.049C63.6405 120.279 61.8329 122.087 59.6027 122.087H53.499C50.8932 122.087 48.6865 120.15 48.3461 117.567C44.5313 88.6864 35.3758 19.5127 35.1176 17.9395C30.9154 18.0334 27.0889 18.2564 25.07 19.1135C25.07 19.1135 35.2115 95.4253 39.8831 130.811C40.2705 133.71 42.7354 135.882 45.6581 135.882H72.8899C75.3079 135.882 76.9395 138.336 76.0122 140.567L56.8795 186.424C55.7762 189.078 53.1821 190.803 50.3063 190.803H11.0785L10.8555 204.586H52.4074C55.8466 204.586 58.9571 202.52 60.2718 199.339L84.9682 140.132C86.048 137.549 88.5599 135.871 91.3535 135.871H109.97C112.2 135.871 114.184 137.268 114.935 139.357L124.513 165.914C125.123 167.605 123.867 169.389 122.071 169.389H95.497C94.1824 169.389 93.1259 170.457 93.1259 171.761V267.62H96.659V181.235C96.659 178.746 98.6779 176.715 101.178 176.715H124.067C126.684 176.715 129.02 178.359 129.912 180.824L158.412 259.789L163.717 251.524L137.929 180.061C137.342 178.429 138.551 176.715 140.277 176.715H164.692C167.227 176.715 169.281 174.66 169.281 172.125V125.034C169.281 122.804 171.089 120.996 173.319 120.996L192.205 121.195V107.647H192.193Z" fill="#E6E6E6"/>
<path d="M165.467 175.048H131.498C130.665 175.048 129.925 174.531 129.632 173.756L112.671 129.272H44.6382C43.6288 129.272 42.7837 128.521 42.6545 127.523L29.8486 28.2003C29.7077 27.1085 30.4824 26.0988 31.574 25.9579C32.6656 25.8171 33.6751 26.5919 33.816 27.6838L46.3989 125.269H114.032C114.866 125.269 115.605 125.786 115.899 126.56L132.86 171.044H163.449V114.574C163.449 113.47 164.341 112.566 165.456 112.566C166.559 112.566 167.463 113.458 167.463 114.574V173.04C167.463 174.156 166.571 175.048 165.467 175.048Z" fill="#EF6238"/>
<path d="M164.974 75.6315C179.476 75.6315 191.232 63.8731 191.232 49.3685C191.232 34.8638 179.476 23.1055 164.974 23.1055C150.473 23.1055 138.717 34.8638 138.717 49.3685C138.717 63.8731 150.473 75.6315 164.974 75.6315Z" fill="#EF6238"/>
<path d="M191.184 46.9146H164.973H138.716C138.716 46.9146 136.626 62.0126 160.055 101.941C161.076 103.679 162.943 104.982 164.962 104.982C166.981 104.982 168.847 103.561 169.88 101.824C193.32 61.8951 191.184 46.9146 191.184 46.9146Z" fill="#EF6238"/>
<path d="M165.596 106.097V106.356H164.974C162.685 106.356 160.561 105.041 159.411 103.092C145.713 79.7522 140.689 64.9712 138.893 56.7177C138.376 54.8158 138.083 52.9374 137.989 51.0354C137.825 49.0866 137.954 48.253 137.966 48.1708L138.036 47.7482C139.092 33.6363 150.83 22.6592 164.974 22.6592C179.306 22.6592 191.15 33.789 191.948 48.0064C191.971 48.1943 192.007 48.6639 191.995 49.4505V49.5444C191.995 52.1273 191.631 54.6749 190.915 57.1404C189.06 65.3938 184.318 79.9987 170.855 102.939C169.705 104.912 167.58 106.097 165.596 106.097ZM139.433 48.8987C139.421 48.8987 139.433 49.9788 139.503 50.8241V50.8828C139.585 52.6908 139.867 54.4636 140.36 56.2716L140.372 56.3186C142.144 64.4663 147.109 79.0478 160.713 102.223C161.594 103.714 163.531 104.642 165.279 104.642L165.596 105.405V104.642C166.395 104.642 169.012 103.702 169.892 102.2C183.274 79.4 188.579 64.9125 190.164 56.7764V56.7295C190.563 54.4049 190.88 51.9864 190.88 49.5444L190.563 49.4388V49.427C190.563 48.6639 190.492 48.253 190.481 48.1473L190.457 48.1004C189.706 34.6812 178.52 24.1619 164.998 24.1619C151.499 24.1619 140.313 34.7047 139.538 48.2413L139.491 48.8987H139.433Z" fill="white"/>
<path d="M175.783 60.0147C181.706 54.0911 181.706 44.487 175.783 38.5635C169.861 32.6399 160.259 32.6399 154.337 38.5635C148.414 44.487 148.414 54.0911 154.337 60.0147C160.259 65.9383 169.861 65.9383 175.783 60.0147Z" fill="#FBFBFB"/>
<path d="M165.057 65.2882C156.23 65.2882 149.047 58.1032 149.047 49.2745C149.047 40.4458 156.23 33.2607 165.057 33.2607C173.884 33.2607 181.068 40.4458 181.068 49.2745C181.068 58.1149 173.884 65.2882 165.057 65.2882ZM165.057 34.9631C157.169 34.9631 150.749 41.385 150.749 49.2745C150.749 57.164 157.169 63.5859 165.057 63.5859C172.945 63.5859 179.366 57.164 179.366 49.2745C179.377 41.385 172.957 34.9631 165.057 34.9631Z" fill="#EF6238"/>
<path d="M149.88 31.4995C149.81 31.4995 149.74 31.4643 149.693 31.4056C149.599 31.2999 149.61 31.1356 149.716 31.0416C153.977 27.3787 159.412 25.3711 165.034 25.3711C165.175 25.3711 165.292 25.4885 165.292 25.6294C165.292 25.7703 165.175 25.8877 165.034 25.8877C159.529 25.8877 154.212 27.86 150.045 31.4408C149.998 31.476 149.939 31.4995 149.88 31.4995Z" fill="white"/>
<path d="M141.77 49.1689C141.629 49.1689 141.512 49.0515 141.512 48.9106C141.512 44.5197 142.732 40.2345 145.033 36.5246C145.103 36.4072 145.268 36.372 145.385 36.4424C145.503 36.5128 145.538 36.6772 145.467 36.7946C143.214 40.4223 142.028 44.6136 142.028 48.9106C142.016 49.0515 141.911 49.1689 141.77 49.1689Z" fill="white"/>
<path d="M252.56 231.77L255.924 227.286L241.67 203.871C241.67 203.871 239.294 199.697 237.715 200.023C236.136 200.348 125.892 200.348 124.313 200.023C122.734 199.697 120.358 203.871 120.358 203.871L106.104 227.286L109.468 231.77H252.56Z" fill="black"/>
<path opacity="0.3" d="M255.926 227.271L241.672 203.856C241.672 203.856 239.296 199.682 237.717 200.007C237.348 200.081 230.855 200.141 221.16 200.185C220.644 207.585 219.419 214.616 213.295 218.923C196.768 230.32 177.659 222.031 159.066 226.694C155.008 227.937 151.201 229.713 147.512 231.77H252.577L255.926 227.271Z" fill="black"/>
<path d="M88.8535 296.909V316.979C88.8535 316.979 89.0454 326.318 94.0034 326.511C98.9615 326.703 109.055 326.511 109.055 326.511C109.055 326.511 113.408 326.111 113.408 323.136C113.408 320.161 113.408 308.246 113.408 308.246L88.8535 296.909Z" fill="black"/>
<path d="M273.752 296.909V316.979C273.752 316.979 273.56 326.318 268.602 326.511C263.644 326.703 253.55 326.511 253.55 326.511C253.55 326.511 249.197 326.111 249.197 323.136C249.197 320.161 249.197 308.246 249.197 308.246L273.752 296.909Z" fill="black"/>
<path d="M105.617 230.113H102.312C100.423 230.113 98.8735 228.573 98.8735 226.664V223.053C98.8735 220.995 97.0585 219.412 95.0221 219.708C89.5031 220.507 80 222.564 80 227.064C80 229.18 82.243 233.547 86.3305 233.68C90.4181 233.813 104.555 234.745 104.555 234.745L105.617 230.113Z" fill="#EF6238"/>
<path d="M256.383 230.113H259.688C261.577 230.113 263.126 228.573 263.126 226.664V223.053C263.126 220.995 264.941 219.412 266.978 219.708C272.497 220.507 282 222.564 282 227.064C282 229.18 279.757 233.547 275.669 233.68C271.582 233.813 257.445 234.745 257.445 234.745L256.383 230.113Z" fill="#CD5835"/>
<path d="M277.513 265.723C277.513 265.723 277.778 260.454 274.739 255.599C272.481 251.988 263.052 239.318 263.052 239.318L239.471 200.111C238.276 198.098 236.593 197.166 234.852 196.825C233.568 196.485 231.709 196.204 228.994 196.144C220.288 195.952 141.725 195.952 133.019 196.144C130.318 196.204 128.459 196.485 127.175 196.825C125.434 197.166 123.737 198.098 122.542 200.111L98.9609 239.318C98.9609 239.318 89.6054 252.032 87.2739 255.599C83.7028 261.061 84.4997 265.723 84.4997 265.723C84.4997 265.723 85.4884 296.198 85.09 302.74C84.6915 309.297 277.306 309.297 276.908 302.74C276.524 296.198 277.513 265.723 277.513 265.723ZM181.065 230.172H180.932L111.223 228.381C110.397 228.218 109.689 228.025 109.084 227.818C110.884 224.444 118.498 210.264 123.22 204.152L238.881 204.285C243.603 210.457 251.128 224.473 252.914 227.833C252.309 228.04 251.615 228.233 250.774 228.395L181.065 230.172Z" fill="#EF6238"/>
<path d="M227.313 317.897C227.313 317.897 270.092 316.165 275.625 306.248C278.665 300.787 279.123 296.983 278.916 294.659C278.783 293.105 277.381 291.98 275.847 292.202C270.608 292.957 257.844 294.763 252.842 295.088C234.868 296.228 127.118 296.228 109.144 295.088C104.142 294.778 91.3779 292.957 86.1394 292.202C84.6047 291.98 83.2028 293.105 83.07 294.659C82.8634 296.983 83.3209 300.787 86.3607 306.248C91.8796 316.165 134.673 317.897 134.673 317.897H227.313Z" fill="#EF6338"/>
<path opacity="0.1" d="M109.159 295.103C104.156 294.792 91.3921 292.972 86.1536 292.217C85.401 292.113 84.6779 292.32 84.1172 292.764C86.8471 294.274 89.4885 296.02 92.1299 297.545C92.1299 297.545 96.0108 299.513 100.187 301.038C115.519 306.603 177.658 306.736 177.658 306.736C177.658 306.736 220.894 306.84 251.513 304.398C254.907 304.131 262.905 303.391 269.856 297.797C272.408 295.739 274.076 293.623 274.976 292.35C269.31 293.164 257.593 294.807 252.856 295.103C234.883 296.242 127.132 296.242 109.159 295.103Z" fill="white"/>
<path d="M236.182 269.601L234.78 266.153C234.042 264.332 232.272 263.148 230.324 263.148H131.707C129.745 263.148 127.989 264.332 127.251 266.153L125.849 269.601C124.55 272.783 126.882 276.262 130.305 276.262H231.74C235.149 276.262 237.466 272.769 236.182 269.601Z" fill="#CD5835"/>
<path d="M235.783 283.159L233.938 284.669C233.687 284.876 233.362 284.994 233.038 284.994H128.961C128.637 284.994 128.312 284.876 128.061 284.669L126.217 283.159C125.184 282.315 125.774 280.628 127.117 280.628H234.897C236.225 280.628 236.83 282.315 235.783 283.159Z" fill="#D4552F"/>
<path d="M130.247 263.341L108.466 252.21C108.466 252.21 100.35 247.844 97.1777 249.635C94.0051 251.426 92.2344 256.991 92.2344 259.966C92.2344 262.941 92.6328 276.055 126.499 276.055C129.863 276.055 132.534 272.872 132.932 268.906C133.316 264.939 130.247 263.341 130.247 263.341Z" fill="white"/>
<path d="M231.77 263.341L253.55 252.21C253.55 252.21 261.666 247.844 264.839 249.635C268.011 251.426 269.782 256.991 269.782 259.966C269.782 262.941 269.384 276.055 235.518 276.055C232.153 276.055 229.482 272.872 229.084 268.906C228.7 264.939 231.77 263.341 231.77 263.341Z" fill="white"/>
</g>
<defs>
<linearGradient id="paint0_linear_298_8392" x1="200.542" y1="68.5295" x2="139.189" y2="295.997" gradientUnits="userSpaceOnUse">
<stop stop-color="#4F52FF"/>
<stop offset="1" stop-color="#4042E2"/>
</linearGradient>
<linearGradient id="paint1_linear_298_8392" x1="162.812" y1="82.9938" x2="147.271" y2="212.7" gradientUnits="userSpaceOnUse">
<stop stop-color="#4F52FF"/>
<stop offset="1" stop-color="#4042E2"/>
</linearGradient>
<linearGradient id="paint2_linear_298_8392" x1="203.371" y1="391.479" x2="205.173" y2="108.548" gradientUnits="userSpaceOnUse">
<stop stop-color="#4F52FF"/>
<stop offset="1" stop-color="#4042E2"/>
</linearGradient>
<linearGradient id="paint3_linear_298_8392" x1="387.104" y1="75.9343" x2="301.517" y2="276.798" gradientUnits="userSpaceOnUse">
<stop stop-color="#F14C46"/>
<stop offset="1" stop-color="#FE7062"/>
</linearGradient>
<clipPath id="clip0_298_8392">
<rect width="370" height="328" fill="white"/>
</clipPath>
</defs>
</svg>
