<svg width="1440" height="442" viewBox="0 0 1440 442" fill="none" xmlns="http://www.w3.org/2000/svg">
<path d="M1650.22 276.091C1639.16 282.736 1618.57 284.397 1601.84 278.998C1572.75 269.654 1549.33 245.567 1532.08 225.634C1527.45 220.235 1522.82 214.628 1517.93 208.814C1498.11 185.143 1477.77 160.433 1448.69 139.668C1370.18 83.6041 1245.35 76.9594 1158.61 124.095C1098.38 156.695 1062.35 208.814 1036.09 247.021L1035.32 248.267C1008.29 287.512 982.555 324.473 944.204 347.521C913.832 365.794 865.7 373.892 838.159 355.827C826.576 348.352 816.538 335.478 805.728 321.981C786.166 297.271 761.971 266.747 716.156 254.704C664.163 240.999 617.833 259.48 580.511 274.223C555.545 283.982 531.865 293.326 514.362 291.042C494.028 288.342 477.041 267.578 469.062 248.267C463.656 234.978 460.31 220.235 456.707 204.869C452.589 187.634 448.47 169.777 441.263 151.712C415.01 87.5494 351.949 35.4304 273.188 12.797C194.169 -10.044 104.854 -1.94581 33.8148 34.1845C3.95755 49.5502 -20.4945 68.446 -43.917 86.7188C-59.6178 98.9698 -74.5464 110.39 -90.2472 120.357C-117.273 137.384 -159.485 152.958 -189.342 141.33C-196.035 138.63 -203.499 134.27 -211.478 129.494C-226.149 120.565 -242.88 110.598 -265.272 104.992C-268.876 104.161 -272.737 103.33 -276.598 102.915V184.104C-273.509 185.973 -270.163 187.842 -266.817 189.919C-256.264 196.356 -244.167 203.415 -229.753 209.23C-171.84 231.863 -98.4837 220.858 -33.1066 179.952C-13.545 167.7 3.95755 154.204 20.6879 141.122C41.7939 124.718 61.613 109.144 83.7485 97.9316C129.821 74.26 190.565 68.8612 242.043 83.8117C293.521 98.5545 336.248 133.854 353.236 175.799C358.641 189.088 361.987 203.831 365.591 219.197C369.709 236.431 373.827 254.289 381.291 272.561C402.14 323.642 446.154 358.527 499.176 365.794C546.279 372.231 586.431 356.45 621.694 342.538C648.462 331.948 671.628 322.812 687.843 326.964C702 330.702 714.097 345.86 727.996 363.51C741.638 380.745 757.081 400.056 780.246 415.214C809.074 434.109 843.307 442 877.797 442C922.068 442 966.597 428.918 999.8 408.984C1054.37 376.384 1087.57 328.418 1116.91 286.058L1117.68 284.812C1146 243.906 1172.51 208.399 1210.86 187.634C1263.11 159.395 1340.58 163.548 1387.69 197.186C1407.76 211.514 1423.98 231.24 1441.22 251.797C1446.11 257.611 1451 263.633 1456.15 269.654C1480.86 298.102 1515.61 333.194 1567.6 349.805C1594.89 358.734 1623.97 360.603 1650.48 356.658V276.091H1650.22Z" fill="#1C1E23"/>
<path d="M1664.12 312.834C1640.17 321.76 1609.78 321.76 1584.81 313.664C1546.18 301.209 1517.86 274.432 1494.17 246.824C1470.48 219.424 1449.36 189.74 1418.21 167.529C1355.38 122.693 1254.18 117.296 1184.65 155.075C1135.99 181.437 1105.09 223.783 1076.76 265.091C1048.18 306.399 1018.83 349.16 971.704 377.39C924.582 405.413 854.285 414.339 808.708 384.656C766.736 357.255 752.831 303.285 701.331 290C636.185 272.979 573.613 336.913 506.148 327.572C465.721 321.967 437.654 291.038 424.521 259.694C411.647 228.142 409.329 194.514 396.454 162.963C374.824 110.03 321.78 66.2314 256.633 47.5494C191.744 28.8674 116.039 35.5099 57.8448 65.4011C13.0402 88.4422 -20.692 123.108 -62.6641 149.47C-104.379 175.625 -162.573 193.061 -210.468 174.379C-235.188 164.831 -254.242 146.564 -280.25 139.921C-296.472 135.77 -316.814 140.544 -327.887 149.678" stroke="white" stroke-width="6" stroke-miterlimit="10" stroke-dasharray="20 20"/>
</svg>
