<svg width="1440" height="442" viewBox="0 0 1440 442" fill="none" xmlns="http://www.w3.org/2000/svg">
<path d="M1480.22 276.091C1469.16 282.736 1448.57 284.397 1431.84 278.998C1402.75 269.654 1379.33 245.567 1362.08 225.634C1357.45 220.235 1352.82 214.628 1347.93 208.814C1328.11 185.143 1307.77 160.433 1278.69 139.668C1200.18 83.6041 1075.35 76.9594 988.61 124.095C928.38 156.695 892.346 208.814 866.092 247.021L865.32 248.267C838.294 287.512 812.555 324.473 774.204 347.521C743.832 365.794 695.7 373.892 668.159 355.827C656.576 348.352 646.538 335.478 635.728 321.981C616.166 297.271 591.971 266.747 546.156 254.704C494.163 240.999 447.833 259.48 410.511 274.223C385.545 283.982 361.865 293.326 344.362 291.042C324.028 288.342 307.041 267.578 299.062 248.267C293.656 234.978 290.31 220.235 286.707 204.869C282.589 187.634 278.47 169.777 271.263 151.712C245.01 87.5494 181.949 35.4304 103.188 12.797C24.1689 -10.044 -65.1455 -1.94581 -136.185 34.1845C-166.042 49.5502 -190.495 68.446 -213.917 86.7188C-229.618 98.9699 -244.546 110.39 -260.247 120.357C-287.273 137.384 -329.485 152.958 -359.342 141.33C-366.035 138.63 -373.499 134.27 -381.478 129.494C-396.149 120.565 -412.88 110.598 -435.272 104.992C-438.876 104.161 -442.737 103.33 -446.598 102.915V184.104C-443.509 185.973 -440.163 187.842 -436.817 189.919C-426.264 196.356 -414.167 203.415 -399.753 209.23C-341.84 231.863 -268.484 220.858 -203.107 179.952C-183.545 167.7 -166.042 154.204 -149.312 141.122C-128.206 124.718 -108.387 109.144 -86.2515 97.9316C-40.1786 74.26 20.5654 68.8612 72.0434 83.8117C123.521 98.5545 166.248 133.854 183.236 175.799C188.641 189.088 191.987 203.831 195.591 219.197C199.709 236.431 203.827 254.289 211.291 272.561C232.14 323.642 276.154 358.527 329.176 365.794C376.279 372.231 416.431 356.45 451.694 342.538C478.462 331.948 501.628 322.812 517.843 326.964C532 330.702 544.097 345.86 557.996 363.51C571.638 380.745 587.081 400.056 610.246 415.214C639.074 434.109 673.307 442 707.797 442C752.068 442 796.597 428.918 829.8 408.984C884.367 376.384 917.57 328.418 946.912 286.058L947.685 284.812C975.998 243.906 1002.51 208.399 1040.86 187.634C1093.11 159.395 1170.58 163.548 1217.69 197.186C1237.76 211.514 1253.98 231.24 1271.22 251.797C1276.11 257.611 1281 263.633 1286.15 269.654C1310.86 298.102 1345.61 333.194 1397.6 349.805C1424.89 358.734 1453.97 360.603 1480.48 356.658V276.091H1480.22Z" fill="#1C1E23"/>
<path d="M1494.12 312.834C1470.17 321.76 1439.78 321.76 1414.81 313.664C1376.18 301.209 1347.86 274.432 1324.17 246.824C1300.48 219.424 1279.36 189.74 1248.21 167.529C1185.38 122.693 1084.18 117.296 1014.65 155.075C965.988 181.437 935.088 223.783 906.763 265.091C878.181 306.399 848.826 349.16 801.704 377.39C754.582 405.413 684.285 414.339 638.708 384.656C596.736 357.255 582.831 303.285 531.331 290C466.185 272.979 403.613 336.913 336.148 327.572C295.721 321.967 267.654 291.038 254.521 259.694C241.647 228.142 239.329 194.514 226.454 162.963C204.824 110.03 151.78 66.2314 86.633 47.5494C21.7436 28.8674 -53.9608 35.5099 -112.155 65.4011C-156.96 88.4422 -190.692 123.108 -232.664 149.47C-274.379 175.625 -332.573 193.061 -380.468 174.379C-405.188 164.831 -424.242 146.564 -450.25 139.921C-466.472 135.77 -486.814 140.544 -497.887 149.678" stroke="white" stroke-width="6" stroke-miterlimit="10" stroke-dasharray="20 20"/>
</svg>
