<svg width="168" height="58" viewBox="0 0 168 58" fill="none" xmlns="http://www.w3.org/2000/svg">
<path fill-rule="evenodd" clip-rule="evenodd" d="M5.82574 0H162.174C165.377 0 168 2.64614 168 5.8769V52.1229C168 55.3536 165.377 57.9998 162.174 57.9998H5.82574C2.62312 57.9998 0 55.3536 0 52.1229V5.8769C0 2.63076 2.62312 0 5.82574 0Z" fill="#222222"/>
<path d="M63.8574 40.092H57.8727L56.3421 44.1228H53.2656L59.5258 28.2613H62.1737L68.4492 44.1228H65.388L63.8574 40.092ZM60.8421 32.0613C60.2758 33.7074 59.786 35.092 59.3574 36.2151L58.8217 37.6459H62.939L62.4033 36.2151C61.9748 35.092 61.4697 33.7074 60.9033 32.0613H60.8421ZM75.6889 34.5997C75.1991 34.5997 74.7553 34.7228 74.2961 34.9536C73.8675 35.1997 73.4695 35.5074 73.1328 35.9074V41.0151C73.24 41.1536 73.393 41.292 73.5614 41.4305C73.7298 41.5689 73.9134 41.692 74.1124 41.8151C74.3267 41.9074 74.541 42.0151 74.8012 42.0766C75.0461 42.1536 75.3063 42.1689 75.5665 42.1689C75.9951 42.1689 76.3777 42.0766 76.7144 41.9074C77.0512 41.7228 77.3267 41.4613 77.5716 41.1228C77.7858 40.7843 77.9695 40.3689 78.0767 39.9074C78.1838 39.4305 78.2603 38.9074 78.2603 38.3228C78.2603 37.7228 78.1838 37.169 78.0767 36.692C77.9542 36.2305 77.7706 35.8459 77.5563 35.5382C77.3267 35.2305 77.0512 34.9997 76.745 34.8459C76.4389 34.6613 76.0869 34.5997 75.6889 34.5997ZM76.0716 44.4151C75.4593 44.4151 74.893 44.3074 74.3879 44.0766C73.8981 43.8459 73.4696 43.5689 73.1481 43.2459H73.0869C73.1022 43.3997 73.1022 43.6305 73.1175 43.9074C73.1328 44.1997 73.1328 44.5074 73.1328 44.8459V49.6304H70.3165V32.6151H72.7808L72.9032 33.9074H72.9492C73.3012 33.4613 73.7297 33.0767 74.2808 32.7844C74.8318 32.4921 75.4593 32.3536 76.1787 32.3536C76.791 32.3536 77.4185 32.4613 78.0154 32.6921C78.6124 32.9382 79.1481 33.2921 79.6226 33.769C80.0818 34.2613 80.4491 34.8767 80.7399 35.5997C81.0154 36.3382 81.1685 37.2151 81.1685 38.2151C81.1685 39.292 81.0154 40.2151 80.7246 40.9997C80.4338 41.7689 80.0358 42.4151 79.546 42.9228C79.0563 43.4459 78.5052 43.8151 77.9236 44.0612C77.3114 44.2766 76.6838 44.4151 76.0716 44.4151ZM88.9745 34.5997C88.5 34.5997 88.0409 34.7228 87.5817 34.9536C87.1531 35.1997 86.7552 35.5074 86.4184 35.9074V41.0151C86.5256 41.1536 86.6786 41.292 86.847 41.4305C87.0154 41.5689 87.199 41.692 87.4133 41.8151C87.6123 41.9074 87.8419 42.0151 88.0868 42.0766C88.3317 42.1536 88.5919 42.1689 88.8521 42.1689C89.2806 42.1689 89.6633 42.0766 90 41.9074C90.3367 41.7228 90.6276 41.4613 90.8572 41.1228C91.0714 40.7843 91.2551 40.3689 91.3623 39.9074C91.4694 39.4305 91.5459 38.9074 91.5459 38.3228C91.5459 37.7228 91.4694 37.169 91.3623 36.692C91.2398 36.2305 91.0561 35.8459 90.8418 35.5382C90.6123 35.2305 90.3368 34.9997 90.0307 34.8459C89.7245 34.6613 89.3725 34.5997 88.9745 34.5997ZM89.3572 44.4151C88.7449 44.4151 88.1786 44.3074 87.6735 44.0766C87.1837 43.8459 86.7552 43.5689 86.4337 43.2459H86.3725C86.3878 43.3997 86.3878 43.6305 86.4031 43.9074C86.4184 44.1997 86.4184 44.5074 86.4184 44.8459V49.6304H83.6021V32.6151H86.0664L86.1888 33.9074H86.2348C86.5868 33.4613 87.0154 33.0767 87.5664 32.7844C88.1174 32.4921 88.7449 32.3536 89.4643 32.3536C90.0765 32.3536 90.7041 32.4613 91.301 32.6921C91.898 32.9382 92.4337 33.2921 92.9082 33.769C93.3673 34.2613 93.7347 34.8767 94.0255 35.5997C94.301 36.3382 94.4541 37.2151 94.4541 38.2151C94.4541 39.292 94.301 40.2151 94.0102 40.9997C93.7194 41.7689 93.3214 42.4151 92.8316 42.9228C92.3418 43.4459 91.8061 43.8151 91.2092 44.0612C90.597 44.2766 89.9847 44.4151 89.3572 44.4151ZM109.423 39.5536C109.423 39.1536 109.331 38.8151 109.133 38.5843C108.934 38.3228 108.673 38.1382 108.337 37.9843C108 37.8151 107.617 37.692 107.204 37.5843C106.775 37.492 106.347 37.3843 105.888 37.3074C105.275 37.169 104.694 37.0151 104.127 36.8305C103.561 36.6305 103.071 36.3843 102.658 36.0613C102.23 35.7382 101.893 35.3074 101.648 34.7997C101.388 34.292 101.265 33.6767 101.265 32.9074C101.265 32.0613 101.418 31.3382 101.709 30.7228C101.985 30.1075 102.398 29.5844 102.888 29.169C103.393 28.769 103.99 28.4613 104.663 28.2613C105.337 28.0459 106.102 27.9536 106.944 27.9536C107.786 27.9536 108.627 28.0459 109.469 28.2152C110.326 28.369 111.061 28.5998 111.673 28.8459V31.3382C110.847 31.0151 110.051 30.7844 109.316 30.6305C108.551 30.4921 107.862 30.4151 107.189 30.4151C106.24 30.4151 105.505 30.5844 104.985 30.9382C104.48 31.2921 104.219 31.8151 104.219 32.5074C104.219 32.9228 104.311 33.2459 104.48 33.5074C104.648 33.769 104.893 33.969 105.168 34.1382C105.459 34.3074 105.796 34.4459 106.178 34.569C106.546 34.6613 106.944 34.7536 107.372 34.8459C108.03 34.9844 108.673 35.1536 109.286 35.3382C109.883 35.5228 110.418 35.769 110.908 36.1074C111.367 36.4459 111.75 36.8767 112.025 37.4151C112.301 37.9382 112.454 38.6305 112.454 39.4613C112.454 40.3074 112.286 41.0613 111.979 41.6766C111.673 42.292 111.214 42.8151 110.648 43.2305C110.066 43.6305 109.362 43.9382 108.536 44.1382C107.709 44.3382 106.806 44.4305 105.826 44.4305C104.969 44.4305 104.112 44.3382 103.286 44.1689C102.459 43.9997 101.77 43.7536 101.219 43.4459V40.9843C101.985 41.3228 102.75 41.5843 103.5 41.7382C104.25 41.892 105 41.9689 105.796 41.9689C106.24 41.9689 106.714 41.9228 107.143 41.8612C107.571 41.7843 107.969 41.6612 108.321 41.4766C108.673 41.292 108.949 41.0459 109.163 40.7228C109.316 40.3997 109.423 40.0151 109.423 39.5536ZM122.25 44.092C121.944 44.1843 121.561 44.2612 121.132 44.3228C120.704 44.3843 120.291 44.4151 119.908 44.4151C118.959 44.4151 118.163 44.2612 117.551 43.9535C116.954 43.6305 116.51 43.1843 116.265 42.5997C116.081 42.1689 116.005 41.6151 116.005 40.892V34.9536H113.862V32.6305H116.005V29.4305H118.806V32.6305H122.112V34.9536H118.806V40.5382C118.806 40.9843 118.882 41.3074 119.005 41.5228C119.25 41.892 119.724 42.0766 120.413 42.0766C120.734 42.0766 121.056 42.0459 121.377 41.9843C121.683 41.9382 121.99 41.8766 122.28 41.7997V44.092H122.25ZM132.444 38.369C132.444 37.769 132.367 37.2305 132.229 36.7536C132.092 36.292 131.893 35.9074 131.632 35.5844C131.372 35.2767 131.066 35.0305 130.714 34.8767C130.362 34.7228 129.964 34.6305 129.566 34.6305C129.168 34.6305 128.785 34.7228 128.433 34.8767C128.081 35.0305 127.791 35.2767 127.53 35.5844C127.27 35.9074 127.086 36.292 126.933 36.7536C126.796 37.2151 126.719 37.7536 126.719 38.369C126.719 38.969 126.796 39.5074 126.933 39.9843C127.071 40.4459 127.27 40.8459 127.53 41.1536C127.791 41.4612 128.097 41.7074 128.449 41.8612C128.801 42.0305 129.183 42.1074 129.597 42.1074C130.01 42.1074 130.377 42.0305 130.729 41.8612C131.081 41.7074 131.372 41.4612 131.632 41.1536C131.893 40.8459 132.076 40.4459 132.229 39.9843C132.382 39.5074 132.444 38.969 132.444 38.369ZM135.336 38.369C135.336 39.2766 135.214 40.092 134.938 40.8459C134.678 41.5997 134.28 42.2305 133.79 42.7536C133.285 43.292 132.673 43.692 131.984 43.9843C131.265 44.2612 130.484 44.4151 129.612 44.4151C128.709 44.4151 127.898 44.2612 127.194 43.9843C126.474 43.7074 125.877 43.292 125.388 42.7536C124.882 42.2305 124.5 41.5997 124.24 40.8459C123.979 40.092 123.842 39.2766 123.842 38.369C123.842 37.4613 123.979 36.6459 124.255 35.9074C124.515 35.1536 124.898 34.5228 125.403 33.9844C125.908 33.4613 126.52 33.0459 127.209 32.7536C127.928 32.4767 128.709 32.3228 129.581 32.3228C130.484 32.3228 131.28 32.4613 132 32.7536C132.719 33.0459 133.316 33.4613 133.806 33.9844C134.296 34.5228 134.678 35.1536 134.938 35.9074C135.214 36.6459 135.336 37.4613 135.336 38.369ZM144.612 34.8613H144.367C143.51 34.8613 142.744 34.9844 142.102 35.2459C141.459 35.5074 140.954 35.8767 140.602 36.4151V44.1074H137.785V32.6151H140.097L140.357 34.2151H140.403C140.739 33.6305 141.183 33.169 141.765 32.8305C142.347 32.5074 143.051 32.3382 143.862 32.3382C144.137 32.3382 144.382 32.3536 144.597 32.3844V34.8613H144.612ZM152.173 42.1536C152.709 42.1536 153.29 42.092 153.872 41.9843C154.469 41.892 155.05 41.7228 155.663 41.5228V43.7536C155.311 43.9074 154.744 44.0612 154.01 44.1997C153.26 44.3382 152.479 44.4151 151.683 44.4151C150.887 44.4151 150.107 44.3074 149.372 44.092C148.637 43.892 148.01 43.5535 147.459 43.092C146.908 42.6305 146.494 42.0151 146.173 41.2766C145.852 40.5228 145.699 39.6459 145.699 38.5843C145.699 37.5382 145.836 36.6151 146.142 35.8459C146.433 35.0613 146.846 34.3997 147.336 33.8921C147.841 33.369 148.423 32.9844 149.081 32.7382C149.724 32.4767 150.397 32.3536 151.086 32.3536C151.821 32.3536 152.479 32.4459 153.091 32.6767C153.688 32.9074 154.224 33.2459 154.683 33.7228C155.112 34.1844 155.464 34.7997 155.724 35.5382C155.969 36.292 156.091 37.169 156.091 38.1997C156.091 38.5997 156.076 38.9228 156.061 39.1997H148.561C148.607 39.7382 148.714 40.1843 148.913 40.5689C149.112 40.9382 149.357 41.2459 149.678 41.492C150 41.7382 150.367 41.9074 150.795 41.9997C151.224 42.092 151.668 42.1536 152.173 42.1536ZM151.056 34.5228C150.704 34.5228 150.382 34.5844 150.107 34.7074C149.846 34.8459 149.602 35.0151 149.403 35.2459C149.188 35.4767 149.035 35.7382 148.928 36.0305C148.806 36.3228 148.729 36.6459 148.683 36.9843H153.183C153.183 36.6459 153.137 36.3228 153.045 36.0305C152.954 35.7382 152.816 35.4613 152.647 35.2459C152.464 35.0151 152.234 34.8459 151.989 34.7074C151.714 34.5844 151.408 34.5228 151.056 34.5228Z" fill="white"/>
<path d="M53.9844 21.3228V12.4767H56.7853C57.6119 12.4767 58.3466 12.6459 58.9894 12.969C59.6476 13.3074 60.1527 13.769 60.52 14.3844C60.8874 14.9997 61.071 15.7074 61.071 16.492V17.3074C61.071 18.0767 60.8874 18.7843 60.52 19.3997C60.1527 20.0151 59.6476 20.492 58.9894 20.8151C58.3466 21.1536 57.5813 21.3228 56.7241 21.3228H53.9844ZM54.8415 13.1228V20.692H56.7395C57.7956 20.692 58.6374 20.3843 59.2649 19.7536C59.8925 19.1536 60.2139 18.292 60.2139 17.2613V16.492C60.2139 15.4767 59.9078 14.6767 59.2802 14.0459C58.6527 13.4459 57.8262 13.1228 56.8007 13.1228H54.8415ZM62.571 17.9382C62.571 17.3228 62.6935 16.7536 62.9843 16.2459C63.2751 15.7382 63.6578 15.3382 64.1629 15.0613C64.668 14.7844 65.2496 14.6305 65.8771 14.6305C66.872 14.6305 67.6679 14.9382 68.2955 15.5536C68.8924 16.169 69.2138 16.9844 69.2138 17.9997V18.1536C69.2138 18.7843 69.0761 19.3536 68.7853 19.8613C68.5251 20.369 68.1271 20.769 67.622 21.0305C67.1169 21.3074 66.5353 21.4459 65.8924 21.4459C64.9128 21.4459 64.1016 21.1536 63.4894 20.5228C62.8771 19.9228 62.571 19.092 62.571 18.092V17.9382ZM63.3822 18.1382C63.3822 18.9074 63.6118 19.569 64.071 20.0767C64.5302 20.569 65.1424 20.8305 65.8771 20.8305C66.6118 20.8305 67.2241 20.569 67.6832 20.0767C68.1424 19.569 68.372 18.9074 68.372 18.092V17.9536C68.372 17.4459 68.2649 16.9997 68.0506 16.569C67.8363 16.1536 67.5455 15.8305 67.1628 15.6151C66.7802 15.369 66.3516 15.2613 65.8618 15.2613C65.1271 15.2613 64.5302 15.5228 64.071 16.0305C63.6118 16.5382 63.3669 17.1997 63.3669 18.0151V18.1382H63.3822ZM72.6883 19.8151L72.8107 20.3843L72.9638 19.7843L74.7546 14.7536H75.4587L77.2342 19.7382L77.4332 20.4305L77.5862 19.7843L79.1168 14.7536H79.9586L77.8005 21.3228H77.0964L75.1832 16.1074L75.0913 15.7536L74.9995 16.1228L73.1169 21.3228H72.4128L70.2546 14.7536H71.1118L72.6883 19.8151ZM82.2851 14.7536L82.3157 15.8767C82.5913 15.4767 82.9433 15.169 83.3566 14.9536C83.7851 14.7382 84.2443 14.6305 84.7494 14.6305C85.53 14.6305 86.1422 14.8305 86.5249 15.2305C86.9229 15.6305 87.1219 16.2305 87.1219 17.0305V21.3382H86.3106V17.0151C86.3106 16.4305 86.1729 15.9997 85.8821 15.7228C85.6065 15.4305 85.1627 15.2921 84.5504 15.2921C84.0453 15.2921 83.6015 15.4305 83.2035 15.7228C82.8055 15.9997 82.53 16.3844 82.3311 16.8459V21.3536H81.5198V14.7844H82.2851V14.7536ZM90.1524 21.3228H89.3412V11.9998H90.1524V21.3228ZM91.9432 17.9382C91.9432 17.3228 92.081 16.7536 92.3718 16.2459C92.632 15.7382 93.03 15.3382 93.535 15.0613C94.0555 14.7844 94.6218 14.6305 95.2646 14.6305C96.2442 14.6305 97.0554 14.9382 97.6677 15.5536C98.2799 16.169 98.6013 16.9844 98.6013 17.9997V18.1536C98.6013 18.7843 98.4636 19.3536 98.1728 19.8613C97.8973 20.369 97.5146 20.769 97.0095 21.0305C96.5044 21.3074 95.9228 21.4459 95.2799 21.4459C94.3003 21.4459 93.4891 21.1536 92.8769 20.5228C92.2646 19.9228 91.9432 19.092 91.9432 18.092V17.9382ZM92.7697 18.1382C92.7697 18.9074 92.9993 19.569 93.4585 20.0767C93.9177 20.569 94.5299 20.8305 95.2646 20.8305C95.9993 20.8305 96.6116 20.569 97.0554 20.0767C97.5146 19.569 97.7595 18.9074 97.7595 18.092V17.9536C97.7595 17.4459 97.6524 16.9997 97.4381 16.569C97.2238 16.1536 96.933 15.8305 96.5503 15.6151C96.1677 15.369 95.7391 15.2613 95.2493 15.2613C94.5146 15.2613 93.9177 15.5228 93.4585 16.0305C92.9993 16.5382 92.7697 17.1997 92.7697 18.0151V18.1382ZM104.984 21.3228C104.892 21.1074 104.846 20.7997 104.831 20.3997C104.54 20.7228 104.173 20.9843 103.714 21.169C103.254 21.3536 102.795 21.4305 102.29 21.4305C101.571 21.4305 101.004 21.2613 100.56 20.9074C100.117 20.5536 99.887 20.1228 99.887 19.569C99.887 18.9382 100.193 18.4305 100.805 18.0613C101.402 17.692 102.244 17.5074 103.316 17.5074H104.8V16.7536C104.8 16.2767 104.647 15.9074 104.31 15.6305C103.989 15.369 103.515 15.2151 102.872 15.2151C102.29 15.2151 101.831 15.3536 101.448 15.6151C101.066 15.8767 100.882 16.1844 100.882 16.5536L100.055 16.5382C100.055 16.0151 100.331 15.5844 100.882 15.1997C101.433 14.8151 102.106 14.6151 102.902 14.6151C103.729 14.6151 104.387 14.7997 104.877 15.169C105.351 15.5382 105.611 16.0459 105.611 16.7074V19.7997C105.611 20.4305 105.703 20.9228 105.856 21.2305V21.3228H104.984ZM102.397 20.8151C102.948 20.8151 103.438 20.692 103.867 20.4459C104.295 20.2151 104.617 19.9074 104.8 19.5074V18.0459H103.346C102.52 18.0613 101.892 18.1844 101.402 18.4459C100.958 18.7074 100.714 19.0613 100.714 19.5228C100.714 19.892 100.867 20.1843 101.173 20.4459C101.494 20.692 101.907 20.8151 102.397 20.8151ZM107.494 17.969C107.494 16.9536 107.754 16.1382 108.259 15.5382C108.78 14.9382 109.484 14.6151 110.372 14.6151C111.367 14.6151 112.147 14.969 112.668 15.6767V11.9844H113.479V21.3074H112.713L112.683 20.4305C112.162 21.092 111.382 21.4151 110.372 21.4151C109.515 21.4151 108.81 21.1228 108.29 20.5074C107.77 19.9074 107.509 19.0613 107.509 18.0305V17.969H107.494ZM108.321 18.1074C108.321 18.9382 108.52 19.5997 108.902 20.092C109.285 20.569 109.821 20.8305 110.509 20.8305C111.52 20.8305 112.254 20.4305 112.668 19.6459V16.569C112.239 15.7074 111.535 15.2767 110.525 15.2767C109.836 15.2767 109.3 15.5228 108.902 15.9997C108.52 16.4613 108.321 17.169 108.321 18.1074ZM118.622 17.9382C118.622 17.3228 118.759 16.7536 119.035 16.2459C119.31 15.7382 119.708 15.3382 120.213 15.0613C120.719 14.7844 121.3 14.6305 121.928 14.6305C122.923 14.6305 123.718 14.9382 124.346 15.5536C124.943 16.169 125.264 16.9844 125.264 17.9997V18.1536C125.264 18.7843 125.127 19.3536 124.851 19.8613C124.576 20.369 124.178 20.769 123.673 21.0305C123.167 21.3074 122.586 21.4459 121.958 21.4459C120.963 21.4459 120.167 21.1536 119.54 20.5228C118.943 19.9228 118.622 19.092 118.622 18.092V17.9382ZM119.433 18.1382C119.433 18.9074 119.678 19.569 120.137 20.0767C120.581 20.569 121.193 20.8305 121.943 20.8305C122.678 20.8305 123.275 20.569 123.734 20.0767C124.193 19.569 124.423 18.9074 124.423 18.092V17.9536C124.423 17.4459 124.331 16.9997 124.101 16.569C123.887 16.1536 123.596 15.8305 123.213 15.6151C122.831 15.369 122.402 15.2613 121.912 15.2613C121.178 15.2613 120.596 15.5228 120.122 16.0305C119.662 16.5382 119.418 17.1997 119.418 18.0151V18.1382H119.433ZM127.744 14.7536L127.775 15.8767C128.05 15.4767 128.387 15.169 128.815 14.9536C129.244 14.7382 129.688 14.6305 130.193 14.6305C130.989 14.6305 131.586 14.8305 131.984 15.2305C132.382 15.6305 132.581 16.2305 132.581 17.0305V21.3382H131.769V17.0151C131.769 16.4305 131.632 15.9997 131.341 15.7228C131.065 15.4305 130.621 15.2921 130.009 15.2921C129.504 15.2921 129.06 15.4305 128.662 15.7228C128.264 16.0151 127.989 16.3844 127.79 16.8459V21.3536H126.979V14.7844H127.744V14.7536ZM139.392 13.0767V14.7536H140.938V15.3536H139.392V19.7382C139.392 20.1074 139.468 20.369 139.621 20.5536C139.774 20.7228 140.019 20.8151 140.371 20.8151C140.509 20.8151 140.739 20.7843 141.045 20.7382L141.075 21.3382C140.861 21.4151 140.57 21.4305 140.188 21.4305C139.621 21.4305 139.223 21.292 138.963 20.9997C138.703 20.7074 138.565 20.2766 138.565 19.7074V15.3228H137.203V14.7228H138.565V13.0767H139.392ZM143.463 15.8767C143.723 15.4767 144.06 15.169 144.504 14.9536C144.917 14.7382 145.376 14.6305 145.882 14.6305C146.677 14.6305 147.274 14.8305 147.657 15.2305C148.055 15.6305 148.254 16.2305 148.254 17.0305V21.3382H147.427V17.0151C147.427 16.4305 147.29 15.9997 146.999 15.7228C146.739 15.4305 146.28 15.2921 145.683 15.2921C145.162 15.2921 144.718 15.4305 144.32 15.7228C143.938 15.9997 143.647 16.3844 143.463 16.8459V21.3536H142.637V11.9998H143.463V15.8767ZM153.244 21.4305C152.616 21.4305 152.05 21.3074 151.529 21.0151C151.024 20.7536 150.626 20.369 150.351 19.8767C150.06 19.3843 149.922 18.8305 149.922 18.2305V17.9536C149.922 17.3382 150.06 16.7536 150.351 16.2459C150.611 15.7536 151.009 15.3536 151.499 15.0613C151.989 14.7844 152.54 14.6305 153.121 14.6305C154.024 14.6305 154.744 14.9074 155.264 15.4459C155.785 15.9997 156.045 16.7382 156.045 17.6767V18.092H150.734V18.2305C150.734 18.9843 150.994 19.5843 151.468 20.092C151.943 20.5843 152.57 20.8305 153.29 20.8305C153.718 20.8305 154.116 20.7536 154.453 20.6151C154.79 20.4766 155.096 20.2459 155.371 19.9382L155.892 20.2767C155.279 21.0459 154.392 21.4305 153.244 21.4305ZM153.106 15.2459C152.494 15.2459 151.973 15.4613 151.529 15.8459C151.101 16.2459 150.856 16.7844 150.764 17.4613H155.234V17.369C155.203 16.7536 155.004 16.2305 154.621 15.8305C154.223 15.4459 153.718 15.2459 153.106 15.2459Z" fill="white"/>
<path fill-rule="evenodd" clip-rule="evenodd" d="M28.0256 18.462C33 18.6312 36.0459 14.9082 36.1531 9.9082C30.8419 9.9082 27.5817 12.6313 28.0256 18.462ZM43.9897 37.5235C41.7857 35.4773 39.2602 34.8773 39.1071 30.0466C39.0306 27.462 39.7347 26.0928 40.5765 25.062C41.4336 24.0312 42.4132 23.3235 42.8877 22.062C36.9796 14.6928 30.949 20.6774 27.3062 19.8312C26.3572 19.6005 25.6072 19.2312 24.7195 18.8928C23.6634 18.4928 22.6838 18.4312 21.5511 18.4928C10.4237 19.2466 9.90329 35.6312 18.4287 45.6004C22.5154 50.3542 24.0613 46.785 28.5154 46.5234C32.847 46.2619 35.0204 50.2311 39.153 46.2157C40.6683 44.785 43.5306 40.4312 43.9897 37.5235Z" fill="white"/>
</svg>
