<svg width="14" height="8" viewBox="0 0 14 8" fill="none" xmlns="http://www.w3.org/2000/svg">
    <mask id="path-1-inside-1_987_2039" fill="white">
        <path d="M7 7.75L0.75 1.5L1.625 0.625L7 6L12.375 0.625002L13.25 1.5L7 7.75Z" />
    </mask>
    <path d="M7 7.75L0.75 1.5L1.625 0.625L7 6L12.375 0.625002L13.25 1.5L7 7.75Z" fill="#EF6238" />
    <path d="M7 7.75L5.58579 9.16421L7 10.5784L8.41421 9.16421L7 7.75ZM0.75 1.5L-0.664213 0.0857853L-2.07843 1.5L-0.664214 2.91421L0.75 1.5ZM1.625 0.625L3.03921 -0.789213L1.625 -2.20343L0.210787 -0.789214L1.625 0.625ZM7 6L5.58579 7.41421L7 8.82843L8.41421 7.41421L7 6ZM12.375 0.625002L13.7892 -0.789211L12.375 -2.20342L10.9608 -0.789212L12.375 0.625002ZM13.25 1.5L14.6642 2.91422L16.0784 1.5L14.6642 0.0857882L13.25 1.5ZM8.41421 6.33579L2.16421 0.085786L-0.664214 2.91421L5.58579 9.16421L8.41421 6.33579ZM2.16421 2.91421L3.03921 2.03921L0.210787 -0.789214L-0.664213 0.0857853L2.16421 2.91421ZM0.210787 2.03921L5.58579 7.41421L8.41421 4.58579L3.03921 -0.789213L0.210787 2.03921ZM8.41421 7.41421L13.7892 2.03922L10.9608 -0.789212L5.58579 4.58579L8.41421 7.41421ZM10.9608 2.03922L11.8358 2.91422L14.6642 0.0857882L13.7892 -0.789211L10.9608 2.03922ZM11.8358 0.0857877L5.58579 6.33579L8.41421 9.16421L14.6642 2.91422L11.8358 0.0857877Z" fill="#EF6238" mask="url(#path-1-inside-1_987_2039)" />
</svg>
