<svg width="8" height="14" viewBox="0 0 8 14" fill="none" xmlns="http://www.w3.org/2000/svg">
    <mask id="path-1-inside-1_988_3863" fill="white">
        <path d="M0.250001 7L6.5 0.75L7.375 1.625L2 7L7.375 12.375L6.5 13.25L0.250001 7Z" />
    </mask>
    <path d="M0.250001 7L6.5 0.75L7.375 1.625L2 7L7.375 12.375L6.5 13.25L0.250001 7Z" fill="#EF6238" />
    <path d="M0.250001 7L-1.16421 5.58579L-2.57843 7L-1.16421 8.41421L0.250001 7ZM6.5 0.75L7.91421 -0.664213L6.5 -2.07843L5.08579 -0.664213L6.5 0.75ZM7.375 1.625L8.78921 3.03921L10.2034 1.625L8.78921 0.210787L7.375 1.625ZM2 7L0.585787 5.58579L-0.828426 7L0.585786 8.41421L2 7ZM7.375 12.375L8.78921 13.7892L10.2034 12.375L8.78921 10.9608L7.375 12.375ZM6.5 13.25L5.08579 14.6642L6.5 16.0784L7.91421 14.6642L6.5 13.25ZM1.66422 8.41421L7.91421 2.16421L5.08579 -0.664213L-1.16421 5.58579L1.66422 8.41421ZM5.08579 2.16421L5.96079 3.03921L8.78921 0.210787L7.91421 -0.664213L5.08579 2.16421ZM5.96079 0.210787L0.585787 5.58579L3.41421 8.41421L8.78921 3.03921L5.96079 0.210787ZM0.585786 8.41421L5.96079 13.7892L8.78921 10.9608L3.41421 5.58579L0.585786 8.41421ZM5.96079 10.9608L5.08579 11.8358L7.91421 14.6642L8.78921 13.7892L5.96079 10.9608ZM7.91421 11.8358L1.66422 5.58579L-1.16421 8.41421L5.08579 14.6642L7.91421 11.8358Z" fill="#EF6238" mask="url(#path-1-inside-1_988_3863)" />
</svg>
