<svg width="14" height="17" viewBox="0 0 14 17" fill="none" xmlns="http://www.w3.org/2000/svg">
    <path d="M11.1883 0.99235C12.2949 1.63124 13.0108 2.55781 13.3362 3.77205C13.6615 4.9863 13.5048 6.14671 12.8659 7.2533L8.49089 14.831C8.03255 15.6249 7.35753 16.1413 6.46582 16.3802C5.57411 16.6191 4.73132 16.5094 3.93747 16.0511C3.14361 15.5928 2.62722 14.9178 2.38828 14.026C2.14935 13.1343 2.25905 12.2915 2.71738 11.4977L6.67572 4.64165C6.96738 4.13647 7.38832 3.81017 7.93852 3.66274C8.48873 3.51532 9.01642 3.58743 9.5216 3.8791C10.0268 4.17077 10.3531 4.5917 10.5005 5.14191C10.6479 5.69211 10.5758 6.21981 10.2842 6.72499L6.32582 13.581L5.24329 12.956L9.20162 6.09999C9.31968 5.89551 9.34929 5.68423 9.29044 5.46615C9.23236 5.24786 9.10108 5.07969 8.8966 4.96163C8.69212 4.84358 8.4806 4.81383 8.26204 4.8724C8.04423 4.93076 7.8763 5.06218 7.75825 5.26665L3.79991 12.1227C3.50825 12.6279 3.43613 13.1556 3.58355 13.7058C3.73098 14.256 4.05729 14.6769 4.56247 14.9686C5.06765 15.2602 5.59534 15.3324 6.14555 15.1849C6.69575 15.0375 7.11669 14.7112 7.40835 14.206L11.7834 6.6283C12.2417 5.83444 12.3514 4.99166 12.1125 4.09995C11.8735 3.20824 11.3571 2.53322 10.5633 2.07488C9.76941 1.61655 8.92663 1.50685 8.03492 1.74578C7.14321 1.98471 6.46818 2.50111 6.00985 3.29497L1.63485 10.8727L0.552319 10.2477L4.92732 2.66997C5.56621 1.56338 6.49278 0.847407 7.70702 0.522051C8.92127 0.196695 10.0817 0.353462 11.1883 0.99235Z" fill="#EF6238" />
</svg>
