<svg width="115" height="119" viewBox="0 0 115 119" fill="none" xmlns="http://www.w3.org/2000/svg">
<path d="M51.3161 47.7758L90.4175 76.2533L89.2013 81.7205C87.4986 89.3505 83.9107 96.1395 79.1067 101.727C68.0391 114.584 50.3432 121.132 32.5256 117.227C21.9445 114.884 12.8837 109.237 6.31613 101.426C1.02559 95.1181 6.92424 85.8059 15.0121 87.6082C16.8972 88.0288 18.5391 88.9901 19.7553 90.432C23.708 95.1782 29.0594 98.6027 35.3229 100.225C35.6878 100.285 35.9918 100.405 36.3567 100.465C44.0796 102.147 51.7418 100.766 58.0661 97.1008C63.5391 93.9166 67.9783 89.1102 70.5323 83.1023L40.9175 61.594C38.181 59.5513 36.8432 56.1268 37.6337 52.8224C39.0323 46.6944 46.2688 44.0509 51.3161 47.7758ZM49.9783 77.4549L20.3026 55.526C22.8567 49.5181 27.3567 44.7118 32.7688 41.5276C39.0932 37.8627 46.7553 36.4809 54.4783 38.1631C61.1675 39.6651 66.8837 43.2098 71.0188 48.1363C72.2959 49.6383 73.9986 50.6596 75.9445 51.0801C83.9715 52.8825 89.8094 43.5703 84.5796 37.322C78.0729 29.3916 68.8904 23.7442 58.3094 21.4011C40.4918 17.4358 22.7959 23.9845 11.7283 36.9015C6.92424 42.4888 3.39721 49.2778 1.6337 56.9078L0.41748 62.375L39.5796 91.2731C44.6269 94.998 51.9242 92.3545 53.2621 86.2264C54.0526 82.9221 52.7756 79.4976 49.9783 77.4549Z" fill="#222222"/>
<path d="M80.8734 45.1816C80.6241 45.1816 80.3124 45.0584 80.1877 44.8121C80.1877 44.8121 79.8137 44.2578 79.0033 43.3339C78.6916 42.9644 78.7539 42.4717 79.128 42.1637C79.502 41.8558 80.0007 41.9174 80.3124 42.2869C81.1228 43.2723 81.5591 43.8882 81.5591 43.9498C81.8085 44.3193 81.6838 44.8121 81.3098 45.0584C81.1851 45.12 80.9981 45.1816 80.8734 45.1816Z" fill="#EF6238"/>
<path d="M11.4284 54.6653C11.3037 54.6653 11.2414 54.6653 11.1167 54.6037C10.6803 54.4189 10.4933 53.9878 10.618 53.5567C11.1167 52.2633 11.6777 50.9699 12.3011 49.6766C12.4881 49.2454 12.9868 49.1223 13.4232 49.307C13.8596 49.4918 13.9842 49.9845 13.7972 50.4156C13.1738 51.6474 12.6128 52.8792 12.1764 54.111C12.1141 54.4805 11.7401 54.6653 11.4284 54.6653Z" fill="#EF6238"/>
<path d="M15.1069 47.3363C14.9823 47.3363 14.7953 47.2747 14.6706 47.2131C14.2966 46.9667 14.1719 46.474 14.4212 46.1045C15.1693 44.9343 16.042 43.7641 16.9147 42.7171C17.2264 42.3475 17.7251 42.286 18.0992 42.5939C18.4732 42.9018 18.5355 43.3946 18.2238 43.7641C17.3511 44.8111 16.6031 45.9197 15.855 47.0283C15.668 47.2131 15.4186 47.3363 15.1069 47.3363Z" fill="#EF6238"/>
<path d="M20.3427 40.9939C20.1556 40.9939 19.9063 40.9323 19.7816 40.7476C19.4699 40.4396 19.4699 39.8853 19.7816 39.5774C20.779 38.592 21.8388 37.6065 22.8985 36.7443C23.2725 36.4363 23.7712 36.4979 24.0829 36.8675C24.3946 37.237 24.3323 37.7297 23.9583 38.0377C22.8985 38.8999 21.9011 39.7622 20.966 40.7476C20.7167 40.8708 20.5297 40.9939 20.3427 40.9939Z" fill="#EF6238"/>
<path d="M76.8202 40.6847C76.6332 40.6847 76.3839 40.6232 76.2592 40.4384C75.2618 39.5146 74.2644 38.6523 73.1423 37.8516C72.7683 37.6053 72.7059 37.051 72.9553 36.6815C73.2046 36.3119 73.7657 36.2503 74.1397 36.4967C75.2618 37.3589 76.3839 38.2212 77.3813 39.2066C77.693 39.5146 77.7553 40.0073 77.4436 40.3768C77.2566 40.5616 77.0072 40.6847 76.8202 40.6847Z" fill="#EF6238"/>
<path d="M26.7627 35.8211C26.5134 35.8211 26.2017 35.6979 26.077 35.4515C25.8276 35.082 25.9523 34.5893 26.3263 34.3429C27.5108 33.6039 28.7575 32.8648 30.0043 32.2489C30.4406 32.0641 30.9393 32.1873 31.1264 32.6185C31.3134 33.0496 31.1887 33.5423 30.7523 33.7271C29.5679 34.3429 28.3835 34.9588 27.1991 35.6979C27.0744 35.7595 26.8874 35.8211 26.7627 35.8211Z" fill="#EF6238"/>
<path d="M70.1505 35.7593C70.0258 35.7593 69.8388 35.6978 69.7141 35.6362C68.5297 34.9587 67.3453 34.3428 66.0985 33.7269C65.6621 33.5421 65.4751 33.0494 65.7245 32.6183C65.9115 32.1872 66.4102 32.0024 66.8466 32.2488C68.0933 32.8647 69.4024 33.4806 70.5868 34.2196C70.9609 34.466 71.0855 34.9587 70.8985 35.3282C70.7115 35.5746 70.4622 35.7593 70.1505 35.7593Z" fill="#EF6238"/>
<path d="M62.671 32.2471C62.6086 32.2471 62.484 32.2471 62.4216 32.1855C61.1749 31.7544 59.8658 31.3849 58.4943 31.0769C58.058 30.9537 57.7463 30.5226 57.871 30.0915C57.9956 29.6604 58.432 29.3524 58.8684 29.4756C60.2398 29.7836 61.6112 30.2147 62.9203 30.6458C63.3567 30.769 63.6061 31.2617 63.419 31.6928C63.3567 32.0624 62.9827 32.2471 62.671 32.2471Z" fill="#EF6238"/>
<path d="M34.1823 32.1857C33.8706 32.1857 33.4966 32.0009 33.3719 31.6314C33.1849 31.2002 33.4342 30.7075 33.8706 30.5843C35.1797 30.0916 36.5511 29.7221 37.9226 29.3526C38.3589 29.2294 38.7953 29.5373 38.92 29.9685C39.0447 30.3996 38.733 30.8307 38.2966 30.9539C36.9875 31.2618 35.6784 31.6314 34.4316 32.1241C34.3693 32.1857 34.2446 32.1857 34.1823 32.1857Z" fill="#EF6238"/>
<path d="M54.6286 30.3383C54.5663 30.3383 54.5663 30.3383 54.504 30.3383C53.1949 30.1536 51.8234 30.0304 50.452 29.9688C50.0156 29.9688 49.6416 29.5377 49.6416 29.1066C49.6416 28.6754 50.078 28.3059 50.5143 28.3059C51.9481 28.3675 53.3195 28.4907 54.691 28.737C55.1273 28.7986 55.439 29.2297 55.3767 29.6609C55.3767 30.0304 55.0027 30.3383 54.6286 30.3383Z" fill="#EF6238"/>
<path d="M42.2231 30.2768C41.7868 30.2768 41.4751 29.9688 41.4127 29.5377C41.3504 29.1066 41.6621 28.6754 42.0984 28.6139C43.4699 28.4291 44.9037 28.3059 46.3374 28.3059C46.7738 28.3059 47.2102 28.6754 47.2102 29.1066C47.2102 29.5377 46.8361 29.9688 46.3998 29.9688C45.0283 30.0304 43.6569 30.092 42.3478 30.2768C42.2855 30.2768 42.2231 30.2768 42.2231 30.2768Z" fill="#EF6238"/>
<path d="M11.5536 61.7495C11.3666 61.7495 11.1795 61.6879 11.0549 61.5648L9.06006 60.0866L9.1224 59.5939C9.18473 58.9164 9.30941 58.239 9.43409 57.5615C9.55876 57.1303 9.99513 56.8224 10.4315 56.9456C10.8679 57.0688 11.1795 57.4999 11.0549 57.931C10.9302 58.4237 10.8679 58.8548 10.8055 59.3476L11.9899 60.2714C12.364 60.5177 12.4263 61.072 12.177 61.4416C12.0523 61.6263 11.8029 61.7495 11.5536 61.7495Z" fill="#EF6238"/>
<path d="M40.8521 83.6129C40.6651 83.6129 40.4781 83.5513 40.3534 83.4282L37.4235 81.2725C37.0495 81.0262 36.9872 80.4719 37.2365 80.1024C37.4859 79.7328 38.0469 79.6712 38.4209 79.9176L41.3508 82.0732C41.7249 82.3196 41.7872 82.8739 41.5378 83.2434C41.3508 83.4897 41.1015 83.6129 40.8521 83.6129Z" fill="#EF6238"/>
<path d="M34.9932 79.2404C34.8062 79.2404 34.6192 79.1788 34.4945 79.0556L31.5647 76.9C31.1906 76.6536 31.1283 76.0993 31.3776 75.7298C31.627 75.3603 32.188 75.2987 32.5621 75.545L35.4919 77.7006C35.866 77.947 35.9283 78.5013 35.679 78.8708C35.4919 79.1172 35.2426 79.2404 34.9932 79.2404Z" fill="#EF6238"/>
<path d="M29.1329 74.8668C28.9459 74.8668 28.7589 74.8052 28.6342 74.6821L25.7043 72.5265C25.3303 72.2801 25.2679 71.7258 25.5173 71.3563C25.7666 70.9867 26.3277 70.9251 26.7017 71.1715L29.6316 73.3271C30.0056 73.5735 30.068 74.1278 29.8186 74.4973C29.6316 74.7437 29.3822 74.8668 29.1329 74.8668Z" fill="#EF6238"/>
<path d="M23.2735 70.4957C23.0865 70.4957 22.8995 70.4342 22.7748 70.311L19.8449 68.1554C19.4709 67.909 19.4086 67.3547 19.6579 66.9852C19.9073 66.6156 20.4683 66.554 20.8423 66.8004L23.7722 68.956C24.1462 69.2024 24.2086 69.7567 23.9592 70.1262C23.7722 70.3726 23.5229 70.4957 23.2735 70.4957Z" fill="#EF6238"/>
<path d="M17.4136 66.1222C17.2266 66.1222 17.0396 66.0606 16.9149 65.9374L13.9851 63.7818C13.611 63.5355 13.5487 62.9812 13.798 62.6116C14.0474 62.2421 14.6084 62.1805 14.9825 62.4269L17.9124 64.5825C18.2864 64.8288 18.3487 65.3831 18.0994 65.7527C17.9124 65.999 17.663 66.1222 17.4136 66.1222Z" fill="#EF6238"/>
<path d="M19.5323 63.5348C19.3453 63.5348 19.1583 63.4732 19.0336 63.35L16.1037 61.1944C15.7297 60.9481 15.6673 60.3938 15.9167 60.0242C16.1661 59.6547 16.7271 59.5931 17.1011 59.8395L20.031 61.9951C20.405 62.2414 20.4674 62.7957 20.218 63.1653C20.031 63.4116 19.7817 63.5348 19.5323 63.5348Z" fill="#EF6238"/>
<path d="M21.6524 60.8866C21.4654 60.8866 21.2784 60.825 21.1537 60.7018L18.2238 58.5462C17.8498 58.2999 17.7875 57.7456 18.0368 57.376C18.2862 57.0065 18.8472 56.9449 19.2212 57.1913L22.1511 59.3469C22.5251 59.5932 22.5875 60.1475 22.3381 60.5171C22.1511 60.7634 21.9018 60.8866 21.6524 60.8866Z" fill="#EF6238"/>
<path d="M13.2364 71.3561C13.0494 71.3561 12.8624 71.2945 12.7377 71.1713L9.80782 69.0157C9.43379 68.7694 9.37145 68.2151 9.6208 67.8455C9.87015 67.476 10.4312 67.4144 10.8052 67.6608L13.7351 69.8164C14.1091 70.0627 14.1715 70.617 13.9221 70.9866C13.7351 71.2329 13.4858 71.3561 13.2364 71.3561Z" fill="#EF6238"/>
<path d="M15.2945 68.7704C15.1075 68.7704 14.9205 68.7088 14.7958 68.5856L11.8659 66.43C11.4919 66.1837 11.4296 65.6294 11.6789 65.2598C11.9283 64.8903 12.4893 64.8287 12.8633 65.0751L15.7932 67.2307C16.1672 67.477 16.2296 68.0313 15.9802 68.4009C15.7932 68.6472 15.5439 68.7704 15.2945 68.7704Z" fill="#EF6238"/>
<path d="M45.4034 87.0008C45.2164 87.0008 45.0293 86.9392 44.9047 86.816L43.2839 85.6458C42.9099 85.3995 42.8475 84.8452 43.0969 84.4756C43.3462 84.1061 43.9073 84.0445 44.2813 84.2909L45.9021 85.4611C46.2761 85.7074 46.3384 86.2617 46.0891 86.6313C45.9021 86.8776 45.6527 87.0008 45.4034 87.0008Z" fill="#EF6238"/>
<path d="M11.8652 96.3008C12.1146 96.3008 12.4263 96.424 12.551 96.6703C12.551 96.6703 12.925 97.2246 13.7354 98.1485C14.0471 98.518 13.9847 99.0107 13.6107 99.3186C13.2367 99.6266 12.738 99.565 12.4263 99.1955C11.6159 98.21 11.1795 97.5942 11.1795 97.5326C10.9302 97.163 11.0549 96.6703 11.4289 96.424C11.5536 96.3008 11.7406 96.3008 11.8652 96.3008Z" fill="#EF6238"/>
<path d="M81.3099 86.7537C81.4346 86.7537 81.4969 86.7537 81.6216 86.8153C82.058 87 82.245 87.4311 82.1203 87.8623C81.6216 89.1556 81.0606 90.449 80.4372 91.7424C80.2502 92.1735 79.7515 92.2967 79.3151 92.1119C78.8788 91.9271 78.7541 91.4344 78.9411 91.0033C79.5645 89.7715 80.1255 88.5397 80.5619 87.308C80.6865 87 80.9982 86.7537 81.3099 86.7537Z" fill="#EF6238"/>
<path d="M77.6319 94.082C77.7566 94.082 77.9436 94.1436 78.0683 94.2052C78.4423 94.4516 78.567 94.9443 78.3176 95.3138C77.5696 96.484 76.6968 97.6542 75.8241 98.7012C75.5124 99.0707 75.0137 99.1323 74.6397 98.8244C74.2656 98.5164 74.2033 98.0237 74.515 97.6542C75.3877 96.6072 76.1358 95.4986 76.8838 94.39C77.0709 94.2052 77.3202 94.082 77.6319 94.082Z" fill="#EF6238"/>
<path d="M72.4584 100.488C72.6454 100.488 72.8948 100.55 73.0194 100.734C73.3311 101.042 73.3311 101.597 73.0194 101.905C72.022 102.89 70.9623 103.875 69.9025 104.738C69.5285 105.046 69.0298 104.984 68.7181 104.614C68.4064 104.245 68.4688 103.752 68.8428 103.444C69.9025 102.582 70.9 101.72 71.835 100.734C72.022 100.55 72.209 100.488 72.4584 100.488Z" fill="#EF6238"/>
<path d="M15.9797 100.797C16.1667 100.797 16.416 100.858 16.5407 101.043C17.5381 101.967 18.5355 102.829 19.6576 103.63C20.0316 103.876 20.094 104.431 19.8446 104.8C19.5953 105.17 19.0342 105.231 18.6602 104.985C17.5381 104.123 16.416 103.26 15.4186 102.275C15.1069 101.967 15.0446 101.474 15.3563 101.105C15.5433 100.858 15.7303 100.797 15.9797 100.797Z" fill="#EF6238"/>
<path d="M66.0372 105.661C66.2865 105.661 66.5982 105.784 66.7229 106.03C66.9722 106.4 66.8476 106.893 66.4735 107.139C65.2891 107.878 64.0424 108.617 62.7956 109.233C62.3592 109.418 61.8605 109.295 61.6735 108.864C61.4865 108.432 61.6112 107.94 62.0475 107.755C63.232 107.139 64.4164 106.523 65.6008 105.784C65.7255 105.722 65.8502 105.661 66.0372 105.661Z" fill="#EF6238"/>
<path d="M22.5884 105.724C22.713 105.724 22.9001 105.785 23.0247 105.847C24.2092 106.524 25.3936 107.14 26.6403 107.756C27.0767 107.941 27.2637 108.434 27.0144 108.865C26.8273 109.296 26.3286 109.481 25.8923 109.234C24.6455 108.618 23.3364 108.002 22.152 107.263C21.778 107.017 21.6533 106.524 21.8403 106.155C22.0273 105.847 22.2767 105.724 22.5884 105.724Z" fill="#EF6238"/>
<path d="M30.0677 109.171C30.1301 109.171 30.2547 109.171 30.3171 109.233C31.5638 109.664 32.8729 110.033 34.2444 110.341C34.6807 110.465 34.9924 110.896 34.8677 111.327C34.7431 111.758 34.3067 112.066 33.8703 111.943C32.4989 111.635 31.1275 111.204 29.8184 110.772C29.382 110.649 29.1326 110.157 29.3197 109.725C29.4443 109.417 29.756 109.171 30.0677 109.171Z" fill="#EF6238"/>
<path d="M58.6184 109.295C58.9301 109.295 59.3041 109.48 59.4288 109.849C59.6158 110.281 59.3665 110.773 58.9301 110.896C57.621 111.389 56.2496 111.759 54.8781 112.128C54.4418 112.251 54.0054 111.943 53.8807 111.512C53.7561 111.081 54.0677 110.65 54.5041 110.527C55.8132 110.219 57.1223 109.849 58.3691 109.357C58.4314 109.295 58.4937 109.295 58.6184 109.295Z" fill="#EF6238"/>
<path d="M38.11 111.082C38.1723 111.082 38.1723 111.082 38.2347 111.082C39.5438 111.267 40.9152 111.39 42.2866 111.452C42.723 111.452 43.097 111.883 43.097 112.314C43.097 112.745 42.6607 113.115 42.2243 113.115C40.7905 113.053 39.4191 112.93 38.0477 112.684C37.6113 112.622 37.2996 112.191 37.3619 111.76C37.3619 111.39 37.736 111.082 38.11 111.082Z" fill="#EF6238"/>
<path d="M50.5154 111.206C50.9517 111.206 51.2634 111.514 51.3257 111.945C51.3881 112.376 51.0764 112.807 50.64 112.869C49.2686 113.053 47.8348 113.177 46.4011 113.177C45.9647 113.177 45.5283 112.807 45.5283 112.376C45.5283 111.945 45.9023 111.514 46.3387 111.514C47.7101 111.452 49.0816 111.391 50.3907 111.206C50.453 111.206 50.5154 111.206 50.5154 111.206Z" fill="#EF6238"/>
<path d="M81.1841 79.6699C81.3711 79.6699 81.5582 79.7315 81.6828 79.8547L83.6776 81.3328L83.6153 81.8255C83.553 82.503 83.4283 83.1805 83.3036 83.858C83.1789 84.2891 82.7426 84.597 82.3062 84.4739C81.8698 84.3507 81.5582 83.9196 81.6828 83.4884C81.8075 82.9957 81.8698 82.5646 81.9322 82.0719L80.7478 81.1481C80.3737 80.9017 80.3114 80.3474 80.5607 79.9779C80.6854 79.7931 80.9348 79.6699 81.1841 79.6699Z" fill="#EF6238"/>
<path d="M51.8861 57.8687C52.0731 57.8687 52.2601 57.9302 52.3848 58.0534L55.3147 60.209C55.6887 60.4554 55.7511 61.0097 55.5017 61.3792C55.2524 61.7488 54.6913 61.8103 54.3173 61.564L51.3874 59.4084C51.0134 59.162 50.951 58.6077 51.2004 58.2382C51.3874 57.9302 51.6368 57.8687 51.8861 57.8687Z" fill="#EF6238"/>
<path d="M57.746 62.2422C57.933 62.2422 58.12 62.3038 58.2447 62.427L61.1746 64.5826C61.5486 64.8289 61.6109 65.3832 61.3616 65.7528C61.1122 66.1223 60.5512 66.1839 60.1772 65.9375L57.2473 63.7203C56.8732 63.474 56.8109 62.9197 57.0603 62.5501C57.2473 62.3038 57.4966 62.2422 57.746 62.2422Z" fill="#EF6238"/>
<path d="M63.6053 66.6157C63.7924 66.6157 63.9794 66.6773 64.1041 66.8005L67.0339 68.9561C67.408 69.2025 67.4703 69.7568 67.2209 70.1263C66.9716 70.4958 66.4106 70.5574 66.0365 70.3111L63.1066 68.1554C62.7326 67.9091 62.6703 67.3548 62.9196 66.9853C63.1066 66.6773 63.356 66.6157 63.6053 66.6157Z" fill="#EF6238"/>
<path d="M69.4652 70.9258C69.6522 70.9258 69.8392 70.9874 69.9639 71.1106L72.8938 73.2662C73.2678 73.5125 73.3302 74.0668 73.0808 74.4364C72.8315 74.8059 72.2704 74.8675 71.8964 74.6211L68.9665 72.4655C68.5925 72.2192 68.5301 71.6649 68.7795 71.2953C68.9665 71.049 69.2159 70.9258 69.4652 70.9258Z" fill="#EF6238"/>
<path d="M75.3236 75.2993C75.5106 75.2993 75.6976 75.3609 75.8223 75.4841L78.7522 77.6397C79.1262 77.8861 79.1886 78.4404 78.9392 78.8099C78.6899 79.1794 78.1288 79.241 77.7548 78.9947L74.8249 76.839C74.4509 76.5927 74.3885 76.0384 74.6379 75.6688C74.8249 75.4225 75.0743 75.2993 75.3236 75.2993Z" fill="#EF6238"/>
<path d="M73.2679 77.9473C73.455 77.9473 73.642 78.0089 73.7666 78.132L76.6965 80.2877C77.0706 80.534 77.1329 81.0883 76.8835 81.4578C76.6342 81.8274 76.0732 81.889 75.6991 81.6426L72.7692 79.487C72.3952 79.2406 72.3329 78.6863 72.5822 78.3168C72.7692 78.0704 73.0186 77.9473 73.2679 77.9473Z" fill="#EF6238"/>
<path d="M71.0873 80.5955C71.2743 80.5955 71.4613 80.657 71.586 80.7802L74.5159 82.9358C74.8899 83.1822 74.9522 83.7365 74.7029 84.106C74.4535 84.4756 73.8925 84.5372 73.5185 84.2908L70.5886 82.1352C70.2146 81.8888 70.1522 81.3345 70.4016 80.965C70.5886 80.657 70.8379 80.5955 71.0873 80.5955Z" fill="#EF6238"/>
<path d="M79.5643 70.0632C79.7513 70.0632 79.9384 70.1248 80.063 70.248L82.9929 72.4036C83.3669 72.65 83.4293 73.2043 83.1799 73.5738C82.9306 73.9433 82.3695 74.0049 81.9955 73.7586L79.0656 71.603C78.6916 71.3566 78.6293 70.8023 78.8786 70.4328C79.0656 70.1864 79.315 70.0632 79.5643 70.0632Z" fill="#EF6238"/>
<path d="M77.5072 72.6511C77.6942 72.6511 77.8812 72.7127 78.0059 72.8359L80.9358 74.9915C81.3098 75.2379 81.3722 75.7922 81.1228 76.1617C80.8735 76.5312 80.3124 76.5928 79.9384 76.3465L77.0085 74.1908C76.6345 73.9445 76.5721 73.3902 76.8215 73.0207C77.0085 72.7743 77.2579 72.6511 77.5072 72.6511Z" fill="#EF6238"/>
<path d="M47.3339 54.4817C47.5209 54.4817 47.7079 54.5433 47.8326 54.6665L49.4534 55.8366C49.8274 56.083 49.8897 56.6373 49.6404 57.0068C49.391 57.3764 48.83 57.438 48.4559 57.1916L46.8352 56.0214C46.4611 55.7751 46.3988 55.2208 46.6481 54.8512C46.8352 54.6049 47.0845 54.4817 47.3339 54.4817Z" fill="#EF6238"/>
<path d="M110.161 12.5811C108.507 18.4126 105.359 23.8734 102.444 29.1476C101.121 31.5409 99.774 33.9221 98.4195 36.299C93.6867 30.3582 89.6599 23.8343 86.6076 16.8778C85.7902 15.0149 84.9967 12.9283 85.6331 10.8927C85.6827 10.7347 85.8872 10.427 86.023 10.1833C86.2772 10.1899 86.6041 10.1772 86.7625 10.2225C87.8288 10.5267 88.7128 11.2647 89.3678 12.1376C90.5708 13.7399 91.0718 15.7899 91.6663 17.6681C92.408 20.011 93.1496 22.3543 93.8913 24.6972C94.1503 25.5149 97.3071 23.3108 97.5086 22.7821C99.6325 17.2094 102.418 11.9279 105.866 7.05934C106.629 5.98275 107.42 4.92445 108.245 3.89399C108.605 3.44447 108.983 2.72908 109.517 2.71254C110.145 2.69296 110.558 3.47973 110.732 3.96406C111.656 6.5254 110.874 10.0698 110.161 12.5811ZM112.667 0.426647C110.747 0.09375 108.416 1.68556 107.034 2.83612C105.219 4.3483 103.823 6.45273 102.468 8.36568C100.117 11.6842 98.0696 15.206 96.316 18.8704C95.8472 17.3844 95.3776 15.8987 94.9019 14.4144C94.2047 12.236 93.4373 9.88352 91.4061 8.58239C87.8624 6.31261 82.3701 9.50493 81.816 13.4888C81.4739 15.9505 82.6965 18.3491 83.7058 20.5075C84.8244 22.8991 86.0487 25.2394 87.3753 27.5222C89.9602 31.9717 92.9372 36.1745 96.2372 40.1205C95.1304 42.0518 94.0227 43.983 92.9203 45.916C92.4903 46.6697 93.6045 46.3324 93.9518 46.2088C94.7039 45.9408 95.8969 45.3481 96.3182 44.6096C97.1869 43.0866 98.0583 41.5653 98.9296 40.0439C99.7797 39.4948 100.49 38.8107 100.291 38.5762C100.187 38.4539 100.085 38.329 99.9811 38.2054C101.75 35.1149 103.514 32.0209 105.248 28.9113C107.968 24.0327 110.742 19.0697 112.764 13.8522C113.766 11.2678 114.534 8.55542 114.653 5.77171C114.727 4.0276 114.933 0.81916 112.667 0.426647Z" fill="#FBFBFB"/>
</svg>
