<svg width="115" height="128" viewBox="0 0 115 128" fill="none" xmlns="http://www.w3.org/2000/svg">
<path d="M51.3161 56.7082L90.4175 85.1862L89.2013 90.6535C87.4986 98.2837 83.9107 105.073 79.1067 110.66C68.0391 123.517 50.3432 130.066 32.5256 126.161C21.9445 123.818 12.8837 118.17 6.31613 110.36C1.02559 104.051 6.92424 94.739 15.0121 96.5414C16.8972 96.962 18.5391 97.9233 19.7553 99.3652C23.708 104.112 29.0594 107.536 35.3229 109.158C35.6878 109.218 35.9918 109.339 36.3567 109.399C44.0796 111.081 51.7418 109.699 58.0661 106.034C63.5391 102.85 67.9783 98.0434 70.5323 92.0354L40.9175 70.5267C38.181 68.4839 36.8432 65.0594 37.6337 61.7549C39.0323 55.6268 46.2688 52.9832 51.3161 56.7082ZM49.9783 86.3878L20.3026 64.4586C22.8567 58.4505 27.3567 53.6441 32.7688 50.4599C39.0932 46.795 46.7553 45.4131 54.4783 47.0954C61.1675 48.5974 66.8837 52.1421 71.0188 57.0687C72.2959 58.5707 73.9986 59.5921 75.9445 60.0126C83.9715 61.815 89.8094 52.5026 84.5796 46.2542C78.0729 38.3236 68.8904 32.6761 58.3094 30.333C40.4918 26.3677 22.7959 32.9164 11.7283 45.8337C6.92424 51.4211 3.39721 58.2102 1.6337 65.8404L0.41748 71.3077L39.5796 100.206C44.6269 103.931 51.9242 101.288 53.2621 95.1596C54.0526 91.8552 52.7756 88.4306 49.9783 86.3878Z" fill="#FBFBFB"/>
<path d="M80.8737 33.2086C80.6243 33.2086 80.3126 33.0941 80.1879 32.8651C80.1879 32.8651 79.8139 32.3499 79.0035 31.4912C78.6918 31.1477 78.7542 30.6897 79.1282 30.4035C79.5022 30.1172 80.0009 30.1745 80.3126 30.518C81.123 31.4339 81.5594 32.0064 81.5594 32.0637C81.8087 32.4072 81.6841 32.8651 81.31 33.0941C81.1854 33.1514 80.9983 33.2086 80.8737 33.2086Z" fill="#222222"/>
<path d="M11.4281 42.0239C11.3035 42.0239 11.2411 42.0239 11.1165 41.9667C10.6801 41.7949 10.4931 41.3942 10.6178 40.9934C11.1165 39.7912 11.6775 38.589 12.3009 37.3868C12.4879 36.9861 12.9866 36.8716 13.423 37.0433C13.8593 37.2151 13.984 37.6731 13.797 38.0738C13.1736 39.2188 12.6126 40.3637 12.1762 41.5087C12.1139 41.8522 11.7398 42.0239 11.4281 42.0239Z" fill="#222222"/>
<path d="M15.1069 35.2112C14.9823 35.2112 14.7953 35.154 14.6706 35.0967C14.2966 34.8677 14.1719 34.4098 14.4212 34.0663C15.1693 32.9786 16.042 31.8909 16.9147 30.9176C17.2264 30.5742 17.7251 30.5169 18.0992 30.8031C18.4732 31.0894 18.5355 31.5474 18.2238 31.8909C17.3511 32.8641 16.6031 33.8945 15.855 34.925C15.668 35.0967 15.4186 35.2112 15.1069 35.2112Z" fill="#222222"/>
<path d="M20.3427 29.316C20.1556 29.316 19.9063 29.2587 19.7816 29.087C19.4699 28.8008 19.4699 28.2855 19.7816 27.9993C20.779 27.0833 21.8388 26.1674 22.8985 25.3659C23.2725 25.0797 23.7712 25.1369 24.0829 25.4804C24.3946 25.8239 24.3323 26.2819 23.9583 26.5681C22.8985 27.3696 21.9011 28.171 20.966 29.087C20.7167 29.2015 20.5297 29.316 20.3427 29.316Z" fill="#222222"/>
<path d="M76.82 29.0288C76.633 29.0288 76.3836 28.9715 76.2589 28.7998C75.2615 27.9411 74.2641 27.1396 73.142 26.3954C72.768 26.1664 72.7057 25.6512 72.955 25.3077C73.2044 24.9642 73.7654 24.9069 74.1395 25.1359C75.2615 25.9374 76.3836 26.7389 77.381 27.6548C77.6927 27.9411 77.7551 28.399 77.4434 28.7425C77.2563 28.9143 77.007 29.0288 76.82 29.0288Z" fill="#222222"/>
<path d="M26.7625 24.5078C26.5131 24.5078 26.2014 24.3933 26.0767 24.1643C25.8274 23.8208 25.9521 23.3628 26.3261 23.1338C27.5105 22.4468 28.7573 21.7599 30.004 21.1874C30.4404 21.0156 30.9391 21.1301 31.1261 21.5309C31.3131 21.9316 31.1885 22.3896 30.7521 22.5613C29.5677 23.1338 28.3833 23.7063 27.1988 24.3933C27.0742 24.4505 26.8871 24.5078 26.7625 24.5078Z" fill="#222222"/>
<path d="M70.1502 24.4506C70.0255 24.4506 69.8385 24.3934 69.7139 24.3362C68.5294 23.7064 67.345 23.1339 66.0983 22.5615C65.6619 22.3897 65.4749 21.9317 65.7242 21.531C65.9112 21.1303 66.41 20.9585 66.8463 21.1875C68.0931 21.76 69.4022 22.3325 70.5866 23.0195C70.9606 23.2484 71.0853 23.7064 70.8983 24.0499C70.7113 24.2789 70.4619 24.4506 70.1502 24.4506Z" fill="#222222"/>
<path d="M62.6707 21.1858C62.6084 21.1858 62.4837 21.1858 62.4214 21.1286C61.1746 20.7278 59.8655 20.3843 58.4941 20.0981C58.0577 19.9836 57.746 19.5829 57.8707 19.1821C57.9954 18.7814 58.4318 18.4952 58.8681 18.6097C60.2396 18.8959 61.611 19.2966 62.9201 19.6974C63.3565 19.8119 63.6058 20.2699 63.4188 20.6706C63.3565 21.0141 62.9824 21.1858 62.6707 21.1858Z" fill="#222222"/>
<path d="M34.1821 21.1286C33.8704 21.1286 33.4963 20.9568 33.3717 20.6133C33.1846 20.2126 33.434 19.7546 33.8704 19.6401C35.1795 19.1821 36.5509 18.8387 37.9223 18.4952C38.3587 18.3807 38.7951 18.6669 38.9197 19.0676C39.0444 19.4684 38.7327 19.8691 38.2964 19.9836C36.9873 20.2698 35.6782 20.6133 34.4314 21.0713C34.3691 21.1286 34.2444 21.1286 34.1821 21.1286Z" fill="#222222"/>
<path d="M54.6286 19.4116C54.5663 19.4116 54.5663 19.4116 54.504 19.4116C53.1949 19.2399 51.8234 19.1254 50.452 19.0681C50.0156 19.0681 49.6416 18.6674 49.6416 18.2667C49.6416 17.8659 50.078 17.5225 50.5143 17.5225C51.9481 17.5797 53.3195 17.6942 54.691 17.9232C55.1273 17.9804 55.439 18.3812 55.3767 18.7819C55.3767 19.1254 55.0027 19.4116 54.6286 19.4116Z" fill="#222222"/>
<path d="M42.2226 19.3544C41.7863 19.3544 41.4746 19.0681 41.4122 18.6674C41.3499 18.2667 41.6616 17.8659 42.098 17.8087C43.4694 17.637 44.9032 17.5225 46.3369 17.5225C46.7733 17.5225 47.2097 17.8659 47.2097 18.2667C47.2097 18.6674 46.8356 19.0681 46.3993 19.0681C45.0278 19.1254 43.6564 19.1826 42.3473 19.3544C42.285 19.3544 42.2226 19.3544 42.2226 19.3544Z" fill="#222222"/>
<path d="M11.5536 48.6087C11.3666 48.6087 11.1795 48.5514 11.0549 48.4369L9.06006 47.063L9.1224 46.605C9.18473 45.9753 9.30941 45.3456 9.43409 44.7158C9.55876 44.3151 9.99513 44.0289 10.4315 44.1434C10.8679 44.2579 11.1795 44.6586 11.0549 45.0593C10.9302 45.5173 10.8679 45.918 10.8055 46.376L11.9899 47.2347C12.364 47.4637 12.4263 47.979 12.177 48.3224C12.0523 48.4942 11.8029 48.6087 11.5536 48.6087Z" fill="#222222"/>
<path d="M40.8521 68.9309C40.6651 68.9309 40.4781 68.8737 40.3534 68.7592L37.4235 66.7555C37.0495 66.5265 36.9872 66.0113 37.2365 65.6678C37.4859 65.3243 38.0469 65.267 38.4209 65.496L41.3508 67.4997C41.7249 67.7287 41.7872 68.2439 41.5378 68.5874C41.3508 68.8164 41.1015 68.9309 40.8521 68.9309Z" fill="#222222"/>
<path d="M34.993 64.8667C34.806 64.8667 34.619 64.8094 34.4943 64.695L31.5644 62.6913C31.1904 62.4623 31.128 61.9471 31.3774 61.6036C31.6267 61.2601 32.1878 61.2028 32.5618 61.4318L35.4917 63.4355C35.8657 63.6645 35.9281 64.1797 35.6787 64.5232C35.4917 64.7522 35.2423 64.8667 34.993 64.8667Z" fill="#222222"/>
<path d="M29.1329 60.8015C28.9459 60.8015 28.7589 60.7443 28.6342 60.6298L25.7043 58.6261C25.3303 58.3971 25.2679 57.8819 25.5173 57.5384C25.7666 57.1949 26.3277 57.1377 26.7017 57.3666L29.6316 59.3703C30.0056 59.5993 30.068 60.1145 29.8186 60.458C29.6316 60.687 29.3822 60.8015 29.1329 60.8015Z" fill="#222222"/>
<path d="M23.2738 56.7383C23.0867 56.7383 22.8997 56.681 22.7751 56.5665L19.8452 54.5629C19.4711 54.3339 19.4088 53.8186 19.6582 53.4752C19.9075 53.1317 20.4685 53.0744 20.8426 53.3034L23.7725 55.3071C24.1465 55.5361 24.2088 56.0513 23.9595 56.3948C23.7725 56.6238 23.5231 56.7383 23.2738 56.7383Z" fill="#222222"/>
<path d="M17.4136 52.6731C17.2266 52.6731 17.0396 52.6158 16.9149 52.5013L13.9851 50.4977C13.611 50.2687 13.5487 49.7535 13.798 49.41C14.0474 49.0665 14.6084 49.0092 14.9825 49.2382L17.9124 51.2419C18.2864 51.4709 18.3487 51.9861 18.0994 52.3296C17.9124 52.5586 17.663 52.6731 17.4136 52.6731Z" fill="#222222"/>
<path d="M19.5321 50.2681C19.345 50.2681 19.158 50.2108 19.0334 50.0963L16.1035 48.0926C15.7294 47.8637 15.6671 47.3484 15.9165 47.0049C16.1658 46.6615 16.7268 46.6042 17.1009 46.8332L20.0308 48.8369C20.4048 49.0659 20.4671 49.5811 20.2178 49.9246C20.0308 50.1536 19.7814 50.2681 19.5321 50.2681Z" fill="#222222"/>
<path d="M21.6524 47.8066C21.4654 47.8066 21.2784 47.7494 21.1537 47.6349L18.2238 45.6312C17.8498 45.4022 17.7875 44.887 18.0368 44.5435C18.2862 44.2 18.8472 44.1428 19.2212 44.3718L22.1511 46.3754C22.5251 46.6044 22.5875 47.1197 22.3381 47.4631C22.1511 47.6921 21.9018 47.8066 21.6524 47.8066Z" fill="#222222"/>
<path d="M13.2366 57.5381C13.0496 57.5381 12.8626 57.4808 12.7379 57.3663L9.80806 55.3627C9.43403 55.1337 9.3717 54.6184 9.62105 54.275C9.8704 53.9315 10.4314 53.8742 10.8055 54.1032L13.7353 56.1069C14.1094 56.3359 14.1717 56.8511 13.9224 57.1946C13.7353 57.4236 13.486 57.5381 13.2366 57.5381Z" fill="#222222"/>
<path d="M15.2945 55.1348C15.1075 55.1348 14.9205 55.0775 14.7958 54.963L11.8659 52.9593C11.4919 52.7304 11.4296 52.2151 11.6789 51.8716C11.9283 51.5282 12.4893 51.4709 12.8633 51.6999L15.7932 53.7036C16.1672 53.9326 16.2296 54.4478 15.9802 54.7913C15.7932 55.0203 15.5439 55.1348 15.2945 55.1348Z" fill="#222222"/>
<path d="M45.4031 72.0801C45.2161 72.0801 45.0291 72.0229 44.9044 71.9084L43.2836 70.8207C42.9096 70.5917 42.8473 70.0765 43.0966 69.733C43.346 69.3895 43.907 69.3322 44.281 69.5612L45.9018 70.6489C46.2759 70.8779 46.3382 71.3931 46.0889 71.7366C45.9018 71.9656 45.6525 72.0801 45.4031 72.0801Z" fill="#222222"/>
<path d="M11.8652 80.7246C12.1146 80.7246 12.4263 80.8391 12.551 81.0681C12.551 81.0681 12.925 81.5833 13.7354 82.442C14.0471 82.7855 13.9847 83.2435 13.6107 83.5297C13.2367 83.816 12.738 83.7587 12.4263 83.4153C11.6159 82.4993 11.1795 81.9268 11.1795 81.8696C10.9302 81.5261 11.0549 81.0681 11.4289 80.8391C11.5536 80.7246 11.7406 80.7246 11.8652 80.7246Z" fill="#222222"/>
<path d="M81.3097 71.8506C81.4344 71.8506 81.4967 71.8506 81.6214 71.9078C82.0577 72.0796 82.2447 72.4803 82.1201 72.881C81.6214 74.0832 81.0603 75.2854 80.437 76.4877C80.2499 76.8884 79.7512 77.0029 79.3149 76.8311C78.8785 76.6594 78.7538 76.2014 78.9408 75.8007C79.5642 74.6557 80.1253 73.5108 80.5616 72.3658C80.6863 72.0796 80.998 71.8506 81.3097 71.8506Z" fill="#222222"/>
<path d="M77.6319 78.6624C77.7566 78.6624 77.9436 78.7196 78.0683 78.7768C78.4423 79.0058 78.567 79.4638 78.3176 79.8073C77.5696 80.895 76.6968 81.9827 75.8241 82.9559C75.5124 83.2994 75.0137 83.3567 74.6397 83.0704C74.2656 82.7842 74.2033 82.3262 74.515 81.9827C75.3877 81.0095 76.1358 79.9791 76.8838 78.9486C77.0709 78.7768 77.3202 78.6624 77.6319 78.6624Z" fill="#222222"/>
<path d="M72.4584 84.6167C72.6454 84.6167 72.8948 84.674 73.0194 84.8457C73.3311 85.1319 73.3311 85.6472 73.0194 85.9334C72.022 86.8494 70.9623 87.7653 69.9025 88.5668C69.5285 88.853 69.0298 88.7958 68.7181 88.4523C68.4064 88.1088 68.4688 87.6508 68.8428 87.3646C69.9025 86.5631 70.9 85.7617 71.835 84.8457C72.022 84.674 72.209 84.6167 72.4584 84.6167Z" fill="#222222"/>
<path d="M15.9797 84.9041C16.1667 84.9041 16.416 84.9613 16.5407 85.133C17.5381 85.9918 18.5355 86.7932 19.6576 87.5375C20.0316 87.7664 20.094 88.2817 19.8446 88.6252C19.5953 88.9686 19.0342 89.0259 18.6602 88.7969C17.5381 87.9954 16.416 87.194 15.4186 86.278C15.1069 85.9918 15.0446 85.5338 15.3563 85.1903C15.5433 84.9613 15.7303 84.9041 15.9797 84.9041Z" fill="#222222"/>
<path d="M66.0372 89.425C66.2865 89.425 66.5982 89.5395 66.7229 89.7685C66.9722 90.112 66.8476 90.57 66.4735 90.799C65.2891 91.486 64.0424 92.1729 62.7956 92.7454C62.3592 92.9172 61.8605 92.8027 61.6735 92.4019C61.4865 92.0012 61.6112 91.5432 62.0475 91.3715C63.232 90.799 64.4164 90.2265 65.6008 89.5395C65.7255 89.4823 65.8502 89.425 66.0372 89.425Z" fill="#222222"/>
<path d="M22.5881 89.4834C22.7128 89.4834 22.8998 89.5406 23.0245 89.5979C24.2089 90.2276 25.3933 90.8001 26.6401 91.3726C27.0765 91.5443 27.2635 92.0023 27.0141 92.403C26.8271 92.8038 26.3284 92.9755 25.892 92.7465C24.6453 92.174 23.3362 91.6016 22.1518 90.9146C21.7777 90.6856 21.6531 90.2276 21.8401 89.8841C22.0271 89.5979 22.2764 89.4834 22.5881 89.4834Z" fill="#222222"/>
<path d="M30.0675 92.688C30.1298 92.688 30.2545 92.688 30.3168 92.7452C31.5636 93.146 32.8727 93.4895 34.2441 93.7757C34.6805 93.8902 34.9922 94.2909 34.8675 94.6917C34.7428 95.0924 34.3064 95.3786 33.8701 95.2641C32.4986 94.9779 31.1272 94.5772 29.8181 94.1764C29.3818 94.0619 29.1324 93.6039 29.3194 93.2032C29.4441 92.917 29.7558 92.688 30.0675 92.688Z" fill="#222222"/>
<path d="M58.6182 92.803C58.9299 92.803 59.3039 92.9747 59.4286 93.3182C59.6156 93.7189 59.3662 94.1769 58.9299 94.2914C57.6208 94.7494 56.2493 95.0929 54.8779 95.4364C54.4415 95.5509 54.0052 95.2646 53.8805 94.8639C53.7558 94.4632 54.0675 94.0624 54.5039 93.9479C55.813 93.6617 57.1221 93.3182 58.3688 92.8602C58.4312 92.803 58.4935 92.803 58.6182 92.803Z" fill="#222222"/>
<path d="M38.1098 94.4644C38.1721 94.4644 38.1721 94.4644 38.2344 94.4644C39.5435 94.6361 40.915 94.7506 42.2864 94.8078C42.7228 94.8078 43.0968 95.2086 43.0968 95.6093C43.0968 96.01 42.6604 96.3535 42.2241 96.3535C40.7903 96.2963 39.4189 96.1818 38.0474 95.9528C37.6111 95.8956 37.2994 95.4948 37.3617 95.0941C37.3617 94.7506 37.7357 94.4644 38.1098 94.4644Z" fill="#222222"/>
<path d="M50.5151 94.5791C50.9515 94.5791 51.2632 94.8653 51.3255 95.2661C51.3878 95.6668 51.0762 96.0675 50.6398 96.1248C49.2684 96.2965 47.8346 96.411 46.4008 96.411C45.9644 96.411 45.5281 96.0675 45.5281 95.6668C45.5281 95.2661 45.9021 94.8653 46.3385 94.8653C47.7099 94.8081 49.0813 94.7508 50.3904 94.5791C50.4528 94.5791 50.5151 94.5791 50.5151 94.5791Z" fill="#222222"/>
<path d="M81.1844 65.2661C81.3714 65.2661 81.5584 65.3234 81.6831 65.4379L83.6779 66.8118L83.6156 67.2698C83.5532 67.8995 83.4285 68.5292 83.3039 69.159C83.1792 69.5597 82.7428 69.8459 82.3065 69.7314C81.8701 69.6169 81.5584 69.2162 81.6831 68.8155C81.8077 68.3575 81.8701 67.9568 81.9324 67.4988L80.748 66.6401C80.374 66.4111 80.3116 65.8958 80.561 65.5524C80.6857 65.3806 80.935 65.2661 81.1844 65.2661Z" fill="#222222"/>
<path d="M51.8859 45.0015C52.0729 45.0015 52.2599 45.0587 52.3846 45.1732L55.3144 47.1769C55.6885 47.4059 55.7508 47.9211 55.5015 48.2646C55.2521 48.6081 54.6911 48.6653 54.317 48.4363L51.3872 46.4327C51.0131 46.2037 50.9508 45.6884 51.2001 45.345C51.3872 45.0587 51.6365 45.0015 51.8859 45.0015Z" fill="#222222"/>
<path d="M57.746 49.0667C57.933 49.0667 58.12 49.1239 58.2447 49.2384L61.1746 51.2421C61.5486 51.4711 61.6109 51.9863 61.3616 52.3298C61.1122 52.6733 60.5512 52.7305 60.1772 52.5015L57.2473 50.4406C56.8732 50.2116 56.8109 49.6964 57.0603 49.3529C57.2473 49.1239 57.4966 49.0667 57.746 49.0667Z" fill="#222222"/>
<path d="M63.6053 53.1318C63.7924 53.1318 63.9794 53.1891 64.1041 53.3036L67.0339 55.3073C67.408 55.5362 67.4703 56.0515 67.2209 56.395C66.9716 56.7384 66.4106 56.7957 66.0365 56.5667L63.1066 54.563C62.7326 54.334 62.6703 53.8188 62.9196 53.4753C63.1066 53.1891 63.356 53.1318 63.6053 53.1318Z" fill="#222222"/>
<path d="M69.4655 57.1382C69.6525 57.1382 69.8395 57.1954 69.9642 57.3099L72.894 59.3136C73.2681 59.5426 73.3304 60.0578 73.0811 60.4013C72.8317 60.7448 72.2707 60.802 71.8966 60.573L68.9668 58.5694C68.5927 58.3404 68.5304 57.8252 68.7797 57.4817C68.9668 57.2527 69.2161 57.1382 69.4655 57.1382Z" fill="#222222"/>
<path d="M75.3236 61.2034C75.5106 61.2034 75.6976 61.2606 75.8223 61.3751L78.7522 63.3788C79.1262 63.6078 79.1886 64.123 78.9392 64.4665C78.6899 64.81 78.1288 64.8672 77.7548 64.6382L74.8249 62.6346C74.4509 62.4056 74.3885 61.8903 74.6379 61.5469C74.8249 61.3179 75.0743 61.2034 75.3236 61.2034Z" fill="#222222"/>
<path d="M73.2679 63.6648C73.455 63.6648 73.642 63.722 73.7666 63.8365L76.6965 65.8402C77.0706 66.0692 77.1329 66.5844 76.8835 66.9279C76.6342 67.2714 76.0732 67.3286 75.6991 67.0997L72.7692 65.096C72.3952 64.867 72.3329 64.3518 72.5822 64.0083C72.7692 63.7793 73.0186 63.6648 73.2679 63.6648Z" fill="#222222"/>
<path d="M71.0873 66.1265C71.2743 66.1265 71.4613 66.1837 71.586 66.2982L74.5159 68.3019C74.8899 68.5309 74.9522 69.0461 74.7029 69.3896C74.4535 69.7331 73.8925 69.7903 73.5185 69.5613L70.5886 67.5577C70.2146 67.3287 70.1522 66.8134 70.4016 66.47C70.5886 66.1837 70.8379 66.1265 71.0873 66.1265Z" fill="#222222"/>
<path d="M79.5643 56.3364C79.7513 56.3364 79.9384 56.3937 80.063 56.5082L82.9929 58.5118C83.3669 58.7408 83.4293 59.2561 83.1799 59.5995C82.9306 59.943 82.3695 60.0003 81.9955 59.7713L79.0656 57.7676C78.6916 57.5386 78.6293 57.0234 78.8786 56.6799C79.0656 56.4509 79.315 56.3364 79.5643 56.3364Z" fill="#222222"/>
<path d="M77.5074 58.7419C77.6945 58.7419 77.8815 58.7992 78.0062 58.9137L80.936 60.9174C81.3101 61.1463 81.3724 61.6616 81.123 62.0051C80.8737 62.3485 80.3127 62.4058 79.9386 62.1768L77.0087 60.1731C76.6347 59.9441 76.5724 59.4289 76.8217 59.0854C77.0087 58.8564 77.2581 58.7419 77.5074 58.7419Z" fill="#222222"/>
<path d="M47.3341 41.8533C47.5211 41.8533 47.7081 41.9105 47.8328 42.025L49.4536 43.1127C49.8276 43.3417 49.89 43.8569 49.6406 44.2004C49.3913 44.5439 48.8302 44.6012 48.4562 44.3722L46.8354 43.2845C46.4614 43.0555 46.399 42.5402 46.6484 42.1968C46.8354 41.9678 47.0848 41.8533 47.3341 41.8533Z" fill="#222222"/>
<path d="M110.161 11.3393C108.507 16.7598 105.359 21.8357 102.444 26.7381C101.121 28.9627 99.774 31.1761 98.4195 33.3854C93.6867 27.8633 89.6599 21.7993 86.6076 15.3332C85.7902 13.6016 84.9967 11.6621 85.6331 9.76991C85.6827 9.62308 85.8872 9.3371 86.023 9.11059C86.2772 9.11666 86.6041 9.10492 86.7625 9.14699C87.8288 9.42973 88.7128 10.1157 89.3678 10.9271C90.5708 12.4164 91.0718 14.322 91.6663 16.0677C92.408 18.2455 93.1496 20.4236 93.8913 22.6014C94.1503 23.3614 97.3071 21.3127 97.5086 20.8213C99.6325 15.6414 102.418 10.7322 105.866 6.20679C106.629 5.20609 107.42 4.22239 108.245 3.26456C108.605 2.84673 108.983 2.18176 109.517 2.16639C110.145 2.14819 110.558 2.8795 110.732 3.32969C111.656 5.71049 110.874 9.00502 110.161 11.3393ZM112.667 0.0416222C110.747 -0.267807 108.416 1.2118 107.034 2.28126C105.219 3.68684 103.823 5.64294 102.468 7.42105C100.117 10.5057 98.0696 13.7792 96.316 17.1853C95.8472 15.804 95.3776 14.4231 94.9019 13.0434C94.2047 11.0185 93.4373 8.8319 91.4061 7.62249C87.8624 5.51269 82.3701 8.48 81.816 12.1831C81.4739 14.4712 82.6965 16.7008 83.7058 18.707C84.8244 20.9301 86.0487 23.1054 87.3753 25.2273C89.9602 29.3632 92.9372 33.2697 96.2372 36.9376C95.1304 38.7327 94.0227 40.5278 92.9203 42.3245C92.4903 43.0251 93.6045 42.7116 93.9518 42.5967C94.7039 42.3476 95.8969 41.7967 96.3182 41.1102C97.1869 39.6945 98.0583 38.2805 98.9296 36.8664C99.7797 36.3559 100.49 35.7201 100.291 35.502C100.187 35.3884 100.085 35.2723 99.9811 35.1574C101.75 32.2848 103.514 29.4089 105.248 26.5184C107.968 21.9837 110.742 17.3706 112.764 12.5208C113.766 10.1186 114.534 7.59742 114.653 5.00992C114.727 3.38874 114.933 0.406471 112.667 0.0416222Z" fill="#EF6238"/>
</svg>
