<svg width="70" height="99" viewBox="0 0 70 99" fill="none" xmlns="http://www.w3.org/2000/svg">
<g clip-path="url(#clip0_138_3018)">
<path d="M34.9134 78.2717V78.3586C30.0134 78.3586 26.0759 86.6502 26.0759 96.852C26.0759 107.054 34.9134 115.345 34.9134 115.345V115.259C34.9134 115.259 43.7509 106.967 43.7509 96.7652C43.7509 86.5634 39.8134 78.2717 34.9134 78.2717Z" fill="#FBFBFB"/>
<path d="M35.4812 60.3854L6.65 85.8247L0 60.4722L16.1437 46.4502L30.8437 42.6733L35.4812 60.3854Z" fill="#EF6238"/>
<path d="M34.5186 60.9505L63.3498 86.3899L69.9998 61.0374L53.8561 47.0588L39.1998 43.2385L34.5186 60.9505Z" fill="#EF6238"/>
<path d="M34.9552 0.260471V78.0544H17.9364C14.1739 69.7628 11.8989 58.6928 11.8989 46.494C11.8989 35.1202 16.3614 24.7013 21.3489 16.6267C27.6052 6.46836 34.6927 0 34.6927 0C34.6927 0 34.7802 0.0868236 34.9552 0.260471Z" fill="#222222"/>
<path d="M58.0568 46.494C58.0568 58.6494 55.7818 69.7628 52.0193 78.0544H34.9568V0.260471C35.1755 0.0868236 35.263 0 35.263 0C35.263 0 42.3505 6.46836 48.6068 16.6701C53.5943 24.7447 58.0568 35.1202 58.0568 46.494Z" fill="#222222"/>
<path d="M51.9315 78.1853C51.2752 80.3559 50.4877 82.3963 49.6127 84.263H20.2565C19.3815 82.3963 18.594 80.3559 17.9377 78.1853H51.9315Z" fill="#FBFBFB"/>
<path d="M34.9547 0.260471V21.0981C29.7047 21.0981 24.9359 19.4051 21.3047 16.6267C27.6047 6.46836 34.6922 0 34.6922 0C34.6922 0 34.7797 0.0868236 34.9547 0.260471Z" fill="#EF6238"/>
<path d="M34.9985 0.260471V21.0981C40.2485 21.0981 45.0173 19.4051 48.6485 16.6267C42.3923 6.46836 35.3048 0 35.3048 0C35.3048 0 35.1735 0.0868236 34.9985 0.260471Z" fill="#EF6238"/>
<path d="M35.0002 25.8301V46.1902C29.3127 46.1902 24.719 41.632 24.719 35.9884C24.7627 30.3883 29.3565 25.8301 35.0002 25.8301Z" fill="#EF6238"/>
<path d="M35.0012 25.8301V46.1902C40.6887 46.1902 45.2825 41.632 45.2825 35.9884C45.2825 30.3883 40.6887 25.8301 35.0012 25.8301Z" fill="#EF6238"/>
<path d="M38.3546 43.9589C42.7651 42.1203 44.8385 37.082 42.9856 32.7056C41.1327 28.3291 36.0552 26.2718 31.6447 28.1104C27.2341 29.949 25.1608 34.9873 27.0137 39.3637C28.8666 43.7401 33.9441 45.7974 38.3546 43.9589Z" fill="#FBFBFB"/>
<path d="M35.0437 52.9189L34.9562 103.19C34.9562 103.19 26.5562 83.915 28.2624 68.8511C29.4437 58.8664 35.0437 52.9189 35.0437 52.9189Z" fill="#EF6238"/>
<path d="M34.9988 52.9189L35.0863 103.19C35.0863 103.19 43.4863 83.915 41.78 68.8511C40.5988 58.8664 34.9988 52.9189 34.9988 52.9189Z" fill="#EF6238"/>
</g>
<defs>
<clipPath id="clip0_138_3018">
<rect width="70" height="99" fill="white"/>
</clipPath>
</defs>
</svg>
