<svg width="1440" height="1115" viewBox="0 0 1440 1115" fill="none" xmlns="http://www.w3.org/2000/svg">
<path d="M1516.57 615.688L1511.17 474.265L1506.22 608.482L1504.87 607.581V900.337H1062.52V1000.32H864.515V769.723H676.863V704.866H656.613V516.151H630.513V433.279H435.661V516.151H410.011V704.866H389.761V957.537H201.659V652.17L1.85754 739.547V914.75H-33.6928V815.663L-85.8932 781.884V659.827H-197.944V957.988H-335.195V895.833H-350.496V846.29H-423.846V895.833H-439.146V1000.78H-509.797V1104.37H-439.146H-415.746H-335.645H-198.394H-152.044H-136.744H-86.3432H0.95755H37.4079H149.459H200.759H388.861H484.712H606.663H675.513H863.165H1615.57V647.216L1516.57 615.688ZM461.312 703.065H441.061V682.797H461.312V703.065ZM461.312 662.98H441.061V642.712H461.312V662.98ZM-169.144 839.534H-179.494V675.591H-169.144V839.534ZM-138.544 839.534H-148.894V675.591H-138.544V839.534ZM-108.393 839.534H-118.743V675.591H-108.393V839.534ZM495.062 662.98H474.812V642.712H495.062V662.98ZM528.812 662.98H508.562V642.712H528.812V662.98ZM562.562 777.83H542.312V757.562H562.562V777.83ZM562.562 703.065H542.312V682.797H562.562V703.065ZM562.562 662.98H542.312V642.712H562.562V662.98ZM596.313 703.065H576.062V682.797H596.313V703.065ZM185.459 821.969H165.209V801.701H185.459V821.969ZM136.859 821.969H116.608V801.701H136.859V821.969ZM185.459 780.533H165.209V760.265H185.459V780.533ZM136.859 780.533H116.608V760.265H136.859V780.533ZM88.7083 821.969H68.4581V801.701H88.7083V821.969ZM88.7083 751.707H68.4581V731.44H88.7083V751.707ZM-167.344 893.131H-180.844V879.169H-167.344V893.131ZM-167.344 946.728H-180.844V933.216H-167.344V946.728ZM-346.446 926.46H-359.946V912.498H-346.446V926.46ZM-346.446 1010.23H-359.946V996.722H-346.446V1010.23ZM-346.446 984.561H-359.946V971.049H-346.446V984.561ZM-377.046 926.46H-390.546V912.498H-377.046V926.46ZM-377.046 1031.85H-390.546V1018.34H-377.046V1031.85ZM721.864 818.816H708.364V804.854H721.864V818.816ZM757.414 818.816H743.914V804.854H757.414V818.816ZM792.964 818.816H779.464V804.854H792.964V818.816ZM1533.67 724.233H1520.17V686.4H1533.67V724.233ZM1533.67 776.479H1520.17V738.646H1533.67V776.479ZM757.414 867.008H743.914V853.046H757.414V867.008ZM792.964 867.008H779.464V853.046H792.964V867.008ZM721.864 915.651H708.364V901.688H721.864V915.651ZM757.414 915.651H743.914V901.688H757.414V915.651ZM721.864 964.293H708.364V950.331H721.864V964.293ZM-377.046 1065.63H-390.546V1051.67H-377.046V1065.63ZM-407.646 926.46H-421.146V912.498H-407.646V926.46ZM-167.344 1038.61H-180.844V1025.1H-167.344V1038.61ZM-362.196 893.131H-368.946V860.252H-362.196V893.131ZM-377.496 893.131H-384.246V860.252H-377.496V893.131ZM-392.796 893.131H-399.996V860.252H-393.246V893.131H-392.796ZM-408.096 893.131H-414.846V860.252H-408.096V893.131ZM-106.593 974.202H-120.094V960.69H-106.593V974.202ZM-66.543 946.728H-80.0432V933.216H-66.543V946.728ZM-66.543 974.202H-80.0432V960.69H-66.543V974.202ZM-66.543 1000.78H-80.0432V987.263H-66.543V1000.78ZM630.063 703.065H609.813V682.797H630.063V703.065ZM630.063 662.98H609.813V642.712H630.063V662.98Z" fill="#D0D0D0"/>
<path d="M1487.32 702.164V801.701H1435.57V1009.78H1365.37V822.419H1346.92V749.906H1256.92V822.419H1238.47V1009.78H1100.32V1104.37H1591.27V702.164H1487.32Z" fill="#EDEDED"/>
<path d="M547.263 1045.81H487.413V838.183H351.511V1000.78H320.461V765.219H308.761V703.966H261.06L256.11 538.221L251.161 703.966H203.46V765.219H191.76V1081.85H36.5086V873.314L-72.3924 844.038V926.46H-137.643V819.267H-260.494V955.736H-276.694V878.719H-375.245V1039.06H-501.246V1104.37H763.265V879.619H546.363V1045.81H547.263ZM-219.994 924.659H-234.394V910.246H-219.994V924.659ZM-219.994 878.268H-234.394V863.856H-219.994V878.268ZM-219.994 850.794H-234.394V836.382H-219.994V850.794ZM-177.693 878.268H-192.093V863.856H-177.693V878.268ZM-177.693 850.794H-192.093V836.382H-177.693V850.794ZM-152.493 905.742H-166.893V891.33H-152.493V905.742ZM-152.493 878.268H-166.893V863.856H-152.493V878.268ZM230.91 742.249H216.51V727.837H230.91V742.249ZM255.211 802.602H240.81V788.189H255.211V802.602ZM279.511 824.671H265.111V810.259H279.511V824.671ZM279.511 771.074H265.111V756.662H279.511V771.074ZM279.511 742.249H265.111V727.837H279.511V742.249ZM303.811 742.249H289.411V727.837H303.811V742.249Z" fill="#EDEDED"/>
<path d="M1487.77 1023.75V871.512H1472.02V502.64H1452.22V374.728H1438.27V352.208H1445.47V286.451H1434.67V223.846H1425.67V181.509H1418.02V145.027H1410.82V129.713H1397.77V105.392H1387.42L1385.17 0L1382.92 105.392H1372.57V129.713H1359.52V145.027H1352.32V181.509H1345.12V223.846H1336.12V286.451H1325.32V352.208H1332.52V374.277H1318.57V502.189H1298.77V871.062H1283.02V1023.29H1272.67V1104.37H1498.12V1023.75H1487.77ZM1332.07 657.575H1320.37V637.758H1332.07V657.575ZM1332.07 620.643H1320.37V600.826H1332.07V620.643ZM1332.07 584.161H1320.37V564.344H1332.07V584.161ZM1332.07 547.229H1320.37V527.411H1332.07V547.229ZM1421.17 262.58V287.802H1413.07V262.58H1421.17ZM1421.17 350.406V375.629H1413.07V350.406H1421.17ZM1417.12 234.655V246.365H1405.42V234.655H1417.12ZM1412.17 322.032V333.742H1400.47V322.032H1412.17ZM1402.27 199.074H1410.37V224.296H1402.27V199.074ZM1389.67 135.118H1401.37V146.828H1389.67V135.118ZM1389.67 154.935H1401.37V166.646H1389.67V154.935ZM1391.47 262.58H1399.57V287.802H1391.47V262.58ZM1384.72 246.365V234.655H1396.42V246.365H1384.72ZM1391.47 350.406H1399.57V375.629H1391.47V350.406ZM1380.67 199.074H1388.77V224.296H1380.67V199.074ZM1378.87 297.71H1390.57V309.421H1378.87V297.71ZM1378.87 322.032H1390.57V333.742H1378.87V322.032ZM1378.42 350.406V375.629H1370.32V350.406H1378.42ZM1377.97 288.252H1369.87V263.03H1377.97V288.252ZM1364.47 154.935H1376.17V166.646H1364.47V154.935ZM1359.52 199.074H1367.62V224.296H1359.52V199.074ZM1357.27 297.71H1368.97V309.421H1357.27V297.71ZM1344.22 475.166H1332.52V463.455H1344.22V475.166ZM1344.22 451.295H1332.52V439.584H1344.22V451.295ZM1344.22 427.424H1332.52V415.714H1344.22V427.424ZM1344.22 403.103H1332.52V391.392H1344.22V403.103ZM1347.82 333.742H1336.12V322.032H1347.82V333.742ZM1347.82 308.97H1336.12V297.26H1347.82V308.97ZM1348.27 262.58H1356.37V287.802H1348.27V262.58ZM1348.72 350.406H1356.82V375.629H1348.72V350.406ZM1361.77 620.643H1350.52V600.826H1362.22V620.643H1361.77ZM1361.77 547.229H1350.52V527.411H1362.22V547.229H1361.77ZM1391.92 547.229H1380.22V527.411H1391.92V547.229ZM1404.07 502.189H1365.37V427.424C1365.37 416.614 1373.92 408.057 1384.72 408.057C1395.52 408.057 1404.07 416.614 1404.07 427.424V502.189ZM1421.62 657.575H1409.92V637.758H1421.62V657.575ZM1421.62 547.229H1409.92V527.411H1421.62V547.229ZM1421.62 297.71H1433.32V309.421H1421.62V297.71ZM1437.37 475.166H1425.67V463.455H1437.37V475.166ZM1437.37 427.424H1425.67V415.714H1437.37V427.424ZM1437.37 403.103H1425.67V391.392H1437.37V403.103ZM1451.77 767.922H1440.07V748.555H1451.77V767.922ZM1451.77 694.507H1440.07V674.69H1451.77V694.507ZM1451.77 620.643H1440.07V600.826H1451.77V620.643ZM1451.77 547.229H1440.07V527.411H1451.77V547.229Z" fill="#EDEDED"/>
<path d="M2682.98 1066.98H2426.48V801.701H2408.48V836.381C2395.88 850.794 2370.68 876.917 2329.73 905.291V801.701H2311.73V831.427C2299.13 846.74 2263.58 885.925 2198.78 924.658C2194.28 927.361 2189.33 930.514 2183.93 933.216H2180.78V935.017C2110.58 973.751 1999.88 1015.19 1842.37 1023.29C1663.72 1011.58 1542.67 929.162 1470.67 858.901C1413.97 803.502 1378.87 748.104 1361.77 717.477V657.125H1335.22V698.561H1258.72V657.125H1232.17V710.271C1216.87 739.096 1180.87 799.449 1119.22 858.901C1047.22 928.712 926.166 1011.13 747.515 1023.29C590.013 1015.19 479.762 973.751 409.112 935.017V933.216H405.962C401.012 930.514 396.062 927.361 391.111 924.658C325.861 885.925 290.311 846.74 278.161 831.427V801.701H260.16V827.824H181.41V801.701H163.41V826.472L161.609 824.671C161.159 825.121 126.059 875.115 43.2585 924.658C38.7584 927.361 33.8083 930.514 28.4083 933.216H25.2583V935.017C-44.9423 973.751 -155.643 1015.19 -313.145 1023.29C-491.796 1011.58 -612.847 929.162 -684.848 858.901C-768.999 776.929 -805.899 693.606 -806.349 693.156L-813.099 697.21C-813.099 697.66 -802.749 721.08 -780.699 754.86V863.855C-782.499 862.054 -784.299 860.702 -786.099 858.901C-870.249 776.929 -907.15 693.606 -907.6 693.156L-914.35 697.21C-914.35 697.66 -904 721.08 -881.95 754.86V1066.98H-931V1077.79H163.859V1115.17H181.86V1077.34H260.61V1114.72H278.61V1077.34H1232.17V1114.72H1258.72V1077.34H1335.22V1114.72H1361.77V1077.34H2311.73V1114.72H2329.73V1077.34H2408.48V1114.72H2426.48V1077.34H2682.98V1066.98ZM2386.43 871.062V1066.53H2359.43V894.032C2369.33 885.924 2378.78 878.268 2386.43 871.062ZM2311.73 844.038V917.002C2307.68 919.704 2303.63 921.956 2299.58 924.658C2297.33 926.01 2295.53 927.361 2293.28 928.262V863.855C2300.93 856.199 2307.23 849.443 2311.73 844.038ZM1409.92 1066.98H1386.52V885.925C1393.72 892.23 1401.82 898.986 1409.92 905.742V1066.98ZM1445.02 1066.98H1421.62V914.299C1429.27 920.154 1436.92 925.559 1445.02 930.964V1066.98ZM1479.67 1066.98H1456.27V939.071C1463.92 944.025 1471.57 948.98 1479.67 953.484V1066.98ZM1514.77 1066.98H1491.37V959.789C1499.02 963.843 1506.67 967.896 1514.77 971.95V1066.98ZM1549.42 1066.98H1526.02V977.805C1533.67 981.408 1541.32 985.011 1549.42 988.164V1066.98ZM1584.52 1066.98H1561.12V992.668C1568.77 995.821 1576.42 998.523 1584.52 1001.23V1066.98ZM1619.17 1066.98H1595.77V1005.28C1603.42 1007.53 1611.07 1009.78 1619.17 1012.03V1066.98ZM1654.27 1066.98H1630.87V1015.19C1638.52 1016.99 1646.17 1018.79 1654.27 1020.59V1066.98ZM1688.92 1066.98H1665.52V1022.84C1673.17 1024.2 1681.27 1025.55 1688.92 1026.9V1066.98ZM1724.02 1066.98H1700.62V1028.25C1708.27 1029.15 1716.37 1030.05 1724.02 1030.95V1066.98ZM1758.67 1066.98H1735.27V1031.85C1742.92 1032.3 1751.02 1032.75 1758.67 1033.2V1066.98ZM1793.77 1033.65V1066.98H1770.37V1033.65C1775.32 1033.65 1780.72 1033.65 1785.67 1033.65C1788.37 1033.65 1791.07 1033.65 1793.77 1033.65ZM1805.02 1033.65C1813.12 1033.65 1820.77 1033.2 1828.42 1032.75V1066.98H1805.02V1033.65ZM1839.67 1032.3C1840.57 1032.3 1841.47 1032.3 1842.37 1032.3C1849.12 1032.75 1855.87 1033.2 1863.07 1033.2V1066.98H1839.67V1032.3ZM1874.77 1033.65C1878.82 1033.65 1882.42 1033.65 1886.47 1033.65C1890.52 1033.65 1894.12 1033.65 1898.17 1033.65V1066.98H1874.77V1033.65ZM1909.42 1033.2C1917.52 1033.2 1925.18 1032.75 1932.82 1032.3V1066.53H1909.42V1033.2ZM1944.52 1032.3C1952.62 1031.85 1960.28 1031.4 1967.93 1030.95V1066.98H1944.52V1032.3ZM1979.18 1029.6C1987.28 1028.7 1994.93 1028.25 2002.58 1027.35V1066.98H1979.18V1029.6ZM2014.28 1026C2022.38 1025.1 2030.03 1023.74 2037.68 1022.84V1066.98H2014.28V1026ZM2048.93 1021.04C2057.03 1019.69 2064.68 1018.34 2072.33 1016.99V1066.98H2048.93V1021.04ZM2084.03 1014.74C2092.13 1012.94 2099.78 1011.58 2107.43 1009.78V1066.98H2084.03V1014.74ZM2118.68 1006.63C2126.78 1004.83 2134.43 1002.58 2142.08 1000.32V1066.53H2118.68V1006.63ZM2153.78 997.172C2161.88 994.92 2169.53 992.217 2177.18 989.966V1066.98H2153.78V997.172ZM2188.43 985.912C2196.53 983.21 2204.18 980.057 2211.83 977.354V1066.98H2188.43V985.912ZM2223.53 972.4C2231.63 969.247 2239.73 965.644 2246.93 962.041V1066.53H2223.53V972.4ZM2258.18 956.636C2266.28 952.583 2274.38 948.529 2281.58 944.476V1066.53H2258.18V956.636ZM2285.63 871.062V932.765C2285.18 932.765 2285.18 933.216 2284.73 933.216H2281.58V935.017C2274.38 939.071 2266.28 943.125 2258.18 947.178V894.482C2268.53 885.924 2277.53 878.268 2285.63 871.062ZM2250.53 900.337V950.781C2241.98 954.835 2232.98 958.888 2223.53 962.942V919.254C2233.43 912.948 2242.43 906.192 2250.53 900.337ZM2202.83 932.315C2207.33 929.613 2211.83 926.91 2215.88 924.208V966.095C2207.33 969.698 2198.33 973.301 2188.88 976.454V940.422C2193.38 937.72 2198.33 935.017 2202.83 932.315ZM2180.78 944.926V979.156C2172.23 982.309 2162.78 985.011 2153.78 987.714V958.438C2163.23 953.934 2172.23 949.43 2180.78 944.926ZM2146.13 962.041V989.966C2137.13 992.668 2128.13 994.92 2119.13 997.172V973.751C2128.13 970.148 2137.58 966.095 2146.13 962.041ZM2111.03 976.904V999.424C2102.03 1001.68 2093.03 1003.48 2084.03 1005.28V987.263C2093.48 983.66 2102.48 980.507 2111.03 976.904ZM2076.38 989.515V1006.63C2067.38 1008.43 2058.38 1009.78 2049.38 1011.58V998.073C2058.38 995.37 2067.38 992.668 2076.38 989.515ZM2041.28 1000.32V1012.94C2032.28 1014.29 2023.28 1015.64 2014.28 1016.54V1007.08C2023.73 1005.28 2032.73 1003.03 2041.28 1000.32ZM2006.63 1009.33V1017.89C1997.63 1018.79 1988.63 1019.69 1979.63 1020.59V1015.19C1988.63 1013.39 1997.63 1011.58 2006.63 1009.33ZM1971.53 1016.99V1021.49C1962.53 1022.39 1953.53 1022.84 1944.52 1023.29V1021.94C1953.53 1020.14 1962.98 1018.79 1971.53 1016.99ZM1936.87 1023.29C1934.62 1023.29 1932.37 1023.29 1930.12 1023.75C1932.37 1023.29 1934.62 1023.29 1936.87 1022.84V1023.29ZM1777.57 1024.65C1773.97 1024.65 1770.37 1024.65 1766.77 1024.65V1022.84C1769.92 1023.29 1773.52 1023.74 1777.57 1024.65ZM1758.67 1021.04V1024.2C1749.67 1023.75 1740.22 1023.29 1731.67 1022.39V1014.74C1740.22 1016.99 1749.67 1019.24 1758.67 1021.04ZM1724.02 1012.94V1021.94C1715.02 1021.04 1705.57 1020.14 1697.02 1018.79V1005.28C1705.57 1007.53 1714.57 1010.23 1724.02 1012.94ZM1688.92 1002.58V1017.44C1679.92 1016.09 1670.47 1014.29 1661.92 1012.94V992.668C1670.47 995.821 1679.92 999.424 1688.92 1002.58ZM1654.27 989.515V1011.13C1644.82 1009.33 1635.82 1007.08 1627.27 1004.83V977.805C1635.82 981.858 1644.82 985.462 1654.27 989.515ZM1619.17 973.751V1002.58C1609.72 999.874 1600.72 997.172 1592.17 994.469V959.789C1600.72 964.743 1609.72 969.247 1619.17 973.751ZM1584.52 955.285V991.767C1575.07 988.614 1566.07 985.011 1557.52 981.408V938.621C1566.07 944.476 1575.07 949.88 1584.52 955.285ZM1549.42 933.666V978.255C1539.97 974.202 1530.97 970.148 1522.42 966.095V914.299C1530.97 920.605 1539.97 927.361 1549.42 933.666ZM1514.77 908.444V962.491C1505.32 957.988 1496.32 953.033 1487.77 948.079V886.375C1495.87 893.131 1504.87 900.788 1514.77 908.444ZM1465.72 865.657C1470.22 870.161 1475.17 874.665 1479.67 879.169V943.575C1470.22 938.17 1461.22 932.315 1452.67 926.46V853.046C1456.72 856.649 1461.22 861.153 1465.72 865.657ZM1445.02 844.488V921.055C1435.57 914.299 1426.57 907.543 1418.02 900.787V813.411C1426.12 823.32 1435.12 833.679 1445.02 844.488ZM1410.37 803.953L1409.92 894.482C1400.47 886.825 1391.02 878.718 1382.92 871.062V766.57C1391.02 778.28 1400.02 790.891 1410.37 803.953ZM1375.27 754.86V863.855C1373.47 862.054 1371.67 860.702 1369.87 858.901C1367.17 856.199 1364.47 853.496 1361.77 850.794V733.241C1365.82 739.997 1370.32 747.203 1375.27 754.86ZM1308.67 789.54C1305.97 785.937 1302.82 781.884 1300.57 778.28C1303.27 774.227 1306.42 770.173 1308.67 766.57V789.54ZM1295.17 771.525C1281.67 752.608 1271.77 735.943 1264.12 722.882H1326.22C1319.02 735.943 1308.67 752.608 1295.17 771.525ZM1290.22 778.28C1287.52 781.884 1284.82 785.487 1282.12 789.54V766.57C1284.82 770.173 1287.52 774.227 1290.22 778.28ZM1259.17 729.638C1263.22 736.844 1268.62 745.402 1274.47 754.86V799.449C1269.52 805.304 1264.57 811.61 1259.17 817.915V729.638ZM1282.12 802.602C1286.62 796.747 1291.12 790.891 1295.62 785.036C1299.67 790.891 1304.17 796.747 1309.12 802.602V1066.53H1282.57V802.602H1282.12ZM1316.32 754.86C1324.42 742.699 1330.72 731.89 1335.67 722.882V822.419C1328.92 814.762 1322.62 807.106 1316.32 799.449V754.86ZM1232.62 726.485V846.74C1228.57 850.794 1224.97 854.847 1220.92 858.901C1219.12 860.702 1217.32 862.054 1215.52 863.855V754.86C1222.27 744.501 1227.67 734.592 1232.62 726.485ZM332.161 1066.98H308.761V944.926C315.961 948.98 324.061 953.033 332.161 957.087V1066.98ZM367.261 1066.98H343.861V962.491C351.511 966.095 359.161 969.247 367.261 972.85V1066.98ZM401.912 1066.98H378.511V977.354C386.161 980.507 393.812 983.21 401.912 985.912V1066.98ZM437.012 1066.98H413.612V989.966C421.262 992.668 428.912 994.92 437.012 997.172V1066.98ZM471.662 1066.98H448.262V1000.77C455.912 1003.03 463.562 1004.83 471.662 1007.08V1066.98ZM506.762 1066.98H483.362V1009.78C491.012 1011.58 498.662 1013.39 506.762 1014.74V1066.98ZM541.413 1066.98H518.013V1016.99C525.663 1018.34 533.313 1019.69 541.413 1021.04V1066.98ZM576.513 1066.98H553.113V1022.84C560.763 1024.2 568.413 1025.1 576.513 1026V1066.98ZM611.163 1066.98H587.763V1027.35C595.413 1028.25 603.513 1029.15 611.163 1029.6V1066.98ZM646.264 1066.98H622.863V1030.95C630.514 1031.4 638.614 1031.85 646.264 1032.3V1066.98ZM680.914 1066.98H657.514V1032.75C665.164 1033.2 673.264 1033.2 680.914 1033.65V1066.98ZM692.164 1033.65C696.214 1033.65 699.814 1033.65 703.864 1033.65C707.914 1033.65 711.514 1033.65 715.564 1033.65V1066.98H692.164V1033.65ZM727.264 1033.2C734.015 1032.75 741.215 1032.75 747.965 1032.3C748.865 1032.3 749.765 1032.3 750.665 1032.3V1066.98H727.264V1033.2ZM761.915 1032.75C769.565 1033.2 777.215 1033.2 785.315 1033.65V1066.98H761.915V1032.75ZM797.015 1033.65C799.715 1033.65 802.415 1033.65 805.115 1033.65C810.515 1033.65 815.465 1033.65 820.415 1033.65V1066.98H797.015V1033.65ZM831.665 1033.2C839.765 1032.75 847.415 1032.3 855.066 1031.85V1066.98H831.665V1033.2ZM866.766 1030.95C874.866 1030.05 882.516 1029.15 890.166 1028.25V1066.98H866.766V1030.95ZM901.416 1026.45C909.516 1025.1 917.166 1023.74 924.816 1022.39V1066.53H901.416V1026.45ZM936.516 1020.14C944.616 1018.34 952.266 1016.54 959.917 1014.74V1066.53H936.516V1020.14ZM971.167 1012.03C979.267 1009.78 986.917 1007.53 994.567 1005.28V1066.98H971.167V1012.03ZM1006.27 1001.23C1014.37 998.523 1022.02 995.821 1029.67 992.668V1066.98H1006.27V1001.23ZM1040.92 987.714C1049.02 984.561 1056.67 980.958 1064.32 977.354V1066.53H1040.92V987.714ZM1076.02 971.95C1084.12 967.896 1091.77 963.843 1099.42 959.789V1066.98H1076.02V971.95ZM1110.67 953.033C1118.77 948.529 1126.42 943.575 1134.07 938.621V1066.53H1110.67V953.033ZM1145.77 930.964C1153.87 925.559 1161.97 919.704 1169.17 914.299V1066.98H1145.77V930.964ZM1180.42 905.291C1188.52 898.535 1196.62 892.23 1203.82 885.474V1066.53H1180.42V905.291ZM1207.87 766.57V871.062C1199.32 878.718 1190.32 886.825 1180.87 894.482V803.953H1180.42C1190.77 790.891 1199.77 778.28 1207.87 766.57ZM1172.77 813.411V900.787C1164.22 907.543 1155.22 914.299 1145.77 921.055V844.488C1155.67 833.679 1164.67 823.32 1172.77 813.411ZM1125.07 865.657C1129.57 861.153 1134.07 857.099 1138.12 852.595V926.01C1129.57 931.865 1120.57 937.72 1111.12 943.125V878.718C1115.62 874.214 1120.57 869.71 1125.07 865.657ZM1103.02 885.925V947.629C1094.47 952.583 1085.02 957.537 1076.02 962.041V907.994C1085.47 900.787 1094.47 893.131 1103.02 885.925ZM1068.37 914.299V966.095C1059.37 970.148 1050.37 974.652 1041.37 978.255V933.666C1050.37 927.361 1059.37 920.605 1068.37 914.299ZM1033.27 938.621V981.408C1024.27 985.011 1015.27 988.164 1006.27 991.767V955.285C1015.72 949.88 1024.72 944.476 1033.27 938.621ZM998.617 959.789V994.469C989.617 997.622 980.617 1000.32 971.616 1002.58V973.751C980.617 969.247 989.617 964.743 998.617 959.789ZM963.516 977.354V1004.38C954.516 1006.63 945.516 1008.88 936.516 1010.68V989.065C945.966 985.462 954.966 981.858 963.516 977.354ZM928.866 992.668V1012.94C919.866 1014.74 910.866 1016.09 901.866 1017.44V1002.58C910.866 999.424 919.866 995.821 928.866 992.668ZM893.766 1004.83V1018.34C884.766 1019.69 875.766 1020.59 866.766 1021.49V1012.49C875.766 1010.23 885.216 1007.53 893.766 1004.83ZM859.115 1014.74V1022.39C850.115 1023.29 841.115 1023.75 832.115 1024.2V1021.04C841.115 1019.24 850.115 1016.99 859.115 1014.74ZM824.015 1024.2C820.415 1024.2 816.815 1024.2 813.215 1024.2C816.815 1023.75 820.415 1022.84 824.015 1022.39V1024.2ZM660.664 1023.75C658.414 1023.75 656.164 1023.75 653.914 1023.29V1022.39C656.164 1023.29 658.414 1023.29 660.664 1023.75ZM646.264 1021.49V1022.84C637.264 1022.39 627.814 1021.94 619.263 1021.04V1016.54C627.814 1018.79 636.814 1020.14 646.264 1021.49ZM611.163 1015.19V1020.59C601.713 1019.69 592.713 1018.79 584.163 1017.89V1009.33C592.713 1011.58 602.163 1013.39 611.163 1015.19ZM576.513 1007.53V1016.99C567.063 1015.64 558.063 1014.74 549.513 1013.39V1000.77C558.063 1003.03 567.063 1005.28 576.513 1007.53ZM541.413 998.073V1011.58C531.963 1010.23 522.963 1008.43 514.413 1006.63V989.515C522.963 992.668 531.963 995.37 541.413 998.073ZM506.762 987.263V1005.73C497.312 1003.93 488.312 1001.68 479.762 999.874V977.354C488.312 980.507 497.312 983.66 506.762 987.263ZM471.662 973.751V997.172C462.212 994.92 453.212 992.217 444.662 989.966V962.041C453.212 966.095 462.212 970.148 471.662 973.751ZM437.012 958.438V987.714C427.562 985.011 418.562 981.858 410.012 979.156V944.926C418.112 949.43 427.112 953.934 437.012 958.438ZM387.962 932.315C392.462 935.017 396.962 937.72 401.912 940.422V976.454C392.462 973.301 383.461 969.698 374.911 966.095V924.208C378.961 926.91 383.461 929.613 387.962 932.315ZM367.261 919.254V962.942C357.811 958.888 348.811 954.835 340.261 950.781V900.337C348.361 906.192 357.361 912.948 367.261 919.254ZM332.161 894.032V946.728C324.061 942.674 315.961 938.621 308.761 934.567V933.216H305.611C305.161 933.216 305.161 932.765 304.711 932.765V871.062C312.811 878.268 321.811 885.924 332.161 894.032ZM297.511 863.855V928.262C295.261 926.91 293.011 925.559 291.211 924.658C287.161 921.956 283.11 919.704 279.061 917.002V844.038C283.561 849.443 289.411 856.199 297.511 863.855ZM-744.698 1066.98H-768.099V885.925C-760.899 892.23 -752.798 898.986 -744.698 905.742V1066.98ZM-709.598 1066.98H-732.998V914.299C-725.348 920.154 -717.698 925.559 -709.598 930.964V1066.98ZM-674.948 1066.98H-698.348V939.071C-690.698 944.025 -683.048 948.98 -674.948 953.484V1066.98ZM-639.847 1066.98H-663.248V959.789C-655.598 963.843 -647.948 967.896 -639.847 971.95V1066.98ZM-605.197 1066.98H-628.597V977.805C-620.947 981.408 -613.297 985.011 -605.197 988.164V1066.98ZM-570.097 1066.98H-593.497V992.668C-585.847 995.821 -578.197 998.523 -570.097 1001.23V1066.98ZM-535.447 1066.98H-558.847V1005.28C-551.197 1007.53 -543.547 1009.78 -535.447 1012.03V1066.98ZM-500.346 1066.98H-523.746V1015.19C-516.096 1016.99 -508.446 1018.79 -500.346 1020.59V1066.98ZM-465.696 1066.98H-489.096V1022.84C-481.446 1024.2 -473.346 1025.55 -465.696 1026.9V1066.98ZM-431.046 1066.98H-454.446V1028.25C-446.796 1029.15 -438.696 1030.05 -431.046 1030.95V1066.98ZM-395.945 1066.98H-419.346V1031.85C-411.695 1032.3 -403.595 1032.75 -395.945 1033.2V1066.98ZM-361.295 1033.65V1066.98H-384.695V1033.65C-379.745 1033.65 -374.345 1033.65 -369.395 1033.65C-366.245 1033.65 -363.545 1033.65 -361.295 1033.65ZM-349.595 1033.65C-341.495 1033.65 -333.845 1033.2 -326.195 1032.75V1066.98H-349.595V1033.65ZM-314.945 1032.3C-314.045 1032.3 -313.145 1032.3 -312.245 1032.3C-305.495 1032.75 -298.745 1033.2 -291.544 1033.2V1066.98H-314.945V1032.3ZM-279.844 1033.65C-275.794 1033.65 -272.194 1033.65 -268.144 1033.65C-264.094 1033.65 -260.494 1033.65 -256.444 1033.65V1066.98H-279.844V1033.65ZM-245.194 1033.2C-237.094 1033.2 -229.444 1032.75 -221.794 1032.3V1066.53H-245.194V1033.2ZM-210.094 1032.3C-201.994 1031.85 -194.344 1031.4 -186.694 1030.95V1066.98H-210.094V1032.3ZM-175.443 1029.6C-167.343 1028.7 -159.693 1028.25 -152.043 1027.35V1066.98H-175.443V1029.6ZM-140.343 1026C-132.243 1025.1 -124.593 1023.74 -116.943 1022.84V1066.98H-140.343V1026ZM-105.693 1021.04C-97.5928 1019.69 -89.9427 1018.34 -82.2926 1016.99V1066.98H-105.693V1021.04ZM-70.5925 1014.74C-62.4925 1012.94 -54.8424 1011.58 -47.1923 1009.78V1066.98H-70.5925V1014.74ZM-35.9423 1006.63C-27.8422 1004.83 -20.1921 1002.58 -12.542 1000.32V1066.53H-35.9423V1006.63ZM-0.841919 997.172C7.25812 994.92 14.9082 992.217 22.5582 989.966V1066.98H-0.841919V997.172ZM33.8083 985.912C41.9084 983.21 49.5585 980.057 57.2086 977.354V1066.98H33.8083V985.912ZM68.4587 972.4C76.5588 969.247 84.6588 965.644 91.8588 962.041V1066.53H68.4587V972.4ZM103.559 956.636C111.659 952.583 119.759 948.529 126.959 944.476V1066.53H103.559V956.636ZM138.209 938.621C141.809 936.369 145.409 934.567 148.559 932.765C153.059 930.063 157.559 927.361 161.609 924.658V1066.98H138.209V938.621ZM182.31 848.992C186.36 853.496 191.31 858.451 196.71 863.855V889.528C192.21 893.131 187.26 896.734 182.31 900.337V848.992ZM193.56 848.992H242.16C235.86 855.748 227.76 863.405 217.86 871.962C208.41 863.405 200.31 855.748 193.56 848.992ZM204.36 871.062C206.61 873.314 208.86 875.115 211.56 877.367C209.31 879.169 207.06 881.421 204.36 883.222V871.062ZM204.36 894.032C209.31 890.428 213.81 886.375 217.86 882.772C221.91 886.375 226.41 889.978 231.36 894.032V1066.53H204.36V894.032ZM224.61 877.367C226.86 875.115 229.56 872.863 231.81 871.062V883.222C229.11 881.421 226.86 879.619 224.61 877.367ZM239.46 863.855C245.31 858.451 249.81 853.496 253.86 848.992H260.61V905.291C252.96 899.887 245.76 894.932 239.46 889.528V863.855ZM163.859 835.931V912.498C157.559 916.551 151.259 920.605 144.959 924.658C142.709 926.01 140.909 927.361 138.659 928.262V863.855C151.259 851.695 159.359 841.786 163.859 835.931ZM130.559 871.062V932.765C130.109 932.765 130.109 933.216 129.659 933.216H126.509V935.017C119.309 939.071 111.209 943.125 103.109 947.178V894.482C113.909 885.924 122.909 878.268 130.559 871.062ZM95.9089 900.337V950.781C87.3589 954.835 78.3588 958.888 68.9088 962.942V919.254C78.3588 912.948 87.8089 906.192 95.9089 900.337ZM47.7585 932.315C52.2585 929.613 56.7585 926.91 60.8086 924.208V966.095C52.2585 969.698 43.2584 973.301 33.8083 976.454V940.422C38.7584 937.72 43.2585 935.017 47.7585 932.315ZM26.1583 944.926V979.156C17.6082 982.309 8.15814 985.011 -0.841919 987.714V958.438C8.60815 953.934 17.6082 949.43 26.1583 944.926ZM-8.94202 962.041V989.966C-17.9421 992.668 -26.9422 994.92 -35.9423 997.172V973.751C-26.4922 970.148 -17.4921 966.095 -8.94202 962.041ZM-43.5923 976.904V999.424C-52.5924 1001.68 -61.5925 1003.48 -70.5925 1005.28V987.263C-61.5925 983.66 -52.1424 980.507 -43.5923 976.904ZM-78.2426 989.515V1006.63C-87.2427 1008.43 -96.2427 1009.78 -105.243 1011.58V998.073C-96.2427 995.37 -87.2427 992.668 -78.2426 989.515ZM-113.343 1000.32V1012.94C-122.343 1014.29 -131.343 1015.64 -140.343 1016.54V1007.08C-131.343 1005.28 -122.343 1003.03 -113.343 1000.32ZM-147.993 1009.33V1017.89C-156.993 1018.79 -165.993 1019.69 -174.993 1020.59V1015.19C-165.993 1013.39 -156.993 1011.58 -147.993 1009.33ZM-183.094 1016.99V1021.49C-192.094 1022.39 -201.094 1022.84 -210.094 1023.29V1021.94C-201.094 1020.14 -192.094 1018.79 -183.094 1016.99ZM-217.744 1023.29C-219.994 1023.29 -222.244 1023.29 -224.494 1023.75C-222.244 1023.29 -219.994 1023.29 -217.744 1022.84V1023.29ZM-377.495 1024.65C-381.095 1024.65 -384.695 1024.65 -388.295 1024.65V1022.84C-384.695 1023.29 -381.095 1023.74 -377.495 1024.65ZM-395.945 1021.04V1024.2C-404.945 1023.75 -414.396 1023.29 -422.946 1022.39V1014.74C-414.396 1016.99 -405.395 1019.24 -395.945 1021.04ZM-431.046 1012.94V1021.94C-440.046 1021.04 -449.496 1020.14 -458.046 1018.79V1005.28C-449.046 1007.53 -440.046 1010.23 -431.046 1012.94ZM-465.696 1002.58V1017.44C-474.696 1016.09 -484.146 1014.29 -492.696 1012.94V992.668C-484.146 995.821 -475.146 999.424 -465.696 1002.58ZM-500.346 989.515V1011.13C-509.796 1009.33 -518.796 1007.08 -527.346 1004.83V977.805C-518.796 981.858 -509.796 985.462 -500.346 989.515ZM-535.447 973.751V1002.58C-544.897 999.874 -553.897 997.172 -562.447 994.469V959.789C-553.897 964.743 -544.897 969.247 -535.447 973.751ZM-570.097 955.285V991.767C-579.547 988.614 -588.547 985.011 -597.097 981.408V938.621C-588.997 944.476 -579.547 949.88 -570.097 955.285ZM-605.197 933.666V978.255C-614.647 974.202 -623.647 970.148 -632.197 966.095V914.299C-623.647 920.605 -614.647 927.361 -605.197 933.666ZM-639.847 908.444V962.491C-649.298 957.988 -658.298 953.033 -666.848 948.079V886.375C-658.748 893.131 -649.748 900.788 -639.847 908.444ZM-688.898 865.657C-684.398 870.161 -679.448 874.665 -674.948 879.169V943.575C-684.398 938.17 -693.398 932.315 -701.948 926.46V853.046C-697.898 856.649 -693.398 861.153 -688.898 865.657ZM-709.598 844.488V921.055C-719.048 914.299 -728.048 907.543 -736.598 900.787V813.411C-728.498 823.32 -719.498 833.679 -709.598 844.488ZM-771.699 766.57C-763.599 778.28 -754.598 790.891 -744.248 804.403H-744.698V894.932C-754.148 887.276 -763.599 879.169 -771.699 871.512V766.57ZM-789.699 865.657C-786.549 868.81 -782.949 872.413 -779.349 875.566V1066.98H-802.749V852.595C-798.699 856.649 -794.199 861.153 -789.699 865.657ZM-810.849 844.488V1066.98H-837.849V813.411C-829.299 823.32 -820.299 833.679 -810.849 844.488ZM-872.499 766.57C-864.399 778.28 -855.399 790.891 -845.049 804.403H-845.499V1066.98H-872.499V766.57ZM182.31 910.696C187.26 907.093 192.21 903.49 196.71 900.337V1066.98H182.31V910.696ZM239.46 1066.98V900.337C246.21 905.292 253.41 910.246 260.61 915.651V1066.98H239.46ZM278.61 927.361C281.31 929.162 284.011 930.513 286.711 932.315C289.861 934.117 293.461 936.369 297.061 938.17V1066.53H278.61V927.361ZM1215.52 1066.98V875.566C1219.12 872.413 1222.72 868.81 1225.87 865.657C1228.12 863.405 1230.37 861.153 1232.62 858.901V1066.98H1215.52ZM1259.17 830.526C1264.12 824.671 1269.07 818.816 1274.02 813.411V1066.98H1259.17V830.526ZM1316.77 1066.98V813.411C1322.62 820.617 1328.92 827.824 1335.22 835.03V1066.98H1316.77ZM1362.22 862.954C1363.12 863.855 1364.02 864.756 1364.92 865.657C1368.07 868.81 1371.67 872.413 1375.27 875.566V1066.98H1362.22V862.954ZM2293.28 1066.98V938.621C2296.88 936.369 2300.48 934.567 2303.63 932.765C2306.33 930.964 2309.03 929.613 2311.73 927.811V1067.43H2293.28V1066.98ZM2329.73 915.651C2337.38 910.246 2344.58 905.292 2351.33 900.337V1066.98H2329.73V915.651ZM2394.08 1066.98V863.855C2399.93 858.451 2404.43 853.496 2408.48 848.992V1066.98H2394.08Z" fill="#ABABAB"/>
</svg>
