<svg width="1440" height="1301" viewBox="0 0 1440 1301" fill="none" xmlns="http://www.w3.org/2000/svg">
<path d="M2300.77 732.982L2248.71 584.15L2215.91 594.037V652.321H2185.19V591.956H2119.07V630.985H2094.6V447.807H2014.94L2010.78 457.695H2032.12V464.46H2008.17L2006.09 469.143V683.024H1954.03V615.894C1954.03 615.894 1957.67 596.639 1938.41 596.639C1919.15 596.639 1928 613.812 1928 613.812V693.953H1886.35V538.355H1862.4V585.711L1829.6 630.985L1815.54 615.894V588.313H1785.86V564.375H1737.45V527.427H1701V613.812H1685.38V598.201H1663.52V591.435H1685.38V577.905H1663.52V571.14H1685.38V557.61H1663.52V550.845H1685.38V537.315H1663.52V530.549H1685.38V517.019H1663.52V510.254H1685.38V496.724H1663.52V489.959H1685.38V476.429H1663.52V469.664H1685.38V456.133H1663.52V449.368H1685.38V435.838H1663.52V429.073H1685.38V426.471L1679.13 415.543H1657.79V408.778H1675.49L1673.41 404.614V395.247H1653.1V388.482H1673.41V374.952H1647.9V368.187H1673.41V355.177H1598.96V476.429H1567.72V335.923L1531.27 285.965L1493.27 338.004V418.145H1474.01V320.831H1428.71V354.657H1414.65V320.831H1383.42V359.34L1367.8 385.88V417.624L1355.82 436.879V508.173H1336.56V603.404H1317.3V559.171H1300.11V407.737H1236.08V438.96L1201.19 436.358V332.28H1140.28L1117.89 371.83H1102.27V436.879H1083.01V371.309H1054.9L1040.84 385.88V470.184H1024.18V466.021H1009.6V453.011H1024.18V439.481H1009.6V425.951H1024.18V412.42H1009.6V398.89H1024.18V385.36H1009.6V371.83H1024.18V358.3H1009.6V344.769H1024.18V331.239H1009.6V317.709H1024.18V312.505L1022.1 303.658H1009.6V290.128H1018.97L1015.85 276.598H1009.6V263.068H1012.73L1008.56 245.895V198.019H998.148V178.764L982.529 162.632H914.847V193.856L905.996 204.784V245.895H891.939V499.846H742.518C742.518 499.846 742.518 454.052 742.518 443.124C742.518 432.195 733.667 409.298 733.667 409.298V369.748L709.197 332.8V242.252L697.223 225.079V179.805L676.398 134.531V0.269531H667.547V131.929L653.49 160.03V302.618L631.103 320.311V399.931H555.611V287.006H524.373V226.64H413.479L400.463 243.813V314.066L389.009 328.117V263.068L382.241 252.66V169.917H323.409L293.733 304.179V276.078H250.521L217.2 367.146H187.524V127.245H88.6043L34.9792 139.735V343.729H-7.19196V290.128H-67.5852V320.311H-107.674L-156.093 330.719V385.36H-189.934V218.834H-226.378V177.203H-276.879L-326.86 196.978V239.65H-304.473V256.823H-265.425V273.996H-304.473V291.169H-270.632V308.342H-304.473V325.515H-275.838V342.688H-304.473V359.861H-281.044V377.034H-304.473V394.207H-286.251V411.38H-304.473V428.553H-291.457V445.726H-304.473V462.898H-296.663V480.071H-304.473V500.367L-378.402 584.67V728.819H-390.377L-416.408 670.535V369.228C-416.408 359.861 -422.135 352.055 -429.424 352.055H-463.265C-466.91 352.055 -470.554 354.136 -472.637 357.259L-520.535 424.389H-574.16V747.553L-597.588 781.217C-597.588 781.217 -597.588 491 -597.588 482.153C-597.588 473.306 -604.357 467.062 -604.357 467.062C-604.357 467.062 -628.826 467.062 -635.594 467.062C-642.363 467.062 -651.213 484.235 -651.213 484.235V705.401H-663.188V632.026L-711.607 634.108V688.228H-722.019V536.794H-739.721V601.843L-748.572 612.771V668.974H-772V1300.73H2351.79V673.137L2300.77 732.982ZM-542.401 738.706H-555.417V704.881H-542.401V738.706ZM-542.401 687.708H-555.417V653.883H-542.401V687.708ZM-542.401 636.71H-555.417V602.884H-542.401V636.71ZM-542.401 586.232H-555.417V552.406H-542.401V586.232ZM-542.401 535.233H-555.417V501.408H-542.401V535.233ZM-516.37 687.708H-529.386V653.883H-516.37V687.708ZM-516.37 586.232H-529.386V552.406H-516.37V586.232ZM-516.37 535.233H-529.386V501.408H-516.37V535.233ZM-516.37 484.235H-529.386V450.409H-516.37V484.235ZM-490.338 738.706H-503.354V704.881H-490.338V738.706ZM-490.338 687.708H-503.354V653.883H-490.338V687.708ZM-490.338 636.71H-503.354V602.884H-490.338V636.71ZM-490.338 586.232H-503.354V552.406H-490.338V586.232ZM-490.338 484.235H-503.354V450.409H-490.338V484.235ZM-464.307 687.708H-477.322V653.883H-464.307V687.708ZM-464.307 636.71H-477.322V602.884H-464.307V636.71ZM-464.307 535.233H-477.322V501.408H-464.307V535.233ZM-464.307 484.235H-477.322V450.409H-464.307V484.235ZM-438.275 738.706H-451.291V704.881H-438.275V738.706ZM-438.275 687.708H-451.291V653.883H-438.275V687.708ZM-438.275 636.71H-451.291V602.884H-438.275V636.71ZM-438.275 586.232H-451.291V552.406H-438.275V586.232ZM-438.275 535.233H-451.291V501.408H-438.275V535.233ZM-438.275 484.235H-451.291V450.409H-438.275V484.235ZM-257.095 478.51H-264.905V377.034H-257.095V478.51ZM-239.394 478.51H-247.203V377.034H-239.394V478.51ZM-234.187 358.82H-241.997V257.343H-234.187V358.82ZM-221.692 478.51H-229.502V377.034H-221.692V478.51ZM-216.486 358.82H-224.295V257.343H-216.486V358.82ZM-198.784 358.82H-206.594V257.343H-198.784V358.82ZM-41.5536 523.784H-54.5694V506.611H-41.5536V523.784ZM-41.5536 489.959H-54.5694V472.786H-41.5536V489.959ZM-41.5536 456.133H-54.5694V438.96H-41.5536V456.133ZM-41.5536 422.308H-54.5694V405.135H-41.5536V422.308ZM-41.5536 388.482H-54.5694V371.309H-41.5536V388.482ZM-41.5536 354.657H-54.5694V337.484H-41.5536V354.657ZM-41.5536 320.831H-54.5694V303.658H-41.5536V320.831ZM-15.522 540.957H-28.5378V439.481H-15.522V540.957ZM-15.522 422.308H-28.5378V405.135H-15.522V422.308ZM-15.522 388.482H-28.5378V371.309H-15.522V388.482ZM-15.522 354.657H-28.5378V337.484H-15.522V354.657ZM-15.522 320.831H-28.5378V303.658H-15.522V320.831ZM71.4235 481.633H58.4077V464.46H71.4235V481.633ZM71.4235 447.807H58.4077V430.634H71.4235V447.807ZM71.4235 413.982H58.4077V396.809H71.4235V413.982ZM71.4235 380.156H58.4077V362.983H71.4235V380.156ZM71.4235 346.331H58.4077V329.158H71.4235V346.331ZM71.4235 311.985H58.4077V294.812H71.4235V311.985ZM71.4235 278.159H58.4077V260.986H71.4235V278.159ZM71.4235 244.334H58.4077V227.161H71.4235V244.334ZM71.4235 210.508H58.4077V193.335H71.4235V210.508ZM97.4551 481.633H84.4393V464.46H97.4551V481.633ZM97.4551 447.807H84.4393V430.634H97.4551V447.807ZM97.4551 413.982H84.4393V396.809H97.4551V413.982ZM97.4551 380.156H84.4393V362.983H97.4551V380.156ZM97.4551 311.985H84.4393V294.812H97.4551V311.985ZM97.4551 278.159H84.4393V260.986H97.4551V278.159ZM97.4551 244.334H84.4393V227.161H97.4551V244.334ZM97.4551 210.508H84.4393V193.335H97.4551V210.508ZM97.4551 176.683H84.4393V159.51H97.4551V176.683ZM136.502 481.633H123.487V464.46H136.502V481.633ZM136.502 447.807H123.487V430.634H136.502V447.807ZM136.502 413.982H123.487V396.809H136.502V413.982ZM136.502 380.156H123.487V362.983H136.502V380.156ZM136.502 346.331H123.487V329.158H136.502V346.331ZM136.502 311.985H123.487V294.812H136.502V311.985ZM136.502 244.334H123.487V227.161H136.502V244.334ZM136.502 210.508H123.487V193.335H136.502V210.508ZM136.502 176.683H123.487V159.51H136.502V176.683ZM162.534 481.633H149.518V464.46H162.534V481.633ZM162.534 447.807H149.518V430.634H162.534V447.807ZM162.534 380.156H149.518V362.983H162.534V380.156ZM162.534 346.331H149.518V329.158H162.534V346.331ZM162.534 311.985H149.518V294.812H162.534V311.985ZM162.534 278.159H149.518V260.986H162.534V278.159ZM162.534 244.334H149.518V227.161H162.534V244.334ZM162.534 210.508H149.518V193.335H162.534V210.508ZM162.534 176.683H149.518V159.51H162.534V176.683ZM460.856 513.897H408.793V507.132H460.856V513.897ZM460.856 495.683H408.793V488.918H460.856V495.683ZM460.856 458.215H408.793V451.45H460.856V458.215ZM460.856 439.481H408.793V432.716H460.856V439.481ZM460.856 420.747H408.793V413.982H460.856V420.747ZM460.856 402.013H408.793V395.247H460.856V402.013ZM460.856 383.799H408.793V377.034H460.856V383.799ZM460.856 365.065H408.793V358.3H460.856V365.065ZM460.856 327.596H408.793V320.831H460.856V327.596ZM460.856 308.862H408.793V302.097H460.856V308.862ZM460.856 290.128H408.793V283.363H460.856V290.128ZM460.856 271.914H408.793V265.149H460.856V271.914ZM518.646 495.683H466.583V488.918H518.646V495.683ZM518.646 476.949H466.583V470.184H518.646V476.949ZM518.646 458.215H466.583V451.45H518.646V458.215ZM518.646 439.481H466.583V432.716H518.646V439.481ZM518.646 420.747H466.583V413.982H518.646V420.747ZM518.646 383.799H466.583V377.034H518.646V383.799ZM518.646 365.065H466.583V358.3H518.646V365.065ZM518.646 346.331H466.583V339.565H518.646V346.331ZM518.646 327.596H466.583V320.831H518.646V327.596ZM518.646 308.862H466.583V302.097H518.646V308.862ZM518.646 290.128H466.583V283.363H518.646V290.128ZM518.646 271.914H466.583V265.149H518.646V271.914ZM518.646 253.18H466.583V246.415H518.646V253.18ZM536.348 498.806H531.141V492.04H536.348V498.806ZM536.348 471.745H531.141V464.98H536.348V471.745ZM536.348 444.685H531.141V437.92H536.348V444.685ZM536.348 417.624H531.141V410.859H536.348V417.624ZM536.348 390.564H531.141V383.799H536.348V390.564ZM536.348 362.983H531.141V356.218H536.348V362.983ZM536.348 335.923H531.141V329.158H536.348V335.923ZM536.348 308.862H531.141V302.097H536.348V308.862ZM546.76 498.806H541.554V492.04H546.76V498.806ZM546.76 471.745H541.554V464.98H546.76V471.745ZM546.76 444.685H541.554V437.92H546.76V444.685ZM546.76 417.624H541.554V410.859H546.76V417.624ZM546.76 390.564H541.554V383.799H546.76V390.564ZM546.76 362.983H541.554V356.218H546.76V362.983ZM546.76 335.923H541.554V329.158H546.76V335.923ZM546.76 308.862H541.554V302.097H546.76V308.862ZM677.959 170.438C685.769 171.479 691.496 179.285 692.016 189.172H677.959V170.438ZM677.959 192.815H692.016C690.975 202.182 685.248 209.467 677.959 210.508V192.815ZM680.042 237.048V304.699H674.836V237.048H680.042ZM661.299 192.815H675.356V210.508C668.068 209.467 662.34 202.182 661.299 192.815ZM669.629 237.048V304.699H664.423V237.048H669.629ZM675.356 170.438V189.172H661.299C661.82 179.285 667.547 171.479 675.356 170.438ZM648.804 455.613H643.598V387.962H648.804V455.613ZM659.217 455.613H654.01V387.962H659.217V455.613ZM659.217 312.505H664.423V380.156H659.217V312.505ZM669.629 455.613H664.423V387.962H669.629V455.613ZM669.629 312.505H674.836V380.156H669.629V312.505ZM680.042 455.613H674.836V387.962H680.042V455.613ZM685.248 380.156H680.042V312.505H685.248V380.156ZM685.248 237.048H690.455V304.699H685.248V237.048ZM690.455 312.505H695.661V380.156H690.455V312.505ZM697.223 455.613H692.016V387.962H697.223V455.613ZM707.635 455.613H702.429V387.962H707.635V455.613ZM718.048 455.613H712.842V387.962H718.048V455.613ZM728.461 455.613H723.254V387.962H728.461V455.613ZM936.714 547.722H915.888V534.192H936.714V547.722ZM936.714 520.662H915.888V507.132H936.714V520.662ZM936.714 493.602H915.888V480.071H936.714V493.602ZM936.714 466.541H915.888V453.011H936.714V466.541ZM936.714 439.481H915.888V425.951H936.714V439.481ZM936.714 411.9H915.888V398.37H936.714V411.9ZM936.714 384.84H915.888V371.309H936.714V384.84ZM936.714 357.779H915.888V344.249H936.714V357.779ZM936.714 330.719H915.888V317.189H936.714V330.719ZM936.714 303.658H915.888V290.128H936.714V303.658ZM936.714 276.598H915.888V263.068H936.714V276.598ZM936.714 249.538H915.888V236.007H936.714V249.538ZM936.714 222.477H915.888V208.947H936.714V222.477ZM967.951 547.722H947.126V534.192H967.951V547.722ZM967.951 520.662H947.126V507.132H967.951V520.662ZM967.951 493.602H947.126V480.071H967.951V493.602ZM967.951 466.541H947.126V453.011H967.951V466.541ZM967.951 439.481H947.126V425.951H967.951V439.481ZM967.951 411.9H947.126V398.37H967.951V411.9ZM967.951 384.84H947.126V371.309H967.951V384.84ZM967.951 357.779H947.126V344.249H967.951V357.779ZM967.951 330.719H947.126V317.189H967.951V330.719ZM967.951 303.658H947.126V290.128H967.951V303.658ZM967.951 276.598H947.126V263.068H967.951V276.598ZM967.951 249.538H947.126V236.007H967.951V249.538ZM967.951 222.477H947.126V208.947H967.951V222.477ZM999.189 547.722H978.364V534.192H999.189V547.722ZM999.189 520.662H978.364V507.132H999.189V520.662ZM999.189 493.602H978.364V480.071H999.189V493.602ZM999.189 466.541H978.364V453.011H999.189V466.541ZM999.189 439.481H978.364V425.951H999.189V439.481ZM999.189 411.9H978.364V398.37H999.189V411.9ZM999.189 384.84H978.364V371.309H999.189V384.84ZM999.189 357.779H978.364V344.249H999.189V357.779ZM999.189 330.719H978.364V317.189H999.189V330.719ZM999.189 303.658H978.364V290.128H999.189V303.658ZM999.189 276.598H978.364V263.068H999.189V276.598ZM999.189 249.538H978.364V236.007H999.189V249.538ZM999.189 222.477H978.364V208.947H999.189V222.477ZM1055.94 380.676H1063.75V391.084H1055.94V380.676ZM1053.33 400.972H1061.14V411.38H1053.33V400.972ZM1053.33 472.266H1045.53V461.858H1053.33V472.266ZM1055.94 451.97H1048.13V441.562H1055.94V451.97ZM1058.54 431.675H1050.73V421.267H1058.54V431.675ZM1068.95 472.266H1061.14V461.858H1068.95V472.266ZM1071.56 451.97H1063.75V441.562H1071.56V451.97ZM1074.16 431.675H1066.35V421.267H1074.16V431.675ZM1076.76 411.38H1068.95V400.972H1076.76V411.38ZM1079.37 391.084H1071.56V380.676H1079.37V391.084ZM1114.25 546.682H1106.44V536.274H1114.25V546.682ZM1114.25 526.386H1106.44V515.979H1114.25V526.386ZM1114.25 506.091H1106.44V495.683H1114.25V506.091ZM1114.25 485.275H1106.44V474.867H1114.25V485.275ZM1114.25 464.98H1106.44V454.572H1114.25V464.98ZM1114.25 424.389H1106.44V413.982H1114.25V424.389ZM1114.25 404.094H1106.44V393.686H1114.25V404.094ZM1129.87 546.682H1122.06V536.274H1129.87V546.682ZM1129.87 526.386H1122.06V515.979H1129.87V526.386ZM1129.87 506.091H1122.06V495.683H1129.87V506.091ZM1129.87 485.275H1122.06V474.867H1129.87V485.275ZM1129.87 464.98H1122.06V454.572H1129.87V464.98ZM1129.87 444.685H1122.06V434.277H1129.87V444.685ZM1129.87 424.389H1122.06V413.982H1129.87V424.389ZM1129.87 404.094H1122.06V393.686H1129.87V404.094ZM1129.87 383.799H1121.54L1129.87 367.667V383.799ZM1145.49 546.682H1137.68V536.274H1145.49V546.682ZM1145.49 506.091H1137.68V495.683H1145.49V506.091ZM1145.49 485.275H1137.68V474.867H1145.49V485.275ZM1145.49 444.685H1137.68V434.277H1145.49V444.685ZM1145.49 424.389H1137.68V413.982H1145.49V424.389ZM1145.49 404.094H1137.68V393.686H1145.49V404.094ZM1145.49 383.799H1137.68V373.391H1145.49V383.799ZM1145.49 363.504H1137.68V353.096H1145.49V363.504ZM1161.11 546.682H1153.3V536.274H1161.11V546.682ZM1161.11 526.386H1153.3V515.979H1161.11V526.386ZM1161.11 506.091H1153.3V495.683H1161.11V506.091ZM1161.11 485.275H1153.3V474.867H1161.11V485.275ZM1161.11 464.98H1153.3V454.572H1161.11V464.98ZM1161.11 444.685H1153.3V434.277H1161.11V444.685ZM1161.11 404.094H1153.3V393.686H1161.11V404.094ZM1161.11 383.799H1153.3V373.391H1161.11V383.799ZM1161.11 363.504H1153.3V353.096H1161.11V363.504ZM1176.72 546.682H1168.92V536.274H1176.72V546.682ZM1176.72 526.386H1168.92V515.979H1176.72V526.386ZM1176.72 506.091H1168.92V495.683H1176.72V506.091ZM1176.72 485.275H1168.92V474.867H1176.72V485.275ZM1176.72 464.98H1168.92V454.572H1176.72V464.98ZM1176.72 444.685H1168.92V434.277H1176.72V444.685ZM1176.72 424.389H1168.92V413.982H1176.72V424.389ZM1176.72 404.094H1168.92V393.686H1176.72V404.094ZM1176.72 363.504H1168.92V353.096H1176.72V363.504ZM1192.34 546.682H1184.53V536.274H1192.34V546.682ZM1192.34 526.386H1184.53V515.979H1192.34V526.386ZM1192.34 506.091H1184.53V495.683H1192.34V506.091ZM1192.34 464.98H1184.53V454.572H1192.34V464.98ZM1192.34 444.685H1184.53V434.277H1192.34V444.685ZM1192.34 424.389H1184.53V413.982H1192.34V424.389ZM1192.34 404.094H1184.53V393.686H1192.34V404.094ZM1192.34 383.799H1184.53V373.391H1192.34V383.799ZM1192.34 363.504H1184.53V353.096H1192.34V363.504ZM1531.27 301.056L1557.31 339.565H1505.24L1531.27 301.056ZM1511.49 458.215C1511.49 460.296 1510.45 461.858 1508.89 461.858H1506.28C1504.72 461.858 1503.68 460.296 1503.68 458.215V454.572C1503.68 452.491 1504.72 450.929 1506.28 450.929H1508.89C1510.45 450.929 1511.49 452.491 1511.49 454.572V458.215ZM1511.49 437.92C1511.49 440.001 1510.45 441.562 1508.89 441.562H1506.28C1504.72 441.562 1503.68 440.001 1503.68 437.92V434.277C1503.68 432.195 1504.72 430.634 1506.28 430.634H1508.89C1510.45 430.634 1511.49 432.195 1511.49 434.277V437.92ZM1511.49 417.624C1511.49 419.706 1510.45 421.267 1508.89 421.267H1506.28C1504.72 421.267 1503.68 419.706 1503.68 417.624V413.982C1503.68 411.9 1504.72 410.339 1506.28 410.339H1508.89C1510.45 410.339 1511.49 411.9 1511.49 413.982V417.624ZM1511.49 397.329C1511.49 399.411 1510.45 400.972 1508.89 400.972H1506.28C1504.72 400.972 1503.68 399.411 1503.68 397.329V393.686C1503.68 391.605 1504.72 390.044 1506.28 390.044H1508.89C1510.45 390.044 1511.49 391.605 1511.49 393.686V397.329ZM1511.49 377.034C1511.49 379.115 1510.45 380.676 1508.89 380.676H1506.28C1504.72 380.676 1503.68 379.115 1503.68 377.034V373.391C1503.68 371.309 1504.72 369.748 1506.28 369.748H1508.89C1510.45 369.748 1511.49 371.309 1511.49 373.391V377.034ZM1511.49 356.738C1511.49 358.82 1510.45 360.381 1508.89 360.381H1506.28C1504.72 360.381 1503.68 358.82 1503.68 356.738V353.096C1503.68 351.014 1504.72 349.453 1506.28 349.453H1508.89C1510.45 349.453 1511.49 351.014 1511.49 353.096V356.738ZM1527.11 478.51C1527.11 480.592 1526.07 482.153 1524.51 482.153H1521.9C1520.34 482.153 1519.3 480.592 1519.3 478.51V474.867C1519.3 472.786 1520.34 471.225 1521.9 471.225H1524.51C1526.07 471.225 1527.11 472.786 1527.11 474.867V478.51ZM1527.11 458.215C1527.11 460.296 1526.07 461.858 1524.51 461.858H1521.9C1520.34 461.858 1519.3 460.296 1519.3 458.215V454.572C1519.3 452.491 1520.34 450.929 1521.9 450.929H1524.51C1526.07 450.929 1527.11 452.491 1527.11 454.572V458.215ZM1527.11 417.624C1527.11 419.706 1526.07 421.267 1524.51 421.267H1521.9C1520.34 421.267 1519.3 419.706 1519.3 417.624V413.982C1519.3 411.9 1520.34 410.339 1521.9 410.339H1524.51C1526.07 410.339 1527.11 411.9 1527.11 413.982V417.624ZM1527.11 397.329C1527.11 399.411 1526.07 400.972 1524.51 400.972H1521.9C1520.34 400.972 1519.3 399.411 1519.3 397.329V393.686C1519.3 391.605 1520.34 390.044 1521.9 390.044H1524.51C1526.07 390.044 1527.11 391.605 1527.11 393.686V397.329ZM1527.11 377.034C1527.11 379.115 1526.07 380.676 1524.51 380.676H1521.9C1520.34 380.676 1519.3 379.115 1519.3 377.034V373.391C1519.3 371.309 1520.34 369.748 1521.9 369.748H1524.51C1526.07 369.748 1527.11 371.309 1527.11 373.391V377.034ZM1527.11 356.738C1527.11 358.82 1526.07 360.381 1524.51 360.381H1521.9C1520.34 360.381 1519.3 358.82 1519.3 356.738V353.096C1519.3 351.014 1520.34 349.453 1521.9 349.453H1524.51C1526.07 349.453 1527.11 351.014 1527.11 353.096V356.738ZM1542.73 478.51C1542.73 480.592 1541.69 482.153 1540.13 482.153H1537.52C1535.96 482.153 1534.92 480.592 1534.92 478.51V474.867C1534.92 472.786 1535.96 471.225 1537.52 471.225H1540.13C1541.69 471.225 1542.73 472.786 1542.73 474.867V478.51ZM1542.73 458.215C1542.73 460.296 1541.69 461.858 1540.13 461.858H1537.52C1535.96 461.858 1534.92 460.296 1534.92 458.215V454.572C1534.92 452.491 1535.96 450.929 1537.52 450.929H1540.13C1541.69 450.929 1542.73 452.491 1542.73 454.572V458.215ZM1542.73 437.92C1542.73 440.001 1541.69 441.562 1540.13 441.562H1537.52C1535.96 441.562 1534.92 440.001 1534.92 437.92V434.277C1534.92 432.195 1535.96 430.634 1537.52 430.634H1540.13C1541.69 430.634 1542.73 432.195 1542.73 434.277V437.92ZM1542.73 417.624C1542.73 419.706 1541.69 421.267 1540.13 421.267H1537.52C1535.96 421.267 1534.92 419.706 1534.92 417.624V413.982C1534.92 411.9 1535.96 410.339 1537.52 410.339H1540.13C1541.69 410.339 1542.73 411.9 1542.73 413.982V417.624ZM1542.73 397.329C1542.73 399.411 1541.69 400.972 1540.13 400.972H1537.52C1535.96 400.972 1534.92 399.411 1534.92 397.329V393.686C1534.92 391.605 1535.96 390.044 1537.52 390.044H1540.13C1541.69 390.044 1542.73 391.605 1542.73 393.686V397.329ZM1542.73 356.738C1542.73 358.82 1541.69 360.381 1540.13 360.381H1537.52C1535.96 360.381 1534.92 358.82 1534.92 356.738V353.096C1534.92 351.014 1535.96 349.453 1537.52 349.453H1540.13C1541.69 349.453 1542.73 351.014 1542.73 353.096V356.738ZM1558.35 478.51C1558.35 480.592 1557.31 482.153 1555.74 482.153H1553.14C1551.58 482.153 1550.54 480.592 1550.54 478.51V474.867C1550.54 472.786 1551.58 471.225 1553.14 471.225H1555.74C1557.31 471.225 1558.35 472.786 1558.35 474.867V478.51ZM1558.35 458.215C1558.35 460.296 1557.31 461.858 1555.74 461.858H1553.14C1551.58 461.858 1550.54 460.296 1550.54 458.215V454.572C1550.54 452.491 1551.58 450.929 1553.14 450.929H1555.74C1557.31 450.929 1558.35 452.491 1558.35 454.572V458.215ZM1558.35 437.92C1558.35 440.001 1557.31 441.562 1555.74 441.562H1553.14C1551.58 441.562 1550.54 440.001 1550.54 437.92V434.277C1550.54 432.195 1551.58 430.634 1553.14 430.634H1555.74C1557.31 430.634 1558.35 432.195 1558.35 434.277V437.92ZM1558.35 417.624C1558.35 419.706 1557.31 421.267 1555.74 421.267H1553.14C1551.58 421.267 1550.54 419.706 1550.54 417.624V413.982C1550.54 411.9 1551.58 410.339 1553.14 410.339H1555.74C1557.31 410.339 1558.35 411.9 1558.35 413.982V417.624ZM1558.35 397.329C1558.35 399.411 1557.31 400.972 1555.74 400.972H1553.14C1551.58 400.972 1550.54 399.411 1550.54 397.329V393.686C1550.54 391.605 1551.58 390.044 1553.14 390.044H1555.74C1557.31 390.044 1558.35 391.605 1558.35 393.686V397.329ZM1558.35 377.034C1558.35 379.115 1557.31 380.676 1555.74 380.676H1553.14C1551.58 380.676 1550.54 379.115 1550.54 377.034V373.391C1550.54 371.309 1551.58 369.748 1553.14 369.748H1555.74C1557.31 369.748 1558.35 371.309 1558.35 373.391V377.034ZM1558.35 356.738C1558.35 358.82 1557.31 360.381 1555.74 360.381H1553.14C1551.58 360.381 1550.54 358.82 1550.54 356.738V353.096C1550.54 351.014 1551.58 349.453 1553.14 349.453H1555.74C1557.31 349.453 1558.35 351.014 1558.35 353.096V356.738ZM1610.41 598.201H1605.2V591.435H1610.41V598.201ZM1610.41 577.905H1605.2V571.14H1610.41V577.905ZM1610.41 557.61H1605.2V550.845H1610.41V557.61ZM1610.41 517.019H1605.2V510.254H1610.41V517.019ZM1610.41 496.724H1605.2V489.959H1610.41V496.724ZM1610.41 476.429H1605.2V469.664H1610.41V476.429ZM1610.41 456.133H1605.2V449.368H1610.41V456.133ZM1610.41 435.318H1605.2V428.553H1610.41V435.318ZM1610.41 415.022H1605.2V408.257H1610.41V415.022ZM1610.41 394.727H1605.2V387.962H1610.41V394.727ZM1610.41 374.432H1605.2V367.667H1610.41V374.432ZM1620.82 577.905H1615.62V571.14H1620.82V577.905ZM1620.82 557.61H1615.62V550.845H1620.82V557.61ZM1620.82 537.315H1615.62V530.549H1620.82V537.315ZM1620.82 517.019H1615.62V510.254H1620.82V517.019ZM1620.82 496.724H1615.62V489.959H1620.82V496.724ZM1620.82 476.429H1615.62V469.664H1620.82V476.429ZM1620.82 435.318H1615.62V428.553H1620.82V435.318ZM1620.82 415.022H1615.62V408.257H1620.82V415.022ZM1620.82 374.432H1615.62V367.667H1620.82V374.432ZM1631.24 598.201H1626.03V591.435H1631.24V598.201ZM1631.24 577.905H1626.03V571.14H1631.24V577.905ZM1631.24 557.61H1626.03V550.845H1631.24V557.61ZM1631.24 537.315H1626.03V530.549H1631.24V537.315ZM1631.24 496.724H1626.03V489.959H1631.24V496.724ZM1631.24 476.429H1626.03V469.664H1631.24V476.429ZM1631.24 456.133H1626.03V449.368H1631.24V456.133ZM1631.24 435.318H1626.03V428.553H1631.24V435.318ZM1631.24 415.022H1626.03V408.257H1631.24V415.022ZM1631.24 394.727H1626.03V387.962H1631.24V394.727ZM1631.24 374.432H1626.03V367.667H1631.24V374.432ZM1641.65 598.201H1636.44V591.435H1641.65V598.201ZM1641.65 557.61H1636.44V550.845H1641.65V557.61ZM1641.65 537.315H1636.44V530.549H1641.65V537.315ZM1641.65 517.019H1636.44V510.254H1641.65V517.019ZM1641.65 496.724H1636.44V489.959H1641.65V496.724ZM1641.65 476.429H1636.44V469.664H1641.65V476.429ZM1641.65 456.133H1636.44V449.368H1641.65V456.133ZM1641.65 435.318H1636.44V428.553H1641.65V435.318ZM1641.65 394.727H1636.44V387.962H1641.65V394.727ZM1641.65 374.432H1636.44V367.667H1641.65V374.432ZM2032.64 688.228H2006.61V681.463H2032.64V688.228ZM2032.64 667.933H2006.61V661.168H2032.64V667.933ZM2032.64 626.822H2006.61V620.057H2032.64V626.822ZM2032.64 606.527H2006.61V599.762H2032.64V606.527ZM2032.64 586.232H2006.61V579.466H2032.64V586.232ZM2032.64 565.936H2006.61V559.171H2032.64V565.936ZM2032.64 545.641H2006.61V538.876H2032.64V545.641ZM2032.64 525.346H2006.61V518.58H2032.64V525.346ZM2032.64 505.05H2006.61V498.285H2032.64V505.05ZM2032.64 484.755H2006.61V477.99H2032.64V484.755ZM2055.03 674.698H2049.82V640.352H2055.03V674.698ZM2055.03 613.292H2049.82V579.466H2055.03V613.292ZM2055.03 552.406H2049.82V518.58H2055.03V552.406ZM2055.03 491.52H2049.82V457.695H2055.03V491.52ZM2086.79 667.933H2060.76V661.168H2086.79V667.933ZM2086.79 647.117H2060.76V640.352H2086.79V647.117ZM2086.79 626.822H2060.76V620.057H2086.79V626.822ZM2086.79 606.527H2060.76V599.762H2086.79V606.527ZM2086.79 586.232H2060.76V579.466H2086.79V586.232ZM2086.79 565.936H2060.76V559.171H2086.79V565.936ZM2086.79 525.346H2060.76V518.58H2086.79V525.346ZM2086.79 505.05H2060.76V498.285H2086.79V505.05ZM2086.79 484.755H2060.76V477.99H2086.79V484.755ZM2086.79 464.46H2060.76V457.695H2086.79V464.46Z" fill="#FBFBFB"/>
</svg>
