<svg width="257" height="536" viewBox="0 0 257 536" fill="none" xmlns="http://www.w3.org/2000/svg">
<mask id="path-1-outside-1_959_5926" maskUnits="userSpaceOnUse" x="0" y="0" width="257" height="536" fill="black">
<rect fill="white" width="257" height="536"/>
<path d="M1 56C1 47.1634 8.16344 40 17 40H240C248.837 40 256 47.1634 256 56V480C256 488.837 248.837 496 240 496H17C8.16344 496 1 488.837 1 480V56Z"/>
</mask>
<path d="M0 17C0 7.61116 7.61116 0 17 0H240C249.389 0 257 7.61116 257 17L255 80C255 80 248.284 80 240 80H17C8.71573 80 2 80 2 80L0 17ZM257 519C257 528.389 249.389 536 240 536H17C7.61116 536 0 528.389 0 519L2 456C2 456 8.71573 456 17 456H240C248.284 456 255 456 255 456L257 519ZM17 536C7.61116 536 0 528.389 0 519V17C0 7.61116 7.61116 0 17 0V80C8.71573 80 2 80 2 80V456C2 456 8.71573 456 17 456V536ZM240 0C249.389 0 257 7.61116 257 17V519C257 528.389 249.389 536 240 536V456C248.284 456 255 456 255 456V80C255 80 248.284 80 240 80V0Z" fill="#222222" mask="url(#path-1-outside-1_959_5926)"/>
</svg>
