<svg width="253" height="572" viewBox="0 0 253 572" fill="none" xmlns="http://www.w3.org/2000/svg">
<mask id="path-1-outside-1_959_5927" maskUnits="userSpaceOnUse" x="0" y="0" width="253" height="572" fill="black">
<rect fill="white" width="253" height="572"/>
<path d="M10 48C10 39.1634 17.1634 32 26 32H227C235.837 32 243 39.1634 243 48V524C243 532.837 235.837 540 227 540H26C17.1635 540 10 532.837 10 524V48Z"/>
</mask>
<path d="M0 26C0 11.6406 11.6406 0 26 0H227C241.359 0 253 11.6406 253 26L233 64C233 64 230.314 64 227 64H26C22.6863 64 20 64 20 64L0 26ZM253 546C253 560.359 241.359 572 227 572H26C11.6406 572 0 560.359 0 546L20 508C20 508 22.6863 508 26 508H227C230.314 508 233 508 233 508L253 546ZM26 572C11.6406 572 0 560.359 0 546V26C0 11.6406 11.6406 0 26 0V64C22.6863 64 20 64 20 64V508C20 508 22.6863 508 26 508V572ZM227 0C241.359 0 253 11.6406 253 26V546C253 560.359 241.359 572 227 572V508C230.314 508 233 508 233 508V64C233 64 230.314 64 227 64V0Z" fill="#222222" mask="url(#path-1-outside-1_959_5927)"/>
</svg>
