<svg width="168" height="58" viewBox="0 0 168 58" fill="none" xmlns="http://www.w3.org/2000/svg">
<path fill-rule="evenodd" clip-rule="evenodd" d="M5.8257 0H162.174C165.377 0 168 2.64686 168 5.87848V52.1369C168 55.3531 165.377 58 162.174 58H5.8257C2.62309 58 0 55.3531 0 52.1369V5.87848C0 2.64686 2.62309 0 5.8257 0Z" fill="#222222"/>
<path fill-rule="evenodd" clip-rule="evenodd" d="M42.6103 22.9227C52.8194 29.1381 53.2786 27.8458 42.6103 34.3534L40.942 35.3688L33.9012 28.0765L39.5338 20.9689C40.9879 21.8919 42.0593 22.5842 42.6103 22.9227ZM32.8145 26.9535L13.3912 6.83047C16.284 6.30739 30.6104 15.292 38.2328 20.1535L32.8145 26.9535ZM39.595 36.1842L37.9267 37.1996L33.243 40.0457L28.5441 42.9072L23.8452 45.7534L19.1462 48.5995L16.085 50.4764L32.9216 29.2611L39.595 36.1842ZM13.5748 51.2149C13.483 51.1534 13.4218 51.0918 13.3453 51.0149C13.2687 50.938 13.2075 50.8611 13.1463 50.7687C13.085 50.6764 13.0391 50.5995 12.9932 50.5072C12.9473 50.4149 12.9167 50.3072 12.9014 50.1995C12.8708 50.1072 12.8555 49.9841 12.8555 49.8764V8.50739L31.8502 28.1842L13.5748 51.2149Z" fill="white"/>
<path d="M64.9899 36.1998H61.9287V34.0921H67.4847V41.0306C67.2705 41.1075 67.0256 41.1844 66.7194 41.2767C66.398 41.3536 66.046 41.4306 65.648 41.4921C65.2501 41.569 64.8521 41.6152 64.4389 41.6613C64.0103 41.7075 63.6123 41.7229 63.1991 41.7229C61.9746 41.7229 60.9032 41.5536 60.0001 41.2306C59.0665 40.8921 58.3165 40.4306 57.7042 39.8306C57.092 39.2306 56.6328 38.5075 56.3267 37.6767C56.0359 36.846 55.8828 35.9229 55.8828 34.9229C55.8828 34.2152 55.9746 33.5383 56.1277 32.8921C56.2961 32.246 56.541 31.6306 56.8471 31.0921C57.1532 30.5383 57.5359 30.0306 57.9644 29.5998C58.4083 29.1537 58.9134 28.7691 59.4797 28.4614C60.0613 28.1537 60.6736 27.9075 61.347 27.7383C62.0205 27.5691 62.7552 27.4768 63.5205 27.4768C64.2093 27.4768 64.8674 27.5383 65.495 27.6152C66.1072 27.7075 66.6123 27.846 67.0103 27.9845V30.1075C66.4746 29.9383 65.9388 29.8152 65.4031 29.7383C64.8521 29.646 64.3011 29.5998 63.7654 29.5998C63.0154 29.5998 62.3266 29.7075 61.6838 29.9383C61.0409 30.1691 60.4746 30.4921 60.0001 30.9229C59.5409 31.3537 59.1583 31.8921 58.8828 32.5383C58.6073 33.1691 58.4695 33.9075 58.4695 34.7383C58.4695 36.3691 58.8981 37.569 59.7246 38.3998C60.5664 39.1998 61.745 39.6152 63.2756 39.6152C63.5664 39.6152 63.8725 39.5998 64.1634 39.569C64.4695 39.5229 64.745 39.4921 64.9746 39.446V36.1998H64.9899ZM77.1888 36.4767C77.1888 35.9537 77.1122 35.4921 76.9898 35.0921C76.8826 34.6767 76.7143 34.3383 76.4847 34.0768C76.2704 33.7998 76.0102 33.5998 75.7041 33.4614C75.4133 33.3383 75.0765 33.2614 74.7092 33.2614C74.3572 33.2614 74.0357 33.3383 73.7296 33.4614C73.4388 33.5998 73.1633 33.7998 72.9643 34.0768C72.7347 34.3383 72.5663 34.6767 72.4592 35.0921C72.3367 35.4921 72.2602 35.9537 72.2602 36.4767C72.2602 36.9998 72.3367 37.4614 72.4592 37.8767C72.5663 38.2767 72.7347 38.6152 72.9643 38.8767C73.1939 39.1383 73.4388 39.3537 73.7449 39.4921C74.0357 39.6306 74.3724 39.7075 74.7398 39.7075C75.0918 39.7075 75.4286 39.6306 75.7194 39.4921C76.0255 39.3537 76.2857 39.1383 76.4847 38.8767C76.7143 38.6152 76.8826 38.2767 76.9898 37.8767C77.1122 37.4614 77.1888 36.9998 77.1888 36.4767ZM79.6836 36.4767C79.6836 37.2614 79.5765 37.969 79.3316 38.6152C79.102 39.2613 78.7653 39.8152 78.3367 40.2613C77.9081 40.7229 77.3877 41.0767 76.7755 41.3229C76.1633 41.5844 75.4898 41.7075 74.7245 41.7075C73.9439 41.7075 73.2551 41.5844 72.6276 41.3229C72.0153 41.0767 71.4949 40.7229 71.0511 40.2613C70.6225 39.8152 70.2857 39.2613 70.0715 38.6152C69.8419 37.9844 69.7347 37.2767 69.7347 36.4767C69.7347 35.7075 69.8419 34.9998 70.0868 34.3383C70.3164 33.7075 70.6531 33.1537 71.0817 32.6921C71.5102 32.246 72.0306 31.8921 72.6429 31.6306C73.2551 31.3691 73.9286 31.246 74.6939 31.246C75.4745 31.246 76.1633 31.3691 76.7908 31.6306C77.403 31.8921 77.9235 32.2306 78.3673 32.6921C78.7959 33.1537 79.1326 33.7075 79.3469 34.3383C79.5765 34.9998 79.6836 35.7075 79.6836 36.4767ZM88.7601 36.4767C88.7601 35.9537 88.6836 35.4921 88.5611 35.0921C88.454 34.6767 88.2856 34.3383 88.056 34.0768C87.8417 33.7998 87.5815 33.5998 87.2754 33.4614C86.9846 33.3383 86.6479 33.2614 86.2805 33.2614C85.9285 33.2614 85.6071 33.3383 85.3009 33.4614C85.0101 33.5998 84.7346 33.7998 84.5356 34.0768C84.306 34.3383 84.1377 34.6767 84.0152 35.0921C83.9081 35.4921 83.8316 35.9537 83.8316 36.4767C83.8316 36.9998 83.9081 37.4614 84.0152 37.8767C84.1377 38.2767 84.306 38.6152 84.5356 38.8767C84.7652 39.1383 85.0101 39.3537 85.3162 39.4921C85.607 39.6306 85.9438 39.7075 86.3111 39.7075C86.6632 39.7075 86.9999 39.6306 87.2907 39.4921C87.5815 39.3537 87.857 39.1383 88.056 38.8767C88.2856 38.6152 88.454 38.2767 88.5611 37.8767C88.6989 37.4614 88.7601 36.9998 88.7601 36.4767ZM91.2703 36.4767C91.2703 37.2614 91.1631 37.969 90.9182 38.6152C90.6887 39.2613 90.3519 39.8152 89.9234 40.2613C89.4948 40.7229 88.9744 41.0767 88.3621 41.3229C87.7499 41.5844 87.0764 41.7075 86.3111 41.7075C85.5305 41.7075 84.8418 41.5844 84.2142 41.3229C83.602 41.0767 83.0816 40.7229 82.6377 40.2613C82.2091 39.8152 81.8724 39.2613 81.6581 38.6152C81.4285 37.9844 81.3214 37.2767 81.3214 36.4767C81.3214 35.7075 81.4285 34.9998 81.6734 34.3383C81.903 33.7075 82.2244 33.1537 82.6683 32.6921C83.0969 32.246 83.6173 31.8921 84.2295 31.6306C84.8418 31.3691 85.5152 31.246 86.2805 31.246C87.0611 31.246 87.7499 31.3691 88.3774 31.6306C88.9897 31.8921 89.5101 32.2306 89.954 32.6921C90.3825 33.1537 90.704 33.7075 90.9335 34.3383C91.1478 34.9998 91.2703 35.7075 91.2703 36.4767ZM99.8416 41.7075C99.8416 41.569 99.8416 41.3998 99.8416 41.1998C99.8416 40.9998 99.8569 40.8306 99.8723 40.6921H99.8569C99.7039 40.8152 99.5355 40.9383 99.3365 41.0613C99.1376 41.169 98.9233 41.2921 98.6937 41.3844C98.4641 41.4767 98.2192 41.569 97.9284 41.6306C97.6529 41.6921 97.3468 41.7229 97.0712 41.7229C96.5355 41.7229 96.0304 41.6306 95.5253 41.446C95.0202 41.2613 94.5764 40.969 94.1937 40.5536C93.7958 40.1383 93.4896 39.6152 93.2601 38.9844C93.0152 38.3537 92.908 37.5844 92.908 36.6767C92.908 35.7844 93.0152 34.9998 93.2601 34.3229C93.5203 33.6614 93.8417 33.0921 94.2243 32.646C94.6376 32.1998 95.0968 31.8614 95.6172 31.6306C96.1376 31.3998 96.6733 31.2768 97.2396 31.2768C97.8366 31.2768 98.3723 31.4152 98.8468 31.6768C99.3212 31.9383 99.7039 32.2614 100.01 32.646H100.056L100.148 31.5229H102.275V41.6306C102.275 42.2152 102.229 42.7075 102.138 43.1229C102.046 43.5383 101.893 43.9075 101.709 44.2459C101.495 44.6152 101.219 44.9382 100.882 45.2152C100.546 45.4921 100.163 45.7382 99.7345 45.9229C99.3059 46.1075 98.8161 46.2306 98.2957 46.3382C97.7753 46.4305 97.2396 46.4767 96.658 46.4767C96.3366 46.4767 96.0151 46.4613 95.709 46.4306C95.4029 46.4152 95.1121 46.369 94.8213 46.3382C94.5611 46.2921 94.3009 46.2459 94.056 46.1844C93.8264 46.1229 93.6427 46.0767 93.4743 46.0152V44.0306C93.9182 44.169 94.408 44.2921 94.8978 44.369C95.3876 44.4459 95.908 44.4613 96.459 44.4613C97.5457 44.4613 98.3722 44.2613 98.9692 43.8459C99.5661 43.4152 99.8569 42.7844 99.8569 41.9383V41.7075H99.8416ZM97.6682 39.769C97.9131 39.769 98.1273 39.7383 98.3569 39.6767C98.5865 39.5998 98.7855 39.5383 98.9539 39.4306C99.1376 39.3383 99.3059 39.2152 99.4437 39.1075C99.5967 38.9998 99.7192 38.8767 99.8263 38.7537V34.3075C99.5661 34.0152 99.2447 33.7537 98.8774 33.5383C98.4794 33.3229 98.0968 33.2306 97.6529 33.2152C97.4998 33.2152 97.3467 33.246 97.1784 33.2768C97.01 33.3229 96.8416 33.3844 96.6733 33.4768C96.5049 33.5691 96.3366 33.7075 96.1988 33.8768C96.0458 34.0306 95.908 34.2306 95.7856 34.4767C95.6784 34.7229 95.5713 35.0152 95.51 35.3691C95.4335 35.7075 95.4029 36.1075 95.4029 36.5537C95.4029 37.046 95.4641 37.4921 95.5406 37.8921C95.6325 38.2921 95.7856 38.6306 95.9692 38.8921C96.1682 39.169 96.3978 39.3844 96.6886 39.5229C96.9641 39.7075 97.3008 39.769 97.6682 39.769ZM105 41.446V26.5845H107.433V41.446H105ZM115.285 39.7537C115.76 39.7537 116.25 39.6921 116.755 39.6152C117.26 39.5229 117.78 39.369 118.301 39.1998V41.1383C117.995 41.2613 117.52 41.3998 116.862 41.5229C116.219 41.646 115.546 41.7075 114.857 41.7075C114.153 41.7075 113.495 41.6152 112.867 41.446C112.239 41.2613 111.688 40.969 111.214 40.569C110.755 40.1537 110.372 39.6306 110.097 38.9998C109.836 38.3537 109.683 37.569 109.683 36.6614C109.683 35.7537 109.806 34.9691 110.066 34.2921C110.326 33.6152 110.678 33.046 111.122 32.6152C111.551 32.1691 112.056 31.846 112.607 31.6152C113.173 31.3845 113.755 31.2768 114.352 31.2768C114.979 31.2768 115.561 31.3691 116.097 31.5691C116.617 31.7537 117.076 32.046 117.459 32.4768C117.857 32.8921 118.148 33.4152 118.362 34.046C118.591 34.6921 118.683 35.4614 118.683 36.3537C118.683 36.6921 118.668 36.969 118.653 37.2152H112.148C112.194 37.6767 112.285 38.0767 112.454 38.3998C112.622 38.7229 112.852 38.9998 113.127 39.1844C113.387 39.3998 113.724 39.5383 114.076 39.6306C114.444 39.7075 114.857 39.7537 115.285 39.7537ZM114.306 33.1537C114 33.1537 113.724 33.2152 113.495 33.3229C113.25 33.4306 113.066 33.5844 112.882 33.7844C112.714 33.9844 112.576 34.2152 112.469 34.4614C112.362 34.7229 112.301 34.9998 112.255 35.2921H116.143C116.143 34.9998 116.097 34.7229 116.035 34.4614C115.944 34.1998 115.836 33.9844 115.683 33.7844C115.53 33.5844 115.331 33.4306 115.102 33.3229C114.887 33.1998 114.612 33.1537 114.306 33.1537ZM129.306 36.1383C129.076 36.1383 128.862 36.1229 128.632 36.1229C128.418 36.1075 128.204 36.0921 128.035 36.0767V41.446H125.525V27.7229H129.474C130.132 27.7229 130.714 27.7537 131.204 27.8152C131.693 27.8768 132.137 27.9537 132.52 28.0768C133.454 28.3537 134.173 28.8306 134.678 29.446C135.183 30.0768 135.443 30.8768 135.443 31.846C135.443 32.5075 135.306 33.1075 135.03 33.646C134.755 34.1844 134.357 34.6152 133.836 34.9844C133.301 35.3691 132.673 35.646 131.908 35.846C131.142 36.046 130.27 36.1383 129.306 36.1383ZM128.02 33.9691C128.158 33.9998 128.341 34.0152 128.556 34.0306C128.785 34.046 129.015 34.046 129.26 34.046C129.918 34.046 130.5 33.9844 130.943 33.8768C131.387 33.7844 131.755 33.6152 132.045 33.4306C132.321 33.2306 132.52 32.9998 132.642 32.7229C132.765 32.446 132.826 32.1383 132.826 31.8152C132.826 31.3998 132.734 31.046 132.551 30.7537C132.367 30.4768 132.061 30.246 131.602 30.0768C131.357 29.9845 131.081 29.9383 130.729 29.8922C130.377 29.846 129.949 29.8306 129.443 29.8306H128.035V33.9691H128.02ZM137.862 41.446V26.5845H140.295V41.446H137.862ZM148.867 40.3844H148.821C148.698 40.5229 148.53 40.6767 148.346 40.8306C148.147 40.969 147.918 41.1075 147.688 41.2613C147.443 41.3844 147.168 41.5075 146.877 41.569C146.586 41.6613 146.265 41.6921 145.913 41.6921C145.438 41.6921 144.994 41.6152 144.596 41.4613C144.183 41.3229 143.831 41.1075 143.54 40.8306C143.249 40.569 143.02 40.2306 142.852 39.8306C142.683 39.4306 142.591 38.9998 142.591 38.5229C142.591 37.9844 142.683 37.5075 142.882 37.0767C143.081 36.646 143.341 36.3075 143.693 35.9998C144.03 35.7075 144.459 35.4767 144.933 35.3229C145.423 35.1691 145.959 35.0921 146.556 35.0921C146.984 35.0921 147.367 35.1229 147.734 35.1691C148.086 35.2306 148.408 35.2921 148.668 35.3691V34.9691C148.668 34.7383 148.637 34.5229 148.561 34.3075C148.469 34.0768 148.362 33.8921 148.178 33.7229C148.01 33.5537 147.78 33.4306 147.505 33.3229C147.229 33.2306 146.892 33.1691 146.479 33.1691C145.989 33.1691 145.499 33.2306 145.01 33.3383C144.535 33.4306 143.999 33.5998 143.418 33.8152V31.9229C143.923 31.7075 144.443 31.5383 145.01 31.4306C145.576 31.3075 146.142 31.246 146.77 31.2306C147.489 31.2306 148.117 31.3229 148.668 31.4921C149.203 31.6768 149.663 31.9229 150.015 32.2306C150.382 32.5383 150.658 32.9075 150.841 33.3383C151.025 33.7691 151.101 34.2306 151.101 34.7229V38.4767C151.101 39.1229 151.101 39.6921 151.117 40.169C151.132 40.6306 151.147 41.0613 151.163 41.4306H148.989L148.867 40.3844ZM148.668 37.2152C148.438 37.1537 148.178 37.1229 147.887 37.0614C147.581 37.0152 147.29 36.9998 146.969 36.9998C146.372 36.9998 145.913 37.1075 145.576 37.3537C145.224 37.5998 145.056 37.9537 145.056 38.446C145.056 38.6613 145.101 38.8613 145.163 39.0306C145.255 39.1998 145.346 39.3383 145.484 39.4613C145.607 39.5537 145.76 39.646 145.943 39.7075C146.112 39.769 146.311 39.7998 146.51 39.7998C146.755 39.7998 146.984 39.769 147.198 39.7075C147.413 39.646 147.627 39.569 147.795 39.4613C147.979 39.369 148.132 39.246 148.285 39.1229C148.423 38.9998 148.545 38.8767 148.652 38.769V37.2152H148.668ZM152.586 31.5075H155.173L156.658 35.1075C157.209 36.4767 157.606 37.4921 157.836 38.1383H157.882C158.05 37.6306 158.418 36.6767 158.969 35.2921L160.499 31.5075H163.132L156.765 46.2152H154.362L156.642 40.8921L152.586 31.5075Z" fill="white"/>
<path d="M65.004 18.3691H60.4582L59.4327 20.846H58.5449L62.3255 12.0153H63.1214L66.9173 20.846H66.0449L65.004 18.3691ZM60.7184 17.7229H64.7439L62.7387 12.9076L60.7184 17.7229ZM70.1775 19.846L72.4275 14.2768H73.2846L70.4989 20.8306H69.8254L67.0397 14.2768H67.8816L70.1775 19.846ZM79.2233 20.8306C79.1315 20.6306 79.0856 20.3229 79.055 19.9229C78.7794 20.246 78.4121 20.5075 77.9529 20.6921C77.509 20.8768 77.0193 20.9537 76.5295 20.9537C75.8101 20.9537 75.2438 20.7844 74.7846 20.4306C74.356 20.0768 74.1264 19.6306 74.1264 19.0921C74.1264 18.4614 74.4172 17.9537 75.0295 17.5845C75.6417 17.2152 76.4835 17.0152 77.555 17.0152H79.0396V16.2614C79.0396 15.7999 78.8713 15.4306 78.5499 15.1537C78.2284 14.8922 77.7386 14.7383 77.1111 14.7383C76.5295 14.7383 76.055 14.8614 75.6876 15.1383C75.305 15.3999 75.106 15.7075 75.106 16.0768L74.2948 16.0614C74.2948 15.5383 74.555 15.0922 75.106 14.7229C75.657 14.3383 76.3458 14.1383 77.1417 14.1383C77.9682 14.1383 78.6111 14.3229 79.1009 14.6922C79.5907 15.0614 79.8356 15.5691 79.8509 16.2306V19.3229C79.8509 19.9537 79.9274 20.446 80.0805 20.7537V20.8306H79.2233ZM76.6366 20.3229C77.1876 20.3229 77.6774 20.2152 78.106 19.9691C78.5345 19.7383 78.856 19.4152 79.0396 19.0306V17.5691H77.5703C76.759 17.5845 76.1162 17.7075 75.6417 17.9691C75.1825 18.2306 74.9529 18.5845 74.9529 19.0306C74.9529 19.4152 75.106 19.7075 75.4121 19.9691C75.7489 20.2152 76.1315 20.3229 76.6366 20.3229ZM82.9733 20.8306H82.1621V14.2768H82.9733V20.8306ZM82.009 12.3845C82.009 12.246 82.0702 12.1229 82.1621 12.0306C82.2539 11.9383 82.407 11.8922 82.5906 11.8922C82.759 11.8922 82.8967 11.9383 83.0039 12.0306C83.111 12.1229 83.157 12.246 83.157 12.3845C83.157 12.5076 83.111 12.6306 83.0039 12.7229C82.9121 12.8153 82.759 12.8614 82.5906 12.8614C82.407 12.8614 82.2692 12.7999 82.1621 12.7229C82.0702 12.6306 82.009 12.5229 82.009 12.3845ZM86.1416 20.8306H85.3151V11.5229H86.1416V20.8306ZM93.0752 20.8306C92.9834 20.6306 92.9375 20.3229 92.9069 19.9229C92.6314 20.246 92.264 20.5075 91.8048 20.6921C91.361 20.8768 90.8712 20.9537 90.3814 20.9537C89.662 20.9537 89.0957 20.7844 88.6365 20.4306C88.2079 20.0768 87.9783 19.6306 87.9783 19.0921C87.9783 18.4614 88.2692 17.9537 88.8814 17.5845C89.4783 17.2152 90.3355 17.0152 91.4069 17.0152H92.8916V16.2614C92.8916 15.7999 92.7232 15.4306 92.4018 15.1537C92.0804 14.8922 91.6059 14.7383 90.963 14.7383C90.3814 14.7383 89.9069 14.8614 89.5396 15.1383C89.1569 15.3999 88.9579 15.7075 88.9579 16.0768L88.1467 16.0614C88.1467 15.5383 88.4069 15.0922 88.9579 14.7229C89.5243 14.3383 90.1977 14.1383 90.9936 14.1383C91.8202 14.1383 92.463 14.3229 92.9528 14.6922C93.4426 15.0614 93.6875 15.5691 93.7028 16.2306V19.3229C93.7028 19.9537 93.7946 20.446 93.9324 20.7537V20.8306H93.0752ZM90.4885 20.3229C91.0395 20.3229 91.5293 20.2152 91.9579 19.9691C92.3865 19.7383 92.7079 19.4152 92.8916 19.0306V17.5691H91.4222C90.611 17.5845 89.9681 17.7075 89.4936 17.9691C89.0345 18.2306 88.8049 18.5845 88.8049 19.0306C88.8049 19.4152 88.9579 19.7075 89.264 19.9691C89.6008 20.2152 89.9834 20.3229 90.4885 20.3229ZM101.907 17.6306C101.907 18.646 101.647 19.4614 101.142 20.0614C100.636 20.6614 99.9476 20.9691 99.0752 20.9691C98.0344 20.9691 97.2691 20.6306 96.7334 19.9537L96.6875 20.846H95.9222V11.5229H96.7334V15.2152C97.2538 14.5076 98.0191 14.1383 99.0446 14.1383C99.9323 14.1383 100.621 14.4306 101.142 15.0306C101.647 15.6306 101.907 16.4614 101.907 17.5075V17.6306ZM101.08 17.5075C101.08 16.646 100.897 15.9691 100.514 15.5075C100.131 15.046 99.5956 14.7999 98.8915 14.7999C98.3711 14.7999 97.9272 14.9076 97.5599 15.1383C97.1925 15.3845 96.9171 15.7075 96.7334 16.1383V19.1075C97.1466 19.9229 97.866 20.3383 98.9068 20.3383C99.5956 20.3383 100.116 20.1075 100.514 19.6306C100.897 19.1537 101.08 18.446 101.08 17.5075ZM104.647 20.8306H103.82V11.5229H104.647V20.8306ZM109.759 20.9537C109.131 20.9537 108.565 20.8306 108.044 20.5383C107.539 20.2768 107.141 19.8768 106.851 19.3998C106.575 18.9075 106.422 18.3537 106.422 17.7537V17.4922C106.422 16.8614 106.56 16.2922 106.835 15.7845C107.111 15.2922 107.509 14.8768 107.999 14.5999C108.488 14.3076 109.024 14.1691 109.606 14.1691C110.524 14.1691 111.228 14.4306 111.749 14.9845C112.284 15.5383 112.544 16.2768 112.544 17.2152V17.6306H107.233V17.7691C107.233 18.5075 107.478 19.1229 107.968 19.6306C108.442 20.1229 109.055 20.3691 109.789 20.3691C110.218 20.3691 110.616 20.2921 110.953 20.1537C111.289 20.0152 111.58 19.7845 111.871 19.4768L112.391 19.8152C111.794 20.5844 110.907 20.9537 109.759 20.9537ZM109.606 14.7691C108.993 14.7691 108.473 14.9691 108.044 15.3691C107.616 15.7691 107.371 16.3075 107.279 16.9845H111.749V16.8922C111.718 16.2768 111.504 15.7537 111.136 15.3537C110.769 14.9537 110.233 14.7691 109.606 14.7691ZM117.121 17.4614C117.121 16.846 117.259 16.2614 117.55 15.7691C117.81 15.2614 118.208 14.8614 118.713 14.5845C119.218 14.3076 119.8 14.1537 120.442 14.1537C121.422 14.1537 122.233 14.4614 122.845 15.0768C123.458 15.6922 123.779 16.5075 123.779 17.5229V17.6768C123.779 18.3075 123.641 18.8768 123.35 19.3845C123.075 19.8921 122.692 20.2921 122.187 20.5537C121.682 20.8306 121.101 20.9691 120.458 20.9691C119.478 20.9691 118.667 20.6768 118.055 20.046C117.442 19.446 117.121 18.6152 117.121 17.6152V17.4614ZM117.947 17.6768C117.947 18.446 118.177 19.1075 118.636 19.6152C119.095 20.1075 119.708 20.3691 120.442 20.3691C121.192 20.3691 121.789 20.1075 122.233 19.6152C122.692 19.1075 122.937 18.446 122.937 17.6152V17.4768C122.937 16.9691 122.83 16.5075 122.616 16.0922C122.402 15.6768 122.111 15.3537 121.728 15.1383C121.345 14.8922 120.917 14.7845 120.427 14.7845C119.692 14.7845 119.095 15.046 118.636 15.5537C118.177 16.0614 117.947 16.7229 117.947 17.5383V17.6768ZM126.228 14.2768L126.259 15.3999C126.534 14.9999 126.886 14.6922 127.315 14.4768C127.728 14.2614 128.187 14.1537 128.692 14.1537C129.488 14.1537 130.085 14.3537 130.483 14.7537C130.866 15.1537 131.065 15.7383 131.08 16.5537V20.846H130.254V16.5383C130.254 15.9537 130.116 15.5229 129.825 15.246C129.565 14.9537 129.106 14.8152 128.509 14.8152C127.988 14.8152 127.544 14.9537 127.146 15.246C126.764 15.5229 126.473 15.9075 126.289 16.3691V20.8614H125.463V14.3076H126.228V14.2768ZM137.891 12.5999V14.2768H139.422V14.8768H137.891V19.2614C137.891 19.6306 137.968 19.8921 138.105 20.0614C138.259 20.246 138.519 20.3229 138.871 20.3229C138.993 20.3229 139.223 20.3075 139.529 20.2614L139.56 20.8614C139.345 20.9383 139.054 20.9537 138.687 20.9537C138.121 20.9537 137.723 20.8152 137.447 20.5229C137.187 20.2306 137.065 19.7998 137.065 19.2306V14.846H135.687V14.246H137.065V12.5999H137.891ZM141.963 15.3845C142.223 14.9999 142.575 14.6922 143.003 14.4768C143.432 14.2614 143.891 14.1537 144.381 14.1537C145.177 14.1537 145.774 14.3537 146.172 14.7537C146.57 15.1537 146.769 15.7383 146.769 16.5537V20.846H145.957V16.5383C145.957 15.9537 145.804 15.5229 145.529 15.246C145.253 14.9537 144.794 14.8152 144.197 14.8152C143.692 14.8152 143.248 14.9537 142.85 15.246C142.452 15.5229 142.162 15.9075 141.978 16.3691V20.8614H141.167V11.5229H141.978V15.3845H141.963ZM151.743 20.9537C151.116 20.9537 150.534 20.8306 150.029 20.5383C149.508 20.2768 149.11 19.8768 148.835 19.3998C148.559 18.9075 148.406 18.3537 148.406 17.7537V17.4922C148.406 16.8614 148.544 16.2922 148.82 15.7845C149.095 15.2922 149.478 14.8768 149.983 14.5999C150.473 14.3076 151.008 14.1691 151.59 14.1691C152.493 14.1691 153.212 14.4306 153.733 14.9845C154.269 15.5383 154.529 16.2768 154.529 17.2152V17.6306H149.218V17.7691C149.218 18.5075 149.463 19.1229 149.952 19.6306C150.427 20.1229 151.039 20.3691 151.758 20.3691C152.202 20.3691 152.585 20.2921 152.922 20.1537C153.258 20.0152 153.565 19.7845 153.855 19.4768L154.36 19.8152C153.779 20.5844 152.906 20.9537 151.743 20.9537ZM151.59 14.7691C150.978 14.7691 150.457 14.9691 150.029 15.3691C149.6 15.7691 149.34 16.3075 149.264 16.9845H153.718V16.8922C153.702 16.2768 153.488 15.7537 153.121 15.3537C152.723 14.9691 152.233 14.7691 151.59 14.7691Z" fill="white"/>
</svg>
