<svg xmlns="http://www.w3.org/2000/svg" width="445" height="446" viewBox="0 0 445 446" fill="none"><defs><linearGradient id="Gradient-0" x1="190.9" y1="218.1" x2="178.1" y2="265.3" gradientUnits="userSpaceOnUse"><stop offset="0" stop-color="#febbba"/><stop offset="1" stop-color="#ff928e"/></linearGradient><linearGradient id="Gradient-1" x1="162.3" y1="216.6" x2="155.7" y2="194.7" gradientUnits="userSpaceOnUse"><stop offset="0" stop-color="#febbba"/><stop offset="1" stop-color="#ff928e"/></linearGradient><linearGradient id="Gradient-2" x1="109.2" y1="474.2" x2="179.2" y2="348.2" gradientUnits="userSpaceOnUse"><stop offset="0" stop-color="#febbba"/><stop offset="1" stop-color="#ff928e"/></linearGradient><linearGradient id="Gradient-3" x1="188.8" y1="380.6" x2="82.9" y2="415.6" gradientUnits="userSpaceOnUse"><stop offset="0" stop-color="#febbba"/><stop offset="1" stop-color="#ff928e"/></linearGradient><linearGradient id="Gradient-4" x1="166.4" y1="236.4" x2="221" y2="236.4" gradientUnits="userSpaceOnUse"><stop offset="0" stop-color="#febbba"/><stop offset="1" stop-color="#ff928e"/></linearGradient><linearGradient id="Gradient-5" x1="205" y1="223.1" x2="198.3" y2="248" gradientUnits="userSpaceOnUse"><stop offset="0" stop-color="#febbba"/><stop offset="1" stop-color="#ff928e"/></linearGradient><linearGradient id="Gradient-6" x1="174.3" y1="179.1" x2="136.2" y2="203.7" gradientUnits="userSpaceOnUse"><stop offset="0" stop-color="#febbba"/><stop offset="1" stop-color="#ff928e"/></linearGradient><linearGradient id="Gradient-7" x1="169" y1="170.8" x2="130.9" y2="195.4" gradientUnits="userSpaceOnUse"><stop offset="0" stop-color="#febbba"/><stop offset="1" stop-color="#ff928e"/></linearGradient></defs><style>
@keyframes a1_t { 0% { transform: translate(249.7px,138.9px); } 87.5% { transform: translate(249.7px,138.9px); animation-timing-function: cubic-bezier(.4,0,1,1); } 90% { transform: translate(249.7px,131px); animation-timing-function: cubic-bezier(.4,0,1,1); } 92.5% { transform: translate(249.7px,138.9px); } 100% { transform: translate(249.7px,138.9px); } }
@keyframes a2_t { 0% { transform: rotate(4deg); } 55% { transform: rotate(4deg); animation-timing-function: cubic-bezier(.4,0,.6,1); } 62.5% { transform: rotate(-4deg); animation-timing-function: cubic-bezier(.5,0,.6,1); } 70% { transform: rotate(6deg); animation-timing-function: cubic-bezier(.4,0,.3,1); } 77.5% { transform: rotate(-0.5deg); animation-timing-function: cubic-bezier(.1,-1,.5,1.3); } 92.5% { transform: rotate(0deg); } 100% { transform: rotate(0deg); } }
@keyframes a0_t { 0% { transform: scale(0,0) translate(-36.7px,-106.9px); } 55% { transform: scale(0,0) translate(-36.7px,-106.9px); animation-timing-function: cubic-bezier(.4,0,.6,1); } 62.5% { transform: scale(1.1,1.1) translate(-36.7px,-106.9px); animation-timing-function: cubic-bezier(.4,0,1,1); } 70% { transform: scale(1,1) translate(-36.7px,-106.9px); animation-timing-function: cubic-bezier(.4,0,1,1); } 75% { transform: scale(1,1) translate(-36.7px,-106.9px); animation-timing-function: cubic-bezier(0,0,.6,1); } 92.5% { transform: scale(1,1) translate(-36.7px,-106.9px); animation-timing-function: cubic-bezier(.4,0,.6,1); } 97.5% { transform: scale(0,0) translate(-36.7px,-106.9px); } 100% { transform: scale(0,0) translate(-36.7px,-106.9px); } }
@keyframes a3_o { 0% { opacity: 1; } 2.5% { opacity: 0; } 90% { opacity: 0; } 92.5% { opacity: 1; } 100% { opacity: 1; } }
@keyframes a3_fo { 0% { fill-opacity: 1; } 2.5% { fill-opacity: 1; } 90% { fill-opacity: 1; } 92.5% { fill-opacity: 1; } 100% { fill-opacity: 1; } }
@keyframes a4_o { 0% { opacity: 1; } 2.5% { opacity: 0; } 90% { opacity: 0; } 92.5% { opacity: 1; } 100% { opacity: 1; } }
@keyframes a4_fo { 0% { fill-opacity: 1; } 2.5% { fill-opacity: 1; } 90% { fill-opacity: 1; } 92.5% { fill-opacity: 1; } 100% { fill-opacity: 1; } }
@keyframes a5_o { 0% { opacity: 1; } 2.5% { opacity: 1; } 5% { opacity: 0; } 90% { opacity: 0; } 92.5% { opacity: 1; } 100% { opacity: 1; } }
@keyframes a5_fo { 0% { fill-opacity: 1; } 2.5% { fill-opacity: 1; } 5% { fill-opacity: 1; } 90% { fill-opacity: 1; } 92.5% { fill-opacity: 1; } 100% { fill-opacity: 1; } }
@keyframes a6_o { 0% { opacity: 1; } 5% { opacity: 1; } 7.5% { opacity: 0; } 90% { opacity: 0; } 92.5% { opacity: 1; } 100% { opacity: 1; } }
@keyframes a6_fo { 0% { fill-opacity: 1; } 5% { fill-opacity: 1; } 7.5% { fill-opacity: 1; } 90% { fill-opacity: 1; } 92.5% { fill-opacity: 1; } 100% { fill-opacity: 1; } }
@keyframes a7_o { 0% { opacity: 1; } 7.5% { opacity: 1; } 10% { opacity: 0; } 90% { opacity: 0; } 92.5% { opacity: 1; } 100% { opacity: 1; } }
@keyframes a7_fo { 0% { fill-opacity: 1; } 7.5% { fill-opacity: 1; } 10% { fill-opacity: 1; } 90% { fill-opacity: 1; } 92.5% { fill-opacity: 1; } 100% { fill-opacity: 1; } }
@keyframes a8_o { 0% { opacity: 1; } 10% { opacity: 1; } 12.5% { opacity: 0; } 90% { opacity: 0; } 92.5% { opacity: 1; } 100% { opacity: 1; } }
@keyframes a8_fo { 0% { fill-opacity: 1; } 10% { fill-opacity: 1; } 12.5% { fill-opacity: 1; } 90% { fill-opacity: 1; } 92.5% { fill-opacity: 1; } 100% { fill-opacity: 1; } }
@keyframes a9_o { 0% { opacity: 1; } 10% { opacity: 1; } 12.5% { opacity: 0; } 90% { opacity: 0; } 92.5% { opacity: 1; } 100% { opacity: 1; } }
@keyframes a9_fo { 0% { fill-opacity: 1; } 10% { fill-opacity: 1; } 12.5% { fill-opacity: 1; } 90% { fill-opacity: 1; } 92.5% { fill-opacity: 1; } 100% { fill-opacity: 1; } }
@keyframes a10_o { 0% { opacity: 1; } 12.5% { opacity: 1; } 15% { opacity: 0; } 90% { opacity: 0; } 92.5% { opacity: 1; } 100% { opacity: 1; } }
@keyframes a10_fo { 0% { fill-opacity: 1; } 12.5% { fill-opacity: 1; } 15% { fill-opacity: 1; } 90% { fill-opacity: 1; } 92.5% { fill-opacity: 1; } 100% { fill-opacity: 1; } }
@keyframes a11_o { 0% { opacity: 1; } 12.5% { opacity: 1; } 15% { opacity: 0; } 90% { opacity: 0; } 92.5% { opacity: 1; } 100% { opacity: 1; } }
@keyframes a11_fo { 0% { fill-opacity: 1; } 12.5% { fill-opacity: 1; } 15% { fill-opacity: 1; } 90% { fill-opacity: 1; } 92.5% { fill-opacity: 1; } 100% { fill-opacity: 1; } }
@keyframes a12_o { 0% { opacity: 1; } 15% { opacity: 1; } 17.5% { opacity: 0; } 90% { opacity: 0; } 92.5% { opacity: 1; } 100% { opacity: 1; } }
@keyframes a12_fo { 0% { fill-opacity: 1; } 15% { fill-opacity: 1; } 17.5% { fill-opacity: 1; } 90% { fill-opacity: 1; } 92.5% { fill-opacity: 1; } 100% { fill-opacity: 1; } }
@keyframes a13_o { 0% { opacity: 1; } 15% { opacity: 1; } 17.5% { opacity: 0; } 90% { opacity: 0; } 92.5% { opacity: 1; } 100% { opacity: 1; } }
@keyframes a13_fo { 0% { fill-opacity: 1; } 15% { fill-opacity: 1; } 17.5% { fill-opacity: 1; } 90% { fill-opacity: 1; } 92.5% { fill-opacity: 1; } 100% { fill-opacity: 1; } }
@keyframes a14_o { 0% { opacity: 1; } 15% { opacity: 1; } 17.5% { opacity: 0; } 90% { opacity: 0; } 92.5% { opacity: 1; } 100% { opacity: 1; } }
@keyframes a14_fo { 0% { fill-opacity: 1; } 15% { fill-opacity: 1; } 17.5% { fill-opacity: 1; } 90% { fill-opacity: 1; } 92.5% { fill-opacity: 1; } 100% { fill-opacity: 1; } }
@keyframes a15_o { 0% { opacity: 1; } 17.5% { opacity: 1; } 20% { opacity: 0; } 90% { opacity: 0; } 92.5% { opacity: 1; } 100% { opacity: 1; } }
@keyframes a15_fo { 0% { fill-opacity: 1; } 17.5% { fill-opacity: 1; } 20% { fill-opacity: 1; } 90% { fill-opacity: 1; } 92.5% { fill-opacity: 1; } 100% { fill-opacity: 1; } }
@keyframes a16_o { 0% { opacity: 1; } 17.5% { opacity: 1; } 20% { opacity: 0; } 90% { opacity: 0; } 92.5% { opacity: 1; } 100% { opacity: 1; } }
@keyframes a16_fo { 0% { fill-opacity: 1; } 17.5% { fill-opacity: 1; } 20% { fill-opacity: 1; } 90% { fill-opacity: 1; } 92.5% { fill-opacity: 1; } 100% { fill-opacity: 1; } }
@keyframes a17_o { 0% { opacity: 1; } 17.5% { opacity: 1; } 20% { opacity: 0; } 90% { opacity: 0; } 92.5% { opacity: 1; } 100% { opacity: 1; } }
@keyframes a17_fo { 0% { fill-opacity: 1; } 17.5% { fill-opacity: 1; } 20% { fill-opacity: 1; } 90% { fill-opacity: 1; } 92.5% { fill-opacity: 1; } 100% { fill-opacity: 1; } }
@keyframes a18_o { 0% { opacity: 1; } 20% { opacity: 1; } 22.5% { opacity: 0; } 90% { opacity: 0; } 92.5% { opacity: 1; } 100% { opacity: 1; } }
@keyframes a18_fo { 0% { fill-opacity: 1; } 20% { fill-opacity: 1; } 22.5% { fill-opacity: 1; } 90% { fill-opacity: 1; } 92.5% { fill-opacity: 1; } 100% { fill-opacity: 1; } }
@keyframes a19_o { 0% { opacity: 1; } 20% { opacity: 1; } 22.5% { opacity: 0; } 90% { opacity: 0; } 92.5% { opacity: 1; } 100% { opacity: 1; } }
@keyframes a19_fo { 0% { fill-opacity: 1; } 20% { fill-opacity: 1; } 22.5% { fill-opacity: 1; } 90% { fill-opacity: 1; } 92.5% { fill-opacity: 1; } 100% { fill-opacity: 1; } }
@keyframes a20_o { 0% { opacity: 1; } 20% { opacity: 1; } 22.5% { opacity: 0; } 90% { opacity: 0; } 92.5% { opacity: 1; } 100% { opacity: 1; } }
@keyframes a20_fo { 0% { fill-opacity: 1; } 20% { fill-opacity: 1; } 22.5% { fill-opacity: 1; } 90% { fill-opacity: 1; } 92.5% { fill-opacity: 1; } 100% { fill-opacity: 1; } }
@keyframes a21_o { 0% { opacity: 1; } 22.5% { opacity: 1; } 25% { opacity: 0; } 90% { opacity: 0; } 92.5% { opacity: 1; } 100% { opacity: 1; } }
@keyframes a21_fo { 0% { fill-opacity: 1; } 22.5% { fill-opacity: 1; } 25% { fill-opacity: 1; } 90% { fill-opacity: 1; } 92.5% { fill-opacity: 1; } 100% { fill-opacity: 1; } }
@keyframes a22_o { 0% { opacity: 1; } 22.5% { opacity: 1; } 25% { opacity: 0; } 90% { opacity: 0; } 92.5% { opacity: 1; } 100% { opacity: 1; } }
@keyframes a22_fo { 0% { fill-opacity: 1; } 22.5% { fill-opacity: 1; } 25% { fill-opacity: 1; } 90% { fill-opacity: 1; } 92.5% { fill-opacity: 1; } 100% { fill-opacity: 1; } }
@keyframes a23_o { 0% { opacity: 1; } 22.5% { opacity: 1; } 25% { opacity: 0; } 90% { opacity: 0; } 92.5% { opacity: 1; } 100% { opacity: 1; } }
@keyframes a23_fo { 0% { fill-opacity: 1; } 22.5% { fill-opacity: 1; } 25% { fill-opacity: 1; } 90% { fill-opacity: 1; } 92.5% { fill-opacity: 1; } 100% { fill-opacity: 1; } }
@keyframes a24_o { 0% { opacity: 1; } 25% { opacity: 1; } 27.5% { opacity: 0; } 90% { opacity: 0; } 92.5% { opacity: 1; } 100% { opacity: 1; } }
@keyframes a24_fo { 0% { fill-opacity: 1; } 25% { fill-opacity: 1; } 27.5% { fill-opacity: 1; } 90% { fill-opacity: 1; } 92.5% { fill-opacity: 1; } 100% { fill-opacity: 1; } }
@keyframes a25_o { 0% { opacity: 1; } 25% { opacity: 1; } 27.5% { opacity: 0; } 90% { opacity: 0; } 92.5% { opacity: 1; } 100% { opacity: 1; } }
@keyframes a25_fo { 0% { fill-opacity: 1; } 25% { fill-opacity: 1; } 27.5% { fill-opacity: 1; } 90% { fill-opacity: 1; } 92.5% { fill-opacity: 1; } 100% { fill-opacity: 1; } }
@keyframes a26_o { 0% { opacity: 1; } 25% { opacity: 1; } 27.5% { opacity: 0; } 90% { opacity: 0; } 92.5% { opacity: 1; } 100% { opacity: 1; } }
@keyframes a26_fo { 0% { fill-opacity: 1; } 25% { fill-opacity: 1; } 27.5% { fill-opacity: 1; } 90% { fill-opacity: 1; } 92.5% { fill-opacity: 1; } 100% { fill-opacity: 1; } }
@keyframes a27_o { 0% { opacity: 1; } 27.5% { opacity: 1; } 30% { opacity: 0; } 90% { opacity: 0; } 92.5% { opacity: 1; } 100% { opacity: 1; } }
@keyframes a27_fo { 0% { fill-opacity: 1; } 27.5% { fill-opacity: 1; } 30% { fill-opacity: 1; } 90% { fill-opacity: 1; } 92.5% { fill-opacity: 1; } 100% { fill-opacity: 1; } }
@keyframes a28_o { 0% { opacity: 0; } 90% { opacity: 0; } 92.5% { opacity: 1; } 100% { opacity: 1; } }
@keyframes a28_fo { 0% { fill-opacity: 1; } 90% { fill-opacity: 1; } 92.5% { fill-opacity: 1; } 100% { fill-opacity: 1; } }
@keyframes a29_o { 0% { opacity: 0; } 90% { opacity: 0; } 92.5% { opacity: 1; } 100% { opacity: 1; } }
@keyframes a29_fo { 0% { fill-opacity: 1; } 90% { fill-opacity: 1; } 92.5% { fill-opacity: 1; } 100% { fill-opacity: 1; } }
@keyframes a30_o { 0% { opacity: 0; } 90% { opacity: 0; } 92.5% { opacity: 1; } 100% { opacity: 1; } }
@keyframes a30_fo { 0% { fill-opacity: 1; } 90% { fill-opacity: 1; } 92.5% { fill-opacity: 1; } 100% { fill-opacity: 1; } }
@keyframes a31_o { 0% { opacity: 1; } 27.5% { opacity: 1; } 30% { opacity: 0; } 90% { opacity: 0; } 92.5% { opacity: 1; } 100% { opacity: 1; } }
@keyframes a31_fo { 0% { fill-opacity: 1; } 27.5% { fill-opacity: 1; } 30% { fill-opacity: 1; } 90% { fill-opacity: 1; } 92.5% { fill-opacity: 1; } 100% { fill-opacity: 1; } }
@keyframes a32_o { 0% { opacity: 1; } 30% { opacity: 1; } 32.5% { opacity: 0; } 90% { opacity: 0; } 92.5% { opacity: 1; } 100% { opacity: 1; } }
@keyframes a32_fo { 0% { fill-opacity: 1; } 30% { fill-opacity: 1; } 32.5% { fill-opacity: 1; } 90% { fill-opacity: 1; } 92.5% { fill-opacity: 1; } 100% { fill-opacity: 1; } }
@keyframes a33_o { 0% { opacity: 1; } 30% { opacity: 1; } 32.5% { opacity: 0; } 90% { opacity: 0; } 92.5% { opacity: 1; } 100% { opacity: 1; } }
@keyframes a33_fo { 0% { fill-opacity: 1; } 30% { fill-opacity: 1; } 32.5% { fill-opacity: 1; } 90% { fill-opacity: 1; } 92.5% { fill-opacity: 1; } 100% { fill-opacity: 1; } }
@keyframes a34_o { 0% { opacity: 1; } 32.5% { opacity: 1; } 35% { opacity: 0; } 90% { opacity: 0; } 92.5% { opacity: 1; } 100% { opacity: 1; } }
@keyframes a34_fo { 0% { fill-opacity: 1; } 32.5% { fill-opacity: 1; } 35% { fill-opacity: 1; } 90% { fill-opacity: 1; } 92.5% { fill-opacity: 1; } 100% { fill-opacity: 1; } }
@keyframes a35_o { 0% { opacity: 1; } 32.5% { opacity: 1; } 35% { opacity: 0; } 90% { opacity: 0; } 92.5% { opacity: 1; } 100% { opacity: 1; } }
@keyframes a35_fo { 0% { fill-opacity: 1; } 32.5% { fill-opacity: 1; } 35% { fill-opacity: 1; } 90% { fill-opacity: 1; } 92.5% { fill-opacity: 1; } 100% { fill-opacity: 1; } }
@keyframes a36_o { 0% { opacity: 1; } 35% { opacity: 1; } 37.5% { opacity: 0; } 90% { opacity: 0; } 92.5% { opacity: 1; } 100% { opacity: 1; } }
@keyframes a36_fo { 0% { fill-opacity: 1; } 35% { fill-opacity: 1; } 37.5% { fill-opacity: 1; } 90% { fill-opacity: 1; } 92.5% { fill-opacity: 1; } 100% { fill-opacity: 1; } }
@keyframes a37_o { 0% { opacity: 1; } 35% { opacity: 1; } 37.5% { opacity: 0; } 90% { opacity: 0; } 92.5% { opacity: 1; } 100% { opacity: 1; } }
@keyframes a37_fo { 0% { fill-opacity: 1; } 35% { fill-opacity: 1; } 37.5% { fill-opacity: 1; } 90% { fill-opacity: 1; } 92.5% { fill-opacity: 1; } 100% { fill-opacity: 1; } }
@keyframes a38_o { 0% { opacity: 0; } 90% { opacity: 0; } 92.5% { opacity: 1; } 100% { opacity: 1; } }
@keyframes a38_fo { 0% { fill-opacity: 1; } 90% { fill-opacity: 1; } 92.5% { fill-opacity: 1; } 100% { fill-opacity: 1; } }
@keyframes a39_o { 0% { opacity: 1; } 37.5% { opacity: 1; } 40% { opacity: 0; } 90% { opacity: 0; } 92.5% { opacity: 1; } 100% { opacity: 1; } }
@keyframes a39_fo { 0% { fill-opacity: 1; } 37.5% { fill-opacity: 1; } 40% { fill-opacity: 1; } 90% { fill-opacity: 1; } 92.5% { fill-opacity: 1; } 100% { fill-opacity: 1; } }
@keyframes a40_o { 0% { opacity: 1; } 37.5% { opacity: 1; } 40% { opacity: 0; } 90% { opacity: 0; } 92.5% { opacity: 1; } 100% { opacity: 1; } }
@keyframes a40_fo { 0% { fill-opacity: 1; } 37.5% { fill-opacity: 1; } 40% { fill-opacity: 1; } 90% { fill-opacity: 1; } 92.5% { fill-opacity: 1; } 100% { fill-opacity: 1; } }
@keyframes a41_o { 0% { opacity: 1; } 40% { opacity: 1; } 42.5% { opacity: 0; } 90% { opacity: 0; } 92.5% { opacity: 1; } 100% { opacity: 1; } }
@keyframes a41_fo { 0% { fill-opacity: 1; } 40% { fill-opacity: 1; } 42.5% { fill-opacity: 1; } 90% { fill-opacity: 1; } 92.5% { fill-opacity: 1; } 100% { fill-opacity: 1; } }
@keyframes a42_o { 0% { opacity: 1; } 40% { opacity: 1; } 42.5% { opacity: 0; } 90% { opacity: 0; } 92.5% { opacity: 1; } 100% { opacity: 1; } }
@keyframes a42_fo { 0% { fill-opacity: 1; } 40% { fill-opacity: 1; } 42.5% { fill-opacity: 1; } 100% { fill-opacity: 1; } }
@keyframes a43_o { 0% { opacity: 1; } 42.5% { opacity: 1; } 45% { opacity: 0; } 90% { opacity: 0; } 92.5% { opacity: 1; } 100% { opacity: 1; } }
@keyframes a43_fo { 0% { fill-opacity: 1; } 42.5% { fill-opacity: 1; } 45% { fill-opacity: 1; } 90% { fill-opacity: 1; } 92.5% { fill-opacity: 1; } 100% { fill-opacity: 1; } }
@keyframes a44_o { 0% { opacity: 1; } 45% { opacity: 1; } 47.5% { opacity: 0; } 90% { opacity: 0; } 92.5% { opacity: 1; } 100% { opacity: 1; } }
@keyframes a44_fo { 0% { fill-opacity: 1; } 45% { fill-opacity: 1; } 47.5% { fill-opacity: 1; } 90% { fill-opacity: 1; } 92.5% { fill-opacity: 1; } 100% { fill-opacity: 1; } }
@keyframes a45_o { 0% { opacity: 1; } 47.5% { opacity: 1; } 50% { opacity: 0; } 90% { opacity: 0; } 92.5% { opacity: 1; } 100% { opacity: 1; } }
@keyframes a45_fo { 0% { fill-opacity: 1; } 47.5% { fill-opacity: 1; } 50% { fill-opacity: 1; } 90% { fill-opacity: 1; } 92.5% { fill-opacity: 1; } 100% { fill-opacity: 1; } }
@keyframes a46_o { 0% { opacity: 1; } 47.5% { opacity: 1; } 50% { opacity: 0; } 90% { opacity: 0; } 92.5% { opacity: 1; } 100% { opacity: 1; } }
@keyframes a46_fo { 0% { fill-opacity: 1; } 47.5% { fill-opacity: 1; } 50% { fill-opacity: 1; } 90% { fill-opacity: 1; } 92.5% { fill-opacity: 1; } 100% { fill-opacity: 1; } }
@keyframes a47_o { 0% { opacity: 1; } 50% { opacity: 1; } 52.5% { opacity: 0; } 90% { opacity: 0; } 92.5% { opacity: 1; } 100% { opacity: 1; } }
@keyframes a47_fo { 0% { fill-opacity: 1; } 50% { fill-opacity: 1; } 52.5% { fill-opacity: 1; } 90% { fill-opacity: 1; } 92.5% { fill-opacity: 1; } 100% { fill-opacity: 1; } }
@keyframes a48_o { 0% { opacity: 1; } 50% { opacity: 1; } 52.5% { opacity: 0; } 90% { opacity: 0; } 92.5% { opacity: 1; } 100% { opacity: 1; } }
@keyframes a48_fo { 0% { fill-opacity: 1; } 50% { fill-opacity: 1; } 52.5% { fill-opacity: 1; } 90% { fill-opacity: 1; } 92.5% { fill-opacity: 1; } 100% { fill-opacity: 1; } }
@keyframes a49_o { 0% { opacity: 1; } 52.5% { opacity: 1; } 55% { opacity: 0; } 90% { opacity: 0; } 92.5% { opacity: 1; } 100% { opacity: 1; } }
@keyframes a49_fo { 0% { fill-opacity: 1; } 52.5% { fill-opacity: 1; } 55% { fill-opacity: 1; } 90% { fill-opacity: 1; } 92.5% { fill-opacity: 1; } 100% { fill-opacity: 1; } }
@keyframes a50_o { 0% { opacity: 1; } 52.5% { opacity: 1; } 55% { opacity: 0; } 90% { opacity: 0; } 92.5% { opacity: 1; } 100% { opacity: 1; } }
@keyframes a50_fo { 0% { fill-opacity: 1; } 52.5% { fill-opacity: 1; } 55% { fill-opacity: 1; } 90% { fill-opacity: 1; } 92.5% { fill-opacity: 1; } 100% { fill-opacity: 1; } }
@keyframes a51_o { 0% { opacity: 1; } 55% { opacity: 1; } 57.5% { opacity: 0; } 90% { opacity: 0; } 92.5% { opacity: 1; } 100% { opacity: 1; } }
@keyframes a51_fo { 0% { fill-opacity: 1; } 55% { fill-opacity: 1; } 57.5% { fill-opacity: 1; } 90% { fill-opacity: 1; } 92.5% { fill-opacity: 1; } 100% { fill-opacity: 1; } }
@keyframes a52_o { 0% { opacity: 1; } 55% { opacity: 1; } 57.5% { opacity: 0; } 90% { opacity: 0; } 92.5% { opacity: 1; } 100% { opacity: 1; } }
@keyframes a52_fo { 0% { fill-opacity: 1; } 55% { fill-opacity: 1; } 57.5% { fill-opacity: 1; } 90% { fill-opacity: 1; } 92.5% { fill-opacity: 1; } 100% { fill-opacity: 1; } }
@keyframes a53_o { 0% { opacity: 1; } 55% { opacity: 1; } 57.5% { opacity: 0; } 90% { opacity: 0; } 92.5% { opacity: 1; } 100% { opacity: 1; } }
@keyframes a53_fo { 0% { fill-opacity: 1; } 55% { fill-opacity: 1; } 57.5% { fill-opacity: 1; } 90% { fill-opacity: 1; } 92.5% { fill-opacity: 1; } 100% { fill-opacity: 1; } }
@keyframes a54_o { 0% { opacity: 1; } 42.5% { opacity: 1; } 45% { opacity: 0; } 90% { opacity: 0; } 92.5% { opacity: 1; } 100% { opacity: 1; } }
@keyframes a54_fo { 0% { fill-opacity: 1; } 42.5% { fill-opacity: 1; } 45% { fill-opacity: 1; } 90% { fill-opacity: 1; } 92.5% { fill-opacity: 1; } 100% { fill-opacity: 1; } }
@keyframes a55_o { 0% { opacity: 1; } 37.5% { opacity: 1; } 40% { opacity: 0; } 90% { opacity: 0; } 92.5% { opacity: 1; } 100% { opacity: 1; } }
@keyframes a55_fo { 0% { fill-opacity: 1; } 37.5% { fill-opacity: 1; } 40% { fill-opacity: 1; } 90% { fill-opacity: 1; } 92.5% { fill-opacity: 1; } 100% { fill-opacity: 1; } }
@keyframes a56_o { 0% { opacity: 1; } 27.5% { opacity: 1; } 30% { opacity: 0; } 90% { opacity: 0; } 92.5% { opacity: 1; } 100% { opacity: 1; } }
@keyframes a56_fo { 0% { fill-opacity: 1; } 27.5% { fill-opacity: 1; } 30% { fill-opacity: 1; } 90% { fill-opacity: 1; } 92.5% { fill-opacity: 1; } 100% { fill-opacity: 1; } }
@keyframes a57_t { 0% { transform: translate(137.4px,226px) rotate(0deg) translate(-137.4px,-226px); } 17.5% { transform: translate(137.4px,226px) rotate(0deg) translate(-137.4px,-226px); animation-timing-function: cubic-bezier(0,0,.6,1); } 45% { transform: translate(137.4px,226px) rotate(3deg) translate(-137.4px,-226px); animation-timing-function: cubic-bezier(0,0,.6,1); } 100% { transform: translate(137.4px,226px) rotate(0deg) translate(-137.4px,-226px); } }
@keyframes a58_t { 0% { transform: translate(128.2px,210.8px) rotate(0deg) translate(-128.2px,-210.8px); } 17.5% { transform: translate(128.2px,210.8px) rotate(0deg) translate(-128.2px,-210.8px); animation-timing-function: cubic-bezier(0,0,.6,1); } 45% { transform: translate(128.2px,210.8px) rotate(3deg) translate(-128.2px,-210.8px); animation-timing-function: cubic-bezier(0,0,.6,1); } 100% { transform: translate(128.2px,210.8px) rotate(0deg) translate(-128.2px,-210.8px); } }
@keyframes a59_t { 0% { transform: translate(112px,279.6px) rotate(0deg) translate(-112px,-279.6px); } 17.5% { transform: translate(112px,279.6px) rotate(0deg) translate(-112px,-279.6px); animation-timing-function: cubic-bezier(0,0,.6,1); } 45% { transform: translate(112px,279.6px) rotate(3deg) translate(-112px,-279.6px); animation-timing-function: cubic-bezier(0,0,.6,1); } 100% { transform: translate(112px,279.6px) rotate(0deg) translate(-112px,-279.6px); } }
@keyframes a60_d { 0% { d: path('M145.9,218.8C145.9,218.8,142.6,266.4,173.3,242.5C173.3,242.5,177.8,238.2,181.1,237.7C182.8,237.4,184.8,237.3,186.3,237.1C186.9,237.1,187.2,238,186.7,238.3C185.6,239.1,184.3,239.9,183.1,240C180.8,240.2,183.2,241.9,180.7,246.4C178.2,250.8,174.6,249.1,174.6,249.1C174.6,249.1,139.4,285.2,132.4,222.3C132.2,210.6,143.4,211.2,145.9,218.8Z'); animation-timing-function: cubic-bezier(0,0,.6,1); } 7.5% { d: path('M145.9,218.8C145.9,218.8,136.9,264.4,167.6,240.5C167.6,240.5,172.1,236.2,175.4,235.7C177.1,235.4,179.1,235.3,180.6,235.2C181.2,235.1,181.5,236,181,236.4C179.9,237.1,178.6,237.9,177.4,238C175.1,238.3,177.5,240,175,244.4C172.5,248.8,168.9,247.2,168.9,247.2C168.9,247.2,139.4,285.2,132.4,222.3C132.2,210.6,143.4,211.2,145.9,218.8Z'); animation-timing-function: cubic-bezier(0,0,.6,1); } 15% { d: path('M145.9,218.8C145.9,218.8,142.6,266.4,173.3,242.5C173.3,242.5,177.8,238.2,181.1,237.7C182.8,237.4,184.8,237.3,186.3,237.1C186.9,237.1,187.2,238,186.7,238.3C185.6,239.1,184.3,239.9,183.1,240C180.8,240.2,183.2,241.9,180.7,246.4C178.2,250.8,174.6,249.1,174.6,249.1C174.6,249.1,139.4,285.2,132.4,222.3C132.2,210.6,143.4,211.2,145.9,218.8Z'); animation-timing-function: cubic-bezier(0,0,.6,1); } 32.5% { d: path('M145.9,218.8C145.9,218.8,136.9,264.4,167.6,240.5C167.6,240.5,172.1,236.2,175.4,235.7C177.1,235.4,179.1,235.3,180.6,235.2C181.2,235.1,181.5,236,181,236.4C179.9,237.1,178.6,237.9,177.4,238C175.1,238.3,177.5,240,175,244.4C172.5,248.8,168.9,247.2,168.9,247.2C168.9,247.2,139.4,285.2,132.4,222.3C132.2,210.6,143.4,211.2,145.9,218.8Z'); animation-timing-function: cubic-bezier(0,0,.6,1); } 55% { d: path('M145.9,218.8C145.9,218.8,142.6,266.4,173.3,242.5C173.3,242.5,177.8,238.2,181.1,237.7C182.8,237.4,184.8,237.3,186.3,237.1C186.9,237.1,187.2,238,186.7,238.3C185.6,239.1,184.3,239.9,183.1,240C180.8,240.2,183.2,241.9,180.7,246.4C178.2,250.8,174.6,249.1,174.6,249.1C174.6,249.1,139.4,285.2,132.4,222.3C132.2,210.6,143.4,211.2,145.9,218.8Z'); } 100% { d: path('M145.9,218.8C145.9,218.8,142.6,266.4,173.3,242.5C173.3,242.5,177.8,238.2,181.1,237.7C182.8,237.4,184.8,237.3,186.3,237.1C186.9,237.1,187.2,238,186.7,238.3C185.6,239.1,184.3,239.9,183.1,240C180.8,240.2,183.2,241.9,180.7,246.4C178.2,250.8,174.6,249.1,174.6,249.1C174.6,249.1,139.4,285.2,132.4,222.3C132.2,210.6,143.4,211.2,145.9,218.8Z'); } }
@keyframes a61_t { 0% { transform: translate(0px,0px); animation-timing-function: cubic-bezier(0,0,.6,1); } 7.5% { transform: translate(1.1px,-6.1px); animation-timing-function: cubic-bezier(0,0,.6,1); } 15% { transform: translate(0px,0px); animation-timing-function: cubic-bezier(0,0,.6,1); } 32.5% { transform: translate(1.1px,-6.1px); animation-timing-function: cubic-bezier(0,0,.6,1); } 55% { transform: translate(0px,0px); } 100% { transform: translate(0px,0px); } }
@keyframes a62_t { 0% { transform: translate(0px,0px); animation-timing-function: cubic-bezier(0,0,.6,1); } 7.5% { transform: translate(1.1px,-6.1px); animation-timing-function: cubic-bezier(.4,0,.6,1); } 15% { transform: translate(0px,0px); animation-timing-function: cubic-bezier(0,0,.6,1); } 32.5% { transform: translate(1.1px,-6.1px); animation-timing-function: cubic-bezier(.4,0,.6,1); } 55% { transform: translate(0px,0px); } 100% { transform: translate(0px,0px); } }
@keyframes a63_t { 0% { transform: translate(164.4px,185.4px) rotate(0deg) translate(-164.4px,-185.4px); } 17.5% { transform: translate(164.4px,185.4px) rotate(0deg) translate(-164.4px,-185.4px); animation-timing-function: cubic-bezier(0,0,.6,1); } 45% { transform: translate(165.4px,184.4px) rotate(10deg) translate(-164.4px,-185.4px); animation-timing-function: cubic-bezier(0,0,.6,1); } 100% { transform: translate(164.4px,185.4px) rotate(0deg) translate(-164.4px,-185.4px); } }
@keyframes a64_t { 0% { transform: translate(164.5px,172.7px) rotate(0deg) translate(-164.5px,-172.7px); } 17.5% { transform: translate(164.5px,172.7px) rotate(0deg) translate(-164.5px,-172.7px); animation-timing-function: cubic-bezier(0,0,.6,1); } 45% { transform: translate(164.5px,172.7px) rotate(3deg) translate(-164.5px,-172.7px); animation-timing-function: cubic-bezier(0,0,.6,1); } 100% { transform: translate(164.5px,172.7px) rotate(0deg) translate(-164.5px,-172.7px); } }
@keyframes a65_t { 0% { transform: translate(153px,181px) rotate(0deg) translate(-153px,-181px); } 17.5% { transform: translate(153px,181px) rotate(0deg) translate(-153px,-181px); animation-timing-function: cubic-bezier(0,0,.6,1); } 45% { transform: translate(153px,181px) rotate(3deg) translate(-153px,-181px); animation-timing-function: cubic-bezier(0,0,.6,1); } 100% { transform: translate(153px,181px) rotate(0deg) translate(-153px,-181px); } }
</style><path d="M391.2 383.3c-9.1 9.6-17.7 15.8-24.5 20.6c-79.8 57.5-174.3 40.8-194.4 36.7c-29.6-6.1-86.9-17.7-128.4-66.6c-62.7-74-52.9-190.5-4.3-267.4c8.9-14.1 55.9-92.2 151.4-104.7c57.8-7.6 125.1 7.7 173.9 48.7c102.4 86.1 95.1 259.9 26.3 332.7Z" fill="#eef5f9"/><path d="M31.1 21.7c-1.6 66-6.9 293.4-4.4 374c.3 8.5 7.1 15.4 15.7 15.7c42.1 1.4 163.4 4.9 232.4 2c14.3-0.7 25.8-12.3 26.1-26.7c1.4-69.2 4.6-263.9-2.9-353c-0.9-10.7-9.3-19.2-20-20.3c-45.9-4.6-167.9-15.8-227.4-11.9c-10.8 .6-19.2 9.5-19.5 20.2Z" fill="#222" style="isolation: isolate;"/><path d="M48.3 42.2c-2.3 54-9.6 233.7-7.3 300.1c.3 9.7 8 17.6 17.7 18.1c39.8 2.4 142.1 7.5 200.6 2.8c10.5-0.8 18.8-9.3 19.3-19.9c3-55.1 11.5-222.4 9.3-288.1c-0.4-10.4-8.5-19-18.9-19.9c-43.1-3.9-153.9-13.1-203.6-10.4c-9.3 .5-16.7 8-17.1 17.3Z" fill="#fbfbfb"/><path opacity=".5" d="M135.3 13c0 2 1.6 3.6 3.6 3.8c10 .5 38 2 50.6 2.7c2.4 .1 4.4-2.1 3.9-4.5l-0.1-0.4c-0.3-1.7-1.7-2.9-3.3-3.1c-8.5-0.8-34.1-2.9-51-2.3c-2.1 0-3.7 1.7-3.7 3.8Z" fill="#fbfbfb"/><path opacity=".73" d="M287.1 146.4l-47.6-0.6c-2.6 0-4.8-2.2-4.8-4.9c-0.2-43.9-0.4-103.1-0.1-108.7c0 .3-9-0.6-9-0.6c-0.2 2.8 0-1.2 0 4.8c-0.1 3.4-0.1 8.3-0.1 14.5c0 10.4 0 24.8 0 42.8c.1 30.5 .2 61.2 .2 61.5v3.4c.1 3.3 2.7 5.9 5.9 5.9h10.3c1.7 0 3.2 1.5 3.2 3.3v55.9c0 3.6-3 6.6-6.7 6.6h-25.5c-2.9 0-5.4-1.8-6.4-4.5l-19.7-54.5c-1.1-3.2-4.1-5.3-7.4-5.3h-23.8c-2 0-3.5-1.9-3.1-3.8l30.4-133.7l-12.5-0.9l-29 130.8c-1 4.4-4.9 7.6-9.5 7.6h-8.8c-3.2 0-5.8-2.6-5.8-5.9c0-11.8 .1-29.1 .1-46.3c0-18 0-32.3 0-42.7c0-20.8 .7-44.7 .3-46.1c0 0-5.9-0.1-5.9-0.2c.2 4.2 .8 87.8 .7 135.7c0 3.1-2.5 5.5-5.5 5.5h-8.3c-3.5 0-6.5-2.6-7-6.1c-5.2-39.3-17.6-133.4-17.9-135.5c-5.8 .1-11 .4-13.7 1.6c0 0 13.8 103.8 20.1 151.9c.5 3.9 3.9 6.9 7.9 6.9h36.9c3.3 0 5.5 3.3 4.3 6.3l-26 62.4c-1.5 3.6-5 5.9-8.9 5.9h-53.3l-0.3 18.8h56.4c4.7 0 8.9-2.8 10.7-7.1l33.5-80.6c1.5-3.5 4.9-5.7 8.7-5.7h25.3c3 0 5.7 1.9 6.7 4.7l13 36.1c.9 2.3-0.8 4.7-3.3 4.7h-36.1c-1.7 0-3.2 1.5-3.2 3.3v130.3h4.8v-117.5c0-3.3 2.8-6.1 6.2-6.1h31.1c3.5 0 6.7 2.2 7.9 5.6l38.7 107.3l7.2-11.2l-35-97.2c-0.8-2.2 .8-4.5 3.2-4.5h33.1c3.5 0 6.3-2.8 6.3-6.3v-64c0-3 2.4-5.5 5.4-5.5l25.7 .3v-18.4Z" fill="#e9edf2"/><g style="animation: 4s linear infinite both a1_t;"><g style="animation: 4s linear infinite both a2_t;"><g transform="translate(249.7,138.9) rotate(4) scale(0,0) translate(-36.7,-106.9)" style="isolation: isolate; animation: 4s linear infinite both a0_t;"><path d="M36.8 72c19.7 0 35.6-15.9 35.6-35.7c0-19.7-15.9-35.7-35.6-35.7c-19.7 0-35.7 16-35.7 35.7c0 19.8 16 35.7 35.7 35.7Z" fill="#ef6238"/><path d="M72.4 33h-35.6h-35.7c0 0-2.8 20.5 29 74.8c1.4 2.4 3.9 4.1 6.7 4.1c2.7 0 5.3-1.9 6.7-4.2c31.8-54.3 28.9-74.7 28.9-74.7Z" fill="#ef6238"/><path d="M37.6 113.5v.3h-0.8c-3.1 0-6-1.8-7.6-4.4c-18.6-31.8-25.4-51.9-27.8-63.1c-0.7-2.6-1.1-5.1-1.3-7.7c-0.2-2.7 0-3.8 0-3.9l.1-0.6c1.4-19.2 17.4-34.1 36.6-34.1c19.5 0 35.5 15.1 36.6 34.5c.1 .2 .1 .9 .1 1.9v.2c0 3.5-0.5 6.9-1.5 10.3c-2.5 11.2-8.9 31.1-27.2 62.3c-1.6 2.7-4.5 4.3-7.2 4.3Zm-35.5-77.8c0 0 0 1.5 .1 2.6v.1c.1 2.4 .5 4.9 1.2 7.3v.1c2.4 11.1 9.1 30.9 27.6 62.4c1.2 2 3.8 3.3 6.2 3.3l.4 1v-1c1.1 0 4.7-1.3 5.9-3.3c18.1-31 25.3-50.7 27.5-61.8v-0.1c.5-3.1 1-6.4 1-9.7l-0.5-0.2c0-1-0.1-1.6-0.1-1.7v-0.1c-1-18.2-16.2-32.5-34.6-32.5c-18.3 0-33.5 14.3-34.6 32.7v.9h-0.1Z" fill="#fff"/><path opacity=".8" d="M51.5 50.8c8-8 8-21.1 0-29.2c-8.1-8-21.1-8-29.2 0c-8 8.1-8 21.2 0 29.2c8.1 8.1 21.1 8.1 29.2 0Z" fill="#fff"/><path d="M36.9 58c-12 0-21.7-9.8-21.7-21.8c0-12 9.7-21.8 21.7-21.8c12 0 21.7 9.8 21.7 21.8c0 12-9.7 21.8-21.7 21.8Zm0-41.3c-10.7 0-19.4 8.8-19.4 19.5c0 10.7 8.7 19.5 19.4 19.5c10.7 0 19.4-8.8 19.4-19.5c0-10.7-8.7-19.5-19.4-19.5Z" fill="#ef6238"/><path d="M16.3 12c-0.1 0-0.2 0-0.3-0.1c-0.1-0.1-0.1-0.4 .1-0.5c5.8-5 13.1-7.7 20.8-7.7c.2 0 .3 .2 .3 .3c0 .2-0.1 .4-0.3 .4c-7.5 0-14.7 2.7-20.4 7.6c0 0-0.1 0-0.2 0Z" fill="#fff"/><path d="M5.3 36.1c-0.2 0-0.4-0.2-0.4-0.4c0-6 1.7-11.8 4.8-16.8c.1-0.2 .3-0.2 .5-0.1c.1 0 .2 .3 .1 .4c-3.1 5-4.7 10.7-4.7 16.5c0 .2-0.1 .4-0.3 .4Z" fill="#fff"/></g></g></g><path d="M226 389.6c0-8.4-6.8-15.2-15.2-15.2h-6.8c-8.4 0-15.2 6.8-15.2 15.2v40.6c0 8.4 6.8 15.2 15.2 15.2h6.8c8.4 0 15.2-6.8 15.2-15.2v-40.6Z" fill="#222"/><path d="M435.4 389.6c0-8.4-6.8-15.2-15.2-15.2h-6.7c-8.4 0-15.2 6.8-15.2 15.2v40.6c0 8.4 6.8 15.2 15.2 15.2h6.7c8.4 0 15.2-6.8 15.2-15.2v-40.6Z" fill="#222"/><path d="M209 313.4c-0.5-0.1-1.1-0.5-1.1-1v-3.1c0-3-1.4-5.8-4.1-7.1c-3.5-1.8-7.4-1.8-10.9-0.2l-6.2 3c-3 1.5-4.7 4.6-4.7 8v2.4c0 4.4 3 8.1 7.3 8.7l26.5 3.6l3.1-12.1l-9.9-2.2Z" fill="#d45834"/><path d="M416.6 313.4c.5-0.1 .8-0.5 .8-1v-3.1c0-3 1.7-5.8 4.4-7.1c3.4-1.8 7.5-1.8 11-0.2l6.8 3c3.1 1.5 5.4 4.6 5.4 8v2.4c0 4.4-3.6 8.1-7.9 8.7l-26.8 3.6l-3.3-12.1l9.6-2.2Z" fill="#d45834"/><path d="M436 340.2c-3.8-13-23.7-25.1-23.7-25.1c0 0-16.7-51.3-34.7-51.3c-14.4 0-49.1 0-62.2 0c0 0-1.9 0-5.1 0c-13.2 0-47.9 0-62.3 0c-18 0-34.7 51.3-34.7 51.3c0 0-19.9 12.1-23.7 25.1c-2.9 9.5 3.3 46.3 6.7 65.2c1.3 6.6 7.6 11.8 14.9 11.8h99.1h5.1h99c7.4 0 13.6-5.2 14.9-11.8c3.4-18.9 9.5-55.6 6.7-65.2Z" fill="#ef6238"/><path d="M433.5 394.8c-1.1-1.3-2.8-2.4-4.6-2.4h-232.2c-1.8 0-3.5 1.1-4.6 2.3c-1.2 1.3-1.6 3.1-1.2 4.7l3.8 15.5c.6 2.5 3 4.6 5.8 4.6h224.4c2.7 0 5.1-2 5.7-4.4l4-15.5c.5-1.6 0-3.6-1.1-4.8Z" fill="#d45834"/><path d="M250.1 371.5c0 0-5.8-17.4-13.1-18.9c-7.3-1.5-38.1-7.9-38.7-2.6c-0.7 5.4-6.9 23.8 11.5 25.6c18.4 1.7 43.2 3.1 40.3-4.1Z" fill="#fbfbfb"/><path d="M375.5 371.5c0 0 5.8-17.4 13.1-18.9c7.2-1.5 38.1-7.9 38.7-2.6c.6 5.4 6.8 23.8-11.6 25.6c-18.4 1.7-43.2 3.1-40.2-4.1Z" fill="#fbfbfb"/><path d="M371.3 356.4c-0.6-0.9-1.6-1.8-2.7-1.8h-111.7c-1.1 0-2.2 .9-2.7 1.9c-0.6 .9-0.6 2.3-0.1 3.3l6.3 12.2c2.3 4.4 6.9 7.4 11.8 7.4h82.1c5.3 0 10.1-3.3 12.3-8.2l5-11.5c.4-1 .3-2.4-0.3-3.3Z" fill="#d45834"/><path d="M401.8 319.5c-0.8 1.1-2 1.9-3.3 1.9h-171.4c-1.3 0-2.6-0.9-3.3-2c-0.7-1.1-0.8-2.6-0.2-3.8c3.8-8.2 11.1-23.5 15.2-32c.2-0.4 .4-0.8 .7-1.1c1.9-3.2 5.4-5.1 9.2-5.1h129.6c3.8 0 7.3 1.9 9.2 5.1c.3 .5 .6 .9 .8 1.4l13.8 31.8c.5 1.2 .4 2.6-0.3 3.8Z" fill="#222"/><path d="M387.5 282.5c-9 1.8-35.7 6.3-76 6.3c-40.5 0-64.3-4.6-72.1-6.4c2-3.1 5.5-5 9.3-5h129.6c3.8 0 7.3 2 9.2 5.1Z" fill="#222"/><path d="M68 36l20 140l94 .2l22.8 58.3h45.4l.6-80.5" stroke="#ef6238" stroke-linecap="round" stroke-width="8" stroke-linejoin="round"/><g transform="translate(62.1,8.4)"><path class="cls-2" d="M5.7 26.9l20.1 138.8h93.9l23 60.5h45.3v-79.3" stroke-width="8px" stroke-linecap="round" stroke-linejoin="round" stroke="#ef6238"/><path fill="#e9edf2" d="M0 0h10.9l-0.1 9.4h-10.9Z" transform="translate(-66.3,.2) rotate(-7.5) translate(62.8,30.6)" style="animation: 4s linear infinite both a3_o, 4s linear infinite both a3_fo;"/><path fill="#e9edf2" d="M0 0h10.9l-0.1 9.4h-10.9Z" transform="translate(-67.4,.4) rotate(-7.5) translate(63.9,38.9)" style="animation: 4s linear infinite both a4_o, 4s linear infinite both a4_fo;"/><rect class="cls-3" width="10.9" height="8.4" fill="#e9edf2" transform="translate(-68.5,.6) rotate(-7.5) translate(65,47.2)" style="animation: 4s linear infinite both a5_o, 4s linear infinite both a5_fo;"/><rect class="cls-3" width="10.9" height="8.4" fill="#e9edf2" transform="translate(-69.5,.8) rotate(-7.5) translate(66.1,55.3)" style="animation: 4s linear infinite both a6_o, 4s linear infinite both a6_fo;"/><rect class="cls-3" width="10.9" height="8.4" fill="#e9edf2" transform="translate(-70.6,1) rotate(-7.5) translate(67.2,63.5)" style="animation: 4s linear infinite both a7_o, 4s linear infinite both a7_fo;"/><rect class="cls-3" width="10.9" height="8.4" fill="#e9edf2" transform="translate(-71.7,1.2) rotate(-7.5) translate(68.3,71.7)" style="animation: 4s linear infinite both a8_o, 4s linear infinite both a8_fo;"/><rect class="cls-3" width="10.9" height="8.4" fill="#e9edf2" transform="translate(-72.7,1.5) rotate(-7.5) translate(69.3,79.9)" style="animation: 4s linear infinite both a9_o, 4s linear infinite both a9_fo;"/><rect class="cls-3" width="10.9" height="8.4" fill="#e9edf2" transform="translate(-73.8,1.7) rotate(-7.5) translate(70.4,88.1)" style="animation: 4s linear infinite both a10_o, 4s linear infinite both a10_fo;"/><rect class="cls-3" width="10.9" height="8.4" fill="#e9edf2" transform="translate(-74.9,1.9) rotate(-7.5) translate(71.5,96.3)" style="animation: 4s linear infinite both a11_o, 4s linear infinite both a11_fo;"/><path fill="#e9edf2" d="M0-0.5h10.9v8.9h-10.9Z" transform="translate(-75.9,2.1) rotate(-7.5) translate(72.6,104.6)" style="animation: 4s linear infinite both a12_o, 4s linear infinite both a12_fo;"/><rect class="cls-3" width="10.9" height="8.4" fill="#e9edf2" transform="translate(-77,2.3) rotate(-7.5) translate(73.7,112.8)" style="animation: 4s linear infinite both a13_o, 4s linear infinite both a13_fo;"/><path fill="#e9edf2" d="M0 0h10.9l.1 9.1h-11Z" transform="translate(-78.1,2.5) rotate(-7.5) translate(74.8,121)" style="animation: 4s linear infinite both a14_o, 4s linear infinite both a14_fo;"/><rect class="cls-3" width="10.9" height="8.4" fill="#e9edf2" transform="translate(-79.1,2.8) rotate(-7.5) translate(76.1,129.2)" style="animation: 4s linear infinite both a15_o, 4s linear infinite both a15_fo;"/><rect class="cls-3" width="10.9" height="8.4" fill="#e9edf2" transform="translate(-80.2,3) rotate(-7.5) translate(77.2,137.5)" style="animation: 4s linear infinite both a16_o, 4s linear infinite both a16_fo;"/><rect class="cls-3" width="10.9" height="8.4" fill="#e9edf2" transform="translate(-81.3,3.2) rotate(-7.5) translate(78.3,145.7)" style="animation: 4s linear infinite both a17_o, 4s linear infinite both a17_fo;"/><rect class="cls-3" width="10.9" height="8.4" fill="#e9edf2" transform="translate(-82.4,3.4) rotate(-7.5) translate(79.4,154)" style="animation: 4s linear infinite both a18_o, 4s linear infinite both a18_fo;"/><rect class="cls-3" width="10.9" height="8.4" fill="#e9edf2" transform="translate(-83.4,3.6) rotate(-7.5) translate(80.5,162.2)" style="animation: 4s linear infinite both a19_o, 4s linear infinite both a19_fo;"/><path fill="#e9edf2" d="M0 0h10.9v8.4l-12.8 .6Z" transform="translate(-167.5,195.4) rotate(-72.7) translate(80.9,169.5)" style="animation: 4s linear infinite both a20_o, 4s linear infinite both a20_fo;"/><path fill="#e9edf2" d="M-1 0h11.9v9.4h-11.9Z" transform="translate(-144,258.9) rotate(-90) translate(87.7,170.7)" style="animation: 4s linear infinite both a21_o, 4s linear infinite both a21_fo;"/><path fill="#e9edf2" d="M-1 0h11.9v8.4h-11.9Z" transform="translate(-135.4,267.1) rotate(-90) translate(96.1,170.5)" style="animation: 4s linear infinite both a22_o, 4s linear infinite both a22_fo;"/><path fill="#e9edf2" d="M-1 0h11.9v9.4h-11.9Z" transform="translate(-127.3,275.2) rotate(-90) translate(104.2,170.5)" style="animation: 4s linear infinite both a23_o, 4s linear infinite both a23_fo;"/><path fill="#e9edf2" d="M-1 0h11.9v9.4h-11.9Z" transform="translate(-118.9,283.6) rotate(-90) translate(112.6,170.5)" style="animation: 4s linear infinite both a24_o, 4s linear infinite both a24_fo;"/><path fill="#e9edf2" d="M-1 0h11.9v9.4h-11.9Z" transform="translate(-110.6,292) rotate(-90) translate(121,170.5)" style="animation: 4s linear infinite both a25_o, 4s linear infinite both a25_fo;"/><path fill="#e9edf2" d="M-1 0h11.9v9.4h-11.9Z" transform="translate(-102.2,300.3) rotate(-90) translate(129.3,170.5)" style="animation: 4s linear infinite both a26_o, 4s linear infinite both a26_fo;"/><path fill="#e9edf2" d="M-1 0h11.9v8.4h-11.9Z" transform="translate(-93.8,308.7) rotate(-90) translate(137.7,170.5)" style="animation: 4s linear infinite both a27_o, 4s linear infinite both a27_fo;"/><rect class="cls-3" width="10.9" height="8.4" fill="#e9edf2" opacity="0" transform="translate(-85.5,317.1) rotate(-90) translate(146.1,170.5)" style="animation: 4s linear infinite both a28_o, 4s linear infinite both a28_fo;"/><rect class="cls-3" width="10.9" height="8.4" fill="#e9edf2" opacity="0" transform="translate(-77.1,325.4) rotate(-90) translate(154.4,170.5)" style="animation: 4s linear infinite both a29_o, 4s linear infinite both a29_fo;"/><rect class="cls-3" width="10.9" height="8.4" fill="#e9edf2" opacity="0" transform="translate(-68.8,333.7) rotate(-90) translate(162.7,170.5)" style="animation: 4s linear infinite both a30_o, 4s linear infinite both a30_fo;"/><rect class="cls-3" width="10.9" height="8.4" fill="#e9edf2" transform="translate(-122.8,94.5) rotate(-27.5) translate(176.1,171.2)" style="animation: 4s linear infinite both a31_o, 4s linear infinite both a31_fo;"/><rect class="cls-3" width="10.1" height="8.4" fill="#e9edf2" transform="translate(-119.7,79.4) rotate(-23.4) translate(179.8,178.4)" style="animation: 4s linear infinite both a32_o, 4s linear infinite both a32_fo;"/><rect class="cls-3" width="10.1" height="8.4" fill="#e9edf2" transform="translate(-122.4,81.3) rotate(-23.4) translate(183.1,186)" style="animation: 4s linear infinite both a33_o, 4s linear infinite both a33_fo;"/><rect class="cls-3" width="9.6" height="8.4" fill="#e9edf2" transform="translate(-119.2,69.9) rotate(-20.4) translate(185.9,193.3)" style="animation: 4s linear infinite both a34_o, 4s linear infinite both a34_fo;"/><rect class="cls-3" width="9.6" height="8.4" fill="#e9edf2" transform="translate(-121.8,71.3) rotate(-20.4) translate(188.8,201)" style="animation: 4s linear infinite both a35_o, 4s linear infinite both a35_fo;"/><rect class="cls-3" width="9.6" height="8.4" fill="#e9edf2" transform="translate(-118.3,61.5) rotate(-17.9) translate(191.4,208.7)" style="animation: 4s linear infinite both a36_o, 4s linear infinite both a36_fo;"/><rect class="cls-3" width="9.6" height="8.4" fill="#e9edf2" transform="translate(-126.7,74.1) rotate(-20.4) translate(193.9,216)" style="animation: 4s linear infinite both a37_o, 4s linear infinite both a37_fo;"/><rect class="cls-3" width="9.6" height="8.4" fill="#e9edf2" opacity="0" transform="translate(-129.2,75.6) rotate(-20.4) translate(196.8,223.7)" style="animation: 4s linear infinite both a38_o, 4s linear infinite both a38_fo;"/><rect class="cls-3" width="9.6" height="8.4" fill="#e9edf2" transform="translate(-88.2,436.2) rotate(-90) translate(205,231.4)" style="animation: 4s linear infinite both a39_o, 4s linear infinite both a39_fo;"/><path fill="#e9edf2" d="M0 0h9.1v9.4h-9.1Z" transform="translate(-79.8,444) rotate(-90) translate(213.3,231.1)" style="animation: 4s linear infinite both a40_o, 4s linear infinite both a40_fo;"/><path fill="#e9edf2" d="M0 0h9.1v9.4h-9.1Z" transform="translate(-71.4,452.4) rotate(-90) translate(221.7,231.1)" style="animation: 4s linear infinite both a41_o, 4s linear infinite both a41_fo;"/><path fill="#e9edf2" d="M0 0h9.1v9.4h-9.1Z" transform="translate(-63.1,460.8) rotate(-90) translate(230,231.1)" style="animation: 4s linear infinite both a42_o, 4s linear infinite both a42_fo;"/><rect class="cls-3" width="9.1" height="8.4" fill="#e9edf2" transform="translate(-54.7,469.1) rotate(-90) translate(238.4,231.1)" style="animation: 4s linear infinite both a43_o, 4s linear infinite both a43_fo;"/><rect class="cls-3" width="9.1" height="8.4" fill="#e9edf2" transform="translate(438.3,449.2) rotate(180) translate(245.8,225)" style="animation: 4s linear infinite both a44_o, 4s linear infinite both a44_fo;"/><path fill="#e9edf2" d="M0-1h9.1v9.4h-9.1Z" transform="translate(438.3,432.5) rotate(180) translate(245.8,216.6)" style="animation: 4s linear infinite both a45_o, 4s linear infinite both a45_fo;"/><path fill="#e9edf2" d="M-1-1h10.1v9.4h-10.1Z" transform="translate(438.3,415.8) rotate(180) translate(245.8,208.3)" style="animation: 4s linear infinite both a46_o, 4s linear infinite both a46_fo;"/><path fill="#e9edf2" d="M0-1h9.1v9.4h-9.1Z" transform="translate(438.3,399) rotate(180) translate(245.8,199.9)" style="animation: 4s linear infinite both a47_o, 4s linear infinite both a47_fo;"/><path fill="#e9edf2" d="M-1-1h10.1v10.4h-10.1Z" transform="translate(438.3,382.3) rotate(180) translate(245.8,191.5)" style="animation: 4s linear infinite both a48_o, 4s linear infinite both a48_fo;"/><path fill="#e9edf2" d="M-1 0h10.1v9.4h-10.1Z" transform="translate(438.3,365.6) rotate(180) translate(245.8,183.2)" style="animation: 4s linear infinite both a49_o, 4s linear infinite both a49_fo;"/><path fill="#e9edf2" d="M-1 0h10.1v9.4h-10.1Z" transform="translate(438.3,348.9) rotate(180) translate(245.8,174.8)" style="animation: 4s linear infinite both a50_o, 4s linear infinite both a50_fo;"/><path fill="#e9edf2" d="M-1 0h10.1v9.4h-10.1Z" transform="translate(438.3,332.1) rotate(180) translate(245.8,166.4)" style="animation: 4s linear infinite both a51_o, 4s linear infinite both a51_fo;"/><path fill="#e9edf2" d="M-1 0h10.1v9.4h-10.1Z" transform="translate(438.3,315.4) rotate(180) translate(245.8,158.1)" style="animation: 4s linear infinite both a52_o, 4s linear infinite both a52_fo;"/><path fill="#e9edf2" d="M-1 0h10.1v8.4h-10.1Z" transform="translate(438.3,298.7) rotate(180) translate(245.8,149.7)" style="animation: 4s linear infinite both a53_o, 4s linear infinite both a53_fo;"/><path class="cls-3" d="M251.7 227.6l3.9 8.2c-1.1 1.8-3.4 4.6-8.6 4l-3.8-8.2Z" fill="#e9edf2" transform="translate(-62.3,-9.1)" style="animation: 4s linear infinite both a54_o, 4s linear infinite both a54_fo;"/><rect class="cls-3" width="9.7" height="9.2" fill="#e9edf2" transform="translate(-168.5,222) rotate(-48.3) translate(199.8,229.4)" style="animation: 4s linear infinite both a55_o, 4s linear infinite both a55_fo;"/><path fill="#e9edf2" d="M-1.9 .7l13.7-0.7v10.1l-13.7 .7Z" transform="translate(-110.7,269.2) rotate(-69.6) translate(169.9,168.9)" style="animation: 4s linear infinite both a56_o, 4s linear infinite both a56_fo;"/></g><g opacity=".63"><path d="M247.3 347.9c-0.2 0-0.3-0.1-0.4-0.2l-22.2-21.1c-0.3-0.2-0.3-0.6-0.1-0.9c.3-0.2 .7-0.3 .9 0l22.2 21c.3 .3 .3 .7 .1 .9c-0.1 .2-0.3 .3-0.5 .3Z" fill="#fff"/><path d="M376.6 347.9c-0.2 0-0.3-0.1-0.4-0.3c-0.3-0.2-0.3-0.6 0-0.9l22.2-21c.3-0.3 .7-0.3 .9 0c.3 .3 .3 .7 0 .9l-22.2 21.1c-0.2 .1-0.3 .2-0.5 .2Z" fill="#fff"/></g><path d="M104.6 250c3.4-5.7 4.3-10.8 3.2-17.4c-1.6-10.9-0.3-23 6.6-32c6.6-8.5 18.4-9.3 25.7-16.9c0 0 .2-0.3 .4-0.6c1.9-2.9 2.8-6.2 3-9.6c.7-21.4 16.2-21.1 23.6-17.1c11.6 6.4 9.1 18.4 9.1 18.4c-3.3 3.5-14.9-3.9-14.9-3.9l-4.8 7.7c1.3 .6 2.8 1.3 4.4 2.1c10.9 5.4 12.1 47.3 6 54.1c-6.2 6.7-7.3 13.1-1.1 24.1c6.2 11 2.6 25.3-30.4 37.2c-5.4 1.9-13.4 2.1-18.7 0c-11.6-4.7-18-18.6-18.3-30.5c-0.2-6 3.2-10.7 6.2-15.6Z" fill="#222" transform="translate(137.4,226) translate(-137.4,-226)" style="animation: 4s linear infinite both a57_t;"/><path d="M113.1 236.3c0 0-0.1-0.1-0.1-0.1c-1.3-15.2 3.3-25.2 7.4-30.9c5.2-7.2 11.3-10.3 14.1-11.1c6.1-1.5 8.9-8.7 8.9-8.8c.1 0 .1-0.1 .2-0.1c.1 .1 .1 .2 .1 .2c-0.1 .1-3 7.4-9.2 9c-3.5 .9-9.4 4.7-13.9 10.9c-4 5.7-8.7 15.6-7.3 30.7c0 .1-0.1 .2-0.2 .2Z" fill="#fff" transform="translate(128.2,210.8) translate(-128.2,-210.8)" style="animation: 4s linear infinite both a58_t;"/><path d="M118.5 289.6c0 0 0 0 0 0c-0.1-0.1-13.3-5.3-13-19.9c0-0.1 0-0.2 .1-0.2c.1 0 .1 .1 .1 .2c-0.2 14.4 12.7 19.6 12.9 19.6c0 .1 .1 .1 0 .2c0 .1 0 .1-0.1 .1Z" fill="#fff" transform="translate(112,279.6) translate(-112,-279.6)" style="animation: 4s linear infinite both a59_t;"/><path d="M198.8 236.1c0 0-14.3 17.2-28.8 3.2l-5.6 12.9c0 0 21.1 16.4 37.1-9.3l-2.7-6.8Z" fill="url(#Gradient-0)"/><path d="M163.4 204.2c-4-1.2-15.6-3.4-26.6 6.8c-1.8 1.7-2.6 4.3-1.9 6.8c2.9 10.9 10.7 43.1 3.9 57c0 0 12.1 13.3 25.2 2.6c0 0 5.9-25.8 13.6-37.1c5.4-7.8-8.5-29.3-12-34.5c-0.5-0.8-1.3-1.3-2.2-1.6Z" fill="#ef6238"/><path d="M157.2 183.4c0 0-8 15.7-9.4 22.9c0 0 6.1 3.8 12.8-0.3c0 0 2.8-16.4 4.1-19.2l-7.5-3.4Z" fill="url(#Gradient-1)"/><path d="M179.4 331.5c-0.1 1.2 2 10.4 3.1 15.4c.4 2 .1 4.1-0.9 5.8l-38.6 65.2c-0.5 .7-0.9 1.6-1.1 2.5c-0.7 3-2.1 10.5-1.4 17.3l2 4.2l-8.6-2l-1.9-23.2l2.5-1.5c2.1-1.3 3.7-3.2 4.7-5.5c3.5-8.5 12.1-30.2 14.4-40.7c2.5-12 15.8-21.7 15.8-21.7l-2.3-5.5l12.3-10.3Z" fill="url(#Gradient-2)"/><path d="M124.3 431.9c0 0 4.7-7.4 5.2-10.3c.5-2.9 2.1-7.9 5-6.4c0 0 1.3 14 .8 19.5c-0.4 5.5 6.2 5.3 6.2 5.3c0 0 1.9 .2 3.2 1.6c.9 .9 .3 2.5-1 2.6c-2.2 .1-5.7 .2-9.3-0.5c-1.3-0.3-2.2-1.4-2.3-2.6l-0.9-16.2l-5.9 7.5l-1-0.5Z" fill="#222"/><path d="M156.3 341.9c0 0-1.4 58.2-1.6 66.5c-0.2 8.3 1.3 26.6 9.6 32.1l-3.6 2.6c0 0-4.5-3.8-8.9-11.2c-4.9-8.2-6.4-9.8-6.4-9.8l1.6-3.3c.7-1.5 .9-3.2 .6-4.8c-1.8-8.6-7.8-37.5-9.4-43.7c-1.9-7.3-2-17.1 4.6-25.4c6.7-8.1 13.5-3 13.5-3Z" fill="url(#Gradient-3)"/><path d="M148.6 445.8c-0.2 0-0.5-0.2-0.5-0.5c-0.3-1.9-1.4-9.7-2.3-11.7c-1.1-2.3-4.6-12 0-12.9c0 0 11.4 16.7 13.5 19c2.2 2.2 5 .8 5 .8c0 0 2.1 .6 3.8 2.7c.7 .9 0 2.4-1.2 2.4l-7.7 .1c-2.3 0-4.3-1.4-5.1-3.4c-1.4-3.4-3.7-8.4-6.4-10.6l1.4 13.5c.1 .3-0.2 .6-0.5 .6Z" fill="#222"/><path d="M165.8 271.1c0 0-1.7 5.6 .9 14.7l16.6 57.7c.2 .9-0.3 1.8-1.2 2.2c-4.9 1.7-21.1 6.8-43.3 5.2c-1.1 0-2-0.8-2.3-1.9c-1.4-6.6-6.4-29.1-7.4-33.7c-3.9-17.6-7.7-34.3 11.5-45.8c8.8 3.9 16.5 3.8 25.2 1.6Z" fill="#ef6238"/><path d="M145.9 218.8c0 0-3.3 47.6 27.4 23.7c0 0 4.5-4.3 7.8-4.8c1.7-0.3 3.7-0.4 5.2-0.6c.6 0 .9 .9 .4 1.2c-1.1 .8-2.4 1.6-3.6 1.7c-2.3 .2 .1 1.9-2.4 6.4c-2.5 4.4-6.1 2.7-6.1 2.7c0 0-35.2 36.1-42.2-26.8c-0.2-11.7 11-11.1 13.5-3.5Z" fill="url(#Gradient-4)" style="animation: 4s linear infinite both a60_d;"/><path d="M207.7 224.2l-13.8-1.8c-1.6-0.2-3.4 1-4.4 3.1l-9.7 23.7c-1.8 3.6-0.7 8.2 2.1 8.7l11.1 1.3c1 .2 2.1-0.6 2.8-2l13-29.1c.8-1.7 .2-3.7-1.1-3.9Z" fill="#222" transform="translate(194,240.8) translate(-194,-240.8)" style="animation: 4s linear infinite both a61_t;"/><path d="M201.1 244.8c0 0 7-10.3 6.2-11.5c-0.8-1.3-7-3.1-8.5-3.5c-1.4-0.4-4.1 8.8 2.3 15Z" fill="url(#Gradient-5)" transform="translate(202.2,237.3) translate(-202.2,-237.3)" style="animation: 4s linear infinite both a62_t;"/><path d="M175.2 174.5c0 0 1.5 26.5-9.6 26.9c-11.1 .3-12.2-18.5-12.2-18.5c0 0 3.3-11.9 8.6-13.3c5.3-1.3 13.2 4.9 13.2 4.9Z" fill="url(#Gradient-6)" transform="translate(164.4,185.4) translate(-164.4,-185.4)" style="animation: 4s linear infinite both a63_t;"/><path d="M172 166.4c0 0 5 5.2 4.2 8.4c-0.9 3.2-11.8-0.1-14.5-1.7l-9 9.6c0 0 .3-14.2 6.5-18.6c6.2-4.3 12.8 2.3 12.8 2.3Z" fill="#222" transform="translate(164.5,172.7) translate(-164.5,-172.7)" style="animation: 4s linear infinite both a64_t;"/><path d="M156.8 183.2c0 0-1.4-9.1-5.8-6.5c-4.4 2.5 .3 9.5 3.8 9.1l2-2.6Z" fill="url(#Gradient-7)" transform="translate(153,181) translate(-153,-181)" style="animation: 4s linear infinite both a65_t;"/></svg>