<svg width="445" height="446" viewBox="0 0 445 446" fill="none" xmlns="http://www.w3.org/2000/svg">
<path d="M391.173 383.262C382.088 392.856 373.496 399.05 366.706 403.935C286.865 461.405 192.391 444.659 172.323 440.572C142.676 434.538 85.3731 422.852 43.9303 373.971C-18.7599 300.01 -8.98897 183.489 39.6266 106.559C48.5209 92.4948 95.4947 14.3993 190.988 1.86758C248.769 -5.71528 316.146 9.57815 364.921 50.5735C467.3 136.651 460.016 310.546 391.173 383.262Z" fill="#EEF5F9"/>
<path d="M31.1303 21.7425C29.5045 87.6735 24.2126 315.111 26.731 395.697C27.002 404.238 33.8401 411.087 42.3518 411.374C84.5119 412.763 205.812 416.259 274.782 413.353C289.144 412.747 300.572 401.093 300.875 386.694C302.31 317.49 305.466 122.842 297.958 33.6676C297.066 22.9877 288.681 14.4789 278.034 13.4094C232.112 8.82771 110.143 -2.42685 50.5606 1.45238C39.8174 2.13883 31.4013 10.9669 31.1303 21.7425Z" fill="#222222"/>
<path d="M48.2656 42.2244C45.9703 96.2303 38.7019 275.872 40.9972 342.298C41.3319 352.004 48.9829 359.859 58.6582 360.433C98.523 362.764 200.791 367.92 259.273 363.227C269.809 362.381 278.066 353.856 278.64 343.288C281.605 288.196 290.116 120.927 287.901 55.235C287.55 44.7627 279.437 36.206 269.012 35.2641C225.88 31.3849 115.1 22.1577 65.4006 24.8716C56.0919 25.3825 48.6641 32.8855 48.2656 42.2244Z" fill="#FBFBFB"/>
<path opacity="0.5" d="M135.344 12.9623C135.344 14.9897 136.922 16.6499 138.93 16.7617C148.892 17.2885 176.946 18.7572 189.474 19.4915C191.945 19.6352 193.89 17.4162 193.411 14.9737L193.332 14.5587C193.013 12.8984 191.642 11.6532 189.953 11.4936C181.473 10.7114 155.906 8.55624 138.962 9.16287C136.938 9.24269 135.344 10.9349 135.344 12.9623Z" fill="#FBFBFB"/>
<path opacity="0.73" d="M287.055 146.373L239.539 145.798C236.861 145.798 234.693 143.627 234.677 140.945C234.502 96.9965 234.343 37.8182 234.629 32.183C234.614 32.4863 225.576 31.5763 225.576 31.5763C225.432 34.4498 225.64 30.411 225.56 36.3974C225.528 39.7978 225.496 44.6827 225.48 50.9086C225.464 61.3331 225.464 75.7166 225.512 93.676C225.576 124.215 225.719 154.946 225.719 155.249L225.735 158.649C225.751 161.906 228.397 164.54 231.633 164.54H241.866C243.635 164.54 245.086 165.977 245.086 167.765V223.654C245.086 227.342 242.105 230.327 238.423 230.327H212.904C210.035 230.327 207.484 228.523 206.512 225.825L186.843 171.261C185.711 168.116 182.714 166.009 179.383 166.009H155.585C153.577 166.009 152.095 164.141 152.541 162.177L182.938 28.4634L170.393 27.6492L141.431 158.394C140.443 162.848 136.506 166.009 131.947 166.009H123.132C119.897 166.009 117.267 163.374 117.283 160.134C117.314 148.273 117.362 131 117.378 113.791C117.41 95.8311 117.41 81.4636 117.394 71.0711C117.362 50.334 118.08 26.3561 117.745 24.9992C117.745 24.9992 111.815 24.9194 111.815 24.8076C112.038 28.9902 112.564 112.593 112.485 160.517C112.485 163.55 110.03 166.009 107.002 166.009H98.713C95.1744 166.009 92.1778 163.374 91.7156 159.862C86.5352 120.591 74.1024 26.5317 73.7517 24.3926C68.0454 24.5203 62.8491 24.8236 60.1075 25.989C60.1075 25.989 73.8792 129.754 80.2232 177.87C80.7492 181.813 84.0965 184.766 88.0654 184.766H125.045C128.329 184.766 130.544 188.103 129.285 191.136L103.304 253.491C101.805 257.099 98.2827 259.445 94.3775 259.445H41.1075L40.8047 278.187H97.2306C101.901 278.187 106.125 275.377 107.91 271.051L141.447 190.545C142.913 187.033 146.324 184.75 150.118 184.75H175.398C178.427 184.75 181.12 186.65 182.141 189.491L195.147 225.602C195.976 227.901 194.271 230.327 191.832 230.327H155.745C153.959 230.327 152.525 231.78 152.525 233.552V363.897H157.323V246.435C157.323 243.05 160.064 240.289 163.459 240.289H194.557C198.112 240.289 201.284 242.524 202.495 245.876L241.197 353.249L248.401 342.011L213.382 244.838C212.585 242.619 214.227 240.289 216.57 240.289H249.724C253.167 240.289 255.957 237.495 255.957 234.047V170.015C255.957 166.982 258.411 164.524 261.44 164.524L287.086 164.795V146.373H287.055Z" fill="#E9EDF2"/>
<path d="M250.762 238.022H204.633C203.501 238.022 202.497 237.319 202.099 236.266L179.066 175.778H86.6805C85.3097 175.778 84.1621 174.757 83.9867 173.4L66.5967 38.345C66.4054 36.8604 67.4574 35.4875 68.9398 35.2959C70.4222 35.1044 71.793 36.158 71.9842 37.6426L89.0714 170.335H180.915C182.047 170.335 183.051 171.037 183.449 172.091L206.482 232.578H248.021V155.792C248.021 154.291 249.232 153.062 250.746 153.062C252.26 153.062 253.472 154.275 253.472 155.792V235.292C253.472 236.808 252.26 238.022 250.762 238.022Z" fill="#EF6238"/>
<path d="M250.09 102.839C269.783 102.839 285.747 86.8506 285.747 67.1278C285.747 47.405 269.783 31.4165 250.09 31.4165C230.398 31.4165 214.434 47.405 214.434 67.1278C214.434 86.8506 230.398 102.839 250.09 102.839Z" fill="#EF6238"/>
<path d="M285.684 63.7915H250.091H214.434C214.434 63.7915 211.597 84.3211 243.412 138.614C244.799 140.977 247.333 142.749 250.075 142.749C252.817 142.749 255.351 140.817 256.754 138.455C288.585 84.1615 285.684 63.7915 285.684 63.7915Z" fill="#EF6238"/>
<path d="M250.936 144.266V144.617H250.091C246.983 144.617 244.098 142.829 242.536 140.179C223.935 108.443 217.112 88.344 214.674 77.1214C213.972 74.5352 213.574 71.981 213.446 69.3949C213.223 66.7448 213.399 65.6114 213.414 65.4997L213.51 64.925C214.945 45.7363 230.884 30.8101 250.091 30.8101C269.554 30.8101 285.637 45.9439 286.72 65.2762C286.752 65.5316 286.8 66.1701 286.784 67.2397V67.3674C286.784 70.8795 286.29 74.3437 285.318 77.6961C282.799 88.9187 276.36 108.778 258.077 139.971C256.515 142.653 253.63 144.266 250.936 144.266ZM215.407 66.4894C215.391 66.4894 215.407 67.9581 215.503 69.1075V69.1873C215.614 71.6458 215.997 74.0563 216.666 76.5148L216.682 76.5786C219.089 87.6576 225.831 107.485 244.305 138.998C245.501 141.025 248.131 142.286 250.506 142.286L250.936 143.324V142.286C252.02 142.286 255.575 141.009 256.77 138.966C274.941 107.964 282.146 88.2642 284.298 77.2012V77.1374C284.84 73.9765 285.27 70.6879 285.27 67.3674L284.84 67.2238V67.2078C284.84 66.1701 284.744 65.6114 284.728 65.4677L284.696 65.4039C283.676 47.1571 268.486 32.8534 250.123 32.8534C231.793 32.8534 216.602 47.189 215.55 65.5954L215.487 66.4894H215.407Z" fill="white"/>
<path opacity="0.8" d="M264.768 81.6057C272.81 73.5511 272.81 60.4919 264.768 52.4373C256.725 44.3826 243.686 44.3826 235.644 52.4373C227.602 60.4919 227.602 73.5511 235.644 81.6057C243.686 89.6603 256.725 89.6603 264.768 81.6057Z" fill="white"/>
<path d="M250.202 88.7752C238.216 88.7752 228.461 79.0052 228.461 67.0004C228.461 54.9955 238.216 45.2256 250.202 45.2256C262.189 45.2256 271.944 54.9955 271.944 67.0004C271.944 79.0212 262.189 88.7752 250.202 88.7752ZM250.202 47.5404C239.491 47.5404 230.772 56.2726 230.772 67.0004C230.772 77.7281 239.491 86.4604 250.202 86.4604C260.914 86.4604 269.633 77.7281 269.633 67.0004C269.649 56.2726 260.93 47.5404 250.202 47.5404Z" fill="#EF6238"/>
<path d="M229.593 42.8307C229.498 42.8307 229.402 42.7828 229.338 42.703C229.211 42.5593 229.227 42.3358 229.37 42.2081C235.156 37.2274 242.536 34.4976 250.171 34.4976C250.363 34.4976 250.522 34.6572 250.522 34.8488C250.522 35.0403 250.363 35.2 250.171 35.2C242.696 35.2 235.475 37.8819 229.817 42.7509C229.753 42.7988 229.673 42.8307 229.593 42.8307Z" fill="white"/>
<path d="M218.579 66.8565C218.388 66.8565 218.229 66.6968 218.229 66.5053C218.229 60.5348 219.886 54.7079 223.01 49.6633C223.106 49.5037 223.329 49.4558 223.489 49.5516C223.648 49.6474 223.696 49.8709 223.6 50.0305C220.54 54.9634 218.93 60.6625 218.93 66.5053C218.914 66.6968 218.77 66.8565 218.579 66.8565Z" fill="white"/>
<path d="M225.96 389.583C225.96 381.17 219.154 374.37 210.769 374.37H203.995C195.595 374.37 188.805 381.186 188.805 389.583V430.195C188.805 438.608 195.611 445.409 203.995 445.409H210.769C219.17 445.409 225.96 438.592 225.96 430.195V389.583Z" fill="#222222"/>
<path d="M435.421 389.583C435.421 381.17 428.614 374.37 420.23 374.37H413.456C405.056 374.37 398.266 381.186 398.266 389.583V430.195C398.266 438.608 405.072 445.409 413.456 445.409H420.23C428.63 445.409 435.421 438.592 435.421 430.195V389.583Z" fill="#222222"/>
<path d="M208.967 313.387C208.505 313.292 207.931 312.877 207.931 312.414V309.285C207.931 306.267 206.497 303.522 203.803 302.165C200.344 300.409 196.391 300.361 192.868 302.005L186.732 305.038C183.655 306.475 182.014 309.588 182.014 312.988V315.367C182.014 319.757 184.978 323.477 189.314 324.067L215.79 327.691L218.882 315.558L208.967 313.387Z" fill="#D45834"/>
<path d="M416.612 313.387C417.074 313.292 417.409 312.877 417.409 312.414V309.285C417.409 306.267 419.083 303.522 421.777 302.165C425.235 300.409 429.316 300.361 432.823 302.005L439.629 305.038C442.705 306.475 445.016 309.588 445.016 312.988V315.367C445.016 319.757 441.446 323.477 437.11 324.067L410.332 327.691L406.969 315.558L416.612 313.387Z" fill="#D45834"/>
<path d="M436.026 340.239C432.169 327.212 412.276 315.143 412.276 315.143C412.276 315.143 395.587 263.819 377.608 263.819C363.166 263.819 328.498 263.819 315.396 263.819C315.396 263.819 313.467 263.819 310.263 263.819C297.145 263.819 262.413 263.819 247.987 263.819C230.008 263.819 213.319 315.143 213.319 315.143C213.319 315.143 193.41 327.196 189.569 340.223C186.748 349.737 192.852 386.47 196.343 405.371C197.571 412.028 203.851 417.217 211.183 417.217H310.279H315.412H414.428C421.76 417.217 428.04 412.028 429.268 405.371C432.742 386.486 438.847 349.753 436.026 340.239Z" fill="#EF6238"/>
<path d="M433.523 394.755C432.407 393.478 430.702 392.409 428.885 392.409H196.678C194.876 392.409 193.187 393.462 192.055 394.739C190.939 396.017 190.509 397.836 190.907 399.417L194.701 414.934C195.307 417.36 197.698 419.483 200.455 419.483H424.868C427.61 419.483 429.985 417.472 430.622 415.061L434.607 399.624C435.053 398.028 434.639 396.032 433.523 394.755Z" fill="#D45834"/>
<path d="M250.075 371.48C250.075 371.48 244.289 354.111 237.02 352.611C229.736 351.11 198.925 344.677 198.287 350.041C197.65 355.404 191.433 373.827 209.844 375.551C228.238 377.259 253.04 378.68 250.075 371.48Z" fill="#FBFBFB"/>
<path d="M375.503 371.48C375.503 371.48 381.289 354.111 388.557 352.611C395.842 351.11 426.653 344.677 427.29 350.041C427.928 355.404 434.144 373.827 415.734 375.551C397.324 377.259 372.538 378.68 375.503 371.48Z" fill="#FBFBFB"/>
<path d="M371.344 356.378C370.738 355.452 369.718 354.622 368.618 354.622H256.946C255.814 354.622 254.746 355.5 254.172 356.474C253.583 357.448 253.551 358.805 254.093 359.81L260.373 371.975C262.7 376.381 267.275 379.43 272.248 379.43H354.32C359.628 379.43 364.442 376.078 366.594 371.225L371.599 359.731C372.045 358.725 371.95 357.304 371.344 356.378Z" fill="#D45834"/>
<path d="M401.756 319.454C401.023 320.555 399.795 321.353 398.472 321.353H227.09C225.752 321.353 224.492 320.539 223.775 319.406C223.058 318.272 222.962 316.772 223.552 315.559C227.441 307.353 234.741 292.108 238.838 283.599C239.029 283.216 239.236 282.833 239.46 282.465C241.436 279.32 244.911 277.357 248.673 277.357H378.277C382.086 277.357 385.577 279.336 387.538 282.513C387.809 282.96 388.064 283.439 388.271 283.918L402.059 315.654C402.601 316.884 402.489 318.336 401.756 319.454Z" fill="#222222"/>
<path d="M387.538 282.513C378.452 284.301 351.785 288.787 311.538 288.787C270.972 288.787 247.158 284.221 239.443 282.449C241.42 279.305 244.895 277.357 248.656 277.357H378.261C382.086 277.357 385.577 279.352 387.538 282.513Z" fill="#222222"/>
<g opacity="0.63">
<path d="M247.303 347.854C247.144 347.854 246.984 347.79 246.857 347.678L224.653 326.622C224.398 326.382 224.382 325.967 224.621 325.712C224.86 325.456 225.274 325.44 225.53 325.68L247.749 346.736C248.004 346.976 248.02 347.391 247.781 347.646C247.654 347.79 247.478 347.854 247.303 347.854Z" fill="white"/>
<path d="M376.62 347.854C376.445 347.854 376.285 347.79 376.158 347.646C375.919 347.391 375.919 346.976 376.19 346.736L398.41 325.68C398.665 325.44 399.079 325.44 399.318 325.712C399.557 325.967 399.557 326.382 399.286 326.622L377.067 347.678C376.939 347.79 376.78 347.854 376.62 347.854Z" fill="white"/>
</g>
<path d="M104.564 250.011C107.975 244.311 108.868 239.203 107.848 232.61C106.19 221.707 107.481 209.574 114.415 200.602C120.998 192.093 132.841 191.327 140.062 183.744C140.11 183.696 140.285 183.441 140.524 183.058C142.357 180.184 143.345 176.896 143.473 173.495C144.174 152.12 159.699 152.375 167.063 156.43C178.715 162.848 176.165 174.82 176.165 174.82C172.913 178.301 161.293 170.877 161.293 170.877L156.464 178.636C157.834 179.227 159.301 179.913 160.911 180.695C171.845 186.075 173.025 228.044 166.856 234.765C160.688 241.486 159.604 247.887 165.82 258.871C172.036 269.854 168.434 284.205 135.376 296.098C130.02 298.03 121.954 298.238 116.663 296.082C105.059 291.373 98.6668 277.548 98.3639 265.639C98.1886 259.589 101.6 254.943 104.564 250.011Z" fill="#222222"/>
<path d="M113.14 236.282C113.076 236.282 113.012 236.234 113.012 236.154C111.657 220.972 116.28 210.979 120.424 205.264C125.62 198.08 131.677 194.967 134.451 194.249C140.556 192.684 143.409 185.484 143.425 185.421C143.457 185.357 143.536 185.309 143.6 185.341C143.664 185.373 143.696 185.452 143.68 185.516C143.648 185.596 140.747 192.908 134.515 194.52C130.976 195.43 125.126 199.229 120.647 205.423C116.551 211.107 111.944 221.036 113.299 236.138C113.283 236.202 113.219 236.266 113.14 236.282Z" fill="white"/>
<path d="M118.528 289.585C118.512 289.585 118.496 289.585 118.48 289.569C118.353 289.521 105.235 284.253 105.458 269.678C105.458 269.598 105.522 269.55 105.585 269.55C105.665 269.55 105.713 269.614 105.713 269.694C105.49 284.077 118.433 289.282 118.56 289.33C118.624 289.362 118.656 289.441 118.64 289.505C118.64 289.553 118.592 289.585 118.528 289.585Z" fill="white"/>
<path d="M198.767 236.074C198.767 236.074 184.453 253.251 170.028 239.299L164.449 252.246C164.449 252.246 185.505 268.577 201.477 242.875L198.767 236.074Z" fill="url(#paint0_linear_298_7058)"/>
<path d="M163.397 204.178C159.428 202.981 147.84 200.778 136.842 210.963C134.977 212.687 134.212 215.305 134.881 217.763C137.846 228.667 145.641 260.882 138.802 274.818C138.802 274.818 150.853 288.132 164.003 277.405C164.003 277.405 169.9 251.639 177.631 240.336C182.971 232.53 169.119 211.027 165.613 205.822C165.087 205.04 164.306 204.465 163.397 204.178Z" fill="#EF6238"/>
<path d="M157.245 183.393C157.245 183.393 149.227 199.133 147.809 206.349C147.809 206.349 153.866 210.149 160.592 205.998C160.592 205.998 163.413 189.587 164.736 186.761L157.245 183.393Z" fill="url(#paint1_linear_298_7058)"/>
<path d="M179.352 331.49C179.304 332.656 181.361 341.931 182.476 346.879C182.923 348.875 182.62 350.95 181.6 352.722L142.962 417.855C142.5 418.637 142.149 419.499 141.942 420.393C141.241 423.442 139.758 430.945 140.539 437.746L142.532 441.897L133.893 439.933L132.012 416.69L134.466 415.189C136.586 413.896 138.228 411.964 139.169 409.682C142.659 401.189 151.33 379.542 153.578 369.005C156.112 357.017 169.406 347.295 169.406 347.295L167.079 341.771L179.352 331.49Z" fill="url(#paint2_linear_298_7058)"/>
<path d="M124.281 431.935C124.281 431.935 128.952 424.528 129.493 421.639C130.035 418.749 131.566 413.657 134.451 415.189C134.451 415.189 135.806 429.205 135.343 434.681C134.881 440.157 141.528 439.981 141.528 439.981C141.528 439.981 143.361 440.237 144.7 441.578C145.624 442.503 144.971 444.116 143.664 444.196C141.48 444.339 138.037 444.371 134.403 443.669C133.128 443.429 132.187 442.344 132.124 441.051L131.167 424.927L125.285 432.366L124.281 431.935Z" fill="#222222"/>
<path d="M156.273 341.867C156.273 341.867 154.918 400.119 154.727 408.389C154.536 416.658 156.034 435 164.307 440.476L160.704 443.142C160.704 443.142 156.193 439.311 151.794 431.935C146.853 423.65 145.355 422.134 145.355 422.134L146.996 418.765C147.714 417.296 147.921 415.62 147.602 414.024C145.817 405.355 139.84 376.493 138.214 370.283C136.285 362.955 136.157 353.153 142.836 344.948C149.531 336.758 156.273 341.867 156.273 341.867Z" fill="url(#paint3_linear_298_7058)"/>
<path d="M148.621 445.776C148.366 445.776 148.143 445.6 148.111 445.345C147.84 443.397 146.693 435.623 145.752 433.596C144.684 431.281 141.161 421.575 145.752 420.745C145.752 420.745 157.165 437.443 159.348 439.694C161.532 441.945 164.306 440.476 164.306 440.476C164.306 440.476 166.442 441.115 168.051 443.174C168.817 444.148 168.099 445.6 166.856 445.6L159.173 445.68C156.942 445.696 154.933 444.339 154.104 442.264C152.75 438.88 150.422 433.915 147.713 431.712L149.115 445.217C149.163 445.505 148.924 445.776 148.621 445.776Z" fill="#222222"/>
<path d="M165.821 271.131C165.821 271.131 164.083 276.654 166.745 285.77L183.259 343.495C183.514 344.405 183.035 345.347 182.143 345.666C177.202 347.438 160.975 352.451 138.819 350.934C137.703 350.855 136.763 350.072 136.524 348.971C135.057 342.394 130.084 319.932 129.064 315.319C125.159 297.743 121.365 281.012 140.573 269.55C149.403 273.35 157.07 273.334 165.821 271.131Z" fill="#EF6238"/>
<path d="M145.911 218.849C145.911 218.849 142.595 266.405 173.263 242.523C173.263 242.523 177.79 238.229 181.057 237.718C182.827 237.431 184.803 237.255 186.27 237.144C186.939 237.096 187.242 237.958 186.7 238.341C185.648 239.075 184.261 239.873 183.066 240.001C180.754 240.241 183.225 241.933 180.691 246.371C178.172 250.809 174.57 249.132 174.57 249.132C174.57 249.132 139.423 285.195 132.394 222.313C132.171 210.612 143.408 211.218 145.911 218.849Z" fill="url(#paint4_linear_298_7058)"/>
<path d="M207.74 224.181L193.921 222.441C192.279 222.169 190.542 223.351 189.474 225.458L179.782 249.228C177.981 252.788 179.097 257.418 181.854 257.881L192.964 259.238C194.032 259.413 195.148 258.599 195.77 257.178L208.808 228.108C209.557 226.432 209 224.388 207.74 224.181Z" fill="#222222"/>
<path d="M201.063 244.758C201.063 244.758 208.077 234.526 207.264 233.264C206.451 232.003 200.298 230.199 198.848 229.768C197.413 229.353 194.687 238.628 201.063 244.758Z" fill="url(#paint5_linear_298_7058)"/>
<path d="M175.225 174.533C175.225 174.533 176.724 200.985 165.614 201.352C154.504 201.72 153.42 182.914 153.42 182.914C153.42 182.914 156.703 171.037 161.995 169.648C167.271 168.259 175.225 174.533 175.225 174.533Z" fill="url(#paint6_linear_298_7058)"/>
<path d="M171.957 166.376C171.957 166.376 177.026 171.58 176.165 174.805C175.289 178.045 164.402 174.661 161.724 173.128L152.734 182.723C152.734 182.723 153.005 168.515 159.222 164.141C165.406 159.767 171.957 166.376 171.957 166.376Z" fill="#222222"/>
<path d="M156.781 183.169C156.781 183.169 155.427 174.102 150.995 176.656C146.564 179.21 151.314 186.235 154.773 185.804L156.781 183.169Z" fill="url(#paint7_linear_298_7058)"/>
<defs>
<linearGradient id="paint0_linear_298_7058" x1="190.922" y1="218.09" x2="178.141" y2="265.307" gradientUnits="userSpaceOnUse">
<stop stop-color="#FEBBBA"/>
<stop offset="1" stop-color="#FF928E"/>
</linearGradient>
<linearGradient id="paint1_linear_298_7058" x1="162.261" y1="216.612" x2="155.702" y2="194.727" gradientUnits="userSpaceOnUse">
<stop stop-color="#FEBBBA"/>
<stop offset="1" stop-color="#FF928E"/>
</linearGradient>
<linearGradient id="paint2_linear_298_7058" x1="109.21" y1="474.237" x2="179.162" y2="348.169" gradientUnits="userSpaceOnUse">
<stop stop-color="#FEBBBA"/>
<stop offset="1" stop-color="#FF928E"/>
</linearGradient>
<linearGradient id="paint3_linear_298_7058" x1="188.767" y1="380.642" x2="82.907" y2="415.551" gradientUnits="userSpaceOnUse">
<stop stop-color="#FEBBBA"/>
<stop offset="1" stop-color="#FF928E"/>
</linearGradient>
<linearGradient id="paint4_linear_298_7058" x1="166.424" y1="236.354" x2="221.001" y2="236.354" gradientUnits="userSpaceOnUse">
<stop stop-color="#FEBBBA"/>
<stop offset="1" stop-color="#FF928E"/>
</linearGradient>
<linearGradient id="paint5_linear_298_7058" x1="205.006" y1="223.083" x2="198.27" y2="247.967" gradientUnits="userSpaceOnUse">
<stop stop-color="#FEBBBA"/>
<stop offset="1" stop-color="#FF928E"/>
</linearGradient>
<linearGradient id="paint6_linear_298_7058" x1="174.319" y1="179.089" x2="136.221" y2="203.696" gradientUnits="userSpaceOnUse">
<stop stop-color="#FEBBBA"/>
<stop offset="1" stop-color="#FF928E"/>
</linearGradient>
<linearGradient id="paint7_linear_298_7058" x1="168.966" y1="170.805" x2="130.869" y2="195.412" gradientUnits="userSpaceOnUse">
<stop stop-color="#FEBBBA"/>
<stop offset="1" stop-color="#FF928E"/>
</linearGradient>
</defs>
</svg>
