<svg width="32" height="32" viewBox="0 0 32 32" fill="none" xmlns="http://www.w3.org/2000/svg">
<path d="M2 16C2 19.713 3.475 23.274 6.10051 25.8995C8.72601 28.525 12.287 30 16 30C19.713 30 23.274 28.525 25.8995 25.8995C28.525 23.274 30 19.713 30 16C30 12.287 28.525 8.72601 25.8995 6.10051C23.274 3.475 19.713 2 16 2C12.287 2 8.72601 3.475 6.10051 6.10051C3.475 8.72601 2 12.287 2 16H2ZM12.332 20.9053C12.2513 20.9888 12.1547 21.0555 12.048 21.1013C11.9412 21.1472 11.8264 21.1713 11.7102 21.1723C11.594 21.1734 11.4788 21.1512 11.3713 21.1072C11.2638 21.0632 11.1661 20.9983 11.0839 20.9161C11.0017 20.8339 10.9368 20.7362 10.8928 20.6287C10.8488 20.5212 10.8266 20.406 10.8277 20.2898C10.8287 20.1736 10.8528 20.0588 10.8987 19.952C10.9445 19.8453 11.0112 19.7487 11.0948 19.668L18.2628 12.5H13.4187C13.1867 12.5 12.9641 12.4078 12.8 12.2437C12.6359 12.0796 12.5437 11.8571 12.5437 11.625C12.5437 11.3929 12.6359 11.1704 12.8 11.0063C12.9641 10.8422 13.1867 10.75 13.4187 10.75H20.375C20.6071 10.75 20.8296 10.8422 20.9937 11.0063C21.1578 11.1704 21.25 11.3929 21.25 11.625V18.5813C21.25 18.8133 21.1578 19.0359 20.9937 19.2C20.8296 19.3641 20.6071 19.4563 20.375 19.4563C20.1429 19.4563 19.9204 19.3641 19.7563 19.2C19.5922 19.0359 19.5 18.8133 19.5 18.5813V13.7372L12.332 20.9053Z" fill="#EF6238"/>
</svg>
