<svg width="182" height="54" viewBox="0 0 182 54" fill="none" xmlns="http://www.w3.org/2000/svg">
<g clip-path="url(#clip0_538_1103)">
<path d="M27.7526 15.1548L49.0727 30.8386L48.4095 33.8497C47.4811 38.0519 45.5249 41.7908 42.9054 44.868C36.8708 51.9489 27.2221 55.5555 17.507 53.4048C11.7377 52.1144 6.79723 49.0041 3.21625 44.7026C0.331572 41.2283 3.54782 36.0996 7.95773 37.0923C8.98561 37.3239 9.88085 37.8533 10.544 38.6474C12.6992 41.2614 15.6171 43.1474 19.0322 44.0408C19.2312 44.0739 19.397 44.1401 19.5959 44.1732C23.8069 45.0997 27.9847 44.3386 31.433 42.3202C34.4172 40.5666 36.8377 37.9195 38.2303 34.6107L22.0827 22.7651C20.5906 21.6401 19.8612 19.7541 20.2922 17.9342C21.0548 14.5592 25.0005 13.1033 27.7526 15.1548ZM27.0231 31.5004L10.8424 19.4232C12.235 16.1144 14.6887 13.4673 17.6396 11.7136C21.088 9.69524 25.2658 8.93421 29.4768 9.86068C33.1241 10.6879 36.2408 12.6401 38.4955 15.3533C39.1918 16.1805 40.1202 16.743 41.1813 16.9746C45.558 17.9673 48.7411 12.8386 45.8896 9.39744C42.3418 5.0298 37.335 1.9195 31.5657 0.62906C21.8506 -1.55476 12.2019 2.05185 6.16724 9.16583C3.54782 12.243 1.6247 15.982 0.663144 20.1842L0 23.1952L21.3533 39.1107C24.1053 41.1621 28.0842 39.7063 28.8136 36.3313C29.2447 34.5114 28.5484 32.6254 27.0231 31.5004Z" fill="white"/>
<path d="M42.9056 13.2028C42.7729 13.2028 42.6071 13.1367 42.5408 13.0043C42.5408 13.0043 42.3419 12.7065 41.9108 12.2102C41.7451 12.0117 41.7782 11.747 41.9772 11.5815C42.1761 11.4161 42.4414 11.4492 42.6071 11.6477C43.0382 12.1771 43.2703 12.508 43.2703 12.5411C43.4029 12.7396 43.3366 13.0043 43.1377 13.1367C43.0713 13.1697 42.9719 13.2028 42.9056 13.2028Z" fill="black"/>
<path d="M5.96684 18.2983C5.90052 18.2983 5.86736 18.2983 5.80105 18.2653C5.56895 18.166 5.46948 17.9344 5.53579 17.7028C5.80105 17.0079 6.09947 16.3131 6.43104 15.6182C6.53051 15.3866 6.79577 15.3204 7.02787 15.4197C7.25997 15.5189 7.32628 15.7836 7.22681 16.0153C6.89524 16.677 6.59682 17.3388 6.36472 18.0006C6.33157 18.1991 6.13262 18.2983 5.96684 18.2983Z" fill="black"/>
<path d="M7.92397 14.3608C7.85765 14.3608 7.75818 14.3277 7.69187 14.2946C7.49292 14.1622 7.42661 13.8975 7.55924 13.699C7.95712 13.0703 8.42132 12.4416 8.88552 11.8791C9.05131 11.6806 9.31657 11.6475 9.51551 11.813C9.71446 11.9784 9.74761 12.2431 9.58183 12.4416C9.11763 13.0041 8.71974 13.5997 8.32185 14.1953C8.22238 14.2946 8.08975 14.3608 7.92397 14.3608Z" fill="black"/>
<path d="M10.7079 10.9525C10.6084 10.9525 10.4758 10.9194 10.4095 10.8201C10.2437 10.6547 10.2437 10.3569 10.4095 10.1915C10.94 9.66205 11.5037 9.13264 12.0674 8.66941C12.2663 8.50396 12.5316 8.53705 12.6973 8.73558C12.8631 8.93411 12.83 9.19882 12.631 9.36426C12.0674 9.82749 11.5368 10.2907 11.0395 10.8201C10.9069 10.8863 10.8074 10.9525 10.7079 10.9525Z" fill="black"/>
<path d="M40.7486 10.7874C40.6491 10.7874 40.5165 10.7543 40.4502 10.6551C39.9197 10.1587 39.3892 9.69551 38.7923 9.26536C38.5934 9.13301 38.5602 8.83521 38.6929 8.63668C38.8255 8.43816 39.1239 8.40507 39.3228 8.53742C39.9197 9.00065 40.5165 9.46389 41.047 9.9933C41.2128 10.1587 41.246 10.4234 41.0802 10.622C40.9807 10.7212 40.8481 10.7874 40.7486 10.7874Z" fill="black"/>
<path d="M14.1232 8.17375C13.9906 8.17375 13.8248 8.10757 13.7585 7.97522C13.6258 7.77669 13.6921 7.51198 13.8911 7.37963C14.5211 6.98257 15.1842 6.58551 15.8474 6.25463C16.0795 6.15537 16.3447 6.22154 16.4442 6.45316C16.5437 6.68478 16.4773 6.94948 16.2452 7.04875C15.6153 7.37963 14.9853 7.71051 14.3553 8.10757C14.289 8.14066 14.1895 8.17375 14.1232 8.17375Z" fill="black"/>
<path d="M37.2007 8.14062C37.1344 8.14062 37.0349 8.10753 36.9686 8.07445C36.3386 7.71048 35.7086 7.37959 35.0455 7.04871C34.8134 6.94945 34.7139 6.68474 34.8465 6.45312C34.946 6.22151 35.2112 6.12224 35.4433 6.25459C36.1065 6.58548 36.8028 6.91636 37.4328 7.31342C37.6317 7.44577 37.698 7.71048 37.5986 7.90901C37.4991 8.04136 37.3665 8.14062 37.2007 8.14062Z" fill="black"/>
<path d="M33.2221 6.25465C33.189 6.25465 33.1227 6.25465 33.0895 6.22156C32.4264 5.98995 31.7301 5.79142 31.0006 5.62597C30.7685 5.5598 30.6027 5.32818 30.669 5.09656C30.7353 4.86495 30.9674 4.6995 31.1995 4.76568C31.929 4.93112 32.6585 5.16274 33.3548 5.39436C33.5869 5.46053 33.7195 5.72524 33.62 5.95686C33.5869 6.15539 33.3879 6.25465 33.2221 6.25465Z" fill="black"/>
<path d="M18.0699 6.22133C17.9041 6.22133 17.7052 6.12207 17.6389 5.92354C17.5394 5.69192 17.672 5.42722 17.9041 5.36104C18.6004 5.09633 19.3299 4.8978 20.0594 4.69927C20.2915 4.6331 20.5236 4.79854 20.5899 5.03016C20.6562 5.26177 20.4904 5.49339 20.2583 5.55957C19.562 5.72501 18.8657 5.92354 18.2026 6.18825C18.1694 6.22133 18.1031 6.22133 18.0699 6.22133Z" fill="black"/>
<path d="M28.9455 5.22863C28.9124 5.22863 28.9124 5.22863 28.8792 5.22863C28.1829 5.12937 27.4535 5.06319 26.724 5.0301C26.4919 5.0301 26.293 4.79848 26.293 4.56687C26.293 4.33525 26.5251 4.13672 26.7572 4.13672C27.5198 4.16981 28.2492 4.23598 28.9787 4.36834C29.2108 4.40142 29.3766 4.63304 29.3434 4.86466C29.3434 5.06319 29.1445 5.22863 28.9455 5.22863Z" fill="black"/>
<path d="M22.3474 5.19554C22.1153 5.19554 21.9495 5.0301 21.9163 4.79848C21.8832 4.56687 22.049 4.33525 22.2811 4.30216C23.0105 4.2029 23.7731 4.13672 24.5358 4.13672C24.7679 4.13672 25 4.33525 25 4.56687C25 4.79848 24.801 5.0301 24.5689 5.0301C23.8395 5.06319 23.11 5.09628 22.4137 5.19554C22.3805 5.19554 22.3474 5.19554 22.3474 5.19554Z" fill="black"/>
<path d="M6.03332 22.1034C5.93385 22.1034 5.83438 22.0703 5.76806 22.0041L4.70703 21.21L4.74019 20.9453C4.77335 20.5813 4.83966 20.2174 4.90597 19.8534C4.97229 19.6218 5.20439 19.4563 5.43649 19.5225C5.66859 19.5887 5.83438 19.8203 5.76806 20.0519C5.70175 20.3166 5.66859 20.5483 5.63543 20.813L6.26542 21.3093C6.46436 21.4416 6.49752 21.7394 6.36489 21.938C6.29858 22.0372 6.16595 22.1034 6.03332 22.1034Z" fill="black"/>
<path d="M21.616 33.8499C21.5165 33.8499 21.417 33.8168 21.3507 33.7506L19.7923 32.5925C19.5934 32.4602 19.5602 32.1624 19.6929 31.9638C19.8255 31.7653 20.1239 31.7322 20.3228 31.8646L21.8812 33.0227C22.0802 33.155 22.1133 33.4528 21.9807 33.6513C21.8812 33.7837 21.7486 33.8499 21.616 33.8499Z" fill="black"/>
<path d="M18.5007 31.5003C18.4013 31.5003 18.3018 31.4672 18.2355 31.401L16.6771 30.2429C16.4782 30.1105 16.445 29.8128 16.5776 29.6142C16.7103 29.4157 17.0087 29.3826 17.2076 29.515L18.766 30.673C18.9649 30.8054 18.9981 31.1032 18.8655 31.3017C18.766 31.4341 18.6334 31.5003 18.5007 31.5003Z" fill="black"/>
<path d="M15.3836 29.1516C15.2841 29.1516 15.1846 29.1185 15.1183 29.0524L13.5599 27.8943C13.361 27.7619 13.3278 27.4641 13.4604 27.2656C13.5931 27.0671 13.8915 27.034 14.0904 27.1663L15.6488 28.3244C15.8478 28.4568 15.8809 28.7546 15.7483 28.9531C15.6488 29.0854 15.5162 29.1516 15.3836 29.1516Z" fill="black"/>
<path d="M12.2683 26.802C12.1688 26.802 12.0694 26.7689 12.0031 26.7027L10.4447 25.5447C10.2457 25.4123 10.2126 25.1145 10.3452 24.916C10.4778 24.7175 10.7762 24.6844 10.9752 24.8167L12.5336 25.9748C12.7325 26.1072 12.7657 26.405 12.6331 26.6035C12.5336 26.7358 12.401 26.802 12.2683 26.802Z" fill="black"/>
<path d="M9.15113 24.4534C9.05166 24.4534 8.95219 24.4203 8.88588 24.3541L7.32749 23.196C7.12854 23.0637 7.09539 22.7659 7.22801 22.5673C7.36064 22.3688 7.65906 22.3357 7.858 22.4681L9.41639 23.6262C9.61533 23.7585 9.64849 24.0563 9.51586 24.2548C9.41639 24.3872 9.28376 24.4534 9.15113 24.4534Z" fill="black"/>
<path d="M10.2761 23.0628C10.1767 23.0628 10.0772 23.0297 10.0109 22.9635L8.45249 21.8054C8.25354 21.673 8.22039 21.3753 8.35301 21.1767C8.48564 20.9782 8.78406 20.9451 8.983 21.0775L10.5414 22.2355C10.7403 22.3679 10.7735 22.6657 10.6409 22.8642C10.5414 22.9966 10.4088 23.0628 10.2761 23.0628Z" fill="black"/>
<path d="M11.405 21.6409C11.3056 21.6409 11.2061 21.6078 11.1398 21.5416L9.58139 20.3835C9.38245 20.2512 9.34929 19.9534 9.48192 19.7548C9.61455 19.5563 9.91296 19.5232 10.1119 19.6556L11.6703 20.8137C11.8692 20.946 11.9024 21.2438 11.7698 21.4423C11.6703 21.5747 11.5377 21.6409 11.405 21.6409Z" fill="black"/>
<path d="M6.92848 27.2659C6.82901 27.2659 6.72953 27.2328 6.66322 27.1666L5.10483 26.0085C4.90589 25.8762 4.87273 25.5784 5.00536 25.3798C5.13799 25.1813 5.4364 25.1482 5.63535 25.2806L7.19374 26.4387C7.39268 26.571 7.42584 26.8688 7.29321 27.0673C7.19374 27.1997 7.06111 27.2659 6.92848 27.2659Z" fill="black"/>
<path d="M8.02223 25.8753C7.92276 25.8753 7.82328 25.8422 7.75697 25.776L6.19858 24.6179C5.99964 24.4855 5.96648 24.1878 6.09911 23.9892C6.23174 23.7907 6.53015 23.7576 6.7291 23.89L8.28749 25.048C8.48643 25.1804 8.51959 25.4782 8.38696 25.6767C8.28749 25.8091 8.15486 25.8753 8.02223 25.8753Z" fill="black"/>
<path d="M24.0369 35.6701C23.9374 35.6701 23.8379 35.637 23.7716 35.5708L22.9095 34.9421C22.7106 34.8098 22.6774 34.512 22.81 34.3134C22.9427 34.1149 23.2411 34.0818 23.44 34.2142L24.3021 34.8429C24.5011 34.9752 24.5342 35.273 24.4016 35.4715C24.3021 35.6039 24.1695 35.6701 24.0369 35.6701Z" fill="black"/>
<path d="M6.19936 40.666C6.33198 40.666 6.49777 40.7322 6.56409 40.8645C6.56409 40.8645 6.76303 41.1623 7.19407 41.6587C7.35986 41.8572 7.3267 42.1219 7.12776 42.2873C6.92881 42.4528 6.66356 42.4197 6.49777 42.2212C6.06673 41.6917 5.83463 41.3609 5.83463 41.3278C5.702 41.1293 5.76831 40.8645 5.96726 40.7322C6.03357 40.666 6.13304 40.666 6.19936 40.666Z" fill="black"/>
<path d="M43.1368 35.5371C43.2031 35.5371 43.2362 35.5371 43.3026 35.5702C43.5347 35.6695 43.6341 35.9011 43.5678 36.1327C43.3026 36.8275 43.0041 37.5224 42.6726 38.2173C42.5731 38.4489 42.3078 38.515 42.0757 38.4158C41.8436 38.3165 41.7773 38.0518 41.8768 37.8202C42.2084 37.1584 42.5068 36.4967 42.7389 35.8349C42.8052 35.6695 42.971 35.5371 43.1368 35.5371Z" fill="black"/>
<path d="M41.18 39.4746C41.2463 39.4746 41.3458 39.5077 41.4121 39.5408C41.6111 39.6731 41.6774 39.9378 41.5448 40.1364C41.1469 40.7651 40.6827 41.3937 40.2185 41.9562C40.0527 42.1548 39.7874 42.1878 39.5885 42.0224C39.3895 41.857 39.3564 41.5923 39.5222 41.3937C39.9864 40.8312 40.3843 40.2356 40.7821 39.6401C40.8816 39.5408 41.0142 39.4746 41.18 39.4746Z" fill="black"/>
<path d="M38.4276 42.916C38.5271 42.916 38.6597 42.9491 38.726 43.0484C38.8918 43.2138 38.8918 43.5116 38.726 43.677C38.1955 44.2065 37.6318 44.7359 37.0682 45.1991C36.8692 45.3645 36.604 45.3315 36.4382 45.1329C36.2724 44.9344 36.3056 44.6697 36.5045 44.5043C37.0682 44.041 37.5987 43.5778 38.096 43.0484C38.1955 42.9491 38.295 42.916 38.4276 42.916Z" fill="black"/>
<path d="M8.38783 43.0811C8.48731 43.0811 8.61994 43.1141 8.68625 43.2134C9.21677 43.7097 9.74728 44.173 10.3441 44.6031C10.5431 44.7355 10.5762 45.0333 10.4436 45.2318C10.311 45.4303 10.0125 45.4634 9.8136 45.3311C9.21677 44.8678 8.61993 44.4046 8.08942 43.8752C7.92363 43.7097 7.89048 43.445 8.05626 43.2465C8.15573 43.1141 8.25521 43.0811 8.38783 43.0811Z" fill="black"/>
<path d="M35.0123 45.6953C35.1449 45.6953 35.3107 45.7615 35.377 45.8938C35.5096 46.0924 35.4433 46.3571 35.2444 46.4894C34.6144 46.8865 33.9512 47.2835 33.2881 47.6144C33.056 47.7137 32.7907 47.6475 32.6912 47.4159C32.5918 47.1843 32.6581 46.9196 32.8902 46.8203C33.5202 46.4894 34.1502 46.1585 34.7802 45.7615C34.8465 45.7284 34.9128 45.6953 35.0123 45.6953Z" fill="black"/>
<path d="M11.9026 45.7285C11.9689 45.7285 12.0684 45.7616 12.1347 45.7947C12.7647 46.1587 13.3946 46.4895 14.0578 46.8204C14.2899 46.9197 14.3894 47.1844 14.2567 47.416C14.1573 47.6476 13.892 47.7469 13.6599 47.6145C12.9968 47.2837 12.3005 46.9528 11.6705 46.5557C11.4715 46.4234 11.4052 46.1587 11.5047 45.9601C11.6042 45.7947 11.7368 45.7285 11.9026 45.7285Z" fill="black"/>
<path d="M15.8805 47.5811C15.9137 47.5811 15.98 47.5811 16.0131 47.6141C16.6763 47.8458 17.3726 48.0443 18.1021 48.2097C18.3342 48.2759 18.4999 48.5075 18.4336 48.7391C18.3673 48.9708 18.1352 49.1362 17.9031 49.07C17.1737 48.9046 16.4442 48.673 15.7479 48.4413C15.5158 48.3752 15.3832 48.1105 15.4826 47.8788C15.5489 47.7134 15.7147 47.5811 15.8805 47.5811Z" fill="black"/>
<path d="M31.0659 47.6475C31.2317 47.6475 31.4307 47.7467 31.497 47.9453C31.5964 48.1769 31.4638 48.4416 31.2317 48.5078C30.5354 48.7725 29.806 48.971 29.0765 49.1695C28.8444 49.2357 28.6123 49.0703 28.546 48.8386C28.4797 48.607 28.6455 48.3754 28.8776 48.3092C29.5739 48.1438 30.2702 47.9453 30.9333 47.6806C30.9665 47.6475 30.9996 47.6475 31.0659 47.6475Z" fill="black"/>
<path d="M20.1599 48.6074C20.1931 48.6074 20.1931 48.6074 20.2262 48.6074C20.9225 48.7067 21.652 48.7729 22.3815 48.806C22.6136 48.806 22.8125 49.0376 22.8125 49.2692C22.8125 49.5008 22.5804 49.6993 22.3483 49.6993C21.5857 49.6662 20.8562 49.6001 20.1268 49.4677C19.8947 49.4346 19.7289 49.203 19.762 48.9714C19.762 48.7729 19.961 48.6074 20.1599 48.6074Z" fill="black"/>
<path d="M26.758 48.6729C26.9901 48.6729 27.1559 48.8383 27.1891 49.0699C27.2222 49.3015 27.0565 49.5331 26.8244 49.5662C26.0949 49.6655 25.3323 49.7317 24.5697 49.7317C24.3376 49.7317 24.1055 49.5331 24.1055 49.3015C24.1055 49.0699 24.3044 48.8383 24.5365 48.8383C25.266 48.8052 25.9954 48.7721 26.6917 48.6729C26.7249 48.6729 26.758 48.6729 26.758 48.6729Z" fill="black"/>
<path d="M43.0694 31.7324C43.1688 31.7324 43.2683 31.7655 43.3346 31.8317L44.3956 32.6258L44.3625 32.8905C44.3293 33.2545 44.263 33.6184 44.1967 33.9824C44.1304 34.214 43.8983 34.3795 43.6662 34.3133C43.4341 34.2471 43.2683 34.0155 43.3346 33.7839C43.4009 33.5192 43.4341 33.2876 43.4672 33.0229L42.8373 32.5265C42.6383 32.3942 42.6052 32.0964 42.7378 31.8979C42.8041 31.7986 42.9367 31.7324 43.0694 31.7324Z" fill="black"/>
<path d="M27.4873 20.0195C27.5867 20.0195 27.6862 20.0526 27.7525 20.1188L29.3109 21.2769C29.5099 21.4092 29.543 21.707 29.4104 21.9056C29.2778 22.1041 28.9794 22.1372 28.7804 22.0048L27.222 20.8467C27.0231 20.7144 26.9899 20.4166 27.1225 20.2181C27.222 20.0526 27.3546 20.0195 27.4873 20.0195Z" fill="black"/>
<path d="M30.6045 22.3682C30.7039 22.3682 30.8034 22.4013 30.8697 22.4674L32.4281 23.6255C32.6271 23.7579 32.6602 24.0557 32.5276 24.2542C32.395 24.4527 32.0965 24.4858 31.8976 24.3535L30.3392 23.1623C30.1403 23.0299 30.1071 22.7321 30.2397 22.5336C30.3392 22.4013 30.4718 22.3682 30.6045 22.3682Z" fill="black"/>
<path d="M33.7197 24.7178C33.8192 24.7178 33.9186 24.7509 33.985 24.817L35.5433 25.9751C35.7423 26.1075 35.7754 26.4053 35.6428 26.6038C35.5102 26.8023 35.2118 26.8354 35.0128 26.7031L33.4544 25.545C33.2555 25.4126 33.2223 25.1148 33.355 24.9163C33.4544 24.7509 33.5871 24.7178 33.7197 24.7178Z" fill="black"/>
<path d="M36.8369 27.0342C36.9364 27.0342 37.0358 27.0673 37.1021 27.1334L38.6605 28.2915C38.8595 28.4239 38.8926 28.7217 38.76 28.9202C38.6274 29.1187 38.329 29.1518 38.13 29.0195L36.5716 27.8614C36.3727 27.729 36.3395 27.4312 36.4722 27.2327C36.5716 27.1004 36.7043 27.0342 36.8369 27.0342Z" fill="black"/>
<path d="M39.9521 29.3828C40.0516 29.3828 40.1511 29.4159 40.2174 29.4821L41.7758 30.6402C41.9747 30.7725 42.0079 31.0703 41.8752 31.2688C41.7426 31.4674 41.4442 31.5005 41.2453 31.3681L39.6869 30.21C39.4879 30.0777 39.4548 29.7799 39.5874 29.5813C39.6869 29.449 39.8195 29.3828 39.9521 29.3828Z" fill="black"/>
<path d="M38.8584 30.8057C38.9578 30.8057 39.0573 30.8388 39.1236 30.9049L40.682 32.063C40.881 32.1954 40.9141 32.4932 40.7815 32.6917C40.6489 32.8902 40.3504 32.9233 40.1515 32.791L38.5931 31.6329C38.3942 31.5005 38.361 31.2027 38.4936 31.0042C38.5931 30.8718 38.7257 30.8057 38.8584 30.8057Z" fill="black"/>
<path d="M37.6982 32.2285C37.7977 32.2285 37.8972 32.2616 37.9635 32.3278L39.5219 33.4859C39.7208 33.6182 39.754 33.916 39.6213 34.1145C39.4887 34.3131 39.1903 34.3462 38.9913 34.2138L37.433 33.0557C37.234 32.9234 37.2009 32.6256 37.3335 32.427C37.433 32.2616 37.5656 32.2285 37.6982 32.2285Z" fill="black"/>
<path d="M42.208 26.5703C42.3075 26.5703 42.4069 26.6034 42.4732 26.6696L44.0316 27.8277C44.2306 27.96 44.2637 28.2578 44.1311 28.4563C43.9985 28.6549 43.7001 28.688 43.5011 28.5556L41.9427 27.3975C41.7438 27.2652 41.7106 26.9674 41.8432 26.7688C41.9427 26.6365 42.0754 26.5703 42.208 26.5703Z" fill="black"/>
<path d="M41.1142 27.96C41.2137 27.96 41.3132 27.9931 41.3795 28.0592L42.9379 29.2173C43.1368 29.3497 43.17 29.6475 43.0373 29.846C42.9047 30.0445 42.6063 30.0776 42.4074 29.9453L40.849 28.7872C40.65 28.6548 40.6169 28.357 40.7495 28.1585C40.849 28.0261 40.9816 27.96 41.1142 27.96Z" fill="black"/>
<path d="M25.0654 18.1992C25.1649 18.1992 25.2643 18.2323 25.3307 18.2985L26.1927 18.9272C26.3917 19.0595 26.4248 19.3573 26.2922 19.5558C26.1596 19.7544 25.8612 19.7875 25.6622 19.6551L24.8001 19.0264C24.6012 18.8941 24.568 18.5963 24.7007 18.3977C24.8001 18.2654 24.9328 18.1992 25.0654 18.1992Z" fill="black"/>
<path d="M58.3555 35.2387L59.2507 33.4519C60.8091 34.974 63.5943 36.099 66.4458 36.099C70.5242 36.099 72.3147 34.3784 72.3147 32.2607C72.3147 26.3049 58.886 29.9446 58.886 21.9041C58.886 18.6946 61.3728 15.9482 66.91 15.9482C69.3637 15.9482 71.9168 16.6762 73.6741 17.8674L72.9115 19.6872C71.0547 18.4629 68.8663 17.9004 66.9432 17.9004C62.9643 17.9004 61.1738 19.6872 61.1738 21.8379C61.1738 27.7938 74.6025 24.1872 74.6025 32.1284C74.6025 35.3379 72.0494 38.0512 66.479 38.0512C63.1633 38.0843 59.947 36.9262 58.3555 35.2387ZM94.9942 35.9004V37.8857H79.5761V16.1137H94.53V18.099H81.8971V25.8416H93.1706V27.7938H81.8971V35.8674H94.9942V35.9004ZM118.635 16.1137V37.8527H116.745L102.72 20.2166V37.8527H100.399V16.1137H102.289L116.347 33.7497V16.1137H118.635ZM129.975 18.1321H122.316V16.1468H139.922V18.1321H132.263V37.8857H129.942V18.1321H129.975ZM158.49 37.8857L153.517 30.9041C152.953 30.9703 152.389 31.0034 151.759 31.0034H145.891V37.8857H143.603V16.1137H151.759C157.297 16.1137 160.679 18.9262 160.679 23.5585C160.679 26.9666 158.888 29.3821 155.705 30.4078L161.043 37.8527H158.49V37.8857ZM158.358 23.5916C158.358 20.1174 156.037 18.1321 151.693 18.1321H145.891V29.0512H151.693C156.07 29.0181 158.358 26.9997 158.358 23.5916ZM173.278 30.3747V37.8857H170.991V30.3747L162.27 16.1468H164.724L172.184 28.3563L179.711 16.1137H182.032L173.278 30.3747Z" fill="white"/>
</g>
<defs>
<clipPath id="clip0_538_1103">
<rect width="182" height="54" fill="white"/>
</clipPath>
</defs>
</svg>
