<svg width="61" height="34" viewBox="0 0 61 34" fill="none" xmlns="http://www.w3.org/2000/svg">
    <g clip-path="url(#clip0_1043_2541)">
        <path
            d="M59.8796 20.2956C59.9545 15.4286 59.239 14.6757 58.6856 14.287C58.6856 14.287 57.8922 11.326 56.788 10.391C55.6838 9.44676 54.4056 8.9078 51.7067 8.61588C49.0077 8.32395 46.2033 8.82786 44.0783 8.79514C41.9533 8.76242 35.9568 8.30845 29.5632 8.21C23.1697 8.11155 21.5265 8.27171 20.616 8.07223C19.7055 7.87275 17.0352 7.53491 14.3957 7.61481C11.7563 7.69472 11.2904 8.29027 9.73865 8.56311C8.19628 8.83609 6.86194 8.91754 5.99179 9.72942C5.12164 10.5413 3.62046 13.5875 3.53067 19.4187L59.8797 20.2864L59.8796 20.2956Z"
            fill="#EF6238" />
        <path
            d="M59.8809 20.1943C59.8059 25.0614 59.0675 25.7919 58.5025 26.1633C58.5025 26.1633 57.6183 29.0985 56.4857 29.999C55.3531 30.9089 54.0589 31.4082 51.3522 31.6169C48.6456 31.8256 45.858 31.2356 43.733 31.2029C41.608 31.1701 35.6003 31.4393 29.2068 31.3408C22.8132 31.2424 21.1757 31.0317 20.2595 31.2031C19.3433 31.3744 16.6639 31.6299 14.0281 31.4687C11.4017 31.3078 10.945 30.698 9.40246 30.3775C7.86922 30.0572 6.53802 29.9347 5.69328 29.0964C4.84854 28.2581 3.44187 25.1671 3.53166 19.3359L59.8807 20.2036L59.8809 20.1943Z"
            fill="#EF6238" />
        <path
            d="M43.6768 27.019C49.4854 26.9693 54.1035 24.917 54.1035 24.917C54.1035 24.917 48.0794 26.2522 43.7916 26.2233L43.6768 27.019Z"
            fill="#C85D3D" />
        <path
            d="M43.8913 13.0578C49.6956 13.2862 54.2484 15.4798 54.2484 15.4798C54.2484 15.4798 48.2682 13.9597 43.9816 13.8566L43.8913 13.0578Z"
            fill="#C85D3D" />
        <path
            d="M55.0432 10.4651C53.0816 9.50762 50.7423 10.0743 47.4512 10.0978C44.1694 10.1215 43.1601 10.2821 43.1601 10.2821C43.1601 10.2821 38.7676 11.6054 35.7392 12.1244C35.4821 11.2674 34.5876 11.235 34.5876 11.235C34.5876 11.235 35.5398 11.1477 37.6626 10.7168C39.7761 10.2857 41.8002 9.60282 41.8002 9.60282L16.9163 10.388C16.9163 10.388 8.63264 10.1399 7.50781 10.5399C6.38298 10.9398 5.15831 14.797 5.08693 19.4323L3.56776 19.4089C3.65769 13.5684 5.14955 10.5221 6.02888 9.71966C6.90821 8.91719 8.23337 8.82632 9.77575 8.55334C11.3181 8.28036 11.7934 7.68495 14.4328 7.60505C17.063 7.525 19.7426 7.86299 20.6531 8.06246C21.5636 8.26194 23.2161 8.10193 29.6003 8.20023C35.9846 8.29854 41.9904 8.75266 44.1154 8.78538C46.2404 8.8181 49.0448 8.31419 51.7438 8.60611C54.4428 8.89803 55.7209 9.43699 56.8251 10.3813C57.9292 11.3256 58.7227 14.2772 58.7227 14.2772C59.2762 14.6567 59.9916 15.4188 59.9167 20.2859L58.8449 20.2694C58.899 16.7558 58.4732 15.349 58.1831 14.816C57.8461 14.3008 57.0143 11.4135 55.0432 10.4651Z"
            fill="#C85D3D" />
        <path
            d="M41.7908 9.61314L41.4596 8.71785C41.4596 8.71785 41.3129 7.95522 40.7349 7.35286C40.1568 6.7505 39.2141 6.82872 39.0977 7.12365C38.9719 7.41844 40.131 9.03121 40.3719 9.12765C40.6221 9.22423 40.8869 9.58994 40.8869 9.58994L41.7908 9.61314Z"
            fill="#C85D3D" />
        <path
            d="M41.4688 30.416L41.1102 31.3007C41.1102 31.3007 40.9401 32.0584 40.3438 32.6427C39.7475 33.227 38.8076 33.1198 38.7003 32.8214C38.5837 32.5229 39.7919 30.9466 40.0356 30.8576C40.2887 30.7688 40.5646 30.4114 40.5646 30.4114L41.4688 30.416Z"
            fill="#C85D3D" />
        <path
            d="M57.9737 13.8771C57.9737 13.8771 55.0247 11.6619 51.0606 10.5901C47.0965 9.51831 43.1227 9.07694 43.1227 9.07694L43.16 10.283C43.16 10.283 48.6272 10.6083 51.6537 11.4245C54.6802 12.2407 58.1541 14.2693 58.1541 14.2693L57.9737 13.8771Z"
            fill="#C85D3D" />
        <path
            d="M54.7425 29.9717C52.7523 30.8683 50.4316 30.2299 47.1428 30.105C43.8633 29.9804 42.8594 29.7887 42.8594 29.7887C42.8594 29.7887 38.5097 28.3308 35.4987 27.7188C35.2153 28.5676 34.3203 28.5723 34.3203 28.5723C34.3203 28.5723 35.2694 28.6889 37.3779 29.185C39.4771 29.681 41.4792 30.4258 41.4792 30.4258L16.6313 28.8749C16.6313 28.8749 8.34389 28.8678 7.23191 28.4334C6.12007 27.9897 5.01459 24.106 5.08596 19.4707L3.56679 19.4473C3.47686 25.2877 4.87422 28.3785 5.72842 29.2077C6.58263 30.0369 7.90436 30.1685 9.4376 30.4888C10.9708 30.8092 11.4276 31.4189 14.0633 31.5801C16.6897 31.7411 19.3784 31.4857 20.2947 31.3144C21.2109 31.143 22.8577 31.3538 29.2419 31.4521C35.6262 31.5505 41.6432 31.2815 43.7681 31.3142C45.8931 31.3469 48.6807 31.9369 51.3874 31.7282C54.094 31.5195 55.3882 31.0202 56.5209 30.1104C57.6536 29.2005 58.5376 26.2747 58.5376 26.2747C59.1025 25.9124 59.8411 25.1727 59.916 20.3057L58.8442 20.2892C58.7901 23.8027 58.3212 25.1957 58.0148 25.7195C57.7084 26.2433 56.7418 29.0845 54.7425 29.9717Z"
            fill="#C85D3D" />
        <path
            d="M57.7764 26.6521C57.7764 26.6521 54.7605 28.7755 50.7653 29.7247C46.7701 30.6739 42.7846 30.9928 42.7846 30.9928L42.859 29.7884C42.859 29.7884 48.3336 29.6317 51.3838 28.909C54.434 28.1863 57.9688 26.2656 57.9688 26.2656L57.7764 26.6521Z"
            fill="#C85D3D" />
        <path
            d="M45.6194 20.0759C45.7039 14.5877 43.1599 10.2831 43.1599 10.2831C43.1599 10.2831 38.5897 11.6407 35.7388 12.1346C35.7388 12.1346 36.4107 15.7243 36.3458 19.9424L45.6192 20.0852L45.6194 20.0759Z"
            fill="#2A303B" />
        <path
            d="M16.2348 19.6246C16.2783 16.7971 16.5021 14.371 16.6225 13.2138C16.6658 12.825 16.3818 12.4961 16.0277 12.4906L12.253 12.4325C10.8364 12.4107 9.626 13.5233 9.41647 15.0223C9.25869 16.1882 9.12343 17.7069 9.0956 19.5147L16.2348 19.6246V19.6246Z"
            fill="#2A303B" />
        <path
            d="M41.7898 9.61344C41.7898 9.61344 37.6671 10.9687 34.4188 11.2432C31.1704 11.5178 28.7278 11.5265 25.7279 11.4061C22.728 11.2858 16.9059 10.3986 16.9059 10.3986C16.9059 10.3986 21.8701 9.4829 28.6299 9.4108C35.3896 9.33871 41.7898 9.61344 41.7898 9.61344Z"
            fill="#2A303B" />
        <path
            d="M56.6729 12.2992C56.1571 10.6778 54.8737 9.26716 54.8737 9.26716C55.6523 9.55733 56.2433 9.92807 56.7955 10.3909C57.8996 11.3352 58.6932 14.2869 58.6932 14.2869C57.8259 13.6987 57.1886 13.9207 56.6729 12.2992Z"
            fill="#2A303B" />
        <path
            d="M4.843 11.714C5.25015 10.7003 5.67968 10.0485 6.02006 9.7385C6.7011 9.09989 7.67338 8.92013 8.79492 8.7334C8.79492 8.7334 8.54604 9.15611 8.02169 9.30568C7.49734 9.45524 7.09272 9.69938 6.57973 10.322C6.07592 10.9541 6.06968 11.9647 4.843 11.714Z"
            fill="#2A303B" />
        <path
            d="M34.3103 15.9057C34.2577 14.4769 33.0912 13.3462 31.6466 13.324C30.1088 13.3003 28.8588 14.5607 28.9005 16.0913C28.9323 17.0562 28.9411 18.2989 28.9177 19.8193L34.3513 19.9029C34.384 18.3827 34.3587 17.0007 34.3103 15.9057Z"
            fill="#2A303B" />
        <path
            d="M34.188 23.8962C34.2607 22.8032 34.3379 21.4227 34.3613 19.9023L28.9277 19.8187C28.9043 21.3391 28.8481 22.5715 28.7958 23.5443C28.6977 25.0728 29.9082 26.3711 31.4554 26.3949C32.8906 26.417 34.0914 25.3228 34.188 23.8962Z"
            fill="#323845" />
        <path
            d="M45.619 20.0757C45.5345 25.5639 42.8592 29.7881 42.8592 29.7881C42.8592 29.7881 38.333 28.2904 35.4987 27.709C35.4987 27.709 36.2807 24.1417 36.3457 19.9236L45.6191 20.0664L45.619 20.0757Z"
            fill="#323845" />
        <path
            d="M44.119 20.0536C44.1975 14.9548 42.3173 11.1332 42.3173 11.1332C42.3173 11.1332 38.5067 12.1966 36.2996 12.654C36.2996 12.654 36.863 16.0287 36.8027 19.9409L44.119 20.0536Z"
            fill="#323845" />
        <path
            d="M44.1191 20.0527C44.0406 25.1516 42.0437 28.9134 42.0437 28.9134C42.0437 28.9134 38.2677 27.7332 36.0757 27.208C36.0757 27.208 36.7426 23.8523 36.8029 19.9401L44.1191 20.0527V20.0527Z"
            fill="#276379" />
        <path
            d="M16.2352 19.6244C16.1916 22.4519 16.3406 24.8837 16.4253 26.0441C16.4566 26.434 16.1627 26.7541 15.8085 26.7486L12.0339 26.6905C10.6172 26.6687 9.44168 25.5193 9.27841 24.0146C9.15659 22.8443 9.06816 21.3222 9.096 19.5145L16.2352 19.6244V19.6244Z"
            fill="#323845" />
        <path
            d="M15.0212 19.6046C15.0614 16.9903 15.2173 14.7394 15.2989 13.6743C15.323 13.3223 15.1508 13.0044 14.9178 13.0008L12.4759 12.9632C11.5532 12.949 10.7635 13.9846 10.6303 15.3735C10.5205 16.4475 10.4242 17.8554 10.3984 19.5334L15.0212 19.6046V19.6046Z"
            fill="#323845" />
        <path
            d="M15.0212 19.6055C14.981 22.2198 15.0675 24.4744 15.1163 25.5416C15.1295 25.8941 14.9476 26.2066 14.7146 26.203L12.2727 26.1654C11.35 26.1512 10.5926 25.0917 10.5022 23.6994C10.4255 22.6226 10.3726 21.2123 10.3985 19.5343L15.0212 19.6055V19.6055Z"
            fill="#276379" />
        <path
            d="M41.4701 30.4168C41.4701 30.4168 37.3911 28.9353 34.1527 28.5609C30.9143 28.1865 28.4732 28.1025 25.471 28.1305C22.4688 28.1584 16.6222 28.8659 16.6222 28.8659C16.6222 28.8659 21.5464 29.9431 28.3008 30.2141C35.0645 30.4944 41.4701 30.4168 41.4701 30.4168Z"
            fill="#2A303B" />
        <path
            d="M56.4292 28.1892C55.8638 29.7939 54.5376 31.1644 54.5376 31.1644C55.3248 30.8984 55.9268 30.546 56.493 30.1004C57.6257 29.1905 58.5098 26.2646 58.5098 26.2646C57.6248 26.8259 56.9946 26.5844 56.4292 28.1892Z"
            fill="#323845" />
        <path
            d="M4.60415 27.1778C4.97989 28.2036 5.38915 28.8683 5.71982 29.1887C6.38087 29.848 7.34716 30.0576 8.46242 30.2787C8.46242 30.2787 8.22667 29.8486 7.70718 29.6829C7.18768 29.5173 6.79077 29.2608 6.29719 28.6227C5.81308 27.9754 5.83796 26.965 4.60415 27.1778Z"
            fill="#323845" />
        <path
            d="M33.7255 19.8936C33.7466 18.5216 33.7286 17.2695 33.6971 16.2861C33.661 14.9966 32.8564 13.9735 31.6542 13.955C30.4519 13.9365 29.502 15.0809 29.5367 16.4631C29.5605 17.3351 29.5619 18.4572 29.5408 19.8292L33.7255 19.8936Z"
            fill="#323845" />
        <path
            d="M33.5872 23.4975C33.649 22.5063 33.7054 21.2646 33.7266 19.8926L29.5419 19.8281C29.5207 21.2002 29.4755 22.3215 29.4341 23.1925C29.3569 24.573 30.3084 25.7467 31.4734 25.7647C32.6384 25.7826 33.5114 24.7853 33.5872 23.4975Z"
            fill="#276379" />
        <path
            d="M12.8716 20.0075C12.3984 19.8611 11.1779 19.8145 10.8927 20.1718C10.6076 20.529 10.6817 24.1929 11.2927 25.074C11.9037 25.955 13.3023 25.9395 13.3162 25.6429C13.3207 25.3463 12.5265 25.4639 12.3589 24.8493C12.1912 24.2347 12.3253 24.005 12.4358 23.4874C12.5556 22.9699 12.3933 22.6151 12.4096 22.161C12.4259 21.7068 12.6265 21.3947 13.0127 21.1317C13.4083 20.8689 13.3539 20.1633 12.8716 20.0075Z"
            fill="#327F93" />
        <path
            d="M43.4849 20.693C43.1093 20.2606 41.4204 20.3645 41.0157 20.6086C40.6111 20.8527 40.4066 21.4245 40.7694 22.0792C41.1322 22.7339 41.9879 22.8583 41.8632 23.6909C41.7385 24.5236 41.513 24.6406 41.2593 25.3786C41.0054 26.1257 41.3764 26.8547 40.9776 27.3215C40.5882 27.7884 38.8749 27.0573 38.7765 27.3896C38.6782 27.7219 41.2681 28.4387 41.643 28.3054C42.0086 28.1719 42.5769 26.9845 43.0812 25.1099C43.5857 23.226 43.8604 21.1253 43.4849 20.693Z"
            fill="#327F93" />
        <path
            d="M33.0207 20.9207C33.3842 20.9263 33.2645 22.64 33.1776 23.4454C33.0906 24.2507 32.4963 25.308 31.555 25.2935C30.6137 25.279 30.0577 24.4544 29.9909 23.9527C29.9147 23.4507 30.1484 22.8052 30.7542 22.8146C31.3507 22.8238 31.5108 23.3177 32.0814 23.1967C32.6522 23.0571 32.6572 20.9151 33.0207 20.9207Z"
            fill="#327F93" />
    </g>
    <defs>
        <clipPath id="clip0_1043_2541">
            <rect width="32.1171" height="59.6461" fill="white"
                transform="translate(60.1719 1.27246) rotate(90.8822)" />
        </clipPath>
    </defs>
</svg>
