<svg width="30" height="30" viewBox="0 0 30 30" fill="none" xmlns="http://www.w3.org/2000/svg">
<path d="M22.07 7.92786C18.1642 4.02322 11.8325 4.02416 7.92786 7.93001C4.02322 11.8359 4.02416 18.1675 7.93001 22.0721C11.8359 25.9768 18.1675 25.9758 22.0721 22.07C23.9474 20.1942 25.0006 17.6502 25 14.9979C24.9994 12.3459 23.9455 9.80278 22.07 7.92786ZM20.1446 18.9299C20.1442 18.9303 20.1438 18.9308 20.1433 18.9312V18.9279L19.6366 19.4312C18.9814 20.0948 18.027 20.3678 17.12 20.1512C16.2061 19.9066 15.3373 19.5172 14.5466 18.9979C13.812 18.5284 13.1313 17.9796 12.5166 17.3612C11.9511 16.7998 11.4431 16.1834 11 15.5212C10.5153 14.8086 10.1316 14.0324 9.85997 13.2145C9.54852 12.2538 9.80661 11.1995 10.5266 10.4912L11.12 9.8979C11.2849 9.7322 11.553 9.73161 11.7186 9.89657C11.7191 9.897 11.7195 9.89743 11.72 9.8979L13.5933 11.7712C13.759 11.9362 13.7596 12.2042 13.5946 12.3699C13.5942 12.3703 13.5938 12.3707 13.5933 12.3712L12.4933 13.4712C12.1777 13.7834 12.138 14.2795 12.4 14.6379C12.7978 15.1839 13.2381 15.6977 13.7166 16.1746C14.2502 16.7104 14.8302 17.1979 15.45 17.6312C15.808 17.881 16.2935 17.8389 16.6033 17.5312L17.6666 16.4512C17.8316 16.2855 18.0996 16.285 18.2653 16.4499C18.2657 16.4503 18.2661 16.4508 18.2666 16.4512L20.1433 18.3312C20.309 18.4962 20.3096 18.7642 20.1446 18.9299Z" fill="#FBFBFB"/>
</svg>
