<svg width="30" height="30" viewBox="0 0 30 30" fill="none" xmlns="http://www.w3.org/2000/svg">
<path fill-rule="evenodd" clip-rule="evenodd" d="M15 25C9.47803 25 5 20.522 5 15C5 9.47803 9.47803 5 15 5C20.522 5 25 9.47803 25 15C25 20.522 20.522 25 15 25ZM15 8.49559C17.7356 8.49559 19.9531 10.7131 19.9531 13.4487C19.9531 16.1843 15 21.5043 15 21.5043C15 21.5043 10.0469 16.1843 10.0469 13.4487C10.0469 10.7131 12.2644 8.49559 15 8.49559ZM15 11.4808C16.0372 11.4808 16.8783 12.3219 16.8783 13.3591C16.8783 14.3963 16.0372 15.2374 15 15.2374C13.9628 15.2374 13.1217 14.3963 13.1217 13.3591C13.1217 12.3219 13.9628 11.4808 15 11.4808Z" fill="white"/>
</svg>
