<svg width="920" height="774" viewBox="0 0 920 774" fill="none" xmlns="http://www.w3.org/2000/svg">
<g clip-path="url(#clip0_441_802)">
<path d="M570.467 0.755859L655.941 29.4094L659.532 20.2647L673.176 16.6068L685.385 23.3129L690.412 39.1638L716.983 47.6989L762.974 60.5016L759.383 73.3043L750.765 83.6683H742.133L749.329 92.2034L758.665 81.8394L765.128 76.3525L765.846 70.256L772.309 64.7692L778.773 69.6464L775.9 83.6683L782.364 80.0104L783.082 85.4973L770.155 87.9359L767.282 100.739L765.128 106.835H770.873L774.464 112.932L785.236 126.368L783.8 135.513L785.954 142.829L780.209 147.706L775.9 141L770.155 125.759L771.591 117.223L764.41 111.712L756.51 114.76L758.665 121.491L754.356 125.759L746.442 113.541L745.005 102.567L730.643 96.471L727.756 84.8876H721.292L719.856 76.9622L721.292 64.1595L718.42 53.7954L717.702 69.6464L716.265 84.278L720.574 92.2034L722.729 103.177L729.91 101.348L729.192 107.445L724.165 111.103L728.474 118.443L727.756 134.294L730.643 138.561L726.319 145.267L732.797 162.947L733.515 169.653L741.415 167.824L745.005 177.579L757.947 186.114L752.919 190.382L743.569 186.114L745.724 191.601L770.155 203.184L768.001 207.452L737.106 191.601L724.165 188.553L704.057 194.649L701.184 204.403L692.566 202.575L688.258 189.772L691.848 173.311L683.949 183.066L678.203 195.868L672.458 193.43L676.049 205.013L658.095 205.623V195.259L643.014 194.039L636.551 187.943L641.578 202.575L635.115 212.939L623.624 209.89L616.443 211.719L605.671 203.794H586.999L571.185 220.864L566.158 221.474L564.722 229.399L546.768 248.908L530.969 246.469L532.405 236.715L543.896 230.009L545.332 211.11L538.15 203.794L540.305 222.083L524.506 236.105L525.224 240.983L517.324 248.298L520.915 259.296L483.543 303.179L469.898 321.469L469.18 338.563L473.488 347.708L467.743 367.217L458.407 380.629L437.581 381.848L426.091 382.458L417.473 392.822L403.11 398.919L393.774 394.041L392.338 381.239L396.647 374.533L394.492 362.949L402.392 359.291L400.956 351.975L407.419 315.982L408.855 297.704L428.245 269.66L486.415 176.969L496.498 162.947L502.961 157.46L512.297 132.465L510.143 119.052L523.787 106.835L539.587 73.9139L548.204 70.256L553.95 52.5761L564.722 23.9226L570.467 0.755859Z" fill="#EDEDED" stroke="#EDEDED" stroke-width="1.23" stroke-linecap="round" stroke-linejoin="round"/>
<path d="M834.789 247.079L917.391 301.362L919.545 325.748L907.322 348.317L869.979 357.462L875.724 376.971L877.16 433.68V444.654L873.569 462.944L877.16 476.356L879.315 486.11L856.334 494.036L852.025 503.181V515.959L841.253 514.74L837.662 519.007L808.936 531.2L807.5 540.955L803.191 546.441L796.728 536.077L785.955 533.639L778.056 542.796L779.492 553.769L784.519 559.256L755.793 578.155L739.994 575.717L751.484 567.182L760.102 567.791L755.075 560.476L763.693 544.015L750.048 558.647L742.867 541.576L755.793 533.041L772.311 540.357L783.083 526.945L717.717 492.804L697.609 491.585L693.3 499.511L668.883 503.168L671.756 490.366L663.856 489.756L658.111 500.12L632.258 501.34L641.594 512.923L630.821 519.019L604.968 544.625L594.196 542.186L612.15 565.353L592.041 574.498L615.74 576.936L630.821 613.515L620.049 621.441L594.196 625.099L581.987 615.954L594.196 618.392L588.451 604.37L569.779 608.638V616.563L553.98 612.906L530.281 613.515L538.899 618.392V627.537L511.609 629.366L477.138 633.024L445.539 636.072H416.024L403.097 628.756L404.533 619.612L421.065 617.783L445.482 620.831L424.656 612.906V602.529L416.742 588.507L389.452 576.924L371.498 573.876L355.699 553.757V523.909L373.653 496.474L396.634 472.698L425.359 458.066L414.573 458.676L401.646 462.334L391.592 442.216L403.801 428.194L418.896 413.562L434.695 390.395L464.139 388.566L475.63 371.496L489.275 345.281L485.684 334.917L488.556 312.348L530.209 265.405L526.618 261.137L533.082 255.638H543.854L570.425 233.081L581.916 233.691L596.278 242.226L592.946 244.543L588.379 247.713L599.869 249.542L606.333 261.735H616.387L615.668 250.761L626.441 245.274L663.784 265.405L656.603 278.817L668.093 287.352L687.483 276.378L674.556 274.55L671.684 262.966L674.556 248.932L659.461 245.884L657.307 241.007L675.332 218.449L692.568 220.888L696.158 233.691L708.367 228.814C708.367 228.814 709.085 215.401 709.085 217.23C709.085 219.059 720.575 213.572 720.575 213.572L738.529 220.278L760.806 222.107L767.269 233.691L783.787 231.862L783.069 223.936L789.532 220.888L802.458 235.52L799.586 243.445L827.608 276.976L834.789 247.079V247.079Z" fill="#EDEDED" stroke="#EDEDED" stroke-width="1.23" stroke-linecap="round" stroke-linejoin="round"/>
<path d="M133.748 503.181L164.629 512.326L204.845 505.01L222.081 508.668L240.034 500.133L265.184 498.304L295.346 491.598L308.991 501.352L311.863 536.712L324.072 561.098L337.731 575.12L331.986 589.751L303.978 614.723L267.353 651.911L251.553 667.153L222.827 684.845L197.692 712.279L191.947 704.353L200.565 702.525L212.773 687.283L200.565 681.796L189.793 688.503L189.075 695.818L164.658 715.937L153.167 719.595L141.677 726.911L118.696 731.788L102.179 748.858L82.0706 745.81L74.8892 752.516L62.6807 764.709H44.6839L32.4754 767.757L28.1665 773.244L10.931 772.025L0.876953 755.564L8.77657 737.872L26.7446 732.385L22.4357 720.192L25.3083 703.122L18.1268 700.074L15.9724 684.832L23.872 679.346L47.5709 663.495L70.5516 662.885L79.1693 634.841C79.1693 634.841 90.6597 630.574 90.6597 632.403C90.6597 634.231 82.0419 628.135 82.0419 628.135L84.1964 610.455L97.8555 589.727V575.705L101.446 556.196L93.5466 553.148L89.9272 530.591L106.459 506.205L133.748 503.181V503.181Z" fill="#EDEDED" stroke="#EDEDED" stroke-width="1.23" stroke-linecap="round" stroke-linejoin="round"/>
<path d="M526.66 662.324L529.533 676.346L574.058 665.982L602.798 661.715L660.968 642.206L702.621 622.697L763.692 608.078L806.062 597.689L830.479 600.128L843.406 594.031L857.051 591.593V576.961L845.561 561.72L821.862 564.768L813.244 558.672L802.472 558.062L798.881 563.549L801.035 569.511L801.754 571.474L803.908 585.496L793.136 581.838L796.008 570.255L789.545 564.159L782.364 573.303L774.464 576.961L766.564 584.277H748.611L740.697 592.812L734.233 598.299L714.829 607.468L694.003 614.772L671.022 614.162L625.061 640.377L599.207 642.206L591.308 648.912L577.649 650.741L571.185 646.474L551.077 655.009L526.66 662.324Z" fill="#EDEDED" stroke="#EDEDED" stroke-width="1.23" stroke-linecap="round" stroke-linejoin="round"/>
<path d="M697.593 511.717L699.748 519.642L701.902 536.103L694.721 553.185L710.52 556.843L714.111 565.378L720.574 561.111L716.983 581.839L696.875 588.545L702.62 592.813L720.574 589.764L732.079 564.159L722.01 539.773L716.983 511.717L710.52 518.423L697.593 511.717Z" fill="#EDEDED" stroke="#EDEDED" stroke-width="1.23" stroke-linecap="round" stroke-linejoin="round"/>
<path d="M623.625 546.478L624.343 553.184L644.451 548.307L648.76 532.444L623.625 546.478Z" fill="#EDEDED" stroke="#EDEDED" stroke-width="1.23" stroke-linecap="round" stroke-linejoin="round"/>
<path d="M643.734 580.009L653.07 590.982L668.151 587.324L660.252 578.18L643.734 580.009Z" fill="#EDEDED" stroke="#EDEDED" stroke-width="1.23" stroke-linecap="round" stroke-linejoin="round"/>
<path d="M653.07 547.088L655.943 533.663L673.897 530.615L686.105 540.381L653.07 547.088Z" fill="#EDEDED" stroke="#EDEDED" stroke-width="1.23" stroke-linecap="round" stroke-linejoin="round"/>
<path d="M660.971 525.129L665.28 520.252L678.206 514.155L680.361 526.348L660.971 525.129Z" fill="#EDEDED" stroke="#EDEDED" stroke-width="1.23" stroke-linecap="round" stroke-linejoin="round"/>
<path d="M673.176 575.132L688.257 576.352L693.284 558.672L677.485 558.062L669.312 569.779L673.176 575.132Z" fill="#EDEDED" stroke="#EDEDED" stroke-width="1.23" stroke-linecap="round" stroke-linejoin="round"/>
<path d="M390.903 411.733L377.977 426.974L395.93 423.926L403.83 417.83L400.239 411.124L390.903 411.733Z" fill="#EDEDED" stroke="#EDEDED" stroke-width="1.23" stroke-linecap="round" stroke-linejoin="round"/>
<path d="M604.232 220.865L605.669 233.667L618.595 242.203L637.267 240.374L635.831 232.448L604.232 220.865Z" fill="#EDEDED" stroke="#EDEDED" stroke-width="1.23" stroke-linecap="round" stroke-linejoin="round"/>
<path d="M548.206 70.2563L560.414 77.5722L571.905 80.6204L565.441 94.6424L546.051 117.224L528.098 145.877L533.843 199.527L538.152 203.794L566.159 221.474" stroke="#EDEDED" stroke-width="1.23" stroke-linecap="round" stroke-linejoin="round"/>
<path d="M485.695 334.906L498.651 326.371L523.786 334.906L529.531 344.05L541.739 348.928L549.639 367.217L552.512 376.972L571.902 396.48L588.433 414.782L594.179 429.414L609.26 426.365L627.932 409.905L640.858 406.857L645.885 428.804L653.067 446.484L659.53 454.409V465.993L653.785 478.186L663.839 489.769" stroke="#EDEDED" stroke-width="1.23" stroke-linecap="round" stroke-linejoin="round"/>
</g>
<circle cx="650" cy="108" r="9" fill="#EF6238" fill-opacity="0.3"/>
<circle cx="650.001" cy="108" r="4.2" fill="#EF6238"/>
<path d="M612.096 140.74C613.196 140.2 613.976 139.14 613.976 137.62C613.976 135.36 612.176 134 608.956 134H602.676V148H609.356C612.896 148 614.716 146.62 614.716 144.22C614.716 142.36 613.676 141.18 612.096 140.74ZM608.776 135.62C610.816 135.62 611.976 136.38 611.976 137.86C611.976 139.34 610.816 140.1 608.776 140.1H604.676V135.62H608.776ZM609.276 146.38H604.676V141.72H609.276C611.496 141.72 612.696 142.44 612.696 144.06C612.696 145.68 611.496 146.38 609.276 146.38ZM619.373 139.18V137.4H617.533V148H619.453V142.72C619.453 140.4 620.733 139.14 622.793 139.14C622.933 139.14 623.073 139.14 623.233 139.16V137.3C621.373 137.3 620.053 137.94 619.373 139.18ZM630.042 148.12C633.222 148.12 635.542 145.86 635.542 142.7C635.542 139.54 633.222 137.3 630.042 137.3C626.862 137.3 624.522 139.54 624.522 142.7C624.522 145.86 626.862 148.12 630.042 148.12ZM630.042 146.44C628.002 146.44 626.462 144.96 626.462 142.7C626.462 140.44 628.002 138.98 630.042 138.98C632.082 138.98 633.602 140.44 633.602 142.7C633.602 144.96 632.082 146.44 630.042 146.44ZM643.857 137.3C642.177 137.3 640.817 137.92 640.037 139V137.4H638.197V148H640.117V142.54C640.117 140.24 641.437 139.02 643.477 139.02C645.297 139.02 646.337 140.04 646.337 142.12V148H648.257V141.9C648.257 138.78 646.437 137.3 643.857 137.3ZM660.75 148L656.53 142.58L660.53 137.4H658.43L655.53 141.22L652.61 137.4H650.47L654.45 142.58L650.27 148H652.41L655.51 143.94L658.57 148H660.75ZM678.536 134V140.02H670.496V134H668.496V148H670.496V141.76H678.536V148H680.536V134H678.536ZM698.207 148.14C697.487 148.94 696.647 149.34 695.647 149.34C694.747 149.34 693.907 148.94 692.967 147.94C696.227 147.18 698.467 144.48 698.467 141C698.467 136.88 695.307 133.84 691.047 133.84C686.747 133.84 683.587 136.9 683.587 141C683.587 144.94 686.507 147.92 690.527 148.14C692.487 150.16 693.867 150.92 695.627 150.92C697.027 150.92 698.247 150.34 699.147 149.28L698.207 148.14ZM685.587 141C685.587 137.92 687.907 135.62 691.047 135.62C694.147 135.62 696.467 137.92 696.467 141C696.467 144.08 694.147 146.38 691.047 146.38C687.907 146.38 685.587 144.08 685.587 141ZM627.619 176.16C631.879 176.16 635.039 173.12 635.039 169C635.039 164.88 631.879 161.84 627.619 161.84C623.319 161.84 620.159 164.9 620.159 169C620.159 173.1 623.319 176.16 627.619 176.16ZM627.619 174.38C624.479 174.38 622.159 172.1 622.159 169C622.159 165.9 624.479 163.62 627.619 163.62C630.719 163.62 633.039 165.9 633.039 169C633.039 172.1 630.719 174.38 627.619 174.38ZM641.696 162.62C642.256 162.62 642.776 162.82 643.176 163.12L643.756 161.66C643.216 161.24 642.416 161.04 641.596 161.04C639.336 161.04 638.096 162.4 638.096 164.46V165.4H636.296V166.98H638.096V176H640.016V166.98H643.056V165.4H639.976V164.48C639.976 163.26 640.556 162.62 641.696 162.62ZM654.487 163.36C655.247 163.36 655.787 162.8 655.787 162.08C655.787 161.4 655.227 160.86 654.487 160.86C653.747 160.86 653.187 161.42 653.187 162.12C653.187 162.82 653.747 163.36 654.487 163.36ZM645.147 164.46V165.4H643.347V166.98H645.147V176H647.067V166.98H650.107V165.4H647.027V164.48C647.027 163.26 647.607 162.62 648.747 162.62C649.307 162.62 649.827 162.82 650.227 163.12L650.807 161.66C650.267 161.24 649.467 161.04 648.647 161.04C646.387 161.04 645.147 162.4 645.147 164.46ZM653.527 176H655.447V165.4H653.527V176ZM663.725 176.12C665.625 176.12 667.205 175.32 668.045 173.84L666.585 172.92C665.905 173.96 664.865 174.44 663.705 174.44C661.625 174.44 660.065 173 660.065 170.7C660.065 168.44 661.625 166.98 663.705 166.98C664.865 166.98 665.905 167.46 666.585 168.5L668.045 167.56C667.205 166.08 665.625 165.3 663.725 165.3C660.465 165.3 658.125 167.54 658.125 170.7C658.125 173.86 660.465 176.12 663.725 176.12ZM679.955 170.76C679.955 167.5 677.775 165.3 674.715 165.3C671.655 165.3 669.395 167.56 669.395 170.7C669.395 173.86 671.675 176.12 675.095 176.12C676.855 176.12 678.315 175.52 679.275 174.4L678.215 173.16C677.435 174.02 676.395 174.44 675.155 174.44C673.055 174.44 671.555 173.2 671.315 171.34H679.915C679.935 171.16 679.955 170.92 679.955 170.76ZM674.715 166.92C676.575 166.92 677.915 168.18 678.115 169.96H671.315C671.515 168.16 672.875 166.92 674.715 166.92Z" fill="#222222"/>
<circle cx="501" cy="526" r="9" fill="#EF6238" fill-opacity="0.3"/>
<circle cx="501.001" cy="526" r="4.2" fill="#EF6238"/>
<path d="M466.424 558.74C467.524 558.2 468.304 557.14 468.304 555.62C468.304 553.36 466.504 552 463.284 552H457.004V566H463.684C467.224 566 469.044 564.62 469.044 562.22C469.044 560.36 468.004 559.18 466.424 558.74ZM463.104 553.62C465.144 553.62 466.304 554.38 466.304 555.86C466.304 557.34 465.144 558.1 463.104 558.1H459.004V553.62H463.104ZM463.604 564.38H459.004V559.72H463.604C465.824 559.72 467.024 560.44 467.024 562.06C467.024 563.68 465.824 564.38 463.604 564.38ZM473.701 557.18V555.4H471.861V566H473.781V560.72C473.781 558.4 475.061 557.14 477.121 557.14C477.261 557.14 477.401 557.14 477.561 557.16V555.3C475.701 555.3 474.381 555.94 473.701 557.18ZM484.37 566.12C487.55 566.12 489.87 563.86 489.87 560.7C489.87 557.54 487.55 555.3 484.37 555.3C481.19 555.3 478.85 557.54 478.85 560.7C478.85 563.86 481.19 566.12 484.37 566.12ZM484.37 564.44C482.33 564.44 480.79 562.96 480.79 560.7C480.79 558.44 482.33 556.98 484.37 556.98C486.41 556.98 487.93 558.44 487.93 560.7C487.93 562.96 486.41 564.44 484.37 564.44ZM497.065 566.12C500.245 566.12 502.565 563.86 502.565 560.7C502.565 557.54 500.245 555.3 497.065 555.3C493.885 555.3 491.545 557.54 491.545 560.7C491.545 563.86 493.885 566.12 497.065 566.12ZM497.065 564.44C495.025 564.44 493.485 562.96 493.485 560.7C493.485 558.44 495.025 556.98 497.065 556.98C499.105 556.98 500.625 558.44 500.625 560.7C500.625 562.96 499.105 564.44 497.065 564.44ZM513.32 566H515.68L510.78 559.78L515.24 555.4H512.92L507.14 560.68V551.16H505.22V566H507.14V563.1L509.34 561.06L513.32 566ZM517.545 566H519.465V551.16H517.545V566ZM530.631 555.4L526.971 563.88L523.271 555.4H521.271L525.951 565.98L525.611 566.72C525.091 567.94 524.511 568.36 523.591 568.36C522.871 568.36 522.211 568.08 521.691 567.58L520.871 569.02C521.531 569.66 522.571 570 523.591 570C525.211 570 526.431 569.3 527.371 567.06L532.511 555.4H530.631ZM539.962 555.3C538.282 555.3 536.922 555.92 536.142 557V555.4H534.302V566H536.222V560.54C536.222 558.24 537.542 557.02 539.582 557.02C541.402 557.02 542.442 558.04 542.442 560.12V566H544.362V559.9C544.362 556.78 542.542 555.3 539.962 555.3ZM478.119 594.16C482.379 594.16 485.539 591.12 485.539 587C485.539 582.88 482.379 579.84 478.119 579.84C473.819 579.84 470.659 582.9 470.659 587C470.659 591.1 473.819 594.16 478.119 594.16ZM478.119 592.38C474.979 592.38 472.659 590.1 472.659 587C472.659 583.9 474.979 581.62 478.119 581.62C481.219 581.62 483.539 583.9 483.539 587C483.539 590.1 481.219 592.38 478.119 592.38ZM492.196 580.62C492.756 580.62 493.276 580.82 493.676 581.12L494.256 579.66C493.716 579.24 492.916 579.04 492.096 579.04C489.836 579.04 488.596 580.4 488.596 582.46V583.4H486.796V584.98H488.596V594H490.516V584.98H493.556V583.4H490.476V582.48C490.476 581.26 491.056 580.62 492.196 580.62ZM504.987 581.36C505.747 581.36 506.287 580.8 506.287 580.08C506.287 579.4 505.727 578.86 504.987 578.86C504.247 578.86 503.687 579.42 503.687 580.12C503.687 580.82 504.247 581.36 504.987 581.36ZM495.647 582.46V583.4H493.847V584.98H495.647V594H497.567V584.98H500.607V583.4H497.527V582.48C497.527 581.26 498.107 580.62 499.247 580.62C499.807 580.62 500.327 580.82 500.727 581.12L501.307 579.66C500.767 579.24 499.967 579.04 499.147 579.04C496.887 579.04 495.647 580.4 495.647 582.46ZM504.027 594H505.947V583.4H504.027V594ZM514.225 594.12C516.125 594.12 517.705 593.32 518.545 591.84L517.085 590.92C516.405 591.96 515.365 592.44 514.205 592.44C512.125 592.44 510.565 591 510.565 588.7C510.565 586.44 512.125 584.98 514.205 584.98C515.365 584.98 516.405 585.46 517.085 586.5L518.545 585.56C517.705 584.08 516.125 583.3 514.225 583.3C510.965 583.3 508.625 585.54 508.625 588.7C508.625 591.86 510.965 594.12 514.225 594.12ZM530.455 588.76C530.455 585.5 528.275 583.3 525.215 583.3C522.155 583.3 519.895 585.56 519.895 588.7C519.895 591.86 522.175 594.12 525.595 594.12C527.355 594.12 528.815 593.52 529.775 592.4L528.715 591.16C527.935 592.02 526.895 592.44 525.655 592.44C523.555 592.44 522.055 591.2 521.815 589.34H530.415C530.435 589.16 530.455 588.92 530.455 588.76ZM525.215 584.92C527.075 584.92 528.415 586.18 528.615 587.96H521.815C522.015 586.16 523.375 584.92 525.215 584.92Z" fill="#222222"/>
<defs>
<clipPath id="clip0_441_802">
<rect width="920" height="774" fill="white"/>
</clipPath>
</defs>
</svg>
