<svg width="89" height="89" viewBox="0 0 89 89" fill="none" xmlns="http://www.w3.org/2000/svg">
    <path d="M15.7607 67.8625C13.4121 65.143 11.5271 62.1146 10.1055 58.7771C8.68401 55.4396 7.78783 51.9166 7.41699 48.2083H15.0191C15.3899 50.9277 16.0698 53.5075 17.0587 55.9476C18.0475 58.3901 19.3455 60.6312 20.9524 62.6708L15.7607 67.8625ZM7.41699 40.7916C7.91144 37.0833 8.83852 33.5604 10.1982 30.2229C11.558 26.8854 13.4121 23.8569 15.7607 21.1375L20.9524 26.3291C19.3455 28.3687 18.0475 30.6085 17.0587 33.0486C16.0698 35.4912 15.3899 38.0722 15.0191 40.7916H7.41699ZM40.6066 81.3979C36.8982 81.0271 33.3914 80.1309 30.086 78.7093C26.7782 77.2878 23.7337 75.4646 20.9524 73.2396L26.1441 67.8625C28.3073 69.4694 30.5792 70.7982 32.96 71.8489C35.3383 72.8996 37.8871 73.6104 40.6066 73.9812V81.3979ZM26.3295 21.1375L20.9524 15.7604C23.7337 13.5354 26.7782 11.7121 30.086 10.2906C33.3914 8.86907 36.96 7.97288 40.792 7.60205V15.0187C38.0107 15.3896 35.4149 16.1003 33.0045 17.151C30.5941 18.2017 28.3691 19.5305 26.3295 21.1375ZM35.2295 61.1875V27.8125L61.1878 44.5L35.2295 61.1875ZM48.2087 81.3979V73.9812C55.6871 72.9305 61.8838 69.6239 66.7985 64.0614C71.7108 58.4989 74.167 51.9784 74.167 44.5C74.167 37.0215 71.7108 30.501 66.7985 24.9385C61.8838 19.376 55.6871 16.0694 48.2087 15.0187V7.60205C57.7267 8.65275 65.6687 12.6701 72.0347 19.6541C78.4007 26.6382 81.5837 34.9201 81.5837 44.5C81.5837 54.0798 78.4007 62.3618 72.0347 69.3458C65.6687 76.3298 57.7267 80.3472 48.2087 81.3979Z" fill="black" />
</svg>
