<svg width="1800" height="135" viewBox="0 0 1800 135" fill="none" xmlns="http://www.w3.org/2000/svg">
    <path d="M2014.43 44.9607C1961.14 57.993 1908.44 66.4139 1855.75 58.1935C1743.3 40.7502 1633.67 -13.7851 1524.65 3.2572C1472.77 11.2771 1421.49 27.3169 1370.61 40.3492C1355.47 44.3592 1340.13 47.9681 1324.99 51.1761C1281.18 60.1985 1237.57 65.0104 1193.96 58.1935C1081.51 40.7502 971.882 -13.7851 862.862 3.2572C822.484 9.47262 782.309 20.7005 742.537 31.3268C738.297 32.5298 734.057 33.7328 729.818 34.7353C729.616 34.7353 729.616 34.7353 729.414 34.7353C725.376 35.7378 721.54 36.9408 717.502 37.9432C716.291 38.3442 715.08 38.5447 714.07 38.9457C711.648 39.5472 709.023 40.1487 706.6 40.9507C704.582 41.5522 702.361 41.9532 700.342 42.5547C698.525 42.9557 696.506 43.5572 694.689 43.9582C692.065 44.5597 689.642 45.1612 687.017 45.7626C686.412 45.9631 685.806 46.1636 684.998 46.1636C681.768 46.9656 678.538 47.7676 675.106 48.3691C674.702 48.3691 674.5 48.5696 674.096 48.5696C670.462 49.3716 666.828 50.1736 662.993 50.9756C618.981 60.1985 575.171 64.8099 531.563 57.993C419.313 40.7502 309.688 -13.5846 200.668 3.2572C148.782 11.2771 97.5027 27.3169 46.6268 40.3492C31.4852 44.3592 16.1416 47.9681 1 51.1761V124.558C16.1416 121.35 31.4852 117.741 46.6268 113.731C97.5027 100.699 148.782 84.6592 200.668 76.6393C309.688 59.7975 419.313 114.132 531.765 131.576C575.373 138.392 619.183 133.581 663.194 124.558C664.81 124.157 666.425 123.957 668.04 123.556C669.251 123.355 670.664 122.954 671.876 122.754C674.298 122.152 676.923 121.551 679.346 121.15C680.153 120.949 680.961 120.749 681.768 120.548C690.853 118.343 699.938 116.137 709.023 113.932C759.899 100.699 811.179 84.8596 863.064 76.8398C972.084 59.998 1081.71 114.333 1194.16 131.776C1246.85 139.996 1299.75 131.375 1352.85 118.543C1370.21 114.333 1387.37 109.721 1404.73 104.909C1444.3 94.0825 1484.28 83.0552 1524.65 76.8398C1633.67 59.998 1743.3 114.333 1855.75 131.776C1908.44 139.996 1961.34 131.375 2014.43 118.543C2031.8 114.333 2048.96 109.721 2066.32 104.909V31.3268C2049.16 36.1388 2031.8 40.7502 2014.43 44.9607Z" fill="#222222"/>
    <path id="road" d="M1 87.8673C16.1416 84.6593 31.4852 81.0504 46.6268 77.0404C97.5027 64.0081 148.782 47.9683 200.668 39.9484C309.688 23.1066 419.313 77.4414 531.765 94.8847C575.373 101.702 619.183 96.8897 663.194 87.8673C664.81 87.4663 666.425 87.2658 668.04 86.8648C669.251 86.6643 670.664 86.2633 671.876 86.0628C674.298 85.4613 676.923 84.8598 679.345 84.4588C680.153 84.2583 680.961 84.0578 681.768 83.8573C690.853 81.6519 699.938 79.4464 709.023 77.2409C759.899 64.0081 811.179 48.1688 863.064 40.1489C972.084 23.3071 1081.71 77.6419 1194.16 95.0852C1246.85 103.306 1299.75 94.6842 1352.85 81.8524C1370.21 77.6419 1387.37 73.0305 1404.73 68.2185C1444.3 57.3917 1484.28 46.3643 1524.65 40.1489C1633.67 23.3071 1743.3 77.6419 1855.75 95.0852C1908.44 103.306 1961.34 94.6842 2014.43 81.8524C2031.8 77.6419 2048.96 73.0305 2066.32 68.2185" stroke="white" stroke-width="3" stroke-miterlimit="10" stroke-dasharray="14 14"/>

    <g id="car-1" clip-path="url(#clip0_494_11357)" transform="translate(-30, -15) rotate(10)">
        <path opacity="0.4" d="M57.185 29.7474C57.3622 29.345 57.468 28.9393 57.5155 28.5975C57.6774 28.5655 57.8053 28.5403 57.8905 28.5234C60.1912 28.0686 62.8584 27.5413 64.7229 26.8054C65.3387 26.5612 65.8627 26.3002 66.2557 26.0039C66.8588 25.561 67.2805 24.5593 67.5166 23.2006L67.515 23.1922C67.5237 23.1467 67.5308 23.0929 67.5395 23.0474C67.5378 23.039 67.5447 23.0289 67.5414 23.012C67.5501 22.9666 67.5519 22.9312 67.5607 22.8858C67.5659 22.8673 67.5711 22.8487 67.5677 22.8319C67.5696 22.7966 67.5816 22.7679 67.5835 22.7326C67.587 22.7056 67.5906 22.6787 67.5924 22.6433C67.596 22.6164 67.5995 22.5895 67.6047 22.571C67.6065 22.5356 67.6153 22.4901 67.6171 22.4548C67.6223 22.4363 67.619 22.4194 67.6259 22.4093C67.6346 22.3639 67.6331 22.3117 67.6418 22.2662C67.6402 22.2578 67.6385 22.2494 67.647 22.2477C67.7896 20.8638 67.7734 19.2139 67.6043 17.4631C67.5034 16.4597 67.3499 15.4142 67.1435 14.3704C66.9388 13.3351 66.6864 12.3267 66.3996 11.3688C65.7489 9.19706 64.9285 7.28633 64.051 5.93791C64.024 5.89078 63.9986 5.85206 63.9631 5.8066C63.9614 5.79819 63.9529 5.79987 63.9512 5.79145C63.9258 5.75274 63.9005 5.71402 63.8768 5.68372C63.8666 5.67698 63.8649 5.66857 63.8531 5.65341C63.8294 5.62311 63.8057 5.59281 63.7803 5.55409C63.7685 5.53894 63.7668 5.53053 63.755 5.51538C63.7313 5.48507 63.7177 5.46151 63.694 5.4312C63.6822 5.41605 63.6703 5.4009 63.6585 5.38575C63.6365 5.36387 63.623 5.3403 63.5993 5.31C63.5874 5.29485 63.5756 5.2797 63.562 5.25613C63.5485 5.23256 63.5265 5.21068 63.513 5.18711C63.5011 5.17196 63.4876 5.14839 63.4672 5.13493C63.4537 5.11136 63.4334 5.09789 63.4198 5.07432C63.4063 5.05076 63.386 5.03729 63.3724 5.01372C63.3606 4.99857 63.3386 4.97669 63.3267 4.96154C63.3132 4.93797 63.2928 4.9245 63.2793 4.90093C63.2675 4.88578 63.2471 4.87232 63.2352 4.85717C63.2217 4.8336 63.2014 4.82013 63.1879 4.79657C63.176 4.78142 63.1556 4.76795 63.1438 4.7528C63.1319 4.73765 63.1099 4.71576 63.098 4.70061C63.0862 4.68546 63.0658 4.672 63.054 4.65685C63.0421 4.6417 63.0218 4.62823 63.0099 4.61308C62.9895 4.59961 62.9777 4.58446 62.9557 4.56258C62.9438 4.54743 62.9234 4.53396 62.9132 4.52723C62.8912 4.50535 62.8708 4.49188 62.8505 4.47841C62.8403 4.47168 62.8284 4.45653 62.8183 4.4498C62.7962 4.42791 62.7742 4.40603 62.7453 4.39425C62.7351 4.38752 62.7334 4.3791 62.7233 4.37237C62.6927 4.35217 62.6605 4.32355 62.6384 4.30167C62.6384 4.30167 62.6384 4.30167 62.6283 4.29493C62.3788 4.10809 62.1325 3.98185 61.8808 3.9179C59.9436 3.43495 56.2368 4.16772 53.1861 4.77078C53.1009 4.78763 52.9731 4.81289 52.8112 4.8449C52.6287 4.54862 52.385 4.21194 52.068 3.90725C51.2509 3.13291 50.4449 3.26601 50.2873 3.45458C50.1521 3.62127 51.1875 4.69357 51.5995 5.07569C47.4751 5.891 36.6018 8.04046 26.0183 10.1326C20.9395 11.1366 16.2355 12.1103 12.3441 12.9845C10.8766 13.3096 9.53167 13.6279 8.3231 13.9193C5.536 14.6015 3.47987 15.1741 2.44092 15.6069C2.39146 15.6254 2.35051 15.6423 2.31123 15.6675C2.30271 15.6692 2.29585 15.6793 2.28733 15.681C2.26343 15.6945 2.23101 15.7096 2.20545 15.7147C2.19693 15.7164 2.18154 15.7281 2.17302 15.7298C2.1406 15.745 2.10818 15.7601 2.08428 15.7736C2.07576 15.7753 2.0689 15.7854 2.06038 15.7871C2.045 15.7989 2.0211 15.8123 2.00406 15.8157C1.99554 15.8174 1.98016 15.8292 1.97164 15.8309C1.95626 15.8426 1.93922 15.846 1.92384 15.8578C1.91532 15.8595 1.90846 15.8696 1.89994 15.8713C1.88456 15.8831 1.86066 15.8965 1.84528 15.9083L1.83676 15.91C1.83676 15.91 1.82824 15.9117 1.8299 15.9201C1.82304 15.9302 1.81452 15.9319 1.80767 15.942C1.80767 15.942 1.80767 15.942 1.79915 15.9437C1.79229 15.9538 1.78543 15.9639 1.77857 15.974C1.77857 15.974 1.77857 15.974 1.77171 15.9841C1.76486 15.9942 1.758 16.0043 1.75114 16.0144L1.74428 16.0245C1.73743 16.0346 1.73057 16.0447 1.72538 16.0632L1.71852 16.0733C1.71166 16.0834 1.70647 16.1019 1.69961 16.112C1.70128 16.1205 1.69275 16.1221 1.69442 16.1306C1.68756 16.1407 1.68237 16.1592 1.67551 16.1693C1.67717 16.1777 1.67032 16.1878 1.67032 16.1878C1.66346 16.1979 1.65827 16.2164 1.66159 16.2333C1.66326 16.2417 1.6564 16.2518 1.65806 16.2602C1.65287 16.2787 1.65454 16.2871 1.64934 16.3057C1.64249 16.3158 1.64415 16.3242 1.63896 16.3427C1.63376 16.3612 1.63542 16.3696 1.63023 16.3882C1.62337 16.3983 1.6267 16.4151 1.61984 16.4252C1.61465 16.4437 1.61631 16.4521 1.61112 16.4707C1.60593 16.4892 1.60759 16.4976 1.6024 16.5161C1.59721 16.5346 1.59887 16.543 1.59368 16.5616C1.58848 16.5801 1.59181 16.5969 1.58662 16.6154C1.57976 16.6255 1.58309 16.6424 1.57623 16.6525C1.57104 16.671 1.57436 16.6878 1.57083 16.7148C1.5725 16.7232 1.56731 16.7417 1.56897 16.7501C1.56378 16.7686 1.56025 16.7956 1.56357 16.8124C1.56524 16.8208 1.56005 16.8394 1.56171 16.8478C1.55818 16.8747 1.55299 16.8932 1.55798 16.9185C1.55964 16.9269 1.55279 16.937 1.55612 16.9538C1.55259 16.9808 1.54905 17.0077 1.54552 17.0346C1.54719 17.0431 1.54033 17.0532 1.542 17.0616C1.53847 17.0885 1.5366 17.1239 1.53307 17.1508C1.53474 17.1592 1.5364 17.1676 1.52954 17.1778C1.52768 17.2131 1.52415 17.24 1.52228 17.2754C1.52395 17.2838 1.52561 17.2922 1.51709 17.2939C1.51523 17.3293 1.51336 17.3646 1.5115 17.4C1.51316 17.4084 1.51316 17.4084 1.51482 17.4168C1.51296 17.4522 1.51275 17.4959 1.51255 17.5397C1.51255 17.5397 1.51255 17.5397 1.51421 17.5481C1.469 19.6037 1.86404 23.3041 2.7338 27.0769C3.51099 31.7251 4.8807 36.0112 5.74137 37.3192C5.75489 37.3428 5.7684 37.3664 5.78025 37.3815C5.78025 37.3815 5.78025 37.3815 5.78191 37.3899C5.79376 37.4051 5.80727 37.4287 5.81912 37.4438C5.81912 37.4438 5.82079 37.4522 5.82931 37.4505C5.84116 37.4657 5.85301 37.4808 5.86486 37.496C5.86652 37.5044 5.87504 37.5027 5.87671 37.5111C5.88856 37.5263 5.89874 37.533 5.91059 37.5482C5.91225 37.5566 5.92078 37.5549 5.92244 37.5633C5.93263 37.5701 5.94448 37.5852 5.94614 37.5936C5.95633 37.6004 5.95632 37.6004 5.96651 37.6071C5.9767 37.6138 5.97836 37.6222 5.98855 37.629C5.99873 37.6357 6.0004 37.6441 6.00892 37.6424C6.0191 37.6492 6.02077 37.6576 6.02929 37.6559C6.03947 37.6626 6.04114 37.6711 6.04966 37.6694C6.05985 37.6761 6.05984 37.6761 6.07003 37.6828C6.08021 37.6896 6.0904 37.6963 6.09892 37.6946L6.10911 37.7014C6.11929 37.7081 6.138 37.7131 6.14652 37.7114C6.16523 37.7165 6.19246 37.7199 6.22135 37.7316C6.22987 37.73 6.24005 37.7367 6.24858 37.735C6.26728 37.7401 6.28599 37.7451 6.31322 37.7485C6.32174 37.7468 6.33192 37.7535 6.34045 37.7518C6.36767 37.7552 6.3949 37.7586 6.43065 37.7602C6.43065 37.7602 6.43065 37.7602 6.43917 37.7586C6.47492 37.7602 6.51068 37.7619 6.55661 37.7703L6.56513 37.7686C6.60088 37.7703 6.64515 37.7703 6.68942 37.7703C6.74222 37.7686 6.79667 37.7753 6.84946 37.7737C8.01922 37.7786 10.2697 37.5174 13.2925 37.0423C13.739 36.9715 14.194 36.8991 14.6745 36.8216C14.7086 36.8148 14.7426 36.8081 14.7853 36.7997C15.0426 36.7575 15.3084 36.7137 15.5827 36.6682C15.5913 36.6666 15.5913 36.6666 15.5998 36.6649C15.702 36.6447 15.8145 36.6312 15.9253 36.6093C15.9593 36.6025 16.0019 36.5941 16.036 36.5874C16.0446 36.5857 16.0531 36.584 16.0616 36.5823C20.1752 35.8916 25.2554 34.9398 30.7517 33.8533C41.3353 31.7611 52.2086 29.6116 56.3329 28.7963C56.0973 29.3065 55.5494 30.7005 55.7363 30.7948C55.9296 30.9665 56.724 30.7745 57.185 29.7474Z" fill="#182D3F"/>
        <path d="M71.8711 22.3408C72.9161 27.627 72.5926 32.7989 70.9849 33.9827C69.3772 35.1664 65.6704 35.8991 62.6197 36.5022C61.0944 36.8037 48.0737 39.3777 35.4535 41.8725C22.8759 44.3589 12.4623 46.1463 10.8808 45.7155C10.1138 45.5085 8.38794 40.5406 7.4749 35.0708L71.8711 22.3408Z" fill="#E8E9EA"/>
        <path d="M71.8726 22.3482C70.8276 17.062 68.5606 12.4022 66.6234 11.9193C64.6862 11.4363 60.9794 12.1691 57.9287 12.7721C56.4034 13.0737 43.3827 15.6476 30.7625 18.1424C18.185 20.6288 7.87452 22.9381 6.57585 23.9383C5.94531 24.4215 6.23957 29.6725 7.47642 35.0782L71.8726 22.3482Z" fill="#E8E9EA"/>
        <path d="M51.5823 36.5675L58.2035 35.2586L59.5797 34.4267L64.3232 34.8622C67.0824 34.308 69.8838 33.1158 70.1525 32.8177C70.9518 31.9338 72.1678 28.9033 70.9082 22.5312L71.8711 22.3408C72.9161 27.627 72.5926 32.7989 70.9849 33.9827C69.3772 35.1664 65.6704 35.8991 62.6197 36.5022L35.4535 41.8725C22.8759 44.3589 12.4623 46.1463 10.8808 45.7155C10.1138 45.5085 8.38794 40.5406 7.4749 35.0708L13.2268 33.9338C14.1021 38.3614 15.1997 42.5701 15.8755 42.9876C16.5513 43.405 28.5047 41.1207 36.3188 39.576C44.133 38.0313 51.5823 36.5675 51.5823 36.5675Z" fill="#CDCFD1"/>
        <path d="M62.3135 35.6699C62.3135 35.6699 62.3752 36.6986 61.9243 37.7323C61.4632 38.7593 60.6672 38.9429 60.4498 38.8285C60.2307 38.7056 61.0553 36.7408 61.1426 36.6448C61.2299 36.5489 61.5913 36.4512 61.6483 36.2912C61.7052 36.1313 61.7442 35.7912 61.7442 35.7912L62.3151 35.6783L62.3135 35.6699Z" fill="#CDCFD1"/>
        <path d="M47.6967 16.9115L54.3179 15.6026L55.9071 15.8482L60.1281 13.6406C62.8907 13.1032 65.935 13.1399 66.2969 13.3133C67.3723 13.8266 69.65 16.1665 70.9097 22.5386L71.8726 22.3482C70.8276 17.062 68.5606 12.4022 66.6234 11.9193C64.6862 11.4363 60.9794 12.1691 57.9287 12.7721L30.7625 18.1424C18.185 20.6288 7.87452 22.9381 6.57585 23.9383C5.94531 24.4215 6.23957 29.6725 7.47642 35.0782L13.2284 33.9412C12.3531 29.5135 11.7668 25.2037 12.2329 24.5606C12.699 23.9174 24.6225 21.4816 32.4366 19.9369C40.2507 18.3922 47.6967 16.9115 47.6967 16.9115Z" fill="#CDCFD1"/>
        <path d="M57.9617 13.6579C57.9617 13.6579 57.6274 12.6832 56.8171 11.8987C55.9999 11.1244 55.1939 11.2575 55.0364 11.4461C54.8805 11.6431 56.3908 13.1463 56.508 13.2018C56.6252 13.2574 56.9966 13.2102 57.1101 13.3365C57.2236 13.4627 57.3891 13.7624 57.3891 13.7624L57.9601 13.6495L57.9617 13.6579Z" fill="#CDCFD1"/>
        <path d="M15.2204 27.2151C15.1555 26.8868 15.3749 26.5635 15.7073 26.4978L42.0639 21.2876C42.3963 21.2219 42.7222 21.4373 42.7871 21.7656C42.852 22.0939 42.6326 22.4172 42.3002 22.4829L15.9435 27.6931C15.6112 27.7588 15.2853 27.5434 15.2204 27.2151Z" fill="#CDCFD1"/>
        <path d="M16.0163 31.2395C15.9514 30.9112 16.1708 30.5879 16.5031 30.5222L42.8598 25.312C43.1922 25.2463 43.5181 25.4617 43.583 25.79C43.6479 26.1183 43.4284 26.4416 43.0961 26.5073L16.7394 31.7175C16.4088 31.7916 16.0828 31.5762 16.0163 31.2395Z" fill="#CDCFD1"/>
        <path d="M16.8131 35.2707C16.7482 34.9424 16.9677 34.6192 17.3 34.5535L43.6567 29.3432C43.989 29.2775 44.315 29.493 44.3799 29.8213C44.4448 30.1496 44.2253 30.4728 43.893 30.5385L17.5363 35.7488C17.204 35.8145 16.878 35.599 16.8131 35.2707Z" fill="#CDCFD1"/>
        <path d="M17.6081 39.2942C17.5432 38.9659 17.7626 38.6426 18.0949 38.5769L44.4516 33.3667C44.784 33.301 45.1099 33.5164 45.1748 33.8447C45.2397 34.173 45.0202 34.4963 44.6879 34.562L18.3312 39.7722C17.9989 39.8379 17.673 39.6225 17.6081 39.2942Z" fill="#CDCFD1"/>
        <path d="M50.7833 37.9491L62.398 35.6531L58.1941 35.2596L51.5815 36.5668L50.7833 37.9491Z" fill="#343A49"/>
        <path d="M11.3271 43.3084C11.6173 43.5222 13.942 43.0539 13.9398 42.4158C13.9308 41.7878 12.9135 38.2542 12.1031 34.1548L8.83092 34.8017C9.75091 39.5004 11.037 43.0946 11.3271 43.3084Z" fill="#343A49"/>
        <path d="M65.9596 23.5179C64.2574 14.9067 60.1204 13.6428 60.1204 13.6428L55.8994 15.8504C55.8994 15.8504 58.5558 19.5236 59.5942 24.7762L65.9596 23.5179Z" fill="#272C38"/>
        <path d="M64.9705 23.7135C63.4846 16.1966 59.946 14.4209 59.946 14.4209L56.6635 16.1806C56.6635 16.1806 59.0158 19.704 60.0026 24.6956L64.9705 23.7135Z" fill="#343A49"/>
        <path d="M65.959 23.5176C67.6613 32.1287 64.3164 34.8716 64.3164 34.8716L59.5729 34.4361C59.5729 34.4361 60.6318 30.0285 59.5935 24.7759L65.959 23.5176Z" fill="#343A49"/>
        <path d="M64.9707 23.7129C66.4567 31.2298 63.8599 34.2184 63.8599 34.2184L60.1548 33.84C60.1548 33.84 60.9895 29.6866 60.0027 24.695L64.9707 23.7129Z" fill="#276379"/>
        <path d="M46.4322 15.9366L58.0469 13.6406L54.3089 15.6041L47.6963 16.9113L46.4322 15.9366Z" fill="#272C38"/>
        <path d="M67.8746 29.3051C67.8746 29.3051 68.2249 26.8219 67.511 23.2107C66.7972 19.5996 65.5284 17.4364 65.5284 17.4364L64.8988 17.7008C64.8988 17.7008 66.0915 19.7478 66.8054 23.359C67.5176 26.9617 67.1952 29.317 67.1952 29.317L67.8746 29.3051Z" fill="#343A49"/>
        <path d="M7.89456 25.944C8.08157 25.6359 10.4445 25.3612 10.6836 25.9437C10.9227 26.5262 11.2947 30.065 12.1034 34.1559L8.83116 34.8028C7.89579 30.1159 7.70754 26.2521 7.89456 25.944Z" fill="#272C38"/>
        <path d="M11.4031 42.8481C11.6133 43.0602 13.0858 42.7603 13.0493 42.1728C13.0112 41.5768 12.1226 38.2014 11.3538 34.3125L9.07863 34.7622C9.96907 39.2219 11.193 42.636 11.4031 42.8481Z" fill="#276379"/>
        <path d="M8.1403 26.3413C8.25395 26.0652 9.76309 25.9505 9.95293 26.5077C10.1444 27.0734 10.5837 30.4152 11.3525 34.3041L9.07726 34.7539C8.20386 30.2909 8.02665 26.6174 8.1403 26.3413Z" fill="#343A49"/>
        <path d="M69.134 15.1234C68.8989 14.785 67.7346 12.8373 66.8847 12.5243C66.045 12.218 65.0208 12.4117 64.891 11.7551C65.5534 11.7466 66.1372 11.7886 66.6134 11.9132C67.5913 12.1572 68.6461 13.4618 69.5909 15.3742C69.5584 15.3893 69.3691 15.4618 69.134 15.1234Z" fill="#272C38"/>
        <path d="M72.0958 30.0627C72.0071 30.4651 71.6747 32.7699 71.0147 33.3727C70.3547 33.9755 69.3306 34.1255 69.4604 34.782C70.0762 34.5378 70.6002 34.2768 70.9932 33.9805C71.8047 33.3827 72.2838 31.7749 72.4298 29.6469C72.3786 29.657 72.1777 29.6705 72.0958 30.0627Z" fill="#343A49"/>
        <path d="M6.31304 27.4456C6.17724 25.5045 6.27535 24.1644 6.5744 23.9304C6.69743 23.8361 6.90568 23.7249 7.19228 23.607C7.32973 24.0784 6.9022 24.1105 6.79354 24.4118C6.67636 24.7149 6.72674 25.2385 6.72432 25.7637C6.71338 26.2907 6.84989 27.3395 6.31304 27.4456Z" fill="#272C38"/>
        <path d="M9.30312 42.5721C9.92463 44.4172 10.5168 45.6208 10.8824 45.7235C11.032 45.7639 11.2669 45.7874 11.5683 45.7891C11.5075 45.3025 11.1085 45.4339 10.8933 45.1965C10.6696 44.9609 10.517 44.4575 10.3149 43.9727C10.1128 43.4878 9.90813 42.4525 9.30312 42.5721Z" fill="#343A49"/>
        <path d="M64.5997 24.3898C64.2827 24.0851 63.2313 24.2755 62.7749 24.6543C62.3185 25.0332 62.2328 25.5399 62.835 26.3917C63.4373 27.2435 63.8684 27.9018 63.7386 28.7233C63.6174 29.5432 63.3243 29.5837 63.1669 30.4895C63.018 31.3935 63.6217 32.2975 63.2392 32.9154C62.8566 33.5333 61.2564 33.0975 61.2005 33.3972C61.1446 33.6968 63.2477 34.0333 63.671 33.8009C64.0944 33.5686 64.7332 32.0078 64.9599 29.7502C65.195 27.4908 64.9184 24.7029 64.5997 24.3898Z" fill="#488595"/>
        <path d="M8.82374 34.7843L7.4707 35.0518" stroke="#9FA2A5" stroke-width="0.304063"/>

        <animateMotion dur="10s" repeatCount="indefinite" rotate="auto">
            <mpath href="#road" />
        </animateMotion>
    </g>
    <defs>
        <clipPath id="clip0_494_11357">
        <rect width="36.8015" height="68.7607" fill="white" transform="translate(67.4551) rotate(78.8178)"/>
        </clipPath>
    </defs>

    <g id="car-2" x="100" y="100" clip-path="url(#clip0_494_11387)" transform="translate(-30, -17) rotate(18)">
        <path opacity="0.4" d="M43.508 32.2059C43.8436 31.5432 43.8171 30.8506 43.8102 30.7068C44.6448 30.4098 45.3375 30.1583 45.8761 29.9758C46.027 29.9274 46.169 29.8818 46.2932 29.842C48.3168 29.1927 51.1466 28.8593 53.644 27.7951C56.1415 26.7309 57.2077 25.8436 57.9895 24.619C58.7713 23.3944 58.6722 20.3395 58.6722 20.3395C59.0914 19.8155 59.5454 18.8812 58.0672 14.2434C56.5801 9.60848 55.6612 9.12432 55.0126 8.93321C55.0126 8.93321 53.313 6.38206 51.9676 5.84976C50.6192 5.30863 49.2358 5.20721 46.5854 5.79466C43.935 6.38211 41.4395 7.75727 39.4159 8.40653C38.8478 8.58878 37.9784 8.83852 36.8814 9.14179C36.8034 9.02075 36.4337 8.44804 35.7635 8.0983C35.0231 7.71268 34.155 8.08858 34.1391 8.40526C34.1276 8.61344 34.8214 9.18929 35.3705 9.55839C32.6767 10.3156 29.1223 11.3196 25.4745 12.49C19.3948 14.4406 17.8804 15.1212 16.954 15.2237C16.0275 15.3262 13.3896 15.861 10.9147 16.7816C8.44858 17.6994 8.18892 18.4157 6.80622 19.1709C6.44119 19.3756 6.08824 19.557 5.75305 19.7327C5.74417 19.7356 5.74418 19.7356 5.7353 19.7384C5.64334 19.7874 5.54249 19.8393 5.45053 19.8882C5.42673 19.9056 5.4001 19.9141 5.37631 19.9315C5.34364 19.9517 5.3021 19.9748 5.26943 19.995C5.23676 20.0152 5.21296 20.0326 5.17746 20.044C5.14479 20.0642 5.11213 20.0844 5.07058 20.1075C5.03791 20.1277 5.01411 20.1451 4.98144 20.1653C4.94877 20.1855 4.9161 20.2058 4.88343 20.226C4.84189 20.249 4.81205 20.2781 4.77051 20.3012C4.72292 20.3359 4.68137 20.359 4.63379 20.3937C4.60112 20.4139 4.56845 20.4341 4.53861 20.4632C4.50594 20.4834 4.48498 20.5096 4.45231 20.5298C4.41964 20.55 4.39868 20.5762 4.37489 20.5936C4.35109 20.611 4.32125 20.64 4.29746 20.6574C4.26762 20.6865 4.24382 20.7038 4.21399 20.7329C4.19019 20.7502 4.16923 20.7764 4.14544 20.7938C4.10069 20.8374 4.05593 20.881 4.02005 20.9217C3.99909 20.9479 3.98417 20.9624 3.96321 20.9886C3.94225 21.0148 3.91241 21.0439 3.89145 21.0701C3.87049 21.0963 3.8584 21.1196 3.83744 21.1458C3.81648 21.172 3.78948 21.2099 3.76851 21.2361C3.75643 21.2594 3.73547 21.2856 3.72338 21.309C3.69921 21.3557 3.66616 21.4052 3.64199 21.4519C3.63594 21.4636 3.6299 21.4753 3.62102 21.4781C3.61498 21.4898 3.60894 21.5015 3.60289 21.5132C3.59081 21.5365 3.58476 21.5482 3.57268 21.5716C3.56664 21.5832 3.55455 21.6066 3.54851 21.6183C3.5453 21.6388 3.53038 21.6533 3.52717 21.6738C3.52396 21.6943 3.50904 21.7088 3.50583 21.7293C3.49374 21.7527 3.49053 21.7732 3.47844 21.7965C3.47523 21.817 3.46032 21.8316 3.45711 21.8521C3.43898 21.8871 3.43256 21.9281 3.41726 21.972C3.40518 21.9953 3.4048 22.0246 3.39271 22.048C3.3895 22.0685 3.37741 22.0919 3.3742 22.1124C3.36495 22.1445 3.36174 22.165 3.35249 22.1972C3.34927 22.2177 3.34607 22.2382 3.34286 22.2587C3.3336 22.2909 3.32435 22.3231 3.31509 22.3553C3.30905 22.367 3.31189 22.3758 3.30584 22.3875C3.29017 22.4606 3.27733 22.5427 3.26165 22.6159C3.25561 22.6275 3.26127 22.6452 3.25523 22.6569C3.24881 22.6979 3.24239 22.7389 3.23597 22.7799C3.23276 22.8004 3.22954 22.8209 3.22633 22.8414C3.21991 22.8824 3.21349 22.9234 3.2099 22.9733C3.20669 22.9938 3.20349 23.0143 3.20027 23.0348C3.18743 23.1168 3.17742 23.2076 3.17629 23.2956C3.17307 23.3161 3.16986 23.3366 3.16666 23.3572C3.16023 23.3982 3.16269 23.4363 3.15627 23.4773C3.14984 23.5183 3.1523 23.5565 3.14588 23.5975C3.1455 23.6268 3.13908 23.6679 3.14154 23.706C3.13833 23.7265 3.14116 23.7353 3.13795 23.7558C3.04786 25.4888 3.29748 28.0669 4.39083 31.4747C5.48418 34.8825 6.77507 37.1363 7.86259 38.4817C7.87713 38.4965 7.87996 38.5053 7.89451 38.5201C7.91471 38.5526 7.94096 38.5734 7.96116 38.6058C7.99024 38.6355 8.01045 38.6679 8.03953 38.6975C8.06861 38.7272 8.08882 38.7596 8.1179 38.7892C8.13244 38.804 8.14698 38.8189 8.16152 38.8337C8.22251 38.9017 8.28068 38.961 8.3328 39.0319C8.34734 39.0467 8.36188 39.0615 8.37642 39.0763C8.4055 39.1059 8.43458 39.1355 8.46649 39.174C8.48103 39.1888 8.49558 39.2036 8.51012 39.2184C8.5392 39.248 8.56828 39.2777 8.59736 39.3073C8.60907 39.3133 8.61473 39.3309 8.62644 39.3369C8.68461 39.3961 8.73994 39.4465 8.7981 39.5058C8.80981 39.5118 8.81263 39.5206 8.82434 39.5266C8.85059 39.5474 8.87684 39.5681 8.90309 39.5889C8.91763 39.6037 8.93217 39.6186 8.94671 39.6334C8.97296 39.6542 8.9875 39.669 9.01375 39.6898C9.02829 39.7046 9.05171 39.7165 9.06625 39.7313C9.08967 39.7433 9.10704 39.7669 9.13045 39.7789C9.16841 39.8057 9.19466 39.8265 9.23262 39.8532C9.24715 39.868 9.26773 39.8712 9.28228 39.886C9.30569 39.8979 9.32023 39.9127 9.34365 39.9247C9.35819 39.9395 9.37877 39.9427 9.39332 39.9575C9.40786 39.9723 9.42844 39.9754 9.44298 39.9902C9.45469 39.9962 9.4781 40.0082 9.48981 40.0141C9.51323 40.0261 9.52494 40.0321 9.54835 40.044C9.56006 40.05 9.57177 40.056 9.58348 40.062C9.59519 40.068 9.6069 40.0739 9.61577 40.0711C9.66261 40.095 9.71831 40.1161 9.76514 40.14C9.78856 40.152 9.82085 40.1611 9.84427 40.1731C9.87939 40.191 9.92056 40.1973 9.95285 40.2064C9.98514 40.2155 10.0086 40.2275 10.0408 40.2366C10.0731 40.2457 10.1143 40.2519 10.1466 40.2611C10.1789 40.2702 10.1995 40.2733 10.2318 40.2824C10.2935 40.2918 10.3553 40.3012 10.4081 40.3135C10.4376 40.3138 10.4699 40.3229 10.4993 40.3232C10.5405 40.3294 10.57 40.3297 10.6111 40.336C10.6406 40.3363 10.6818 40.3425 10.7112 40.3428C10.7407 40.3431 10.7819 40.3494 10.8113 40.3496C10.8497 40.3471 10.8819 40.3562 10.9203 40.3536C10.9586 40.3511 10.9998 40.3573 11.0381 40.3548C11.0882 40.3582 11.1442 40.3499 11.2032 40.3505C11.2504 40.3451 11.2915 40.3514 11.3387 40.346C11.3771 40.3434 11.4154 40.3408 11.4538 40.3383C11.4921 40.3357 11.5215 40.336 11.5599 40.3334C11.5982 40.3309 11.6366 40.3283 11.6838 40.3229C11.7221 40.3203 11.7516 40.3206 11.7871 40.3092C11.8254 40.3067 11.8726 40.3013 11.9109 40.2987C11.9404 40.299 11.967 40.2904 11.9965 40.2907C12.0998 40.2771 12.2031 40.2634 12.3181 40.2557C12.327 40.2529 12.3269 40.2529 12.3358 40.25C12.7107 40.1979 13.1033 40.1401 13.5193 40.0943C15.0744 39.9069 15.7023 40.3384 18.2509 39.6473C18.8895 39.4716 19.5225 39.2782 20.1204 39.0669C21.9286 38.4478 23.4638 37.741 24.0693 37.4007C24.1286 37.372 24.185 37.3344 24.2532 37.3028C24.849 37.024 25.8661 36.7464 28.1939 36.0384C29.3179 35.6973 30.7525 35.2565 32.5898 34.667C36.2287 33.4995 39.7038 32.2482 42.3442 31.294C42.1123 31.9137 41.883 32.7857 42.0135 32.9483C42.2025 33.1408 43.1301 32.9503 43.508 32.2059Z" fill="#2A303B"/>
        <path d="M63.0314 18.8822C61.5444 14.2473 60.6255 13.7631 59.9768 13.572C59.9768 13.572 58.2773 11.0208 56.9318 10.4885C55.5835 9.94742 54.2 9.846 51.5496 10.4334C48.8993 11.0209 46.4037 12.3961 44.3801 13.0453C42.3565 13.6946 36.5302 15.1841 30.4416 17.1376C24.3529 19.0911 22.8475 19.7689 21.921 19.8713C20.9946 19.9738 18.3567 20.5086 15.8817 21.4293C13.4068 22.3499 13.156 23.0633 11.7733 23.8185C10.3995 24.5709 9.16142 25.0752 8.59697 26.1229C8.03252 27.1706 7.5855 30.5371 9.36715 36.0901L63.0286 18.8734L63.0314 18.8822Z" fill="#9EE251"/>
        <path d="M63.0312 18.8828C64.5183 23.5177 64.0526 24.4461 63.6362 24.9789C63.6362 24.9789 63.7382 28.0427 62.9535 29.2584C62.1717 30.483 61.1055 31.3703 58.6081 32.4345C56.1107 33.4987 53.2809 33.8321 51.2573 34.4814C49.2336 35.1306 43.6283 37.3088 37.5397 39.2623C31.451 41.2158 29.8323 41.5404 29.0192 41.996C28.206 42.4517 25.7494 43.5514 23.2008 44.2425C20.661 44.9308 20.0332 44.4993 18.4692 44.6895C16.9141 44.8769 15.6137 45.187 14.5451 44.6632C13.4764 44.1395 11.1543 41.6615 9.37262 36.1084L63.0341 18.8916L63.0312 18.8828Z" fill="#9EE251"/>
        <path d="M49.834 30.4396C55.3209 28.5331 59.0391 25.1104 59.0391 25.1104C59.0391 25.1104 53.7594 28.3038 49.688 29.649L49.834 30.4396Z" fill="#DAFF92"/>
        <path d="M45.5686 17.1439C51.1406 15.5022 56.156 16.1229 56.156 16.1229C56.156 16.1229 50.0039 16.5972 45.9099 17.8718L45.5686 17.1439Z" fill="#658D37"/>
        <path d="M55.3038 11.1179C53.1389 10.8387 51.1041 12.1245 47.9937 13.2003C44.8922 14.2733 43.9875 14.7486 43.9875 14.7486C43.9875 14.7486 40.2497 17.4084 37.5468 18.8696C37.0288 18.1399 36.1711 18.3957 36.1711 18.3957C36.1711 18.3957 37.0453 18.0081 38.9184 16.9203C40.7826 15.8353 42.4816 14.5404 42.4816 14.5404L19.1586 23.2503C19.1586 23.2503 11.2314 25.667 10.2938 26.406C9.35624 27.145 9.43079 31.1913 10.847 35.6055L9.40034 36.0696C7.61585 30.5077 8.05399 27.1441 8.63016 26.1024C9.20632 25.0607 10.4327 24.5504 11.8065 23.798C13.1803 23.0456 13.44 22.3294 15.9149 21.4088C18.381 20.491 21.0278 19.9533 21.9542 19.8508C22.8807 19.7483 24.395 19.0677 30.4748 17.1171C36.5545 15.1665 42.3897 13.6741 44.4133 13.0248C46.4369 12.3756 48.9325 11.0004 51.5828 10.4129C54.2332 9.82549 55.6167 9.92691 56.965 10.468C58.3133 11.0092 60.01 13.5515 60.01 13.5515C60.6558 13.7338 61.5776 14.2268 63.0646 18.8617L62.044 19.1892C60.9704 15.8432 60.1167 14.6468 59.6712 14.2347C59.187 13.8545 57.4747 11.3853 55.3038 11.1179Z" fill="#658D37"/>
        <path d="M42.4753 14.5527L41.8749 13.8105C41.8749 13.8105 41.4918 13.135 40.7513 12.7494C40.0109 12.3637 39.1428 12.7396 39.1269 13.0563C39.1022 13.3759 40.7166 14.5327 40.9757 14.5469C41.2436 14.5583 41.6115 14.8201 41.6115 14.8201L42.4753 14.5527Z" fill="#658D37"/>
        <path d="M48.832 34.3643L48.7756 35.3171C48.7756 35.3171 48.8569 36.0895 48.4791 36.8339C48.1012 37.5783 47.1764 37.7777 46.9793 37.5293C46.7733 37.2838 47.4133 35.4037 47.6157 35.2414C47.827 35.0762 47.9739 34.6493 47.9739 34.6493L48.832 34.3643Z" fill="#658D37"/>
        <path d="M59.1701 13.4113C59.1701 13.4113 55.6671 12.2567 51.5685 12.5104C47.4699 12.764 43.5639 13.618 43.5639 13.618L43.9854 14.7486C43.9854 14.7486 49.269 13.3066 52.3975 13.111C55.526 12.9154 59.4666 13.7252 59.4666 13.7252L59.1701 13.4113Z" fill="#658D37"/>
        <path d="M61.2634 29.6934C59.665 31.18 57.262 31.318 54.1063 32.2526C50.9594 33.1844 49.9471 33.3242 49.9471 33.3242C49.9471 33.3242 45.3596 33.3354 42.3111 33.7195C42.3143 34.6143 41.4679 34.9054 41.4679 34.9054C41.4679 34.9054 42.4044 34.712 44.5608 34.507C46.7083 34.3049 48.8435 34.3696 48.8435 34.3696L24.8067 40.8547C24.8067 40.8547 16.9531 43.501 15.7606 43.4454C14.5652 43.3811 12.2746 40.0556 10.8584 35.6413L9.41167 36.1055C11.1962 41.6674 13.5094 44.1482 14.5841 44.6603C15.6588 45.1724 16.9531 44.874 18.5082 44.6866C20.0633 44.4993 20.6912 44.9307 23.2398 44.2396C25.7795 43.5513 28.2451 42.4487 29.0582 41.9931C29.8714 41.5374 31.499 41.21 37.5787 39.2594C43.6585 37.3087 49.2727 35.1277 51.2963 34.4784C53.3199 33.8292 56.1497 33.4958 58.6472 32.4316C61.1446 31.3674 62.2108 30.48 62.9926 29.2555C63.7744 28.0309 63.6753 24.976 63.6753 24.976C64.0945 24.452 64.5574 23.5148 63.0703 18.8799L62.0496 19.2074C63.1232 22.5533 63.1248 24.0231 63.0023 24.6175C62.8797 25.2118 62.8734 28.2129 61.2634 29.6934Z" fill="#658D37"/>
        <path d="M63.0743 25.5772C63.0743 25.5772 60.8969 28.5543 57.4158 30.7325C53.9347 32.9107 50.261 34.4886 50.261 34.4886L49.946 33.3239C49.946 33.3239 55.0823 31.4228 57.7406 29.7617C60.3989 28.1006 63.1328 25.1494 63.1328 25.1494L63.0743 25.5772Z" fill="#658D37"/>
        <path d="M49.4505 23.2387C47.7737 18.0122 43.9856 14.7485 43.9856 14.7485C43.9856 14.7485 40.0905 17.4977 37.5478 18.8783C37.5478 18.8783 39.3334 22.064 40.6222 26.0809L49.4533 23.2475L49.4505 23.2387Z" fill="#2A303B"/>
        <path d="M21.4683 32.2182C20.6044 29.5255 20.0398 27.1555 19.7834 26.0206C19.6999 25.6384 19.3256 25.4177 18.9884 25.5259L15.3938 26.6792C14.0447 27.1121 13.2542 28.5536 13.5355 30.0408C13.7593 31.1959 14.1173 32.6779 14.6697 34.3995L21.4683 32.2182Z" fill="#2A303B"/>
        <path d="M42.4751 14.5531C42.4751 14.5531 39.0032 17.1568 36.0137 18.4567C33.0241 19.7567 30.7129 20.5469 27.8323 21.3932C24.9518 22.2396 19.1521 23.2629 19.1521 23.2629C19.1521 23.2629 23.5619 20.8062 29.9428 18.5739C36.3238 16.3416 42.4751 14.5531 42.4751 14.5531Z" fill="#2A303B"/>
        <path d="M57.4358 12.3326C56.4282 10.9616 54.7607 10.036 54.7607 10.036C55.5913 10.0617 56.2698 10.2237 56.9411 10.4855C58.2894 11.0266 59.9861 13.5689 59.9861 13.5689C58.9762 13.2892 58.4435 13.7036 57.4358 12.3326Z" fill="#2A303B"/>
        <path d="M8.14382 28.3711C8.20501 27.2804 8.4033 26.5254 8.62652 26.1227C9.06728 25.2997 9.93085 24.8182 10.9336 24.2822C10.9336 24.2822 10.8331 24.7624 10.3843 25.0719C9.93538 25.3815 9.6302 25.7423 9.34354 26.4964C9.06858 27.2565 9.3862 28.2159 8.14382 28.3711Z" fill="#2A303B"/>
        <path d="M37.402 22.9087C36.8947 21.5719 35.4276 20.8741 34.0519 21.3155C32.5875 21.7854 31.8068 23.3796 32.3363 24.8163C32.6752 25.7203 33.0814 26.8947 33.546 28.3426L38.7204 26.6824C38.2647 25.2317 37.7983 23.9305 37.402 22.9087Z" fill="#2A303B"/>
        <path d="M39.8448 30.5179C39.5638 29.4591 39.195 28.1266 38.7305 26.6787L33.556 28.3389C34.0206 29.7867 34.3618 30.9723 34.6237 31.9107C35.0201 33.3902 36.5825 34.2326 38.0559 33.7599C39.4227 33.3214 40.21 31.9003 39.8448 30.5179Z" fill="#323845"/>
        <path d="M49.4521 23.2393C51.1289 28.4657 49.9467 33.3241 49.9467 33.3241C49.9467 33.3241 45.1792 33.3542 42.3079 33.7107C42.3079 33.7107 41.9069 30.0808 40.6181 26.0639L49.4492 23.2305L49.4521 23.2393Z" fill="#323845"/>
        <path d="M48.023 23.6979C46.4651 18.8423 43.4605 15.8238 43.4605 15.8238C43.4605 15.8238 40.1909 18.051 38.2464 19.1909C38.2464 19.1909 39.8604 22.2077 41.0557 25.9333L48.023 23.6979Z" fill="#323845"/>
        <path d="M48.0234 23.6982C49.5813 28.5539 48.8937 32.757 48.8937 32.757C48.8937 32.757 44.9386 32.8478 42.6939 33.0519C42.6939 33.0519 42.2515 29.6592 41.0561 25.9336L48.0234 23.6982Z" fill="#276379"/>
        <path d="M21.4679 32.2182C22.3318 34.9108 23.2514 37.1669 23.7031 38.2392C23.8576 38.5986 23.6816 38.9958 23.3443 39.1041L19.7497 40.2574C18.4006 40.6902 16.919 39.9776 16.2826 38.6044C15.7926 37.5347 15.2215 36.121 14.6692 34.3995L21.4679 32.2182Z" fill="#323845"/>
        <path d="M20.3126 32.5883C19.5138 30.0987 18.9409 27.9164 18.6773 26.8812C18.5874 26.54 18.3224 26.2939 18.1006 26.3651L15.7752 27.1112C14.8965 27.3931 14.4799 28.6271 14.7983 29.9855C15.0381 31.0381 15.3976 32.4028 15.9103 34.0007L20.3126 32.5883Z" fill="#323845"/>
        <path d="M20.3134 32.5876C21.1122 35.0773 21.9158 37.1855 22.3037 38.1809C22.4291 38.5107 22.3568 38.8649 22.1349 38.9361L19.8095 39.6822C18.9308 39.9641 17.8741 39.2029 17.3427 37.9128C16.9254 36.9171 16.4238 35.598 15.9111 34.0001L20.3134 32.5876Z" fill="#276379"/>
        <path d="M48.8317 34.364C48.8317 34.364 44.4931 34.2662 41.3053 34.9482C38.1175 35.6302 35.7779 36.3321 32.9427 37.3197C30.1074 38.3072 24.7949 40.8491 24.7949 40.8491C24.7949 40.8491 29.8049 40.2933 36.2906 38.3877C42.7881 36.4881 48.8317 34.364 48.8317 34.364Z" fill="#2A303B"/>
        <path d="M62.2896 27.4649C62.2677 29.1662 61.45 30.8891 61.45 30.8891C62.1105 30.3851 62.5681 29.8585 62.9618 29.255C63.7436 28.0305 63.6445 24.9756 63.6445 24.9756C62.9858 25.7906 62.3115 25.7636 62.2896 27.4649Z" fill="#323845"/>
        <path d="M12.8677 43.0975C13.552 43.949 14.1525 44.4477 14.5684 44.6453C15.4057 45.0583 16.3882 44.9475 17.5156 44.8001C17.5156 44.8001 17.1545 44.468 16.6094 44.4774C16.0642 44.4868 15.606 44.3708 14.9341 43.9243C14.2683 43.466 13.9684 42.5009 12.8677 43.0975Z" fill="#323845"/>
        <path d="M38.1266 26.8727C37.7074 25.5661 37.2895 24.3857 36.9449 23.4641C36.4979 22.254 35.4081 21.5423 34.2631 21.9097C33.1182 22.277 32.5847 23.6653 33.06 24.9637C33.3618 25.7822 33.7223 26.8447 34.1415 28.1513L38.1266 26.8727Z" fill="#323845"/>
        <path d="M39.1489 30.3329C38.8902 29.3741 38.5462 28.1797 38.127 26.873L34.1418 28.1516C34.561 29.4582 34.8772 30.535 35.1168 31.3734C35.4856 32.706 36.7627 33.5134 37.8721 33.1574C38.9816 32.8015 39.4894 31.5772 39.1489 30.3329Z" fill="#276379"/>
        <path d="M18.4042 33.6578C17.9091 33.6706 16.7379 34.0172 16.5821 34.4469C16.4263 34.8767 17.6694 38.324 18.5303 38.9631C19.3912 39.6022 20.7112 39.1397 20.6295 38.8544C20.5388 38.5719 19.8241 38.9375 19.4685 38.4089C19.1129 37.8804 19.1663 37.6198 19.1054 37.0941C19.0532 36.5655 18.7858 36.2813 18.6559 35.8458C18.526 35.4104 18.6161 35.0504 18.8978 34.6777C19.1885 34.302 18.9111 33.651 18.4042 33.6578Z" fill="#327F93"/>
        <path d="M47.628 24.5069C47.1338 24.2175 45.5669 24.8565 45.2618 25.2173C44.9566 25.5781 44.9458 26.1853 45.4991 26.6894C46.0524 27.1935 46.903 27.0374 47.0514 27.8662C47.1998 28.6949 47.0236 28.878 47.0195 29.6583C47.0181 30.4475 47.603 31.0193 47.3747 31.5892C47.1552 32.1562 45.298 32.012 45.3112 32.3583C45.3244 32.7046 48.0074 32.5546 48.32 32.3083C48.6236 32.0648 48.7819 30.7579 48.6596 28.8205C48.5344 26.8743 48.1222 24.7962 47.628 24.5069Z" fill="#327F93"/>
        <path d="M37.7872 28.072C38.1333 27.961 38.5686 29.6227 38.744 30.4136C38.9195 31.2044 38.6949 32.3962 37.7985 32.6838C36.9021 32.9715 36.1114 32.3683 35.8874 31.9143C35.6546 31.4632 35.6693 30.7769 36.2462 30.5918C36.8143 30.4095 37.1241 30.8262 37.6259 30.5289C38.122 30.2139 37.441 28.1831 37.7872 28.072Z" fill="#327F93"/>
    
        <animateMotion dur="10s" begin="4.5s" repeatCount="indefinite" rotate="auto">
            <mpath href="#road" />
        </animateMotion>
    </g>
    <defs>
        <clipPath id="clip0_494_11387">
        <rect width="32.1171" height="59.6461" fill="white" transform="translate(57.2188 0.766602) rotate(72.2116)"/>
        </clipPath>
    </defs>
</svg>
