<svg width="1800" height="135" viewBox="0 0 1800 135" fill="none" xmlns="http://www.w3.org/2000/svg">
    <path d="M2014.43 44.9607C1961.14 57.993 1908.44 66.4139 1855.75 58.1935C1743.3 40.7502 1633.67 -13.7851 1524.65 3.2572C1472.77 11.2771 1421.49 27.3169 1370.61 40.3492C1355.47 44.3592 1340.13 47.9681 1324.99 51.1761C1281.18 60.1985 1237.57 65.0104 1193.96 58.1935C1081.51 40.7502 971.882 -13.7851 862.862 3.2572C822.484 9.47262 782.309 20.7005 742.537 31.3268C738.297 32.5298 734.057 33.7328 729.818 34.7353C729.616 34.7353 729.616 34.7353 729.414 34.7353C725.376 35.7378 721.54 36.9408 717.502 37.9432C716.291 38.3442 715.08 38.5447 714.07 38.9457C711.648 39.5472 709.023 40.1487 706.6 40.9507C704.582 41.5522 702.361 41.9532 700.342 42.5547C698.525 42.9557 696.506 43.5572 694.689 43.9582C692.065 44.5597 689.642 45.1612 687.017 45.7626C686.412 45.9631 685.806 46.1636 684.998 46.1636C681.768 46.9656 678.538 47.7676 675.106 48.3691C674.702 48.3691 674.5 48.5696 674.096 48.5696C670.462 49.3716 666.828 50.1736 662.993 50.9756C618.981 60.1985 575.171 64.8099 531.563 57.993C419.313 40.7502 309.688 -13.5846 200.668 3.2572C148.782 11.2771 97.5027 27.3169 46.6268 40.3492C31.4852 44.3592 16.1416 47.9681 1 51.1761V124.558C16.1416 121.35 31.4852 117.741 46.6268 113.731C97.5027 100.699 148.782 84.6592 200.668 76.6393C309.688 59.7975 419.313 114.132 531.765 131.576C575.373 138.392 619.183 133.581 663.194 124.558C664.81 124.157 666.425 123.957 668.04 123.556C669.251 123.355 670.664 122.954 671.876 122.754C674.298 122.152 676.923 121.551 679.346 121.15C680.153 120.949 680.961 120.749 681.768 120.548C690.853 118.343 699.938 116.137 709.023 113.932C759.899 100.699 811.179 84.8596 863.064 76.8398C972.084 59.998 1081.71 114.333 1194.16 131.776C1246.85 139.996 1299.75 131.375 1352.85 118.543C1370.21 114.333 1387.37 109.721 1404.73 104.909C1444.3 94.0825 1484.28 83.0552 1524.65 76.8398C1633.67 59.998 1743.3 114.333 1855.75 131.776C1908.44 139.996 1961.34 131.375 2014.43 118.543C2031.8 114.333 2048.96 109.721 2066.32 104.909V31.3268C2049.16 36.1388 2031.8 40.7502 2014.43 44.9607Z" fill="#222222"/>
    <path id="road" d="M1 87.8673C16.1416 84.6593 31.4852 81.0504 46.6268 77.0404C97.5027 64.0081 148.782 47.9683 200.668 39.9484C309.688 23.1066 419.313 77.4414 531.765 94.8847C575.373 101.702 619.183 96.8897 663.194 87.8673C664.81 87.4663 666.425 87.2658 668.04 86.8648C669.251 86.6643 670.664 86.2633 671.876 86.0628C674.298 85.4613 676.923 84.8598 679.345 84.4588C680.153 84.2583 680.961 84.0578 681.768 83.8573C690.853 81.6519 699.938 79.4464 709.023 77.2409C759.899 64.0081 811.179 48.1688 863.064 40.1489C972.084 23.3071 1081.71 77.6419 1194.16 95.0852C1246.85 103.306 1299.75 94.6842 1352.85 81.8524C1370.21 77.6419 1387.37 73.0305 1404.73 68.2185C1444.3 57.3917 1484.28 46.3643 1524.65 40.1489C1633.67 23.3071 1743.3 77.6419 1855.75 95.0852C1908.44 103.306 1961.34 94.6842 2014.43 81.8524C2031.8 77.6419 2048.96 73.0305 2066.32 68.2185" stroke="white" stroke-width="3" stroke-miterlimit="10" stroke-dasharray="14 14"/>

    <g id="car-1" clip-path="url(#clip0_494_11357)" transform="translate(-30, -15) rotate(10)">
        <path opacity="0.4" d="M57.185 29.7474C57.3622 29.345 57.468 28.9393 57.5155 28.5975C57.6774 28.5655 57.8053 28.5403 57.8905 28.5234C60.1912 28.0686 62.8584 27.5413 64.7229 26.8054C65.3387 26.5612 65.8627 26.3002 66.2557 26.0039C66.8588 25.561 67.2805 24.5593 67.5166 23.2006L67.515 23.1922C67.5237 23.1467 67.5308 23.0929 67.5395 23.0474C67.5378 23.039 67.5447 23.0289 67.5414 23.012C67.5501 22.9666 67.5519 22.9312 67.5607 22.8858C67.5659 22.8673 67.5711 22.8487 67.5677 22.8319C67.5696 22.7966 67.5816 22.7679 67.5835 22.7326C67.587 22.7056 67.5906 22.6787 67.5924 22.6433C67.596 22.6164 67.5995 22.5895 67.6047 22.571C67.6065 22.5356 67.6153 22.4901 67.6171 22.4548C67.6223 22.4363 67.619 22.4194 67.6259 22.4093C67.6346 22.3639 67.6331 22.3117 67.6418 22.2662C67.6402 22.2578 67.6385 22.2494 67.647 22.2477C67.7896 20.8638 67.7734 19.2139 67.6043 17.4631C67.5034 16.4597 67.3499 15.4142 67.1435 14.3704C66.9388 13.3351 66.6864 12.3267 66.3996 11.3688C65.7489 9.19706 64.9285 7.28633 64.051 5.93791C64.024 5.89078 63.9986 5.85206 63.9631 5.8066C63.9614 5.79819 63.9529 5.79987 63.9512 5.79145C63.9258 5.75274 63.9005 5.71402 63.8768 5.68372C63.8666 5.67698 63.8649 5.66857 63.8531 5.65341C63.8294 5.62311 63.8057 5.59281 63.7803 5.55409C63.7685 5.53894 63.7668 5.53053 63.755 5.51538C63.7313 5.48507 63.7177 5.46151 63.694 5.4312C63.6822 5.41605 63.6703 5.4009 63.6585 5.38575C63.6365 5.36387 63.623 5.3403 63.5993 5.31C63.5874 5.29485 63.5756 5.2797 63.562 5.25613C63.5485 5.23256 63.5265 5.21068 63.513 5.18711C63.5011 5.17196 63.4876 5.14839 63.4672 5.13493C63.4537 5.11136 63.4334 5.09789 63.4198 5.07432C63.4063 5.05076 63.386 5.03729 63.3724 5.01372C63.3606 4.99857 63.3386 4.97669 63.3267 4.96154C63.3132 4.93797 63.2928 4.9245 63.2793 4.90093C63.2675 4.88578 63.2471 4.87232 63.2352 4.85717C63.2217 4.8336 63.2014 4.82013 63.1879 4.79657C63.176 4.78142 63.1556 4.76795 63.1438 4.7528C63.1319 4.73765 63.1099 4.71576 63.098 4.70061C63.0862 4.68546 63.0658 4.672 63.054 4.65685C63.0421 4.6417 63.0218 4.62823 63.0099 4.61308C62.9895 4.59961 62.9777 4.58446 62.9557 4.56258C62.9438 4.54743 62.9234 4.53396 62.9132 4.52723C62.8912 4.50535 62.8708 4.49188 62.8505 4.47841C62.8403 4.47168 62.8284 4.45653 62.8183 4.4498C62.7962 4.42791 62.7742 4.40603 62.7453 4.39425C62.7351 4.38752 62.7334 4.3791 62.7233 4.37237C62.6927 4.35217 62.6605 4.32355 62.6384 4.30167C62.6384 4.30167 62.6384 4.30167 62.6283 4.29493C62.3788 4.10809 62.1325 3.98185 61.8808 3.9179C59.9436 3.43495 56.2368 4.16772 53.1861 4.77078C53.1009 4.78763 52.9731 4.81289 52.8112 4.8449C52.6287 4.54862 52.385 4.21194 52.068 3.90725C51.2509 3.13291 50.4449 3.26601 50.2873 3.45458C50.1521 3.62127 51.1875 4.69357 51.5995 5.07569C47.4751 5.891 36.6018 8.04046 26.0183 10.1326C20.9395 11.1366 16.2355 12.1103 12.3441 12.9845C10.8766 13.3096 9.53167 13.6279 8.3231 13.9193C5.536 14.6015 3.47987 15.1741 2.44092 15.6069C2.39146 15.6254 2.35051 15.6423 2.31123 15.6675C2.30271 15.6692 2.29585 15.6793 2.28733 15.681C2.26343 15.6945 2.23101 15.7096 2.20545 15.7147C2.19693 15.7164 2.18154 15.7281 2.17302 15.7298C2.1406 15.745 2.10818 15.7601 2.08428 15.7736C2.07576 15.7753 2.0689 15.7854 2.06038 15.7871C2.045 15.7989 2.0211 15.8123 2.00406 15.8157C1.99554 15.8174 1.98016 15.8292 1.97164 15.8309C1.95626 15.8426 1.93922 15.846 1.92384 15.8578C1.91532 15.8595 1.90846 15.8696 1.89994 15.8713C1.88456 15.8831 1.86066 15.8965 1.84528 15.9083L1.83676 15.91C1.83676 15.91 1.82824 15.9117 1.8299 15.9201C1.82304 15.9302 1.81452 15.9319 1.80767 15.942C1.80767 15.942 1.80767 15.942 1.79915 15.9437C1.79229 15.9538 1.78543 15.9639 1.77857 15.974C1.77857 15.974 1.77857 15.974 1.77171 15.9841C1.76486 15.9942 1.758 16.0043 1.75114 16.0144L1.74428 16.0245C1.73743 16.0346 1.73057 16.0447 1.72538 16.0632L1.71852 16.0733C1.71166 16.0834 1.70647 16.1019 1.69961 16.112C1.70128 16.1205 1.69275 16.1221 1.69442 16.1306C1.68756 16.1407 1.68237 16.1592 1.67551 16.1693C1.67717 16.1777 1.67032 16.1878 1.67032 16.1878C1.66346 16.1979 1.65827 16.2164 1.66159 16.2333C1.66326 16.2417 1.6564 16.2518 1.65806 16.2602C1.65287 16.2787 1.65454 16.2871 1.64934 16.3057C1.64249 16.3158 1.64415 16.3242 1.63896 16.3427C1.63376 16.3612 1.63542 16.3696 1.63023 16.3882C1.62337 16.3983 1.6267 16.4151 1.61984 16.4252C1.61465 16.4437 1.61631 16.4521 1.61112 16.4707C1.60593 16.4892 1.60759 16.4976 1.6024 16.5161C1.59721 16.5346 1.59887 16.543 1.59368 16.5616C1.58848 16.5801 1.59181 16.5969 1.58662 16.6154C1.57976 16.6255 1.58309 16.6424 1.57623 16.6525C1.57104 16.671 1.57436 16.6878 1.57083 16.7148C1.5725 16.7232 1.56731 16.7417 1.56897 16.7501C1.56378 16.7686 1.56025 16.7956 1.56357 16.8124C1.56524 16.8208 1.56005 16.8394 1.56171 16.8478C1.55818 16.8747 1.55299 16.8932 1.55798 16.9185C1.55964 16.9269 1.55279 16.937 1.55612 16.9538C1.55259 16.9808 1.54905 17.0077 1.54552 17.0346C1.54719 17.0431 1.54033 17.0532 1.542 17.0616C1.53847 17.0885 1.5366 17.1239 1.53307 17.1508C1.53474 17.1592 1.5364 17.1676 1.52954 17.1778C1.52768 17.2131 1.52415 17.24 1.52228 17.2754C1.52395 17.2838 1.52561 17.2922 1.51709 17.2939C1.51523 17.3293 1.51336 17.3646 1.5115 17.4C1.51316 17.4084 1.51316 17.4084 1.51482 17.4168C1.51296 17.4522 1.51275 17.4959 1.51255 17.5397C1.51255 17.5397 1.51255 17.5397 1.51421 17.5481C1.469 19.6037 1.86404 23.3041 2.7338 27.0769C3.51099 31.7251 4.8807 36.0112 5.74137 37.3192C5.75489 37.3428 5.7684 37.3664 5.78025 37.3815C5.78025 37.3815 5.78025 37.3815 5.78191 37.3899C5.79376 37.4051 5.80727 37.4287 5.81912 37.4438C5.81912 37.4438 5.82079 37.4522 5.82931 37.4505C5.84116 37.4657 5.85301 37.4808 5.86486 37.496C5.86652 37.5044 5.87504 37.5027 5.87671 37.5111C5.88856 37.5263 5.89874 37.533 5.91059 37.5482C5.91225 37.5566 5.92078 37.5549 5.92244 37.5633C5.93263 37.5701 5.94448 37.5852 5.94614 37.5936C5.95633 37.6004 5.95632 37.6004 5.96651 37.6071C5.9767 37.6138 5.97836 37.6222 5.98855 37.629C5.99873 37.6357 6.0004 37.6441 6.00892 37.6424C6.0191 37.6492 6.02077 37.6576 6.02929 37.6559C6.03947 37.6626 6.04114 37.6711 6.04966 37.6694C6.05985 37.6761 6.05984 37.6761 6.07003 37.6828C6.08021 37.6896 6.0904 37.6963 6.09892 37.6946L6.10911 37.7014C6.11929 37.7081 6.138 37.7131 6.14652 37.7114C6.16523 37.7165 6.19246 37.7199 6.22135 37.7316C6.22987 37.73 6.24005 37.7367 6.24858 37.735C6.26728 37.7401 6.28599 37.7451 6.31322 37.7485C6.32174 37.7468 6.33192 37.7535 6.34045 37.7518C6.36767 37.7552 6.3949 37.7586 6.43065 37.7602C6.43065 37.7602 6.43065 37.7602 6.43917 37.7586C6.47492 37.7602 6.51068 37.7619 6.55661 37.7703L6.56513 37.7686C6.60088 37.7703 6.64515 37.7703 6.68942 37.7703C6.74222 37.7686 6.79667 37.7753 6.84946 37.7737C8.01922 37.7786 10.2697 37.5174 13.2925 37.0423C13.739 36.9715 14.194 36.8991 14.6745 36.8216C14.7086 36.8148 14.7426 36.8081 14.7853 36.7997C15.0426 36.7575 15.3084 36.7137 15.5827 36.6682C15.5913 36.6666 15.5913 36.6666 15.5998 36.6649C15.702 36.6447 15.8145 36.6312 15.9253 36.6093C15.9593 36.6025 16.0019 36.5941 16.036 36.5874C16.0446 36.5857 16.0531 36.584 16.0616 36.5823C20.1752 35.8916 25.2554 34.9398 30.7517 33.8533C41.3353 31.7611 52.2086 29.6116 56.3329 28.7963C56.0973 29.3065 55.5494 30.7005 55.7363 30.7948C55.9296 30.9665 56.724 30.7745 57.185 29.7474Z" fill="#182D3F"/>
        <path d="M71.8711 22.3408C72.9161 27.627 72.5926 32.7989 70.9849 33.9827C69.3772 35.1664 65.6704 35.8991 62.6197 36.5022C61.0944 36.8037 48.0737 39.3777 35.4535 41.8725C22.8759 44.3589 12.4623 46.1463 10.8808 45.7155C10.1138 45.5085 8.38794 40.5406 7.4749 35.0708L71.8711 22.3408Z" fill="#E8E9EA"/>
        <path d="M71.8726 22.3482C70.8276 17.062 68.5606 12.4022 66.6234 11.9193C64.6862 11.4363 60.9794 12.1691 57.9287 12.7721C56.4034 13.0737 43.3827 15.6476 30.7625 18.1424C18.185 20.6288 7.87452 22.9381 6.57585 23.9383C5.94531 24.4215 6.23957 29.6725 7.47642 35.0782L71.8726 22.3482Z" fill="#E8E9EA"/>
        <path d="M51.5823 36.5675L58.2035 35.2586L59.5797 34.4267L64.3232 34.8622C67.0824 34.308 69.8838 33.1158 70.1525 32.8177C70.9518 31.9338 72.1678 28.9033 70.9082 22.5312L71.8711 22.3408C72.9161 27.627 72.5926 32.7989 70.9849 33.9827C69.3772 35.1664 65.6704 35.8991 62.6197 36.5022L35.4535 41.8725C22.8759 44.3589 12.4623 46.1463 10.8808 45.7155C10.1138 45.5085 8.38794 40.5406 7.4749 35.0708L13.2268 33.9338C14.1021 38.3614 15.1997 42.5701 15.8755 42.9876C16.5513 43.405 28.5047 41.1207 36.3188 39.576C44.133 38.0313 51.5823 36.5675 51.5823 36.5675Z" fill="#CDCFD1"/>
        <path d="M62.3135 35.6699C62.3135 35.6699 62.3752 36.6986 61.9243 37.7323C61.4632 38.7593 60.6672 38.9429 60.4498 38.8285C60.2307 38.7056 61.0553 36.7408 61.1426 36.6448C61.2299 36.5489 61.5913 36.4512 61.6483 36.2912C61.7052 36.1313 61.7442 35.7912 61.7442 35.7912L62.3151 35.6783L62.3135 35.6699Z" fill="#CDCFD1"/>
        <path d="M47.6967 16.9115L54.3179 15.6026L55.9071 15.8482L60.1281 13.6406C62.8907 13.1032 65.935 13.1399 66.2969 13.3133C67.3723 13.8266 69.65 16.1665 70.9097 22.5386L71.8726 22.3482C70.8276 17.062 68.5606 12.4022 66.6234 11.9193C64.6862 11.4363 60.9794 12.1691 57.9287 12.7721L30.7625 18.1424C18.185 20.6288 7.87452 22.9381 6.57585 23.9383C5.94531 24.4215 6.23957 29.6725 7.47642 35.0782L13.2284 33.9412C12.3531 29.5135 11.7668 25.2037 12.2329 24.5606C12.699 23.9174 24.6225 21.4816 32.4366 19.9369C40.2507 18.3922 47.6967 16.9115 47.6967 16.9115Z" fill="#CDCFD1"/>
        <path d="M57.9617 13.6579C57.9617 13.6579 57.6274 12.6832 56.8171 11.8987C55.9999 11.1244 55.1939 11.2575 55.0364 11.4461C54.8805 11.6431 56.3908 13.1463 56.508 13.2018C56.6252 13.2574 56.9966 13.2102 57.1101 13.3365C57.2236 13.4627 57.3891 13.7624 57.3891 13.7624L57.9601 13.6495L57.9617 13.6579Z" fill="#CDCFD1"/>
        <path d="M15.2204 27.2151C15.1555 26.8868 15.3749 26.5635 15.7073 26.4978L42.0639 21.2876C42.3963 21.2219 42.7222 21.4373 42.7871 21.7656C42.852 22.0939 42.6326 22.4172 42.3002 22.4829L15.9435 27.6931C15.6112 27.7588 15.2853 27.5434 15.2204 27.2151Z" fill="#CDCFD1"/>
        <path d="M16.0163 31.2395C15.9514 30.9112 16.1708 30.5879 16.5031 30.5222L42.8598 25.312C43.1922 25.2463 43.5181 25.4617 43.583 25.79C43.6479 26.1183 43.4284 26.4416 43.0961 26.5073L16.7394 31.7175C16.4088 31.7916 16.0828 31.5762 16.0163 31.2395Z" fill="#CDCFD1"/>
        <path d="M16.8131 35.2707C16.7482 34.9424 16.9677 34.6192 17.3 34.5535L43.6567 29.3432C43.989 29.2775 44.315 29.493 44.3799 29.8213C44.4448 30.1496 44.2253 30.4728 43.893 30.5385L17.5363 35.7488C17.204 35.8145 16.878 35.599 16.8131 35.2707Z" fill="#CDCFD1"/>
        <path d="M17.6081 39.2942C17.5432 38.9659 17.7626 38.6426 18.0949 38.5769L44.4516 33.3667C44.784 33.301 45.1099 33.5164 45.1748 33.8447C45.2397 34.173 45.0202 34.4963 44.6879 34.562L18.3312 39.7722C17.9989 39.8379 17.673 39.6225 17.6081 39.2942Z" fill="#CDCFD1"/>
        <path d="M50.7833 37.9491L62.398 35.6531L58.1941 35.2596L51.5815 36.5668L50.7833 37.9491Z" fill="#343A49"/>
        <path d="M11.3271 43.3084C11.6173 43.5222 13.942 43.0539 13.9398 42.4158C13.9308 41.7878 12.9135 38.2542 12.1031 34.1548L8.83092 34.8017C9.75091 39.5004 11.037 43.0946 11.3271 43.3084Z" fill="#343A49"/>
        <path d="M65.9596 23.5179C64.2574 14.9067 60.1204 13.6428 60.1204 13.6428L55.8994 15.8504C55.8994 15.8504 58.5558 19.5236 59.5942 24.7762L65.9596 23.5179Z" fill="#272C38"/>
        <path d="M64.9705 23.7135C63.4846 16.1966 59.946 14.4209 59.946 14.4209L56.6635 16.1806C56.6635 16.1806 59.0158 19.704 60.0026 24.6956L64.9705 23.7135Z" fill="#343A49"/>
        <path d="M65.959 23.5176C67.6613 32.1287 64.3164 34.8716 64.3164 34.8716L59.5729 34.4361C59.5729 34.4361 60.6318 30.0285 59.5935 24.7759L65.959 23.5176Z" fill="#343A49"/>
        <path d="M64.9707 23.7129C66.4567 31.2298 63.8599 34.2184 63.8599 34.2184L60.1548 33.84C60.1548 33.84 60.9895 29.6866 60.0027 24.695L64.9707 23.7129Z" fill="#276379"/>
        <path d="M46.4322 15.9366L58.0469 13.6406L54.3089 15.6041L47.6963 16.9113L46.4322 15.9366Z" fill="#272C38"/>
        <path d="M67.8746 29.3051C67.8746 29.3051 68.2249 26.8219 67.511 23.2107C66.7972 19.5996 65.5284 17.4364 65.5284 17.4364L64.8988 17.7008C64.8988 17.7008 66.0915 19.7478 66.8054 23.359C67.5176 26.9617 67.1952 29.317 67.1952 29.317L67.8746 29.3051Z" fill="#343A49"/>
        <path d="M7.89456 25.944C8.08157 25.6359 10.4445 25.3612 10.6836 25.9437C10.9227 26.5262 11.2947 30.065 12.1034 34.1559L8.83116 34.8028C7.89579 30.1159 7.70754 26.2521 7.89456 25.944Z" fill="#272C38"/>
        <path d="M11.4031 42.8481C11.6133 43.0602 13.0858 42.7603 13.0493 42.1728C13.0112 41.5768 12.1226 38.2014 11.3538 34.3125L9.07863 34.7622C9.96907 39.2219 11.193 42.636 11.4031 42.8481Z" fill="#276379"/>
        <path d="M8.1403 26.3413C8.25395 26.0652 9.76309 25.9505 9.95293 26.5077C10.1444 27.0734 10.5837 30.4152 11.3525 34.3041L9.07726 34.7539C8.20386 30.2909 8.02665 26.6174 8.1403 26.3413Z" fill="#343A49"/>
        <path d="M69.134 15.1234C68.8989 14.785 67.7346 12.8373 66.8847 12.5243C66.045 12.218 65.0208 12.4117 64.891 11.7551C65.5534 11.7466 66.1372 11.7886 66.6134 11.9132C67.5913 12.1572 68.6461 13.4618 69.5909 15.3742C69.5584 15.3893 69.3691 15.4618 69.134 15.1234Z" fill="#272C38"/>
        <path d="M72.0958 30.0627C72.0071 30.4651 71.6747 32.7699 71.0147 33.3727C70.3547 33.9755 69.3306 34.1255 69.4604 34.782C70.0762 34.5378 70.6002 34.2768 70.9932 33.9805C71.8047 33.3827 72.2838 31.7749 72.4298 29.6469C72.3786 29.657 72.1777 29.6705 72.0958 30.0627Z" fill="#343A49"/>
        <path d="M6.31304 27.4456C6.17724 25.5045 6.27535 24.1644 6.5744 23.9304C6.69743 23.8361 6.90568 23.7249 7.19228 23.607C7.32973 24.0784 6.9022 24.1105 6.79354 24.4118C6.67636 24.7149 6.72674 25.2385 6.72432 25.7637C6.71338 26.2907 6.84989 27.3395 6.31304 27.4456Z" fill="#272C38"/>
        <path d="M9.30312 42.5721C9.92463 44.4172 10.5168 45.6208 10.8824 45.7235C11.032 45.7639 11.2669 45.7874 11.5683 45.7891C11.5075 45.3025 11.1085 45.4339 10.8933 45.1965C10.6696 44.9609 10.517 44.4575 10.3149 43.9727C10.1128 43.4878 9.90813 42.4525 9.30312 42.5721Z" fill="#343A49"/>
        <path d="M64.5997 24.3898C64.2827 24.0851 63.2313 24.2755 62.7749 24.6543C62.3185 25.0332 62.2328 25.5399 62.835 26.3917C63.4373 27.2435 63.8684 27.9018 63.7386 28.7233C63.6174 29.5432 63.3243 29.5837 63.1669 30.4895C63.018 31.3935 63.6217 32.2975 63.2392 32.9154C62.8566 33.5333 61.2564 33.0975 61.2005 33.3972C61.1446 33.6968 63.2477 34.0333 63.671 33.8009C64.0944 33.5686 64.7332 32.0078 64.9599 29.7502C65.195 27.4908 64.9184 24.7029 64.5997 24.3898Z" fill="#488595"/>
        <path d="M8.82374 34.7843L7.4707 35.0518" stroke="#9FA2A5" stroke-width="0.304063"/>

        <animateMotion dur="10s" repeatCount="indefinite" rotate="auto">
            <mpath href="#road" />
        </animateMotion>
    </g>
    <defs>
        <clipPath id="clip0_494_11357">
        <rect width="36.8015" height="68.7607" fill="white" transform="translate(67.4551) rotate(78.8178)"/>
        </clipPath>
    </defs>

    <g id="car-2" x="100" y="100" clip-path="url(#clip0_806_2074)" transform="translate(-30, -7) rotate(-14)">
        <path opacity="0.4" d="M42.5841 42.9934C43.2198 42.609 43.5642 42.0076 43.6345 41.8819C44.4998 42.072 45.2205 42.2256 45.774 42.3561C45.9276 42.3949 46.0722 42.4315 46.1987 42.4635C48.259 42.9846 50.8359 44.2006 53.5179 44.6208C56.1999 45.0409 57.5742 44.8529 58.886 44.2284C60.1977 43.6038 61.7317 40.9601 61.7317 40.9601C62.3648 40.7377 63.2448 40.1856 64.4474 35.4688C65.641 30.7498 65.118 29.8524 64.669 29.3468C64.669 29.3468 64.5787 26.2827 63.7194 25.1185C62.8623 23.9454 61.7426 23.1266 59.1834 22.2211C56.6241 21.3156 53.779 21.1602 51.7187 20.6391C51.1403 20.4928 50.2706 20.2441 49.1795 19.9204C49.1775 19.7764 49.1672 19.0948 48.784 18.4431C48.3602 17.7239 47.4247 17.5829 47.2435 17.8431C47.1235 18.0136 47.407 18.8695 47.6773 19.4735C44.9913 18.6889 41.4446 17.658 37.7306 16.7186C31.5405 15.1529 29.8956 14.9282 29.0555 14.5244C28.2154 14.1206 25.6946 13.177 23.1077 12.647C20.5298 12.1194 19.9302 12.5893 18.3574 12.4976C17.9393 12.4779 17.5439 12.4448 17.1665 12.4163C17.1575 12.414 17.1575 12.414 17.1484 12.4117C17.0445 12.4046 16.9315 12.3951 16.8275 12.388C16.7981 12.3901 16.771 12.3832 16.7417 12.3854C16.7032 12.3852 16.6558 12.3828 16.6174 12.3826C16.5789 12.3825 16.5496 12.3846 16.5134 12.3755C16.475 12.3753 16.4366 12.3752 16.3891 12.3727C16.3507 12.3726 16.3213 12.3747 16.2829 12.3745C16.2445 12.3744 16.206 12.3742 16.1676 12.3741C16.1202 12.3716 16.0795 12.3805 16.032 12.378C15.9733 12.3823 15.9258 12.3799 15.867 12.3841C15.8286 12.384 15.7902 12.3838 15.7495 12.3927C15.7111 12.3925 15.6794 12.4036 15.641 12.4035C15.6026 12.4033 15.5709 12.4144 15.5415 12.4166C15.5122 12.4187 15.4715 12.4275 15.4421 12.4297C15.4014 12.4385 15.372 12.4406 15.3313 12.4495C15.3019 12.4516 15.2703 12.4627 15.2409 12.4648C15.1799 12.4781 15.1188 12.4914 15.0668 12.5069C15.0352 12.518 15.0148 12.5224 14.9832 12.5335C14.9515 12.5447 14.9108 12.5535 14.8791 12.5646C14.8475 12.5757 14.8249 12.5892 14.7932 12.6003C14.7616 12.6114 14.7186 12.6292 14.6869 12.6403C14.6643 12.6537 14.6327 12.6649 14.61 12.6783C14.5648 12.7051 14.5105 12.7296 14.4653 12.7564C14.454 12.7631 14.4427 12.7698 14.4336 12.7675C14.4223 12.7742 14.411 12.7809 14.3997 12.7876C14.3771 12.8011 14.3658 12.8078 14.3431 12.8212C14.3318 12.8279 14.3092 12.8413 14.2979 12.848C14.2843 12.8637 14.264 12.8681 14.2504 12.8838C14.2368 12.8995 14.2165 12.9039 14.2029 12.9196C14.1802 12.933 14.1667 12.9487 14.144 12.9621C14.1305 12.9778 14.1101 12.9822 14.0965 12.9979C14.0626 13.018 14.0354 13.0494 13.9992 13.0785C13.9766 13.0919 13.9608 13.1166 13.9381 13.13C13.9246 13.1457 13.9019 13.1591 13.8883 13.1748C13.8635 13.1971 13.8499 13.2128 13.825 13.2352C13.8114 13.2509 13.7978 13.2666 13.7842 13.2823C13.7593 13.3047 13.7344 13.3271 13.7095 13.3495C13.6982 13.3562 13.696 13.3652 13.6847 13.3719C13.6326 13.4257 13.5783 13.4884 13.5262 13.5422C13.5149 13.5489 13.5103 13.5669 13.499 13.5736C13.4719 13.605 13.4447 13.6364 13.4175 13.6677C13.4039 13.6834 13.3904 13.6991 13.3768 13.7148C13.3496 13.7462 13.3224 13.7776 13.293 13.818C13.2794 13.8336 13.2658 13.8493 13.2523 13.865C13.1979 13.9278 13.1413 13.9996 13.0937 14.0736C13.0802 14.0893 13.0666 14.105 13.053 14.1207C13.0258 14.1521 13.0077 14.1857 12.9805 14.2171C12.9534 14.2485 12.9352 14.2822 12.9081 14.3135C12.8922 14.3382 12.865 14.3696 12.8469 14.4033C12.8333 14.419 12.831 14.428 12.8175 14.4436C11.8232 15.8658 10.6694 18.1849 9.79181 21.6545C8.91425 25.1241 8.81544 27.7195 9.02531 29.4367C9.0298 29.457 9.02752 29.4659 9.03201 29.4862C9.03196 29.5244 9.04321 29.556 9.04315 29.5942C9.05213 29.6347 9.05207 29.673 9.06105 29.7135C9.07003 29.754 9.06997 29.7923 9.07895 29.8328C9.08344 29.8531 9.08793 29.8733 9.09242 29.8936C9.1081 29.9836 9.12607 30.0647 9.13271 30.1524C9.1372 30.1727 9.14169 30.193 9.14618 30.2132C9.15516 30.2538 9.16414 30.2943 9.17084 30.3438C9.17533 30.3641 9.17983 30.3843 9.18432 30.4046C9.1933 30.4451 9.20227 30.4856 9.21125 30.5262C9.21802 30.5374 9.21347 30.5554 9.22023 30.5667C9.23819 30.6477 9.25842 30.7198 9.27638 30.8009C9.28315 30.8121 9.28087 30.8211 9.28763 30.8324C9.29888 30.8639 9.31014 30.8955 9.32139 30.927C9.32588 30.9473 9.33037 30.9675 9.33486 30.9878C9.34611 31.0193 9.3506 31.0396 9.36186 31.0711C9.36635 31.0914 9.37987 31.1139 9.38436 31.1342C9.39789 31.1568 9.40011 31.186 9.41363 31.2086C9.43165 31.2514 9.4429 31.2829 9.46092 31.3257C9.46541 31.346 9.4812 31.3595 9.48569 31.3798C9.49922 31.4023 9.50371 31.4226 9.51723 31.4452C9.52172 31.4654 9.53753 31.479 9.54202 31.4992C9.54651 31.5195 9.56231 31.5331 9.5668 31.5533C9.57356 31.5646 9.58708 31.5871 9.59385 31.5984C9.60737 31.621 9.61414 31.6322 9.62766 31.6548C9.63442 31.6661 9.64119 31.6773 9.64795 31.6886C9.65471 31.6999 9.66148 31.7112 9.67052 31.7135C9.69757 31.7585 9.73366 31.8059 9.76071 31.851C9.77424 31.8736 9.7968 31.8984 9.81033 31.921C9.83062 31.9548 9.86221 31.9819 9.88478 32.0067C9.90734 32.0316 9.92087 32.0541 9.94343 32.079C9.96599 32.1038 9.99759 32.1309 10.0202 32.1557C10.0427 32.1806 10.0585 32.1941 10.0811 32.219C10.1285 32.2596 10.1759 32.3003 10.2142 32.3387C10.2391 32.3546 10.2616 32.3794 10.2865 32.3952C10.3181 32.4224 10.3429 32.4382 10.3745 32.4653C10.3993 32.4812 10.4309 32.5083 10.4558 32.5241C10.4806 32.54 10.5122 32.5671 10.5371 32.583C10.5709 32.6011 10.5935 32.6259 10.6274 32.644C10.6612 32.6622 10.6928 32.6893 10.7267 32.7074C10.7673 32.7368 10.8193 32.7595 10.869 32.7912C10.9119 32.8116 10.9435 32.8388 10.9864 32.8592C11.0203 32.8773 11.0541 32.8954 11.088 32.9136C11.1219 32.9317 11.1467 32.9476 11.1806 32.9657C11.2145 32.9838 11.2483 33.0019 11.2912 33.0224C11.3251 33.0405 11.3499 33.0563 11.3861 33.0655C11.42 33.0836 11.4629 33.104 11.4967 33.1222C11.5216 33.138 11.5487 33.1449 11.5735 33.1607C11.6684 33.2038 11.7632 33.2469 11.8649 33.3013C11.8739 33.3036 11.8739 33.3036 11.8829 33.3059C12.2285 33.4603 12.5921 33.6192 12.9693 33.8006C14.3875 34.4654 14.6916 35.1639 17.2194 35.9276C17.8542 36.1169 18.4935 36.2881 19.1125 36.4256C20.9741 36.8582 22.6507 37.0718 23.3445 37.1038C23.41 37.1109 23.4778 37.1089 23.5524 37.1182C24.2054 37.1973 25.2152 37.5005 27.5647 38.133C28.6987 38.4389 30.1491 38.8249 32.0196 39.298C35.7246 40.2351 39.335 41.0144 42.08 41.6035C41.5551 42.0063 40.8987 42.6245 40.9233 42.8315C40.9817 43.095 41.8693 43.4247 42.5841 42.9934Z" fill="#2A303B" />
        <path d="M66.2003 42.033C67.3939 37.314 66.8709 36.4166 66.422 35.9109C66.422 35.9109 66.3316 32.8469 65.4723 31.6827C64.6153 30.5096 63.4955 29.6908 60.9363 28.7853C58.3771 27.8798 55.532 27.7244 53.4716 27.2033C51.4113 26.6822 45.6804 24.8597 39.4813 23.2918C33.2822 21.7238 31.6462 21.5013 30.8061 21.0976C29.966 20.6938 27.4453 19.7502 24.8584 19.2202C22.2714 18.6903 21.6809 19.1625 20.108 19.0708C18.5443 18.9813 17.227 18.7533 16.1933 19.343C15.1596 19.9327 12.9974 22.5514 11.5674 28.2053L66.2026 42.024L66.2003 42.033Z" fill="#EF6238" />
        <path d="M66.2012 42.0332C65.0076 46.7522 64.1209 47.2931 63.4855 47.5244C63.4855 47.5244 61.9492 50.1771 60.6397 50.7927C59.328 51.4173 57.9536 51.6053 55.2716 51.1851C52.5896 50.765 50.0128 49.549 47.9524 49.0279C45.8921 48.5068 39.9839 47.3854 33.7848 45.8175C27.5857 44.2495 26.0407 43.6675 25.1096 43.6233C24.1786 43.5791 21.5123 43.2107 18.9845 42.4471C16.4658 41.6857 16.1617 40.9871 14.7344 40.3201C13.3161 39.6553 12.0489 39.2296 11.4198 38.2193C10.7908 37.2091 10.1336 33.8773 11.5636 28.2234L66.1989 42.0422L66.2012 42.0332Z" fill="#EF6238" />
        <path d="M48.8851 44.845C54.549 46.1341 59.5156 45.2002 59.5156 45.2002C59.5156 45.2002 53.3459 45.1125 49.18 44.0971L48.8851 44.845Z" fill="#C85D3D" />
        <path d="M52.309 31.308C57.9047 32.8668 61.83 36.0497 61.83 36.0497C61.83 36.0497 56.3606 33.1935 52.2128 32.1062L52.309 31.308Z" fill="#C85D3D" />
        <path d="M63.7581 31.353C62.0697 29.9696 59.6628 29.9825 56.4547 29.2476C53.2556 28.515 52.2364 28.4389 52.2364 28.4389C52.2364 28.4389 47.6573 28.7152 44.5907 28.523C44.5378 27.6298 43.6748 27.3924 43.6748 27.3924C43.6748 27.3924 44.6216 27.5266 46.7866 27.596C48.9425 27.6632 51.0695 27.4647 51.0695 27.4647L26.6734 22.4993C26.6734 22.4993 18.6694 20.3505 17.4827 20.4807C16.296 20.611 14.2161 24.0825 13.0794 28.5768L11.6064 28.2043C13.0387 22.5414 15.1919 19.9205 16.2324 19.342C17.2728 18.7636 18.5833 18.9803 20.1471 19.0698C21.7109 19.1593 22.3105 18.6893 24.8974 19.2193C27.4753 19.7469 30.0051 20.6928 30.8452 21.0966C31.6853 21.5004 33.3303 21.7251 39.5203 23.2908C45.7104 24.8564 51.4503 26.6812 53.5107 27.2023C55.571 27.7234 58.4161 27.8788 60.9754 28.7843C63.5346 29.6898 64.6543 30.5086 65.5114 31.6817C66.3684 32.8549 66.461 35.91 66.461 35.91C66.9123 36.4067 67.433 37.313 66.2394 42.032L65.2002 41.7692C66.0618 38.3625 65.9714 36.8955 65.8118 36.31C65.6025 35.7311 65.4578 32.7298 63.7581 31.353Z" fill="#C85D3D" />
        <path d="M51.0575 27.472L50.9414 26.5246C50.9414 26.5246 50.9742 25.7486 50.5504 25.0294C50.1266 24.3101 49.1911 24.1691 49.01 24.4294C48.8197 24.6873 49.5763 26.5236 49.7886 26.6729C50.0098 26.8245 50.1832 27.2413 50.1832 27.2413L51.0575 27.472Z" fill="#C85D3D" />
        <path d="M45.9551 47.6426L45.4025 48.4209C45.4025 48.4209 45.0624 49.1191 44.3476 49.5504C43.6328 49.9817 42.7428 49.661 42.7072 49.3459C42.6624 49.0285 44.2011 47.7728 44.4588 47.7423C44.7255 47.7141 45.0763 47.4299 45.0763 47.4299L45.9551 47.6426Z" fill="#C85D3D" />
        <path d="M65.8234 35.3476C65.8234 35.3476 63.4637 32.5129 59.8529 30.5572C56.2421 28.6014 52.4767 27.2569 52.4767 27.2569L52.2353 28.4392C52.2353 28.4392 57.4807 30.0145 60.2379 31.5057C62.9952 32.9969 65.9087 35.7708 65.9087 35.7708L65.8234 35.3476Z" fill="#C85D3D" />
        <path d="M58.9742 50.2659C56.8311 50.6802 54.7197 49.5245 51.548 48.6458C48.3853 47.7694 47.4526 47.3517 47.4526 47.3517C47.4526 47.3517 43.5554 44.9315 40.7662 43.6427C40.295 44.4033 39.423 44.2019 39.423 44.2019C39.423 44.2019 40.3197 44.5339 42.2573 45.5022C44.1859 46.4681 45.9628 47.654 45.9628 47.654L22.1396 40.4234C22.1396 40.4234 14.0765 38.5083 13.0944 37.8296C12.1146 37.1418 11.9331 33.1079 13.0698 28.6135L11.5968 28.241C10.1645 33.9038 10.8127 37.2333 11.453 38.2369C12.0934 39.2405 13.3493 39.6729 14.7676 40.3376C16.1859 41.0024 16.4899 41.7009 19.0177 42.4646C21.5365 43.226 24.2118 43.5966 25.1428 43.6409C26.0739 43.6851 27.6279 44.2694 33.818 45.835C40.008 47.4007 45.9253 48.5243 47.9856 49.0455C50.046 49.5666 52.6228 50.7826 55.3048 51.2027C57.9868 51.6228 59.3612 51.4349 60.6729 50.8103C61.9847 50.1857 63.5187 47.542 63.5187 47.542C64.1518 47.3196 65.0408 46.7698 66.2344 42.0508L65.1952 41.7879C64.3335 45.1946 63.5565 46.4422 63.1377 46.8814C62.7189 47.3206 61.1241 49.8629 58.9742 50.2659Z" fill="#C85D3D" />
        <path d="M62.6906 47.7342C62.6906 47.7342 59.2669 49.1061 55.1604 49.1099C51.054 49.1137 47.1022 48.5063 47.1022 48.5063L47.4519 47.3515C47.4519 47.3515 52.8155 48.4594 55.9502 48.4585C59.0848 48.4575 62.9668 47.4023 62.9668 47.4023L62.6906 47.7342Z" fill="#C85D3D" />
        <path d="M52.3739 38.5351C53.7198 33.2139 52.2354 28.4391 52.2354 28.4391C52.2354 28.4391 47.4754 28.708 44.5874 28.5322C44.5874 28.5322 44.4147 32.1801 43.3802 36.27L52.3717 38.5441L52.3739 38.5351Z" fill="#2A303B" />
        <path d="M23.8825 31.3299C24.5759 28.5883 25.3523 26.279 25.7359 25.1806C25.8675 24.8122 25.6669 24.4268 25.3235 24.3399L21.6637 23.4142C20.2901 23.0668 18.8561 23.8709 18.3071 25.2813C17.885 26.3796 17.4038 27.8263 16.9604 29.5791L23.8825 31.3299V31.3299Z" fill="#2A303B" />
        <path d="M51.057 27.4724C51.057 27.4724 46.733 27.842 43.5087 27.3612C40.2844 26.8804 37.9055 26.3265 35.0139 25.5186C32.1223 24.7108 26.6609 22.507 26.6609 22.507C26.6609 22.507 31.7026 22.7588 38.2973 24.2451C44.892 25.7314 51.057 27.4724 51.057 27.4724Z" fill="#2A303B" />
        <path d="M64.9218 33.513C64.7933 31.8164 63.8692 30.1481 63.8692 30.1481C64.5601 30.6098 65.0497 31.1066 65.4805 31.6842C66.3376 32.8573 66.4302 35.9124 66.4302 35.9124C65.7217 35.1403 65.0504 35.2096 64.9218 33.513Z" fill="#2A303B" />
        <path d="M14.6184 21.0092C15.248 20.1164 15.816 19.5811 16.2187 19.3577C17.0284 18.8931 18.016 18.942 19.1504 19.0186C19.1504 19.0186 18.8109 19.3726 18.2662 19.3974C17.7215 19.4222 17.2715 19.5666 16.6289 20.0544C15.9931 20.5535 15.7544 21.5356 14.6184 21.0092Z" fill="#2A303B" />
        <path d="M42.3292 31.873C42.6071 30.4705 41.7322 29.1016 40.3316 28.7473C38.8405 28.3702 37.334 29.3089 37.0221 30.808C36.8308 31.7543 36.5533 32.9656 36.1804 34.4397L41.4488 35.7722C41.8307 34.3004 42.1242 32.9497 42.3292 31.873Z" fill="#2A303B" />
        <path d="M40.3707 39.6211C40.6932 38.5741 41.0861 37.2486 41.459 35.7744L36.1906 34.4419C35.8178 35.916 35.4793 37.1024 35.2044 38.0371C34.757 39.5019 35.6361 41.044 37.1362 41.4234C38.5278 41.7754 39.9483 40.9871 40.3707 39.6211Z" fill="#323845" />
        <path d="M52.3747 38.5354C51.0288 43.8566 47.4527 47.3514 47.4527 47.3514C47.4527 47.3514 43.393 44.8518 40.7687 43.6334C40.7687 43.6334 42.3511 40.342 43.3855 36.2522L52.377 38.5264L52.3747 38.5354Z" fill="#323845" />
        <path d="M50.9193 38.168C52.1698 33.2242 51.22 29.0724 51.22 29.0724C51.22 29.0724 47.267 29.2298 45.0139 29.1668C45.0139 29.1668 44.785 32.5805 43.8256 36.3738L50.9193 38.168Z" fill="#323845" />
        <path d="M50.9199 38.168C49.6695 43.1117 46.86 46.3127 46.86 46.3127C46.86 46.3127 43.4572 44.2948 41.4451 43.279C41.4451 43.279 42.8668 40.167 43.8262 36.3738L50.9199 38.168V38.168Z" fill="#276379" />
        <path d="M23.8827 31.3297C23.1893 34.0713 22.7744 36.472 22.5896 37.6207C22.5303 38.0074 22.1706 38.2511 21.8272 38.1643L18.1674 37.2386C16.7938 36.8912 15.9145 35.502 16.102 34.0001C16.2529 32.8333 16.5174 31.3317 16.9607 29.5789L23.8827 31.3297V31.3297Z" fill="#323845" />
        <path d="M22.7071 31.0316C23.3482 28.4968 24.0181 26.3423 24.3428 25.3246C24.4473 24.9876 24.3529 24.6385 24.127 24.5814L21.7594 23.9826C20.8648 23.7563 19.8578 24.5823 19.4084 25.9032C19.0543 26.923 18.6364 28.271 18.2249 29.8979L22.7071 31.0316V31.0316Z" fill="#323845" />
        <path d="M22.7066 31.0321C22.0655 33.5669 21.6305 35.7808 21.4323 36.8305C21.364 37.1767 21.115 37.4389 20.8891 37.3817L18.5215 36.7829C17.6269 36.5566 17.1338 35.3512 17.3664 33.9755C17.5397 32.9099 17.813 31.5254 18.2245 29.8984L22.7066 31.0321V31.0321Z" fill="#276379" />
        <path d="M45.9552 47.6429C45.9552 47.6429 42.327 45.262 39.2618 44.152C36.1966 43.042 33.8404 42.3983 30.9124 41.7342C27.9845 41.0702 22.132 40.4124 22.132 40.4124C22.132 40.4124 26.6759 42.5945 33.1865 44.4134C39.7039 46.2435 45.9552 47.6429 45.9552 47.6429Z" fill="#2A303B" />
        <path d="M61.0264 48.9201C60.1067 50.3516 58.5005 51.3799 58.5005 51.3799C59.3278 51.3022 59.9948 51.098 60.6484 50.7947C61.9602 50.1701 63.4941 47.5264 63.4941 47.5264C62.5037 47.8688 61.9461 47.4887 61.0264 48.9201Z" fill="#323845" />
        <path d="M10.8265 36.0029C10.9559 37.0877 11.2011 37.8287 11.4492 38.2166C11.9407 39.0104 12.8327 39.4368 13.8671 39.9089C13.8671 39.9089 13.7367 39.436 13.2693 39.1552C12.8019 38.8744 12.4747 38.5334 12.1413 37.7987C11.8193 37.0574 12.0761 36.0799 10.8265 36.0029Z" fill="#323845" />
        <path d="M40.8428 35.6193C41.1793 34.289 41.4501 33.0664 41.6459 32.1022C41.9077 30.839 41.3602 29.6581 40.1945 29.3633C39.0288 29.0685 37.841 29.9635 37.5564 31.3165C37.3789 32.1706 37.1219 33.2628 36.7854 34.5931L40.8428 35.6193Z" fill="#323845" />
        <path d="M39.878 39.0952C40.1665 38.1448 40.5073 36.9495 40.8438 35.6191L36.7863 34.5929C36.4498 35.9232 36.1476 37.004 35.9068 37.8421C35.5139 39.1677 36.1695 40.5289 37.2991 40.8146C38.4286 41.1003 39.5078 40.3309 39.878 39.0952Z" fill="#276379" />
        <path d="M20.522 30.9284C20.0952 30.677 18.9182 30.3506 18.5585 30.6326C18.1987 30.9146 17.4272 34.4971 17.8189 35.4952C18.2107 36.4932 19.5753 36.8001 19.6571 36.5148C19.7298 36.2271 18.9299 36.1587 18.9082 35.522C18.8866 34.8854 19.0699 34.6926 19.2966 34.2144C19.5324 33.7385 19.4561 33.3558 19.5766 32.9176C19.697 32.4795 19.9641 32.2218 20.4005 32.0549C20.846 31.8902 20.9555 31.1911 20.522 30.9284Z" fill="#327F93" />
        <path d="M50.1552 38.6441C49.8893 38.1369 48.2219 37.8491 47.7719 37.9935C47.3219 38.1379 46.9912 38.6472 47.1935 39.3678C47.3959 40.0884 48.1999 40.4066 47.8869 41.1881C47.5738 41.9697 47.3274 42.0317 46.9106 42.6913C46.4915 43.36 46.6846 44.1548 46.1892 44.5173C45.7027 44.882 44.2037 43.776 44.0315 44.0767C43.8593 44.3775 46.2145 45.6713 46.6101 45.6279C46.9966 45.5822 47.8231 44.5575 48.7455 42.8494C49.6701 41.1323 50.4211 39.1513 50.1552 38.6441Z" fill="#327F93" />
        <path d="M39.9193 36.4566C40.2718 36.5458 39.7608 38.1858 39.4907 38.9495C39.2206 39.7133 38.3989 40.6052 37.4862 40.3744C36.5735 40.1436 36.2224 39.2131 36.2728 38.7095C36.3143 38.2035 36.6903 37.6292 37.2777 37.7777C37.856 37.924 37.8982 38.4415 38.4812 38.4551C39.0689 38.4507 39.5669 36.3675 39.9193 36.4566Z" fill="#327F93" />
        <defs>
            <clipPath id="clip0_806_2074">
                <rect width="32.1171" height="59.6461" fill="white" transform="translate(70.8652 23.5879) rotate(104.194)" />
            </clipPath>
        </defs>


        <animateMotion dur="10s" begin="4.5s" repeatCount="indefinite" rotate="auto">
            <mpath href="#road" />
        </animateMotion>
    </g>

    <g id="car-3" x="100" y="100" clip-path="url(#clip0_494_11387)" transform="translate(-30, -43) rotate(0)">

        <path opacity="0.4" d="M23.9033 17.5564C23.7269 17.8917 23.6386 18.0593 23.5902 18.3548C22.487 18.4172 21.3441 18.3518 20.241 18.4143C15.109 18.6073 11.0716 19.1611 9.7347 20.2776C8.83021 20.9793 8.38033 22.2407 7.97017 23.6299C7.37481 25.7778 7.28252 28.1898 7.30474 29.1643C7.25625 29.4598 7.33573 29.7155 7.33573 29.7155C7.33573 29.7155 7.37545 29.8433 7.3667 30.2666C7.38892 31.2411 7.46433 33.7413 7.97213 35.8266C8.40921 37.2329 8.93452 38.4717 9.72451 39.2075C11.097 40.4633 15.1568 40.884 20.2799 41.1143C21.4228 41.1797 22.398 41.157 23.6689 41.1827C23.7483 41.4384 23.8278 41.6941 23.9073 41.9497C24.4016 42.6373 25.5445 42.7027 25.5047 42.5749C25.465 42.447 25.0986 41.7197 24.772 41.1202C27.8653 41.1402 31.0865 41.1205 34.3078 41.1007C43.164 41.1522 50.0699 41.2491 53.8514 40.7748C54.531 40.7038 55.2105 40.6328 55.7224 40.4737C58.7052 39.6869 60.1168 37.005 60.226 29.6808C60.2071 22.3963 58.8211 19.7427 55.7453 18.876C55.282 18.7397 54.6907 18.643 53.9714 18.5862C50.1676 18.086 43.2133 18.2846 34.357 18.2331C31.1358 18.2528 27.9146 18.2726 24.8213 18.2525C25.2139 17.7099 25.5271 16.9116 25.4873 16.7837C25.4873 16.7837 24.3842 16.8462 23.9033 17.5564Z" fill="#212121" />
        <path d="M56.6944 24.1886C56.6756 16.9041 55.2896 14.2505 52.2138 13.3839C49.266 12.4775 41.3365 12.6987 30.8255 12.7409C20.3145 12.7831 8.70914 12.4644 6.16338 14.6576C3.61763 16.8508 3.76441 24.0955 3.76441 24.0955L56.6944 24.1886Z" fill="#2D2D2D" />
        <path d="M56.6945 24.1887C56.7134 31.4732 55.3018 34.1551 52.191 34.9817C49.0802 35.8083 41.455 35.6546 30.7764 35.6087C20.2654 35.6509 8.69103 35.8833 6.15337 33.5877C3.52749 31.4596 3.63661 24.1354 3.63661 24.1354L56.6945 24.1887Z" fill="#2D2D2D" />
        <path d="M52.2544 13.5116C55.2022 14.4181 56.6764 16.904 56.735 24.3164L55.0405 24.2822C55.0661 18.9467 55.3968 17.3017 53.3447 16.1169C51.2927 14.9321 49.8366 15.6651 49.8366 15.6651L46.5009 17.1224C46.5009 17.1224 45.6226 16.5541 42.1057 16.5256C38.1652 16.4885 34.4584 15.3973 34.4584 15.3973C34.4584 15.3973 26.4319 16.2095 26.0083 16.201C25.6244 16.3203 25.1833 17.1584 25.1833 17.1584L23.0079 17.8345L18.4492 14.9052C18.4492 14.9052 16.8517 14.2801 14.3497 14.3567C11.8477 14.4333 8.7457 14.8366 7.76175 15.2826C6.77779 15.7286 4.9513 17.9786 5.03613 24.121L4.06094 24.1437C4.06094 24.1437 3.91416 16.899 6.45991 14.7058C9.00567 12.5126 20.5713 12.7034 31.122 12.7891C41.505 12.7867 49.3066 12.6052 52.2544 13.5116Z" fill="#1C1C1E" />
        <path d="M19.6492 14.2519L20.0904 13.4139C20.0904 13.4139 20.0196 12.7348 20.3328 11.9365C20.646 11.1382 21.9169 11.1638 21.9566 11.2917C21.9963 11.4195 21.0258 13.2633 20.8096 13.4707C20.5934 13.6781 20.3288 14.1809 20.3288 14.1809L19.6492 14.2519Z" fill="#1C1C1E" />
        <path d="M52.191 34.9817C55.1738 34.1949 56.5854 31.513 56.6945 24.1887L55.0001 24.1546C54.9745 29.4901 55.3233 31.064 53.3069 32.2515C51.2905 33.439 49.821 32.7741 49.821 32.7741L46.4186 31.308C46.4186 31.308 45.3067 31.7938 41.9575 31.8533C38.017 31.8162 34.3061 32.9695 34.3061 32.9695C34.3061 32.9695 26.2264 32.2561 25.891 32.0799C25.4674 32.0714 25.1495 31.0486 25.1495 31.0486L22.9607 30.3268L18.3676 33.1563C18.3676 33.1563 16.7438 33.8012 14.2021 33.7499C11.6604 33.6987 8.57588 33.2554 7.60943 32.8547C6.643 32.4541 4.82461 30.2153 4.86774 24.0331L3.89255 24.0558C3.89255 24.0558 3.74368 31.2522 6.40929 33.5081C9.03517 35.6362 20.4816 35.4435 31.0323 35.5292C41.455 35.6546 49.2479 35.8964 52.191 34.9817Z" fill="#1C1C1E" />
        <path d="M19.6999 34.2841L20.1942 34.9717C20.1942 34.9717 20.1369 35.6905 20.5033 36.4178C20.9976 37.1054 22.1405 37.1708 22.1008 37.0429C22.0611 36.9151 21.1694 34.949 20.8737 34.9007C20.6663 34.6848 20.3794 34.2131 20.3794 34.2131L19.6999 34.2841Z" fill="#1C1C1E" />
        <path d="M53.2184 24.2875C53.2042 18.8241 51.3327 15.0596 51.3327 15.0596L46.5011 17.122C46.5011 17.122 47.2608 21.3723 47.1995 24.3355L53.2184 24.2875Z" fill="#2F405C" />
        <path d="M47.353 14.8951C47.353 14.8951 46.0511 14.3183 43.9728 14.4034C41.8547 14.3607 37.3228 14.227 32.9984 14.3092C28.6343 14.2636 19.5221 14.2916 19.5221 14.2916C19.5221 14.2916 22.276 16.3799 26.6401 16.4255C31.1322 16.4314 38.0778 16.6561 41.2991 16.6364C44.6483 16.5769 47.353 14.8951 47.353 14.8951Z" fill="#2F405C" />
        <path d="M18.233 15.1122C18.233 15.1122 21.4589 16.9135 25.0553 17.1978C25.0553 17.1978 24.1071 20.0161 24.1474 24.2095L16.1384 24.175C16.0934 18.1605 18.233 15.1122 18.233 15.1122Z" fill="#2F405C" />
        <path d="M9.08002 15.0131C9.08002 15.0131 7.0414 15.2261 6.30461 16.0159C5.56782 16.8056 5.25058 19.8484 5.25058 19.8484C5.25058 19.8484 5.65198 18.8824 6.98884 17.766C8.28597 16.5216 7.91961 15.7943 9.08002 15.0131Z" fill="#2F405C" />
        <path d="M49.7977 15.5373C49.7977 15.5373 50.3978 15.2106 51.5097 14.7248C52.4937 14.2788 53.3146 15.5658 53.3059 15.9891C53.2574 16.2846 52.2647 17.1539 52.2647 17.1539C52.2647 17.1539 51.8673 15.8754 51.532 15.6993C50.6052 15.4265 49.7977 15.5373 49.7977 15.5373Z" fill="#2F405C" />
        <path d="M53.2177 24.288C53.2318 29.7514 51.3306 33.5668 51.3306 33.5668L46.4587 31.4358C46.4587 31.4358 47.0978 27.1714 47.1989 24.3361L53.2177 24.288Z" fill="#233044" />
        <path d="M47.3905 33.5296C47.3905 33.5296 46.1506 34.0552 44.0723 34.1403C41.9542 34.0976 37.3739 34.2594 33.0495 34.3416C28.6853 34.2959 19.5732 34.3239 19.5732 34.3239C19.5732 34.3239 22.2866 32.2188 26.7787 32.2247C31.2708 32.2306 38.1854 31.9041 41.4464 32.0122C44.6279 31.8646 47.3905 33.5296 47.3905 33.5296Z" fill="#233044" />
        <path d="M18.3205 33.4513C18.3205 33.4513 21.537 31.6104 25.1024 31.3435C25.1024 31.3435 24.1003 28.5706 24.1879 24.3374L16.1789 24.303C16.096 30.3573 18.3205 33.4513 18.3205 33.4513Z" fill="#233044" />
        <path d="M18.9776 32.4058C18.9776 32.4058 21.5455 31.1871 24.4799 30.6957C24.4799 30.6957 23.6852 28.1387 23.7243 24.201L17.4097 24.2008C17.3754 29.9596 18.9776 32.4058 18.9776 32.4058Z" fill="#2F405C" />
        <path d="M18.9344 16.0167C18.9344 16.0167 21.5778 17.2981 24.4946 17.6533C24.4946 17.6533 23.6346 20.304 23.7235 24.2019L17.409 24.2017C17.3551 18.6105 18.9344 16.0167 18.9344 16.0167Z" fill="#276379" />
        <path d="M49.8604 32.9019C49.8604 32.9019 50.5312 33.2542 51.4976 33.6548C52.5038 34.1833 53.3375 32.8026 53.2183 32.419C53.0991 32.0355 52.1414 31.2115 52.1414 31.2115C52.1414 31.2115 51.6916 32.473 51.3474 32.7201C50.6194 33.0866 49.8604 32.9019 49.8604 32.9019Z" fill="#233044" />
        <path d="M9.07968 33.52C9.07968 33.52 7.04982 33.3097 6.38779 32.534C5.72576 31.7584 5.19575 28.6985 5.19575 28.6985C5.19575 28.6985 5.60186 29.5537 6.93467 30.6817C8.30722 31.9375 7.86607 32.7756 9.07968 33.52Z" fill="#2F405C" />
        <path d="M51.9475 24.263C51.9656 27.4819 51.4012 30.1809 50.9911 31.5701C50.7661 32.2008 50.1661 32.5275 49.535 32.3031L46.9314 31.1495C46.9314 31.1495 47.6102 27.0129 47.623 24.3452L51.9475 24.263Z" fill="#2F405C" />
        <path d="M51.9469 24.2623C51.9288 21.0434 51.39 18.4069 50.9529 17.0005C50.7542 16.3613 50.0835 16.009 49.4834 16.3357L46.8757 17.4265C46.8757 17.4265 47.4677 21.5887 47.5828 24.2167L51.9469 24.2623Z" fill="#276379" />
        <path d="M5.73476 31.3347C6.30856 32.278 8.13099 32.2724 8.13099 32.2724C8.37816 32.6161 8.53709 33.1275 9.04018 33.3918C9.04018 33.3918 7.01031 33.1814 6.34829 32.4058C6.05263 32.3575 5.8937 31.8461 5.73476 31.3347Z" fill="#233044" />
        <path d="M5.68804 17.1895C6.25713 16.3116 8.03984 16.1781 8.03984 16.1781C8.17656 15.7151 8.48096 15.34 8.95307 15.0531C8.95307 15.0531 6.91446 15.2661 6.17767 16.0559C6.08944 16.2235 5.95272 16.6866 5.68804 17.1895Z" fill="#276379" />
        <path d="M18.097 23.7073C18.4324 23.8835 19.1517 23.9403 19.8312 23.8693C20.471 23.6705 20.4091 22.5681 20.0339 22.2641C19.6588 21.9601 19.116 21.568 19.1732 20.8492C19.2305 20.1305 19.6144 20.0112 19.6716 19.2924C19.7289 18.5736 19.3537 18.2696 19.6184 17.7667C19.8831 17.2639 20.8496 17.6645 21.026 17.3293C21.1142 17.1616 20.6509 17.0252 20.1875 16.8889C19.7242 16.7525 19.3888 16.5763 19.1726 16.7837C18.7887 16.903 18.2506 18.332 17.9111 20.4003C17.6997 22.4288 17.7616 23.5312 18.097 23.7073Z" fill="#327F93" />
        <path d="M49.8372 23.7966C50.3005 23.933 51.1478 23.9501 51.4919 23.7029C51.7081 23.4955 51.5754 21.7142 51.3148 19.9726C51.0939 18.3589 50.8245 17.0406 50.4494 16.7366C50.0743 16.4326 48.5785 17.0377 48.658 17.2934C48.7374 17.5491 49.8096 16.9354 50.176 17.6628C50.5423 18.3901 50.11 18.8049 50.013 19.3958C50.0837 20.0748 50.3309 20.4186 50.2339 21.0095C50.1369 21.6005 50.0884 21.8959 49.6163 22.1829C49.3119 22.5579 49.3341 23.5323 49.8372 23.7966Z" fill="#327F93" />
        <path d="M35.9788 32.0295L37.453 34.5155L34.2318 34.5352L33.4768 32.1061L35.9788 32.0295Z" fill="#1C1C1E" />
        <path d="M35.9186 16.4861L37.3699 13.9321L34.2767 13.912L33.5048 16.3951L35.9186 16.4861Z" fill="#1C1C1E" />

        <animateMotion dur="12s" repeatCount="indefinite" rotate="auto" keyPoints="1;0" keyTimes="0;1" calcMode="linear">
            <mpath href="#road" />
        </animateMotion>
    </g>

    <g id="car-4" x="100" y="100" clip-path="url(#clip0_806_2266)" transform="translate(-30, -40) rotate(10)">
        <path opacity="0.4" d="M23.3841 12.1792C22.9529 12.7841 22.8752 13.4728 22.8605 13.616C21.9908 13.7845 21.2682 13.9293 20.7084 14.029C20.5519 14.0542 20.4047 14.078 20.2759 14.0987C18.1778 14.4372 15.33 14.3426 12.7012 15.0202C10.0725 15.6979 8.88526 16.4153 7.92867 17.5088C6.97208 18.6023 6.61199 21.6375 6.61199 21.6375C6.11893 22.0927 5.52998 22.9485 6.29604 27.7555C7.0713 32.561 7.90721 33.1774 8.51988 33.4636C8.51988 33.4636 9.81767 36.2408 11.0681 36.9688C12.32 37.706 13.6726 38.0137 16.3811 37.8303C19.0897 37.647 21.7632 36.6615 23.8613 36.3231C24.4502 36.228 25.3473 36.1115 26.4773 35.9762C26.5363 36.1075 26.816 36.7292 27.4261 37.1755C28.1004 37.6678 29.015 37.4263 29.0782 37.1156C29.1208 36.9115 28.5212 36.2381 28.0336 35.7908C30.8105 35.4461 34.4752 34.9864 38.2573 34.3762C44.5608 33.3593 46.1601 32.9135 47.0914 32.951C48.0228 32.9886 50.7111 32.8555 53.2961 32.3163C55.8719 31.7787 56.236 31.1095 57.7163 30.5701C58.1079 30.4224 58.4841 30.296 58.8418 30.1726C58.851 30.1711 58.851 30.1711 58.8602 30.1696C58.9585 30.135 59.066 30.0988 59.1643 30.0642C59.1904 30.0506 59.218 30.0461 59.2441 30.0325C59.2795 30.0174 59.324 30.0009 59.3593 29.9858C59.3947 29.9707 59.4208 29.9571 59.4576 29.9511C59.4929 29.936 59.5283 29.921 59.5728 29.9044C59.6081 29.8893 59.6343 29.8757 59.6696 29.8606C59.7049 29.8455 59.7403 29.8304 59.7756 29.8153C59.8201 29.7987 59.854 29.7745 59.8985 29.7579C59.9508 29.7307 59.9953 29.7141 60.0476 29.6869C60.0829 29.6718 60.1182 29.6567 60.1521 29.6325C60.1874 29.6174 60.2121 29.5946 60.2474 29.5795C60.2827 29.5644 60.3074 29.5417 60.3335 29.5281C60.3596 29.5145 60.3935 29.4902 60.4196 29.4766C60.4535 29.4524 60.4796 29.4388 60.5135 29.4145C60.5396 29.4009 60.5642 29.3782 60.5904 29.3645C60.6412 29.3282 60.6919 29.2918 60.7335 29.2569C60.7582 29.2342 60.7751 29.222 60.7998 29.1993C60.8244 29.1765 60.8583 29.1523 60.8829 29.1295C60.9076 29.1068 60.923 29.0855 60.9477 29.0627C60.9723 29.04 61.0047 29.0066 61.0294 28.9838C61.0448 28.9625 61.0695 28.9398 61.0849 28.9185C61.1158 28.8759 61.1559 28.8319 61.1868 28.7894C61.1945 28.7787 61.2023 28.7681 61.2115 28.7666C61.2192 28.756 61.2269 28.7453 61.2347 28.7347C61.2501 28.7134 61.2578 28.7028 61.2733 28.6815C61.281 28.6709 61.2965 28.6496 61.3042 28.6389C61.3104 28.6191 61.3274 28.607 61.3336 28.5872C61.3399 28.5674 61.3568 28.5553 61.363 28.5355C61.3785 28.5143 61.3847 28.4945 61.4002 28.4732C61.4064 28.4534 61.4234 28.4413 61.4296 28.4215C61.4528 28.3896 61.4653 28.35 61.487 28.3089C61.5024 28.2876 61.5072 28.2587 61.5227 28.2374C61.5289 28.2176 61.5444 28.1964 61.5506 28.1766C61.5646 28.1461 61.5708 28.1263 61.5848 28.0959C61.5911 28.0761 61.5973 28.0563 61.6036 28.0365C61.6175 28.0061 61.6315 27.9757 61.6455 27.9453C61.6532 27.9346 61.6517 27.9255 61.6594 27.9148C61.6859 27.8448 61.7109 27.7656 61.7374 27.6956C61.7451 27.685 61.7422 27.6667 61.7499 27.6561C61.7624 27.6165 61.7749 27.5769 61.7874 27.5373C61.7936 27.5175 61.7999 27.4977 61.8061 27.4779C61.8186 27.4383 61.8311 27.3988 61.8421 27.35C61.8484 27.3302 61.8546 27.3104 61.8609 27.2907C61.8859 27.2115 61.9094 27.1232 61.9237 27.0363C61.93 27.0165 61.9362 26.9968 61.9425 26.977C61.955 26.9374 61.9583 26.8993 61.9708 26.8597C61.9833 26.8201 61.9865 26.782 61.999 26.7424C62.0038 26.7135 62.0163 26.6739 62.0196 26.6358C62.0259 26.616 62.0244 26.6069 62.0306 26.5871C62.3796 24.8873 62.5193 22.3008 61.9493 18.7676C61.3793 15.2344 60.441 12.8125 59.5675 11.3193C59.5554 11.3025 59.5539 11.2933 59.5417 11.2765C59.5266 11.2414 59.5038 11.2169 59.4887 11.1818C59.4644 11.1481 59.4493 11.113 59.4249 11.0793C59.4006 11.0457 59.3855 11.0106 59.3612 10.9769C59.3491 10.9601 59.3369 10.9433 59.3247 10.9265C59.2746 10.85 59.226 10.7827 59.1851 10.7048C59.173 10.688 59.1608 10.6712 59.1487 10.6543C59.1243 10.6207 59.1 10.587 59.0742 10.5442C59.0621 10.5274 59.0499 10.5106 59.0378 10.4938C59.0135 10.4601 58.9892 10.4265 58.9648 10.3928C58.9542 10.3852 58.9512 10.3669 58.9405 10.3592C58.8919 10.2919 58.8448 10.2338 58.7961 10.1665C58.7855 10.1588 58.784 10.1497 58.7733 10.142C58.7505 10.1175 58.7276 10.093 58.7048 10.0685C58.6926 10.0517 58.6805 10.0349 58.6683 10.0181C58.6455 9.99357 58.6333 9.97675 58.6105 9.95226C58.5984 9.93544 58.577 9.9201 58.5648 9.90328C58.5435 9.88794 58.5299 9.86196 58.5085 9.84663C58.475 9.81447 58.4521 9.78998 58.4186 9.75782C58.4065 9.74099 58.3866 9.73481 58.3744 9.71799C58.3531 9.70265 58.3409 9.68583 58.3196 9.67049C58.3074 9.65367 58.2875 9.64748 58.2754 9.63066C58.2632 9.61384 58.2433 9.60766 58.2312 9.59083C58.2205 9.58317 58.1992 9.56783 58.1885 9.56016C58.1671 9.54482 58.1564 9.53715 58.1351 9.52181C58.1244 9.51415 58.1137 9.50648 58.103 9.49881C58.0924 9.49114 58.0817 9.48347 58.0725 9.48496C58.0298 9.45428 57.9778 9.42509 57.9351 9.39442C57.9138 9.37908 57.8832 9.36522 57.8619 9.34989C57.8298 9.32688 57.7901 9.31451 57.7595 9.30066C57.7289 9.28681 57.7076 9.27147 57.677 9.25762C57.6465 9.24376 57.6067 9.23139 57.5761 9.21754C57.5456 9.20369 57.5257 9.1975 57.4951 9.18365C57.4355 9.1651 57.3759 9.14655 57.3254 9.12651C57.2963 9.12181 57.2658 9.10796 57.2367 9.10326C57.1969 9.09089 57.1678 9.08619 57.1281 9.07382C57.099 9.06912 57.0592 9.05675 57.0301 9.05205C57.0011 9.04735 56.9613 9.03498 56.9322 9.03028C56.8939 9.02707 56.8634 9.01322 56.8251 9.01C56.7868 9.00679 56.747 8.99442 56.7088 8.9912C56.6598 8.98032 56.6031 8.98007 56.5449 8.97067C56.4974 8.96894 56.4577 8.95657 56.4102 8.95484C56.3719 8.95163 56.3336 8.94841 56.2953 8.9452C56.2571 8.94198 56.228 8.93729 56.1897 8.93407C56.1514 8.93086 56.1131 8.92764 56.0656 8.92591C56.0273 8.92269 55.9983 8.918 55.9615 8.92393C55.9232 8.92072 55.8757 8.91899 55.8374 8.91577C55.8083 8.91107 55.7807 8.91553 55.7516 8.91083C55.6474 8.90885 55.5433 8.90687 55.4284 8.89723C55.4192 8.89871 55.4192 8.89871 55.41 8.9002C55.0316 8.89551 54.6348 8.89379 54.2166 8.87673C52.651 8.82877 52.0949 8.30804 49.4714 8.60918C48.8137 8.68712 48.1588 8.78337 47.536 8.90263C45.6555 9.24358 44.0316 9.71218 43.382 9.95785C43.319 9.97739 43.2576 10.0061 43.1854 10.0271C42.5546 10.2134 41.5074 10.3354 39.0997 10.6863C37.9372 10.855 36.4527 11.0757 34.5479 11.383C30.775 11.9917 27.1516 12.7077 24.398 13.2553C24.7202 12.6774 25.0776 11.8496 24.973 11.6693C24.815 11.4506 23.8693 11.4998 23.3841 12.1792Z" fill="#2A303B" />
        <path d="M2.08375 22.4246C2.85902 27.2301 3.69492 27.8466 4.3076 28.1328C4.3076 28.1328 5.60538 30.9099 6.85583 31.638C8.10776 32.3751 9.46036 32.6829 12.1689 32.4995C14.8774 32.3161 17.5509 31.3307 19.649 30.9922C21.7471 30.6537 27.7309 30.0546 34.0436 29.0362C40.3563 28.0178 41.9463 27.5734 42.8777 27.611C43.809 27.6486 46.4973 27.5154 49.0823 26.9763C51.6673 26.4372 52.0223 25.7695 53.5026 25.2301C54.9737 24.6923 56.2733 24.3793 56.9885 23.4281C57.7037 22.4768 58.6504 19.2155 57.7216 13.458L2.08523 22.4337L2.08375 22.4246Z" fill="#9EE251" />
        <path d="M2.08398 22.4248C1.30872 17.6193 1.90836 16.7712 2.39994 16.3069C2.39994 16.3069 2.75855 13.2625 3.71662 12.1782C4.67321 11.0847 5.86042 10.3672 8.48918 9.68956C11.1179 9.0119 13.9657 9.10657 16.0638 8.76809C18.1619 8.42961 24.0305 7.11656 30.3432 6.09815C36.6559 5.07973 38.305 5.00152 39.1773 4.67296C40.0496 4.34441 42.6434 3.62543 45.2668 3.32429C47.881 3.02463 48.4371 3.54537 50.0119 3.59184C51.5775 3.63979 52.9097 3.52818 53.8877 4.20625C54.8657 4.88432 56.79 7.68248 57.7189 13.4399L2.08251 22.4157L2.08398 22.4248Z" fill="#9EE251" />
        <path d="M16.8669 12.9765C11.1561 14.0387 6.9668 16.8652 6.9668 16.8652C6.9668 16.8652 12.6656 14.4996 16.8927 13.78L16.8669 12.9765Z" fill="#DAFF92" />
        <path d="M19.0905 26.7617C13.3354 27.5493 8.46977 26.1836 8.46977 26.1836C8.46977 26.1836 14.6234 26.6371 18.8623 25.9908L19.0905 26.7617Z" fill="#658D37" />
        <path d="M8.56253 31.2592C10.6611 31.8598 12.8656 30.8937 16.1022 30.2964C19.3295 29.7006 20.2953 29.3664 20.2953 29.3664C20.2953 29.3664 24.3896 27.2971 27.2811 26.2578C27.6838 27.0568 28.5701 26.9326 28.5701 26.9326C28.5701 26.9326 27.6478 27.1847 25.6327 27.9794C23.6268 28.7726 21.7529 29.798 21.7529 29.798L46.1182 24.6839C46.1182 24.6839 54.3182 23.4831 55.356 22.893C56.3938 22.303 56.9268 18.2913 56.1885 13.7147L57.6884 13.4727C58.6187 19.2393 57.6812 22.4991 56.9553 23.4427C56.2295 24.3863 54.9405 24.7069 53.4694 25.2448C51.9983 25.7826 51.6341 26.4518 49.0491 26.9909C46.4733 27.5286 43.7758 27.6632 42.8445 27.6257C41.9131 27.5881 40.3139 28.0339 34.0104 29.0509C27.7069 30.0678 21.7139 30.6684 19.6158 31.0068C17.5177 31.3453 14.8442 32.3307 12.1357 32.5141C9.42716 32.6975 8.07456 32.3898 6.82263 31.6526C5.5707 30.9154 4.27439 28.1474 4.27439 28.1474C3.66319 27.8704 2.82581 27.2447 2.05055 22.4392L3.1088 22.2685C3.66847 25.7376 4.33315 27.0485 4.71179 27.5228C5.13349 27.9713 6.45627 30.6692 8.56253 31.2592Z" fill="#658D37" />
        <path d="M21.7605 29.788L22.2428 30.6117C22.2428 30.6117 22.5203 31.3371 23.1945 31.8294C23.8688 32.3217 24.7834 32.0802 24.8466 31.7695C24.919 31.4572 23.4963 30.0714 23.2423 30.0185C22.9791 29.967 22.6546 29.6531 22.6546 29.6531L21.7605 29.788Z" fill="#658D37" />
        <path d="M18.4453 9.24707L18.644 8.31342C18.644 8.31342 18.6794 7.53761 19.1646 6.85827C19.6498 6.17893 20.594 6.12052 20.7517 6.39561C20.9186 6.66922 20.0039 8.43213 19.7794 8.56226C19.5457 8.69388 19.3364 9.09391 19.3364 9.09391L18.4453 9.24707Z" fill="#658D37" />
        <path d="M5.08103 28.4118C5.08103 28.4118 8.37128 30.0786 12.4616 30.4424C16.5519 30.8062 20.5417 30.5476 20.5417 30.5476L20.2946 29.3666C20.2946 29.3666 14.8545 30 11.732 29.7243C8.60952 29.4485 4.83497 28.0571 4.83497 28.0571L5.08103 28.4118Z" fill="#658D37" />
        <path d="M5.45485 12.0006C7.25804 10.7705 9.65457 10.9943 12.9148 10.5435C16.1657 10.0941 17.1876 10.1077 17.1876 10.1077C17.1876 10.1077 21.725 10.7845 24.7965 10.8618C24.9275 9.97666 25.808 9.81583 25.808 9.81583C25.808 9.81583 24.8531 9.86657 22.6904 9.7459C20.5369 9.62375 18.4355 9.23961 18.4355 9.23961L43.173 6.43209C43.173 6.43209 51.3345 4.99331 52.5052 5.22707C53.6774 5.46997 55.4435 9.10134 56.1818 13.678L57.6818 13.436C56.7515 7.66943 54.8364 4.86978 53.8506 4.20235C52.8649 3.53492 51.5404 3.63589 49.9748 3.58794C48.4092 3.53998 47.8531 3.01925 45.2297 3.32039C42.6155 3.62004 40.0125 4.3405 39.1402 4.66906C38.2679 4.99761 36.6096 5.07732 30.3061 6.09425C24.0026 7.11118 18.1248 8.42571 16.0267 8.76419C13.9286 9.10267 11.0808 9.008 8.45207 9.68566C5.82331 10.3633 4.6361 11.0808 3.67951 12.1743C2.72292 13.2678 2.36283 16.303 2.36283 16.303C1.86977 16.7582 1.27161 17.6154 2.04688 22.4209L3.10513 22.2502C2.54546 18.7811 2.76418 17.3276 2.97448 16.7584C3.18478 16.1892 3.64098 13.223 5.45485 12.0006Z" fill="#658D37" />
        <path d="M3.04585 15.7988C3.04585 15.7988 5.645 13.1818 9.41337 11.5502C13.1817 9.91856 17.0505 8.90936 17.0505 8.90936L17.1873 10.1082C17.1873 10.1082 11.824 11.2176 8.94666 12.4613C6.06931 13.705 2.92383 16.2129 2.92383 16.2129L3.04585 15.7988Z" fill="#658D37" />
        <path d="M16.1653 20.1539C17.0395 25.5727 20.2954 29.3675 20.2954 29.3675C20.2954 29.3675 24.5586 27.2334 27.2796 26.2498C27.2796 26.2498 25.9919 22.8324 25.32 18.6676L16.1638 20.1447L16.1653 20.1539Z" fill="#2A303B" />
        <path d="M45.1783 15.4722C45.6287 18.2639 45.8315 20.6918 45.9149 21.8523C45.9401 22.2427 46.2771 22.517 46.6267 22.4606L50.3536 21.8594C51.7524 21.6337 52.7501 20.327 52.6949 18.8144C52.6469 17.6388 52.5151 16.1199 52.2272 14.335L45.1783 15.4722V15.4722Z" fill="#2A303B" />
        <path d="M21.759 29.7879C21.759 29.7879 25.582 27.7343 28.7327 26.8973C31.8834 26.0603 34.287 25.6256 37.2619 25.2207C40.2368 24.8159 46.1244 24.6738 46.1244 24.6738C46.1244 24.6738 41.396 26.4415 34.7525 27.6917C28.109 28.942 21.759 29.7879 21.759 29.7879Z" fill="#2A303B" />
        <path d="M6.63587 29.739C7.42655 31.2455 8.93635 32.4107 8.93635 32.4107C8.11907 32.2608 7.47254 31.9988 6.84805 31.6394C5.59612 30.9022 4.29981 28.1342 4.29981 28.1342C5.25637 28.5622 5.8452 28.2324 6.63587 29.739Z" fill="#2A303B" />
        <path d="M57.7756 21.2731C57.5516 22.3423 57.2423 23.059 56.9613 23.4237C56.4021 24.1713 55.4761 24.5179 54.4043 24.8975C54.4043 24.8975 54.5756 24.4378 55.0658 24.1991C55.5561 23.9603 55.9119 23.6493 56.3084 22.9468C56.6942 22.2365 56.524 21.2403 57.7756 21.2731Z" fill="#2A303B" />
        <path d="M28.0279 22.287C28.3289 23.6847 29.6748 24.5946 31.1011 24.3645C32.6195 24.1195 33.6304 22.6604 33.3223 21.1605C33.1227 20.216 32.8972 18.9939 32.6551 17.4927L27.2902 18.3582C27.5232 19.8609 27.7892 21.2173 28.0279 22.287Z" fill="#2A303B" />
        <path d="M26.7552 14.3974C26.8743 15.4864 27.0391 16.8592 27.2812 18.3604L32.6461 17.4948C32.4039 15.9937 32.2444 14.7704 32.1261 13.8033C31.9561 12.2811 30.5376 11.2139 29.01 11.4604C27.5929 11.689 26.6014 12.976 26.7552 14.3974Z" fill="#323845" />
        <path d="M16.1645 20.153C15.2903 14.7342 17.1877 10.108 17.1877 10.108C17.1877 10.108 21.9057 10.7931 24.7981 10.8712C24.7981 10.8712 24.6503 14.5202 25.3222 18.685L16.166 20.1621L16.1645 20.153Z" fill="#323845" />
        <path d="M17.6464 19.9143C18.4585 24.9487 20.9766 28.3836 20.9766 28.3836C20.9766 28.3836 24.5432 26.6718 26.6366 25.8363C26.6366 25.8363 25.4932 22.6117 24.8701 18.7489L17.6464 19.9143Z" fill="#323845" />
        <path d="M17.6465 19.9141C16.8343 14.8797 18.1444 10.8272 18.1444 10.8272C18.1444 10.8272 22.0684 11.3305 24.3183 11.4653C24.3183 11.4653 24.247 14.886 24.8702 18.7487L17.6465 19.9141V19.9141Z" fill="#276379" />
        <path d="M45.1771 15.471C44.7268 12.6793 44.1558 10.3108 43.87 9.18295C43.7712 8.80445 44.0048 8.43806 44.3544 8.38164L48.0813 7.78039C49.4801 7.55473 50.8381 8.48142 51.2614 9.93457C51.5855 11.0656 51.9381 12.549 52.226 14.3339L45.1771 15.471V15.471Z" fill="#323845" />
        <path d="M46.3742 15.2791C46.7906 17.8603 47.0298 20.1039 47.1352 21.1669C47.173 21.5177 47.398 21.8007 47.6281 21.7636L50.039 21.3746C50.95 21.2277 51.547 20.0701 51.4359 18.6793C51.3566 17.6027 51.2058 16.1995 50.9385 14.5427L46.3742 15.2791V15.2791Z" fill="#323845" />
        <path d="M46.3748 15.2797C45.9584 12.6984 45.4799 10.4935 45.2457 9.45121C45.1712 9.10636 45.2958 8.76694 45.5259 8.72982L47.9368 8.34086C48.8479 8.19389 49.7785 9.105 50.1104 10.4602C50.3738 11.5071 50.6718 12.8866 50.9391 14.5433L46.3748 15.2797V15.2797Z" fill="#276379" />
        <path d="M18.4456 9.24703C18.4456 9.24703 22.7205 9.99428 25.9746 9.79801C29.2286 9.60175 31.647 9.25856 34.5983 8.7073C37.5495 8.15604 43.1831 6.43952 43.1831 6.43952C43.1831 6.43952 38.1465 6.23778 31.4483 7.14934C24.7395 8.05322 18.4456 9.24703 18.4456 9.24703Z" fill="#2A303B" />
        <path d="M4.10548 14.0497C4.38226 12.3709 5.44906 10.79 5.44906 10.79C4.72038 11.1893 4.18903 11.6413 3.70925 12.1789C2.75266 13.2724 2.39258 16.3076 2.39258 16.3076C3.16603 15.6006 3.82869 15.7284 4.10548 14.0497Z" fill="#323845" />
        <path d="M55.3112 6.00468C54.7623 5.06016 54.2434 4.47708 53.8619 4.21931C53.096 3.68546 52.1079 3.64764 50.9712 3.62441C50.9712 3.62441 51.2784 4.00687 51.8188 4.07934C52.3592 4.15181 52.7948 4.33511 53.3921 4.87737C53.9817 5.43027 54.1335 6.42947 55.3112 6.00468Z" fill="#323845" />
        <path d="M27.907 18.2592C28.1256 19.6139 28.3617 20.8436 28.5643 21.8065C28.8247 23.0699 29.7955 23.9369 30.9826 23.7454C32.1696 23.5539 32.9053 22.2613 32.63 20.9063C32.4544 20.0519 32.2573 18.9473 32.0388 17.5926L27.907 18.2592Z" fill="#323845" />
        <path d="M27.4146 14.6848C27.5266 15.6716 27.6877 16.9041 27.9062 18.2588L32.038 17.5922C31.8195 16.2375 31.6684 15.1255 31.5572 14.2606C31.3924 12.8879 30.2508 11.8981 29.1005 12.0837C27.9502 12.2693 27.2646 13.4036 27.4146 14.6848Z" fill="#276379" />
        <path d="M48.4214 14.5073C48.9128 14.5689 50.1228 14.4019 50.3412 14.0004C50.5597 13.5989 49.8476 10.0041 49.0922 9.24314C48.3369 8.48219 46.9624 8.74149 47.0005 9.03588C47.0478 9.32879 47.8093 9.07445 48.0816 9.65036C48.3539 10.2263 48.262 10.4759 48.2434 11.0048C48.2157 11.5352 48.4375 11.8563 48.5006 12.3063C48.5638 12.7563 48.4207 13.0987 48.0863 13.425C47.7426 13.7528 47.9192 14.4381 48.4214 14.5073Z" fill="#327F93" />
        <path d="M18.1576 19.1731C18.6028 19.5333 20.2477 19.1364 20.6035 18.8255C20.9594 18.5145 21.0611 17.9158 20.5896 17.3344C20.1181 16.7531 19.2538 16.7798 19.2313 15.9382C19.2089 15.0966 19.4105 14.942 19.5316 14.1711C19.6513 13.3911 19.1588 12.738 19.47 12.2088C19.772 11.6811 21.5866 12.1021 21.6255 11.7578C21.6643 11.4134 18.9891 11.1594 18.6432 11.3561C18.3065 11.5513 17.954 12.8197 17.7845 14.7535C17.6164 16.6965 17.7124 18.8129 18.1576 19.1731Z" fill="#327F93" />
        <path d="M28.4213 17.1239C28.0624 17.1818 27.8812 15.4736 27.8264 14.6653C27.7715 13.8571 28.1722 12.7125 29.1017 12.5625C30.0311 12.4126 30.7224 13.1275 30.8757 13.6099C31.0383 14.0908 30.9208 14.7672 30.3227 14.8637C29.7337 14.9587 29.4898 14.5003 28.9492 14.719C28.4115 14.956 28.7802 17.066 28.4213 17.1239Z" fill="#327F93" />
        <defs>
            <clipPath id="clip0_806_2266">
                <rect width="32.1171" height="59.6461" fill="white" transform="translate(5.11523 41.207) rotate(-99.1645)" />
            </clipPath>
        </defs>

        <animateMotion dur="12s" begin="4.5s" repeatCount="indefinite" rotate="auto" keyPoints="1;0" keyTimes="0;1" calcMode="linear">
            <mpath href="#road" />
        </animateMotion>
    </g>

    <defs>
        <clipPath id="clip0_494_11387">
        <rect width="32.1171" height="59.6461" fill="white" transform="translate(57.2188 0.766602) rotate(72.2116)"/>
        </clipPath>
    </defs>
</svg>
