<svg width="2067" height="135" viewBox="0 0 2067 135" fill="none" xmlns="http://www.w3.org/2000/svg">
<path d="M2014.43 44.9607C1961.14 57.993 1908.44 66.4139 1855.75 58.1935C1743.3 40.7502 1633.67 -13.7851 1524.65 3.2572C1472.77 11.2771 1421.49 27.3169 1370.61 40.3492C1355.47 44.3592 1340.13 47.9681 1324.99 51.1761C1281.18 60.1985 1237.57 65.0104 1193.96 58.1935C1081.51 40.7502 971.882 -13.7851 862.862 3.2572C822.484 9.47262 782.309 20.7005 742.537 31.3268C738.297 32.5298 734.057 33.7328 729.818 34.7353C729.616 34.7353 729.616 34.7353 729.414 34.7353C725.376 35.7378 721.54 36.9408 717.502 37.9432C716.291 38.3442 715.08 38.5447 714.07 38.9457C711.648 39.5472 709.023 40.1487 706.6 40.9507C704.582 41.5522 702.361 41.9532 700.342 42.5547C698.525 42.9557 696.506 43.5572 694.689 43.9582C692.065 44.5597 689.642 45.1612 687.017 45.7626C686.412 45.9631 685.806 46.1636 684.998 46.1636C681.768 46.9656 678.538 47.7676 675.106 48.3691C674.702 48.3691 674.5 48.5696 674.096 48.5696C670.462 49.3716 666.828 50.1736 662.993 50.9756C618.981 60.1985 575.171 64.8099 531.563 57.993C419.313 40.7502 309.688 -13.5846 200.668 3.2572C148.782 11.2771 97.5027 27.3169 46.6268 40.3492C31.4852 44.3592 16.1416 47.9681 1 51.1761V124.558C16.1416 121.35 31.4852 117.741 46.6268 113.731C97.5027 100.699 148.782 84.6592 200.668 76.6393C309.688 59.7975 419.313 114.132 531.765 131.576C575.373 138.392 619.183 133.581 663.194 124.558C664.81 124.157 666.425 123.957 668.04 123.556C669.251 123.355 670.664 122.954 671.876 122.754C674.298 122.152 676.923 121.551 679.346 121.15C680.153 120.949 680.961 120.749 681.768 120.548C690.853 118.343 699.938 116.137 709.023 113.932C759.899 100.699 811.179 84.8596 863.064 76.8398C972.084 59.998 1081.71 114.333 1194.16 131.776C1246.85 139.996 1299.75 131.375 1352.85 118.543C1370.21 114.333 1387.37 109.721 1404.73 104.909C1444.3 94.0825 1484.28 83.0552 1524.65 76.8398C1633.67 59.998 1743.3 114.333 1855.75 131.776C1908.44 139.996 1961.34 131.375 2014.43 118.543C2031.8 114.333 2048.96 109.721 2066.32 104.909V31.3268C2049.16 36.1388 2031.8 40.7502 2014.43 44.9607Z" fill="#222222"/>
<path d="M1 87.8673C16.1416 84.6593 31.4852 81.0504 46.6268 77.0404C97.5027 64.0081 148.782 47.9683 200.668 39.9484C309.688 23.1066 419.313 77.4414 531.765 94.8847C575.373 101.702 619.183 96.8897 663.194 87.8673C664.81 87.4663 666.425 87.2658 668.04 86.8648C669.251 86.6643 670.664 86.2633 671.876 86.0628C674.298 85.4613 676.923 84.8598 679.345 84.4588C680.153 84.2583 680.961 84.0578 681.768 83.8573C690.853 81.6519 699.938 79.4464 709.023 77.2409C759.899 64.0081 811.179 48.1688 863.064 40.1489C972.084 23.3071 1081.71 77.6419 1194.16 95.0852C1246.85 103.306 1299.75 94.6842 1352.85 81.8524C1370.21 77.6419 1387.37 73.0305 1404.73 68.2185C1444.3 57.3917 1484.28 46.3643 1524.65 40.1489C1633.67 23.3071 1743.3 77.6419 1855.75 95.0852C1908.44 103.306 1961.34 94.6842 2014.43 81.8524C2031.8 77.6419 2048.96 73.0305 2066.32 68.2185" stroke="white" stroke-width="3" stroke-miterlimit="10" stroke-dasharray="14 14"/>
</svg>
