<?xml version="1.0" encoding="UTF-8" standalone="no"?>
<!-- Created with Keyshape -->
<svg xmlns="http://www.w3.org/2000/svg" width="446" height="445" viewBox="0 0 285 239" fill="none">
    <defs>
        <clipPath id="clip0_1_2">
            <rect width="182" height="143" fill="white" transform="translate(91,135.5) translate(-91,-71.5)"/>
        </clipPath>
    </defs>
    <style>
@keyframes a0_t { 0% { transform: translate(190.74px,157.99px); animation-timing-function: cubic-bezier(0,0,0.58,1); } 5.7142% { transform: translate(190.74px,141.99px); } 85.7142% { transform: translate(190.74px,141.99px); } 91.4285% { transform: translate(190.74px,157.99px); } 100% { transform: translate(190.74px,157.99px); } }
@keyframes buble_t { 0% { transform: scale(0.5,0.5) translate(-81.3402px,-76.11px); animation-timing-function: cubic-bezier(0,0,0.58,1); } 8.5714% { transform: scale(1.01,1.01) translate(-81.3402px,-76.11px); animation-timing-function: cubic-bezier(0.496922,-2.096931,0.521572,2.451569); } 22.8571% { transform: scale(1,0.999018) translate(-81.3402px,-76.11px); animation-timing-function: cubic-bezier(0.338918,1.627994,0.683278,-2.374938); } 85.7142% { transform: scale(1.03,1.03) translate(-81.3402px,-76.11px); animation-timing-function: cubic-bezier(0,0,0.58,1); } 91.4285% { transform: scale(0.5,0.5) translate(-81.3402px,-76.11px); } 100% { transform: scale(0.5,0.5) translate(-81.3402px,-76.11px); } }
@keyframes buble_o { 0% { opacity: 0; animation-timing-function: cubic-bezier(0,0,0.58,1); } 8.5714% { opacity: 1; animation-timing-function: cubic-bezier(0,0,0.58,1); } 85.7143% { opacity: 1; animation-timing-function: cubic-bezier(0,0,0.58,1); } 91.4286% { opacity: 0; } 100% { opacity: 0; } }
@keyframes a1_t { 0% { transform: translate(81.3636px,40.0048px); animation-timing-function: cubic-bezier(0.361698,0.137674,0.40908,0.692605); } 8.5714% { transform: translate(81.3636px,24.0048px); } 82.8571% { transform: translate(81.3636px,24.0048px); animation-timing-function: cubic-bezier(0.59092,0.307395,0.638302,0.862326); } 91.4285% { transform: translate(81.3636px,40.0048px); } 100% { transform: translate(81.3636px,40.0048px); } }
@keyframes stars_t { 0% { transform: scale(0.5,0.5) translate(-67.1524px,-11.9778px); } 5.7142% { transform: scale(1,1) translate(-67.1524px,-11.9778px); } 85.7142% { transform: scale(1,1) translate(-67.1524px,-11.9778px); } 91.4285% { transform: scale(0.7,0.7) translate(-67.1524px,-11.9778px); } 100% { transform: scale(0.7,0.7) translate(-67.1524px,-11.9778px); } }
@keyframes a2_t { 0% { transform: translate(22.8778px,69.9603px); } 2.8571% { transform: translate(22.8778px,69.9603px); animation-timing-function: cubic-bezier(0.188906,0.011944,0.329688,0.806022); } 8.5714% { transform: translate(22.8778px,58.7357px); } 85.7142% { transform: translate(22.8778px,58.7357px); animation-timing-function: cubic-bezier(0.670312,0.193978,0.811094,0.988056); } 91.4285% { transform: translate(22.8778px,69.9603px); } 100% { transform: translate(22.8778px,69.9603px); } }
@keyframes text_t { 0% { transform: scale(0.5,0.5) translate(-5.8px,-14.6445px); } 5.7142% { transform: scale(1,1) translate(-5.8px,-14.6445px); } 85.7142% { transform: scale(1,1) translate(-5.8px,-14.6445px); } 91.4285% { transform: scale(0.5,0.5) translate(-5.8px,-14.6445px); } 100% { transform: scale(0.5,0.5) translate(-5.8px,-14.6445px); } }
@keyframes like_t { 0% { transform: translate(160.258px,26.438px) rotate(-4deg) translate(-26.3154px,-26.438px); } 28.5714% { transform: translate(160.258px,26.438px) rotate(4deg) translate(-26.3154px,-26.438px); } 77.1428% { transform: translate(160.258px,26.438px) rotate(-4deg) translate(-26.3154px,-26.438px); } 91.4285% { transform: translate(160.258px,26.438px) rotate(-4deg) translate(-26.3154px,-26.438px); } 100% { transform: translate(160.258px,26.438px) rotate(-4deg) translate(-26.3154px,-26.438px); } }
@keyframes l-hand_t { 0% { transform: translate(125px,187px) rotate(0deg) translate(-4.036714px,-19.997px); animation-timing-function: cubic-bezier(0,0,0.58,1); } 28.5714% { transform: translate(125px,187px) rotate(-5deg) translate(-4.036714px,-19.997px); animation-timing-function: cubic-bezier(0.332779,0.573054,0.686057,1); } 68.5714% { transform: translate(125px,187px) rotate(5deg) translate(-4.036714px,-19.997px); animation-timing-function: cubic-bezier(0,0,0.46647,0.603214); } 100% { transform: translate(125px,187px) rotate(0deg) translate(-4.036714px,-19.997px); } }
@keyframes r-hand_t { 0% { transform: translate(46.058918px,186.725342px) rotate(6deg) translate(-1.870027px,-19.191659px); animation-timing-function: cubic-bezier(0,0,0.58,1); } 48.5714% { transform: translate(46.058918px,186.725342px) rotate(-3deg) translate(-1.870027px,-19.191659px); animation-timing-function: cubic-bezier(0,0,0.58,1); } 100% { transform: translate(46.058918px,186.725342px) rotate(6deg) translate(-1.870027px,-19.191659px); } }
@keyframes head_t { 0% { transform: translate(89.050919px,147.112747px) rotate(2deg) translate(-25.241254px,-70.118535px); animation-timing-function: cubic-bezier(0.42,0,1,1); } 42.8571% { transform: translate(89.050919px,147.112747px) rotate(-2deg) translate(-25.241254px,-70.118535px); animation-timing-function: cubic-bezier(0.42,0,1,1); } 85.7142% { transform: translate(89.050919px,147.112747px) rotate(2deg) translate(-25.241254px,-70.118535px); } 100% { transform: translate(89.050919px,147.112747px) rotate(2deg) translate(-25.241254px,-70.118535px); } }
    </style>
    <path d="M160.128,16.1536C103.451,14.4331,54.3629,56.8435,46.9483,112.502C38.8381,173.354,83.4681,228.101,138.39,236.87C206.695,247.78,272.952,184.676,267,116.221C262.518,64.6532,217.738,17.9137,160.128,16.1536Z" fill="#EEF5F9" transform="translate(156.683,127.104) translate(-156.683,-127.104)"/>
    <path d="M220.691,201.447L132.45,201.447C129.193,201.447,126.557,204.09,126.557,207.356L220.691,207.356L220.691,201.447Z" fill="#222222" transform="translate(173.624,204.401) translate(-173.624,-204.401)"/>
    <path d="M249.277,161.79L188.227,161.79C186.521,161.79,185.022,162.827,184.35,164.382L167.498,203.935C166.826,205.542,168.015,207.356,169.773,207.356L232.839,207.356C234.545,207.356,236.044,206.32,236.716,204.764L252.793,167.026C253.826,164.537,251.966,161.79,249.277,161.79Z" fill="#2F2F2F" transform="translate(210.195,184.573) translate(-210.195,-184.573)"/>
    <path d="M217.641,185.428C216.71,189.213,212.885,192.323,209.111,192.323C205.338,192.323,203.012,189.265,203.942,185.428C204.873,181.644,208.698,178.534,212.472,178.534C216.245,178.534,218.571,181.644,217.641,185.428Z" fill="white" transform="translate(210.792,185.428) translate(-210.792,-185.428)"/>
    <g id="buble" style="animation: 3.5s linear infinite both a0_t;">
        <g opacity="0" transform="translate(190.74,157.99) scale(0.5,0.5) translate(-81.3402,-76.11)" style="animation: 3.5s linear infinite both buble_t, 3.5s linear infinite both buble_o;">
            <path d="M272.953,65.6802L133.07,65.6802C126.764,65.6802,121.646,70.8123,121.646,77.1366L121.646,136.803C121.646,143.128,126.764,148.26,133.07,148.26L186.883,148.26L196.498,157.902L206.113,148.26L272.902,148.26C279.208,148.26,284.326,143.128,284.326,136.803L284.326,77.1366C284.378,70.8123,279.26,65.6802,272.953,65.6802Z" fill="white" stroke="#EF6238" stroke-width="1.0481" stroke-miterlimit="10" transform="translate(81.3402,46.1109) translate(-202.986,-111.791)"/>
            <g id="stars" style="animation: 3.5s linear infinite both a1_t;">
                <g transform="translate(81.3636,40.0048) scale(0.5,0.5) translate(-67.1524,-11.9778)" style="animation: 3.5s linear infinite both stars_t;">
                    <path d="M152.436,100.721C158.514,98.1543,161.366,91.1326,158.807,85.0376C156.247,78.9425,149.245,76.0823,143.167,78.649C137.089,81.2157,134.237,88.2374,136.796,94.3324C139.356,100.427,146.358,103.288,152.436,100.721Z" fill="#F8B8A5" transform="translate(11.9443,11.9778) translate(-147.802,-89.685)"/>
                    <path d="M172.719,78.7955L174.89,85.379L181.817,85.3272L176.235,89.4743L178.457,96.0579L172.823,92.0144L167.24,96.1616L169.308,89.5262L163.673,85.4827L170.6,85.4309L172.719,78.7955Z" fill="#FAAF3B" transform="translate(36.8878,9.7713) translate(-172.745,-87.4786)"/>
                    <path d="M194.793,78.7955L196.964,85.379L203.891,85.3272L198.359,89.4743L200.531,96.0579L194.896,92.0144L189.313,96.1616L191.381,89.5262L185.746,85.4827L192.673,85.4309L194.793,78.7955Z" fill="#FAAF3B" transform="translate(58.9613,9.7713) translate(-194.819,-87.4786)"/>
                    <path d="M216.866,78.7955L219.089,85.379L226.016,85.3272L220.433,89.4743L222.604,96.0579L216.969,92.0144L211.386,96.1616L213.506,89.5262L207.871,85.4827L214.798,85.4309L216.866,78.7955Z" fill="#FAAF3B" transform="translate(81.0863,9.7713) translate(-216.944,-87.4786)"/>
                    <path d="M238.939,78.7955L241.162,85.379L248.089,85.3272L242.506,89.4743L244.677,96.0579L239.042,92.0144L233.459,96.1616L235.579,89.5262L229.944,85.4827L236.871,85.4309L238.939,78.7955Z" fill="#FAAF3B" transform="translate(103.159,9.7713) translate(-239.017,-87.4786)"/>
                    <path d="M261.064,78.7955L263.235,85.379L270.162,85.3272L264.579,89.4743L266.802,96.0579L261.167,92.0144L255.584,96.1616L257.652,89.5262L252.017,85.4827L258.944,85.4309L261.064,78.7955Z" fill="#FAAF3B" transform="translate(125.232,9.7713) translate(-261.09,-87.4786)"/>
                </g>
            </g>
            <g id="text" style="animation: 3.5s linear infinite both a2_t;">
                <g transform="translate(22.8778,69.9603) scale(0.5,0.5) translate(-5.8,-14.6445)" style="animation: 3.5s linear infinite both text_t;">
                    <path d="M145.735,106.996L135.19,106.996L135.19,109.847L145.735,109.847L145.735,106.996Z" fill="#F8B8A5" transform="translate(5.2725,1.4255) translate(-140.462,-108.422)"/>
                    <path d="M164.19,106.996L148.372,106.996L148.372,109.847L164.19,109.847L164.19,106.996Z" fill="#F8B8A5" transform="translate(21.091,1.4255) translate(-156.281,-108.422)"/>
                    <path d="M157.935,115.394L135.19,115.394L135.19,118.245L157.935,118.245L157.935,115.394Z" fill="#EF6238" fill-opacity="0.45" transform="translate(11.3725,9.8235) translate(-146.562,-116.82)"/>
                    <path d="M220.484,115.394L167.24,115.394L167.24,118.245L220.484,118.245L220.484,115.394Z" fill="#EF6238" fill-opacity="0.45" transform="translate(58.672,9.8235) translate(-193.862,-116.82)"/>
                    <path d="M270.782,115.394L229.789,115.394L229.789,118.245L270.782,118.245L270.782,115.394Z" fill="#EF6238" fill-opacity="0.45" transform="translate(115.095,9.8235) translate(-250.285,-116.82)"/>
                    <path d="M186.108,124.414L135.19,124.414L135.19,127.265L186.108,127.265L186.108,124.414Z" fill="#EF6238" fill-opacity="0.45" transform="translate(25.459,18.8435) translate(-160.649,-125.84)"/>
                    <path d="M270.782,124.414L245.349,124.414L245.349,127.265L270.782,127.265L270.782,124.414Z" fill="#EF6238" fill-opacity="0.45" transform="translate(122.875,18.8435) translate(-258.065,-125.84)"/>
                    <path d="M239.404,124.414L194.793,124.414L194.793,127.265L239.404,127.265L239.404,124.414Z" fill="#EF6238" fill-opacity="0.45" transform="translate(81.9085,18.8435) translate(-217.099,-125.84)"/>
                    <path d="M200.169,133.434L135.19,133.434L135.19,136.285L200.169,136.285L200.169,133.434Z" fill="#EF6238" fill-opacity="0.45" transform="translate(32.4895,27.8635) translate(-167.679,-134.859)"/>
                </g>
            </g>
        </g>
    </g>
    <g id="like" transform="translate(160.258,26.438) rotate(-4) translate(-26.3154,-26.438)" style="animation: 3.5s linear infinite both like_t;">
        <path d="M186.573,26.4898C186.573,41.0566,174.787,52.9277,160.364,52.8759C145.735,52.8241,135.552,41.6268,134.156,29.7556C133.225,21.9279,135.345,14.9297,140.514,9.02C145.683,3.05851,152.404,0,160.313,0C174.632,0.0518391,186.677,11.6638,186.573,26.4898Z" fill="#EF6238" transform="translate(26.3154,26.438) translate(-160.258,-26.438)"/>
        <path d="M163.931,36.3911C161.605,36.3911,159.279,36.3911,156.953,36.3911C156.126,36.3911,155.815,36.1319,155.815,35.3024C155.867,31.6737,155.66,28.045,155.919,24.4162C156.074,22.0835,157.004,20.0099,158.452,18.1437C159.434,16.8996,160.416,15.6554,161.553,14.5668C161.915,14.2039,162.122,13.7892,162.122,13.2708C162.122,12.6487,162.174,12.0267,162.174,11.4046C162.174,10.627,162.432,10.005,163.156,9.69392C163.931,9.38288,164.655,9.5384,165.275,10.1086C165.896,10.6789,166.102,11.4046,166.309,12.1822C166.775,14.1521,166.413,16.0183,165.637,17.7808C165.379,18.4029,165.12,19.025,164.81,19.5952C164.603,19.9581,164.758,20.1136,165.12,20.1654C165.275,20.2173,165.482,20.1654,165.637,20.1654C167.705,20.1654,169.824,20.1654,171.892,20.1654C173.029,20.1654,173.805,20.6838,174.063,21.6687C174.373,22.7574,173.908,24.0015,173.029,24.5199C172.616,24.7273,172.616,24.8309,172.978,25.0901C173.753,25.6085,174.27,26.2824,174.115,27.3192C174.012,28.0968,173.598,28.6152,172.874,28.8744C172.719,28.9262,172.513,28.9262,172.461,29.0817C172.409,29.2891,172.668,29.2891,172.771,29.3928C173.753,30.1185,173.908,32.1402,172.461,32.7623C172.202,32.866,172.047,32.9697,172.357,33.2289C172.978,33.8509,173.029,34.6285,172.719,35.4061C172.409,36.1319,171.789,36.3911,171.013,36.3911C168.584,36.3392,166.258,36.3392,163.931,36.3911C163.931,36.3392,163.931,36.3392,163.931,36.3911Z" fill="#FDFDFE" transform="translate(31.0294,22.9638) translate(-164.972,-22.9638)"/>
        <path d="M153.024,38.4646C151.111,38.4646,149.199,38.4646,147.286,38.4646C146.717,38.4646,146.459,38.1536,146.407,37.6352C146.355,37.376,146.407,37.065,146.407,36.8058C146.407,32.7623,146.407,28.7189,146.407,24.7273C146.407,23.7423,146.666,23.4831,147.648,23.4831C149.354,23.4831,151.111,23.4831,152.817,23.4831C153.489,23.4831,153.851,23.7942,153.851,24.4681C153.851,28.7189,153.851,32.9178,153.851,37.1686L153.851,37.2205C153.748,37.2723,153.748,37.2723,153.851,37.3242C153.903,37.7907,153.851,38.2054,153.334,38.4128C153.334,38.3091,153.282,38.1536,153.127,38.2054C152.921,38.2054,153.076,38.3609,153.024,38.4646Z" fill="#FDFDFE" transform="translate(16.1825,30.9738) translate(-150.125,-30.9738)"/>
    </g>
    <g clip-path="url(#clip0_1_2)" transform="translate(111.942,156.93) translate(-111.942,-156.93)">
        <path d="M114.268,97.0201C114.991,100.752,114.785,104.537,115.095,108.321C115.353,112.105,116.232,115.993,118.713,118.844C120.833,121.281,123.935,122.784,125.434,125.635C126.571,127.812,126.571,130.456,125.692,132.737C124.865,135.018,123.262,136.988,121.35,138.543C114.94,143.934,105.325,144.764,97.7258,141.291C90.1268,137.766,84.6473,130.301,82.8897,122.11C81.0804,113.92,82.7863,105.159,86.8184,97.7977C89.093,93.6505,92.2463,89.8144,96.4335,87.6372C99.9486,85.8747,105.17,85.2007,108.685,87.3262C111.735,89.1405,113.596,93.7542,114.268,97.0201Z" fill="black" transform="translate(104.246,114.689) translate(-104.246,-114.689)"/>
        <path d="M98.9148,138.751L108.788,138.751C113.441,138.751,117.628,141.705,119.127,146.164L133.498,188.309C133.498,188.309,132.516,196.085,126.416,196.81C124.141,197.07,121.918,195.825,120.885,193.804L98.9148,152.021L98.9148,138.751Z" fill="#EF6238" transform="translate(116.206,167.798) translate(-116.206,-167.798)"/>
        <g id="l-hand" transform="translate(125,187) translate(-4.03671,-19.997)" style="animation: 3.5s linear infinite both l-hand_t;">
            <path d="M174.749,181.259C174.749,181.259,173.405,184.213,169.89,182.451L167.616,186.754L173.302,189.76L177.437,181.984L175.835,174.312C175.835,174.312,174.284,174.934,174.336,176.593C174.336,178.2,174.749,181.259,174.749,181.259Z" fill="#915046" transform="translate(51.5627,15.033) translate(-172.526,-182.036)"/>
            <path d="M179.919,191.367C179.97,189.553,178.988,187.894,177.386,187.065L171.441,183.902L170.2,186.235L179.919,191.367Z" fill="#994F39" transform="translate(54.0967,20.632) translate(-175.06,-187.635)"/>
            <path d="M181.625,194.011C181.676,192.197,180.694,190.538,179.092,189.708L172.268,186.08L171.027,188.412L181.625,194.011Z" fill="#AB6955" transform="translate(55.3637,23.043) translate(-176.327,-190.046)"/>
            <path d="M173.612,167.003L175.628,172.913L181.883,172.913L176.817,176.593L178.781,182.555L173.716,178.926L168.701,182.658L170.562,176.645L165.496,173.016L171.751,172.964L173.612,167.003Z" fill="#FAAF3B" transform="translate(52.7267,7.828) translate(-173.69,-174.831)"/>
            <path d="M169.787,182.399L170.097,180.326L172.475,178.407C173.199,177.837,173.612,176.956,173.612,176.023L173.612,175.764L166.272,178.407L163.067,182.192L160.999,186.08L172.061,191.937L172.837,190.538C174.336,187.738,173.25,184.213,170.459,182.762L169.787,182.399Z" fill="#B57A68" transform="translate(46.3417,16.848) translate(-167.305,-183.851)"/>
            <path d="M179.919,196.136C179.97,194.322,178.988,192.663,177.386,191.834L170.562,188.205L169.322,190.538L179.919,196.136Z" fill="#B57A68" transform="translate(53.6577,25.168) translate(-174.621,-192.171)"/>
            <path d="M169.683,182.192C169.011,183.28,168.081,184.213,167.099,184.991" stroke="#A15545" stroke-linecap="round" stroke-linejoin="round" stroke-miterlimit="10" stroke-width="1.8647" transform="translate(47.4277,16.588) translate(-168.391,-183.591)"/>
            <path d="M130.086,182.14L163.842,182.71L163.687,187.324L123.573,193.493L130.086,182.14Z" fill="#B57A68" transform="translate(22.7447,20.813) translate(-143.708,-187.816)"/>
            <path d="M123.934,181.466L156.45,182.555L145.801,196.136L125.227,197.381C122.487,197.536,120.419,194.996,121.091,192.352L122.435,187.22L123.934,181.466Z" fill="#EF6238" transform="translate(17.7437,22.424) translate(-138.707,-189.427)"/>
        </g>
        <path d="M130.086,182.14C127.45,183.747,124.451,186.235,123.056,189.034" stroke="#9E391B" stroke-linecap="round" stroke-miterlimit="10" stroke-width="1.8647" transform="translate(126.571,185.587) translate(-126.571,-185.587)"/>
        <path d="M130.086,182.14C126.623,182.295,122.384,182.762,119.851,185.095" stroke="#9E391B" stroke-linecap="round" stroke-miterlimit="10" stroke-width="1.8647" transform="translate(124.969,183.618) translate(-124.969,-183.618)"/>
        <path d="M106.255,230.247C100.983,230.765,95.4513,230.661,90.1268,230.143C81.6491,229.313,74.2052,225.322,66.9164,221.278C65.8825,220.708,64.7969,220.086,63.7631,219.464C67.5884,213.347,72.4993,207.074,78.1339,203.083L106.255,203.083L115.353,228.069C112.51,229.313,109.254,229.936,106.255,230.247Z" fill="white" transform="translate(89.5581,216.835) translate(-89.5581,-216.835)"/>
        <path d="M73.6882,201.735L65.5206,145.334L69.6044,138.699L107.031,138.699L117.318,166.433C117.318,166.433,108.737,193.13,108.737,203.031L118.197,230.558L107.031,234.86L98.4495,208.422L88.9379,234.653L59.5242,222.367L73.6882,201.735Z" fill="#EF6238" transform="translate(88.8606,186.779) translate(-88.8606,-186.779)"/>
        <path d="M65.5206,145.334L69.7078,138.595L75.0323,138.595L76.6348,152.021L74.0501,169.128L71.4654,186.235L65.5206,145.334Z" fill="#9E391B" transform="translate(71.0777,162.415) translate(-71.0777,-162.415)"/>
        <path d="M105.273,138.854L105.273,170.58L78.7542,138.854L105.273,138.854Z" fill="white" transform="translate(92.0136,154.717) translate(-92.0136,-154.717)"/>
        <path d="M89.0413,146.475C87.1803,146.008,85.371,145.386,83.6134,144.608L78.5474,138.543L105.273,138.543L105.273,143.209C101.551,147.667,94.4691,147.771,89.0413,146.475Z" fill="#B57A68" transform="translate(91.9102,142.869) translate(-91.9102,-142.869)"/>
        <path d="M78.5474,138.595L78.5474,158.398L89.8684,158.398L83.5617,171.72L106.1,171.565L78.5474,138.595Z" fill="#9E391B" transform="translate(92.3237,155.157) translate(-92.3237,-155.157)"/>
        <path d="M105.273,138.595L106.979,138.595L120.264,158.398L109.77,158.398L121.091,171.72L106.1,171.72L105.428,171.72L105.273,138.595Z" fill="#9E391B" transform="translate(113.182,155.157) translate(-113.182,-155.157)"/>
        <path d="M105.376,171.72C102.843,183.799,100.931,196.085,98.3978,208.163" stroke="#9E391B" stroke-miterlimit="10" stroke-width="1.8647" transform="translate(101.887,189.941) translate(-101.887,-189.941)"/>
        <path d="M76.6348,138.543L66.7096,138.543C62.0571,138.543,57.87,141.498,56.3708,145.956L42,188.101C42,188.101,42.1551,191.212,43.6025,193.907C45.877,198.158,51.5633,199.247,53.8378,194.996L76.5831,151.866L76.5831,138.543L76.6348,138.543Z" fill="#E8572C" transform="translate(59.3174,168.117) translate(-59.3174,-168.117)"/>
        <g id="r-hand" transform="translate(46.0589,186.725) rotate(6) translate(-1.87003,-19.1917)" style="animation: 3.5s linear infinite both r-hand_t;">
            <path d="M90.3853,183.851L93.1251,186.183L99.6385,187.687L99.5868,187.427C99.4834,186.494,98.9148,185.717,98.1393,185.198L96.4852,183.902L96.9504,182.088L99.6902,179.807L96.3818,176.956L89.2997,181.621L90.3853,183.851Z" fill="#915046" transform="translate(50.3061,14.7883) translate(-94.495,-182.322)"/>
            <path d="M96.6919,179.237L101.241,183.54L106.721,180.585L104.032,186.235L108.53,190.538L102.327,189.708L99.6385,195.359L98.5012,189.19L92.298,188.361L97.8292,185.406L96.6919,179.237Z" fill="#FAAF3B" transform="translate(56.2251,19.7643) translate(-100.414,-187.298)"/>
            <path d="M100.776,181.518C100.776,181.518,99.38,179.341,96.847,181.103L94.5725,177.941L99.1732,174.727L103.257,180.429L102.378,185.665C102.378,185.665,101.086,185.354,100.931,184.058C100.776,182.762,100.776,181.518,100.776,181.518Z" fill="#915046" transform="translate(54.7258,12.6623) translate(-98.9147,-180.196)"/>
            <path d="M90.6438,184.369L87.9557,180.74L97.9843,172.964L98.9148,174.26C100.776,176.852,100.672,179.185,99.0698,180.429L96.8987,182.14L90.6438,184.369Z" fill="#B57A68" transform="translate(49.9345,11.1323) translate(-94.1234,-178.666)"/>
            <path d="M105.376,176.282C105.687,176.23,105.893,176.489,105.79,176.8C105.325,177.889,104.343,178.77,103.154,179.081L97.0538,180.585L96.5368,178.511L105.376,176.282Z" fill="#B57A68" transform="translate(56.9881,10.8963) translate(-101.177,-178.43)"/>
            <path d="M104.549,167.625C104.86,167.418,105.273,167.573,105.273,167.988C105.325,169.491,104.704,170.943,103.464,171.928L97.4156,176.8L95.7614,174.727L104.549,167.625Z" fill="#B57A68" transform="translate(56.3301,4.63332) translate(-100.519,-172.167)"/>
            <path d="M105.842,171.928C106.152,171.772,106.565,172.031,106.462,172.394C106.204,173.846,105.273,175.142,103.877,175.816L97.8292,178.822L96.6402,176.438L105.842,171.928Z" fill="#B57A68" transform="translate(57.3701,7.81832) translate(-101.559,-175.352)"/>
            <path d="M52.6489,179.6L85.8362,179.392L75.4975,193.856L49.8057,197.743C46.4974,198.262,43.6542,195.307,44.2745,191.989C45.1533,186.65,47.3761,180.014,52.6489,179.6Z" fill="#E8572C" transform="translate(20.8236,21.0633) translate(-65.0125,-188.597)"/>
        </g>
        <path d="M61.6436,179.548L50.7879,179.807" stroke="#9E391B" stroke-linecap="round" stroke-miterlimit="10" stroke-width="1.8647" transform="translate(56.2157,179.678) translate(-56.2157,-179.678)"/>
        <path d="M61.6436,179.548L50.3227,182.555" stroke="#9E391B" stroke-linecap="round" stroke-miterlimit="10" stroke-width="1.8647" transform="translate(55.9832,181.052) translate(-55.9832,-181.052)"/>
        <g id="head" transform="translate(89.0509,147.113) rotate(2) translate(-25.2413,-70.1185)" style="animation: 3.5s linear infinite both head_t;">
            <path d="M85.0609,112.053L86.2498,141.343C86.3015,142.535,87.2837,143.468,88.4209,143.468L102.792,143.468C104.601,143.468,105.428,141.291,104.188,140.047C101.448,137.351,98.6563,132.685,98.6563,125.013L98.6563,112.675L85.0609,112.053Z" fill="#B57A68" transform="translate(30.8642,48.7605) translate(-94.9201,-127.761)"/>
            <path d="M91.6776,112.313L98.6046,112.624L98.6046,124.961C98.6046,128.331,99.1215,131.13,100,133.411C92.0395,130.715,89.3514,120.037,91.6776,112.313Z" fill="#915046" transform="translate(31.3798,43.862) translate(-95.4357,-122.862)"/>
            <path d="M88.6277,122.991C87.6455,122.318,86.715,121.54,85.7846,120.659C81.1838,116.149,78.444,110.084,77.772,103.655C77.1517,97.694,78.3407,91.7325,83.3033,87.7927C88.576,83.5937,96.847,83.2309,102.792,86.1339C108.478,88.9332,111.631,94.2726,112.769,100.338C113.337,103.344,113.492,106.455,113.544,109.513C113.596,115.267,112.717,126.309,106.152,127.709C99.0181,129.212,93.8488,126.517,88.6277,122.991Z" fill="#B57A68" transform="translate(31.5277,27.1901) translate(-95.5837,-106.19)"/>
            <path d="M110.701,97.8495C112.614,100.545,113.131,103.967,113.647,107.232C114.836,103.033,114.836,98.5234,113.647,94.3244C113.079,92.3545,112.252,90.4365,110.908,88.9332C109.564,87.4298,107.599,86.3412,105.583,86.393C102.378,86.4449,98.5529,90.8512,101.861,93.495C102.843,94.3244,104.549,94.1171,105.738,94.4799C107.754,94.9465,109.512,96.087,110.701,97.8495Z" fill="#0C0C0C" transform="translate(43.5078,17.8116) translate(-107.564,-96.8116)"/>
            <path d="M103.05,100.234C100.879,102.204,98.2427,103.5,95.3996,104.07C92.5047,104.692,88.9896,104.537,86.7667,106.869C80.1499,113.971,85.7329,122.473,89.093,129.627C90.7988,133.204,92.5564,137.403,91.6259,141.446C90.437,146.63,85.371,149.118,80.4084,149.118C72.3442,149.17,66.0893,143.157,64.4351,135.381C63.608,131.389,64.1766,127.398,65.7274,123.614C67.1748,120.14,69.4493,117.134,70.5866,113.557C72.3959,107.854,69.8112,101.789,71.6722,95.9833C75.3424,84.4232,93.0734,73.0704,103.877,82.5051C110.236,88.0001,108.22,95.5686,103.05,100.234Z" fill="#0C0C0C" transform="translate(21.8977,35.0592) translate(-85.9537,-114.059)"/>
            <path d="M87.232,102.774C85.7846,104.174,84.8541,106.092,84.6473,108.114C84.3888,110.395,85.0092,112.675,86.1464,114.697L87.6455,114.438C87.8006,111.846,88.4726,109.254,89.248,106.818C89.6099,105.677,90.0751,104.589,90.5921,103.5C90.1785,101.478,88.576,101.53,87.232,102.774Z" fill="#0C0C0C" transform="translate(23.5346,29.298) translate(-87.5906,-108.298)"/>
            <path d="M85.7846,111.172C84.8024,110.343,83.355,109.876,82.166,110.343C81.1838,110.757,80.5118,111.691,80.2533,112.727C79.9949,113.764,80.2016,114.853,80.5118,115.838C81.6491,119,84.8024,121.333,88.1108,121.488C88.7828,121.54,88.4209,115.941,88.3176,115.423C88.0591,113.868,87.0252,112.209,85.7846,111.172Z" fill="#B57A68" transform="translate(20.266,36.823) translate(-84.322,-115.823)"/>
        </g>
    </g>
    <rect width="186" height="4" rx="2" fill="black" transform="translate(150,209) translate(-93,-2)"/>
</svg>
