<svg width="446" height="445" viewBox="0 0 446 445" fill="none" xmlns="http://www.w3.org/2000/svg">
<path d="M213.207 30.1897C107.431 26.9742 15.8168 106.236 1.97881 210.258C-13.1574 323.985 70.136 426.303 172.637 442.692C300.115 463.081 423.772 345.145 412.663 217.207C404.298 120.832 320.724 33.4792 213.207 30.1897Z" fill="#EEF5F9"/>
<path d="M333.849 376.489H169.164C163.086 376.489 158.166 381.43 158.166 387.533H333.849V376.489Z" fill="#222222"/>
<path d="M387.2 302.373H273.261C270.077 302.373 267.28 304.311 266.025 307.217L234.574 381.139C233.32 384.143 235.539 387.533 238.819 387.533H356.52C359.704 387.533 362.502 385.596 363.756 382.689L393.76 312.158C395.69 307.508 392.216 302.373 387.2 302.373Z" fill="#2F2F2F"/>
<path d="M328.156 346.552C326.419 353.625 319.28 359.438 312.237 359.438C305.194 359.438 300.853 353.722 302.59 346.552C304.326 339.48 311.465 333.667 318.508 333.667C325.551 333.667 329.892 339.48 328.156 346.552Z" fill="white"/>
<path d="M423.775 122.751H162.71C150.94 122.751 141.389 132.342 141.389 144.162V255.675C141.389 267.495 150.94 277.086 162.71 277.086H263.142L281.086 295.106L299.031 277.086H423.678C435.448 277.086 445 267.495 445 255.675V144.162C445.096 132.342 435.545 122.751 423.775 122.751Z" fill="white" stroke="#EF6238" stroke-width="1.0481" stroke-miterlimit="10"/>
<path d="M198.853 188.24C210.196 183.443 215.519 170.32 210.742 158.928C205.966 147.537 192.898 142.192 181.554 146.989C170.211 151.786 164.888 164.909 169.665 176.3C174.442 187.691 187.51 193.037 198.853 188.24Z" fill="#F8B8A5"/>
<path d="M236.71 147.262L240.762 159.566L253.689 159.47L243.27 167.22L247.418 179.524L236.902 171.967L226.483 179.718L230.342 167.317L219.826 159.76L232.754 159.663L236.71 147.262Z" fill="#FAAF3B"/>
<path d="M277.905 147.262L281.957 159.566L294.885 159.47L284.562 167.22L288.614 179.524L278.098 171.967L267.678 179.718L271.537 167.317L261.021 159.76L273.949 159.663L277.905 147.262Z" fill="#FAAF3B"/>
<path d="M319.099 147.262L323.248 159.566L336.176 159.47L325.756 167.22L329.808 179.524L319.292 171.967L308.873 179.718L312.828 167.317L302.312 159.76L315.24 159.663L319.099 147.262Z" fill="#FAAF3B"/>
<path d="M360.297 147.262L364.445 159.566L377.373 159.47L366.954 167.22L371.006 179.524L360.49 171.967L350.07 179.718L354.026 167.317L343.51 159.76L356.438 159.663L360.297 147.262Z" fill="#FAAF3B"/>
<path d="M401.585 147.262L405.637 159.566L418.564 159.47L408.145 167.22L412.293 179.524L401.777 171.967L391.358 179.718L395.217 167.317L384.701 159.76L397.629 159.663L401.585 147.262Z" fill="#FAAF3B"/>
<path d="M186.347 199.968H166.666V205.296H186.347V199.968Z" fill="#F8B8A5"/>
<path d="M220.787 199.968H191.266V205.296H220.787V199.968Z" fill="#F8B8A5"/>
<path d="M209.116 215.663H166.666V220.991H209.116V215.663Z" fill="#EF6238" fill-opacity="0.45"/>
<path d="M325.853 215.663H226.482V220.991H325.853V215.663Z" fill="#EF6238" fill-opacity="0.45"/>
<path d="M419.724 215.663H343.219V220.991H419.724V215.663Z" fill="#EF6238" fill-opacity="0.45"/>
<path d="M261.695 232.521H166.666V237.849H261.695V232.521Z" fill="#EF6238" fill-opacity="0.45"/>
<path d="M419.724 232.521H372.258V237.849H419.724V232.521Z" fill="#EF6238" fill-opacity="0.45"/>
<path d="M361.163 232.521H277.904V237.849H361.163V232.521Z" fill="#EF6238" fill-opacity="0.45"/>
<path d="M287.937 249.378H166.666V254.707H287.937V249.378Z" fill="#EF6238" fill-opacity="0.45"/>
<path d="M262.566 49.5074C262.566 76.7316 240.57 98.9179 213.653 98.821C186.35 98.7241 167.344 77.7973 164.739 55.611C163.003 40.9817 166.958 27.9024 176.606 16.8577C186.253 5.71612 198.795 0 213.556 0C240.28 0.0968833 262.759 21.7988 262.566 49.5074Z" fill="#EF6238"/>
<path d="M220.312 68.0125C215.97 68.0125 211.629 68.0125 207.287 68.0125C205.744 68.0125 205.165 67.5281 205.165 65.978C205.261 59.1961 204.876 52.4143 205.358 45.6325C205.647 41.2727 207.384 37.3974 210.085 33.9096C211.918 31.5844 213.751 29.2592 215.874 27.2246C216.549 26.5464 216.935 25.7714 216.935 24.8025C216.935 23.6399 217.032 22.4773 217.032 21.3147C217.032 19.8615 217.514 18.6989 218.865 18.1176C220.312 17.5363 221.662 17.8269 222.82 18.8927C223.978 19.9584 224.364 21.3147 224.75 22.768C225.618 26.4496 224.943 29.9374 223.496 33.2314C223.013 34.394 222.531 35.5566 221.952 36.6223C221.566 37.3005 221.855 37.5911 222.531 37.688C222.82 37.7849 223.206 37.688 223.496 37.688C227.355 37.688 231.31 37.688 235.169 37.688C237.292 37.688 238.739 38.6569 239.221 40.4976C239.8 42.5322 238.932 44.8574 237.292 45.8262C236.52 46.2138 236.52 46.4075 237.195 46.8919C238.642 47.8608 239.607 49.1203 239.318 51.0579C239.125 52.5112 238.353 53.48 237.002 53.9644C236.713 54.0613 236.327 54.0613 236.23 54.352C236.134 54.7395 236.616 54.7395 236.809 54.9333C238.642 56.2896 238.932 60.0681 236.23 61.2307C235.748 61.4244 235.459 61.6182 236.037 62.1026C237.195 63.2652 237.292 64.7185 236.713 66.1717C236.134 67.5281 234.976 68.0125 233.529 68.0125C228.995 67.9156 224.653 67.9156 220.312 68.0125C220.312 67.9156 220.312 67.9156 220.312 68.0125Z" fill="#FDFDFE"/>
<path d="M199.952 71.888C196.383 71.888 192.813 71.888 189.244 71.888C188.182 71.888 187.7 71.3067 187.603 70.3378C187.507 69.8534 187.603 69.2721 187.603 68.7877C187.603 61.2308 187.603 53.6739 187.603 46.2139C187.603 44.3731 188.086 43.8887 189.919 43.8887C193.103 43.8887 196.383 43.8887 199.566 43.8887C200.821 43.8887 201.496 44.47 201.496 45.7295C201.496 53.6739 201.496 61.5214 201.496 69.4659V69.5628C201.303 69.6596 201.303 69.6596 201.496 69.7565C201.592 70.6285 201.496 71.4035 200.531 71.7911C200.531 71.5973 200.435 71.3067 200.145 71.4035C199.759 71.4035 200.049 71.6942 199.952 71.888Z" fill="#FDFDFE"/>
<g clip-path="url(#clip0_298_11244)">
<path d="M135.231 181.323C136.582 188.299 136.196 195.371 136.775 202.444C137.257 209.516 138.897 216.783 143.528 222.111C147.484 226.665 153.272 229.474 156.07 234.803C158.193 238.872 158.193 243.813 156.553 248.076C155.009 252.339 152.018 256.02 148.449 258.927C136.486 269.003 118.541 270.553 104.359 264.062C90.1769 257.474 79.9504 243.522 76.6702 228.215C73.2935 212.907 76.4772 196.534 84.0024 182.777C88.2473 175.026 94.1324 167.857 101.947 163.787C108.507 160.493 118.251 159.234 124.812 163.206C130.504 166.597 133.977 175.22 135.231 181.323Z" fill="black"/>
<path d="M248.109 338.759C248.109 338.759 245.6 344.281 239.04 340.987L234.795 349.028L245.407 354.648L253.125 340.115L250.135 325.776C250.135 325.776 247.24 326.939 247.337 330.039C247.337 333.043 248.109 338.759 248.109 338.759Z" fill="#915046"/>
<path d="M257.755 357.651C257.851 354.26 256.018 351.16 253.027 349.61L241.933 343.7L239.617 348.059L257.755 357.651Z" fill="#994F39"/>
<path d="M260.94 362.592C261.036 359.201 259.203 356.101 256.212 354.55L243.478 347.769L241.162 352.128L260.94 362.592Z" fill="#AB6955"/>
<path d="M245.985 312.116L249.747 323.16H261.421L251.966 330.039L255.632 341.181L246.178 334.399L236.819 341.374L240.293 330.136L230.838 323.354L242.512 323.257L245.985 312.116Z" fill="#FAAF3B"/>
<path d="M238.846 340.89L239.425 337.015L243.863 333.43C245.214 332.364 245.986 330.717 245.986 328.973V328.489L232.286 333.43L226.304 340.502L222.445 347.769L243.091 358.716L244.538 356.101C247.336 350.869 245.31 344.281 240.1 341.568L238.846 340.89Z" fill="#B57A68"/>
<path d="M257.756 366.564C257.853 363.173 256.02 360.073 253.029 358.523L240.294 351.741L237.979 356.101L257.756 366.564Z" fill="#B57A68"/>
<path d="M238.652 340.502C237.398 342.537 235.661 344.281 233.828 345.734" stroke="#A15545" stroke-width="1.8647" stroke-miterlimit="10" stroke-linecap="round" stroke-linejoin="round"/>
<path d="M164.754 340.406L227.753 341.471L227.463 350.094L152.598 361.623L164.754 340.406Z" fill="#B57A68"/>
<path d="M106.578 259.314H125.005C133.688 259.314 141.503 264.837 144.3 273.169L171.121 351.935C171.121 351.935 169.288 366.467 157.904 367.824C153.659 368.308 149.51 365.983 147.581 362.205L106.578 284.117V259.314Z" fill="#EF6238"/>
<path d="M153.275 339.146L213.959 341.181L194.085 366.564L155.687 368.89C150.574 369.18 146.715 364.433 147.969 359.492L150.477 349.901L153.275 339.146Z" fill="#EF6238"/>
<path d="M164.754 340.406C159.833 343.409 154.238 348.06 151.633 353.291" stroke="#9E391B" stroke-width="1.8647" stroke-miterlimit="10" stroke-linecap="round"/>
<path d="M164.755 340.406C158.291 340.697 150.38 341.569 145.652 345.929" stroke="#9E391B" stroke-width="1.8647" stroke-miterlimit="10" stroke-linecap="round"/>
<path d="M120.278 430.313C110.438 431.282 100.115 431.088 90.1775 430.119C74.3554 428.569 60.4628 421.109 46.8597 413.552C44.9301 412.487 42.9041 411.324 40.9746 410.161C48.1139 398.729 57.2791 387.006 67.795 379.546H120.278L137.258 426.244C131.952 428.569 125.874 429.732 120.278 430.313Z" fill="white"/>
<path d="M59.497 377.027L44.2538 271.618L51.8754 259.217H121.724L140.923 311.05C140.923 311.05 124.908 360.945 124.908 379.45L142.563 430.895L121.724 438.936L105.709 389.525L87.9575 438.548L33.0625 415.587L59.497 377.027Z" fill="#EF6238"/>
<path d="M44.2539 271.618L52.0685 259.023H62.0055L64.9963 284.116L60.1725 316.088L55.3487 348.059L44.2539 271.618Z" fill="#9E391B"/>
<path d="M118.445 259.508V318.8L68.9531 259.508H118.445Z" fill="white"/>
<path d="M88.1511 273.75C84.678 272.878 81.3013 271.715 78.0211 270.262L68.5664 258.927H118.445V267.646C111.498 275.978 98.2811 276.172 88.1511 273.75Z" fill="#B57A68"/>
<path d="M68.5664 259.023V296.033H89.6947L77.9246 320.932L119.988 320.641L68.5664 259.023Z" fill="#9E391B"/>
<path d="M118.443 259.023H121.627L146.421 296.033H126.837L147.965 320.932H119.987H118.733L118.443 259.023Z" fill="#9E391B"/>
<path d="M118.638 320.932C113.91 343.506 110.341 366.467 105.613 389.041" stroke="#9E391B" stroke-width="1.8647" stroke-miterlimit="10"/>
<path d="M64.9965 258.927H46.4731C37.7902 258.927 29.9756 264.449 27.1778 272.781L0.357422 351.547C0.357422 351.547 0.646849 357.36 3.34819 362.398C7.59314 370.343 18.2055 372.377 22.4505 364.433L64.9001 283.826V258.927H64.9965Z" fill="#E8572C"/>
<path d="M90.6608 343.603L95.774 347.963L107.93 350.772L107.834 350.288C107.641 348.544 106.579 347.091 105.132 346.122L102.045 343.7L102.913 340.309L108.026 336.046L101.852 330.717L88.6348 339.437L90.6608 343.603Z" fill="#915046"/>
<path d="M102.429 334.98L110.919 343.021L121.145 337.499L116.129 348.059L124.522 356.101L112.945 354.55L107.928 365.111L105.806 353.582L94.2285 352.031L104.551 346.509L102.429 334.98Z" fill="#FAAF3B"/>
<path d="M110.052 339.243C110.052 339.243 107.447 335.174 102.72 338.468L98.4746 332.558L107.061 326.551L114.683 337.208L113.043 346.994C113.043 346.994 110.631 346.412 110.341 343.99C110.052 341.568 110.052 339.243 110.052 339.243Z" fill="#915046"/>
<path d="M91.1418 344.572L86.125 337.79L104.841 323.257L106.578 325.679C110.051 330.524 109.858 334.883 106.867 337.209L102.815 340.406L91.1418 344.572Z" fill="#B57A68"/>
<path d="M118.638 329.458C119.217 329.361 119.603 329.846 119.41 330.427C118.542 332.462 116.709 334.109 114.49 334.69L103.105 337.499L102.141 333.624L118.638 329.458Z" fill="#B57A68"/>
<path d="M117.092 313.278C117.671 312.891 118.443 313.181 118.443 313.956C118.54 316.766 117.382 319.479 115.066 321.32L103.779 330.427L100.691 326.551L117.092 313.278Z" fill="#B57A68"/>
<path d="M119.505 321.319C120.084 321.029 120.855 321.513 120.663 322.191C120.18 324.904 118.444 327.326 115.839 328.586L104.551 334.205L102.332 329.748L119.505 321.319Z" fill="#B57A68"/>
<path d="M20.2323 335.659L82.1701 335.271L62.8748 362.301L14.9261 369.568C8.75163 370.537 3.44543 365.014 4.60315 358.814C6.24324 348.835 10.3917 336.434 20.2323 335.659Z" fill="#E8572C"/>
<path d="M37.0198 335.562L16.7598 336.046" stroke="#9E391B" stroke-width="1.8647" stroke-miterlimit="10" stroke-linecap="round"/>
<path d="M37.0209 335.562L15.8926 341.181" stroke="#9E391B" stroke-width="1.8647" stroke-miterlimit="10" stroke-linecap="round"/>
<path d="M80.7227 209.419L82.9416 264.158C83.0381 266.386 84.8711 268.13 86.9936 268.13H113.814C117.191 268.13 118.734 264.061 116.419 261.736C111.306 256.698 106.096 247.979 106.096 233.64V210.582L80.7227 209.419Z" fill="#B57A68"/>
<path d="M93.071 209.903L105.999 210.485V233.543C105.999 239.84 106.964 245.072 108.604 249.335C93.7463 244.297 88.7296 224.339 93.071 209.903Z" fill="#915046"/>
<path d="M87.3774 229.862C85.5443 228.602 83.8078 227.149 82.0712 225.502C73.4848 217.073 68.3715 205.738 67.1173 193.724C65.9596 182.583 68.1786 171.441 77.4403 164.078C87.2809 156.23 102.717 155.552 113.812 160.978C124.424 166.209 130.309 176.188 132.432 187.524C133.493 193.143 133.783 198.956 133.879 204.672C133.975 215.426 132.335 236.062 120.083 238.678C106.769 241.488 97.1215 236.45 87.3774 229.862Z" fill="#B57A68"/>
<path d="M128.573 182.873C132.143 187.911 133.108 194.305 134.072 200.409C136.291 192.561 136.291 184.133 134.072 176.285C133.011 172.603 131.467 169.019 128.959 166.209C126.451 163.399 122.785 161.365 119.022 161.462C113.041 161.559 105.901 169.794 112.076 174.735C113.909 176.285 117.093 175.897 119.311 176.576C123.074 177.448 126.354 179.579 128.573 182.873Z" fill="#0C0C0C"/>
<path d="M114.295 187.33C110.243 191.011 105.323 193.434 100.016 194.499C94.6138 195.662 88.0534 195.371 83.9049 199.731C71.5559 213.004 81.9754 228.893 88.2463 242.263C91.43 248.948 94.7102 256.795 92.9737 264.352C90.7547 274.041 81.3 278.691 72.0383 278.691C56.988 278.788 45.3144 267.549 42.2271 253.017C40.6835 245.557 41.7447 238.097 44.639 231.024C47.3404 224.533 51.5853 218.914 53.7078 212.229C57.0845 201.572 52.2606 190.236 55.7338 179.385C62.5836 157.78 95.675 136.563 115.839 154.196C127.705 164.465 123.943 178.61 114.295 187.33Z" fill="#0C0C0C"/>
<path d="M84.7723 192.077C82.071 194.693 80.3344 198.278 79.9485 202.056C79.4661 206.319 80.6238 210.582 82.7463 214.36L85.5441 213.876C85.8336 209.032 87.0878 204.188 88.5349 199.634C89.2102 197.503 90.0785 195.468 91.0433 193.434C90.2715 189.655 87.2807 189.752 84.7723 192.077Z" fill="#0C0C0C"/>
<path d="M82.0727 207.772C80.2397 206.222 77.5383 205.35 75.3194 206.222C73.4863 206.997 72.2321 208.741 71.7497 210.679C71.2674 212.616 71.6533 214.651 72.2321 216.492C74.3546 222.401 80.2397 226.761 86.4141 227.052C87.6683 227.149 86.993 216.685 86.8001 215.716C86.3177 212.81 84.3881 209.71 82.0727 207.772Z" fill="#B57A68"/>
</g>
<rect x="28.3516" y="386.867" width="347.133" height="7.4757" rx="3.73785" fill="black"/>
<defs>
<clipPath id="clip0_298_11244">
<rect width="261.678" height="266.809" fill="white" transform="translate(0 120.064)"/>
</clipPath>
</defs>
</svg>
