<svg width="75" height="50" viewBox="0 0 75 50" fill="none" xmlns="http://www.w3.org/2000/svg">
<g clip-path="url(#clip0_494_11357)">
<path opacity="0.4" d="M57.185 29.7474C57.3622 29.345 57.468 28.9393 57.5155 28.5975C57.6774 28.5655 57.8053 28.5403 57.8905 28.5234C60.1912 28.0686 62.8584 27.5413 64.7229 26.8054C65.3387 26.5612 65.8627 26.3002 66.2557 26.0039C66.8588 25.561 67.2805 24.5593 67.5166 23.2006L67.515 23.1922C67.5237 23.1467 67.5308 23.0929 67.5395 23.0474C67.5378 23.039 67.5447 23.0289 67.5414 23.012C67.5501 22.9666 67.5519 22.9312 67.5607 22.8858C67.5659 22.8673 67.5711 22.8487 67.5677 22.8319C67.5696 22.7966 67.5816 22.7679 67.5835 22.7326C67.587 22.7056 67.5906 22.6787 67.5924 22.6433C67.596 22.6164 67.5995 22.5895 67.6047 22.571C67.6065 22.5356 67.6153 22.4901 67.6171 22.4548C67.6223 22.4363 67.619 22.4194 67.6259 22.4093C67.6346 22.3639 67.6331 22.3117 67.6418 22.2662C67.6402 22.2578 67.6385 22.2494 67.647 22.2477C67.7896 20.8638 67.7734 19.2139 67.6043 17.4631C67.5034 16.4597 67.3499 15.4142 67.1435 14.3704C66.9388 13.3351 66.6864 12.3267 66.3996 11.3688C65.7489 9.19706 64.9285 7.28633 64.051 5.93791C64.024 5.89078 63.9986 5.85206 63.9631 5.8066C63.9614 5.79819 63.9529 5.79987 63.9512 5.79145C63.9258 5.75274 63.9005 5.71402 63.8768 5.68372C63.8666 5.67698 63.8649 5.66857 63.8531 5.65341C63.8294 5.62311 63.8057 5.59281 63.7803 5.55409C63.7685 5.53894 63.7668 5.53053 63.755 5.51538C63.7313 5.48507 63.7177 5.46151 63.694 5.4312C63.6822 5.41605 63.6703 5.4009 63.6585 5.38575C63.6365 5.36387 63.623 5.3403 63.5993 5.31C63.5874 5.29485 63.5756 5.2797 63.562 5.25613C63.5485 5.23256 63.5265 5.21068 63.513 5.18711C63.5011 5.17196 63.4876 5.14839 63.4672 5.13493C63.4537 5.11136 63.4334 5.09789 63.4198 5.07432C63.4063 5.05076 63.386 5.03729 63.3724 5.01372C63.3606 4.99857 63.3386 4.97669 63.3267 4.96154C63.3132 4.93797 63.2928 4.9245 63.2793 4.90093C63.2675 4.88578 63.2471 4.87232 63.2352 4.85717C63.2217 4.8336 63.2014 4.82013 63.1879 4.79657C63.176 4.78142 63.1556 4.76795 63.1438 4.7528C63.1319 4.73765 63.1099 4.71576 63.098 4.70061C63.0862 4.68546 63.0658 4.672 63.054 4.65685C63.0421 4.6417 63.0218 4.62823 63.0099 4.61308C62.9895 4.59961 62.9777 4.58446 62.9557 4.56258C62.9438 4.54743 62.9234 4.53396 62.9132 4.52723C62.8912 4.50535 62.8708 4.49188 62.8505 4.47841C62.8403 4.47168 62.8284 4.45653 62.8183 4.4498C62.7962 4.42791 62.7742 4.40603 62.7453 4.39425C62.7351 4.38752 62.7334 4.3791 62.7233 4.37237C62.6927 4.35217 62.6605 4.32355 62.6384 4.30167C62.6384 4.30167 62.6384 4.30167 62.6283 4.29493C62.3788 4.10809 62.1325 3.98185 61.8808 3.9179C59.9436 3.43495 56.2368 4.16772 53.1861 4.77078C53.1009 4.78763 52.9731 4.81289 52.8112 4.8449C52.6287 4.54862 52.385 4.21194 52.068 3.90725C51.2509 3.13291 50.4449 3.26601 50.2873 3.45458C50.1521 3.62127 51.1875 4.69357 51.5995 5.07569C47.4751 5.891 36.6018 8.04046 26.0183 10.1326C20.9395 11.1366 16.2355 12.1103 12.3441 12.9845C10.8766 13.3096 9.53167 13.6279 8.3231 13.9193C5.536 14.6015 3.47987 15.1741 2.44092 15.6069C2.39146 15.6254 2.35051 15.6423 2.31123 15.6675C2.30271 15.6692 2.29585 15.6793 2.28733 15.681C2.26343 15.6945 2.23101 15.7096 2.20545 15.7147C2.19693 15.7164 2.18154 15.7281 2.17302 15.7298C2.1406 15.745 2.10818 15.7601 2.08428 15.7736C2.07576 15.7753 2.0689 15.7854 2.06038 15.7871C2.045 15.7989 2.0211 15.8123 2.00406 15.8157C1.99554 15.8174 1.98016 15.8292 1.97164 15.8309C1.95626 15.8426 1.93922 15.846 1.92384 15.8578C1.91532 15.8595 1.90846 15.8696 1.89994 15.8713C1.88456 15.8831 1.86066 15.8965 1.84528 15.9083L1.83676 15.91C1.83676 15.91 1.82824 15.9117 1.8299 15.9201C1.82304 15.9302 1.81452 15.9319 1.80767 15.942C1.80767 15.942 1.80767 15.942 1.79915 15.9437C1.79229 15.9538 1.78543 15.9639 1.77857 15.974C1.77857 15.974 1.77857 15.974 1.77171 15.9841C1.76486 15.9942 1.758 16.0043 1.75114 16.0144L1.74428 16.0245C1.73743 16.0346 1.73057 16.0447 1.72538 16.0632L1.71852 16.0733C1.71166 16.0834 1.70647 16.1019 1.69961 16.112C1.70128 16.1205 1.69275 16.1221 1.69442 16.1306C1.68756 16.1407 1.68237 16.1592 1.67551 16.1693C1.67717 16.1777 1.67032 16.1878 1.67032 16.1878C1.66346 16.1979 1.65827 16.2164 1.66159 16.2333C1.66326 16.2417 1.6564 16.2518 1.65806 16.2602C1.65287 16.2787 1.65454 16.2871 1.64934 16.3057C1.64249 16.3158 1.64415 16.3242 1.63896 16.3427C1.63376 16.3612 1.63542 16.3696 1.63023 16.3882C1.62337 16.3983 1.6267 16.4151 1.61984 16.4252C1.61465 16.4437 1.61631 16.4521 1.61112 16.4707C1.60593 16.4892 1.60759 16.4976 1.6024 16.5161C1.59721 16.5346 1.59887 16.543 1.59368 16.5616C1.58848 16.5801 1.59181 16.5969 1.58662 16.6154C1.57976 16.6255 1.58309 16.6424 1.57623 16.6525C1.57104 16.671 1.57436 16.6878 1.57083 16.7148C1.5725 16.7232 1.56731 16.7417 1.56897 16.7501C1.56378 16.7686 1.56025 16.7956 1.56357 16.8124C1.56524 16.8208 1.56005 16.8394 1.56171 16.8478C1.55818 16.8747 1.55299 16.8932 1.55798 16.9185C1.55964 16.9269 1.55279 16.937 1.55612 16.9538C1.55259 16.9808 1.54905 17.0077 1.54552 17.0346C1.54719 17.0431 1.54033 17.0532 1.542 17.0616C1.53847 17.0885 1.5366 17.1239 1.53307 17.1508C1.53474 17.1592 1.5364 17.1676 1.52954 17.1778C1.52768 17.2131 1.52415 17.24 1.52228 17.2754C1.52395 17.2838 1.52561 17.2922 1.51709 17.2939C1.51523 17.3293 1.51336 17.3646 1.5115 17.4C1.51316 17.4084 1.51316 17.4084 1.51482 17.4168C1.51296 17.4522 1.51275 17.4959 1.51255 17.5397C1.51255 17.5397 1.51255 17.5397 1.51421 17.5481C1.469 19.6037 1.86404 23.3041 2.7338 27.0769C3.51099 31.7251 4.8807 36.0112 5.74137 37.3192C5.75489 37.3428 5.7684 37.3664 5.78025 37.3815C5.78025 37.3815 5.78025 37.3815 5.78191 37.3899C5.79376 37.4051 5.80727 37.4287 5.81912 37.4438C5.81912 37.4438 5.82079 37.4522 5.82931 37.4505C5.84116 37.4657 5.85301 37.4808 5.86486 37.496C5.86652 37.5044 5.87504 37.5027 5.87671 37.5111C5.88856 37.5263 5.89874 37.533 5.91059 37.5482C5.91225 37.5566 5.92078 37.5549 5.92244 37.5633C5.93263 37.5701 5.94448 37.5852 5.94614 37.5936C5.95633 37.6004 5.95632 37.6004 5.96651 37.6071C5.9767 37.6138 5.97836 37.6222 5.98855 37.629C5.99873 37.6357 6.0004 37.6441 6.00892 37.6424C6.0191 37.6492 6.02077 37.6576 6.02929 37.6559C6.03947 37.6626 6.04114 37.6711 6.04966 37.6694C6.05985 37.6761 6.05984 37.6761 6.07003 37.6828C6.08021 37.6896 6.0904 37.6963 6.09892 37.6946L6.10911 37.7014C6.11929 37.7081 6.138 37.7131 6.14652 37.7114C6.16523 37.7165 6.19246 37.7199 6.22135 37.7316C6.22987 37.73 6.24005 37.7367 6.24858 37.735C6.26728 37.7401 6.28599 37.7451 6.31322 37.7485C6.32174 37.7468 6.33192 37.7535 6.34045 37.7518C6.36767 37.7552 6.3949 37.7586 6.43065 37.7602C6.43065 37.7602 6.43065 37.7602 6.43917 37.7586C6.47492 37.7602 6.51068 37.7619 6.55661 37.7703L6.56513 37.7686C6.60088 37.7703 6.64515 37.7703 6.68942 37.7703C6.74222 37.7686 6.79667 37.7753 6.84946 37.7737C8.01922 37.7786 10.2697 37.5174 13.2925 37.0423C13.739 36.9715 14.194 36.8991 14.6745 36.8216C14.7086 36.8148 14.7426 36.8081 14.7853 36.7997C15.0426 36.7575 15.3084 36.7137 15.5827 36.6682C15.5913 36.6666 15.5913 36.6666 15.5998 36.6649C15.702 36.6447 15.8145 36.6312 15.9253 36.6093C15.9593 36.6025 16.0019 36.5941 16.036 36.5874C16.0446 36.5857 16.0531 36.584 16.0616 36.5823C20.1752 35.8916 25.2554 34.9398 30.7517 33.8533C41.3353 31.7611 52.2086 29.6116 56.3329 28.7963C56.0973 29.3065 55.5494 30.7005 55.7363 30.7948C55.9296 30.9665 56.724 30.7745 57.185 29.7474Z" fill="#182D3F"/>
<path d="M71.8711 22.3408C72.9161 27.627 72.5926 32.7989 70.9849 33.9827C69.3772 35.1664 65.6704 35.8991 62.6197 36.5022C61.0944 36.8037 48.0737 39.3777 35.4535 41.8725C22.8759 44.3589 12.4623 46.1463 10.8808 45.7155C10.1138 45.5085 8.38794 40.5406 7.4749 35.0708L71.8711 22.3408Z" fill="#E8E9EA"/>
<path d="M71.8726 22.3482C70.8276 17.062 68.5606 12.4022 66.6234 11.9193C64.6862 11.4363 60.9794 12.1691 57.9287 12.7721C56.4034 13.0737 43.3827 15.6476 30.7625 18.1424C18.185 20.6288 7.87452 22.9381 6.57585 23.9383C5.94531 24.4215 6.23957 29.6725 7.47642 35.0782L71.8726 22.3482Z" fill="#E8E9EA"/>
<path d="M51.5823 36.5675L58.2035 35.2586L59.5797 34.4267L64.3232 34.8622C67.0824 34.308 69.8838 33.1158 70.1525 32.8177C70.9518 31.9338 72.1678 28.9033 70.9082 22.5312L71.8711 22.3408C72.9161 27.627 72.5926 32.7989 70.9849 33.9827C69.3772 35.1664 65.6704 35.8991 62.6197 36.5022L35.4535 41.8725C22.8759 44.3589 12.4623 46.1463 10.8808 45.7155C10.1138 45.5085 8.38794 40.5406 7.4749 35.0708L13.2268 33.9338C14.1021 38.3614 15.1997 42.5701 15.8755 42.9876C16.5513 43.405 28.5047 41.1207 36.3188 39.576C44.133 38.0313 51.5823 36.5675 51.5823 36.5675Z" fill="#CDCFD1"/>
<path d="M62.3135 35.6699C62.3135 35.6699 62.3752 36.6986 61.9243 37.7323C61.4632 38.7593 60.6672 38.9429 60.4498 38.8285C60.2307 38.7056 61.0553 36.7408 61.1426 36.6448C61.2299 36.5489 61.5913 36.4512 61.6483 36.2912C61.7052 36.1313 61.7442 35.7912 61.7442 35.7912L62.3151 35.6783L62.3135 35.6699Z" fill="#CDCFD1"/>
<path d="M47.6967 16.9115L54.3179 15.6026L55.9071 15.8482L60.1281 13.6406C62.8907 13.1032 65.935 13.1399 66.2969 13.3133C67.3723 13.8266 69.65 16.1665 70.9097 22.5386L71.8726 22.3482C70.8276 17.062 68.5606 12.4022 66.6234 11.9193C64.6862 11.4363 60.9794 12.1691 57.9287 12.7721L30.7625 18.1424C18.185 20.6288 7.87452 22.9381 6.57585 23.9383C5.94531 24.4215 6.23957 29.6725 7.47642 35.0782L13.2284 33.9412C12.3531 29.5135 11.7668 25.2037 12.2329 24.5606C12.699 23.9174 24.6225 21.4816 32.4366 19.9369C40.2507 18.3922 47.6967 16.9115 47.6967 16.9115Z" fill="#CDCFD1"/>
<path d="M57.9617 13.6579C57.9617 13.6579 57.6274 12.6832 56.8171 11.8987C55.9999 11.1244 55.1939 11.2575 55.0364 11.4461C54.8805 11.6431 56.3908 13.1463 56.508 13.2018C56.6252 13.2574 56.9966 13.2102 57.1101 13.3365C57.2236 13.4627 57.3891 13.7624 57.3891 13.7624L57.9601 13.6495L57.9617 13.6579Z" fill="#CDCFD1"/>
<path d="M15.2204 27.2151C15.1555 26.8868 15.3749 26.5635 15.7073 26.4978L42.0639 21.2876C42.3963 21.2219 42.7222 21.4373 42.7871 21.7656C42.852 22.0939 42.6326 22.4172 42.3002 22.4829L15.9435 27.6931C15.6112 27.7588 15.2853 27.5434 15.2204 27.2151Z" fill="#CDCFD1"/>
<path d="M16.0163 31.2395C15.9514 30.9112 16.1708 30.5879 16.5031 30.5222L42.8598 25.312C43.1922 25.2463 43.5181 25.4617 43.583 25.79C43.6479 26.1183 43.4284 26.4416 43.0961 26.5073L16.7394 31.7175C16.4088 31.7916 16.0828 31.5762 16.0163 31.2395Z" fill="#CDCFD1"/>
<path d="M16.8131 35.2707C16.7482 34.9424 16.9677 34.6192 17.3 34.5535L43.6567 29.3432C43.989 29.2775 44.315 29.493 44.3799 29.8213C44.4448 30.1496 44.2253 30.4728 43.893 30.5385L17.5363 35.7488C17.204 35.8145 16.878 35.599 16.8131 35.2707Z" fill="#CDCFD1"/>
<path d="M17.6081 39.2942C17.5432 38.9659 17.7626 38.6426 18.0949 38.5769L44.4516 33.3667C44.784 33.301 45.1099 33.5164 45.1748 33.8447C45.2397 34.173 45.0202 34.4963 44.6879 34.562L18.3312 39.7722C17.9989 39.8379 17.673 39.6225 17.6081 39.2942Z" fill="#CDCFD1"/>
<path d="M50.7833 37.9491L62.398 35.6531L58.1941 35.2596L51.5815 36.5668L50.7833 37.9491Z" fill="#343A49"/>
<path d="M11.3271 43.3084C11.6173 43.5222 13.942 43.0539 13.9398 42.4158C13.9308 41.7878 12.9135 38.2542 12.1031 34.1548L8.83092 34.8017C9.75091 39.5004 11.037 43.0946 11.3271 43.3084Z" fill="#343A49"/>
<path d="M65.9596 23.5179C64.2574 14.9067 60.1204 13.6428 60.1204 13.6428L55.8994 15.8504C55.8994 15.8504 58.5558 19.5236 59.5942 24.7762L65.9596 23.5179Z" fill="#272C38"/>
<path d="M64.9705 23.7135C63.4846 16.1966 59.946 14.4209 59.946 14.4209L56.6635 16.1806C56.6635 16.1806 59.0158 19.704 60.0026 24.6956L64.9705 23.7135Z" fill="#343A49"/>
<path d="M65.959 23.5176C67.6613 32.1287 64.3164 34.8716 64.3164 34.8716L59.5729 34.4361C59.5729 34.4361 60.6318 30.0285 59.5935 24.7759L65.959 23.5176Z" fill="#343A49"/>
<path d="M64.9707 23.7129C66.4567 31.2298 63.8599 34.2184 63.8599 34.2184L60.1548 33.84C60.1548 33.84 60.9895 29.6866 60.0027 24.695L64.9707 23.7129Z" fill="#276379"/>
<path d="M46.4322 15.9366L58.0469 13.6406L54.3089 15.6041L47.6963 16.9113L46.4322 15.9366Z" fill="#272C38"/>
<path d="M67.8746 29.3051C67.8746 29.3051 68.2249 26.8219 67.511 23.2107C66.7972 19.5996 65.5284 17.4364 65.5284 17.4364L64.8988 17.7008C64.8988 17.7008 66.0915 19.7478 66.8054 23.359C67.5176 26.9617 67.1952 29.317 67.1952 29.317L67.8746 29.3051Z" fill="#343A49"/>
<path d="M7.89456 25.944C8.08157 25.6359 10.4445 25.3612 10.6836 25.9437C10.9227 26.5262 11.2947 30.065 12.1034 34.1559L8.83116 34.8028C7.89579 30.1159 7.70754 26.2521 7.89456 25.944Z" fill="#272C38"/>
<path d="M11.4031 42.8481C11.6133 43.0602 13.0858 42.7603 13.0493 42.1728C13.0112 41.5768 12.1226 38.2014 11.3538 34.3125L9.07863 34.7622C9.96907 39.2219 11.193 42.636 11.4031 42.8481Z" fill="#276379"/>
<path d="M8.1403 26.3413C8.25395 26.0652 9.76309 25.9505 9.95293 26.5077C10.1444 27.0734 10.5837 30.4152 11.3525 34.3041L9.07726 34.7539C8.20386 30.2909 8.02665 26.6174 8.1403 26.3413Z" fill="#343A49"/>
<path d="M69.134 15.1234C68.8989 14.785 67.7346 12.8373 66.8847 12.5243C66.045 12.218 65.0208 12.4117 64.891 11.7551C65.5534 11.7466 66.1372 11.7886 66.6134 11.9132C67.5913 12.1572 68.6461 13.4618 69.5909 15.3742C69.5584 15.3893 69.3691 15.4618 69.134 15.1234Z" fill="#272C38"/>
<path d="M72.0958 30.0627C72.0071 30.4651 71.6747 32.7699 71.0147 33.3727C70.3547 33.9755 69.3306 34.1255 69.4604 34.782C70.0762 34.5378 70.6002 34.2768 70.9932 33.9805C71.8047 33.3827 72.2838 31.7749 72.4298 29.6469C72.3786 29.657 72.1777 29.6705 72.0958 30.0627Z" fill="#343A49"/>
<path d="M6.31304 27.4456C6.17724 25.5045 6.27535 24.1644 6.5744 23.9304C6.69743 23.8361 6.90568 23.7249 7.19228 23.607C7.32973 24.0784 6.9022 24.1105 6.79354 24.4118C6.67636 24.7149 6.72674 25.2385 6.72432 25.7637C6.71338 26.2907 6.84989 27.3395 6.31304 27.4456Z" fill="#272C38"/>
<path d="M9.30312 42.5721C9.92463 44.4172 10.5168 45.6208 10.8824 45.7235C11.032 45.7639 11.2669 45.7874 11.5683 45.7891C11.5075 45.3025 11.1085 45.4339 10.8933 45.1965C10.6696 44.9609 10.517 44.4575 10.3149 43.9727C10.1128 43.4878 9.90813 42.4525 9.30312 42.5721Z" fill="#343A49"/>
<path d="M64.5997 24.3898C64.2827 24.0851 63.2313 24.2755 62.7749 24.6543C62.3185 25.0332 62.2328 25.5399 62.835 26.3917C63.4373 27.2435 63.8684 27.9018 63.7386 28.7233C63.6174 29.5432 63.3243 29.5837 63.1669 30.4895C63.018 31.3935 63.6217 32.2975 63.2392 32.9154C62.8566 33.5333 61.2564 33.0975 61.2005 33.3972C61.1446 33.6968 63.2477 34.0333 63.671 33.8009C64.0944 33.5686 64.7332 32.0078 64.9599 29.7502C65.195 27.4908 64.9184 24.7029 64.5997 24.3898Z" fill="#488595"/>
<path d="M8.82374 34.7843L7.4707 35.0518" stroke="#9FA2A5" stroke-width="0.304063"/>
</g>
<defs>
<clipPath id="clip0_494_11357">
<rect width="36.8015" height="68.7607" fill="white" transform="translate(67.4551) rotate(78.8178)"/>
</clipPath>
</defs>
</svg>
