<svg width="68" height="50" viewBox="0 0 68 50" fill="none" xmlns="http://www.w3.org/2000/svg">
<g clip-path="url(#clip0_494_11387)">
<path opacity="0.4" d="M43.508 32.2059C43.8436 31.5432 43.8171 30.8506 43.8102 30.7068C44.6448 30.4098 45.3375 30.1583 45.8761 29.9758C46.027 29.9274 46.169 29.8818 46.2932 29.842C48.3168 29.1927 51.1466 28.8593 53.644 27.7951C56.1415 26.7309 57.2077 25.8436 57.9895 24.619C58.7713 23.3944 58.6722 20.3395 58.6722 20.3395C59.0914 19.8155 59.5454 18.8812 58.0672 14.2434C56.5801 9.60848 55.6612 9.12432 55.0126 8.93321C55.0126 8.93321 53.313 6.38206 51.9676 5.84976C50.6192 5.30863 49.2358 5.20721 46.5854 5.79466C43.935 6.38211 41.4395 7.75727 39.4159 8.40653C38.8478 8.58878 37.9784 8.83852 36.8814 9.14179C36.8034 9.02075 36.4337 8.44804 35.7635 8.0983C35.0231 7.71268 34.155 8.08858 34.1391 8.40526C34.1276 8.61344 34.8214 9.18929 35.3705 9.55839C32.6767 10.3156 29.1223 11.3196 25.4745 12.49C19.3948 14.4406 17.8804 15.1212 16.954 15.2237C16.0275 15.3262 13.3896 15.861 10.9147 16.7816C8.44858 17.6994 8.18892 18.4157 6.80622 19.1709C6.44119 19.3756 6.08824 19.557 5.75305 19.7327C5.74417 19.7356 5.74418 19.7356 5.7353 19.7384C5.64334 19.7874 5.54249 19.8393 5.45053 19.8882C5.42673 19.9056 5.4001 19.9141 5.37631 19.9315C5.34364 19.9517 5.3021 19.9748 5.26943 19.995C5.23676 20.0152 5.21296 20.0326 5.17746 20.044C5.14479 20.0642 5.11213 20.0844 5.07058 20.1075C5.03791 20.1277 5.01411 20.1451 4.98144 20.1653C4.94877 20.1855 4.9161 20.2058 4.88343 20.226C4.84189 20.249 4.81205 20.2781 4.77051 20.3012C4.72292 20.3359 4.68137 20.359 4.63379 20.3937C4.60112 20.4139 4.56845 20.4341 4.53861 20.4632C4.50594 20.4834 4.48498 20.5096 4.45231 20.5298C4.41964 20.55 4.39868 20.5762 4.37489 20.5936C4.35109 20.611 4.32125 20.64 4.29746 20.6574C4.26762 20.6865 4.24382 20.7038 4.21399 20.7329C4.19019 20.7502 4.16923 20.7764 4.14544 20.7938C4.10069 20.8374 4.05593 20.881 4.02005 20.9217C3.99909 20.9479 3.98417 20.9624 3.96321 20.9886C3.94225 21.0148 3.91241 21.0439 3.89145 21.0701C3.87049 21.0963 3.8584 21.1196 3.83744 21.1458C3.81648 21.172 3.78948 21.2099 3.76851 21.2361C3.75643 21.2594 3.73547 21.2856 3.72338 21.309C3.69921 21.3557 3.66616 21.4052 3.64199 21.4519C3.63594 21.4636 3.6299 21.4753 3.62102 21.4781C3.61498 21.4898 3.60894 21.5015 3.60289 21.5132C3.59081 21.5365 3.58476 21.5482 3.57268 21.5716C3.56664 21.5832 3.55455 21.6066 3.54851 21.6183C3.5453 21.6388 3.53038 21.6533 3.52717 21.6738C3.52396 21.6943 3.50904 21.7088 3.50583 21.7293C3.49374 21.7527 3.49053 21.7732 3.47844 21.7965C3.47523 21.817 3.46032 21.8316 3.45711 21.8521C3.43898 21.8871 3.43256 21.9281 3.41726 21.972C3.40518 21.9953 3.4048 22.0246 3.39271 22.048C3.3895 22.0685 3.37741 22.0919 3.3742 22.1124C3.36495 22.1445 3.36174 22.165 3.35249 22.1972C3.34927 22.2177 3.34607 22.2382 3.34286 22.2587C3.3336 22.2909 3.32435 22.3231 3.31509 22.3553C3.30905 22.367 3.31189 22.3758 3.30584 22.3875C3.29017 22.4606 3.27733 22.5427 3.26165 22.6159C3.25561 22.6275 3.26127 22.6452 3.25523 22.6569C3.24881 22.6979 3.24239 22.7389 3.23597 22.7799C3.23276 22.8004 3.22954 22.8209 3.22633 22.8414C3.21991 22.8824 3.21349 22.9234 3.2099 22.9733C3.20669 22.9938 3.20349 23.0143 3.20027 23.0348C3.18743 23.1168 3.17742 23.2076 3.17629 23.2956C3.17307 23.3161 3.16986 23.3366 3.16666 23.3572C3.16023 23.3982 3.16269 23.4363 3.15627 23.4773C3.14984 23.5183 3.1523 23.5565 3.14588 23.5975C3.1455 23.6268 3.13908 23.6679 3.14154 23.706C3.13833 23.7265 3.14116 23.7353 3.13795 23.7558C3.04786 25.4888 3.29748 28.0669 4.39083 31.4747C5.48418 34.8825 6.77507 37.1363 7.86259 38.4817C7.87713 38.4965 7.87996 38.5053 7.89451 38.5201C7.91471 38.5526 7.94096 38.5734 7.96116 38.6058C7.99024 38.6355 8.01045 38.6679 8.03953 38.6975C8.06861 38.7272 8.08882 38.7596 8.1179 38.7892C8.13244 38.804 8.14698 38.8189 8.16152 38.8337C8.22251 38.9017 8.28068 38.961 8.3328 39.0319C8.34734 39.0467 8.36188 39.0615 8.37642 39.0763C8.4055 39.1059 8.43458 39.1355 8.46649 39.174C8.48103 39.1888 8.49558 39.2036 8.51012 39.2184C8.5392 39.248 8.56828 39.2777 8.59736 39.3073C8.60907 39.3133 8.61473 39.3309 8.62644 39.3369C8.68461 39.3961 8.73994 39.4465 8.7981 39.5058C8.80981 39.5118 8.81263 39.5206 8.82434 39.5266C8.85059 39.5474 8.87684 39.5681 8.90309 39.5889C8.91763 39.6037 8.93217 39.6186 8.94671 39.6334C8.97296 39.6542 8.9875 39.669 9.01375 39.6898C9.02829 39.7046 9.05171 39.7165 9.06625 39.7313C9.08967 39.7433 9.10704 39.7669 9.13045 39.7789C9.16841 39.8057 9.19466 39.8265 9.23262 39.8532C9.24715 39.868 9.26773 39.8712 9.28228 39.886C9.30569 39.8979 9.32023 39.9127 9.34365 39.9247C9.35819 39.9395 9.37877 39.9427 9.39332 39.9575C9.40786 39.9723 9.42844 39.9754 9.44298 39.9902C9.45469 39.9962 9.4781 40.0082 9.48981 40.0141C9.51323 40.0261 9.52494 40.0321 9.54835 40.044C9.56006 40.05 9.57177 40.056 9.58348 40.062C9.59519 40.068 9.6069 40.0739 9.61577 40.0711C9.66261 40.095 9.71831 40.1161 9.76514 40.14C9.78856 40.152 9.82085 40.1611 9.84427 40.1731C9.87939 40.191 9.92056 40.1973 9.95285 40.2064C9.98514 40.2155 10.0086 40.2275 10.0408 40.2366C10.0731 40.2457 10.1143 40.2519 10.1466 40.2611C10.1789 40.2702 10.1995 40.2733 10.2318 40.2824C10.2935 40.2918 10.3553 40.3012 10.4081 40.3135C10.4376 40.3138 10.4699 40.3229 10.4993 40.3232C10.5405 40.3294 10.57 40.3297 10.6111 40.336C10.6406 40.3363 10.6818 40.3425 10.7112 40.3428C10.7407 40.3431 10.7819 40.3494 10.8113 40.3496C10.8497 40.3471 10.8819 40.3562 10.9203 40.3536C10.9586 40.3511 10.9998 40.3573 11.0381 40.3548C11.0882 40.3582 11.1442 40.3499 11.2032 40.3505C11.2504 40.3451 11.2915 40.3514 11.3387 40.346C11.3771 40.3434 11.4154 40.3408 11.4538 40.3383C11.4921 40.3357 11.5215 40.336 11.5599 40.3334C11.5982 40.3309 11.6366 40.3283 11.6838 40.3229C11.7221 40.3203 11.7516 40.3206 11.7871 40.3092C11.8254 40.3067 11.8726 40.3013 11.9109 40.2987C11.9404 40.299 11.967 40.2904 11.9965 40.2907C12.0998 40.2771 12.2031 40.2634 12.3181 40.2557C12.327 40.2529 12.3269 40.2529 12.3358 40.25C12.7107 40.1979 13.1033 40.1401 13.5193 40.0943C15.0744 39.9069 15.7023 40.3384 18.2509 39.6473C18.8895 39.4716 19.5225 39.2782 20.1204 39.0669C21.9286 38.4478 23.4638 37.741 24.0693 37.4007C24.1286 37.372 24.185 37.3344 24.2532 37.3028C24.849 37.024 25.8661 36.7464 28.1939 36.0384C29.3179 35.6973 30.7525 35.2565 32.5898 34.667C36.2287 33.4995 39.7038 32.2482 42.3442 31.294C42.1123 31.9137 41.883 32.7857 42.0135 32.9483C42.2025 33.1408 43.1301 32.9503 43.508 32.2059Z" fill="#2A303B"/>
<path d="M63.0314 18.8822C61.5444 14.2473 60.6255 13.7631 59.9768 13.572C59.9768 13.572 58.2773 11.0208 56.9318 10.4885C55.5835 9.94742 54.2 9.846 51.5496 10.4334C48.8993 11.0209 46.4037 12.3961 44.3801 13.0453C42.3565 13.6946 36.5302 15.1841 30.4416 17.1376C24.3529 19.0911 22.8475 19.7689 21.921 19.8713C20.9946 19.9738 18.3567 20.5086 15.8817 21.4293C13.4068 22.3499 13.156 23.0633 11.7733 23.8185C10.3995 24.5709 9.16142 25.0752 8.59697 26.1229C8.03252 27.1706 7.5855 30.5371 9.36715 36.0901L63.0286 18.8734L63.0314 18.8822Z" fill="#9EE251"/>
<path d="M63.0312 18.8828C64.5183 23.5177 64.0526 24.4461 63.6362 24.9789C63.6362 24.9789 63.7382 28.0427 62.9535 29.2584C62.1717 30.483 61.1055 31.3703 58.6081 32.4345C56.1107 33.4987 53.2809 33.8321 51.2573 34.4814C49.2336 35.1306 43.6283 37.3088 37.5397 39.2623C31.451 41.2158 29.8323 41.5404 29.0192 41.996C28.206 42.4517 25.7494 43.5514 23.2008 44.2425C20.661 44.9308 20.0332 44.4993 18.4692 44.6895C16.9141 44.8769 15.6137 45.187 14.5451 44.6632C13.4764 44.1395 11.1543 41.6615 9.37262 36.1084L63.0341 18.8916L63.0312 18.8828Z" fill="#9EE251"/>
<path d="M49.834 30.4396C55.3209 28.5331 59.0391 25.1104 59.0391 25.1104C59.0391 25.1104 53.7594 28.3038 49.688 29.649L49.834 30.4396Z" fill="#DAFF92"/>
<path d="M45.5686 17.1439C51.1406 15.5022 56.156 16.1229 56.156 16.1229C56.156 16.1229 50.0039 16.5972 45.9099 17.8718L45.5686 17.1439Z" fill="#658D37"/>
<path d="M55.3038 11.1179C53.1389 10.8387 51.1041 12.1245 47.9937 13.2003C44.8922 14.2733 43.9875 14.7486 43.9875 14.7486C43.9875 14.7486 40.2497 17.4084 37.5468 18.8696C37.0288 18.1399 36.1711 18.3957 36.1711 18.3957C36.1711 18.3957 37.0453 18.0081 38.9184 16.9203C40.7826 15.8353 42.4816 14.5404 42.4816 14.5404L19.1586 23.2503C19.1586 23.2503 11.2314 25.667 10.2938 26.406C9.35624 27.145 9.43079 31.1913 10.847 35.6055L9.40034 36.0696C7.61585 30.5077 8.05399 27.1441 8.63016 26.1024C9.20632 25.0607 10.4327 24.5504 11.8065 23.798C13.1803 23.0456 13.44 22.3294 15.9149 21.4088C18.381 20.491 21.0278 19.9533 21.9542 19.8508C22.8807 19.7483 24.395 19.0677 30.4748 17.1171C36.5545 15.1665 42.3897 13.6741 44.4133 13.0248C46.4369 12.3756 48.9325 11.0004 51.5828 10.4129C54.2332 9.82549 55.6167 9.92691 56.965 10.468C58.3133 11.0092 60.01 13.5515 60.01 13.5515C60.6558 13.7338 61.5776 14.2268 63.0646 18.8617L62.044 19.1892C60.9704 15.8432 60.1167 14.6468 59.6712 14.2347C59.187 13.8545 57.4747 11.3853 55.3038 11.1179Z" fill="#658D37"/>
<path d="M42.4753 14.5527L41.8749 13.8105C41.8749 13.8105 41.4918 13.135 40.7513 12.7494C40.0109 12.3637 39.1428 12.7396 39.1269 13.0563C39.1022 13.3759 40.7166 14.5327 40.9757 14.5469C41.2436 14.5583 41.6115 14.8201 41.6115 14.8201L42.4753 14.5527Z" fill="#658D37"/>
<path d="M48.832 34.3643L48.7756 35.3171C48.7756 35.3171 48.8569 36.0895 48.4791 36.8339C48.1012 37.5783 47.1764 37.7777 46.9793 37.5293C46.7733 37.2838 47.4133 35.4037 47.6157 35.2414C47.827 35.0762 47.9739 34.6493 47.9739 34.6493L48.832 34.3643Z" fill="#658D37"/>
<path d="M59.1701 13.4113C59.1701 13.4113 55.6671 12.2567 51.5685 12.5104C47.4699 12.764 43.5639 13.618 43.5639 13.618L43.9854 14.7486C43.9854 14.7486 49.269 13.3066 52.3975 13.111C55.526 12.9154 59.4666 13.7252 59.4666 13.7252L59.1701 13.4113Z" fill="#658D37"/>
<path d="M61.2634 29.6934C59.665 31.18 57.262 31.318 54.1063 32.2526C50.9594 33.1844 49.9471 33.3242 49.9471 33.3242C49.9471 33.3242 45.3596 33.3354 42.3111 33.7195C42.3143 34.6143 41.4679 34.9054 41.4679 34.9054C41.4679 34.9054 42.4044 34.712 44.5608 34.507C46.7083 34.3049 48.8435 34.3696 48.8435 34.3696L24.8067 40.8547C24.8067 40.8547 16.9531 43.501 15.7606 43.4454C14.5652 43.3811 12.2746 40.0556 10.8584 35.6413L9.41167 36.1055C11.1962 41.6674 13.5094 44.1482 14.5841 44.6603C15.6588 45.1724 16.9531 44.874 18.5082 44.6866C20.0633 44.4993 20.6912 44.9307 23.2398 44.2396C25.7795 43.5513 28.2451 42.4487 29.0582 41.9931C29.8714 41.5374 31.499 41.21 37.5787 39.2594C43.6585 37.3087 49.2727 35.1277 51.2963 34.4784C53.3199 33.8292 56.1497 33.4958 58.6472 32.4316C61.1446 31.3674 62.2108 30.48 62.9926 29.2555C63.7744 28.0309 63.6753 24.976 63.6753 24.976C64.0945 24.452 64.5574 23.5148 63.0703 18.8799L62.0496 19.2074C63.1232 22.5533 63.1248 24.0231 63.0023 24.6175C62.8797 25.2118 62.8734 28.2129 61.2634 29.6934Z" fill="#658D37"/>
<path d="M63.0743 25.5772C63.0743 25.5772 60.8969 28.5543 57.4158 30.7325C53.9347 32.9107 50.261 34.4886 50.261 34.4886L49.946 33.3239C49.946 33.3239 55.0823 31.4228 57.7406 29.7617C60.3989 28.1006 63.1328 25.1494 63.1328 25.1494L63.0743 25.5772Z" fill="#658D37"/>
<path d="M49.4505 23.2387C47.7737 18.0122 43.9856 14.7485 43.9856 14.7485C43.9856 14.7485 40.0905 17.4977 37.5478 18.8783C37.5478 18.8783 39.3334 22.064 40.6222 26.0809L49.4533 23.2475L49.4505 23.2387Z" fill="#2A303B"/>
<path d="M21.4683 32.2182C20.6044 29.5255 20.0398 27.1555 19.7834 26.0206C19.6999 25.6384 19.3256 25.4177 18.9884 25.5259L15.3938 26.6792C14.0447 27.1121 13.2542 28.5536 13.5355 30.0408C13.7593 31.1959 14.1173 32.6779 14.6697 34.3995L21.4683 32.2182Z" fill="#2A303B"/>
<path d="M42.4751 14.5531C42.4751 14.5531 39.0032 17.1568 36.0137 18.4567C33.0241 19.7567 30.7129 20.5469 27.8323 21.3932C24.9518 22.2396 19.1521 23.2629 19.1521 23.2629C19.1521 23.2629 23.5619 20.8062 29.9428 18.5739C36.3238 16.3416 42.4751 14.5531 42.4751 14.5531Z" fill="#2A303B"/>
<path d="M57.4358 12.3326C56.4282 10.9616 54.7607 10.036 54.7607 10.036C55.5913 10.0617 56.2698 10.2237 56.9411 10.4855C58.2894 11.0266 59.9861 13.5689 59.9861 13.5689C58.9762 13.2892 58.4435 13.7036 57.4358 12.3326Z" fill="#2A303B"/>
<path d="M8.14382 28.3711C8.20501 27.2804 8.4033 26.5254 8.62652 26.1227C9.06728 25.2997 9.93085 24.8182 10.9336 24.2822C10.9336 24.2822 10.8331 24.7624 10.3843 25.0719C9.93538 25.3815 9.6302 25.7423 9.34354 26.4964C9.06858 27.2565 9.3862 28.2159 8.14382 28.3711Z" fill="#2A303B"/>
<path d="M37.402 22.9087C36.8947 21.5719 35.4276 20.8741 34.0519 21.3155C32.5875 21.7854 31.8068 23.3796 32.3363 24.8163C32.6752 25.7203 33.0814 26.8947 33.546 28.3426L38.7204 26.6824C38.2647 25.2317 37.7983 23.9305 37.402 22.9087Z" fill="#2A303B"/>
<path d="M39.8448 30.5179C39.5638 29.4591 39.195 28.1266 38.7305 26.6787L33.556 28.3389C34.0206 29.7867 34.3618 30.9723 34.6237 31.9107C35.0201 33.3902 36.5825 34.2326 38.0559 33.7599C39.4227 33.3214 40.21 31.9003 39.8448 30.5179Z" fill="#323845"/>
<path d="M49.4521 23.2393C51.1289 28.4657 49.9467 33.3241 49.9467 33.3241C49.9467 33.3241 45.1792 33.3542 42.3079 33.7107C42.3079 33.7107 41.9069 30.0808 40.6181 26.0639L49.4492 23.2305L49.4521 23.2393Z" fill="#323845"/>
<path d="M48.023 23.6979C46.4651 18.8423 43.4605 15.8238 43.4605 15.8238C43.4605 15.8238 40.1909 18.051 38.2464 19.1909C38.2464 19.1909 39.8604 22.2077 41.0557 25.9333L48.023 23.6979Z" fill="#323845"/>
<path d="M48.0234 23.6982C49.5813 28.5539 48.8937 32.757 48.8937 32.757C48.8937 32.757 44.9386 32.8478 42.6939 33.0519C42.6939 33.0519 42.2515 29.6592 41.0561 25.9336L48.0234 23.6982Z" fill="#276379"/>
<path d="M21.4679 32.2182C22.3318 34.9108 23.2514 37.1669 23.7031 38.2392C23.8576 38.5986 23.6816 38.9958 23.3443 39.1041L19.7497 40.2574C18.4006 40.6902 16.919 39.9776 16.2826 38.6044C15.7926 37.5347 15.2215 36.121 14.6692 34.3995L21.4679 32.2182Z" fill="#323845"/>
<path d="M20.3126 32.5883C19.5138 30.0987 18.9409 27.9164 18.6773 26.8812C18.5874 26.54 18.3224 26.2939 18.1006 26.3651L15.7752 27.1112C14.8965 27.3931 14.4799 28.6271 14.7983 29.9855C15.0381 31.0381 15.3976 32.4028 15.9103 34.0007L20.3126 32.5883Z" fill="#323845"/>
<path d="M20.3134 32.5876C21.1122 35.0773 21.9158 37.1855 22.3037 38.1809C22.4291 38.5107 22.3568 38.8649 22.1349 38.9361L19.8095 39.6822C18.9308 39.9641 17.8741 39.2029 17.3427 37.9128C16.9254 36.9171 16.4238 35.598 15.9111 34.0001L20.3134 32.5876Z" fill="#276379"/>
<path d="M48.8317 34.364C48.8317 34.364 44.4931 34.2662 41.3053 34.9482C38.1175 35.6302 35.7779 36.3321 32.9427 37.3197C30.1074 38.3072 24.7949 40.8491 24.7949 40.8491C24.7949 40.8491 29.8049 40.2933 36.2906 38.3877C42.7881 36.4881 48.8317 34.364 48.8317 34.364Z" fill="#2A303B"/>
<path d="M62.2896 27.4649C62.2677 29.1662 61.45 30.8891 61.45 30.8891C62.1105 30.3851 62.5681 29.8585 62.9618 29.255C63.7436 28.0305 63.6445 24.9756 63.6445 24.9756C62.9858 25.7906 62.3115 25.7636 62.2896 27.4649Z" fill="#323845"/>
<path d="M12.8677 43.0975C13.552 43.949 14.1525 44.4477 14.5684 44.6453C15.4057 45.0583 16.3882 44.9475 17.5156 44.8001C17.5156 44.8001 17.1545 44.468 16.6094 44.4774C16.0642 44.4868 15.606 44.3708 14.9341 43.9243C14.2683 43.466 13.9684 42.5009 12.8677 43.0975Z" fill="#323845"/>
<path d="M38.1266 26.8727C37.7074 25.5661 37.2895 24.3857 36.9449 23.4641C36.4979 22.254 35.4081 21.5423 34.2631 21.9097C33.1182 22.277 32.5847 23.6653 33.06 24.9637C33.3618 25.7822 33.7223 26.8447 34.1415 28.1513L38.1266 26.8727Z" fill="#323845"/>
<path d="M39.1489 30.3329C38.8902 29.3741 38.5462 28.1797 38.127 26.873L34.1418 28.1516C34.561 29.4582 34.8772 30.535 35.1168 31.3734C35.4856 32.706 36.7627 33.5134 37.8721 33.1574C38.9816 32.8015 39.4894 31.5772 39.1489 30.3329Z" fill="#276379"/>
<path d="M18.4042 33.6578C17.9091 33.6706 16.7379 34.0172 16.5821 34.4469C16.4263 34.8767 17.6694 38.324 18.5303 38.9631C19.3912 39.6022 20.7112 39.1397 20.6295 38.8544C20.5388 38.5719 19.8241 38.9375 19.4685 38.4089C19.1129 37.8804 19.1663 37.6198 19.1054 37.0941C19.0532 36.5655 18.7858 36.2813 18.6559 35.8458C18.526 35.4104 18.6161 35.0504 18.8978 34.6777C19.1885 34.302 18.9111 33.651 18.4042 33.6578Z" fill="#327F93"/>
<path d="M47.628 24.5069C47.1338 24.2175 45.5669 24.8565 45.2618 25.2173C44.9566 25.5781 44.9458 26.1853 45.4991 26.6894C46.0524 27.1935 46.903 27.0374 47.0514 27.8662C47.1998 28.6949 47.0236 28.878 47.0195 29.6583C47.0181 30.4475 47.603 31.0193 47.3747 31.5892C47.1552 32.1562 45.298 32.012 45.3112 32.3583C45.3244 32.7046 48.0074 32.5546 48.32 32.3083C48.6236 32.0648 48.7819 30.7579 48.6596 28.8205C48.5344 26.8743 48.1222 24.7962 47.628 24.5069Z" fill="#327F93"/>
<path d="M37.7872 28.072C38.1333 27.961 38.5686 29.6227 38.744 30.4136C38.9195 31.2044 38.6949 32.3962 37.7985 32.6838C36.9021 32.9715 36.1114 32.3683 35.8874 31.9143C35.6546 31.4632 35.6693 30.7769 36.2462 30.5918C36.8143 30.4095 37.1241 30.8262 37.6259 30.5289C38.122 30.2139 37.441 28.1831 37.7872 28.072Z" fill="#327F93"/>
</g>
<defs>
<clipPath id="clip0_494_11387">
<rect width="32.1171" height="59.6461" fill="white" transform="translate(57.2188 0.766602) rotate(72.2116)"/>
</clipPath>
</defs>
</svg>
