<svg width="631" height="377" viewBox="0 0 631 377" fill="none" xmlns="http://www.w3.org/2000/svg">
<g clip-path="url(#clip0_303_734)">
<path opacity="0.4" d="M620.018 170.697C603.3 147.062 567.791 134.42 566.875 99.0593C566.265 76.096 576.638 63.5762 560.103 43.9719C520.078 -3.48134 458.455 -9.03893 405.861 10.7485C353.268 30.536 311.23 70.2941 252.779 67.8512C220.93 66.5687 191.338 51.3006 159.855 48.4302C150.154 47.5752 141.063 48.3081 132.583 50.5067C100.795 58.7515 72.7284 89.593 62.1121 123.916C53.5702 151.704 64.4916 179.186 51.0077 206.425C36.6695 235.434 8.42035 255.649 1.28178 289.178C-7.26008 329.424 25.3821 364.419 60.4037 365.518C82.7346 366.19 124.102 362.587 143.016 348.723C166.079 331.806 188.776 330.707 215.683 331.318C266.873 332.539 318.124 344.204 368.643 352.449C411.963 359.533 454.855 358.128 498.724 359.472C530.939 360.449 558.151 372.786 575.6 337.425C596.589 295.224 655.162 220.227 620.018 170.697Z" fill="#EEF5F9"/>
<path d="M251.803 261.756H398.663C403.361 261.756 407.143 257.97 407.143 253.267V33.0401C407.143 28.3375 403.361 24.551 398.663 24.551L250.583 24.1235C245.885 24.1235 242.041 27.9711 242.102 32.6737L243.262 253.267C243.323 257.97 247.105 261.756 251.803 261.756Z" fill="#222222"/>
<path d="M259.002 35.0554L390.364 35.8493C395.123 35.8493 398.967 39.758 398.906 44.5216L397.991 242.152C397.991 246.854 394.208 250.641 389.571 250.702L261.992 253.023C257.233 253.084 253.267 249.297 253.206 244.534L250.399 43.7277C250.277 38.964 254.182 34.9943 259.002 35.0554Z" fill="white"/>
<path d="M264.311 46.1095V47.0256C264.311 48.4302 265.47 49.5906 266.873 49.5906H368.094C369.498 49.5906 370.657 48.4302 370.657 47.0256V46.1095C370.657 44.7048 369.498 43.5444 368.094 43.5444H266.873C265.47 43.5444 264.311 44.7048 264.311 46.1095Z" fill="#EFF2F5"/>
<path d="M275.598 57.5302C275.659 58.8738 276.757 59.912 278.1 59.9731L366.569 61.561C368.033 61.561 369.192 60.4006 369.192 58.9959V58.8127C369.192 57.4081 368.094 56.2477 366.63 56.2477L278.161 54.843C276.696 54.7819 275.537 56.0034 275.598 57.5302Z" fill="#EFF2F5"/>
<path d="M266.569 246.305C262.603 246.305 259.308 243.068 259.247 239.098L256.38 77.4397C256.319 73.4089 259.552 70.0499 263.579 69.9888L383.043 67.6681C384.996 67.607 386.887 68.3399 388.291 69.7445C389.694 71.0881 390.487 72.9203 390.548 74.8746L393.599 237.388C393.66 239.343 392.928 241.236 391.524 242.641C390.182 244.045 388.291 244.839 386.338 244.9L266.63 246.366C266.63 246.305 266.63 246.305 266.569 246.305ZM258.82 77.3786L261.688 239.037C261.749 241.724 263.945 243.862 266.569 243.862H266.63L386.338 242.396C387.68 242.396 388.901 241.847 389.816 240.931C390.731 240.014 391.219 238.732 391.219 237.449L388.169 74.9357C388.169 73.6532 387.619 72.4317 386.643 71.5156C385.728 70.5996 384.508 70.111 383.165 70.172L263.579 72.3707C260.895 72.4317 258.759 74.6914 258.82 77.3786Z" fill="#EFF2F5"/>
<path d="M389.51 86.3565H259.125C258.453 86.3565 257.904 85.8068 257.904 85.135C257.904 84.4632 258.453 83.9136 259.125 83.9136H389.51C390.181 83.9136 390.73 84.4632 390.73 85.135C390.73 85.8068 390.181 86.3565 389.51 86.3565Z" fill="#EFF2F5"/>
<path d="M521.055 225.174H374.135C369.437 225.174 365.654 221.387 365.654 216.685V74.6915C365.654 69.9889 369.437 66.2024 374.135 66.2024L522.215 65.7749C526.913 65.7749 530.756 69.6225 530.695 74.325L529.536 216.685C529.475 221.387 525.692 225.174 521.055 225.174Z" fill="#222222"/>
<path d="M513.855 76.7068L382.494 77.5007C377.735 77.5007 373.891 81.4093 373.952 86.173L374.867 205.57C374.867 210.272 378.65 214.059 383.287 214.12L510.866 216.44C515.625 216.501 519.591 212.715 519.652 207.951L522.458 85.4401C522.58 80.6154 518.676 76.6457 513.855 76.7068Z" fill="white"/>
<path d="M508.487 87.7608V88.6769C508.487 90.0816 507.328 91.242 505.924 91.242H404.703C403.3 91.242 402.141 90.0816 402.141 88.6769V87.7608C402.141 86.3562 403.3 85.1958 404.703 85.1958H505.924C507.328 85.1958 508.487 86.3562 508.487 87.7608Z" fill="#EFF2F5"/>
<path opacity="0.6" d="M497.2 99.1816C497.139 100.525 496.041 101.563 494.698 101.624L406.229 103.212C404.765 103.212 403.605 102.052 403.605 100.647V100.464C403.605 99.0594 404.704 97.899 406.168 97.899L494.637 96.4944C496.102 96.4333 497.261 97.6548 497.2 99.1816Z" fill="white"/>
<path d="M506.229 209.722H506.168L386.46 208.257C384.507 208.257 382.677 207.463 381.274 205.997C379.931 204.592 379.199 202.699 379.199 200.745L382.25 116.465C382.311 114.511 383.104 112.678 384.507 111.335C385.911 109.991 387.802 109.258 389.755 109.258L509.219 111.579C513.246 111.64 516.479 114.999 516.418 119.03L513.551 202.455C513.49 206.486 510.195 209.722 506.229 209.722ZM389.632 111.762C388.351 111.762 387.131 112.251 386.216 113.106C385.301 114.022 384.751 115.243 384.69 116.526L381.64 200.806C381.64 202.088 382.128 203.371 383.043 204.287C383.958 205.203 385.179 205.753 386.521 205.753L506.229 207.218H506.29C508.975 207.218 511.11 205.081 511.171 202.394L514.039 118.969C514.1 116.282 511.903 114.022 509.219 114.022L389.694 111.762H389.632Z" fill="white"/>
<path d="M513.672 128.008H383.287C382.616 128.008 382.066 127.458 382.066 126.786C382.066 126.115 382.616 125.565 383.287 125.565H513.672C514.343 125.565 514.892 126.115 514.892 126.786C514.892 127.458 514.343 128.008 513.672 128.008Z" fill="white"/>
<path d="M504.824 334.127C504.824 338.035 501.652 341.211 497.747 341.211H114.217C110.312 341.211 107.139 338.035 107.139 334.127L103.967 113.533C103.967 109.625 108.543 101.991 116.963 102.601L491.768 92.8908C496.649 92.7687 501.408 94.6619 504.885 98.082C508.363 101.563 510.255 106.266 510.133 111.151L504.824 334.127Z" fill="black"/>
<path d="M497.869 327.348C497.869 331.012 494.879 334.066 491.157 334.066H123.491C119.83 334.066 116.779 331.073 116.779 327.348L113.729 127.03C114.095 114.999 124.65 110.663 131.056 110.907L490.303 101.258C493.72 101.136 497.075 102.479 499.516 104.922C501.956 107.365 503.299 110.663 503.177 114.144L497.869 327.348Z" fill="white"/>
<path d="M120.745 231.83C120.44 231.83 120.135 231.586 120.135 231.22L119.891 214.974C119.891 214.608 120.135 214.364 120.501 214.364C120.806 214.364 121.111 214.608 121.111 214.974L121.355 231.22C121.355 231.525 121.111 231.83 120.745 231.83Z" fill="white"/>
<path d="M120.135 192.011C119.83 192.011 119.525 191.767 119.525 191.4L118.609 129.168C118.609 125.015 119.891 121.656 122.453 119.274C127.029 114.877 134.168 115.121 134.473 115.121L249.178 112.067C249.483 112.067 249.788 112.312 249.788 112.678C249.788 113.045 249.544 113.289 249.178 113.289L134.412 116.342C134.107 116.342 127.456 116.098 123.246 120.129C120.989 122.328 119.83 125.32 119.83 129.168L120.745 191.339C120.745 191.706 120.501 192.011 120.135 192.011Z" fill="white"/>
<path d="M526.301 359.533H93.4726C88.1644 359.533 83.7715 355.197 83.7715 349.822C83.7715 344.509 88.1034 340.112 93.4726 340.112H526.24C531.548 340.112 535.941 344.448 535.941 349.822C535.941 355.197 531.609 359.533 526.301 359.533Z" fill="black"/>
<path opacity="0.75" d="M477.064 160.804L142.04 164.896C137.098 164.957 133.132 168.987 133.071 173.934L132.217 310.737L486.826 315.256L487.803 171.491C487.803 165.567 482.983 160.743 477.064 160.804Z" fill="#E9EDF2"/>
<g opacity="0.8">
<path d="M168.032 248.32H151.863V312.752H168.032V248.32Z" fill="#E9EDF2"/>
<path d="M195.001 270.49H178.832V312.752H195.001V270.49Z" fill="#E9EDF2"/>
<path d="M222.028 215.769H205.859V312.752H222.028V215.769Z" fill="#E9EDF2"/>
<path d="M249.057 289.483H232.889V312.813H249.057V289.483Z" fill="#E9EDF2"/>
<path d="M276.026 228.716H259.857V312.752H276.026V228.716Z" fill="#E9EDF2"/>
<path d="M303.055 243.251H286.887V312.752H303.055V243.251Z" fill="#E9EDF2"/>
<path d="M330.083 259.069H313.914V312.752H330.083V259.069Z" fill="#E9EDF2"/>
<path d="M357.051 196.165H340.883V312.813H357.051V196.165Z" fill="#E9EDF2"/>
<path d="M384.081 208.501H367.912V312.813H384.081V208.501Z" fill="#E9EDF2"/>
<path d="M411.11 227.128H394.941V312.752H411.11V227.128Z" fill="#E9EDF2"/>
<path d="M438.077 291.621H421.908V312.752H438.077V291.621Z" fill="#E9EDF2"/>
<path d="M465.106 250.519H448.938V312.752H465.106V250.519Z" fill="#E9EDF2"/>
</g>
<path opacity="0.75" d="M480.725 123.916L142.65 119.274C138.684 119.213 135.451 122.023 135.329 125.504L134.658 150.605C134.535 154.208 137.891 157.2 141.979 157.139L480.725 152.315C484.63 152.254 487.803 149.444 487.803 145.963V130.39C487.742 126.847 484.63 123.977 480.725 123.916Z" fill="#E9EDF2"/>
<path d="M236.792 66.7522L235.999 110.48C235.938 115.122 232.949 118.786 229.227 118.786H75.2901C71.5682 118.786 68.5176 114.999 68.5176 110.297V70.3554C68.5176 65.775 71.4462 62.0496 75.107 61.9274L229.837 58.141C233.681 57.9577 236.853 61.8664 236.792 66.7522Z" fill="#222222"/>
<path d="M229.045 72.4929L227.031 111.457C226.97 113.534 225.567 115.183 223.859 115.183L78.3417 113.289C76.6333 113.228 75.291 111.518 75.291 109.381V77.6841C75.291 75.6076 76.5723 73.8976 78.2197 73.8365L225.811 68.4621C227.641 68.34 229.106 70.2332 229.045 72.4929Z" fill="white"/>
<path d="M222.272 77.6231V81.5317C222.272 82.9364 221.357 84.0357 220.259 84.0357L86.4563 82.57C85.3581 82.57 84.5039 81.4707 84.5039 80.066C84.5039 78.7224 85.3581 77.6231 86.4563 77.562L220.259 75.1191C221.357 75.1191 222.272 76.2184 222.272 77.6231Z" fill="#EFF2F5"/>
<path d="M221.174 92.5248V96.1281C221.174 97.5327 220.258 98.6321 219.099 98.6321L88.7747 95.5784C87.6765 95.5174 86.8223 94.4181 86.8223 93.0745V91.9752C86.8223 90.5705 87.7375 89.4712 88.8357 89.4712L219.16 90.0208C220.258 90.0208 221.174 91.1201 221.174 92.5248Z" fill="#EFF2F5"/>
<path d="M128.739 133.321L128.251 160.498C128.19 163.368 126.359 165.689 124.041 165.689H28.372C26.0535 165.689 24.1621 163.307 24.1621 160.437V135.58C24.1621 132.771 25.9925 130.389 28.25 130.328L124.407 127.946C126.787 127.885 128.739 130.328 128.739 133.321Z" fill="#222222"/>
<path d="M123.918 136.924L122.637 161.17C122.576 162.452 121.722 163.491 120.685 163.491L30.202 162.33C29.1647 162.33 28.3105 161.231 28.3105 159.887V140.161C28.3105 138.878 29.1037 137.84 30.1409 137.779L121.844 134.42C123.003 134.298 123.979 135.519 123.918 136.924Z" fill="white"/>
<path d="M119.71 140.1V142.543C119.71 143.398 119.16 144.13 118.428 144.069L35.2671 143.153C34.596 143.153 34.0469 142.482 34.0469 141.627C34.0469 140.772 34.596 140.1 35.2671 140.1L118.428 138.573C119.099 138.512 119.71 139.245 119.71 140.1Z" fill="#EFF2F5"/>
<path d="M119.037 149.322V151.582C119.037 152.437 118.427 153.169 117.756 153.108L36.73 151.215C36.0589 151.215 35.5098 150.482 35.5098 149.688V149.017C35.5098 148.162 36.0589 147.49 36.73 147.49L117.756 147.795C118.488 147.795 119.037 148.467 119.037 149.322Z" fill="#EFF2F5"/>
<path d="M432.279 197.141C431.974 197.141 431.73 196.958 431.669 196.653C431.486 195.859 431.303 195.065 431.059 194.332C430.998 194.027 431.181 193.66 431.486 193.599C431.791 193.477 432.157 193.721 432.218 194.027C432.462 194.82 432.645 195.614 432.828 196.408C432.889 196.714 432.706 197.08 432.34 197.141C432.401 197.141 432.34 197.141 432.279 197.141Z" fill="#222222"/>
<path d="M376.513 267.436C376.147 267.436 375.903 267.191 375.903 266.825C375.903 266.459 376.147 266.214 376.513 266.214C378.1 266.214 379.747 266.153 381.333 265.97C381.699 265.909 381.943 266.214 382.004 266.52C382.004 266.825 381.76 267.13 381.455 267.191C379.808 267.314 378.161 267.436 376.513 267.436ZM368.581 266.886H368.52C366.873 266.642 365.226 266.398 363.639 266.031C363.334 265.97 363.09 265.604 363.151 265.298C363.212 264.993 363.578 264.749 363.883 264.81C365.47 265.176 367.056 265.42 368.643 265.665C368.948 265.726 369.192 266.031 369.192 266.336C369.131 266.642 368.887 266.886 368.581 266.886ZM389.265 265.97C388.96 265.97 388.716 265.787 388.655 265.481C388.594 265.176 388.777 264.81 389.082 264.749C390.668 264.382 392.194 263.955 393.719 263.466C394.024 263.344 394.39 263.527 394.512 263.833C394.634 264.138 394.451 264.504 394.146 264.626C392.56 265.115 390.973 265.604 389.387 265.97C389.326 265.909 389.326 265.97 389.265 265.97ZM356.135 263.771C356.074 263.771 356.013 263.771 355.891 263.71C354.365 263.161 352.84 262.489 351.315 261.756C351.01 261.634 350.888 261.267 351.01 260.962C351.132 260.657 351.498 260.535 351.803 260.657C353.267 261.329 354.731 262 356.257 262.55C356.562 262.672 356.745 263.039 356.623 263.344C356.623 263.588 356.379 263.771 356.135 263.771ZM401.346 261.634C401.102 261.634 400.919 261.512 400.797 261.267C400.675 260.962 400.797 260.596 401.102 260.474C402.566 259.741 403.969 259.008 405.373 258.153C405.678 257.97 406.044 258.092 406.227 258.336C406.41 258.641 406.288 259.008 406.044 259.191C404.64 260.046 403.176 260.84 401.712 261.573C401.529 261.634 401.407 261.634 401.346 261.634ZM412.206 254.794C412.023 254.794 411.84 254.733 411.718 254.55C411.535 254.305 411.535 253.878 411.84 253.694C413.121 252.717 414.342 251.618 415.501 250.519C415.745 250.274 416.111 250.274 416.355 250.519C416.599 250.763 416.599 251.129 416.355 251.374C415.135 252.534 413.914 253.633 412.633 254.611C412.45 254.733 412.328 254.794 412.206 254.794ZM421.236 245.694C421.114 245.694 420.992 245.633 420.87 245.572C420.626 245.389 420.565 244.961 420.748 244.717C421.724 243.434 422.7 242.152 423.616 240.808C423.799 240.503 424.165 240.442 424.47 240.625C424.775 240.808 424.836 241.175 424.653 241.48C423.738 242.824 422.761 244.167 421.724 245.511C421.602 245.633 421.419 245.694 421.236 245.694ZM428.069 234.823C428.008 234.823 427.886 234.823 427.825 234.762C427.52 234.64 427.398 234.273 427.52 233.968C428.192 232.502 428.863 231.037 429.412 229.51C429.534 229.204 429.9 229.021 430.205 229.143C430.51 229.266 430.693 229.632 430.571 229.937C429.961 231.464 429.351 232.991 428.619 234.518C428.497 234.701 428.314 234.823 428.069 234.823ZM432.279 222.67C432.218 222.67 432.218 222.67 432.157 222.67C431.852 222.609 431.608 222.242 431.669 221.937C432.035 220.349 432.34 218.761 432.524 217.173C432.585 216.868 432.89 216.624 433.195 216.624C433.5 216.685 433.744 216.99 433.744 217.295C433.5 218.944 433.195 220.593 432.829 222.181C432.829 222.486 432.585 222.67 432.279 222.67ZM433.744 209.906C433.378 209.906 433.134 209.661 433.134 209.295C433.134 207.646 433.073 206.058 432.951 204.47C432.951 204.165 433.195 203.859 433.5 203.798C433.866 203.798 434.11 204.043 434.171 204.348C434.293 205.936 434.354 207.585 434.354 209.234C434.354 209.6 434.049 209.906 433.744 209.906Z" fill="#222222"/>
<path d="M344.665 257.908C344.543 257.908 344.421 257.847 344.299 257.786C343.627 257.359 342.956 256.87 342.285 256.382C342.041 256.198 341.98 255.832 342.163 255.527C342.346 255.282 342.712 255.221 343.017 255.404C343.688 255.893 344.36 256.32 345.031 256.809C345.336 256.992 345.397 257.359 345.214 257.664C345.031 257.847 344.848 257.908 344.665 257.908Z" fill="#222222"/>
<path d="M319.771 220.349C319.466 220.349 319.222 220.166 319.161 219.86C319.039 219.066 318.856 218.211 318.794 217.417C318.733 217.112 318.978 216.746 319.344 216.746C319.649 216.685 320.015 216.929 320.015 217.295C320.137 218.089 320.259 218.883 320.381 219.677C320.442 219.983 320.198 220.349 319.893 220.41C319.832 220.349 319.832 220.349 319.771 220.349Z" fill="#222222"/>
<path d="M318.856 210.028C318.49 210.028 318.246 209.783 318.246 209.478H318.856L318.246 209.417C318.246 207.768 318.307 206.18 318.429 204.592C318.429 204.287 318.734 203.981 319.1 204.043C319.466 204.043 319.71 204.348 319.649 204.714C319.527 206.241 319.466 207.829 319.466 209.356C319.466 209.722 319.161 210.028 318.856 210.028ZM320.199 197.508C320.138 197.508 320.138 197.508 320.076 197.508C319.771 197.447 319.527 197.08 319.588 196.775C319.954 195.187 320.382 193.599 320.809 192.072C320.931 191.767 321.236 191.584 321.602 191.645C321.907 191.767 322.09 192.072 322.029 192.439C321.541 193.966 321.175 195.492 320.809 197.08C320.748 197.325 320.504 197.508 320.199 197.508ZM324.225 185.538C324.164 185.538 324.042 185.538 323.981 185.477C323.676 185.354 323.554 184.988 323.676 184.683C324.347 183.217 325.141 181.751 325.934 180.346C326.117 180.041 326.483 179.98 326.788 180.102C327.093 180.285 327.154 180.652 327.032 180.957C326.239 182.301 325.507 183.767 324.836 185.171C324.714 185.415 324.469 185.538 324.225 185.538ZM330.815 174.789C330.693 174.789 330.571 174.728 330.449 174.667C330.205 174.484 330.144 174.056 330.327 173.812C331.303 172.529 332.401 171.308 333.438 170.086C333.682 169.842 334.049 169.842 334.293 170.025C334.537 170.27 334.537 170.636 334.354 170.88C333.255 172.041 332.218 173.262 331.303 174.545C331.181 174.667 330.998 174.789 330.815 174.789ZM339.601 165.689C339.418 165.689 339.235 165.628 339.113 165.445C338.869 165.2 338.93 164.773 339.174 164.59C340.394 163.552 341.736 162.574 343.018 161.658C343.323 161.475 343.689 161.536 343.872 161.78C344.055 162.086 343.994 162.452 343.75 162.635C342.468 163.552 341.187 164.529 339.967 165.506C339.906 165.628 339.723 165.689 339.601 165.689ZM403.421 159.276C403.299 159.276 403.238 159.276 403.116 159.215C401.712 158.483 400.248 157.75 398.845 157.139C398.54 157.017 398.418 156.65 398.54 156.345C398.662 156.04 399.028 155.917 399.333 156.04C400.797 156.711 402.323 157.383 403.726 158.177C404.031 158.36 404.153 158.727 403.97 159.032C403.848 159.154 403.665 159.276 403.421 159.276ZM350.156 158.727C349.912 158.727 349.729 158.605 349.607 158.421C349.424 158.116 349.546 157.75 349.851 157.628C351.315 156.895 352.78 156.223 354.244 155.612C354.549 155.49 354.915 155.612 355.037 155.917C355.159 156.223 355.037 156.589 354.732 156.711C353.268 157.322 351.803 157.994 350.4 158.727C350.339 158.727 350.217 158.727 350.156 158.727ZM391.706 154.574C391.645 154.574 391.584 154.574 391.523 154.574C389.998 154.146 388.411 153.78 386.886 153.475C386.581 153.414 386.337 153.108 386.398 152.742C386.459 152.436 386.764 152.192 387.13 152.253C388.717 152.559 390.303 152.925 391.889 153.352C392.194 153.414 392.377 153.78 392.316 154.085C392.255 154.391 392.011 154.574 391.706 154.574ZM361.932 154.269C361.688 154.269 361.383 154.085 361.322 153.78C361.261 153.475 361.444 153.108 361.749 153.047C363.335 152.62 364.921 152.314 366.508 152.009C366.813 151.948 367.179 152.192 367.24 152.497C367.301 152.803 367.057 153.169 366.752 153.23C365.165 153.475 363.64 153.841 362.115 154.207C362.054 154.207 361.993 154.269 361.932 154.269ZM379.259 152.497C377.673 152.436 376.026 152.375 374.439 152.436C374.073 152.436 373.829 152.192 373.829 151.826C373.829 151.459 374.073 151.215 374.439 151.215C376.026 151.154 377.673 151.154 379.32 151.276C379.687 151.276 379.931 151.581 379.87 151.948C379.87 152.253 379.565 152.497 379.259 152.497Z" fill="#222222"/>
<path d="M412.023 164.956C411.901 164.956 411.779 164.895 411.657 164.834C411.047 164.346 410.376 163.857 409.766 163.368C409.521 163.185 409.461 162.758 409.644 162.513C409.827 162.269 410.254 162.208 410.498 162.391C411.169 162.88 411.84 163.368 412.45 163.918C412.694 164.101 412.755 164.529 412.572 164.773C412.389 164.834 412.206 164.956 412.023 164.956Z" fill="#222222"/>
<path d="M406.166 176.865C405.983 176.621 405.678 176.56 405.373 176.682L397.624 179.858C394.451 177.598 390.851 175.766 387.008 174.606L384.811 166.483C384.75 166.178 384.506 165.995 384.201 165.995L374.134 165.323C373.829 165.323 373.585 165.445 373.463 165.75L370.229 173.506C366.263 174.178 362.48 175.461 359.003 177.293L351.742 173.14C351.498 173.018 351.193 173.018 350.949 173.201L343.383 179.858C343.139 180.041 343.078 180.347 343.2 180.652L346.373 188.408C344.115 191.584 342.285 195.187 341.126 199.035L333.011 201.233C332.706 201.294 332.523 201.539 332.523 201.844L331.852 211.921C331.852 212.226 331.974 212.471 332.279 212.593L340.027 215.83C340.698 219.799 341.98 223.586 343.81 227.067L339.661 234.335C339.539 234.579 339.539 234.884 339.722 235.129L346.373 242.701C346.556 242.946 346.861 243.007 347.166 242.885L354.915 239.709C358.087 241.969 361.687 243.801 365.531 244.961L367.727 253.084C367.788 253.389 368.032 253.572 368.338 253.572L378.405 254.244C378.71 254.244 378.954 254.122 379.076 253.817L382.31 246.06C386.275 245.389 390.058 244.106 393.536 242.274L400.797 246.427C401.041 246.549 401.346 246.549 401.59 246.366L409.155 239.709C409.399 239.526 409.461 239.22 409.339 238.915L406.166 231.159C408.423 227.983 410.254 224.38 411.413 220.532L419.528 218.334C419.833 218.273 420.016 218.028 420.016 217.723L420.687 207.646C420.687 207.341 420.565 207.096 420.26 206.974L412.511 203.737C411.84 199.768 410.559 195.981 408.728 192.5L412.877 185.232C412.999 184.988 412.999 184.683 412.816 184.438L406.166 176.865Z" fill="#222222"/>
<path d="M376.208 219.616C374.195 219.616 372.304 219.005 370.595 217.845C368.46 216.318 366.995 214.119 366.507 211.493C366.019 208.928 366.629 206.302 368.094 204.103C369.619 201.966 371.815 200.5 374.439 200.012C379.808 199.034 384.933 202.577 385.91 207.951C386.886 213.325 383.347 218.455 377.978 219.433C377.429 219.555 376.819 219.616 376.208 219.616ZM374.805 201.844C372.67 202.21 370.839 203.432 369.619 205.203C368.399 206.974 367.911 209.111 368.338 211.188C368.704 213.325 369.924 215.158 371.693 216.379C373.463 217.6 375.598 218.089 377.673 217.662C382.005 216.868 384.933 212.654 384.14 208.317C383.347 203.981 379.137 201.05 374.805 201.844Z" fill="white"/>
<path d="M376.087 235.129C375.538 235.129 374.928 235.129 374.379 235.068C361.078 234.152 350.889 223.036 350.889 209.906C350.889 209.356 350.889 208.745 350.95 208.196C351.377 201.478 354.427 195.31 359.492 190.912C364.556 186.454 371.023 184.317 377.735 184.744C379.504 184.866 381.334 185.172 383.043 185.66L382.555 187.431C380.968 187.004 379.321 186.698 377.674 186.576C371.45 186.149 365.41 188.164 360.712 192.317C356.014 196.409 353.207 202.15 352.78 208.379C352.719 208.929 352.719 209.417 352.719 209.967C352.719 222.181 362.176 232.442 374.501 233.297C387.375 234.152 398.54 224.38 399.394 211.555C399.455 211.005 399.455 210.517 399.455 209.967C399.455 206.303 398.601 202.638 396.893 199.34L398.54 198.485C400.371 202.028 401.286 205.936 401.286 209.967C401.286 210.517 401.286 211.127 401.225 211.677C400.309 224.93 389.205 235.129 376.087 235.129Z" fill="white"/>
<path d="M285.91 201.661C285.605 201.661 285.361 201.416 285.3 201.111C285.177 200.317 285.055 199.523 284.933 198.729C284.872 198.424 285.055 198.058 285.422 197.996C285.727 197.935 286.093 198.119 286.154 198.485C286.337 199.279 286.459 200.134 286.581 200.928C286.642 201.233 286.398 201.6 286.032 201.6C285.971 201.661 285.971 201.661 285.91 201.661Z" fill="#222222"/>
<path d="M244.116 253.328C243.811 253.328 243.506 253.084 243.506 252.778C243.506 252.412 243.75 252.167 244.055 252.106C245.58 251.984 247.166 251.801 248.692 251.557C248.997 251.496 249.363 251.74 249.424 252.045C249.485 252.351 249.241 252.717 248.936 252.778C247.288 253.023 245.702 253.206 244.116 253.328ZM236.428 253.206H236.367C235.391 253.084 234.415 252.961 233.499 252.839C232.889 252.717 232.279 252.595 231.669 252.473C231.364 252.412 231.12 252.106 231.181 251.74C231.242 251.435 231.547 251.19 231.913 251.251C232.523 251.374 233.133 251.496 233.744 251.557C234.659 251.679 235.635 251.862 236.55 251.923C236.855 251.984 237.099 252.229 237.099 252.595C236.977 252.961 236.733 253.206 236.428 253.206ZM256.196 250.763C255.952 250.763 255.708 250.58 255.647 250.335C255.525 250.03 255.708 249.664 256.013 249.541C257.478 248.992 258.942 248.442 260.284 247.77C260.589 247.648 260.955 247.77 261.077 248.076C261.2 248.381 261.077 248.747 260.772 248.87C259.308 249.541 257.844 250.152 256.379 250.702C256.318 250.763 256.257 250.763 256.196 250.763ZM224.408 250.274C224.347 250.274 224.286 250.274 224.164 250.213C222.7 249.664 221.236 248.992 219.771 248.259C219.466 248.076 219.344 247.709 219.527 247.465C219.71 247.16 220.077 247.037 220.321 247.221C221.724 247.953 223.127 248.564 224.592 249.114C224.897 249.236 225.08 249.602 224.958 249.908C224.836 250.152 224.653 250.274 224.408 250.274ZM267.179 245.022C266.996 245.022 266.813 244.961 266.691 244.778C266.508 244.472 266.569 244.106 266.813 243.923C268.094 243.007 269.314 242.029 270.474 241.052C270.718 240.808 271.084 240.869 271.328 241.113C271.572 241.358 271.511 241.724 271.267 241.968C270.046 243.007 268.826 244.045 267.484 244.961C267.423 245.022 267.301 245.022 267.179 245.022ZM276.209 236.594C276.087 236.594 275.965 236.533 275.843 236.472C275.599 236.289 275.538 235.861 275.782 235.617C276.758 234.395 277.673 233.174 278.527 231.83C278.71 231.525 279.076 231.464 279.382 231.647C279.687 231.83 279.748 232.197 279.565 232.502C278.71 233.846 277.734 235.128 276.758 236.35C276.575 236.533 276.392 236.594 276.209 236.594ZM282.615 226.029C282.554 226.029 282.432 226.029 282.371 225.967C282.066 225.845 281.944 225.479 282.066 225.173C282.676 223.769 283.225 222.303 283.713 220.776C283.835 220.471 284.141 220.288 284.507 220.349C284.812 220.471 284.995 220.776 284.934 221.143C284.446 222.67 283.896 224.196 283.286 225.662C283.103 225.845 282.859 226.029 282.615 226.029ZM285.91 214.058H285.849C285.544 213.997 285.3 213.692 285.3 213.387C285.483 211.86 285.666 210.272 285.666 208.745C285.666 208.379 285.971 208.134 286.276 208.134C286.642 208.134 286.886 208.44 286.886 208.745C286.825 210.333 286.703 211.921 286.459 213.509C286.52 213.875 286.215 214.058 285.91 214.058Z" fill="#222222"/>
<path d="M213.549 244.228C213.427 244.228 213.304 244.167 213.182 244.106C212.511 243.618 211.901 243.068 211.23 242.579C210.986 242.335 210.925 241.969 211.169 241.724C211.413 241.48 211.779 241.419 212.023 241.663C212.633 242.152 213.243 242.702 213.915 243.19C214.159 243.373 214.22 243.801 214.037 244.045C213.915 244.167 213.732 244.228 213.549 244.228Z" fill="#222222"/>
<path d="M195.733 212.776C195.428 212.776 195.183 212.532 195.122 212.227C195.061 211.433 194.939 210.578 194.939 209.784C194.939 209.417 195.184 209.173 195.489 209.112C195.794 209.112 196.099 209.356 196.16 209.661C196.221 210.455 196.282 211.249 196.343 212.043C196.404 212.349 196.16 212.654 195.794 212.715C195.794 212.776 195.794 212.776 195.733 212.776Z" fill="#222222"/>
<path d="M195.794 202.821H195.733C195.428 202.76 195.184 202.455 195.184 202.149C195.245 201.417 195.367 200.623 195.489 199.89C195.611 199.096 195.794 198.302 195.916 197.508C195.977 197.203 196.343 196.958 196.648 197.019C196.953 197.08 197.197 197.447 197.136 197.752C196.953 198.485 196.831 199.279 196.709 200.073C196.587 200.806 196.465 201.539 196.404 202.272C196.343 202.577 196.099 202.821 195.794 202.821ZM198.783 190.973C198.722 190.973 198.661 190.973 198.539 190.912C198.234 190.79 198.051 190.424 198.173 190.118C198.783 188.652 199.394 187.248 200.126 185.843C200.309 185.538 200.675 185.416 200.98 185.599C201.285 185.782 201.407 186.148 201.224 186.454C200.492 187.797 199.882 189.202 199.271 190.607C199.21 190.851 199.027 190.973 198.783 190.973ZM204.763 180.408C204.641 180.408 204.519 180.347 204.397 180.286C204.153 180.102 204.092 179.675 204.275 179.431C205.251 178.209 206.227 176.988 207.325 175.827C207.569 175.583 207.935 175.583 208.179 175.827C208.424 176.072 208.424 176.438 208.179 176.682C207.142 177.782 206.166 179.003 205.19 180.163C205.129 180.347 204.946 180.408 204.763 180.408ZM213.366 171.796C213.183 171.796 212.999 171.735 212.877 171.552C212.694 171.308 212.755 170.88 212.999 170.697C214.22 169.72 215.562 168.865 216.904 168.01C217.209 167.827 217.575 167.949 217.759 168.193C217.942 168.499 217.82 168.865 217.575 169.048C216.294 169.842 215.013 170.697 213.793 171.613C213.671 171.735 213.488 171.796 213.366 171.796ZM263.763 168.621C263.641 168.621 263.58 168.621 263.458 168.56C262.115 167.766 260.773 167.094 259.37 166.483C259.065 166.361 258.943 165.995 259.065 165.689C259.187 165.384 259.553 165.262 259.858 165.384C261.261 166.056 262.725 166.727 264.068 167.521C264.373 167.705 264.434 168.071 264.312 168.376C264.129 168.499 263.946 168.621 263.763 168.621ZM223.982 165.75C223.738 165.75 223.494 165.628 223.433 165.384C223.311 165.079 223.433 164.712 223.799 164.59C225.263 163.979 226.728 163.491 228.253 163.063C228.558 162.941 228.924 163.185 228.985 163.491C229.107 163.796 228.863 164.162 228.558 164.224C227.094 164.651 225.629 165.14 224.226 165.75C224.104 165.75 224.043 165.75 223.982 165.75ZM252.475 163.979C252.414 163.979 252.353 163.979 252.292 163.979C250.95 163.613 249.546 163.307 248.143 163.124L247.777 163.063C247.472 163.002 247.228 162.697 247.289 162.391C247.35 162.086 247.655 161.842 247.96 161.903L248.326 161.964C249.73 162.208 251.194 162.513 252.597 162.88C252.902 162.941 253.146 163.307 253.024 163.613C253.024 163.796 252.78 163.979 252.475 163.979ZM235.757 162.758C235.452 162.758 235.208 162.513 235.147 162.208C235.086 161.903 235.33 161.597 235.696 161.536C237.222 161.353 238.808 161.231 240.394 161.231C240.7 161.231 241.005 161.475 241.005 161.842C241.005 162.208 240.761 162.452 240.394 162.452C238.869 162.452 237.344 162.575 235.818 162.758H235.757Z" fill="#222222"/>
<path d="M271.755 174.545C271.633 174.545 271.45 174.484 271.328 174.362C270.718 173.812 270.108 173.262 269.498 172.774C269.254 172.529 269.193 172.163 269.437 171.919C269.681 171.674 270.047 171.613 270.291 171.858C270.901 172.407 271.572 172.957 272.121 173.507C272.365 173.751 272.365 174.117 272.182 174.362C272.121 174.484 271.938 174.545 271.755 174.545Z" fill="#222222"/>
<path d="M267.667 184.866C267.545 184.683 267.301 184.561 267.056 184.622L260.65 186.332C258.393 184.194 255.769 182.423 252.84 181.141L251.925 174.545C251.864 174.301 251.742 174.117 251.498 174.056L243.688 172.53C243.444 172.468 243.2 172.591 243.139 172.774L239.784 178.515C236.611 178.637 233.499 179.248 230.632 180.347L225.323 176.316C225.14 176.194 224.896 176.194 224.713 176.316L218.124 180.774C217.941 180.896 217.819 181.141 217.88 181.385L219.588 187.798C217.453 190.057 215.683 192.683 214.402 195.615L207.813 196.531C207.568 196.592 207.385 196.714 207.324 196.959L205.799 204.776C205.738 205.02 205.86 205.264 206.043 205.325L211.778 208.684C211.9 211.86 212.511 214.975 213.609 217.845L209.582 223.159C209.46 223.342 209.46 223.586 209.582 223.769L214.036 230.365C214.158 230.548 214.402 230.671 214.646 230.609L221.052 228.899C223.31 231.037 225.933 232.808 228.862 234.091L229.777 240.686C229.838 240.931 229.96 241.114 230.204 241.175L238.014 242.702C238.258 242.763 238.502 242.641 238.563 242.457L241.919 236.717C245.092 236.595 248.203 235.984 251.071 234.884L256.379 238.915C256.562 239.037 256.806 239.037 256.989 238.915L263.579 234.457C263.762 234.335 263.884 234.091 263.823 233.846L262.114 227.434C264.25 225.174 266.019 222.548 267.301 219.616L273.89 218.7C274.134 218.639 274.317 218.517 274.378 218.273L275.903 210.456C275.964 210.211 275.842 209.967 275.659 209.906L269.924 206.547C269.802 203.371 269.192 200.256 268.094 197.386L272.121 192.073C272.243 191.89 272.243 191.645 272.121 191.462L267.667 184.866Z" fill="#EF6238"/>
<path d="M240.882 215.647C238.93 215.647 237.039 214.914 235.574 213.57C233.988 212.165 233.073 210.211 232.951 208.074C232.829 205.936 233.561 203.921 234.964 202.333C236.367 200.745 238.32 199.829 240.455 199.707C244.848 199.462 248.631 202.882 248.875 207.28C248.997 209.417 248.265 211.433 246.862 213.02C245.458 214.608 243.506 215.524 241.37 215.647C241.126 215.647 241.004 215.647 240.882 215.647ZM240.516 200.623L240.577 201.539C238.93 201.6 237.405 202.333 236.306 203.554C235.208 204.776 234.659 206.364 234.72 208.013C234.781 209.661 235.513 211.188 236.733 212.288C237.954 213.387 239.54 213.937 241.187 213.875C242.835 213.814 244.36 213.082 245.458 211.86C246.557 210.639 247.106 209.051 247.045 207.402C246.862 203.982 243.933 201.417 240.577 201.6L240.516 200.623Z" fill="white"/>
<path d="M240.759 227.922C239.478 227.922 238.197 227.8 236.855 227.556C227.275 225.663 220.625 217.235 220.625 207.829C220.625 206.547 220.747 205.264 220.991 203.921C222.028 198.669 225.079 194.088 229.533 191.096C233.987 188.103 239.356 187.004 244.603 188.042C244.725 188.042 244.847 188.103 244.908 188.103C246.068 188.347 247.227 188.714 248.325 189.141C248.447 189.202 248.569 189.263 248.691 189.263L247.959 190.973C246.8 190.485 245.518 190.057 244.237 189.813C241.431 189.263 238.624 189.386 235.939 190.118C234.109 190.607 232.34 191.401 230.753 192.439L230.692 192.5C230.631 192.5 230.57 192.561 230.57 192.622C226.543 195.371 223.737 199.462 222.821 204.287C222.577 205.448 222.455 206.669 222.455 207.829C222.455 216.38 228.496 224.075 237.221 225.785C247.105 227.739 256.745 221.265 258.697 211.372C258.941 210.211 259.063 208.99 259.063 207.829C259.063 205.753 258.697 203.615 257.965 201.661L259.674 201.05C260.467 203.249 260.833 205.509 260.833 207.829C260.833 209.112 260.711 210.456 260.467 211.738C258.575 221.265 250.155 227.922 240.759 227.922Z" fill="white"/>
<path d="M481.031 179.98C480.726 179.98 480.482 179.736 480.421 179.43C480.36 178.637 480.238 177.843 480.055 177.049C479.994 176.743 480.177 176.377 480.543 176.316C480.848 176.255 481.214 176.438 481.275 176.804C481.458 177.598 481.58 178.453 481.641 179.247C481.702 179.553 481.458 179.858 481.092 179.919C481.092 179.98 481.092 179.98 481.031 179.98Z" fill="#222222"/>
<path d="M453.025 212.715C452.72 212.715 452.415 212.471 452.415 212.104C452.415 211.738 452.659 211.494 453.025 211.494C454.49 211.432 456.015 211.249 457.479 210.944C457.785 210.883 458.151 211.066 458.212 211.432C458.273 211.738 458.09 212.104 457.724 212.165C456.198 212.41 454.612 212.593 453.025 212.715C453.087 212.715 453.025 212.715 453.025 212.715ZM445.643 212.104C445.582 212.104 445.582 212.104 445.521 212.104C443.996 211.799 442.47 211.31 441.006 210.761C440.701 210.639 440.518 210.272 440.64 209.967C440.762 209.661 441.128 209.478 441.433 209.6C442.836 210.15 444.301 210.577 445.765 210.883C446.07 210.944 446.314 211.249 446.253 211.616C446.131 211.86 445.887 212.104 445.643 212.104ZM464.618 209.722C464.374 209.722 464.191 209.6 464.069 209.356C463.947 209.051 464.069 208.684 464.374 208.562C465.716 207.89 466.998 207.157 468.218 206.302C468.523 206.119 468.889 206.18 469.072 206.425C469.255 206.73 469.194 207.096 468.95 207.28C467.669 208.196 466.326 208.99 464.923 209.661C464.801 209.722 464.74 209.722 464.618 209.722ZM474.136 202.394C474.014 202.394 473.831 202.333 473.709 202.272C473.465 202.027 473.404 201.661 473.648 201.417C474.624 200.256 475.539 199.035 476.272 197.813C476.455 197.508 476.821 197.447 477.126 197.63C477.431 197.813 477.492 198.18 477.309 198.485C476.516 199.829 475.539 201.111 474.563 202.272C474.441 202.333 474.258 202.394 474.136 202.394ZM479.871 191.889C479.81 191.889 479.749 191.889 479.688 191.889C479.383 191.767 479.2 191.462 479.261 191.156C479.627 189.874 479.932 188.591 480.176 187.309C480.176 187.126 480.237 186.942 480.237 186.759C480.298 186.454 480.604 186.21 480.909 186.271C481.214 186.332 481.458 186.637 481.397 186.942C481.397 187.126 481.336 187.309 481.336 187.492C481.092 188.836 480.787 190.179 480.42 191.523C480.42 191.706 480.176 191.889 479.871 191.889Z" fill="#222222"/>
<path d="M434.599 207.28C434.477 207.28 434.355 207.219 434.233 207.157C433.562 206.669 432.891 206.18 432.281 205.631C432.037 205.386 431.976 205.02 432.22 204.776C432.464 204.531 432.83 204.47 433.074 204.715C433.684 205.203 434.294 205.692 434.965 206.18C435.27 206.364 435.331 206.73 435.087 207.035C435.026 207.157 434.782 207.28 434.599 207.28Z" fill="#222222"/>
<path d="M422.397 186.332C422.092 186.332 421.848 186.088 421.787 185.782C421.726 184.988 421.665 184.133 421.604 183.278C421.604 182.912 421.848 182.667 422.214 182.667C422.519 182.667 422.824 182.912 422.824 183.278C422.824 184.072 422.885 184.866 423.007 185.66C423.068 185.965 422.824 186.271 422.458 186.332C422.397 186.332 422.397 186.332 422.397 186.332Z" fill="#222222"/>
<path d="M422.946 176.621C422.885 176.621 422.885 176.621 422.824 176.621C422.519 176.56 422.275 176.194 422.336 175.888C422.702 174.362 423.129 172.896 423.678 171.491C423.8 171.186 424.166 171.003 424.471 171.125C424.776 171.247 424.959 171.613 424.837 171.919C424.288 173.262 423.861 174.728 423.556 176.133C423.495 176.438 423.251 176.621 422.946 176.621ZM427.827 165.872C427.705 165.872 427.583 165.811 427.461 165.75C427.217 165.567 427.156 165.201 427.339 164.895C428.254 163.674 429.23 162.452 430.328 161.353C430.572 161.109 430.938 161.109 431.183 161.353C431.427 161.597 431.427 161.964 431.183 162.208C430.145 163.246 429.169 164.407 428.315 165.567C428.193 165.811 428.01 165.872 427.827 165.872ZM436.491 157.872C436.308 157.872 436.064 157.75 435.942 157.567C435.759 157.261 435.881 156.895 436.125 156.712C437.467 155.918 438.809 155.246 440.212 154.635C440.518 154.513 440.884 154.635 441.006 154.94C441.128 155.246 441.006 155.612 440.701 155.734C439.358 156.284 438.016 156.956 436.735 157.75C436.674 157.872 436.613 157.872 436.491 157.872ZM463.581 156.162C463.52 156.162 463.398 156.162 463.337 156.101C461.994 155.49 460.591 155.002 459.188 154.635C458.883 154.574 458.639 154.208 458.761 153.902C458.822 153.597 459.188 153.414 459.493 153.475C460.957 153.841 462.421 154.391 463.825 155.002C464.13 155.124 464.252 155.49 464.13 155.796C464.069 156.04 463.825 156.162 463.581 156.162ZM447.595 153.963C447.29 153.963 447.046 153.719 446.985 153.414C446.924 153.108 447.168 152.742 447.534 152.742C448.937 152.559 450.341 152.437 451.683 152.437H452.11C452.476 152.437 452.72 152.742 452.72 153.047C452.72 153.353 452.415 153.658 452.11 153.658H451.744C450.402 153.658 449.059 153.78 447.717 153.963C447.595 153.963 447.595 153.963 447.595 153.963Z" fill="#222222"/>
<path d="M471.757 161.536C471.635 161.536 471.452 161.475 471.33 161.353C470.72 160.804 470.11 160.315 469.5 159.826C469.256 159.643 469.195 159.216 469.378 158.971C469.561 158.727 469.988 158.666 470.232 158.849C470.903 159.338 471.513 159.887 472.124 160.437C472.368 160.681 472.368 161.048 472.185 161.292C472.063 161.414 471.94 161.536 471.757 161.536Z" fill="#222222"/>
<path d="M469.072 168.01C469.011 167.888 468.828 167.827 468.706 167.888L464.557 168.987C463.093 167.644 461.384 166.483 459.493 165.628L458.883 161.353C458.883 161.231 458.761 161.109 458.578 161.048L453.514 160.071C453.392 160.071 453.209 160.132 453.148 160.254L451.012 163.979C448.938 164.041 446.924 164.468 445.033 165.201L441.616 162.575C441.494 162.514 441.311 162.453 441.189 162.575L436.918 165.445C436.796 165.506 436.735 165.689 436.796 165.812L437.894 169.965C436.552 171.43 435.393 173.14 434.539 175.034L430.268 175.644C430.146 175.644 430.024 175.766 429.963 175.95L428.986 181.019C428.986 181.141 429.047 181.324 429.169 181.385L432.891 183.523C432.952 185.599 433.379 187.614 434.111 189.508L431.488 192.928C431.427 193.05 431.366 193.233 431.488 193.355L434.356 197.63C434.417 197.752 434.6 197.814 434.722 197.752L438.87 196.653C440.335 197.997 442.043 199.157 443.935 200.012L444.545 204.287C444.545 204.409 444.667 204.532 444.85 204.593L449.914 205.57C450.036 205.57 450.219 205.509 450.28 205.387L452.415 201.661C454.49 201.6 456.503 201.173 458.395 200.44L461.812 203.066C461.934 203.127 462.117 203.188 462.239 203.066L466.51 200.195C466.632 200.134 466.693 199.951 466.632 199.829L465.533 195.676C466.876 194.21 468.035 192.5 468.889 190.607L473.16 189.996C473.282 189.996 473.404 189.874 473.465 189.691L474.441 184.622C474.441 184.5 474.38 184.317 474.258 184.255L470.536 182.118C470.475 180.041 470.048 178.026 469.316 176.133L471.94 172.713C472.001 172.591 472.062 172.407 471.94 172.285L469.072 168.01Z" fill="#EF6238"/>
<path d="M451.684 188.286C450.342 188.286 448.999 187.798 448.023 186.882C446.925 185.904 446.315 184.561 446.193 183.095C446.132 181.629 446.62 180.225 447.596 179.125C448.572 178.026 449.914 177.415 451.379 177.293C452.843 177.232 454.246 177.721 455.345 178.698C456.443 179.675 457.053 181.019 457.175 182.484C457.358 185.538 454.979 188.103 451.989 188.286C451.867 188.286 451.745 188.286 451.684 188.286ZM451.684 179.125C451.623 179.125 451.562 179.125 451.501 179.125C450.525 179.186 449.609 179.614 448.938 180.347C448.267 181.08 447.962 181.996 448.023 182.973C448.084 183.95 448.511 184.866 449.243 185.538C449.975 186.21 450.891 186.515 451.867 186.454C453.88 186.332 455.467 184.622 455.345 182.606C455.284 181.629 454.856 180.713 454.124 180.041C453.453 179.431 452.599 179.125 451.684 179.125Z" fill="white"/>
<path d="M451.622 196.287C450.768 196.287 449.853 196.226 448.999 196.042C445.46 195.371 442.47 193.355 440.457 190.363C438.931 188.103 438.199 185.538 438.199 182.912C438.199 182.057 438.26 181.141 438.443 180.286C439.847 173.018 446.924 168.315 454.185 169.72C455.039 169.903 455.893 170.148 456.686 170.453C456.747 170.453 456.808 170.514 456.93 170.514L456.198 172.224C455.466 171.919 454.673 171.674 453.819 171.491C450.402 170.819 447.107 171.736 444.545 173.69C442.409 175.339 440.823 177.782 440.274 180.591C440.152 181.324 440.03 182.118 440.03 182.851C440.03 185.11 440.701 187.37 441.982 189.263C443.69 191.828 446.314 193.599 449.365 194.149C452.415 194.76 455.466 194.149 458.029 192.378C460.591 190.668 462.361 188.042 462.91 184.988C463.032 184.255 463.154 183.461 463.154 182.729C463.154 181.385 462.91 180.102 462.483 178.82L464.191 178.209C464.74 179.675 464.984 181.202 464.984 182.729C464.984 183.584 464.923 184.5 464.74 185.355C464.069 188.897 462.055 191.889 459.066 193.905C456.808 195.493 454.246 196.287 451.622 196.287Z" fill="white"/>
<path d="M336.367 239.709C336.062 239.709 335.818 239.465 335.757 239.159C335.696 238.366 335.574 237.572 335.39 236.778C335.329 236.472 335.512 236.106 335.879 236.045C336.184 235.984 336.55 236.167 336.611 236.533C336.794 237.327 336.916 238.182 336.977 238.976C337.038 239.282 336.794 239.587 336.428 239.648C336.367 239.648 336.367 239.709 336.367 239.709Z" fill="#222222"/>
<path d="M308.362 272.383C308.057 272.383 307.752 272.139 307.752 271.772C307.752 271.406 307.996 271.161 308.362 271.161C309.826 271.1 311.352 270.917 312.816 270.612C313.121 270.551 313.487 270.734 313.548 271.1C313.609 271.406 313.426 271.772 313.06 271.833C311.474 272.139 309.948 272.322 308.362 272.383ZM300.918 271.772C300.857 271.772 300.857 271.772 300.796 271.772C299.271 271.467 297.746 270.978 296.281 270.429C295.976 270.306 295.793 269.94 295.915 269.635C296.037 269.329 296.403 269.146 296.708 269.268C298.112 269.818 299.576 270.245 301.04 270.551C301.345 270.612 301.589 270.917 301.528 271.284C301.467 271.589 301.223 271.772 300.918 271.772ZM319.954 269.451C319.71 269.451 319.527 269.329 319.405 269.085C319.283 268.78 319.405 268.413 319.71 268.291C321.053 267.619 322.334 266.886 323.554 266.031C323.859 265.848 324.225 265.909 324.408 266.154C324.591 266.459 324.53 266.825 324.286 267.009C323.005 267.925 321.663 268.719 320.26 269.39C320.137 269.39 320.015 269.451 319.954 269.451ZM329.412 262.123C329.289 262.123 329.106 262.062 328.984 262.001C328.74 261.756 328.679 261.39 328.923 261.146C329.9 259.985 330.815 258.764 331.547 257.542C331.73 257.237 332.096 257.176 332.401 257.359C332.706 257.542 332.767 257.909 332.584 258.214C331.791 259.558 330.815 260.84 329.839 262.001C329.778 262.062 329.595 262.123 329.412 262.123ZM335.208 251.618C335.147 251.618 335.086 251.618 335.025 251.618C334.72 251.496 334.537 251.191 334.598 250.885C334.964 249.603 335.269 248.32 335.513 247.038C335.513 246.855 335.574 246.671 335.574 246.488C335.635 246.183 335.94 245.939 336.245 246C336.55 246.061 336.794 246.366 336.733 246.671C336.733 246.855 336.672 247.038 336.672 247.221C336.428 248.565 336.123 249.908 335.757 251.252C335.696 251.435 335.452 251.618 335.208 251.618Z" fill="#222222"/>
<path d="M289.935 266.948C289.813 266.948 289.691 266.887 289.569 266.825C288.898 266.337 288.227 265.848 287.617 265.299C287.373 265.054 287.312 264.688 287.556 264.444C287.8 264.199 288.166 264.138 288.41 264.383C289.02 264.871 289.63 265.36 290.301 265.848C290.606 266.032 290.667 266.398 290.423 266.703C290.301 266.887 290.118 266.948 289.935 266.948Z" fill="#222222"/>
<path d="M277.672 246.061C277.367 246.061 277.123 245.817 277.062 245.511C277.001 244.717 276.94 243.862 276.879 243.007C276.879 242.641 277.123 242.396 277.489 242.396C277.855 242.396 278.099 242.641 278.099 243.007C278.099 243.801 278.16 244.595 278.282 245.389C278.343 245.694 278.099 246 277.733 246.061H277.672Z" fill="#222222"/>
<path d="M278.221 236.35C278.16 236.35 278.16 236.35 278.099 236.35C277.794 236.289 277.55 235.923 277.611 235.617C277.977 234.091 278.404 232.625 278.953 231.22C279.075 230.915 279.441 230.732 279.746 230.854C280.052 230.976 280.235 231.342 280.113 231.648C279.563 232.991 279.136 234.457 278.831 235.862C278.77 236.106 278.526 236.35 278.221 236.35ZM283.102 225.601C282.98 225.601 282.858 225.54 282.736 225.479C282.492 225.296 282.431 224.93 282.614 224.624C283.529 223.403 284.505 222.181 285.604 221.082C285.848 220.838 286.214 220.838 286.458 221.082C286.702 221.326 286.702 221.693 286.458 221.937C285.421 222.975 284.444 224.136 283.59 225.296C283.468 225.479 283.285 225.601 283.102 225.601ZM291.766 217.601C291.583 217.601 291.339 217.479 291.217 217.296C291.034 216.99 291.156 216.624 291.4 216.441C292.742 215.647 294.085 214.975 295.488 214.364C295.793 214.242 296.159 214.364 296.281 214.67C296.403 214.975 296.281 215.341 295.976 215.463C294.634 216.013 293.291 216.685 292.01 217.479C292.01 217.601 291.888 217.601 291.766 217.601ZM318.917 215.83C318.856 215.83 318.734 215.83 318.673 215.769C317.331 215.158 315.927 214.67 314.524 214.303C314.219 214.242 313.975 213.876 314.097 213.57C314.158 213.265 314.524 213.082 314.829 213.143C316.293 213.509 317.758 214.059 319.161 214.67C319.466 214.792 319.588 215.158 319.466 215.463C319.344 215.708 319.1 215.83 318.917 215.83ZM302.87 213.631C302.565 213.631 302.321 213.387 302.26 213.082C302.199 212.776 302.443 212.41 302.809 212.41C304.213 212.227 305.616 212.104 306.958 212.104H307.385C307.752 212.104 307.996 212.41 307.996 212.715C307.996 213.021 307.691 213.326 307.385 213.326H307.019C305.677 213.326 304.335 213.448 302.993 213.631C302.932 213.631 302.87 213.631 302.87 213.631Z" fill="#222222"/>
<path d="M327.033 221.204C326.911 221.204 326.728 221.143 326.606 221.021C325.996 220.471 325.385 219.983 324.775 219.494C324.531 219.311 324.47 218.884 324.653 218.639C324.836 218.395 325.263 218.334 325.508 218.517C326.179 219.006 326.789 219.555 327.399 220.105C327.643 220.349 327.643 220.716 327.46 220.96C327.399 221.143 327.216 221.204 327.033 221.204Z" fill="#222222"/>
<path d="M324.408 227.739C324.347 227.617 324.164 227.556 324.042 227.617L319.893 228.716C318.429 227.373 316.72 226.212 314.829 225.357L314.219 221.082C314.219 220.96 314.097 220.838 313.914 220.777L308.85 219.8C308.728 219.8 308.545 219.861 308.484 219.983L306.348 223.708C304.274 223.77 302.26 224.197 300.369 224.93L296.952 222.304C296.83 222.243 296.647 222.182 296.525 222.304L292.254 225.174C292.132 225.235 292.071 225.418 292.132 225.541L293.23 229.694C291.888 231.159 290.729 232.869 289.874 234.763L285.604 235.373C285.482 235.373 285.359 235.495 285.298 235.679L284.322 240.748C284.322 240.87 284.383 241.053 284.505 241.114L288.227 243.252C288.288 245.328 288.715 247.343 289.447 249.237L286.824 252.657C286.763 252.779 286.702 252.962 286.824 253.084L289.691 257.359C289.752 257.481 289.935 257.543 290.058 257.481L294.206 256.382C295.671 257.726 297.379 258.886 299.271 259.741L299.881 264.016C299.881 264.138 300.003 264.261 300.186 264.322L305.25 265.299C305.372 265.299 305.555 265.238 305.616 265.116L307.751 261.39C309.826 261.329 311.839 260.902 313.731 260.169L317.147 262.795C317.269 262.856 317.453 262.917 317.575 262.795L321.845 259.924C321.967 259.863 322.029 259.68 321.968 259.558L320.869 255.405C322.212 253.939 323.371 252.229 324.225 250.336L328.496 249.725C328.618 249.725 328.74 249.603 328.801 249.42L329.777 244.351C329.777 244.229 329.716 244.046 329.594 243.984L325.872 241.847C325.811 239.77 325.384 237.755 324.652 235.862L327.276 232.442C327.337 232.32 327.398 232.136 327.276 232.014L324.408 227.739Z" fill="#EF6238"/>
<path d="M306.958 248.015C304.029 248.015 301.589 245.755 301.467 242.824C301.284 239.77 303.663 237.205 306.653 237.022C309.704 236.839 312.266 239.221 312.449 242.213C312.51 243.679 312.022 245.084 311.046 246.183C310.07 247.282 308.728 247.893 307.263 248.015C307.141 248.015 307.08 248.015 306.958 248.015ZM306.958 238.854C306.897 238.854 306.836 238.854 306.775 238.854C304.762 238.976 303.175 240.686 303.297 242.702C303.419 244.717 305.128 246.305 307.141 246.183C309.155 246.061 310.741 244.351 310.619 242.335C310.558 240.381 308.911 238.854 306.958 238.854Z" fill="white"/>
<path d="M306.897 256.016C306.043 256.016 305.189 255.955 304.335 255.771C297.989 254.489 293.535 248.87 293.535 242.641C293.535 241.786 293.596 240.931 293.779 240.076C295.183 232.808 302.26 228.106 309.521 229.51C310.436 229.693 311.29 229.938 312.144 230.304C312.205 230.304 312.205 230.365 312.266 230.365L311.534 232.075C310.802 231.77 310.009 231.526 309.155 231.342C305.372 230.609 301.65 231.77 299.026 234.213C297.318 235.801 296.037 237.938 295.549 240.442C295.427 241.175 295.305 241.969 295.305 242.702C295.305 248.137 299.148 252.962 304.64 254.061C310.863 255.283 316.964 251.191 318.185 244.962C318.307 244.229 318.429 243.496 318.429 242.702C318.429 241.358 318.185 240.076 317.757 238.793L319.466 238.182C320.015 239.648 320.259 241.175 320.259 242.702C320.259 243.557 320.198 244.473 320.015 245.328C318.734 251.557 313.181 256.016 306.897 256.016Z" fill="white"/>
<path d="M220.808 161.048C220.503 161.048 220.259 160.803 220.198 160.498C220.137 159.704 220.015 158.91 219.832 158.116C219.771 157.811 219.954 157.444 220.32 157.383C220.625 157.322 220.991 157.505 221.052 157.872C221.235 158.666 221.357 159.521 221.418 160.315C221.479 160.681 221.235 160.986 220.808 161.048C220.869 161.048 220.869 161.048 220.808 161.048Z" fill="#222222"/>
<path d="M192.072 189.385H192.011C191.584 189.324 191.157 189.263 190.73 189.202C189.509 189.019 188.35 188.713 187.191 188.347C186.886 188.225 186.703 187.919 186.764 187.553C186.886 187.247 187.191 187.064 187.496 187.125C188.594 187.492 189.753 187.736 190.913 187.919C191.34 187.98 191.767 188.041 192.133 188.102C192.438 188.164 192.682 188.469 192.682 188.774C192.621 189.141 192.377 189.385 192.072 189.385ZM199.943 189.08C199.637 189.08 199.393 188.896 199.332 188.591C199.271 188.286 199.454 187.919 199.82 187.858C201.346 187.553 202.932 187.125 204.396 186.515C204.702 186.392 205.068 186.515 205.19 186.881C205.312 187.186 205.19 187.553 204.824 187.675C203.298 188.286 201.651 188.774 200.065 189.08C200.004 189.08 200.004 189.08 199.943 189.08ZM211.413 183.705C211.23 183.705 211.047 183.644 210.925 183.461C210.742 183.217 210.742 182.789 210.986 182.606C212.206 181.629 213.365 180.468 214.342 179.247C214.586 179.003 214.952 178.942 215.196 179.186C215.44 179.43 215.501 179.797 215.257 180.041C214.22 181.323 212.999 182.484 211.718 183.522C211.657 183.644 211.535 183.705 211.413 183.705ZM218.979 173.567C218.918 173.567 218.796 173.567 218.735 173.506C218.43 173.384 218.247 173.018 218.43 172.712C219.04 171.246 219.528 169.72 219.833 168.193C219.894 167.887 220.199 167.643 220.565 167.704C220.87 167.765 221.114 168.071 221.053 168.437C220.687 170.086 220.199 171.674 219.589 173.201C219.406 173.384 219.223 173.567 218.979 173.567Z" fill="#222222"/>
<path d="M180.174 184.927C180.052 184.927 179.93 184.866 179.807 184.804C179.136 184.316 178.465 183.827 177.855 183.278C177.611 183.033 177.55 182.667 177.794 182.423C178.038 182.178 178.404 182.117 178.648 182.362C179.258 182.85 179.868 183.339 180.54 183.827C180.845 184.011 180.906 184.377 180.723 184.682C180.601 184.804 180.357 184.927 180.174 184.927Z" fill="#222222"/>
<path d="M169.191 166.361C168.886 166.361 168.642 166.117 168.581 165.811C168.52 165.018 168.459 164.163 168.459 163.308C168.459 162.941 168.703 162.697 169.069 162.697C169.374 162.697 169.679 162.941 169.679 163.308C169.679 164.101 169.74 164.895 169.801 165.689C169.862 165.995 169.618 166.3 169.252 166.361C169.191 166.361 169.191 166.361 169.191 166.361Z" fill="#222222"/>
<path d="M170.106 156.223C170.045 156.223 169.984 156.223 169.923 156.223C169.618 156.101 169.435 155.796 169.496 155.49C169.984 153.902 170.533 152.375 171.326 150.91C171.448 150.604 171.876 150.482 172.12 150.665C172.425 150.849 172.547 151.215 172.364 151.459C171.632 152.864 171.082 154.33 170.655 155.796C170.594 156.04 170.35 156.223 170.106 156.223ZM176.391 145.474C176.208 145.474 176.086 145.413 175.963 145.291C175.719 145.047 175.719 144.68 175.963 144.436C177.123 143.276 178.343 142.176 179.685 141.26C179.99 141.077 180.356 141.138 180.539 141.382C180.723 141.688 180.662 142.054 180.417 142.237C179.136 143.154 177.977 144.131 176.879 145.291C176.696 145.413 176.513 145.474 176.391 145.474ZM203.969 139.184C203.908 139.184 203.847 139.184 203.786 139.123C202.321 138.573 200.796 138.207 199.271 137.901C198.966 137.84 198.721 137.535 198.782 137.168C198.843 136.863 199.149 136.619 199.515 136.68C201.101 136.924 202.748 137.352 204.274 137.962C204.579 138.084 204.762 138.451 204.64 138.756C204.457 139.001 204.213 139.184 203.969 139.184ZM186.946 138.878C186.702 138.878 186.458 138.695 186.336 138.451C186.214 138.146 186.397 137.779 186.702 137.657C188.227 137.168 189.875 136.802 191.461 136.558C191.766 136.497 192.132 136.741 192.132 137.107C192.193 137.413 191.949 137.779 191.583 137.779C190.058 137.962 188.532 138.329 187.007 138.817C187.068 138.878 187.007 138.878 186.946 138.878Z" fill="#222222"/>
<path d="M212.632 144.497C212.51 144.497 212.327 144.436 212.205 144.314C211.595 143.764 210.985 143.276 210.375 142.787C210.131 142.604 210.07 142.177 210.253 141.932C210.436 141.688 210.863 141.627 211.107 141.81C211.778 142.299 212.388 142.848 212.999 143.398C213.243 143.642 213.243 144.009 213.06 144.253C212.938 144.436 212.815 144.497 212.632 144.497Z" fill="#222222"/>
<path d="M210.253 150.116C210.192 149.993 210.07 149.932 209.887 149.993L206.226 150.971C204.945 149.749 203.419 148.772 201.772 147.978L201.223 144.192C201.223 144.069 201.101 143.947 200.979 143.947L196.525 143.092C196.403 143.092 196.281 143.153 196.22 143.214L194.328 146.512C192.498 146.573 190.729 146.94 189.081 147.551L186.031 145.23C185.909 145.169 185.787 145.169 185.665 145.23L181.882 147.795C181.76 147.856 181.699 147.978 181.76 148.161L182.736 151.826C181.516 153.108 180.539 154.635 179.746 156.284L175.963 156.834C175.841 156.834 175.719 156.956 175.719 157.078L174.865 161.536C174.865 161.658 174.926 161.78 174.987 161.842L178.282 163.735C178.343 165.567 178.709 167.338 179.319 168.987L177.001 172.041C176.94 172.163 176.94 172.285 177.001 172.407L179.563 176.194C179.624 176.316 179.746 176.377 179.929 176.316L183.59 175.339C184.871 176.56 186.397 177.537 188.044 178.331L188.593 182.118C188.593 182.24 188.715 182.362 188.837 182.362L193.291 183.217C193.413 183.217 193.535 183.156 193.596 183.095L195.488 179.797C197.318 179.736 199.088 179.369 200.735 178.759L203.786 181.079C203.908 181.14 204.03 181.14 204.152 181.079L207.934 178.514C208.056 178.453 208.118 178.331 208.056 178.148L207.08 174.484C208.301 173.201 209.277 171.674 210.07 170.025L213.853 169.476C213.975 169.476 214.097 169.353 214.097 169.231L214.951 164.773C214.951 164.651 214.89 164.529 214.829 164.468L211.534 162.574C211.473 160.742 211.107 158.971 210.497 157.322L212.816 154.269C212.877 154.146 212.877 154.024 212.816 153.902L210.253 150.116Z" fill="#222222"/>
<path d="M194.939 168.132C193.719 168.132 192.56 167.704 191.645 166.849C190.668 165.933 190.058 164.773 189.997 163.429C189.875 160.681 191.95 158.36 194.695 158.238C196.038 158.177 197.258 158.605 198.295 159.521C199.271 160.437 199.881 161.597 199.942 162.941C200.004 164.284 199.576 165.506 198.661 166.544C197.746 167.521 196.587 168.132 195.244 168.193C195.122 168.132 195.061 168.132 194.939 168.132ZM194.939 160.009C194.878 160.009 194.817 160.009 194.756 160.009C193.048 160.07 191.706 161.597 191.828 163.307C191.889 164.162 192.255 164.895 192.865 165.445C193.475 165.994 194.268 166.3 195.122 166.239C195.977 166.178 196.709 165.811 197.258 165.2C197.807 164.59 198.112 163.796 198.051 162.941C197.99 162.086 197.624 161.353 197.014 160.803C196.465 160.315 195.733 160.009 194.939 160.009Z" fill="white"/>
<path d="M194.878 175.094C194.146 175.094 193.353 175.033 192.56 174.85C189.448 174.239 186.763 172.468 184.994 169.781C183.652 167.827 182.98 165.506 182.98 163.185C182.98 162.391 183.041 161.658 183.225 160.864C184.506 154.452 190.729 150.238 197.197 151.459C197.258 151.459 197.319 151.459 197.441 151.52C198.173 151.704 198.844 151.887 199.515 152.192C199.576 152.192 199.576 152.253 199.637 152.253L198.905 153.963C198.234 153.658 197.563 153.475 196.831 153.352C196.403 153.291 196.037 153.23 195.61 153.169C190.607 152.803 186.031 156.223 184.994 161.231C184.872 161.903 184.811 162.513 184.811 163.185C184.811 165.139 185.421 167.094 186.519 168.804C188.045 171.063 190.302 172.529 192.926 173.079C198.356 174.178 203.664 170.575 204.762 165.139C204.884 164.468 204.945 163.857 204.945 163.185C204.945 162.025 204.762 160.864 204.335 159.765L206.044 159.154C206.532 160.437 206.715 161.78 206.715 163.185C206.715 163.979 206.654 164.712 206.471 165.506C205.433 171.186 200.43 175.094 194.878 175.094Z" fill="white"/>
<path d="M431.67 200.562C431.06 228.411 429.168 324.539 430.084 358.617C430.206 362.22 432.646 365.152 435.758 365.213C451.011 365.823 506.899 367.289 531.793 366.068C536.979 365.824 541.128 360.877 541.25 354.83C541.738 325.577 542.897 243.312 540.213 205.631C539.908 201.111 536.857 197.508 533.013 197.08C516.418 195.126 460.285 190.362 438.748 192.011C434.782 192.256 431.731 195.981 431.67 200.562Z" fill="#222222"/>
<path d="M438.442 209.112C437.649 231.586 435.026 306.461 435.88 334.127C436.002 338.158 438.747 341.455 442.164 341.7C456.38 342.677 504.825 344.814 525.691 342.86C529.413 342.494 532.403 338.951 532.586 334.554C533.623 311.591 536.674 241.907 535.881 214.547C535.759 210.211 532.891 206.608 529.169 206.241C513.794 204.653 462.299 200.806 444.605 201.905C441.249 202.088 438.625 205.203 438.442 209.112Z" fill="white"/>
<path opacity="0.65" d="M477.125 362.831C473.342 362.831 470.291 359.289 470.291 354.892C470.291 350.494 473.342 346.952 477.125 346.952C480.907 346.952 483.958 350.494 483.958 354.892C484.019 359.228 480.907 362.831 477.125 362.831ZM477.125 348.174C474.013 348.174 471.511 351.166 471.511 354.892C471.511 358.617 474.013 361.61 477.125 361.61C480.236 361.61 482.738 358.617 482.738 354.892C482.738 351.166 480.236 348.174 477.125 348.174Z" fill="white"/>
<path opacity="0.5" d="M469.314 196.836C469.314 197.691 469.864 198.424 470.596 198.424C474.196 198.669 484.324 199.279 488.9 199.585C489.815 199.646 490.486 198.73 490.303 197.691V197.508C490.181 196.836 489.693 196.287 489.083 196.226C486.032 195.92 476.758 195.004 470.657 195.248C469.925 195.248 469.314 195.981 469.314 196.836Z" fill="white"/>
<path d="M472.549 276.78L500.554 277.879L498.602 254.366L472.549 253.694V276.78Z" fill="#E9EDF2"/>
<path d="M503.849 278.001L525.692 278.856L525.875 255.099L501.896 254.427L503.849 278.001Z" fill="#E9EDF2"/>
<path d="M525.936 251.19L526.119 226.273C526.119 223.28 524.166 220.776 521.604 220.593L454.977 215.707C452.293 215.524 449.974 217.967 449.852 221.082L448.754 249.114L525.936 251.19Z" fill="#E9EDF2"/>
<path d="M469.254 253.572L448.571 253.022L447.717 275.802L469.254 276.657V253.572Z" fill="#E9EDF2"/>
<path d="M447.595 279.711L445.825 326.676C445.703 329.852 447.839 332.539 450.523 332.6L520.445 334.677C523.129 334.738 525.387 332.234 525.387 329.058L525.692 282.765L447.595 279.711Z" fill="#E9EDF2"/>
<path d="M130.266 316.844H125.629V367.045H130.266V316.844Z" fill="#434242"/>
<path d="M107.629 367.961H148.203V366.679C148.203 365.702 147.41 364.908 146.434 364.908H109.46C108.423 364.908 107.568 365.763 107.568 366.801V367.961H107.629Z" fill="#434242"/>
<path d="M99.9414 315.012C99.9414 317.943 102.321 320.325 105.25 320.325H148.874C151.803 320.325 154.182 317.943 154.182 315.012V310.187C154.182 307.255 151.803 304.874 148.874 304.874H105.25C102.321 304.874 99.9414 307.255 99.9414 310.187V315.012Z" fill="#EF6238"/>
<path d="M169.008 351.777C169.008 351.777 184.017 358.251 183.163 364.969C183.163 364.969 167.666 361.976 164.92 357.579C162.175 353.121 163.7 350.556 163.7 350.556L169.008 351.777Z" fill="#434242"/>
<path d="M165.347 344.387L164.614 350.983C164.492 351.96 165.042 352.937 166.018 353.304C166.506 353.487 167.116 353.609 167.909 353.609C169.068 353.609 170.045 352.876 170.35 351.777L171.814 346.464L165.347 344.387Z" fill="url(#paint0_linear_303_734)"/>
<path d="M132.583 293.941C132.583 293.941 160.162 292.659 173.89 300.659C187.618 308.66 173.218 347.074 173.218 347.074C173.218 347.074 169.619 347.868 164.493 345.059C164.493 345.059 171.876 316.905 159.063 312.019C144.664 306.522 129.838 307.866 129.838 307.866L132.583 294.735V293.941Z" fill="#171717"/>
<path d="M180.113 362.037C177.001 361.365 167.666 357.518 166.263 357.518C164.859 357.579 162.846 359.716 162.846 359.716C162.846 359.716 162.48 360.877 163.517 362.525C165.897 364.419 171.083 367.839 177.062 368.205C181.455 368.511 184.14 366.74 185.665 365.029C184.323 363.747 182.187 362.464 180.113 362.037Z" fill="#525252"/>
<path d="M177.061 368.206C171.081 367.839 165.895 364.419 163.516 362.526C164.187 363.625 165.468 365.03 167.97 366.373C174.01 369.794 184.077 369.305 186.03 368.511C187.616 367.9 187.128 366.435 185.663 364.969C184.138 366.74 181.515 368.511 177.061 368.206Z" fill="#434242"/>
<path d="M159.551 356.296C159.734 357.09 161.93 359.411 163.212 360.693C163.822 361.304 164.676 361.548 165.53 361.365C166.079 361.243 166.689 361.06 167.177 360.754C167.971 360.327 168.215 359.35 167.788 358.556L164.554 352.693L159.551 356.296Z" fill="url(#paint1_linear_303_734)"/>
<path d="M105.311 291.621C105.311 291.621 102.931 308.721 109.887 312.202C116.842 315.683 132.096 318.004 137.343 326.859C142.59 335.715 152.047 353.121 160.65 358.128C160.65 358.128 165.531 356.541 166.995 354.098C166.995 354.098 156.806 327.287 152.535 320.752C148.874 315.133 143.444 306.95 135.817 303.469C133.621 302.491 133.438 300.11 133.865 297.728L134.597 293.392L105.311 291.621Z" fill="black"/>
<path d="M169.74 272.261C159.977 275.07 155.646 247.587 155.646 246.916L140.697 264.443C140.697 264.443 149.605 280.139 163.089 281.788C166.506 282.215 169.374 281.605 171.814 280.505C170.045 277.513 169.618 274.642 169.74 272.261Z" fill="#E5633C"/>
<path d="M187.8 263.222C183.529 261.451 179.929 264.993 179.929 264.993C175.719 269.329 172.364 271.467 169.74 272.261C169.618 274.643 169.984 277.574 171.814 280.505C177.062 278.124 180.112 273.238 181.394 270.795C181.821 269.94 182.919 269.574 183.773 270.001C184.688 270.429 185.603 271.1 185.664 272.016C185.787 273.788 187.922 273.91 187.922 273.238C187.922 272.566 186.275 269.085 186.275 269.085C186.275 269.085 191.156 272.2 193.047 273.421C194.939 274.643 196.586 272.627 196.586 272.627C196.586 272.627 192.071 264.993 187.8 263.222Z" fill="url(#paint2_linear_303_734)"/>
<path d="M109.032 235.556C109.032 235.556 122.15 226.578 153.816 242.763C153.816 242.763 157.05 246.916 155.525 251.557C153.999 256.199 135.207 281.483 134.475 293.331C134.475 293.331 121.601 300.904 104.944 293.392C104.944 293.392 99.3922 262.123 109.032 235.556Z" fill="#EF6238"/>
<path d="M136.304 224.136L131.118 234.274C130.63 235.312 130.691 236.533 131.423 237.388C132.827 239.16 135.816 241.602 140.88 240.015C142.406 239.526 143.565 238.305 143.931 236.778L146.616 225.418L136.304 224.136Z" fill="url(#paint3_linear_303_734)"/>
<path d="M99.3305 271.039C98.4153 264.871 114.767 252.901 114.767 252.901L109.032 235.556C109.032 235.556 77.9149 257.786 84.4433 275.925C85.3585 278.551 86.7618 280.444 88.4702 281.788C91.8259 275.009 96.2799 272.2 99.3305 271.039Z" fill="#EF6238"/>
<path d="M122.089 272.749C122.089 272.749 103.663 277.879 99.8187 272.261C99.5747 271.894 99.3916 271.467 99.3306 271.039C96.2799 272.199 91.826 275.009 88.5312 281.788C97.3172 288.689 114.157 280.933 118.733 278.612C119.465 278.246 120.38 278.185 121.173 278.429C122.821 278.917 125.627 279.711 127.214 279.65C129.532 279.528 131.973 287.834 135.939 285.758C135.878 285.758 134.108 271.467 122.089 272.749Z" fill="url(#paint4_linear_303_734)"/>
<path d="M142.954 207.524C143.198 207.707 152.655 224.563 152.655 224.563L142.954 229.754L131.605 215.158C131.605 215.158 139.293 204.348 142.954 207.524Z" fill="url(#paint5_linear_303_734)"/>
<path d="M136.121 216.685L141.49 224.869C141.551 224.991 141.612 225.052 141.734 225.174C142.283 225.662 144.419 227.25 145.944 224.991C147.287 222.914 148.568 221.082 149.971 220.41C150.642 220.105 151.374 220.349 151.741 220.96C152.595 222.487 154.486 225.968 155.645 229.266C155.889 229.938 155.584 230.67 154.913 230.976C152.961 231.892 148.873 233.602 145.212 234.274C144.724 234.335 144.236 234.152 143.931 233.785C142.405 231.892 137.768 226.09 136.243 224.624C134.779 223.281 132.216 223.952 131.179 224.319C130.813 224.441 130.447 224.441 130.142 224.258C128.983 223.647 126.664 221.998 128.555 218.822C128.983 218.151 128.738 217.296 128.067 216.929C126.725 216.196 125.078 214.608 126.359 211.921C127.64 209.173 130.203 208.929 131.789 209.112C132.46 209.173 133.07 208.745 133.253 208.135C133.376 207.768 133.62 207.463 134.23 207.341C135.023 207.219 135.511 206.425 135.267 205.631C134.901 204.165 134.962 202.15 137.28 200.745C141.49 198.241 145.395 201.905 146.432 205.081C147.531 208.257 142.833 210.761 139.843 211.249C137.585 211.616 136.487 214.242 136.06 215.524C135.816 215.891 135.877 216.318 136.121 216.685Z" fill="#222222"/>
<path d="M138.134 227.555C138.134 227.555 135.999 222.059 133.558 222.364C131.118 222.67 129.287 225.174 132.46 227.8C136.365 230.976 138.134 227.555 138.134 227.555Z" fill="url(#paint6_linear_303_734)"/>
<path d="M145.639 284.536C145.7 284.536 145.7 284.536 145.761 284.536L188.836 284.475C189.874 284.475 190.789 283.62 190.789 282.521C190.789 281.482 189.935 280.566 188.836 280.566L145.761 280.627C144.724 280.627 143.809 281.483 143.809 282.582C143.809 283.62 144.602 284.475 145.639 284.536Z" fill="#434242"/>
<path d="M227.519 245.328H191.643C189.019 245.328 186.579 246.854 185.48 249.236L168.885 284.414H213.486C215.194 284.414 216.719 283.376 217.329 281.788L230.203 249.236C230.935 247.404 229.532 245.328 227.519 245.328Z" fill="#434242"/>
<path d="M202.26 263.405C201.467 265.848 202.077 268.169 203.541 268.657C205.006 269.146 206.836 267.558 207.629 265.176C208.422 262.733 207.812 260.412 206.348 259.924C204.884 259.435 203.053 260.962 202.26 263.405Z" fill="#EF6238"/>
<path d="M221.723 377C221.967 377 222.211 376.939 222.455 376.878C223.37 376.511 223.797 375.473 223.431 374.557L185.481 288.994C185.115 288.078 184.016 287.712 183.101 288.078C182.186 288.445 181.759 289.483 182.125 290.399L220.075 375.962C220.319 376.572 220.99 377 221.723 377Z" fill="#434343"/>
<path d="M178.953 377C179.624 377 180.295 376.572 180.6 375.962L218.551 290.399C218.917 289.483 218.551 288.506 217.575 288.078C216.659 287.712 215.561 288.078 215.195 288.994L177.245 374.557C176.879 375.473 177.245 376.45 178.221 376.878C178.465 376.939 178.709 377 178.953 377Z" fill="#434343"/>
<path d="M104.211 377C104.455 377 104.699 376.939 104.943 376.878C105.858 376.511 106.285 375.473 105.919 374.557L67.9689 288.994C67.6028 288.078 66.5046 287.712 65.5894 288.078C64.6742 288.445 64.2471 289.483 64.6132 290.399L102.502 375.962C102.808 376.572 103.479 377 104.211 377Z" fill="#434343"/>
<path d="M61.4414 377C62.1125 377 62.7837 376.572 63.0887 375.962L101.039 290.399C101.405 289.483 101.039 288.506 100.063 288.078C99.1476 287.712 98.0494 288.078 97.6833 288.994L59.733 374.557C59.3669 375.473 59.733 376.45 60.7092 376.878C60.9533 376.939 61.1973 377 61.4414 377Z" fill="#434343"/>
<path d="M56.9874 286.369C56.8654 285.819 57.0485 285.208 57.3535 284.781C57.6586 284.353 58.1467 284.109 58.6958 284.109H231.425C232.096 284.109 232.706 284.475 233.072 285.147C233.438 285.758 233.499 286.552 233.194 287.285L231.303 291.804C230.875 292.842 229.96 293.514 228.923 293.514H59.8551C58.8789 293.514 58.0857 292.781 57.9026 291.743L56.9874 286.369Z" fill="#222222"/>
<path d="M383.468 243.923C383.468 243.923 370.289 260.84 385.298 278.062L390.972 277.513C390.972 277.513 380.051 259.985 384.932 246.06L392.925 245.144L397.379 240.747L383.468 243.923Z" fill="url(#paint7_linear_303_734)"/>
<path d="M390.668 325.576C390.668 325.576 401.345 348.906 406.959 358.555C406.959 358.555 408.057 364.663 406.959 366.556L405.982 366.984L410.436 366.861C410.436 366.861 410.802 358.678 410.497 358.25C410.192 357.823 409.582 357.823 409.582 357.823C409.582 357.823 407.691 342.738 402.2 339.562L396.891 321.179L390.668 325.576Z" fill="url(#paint8_linear_303_734)"/>
<path d="M404.152 368.144C404.152 368.266 407.63 368.205 409.522 368.144C410.193 368.144 410.803 367.655 410.986 366.984L412.389 359.533C412.511 358.8 412.084 358.128 411.352 357.945L410.559 357.762C410.559 357.762 409.399 359.289 409.766 360.754C410.132 362.22 410.437 366.007 409.522 366.434C408.606 366.862 406.044 366.984 406.044 366.984C406.044 366.984 404.213 367.167 404.152 368.144Z" fill="#222222"/>
<path d="M380.539 368.266C380.173 368.45 380.356 368.999 380.722 368.999C383.895 368.938 390.912 368.877 391.583 368.633C392.376 368.266 391.278 365.396 390.118 364.419L383.712 366.495L380.539 368.266Z" fill="#222222"/>
<path d="M378.527 324.111C378.527 324.111 385.422 357.579 387.374 364.113L382.737 367.045C382.737 367.045 385.056 366.678 386.764 366.495C388.473 366.373 390.059 364.419 390.059 364.419L389.51 363.564C389.51 363.564 387.801 330.279 388.228 326.493L378.527 324.111Z" fill="url(#paint9_linear_303_734)"/>
<path d="M361.382 246.06L363.639 244.228L364.249 243.251C364.31 243.129 364.31 242.946 364.249 242.885C364.188 242.762 364.005 242.701 363.883 242.701C362.297 242.946 359.978 243.495 359.49 242.396L357.355 239.342C356.867 238.243 356.684 237.083 355.707 236.472L355.402 236.289C354.914 235.983 354.304 236.289 354.182 236.777L353.755 238.365C353.328 240.075 358.636 247.954 358.636 248.686C358.087 272.383 372.425 281.055 372.425 281.055L376.208 272.383C360.466 263.466 361.382 246.06 361.382 246.06Z" fill="url(#paint10_linear_303_734)"/>
<path d="M375.72 271.039C378.343 271.772 387.312 274.154 392.926 274.032L389.509 293.453L389.753 296.628L378.527 296.567C378.527 296.567 375.354 289.239 372.852 285.574C372.12 284.536 372.669 283.254 373.096 282.032L372.547 281.666C371.998 281.299 371.754 280.566 371.937 279.895L374.683 271.528C374.866 271.161 375.293 270.917 375.72 271.039Z" fill="#EF6238"/>
<path d="M377.673 294.979L377.917 296.873C377.917 296.873 374.744 306.4 379.503 328.569C379.503 328.569 389.814 331.501 398.234 324.477C398.234 324.477 395.855 303.529 395.184 302.552C391.95 297.666 389.753 296.628 389.753 296.628L389.631 294.552C389.692 294.552 380.662 296.201 377.673 294.979Z" fill="#222222"/>
<path d="M382.066 272.627C382.005 272.566 384.384 265.42 384.384 265.42L387.801 265.726L389.143 273.848C389.143 273.848 383.774 274.948 382.066 272.627Z" fill="url(#paint11_linear_303_734)"/>
<path d="M387.007 254.183C386.763 254.305 379.746 257.237 381.211 264.565C381.272 264.993 381.577 265.359 382.004 265.542C383.041 266.031 385.298 266.825 387.922 266.52C391.644 266.153 394.023 259.679 393.962 257.786C393.84 255.954 389.264 252.778 387.007 254.183Z" fill="url(#paint12_linear_303_734)"/>
<path d="M389.144 251.312C388.961 251.312 385.056 252.717 387.008 255.526C388.961 258.336 389.693 259.985 388.777 261.267C387.923 262.428 386.093 261.756 386.276 264.077C386.337 264.565 386.093 264.993 385.727 265.298C384.018 266.458 379.747 270.123 383.957 275.253C384.323 275.68 384.385 276.23 384.079 276.719C382.859 278.917 380.297 285.391 389.632 288.994C398.845 292.536 402.2 286.49 403.116 284.047C403.299 283.498 403.848 283.192 404.397 283.253C405.434 283.314 406.837 283.131 406.776 281.788C406.715 280.933 406.227 280.2 405.617 279.65C405.007 279.039 405.129 278.062 405.861 277.635C406.41 277.329 406.898 276.841 407.081 276.047C407.631 273.97 406.532 267.741 400.553 266.703C400.065 266.642 399.516 266.153 399.455 265.664C399.394 265.176 399.516 264.687 399.943 264.382C400.919 263.71 402.139 262.305 401.102 260.046C400.248 258.03 398.54 257.359 397.319 257.175C396.587 257.053 396.099 256.381 396.282 255.649C396.709 253.572 396.343 250.396 389.144 251.312Z" fill="#222222"/>
<path d="M459.554 360.693C459.554 360.693 459.981 363.136 460.225 365.579C460.286 366.556 459.554 367.35 458.638 367.411C455.405 367.533 448.449 367.839 445.948 367.717C445.582 367.717 445.337 367.289 445.459 366.984C445.582 366.678 445.826 366.434 446.07 366.312L457.54 361.06L459.554 360.693Z" fill="#525252"/>
<path d="M459.919 359.289L459.553 362.22C459.553 362.22 457.54 363.136 456.197 362.098L457.051 358.8L459.919 359.289Z" fill="url(#paint13_linear_303_734)"/>
<path d="M459.614 303.835C459.737 304.629 460.408 342.25 456.381 359.106C456.32 359.411 456.442 359.655 456.686 359.777C457.296 360.022 458.516 360.388 459.981 360.449C460.408 360.449 460.835 360.144 460.957 359.716C462.116 355.808 467.607 336.203 468.339 317.454C469.133 296.506 468.339 316.721 468.339 316.721L467.851 303.774L459.614 303.835Z" fill="#222222"/>
<path d="M472.732 361.976C472.732 361.976 473.403 363.198 474.074 366.557C474.196 367.167 473.769 367.717 473.159 367.778C472.061 367.9 470.414 368.022 469.132 368.022C468.522 368.022 468.034 367.473 468.095 366.862C468.217 365.64 468.705 363.686 470.108 362.159L472.732 361.976Z" fill="#525252"/>
<path d="M473.343 358.19L472.549 362.648C472.549 362.648 471.756 363.259 470.17 362.831L470.536 358.006L473.343 358.19Z" fill="url(#paint14_linear_303_734)"/>
<path d="M475.538 304.995C478.833 324.844 474.806 354.098 473.464 359.777C473.403 360.144 473.098 360.388 472.732 360.449C472.121 360.571 471.145 360.632 470.169 360.327C469.803 360.205 469.62 359.9 469.559 359.594C469.376 354.953 469.681 326.554 466.63 315.378C466.447 314.828 466.142 314.339 465.654 313.973L459.736 309.759L459.309 302.919L475.538 304.995Z" fill="#222222"/>
<path d="M454.611 267.375C464.434 267.192 475.355 269.94 475.355 269.94C478.284 287.101 475.843 306.889 475.843 306.889C468.217 308.904 459.614 305.667 459.614 305.667C458.332 298.522 452.414 278.307 452.414 278.307C447.594 277.696 443.628 276.292 440.395 274.459C442.896 271.589 444.055 267.864 444.543 265.726C448.021 266.825 451.56 267.436 454.611 267.375Z" fill="#EF6238"/>
<path d="M425.508 252.84C426.484 251.68 427.704 252.229 427.704 252.229C429.169 258.336 436.734 263.344 444.544 265.787C444.056 267.986 442.836 271.65 440.395 274.521C427.399 267.192 425.508 252.84 425.508 252.84Z" fill="url(#paint15_linear_303_734)"/>
<path d="M425.691 253.145C425.569 253.45 426.789 253.939 427.46 252.657C427.46 252.046 427.887 249.298 427.521 248.809C425.508 246.061 421.603 242.641 421.603 242.641C420.932 243.312 421.481 243.923 421.481 243.923L423.373 245.877C423.006 246.61 422.518 247.221 422.274 248.076C422.091 248.748 422.213 249.42 422.518 250.03C422.823 250.641 423.311 251.435 423.739 251.985C424.593 253.145 425.691 253.145 425.691 253.145Z" fill="url(#paint16_linear_303_734)"/>
<path d="M424.226 247.16L425.935 248.626L426.484 250.092L424.958 251.802C424.958 251.802 424.47 248.931 424.043 248.321C423.677 247.649 423.86 247.343 424.226 247.16Z" fill="url(#paint17_linear_303_734)"/>
<path d="M471.512 279.528L475.295 269.94C475.295 269.94 484.508 276.169 486.033 284.109C484.264 284.231 481.152 284.719 478.04 286.246C477.369 282.582 471.512 279.528 471.512 279.528Z" fill="#EF6238"/>
<path d="M463.52 288.506C463.52 288.506 473.831 294.369 477.309 289.361C478.041 288.323 478.224 287.285 478.041 286.307C481.153 284.72 484.326 284.292 486.034 284.17C486.461 286.552 486.278 289.117 484.875 291.682C478.773 302.858 462.178 291.071 462.178 291.071L463.52 288.506Z" fill="url(#paint18_linear_303_734)"/>
<path d="M464.739 295.896L459.126 276.17C459.065 275.925 458.882 275.803 458.637 275.742C457.6 275.62 454.672 275.315 451.255 275.009C447.167 274.643 442.347 274.398 439.479 274.643C439.052 274.704 438.808 275.131 438.991 275.498C440.639 278.796 447.289 292.171 450.645 296.568C450.767 296.69 450.95 296.812 451.133 296.812L464.19 296.69C464.556 296.629 464.861 296.262 464.739 295.896Z" fill="#434242"/>
<path d="M450.645 273.299L446.557 272.627C446.313 272.566 446.191 272.81 446.252 272.994L446.679 274.215C446.74 274.337 446.801 274.398 446.923 274.398L450.828 274.948C451.011 274.948 451.194 274.765 451.133 274.582L450.889 273.482C450.828 273.421 450.767 273.36 450.645 273.299Z" fill="#434242"/>
<path d="M453.695 276.78L453.329 275.009C453.268 274.826 453.146 274.704 452.963 274.704L444.726 273.849C444.421 273.849 444.238 274.093 444.299 274.337L444.848 276.536C444.909 276.719 445.031 276.841 445.214 276.841L453.268 277.269C453.512 277.269 453.756 277.024 453.695 276.78Z" fill="#222222"/>
<path d="M463.397 291.132C463.397 291.132 464.19 287.896 463.885 286.735C463.58 285.575 462.97 284.109 460.895 284.414C458.821 284.72 456.441 285.575 456.441 285.575C456.441 285.575 456.563 287.041 458.089 286.613L457.113 287.346C457.113 287.346 457.235 288.567 458.577 287.896L457.662 288.873C457.662 288.873 458.211 289.85 459.187 289.239C460.163 288.69 460.651 291.499 463.397 291.132Z" fill="url(#paint19_linear_303_734)"/>
<path d="M464.557 259.375L467.668 268.474C467.729 268.596 467.668 268.78 467.546 268.841C466.692 269.329 463.642 270.673 459.92 268.352C459.554 268.108 459.249 267.68 459.188 267.253L458.15 259.375H464.557Z" fill="url(#paint20_linear_303_734)"/>
<path d="M457.724 250.946C457.724 250.946 454.307 257.42 454.734 260.046C455.161 262.672 459.432 262.489 463.154 260.351L465.778 253.328L457.724 250.946Z" fill="url(#paint21_linear_303_734)"/>
<path d="M463.033 256.931C462.911 256.87 462.85 256.687 462.911 256.565C463.216 256.138 463.704 255.283 463.887 254.55C463.887 254.55 464.497 254.183 462.301 253.634C460.104 253.084 456.81 252.29 456.138 250.397C455.467 248.565 457.237 243.984 460.043 247.648C460.165 247.771 460.348 247.771 460.47 247.648C460.958 247.038 462.118 245.816 463.826 246.549C465.412 247.282 465.595 248.381 465.534 248.992C465.534 249.175 465.656 249.297 465.84 249.236C466.633 249.114 468.524 248.931 469.439 250.885C470.172 252.473 469.683 253.389 469.256 253.878C469.134 254 469.195 254.244 469.378 254.305C469.927 254.489 470.599 254.916 470.538 256.138C470.416 257.848 468.524 257.664 468.036 257.603C467.975 257.603 467.853 257.603 467.792 257.664C467.304 258.153 465.229 260.352 462.972 260.596C462.789 260.596 462.606 260.413 462.667 260.229L463.643 257.42C463.704 257.298 463.643 257.115 463.521 257.115L463.033 256.931Z" fill="#222222"/>
<path d="M462.606 257.359C462.606 257.359 465.046 255.649 465.229 257.115C465.412 258.519 463.033 259.191 461.812 258.641L462.606 257.359Z" fill="url(#paint22_linear_303_734)"/>
<path d="M85.4808 83.4247C85.7858 83.0583 86.2129 82.9362 86.64 82.9362L133.62 87.2723V80.6154C133.62 80.249 133.803 79.9436 134.047 79.7604C134.352 79.5772 134.658 79.5161 135.024 79.6383L166.262 91.6084C166.69 91.7917 166.934 92.1581 166.934 92.5856C166.934 93.0131 166.69 93.3795 166.262 93.5628L135.024 105.533C134.719 105.655 134.352 105.594 134.047 105.411C133.742 105.228 133.62 104.922 133.62 104.556V100.342L92.0092 102.296C90.6059 102.357 89.3246 101.441 89.0195 100.036L85.1757 84.5851C85.1147 84.2187 85.2367 83.7301 85.4808 83.4247Z" fill="#EF6238"/>
<path d="M162.236 93.135C162.114 93.135 161.992 93.135 161.93 93.074L137.403 83.9131C137.342 83.9131 137.342 83.9742 137.342 84.0352V88.921C137.342 89.4096 136.915 89.8371 136.427 89.8371C135.939 89.8371 135.512 89.4096 135.512 88.921V84.0352C135.512 83.3635 135.817 82.7527 136.305 82.4474C136.854 82.0809 137.464 82.0199 138.013 82.2031L162.541 91.3639C163.029 91.5472 163.273 92.0968 163.09 92.5243C162.968 92.8907 162.602 93.135 162.236 93.135Z" fill="white"/>
<path d="M132.338 90.2037C132.277 90.2037 132.216 90.2037 132.216 90.2037L129.715 89.7762C129.227 89.7151 128.861 89.2266 128.983 88.738C129.044 88.2494 129.532 87.883 130.02 88.0051L132.521 88.4326C133.01 88.4937 133.376 88.9823 133.254 89.4709C133.193 89.8984 132.765 90.2037 132.338 90.2037Z" fill="white"/>
<path d="M123.492 117.015C123.187 116.648 122.699 116.465 122.211 116.526L71.3865 121.168V113.961C71.3865 113.595 71.2035 113.228 70.8984 113.045C70.5934 112.862 70.2273 112.801 69.8612 112.923L36.1208 125.87C35.6937 126.053 35.3887 126.481 35.3887 126.909C35.3887 127.397 35.6937 127.764 36.1208 127.947L69.8612 140.894C70.2273 141.016 70.5934 140.955 70.8984 140.772C71.2035 140.589 71.3865 140.222 71.3865 139.856V135.337L116.353 137.413C117.879 137.474 119.221 136.497 119.587 134.97L123.736 118.236C123.919 117.87 123.797 117.381 123.492 117.015Z" fill="#EF6238"/>
<path d="M40.6962 127.519C40.3301 127.519 39.964 127.275 39.842 126.908C39.659 126.42 39.903 125.931 40.3911 125.748L66.8099 115.793C67.4201 115.549 68.1522 115.671 68.7013 116.037C69.2505 116.404 69.6165 117.076 69.6165 117.686V123.122C69.6165 123.61 69.1894 124.038 68.7013 124.038C68.2132 124.038 67.7861 123.61 67.7861 123.122V117.686C67.7861 117.686 67.7251 117.564 67.6641 117.503C67.6031 117.503 67.5421 117.442 67.4201 117.503L41.0013 127.458C40.8792 127.519 40.8182 127.519 40.6962 127.519Z" fill="white"/>
<path d="M72.8507 124.283C72.4236 124.283 71.9965 123.977 71.9355 123.489C71.8745 123 72.1795 122.511 72.6676 122.45L75.4132 122.023C75.9013 121.962 76.3894 122.267 76.4505 122.756C76.5115 123.244 76.2064 123.733 75.7183 123.794L72.9727 124.221C72.9727 124.283 72.9117 124.283 72.8507 124.283Z" fill="white"/>
</g>
<defs>
<linearGradient id="paint0_linear_303_734" x1="164.136" y1="349.565" x2="172.095" y2="347.805" gradientUnits="userSpaceOnUse">
<stop stop-color="#F9B776"/>
<stop offset="1" stop-color="#F47960"/>
</linearGradient>
<linearGradient id="paint1_linear_303_734" x1="160.007" y1="358.192" x2="167.477" y2="356.54" gradientUnits="userSpaceOnUse">
<stop stop-color="#F9B776"/>
<stop offset="1" stop-color="#F47960"/>
</linearGradient>
<linearGradient id="paint2_linear_303_734" x1="169.488" y1="273.54" x2="195.547" y2="267.778" gradientUnits="userSpaceOnUse">
<stop stop-color="#F9B776"/>
<stop offset="1" stop-color="#F47960"/>
</linearGradient>
<linearGradient id="paint3_linear_303_734" x1="130.389" y1="233.935" x2="147.679" y2="230.112" gradientUnits="userSpaceOnUse">
<stop stop-color="#F9B776"/>
<stop offset="1" stop-color="#F47960"/>
</linearGradient>
<linearGradient id="paint4_linear_303_734" x1="116.661" y1="277.189" x2="47.9166" y2="373.359" gradientUnits="userSpaceOnUse">
<stop stop-color="#F9B776"/>
<stop offset="1" stop-color="#F47960"/>
</linearGradient>
<linearGradient id="paint5_linear_303_734" x1="140.224" y1="210.901" x2="147.892" y2="246.834" gradientUnits="userSpaceOnUse">
<stop stop-color="#F9B776"/>
<stop offset="1" stop-color="#F47960"/>
</linearGradient>
<linearGradient id="paint6_linear_303_734" x1="136.54" y1="250.628" x2="134.384" y2="225.259" gradientUnits="userSpaceOnUse">
<stop stop-color="#F9B776"/>
<stop offset="1" stop-color="#F47960"/>
</linearGradient>
<linearGradient id="paint7_linear_303_734" x1="393.602" y1="238.989" x2="383.34" y2="270.415" gradientUnits="userSpaceOnUse">
<stop stop-color="#F9B776"/>
<stop offset="1" stop-color="#F47960"/>
</linearGradient>
<linearGradient id="paint8_linear_303_734" x1="390.685" y1="344.076" x2="410.675" y2="344.076" gradientUnits="userSpaceOnUse">
<stop stop-color="#F9B776"/>
<stop offset="1" stop-color="#F47960"/>
</linearGradient>
<linearGradient id="paint9_linear_303_734" x1="378.556" y1="345.564" x2="390.132" y2="345.564" gradientUnits="userSpaceOnUse">
<stop stop-color="#F9B776"/>
<stop offset="1" stop-color="#F47960"/>
</linearGradient>
<linearGradient id="paint10_linear_303_734" x1="353.758" y1="258.632" x2="376.28" y2="258.632" gradientUnits="userSpaceOnUse">
<stop stop-color="#F9B776"/>
<stop offset="1" stop-color="#F47960"/>
</linearGradient>
<linearGradient id="paint11_linear_303_734" x1="382.065" y1="269.768" x2="389.148" y2="269.768" gradientUnits="userSpaceOnUse">
<stop stop-color="#F9B776"/>
<stop offset="1" stop-color="#F47960"/>
</linearGradient>
<linearGradient id="paint12_linear_303_734" x1="393.322" y1="260.605" x2="444.883" y2="264.108" gradientUnits="userSpaceOnUse">
<stop stop-color="#F9B776"/>
<stop offset="1" stop-color="#F47960"/>
</linearGradient>
<linearGradient id="paint13_linear_303_734" x1="459.89" y1="360.707" x2="456.16" y2="360.707" gradientUnits="userSpaceOnUse">
<stop stop-color="#F9B776"/>
<stop offset="1" stop-color="#F47960"/>
</linearGradient>
<linearGradient id="paint14_linear_303_734" x1="473.333" y1="360.516" x2="470.113" y2="360.516" gradientUnits="userSpaceOnUse">
<stop stop-color="#F9B776"/>
<stop offset="1" stop-color="#F47960"/>
</linearGradient>
<linearGradient id="paint15_linear_303_734" x1="428.423" y1="241.078" x2="435.016" y2="259.896" gradientUnits="userSpaceOnUse">
<stop stop-color="#F9B776"/>
<stop offset="1" stop-color="#F47960"/>
</linearGradient>
<linearGradient id="paint16_linear_303_734" x1="422.798" y1="243.049" x2="429.391" y2="261.866" gradientUnits="userSpaceOnUse">
<stop stop-color="#F9B776"/>
<stop offset="1" stop-color="#F47960"/>
</linearGradient>
<linearGradient id="paint17_linear_303_734" x1="427.854" y1="255.074" x2="422.889" y2="245.068" gradientUnits="userSpaceOnUse">
<stop stop-color="#F9B776"/>
<stop offset="1" stop-color="#F47960"/>
</linearGradient>
<linearGradient id="paint18_linear_303_734" x1="486.24" y1="290.32" x2="462.125" y2="290.32" gradientUnits="userSpaceOnUse">
<stop stop-color="#F9B776"/>
<stop offset="1" stop-color="#F47960"/>
</linearGradient>
<linearGradient id="paint19_linear_303_734" x1="463.914" y1="287.79" x2="456.401" y2="287.79" gradientUnits="userSpaceOnUse">
<stop stop-color="#F9B776"/>
<stop offset="1" stop-color="#F47960"/>
</linearGradient>
<linearGradient id="paint20_linear_303_734" x1="467.722" y1="264.515" x2="458.188" y2="264.515" gradientUnits="userSpaceOnUse">
<stop stop-color="#F9B776"/>
<stop offset="1" stop-color="#F47960"/>
</linearGradient>
<linearGradient id="paint21_linear_303_734" x1="455.921" y1="258.443" x2="466.409" y2="252.052" gradientUnits="userSpaceOnUse">
<stop stop-color="#F9B776"/>
<stop offset="1" stop-color="#F47960"/>
</linearGradient>
<linearGradient id="paint22_linear_303_734" x1="458.675" y1="260.83" x2="468.112" y2="255.08" gradientUnits="userSpaceOnUse">
<stop stop-color="#F9B776"/>
<stop offset="1" stop-color="#F47960"/>
</linearGradient>
<clipPath id="clip0_303_734">
<rect width="631" height="377" fill="white"/>
</clipPath>
</defs>
</svg>
