<svg xmlns="http://www.w3.org/2000/svg" width="631" height="377" viewBox="0 0 631 377" fill="none" clip-path="url(#ClipPath-1)"><defs><linearGradient id="Gradient-0" x1="164.1" y1="349.6" x2="172.1" y2="347.8" gradientUnits="userSpaceOnUse"><stop offset="0" stop-color="#f9b776"/><stop offset="1" stop-color="#f47960"/></linearGradient><linearGradient id="Gradient-1" x1="160" y1="358.2" x2="167.5" y2="356.5" gradientUnits="userSpaceOnUse"><stop offset="0" stop-color="#f9b776"/><stop offset="1" stop-color="#f47960"/></linearGradient><linearGradient id="Gradient-2" x1="169.5" y1="273.5" x2="195.5" y2="267.8" gradientUnits="userSpaceOnUse"><stop offset="0" stop-color="#f9b776"/><stop offset="1" stop-color="#f47960"/></linearGradient><linearGradient id="Gradient-3" x1="130.4" y1="233.9" x2="147.7" y2="230.1" gradientUnits="userSpaceOnUse"><stop offset="0" stop-color="#f9b776"/><stop offset="1" stop-color="#f47960"/></linearGradient><linearGradient id="Gradient-4" x1="116.7" y1="277.2" x2="47.9" y2="373.4" gradientUnits="userSpaceOnUse"><stop offset="0" stop-color="#f9b776"/><stop offset="1" stop-color="#f47960"/></linearGradient><linearGradient id="Gradient-5" x1="140.2" y1="210.9" x2="147.9" y2="246.8" gradientUnits="userSpaceOnUse"><stop offset="0" stop-color="#f9b776"/><stop offset="1" stop-color="#f47960"/></linearGradient><linearGradient id="Gradient-6" x1="136.5" y1="250.6" x2="134.4" y2="225.3" gradientUnits="userSpaceOnUse"><stop offset="0" stop-color="#f9b776"/><stop offset="1" stop-color="#f47960"/></linearGradient><linearGradient id="Gradient-7" x1="393.6" y1="239" x2="383.3" y2="270.4" gradientUnits="userSpaceOnUse"><stop offset="0" stop-color="#f9b776"/><stop offset="1" stop-color="#f47960"/></linearGradient><linearGradient id="Gradient-8" x1="390.7" y1="344.1" x2="410.7" y2="344.1" gradientUnits="userSpaceOnUse"><stop offset="0" stop-color="#f9b776"/><stop offset="1" stop-color="#f47960"/></linearGradient><linearGradient id="Gradient-9" x1="378.6" y1="345.6" x2="390.1" y2="345.6" gradientUnits="userSpaceOnUse"><stop offset="0" stop-color="#f9b776"/><stop offset="1" stop-color="#f47960"/></linearGradient><linearGradient id="Gradient-10" x1="353.8" y1="258.6" x2="376.3" y2="258.6" gradientUnits="userSpaceOnUse"><stop offset="0" stop-color="#f9b776"/><stop offset="1" stop-color="#f47960"/></linearGradient><linearGradient id="Gradient-11" x1="382.1" y1="269.8" x2="389.1" y2="269.8" gradientUnits="userSpaceOnUse"><stop offset="0" stop-color="#f9b776"/><stop offset="1" stop-color="#f47960"/></linearGradient><linearGradient id="Gradient-12" x1="393.3" y1="260.6" x2="444.9" y2="264.1" gradientUnits="userSpaceOnUse"><stop offset="0" stop-color="#f9b776"/><stop offset="1" stop-color="#f47960"/></linearGradient><linearGradient id="Gradient-13" x1="459.9" y1="360.7" x2="456.2" y2="360.7" gradientUnits="userSpaceOnUse"><stop offset="0" stop-color="#f9b776"/><stop offset="1" stop-color="#f47960"/></linearGradient><linearGradient id="Gradient-14" x1="473.3" y1="360.5" x2="470.1" y2="360.5" gradientUnits="userSpaceOnUse"><stop offset="0" stop-color="#f9b776"/><stop offset="1" stop-color="#f47960"/></linearGradient><linearGradient id="Gradient-15" x1="428.4" y1="241.1" x2="435" y2="259.9" gradientUnits="userSpaceOnUse"><stop offset="0" stop-color="#f9b776"/><stop offset="1" stop-color="#f47960"/></linearGradient><linearGradient id="Gradient-16" x1="422.8" y1="243" x2="429.4" y2="261.9" gradientUnits="userSpaceOnUse"><stop offset="0" stop-color="#f9b776"/><stop offset="1" stop-color="#f47960"/></linearGradient><linearGradient id="Gradient-17" x1="427.9" y1="255.1" x2="422.9" y2="245.1" gradientUnits="userSpaceOnUse"><stop offset="0" stop-color="#f9b776"/><stop offset="1" stop-color="#f47960"/></linearGradient><linearGradient id="Gradient-18" x1="486.2" y1="290.3" x2="462.1" y2="290.3" gradientUnits="userSpaceOnUse"><stop offset="0" stop-color="#f9b776"/><stop offset="1" stop-color="#f47960"/></linearGradient><linearGradient id="Gradient-19" x1="463.9" y1="287.8" x2="456.4" y2="287.8" gradientUnits="userSpaceOnUse"><stop offset="0" stop-color="#f9b776"/><stop offset="1" stop-color="#f47960"/></linearGradient><linearGradient id="Gradient-20" x1="467.7" y1="264.5" x2="458.2" y2="264.5" gradientUnits="userSpaceOnUse"><stop offset="0" stop-color="#f9b776"/><stop offset="1" stop-color="#f47960"/></linearGradient><linearGradient id="Gradient-21" x1="455.9" y1="258.4" x2="466.4" y2="252.1" gradientUnits="userSpaceOnUse"><stop offset="0" stop-color="#f9b776"/><stop offset="1" stop-color="#f47960"/></linearGradient><linearGradient id="Gradient-22" x1="458.7" y1="260.8" x2="468.1" y2="255.1" gradientUnits="userSpaceOnUse"><stop offset="0" stop-color="#f9b776"/><stop offset="1" stop-color="#f47960"/></linearGradient><clipPath id="ClipPath-1"><rect width="631" height="377" fill="#fff"/></clipPath></defs><style>
@keyframes a0_t { 0% { transform: translate(376.3px,209.8px) rotate(0deg) translate(-44.4px,-44.5px); } 100% { transform: translate(376.3px,209.8px) rotate(-360deg) translate(-44.4px,-44.5px); } }
@keyframes a1_t { 0% { transform: translate(240.9px,207.6px) rotate(0deg) translate(-35.1px,-35.1px); } 100% { transform: translate(240.9px,207.6px) rotate(-360deg) translate(-35.1px,-35.1px); } }
@keyframes a2_t { 0% { transform: translate(451.7px,182.8px) rotate(0deg) translate(-22.7px,-22.7px); } 100% { transform: translate(451.7px,182.8px) rotate(720deg) translate(-22.7px,-22.7px); } }
@keyframes a3_t { 0% { transform: translate(307px,242.5px) rotate(0deg) translate(-22.7px,-22.7px); } 100% { transform: translate(307px,242.5px) rotate(720deg) translate(-22.7px,-22.7px); } }
@keyframes a4_t { 0% { transform: translate(194.9px,163.2px) rotate(0deg) translate(-20px,-20.1px); } 100% { transform: translate(194.9px,163.2px) rotate(720deg) translate(-20px,-20.1px); } }
@keyframes a5_t { 0% { transform: translate(140.8px,217.1px) rotate(0deg) translate(-14.9px,-17.2px); animation-timing-function: cubic-bezier(0,0,.6,1); } 15% { transform: translate(140.8px,217.1px) rotate(4deg) translate(-14.9px,-17.2px); animation-timing-function: cubic-bezier(0,0,.6,1); } 30% { transform: translate(140.8px,217.1px) rotate(0deg) translate(-14.9px,-17.2px); } 100% { transform: translate(140.8px,217.1px) rotate(0deg) translate(-14.9px,-17.2px); } }
@keyframes a6_t { 0% { transform: translate(394.1px,270.6px) rotate(0deg) translate(-13.1px,-19.5px); animation-timing-function: cubic-bezier(0,0,.6,1); } 37.5% { transform: translate(394.1px,270.6px) rotate(-6deg) translate(-13.1px,-19.5px); animation-timing-function: cubic-bezier(0,0,.6,1); } 75% { transform: translate(394.1px,270.6px) rotate(0deg) translate(-13.1px,-19.5px); } 100% { transform: translate(394.1px,270.6px) rotate(0deg) translate(-13.1px,-19.5px); } }
@keyframes a7_d { 0% { d: path('M425.5,252.8C426.5,251.7,427.7,252.2,427.7,252.2C429.2,258.3,436.7,263.3,444.5,265.8C444.1,268,442.8,271.7,440.4,274.5C427.4,267.2,425.5,252.8,425.5,252.8Z'); } 100% { d: path('M425.5,252.8C426.5,251.7,427.7,252.2,427.7,252.2C429.2,258.3,436.7,263.3,444.5,265.8C444.1,268,442.8,271.7,440.4,274.5C427.4,267.2,425.5,252.8,425.5,252.8Z'); } }
@keyframes a8_d { 0% { d: path('M425.7,253.1C425.6,253.5,426.8,253.9,427.5,252.7C427.5,252,427.9,249.3,427.5,248.8C425.5,246.1,421.6,242.6,421.6,242.6C420.9,243.3,421.5,243.9,421.5,243.9L423.4,245.9C423,246.6,422.5,247.2,422.3,248.1C422.1,248.7,422.2,249.4,422.5,250C422.8,250.6,423.3,251.4,423.7,252C424.6,253.1,425.7,253.1,425.7,253.1Z'); } 100% { d: path('M425.7,253.1C425.6,253.5,426.8,253.9,427.5,252.7C427.5,252,427.9,249.3,427.5,248.8C425.5,246.1,421.6,242.6,421.6,242.6C420.9,243.3,421.5,243.9,421.5,243.9L423.4,245.9C423,246.6,422.5,247.2,422.3,248.1C422.1,248.7,422.2,249.4,422.5,250C422.8,250.6,423.3,251.4,423.7,252C424.6,253.1,425.7,253.1,425.7,253.1Z'); } }
@keyframes a9_d { 0% { d: path('M424.2,247.2L425.9,248.6L426.5,250.1L425,251.8C425,251.8,424.5,248.9,424,248.3C423.7,247.6,423.9,247.3,424.2,247.2Z'); } 100% { d: path('M424.2,247.2L425.9,248.6L426.5,250.1L425,251.8C425,251.8,424.5,248.9,424,248.3C423.7,247.6,423.9,247.3,424.2,247.2Z'); } }
@keyframes a10_t { 0% { transform: translate(463.5px,285.9px) rotate(0deg) translate(-23.9px,-12.1px); } 37.5% { transform: translate(463.5px,285.9px) rotate(5deg) translate(-23.9px,-12.1px); } 75% { transform: translate(463.5px,285.9px) rotate(0deg) translate(-23.9px,-12.1px); } 100% { transform: translate(463.5px,285.9px) rotate(0deg) translate(-23.9px,-12.1px); } }
@keyframes a11_t { 0% { transform: translate(98.7px,83.9px); animation-timing-function: cubic-bezier(.4,0,.6,1); } 50% { transform: translate(106.7px,78.2px); animation-timing-function: cubic-bezier(.4,0,.6,1); } 100% { transform: translate(98.7px,83.9px); } }
@keyframes a12_t { 0% { transform: translate(35.4px,112.9px); animation-timing-function: cubic-bezier(.4,0,.6,1); } 50% { transform: translate(33.4px,117.1px); animation-timing-function: cubic-bezier(.4,0,.6,1); } 100% { transform: translate(35.4px,112.9px); } }
</style><path opacity=".4" d="M620 170.7c-16.7-23.6-52.2-36.3-53.1-71.6c-0.6-23 9.7-35.5-6.8-55.1c-40-47.5-101.6-53-154.2-33.3c-52.6 19.8-94.7 59.6-153.1 57.2c-31.9-1.3-61.5-16.6-92.9-19.5c-9.7-0.8-18.8-0.1-27.3 2.1c-31.8 8.3-59.9 39.1-70.5 73.4c-8.5 27.8 2.4 55.3-11.1 82.5c-14.3 29-42.6 49.2-49.7 82.8c-8.6 40.2 24.1 75.2 59.1 76.3c22.3 .7 63.7-2.9 82.6-16.8c23.1-16.9 45.8-18 72.7-17.4c51.2 1.2 102.4 12.9 152.9 21.1c43.4 7.1 86.3 5.7 130.1 7.1c32.2 .9 59.5 13.3 76.9-22.1c21-42.2 79.6-117.2 44.4-166.7Z" fill="#eef5f9"/><path d="M251.8 261.8h146.9c4.7 0 8.4-3.8 8.4-8.5v-220.3c0-4.7-3.7-8.4-8.4-8.4l-148.1-0.5c-4.7 0-8.6 3.9-8.5 8.6l1.2 220.6c0 4.7 3.8 8.5 8.5 8.5Z" fill="#222"/><path d="M259 35.1l131.4 .7c4.7 0 8.6 4 8.5 8.7l-0.9 197.7c0 4.7-3.8 8.4-8.4 8.5l-127.6 2.3c-4.8 .1-8.7-3.7-8.8-8.5l-2.8-200.8c-0.1-4.7 3.8-8.7 8.6-8.6Z" fill="#fff"/><path d="M264.3 46.1v.9c0 1.4 1.2 2.6 2.6 2.6h101.2c1.4 0 2.6-1.2 2.6-2.6v-0.9c0-1.4-1.2-2.6-2.6-2.6h-101.2c-1.4 0-2.6 1.2-2.6 2.6Z" fill="#eff2f5"/><path d="M275.6 57.5c.1 1.4 1.2 2.4 2.5 2.5l88.5 1.6c1.4 0 2.6-1.2 2.6-2.6v-0.2c0-1.4-1.1-2.6-2.6-2.6l-88.4-1.4c-1.5 0-2.7 1.2-2.6 2.7Z" fill="#eff2f5"/><path d="M266.6 246.3c-4 0-7.3-3.2-7.4-7.2l-2.8-161.7c-0.1-4 3.2-7.4 7.2-7.4l119.4-2.3c2-0.1 3.9 .6 5.3 2c1.4 1.4 2.2 3.2 2.2 5.2l3.1 162.5c.1 1.9-0.7 3.8-2.1 5.2c-1.3 1.4-3.2 2.2-5.2 2.3l-119.7 1.5c0-0.1 0-0.1 0-0.1Zm-7.8-168.9l2.9 161.6c0 2.7 2.2 4.9 4.9 4.9l119.7-1.5c1.4 0 2.6-0.6 3.5-1.5c.9-0.9 1.4-2.2 1.4-3.5l-3-162.5c0-1.2-0.6-2.5-1.6-3.4c-0.9-0.9-2.1-1.4-3.4-1.3l-119.6 2.2c-2.7 0-4.8 2.3-4.8 5Z" fill="#eff2f5"/><path d="M389.5 86.4h-130.4c-0.6 0-1.2-0.6-1.2-1.3c0-0.6 .6-1.2 1.2-1.2h130.4c.7 0 1.2 .6 1.2 1.2c0 .7-0.5 1.3-1.2 1.3Z" fill="#eff2f5"/><path d="M521.1 225.2h-147c-4.7 0-8.4-3.8-8.4-8.5v-142c0-4.7 3.7-8.5 8.4-8.5l148.1-0.4c4.7 0 8.6 3.8 8.5 8.5l-1.2 142.4c0 4.7-3.8 8.5-8.4 8.5Z" fill="#222"/><path d="M513.9 76.7l-131.4 .8c-4.8 0-8.6 3.9-8.5 8.7l.9 119.4c0 4.7 3.8 8.5 8.4 8.5l127.6 2.3c4.7 .1 8.7-3.7 8.8-8.4l2.8-122.6c.1-4.8-3.8-8.8-8.6-8.7Z" fill="#fff"/><path d="M508.5 87.8v.9c0 1.4-1.2 2.5-2.6 2.5h-101.2c-1.4 0-2.6-1.1-2.6-2.5v-0.9c0-1.4 1.2-2.6 2.6-2.6h101.2c1.4 0 2.6 1.2 2.6 2.6Z" fill="#eff2f5"/><path opacity=".6" d="M497.2 99.2c-0.1 1.3-1.2 2.4-2.5 2.4l-88.5 1.6c-1.4 0-2.6-1.1-2.6-2.6v-0.1c0-1.4 1.1-2.6 2.6-2.6l88.4-1.4c1.5-0.1 2.7 1.2 2.6 2.7Z" fill="#fff"/><path d="M506.2 209.7l-119.7-1.4c-2 0-3.8-0.8-5.2-2.3c-1.4-1.4-2.1-3.3-2.1-5.3l3.1-84.2c0-2 .8-3.8 2.2-5.2c1.4-1.3 3.3-2 5.3-2l119.4 2.3c4 0 7.3 3.4 7.2 7.4l-2.8 83.5c-0.1 4-3.4 7.2-7.4 7.2Zm-116.6-97.9c-1.2 0-2.5 .5-3.4 1.3c-0.9 .9-1.4 2.1-1.5 3.4l-3.1 84.3c0 1.3 .5 2.6 1.4 3.5c1 .9 2.2 1.5 3.5 1.5l119.7 1.4h.1c2.7 0 4.8-2.1 4.9-4.8l2.8-83.4c.1-2.7-2.1-5-4.8-5l-119.5-2.2h-0.1Z" fill="#fff"/><path d="M513.7 128h-130.4c-0.7 0-1.2-0.5-1.2-1.2c0-0.7 .5-1.2 1.2-1.2h130.4c.6 0 1.2 .5 1.2 1.2c0 .7-0.6 1.2-1.2 1.2Z" fill="#fff"/><path d="M504.8 334.1c0 3.9-3.1 7.1-7.1 7.1h-383.5c-3.9 0-7.1-3.2-7.1-7.1l-3.1-220.6c0-3.9 4.5-11.5 13-10.9l374.8-9.7c4.8-0.1 9.6 1.8 13.1 5.2c3.5 3.5 5.4 8.2 5.2 13.1l-5.3 222.9Z" fill="#000"/><path d="M497.9 327.3c0 3.7-3 6.8-6.7 6.8h-367.7c-3.7 0-6.7-3-6.7-6.8l-3.1-200.3c.4-12 10.9-16.3 17.4-16.1l359.2-9.6c3.4-0.2 6.8 1.2 9.2 3.6c2.5 2.5 3.8 5.8 3.7 9.2l-5.3 213.2Z" fill="#fff"/><path d="M120.7 231.8c-0.3 0-0.6-0.2-0.6-0.6l-0.2-16.2c0-0.4 .2-0.6 .6-0.6c.3 0 .6 .2 .6 .6l.3 16.2c0 .3-0.3 .6-0.7 .6Z" fill="#fff"/><path d="M120.1 192c-0.3 0-0.6-0.2-0.6-0.6l-0.9-62.2c0-4.2 1.3-7.5 3.9-9.9c4.5-4.4 11.7-4.2 12-4.2l114.7-3c.3 0 .6 .2 .6 .6c0 .3-0.3 .6-0.6 .6l-114.8 3c-0.3 0-6.9-0.2-11.2 3.8c-2.2 2.2-3.4 5.2-3.4 9.1l.9 62.1c0 .4-0.2 .7-0.6 .7Z" fill="#fff"/><path d="M526.3 359.5h-432.8c-5.3 0-9.7-4.3-9.7-9.7c0-5.3 4.3-9.7 9.7-9.7h432.7c5.3 0 9.7 4.3 9.7 9.7c0 5.4-4.3 9.7-9.6 9.7Z" fill="#000"/><path opacity=".75" d="M477.1 160.8l-335.1 4.1c-4.9 .1-8.9 4.1-8.9 9l-0.9 136.8l354.6 4.6l1-143.8c0-5.9-4.8-10.8-10.7-10.7Z" fill="#e9edf2"/><g opacity=".8"><path d="M168 248.3h-16.1v64.5h16.1v-64.5Z" fill="#e9edf2"/><path d="M195 270.5h-16.2v42.3h16.2v-42.3Z" fill="#e9edf2"/><path d="M222 215.8h-16.1v97h16.1v-97Z" fill="#e9edf2"/><path d="M249.1 289.5h-16.2v23.3h16.2v-23.3Z" fill="#e9edf2"/><path d="M276 228.7h-16.1v84.1h16.1v-84.1Z" fill="#e9edf2"/><path d="M303.1 243.3h-16.2v69.5h16.2v-69.5Z" fill="#e9edf2"/><path d="M330.1 259.1h-16.2v53.7h16.2v-53.7Z" fill="#e9edf2"/><path d="M357.1 196.2h-16.2v116.6h16.2v-116.6Z" fill="#e9edf2"/><path d="M384.1 208.5h-16.2v104.3h16.2v-104.3Z" fill="#e9edf2"/><path d="M411.1 227.1h-16.2v85.7h16.2v-85.7Z" fill="#e9edf2"/><path d="M438.1 291.6h-16.2v21.2h16.2v-21.2Z" fill="#e9edf2"/><path d="M465.1 250.5h-16.2v62.3h16.2v-62.3Z" fill="#e9edf2"/></g><path opacity=".75" d="M480.7 123.9l-338-4.6c-4-0.1-7.2 2.7-7.4 6.2l-0.6 25.1c-0.2 3.6 3.2 6.6 7.3 6.5l338.7-4.8c3.9 0 7.1-2.9 7.1-6.3v-15.6c-0.1-3.6-3.2-6.4-7.1-6.5Z" fill="#e9edf2"/><path d="M236.8 66.8l-0.8 43.7c-0.1 4.6-3.1 8.3-6.8 8.3h-153.9c-3.7 0-6.8-3.8-6.8-8.5v-39.9c0-4.6 2.9-8.4 6.6-8.5l154.7-3.8c3.9-0.1 7.1 3.8 7 8.7Z" fill="#222"/><path d="M229 72.5l-2 39c0 2-1.4 3.7-3.1 3.7l-145.6-1.9c-1.7-0.1-3-1.8-3-3.9v-31.7c0-2.1 1.3-3.8 2.9-3.9l147.6-5.3c1.8-0.2 3.3 1.7 3.2 4Z" fill="#fff"/><path d="M222.3 77.6v3.9c0 1.4-0.9 2.5-2 2.5l-133.8-1.4c-1.1 0-2-1.1-2-2.5c0-1.4 .9-2.5 2-2.5l133.8-2.5c1.1 0 2 1.1 2 2.5Z" fill="#eff2f5"/><path d="M221.2 92.5v3.6c0 1.4-0.9 2.5-2.1 2.5l-130.3-3c-1.1-0.1-2-1.2-2-2.5v-1.1c0-1.4 .9-2.5 2-2.5l130.4 .5c1.1 0 2 1.1 2 2.5Z" fill="#eff2f5"/><path d="M128.7 133.3l-0.4 27.2c-0.1 2.9-1.9 5.2-4.3 5.2h-95.6c-2.3 0-4.2-2.4-4.2-5.3v-24.8c0-2.8 1.8-5.2 4.1-5.3l96.1-2.4c2.4 0 4.3 2.4 4.3 5.4Z" fill="#222"/><path d="M123.9 136.9l-1.3 24.3c0 1.3-0.9 2.3-1.9 2.3l-90.5-1.2c-1 0-1.9-1.1-1.9-2.4v-19.7c0-1.3 .8-2.4 1.8-2.4l91.7-3.4c1.2-0.1 2.2 1.1 2.1 2.5Z" fill="#fff"/><path d="M119.7 140.1v2.4c0 .9-0.5 1.6-1.3 1.6l-83.1-0.9c-0.7 0-1.3-0.7-1.3-1.6c0-0.8 .6-1.5 1.3-1.5l83.1-1.5c.7-0.1 1.3 .6 1.3 1.5Z" fill="#eff2f5"/><path d="M119 149.3v2.3c0 .8-0.6 1.6-1.2 1.5l-81.1-1.9c-0.6 0-1.2-0.7-1.2-1.5v-0.7c0-0.8 .6-1.5 1.2-1.5l81.1 .3c.7 0 1.2 .7 1.2 1.5Z" fill="#eff2f5"/><path d="M432.3 197.1c-0.3 0-0.6-0.1-0.6-0.4c-0.2-0.8-0.4-1.6-0.6-2.4c-0.1-0.3 .1-0.6 .4-0.7c.3-0.1 .7 .1 .7 .4c.3 .8 .4 1.6 .6 2.4c.1 .3-0.1 .7-0.5 .7c.1 0 0 0 0 0Z" fill="#222"/><path d="M376.5 267.4c-0.4 0-0.6-0.2-0.6-0.6c0-0.3 .2-0.6 .6-0.6c1.6 0 3.2 0 4.8-0.2c.4-0.1 .6 .2 .7 .5c0 .3-0.2 .6-0.5 .7c-1.7 .1-3.3 .2-5 .2Zm-7.9-0.5h-0.1c-1.6-0.3-3.3-0.5-4.9-0.9c-0.3 0-0.5-0.4-0.4-0.7c0-0.3 .4-0.6 .7-0.5c1.6 .4 3.2 .6 4.7 .9c.3 0 .6 .3 .6 .6c-0.1 .3-0.3 .6-0.6 .6Zm20.7-0.9c-0.3 0-0.6-0.2-0.6-0.5c-0.1-0.3 .1-0.7 .4-0.8c1.6-0.3 3.1-0.7 4.6-1.2c.3-0.2 .7 0 .8 .3c.1 .3 0 .7-0.4 .8c-1.5 .5-3.1 1-4.7 1.4c-0.1-0.1-0.1 0-0.1 0Zm-33.2-2.2c0 0-0.1 0-0.2-0.1c-1.5-0.5-3.1-1.2-4.6-1.9c-0.3-0.2-0.4-0.5-0.3-0.8c.1-0.3 .5-0.5 .8-0.3c1.5 .6 2.9 1.3 4.5 1.9c.3 .1 .4 .4 .3 .7c0 .3-0.2 .5-0.5 .5Zm45.2-2.2c-0.2 0-0.4-0.1-0.5-0.3c-0.1-0.3 0-0.7 .3-0.8c1.5-0.8 2.9-1.5 4.3-2.3c.3-0.2 .6-0.1 .8 .1c.2 .3 .1 .7-0.2 .9c-1.4 .8-2.8 1.6-4.3 2.4c-0.2 0-0.3 0-0.4 0Zm10.9-6.8c-0.2 0-0.4-0.1-0.5-0.2c-0.2-0.3-0.2-0.7 .1-0.9c1.3-1 2.5-2.1 3.7-3.2c.2-0.2 .6-0.2 .9 0c.2 .3 .2 .6 0 .9c-1.3 1.1-2.5 2.2-3.8 3.2c-0.1 .1-0.3 .2-0.4 .2Zm9-9.1c-0.1 0-0.2-0.1-0.3-0.1c-0.3-0.2-0.3-0.6-0.2-0.9c1-1.3 2-2.5 2.9-3.9c.2-0.3 .6-0.4 .9-0.2c.3 .2 .3 .6 .2 .9c-1 1.3-1.9 2.7-3 4c-0.1 .1-0.3 .2-0.5 .2Zm6.9-10.9c-0.1 0-0.2 0-0.3 0c-0.3-0.2-0.4-0.5-0.3-0.8c.7-1.5 1.4-3 1.9-4.5c.1-0.3 .5-0.5 .8-0.4c.3 .2 .5 .5 .4 .8c-0.6 1.6-1.2 3.1-2 4.6c-0.1 .2-0.3 .3-0.5 .3Zm4.2-12.1c-0.1 0-0.1 0-0.1 0c-0.3-0.1-0.6-0.5-0.5-0.8c.3-1.6 .6-3.1 .8-4.7c.1-0.3 .4-0.6 .7-0.6c.3 .1 .5 .4 .5 .7c-0.2 1.6-0.5 3.3-0.9 4.9c0 .3-0.2 .5-0.5 .5Zm1.4-12.8c-0.3 0-0.6-0.2-0.6-0.6c0-1.7 0-3.2-0.1-4.8c0-0.3 .2-0.6 .5-0.7c.4 0 .6 .2 .7 .5c.1 1.6 .2 3.3 .2 4.9c0 .4-0.4 .7-0.7 .7Z" fill="#222"/><path d="M344.7 257.9c-0.2 0-0.3-0.1-0.4-0.1c-0.7-0.4-1.3-0.9-2-1.4c-0.3-0.2-0.3-0.6-0.1-0.9c.1-0.2 .5-0.3 .8-0.1c.7 .5 1.4 .9 2 1.4c.3 .2 .4 .6 .2 .9c-0.2 .1-0.4 .2-0.5 .2Z" fill="#222"/><path d="M319.8 220.3c-0.3 0-0.6-0.1-0.6-0.4c-0.2-0.8-0.3-1.7-0.4-2.5c-0.1-0.3 .2-0.7 .5-0.7c.3 0 .7 .2 .7 .6c.1 .8 .3 1.6 .4 2.4c0 .3-0.2 .6-0.5 .7c-0.1-0.1-0.1-0.1-0.1-0.1Z" fill="#222"/><path d="M318.9 210c-0.4 0-0.7-0.2-0.7-0.5h.7l-0.7-0.1c0-1.6 .1-3.2 .2-4.8c0-0.3 .3-0.6 .7-0.6c.4 0 .6 .3 .5 .7c-0.1 1.5-0.1 3.1-0.1 4.7c0 .3-0.3 .6-0.6 .6Zm1.3-12.5c-0.1 0-0.1 0-0.1 0c-0.3-0.1-0.6-0.4-0.5-0.7c.4-1.6 .8-3.2 1.2-4.7c.1-0.3 .4-0.5 .8-0.5c.3 .2 .5 .5 .4 .8c-0.5 1.6-0.8 3.1-1.2 4.7c-0.1 .2-0.3 .4-0.6 .4Zm4-12c0 0-0.2 0-0.2 0c-0.3-0.1-0.4-0.5-0.3-0.8c.6-1.5 1.4-2.9 2.2-4.4c.2-0.3 .6-0.3 .9-0.2c.3 .2 .4 .6 .2 .9c-0.8 1.3-1.5 2.8-2.2 4.2c-0.1 .2-0.3 .3-0.6 .3Zm6.6-10.7c-0.1 0-0.2-0.1-0.4-0.1c-0.2-0.2-0.3-0.6-0.1-0.9c1-1.3 2.1-2.5 3.1-3.7c.3-0.3 .6-0.3 .9-0.1c.2 .3 .2 .6 .1 .9c-1.1 1.1-2.2 2.4-3.1 3.6c-0.1 .2-0.3 .3-0.5 .3Zm8.8-9.1c-0.2 0-0.4-0.1-0.5-0.3c-0.2-0.2-0.2-0.6 .1-0.8c1.2-1 2.5-2 3.8-2.9c.3-0.2 .7-0.2 .9 .1c.2 .3 .1 .7-0.2 .8c-1.2 1-2.5 1.9-3.7 2.9c-0.1 .1-0.3 .2-0.4 .2Zm63.8-6.4c-0.1 0-0.2 0-0.3-0.1c-1.4-0.7-2.9-1.5-4.3-2.1c-0.3-0.1-0.4-0.5-0.3-0.8c.2-0.3 .5-0.4 .8-0.3c1.5 .7 3 1.4 4.4 2.2c.3 .2 .5 .5 .3 .8c-0.2 .2-0.3 .3-0.6 .3Zm-53.2-0.6c-0.3 0-0.5-0.1-0.6-0.3c-0.2-0.3-0.1-0.7 .3-0.8c1.4-0.7 2.9-1.4 4.3-2c.3-0.1 .7 0 .8 .3c.2 .3 0 .7-0.3 .8c-1.4 .6-2.9 1.3-4.3 2c-0.1 0-0.2 0-0.2 0Zm41.5-4.1c-0.1 0-0.1 0-0.2 0c-1.5-0.5-3.1-0.8-4.6-1.1c-0.3-0.1-0.6-0.4-0.5-0.8c.1-0.3 .4-0.5 .7-0.4c1.6 .3 3.2 .6 4.8 1.1c.3 0 .5 .4 .4 .7c0 .3-0.3 .5-0.6 .5Zm-29.8-0.3c-0.2 0-0.5-0.2-0.6-0.5c0-0.3 .1-0.7 .4-0.8c1.6-0.4 3.2-0.7 4.8-1c.3-0.1 .7 .2 .7 .5c.1 .3-0.1 .7-0.4 .7c-1.6 .3-3.2 .6-4.7 1c0 0-0.1 .1-0.2 .1Zm17.4-1.8c-1.6-0.1-3.3-0.1-4.9-0.1c-0.3 0-0.6-0.2-0.6-0.6c0-0.3 .3-0.6 .6-0.6c1.6 0 3.3 0 4.9 .1c.4 0 .6 .3 .6 .6c0 .4-0.3 .6-0.6 .6Z" fill="#222"/><path d="M412 165c-0.1 0-0.2-0.1-0.3-0.2c-0.7-0.5-1.3-0.9-1.9-1.4c-0.3-0.2-0.3-0.6-0.2-0.9c.2-0.2 .7-0.3 .9-0.1c.7 .5 1.3 1 1.9 1.5c.3 .2 .4 .6 .2 .9c-0.2 0-0.4 .2-0.6 .2Z" fill="#222"/><g transform="translate(376.3,209.8) translate(-44.4,-44.5)" style="animation: 4s linear infinite both a0_t;"><path d="M74.3 11.6c-0.2-0.3-0.5-0.3-0.8-0.2l-7.8 3.2c-3.1-2.3-6.7-4.1-10.6-5.3l-2.2-8.1c-0.1-0.3-0.3-0.5-0.6-0.5l-10.1-0.7c-0.3 0-0.5 .1-0.6 .4l-3.3 7.8c-3.9 .7-7.7 2-11.2 3.8l-7.3-4.2c-0.2-0.1-0.5-0.1-0.8 .1l-7.5 6.7c-0.3 .1-0.3 .4-0.2 .8l3.2 7.7c-2.3 3.2-4.1 6.8-5.3 10.6l-8.1 2.2c-0.3 .1-0.5 .3-0.5 .6l-0.6 10.1c0 .3 .1 .6 .4 .7l7.7 3.2c.7 4 2 7.8 3.8 11.3l-4.1 7.2c-0.2 .3-0.2 .6 0 .8l6.7 7.6c.2 .2 .5 .3 .8 .2l7.7-3.2c3.2 2.3 6.8 4.1 10.6 5.3l2.2 8.1c.1 .3 .3 .5 .6 .5l10.1 .6c.3 0 .6-0.1 .7-0.4l3.2-7.7c4-0.7 7.8-2 11.2-3.8l7.3 4.1c.2 .1 .5 .1 .8 0l7.6-6.7c.2-0.2 .3-0.5 .1-0.8l-3.1-7.7c2.2-3.2 4.1-6.8 5.2-10.7l8.1-2.2c.3 0 .5-0.3 .5-0.6l.7-10.1c0-0.3-0.1-0.5-0.4-0.6l-7.8-3.3c-0.7-3.9-1.9-7.7-3.8-11.2l4.2-7.3c.1-0.2 .1-0.5-0.1-0.8l-6.6-7.5Z" fill="#222"/><path d="M44.3 54.3c-2 0-3.9-0.6-5.6-1.8c-2.1-1.5-3.6-3.7-4.1-6.3c-0.5-2.6 .1-5.2 1.6-7.4c1.5-2.1 3.7-3.6 6.3-4.1c5.4-1 10.5 2.6 11.5 8c1 5.3-2.6 10.5-7.9 11.4c-0.6 .2-1.2 .2-1.8 .2Zm-1.4-17.8c-2.1 .4-4 1.6-5.2 3.4c-1.2 1.8-1.7 3.9-1.3 6c.4 2.1 1.6 4 3.4 5.2c1.8 1.2 3.9 1.7 6 1.3c4.3-0.8 7.2-5 6.4-9.4c-0.8-4.3-5-7.2-9.3-6.5Z" fill="#fff"/><path d="M44.2 69.8c-0.6 0-1.2 0-1.7 0c-13.3-0.9-23.5-12.1-23.5-25.2c0-0.5 0-1.2 .1-1.7c.4-6.7 3.4-12.9 8.5-17.3c5.1-4.4 11.5-6.6 18.2-6.2c1.8 .2 3.6 .5 5.3 1l-0.4 1.7c-1.6-0.4-3.3-0.7-4.9-0.8c-6.2-0.5-12.3 1.6-17 5.7c-4.7 4.1-7.5 9.9-7.9 16.1c-0.1 .5-0.1 1-0.1 1.6c0 12.2 9.5 22.4 21.8 23.3c12.9 .9 24-8.9 24.9-21.7c.1-0.6 .1-1.1 .1-1.6c0-3.7-0.9-7.4-2.6-10.7l1.6-0.8c1.9 3.5 2.8 7.4 2.8 11.5c0 .5 0 1.1-0.1 1.7c-0.9 13.2-12 23.4-25.1 23.4Z" fill="#fff"/></g><path d="M285.9 201.7c-0.3 0-0.5-0.3-0.6-0.6c-0.1-0.8-0.2-1.6-0.4-2.4c0-0.3 .2-0.6 .5-0.7c.3-0.1 .7 .1 .8 .5c.1 .8 .3 1.6 .4 2.4c0 .3-0.2 .7-0.6 .7c0 .1 0 .1-0.1 .1Z" fill="#222"/><path d="M244.1 253.3c-0.3 0-0.6-0.2-0.6-0.5c0-0.4 .2-0.6 .6-0.7c1.5-0.1 3.1-0.3 4.6-0.5c.3-0.1 .7 .1 .7 .4c.1 .4-0.2 .7-0.5 .8c-1.6 .2-3.2 .4-4.8 .5Zm-7.7-0.1c-1-0.1-2-0.2-2.9-0.4c-0.6-0.1-1.2-0.2-1.8-0.3c-0.3-0.1-0.6-0.4-0.5-0.8c0-0.3 .3-0.5 .7-0.4c.6 .1 1.2 .2 1.8 .3c1 .1 1.9 .3 2.9 .3c.3 .1 .5 .3 .5 .7c-0.1 .4-0.4 .6-0.7 .6Zm19.8-2.4c-0.2 0-0.5-0.2-0.6-0.5c-0.1-0.3 .1-0.6 .4-0.8c1.5-0.5 2.9-1.1 4.3-1.7c.3-0.2 .7 0 .8 .3c.1 .3 0 .6-0.3 .8c-1.5 .6-3 1.3-4.4 1.8c-0.1 .1-0.1 .1-0.2 .1Zm-31.8-0.5c-0.1 0-0.1 0-0.2-0.1c-1.5-0.5-3-1.2-4.4-1.9c-0.3-0.2-0.5-0.6-0.3-0.8c.2-0.3 .6-0.5 .8-0.3c1.4 .8 2.8 1.4 4.3 1.9c.3 .1 .5 .5 .4 .8c-0.2 .3-0.3 .4-0.6 .4Zm42.8-5.3c-0.2 0-0.4 0-0.5-0.2c-0.2-0.3-0.1-0.7 .1-0.9c1.3-0.9 2.5-1.9 3.7-2.8c.2-0.3 .6-0.2 .8 0c.3 .3 .2 .6 0 .9c-1.3 1-2.5 2-3.8 3c-0.1 0-0.2 0-0.3 0Zm9-8.4c-0.1 0-0.2-0.1-0.4-0.1c-0.2-0.2-0.3-0.6 0-0.9c1-1.2 1.9-2.4 2.7-3.8c.2-0.3 .6-0.3 .9-0.2c.3 .2 .3 .6 .2 .9c-0.9 1.3-1.9 2.6-2.8 3.9c-0.2 .1-0.4 .2-0.6 .2Zm6.4-10.6c0 0-0.2 0-0.2 0c-0.3-0.2-0.5-0.5-0.3-0.8c.6-1.4 1.1-2.9 1.6-4.4c.1-0.3 .4-0.5 .8-0.5c.3 .2 .5 .5 .4 .8c-0.5 1.6-1 3.1-1.6 4.6c-0.2 .1-0.4 .3-0.7 .3Zm3.3-11.9h-0.1c-0.3-0.1-0.5-0.4-0.5-0.7c.2-1.5 .4-3.1 .4-4.7c0-0.3 .3-0.6 .6-0.6c.3 0 .6 .3 .6 .6c-0.1 1.6-0.2 3.2-0.4 4.8c0 .4-0.3 .6-0.6 .6Z" fill="#222"/><path d="M213.5 244.2c-0.1 0-0.2 0-0.3-0.1c-0.7-0.5-1.3-1-2-1.5c-0.2-0.3-0.3-0.6 0-0.9c.2-0.2 .6-0.3 .8 0c.6 .5 1.2 1 1.9 1.5c.3 .2 .3 .6 .1 .8c-0.1 .2-0.3 .2-0.5 .2Z" fill="#222"/><path d="M195.7 212.8c-0.3 0-0.5-0.3-0.6-0.6c0-0.8-0.2-1.6-0.2-2.4c0-0.4 .3-0.6 .6-0.7c.3 0 .6 .3 .7 .6c0 .8 .1 1.5 .1 2.3c.1 .3-0.1 .7-0.5 .7c0 .1 0 .1-0.1 .1Z" fill="#222"/><path d="M195.8 202.8h-0.1c-0.3 0-0.5-0.3-0.5-0.7c0-0.7 .2-1.5 .3-2.2c.1-0.8 .3-1.6 .4-2.4c.1-0.3 .4-0.5 .7-0.5c.4 .1 .6 .4 .5 .8c-0.1 .7-0.3 1.5-0.4 2.3c-0.1 .7-0.2 1.4-0.3 2.2c-0.1 .3-0.3 .5-0.6 .5Zm3-11.8c-0.1 0-0.1 0-0.3-0.1c-0.3-0.1-0.4-0.5-0.3-0.8c.6-1.4 1.2-2.9 1.9-4.3c.2-0.3 .6-0.4 .9-0.2c.3 .2 .4 .5 .2 .9c-0.7 1.3-1.3 2.7-1.9 4.1c-0.1 .3-0.3 .4-0.5 .4Zm6-10.6c-0.2 0-0.3-0.1-0.4-0.1c-0.2-0.2-0.3-0.6-0.1-0.9c1-1.2 1.9-2.4 3-3.6c.3-0.2 .6-0.2 .9 0c.2 .3 .2 .6 0 .9c-1.1 1.1-2 2.3-3 3.5c-0.1 .1-0.3 .2-0.4 .2Zm8.6-8.6c-0.2 0-0.4-0.1-0.5-0.2c-0.2-0.3-0.1-0.7 .1-0.9c1.2-1 2.6-1.8 3.9-2.7c.3-0.2 .7-0.1 .9 .2c.1 .3 0 .7-0.2 .8c-1.3 .8-2.6 1.7-3.8 2.6c-0.1 .1-0.3 .2-0.4 .2Zm50.4-3.2c-0.2 0-0.2 0-0.3 0c-1.4-0.8-2.7-1.5-4.1-2.1c-0.3-0.1-0.5-0.5-0.3-0.8c.1-0.3 .5-0.4 .8-0.3c1.4 .7 2.8 1.3 4.2 2.1c.3 .2 .3 .6 .2 .9c-0.2 .1-0.4 .2-0.5 .2Zm-39.8-2.9c-0.3 0-0.5-0.1-0.6-0.3c-0.1-0.3 0-0.7 .4-0.8c1.5-0.6 2.9-1.1 4.5-1.5c.3-0.2 .6 .1 .7 .4c.1 .3-0.1 .7-0.4 .7c-1.5 .5-3 .9-4.4 1.6c-0.1 0-0.2 0-0.2 0Zm28.5-1.7c-0.1 0-0.1 0-0.2 0c-1.3-0.4-2.8-0.7-4.2-0.9h-0.3c-0.3-0.1-0.6-0.4-0.5-0.7c.1-0.3 .4-0.6 .7-0.5l.3 .1c1.4 .2 2.9 .5 4.3 .9c.3 0 .5 .4 .4 .7c0 .2-0.2 .4-0.5 .4Zm-16.7-1.2c-0.3 0-0.6-0.3-0.7-0.6c0-0.3 .2-0.6 .6-0.7c1.5-0.1 3.1-0.3 4.7-0.3c.3 0 .6 .3 .6 .6c0 .4-0.2 .7-0.6 .7c-1.5 0-3.1 .1-4.6 .3Z" fill="#222"/><path d="M271.8 174.5c-0.2 0-0.4 0-0.5-0.1c-0.6-0.6-1.2-1.1-1.8-1.6c-0.2-0.3-0.3-0.6-0.1-0.9c.3-0.2 .6-0.3 .9 0c.6 .5 1.3 1.1 1.8 1.6c.3 .3 .3 .6 .1 .9c-0.1 .1-0.3 .1-0.4 .1Z" fill="#222"/><g transform="translate(240.9,207.6) translate(-35.1,-35.1)" style="animation: 4s linear infinite both a1_t;"><path d="M61.9 12.4c-0.2-0.2-0.4-0.3-0.6-0.3l-6.5 1.7c-2.2-2.1-4.8-3.9-7.8-5.2l-0.9-6.6c0-0.2-0.2-0.4-0.4-0.4l-7.8-1.6c-0.3 0-0.5 .1-0.6 .3l-3.3 5.7c-3.2 .1-6.3 .7-9.2 1.8l-5.3-4c-0.2-0.1-0.4-0.1-0.6 0l-6.6 4.5c-0.2 .1-0.3 .3-0.2 .6l1.7 6.4c-2.1 2.3-3.9 4.9-5.2 7.8l-6.6 .9c-0.2 .1-0.4 .2-0.5 .5l-1.5 7.8c-0.1 .2 .1 .5 .2 .5l5.8 3.4c.1 3.2 .7 6.3 1.8 9.1l-4 5.4c-0.1 .1-0.1 .4 0 .6l4.4 6.6c.2 .1 .4 .3 .6 .2l6.5-1.7c2.2 2.1 4.8 3.9 7.8 5.2l.9 6.6c0 .2 .2 .4 .4 .5l7.8 1.5c.3 .1 .5-0.1 .6-0.2l3.3-5.8c3.2-0.1 6.3-0.7 9.2-1.8l5.3 4c.2 .1 .4 .1 .6 0l6.6-4.4c.2-0.2 .3-0.4 .2-0.7l-1.7-6.4c2.1-2.2 3.9-4.9 5.2-7.8l6.6-0.9c.2-0.1 .4-0.2 .5-0.4l1.5-7.8c.1-0.3-0.1-0.5-0.2-0.6l-5.8-3.4c-0.1-3.1-0.7-6.2-1.8-9.1l4-5.3c.1-0.2 .1-0.5 0-0.6l-4.4-6.6Z" fill="#ef6238"/><path d="M35.1 43.1c-2 0-3.9-0.7-5.3-2c-1.6-1.4-2.5-3.4-2.6-5.5c-0.2-2.2 .6-4.2 2-5.8c1.4-1.6 3.3-2.5 5.5-2.6c4.3-0.2 8.1 3.2 8.4 7.6c.1 2.1-0.6 4.1-2 5.7c-1.4 1.6-3.4 2.5-5.5 2.6c-0.3 0-0.4 0-0.5 0Zm-0.4-15l.1 .9c-1.7 .1-3.2 .8-4.3 2.1c-1.1 1.2-1.6 2.8-1.6 4.4c.1 1.7 .8 3.2 2 4.3c1.3 1.1 2.8 1.6 4.5 1.6c1.6-0.1 3.2-0.8 4.3-2c1.1-1.3 1.6-2.8 1.5-4.5c-0.1-3.4-3.1-6-6.4-5.8l-0.1-1Z" fill="#fff"/><path d="M35 55.4c-1.3 0-2.6-0.1-3.9-0.3c-9.6-1.9-16.3-10.4-16.3-19.8c0-1.3 .1-2.5 .4-3.9c1-5.2 4.1-9.8 8.5-12.8c4.5-3 9.9-4.1 15.1-3.1c.1 0 .2 .1 .3 .1c1.2 .2 2.3 .6 3.4 1c.1 .1 .3 .2 .4 .2l-0.7 1.7c-1.2-0.5-2.5-0.9-3.8-1.2c-2.8-0.5-5.6-0.4-8.3 .3c-1.8 .5-3.6 1.3-5.1 2.3l-0.1 .1c-0.1 0-0.1 .1-0.1 .1c-4.1 2.8-6.9 6.9-7.8 11.7c-0.2 1.1-0.3 2.4-0.3 3.5c0 8.6 6 16.3 14.7 18c9.9 1.9 19.5-4.5 21.5-14.4c.2-1.2 .4-2.4 .4-3.6c0-2-0.4-4.2-1.1-6.1l1.7-0.6c.8 2.1 1.1 4.4 1.1 6.7c0 1.3-0.1 2.7-0.3 3.9c-1.9 9.6-10.3 16.2-19.7 16.2Z" fill="#fff"/></g><path d="M481 180c-0.3 0-0.5-0.3-0.6-0.6c0-0.8-0.2-1.6-0.3-2.4c-0.1-0.3 .1-0.6 .4-0.7c.3 0 .7 .1 .8 .5c.2 .8 .3 1.7 .3 2.4c.1 .4-0.1 .7-0.5 .7c0 .1 0 .1-0.1 .1Z" fill="#222"/><path d="M453 212.7c-0.3 0-0.6-0.2-0.6-0.6c0-0.4 .3-0.6 .6-0.6c1.5-0.1 3-0.3 4.5-0.6c.3 0 .7 .2 .7 .5c.1 .3-0.1 .7-0.5 .8c-1.5 .2-3.1 .4-4.7 .5c.1 0 0 0 0 0Zm-7.4-0.6c0 0 0 0-0.1 0c-1.5-0.3-3-0.8-4.5-1.3c-0.3-0.2-0.5-0.5-0.4-0.8c.2-0.3 .5-0.5 .8-0.4c1.4 .6 2.9 1 4.4 1.3c.3 0 .5 .3 .5 .7c-0.2 .3-0.4 .5-0.7 .5Zm19-2.4c-0.2 0-0.4-0.1-0.5-0.3c-0.2-0.3 0-0.7 .3-0.8c1.3-0.7 2.6-1.4 3.8-2.3c.3-0.2 .7-0.1 .9 .1c.2 .3 .1 .7-0.2 .9c-1.2 .9-2.6 1.7-4 2.4c-0.1 0-0.2 0-0.3 0Zm9.5-7.3c-0.1 0-0.3-0.1-0.4-0.1c-0.2-0.3-0.3-0.6-0.1-0.9c1-1.1 1.9-2.4 2.7-3.6c.2-0.3 .5-0.4 .8-0.2c.3 .2 .4 .6 .2 .9c-0.8 1.3-1.8 2.6-2.7 3.8c-0.2 0-0.3 .1-0.5 .1Zm5.8-10.5c-0.1 0-0.2 0-0.2 0c-0.3-0.1-0.5-0.4-0.4-0.7c.3-1.3 .6-2.6 .9-3.9c0-0.2 0-0.4 0-0.5c.1-0.3 .4-0.6 .7-0.5c.3 0 .6 .3 .5 .6c0 .2-0.1 .4-0.1 .6c-0.2 1.3-0.5 2.7-0.9 4c0 .2-0.2 .4-0.5 .4Z" fill="#222"/><path d="M434.6 207.3c-0.1 0-0.2-0.1-0.4-0.1c-0.6-0.5-1.3-1-1.9-1.6c-0.3-0.2-0.3-0.6-0.1-0.8c.3-0.3 .6-0.3 .9-0.1c.6 .5 1.2 1 1.9 1.5c.3 .2 .3 .5 .1 .8c-0.1 .2-0.3 .3-0.5 .3Z" fill="#222"/><path d="M422.4 186.3c-0.3 0-0.6-0.2-0.6-0.5c-0.1-0.8-0.1-1.7-0.2-2.5c0-0.4 .2-0.6 .6-0.6c.3 0 .6 .2 .6 .6c0 .8 .1 1.6 .2 2.4c.1 .3-0.2 .6-0.5 .6c-0.1 0-0.1 0-0.1 0Z" fill="#222"/><path d="M422.9 176.6c0 0 0 0-0.1 0c-0.3 0-0.5-0.4-0.5-0.7c.4-1.5 .8-3 1.4-4.4c.1-0.3 .5-0.5 .8-0.4c.3 .1 .5 .5 .3 .8c-0.5 1.4-0.9 2.8-1.2 4.2c-0.1 .3-0.3 .5-0.7 .5Zm4.9-10.7c-0.1 0-0.2-0.1-0.3-0.2c-0.3-0.1-0.3-0.5-0.2-0.8c1-1.2 1.9-2.4 3-3.5c.3-0.3 .6-0.3 .9 0c.2 .2 .2 .6 0 .8c-1.1 1-2 2.2-2.9 3.4c-0.1 .2-0.3 .3-0.5 .3Zm8.7-8c-0.2 0-0.4-0.2-0.6-0.3c-0.1-0.3 0-0.7 .2-0.9c1.4-0.8 2.7-1.5 4.1-2.1c.3-0.1 .7 0 .8 .3c.1 .3 0 .7-0.3 .8c-1.3 .6-2.7 1.3-4 2c0 .2-0.1 .2-0.2 .2Zm27.1-1.7c-0.1 0-0.2 0-0.3-0.1c-1.3-0.6-2.7-1.1-4.1-1.5c-0.3 0-0.6-0.4-0.4-0.7c0-0.3 .4-0.5 .7-0.4c1.5 .3 2.9 .9 4.3 1.5c.3 .1 .5 .5 .3 .8c0 .2-0.3 .4-0.5 .4Zm-16-2.2c-0.3 0-0.6-0.3-0.6-0.6c-0.1-0.3 .2-0.7 .5-0.7c1.4-0.1 2.8-0.3 4.2-0.3h.4c.4 0 .6 .3 .6 .6c0 .4-0.3 .7-0.6 .7h-0.4c-1.3 0-2.6 .1-4 .3c-0.1 0-0.1 0-0.1 0Z" fill="#222"/><path d="M471.8 161.5c-0.2 0-0.3 0-0.5-0.1c-0.6-0.6-1.2-1.1-1.8-1.6c-0.2-0.2-0.3-0.6-0.1-0.8c.2-0.3 .6-0.3 .8-0.2c.7 .5 1.3 1.1 1.9 1.6c.3 .3 .3 .6 .1 .9c-0.1 .1-0.3 .2-0.4 .2Z" fill="#222"/><g transform="translate(451.7,182.8) translate(-22.7,-22.7)" style="animation: 4s linear infinite both a2_t;"><path d="M40.1 7.9c-0.1-0.1-0.3-0.2-0.4-0.1l-4.1 1.1c-1.5-1.4-3.2-2.5-5.1-3.4l-0.6-4.2c0-0.2-0.1-0.3-0.3-0.4l-5.1-0.9c-0.1 0-0.3 0-0.4 .2l-2.1 3.7c-2.1 0-4.1 .5-6 1.2l-3.4-2.6c-0.1-0.1-0.3-0.1-0.4 0l-4.3 2.8c-0.1 .1-0.2 .3-0.1 .4l1.1 4.2c-1.3 1.4-2.5 3.1-3.4 5l-4.2 .6c-0.2 0-0.3 .2-0.3 .3l-1 5.1c0 .1 0 .3 .2 .4l3.7 2.1c.1 2.1 .5 4.1 1.2 6l-2.6 3.4c-0.1 .1-0.1 .3 0 .5l2.9 4.2c0 .2 .2 .2 .3 .2l4.2-1.1c1.4 1.3 3.1 2.5 5 3.3l.6 4.3c0 .1 .2 .2 .3 .3l5.1 1c.1 0 .3-0.1 .4-0.2l2.1-3.7c2.1-0.1 4.1-0.5 6-1.3l3.4 2.7c.1 0 .3 .1 .4 0l4.3-2.9c.1-0.1 .2-0.2 .1-0.4l-1.1-4.1c1.4-1.5 2.5-3.2 3.4-5.1l4.3-0.6c.1 0 .2-0.1 .3-0.3l.9-5.1c0-0.1 0-0.3-0.1-0.3l-3.8-2.2c0-2.1-0.5-4.1-1.2-6l2.6-3.4c.1-0.1 .2-0.3 0-0.4l-2.8-4.3Z" fill="#ef6238"/><path d="M22.7 28.2c-1.4 0-2.7-0.5-3.7-1.4c-1.1-1-1.7-2.3-1.8-3.8c-0.1-1.5 .4-2.9 1.4-4c1-1.1 2.3-1.7 3.8-1.8c1.4-0.1 2.8 .4 3.9 1.4c1.1 1 1.8 2.3 1.9 3.8c.2 3-2.2 5.6-5.2 5.8c-0.1 0-0.3 0-0.3 0Zm0-9.2c-0.1 0-0.1 0-0.2 0c-1 .1-1.9 .5-2.6 1.2c-0.6 .8-0.9 1.7-0.9 2.7c.1 1 .5 1.9 1.2 2.5c.8 .7 1.7 1 2.7 1c2-0.2 3.6-1.9 3.4-3.9c0-1-0.4-1.9-1.2-2.6c-0.6-0.6-1.5-0.9-2.4-0.9Z" fill="#fff"/><path d="M22.6 36.2c-0.8 0-1.7-0.1-2.6-0.3c-3.5-0.6-6.5-2.6-8.5-5.6c-1.6-2.3-2.3-4.9-2.3-7.5c0-0.8 .1-1.8 .2-2.6c1.4-7.3 8.5-12 15.8-10.6c.8 .2 1.7 .4 2.5 .8c0 0 .1 0 .2 0l-0.7 1.7c-0.7-0.3-1.5-0.5-2.4-0.7c-3.4-0.7-6.7 .2-9.3 2.2c-2.1 1.6-3.7 4.1-4.2 6.9c-0.1 .7-0.3 1.5-0.3 2.3c0 2.2 .7 4.5 2 6.4c1.7 2.5 4.3 4.3 7.4 4.8c3 .7 6.1 0 8.6-1.7c2.6-1.7 4.4-4.4 4.9-7.4c.1-0.7 .3-1.5 .3-2.3c0-1.3-0.3-2.6-0.7-3.9l1.7-0.6c.5 1.5 .8 3 .8 4.5c0 .9-0.1 1.8-0.3 2.7c-0.6 3.5-2.6 6.5-5.6 8.5c-2.3 1.6-4.9 2.4-7.5 2.4Z" fill="#fff"/></g><path d="M336.4 239.7c-0.3 0-0.6-0.2-0.6-0.5c-0.1-0.8-0.2-1.6-0.4-2.4c-0.1-0.3 .1-0.7 .5-0.8c.3 0 .6 .2 .7 .5c.2 .8 .3 1.7 .4 2.5c0 .3-0.2 .6-0.6 .6c0 0 0 .1 0 .1Z" fill="#222"/><path d="M308.4 272.4c-0.3 0-0.6-0.3-0.6-0.6c0-0.4 .2-0.6 .6-0.6c1.4-0.1 3-0.3 4.4-0.6c.3 0 .7 .1 .7 .5c.1 .3-0.1 .7-0.4 .7c-1.6 .3-3.2 .5-4.7 .6Zm-7.5-0.6c0 0 0 0-0.1 0c-1.5-0.3-3.1-0.8-4.5-1.4c-0.3-0.1-0.5-0.5-0.4-0.8c.1-0.3 .5-0.5 .8-0.3c1.4 .5 2.9 .9 4.3 1.3c.3 0 .6 .3 .5 .7c0 .3-0.3 .5-0.6 .5Zm19.1-2.3c-0.3 0-0.5-0.2-0.6-0.4c-0.1-0.3 0-0.7 .3-0.8c1.4-0.7 2.6-1.4 3.9-2.3c.3-0.2 .6-0.1 .8 .2c.2 .3 .1 .6-0.1 .8c-1.3 .9-2.6 1.7-4 2.4c-0.2 0-0.3 .1-0.3 .1Zm9.4-7.4c-0.1 0-0.3 0-0.4-0.1c-0.3-0.2-0.3-0.6-0.1-0.9c1-1.1 1.9-2.3 2.6-3.6c.2-0.3 .6-0.3 .9-0.1c.3 .1 .4 .5 .2 .8c-0.8 1.4-1.8 2.6-2.8 3.8c0 .1-0.2 .1-0.4 .1Zm5.8-10.5c-0.1 0-0.1 0-0.2 0c-0.3-0.1-0.5-0.4-0.4-0.7c.4-1.3 .7-2.6 .9-3.9c0-0.1 .1-0.3 .1-0.5c0-0.3 .3-0.6 .6-0.5c.3 .1 .6 .4 .5 .7c0 .2 0 .3 0 .5c-0.3 1.4-0.6 2.7-0.9 4.1c-0.1 .1-0.3 .3-0.6 .3Z" fill="#222"/><path d="M289.9 266.9c-0.1 0-0.2 0-0.3-0.1c-0.7-0.5-1.4-1-2-1.5c-0.2-0.2-0.3-0.6 0-0.9c.2-0.2 .6-0.3 .8 0c.6 .5 1.2 1 1.9 1.4c.3 .2 .4 .6 .1 .9c-0.1 .2-0.3 .2-0.5 .2Z" fill="#222"/><path d="M277.7 246.1c-0.3 0-0.6-0.3-0.6-0.6c-0.1-0.8-0.2-1.6-0.2-2.5c0-0.4 .2-0.6 .6-0.6c.4 0 .6 .2 .6 .6c0 .8 .1 1.6 .2 2.4c0 .3-0.2 .6-0.6 .7Z" fill="#222"/><path d="M278.2 236.4c0 0 0 0-0.1 0c-0.3-0.1-0.5-0.5-0.5-0.8c.4-1.5 .8-3 1.4-4.4c.1-0.3 .4-0.5 .7-0.3c.4 .1 .5 .4 .4 .7c-0.5 1.4-1 2.9-1.3 4.3c0 .2-0.3 .5-0.6 .5Zm4.9-10.8c-0.1 0-0.2-0.1-0.4-0.1c-0.2-0.2-0.3-0.6-0.1-0.9c.9-1.2 1.9-2.4 3-3.5c.2-0.3 .6-0.3 .9 0c.2 .2 .2 .6 0 .8c-1.1 1.1-2.1 2.2-2.9 3.4c-0.1 .2-0.3 .3-0.5 .3Zm8.7-8c-0.2 0-0.5-0.1-0.6-0.3c-0.2-0.3 0-0.7 .2-0.9c1.3-0.8 2.7-1.4 4.1-2c.3-0.2 .7 0 .8 .3c.1 .3 0 .6-0.3 .8c-1.4 .5-2.7 1.2-4 2c0 .1-0.1 .1-0.2 .1Zm27.1-1.8c0 0-0.2 0-0.2 0c-1.4-0.6-2.8-1.1-4.2-1.5c-0.3-0.1-0.5-0.4-0.4-0.7c.1-0.3 .4-0.5 .7-0.5c1.5 .4 3 1 4.4 1.6c.3 .1 .4 .5 .3 .8c-0.2 .2-0.4 .3-0.6 .3Zm-16-2.2c-0.3 0-0.6-0.2-0.6-0.5c-0.1-0.3 .1-0.7 .5-0.7c1.4-0.2 2.8-0.3 4.2-0.3h.4c.4 0 .6 .3 .6 .6c0 .3-0.3 .6-0.6 .6h-0.4c-1.3 0-2.7 .1-4 .3c-0.1 0-0.1 0-0.1 0Z" fill="#222"/><path d="M327 221.2c-0.1 0-0.3-0.1-0.4-0.2c-0.6-0.5-1.2-1-1.8-1.5c-0.3-0.2-0.3-0.6-0.1-0.9c.1-0.2 .6-0.3 .8-0.1c.7 .5 1.3 1.1 1.9 1.6c.2 .2 .2 .6 .1 .9c-0.1 .1-0.3 .2-0.5 .2Z" fill="#222"/><g transform="translate(307,242.5) translate(-22.7,-22.7)" style="animation: 4s linear infinite both a3_t;"><path d="M40.1 7.9c-0.1-0.1-0.2-0.1-0.4-0.1l-4.1 1.1c-1.5-1.3-3.2-2.5-5.1-3.3l-0.6-4.3c0-0.1-0.1-0.3-0.3-0.3l-5-1c-0.2 0-0.4 .1-0.4 .2l-2.2 3.7c-2 .1-4 .5-5.9 1.2l-3.4-2.6c-0.2-0.1-0.4-0.1-0.5 0l-4.2 2.9c-0.2 0-0.2 .2-0.2 .3l1.1 4.2c-1.3 1.5-2.5 3.2-3.3 5.1l-4.3 .6c-0.1 0-0.2 .1-0.3 .3l-1 5c0 .2 .1 .4 .2 .4l3.7 2.2c.1 2 .5 4 1.2 5.9l-2.6 3.5c0 .1-0.1 .3 0 .4l2.9 4.3c.1 .1 .2 .1 .4 .1l4.1-1.1c1.5 1.3 3.2 2.5 5.1 3.3l.6 4.3c0 .1 .1 .3 .3 .3l5 1c.2 0 .4-0.1 .4-0.2l2.2-3.7c2-0.1 4-0.5 5.9-1.2l3.4 2.6c.2 .1 .4 .1 .5 0l4.2-2.9c.2 0 .2-0.2 .2-0.3l-1.1-4.2c1.3-1.5 2.5-3.2 3.3-5.1l4.3-0.6c.1 0 .2-0.1 .3-0.3l1-5c0-0.2-0.1-0.4-0.2-0.4l-3.7-2.2c-0.1-2-0.5-4-1.2-5.9l2.6-3.5c0-0.1 .1-0.3 0-0.4l-2.9-4.3Z" fill="#ef6238"/><path d="M22.7 28.2c-3 0-5.4-2.2-5.5-5.2c-0.2-3 2.2-5.6 5.2-5.8c3-0.2 5.6 2.2 5.7 5.2c.1 1.5-0.4 2.9-1.4 4c-0.9 1.1-2.3 1.7-3.7 1.8c-0.2 0-0.2 0-0.3 0Zm0-9.1c-0.1 0-0.2 0-0.2 0c-2 .1-3.6 1.8-3.5 3.8c.1 2 1.8 3.6 3.8 3.5c2.1-0.1 3.6-1.8 3.5-3.9c0-1.9-1.7-3.4-3.6-3.4Z" fill="#fff"/><path d="M22.6 36.2c-0.9 0-1.7 0-2.6-0.2c-6.3-1.3-10.8-6.9-10.8-13.2c0-0.8 .1-1.7 .3-2.5c1.4-7.3 8.5-12 15.7-10.6c.9 .2 1.8 .4 2.6 .8c.1 0 .1 .1 .2 .1l-0.8 1.7c-0.7-0.3-1.5-0.6-2.3-0.8c-3.8-0.7-7.5 .5-10.2 2.9c-1.7 1.6-3 3.7-3.5 6.2c-0.1 .8-0.2 1.6-0.2 2.3c0 5.4 3.8 10.3 9.3 11.4c6.3 1.2 12.4-2.9 13.6-9.1c.1-0.8 .2-1.5 .2-2.3c0-1.3-0.2-2.6-0.6-3.9l1.7-0.6c.5 1.4 .8 3 .8 4.5c0 .9-0.1 1.8-0.3 2.6c-1.3 6.3-6.8 10.7-13.1 10.7Z" fill="#fff"/></g><path d="M220.8 161c-0.3 0-0.5-0.2-0.6-0.5c-0.1-0.8-0.2-1.6-0.4-2.4c0-0.3 .2-0.7 .5-0.7c.3-0.1 .7 .1 .8 .5c.1 .8 .3 1.6 .3 2.4c.1 .4-0.2 .7-0.6 .7c.1 0 .1 0 0 0Z" fill="#222"/><path d="M192.1 189.4h-0.1c-0.4-0.1-0.8-0.1-1.3-0.2c-1.2-0.2-2.3-0.5-3.5-0.9c-0.3-0.1-0.5-0.4-0.4-0.7c.1-0.4 .4-0.5 .7-0.5c1.1 .4 2.3 .6 3.4 .8c.4 .1 .9 .1 1.2 .2c.3 .1 .6 .4 .6 .7c-0.1 .3-0.3 .6-0.6 .6Zm7.8-0.3c-0.3 0-0.5-0.2-0.6-0.5c0-0.3 .2-0.7 .5-0.7c1.5-0.3 3.1-0.8 4.6-1.4c.3-0.1 .7 0 .8 .4c.1 .3 0 .7-0.4 .8c-1.5 .6-3.1 1.1-4.7 1.4c-0.1 0-0.1 0-0.2 0Zm11.5-5.4c-0.2 0-0.4-0.1-0.5-0.2c-0.2-0.3-0.2-0.7 .1-0.9c1.2-1 2.4-2.1 3.3-3.4c.3-0.2 .7-0.3 .9 0c.2 .2 .3 .6 .1 .8c-1.1 1.3-2.3 2.5-3.6 3.5c0 .1-0.2 .2-0.3 .2Zm7.6-10.1c-0.1 0-0.2 0-0.3-0.1c-0.3-0.1-0.5-0.5-0.3-0.8c.6-1.5 1.1-3 1.4-4.5c.1-0.3 .4-0.6 .8-0.5c.3 .1 .5 .4 .5 .7c-0.4 1.7-0.9 3.3-1.5 4.8c-0.2 .2-0.4 .4-0.6 .4Z" fill="#222"/><path d="M180.2 184.9c-0.1 0-0.3 0-0.4-0.1c-0.7-0.5-1.3-1-1.9-1.5c-0.3-0.3-0.3-0.6-0.1-0.9c.2-0.2 .6-0.3 .8 0c.7 .5 1.3 .9 1.9 1.4c.3 .2 .4 .6 .2 .9c-0.1 .1-0.3 .2-0.5 .2Z" fill="#222"/><path d="M169.2 166.4c-0.3 0-0.6-0.3-0.6-0.6c-0.1-0.8-0.1-1.6-0.1-2.5c0-0.4 .2-0.6 .6-0.6c.3 0 .6 .2 .6 .6c0 .8 0 1.6 .1 2.4c.1 .3-0.2 .6-0.5 .7c-0.1 0-0.1 0-0.1 0Z" fill="#222"/><path d="M170.1 156.2c-0.1 0-0.1 0-0.2 0c-0.3-0.1-0.5-0.4-0.4-0.7c.5-1.6 1-3.1 1.8-4.6c.1-0.3 .6-0.4 .8-0.2c.3 .1 .4 .5 .3 .8c-0.8 1.4-1.3 2.8-1.7 4.3c-0.1 .2-0.4 .4-0.6 .4Zm6.3-10.7c-0.2 0-0.3-0.1-0.4-0.2c-0.3-0.3-0.3-0.6 0-0.9c1.1-1.1 2.3-2.2 3.7-3.1c.3-0.2 .7-0.2 .8 .1c.2 .3 .2 .7-0.1 .8c-1.3 1-2.4 1.9-3.5 3.1c-0.2 .1-0.4 .2-0.5 .2Zm27.6-6.3c-0.1 0-0.2 0-0.2-0.1c-1.5-0.5-3-0.9-4.5-1.2c-0.3-0.1-0.6-0.4-0.5-0.7c0-0.3 .3-0.6 .7-0.5c1.6 .2 3.2 .7 4.8 1.3c.3 .1 .5 .5 .3 .8c-0.1 .2-0.4 .4-0.6 .4Zm-17.1-0.3c-0.2 0-0.4-0.2-0.6-0.4c-0.1-0.4 .1-0.7 .4-0.8c1.5-0.5 3.2-0.9 4.8-1.1c.3-0.1 .6 .1 .6 .5c.1 .3-0.2 .7-0.5 .7c-1.5 .2-3.1 .5-4.6 1c.1 .1 0 .1-0.1 .1Z" fill="#222"/><path d="M212.6 144.5c-0.1 0-0.3-0.1-0.4-0.2c-0.6-0.5-1.2-1-1.8-1.5c-0.3-0.2-0.3-0.6-0.1-0.9c.1-0.2 .6-0.3 .8-0.1c.7 .5 1.3 1 1.9 1.6c.2 .2 .2 .6 .1 .9c-0.2 .1-0.3 .2-0.5 .2Z" fill="#222"/><g transform="translate(194.9,163.2) translate(-20,-20.1)" style="animation: 4s linear infinite both a4_t;"><path d="M35.4 7c-0.1-0.1-0.2-0.2-0.4-0.1l-3.7 1c-1.3-1.3-2.8-2.2-4.4-3l-0.6-3.8c0-0.1-0.1-0.3-0.2-0.3l-4.5-0.8c-0.1 0-0.2 .1-0.3 .1l-1.9 3.3c-1.8 .1-3.6 .4-5.2 1.1l-3.1-2.4c-0.1 0-0.2 0-0.3 0l-3.8 2.6c-0.1 .1-0.2 .2-0.1 .4l.9 3.6c-1.2 1.3-2.2 2.8-3 4.5l-3.7 .5c-0.2 0-0.3 .2-0.3 .3l-0.8 4.4c0 .2 0 .3 .1 .3l3.3 1.9c0 1.9 .4 3.6 1 5.3l-2.3 3c-0.1 .2-0.1 .3 0 .4l2.6 3.8c0 .1 .1 .2 .3 .1l3.7-1c1.3 1.3 2.8 2.2 4.4 3l.6 3.8c0 .1 .1 .3 .2 .3l4.5 .8c.1 0 .2 0 .3-0.1l1.9-3.3c1.8-0.1 3.6-0.4 5.2-1l3.1 2.3c.1 0 .2 0 .4 0l3.7-2.6c.2 0 .2-0.2 .2-0.4l-1-3.6c1.2-1.3 2.2-2.8 3-4.5l3.8-0.5c.1 0 .2-0.1 .2-0.3l.9-4.4c0-0.1-0.1-0.3-0.2-0.3l-3.3-1.9c0-1.9-0.4-3.6-1-5.3l2.3-3c.1-0.2 .1-0.3 0-0.4l-2.5-3.8Z" fill="#222"/><path d="M20 25c-1.2 0-2.3-0.4-3.3-1.2c-0.9-1-1.5-2.1-1.6-3.5c-0.1-2.7 2-5 4.7-5.2c1.3 0 2.6 .4 3.6 1.3c1 .9 1.6 2.1 1.6 3.4c.1 1.4-0.3 2.6-1.2 3.6c-1 1-2.1 1.6-3.5 1.7c-0.1-0.1-0.1-0.1-0.3-0.1Zm0-8.1c0 0-0.1 0-0.1 0c-1.8 .1-3.1 1.6-3 3.3c.1 .9 .5 1.6 1.1 2.1c.6 .6 1.4 .9 2.2 .8c.9 0 1.6-0.4 2.2-1c.5-0.6 .8-1.4 .8-2.3c-0.1-0.8-0.5-1.5-1.1-2.1c-0.5-0.5-1.3-0.8-2.1-0.8Z" fill="#fff"/><path d="M20 32c-0.8 0-1.5-0.1-2.3-0.2c-3.2-0.7-5.8-2.4-7.6-5.1c-1.3-2-2-4.3-2-6.6c0-0.8 0-1.5 .2-2.3c1.3-6.4 7.5-10.7 14-9.4c.1 0 .1 0 .2 0c.8 .2 1.4 .4 2.1 .7c.1 0 .1 .1 .1 .1l-0.7 1.7c-0.7-0.3-1.3-0.5-2.1-0.6c-0.4-0.1-0.8-0.2-1.2-0.2c-5-0.4-9.6 3-10.6 8c-0.1 .7-0.2 1.3-0.2 2c0 1.9 .6 3.9 1.7 5.6c1.5 2.3 3.8 3.7 6.4 4.3c5.5 1.1 10.8-2.5 11.9-8c.1-0.6 .1-1.2 .1-1.9c0-1.2-0.1-2.3-0.6-3.4l1.7-0.6c.5 1.2 .7 2.6 .7 4c0 .8 0 1.5-0.2 2.3c-1.1 5.7-6.1 9.6-11.6 9.6Z" fill="#fff"/></g><path d="M431.7 200.6c-0.6 27.8-2.5 123.9-1.6 158c.1 3.6 2.5 6.6 5.7 6.6c15.2 .6 71.1 2.1 96 .9c5.2-0.3 9.3-5.2 9.5-11.3c.4-29.2 1.6-111.5-1.1-149.2c-0.3-4.5-3.3-8.1-7.2-8.5c-16.6-2-72.7-6.7-94.3-5.1c-3.9 .3-7 4-7 8.6Z" fill="#222"/><path d="M438.4 209.1c-0.8 22.5-3.4 97.4-2.5 125c.1 4.1 2.8 7.4 6.3 7.6c14.2 1 62.6 3.1 83.5 1.2c3.7-0.4 6.7-3.9 6.9-8.3c1-23 4.1-92.7 3.3-120.1c-0.1-4.3-3-7.9-6.7-8.3c-15.4-1.5-66.9-5.4-84.6-4.3c-3.4 .2-6 3.3-6.2 7.2Z" fill="#fff"/><path opacity=".65" d="M477.1 362.8c-3.8 0-6.8-3.5-6.8-7.9c0-4.4 3-7.9 6.8-7.9c3.8 0 6.9 3.5 6.9 7.9c0 4.3-3.1 7.9-6.9 7.9Zm0-14.6c-3.1 0-5.6 3-5.6 6.7c0 3.7 2.5 6.7 5.6 6.7c3.1 0 5.6-3 5.6-6.7c0-3.7-2.5-6.7-5.6-6.7Z" fill="#fff"/><path opacity=".5" d="M469.3 196.8c0 .9 .6 1.6 1.3 1.6c3.6 .3 13.7 .9 18.3 1.2c.9 0 1.6-0.9 1.4-1.9v-0.2c-0.1-0.7-0.6-1.2-1.2-1.3c-3.1-0.3-12.3-1.2-18.4-1c-0.8 0-1.4 .8-1.4 1.6Z" fill="#fff"/><path d="M472.5 276.8l28.1 1.1l-2-23.5l-26.1-0.7v23.1Z" fill="#e9edf2"/><path d="M503.8 278l21.9 .9l.2-23.8l-24-0.7l1.9 23.6Z" fill="#e9edf2"/><path d="M525.9 251.2l.2-24.9c0-3-1.9-5.5-4.5-5.7l-66.6-4.9c-2.7-0.2-5 2.3-5.1 5.4l-1.1 28l77.1 2.1Z" fill="#e9edf2"/><path d="M469.3 253.6l-20.7-0.6l-0.9 22.8l21.6 .9v-23.1Z" fill="#e9edf2"/><path d="M447.6 279.7l-1.8 47c-0.1 3.2 2 5.8 4.7 5.9l69.9 2.1c2.7 0 5-2.5 5-5.6l.3-46.3l-78.1-3.1Z" fill="#e9edf2"/><path d="M130.3 316.8h-4.7v50.2h4.7v-50.2Z" fill="#434242"/><path d="M107.6 368h40.6v-1.3c0-1-0.8-1.8-1.8-1.8h-36.9c-1.1 0-1.9 .9-1.9 1.9v1.2Z" fill="#434242"/><path d="M99.9 315c0 2.9 2.4 5.3 5.3 5.3h43.7c2.9 0 5.3-2.4 5.3-5.3v-4.8c0-2.9-2.4-5.3-5.3-5.3h-43.7c-2.9 0-5.3 2.4-5.3 5.3v4.8Z" fill="#ef6238"/><path d="M169 351.8c0 0 15 6.5 14.2 13.2c0 0-15.5-3-18.3-7.4c-2.7-4.5-1.2-7-1.2-7l5.3 1.2Z" fill="#434242"/><path d="M165.3 344.4l-0.7 6.6c-0.1 1 .4 1.9 1.4 2.3c.5 .2 1.1 .3 1.9 .3c1.2 0 2.1-0.7 2.4-1.8l1.5-5.3l-6.5-2.1Z" fill="url(#Gradient-0)"/><path d="M132.6 293.9c0 0 27.6-1.2 41.3 6.8c13.7 8-0.7 46.4-0.7 46.4c0 0-3.6 .8-8.7-2c0 0 7.4-28.2-5.4-33.1c-14.4-5.5-29.3-4.1-29.3-4.1l2.8-13.2v-0.8Z" fill="#171717"/><path d="M180.1 362c-3.1-0.6-12.4-4.5-13.8-4.5c-1.4 .1-3.5 2.2-3.5 2.2c0 0-0.3 1.2 .7 2.8c2.4 1.9 7.6 5.3 13.6 5.7c4.4 .3 7-1.5 8.6-3.2c-1.4-1.3-3.5-2.5-5.6-3Z" fill="#525252"/><path d="M177.1 368.2c-6-0.4-11.2-3.8-13.6-5.7c.7 1.1 2 2.5 4.5 3.9c6 3.4 16.1 2.9 18 2.1c1.6-0.6 1.1-2.1-0.3-3.5c-1.6 1.7-4.2 3.5-8.6 3.2Z" fill="#434242"/><path d="M159.6 356.3c.1 .8 2.3 3.1 3.6 4.4c.6 .6 1.5 .8 2.3 .7c.6-0.2 1.2-0.3 1.7-0.6c.8-0.5 1-1.4 .6-2.2l-3.2-5.9l-5 3.6Z" fill="url(#Gradient-1)"/><path d="M105.3 291.6c0 0-2.4 17.1 4.6 20.6c6.9 3.5 22.2 5.8 27.4 14.7c5.3 8.8 14.7 26.2 23.4 31.2c0 0 4.8-1.6 6.3-4c0 0-10.2-26.8-14.5-33.3c-3.6-5.7-9.1-13.9-16.7-17.3c-2.2-1-2.4-3.4-1.9-5.8l.7-4.3l-29.3-1.8Z" fill="#000"/><path d="M169.7 272.3c-9.7 2.8-14.1-24.7-14.1-25.4l-14.9 17.5c0 0 8.9 15.7 22.4 17.4c3.4 .4 6.3-0.2 8.7-1.3c-1.8-3-2.2-5.9-2.1-8.2Z" fill="#e5633c"/><path d="M187.8 263.2c-4.3-1.7-7.9 1.8-7.9 1.8c-4.2 4.3-7.5 6.5-10.2 7.3c-0.1 2.3 .3 5.3 2.1 8.2c5.3-2.4 8.3-7.3 9.6-9.7c.4-0.9 1.5-1.2 2.4-0.8c.9 .4 1.8 1.1 1.9 2c.1 1.8 2.2 1.9 2.2 1.2c0-0.6-1.6-4.1-1.6-4.1c0 0 4.9 3.1 6.7 4.3c1.9 1.2 3.6-0.8 3.6-0.8c0 0-4.5-7.6-8.8-9.4Z" fill="url(#Gradient-2)"/><path d="M109 235.6c0 0 13.1-9 44.8 7.2c0 0 3.2 4.1 1.7 8.8c-1.5 4.6-20.3 29.9-21 41.7c0 0-12.9 7.6-29.6 .1c0 0-5.5-31.3 4.1-57.8Z" fill="#ef6238"/><path d="M136.3 224.1l-5.2 10.2c-0.5 1-0.4 2.2 .3 3.1c1.4 1.8 4.4 4.2 9.5 2.6c1.5-0.5 2.7-1.7 3-3.2l2.7-11.4l-10.3-1.3Z" fill="url(#Gradient-3)"/><path d="M99.3 271c-0.9-6.1 15.5-18.1 15.5-18.1l-5.8-17.3c0 0-31.1 22.2-24.6 40.3c1 2.7 2.4 4.5 4.1 5.9c3.3-6.8 7.8-9.6 10.8-10.8Z" fill="#ef6238"/><path d="M122.1 272.7c0 0-18.4 5.2-22.3-0.4c-0.2-0.4-0.4-0.8-0.5-1.3c-3 1.2-7.5 4-10.8 10.8c8.8 6.9 25.7-0.9 30.2-3.2c.8-0.4 1.7-0.4 2.5-0.2c1.6 .5 4.4 1.3 6 1.2c2.3-0.1 4.8 8.2 8.7 6.2c0 0-1.8-14.3-13.8-13.1Z" fill="url(#Gradient-4)"/><g transform="translate(140.8,217.1) translate(-14.9,-17.2)" style="animation: 4s linear infinite both a5_t;"><path d="M143 207.5c.2 .2 9.7 17.1 9.7 17.1l-9.7 5.2l-11.4-14.6c0 0 7.7-10.9 11.4-7.7Z" fill="url(#Gradient-5)" transform="translate(-125.9,-199.9)"/><path d="M10.2 16.8l5.4 8.2c.1 .1 .1 .2 .2 .3c.6 .5 2.7 2.1 4.2-0.2c1.4-2.1 2.7-3.9 4.1-4.6c.6-0.3 1.4-0.1 1.7 .6c.9 1.5 2.8 5 3.9 8.3c.3 .6 0 1.4-0.7 1.7c-1.9 .9-6 2.6-9.7 3.3c-0.5 0-1-0.1-1.3-0.5c-1.5-1.9-6.1-7.7-7.7-9.2c-1.4-1.3-4-0.6-5-0.3c-0.4 .1-0.8 .1-1.1 0c-1.1-0.7-3.4-2.3-1.5-5.5c.4-0.6 .1-1.5-0.5-1.9c-1.4-0.7-3-2.3-1.7-5c1.2-2.7 3.8-3 5.4-2.8c.7 .1 1.3-0.4 1.5-1c.1-0.3 .3-0.6 .9-0.8c.8-0.1 1.3-0.9 1.1-1.7c-0.4-1.4-0.3-3.4 2-4.9c4.2-2.5 8.1 1.2 9.1 4.4c1.1 3.2-3.6 5.7-6.6 6.1c-2.2 .4-3.3 3-3.7 4.3c-0.3 .4-0.2 .8 0 1.2Z" fill="#222"/><path d="M138.1 227.6c0 0-2.1-5.5-4.5-5.2c-2.5 .3-4.3 2.8-1.1 5.4c3.9 3.2 5.6-0.2 5.6-0.2Z" fill="url(#Gradient-6)" transform="translate(-125.9,-199.9)"/></g><path d="M145.6 284.5c.1 0 .1 0 .2 0h43c1.1 0 2-0.9 2-2c0-1-0.9-1.9-2-1.9h-43c-1.1 0-2 .9-2 2c0 1 .8 1.9 1.8 1.9Z" fill="#434242"/><path d="M227.5 245.3h-35.9c-2.6 0-5 1.6-6.1 3.9l-16.6 35.2h44.6c1.7 0 3.2-1 3.8-2.6l12.9-32.6c.7-1.8-0.7-3.9-2.7-3.9Z" fill="#434242"/><path d="M202.3 263.4c-0.8 2.4-0.2 4.8 1.2 5.3c1.5 .4 3.3-1.1 4.1-3.5c.8-2.5 .2-4.8-1.3-5.3c-1.4-0.5-3.2 1.1-4 3.5Z" fill="#ef6238"/><path d="M221.7 377c.3 0 .5-0.1 .8-0.1c.9-0.4 1.3-1.4 .9-2.3l-37.9-85.6c-0.4-0.9-1.5-1.3-2.4-0.9c-0.9 .3-1.3 1.4-1 2.3l38 85.6c.2 .6 .9 1 1.6 1Z" fill="#434343"/><path d="M179 377c.6 0 1.3-0.4 1.6-1l38-85.6c.3-0.9 0-1.9-1-2.3c-0.9-0.4-2 0-2.4 .9l-38 85.6c-0.3 .9 0 1.9 1 2.3c.3 0 .5 .1 .8 .1Z" fill="#434343"/><path d="M104.2 377c.3 0 .5-0.1 .7-0.1c1-0.4 1.4-1.4 1-2.3l-37.9-85.6c-0.4-0.9-1.5-1.3-2.4-0.9c-0.9 .3-1.4 1.4-1 2.3l37.9 85.6c.3 .6 1 1 1.7 1Z" fill="#434343"/><path d="M61.4 377c.7 0 1.4-0.4 1.7-1l37.9-85.6c.4-0.9 0-1.9-0.9-2.3c-1-0.4-2.1 0-2.4 .9l-38 85.6c-0.3 .9 0 1.9 1 2.3c.3 0 .5 .1 .7 .1Z" fill="#434343"/><path d="M57 286.4c-0.1-0.6 0-1.2 .4-1.6c.3-0.4 .7-0.7 1.3-0.7h172.7c.7 0 1.3 .4 1.7 1c.3 .7 .4 1.5 .1 2.2l-1.9 4.5c-0.4 1-1.3 1.7-2.4 1.7h-169c-1 0-1.8-0.7-2-1.8l-0.9-5.3Z" fill="#222"/><path d="M383.5 243.9c0 0-13.2 16.9 1.8 34.2l5.7-0.6c0 0-10.9-17.5-6.1-31.4l8-1l4.5-4.4l-13.9 3.2Z" fill="url(#Gradient-7)"/><path d="M390.7 325.6c0 0 10.6 23.3 16.3 33c0 0 1.1 6.1 0 8l-1 .4l4.4-0.1c0 0 .4-8.2 .1-8.6c-0.3-0.5-0.9-0.5-0.9-0.5c0 0-1.9-15.1-7.4-18.2l-5.3-18.4l-6.2 4.4Z" fill="url(#Gradient-8)"/><path d="M404.2 368.1c0 .2 3.4 .1 5.3 0c.7 0 1.3-0.4 1.5-1.1l1.4-7.5c.1-0.7-0.3-1.4-1-1.6l-0.8-0.1c0 0-1.2 1.5-0.8 3c.3 1.4 .6 5.2-0.3 5.6c-0.9 .5-3.5 .6-3.5 .6c0 0-1.8 .2-1.8 1.1Z" fill="#222"/><path d="M380.5 368.3c-0.3 .1-0.1 .7 .2 .7c3.2-0.1 10.2-0.1 10.9-0.4c.8-0.3-0.3-3.2-1.5-4.2l-6.4 2.1l-3.2 1.8Z" fill="#222"/><path d="M378.5 324.1c0 0 6.9 33.5 8.9 40l-4.7 2.9c0 0 2.4-0.3 4.1-0.5c1.7-0.1 3.3-2.1 3.3-2.1l-0.6-0.8c0 0-1.7-33.3-1.3-37.1l-9.7-2.4Z" fill="url(#Gradient-9)"/><path d="M361.4 246.1l2.2-1.9l.6-0.9c.1-0.2 .1-0.4 0-0.4c0-0.1-0.2-0.2-0.3-0.2c-1.6 .2-3.9 .8-4.4-0.3l-2.1-3.1c-0.5-1.1-0.7-2.2-1.7-2.8l-0.3-0.2c-0.5-0.3-1.1 0-1.2 .5l-0.4 1.6c-0.5 1.7 4.8 9.6 4.8 10.3c-0.5 23.7 13.8 32.4 13.8 32.4l3.8-8.7c-15.7-8.9-14.8-26.3-14.8-26.3Z" fill="url(#Gradient-10)"/><path d="M375.7 271c2.6 .8 11.6 3.2 17.2 3l-3.4 19.5l.3 3.1h-11.3c0 0-3.1-7.4-5.6-11c-0.8-1.1-0.2-2.3 .2-3.6l-0.6-0.3c-0.5-0.4-0.7-1.1-0.6-1.8l2.8-8.4c.2-0.3 .6-0.6 1-0.5Z" fill="#ef6238"/><path d="M377.7 295l.2 1.9c0 0-3.2 9.5 1.6 31.7c0 0 10.3 2.9 18.7-4.1c0 0-2.3-21-3-21.9c-3.2-4.9-5.4-6-5.4-6l-0.2-2c.1 0-8.9 1.6-11.9 .4Z" fill="#222"/><path d="M382.1 272.6c-0.1 0 2.3-7.2 2.3-7.2l3.4 .3l1.3 8.1c0 0-5.3 1.1-7-1.2Z" fill="url(#Gradient-11)"/><g transform="translate(394.1,270.6) translate(-13.1,-19.5)" style="animation: 4s linear infinite both a6_t;"><path d="M387 254.2c-0.2 .1-7.3 3-5.8 10.4c.1 .4 .4 .8 .8 .9c1 .5 3.3 1.3 5.9 1c3.7-0.3 6.1-6.8 6.1-8.7c-0.2-1.8-4.7-5-7-3.6Z" fill="url(#Gradient-12)" transform="translate(-381,-251.1)"/><path d="M8.1 .2c-0.1 0-4 1.4-2.1 4.2c2 2.8 2.7 4.5 1.8 5.8c-0.9 1.1-2.7 .5-2.5 2.8c0 .5-0.2 .9-0.6 1.2c-1.7 1.2-6 4.8-1.7 10c.3 .4 .4 .9 .1 1.4c-1.2 2.2-3.8 8.7 5.5 12.3c9.2 3.5 12.6-2.5 13.5-5c.2-0.5 .7-0.8 1.3-0.7c1 0 2.4-0.2 2.4-1.5c-0.1-0.9-0.6-1.6-1.2-2.1c-0.6-0.7-0.5-1.6 .3-2.1c.5-0.3 1-0.8 1.2-1.6c.5-2-0.6-8.3-6.5-9.3c-0.5-0.1-1.1-0.5-1.1-1c-0.1-0.5 0-1 .4-1.3c1-0.7 2.2-2.1 1.2-4.4c-0.9-2-2.6-2.6-3.8-2.8c-0.7-0.1-1.2-0.8-1-1.6c.4-2 0-5.2-7.2-4.3Z" fill="#222"/></g><path d="M459.6 360.7c0 0 .4 2.4 .6 4.9c.1 1-0.6 1.8-1.6 1.8c-3.2 .1-10.2 .4-12.7 .3c-0.3 0-0.6-0.4-0.4-0.7c.1-0.3 .3-0.6 .6-0.7l11.4-5.2l2.1-0.4Z" fill="#525252"/><path d="M459.9 359.3l-0.3 2.9c0 0-2.1 .9-3.4-0.1l.9-3.3l2.8 .5Z" fill="url(#Gradient-13)"/><path d="M459.6 303.8c.1 .8 .8 38.4-3.2 55.3c-0.1 .3 0 .6 .3 .7c.6 .2 1.8 .6 3.3 .6c.4 0 .8-0.3 1-0.7c1.1-3.9 6.6-23.5 7.3-42.2c.8-21 0-0.8 0-0.8l-0.4-12.9h-8.3Z" fill="#222"/><path d="M472.7 362c0 0 .7 1.2 1.4 4.6c.1 .6-0.3 1.1-0.9 1.2c-1.1 .1-2.8 .2-4.1 .2c-0.6 0-1.1-0.5-1-1.1c.1-1.3 .6-3.2 2-4.7l2.6-0.2Z" fill="#525252"/><path d="M473.3 358.2l-0.8 4.4c0 0-0.7 .7-2.3 .2l.3-4.8l2.8 .2Z" fill="url(#Gradient-14)"/><path d="M475.5 305c3.3 19.8-0.7 49.1-2 54.8c-0.1 .3-0.4 .6-0.8 .6c-0.6 .2-1.6 .2-2.5-0.1c-0.4-0.1-0.6-0.4-0.6-0.7c-0.2-4.6 .1-33-3-44.2c-0.2-0.6-0.5-1.1-0.9-1.4l-6-4.2l-0.4-6.9l16.2 2.1Z" fill="#222"/><path d="M454.6 267.4c9.8-0.2 20.8 2.5 20.8 2.5c2.9 17.2 .4 37 .4 37c-7.6 2-16.2-1.2-16.2-1.2c-1.3-7.2-7.2-27.4-7.2-27.4c-4.8-0.6-8.8-2-12-3.8c2.5-2.9 3.7-6.6 4.1-8.8c3.5 1.1 7.1 1.7 10.1 1.7Z" fill="#ef6238"/><g transform="translate(421.3,242.6)"><path d="M425.5 252.8c1-1.1 2.2-0.6 2.2-0.6c1.5 6.1 9 11.1 16.8 13.6c-0.4 2.2-1.7 5.9-4.1 8.7c-13-7.3-14.9-21.7-14.9-21.7Z" fill="url(#Gradient-15)" transform="translate(-421.3,-242.6)" style="animation: 4s linear infinite both a7_d;"/><path d="M425.7 253.1c-0.1 .4 1.1 .8 1.8-0.4c0-0.7 .4-3.4 0-3.9c-2-2.7-5.9-6.2-5.9-6.2c-0.7 .7-0.1 1.3-0.1 1.3l1.9 2c-0.4 .7-0.9 1.3-1.1 2.2c-0.2 .6-0.1 1.3 .2 1.9c.3 .6 .8 1.4 1.2 2c.9 1.1 2 1.1 2 1.1Z" fill="url(#Gradient-16)" transform="translate(-421.3,-242.6)" style="animation: 4s linear infinite both a8_d;"/><path d="M424.2 247.2l1.7 1.4l.6 1.5l-1.5 1.7c0 0-0.5-2.9-1-3.5c-0.3-0.7-0.1-1 .2-1.1Z" fill="url(#Gradient-17)" transform="translate(-421.3,-242.6)" style="animation: 4s linear infinite both a9_d;"/></g><path d="M471.5 279.5l3.8-9.6c0 0 9.2 6.3 10.7 14.2c-1.7 .1-4.8 .6-8 2.1c-0.6-3.6-6.5-6.7-6.5-6.7Z" fill="#ef6238"/><path d="M463.5 288.5c0 0 10.3 5.9 13.8 .9c.7-1.1 .9-2.1 .7-3.1c3.2-1.6 6.3-2 8-2.1c.5 2.4 .3 4.9-1.1 7.5c-6.1 11.2-22.7-0.6-22.7-0.6l1.3-2.6Z" fill="url(#Gradient-18)"/><g transform="translate(463.5,285.9) translate(-23.9,-12.1)" style="animation: 4s linear infinite both a10_t;"><path d="M25.8 23.3l-5.6-19.7c0-0.3-0.2-0.4-0.5-0.5c-1-0.1-3.9-0.4-7.3-0.7c-4.1-0.4-9-0.6-11.8-0.4c-0.4 .1-0.7 .5-0.5 .9c1.6 3.3 8.3 16.7 11.6 21.1c.2 .1 .3 .2 .5 .2l13.1-0.1c.4-0.1 .7-0.4 .5-0.8Z" fill="#434242"/><path d="M11.7 .7l-4-0.7c-0.3 0-0.4 .2-0.3 .4l.4 1.2c0 .1 .1 .2 .2 .2l3.9 .5c.2 0 .4-0.1 .3-0.3l-0.2-1.1c-0.1-0.1-0.1-0.1-0.3-0.2Z" fill="#434242"/><path d="M14.8 4.2l-0.4-1.8c0-0.2-0.2-0.3-0.3-0.3l-8.3-0.9c-0.3 0-0.5 .3-0.4 .5l.5 2.2c.1 .2 .2 .3 .4 .3l8.1 .5c.2 0 .5-0.3 .4-0.5Z" fill="#222"/><path d="M463.4 291.1c0 0 .8-3.2 .5-4.4c-0.3-1.1-0.9-2.6-3-2.3c-2.1 .3-4.5 1.2-4.5 1.2c0 0 .2 1.4 1.7 1l-1 .7c0 0 .1 1.3 1.5 .6l-0.9 1c0 0 .5 .9 1.5 .3c1-0.5 1.5 2.3 4.2 1.9Z" fill="url(#Gradient-19)" transform="translate(-438.9,-272.6)"/></g><path d="M464.6 259.4l3.1 9.1c0 .1 0 .3-0.2 .3c-0.8 .5-3.9 1.9-7.6-0.4c-0.3-0.3-0.7-0.7-0.7-1.1l-1.1-7.9h6.5Z" fill="url(#Gradient-20)"/><path d="M457.7 250.9c0 0-3.4 6.5-3 9.1c.5 2.7 4.7 2.5 8.5 .4l2.6-7.1l-8.1-2.4Z" fill="url(#Gradient-21)"/><path d="M463 256.9c-0.1 0-0.1-0.2-0.1-0.3c.3-0.5 .8-1.3 1-2c0 0 .6-0.4-1.6-1c-2.2-0.5-5.5-1.3-6.2-3.2c-0.6-1.8 1.1-6.4 3.9-2.8c.2 .2 .3 .2 .5 0c.5-0.6 1.6-1.8 3.3-1.1c1.6 .8 1.8 1.9 1.7 2.5c0 .2 .2 .3 .3 .2c.8-0.1 2.7-0.3 3.6 1.7c.8 1.6 .3 2.5-0.1 3c-0.2 .1-0.1 .3 .1 .4c.5 .2 1.2 .6 1.1 1.8c-0.1 1.7-2 1.6-2.5 1.5c0 0-0.1 0-0.2 .1c-0.5 .5-2.6 2.7-4.8 2.9c-0.2 0-0.4-0.2-0.3-0.4l.9-2.8c.1-0.1 0-0.3-0.1-0.3l-0.5-0.2Z" fill="#222"/><path d="M462.6 257.4c0 0 2.4-1.8 2.6-0.3c.2 1.4-2.2 2.1-3.4 1.5l.8-1.2Z" fill="url(#Gradient-22)"/><g transform="translate(139.6,96.9) translate(-40.9,-13)" style="animation: 4s linear infinite both a11_t;"><path d="M.3 3.8c.3-0.3 .7-0.5 1.1-0.5l47 4.4v-6.7c0-0.4 .2-0.7 .4-0.8c.4-0.2 .7-0.3 1-0.2l31.3 12c.4 .2 .6 .6 .6 1c0 .4-0.2 .8-0.6 1l-31.3 11.9c-0.3 .2-0.6 .1-1-0.1c-0.3-0.2-0.4-0.5-0.4-0.8v-4.3l-41.6 2c-1.4 .1-2.7-0.9-3-2.3l-3.8-15.4c-0.1-0.4 0-0.9 .3-1.2Z" fill="#ef6238"/><path d="M77 13.5c-0.1 0-0.2 0-0.3 0l-24.5-9.2c-0.1 0-0.1 .1-0.1 .1v4.9c0 .5-0.4 .9-0.9 .9c-0.5 0-0.9-0.4-0.9-0.9v-4.9c0-0.6 .3-1.2 .8-1.6c.6-0.3 1.2-0.4 1.7-0.2l24.5 9.2c.5 .1 .8 .7 .6 1.1c-0.1 .4-0.5 .6-0.9 .6Z" fill="#fff"/><path d="M47.1 10.6c0 0-0.1 0-0.1 0l-2.5-0.4c-0.5-0.1-0.8-0.6-0.7-1.1c0-0.5 .5-0.8 1-0.7l2.5 .4c.5 .1 .9 .6 .8 1.1c-0.1 .4-0.5 .7-1 .7Z" fill="#fff"/></g><g transform="translate(79.6,126.9) translate(-44.2,-14)" style="animation: 4s linear infinite both a12_t;"><path d="M88.1 4.1c-0.3-0.4-0.8-0.5-1.3-0.5l-50.8 4.7v-7.2c0-0.4-0.2-0.8-0.5-1c-0.3-0.1-0.7-0.2-1-0.1l-33.8 13c-0.4 .2-0.7 .6-0.7 1c0 .5 .3 .9 .7 1l33.8 13c.3 .1 .7 .1 1-0.1c.3-0.2 .5-0.6 .5-0.9v-4.6l45 2.1c1.5 .1 2.8-0.9 3.2-2.4l4.1-16.8c.2-0.3 .1-0.8-0.2-1.2Z" fill="#ef6238"/><path d="M5.3 14.6c-0.4 0-0.7-0.2-0.9-0.6c-0.1-0.5 .1-1 .6-1.2l26.4-9.9c.6-0.3 1.4-0.1 1.9 .2c.6 .4 .9 1.1 .9 1.7v5.4c0 .5-0.4 .9-0.9 .9c-0.5 0-0.9-0.4-0.9-0.9v-5.4c0 0-0.1-0.1-0.1-0.2c-0.1 0-0.2-0.1-0.3 0l-26.4 10c-0.1 0-0.2 0-0.3 0Z" fill="#fff"/><path d="M37.5 11.4c-0.5 0-0.9-0.3-1-0.8c0-0.5 .3-1 .8-1l2.7-0.5c.5 0 1 .3 1.1 .8c0 .4-0.3 .9-0.8 1l-2.7 .4c0 .1-0.1 .1-0.1 .1Z" fill="#fff"/></g></svg>