<svg width="196" height="234" viewBox="0 0 196 234" fill="none" xmlns="http://www.w3.org/2000/svg">
<path d="M74.5097 193.272L83.8634 209.542L98.0531 234L112.19 209.489L121.543 193.219C164.272 182.691 196 144.09 196 98.045C196 43.9182 152.155 1.14257e-05 98 6.69136e-06C43.8449 1.95697e-06 1.66221e-05 43.865 1.18856e-05 98.045C0.053139 144.09 31.7809 182.691 74.5097 193.272Z" fill="#EF6238"/>
<path d="M98.5 11C50.1751 11 11 49.7274 11 97.5C11 145.273 50.1751 184 98.5 184C146.825 184 186 145.273 186 97.5C186 49.7274 146.825 11 98.5 11Z" fill="white"/>
<path d="M153.205 146.911C163.197 135.631 169.221 121.069 169.221 105.164C169.221 69.373 138.72 40.3545 101.08 40.3545C63.4405 40.3545 32.9395 69.373 32.9395 105.164C32.9395 121.069 38.9631 135.631 48.9552 146.911H153.205Z" fill="#DAE9F2" fill-opacity="0.45"/>
<mask id="mask0_298_10864" style="mask-type:alpha" maskUnits="userSpaceOnUse" x="32" y="40" width="138" height="107">
<path d="M153.191 146.538C163.185 135.297 169.211 120.786 169.211 104.937C169.211 69.2714 138.702 40.3545 101.053 40.3545C63.4033 40.3545 32.8945 69.2714 32.8945 104.937C32.8945 120.786 38.9197 135.297 48.9144 146.538H153.191Z" fill="#DDE9F3"/>
</mask>
<g mask="url(#mask0_298_10864)">
<path d="M68.6029 93.1893C67.3126 92.8519 65.8363 91.7813 66.1644 90.4198C64.1961 91.0133 62.8511 87.3594 60.839 87.79C60.4563 87.8714 60.0736 88.1042 59.6908 87.9878C58.9254 87.7551 58.7286 86.2539 57.8538 86.6845C57.7553 86.731 57.6679 86.8125 57.5913 86.9056C56.8915 87.8016 55.7324 88.4533 54.6607 88.1274C53.6656 87.8249 52.9986 86.4401 53.611 85.5441C52.8346 85.4743 51.9051 85.3114 51.5989 84.5434C51.3912 84.0314 51.5552 83.4379 51.424 82.9026C51.2927 82.3673 50.5164 81.9833 50.2977 82.4837C50.0133 83.4495 48.723 83.7986 47.9466 83.2052C47.1702 82.6233 46.9843 81.3899 47.3889 80.4822C47.7935 79.5629 48.6793 78.9694 49.6087 78.7484C51.4349 78.3294 53.4688 79.3651 54.2999 81.1455C54.5076 80.0167 54.7263 78.8764 54.9341 77.7476C55.2075 76.3163 55.4809 74.8501 56.126 73.5584C56.8915 74.0821 58.0943 73.4421 58.149 72.4762C58.9363 72.7322 59.833 72.5577 60.4782 72.0224C60.2813 71.1264 60.3251 70.1606 60.6094 69.2878L59.1769 68.7874C60.1282 67.17 62.9167 67.6354 63.3541 69.4856L65.7598 69.3925C65.3989 67.5772 64.4257 65.9016 63.0588 64.7496C62.687 64.447 62.2934 64.1561 62.0419 63.7255C61.5279 62.8179 61.8341 61.4099 61.0031 60.8164C60.3251 61.8171 59.0894 62.3408 57.9522 62.0964C57.7772 61.2353 57.1758 60.3858 56.301 60.3509C55.798 60.3277 55.3278 60.6418 55.1528 61.1422C54.9232 61.8055 55.4043 62.2361 55.5465 62.783C55.9292 64.2841 53.7203 65.9714 54.7263 67.1001C54.2015 67.938 52.933 67.1234 52.6706 66.1576C52.4081 65.2034 52.5065 64.0514 51.8504 63.3415C51.0631 62.4921 49.5322 62.7248 49.0729 61.4331C48.8214 60.7117 49.0729 59.9087 49.6416 59.4316C50.7788 58.4658 52.2441 58.8265 53.4579 59.4316C52.758 58.0353 53.0314 56.1618 54.0921 55.0563C53.775 54.5792 53.3376 54.1952 52.8455 53.9508C52.5721 54.8817 51.9379 55.6847 51.1287 56.1269L50.7351 54.5792C50.3742 55.161 49.4228 54.9399 49.1167 54.3232C48.8214 53.6948 49.0182 52.9268 49.3572 52.3333C49.7072 51.7399 50.1774 51.2395 50.5054 50.6228C49.0729 49.6686 47.1812 51.5653 47.3015 53.3574C47.3671 54.3814 47.8591 55.3588 48.6137 55.9989C45.9455 55.3356 43.1461 54.6839 40.5108 55.4403C39.6579 55.6847 38.7393 56.0687 37.9301 55.6963C37.1647 55.3356 36.7819 54.393 36.0712 53.9043C34.8355 53.0548 33.239 53.881 31.8065 54.2417C28.3182 55.1377 24.7425 53.0664 21.1448 53.2061C20.1935 53.241 19.1656 53.497 18.597 54.2999C18.094 55.0097 18.258 56.2316 18.9578 56.6156C17.7331 56.2665 16.3116 56.7901 15.5898 57.9189L19.3515 58.6054C18.3455 59.2687 17.6784 60.4789 17.6019 61.7357C18.3017 62.1895 18.8922 62.8295 19.2968 63.5975L17.1207 65.6339C19.0672 65.9016 21.123 65.1219 22.468 63.5859C23.0257 62.9459 23.474 62.1779 24.1301 61.6426C25.9672 60.1415 29.8601 61.5262 31.391 62.9924C33.7092 65.215 34.4418 69.0784 37.1647 70.6842C35.8743 72.1504 35.2729 73.9541 35.8087 75.2574C36.1805 76.165 37.0991 76.805 37.7005 77.2123C38.4003 77.6894 39.0564 77.9687 39.5157 78.12C41.9433 80.0982 43.4961 81.9135 44.513 83.2982C45.1582 84.171 46.0111 85.6837 47.6951 86.1027C48.395 86.2772 49.1385 86.1608 49.8384 86.3703C51.8395 86.9521 52.9986 89.9544 55.0544 89.6518C55.2184 91.4555 54.5623 93.329 53.3267 94.5857C54.6826 95.6912 54.3327 98.0534 55.4043 99.4731C56.0057 100.264 56.968 100.648 57.5804 101.416C59.0676 103.255 57.9303 106.013 57.307 108.34C56.5634 111.11 56.6509 114.042 56.7384 116.928C56.7821 118.417 56.9133 120.081 57.9522 121.071C58.6848 121.769 60.2704 121.548 60.1611 120.512C60.0845 119.674 58.9254 119.29 58.8926 118.452C58.8817 118.173 59.0019 117.917 59.1222 117.673C60.0189 115.799 60.9265 113.891 62.2934 112.366C62.7527 111.854 63.2775 111.366 63.529 110.714C63.7806 110.062 63.6493 109.166 63.0479 108.852C63.9227 108.259 65.0928 109.015 66.1097 108.759C67.8593 108.317 67.7937 105.501 69.1387 104.232C69.6964 103.697 70.4947 103.453 70.9211 102.801C71.1836 102.417 71.282 101.94 71.3695 101.475C71.61 100.253 71.8506 99.0193 72.0912 97.7974C72.2771 96.8781 72.4411 95.8657 72.0365 95.0279C71.4351 93.7712 69.8932 93.5268 68.6029 93.1893Z" fill="#D5DBDF"/>
<path d="M62.5234 117.638C62.6437 117.72 62.764 117.824 62.8624 117.929C63.0811 117.813 63.2998 117.696 63.5186 117.58L62.5234 117.638Z" fill="#D5DBDF"/>
<path d="M61.548 119.511C61.6464 120.012 62.2369 120.291 62.6852 120.105C63.1335 119.919 63.3741 119.36 63.3194 118.86C63.2757 118.511 63.1007 118.185 62.8711 117.94C62.8055 117.975 62.7289 118.01 62.6633 118.045C62.0838 118.348 61.4167 118.848 61.548 119.511Z" fill="#D5DBDF"/>
<path d="M58.9148 52.3336C58.6961 52.0775 58.2915 52.1823 58.0072 52.3568C57.7228 52.5314 57.4385 52.7757 57.1105 52.7408C56.3778 52.6594 56.3888 51.4492 55.8311 50.9372C55.4593 50.5997 54.9125 50.6462 54.4423 50.4833C54.2346 50.4135 54.0268 50.2972 53.819 50.3437C53.4363 50.4252 53.327 50.9372 53.2395 51.3328C53.152 51.7401 52.8568 52.2172 52.485 52.0775C52.4303 51.5888 52.3756 51.1001 52.3209 50.5997C52.2553 50.0644 50.0136 51.8448 51.4461 53.1248C52.8568 54.3816 54.5736 52.2172 55.2734 54.5096C55.4156 54.9751 55.8639 55.2311 56.2357 55.5103C56.6075 55.8013 56.9465 56.29 56.7496 56.7322C56.5747 57.1395 56.0717 57.2093 55.6671 57.3373C55.2625 57.4653 54.836 57.9307 55.0656 58.3031C55.9295 58.9548 57.4057 58.0471 58.0837 58.9082C58.2149 59.0711 58.2915 59.2806 58.4336 59.4319C58.5758 59.5831 58.8492 59.6297 58.9694 59.4551C58.882 59.7926 59.385 59.9555 59.6802 59.8042C59.9755 59.653 60.2707 59.362 60.5878 59.4551C60.7737 58.3264 58.9148 57.57 59.2975 56.5111C59.9427 56.5809 60.1067 57.5816 60.7081 57.8493C61.3095 58.1169 61.911 57.5235 62.3265 56.9882C62.2718 56.4296 61.6595 56.162 61.1455 56.034C60.6316 55.906 60.0192 55.7314 59.8442 55.1962C59.7458 54.882 59.8333 54.5096 59.6802 54.2187C59.5381 53.951 59.2209 53.8114 59.0897 53.5321C58.9476 53.1714 59.1772 52.6477 58.9148 52.3336Z" fill="#D5DBDF"/>
<path d="M45.5185 50.3086C45.0811 50.0176 44.4688 50.5297 44.4688 51.0766C44.4688 51.6235 44.8843 52.089 45.3326 52.3566L45.442 52.6591C46.1309 52.6941 46.7979 52.0773 46.8635 51.3442C46.9292 50.6111 46.3933 49.8664 45.7154 49.75C45.606 49.9013 45.5295 50.0991 45.5185 50.3086Z" fill="#D5DBDF"/>
<path d="M36.6066 52.7876C37.383 52.9621 38.2578 53.1716 38.6624 53.893C38.8702 54.2654 38.9248 54.7425 39.2201 55.0567C39.6903 55.5454 40.4448 55.3243 41.0791 55.1381C41.8336 54.9054 44.4799 55.0218 44.458 54.0559C44.4471 53.6603 42.5006 51.5541 42.2163 51.3795C41.8117 51.1352 41.4071 51.6588 40.9916 51.8799C40.5104 52.1359 39.8981 51.9614 39.4825 51.589C39.067 51.2166 38.8046 50.7046 38.5421 50.1926C37.7876 50.4137 36.9456 50.2624 36.3004 49.8086C35.699 50.2857 35.1741 50.8442 34.7148 51.4726C34.9554 52.2872 35.8412 52.613 36.6066 52.7876Z" fill="#D5DBDF"/>
<path d="M38.0082 48.6453C38.5878 48.9944 38.8393 49.646 39.3204 50.1231C39.8453 50.6351 40.5998 50.7166 41.3106 50.7399C41.748 50.7515 42.1964 50.7399 42.59 50.5769C42.9946 50.4024 43.3555 50.0417 43.4102 49.5878C43.5195 48.7849 42.6666 48.1565 41.9121 48.1915C41.9449 47.8656 41.8902 47.5398 41.748 47.2489C41.42 47.5514 41.3434 48.1333 41.5949 48.5173C41.0263 48.3776 40.4577 48.2264 39.8891 48.0867C39.736 48.0518 39.5829 48.0053 39.4845 47.8773C39.4079 47.7609 39.397 47.6096 39.3314 47.4816C39.1674 47.1325 38.73 47.0976 38.3582 47.1093C37.9754 47.1209 37.5708 47.1325 37.2319 47.3187C36.8819 47.5049 36.6086 47.8889 36.6632 48.2962C36.8054 49.2387 37.6365 48.4125 38.0082 48.6453Z" fill="#D5DBDF"/>
<path d="M43.7367 46.6435C43.7805 46.8762 44.0757 46.9111 44.2944 46.8878C44.8849 46.8413 45.4863 46.7947 46.0768 46.7482C46.1643 46.8762 46.219 47.0275 46.2627 47.1788C46.4268 47.0508 46.3939 46.7598 46.2846 46.5737C46.1643 46.3875 45.9893 46.2478 45.8909 46.0616C45.7925 45.8871 45.7597 45.666 45.6394 45.5031C45.5301 45.3518 45.3551 45.282 45.1802 45.2122C44.6443 45.0144 43.5946 44.7118 43.1134 45.2005C42.5776 45.7475 43.6165 46.0616 43.7367 46.6435Z" fill="#D5DBDF"/>
<path d="M47.4874 48.3074C48.1545 48.8078 48.8324 49.3198 49.6088 49.5991C50.1009 49.7736 50.6039 49.8435 51.1179 49.9016C52.0036 49.9947 52.9331 50.0413 53.7751 49.7504C53.8844 49.7154 54.0047 49.6573 54.0703 49.5525C54.2453 49.2616 53.8626 48.9474 53.5454 48.9358C53.2283 48.9242 52.8675 49.0289 52.616 48.8311C53.3267 48.2376 54.5515 49.0173 55.1966 48.3423C55.4044 48.1212 55.4809 47.7954 55.6231 47.5045C55.7434 47.2485 55.9293 47.039 56.1042 46.8179C56.4979 46.3292 56.9244 45.8288 57.493 45.6194C57.996 45.4332 58.5756 45.503 59.0567 45.2354C59.5816 44.9328 59.855 44.3044 60.2705 43.839C60.7079 43.3502 61.3203 43.0593 61.9436 43.0244C62.2825 43.0128 62.6871 43.0361 62.873 42.7335C63.1136 42.3495 62.7309 41.8608 62.3482 41.6629C61.4843 41.2091 60.4783 41.244 59.516 41.2906C58.1819 41.3488 56.8478 41.4186 55.5028 41.5117C52.7581 41.6862 49.8931 42.012 47.5968 43.6295C47.4874 43.711 47.3671 43.7924 47.2906 43.9204C47.1266 44.2114 47.2687 44.5954 47.4765 44.8514C47.6405 45.0608 48.2529 45.4914 48.1545 45.8172C48.0451 46.1663 47.4218 45.9452 47.3234 46.3874C47.225 46.8296 47.6843 47.0274 47.4984 47.4812C47.4218 47.6558 47.1594 47.551 47.1484 47.842C47.1484 48.0049 47.3671 48.2027 47.4874 48.3074Z" fill="#D5DBDF"/>
<path d="M79.2327 51.8915C79.1671 51.6355 79.0905 51.3679 79.1233 51.1002C79.2108 50.2507 80.2715 49.7387 80.2168 48.8893C80.184 48.2609 79.5389 47.7256 79.7138 47.1321C79.7794 46.8994 79.9653 46.7249 80.1403 46.5736C81.3431 45.503 82.6335 44.4092 83.224 42.8732C82.1523 42.9546 80.9932 43.0128 80.0856 42.4077C79.7138 42.1633 79.4076 41.8259 79.0577 41.5466C78.2266 40.8833 77.1988 40.5691 76.1709 40.4411C74.793 40.2549 73.3824 40.3713 72.0374 40.7669C70.7361 41.1509 69.4677 41.8142 68.1227 41.8142C67.4119 41.8142 66.6793 41.6397 65.9903 41.8375C65.3999 42.0121 64.9078 42.4426 64.3938 42.815C63.2238 43.6644 61.9006 44.223 60.5447 44.6419C60.3369 44.7117 60.0964 44.8165 60.0526 45.0376C60.0089 45.3052 60.2932 45.5496 60.2385 45.8172C60.1729 46.1198 59.7683 46.1314 59.484 46.1081C59.0247 46.0848 58.5436 46.2245 58.2265 46.5736C58.0843 46.7249 57.975 46.9343 57.9312 47.1554L57.8438 47.1089C57.8656 47.1554 57.8875 47.1903 57.9094 47.2369C57.8766 47.4696 57.9094 47.714 58.0296 47.9234C58.4014 48.5518 59.2653 48.4703 59.9433 48.3191L59.3747 47.9932C59.5277 48.0049 59.6808 48.0165 59.823 48.0165C60.5775 48.0165 61.3976 47.9234 62.0319 48.354C62.2506 48.5053 62.4255 48.7031 62.6005 48.9009C63.0926 49.4595 63.5846 50.018 64.0876 50.5766C64.3282 50.8442 64.5688 51.1235 64.6453 51.4726C64.7656 51.9962 64.5032 52.5781 64.6781 53.0901C64.8859 53.6952 65.6295 53.9977 65.6951 54.6377C65.7498 55.1846 65.2468 55.7199 65.4327 56.2319C65.5201 56.4647 65.717 56.6159 65.8482 56.8138C66.0122 57.0698 66.045 57.384 66.1106 57.6865C66.4715 59.4087 67.8384 60.8517 69.4677 61.2008C69.6426 61.2357 69.8176 61.2589 69.9816 61.2008C70.2003 61.1193 70.3534 60.9215 70.4846 60.712C70.922 60.0255 71.2282 59.2458 71.6766 58.5592C72.1249 57.8727 72.7591 57.256 73.5355 57.1512C74.2244 57.0581 74.9571 57.3607 75.6022 57.1047C76.4442 56.7789 76.7723 55.6967 77.494 55.1381C77.9751 54.7657 78.6312 54.6494 79.0249 54.1723C79.517 53.5555 79.4295 52.6479 79.2327 51.8915Z" fill="#D5DBDF"/>
<path d="M82.7965 58.0236C82.9058 57.9421 83.0152 57.7908 82.9496 57.6628C82.9277 57.6046 82.873 57.5697 82.8293 57.5465C81.8889 56.9414 79.1004 56.2083 79.1114 58.0585C79.1114 58.745 79.4394 59.5363 80.0408 59.769C80.9922 60.1414 81.2984 59.3734 81.7904 58.7567C82.0529 58.4308 82.4684 58.2796 82.7965 58.0236Z" fill="#D5DBDF"/>
<path d="M95.5908 48.5398C96.2141 48.5165 96.236 47.6321 96.6953 47.4343C97.1218 47.2481 97.7669 47.8532 98.3137 47.923C98.5871 47.9579 98.8714 47.923 99.112 47.7834C99.3525 47.6437 99.5384 47.3645 99.5165 47.0736C99.4947 46.7245 99.2213 46.4568 98.9589 46.2357C99.2432 46.131 99.5494 46.0146 99.7681 45.7935C99.9868 45.5724 100.107 45.2001 99.9758 44.9092C99.8009 44.5601 99.3525 44.4902 98.9807 44.4902C97.5482 44.4902 96.1267 44.6648 94.7051 44.8393C93.6663 44.9673 93.207 45.0953 93.7647 46.1775C94.0709 46.7361 94.9457 48.563 95.5908 48.5398Z" fill="#D5DBDF"/>
<path d="M168.998 56.5813C166.461 56.9886 164.318 53.6605 161.803 54.2074C161.54 54.4867 161.267 54.766 161.004 55.0453C160.709 54.8474 160.48 54.5565 160.326 54.2191C157.669 53.8932 155.034 53.3231 152.464 52.5318C151.841 52.3456 151.163 52.0896 150.835 51.4845C150.507 50.891 150.879 49.9019 151.524 49.9834C150.299 49.1688 148.888 48.6684 147.456 48.5404C146.428 48.4473 145.083 48.8081 144.963 49.9135C145.816 50.0066 146.669 50.0997 147.522 50.1928C147.97 51.1703 147.27 52.4038 146.319 52.8227C145.367 53.2532 144.296 53.102 143.279 52.9507C142.524 52.5434 142.131 51.5194 142.382 50.6583C140.064 51.4496 137.505 51.4147 135.209 50.5652C135.526 49.995 135.843 49.4248 136.171 48.8546C135.307 48.1215 134.093 47.8888 133.044 48.2611C133.459 47.691 132.672 46.8648 132.005 46.9928C131.338 47.1208 130.857 47.7259 130.321 48.1797C129.151 49.1804 127.5 49.4946 126.078 48.9826C125.673 50.4954 123.825 51.3332 122.524 50.5885C122.787 51.2285 122.819 51.9732 122.612 52.6365C121.966 52.1478 121.015 52.1827 120.392 52.6947C120.72 51.3914 118.73 50.5186 117.844 51.4845C116.969 52.4503 117.352 54.1842 118.314 55.0453C116.98 55.6387 115.285 55.1384 114.443 53.8932C114.629 54.9173 113.218 55.3944 112.289 55.0802C111.359 54.7544 110.397 54.0794 109.479 54.4634C110.266 54.9871 110.955 55.6736 111.502 56.4766C110.31 56.6977 109.085 56.7326 107.882 56.5929C107.784 55.9296 107.423 55.3129 106.909 54.9289C106.854 56.1857 106.34 57.4075 105.498 58.2686C104.798 58.9901 103.727 59.4788 102.841 59.025C101.955 58.5828 101.802 56.9188 102.732 56.5929C103.158 56.4417 103.628 56.6046 104.077 56.5697C104.525 56.5347 105.028 56.0809 104.82 55.6504C103.464 53.8351 101.245 52.7878 99.0575 52.9274C96.8814 53.0787 94.8038 54.4169 93.6665 56.3951C93.2291 57.1748 92.9011 58.0475 92.2778 58.6526C91.8513 59.0599 91.2936 59.3275 90.9765 59.8395C90.386 60.7937 90.9656 62.1552 91.895 62.7254C92.8245 63.2956 93.9508 63.2956 95.0225 63.284C95.0334 62.9814 95.0443 62.6672 95.0553 62.3647C95.099 61.201 95.1646 59.9908 95.7442 59.0017C96.3237 58.0242 97.625 57.4191 98.5435 58.0359C98.303 59.2926 97.9093 60.5145 97.3844 61.6548C98.3467 61.4919 99.3637 61.7596 100.162 62.3647C98.9263 61.841 97.3516 62.993 97.3844 64.4127C96.1706 66.4956 92.5621 65.9022 92.0044 63.5167C91.567 65.5764 89.9158 67.2869 87.9694 67.7059C87.532 67.7989 86.9743 67.9269 86.8759 68.3924C86.69 69.3001 88.3302 69.2768 88.702 70.1146C89.7846 72.5118 82.1629 69.847 84.7873 73.7336C87.0727 77.1315 89.6862 69.8935 92.3215 72.0696C92.8792 72.5234 93.0651 73.3263 93.4806 73.9314C93.8961 74.5365 94.8912 74.8507 95.2412 74.1991C95.099 72.9423 94.3554 71.7903 93.3166 71.1736C93.6118 70.2426 94.9568 70.5219 95.6458 71.1736C96.3347 71.8252 97.0236 72.7561 97.9421 72.6049C99.309 72.3838 99.6042 69.975 100.971 69.8237C101.496 69.7655 101.988 70.0797 102.513 70.1612C103.038 70.2426 103.716 69.8935 103.617 69.335C103.869 70.5219 105.739 70.9525 105.564 72.1394C105.433 73.0121 104.339 73.1983 103.508 73.0936C102.415 72.9539 101.266 72.6863 100.26 73.1401C99.2543 73.594 98.631 75.1649 99.4402 75.9445C100.293 75.6536 101.212 75.3511 102.065 75.6536C102.918 75.9562 103.53 77.1315 102.983 77.8879C102.677 78.3184 102.119 78.458 101.605 78.5162C100.632 78.6326 99.6371 78.5744 98.6748 78.365C96.5971 79.1679 94.093 78.4697 92.6605 76.6893C92.3652 76.3169 92.1028 75.898 91.7091 75.6536C89.6205 74.3736 87.3461 79.0631 85.2684 77.7831C82.1629 80.3315 80.9928 85.2422 82.5893 89.059C83.8359 89.6873 85.2028 90.0597 86.5915 90.1412C89.0519 90.2924 91.9716 89.7222 93.6228 91.6656C92.7917 92.8525 92.6168 94.5281 93.1744 95.8896C93.3713 96.3784 93.6665 96.8438 93.6774 97.3675C93.7103 98.3217 92.8792 99.0548 92.6714 99.9741C92.4527 100.975 93.0104 101.964 93.5353 102.837C94.7819 104.85 96.0285 106.875 97.2641 108.888C98.8388 107.899 100.413 106.909 101.988 105.92C102.436 105.641 102.939 105.292 103.049 104.745C103.158 104.233 102.896 103.733 102.83 103.209C102.546 101.103 105.356 99.753 105.389 97.6235C105.4 96.9718 105.137 96.3551 105.105 95.7034C104.951 92.6779 109.446 91.2815 109.49 88.2444C106.034 88.1979 102.863 85.0211 102.611 81.3556C104.941 81.565 106.92 83.9272 106.821 86.4175C109.107 86.5338 111.381 84.928 112.169 82.6356C112.278 82.3097 112.365 81.949 112.267 81.6116C112.048 80.8901 111.163 80.7505 110.463 80.6224C109.752 80.4944 108.91 79.9243 109.14 79.2028C112.016 78.7373 115.077 80.4595 116.335 83.2523C116.86 84.4276 117.089 85.7425 117.745 86.848C118.402 87.9418 119.714 88.7913 120.829 88.2677C121.179 88.1048 121.485 87.8022 121.595 87.4182C121.737 86.9644 121.606 86.4756 121.573 85.9869C121.387 83.4967 124.492 81.5534 126.45 82.9381C127.357 83.5781 127.882 84.6603 128.32 85.7076C128.899 87.1157 129.38 88.5586 129.752 90.0481C129.927 90.7579 130.124 91.5259 130.693 91.9448C131.261 92.3521 132.278 92.0147 132.213 91.2815C131.491 90.0481 130.78 88.803 130.058 87.5695C130.452 86.7898 131.589 87.232 132.202 87.8371C132.814 88.4422 133.7 89.1637 134.367 88.6284C134.946 88.1629 134.728 87.1622 134.301 86.5338C133.875 85.9054 133.284 85.3004 133.284 84.5207C133.273 83.357 134.509 82.7287 135.482 82.205C137.768 80.9715 139.703 77.8646 138.227 75.6304C137.844 75.0602 137.319 74.1758 137.877 73.8151C139.156 73.4892 139.78 75.5722 141.004 76.0958C142.076 76.5496 143.388 75.3278 143.104 74.1409C143.005 73.6987 142.721 73.2565 142.841 72.8259C143.071 71.9532 144.329 72.1976 145.039 71.6972C145.947 71.0455 145.652 69.335 146.559 68.6833C147.204 68.2179 148.276 68.4273 148.615 67.6942C149.031 66.7866 147.795 66.0767 146.865 65.9138C145.936 65.7393 144.711 64.9596 145.181 64.0869C147.128 62.4461 149.829 61.8643 152.224 62.5741C152.442 61.7712 152.88 61.0381 153.459 60.4912C154.575 60.7239 155.767 60.4912 156.729 59.8512C157.385 60.4795 156.948 61.7014 156.237 62.2599C155.526 62.8185 154.607 63.0745 153.995 63.7494C153.044 64.7851 153.219 66.7167 154.323 67.5546C156.652 67.3335 156.335 63.1909 158.271 61.7828C159.266 61.0614 160.578 61.2708 161.77 61.1079C162.962 60.945 164.318 59.9443 164.001 58.7108C163.935 58.4781 163.815 58.2337 163.869 57.9893C163.935 57.6984 164.23 57.5355 164.493 57.4657C165.564 57.1631 166.789 57.582 167.489 58.4897C168.123 58.3966 168.736 58.129 169.26 57.7333C169.173 57.3842 169.085 56.9886 168.998 56.5813Z" fill="#D5DBDF"/>
<path d="M109.894 51.5656C110.648 52.7875 110.944 52.2638 112.015 51.554C112.628 51.1467 117.669 47.679 118.194 48.3888C117.734 47.7837 117.002 47.4695 116.269 47.4114C115.536 47.3532 114.815 47.5161 114.115 47.7139C112.912 48.0514 111.731 48.4819 110.594 49.0056C109.555 49.4827 109.249 50.5067 109.894 51.5656Z" fill="#D5DBDF"/>
<path d="M109.698 45.2588C110.037 44.7119 110.048 43.9555 109.731 43.3969C109.129 43.234 108.473 43.6064 108.156 44.1649C108.572 44.6537 109.108 45.0377 109.698 45.2588Z" fill="#D5DBDF"/>
<path d="M108.013 43.9785L107.98 44.6883C108.002 44.5022 108.068 44.3276 108.155 44.1647C108.101 44.0949 108.057 44.0367 108.013 43.9785Z" fill="#D5DBDF"/>
<path d="M107.98 44.6885C107.969 44.7699 107.969 44.8397 107.969 44.9212L107.98 44.6885Z" fill="#D5DBDF"/>
<path d="M112.125 44.4792C112.114 44.5141 112.114 44.549 112.103 44.5839L112.147 44.4908C113.109 45.0959 114.279 45.3054 115.373 45.061C115.898 44.9447 116.521 44.421 116.248 43.9207C116.062 43.5948 115.624 43.5832 115.318 43.3854C115.187 43.3039 115.078 43.1759 114.935 43.1177C114.695 43.0363 114.443 43.1875 114.214 43.3155C113.722 43.5716 113.153 43.6879 112.595 43.6297L112.727 43.3737C112.224 43.2923 111.797 44.0021 112.081 44.4443C112.103 44.4676 112.114 44.4792 112.125 44.4792Z" fill="#D5DBDF"/>
<path d="M127.958 43.1992L127.695 43.5949C127.761 43.56 127.837 43.5367 127.903 43.525C127.925 43.4087 127.947 43.3039 127.958 43.1992Z" fill="#D5DBDF"/>
<path d="M127.432 43.9903L127.695 43.583C127.542 43.6761 127.421 43.8041 127.432 43.9903Z" fill="#D5DBDF"/>
<path d="M127.696 45.3986C127.74 45.6197 127.893 45.7943 128.057 45.9223C129.194 46.8416 130.944 45.7594 132.223 46.4459C132.715 46.1783 132.945 45.4801 132.715 44.9564C131.731 44.9914 130.747 45.0379 129.763 45.0728C129.959 44.6772 129.774 44.1535 129.446 43.8742C129.107 43.595 128.669 43.5135 128.243 43.4902C128.144 43.4902 128.024 43.4902 127.915 43.5251C127.849 43.9673 127.783 44.4095 127.718 44.8634C127.685 45.0379 127.663 45.2241 127.696 45.3986Z" fill="#D5DBDF"/>
<path d="M108.745 97.7744C107.684 98.5773 106.765 99.5781 106.011 100.707C105.191 101.952 106 105.629 107.968 104.721C108.854 104.314 108.515 103.116 108.832 102.324C109.138 101.521 109.969 100.986 110.09 100.102C110.232 99.1475 109.445 98.3679 108.745 97.7744Z" fill="#D5DBDF"/>
<path d="M135.275 97.3904C135.625 97.4137 135.985 97.6697 136.324 97.53C136.532 97.4486 136.685 97.2275 136.882 97.1227C137.352 96.8784 137.866 97.2973 138.249 97.6697C138.227 97.1344 137.823 96.6922 137.352 96.4944C136.882 96.3082 136.368 96.3198 135.865 96.4013C135.373 96.4711 134.815 96.5758 134.411 96.2616C134.214 96.1104 134.094 95.8776 133.93 95.6914C133.667 95.4122 133.317 95.2609 132.967 95.1096C132.235 94.7954 131.218 94.5743 130.562 94.0972C130.441 94.0041 129.588 92.9685 129.687 92.9801C128.298 92.7125 129.249 94.5045 129.359 95.2842C129.392 95.482 129.413 95.7031 129.534 95.8544C129.643 95.994 129.818 96.0522 129.982 96.1104C130.649 96.3198 131.349 96.378 132.038 96.2965C132.125 97.2391 133.088 97.9839 133.962 97.7628C134.411 97.6697 134.815 97.3555 135.275 97.3904Z" fill="#D5DBDF"/>
<path d="M137.79 92.3753C138.249 91.8051 138.249 90.8509 137.724 90.3622C137.188 89.8735 136.193 90.1178 136.018 90.8393C135.953 91.0953 135.964 91.4095 135.745 91.5375C135.581 91.6306 135.373 91.5491 135.176 91.5142C134.717 91.4211 134.203 91.6655 133.984 92.1077L134.75 91.7121C134.181 92.4568 134.291 93.6903 134.979 94.307C135.668 94.9354 136.827 94.8423 137.429 94.1208C137.516 94.0161 137.593 93.8881 137.615 93.7485C137.648 93.4575 137.418 93.1899 137.462 92.899C137.484 92.6895 137.659 92.5382 137.79 92.3753Z" fill="#D5DBDF"/>
<path d="M138.938 92.8525L139.069 93.2714C139.102 93.0969 139.08 92.934 138.938 92.8525Z" fill="#D5DBDF"/>
<path d="M138.827 93.6788C138.597 93.8883 138.28 94.0861 138.258 94.4119C138.237 94.8541 138.751 95.0636 139.166 95.1334C139.746 95.2265 140.522 95.2032 140.675 94.6098C140.774 94.2374 140.522 93.8301 140.194 93.6556C139.866 93.481 139.483 93.4694 139.122 93.4694L139.068 93.2832C139.024 93.4228 138.936 93.5741 138.827 93.6788Z" fill="#D5DBDF"/>
<path d="M139.835 88.8722C139.726 89.6984 140.918 89.966 141.268 90.6991C141.443 90.6177 141.574 90.478 141.661 90.3035C141.902 89.8148 141.771 89.07 141.268 88.8489C141.093 88.7791 140.907 88.7558 140.754 88.6395C140.349 88.3602 140.48 87.6038 140.644 87.2314C140.109 87.6155 139.923 88.2206 139.835 88.8722Z" fill="#D5DBDF"/>
<path d="M149.051 72.5234C149.609 72.0929 150.221 71.4063 149.948 70.7314C149.751 70.2427 149.161 70.0448 148.909 69.591C148.559 69.4746 148.187 69.7888 148.034 70.1612C147.881 70.5219 147.859 70.9292 147.717 71.3016C147.63 71.5343 147.498 71.7321 147.433 71.9765C147.269 72.5932 147.608 73.1983 148.023 73.7104C148.176 73.2216 148.636 72.826 149.051 72.5234Z" fill="#D5DBDF"/>
<path d="M148.023 73.6982C147.98 73.8146 147.969 73.931 147.969 74.059C148.078 74.0357 148.177 74.0124 148.286 74.0124C148.198 73.9077 148.111 73.803 148.023 73.6982Z" fill="#D5DBDF"/>
<path d="M143.204 76.9445C142.198 78.015 143.237 80.6216 143.761 78.9227C143.816 78.7365 143.838 78.5154 143.969 78.3874C144.177 78.1779 144.516 78.2827 144.8 78.3292C145.467 78.4456 146.156 78.1663 146.692 77.7241C147.228 77.2819 147.632 76.6885 148.037 76.1066C148.201 75.8623 148.387 75.5946 148.376 75.2921C148.365 74.9197 148.081 74.6171 148.004 74.2564C147.993 74.1866 147.982 74.1284 147.982 74.0586C146.856 74.3262 146.08 75.5946 144.986 76.1066C144.374 76.3859 143.663 76.4557 143.204 76.9445Z" fill="#D5DBDF"/>
<path d="M152.892 95.9241C153.11 95.8194 153.285 95.5401 153.209 95.2957C153.121 95.0281 152.804 94.9466 152.542 94.9117C151.82 94.8303 151.087 94.8652 150.366 94.9815C150.005 95.0397 149.622 95.1212 149.305 94.9466C149.021 94.7837 148.857 94.4462 148.627 94.2135C147.851 93.4339 146.254 93.7248 145.915 92.6426C145.795 93.1895 145.128 93.3291 144.603 93.2477C144.253 93.2011 143.969 93.1197 143.641 93.2011C143.717 93.3175 144.198 94.7255 143.805 94.6557C144.909 94.8535 146.024 95.0513 147.129 95.2492C147.085 96.471 147.993 97.6579 149.13 97.8441C149.36 97.879 149.611 97.8907 149.808 98.007C150.213 98.2398 150.431 98.8914 150.901 98.8565C151.317 98.8216 151.481 98.263 151.448 97.8325C151.394 97.0877 151.087 96.3779 150.584 95.8543C151.12 95.9008 151.645 95.9357 152.181 95.9823C152.41 96.0055 152.673 96.0288 152.892 95.9241Z" fill="#D5DBDF"/>
<path d="M152.354 105.443C152.278 105.047 152.562 104.64 152.496 104.244C152.376 103.488 151.359 103.534 150.692 103.243C149.916 102.894 149.566 101.963 149.183 101.16C148.8 100.357 148.122 99.5197 147.291 99.6709C146.876 100.241 146.581 100.893 146.438 101.591C145.782 101.405 146.023 100.346 145.804 99.6593C145.542 98.8447 144.547 98.6004 143.737 98.6818C142.567 98.7982 141.43 99.3335 140.555 100.16C140.468 99.7407 139.855 99.7291 139.571 100.032C138.521 101.149 138.664 102.126 136.969 102.58C136.039 102.824 134.978 102.406 134.825 103.592C134.53 105.815 138.762 107.654 136.936 110.307C138.27 110.982 140.085 110.26 140.851 108.934C140.938 108.782 141.026 108.608 141.168 108.515C141.31 108.422 141.485 108.41 141.66 108.41C142.688 108.375 143.726 108.352 144.754 108.317C144.984 108.305 145.214 108.305 145.432 108.398C146.198 108.713 146.154 109.865 145.968 110.714C147.007 110.528 147.904 111.47 148.932 111.738C149.435 111.866 149.959 111.831 150.473 111.796C151.129 111.75 151.961 111.563 152.092 110.865C152.223 110.19 151.534 109.55 151.665 108.864C151.862 107.945 153.404 107.689 153.229 106.758C153.142 106.222 152.453 105.978 152.354 105.443Z" fill="#D5DBDF"/>
<path d="M161.332 111.646C161.07 112.565 160.239 113.251 159.342 113.31C159.123 113.321 158.872 113.321 158.751 113.507C158.697 113.6 158.686 113.705 158.675 113.81C158.642 114.252 158.664 114.694 158.741 115.136L158.85 114.299C158.806 114.892 159.211 115.474 159.736 115.695C160.293 115.928 160.949 115.811 161.485 115.52C161.715 115.392 161.923 115.241 162.087 115.032C162.458 114.543 162.48 113.833 162.283 113.228C162.087 112.646 161.704 112.134 161.332 111.646Z" fill="#D5DBDF"/>
<path d="M163.464 109.644C162.961 109.388 162.37 109.434 161.812 109.516C161.878 110.109 161.987 110.714 162.359 111.168C162.786 111.692 163.682 111.831 164.054 111.261C164.393 110.714 164.021 109.923 163.464 109.644Z" fill="#D5DBDF"/>
<path d="M161.65 109.539C161.705 109.527 161.76 109.527 161.814 109.515C161.803 109.411 161.793 109.306 161.782 109.213L161.65 109.539Z" fill="#D5DBDF"/>
</g>
<path d="M111.102 142.573C110.381 140.713 109.681 138.929 109.025 137.223C108.062 132.555 104.946 117.991 101.173 108.667C100.627 107.313 99.6971 105.166 97.6085 103.25C93.8031 99.7497 88.7949 99.4525 86.3345 99.4965C86.3345 99.5075 86.3345 99.5186 86.3345 99.5296C86.2361 99.5075 86.1267 99.4855 86.0283 99.4745C84.7817 99.3534 82.9337 99.1222 80.7248 98.6929C79.8281 98.5168 79.0955 98.3516 78.6581 98.2526C78.4284 98.1975 78.2535 98.1535 78.2316 98.1535C71.9112 96.6343 64.0926 99.4965 64.0926 99.4965C59.9045 101.027 57.0942 102.095 54.9947 105.012C53.4966 107.081 53.1029 109.085 52.4359 112.421C52.1734 113.72 51.9547 116.164 51.8344 120.996C51.7688 124.013 52.1078 126.247 52.3593 128.504C54.098 144.004 54.7213 144.731 55.4211 145.204C56.2522 145.766 60.32 145.534 68.4229 145.028C72.2064 144.797 71.6597 144.797 72.2064 144.786C81.4684 144.511 84.9457 147.032 94.4155 145.832C94.7982 145.788 95.1153 145.744 95.2903 145.71C95.4215 144.687 95.5965 143.179 95.7277 141.351C96.2307 134.096 95.498 129.055 95.8808 128.999C96.1432 128.966 96.515 131.432 97.4554 134.504C98.6583 138.434 100.211 141.483 101.392 143.52C102.923 144.984 104.355 145.677 104.847 145.27C105.274 144.918 105.165 143.619 104.902 142.771C104.837 142.562 104.771 142.397 104.738 142.342C104.727 142.331 104.727 142.32 104.727 142.32C104.749 142.221 106.203 142.232 111.102 142.573Z" fill="#EF6238"/>
<path opacity="0.71" d="M57.5762 139.931C57.8933 139.568 58.2323 139.238 58.5931 138.929C61.0754 136.86 63.153 134.68 64.9464 135.021C66.8163 135.385 67.1553 138.148 67.8332 138.06C69.7359 137.796 67.9973 115.778 68.4565 115.734C68.6752 115.712 70.1077 120.622 70.1187 127.007C70.1187 130.123 69.7797 131.532 70.7857 133.084C72.3603 135.506 75.6518 135.847 78.4293 136.188C82.5518 136.695 88.3255 137.531 95.7285 139.029C95.7395 140.57 95.6738 142.221 95.4989 143.971C95.4333 144.566 95.3677 145.138 95.2911 145.711C95.1162 145.733 94.799 145.777 94.4163 145.832C84.9466 147.032 81.4583 144.5 72.2073 144.786C69.9984 144.852 69.6047 145.017 64.3122 145.259C61.469 145.391 59.1618 145.458 57.7183 145.502C57.7402 144.852 57.7511 144.181 57.7402 143.498C57.7293 142.232 57.6637 141.054 57.5762 139.931Z" fill="#7C2923"/>
<path opacity="0.71" d="M95.8162 128.207C95.8162 128.207 95.7506 128.713 95.7943 129.176C95.8162 129.066 95.8381 129 95.8818 129C95.9584 128.989 96.0568 129.209 96.1661 129.616C96.2536 129.363 96.352 128.922 96.4614 128.218C97.0957 124.409 95.8053 110.01 95.8053 110.01V128.207H95.8162Z" fill="#7C2923"/>
<path d="M83.4254 90.2723C83.4254 90.2723 82.4959 98.0884 83.2833 100.037C83.3051 100.092 83.3598 100.224 83.3051 100.356C82.9115 101.215 77.9797 99.7617 72.9277 98.0223C73.9666 92.8483 75.0054 87.6743 76.0442 82.4893C76.0442 82.4893 84.3768 87.4871 83.4254 90.2723Z" fill="#FD906C"/>
<path d="M76.722 85.3838C76.558 88.1029 78.4716 90.0404 78.2529 90.1615C77.9577 90.3156 75.3442 86.5617 73.857 81.7399C72.9276 78.7236 72.7963 76.4228 73.0369 74.4192C73.2009 73.0872 73.5071 70.8855 75.0818 69.9498C75.7051 69.5755 76.219 69.5645 76.8095 69.4874C78.1545 69.3223 80.0681 68.6508 82.3426 66.2949C86.826 67.8361 91.2109 69.5755 91.025 70.4451C90.9922 70.6103 90.7954 70.6983 90.7298 70.7314C88.8052 71.6231 77.1157 78.9988 76.722 85.3838Z" fill="#2C313C"/>
<path d="M84.224 98.825C84.8692 99.1222 85.4925 99.1663 85.4925 99.1663C85.6784 99.1773 85.8643 99.1773 86.0502 99.1552C86.0502 99.1552 86.3563 99.1222 86.6625 99.0341C90.4679 97.9773 92.8408 92.0107 92.8408 92.0107C93.5625 90.2053 93.5735 89.4127 94.1749 86.6495C94.667 84.4148 95.4871 81.1562 96.8868 77.2042C96.7227 77.05 95.0716 75.5309 93.3548 74.0007C92.5784 73.4502 87.7123 70.1257 82.9446 71.865C76.9085 74.0667 75.7931 82.6424 76.5585 87.5852C76.646 88.1357 76.7554 88.6531 76.8866 89.1595C77.0725 90.4255 77.5864 92.6492 79.2048 94.8509C79.2048 94.8509 81.0638 97.3939 84.224 98.825Z" fill="#FD906C"/>
<path d="M76.8848 89.1484C76.9941 89.3906 77.0925 89.6328 77.191 89.864C77.2456 89.9851 77.2894 90.1062 77.3331 90.2273C77.3878 90.3484 77.4425 90.4585 77.4971 90.5795L77.8252 91.2731C77.9455 91.4933 78.0658 91.7244 78.186 91.9446C78.6781 92.8363 79.2358 93.695 79.8591 94.4986C80.4824 95.3022 81.1495 96.0728 81.8712 96.7994C82.0571 96.9755 82.232 97.1627 82.4289 97.3278L82.7132 97.592L83.0084 97.8452C83.3912 98.1864 83.7848 98.5167 84.2113 98.8139C83.7192 98.6268 83.2709 98.3626 82.8225 98.0764L82.4945 97.8562L82.1774 97.625C81.9587 97.4709 81.7618 97.3058 81.565 97.1406C80.7558 96.4691 80.0341 95.6985 79.3889 94.8619C78.7437 94.0252 78.197 93.1115 77.7705 92.1428C77.6612 91.9006 77.5627 91.6584 77.4643 91.4162C77.4643 91.4162 77.1363 90.4144 77.1144 90.2823C77.0816 90.1502 77.0597 90.0291 77.0269 89.897C76.9832 89.6658 76.9285 89.4126 76.8848 89.1484Z" fill="#D85920"/>
<path d="M77.8907 82.7309C78.2516 82.7859 78.8639 82.7419 78.9842 82.3125C79.0717 82.0373 79.1592 81.7071 79.2685 81.3438C79.5966 80.2099 79.9793 79.087 80.4058 77.9862C80.6792 77.2816 80.9525 76.5441 81.3571 75.9056C81.4665 75.7294 81.6414 75.3882 81.8492 75.3111C82.385 75.1129 82.6037 75.9166 83.0958 76.0377C83.4785 76.1257 83.8722 75.7074 83.7738 75.3331C84.08 75.8285 84.6814 76.1257 85.261 76.0597C85.8405 76.0046 86.3654 75.5973 86.5841 75.0579C86.1358 75.5863 86.5185 76.5441 87.2074 76.6762C87.8854 76.8083 88.5852 76.1698 88.5852 75.4762C88.5633 76.0597 88.9461 76.6211 89.4928 76.8083C90.0396 76.9954 90.6957 76.7642 91.0128 76.2909C90.9909 76.8963 91.2424 77.5348 91.7564 77.8431C92.2703 78.1513 93.0358 78.0302 93.331 77.5018C93.6044 77.8871 94.0746 78.1183 94.5448 78.0963C95.0259 78.0743 95.4196 77.81 95.7039 77.4358C95.8461 77.766 96.1413 78.0082 96.2069 78.3825C96.2835 78.7898 96.0976 79.3292 95.9992 79.7145C95.7477 80.7383 95.4634 81.2337 95.4852 81.2447C95.529 81.2667 96.2179 79.6925 97.4098 77.1716C97.6832 76.5991 97.8253 76.3019 97.9019 75.8285C98.0768 74.6726 97.541 74.3864 97.6394 73.1975C97.716 72.1737 98.1643 71.9205 97.9893 71.1389C97.8691 70.6215 97.5738 70.2472 97.3332 70.005C97.3442 69.9499 97.3661 69.2344 96.8412 68.5959C96.524 68.2106 95.9336 68.0014 95.4962 68.2436C95.5836 67.2198 94.9385 66.185 93.9871 65.8217C93.0358 65.4585 91.8657 65.8107 91.2643 66.6364C90.9472 66.229 90.6191 65.7997 90.1817 65.5355C89.7443 65.2713 89.1538 65.1832 88.7164 65.4584C88.3884 65.6676 88.1478 66.0749 87.7541 66.108C87.5573 66.119 87.3714 66.0309 87.1746 65.9648C86.595 65.7447 85.9389 65.7337 85.3484 65.9208C85.1735 65.9759 84.9985 66.0529 84.8236 66.0639C84.6595 66.0749 84.5064 66.0529 84.3424 66.0199C83.5004 65.8437 82.4944 65.4695 81.6961 65.9648C81.1931 66.2841 80.6682 66.7244 80.1871 67.0987C78.7765 68.1996 77.5955 69.5756 76.7316 71.1499C76.5129 71.5572 76.327 71.9645 76.327 71.9645C75.5287 73.4396 75.3975 75.0799 75.3975 75.0799C75.2226 76.0377 75.1132 77.4798 75.5506 79.098C75.8131 80.0668 76.163 80.6723 76.5457 81.3438C77.2784 82.5547 77.6611 82.6978 77.8907 82.7309Z" fill="#2C313C"/>
<path d="M92.8184 69.1904C92.8621 69.1243 92.9277 69.0803 93.0042 69.0583C93.0808 69.0363 93.1683 69.0363 93.2448 69.0473C93.3214 69.0583 93.3979 69.0913 93.4745 69.1243C93.4963 69.1353 93.5073 69.1463 93.5291 69.1574L93.551 69.1794L93.6275 69.2344C93.6385 69.2454 93.6603 69.2564 93.6713 69.2674C93.7916 69.3665 93.89 69.4986 93.9665 69.6417C94.0431 69.7848 94.0868 69.939 94.1087 70.1041C94.1305 70.2692 94.1196 70.4343 94.0759 70.5885C94.0321 70.7426 93.9556 70.8857 93.8572 71.0178C93.8353 71.0508 93.8025 71.0839 93.7806 71.1059C93.7588 71.1389 93.726 71.1609 93.6932 71.1829C93.6385 71.238 93.5729 71.282 93.5073 71.315C93.4416 71.3481 93.376 71.3811 93.2995 71.4031C93.2339 71.4251 93.1573 71.4361 93.0808 71.4361C93.1902 71.3371 93.2886 71.249 93.3651 71.1499C93.4417 71.0508 93.5073 70.9407 93.5619 70.8307C93.6057 70.7206 93.6494 70.6105 93.6603 70.4894C93.6822 70.3793 93.6822 70.2582 93.6713 70.1481C93.6603 70.038 93.6275 69.9169 93.5838 69.8069C93.5401 69.6968 93.4854 69.5977 93.4198 69.4986L93.3979 69.4656L93.3542 69.4106L93.3432 69.3995C93.3323 69.3885 93.3214 69.3775 93.3104 69.3665C93.2667 69.3225 93.2229 69.2895 93.1683 69.2564C93.0699 69.1794 92.9605 69.1353 92.8184 69.1904Z" fill="#22262E"/>
<path d="M92.502 76.005C92.5894 76.027 92.666 76.038 92.7425 76.049C92.8191 76.06 92.8956 76.071 92.9831 76.071C93.1362 76.082 93.2893 76.082 93.4424 76.06C93.5189 76.049 93.5955 76.038 93.6611 76.027C93.6939 76.016 93.7376 76.016 93.7704 76.005C93.8032 75.994 93.847 75.983 93.8688 75.9719C93.9016 75.9609 93.9235 75.9499 93.9344 75.9389C93.9454 75.9279 93.9454 75.9279 93.9563 75.9169C93.9673 75.9059 93.9672 75.8949 93.9782 75.8619C93.9891 75.8398 93.9891 75.8068 94 75.7738C94 75.7738 94.0438 75.3775 94.0547 75.3004C94.0657 75.1463 94.0766 74.9922 94.0657 74.8491C94.0547 74.706 94.0329 74.5629 93.9782 74.4197C93.9235 74.2766 93.847 74.1445 93.7157 74.0234C93.8798 74.0565 94.0438 74.1665 94.1531 74.2987C94.2734 74.4418 94.35 74.6069 94.3937 74.783C94.4375 74.9592 94.4593 75.1353 94.4593 75.3114C94.4593 75.3995 94.4593 75.4876 94.4484 75.5646L94.4265 75.7518C94.4265 75.7738 94.4265 75.7958 94.4156 75.8178C94.4046 75.8619 94.4046 75.9169 94.3828 75.9719C94.3609 76.027 94.339 76.082 94.2953 76.1481C94.2734 76.1811 94.2516 76.2031 94.2187 76.2251C94.1969 76.2472 94.1641 76.2692 94.1313 76.2912C94.0766 76.3242 94.0219 76.3462 93.9673 76.3572C93.9126 76.3683 93.8688 76.3793 93.8251 76.3793C93.8032 76.3793 93.7814 76.3903 93.7595 76.3903C93.7376 76.3903 93.7157 76.3903 93.6939 76.3903C93.6064 76.3903 93.5189 76.3903 93.4314 76.3903C93.2565 76.3683 93.0815 76.3352 92.9175 76.2582C92.7644 76.2141 92.6222 76.1261 92.502 76.005Z" fill="#22262E"/>
<path d="M90.6298 72.5922C90.6736 72.6362 90.7064 72.7023 90.7173 72.7793C90.7282 72.8564 90.7173 72.9334 90.6845 72.9995C90.6298 73.1426 90.5096 73.2637 90.3455 73.3297C90.3237 73.3408 90.3018 73.3408 90.2799 73.3518L90.2252 73.3628C90.2034 73.3628 90.1815 73.3628 90.1596 73.3738C90.1378 73.3738 90.1159 73.3738 90.094 73.3738C90.0175 73.3738 89.93 73.3518 89.8644 73.3297C89.7113 73.2747 89.591 73.1976 89.4817 73.0986C89.427 73.0545 89.3833 72.9995 89.3395 72.9444C89.2958 72.8894 89.252 72.8234 89.2192 72.7573C89.1536 72.6252 89.1099 72.4711 89.1208 72.3059C89.1208 72.2839 89.1208 72.2619 89.1317 72.2509C89.1317 72.2289 89.1427 72.2069 89.1427 72.1849C89.1536 72.1628 89.1536 72.1408 89.1646 72.1298C89.1755 72.1078 89.1864 72.0968 89.1864 72.0748C89.2192 72.0087 89.2739 71.9427 89.3286 71.8986C89.3833 71.8546 89.4598 71.8106 89.5254 71.7996C89.602 71.7885 89.6676 71.7885 89.7332 71.8216C89.6019 71.8656 89.5363 71.9537 89.4926 72.0417C89.4707 72.0858 89.4598 72.1298 89.4489 72.1849C89.4489 72.1959 89.4489 72.2069 89.4489 72.2179V72.2509V72.2839C89.4489 72.2949 89.4489 72.306 89.4598 72.317C89.4817 72.405 89.5145 72.4931 89.5691 72.5702C89.6238 72.6472 89.6894 72.7353 89.766 72.8013C89.9191 72.9444 90.094 73.0325 90.2471 73.0325C90.3237 73.0325 90.4111 72.9885 90.4877 72.9224C90.5752 72.8234 90.6408 72.7243 90.6298 72.5922Z" fill="#22262E"/>
<path d="M88.9456 69.3775C88.9456 69.3004 88.9456 69.2344 88.9347 69.1683C88.9237 69.1023 88.9019 69.0472 88.88 68.9812C88.8253 68.8711 88.7597 68.761 88.6722 68.673C88.5082 68.4968 88.3004 68.3537 88.0817 68.2436C87.9724 68.1886 87.8521 68.1445 87.7318 68.1115C87.6115 68.0785 87.4912 68.0565 87.36 68.0345C87.2288 68.0124 87.1085 68.0124 86.9663 68.0124C86.8351 68.0124 86.6929 68.0345 86.5508 68.0455C86.6055 67.9904 86.6601 67.9464 86.7257 67.9024C86.7914 67.8583 86.857 67.8253 86.9226 67.7923C86.9882 67.7703 87.0647 67.7372 87.1413 67.7152C87.2178 67.6932 87.2944 67.6822 87.3709 67.6712C87.524 67.6492 87.6771 67.6602 87.8302 67.6822C87.9833 67.7042 88.1364 67.7592 88.2676 67.8253C88.4098 67.8914 88.541 67.9794 88.6613 68.0785C88.6941 68.1005 88.7159 68.1335 88.7488 68.1556L88.7925 68.1996L88.8362 68.2436C88.8909 68.3097 88.9347 68.3757 88.9675 68.4418C89.044 68.5849 89.0987 68.739 89.0987 68.9041C89.0987 68.9812 89.0987 69.0693 89.0659 69.1353C89.0221 69.2564 88.9893 69.3225 88.9456 69.3775Z" fill="#22262E"/>
<path d="M84.3874 69.08C84.2671 69.113 84.1687 69.1681 84.0921 69.2231C84.0156 69.2892 83.95 69.3662 83.9062 69.4433C83.8625 69.5203 83.8297 69.6084 83.8078 69.6855C83.7969 69.7625 83.7969 69.8396 83.8187 69.9056C83.8406 69.9717 83.8734 70.0267 83.9281 70.0818C83.9828 70.1368 84.0593 70.1808 84.1359 70.2139C84.2233 70.2469 84.3108 70.2689 84.4092 70.2689C84.5076 70.2689 84.6061 70.2469 84.7154 70.1808C84.6826 70.3019 84.5842 70.412 84.4639 70.4671C84.3436 70.5331 84.2015 70.5551 84.0593 70.5441C83.9172 70.5331 83.775 70.4781 83.6547 70.39C83.5891 70.346 83.5344 70.2909 83.4907 70.2249C83.447 70.1588 83.4032 70.0818 83.3814 70.0047C83.3376 69.8506 83.3486 69.6855 83.3923 69.5423C83.436 69.3992 83.5235 69.2781 83.6329 69.1901C83.7422 69.102 83.8625 69.036 83.9937 69.0029C84.1359 69.0029 84.278 69.0139 84.3874 69.08Z" fill="#22262E"/>
<path d="M86.2681 72.2402C86.2353 72.3944 86.1806 72.5375 86.1041 72.6696C86.0822 72.7026 86.0713 72.7356 86.0494 72.7687C86.0275 72.8017 86.0057 72.8347 85.9838 72.8677C85.94 72.9338 85.8854 72.9888 85.8416 73.0549C85.7323 73.165 85.6229 73.275 85.4917 73.3631C85.3605 73.4512 85.2293 73.5282 85.0762 73.5943C84.934 73.6604 84.7809 73.7044 84.6278 73.7374C84.4747 73.7704 84.3107 73.7814 84.1467 73.7704C84.1029 73.7704 84.0701 73.7594 84.0264 73.7594C83.9827 73.7484 83.9499 73.7484 83.9061 73.7374C83.8296 73.7154 83.753 73.6934 83.6765 73.6603C83.6546 73.6493 83.6437 73.6383 83.6218 73.6383C83.5999 73.6273 83.589 73.6163 83.5671 73.6053C83.5343 73.5833 83.5015 73.5613 83.4687 73.5393C83.4031 73.4952 83.3484 73.4402 83.3047 73.3741C83.4578 73.4182 83.589 73.4402 83.7312 73.4402C83.8733 73.4402 84.0045 73.4402 84.1358 73.4182C84.267 73.3961 84.3982 73.3741 84.5294 73.3301C84.6606 73.2861 84.7809 73.242 84.9012 73.187C85.0215 73.1319 85.1418 73.0769 85.2621 73.0108C85.3824 72.9448 85.4917 72.8677 85.612 72.7907C85.8416 72.6365 86.0494 72.4494 86.2681 72.2402Z" fill="#22262E"/>
<path d="M80.2409 71.7884C80.2081 71.8324 80.1425 71.8764 80.0769 71.8874C80.0113 71.8985 79.9456 71.8874 79.88 71.8654C79.8144 71.8434 79.7598 71.8214 79.7051 71.7884C79.6504 71.7553 79.6067 71.7223 79.552 71.6783L79.4864 71.6232C79.4645 71.6012 79.4426 71.5902 79.4317 71.5682C79.388 71.5242 79.3552 71.4911 79.3224 71.4471C79.2458 71.359 79.1802 71.271 79.1146 71.1609C79.049 71.0618 79.0053 70.9407 78.9725 70.8196C78.9397 70.6985 78.9287 70.5664 78.9396 70.4343C78.9506 70.3683 78.9615 70.3132 78.9834 70.2472C78.9834 70.2362 78.9943 70.2141 79.0053 70.2031C79.0162 70.1921 79.0162 70.1701 79.0271 70.1591C79.0381 70.1261 79.0599 70.1041 79.0709 70.071C79.1365 69.9719 79.2349 69.8839 79.3552 69.8398C79.3333 69.8949 79.3114 69.9389 79.3005 69.994C79.2896 70.049 79.2786 70.093 79.2786 70.1371C79.2677 70.2362 79.2786 70.3242 79.3005 70.4123C79.3224 70.5004 79.3442 70.5884 79.377 70.6655C79.4098 70.7536 79.4536 70.8306 79.5082 70.9187C79.552 71.0068 79.6067 71.0838 79.6723 71.1719L79.8363 71.4361C79.891 71.5132 79.9456 71.6012 80.0003 71.6673C80.0331 71.7003 80.0659 71.7333 80.1097 71.7553C80.1315 71.7884 80.1862 71.7994 80.2409 71.7884Z" fill="#22262E"/>
<path d="M76.0433 70.897C75.9886 70.897 75.9339 70.897 75.8902 70.908C75.8464 70.919 75.8027 70.9411 75.7699 70.9631C75.6933 71.0071 75.6387 71.0621 75.584 71.1282C75.5293 71.1942 75.4856 71.2603 75.4528 71.3374C75.4309 71.3704 75.42 71.4034 75.409 71.4474C75.3981 71.4695 75.3981 71.4915 75.3872 71.5025L75.3762 71.5685C75.3325 71.7337 75.3216 71.9098 75.3216 72.0859C75.3216 72.174 75.3325 72.2731 75.3434 72.3612C75.3434 72.3832 75.3544 72.4052 75.3544 72.4382C75.3544 72.4602 75.3653 72.4933 75.3653 72.5153C75.3762 72.5373 75.3762 72.5703 75.3872 72.5923C75.3981 72.6144 75.3981 72.6474 75.409 72.6694C75.3106 72.6144 75.2232 72.5373 75.1575 72.4492C75.0919 72.3612 75.0263 72.2621 74.9935 72.152C74.917 71.9318 74.8951 71.6896 74.9607 71.4585C74.9717 71.4254 74.9717 71.4034 74.9826 71.3704C74.9935 71.3374 75.0045 71.3153 75.0154 71.2823C75.0373 71.2273 75.0701 71.1612 75.1029 71.1172C75.1794 71.0181 75.2669 70.93 75.3653 70.864C75.42 70.831 75.4747 70.809 75.5293 70.7869C75.584 70.7649 75.6496 70.7539 75.7152 70.7539C75.7808 70.7539 75.8464 70.7649 75.9011 70.7869C75.9667 70.809 76.0214 70.842 76.0433 70.897Z" fill="#22262E"/>
<path d="M74.4905 74.5296C74.3812 74.5626 74.2937 74.5957 74.2172 74.6397C74.1406 74.6837 74.0641 74.7388 73.9985 74.7828C73.8673 74.8929 73.7798 75.014 73.7251 75.1571C73.6704 75.2892 73.6486 75.4543 73.6595 75.6195C73.6704 75.7075 73.6814 75.7956 73.7142 75.8837C73.747 75.9717 73.7798 76.0598 73.8345 76.1589C73.7251 76.1369 73.6267 76.0818 73.5392 76.0048C73.4517 75.9277 73.3861 75.8286 73.3315 75.7185C73.233 75.4984 73.2221 75.2342 73.3205 74.992C73.4189 74.7498 73.6158 74.5736 73.8345 74.4856C73.9438 74.4415 74.0641 74.4195 74.1734 74.4305C74.2828 74.4305 74.3921 74.4636 74.4905 74.5296Z" fill="#22262E"/>
<path d="M76.7328 74.6833C76.8203 74.6503 76.9296 74.6393 77.0281 74.6723C77.1265 74.6943 77.2249 74.7493 77.3014 74.8154C77.378 74.8814 77.4545 74.9695 77.4983 75.0686C77.542 75.1677 77.5748 75.2778 77.5748 75.3988C77.5748 75.5199 77.542 75.63 77.4873 75.7291C77.4326 75.8282 77.367 75.9162 77.2796 75.9713C77.1921 76.0373 77.1046 76.0814 77.0062 76.1034C76.9078 76.1254 76.7984 76.1144 76.7109 76.0814C76.7875 76.0263 76.8531 75.9713 76.9078 75.9162C76.9624 75.8612 76.9952 75.7952 77.0281 75.7401C77.0937 75.619 77.1265 75.4979 77.1265 75.3988C77.1265 75.2888 77.1046 75.1677 77.039 75.0466C77.0062 74.9915 76.9734 74.9255 76.9187 74.8704C76.864 74.7934 76.8094 74.7383 76.7328 74.6833Z" fill="#22262E"/>
<path d="M78.9194 77.9308C78.9851 77.9088 79.0616 77.9418 79.1163 77.9859C79.1709 78.0409 79.2147 78.107 79.2256 78.173C79.2475 78.2501 79.2475 78.3161 79.2366 78.3932C79.2256 78.4703 79.1928 78.5363 79.1381 78.6024C79.0944 78.6574 79.0397 78.7014 78.9851 78.7345C78.9304 78.7675 78.8648 78.7895 78.8101 78.8005C78.7554 78.8115 78.6898 78.8115 78.6351 78.8115C78.5804 78.8005 78.5148 78.7895 78.4492 78.7565C78.482 78.6904 78.5258 78.6464 78.5586 78.6024C78.5914 78.5583 78.6242 78.5253 78.657 78.4923C78.7226 78.4262 78.7663 78.3712 78.8101 78.3272C78.832 78.2941 78.8757 78.2501 78.8976 78.184C78.9085 78.151 78.9304 78.118 78.9413 78.0739C78.9413 78.0519 78.9522 77.9969 78.9194 77.9308Z" fill="#22262E"/>
<path d="M74.0652 79.4724C74.1417 79.4394 74.2292 79.4614 74.3058 79.4944C74.3823 79.5384 74.4479 79.5935 74.4917 79.6705C74.5354 79.7476 74.5682 79.8357 74.5682 79.9237C74.5792 80.0118 74.5573 80.1109 74.5245 80.199C74.4917 80.287 74.437 80.3641 74.3714 80.4191C74.3058 80.4742 74.2292 80.5182 74.1527 80.5512C74.0761 80.5732 73.9996 80.5953 73.9121 80.5843C73.8902 80.5843 73.8683 80.5843 73.8574 80.5732C73.8355 80.5732 73.8137 80.5622 73.8027 80.5622C73.7808 80.5512 73.7699 80.5512 73.748 80.5402C73.7262 80.5292 73.7152 80.5182 73.6934 80.5072C73.7043 80.4962 73.7262 80.4852 73.7371 80.4742C73.748 80.4632 73.7699 80.4521 73.7809 80.4411C73.7918 80.4301 73.8027 80.4191 73.8246 80.4081L73.8574 80.3751C73.9011 80.3311 73.9449 80.287 73.9777 80.254C74.0433 80.1769 74.098 80.0999 74.1199 80.0228C74.1417 79.9568 74.1636 79.8797 74.1636 79.7806C74.1636 79.7366 74.1636 79.6816 74.1417 79.6265C74.1417 79.5935 74.1089 79.5384 74.0652 79.4724Z" fill="#22262E"/>
<path d="M77.4437 80.6836C77.4656 80.7166 77.4875 80.7496 77.4984 80.7827C77.5203 80.8157 77.5312 80.8487 77.5421 80.8817L77.6187 81.0579C77.6406 81.1129 77.6624 81.157 77.6952 81.201C77.7171 81.245 77.739 81.278 77.7718 81.3111V81.3221C77.7718 81.3221 77.7718 81.3221 77.7827 81.3331L77.7936 81.3441C77.8046 81.3551 77.8155 81.3661 77.8265 81.3771C77.8593 81.3991 77.8921 81.4102 77.9358 81.4322C77.9796 81.4432 78.0233 81.4542 78.067 81.4542C78.1108 81.4542 78.1764 81.4432 78.2311 81.3771C78.2529 81.4102 78.2529 81.4542 78.242 81.4982C78.2311 81.5423 78.2092 81.5863 78.1873 81.6193C78.1326 81.6964 78.0452 81.7404 77.9467 81.7624C77.8593 81.7844 77.7608 81.7844 77.6734 81.7514C77.6296 81.7404 77.5859 81.7184 77.5421 81.6854C77.5312 81.6744 77.5203 81.6744 77.5093 81.6633C77.4984 81.6523 77.4874 81.6523 77.4765 81.6413C77.4656 81.6303 77.4547 81.6193 77.4437 81.6083L77.4328 81.5973L77.4218 81.5863C77.3672 81.5202 77.3234 81.4322 77.3015 81.3551C77.2797 81.267 77.2687 81.19 77.2797 81.1129C77.2797 81.0359 77.3015 80.9588 77.3234 80.8928C77.3343 80.8597 77.3562 80.8267 77.3672 80.7937C77.4 80.7496 77.4218 80.7166 77.4437 80.6836Z" fill="#22262E"/>
<path d="M96.8202 76.2905C96.9951 75.9162 97.0498 75.5309 97.017 75.1566C96.9842 74.7823 96.853 74.4301 96.6343 74.1548C96.4156 73.8796 96.1094 73.6705 95.7595 73.5494C95.4096 73.4283 95.0159 73.3953 94.6113 73.4723C94.7754 73.3402 94.9831 73.2632 95.1909 73.2191C95.3986 73.1751 95.6283 73.1751 95.836 73.2081C96.0547 73.2411 96.2625 73.3182 96.4593 73.4283C96.503 73.4613 96.5577 73.4943 96.6015 73.5164L96.7327 73.6154L96.853 73.7365L96.9623 73.8686L97.0607 74.0117C97.0935 74.0558 97.1154 74.1108 97.1482 74.1659L97.2138 74.32C97.2357 74.375 97.2466 74.4301 97.2685 74.4851L97.3122 74.6502C97.3232 74.7053 97.3341 74.7603 97.3341 74.8154C97.3341 74.8704 97.345 74.9254 97.345 74.9805V75.1456C97.3341 75.3658 97.2794 75.586 97.181 75.7841C97.1045 75.9823 96.9842 76.1584 96.8202 76.2905Z" fill="#22262E"/>
<path d="M78.2423 84.096C78.0892 85.5491 77.3019 86.661 76.4927 86.5729C75.6835 86.4848 75.1586 85.2299 75.3117 83.7767C75.4648 82.3236 76.2521 81.2117 77.0613 81.2998C77.8596 81.3879 78.3954 82.6429 78.2423 84.096Z" fill="#FD906C"/>
<path d="M77.5517 83.3139C77.3986 83.501 77.2783 83.6992 77.2127 83.9083C77.1471 84.1175 77.1034 84.3156 77.1034 84.5138C77.1034 84.6129 77.1362 84.723 77.1799 84.822C77.2127 84.9211 77.2127 85.0202 77.1799 85.1082C77.1362 85.1963 77.1034 85.2954 77.0159 85.4055C76.9503 85.5156 76.8628 85.6257 76.7097 85.7578C76.6769 85.7798 76.6222 85.7908 76.5785 85.7688C76.1301 85.5486 75.9005 85.2624 75.7911 84.9651C75.6599 84.6569 75.8896 84.3927 76.0208 84.1615C76.1629 83.9193 76.3707 83.6992 76.6222 83.545C76.8737 83.3799 77.158 83.2698 77.4861 83.2148C77.5189 83.2038 77.5626 83.2258 77.5845 83.2588C77.5736 83.2808 77.5736 83.2918 77.5517 83.3139Z" fill="#D85920"/>
<path d="M76.3398 82.0372C76.5039 81.9491 76.7116 81.9271 76.9085 81.9822C77.1053 82.0372 77.2803 82.1693 77.4006 82.3454C77.5208 82.5216 77.5646 82.7197 77.5864 82.9069C77.5864 83.006 77.5755 83.094 77.5646 83.1931C77.5427 83.2812 77.5208 83.3803 77.4771 83.4683C77.4334 83.3803 77.4115 83.2922 77.3896 83.2041C77.3678 83.116 77.3349 83.039 77.3131 82.9619C77.2475 82.8078 77.1928 82.6647 77.1162 82.5436C77.0288 82.4225 76.9413 82.3234 76.8101 82.2464C76.6788 82.1583 76.5257 82.0922 76.3398 82.0372Z" fill="#D85920"/>
<path d="M92.3923 140.482C82.004 138.203 71.6157 135.935 61.2274 133.656C60.3416 134.251 56.1098 137.179 54.885 139.953C54.5789 140.636 54.5242 141.197 54.5023 141.307C54.4476 141.858 54.9179 144.048 55.9129 145.292C57.2361 146.944 60.1885 147.824 63.4035 147.131C73.3106 146.404 83.2287 145.678 93.1358 144.951C92.8953 143.465 92.6438 141.968 92.3923 140.482Z" fill="#EF6238"/>
<path d="M67.2417 135.462C66.9574 135.253 66.6293 135.099 66.2903 134.989C65.9513 134.879 65.6014 134.813 65.2405 134.791C64.8906 134.769 64.5298 134.78 64.1798 134.846C63.8299 134.901 63.4909 135.011 63.1738 135.176C63.5347 135.198 63.8737 135.198 64.2127 135.198C64.3329 135.198 64.8031 135.22 65.2187 135.242C65.6779 135.275 66.3669 135.33 67.2417 135.462Z" fill="#9D3929"/>
<path d="M94.1425 137.62C94.394 137.422 94.908 137.058 95.8703 136.299C96.931 135.462 97.6308 134.824 98.8118 134.009C99.949 133.227 100.529 132.842 100.922 132.82C101.83 132.787 102.672 133.216 103.558 133.877C103.951 134.174 104.345 134.471 104.64 134.857C104.924 135.253 105.088 135.759 104.946 136.189C104.914 136.288 104.859 136.387 104.749 136.42C104.651 136.453 104.542 136.409 104.443 136.365C103.503 135.969 102.628 135.396 101.874 134.703C101.239 135.385 100.474 135.936 99.6319 136.343C100.452 136.904 101.272 137.455 102.092 138.016C102.606 138.357 103.131 138.732 103.437 139.26C103.842 139.943 103.798 140.746 103.722 141.495C103.645 142.276 103.536 143.058 103.415 143.84C103.383 144.049 103.339 144.269 103.175 144.401C103 144.544 102.759 144.522 102.694 144.522C102.147 144.456 101.764 143.763 101.688 143.631C101.152 142.651 101.644 142.056 101.349 141.209C101.174 140.691 100.671 140.02 99.2382 139.425C101.207 141.748 101.338 142.706 101.075 143.146C100.966 143.333 100.594 143.719 100.069 143.884C99.5007 144.06 99.2711 143.807 98.9649 144.038C98.6806 144.258 98.7899 144.566 98.3634 145.271C98.2432 145.469 98.1229 145.612 98.101 145.645C97.8386 146.019 96.9638 146.151 94.6455 145.524C94.6455 145.392 94.6455 145.249 94.7111 145.128C94.8424 144.897 95.1157 144.819 95.3563 144.709C95.5969 144.61 95.8484 144.401 95.8156 144.148C95.7828 143.917 95.5422 143.774 95.3126 143.719C95.1923 143.686 95.072 143.675 94.9627 143.697C94.6346 143.741 94.394 144.016 94.1535 144.236C93.9457 144.434 93.7161 144.599 93.4646 144.742C93.3333 144.819 93.1912 144.885 93.0709 144.996C93.06 145.007 93.0381 145.029 93.0272 145.04C92.2836 144.797 91.4525 144.5 90.4902 144.137C91.6056 140.262 93.0053 138.501 94.1425 137.62Z" fill="#FD906C"/>
<path d="M98.9315 143.553C98.9752 143.366 98.9643 143.179 98.9424 143.003C98.9205 142.827 98.8659 142.651 98.7893 142.475C98.7237 142.309 98.6253 142.144 98.5159 142.001C98.4066 141.858 98.2754 141.726 98.1113 141.627C98.1551 141.814 98.2207 141.979 98.2754 142.133C98.341 142.298 98.4066 142.453 98.4722 142.607C98.5378 142.761 98.6034 142.915 98.68 143.08C98.7565 143.234 98.8331 143.399 98.9315 143.553Z" fill="#D85920"/>
<path opacity="0.5" d="M103.317 142.926C103.361 142.87 103.426 142.815 103.492 142.793C103.525 142.782 103.558 142.782 103.579 142.793C103.536 143.146 103.481 143.509 103.426 143.861C103.394 144.07 103.35 144.291 103.186 144.423C103.011 144.566 102.77 144.544 102.705 144.544C102.661 144.533 102.606 144.522 102.562 144.511C102.639 143.927 102.967 143.322 103.317 142.926Z" fill="white"/>
<path opacity="0.5" d="M105 135.935C104.442 135.44 103.852 134.57 104.092 134.295C104.3 134.471 104.486 134.647 104.639 134.867C104.869 135.176 105.022 135.572 105 135.935Z" fill="white"/>
<path d="M78.3508 83.7801C78.553 81.9553 77.7634 80.369 76.587 80.2368C75.4107 80.1047 74.2931 81.4768 74.0908 83.3015C73.8886 85.1262 74.6782 86.7126 75.8546 86.8448C77.0309 86.9769 78.1485 85.6048 78.3508 83.7801Z" fill="#EF6238"/>
<path d="M82.5837 93.5524L82.7149 93.1781C79.3141 92.0112 77.7504 90.0297 77.0505 88.5655C76.2851 86.9803 76.3179 85.6373 76.3179 85.6262L75.9242 85.6152C75.9242 85.6703 75.8805 87.0463 76.6897 88.7196C77.4223 90.2498 79.0407 92.3415 82.5837 93.5524Z" fill="#282222"/>
<path d="M82.004 93.1886C81.8619 93.772 82.8351 94.5316 84.191 94.8729C85.547 95.2141 86.7608 95.016 86.9029 94.4325C87.0451 93.8491 86.0719 93.0895 84.7159 92.7482C83.36 92.407 82.1462 92.6051 82.004 93.1886Z" fill="#282222"/>
<path d="M73.0913 83.182C72.9054 84.8663 73.7037 86.3414 74.8847 86.4735C76.0547 86.6056 77.1591 85.3507 77.345 83.6663C77.5309 81.982 76.7327 80.5069 75.5517 80.3748C74.3816 80.2427 73.2772 81.4977 73.0913 83.182Z" fill="#322C39"/>
<path d="M75.2557 71.7885C76.5679 68.8713 79.3891 66.3943 82.6368 65.3265C84.9223 64.5669 87.2186 64.5669 89.2744 65.2825C89.5915 65.2715 89.9196 65.3595 90.193 65.5247C90.357 65.6237 90.4991 65.7448 90.6413 65.8769C90.696 65.8989 90.7397 65.932 90.7944 65.954C91.035 66.0861 91.2646 66.2292 91.4833 66.3833C91.5708 66.2842 91.6801 66.1962 91.7785 66.1191C91.5161 65.943 91.2537 65.7668 90.9803 65.6127C88.4871 64.2036 85.4799 63.9724 82.5165 64.9522C77.3005 66.6806 75.1135 71.161 74.9057 71.6234C72.7734 76.4672 74.6761 80.8486 74.9823 81.5091C75.0807 81.5861 75.2119 81.6082 75.3103 81.5531C75.4306 81.4871 75.4416 81.355 75.4525 81.3329C74.7854 79.7917 73.4623 75.7736 75.2557 71.7885Z" fill="#EF6238"/>
<path d="M75.7138 146.845H148.213C148.913 146.845 149.482 146.272 149.482 145.568V144.731C149.482 144.027 148.913 143.454 148.213 143.454H75.7138C75.0139 143.454 74.4453 144.027 74.4453 144.731V145.568C74.4453 146.272 75.0139 146.845 75.7138 146.845Z" fill="#2A303B"/>
<path d="M105.962 144.368H148.237C150.61 144.368 152.687 142.772 153.311 140.46L161.829 109.053C162.748 105.684 160.222 102.359 156.755 102.359H114.48C112.107 102.359 110.03 103.956 109.406 106.267L100.888 137.675C99.9694 141.043 102.484 144.368 105.962 144.368Z" fill="#2A303B"/>
<path d="M105.961 144.533C106.048 144.533 106.125 144.456 106.125 144.368C106.125 144.28 106.048 144.203 105.961 144.203C104.354 144.203 102.877 143.465 101.904 142.188C100.931 140.9 100.614 139.271 101.04 137.719L109.559 106.312C110.16 104.077 112.183 102.525 114.479 102.525H156.754C156.842 102.525 156.918 102.448 156.918 102.359C156.918 102.271 156.842 102.194 156.754 102.194H114.479C112.041 102.194 109.887 103.846 109.242 106.212L100.723 137.62C100.275 139.271 100.614 141.011 101.642 142.376C102.68 143.752 104.255 144.533 105.961 144.533Z" fill="white"/>
<path d="M75.7145 146.999H148.214C148.301 146.999 148.378 146.922 148.378 146.834C148.378 146.746 148.301 146.669 148.214 146.669H75.7145C75.1022 146.669 74.6101 146.174 74.6101 145.557V144.72C74.6101 144.104 75.1022 143.609 75.7145 143.609H102.79C102.877 143.609 102.954 143.532 102.954 143.443C102.954 143.355 102.877 143.278 102.79 143.278H75.7145C74.9272 143.278 74.293 143.928 74.293 144.709V145.546C74.293 146.361 74.9272 146.999 75.7145 146.999Z" fill="white"/>
<path d="M138.335 124.712C139.421 122.58 139.137 120.252 137.702 119.512C136.267 118.771 134.224 119.899 133.139 122.031C132.054 124.163 132.337 126.491 133.772 127.231C135.207 127.972 137.25 126.844 138.335 124.712Z" fill="white"/>
<path d="M41.3154 147.752H159.508C160.213 147.752 160.779 147.472 160.779 147.129C160.779 146.787 160.207 146.507 159.508 146.507H41.3154C40.6102 146.507 40.0449 146.787 40.0449 147.129C40.0449 147.472 40.6163 147.752 41.3154 147.752Z" fill="#2C313D"/>
<path d="M61.0964 82.0501C61.0964 82.0501 20.8914 62.0257 34.0437 47.294C47.1961 32.5623 71.7086 38.4519 72.9397 53.9531C74.1864 69.47 44.3599 65.8264 61.0964 82.0501Z" fill="#EF6238"/>
<path d="M36.9512 51.5532C36.9512 51.7716 37.1383 51.9589 37.3566 51.9589H55.1018C55.3201 51.9589 55.5072 51.7716 55.5072 51.5532C55.5072 51.3347 55.3201 51.1475 55.1018 51.1475H37.3566C37.1383 51.1475 36.9512 51.3347 36.9512 51.5532Z" fill="white"/>
<path d="M60.3878 51.9589H65.6584C65.8767 51.9589 66.0638 51.7716 66.0638 51.5532C66.0638 51.3347 65.8767 51.1475 65.6584 51.1475H60.3878C60.1695 51.1475 59.9824 51.3347 59.9824 51.5532C59.9824 51.7716 60.1695 51.9589 60.3878 51.9589Z" fill="white"/>
<path d="M36.3574 55.1577C36.3574 55.3761 36.5445 55.5634 36.7628 55.5634H43.4212C43.6395 55.5634 43.8266 55.3761 43.8266 55.1577C43.8266 54.9392 43.6395 54.752 43.4212 54.752H36.7628C36.5445 54.752 36.3574 54.9236 36.3574 55.1577Z" fill="white"/>
<path d="M52.8086 55.1577C52.8086 55.3761 52.9957 55.5634 53.214 55.5634H65.065C65.2833 55.5634 65.4704 55.3761 65.4704 55.1577C65.4704 54.9392 65.2833 54.752 65.065 54.752H53.214C52.9801 54.752 52.8086 54.9236 52.8086 55.1577Z" fill="white"/>
<path d="M36.1711 59.1522H53.8851C54.1034 59.1522 54.2905 58.965 54.2905 58.7465C54.2905 58.5281 54.1034 58.3408 53.8851 58.3408H36.1711C35.9527 58.3408 35.7656 58.5281 35.7656 58.7465C35.7656 58.9806 35.9372 59.1522 36.1711 59.1522Z" fill="white"/>
<path d="M58.3293 59.1522H64.4574C64.6757 59.1522 64.8629 58.965 64.8629 58.7465C64.8629 58.5281 64.6757 58.3408 64.4574 58.3408H58.3293C58.1109 58.3408 57.9238 58.5281 57.9238 58.7465C57.9238 58.9806 58.0954 59.1522 58.3293 59.1522Z" fill="white"/>
<path d="M128.145 84.8886C136.372 84.8886 143.042 78.2262 143.042 70.0078C143.042 61.7893 136.372 55.127 128.145 55.127C119.918 55.127 113.248 61.7893 113.248 70.0078C113.248 78.2262 119.918 84.8886 128.145 84.8886Z" fill="#EF6238"/>
<path d="M127.974 84.9252C136.236 84.9252 142.934 78.2319 142.934 69.9753C142.934 61.7187 136.236 55.0254 127.974 55.0254C119.712 55.0254 113.014 61.7187 113.014 69.9753C113.014 78.2319 119.712 84.9252 127.974 84.9252Z" fill="#EF6238"/>
<path d="M128.132 63.7207C127.183 63.6838 126.505 63.3886 126.113 62.7984C125.721 62.2265 125.525 61.5071 125.525 60.6586C125.525 59.8101 125.736 59.1276 126.173 58.5742C126.61 58.0208 127.273 57.7441 128.163 57.7441C129.067 57.7441 129.76 58.0024 130.242 58.5004C130.724 59.0169 130.965 59.7363 130.965 60.6771C130.965 61.6178 130.739 62.3741 130.272 62.909C129.805 63.4993 129.097 63.7575 128.132 63.7207Z" fill="white"/>
<path d="M130.965 65.3555H125.525V79.4899H130.965V65.3555Z" fill="white"/>
<path d="M131.802 79.4889H123.099C122.936 79.4889 122.809 79.3888 122.809 79.26C122.809 79.0884 122.99 78.9453 123.208 78.9453H131.748C131.911 78.9453 132.057 79.0455 132.057 79.1885V79.303C132.038 79.4031 131.929 79.4889 131.802 79.4889Z" fill="white"/>
<path d="M130.968 65.8991H122.623C122.418 65.8991 122.264 65.7704 122.264 65.5987C122.264 65.4699 122.4 65.3555 122.554 65.3555H130.66C130.831 65.3555 130.968 65.4699 130.968 65.613V65.8991Z" fill="white"/>
</svg>
