<?xml version="1.0" encoding="utf-8"?>
<!-- Generator: Adobe Illustrator 26.1.0, SVG Export Plug-In . SVG Version: 6.00 Build 0)  -->
<svg version="1.1" id="Layer_1" xmlns="http://www.w3.org/2000/svg" xmlns:xlink="http://www.w3.org/1999/xlink" x="0px" y="0px"
	 viewBox="0 0 1128.1 753" style="enable-background:new 0 0 1128.1 753;" xml:space="preserve">
<style type="text/css">
	.st0{fill:#FFFFFF;stroke:#EF6238;stroke-width:5.2107;}
	.st1{fill:none;stroke:#000000;stroke-width:2.6054;stroke-dasharray:5.21,5.21;}
	.st2{fill:none;stroke:#000000;stroke-width:1.7369;}
	.st3{fill:#EF6238;}
	.st4{clip-path:url(#SVGID_00000162349185288014731290000006334896234689118873_);}
	.st5{fill:#F7B58E;}
	.st6{fill:#D64C36;}
	.st7{fill:#F3835F;}
	.st8{fill:#FD906C;}
	.st9{fill:#282222;}
	.st10{fill:#EDECEC;}
	.st11{fill:#FFFFFF;}
	.st12{fill:#E5E5E5;}
	.st13{fill:#BFE3ED;}
</style>
<circle class="st0" cx="572.3" cy="582.1" r="62.5"/>
<circle class="st0" cx="872.3" cy="282.1" r="62.5"/>
<circle class="st1" cx="573.2" cy="282.2" r="201.9"/>
<line class="st2" x1="367.3" y1="283.1" x2="339.5" y2="283.1"/>
<line class="st2" x1="808.5" y1="283.1" x2="780.7" y2="283.1"/>
<line class="st2" x1="430.2" y1="432.2" x2="410.5" y2="451.9"/>
<line class="st2" x1="573.2" y1="488.9" x2="573.2" y2="516.7"/>
<line class="st2" x1="713.6" y1="431" x2="733.2" y2="450.7"/>
<circle cx="433.8" cy="135.9" r="3.9"/>
<circle cx="712.6" cy="135" r="3.9"/>
<circle cx="371.2" cy="282.7" r="3.9"/>
<circle cx="776.8" cy="282.7" r="3.9"/>
<circle cx="432.9" cy="429.5" r="3.9"/>
<circle cx="573.6" cy="485" r="3.9"/>
<circle cx="712.6" cy="429.5" r="3.9"/>
<line class="st2" x1="713.9" y1="133.1" x2="733.5" y2="113.4"/>
<line class="st2" x1="431" y1="133.5" x2="410.1" y2="112.6"/>
<circle class="st0" cx="365.3" cy="65.1" r="62.5"/>
<circle class="st0" cx="275.3" cy="283.1" r="62.5"/>
<circle class="st0" cx="364.3" cy="498.1" r="62.5"/>
<circle class="st0" cx="776.3" cy="498.1" r="62.5"/>
<circle class="st0" cx="776.3" cy="65.1" r="62.5"/>
<path class="st3" d="M537.1,569.7V594h-4.5v-20.5h-5.1v-3.8H537.1z M552.1,594.3c-1.9,0-3.7-0.5-5.2-1.5c-1.5-1-2.7-2.4-3.6-4.3
	c-0.9-1.9-1.3-4.1-1.3-6.7c0-2.6,0.4-4.8,1.3-6.7c0.9-1.9,2.1-3.3,3.6-4.3c1.5-1,3.3-1.5,5.2-1.5c1.9,0,3.7,0.5,5.2,1.5
	c1.6,1,2.8,2.4,3.6,4.3c0.9,1.9,1.3,4.1,1.3,6.7c0,2.6-0.4,4.8-1.3,6.7c-0.9,1.9-2.1,3.3-3.6,4.3C555.7,593.9,554,594.3,552.1,594.3
	z M552.1,590.4c1.7,0,3.1-0.7,4.1-2.2c1-1.4,1.5-3.6,1.5-6.4c0-2.8-0.5-5-1.5-6.4c-1-1.4-2.4-2.2-4.1-2.2c-1.7,0-3.1,0.7-4.1,2.2
	c-1,1.4-1.5,3.6-1.5,6.4c0,2.8,0.5,5,1.5,6.4C549,589.7,550.3,590.4,552.1,590.4z M575.4,594.3c-1.9,0-3.7-0.5-5.2-1.5
	c-1.5-1-2.7-2.4-3.6-4.3c-0.9-1.9-1.3-4.1-1.3-6.7c0-2.6,0.4-4.8,1.3-6.7c0.9-1.9,2.1-3.3,3.6-4.3c1.5-1,3.3-1.5,5.2-1.5
	s3.7,0.5,5.2,1.5c1.6,1,2.8,2.4,3.6,4.3c0.9,1.9,1.3,4.1,1.3,6.7c0,2.6-0.4,4.8-1.3,6.7c-0.9,1.9-2.1,3.3-3.6,4.3
	C579.1,593.9,577.4,594.3,575.4,594.3z M575.4,590.4c1.7,0,3.1-0.7,4.1-2.2c1-1.4,1.5-3.6,1.5-6.4c0-2.8-0.5-5-1.5-6.4
	c-1-1.4-2.4-2.2-4.1-2.2c-1.7,0-3.1,0.7-4.1,2.2c-1,1.4-1.5,3.6-1.5,6.4c0,2.8,0.5,5,1.5,6.4C572.3,589.7,573.7,590.4,575.4,590.4z
	 M594.1,582.8c-1.7,0-3.1-0.6-4.2-1.8c-1.1-1.2-1.6-2.8-1.6-4.8c0-2,0.5-3.6,1.6-4.8c1.1-1.2,2.5-1.8,4.2-1.8c1.7,0,3.1,0.6,4.2,1.8
	c1.1,1.2,1.6,2.8,1.6,4.8s-0.5,3.6-1.6,4.9C597.2,582.2,595.8,582.8,594.1,582.8z M608.7,569.7h3.4L595.5,594h-3.4L608.7,569.7z
	 M594.1,580.3c1,0,1.7-0.4,2.2-1.1c0.5-0.7,0.8-1.8,0.8-3.1c0-1.3-0.3-2.4-0.8-3.1c-0.5-0.7-1.2-1.1-2.2-1.1c-0.9,0-1.6,0.4-2.2,1.1
	c-0.5,0.7-0.8,1.8-0.8,3.1s0.3,2.4,0.8,3.1C592.4,580,593.2,580.3,594.1,580.3z M610,594.2c-1.7,0-3.1-0.6-4.2-1.8
	c-1.1-1.2-1.6-2.8-1.6-4.8c0-2,0.5-3.6,1.6-4.8c1.1-1.2,2.5-1.8,4.2-1.8s3.1,0.6,4.2,1.8c1.1,1.2,1.6,2.8,1.6,4.8
	c0,2-0.5,3.6-1.6,4.8C613.2,593.6,611.8,594.2,610,594.2z M610,591.8c0.9,0,1.7-0.4,2.2-1.1c0.5-0.8,0.8-1.8,0.8-3.1
	s-0.3-2.3-0.8-3.1c-0.5-0.8-1.3-1.1-2.2-1.1c-0.9,0-1.7,0.4-2.2,1.1c-0.5,0.7-0.8,1.8-0.8,3.1c0,1.3,0.3,2.4,0.8,3.1
	C608.4,591.4,609.1,591.8,610,591.8z"/>
<path class="st3" d="M838.1,269.7V294h-4.5v-20.5h-5.1v-3.8H838.1z M853.1,294.3c-1.9,0-3.7-0.5-5.2-1.5c-1.5-1-2.7-2.4-3.6-4.3
	c-0.9-1.9-1.3-4.1-1.3-6.7c0-2.6,0.4-4.8,1.3-6.7c0.9-1.9,2.1-3.3,3.6-4.3c1.5-1,3.3-1.5,5.2-1.5c1.9,0,3.7,0.5,5.2,1.5
	c1.6,1,2.8,2.4,3.6,4.3c0.9,1.9,1.3,4.1,1.3,6.7c0,2.6-0.4,4.8-1.3,6.7c-0.9,1.9-2.1,3.3-3.6,4.3C856.7,293.9,855,294.3,853.1,294.3
	z M853.1,290.4c1.7,0,3.1-0.7,4.1-2.2c1-1.4,1.5-3.6,1.5-6.4c0-2.8-0.5-5-1.5-6.4c-1-1.4-2.4-2.2-4.1-2.2c-1.7,0-3.1,0.7-4.1,2.2
	c-1,1.4-1.5,3.6-1.5,6.4c0,2.8,0.5,5,1.5,6.4C850,289.7,851.3,290.4,853.1,290.4z M876.4,294.3c-1.9,0-3.7-0.5-5.2-1.5
	c-1.5-1-2.7-2.4-3.6-4.3c-0.9-1.9-1.3-4.1-1.3-6.7c0-2.6,0.4-4.8,1.3-6.7c0.9-1.9,2.1-3.3,3.6-4.3c1.5-1,3.3-1.5,5.2-1.5
	s3.7,0.5,5.2,1.5c1.6,1,2.8,2.4,3.6,4.3c0.9,1.9,1.3,4.1,1.3,6.7c0,2.6-0.4,4.8-1.3,6.7c-0.9,1.9-2.1,3.3-3.6,4.3
	C880.1,293.9,878.4,294.3,876.4,294.3z M876.4,290.4c1.7,0,3.1-0.7,4.1-2.2c1-1.4,1.5-3.6,1.5-6.4c0-2.8-0.5-5-1.5-6.4
	c-1-1.4-2.4-2.2-4.1-2.2c-1.7,0-3.1,0.7-4.1,2.2c-1,1.4-1.5,3.6-1.5,6.4c0,2.8,0.5,5,1.5,6.4C873.3,289.7,874.7,290.4,876.4,290.4z
	 M895.1,282.8c-1.7,0-3.1-0.6-4.2-1.8c-1.1-1.2-1.6-2.8-1.6-4.8c0-2,0.5-3.6,1.6-4.8c1.1-1.2,2.5-1.8,4.2-1.8c1.7,0,3.1,0.6,4.2,1.8
	c1.1,1.2,1.6,2.8,1.6,4.8c0,2-0.5,3.6-1.6,4.9C898.2,282.2,896.8,282.8,895.1,282.8z M909.7,269.7h3.4L896.5,294h-3.4L909.7,269.7z
	 M895.1,280.3c1,0,1.7-0.4,2.2-1.1c0.5-0.7,0.8-1.8,0.8-3.1c0-1.3-0.3-2.4-0.8-3.1c-0.5-0.7-1.2-1.1-2.2-1.1c-0.9,0-1.6,0.4-2.2,1.1
	c-0.5,0.7-0.8,1.8-0.8,3.1c0,1.3,0.3,2.4,0.8,3.1C893.4,280,894.2,280.3,895.1,280.3z M911,294.2c-1.7,0-3.1-0.6-4.2-1.8
	c-1.1-1.2-1.6-2.8-1.6-4.8c0-2,0.5-3.6,1.6-4.8c1.1-1.2,2.5-1.8,4.2-1.8s3.1,0.6,4.2,1.8c1.1,1.2,1.6,2.8,1.6,4.8
	c0,2-0.5,3.6-1.6,4.8C914.2,293.6,912.8,294.2,911,294.2z M911,291.8c0.9,0,1.7-0.4,2.2-1.1c0.5-0.8,0.8-1.8,0.8-3.1
	s-0.3-2.4-0.8-3.1c-0.5-0.8-1.3-1.1-2.2-1.1c-0.9,0-1.7,0.4-2.2,1.1c-0.5,0.7-0.8,1.8-0.8,3.1c0,1.3,0.3,2.4,0.8,3.1
	C909.4,291.4,910.1,291.8,911,291.8z"/>
<g>
	<defs>
		<rect id="SVGID_1_" x="380.1" y="164" width="403" height="197"/>
	</defs>
	<clipPath id="SVGID_00000023267169570179934410000005713032482915428496_">
		<use xlink:href="#SVGID_1_"  style="overflow:visible;"/>
	</clipPath>
	<g style="clip-path:url(#SVGID_00000023267169570179934410000005713032482915428496_);">
		<path class="st3" d="M628.4,195.2c15.1,0,27.3,12.3,27.3,27.4c0,5.6-1.7,8.9-4.9,15.2c-4.7,9.3,3,13.2,3,13.2s-20.2,0.1-25.5,0.1
			c-15.1,0-27.3-13.5-27.3-28.6C601,207.4,613.3,195.2,628.4,195.2z"/>
		<path class="st5" d="M726,262.4c-0.6,0-1.1,0.7-1.1,0.7l-4.7,6.3l-1.8-2c-1.5-1.6-6.9,2.5-5.8,0.6l7.9-11c0,0,0.8-1.3,2.7-1.8
			c2.3-0.6,14-2.5,14-2.5s1.8,0,0.5,1.7c-1.3,1.6-7.1,2.7-7.1,2.7s-0.5,0.2-0.3,0.2c0.5,0.1,5.5-1,6.7-1.9c1.2-0.9,4.9-6.8,7.6-6.7
			c1.1,0-6.6,10.7-6.6,10.7s-0.7,1.3-2.5,1.5C733.8,261,726.6,262.4,726,262.4z"/>
		<path class="st3" d="M663.7,313.7c0,0,35,6.4,59.1-46.9c-10,0-10.3,0-10.3,0S679.9,302,654.8,282
			C629.6,261.9,663.7,313.7,663.7,313.7z"/>
		<path class="st6" d="M666.1,359.5l-2.5-56.1c0.2-11.9-8.3-24.1-15.1-32.1c-0.1-0.1-0.3,0-0.5,0c-5.3,0-14.2-0.5-25.8,10.4
			c-10.5,9.9-4.7,67-2.9,77.8H666.1z"/>
		<path class="st5" d="M655.7,349.9c0,0,4.6-2.7,10.5-2.7c2.8,0,5.8,2,8.1,4.1c1.9,1.7,0.7,4.3-1.8,4.3h-20.6L655.7,349.9z"/>
		<path class="st3" d="M635.7,276.8c-13-8.7-26.5,25.4-26.5,43.3c0,17.9,43.8,36.1,43.8,36.1l2.7-6.2c0,0-23.8-23.9-28.1-32.5
			C631.8,303.2,644.5,282.7,635.7,276.8z"/>
		<path class="st7" d="M503.7,255.7l-0.2,19.1h-10.5l-1.7-8.1l10.5-11H503.7z"/>
		<path class="st8" d="M485.4,268.7c-7.8-10.5-6.1-25.6-6.1-25.6l7.5-4.6l11.7,4.5l2.4,12.3c0,0.1-1,0.2-1,0.3
			c1,4.6-0.8,7.4-4.2,10.6C493.6,268.2,488.3,271.2,485.4,268.7z"/>
		<path class="st9" d="M497.5,247.4c-1.1-1.9-2.3-6.7-4.2-5.7c-1.4,0.7-6.5,2.5-8.3,3c-4.1,1.2-12,1.8-13.9-4.5
			c-0.9-3.2,1.3-6.8,3-8.2c1.7-1.4,3.8-2,6-1.9c5,0.2,11.6,1.2,14.4,0.7c4.3-0.7,8.6-0.9,9.6,2.6c1,3.7,0.8,9.9,0,13.9
			c-0.4,2.4-1.3,4.6-2.5,6.7L497.5,247.4z"/>
		<path class="st6" d="M480,285c0,0-10.6,28-17.7,34.4c-7.1,6.4-15.7,10.6-15.7,10.6l5.7,12.4c0,0,24.2-6.6,27.7-18.2
			C482.1,317.6,480,285,480,285z"/>
		<path class="st3" d="M484.5,264.1l0-1.5l-2.8,0c-0.6,0-1.1-0.3-1.4-0.7c-0.3-0.4-0.5-1-0.4-1.5l0.5-2.1l-0.8-3.7l-1.2,5.5
			c-0.2,1,0.1,2,0.7,2.7c0.6,0.8,1.6,1.2,2.5,1.2L484.5,264.1z"/>
		<path class="st9" d="M484.1,264.6l1.9,0c0.7,0,1.3-0.6,1.3-1.3c0-0.7-0.6-1.3-1.3-1.3l-1.9,0c-0.7,0-1.3,0.6-1.3,1.3
			C482.8,264.1,483.4,264.6,484.1,264.6z"/>
		<path class="st3" d="M477.1,359.5l-1.2-53.8c-0.2-11.9,1.3-26.8,21-34.4c0.2-0.1,0.4,0,0.5,0c5.3,0,14.2-0.5,25.8,10.4
			c10.5,10-0.1,67-1.9,77.8H477.1z"/>
		<path class="st5" d="M489.7,349.9c0,0-4.6-2.7-10.5-2.7c-2.8,0-5.8,2-8.1,4.1c-1.9,1.7-0.7,4.3,1.8,4.3h20.6L489.7,349.9z"/>
		<path class="st6" d="M509.7,276.8c13-8.7,26.5,25.4,26.5,43.3c0,17.9-43.8,36.1-43.8,36.1l-2.7-6.2c0,0,23.8-23.9,28.1-32.5
			C513.6,303.2,500.9,282.7,509.7,276.8z"/>
		<path class="st3" d="M487.8,230.8c0.8-1.2,5.8-0.9,5.8-0.9c5.7,0,10.4,5.3,10.4,11.1v9.8h-1.7V241c0-4.9-3.9-9.8-8.8-9.8
			L487.8,230.8z"/>
		<path class="st3" d="M502.5,259.3c3.2,0,5.9-2.6,5.9-5.9s-2.6-5.9-5.9-5.9c-3.2,0-5.9,2.6-5.9,5.9S499.2,259.3,502.5,259.3z"/>
		<path class="st9" d="M486.7,355.7h-77.9v3.6h77.9V355.7z"/>
		<path class="st9" d="M388.9,318.2h60.7l19.9,41.2h-60.7L388.9,318.2z"/>
		<path class="st10" d="M428.8,335.8c0,1.4-1.1,2.4-2.4,2.4c-1.4,0-2.4-1.1-2.4-2.4c0-1.4,1.1-2.4,2.4-2.4
			C427.7,333.4,428.8,334.5,428.8,335.8z"/>
		<path class="st7" d="M562.9,264.9v13.7l6.5,9.9l5.7-9.5v-13.9L562.9,264.9z"/>
		<path class="st9" d="M592.1,237c0.4-3.9,1.2-6.2,0.1-10c-0.5-1.6-1.3-3.2-2.2-4.6c-9.5-13.5-18.2-8.2-20.5-6.4v43.3
			c0.5-0.3,2.1,0.1,7.7,2.1c11.4,4,19.4-1.3,19.4-1.3S590,258.2,592.1,237z"/>
		<path class="st9" d="M569.4,216.2v11.2V216.2C569.5,216.3,569.5,216.3,569.4,216.2z"/>
		<path class="st9" d="M546.8,237c-0.4-3.9-1.2-6.2-0.1-10c0.5-1.6,1.3-3.2,2.2-4.6c9.5-13.5,18.9-8.2,21.1-6.4l-0.6,43.3
			c-0.5-0.3-2.1,0.1-7.7,2.1c-11.4,4-19.4-1.3-19.4-1.3S548.8,258.2,546.8,237z"/>
		<path class="st9" d="M569.4,216.2v11.2V216.2C569.3,216.3,569.4,216.3,569.4,216.2z"/>
		<path class="st3" d="M604.3,318.5l-5.7-3.6l17.7-7.9l-9.2-16.7c-3.4-7.1-17.4-13.1-25.7-13.1l-11.9,8.6l-11.1-8.9
			c-8.4,0-21.6,6.3-24.9,13.5l-9.2,16.7l17.7,7.9l-5.7,3.6l-3.1,27.2l37.2-0.6l37.2,0.6L604.3,318.5z"/>
		<path class="st5" d="M616.3,307l3.7,12.1c2.7,8.8-0.2,18.3-7.4,24.6l-16.6,13l-5.3-14.5l9.2-8.6c3-2.8,3.9-7.1,2.3-10.7l-3.5-7.9
			L616.3,307z"/>
		<path class="st5" d="M524.3,307l-3.7,12.1c-2.7,8.8,0.2,18.3,7.4,24.6l16.6,13l5.3-14.5l-9.2-8.6c-3-2.8-3.9-7.1-2.3-10.7l3.5-7.9
			L524.3,307z"/>
		<path class="st9" d="M529.2,361h82.4l3.9-48.6c0.1-2.1-1.5-3.9-3.6-3.9h-83.2c-2,0-3.6,1.6-3.6,3.6L529.2,361z"/>
		<path class="st6" d="M575.3,271.9l-5.9,14l-6.6-14l-5.9,4.8l12.4,10.1l11.9-9.8L575.3,271.9z"/>
		<path class="st3" d="M585.3,245.8c2.1-0.9,3.1-3.3,2.2-5.3c-0.9-2.1-3.2-3.1-5.3-2.2c-2.1,0.9-3.1,3.3-2.2,5.3
			C580.9,245.6,583.3,246.6,585.3,245.8z"/>
		<path class="st3" d="M556,245.8c2.1-0.9,3.1-3.3,2.2-5.3c-0.9-2.1-3.2-3.1-5.3-2.2c-2.1,0.9-3.1,3.3-2.2,5.3
			C551.5,245.6,553.9,246.6,556,245.8z"/>
		<path class="st8" d="M569.2,266.8c-4.9,0-8.6-2.8-10.9-6.8c-1.6-2.8-2.4-6-2.4-9.2v-12.2c0-7.4,6-13.4,13.3-13.4
			c7.3,0,13.3,6,13.3,13.4v11.6c0,2.5-0.5,5-1.5,7.3C578.7,263,575.2,266.8,569.2,266.8z"/>
		<path class="st9" d="M569.6,223.6c-4.3-7.6-17.9,1.6-17.9,1.6l4.2,16.7c0,0,10.3-1.7,13.7-9.6c3,7.9,13,9.6,13,9.6l5-16.7
			C587.5,225.2,573.9,216.1,569.6,223.6z"/>
		<path class="st3" d="M552.6,239.5c-0.1-0.4-1.4-10.7,4.2-17.1c2.9-3.3,7-5,12.3-5c5.3,0,9.5,1.7,12.5,5c5.6,6.3,4.4,16.1,4.4,16.5
			l-2.4-0.3c0-0.1,1.2-9.3-3.7-14.8c-2.5-2.8-6.1-4.2-10.8-4.2c-4.6,0-8.2,1.4-10.6,4.2c-4.9,5.7-3.4,15.2-3.4,15.3L552.6,239.5z"/>
		<path class="st3" d="M566.3,260.5c-0.2,0-4.7-0.3-8.4-1.9c-3.4-1.4-5.6-4.8-5.6-8.5v-5.5h2.2v5.5c0,2.8,1.7,5.4,4.2,6.4
			c3.3,1.4,7.3,1.7,7.3,1.7L566.3,260.5z"/>
		<path class="st3" d="M572.9,262.2h-5.4c-0.8,0-1.4-0.6-1.4-1.4v-2.6c0-0.8,0.6-1.4,1.4-1.4h5.4c0.8,0,1.4,0.6,1.4,1.4v2.6
			C574.4,261.5,573.7,262.2,572.9,262.2z"/>
		<path class="st11" d="M569.4,336c1.4,0,2.5-1.1,2.5-2.5c0-1.4-1.1-2.5-2.5-2.5c-1.4,0-2.5,1.1-2.5,2.5
			C567,334.9,568.1,336,569.4,336z"/>
		<path class="st7" d="M649.6,262.8l-2.6,15.9l-10.8-9.5l3.5-17.3L649.6,262.8z"/>
		<path class="st9" d="M651.4,235.6c-7.7,1.1-11.6,11-11.6,11l0.1,29.4l-13.2-11c0,0-1.1-13.9,2.2-28.3c2.9-9.1,14.4-11.5,22.5-7.1
			c3.9,2.1,6.3,6.4,7.7,10.6c1.9,5.6,2,11.7,0.8,17.5l-4.6,21.5l-7.2-7.6c0,0,0-3.5,1.4-8.8C652.5,252,656.6,234.9,651.4,235.6z"/>
		<path class="st5" d="M637.6,247c0.9-0.8,2.5-0.7,3.6,0.4c1.1,1,1.4,2.6,0.5,3.4c-0.9,0.8-2.5,0.7-3.6-0.4
			C636.9,249.3,636.7,247.8,637.6,247z"/>
		<path class="st8" d="M652.8,263c1.5,0,2.9-0.3,3.6-0.9c4.3-6.9-0.6-25.5-0.6-25.5l-6.9-3.2l-8.7,6l-0.5,12.4
			c-0.1,3.3,1.3,6.5,3.9,8.6C646.3,262.2,649.5,263.1,652.8,263z"/>
		<path class="st9" d="M652.9,234.6c1.7,5.6-13.8,12.3-13.8,12.3l-2.9-7.2l6.7-8.3l8.5,1.4C651.4,232.7,652.6,233.6,652.9,234.6z"/>
		<path class="st9" d="M653,235.7c0.3,2.2,3.7,4.8,3.7,4.8l0.3-2.6l-0.8-1.8l-1.7-1C654.5,235.1,652.7,233.6,653,235.7z"/>
		<path class="st5" d="M677.5,350.8c0.1-0.8-0.4-1.5-1.1-1.8l-6.9-2.7c-1.7-0.7-3.6-0.7-5.3,0l-6.9,2.9l-1.5,2.1l0.3,3.8
			c1.3-0.6,2.1-0.9,2.1-0.9l4.4-0.6c0,0,9.5,6.4,12.5-0.9c1.3,7.1,3.3,6.2,3.3,6.2L677.5,350.8z"/>
		<path class="st9" d="M733,355.7h-77.8v3.6H733V355.7z"/>
		<path class="st9" d="M755.7,318.2H695l-19.9,41.2h60.7L755.7,318.2z"/>
		<path class="st10" d="M716.4,335.8c0,1.4,1.1,2.4,2.4,2.4c1.3,0,2.4-1.1,2.4-2.4c0-1.4-1.1-2.4-2.4-2.4
			C717.5,333.4,716.4,334.5,716.4,335.8z"/>
		<path class="st11" d="M624.3,229.2l10.2-11.7c2,0.7,4.4,0,5.9-1.7c1.1-1.3,1.6-2.9,1.4-4.5l-1.7,2c-1,1.1-2.3,1.8-3.4,1.6l-3-2.6
			l0,0c-0.4-1.1,0.1-2.5,1.1-3.7l1.7-2c-1.6,0-3.1,0.7-4.2,2c-1.6,1.8-1.8,4.3-0.8,6.3l-0.1,0.1l-0.1-0.1l-10.1,11.6
			c-2-0.7-4.4,0-5.9,1.7c-1.1,1.3-1.6,2.9-1.4,4.5l1.7-2c1-1.1,2.3-1.8,3.4-1.6l3,2.6l0,0c0.4,1.1-0.1,2.5-1.1,3.7l-1.7,2
			c1.6,0,3.1-0.7,4.2-2C625,233.6,625.3,231.2,624.3,229.2z"/>
		<path class="st3" d="M439.7,221.8c12.8,0,23.2,10.4,23.2,23.3c0,4.8-1.4,7.5-4.2,12.9c-4,7.9,2.6,11.2,2.6,11.2
			s-17.2,0.1-21.7,0.1c-12.8,0-23.2-11.4-23.2-24.3C416.4,232.3,426.8,221.8,439.7,221.8z"/>
		<path class="st9" d="M521.9,164.3c16.2,2.4,27.4,17.5,25.1,33.7c-0.9,6.1-3.2,9.2-7.6,15.6c-6.5,9.2,1.2,14.7,1.2,14.7
			s-21.7-3-27.4-3.9c-16.2-2.4-27.3-18.7-24.9-35C490.6,173.2,505.7,161.9,521.9,164.3z"/>
		<path class="st9" d="M742.3,243.8c7.5-7.5,7.5-19.8,0-27.3s-19.7-7.5-27.2,0s-7.5,19.8,0,27.3S734.8,251.3,742.3,243.8z"/>
		<path class="st11" d="M536.2,197.3c-0.1-0.4-1.5-1.2-3.1-1.7c0.1-1.5,0-2.9-0.4-4.4c1.4-0.6,2.7-1.4,2.9-2.2
			c0.2-1.5-2-4.9-2.6-5.2c-0.4-0.2-1.9,0.2-3.5,1c-0.9-1.1-2-2.1-3.3-2.8c0.5-1.4,0.9-3,0.5-3.6c-0.9-1.2-4.9-2-5.5-1.8
			c-0.4,0.1-1.2,1.4-1.7,3.1c-1.5-0.1-3,0-4.4,0.3c-0.6-1.3-1.4-2.6-2.1-2.7c-1.5-0.2-4.9,2.1-5.2,2.6c-0.2,0.4,0.2,1.7,0.8,3.2
			c-1.2,1-2.2,2.1-3.1,3.5c-1.3-0.4-2.6-0.7-3.1-0.4c-1.2,0.9-2,4.9-1.8,5.5c0.1,0.3,1.2,1,2.6,1.5c-0.2,1.6-0.1,3.3,0.3,4.8
			c-1.1,0.6-2.2,1.3-2.3,1.9c-0.2,1.5,2,4.9,2.6,5.2c0.3,0.2,1.5-0.1,2.8-0.7c1,1.2,2.3,2.3,3.7,3.2c-0.4,1.2-0.7,2.4-0.3,2.9
			c0.9,1.2,4.9,2,5.5,1.8c0.3-0.1,1-1.2,1.5-2.6c1.6,0.1,3.2,0,4.7-0.4c0.6,1.2,1.3,2.3,2,2.4c1.5,0.2,4.9-2.1,5.2-2.6
			c0.2-0.4-0.2-1.7-0.9-3.2c1.1-1,2.1-2.2,2.9-3.5c1.3,0.5,2.8,0.8,3.4,0.4C535.6,202,536.4,197.9,536.2,197.3z M516,201.1
			c-3.5-1.2-5.4-5-4.3-8.5c1.2-3.5,5-5.5,8.5-4.3c3.5,1.2,5.4,5,4.3,8.5S519.6,202.3,516,201.1z"/>
		<path class="st12" d="M451.7,236.7c-2.4,1.6-9.1,2.6-12.4-1.8V260C454.1,249.6,451.7,236.7,451.7,236.7z"/>
		<path class="st11" d="M427.1,236.7c2.4,1.6,9.1,2.6,12.4-1.8V260C424.7,249.6,427.1,236.7,427.1,236.7z"/>
		<path class="st11" d="M726.1,230.9c1.2-1.8,1.8-3.3,1.8-4.6c0-1.3-0.5-2.4-1.4-3.1c-0.9-0.7-2.2-1.1-3.9-1.1c-1,0-1.9,0.3-2.7,0.8
			s-1.4,1.1-1.8,1.9l1.9,1.5c0.7-1.2,1.6-1.8,2.7-1.8c1.4,0,2.2,0.6,2.2,1.8c0,1-0.5,2.3-1.5,3.8l-5.1,7.5v0.8h10.5v-2.5h-6
			L726.1,230.9z"/>
		<path class="st11" d="M739.3,232v-9.7h-1.3l-8.8,10.3v1.6h7.3v4.2h2.7v-4.2h1.6V232H739.3z M736.6,232h-4.1l4.1-4.8V232z"/>
		<path class="st11" d="M455.5,195.6c-2.3,2.4-4,3.7-5.2,3.7c-0.6,0-1.2-0.3-1.6-1c-0.4-0.7-0.7-1.5-0.7-2.4c0-2.1,0.7-5,2.1-8.8
			l3.8-0.8h0.2l-1.5,4.6c-0.6,1.9-0.9,3.3-0.9,4.1c0,0.3,0.1,0.6,0.2,0.8s0.3,0.3,0.5,0.3c0.4,0,0.8-0.1,1.2-0.4
			c0.4-0.3,1-0.9,1.8-1.8L455.5,195.6L455.5,195.6z M455.2,180.5c0,2.4-0.9,3.6-2.6,3.6c-0.9,0-1.6-0.3-2.2-0.8
			c0.6-0.9,1-1.8,1.3-2.9c0.8,0.5,1.4,0.7,1.9,0.7C454.2,181,454.7,180.8,455.2,180.5z"/>
		<path class="st13" d="M683,206.7v-2.5l0.5,2.5H683z"/>
		<path class="st3" d="M654.2,260.3l0-1.5l2.8,0c0.6,0,1.1-0.3,1.4-0.7c0.3-0.4,0.5-1,0.4-1.5l-0.7-1.8l0-4.5l2.2,6
			c0.2,1-0.1,2-0.7,2.7c-0.6,0.8-1.6,1.2-2.5,1.2L654.2,260.3z"/>
		<path d="M654.6,260.8l-1.9,0c-0.7,0-1.3-0.6-1.3-1.3c0-0.7,0.6-1.3,1.3-1.3l1.9,0c0.7,0,1.3,0.6,1.3,1.3
			C655.9,260.2,655.3,260.8,654.6,260.8z"/>
		<path class="st3" d="M650,228.9c-0.8-1.2-4.9-0.9-4.9-0.9c-5.7,0-10.4,5.3-10.4,11.1v9.8h1.7v-9.8c0-4.9,3.9-9.8,8.8-9.8
			L650,228.9z"/>
		<path class="st3" d="M639.3,256.5c2.8-1.7,3.6-5.3,1.9-8.1c-1.7-2.8-5.3-3.6-8.1-1.9c-2.8,1.7-3.6,5.3-1.9,8.1
			C633,257.4,636.6,258.2,639.3,256.5z"/>
		<path class="st3" d="M677,164.4c-8.6,0-15.5,7-15.5,15.5c0,3.2,1,5,2.8,8.6c2.7,5.3-1.7,7.5-1.7,7.5s11.4,0.1,14.4,0.1
			c8.6,0,15.5-7.6,15.5-16.2C692.5,171.4,685.6,164.4,677,164.4z"/>
		<path class="st11" d="M670.8,182.1c1-0.2,1.7-1.3,1.4-2.3c-0.2-1-1.3-1.7-2.3-1.4c-1,0.2-1.7,1.3-1.4,2.3
			C668.8,181.8,669.8,182.4,670.8,182.1z"/>
		<path class="st11" d="M677.3,182.1c1-0.2,1.7-1.3,1.4-2.3c-0.2-1-1.3-1.7-2.3-1.4c-1,0.2-1.7,1.3-1.4,2.3
			C675.3,181.8,676.3,182.4,677.3,182.1z"/>
		<path class="st11" d="M683.7,182.1c1-0.2,1.7-1.3,1.4-2.3c-0.2-1-1.3-1.7-2.3-1.4c-1,0.2-1.7,1.3-1.4,2.3
			C681.6,181.8,682.7,182.4,683.7,182.1z"/>
		<path class="st3" d="M445.3,195.5c8.7,0,15.7-7,15.7-15.7c0-8.7-7-15.7-15.7-15.7s-15.7,7-15.7,15.7
			C429.5,188.5,436.6,195.5,445.3,195.5z"/>
		<path class="st3" d="M445.1,195.5c8.7,0,15.8-7.1,15.8-15.8c0-8.7-7.1-15.8-15.8-15.8c-8.7,0-15.8,7.1-15.8,15.8
			C429.3,188.5,436.4,195.5,445.1,195.5z"/>
		<path class="st11" d="M445.2,173.2c-1,0-1.7-0.3-2.1-1c-0.4-0.6-0.6-1.4-0.6-2.3c0-0.9,0.2-1.6,0.7-2.2c0.5-0.6,1.2-0.9,2.1-0.9
			c1,0,1.7,0.3,2.2,0.8c0.5,0.5,0.8,1.3,0.8,2.3s-0.2,1.8-0.7,2.4C447,172.9,446.3,173.2,445.2,173.2z"/>
		<path class="st11" d="M448.2,174.9h-5.7v14.9h5.7V174.9z"/>
		<path class="st11" d="M449.1,189.8h-9.2c-0.2,0-0.3-0.1-0.3-0.2c0-0.2,0.2-0.3,0.4-0.3h9c0.2,0,0.3,0.1,0.3,0.3v0.1
			C449.4,189.7,449.2,189.8,449.1,189.8z"/>
		<path class="st11" d="M448.2,175.5h-8.8c-0.2,0-0.4-0.1-0.4-0.3c0-0.1,0.1-0.3,0.3-0.3h8.5c0.2,0,0.3,0.1,0.3,0.3V175.5z"/>
	</g>
</g>
<path d="M75.1,44.1c1.9,0,3.5-0.8,4.3-2.3l-1.5-0.9c-0.7,1-1.7,1.5-2.9,1.5c-2.1,0-3.6-1.4-3.6-3.7c0-2.3,1.6-3.7,3.6-3.7
	c1.2,0,2.2,0.5,2.9,1.5l1.5-0.9c-0.8-1.5-2.4-2.3-4.3-2.3c-3.3,0-5.6,2.2-5.6,5.4S71.8,44.1,75.1,44.1z M86.3,44.1
	c3.2,0,5.5-2.3,5.5-5.4s-2.3-5.4-5.5-5.4s-5.5,2.2-5.5,5.4S83.1,44.1,86.3,44.1z M86.3,42.4c-2,0-3.6-1.5-3.6-3.7
	c0-2.3,1.5-3.7,3.6-3.7s3.6,1.5,3.6,3.7C89.8,41,88.3,42.4,86.3,42.4z M107.7,33.3c-1.8,0-3.3,0.8-4.1,2c-0.7-1.3-2.1-2-3.7-2
	c-1.6,0-2.9,0.6-3.7,1.7v-1.6h-1.8V44h1.9v-5.5c0-2.3,1.3-3.5,3.2-3.5c1.7,0,2.7,1,2.7,3.1V44h1.9v-5.5c0-2.3,1.3-3.5,3.2-3.5
	c1.7,0,2.7,1,2.7,3.1V44h1.9v-6.1C112,34.8,110.3,33.3,107.7,33.3z M121.2,33.3c-1.6,0-2.9,0.6-3.8,1.8v-1.7h-1.8v14.5h1.9v-5.5
	c0.9,1.1,2.2,1.7,3.7,1.7c3.1,0,5.4-2.2,5.4-5.4C126.5,35.5,124.3,33.3,121.2,33.3z M121,42.4c-2,0-3.6-1.5-3.6-3.7
	c0-2.2,1.5-3.7,3.6-3.7c2,0,3.6,1.5,3.6,3.7C124.6,41,123,42.4,121,42.4z M129.2,44h1.9V29.2h-1.9V44z M144.3,38.8
	c0-3.3-2.2-5.5-5.2-5.5s-5.3,2.3-5.3,5.4c0,3.2,2.3,5.4,5.7,5.4c1.8,0,3.2-0.6,4.2-1.7l-1.1-1.2c-0.8,0.9-1.8,1.3-3.1,1.3
	c-2.1,0-3.6-1.2-3.8-3.1h8.6C144.3,39.2,144.3,38.9,144.3,38.8z M139.1,34.9c1.9,0,3.2,1.3,3.4,3h-6.8
	C135.9,36.2,137.3,34.9,139.1,34.9z M152.4,42c-0.4,0.3-0.9,0.5-1.5,0.5c-1.1,0-1.7-0.6-1.7-1.8V35h3v-1.6h-3v-2.3h-1.9v2.3h-1.8V35
	h1.8v5.8c0,2.1,1.2,3.3,3.4,3.3c0.9,0,1.7-0.2,2.3-0.7L152.4,42z M164.5,38.8c0-3.3-2.2-5.5-5.2-5.5s-5.3,2.3-5.3,5.4
	c0,3.2,2.3,5.4,5.7,5.4c1.8,0,3.2-0.6,4.2-1.7l-1.1-1.2c-0.8,0.9-1.8,1.3-3.1,1.3c-2.1,0-3.6-1.2-3.8-3.1h8.6
	C164.5,39.2,164.5,38.9,164.5,38.8z M159.3,34.9c1.9,0,3.2,1.3,3.4,3h-6.8C156.1,36.2,157.4,34.9,159.3,34.9z M175.6,44.1
	c2.8,0,4.6-1.2,4.6-3.1c0-4.1-6.7-2.1-6.7-4.6c0-0.8,0.8-1.5,2.5-1.5c1,0,2.1,0.2,3.1,0.8l0.8-1.5c-0.9-0.6-2.5-1-3.9-1
	c-2.7,0-4.4,1.3-4.4,3.2c0,4.2,6.7,2.2,6.7,4.5c0,0.9-0.7,1.4-2.5,1.4c-1.4,0-2.8-0.5-3.7-1.1l-0.8,1.5
	C172.1,43.6,173.8,44.1,175.6,44.1z M190.5,33.4v5.5c0,2.3-1.3,3.5-3.3,3.5c-1.8,0-2.9-1-2.9-3.1v-5.9h-1.9v6.1
	c0,3.1,1.8,4.6,4.6,4.6c1.5,0,2.8-0.6,3.6-1.7V44h1.8V33.4H190.5z M201.7,33.3c-1.6,0-2.9,0.6-3.8,1.8v-1.7h-1.8v14.5h1.9v-5.5
	c0.9,1.1,2.2,1.7,3.7,1.7c3.1,0,5.4-2.2,5.4-5.4C207.1,35.5,204.8,33.3,201.7,33.3z M201.6,42.4c-2,0-3.6-1.5-3.6-3.7
	c0-2.2,1.5-3.7,3.6-3.7c2,0,3.6,1.5,3.6,3.7C205.2,41,203.6,42.4,201.6,42.4z M215.4,33.3c-1.6,0-2.9,0.6-3.8,1.8v-1.7h-1.8v14.5
	h1.9v-5.5c0.9,1.1,2.2,1.7,3.7,1.7c3.1,0,5.4-2.2,5.4-5.4C220.7,35.5,218.5,33.3,215.4,33.3z M215.2,42.4c-2,0-3.6-1.5-3.6-3.7
	c0-2.2,1.5-3.7,3.6-3.7c2,0,3.6,1.5,3.6,3.7C218.8,41,217.2,42.4,215.2,42.4z M227.9,44.1c3.2,0,5.5-2.3,5.5-5.4s-2.3-5.4-5.5-5.4
	c-3.2,0-5.5,2.2-5.5,5.4S224.7,44.1,227.9,44.1z M227.9,42.4c-2,0-3.6-1.5-3.6-3.7c0-2.3,1.5-3.7,3.6-3.7c2,0,3.6,1.5,3.6,3.7
	C231.5,41,230,42.4,227.9,42.4z M237.9,35.2v-1.8h-1.8V44h1.9v-5.3c0-2.3,1.3-3.6,3.3-3.6c0.1,0,0.3,0,0.4,0v-1.9
	C239.9,33.3,238.6,33.9,237.9,35.2z M249.9,42c-0.4,0.3-0.9,0.5-1.5,0.5c-1.1,0-1.7-0.6-1.7-1.8V35h3v-1.6h-3v-2.3h-1.9v2.3h-1.8V35
	h1.8v5.8c0,2.1,1.2,3.3,3.4,3.3c0.9,0,1.7-0.2,2.3-0.7L249.9,42z M262.8,44.1c3.2,0,5.5-2.3,5.5-5.4s-2.3-5.4-5.5-5.4
	s-5.5,2.2-5.5,5.4S259.6,44.1,262.8,44.1z M262.8,42.4c-2,0-3.6-1.5-3.6-3.7c0-2.3,1.5-3.7,3.6-3.7s3.6,1.5,3.6,3.7
	C266.3,41,264.8,42.4,262.8,42.4z M274.8,30.6c0.6,0,1.1,0.2,1.5,0.5l0.6-1.5c-0.5-0.4-1.3-0.6-2.2-0.6c-2.3,0-3.5,1.4-3.5,3.4v0.9
	h-1.8V35h1.8v9h1.9v-9h3v-1.6h-3.1v-0.9C273.1,31.3,273.7,30.6,274.8,30.6z M61.5,72.2c2.2,0,4.1-0.8,5.3-2.2l-1.3-1.3
	c-1.1,1.1-2.4,1.7-3.9,1.7c-3.2,0-5.5-2.3-5.5-5.4s2.3-5.4,5.5-5.4c1.5,0,2.9,0.5,3.9,1.7l1.3-1.3c-1.3-1.4-3.2-2.2-5.3-2.2
	c-4.3,0-7.4,3-7.4,7.2S57.2,72.2,61.5,72.2z M84.6,72l0-14h-1.6l-5.8,9.8L71.3,58h-1.6v14h1.9V61.9l5.1,8.4h0.9l5.1-8.5l0,10.2H84.6
	z M92.8,72.2c3.7,0,5.4-1.8,5.4-4c0-5.1-8.5-3-8.5-6.4c0-1.2,1-2.2,3.4-2.2c1.2,0,2.6,0.4,3.8,1.1l0.7-1.6c-1.2-0.8-2.9-1.2-4.5-1.2
	c-3.7,0-5.4,1.8-5.4,4c0,5.2,8.5,3,8.5,6.5c0,1.2-1,2.2-3.5,2.2c-1.8,0-3.6-0.7-4.6-1.6l-0.7,1.6C88.6,71.4,90.7,72.2,92.8,72.2z
	 M108.1,63.2v-1.8h-1.8V72h1.9v-5.3c0-2.3,1.3-3.6,3.3-3.6c0.1,0,0.3,0,0.4,0v-1.9C110.1,61.3,108.8,61.9,108.1,63.2z M123.8,66.8
	c0-3.3-2.2-5.5-5.2-5.5c-3.1,0-5.3,2.3-5.3,5.4c0,3.2,2.3,5.4,5.7,5.4c1.8,0,3.2-0.6,4.2-1.7l-1.1-1.2c-0.8,0.9-1.8,1.3-3.1,1.3
	c-2.1,0-3.6-1.2-3.8-3.1h8.6C123.8,67.2,123.8,66.9,123.8,66.8z M118.6,62.9c1.9,0,3.2,1.3,3.4,3h-6.8
	C115.4,64.2,116.7,62.9,118.6,62.9z M134.6,61.4v1.7c-0.9-1.2-2.2-1.8-3.8-1.8c-3.1,0-5.4,2.2-5.4,5.4c0,3.3,2.3,5.4,5.4,5.4
	c1.5,0,2.8-0.6,3.7-1.7v5.5h1.9V61.4H134.6z M131,70.4c-2,0-3.6-1.5-3.6-3.7c0-2.2,1.5-3.7,3.6-3.7c2,0,3.6,1.5,3.6,3.7
	C134.6,69,133,70.4,131,70.4z M148.1,61.4v5.5c0,2.3-1.3,3.5-3.3,3.5c-1.8,0-2.9-1-2.9-3.1v-5.9H140v6.1c0,3.1,1.8,4.6,4.6,4.6
	c1.5,0,2.8-0.6,3.6-1.7V72h1.8V61.4H148.1z M154.6,59.4c0.8,0,1.3-0.6,1.3-1.3c0-0.7-0.6-1.2-1.3-1.2c-0.7,0-1.3,0.6-1.3,1.3
	S153.9,59.4,154.6,59.4z M153.7,72h1.9V61.4h-1.9V72z M161.1,63.2v-1.8h-1.8V72h1.9v-5.3c0-2.3,1.3-3.6,3.3-3.6c0.1,0,0.3,0,0.4,0
	v-1.9C163.1,61.3,161.8,61.9,161.1,63.2z M176.8,66.8c0-3.3-2.2-5.5-5.2-5.5s-5.3,2.3-5.3,5.4c0,3.2,2.3,5.4,5.7,5.4
	c1.8,0,3.2-0.6,4.2-1.7l-1.1-1.2c-0.8,0.9-1.8,1.3-3.1,1.3c-2.1,0-3.6-1.2-3.8-3.1h8.6C176.8,67.2,176.8,66.9,176.8,66.8z
	 M171.5,62.9c1.9,0,3.2,1.3,3.4,3h-6.8C168.3,64.2,169.7,62.9,171.5,62.9z M192.7,61.3c-1.8,0-3.3,0.8-4.1,2c-0.7-1.3-2.1-2-3.7-2
	c-1.6,0-2.9,0.6-3.7,1.7v-1.6h-1.8V72h1.9v-5.5c0-2.3,1.3-3.5,3.2-3.5c1.7,0,2.7,1,2.7,3.1V72h1.9v-5.5c0-2.3,1.3-3.5,3.2-3.5
	c1.7,0,2.7,1,2.7,3.1V72h1.9v-6.1C197.1,62.8,195.3,61.3,192.7,61.3z M210.2,66.8c0-3.3-2.2-5.5-5.2-5.5s-5.3,2.3-5.3,5.4
	c0,3.2,2.3,5.4,5.7,5.4c1.8,0,3.2-0.6,4.2-1.7l-1.1-1.2c-0.8,0.9-1.8,1.3-3.1,1.3c-2.1,0-3.6-1.2-3.8-3.1h8.6
	C210.2,67.2,210.2,66.9,210.2,66.8z M205,62.9c1.9,0,3.2,1.3,3.4,3h-6.8C201.8,64.2,203.1,62.9,205,62.9z M218.6,61.3
	c-1.7,0-3,0.6-3.8,1.7v-1.6h-1.8V72h1.9v-5.5c0-2.3,1.3-3.5,3.4-3.5c1.8,0,2.9,1,2.9,3.1V72h1.9v-6.1
	C223,62.8,221.1,61.3,218.6,61.3z M231.9,70c-0.4,0.3-0.9,0.5-1.5,0.5c-1.1,0-1.7-0.6-1.7-1.8V63h3v-1.6h-3v-2.3h-1.9v2.3H225V63
	h1.8v5.8c0,2.1,1.2,3.3,3.4,3.3c0.9,0,1.7-0.2,2.3-0.7L231.9,70z M237.8,72.1c2.8,0,4.6-1.2,4.6-3.1c0-4.1-6.7-2.1-6.7-4.6
	c0-0.8,0.8-1.5,2.5-1.5c1,0,2.1,0.2,3.1,0.8l0.8-1.5c-0.9-0.6-2.5-1-3.9-1c-2.7,0-4.4,1.3-4.4,3.2c0,4.2,6.7,2.2,6.7,4.5
	c0,0.9-0.7,1.4-2.5,1.4c-1.4,0-2.8-0.5-3.7-1.1l-0.8,1.5C234.3,71.6,236.1,72.1,237.8,72.1z M254.1,58.6c0.6,0,1.1,0.2,1.5,0.5
	l0.6-1.5c-0.5-0.4-1.3-0.6-2.2-0.6c-2.3,0-3.5,1.4-3.5,3.4v0.9h-1.8V63h1.8v9h1.9v-9h3v-1.6h-3.1v-0.9
	C252.3,59.3,252.9,58.6,254.1,58.6z M261.6,72.1c3.2,0,5.5-2.3,5.5-5.4c0-3.2-2.3-5.4-5.5-5.4s-5.5,2.2-5.5,5.4
	C256.1,69.9,258.4,72.1,261.6,72.1z M261.6,70.4c-2,0-3.6-1.5-3.6-3.7c0-2.3,1.5-3.7,3.6-3.7s3.6,1.5,3.6,3.7
	C265.2,69,263.7,70.4,261.6,70.4z M271.6,63.2v-1.8h-1.8V72h1.9v-5.3c0-2.3,1.3-3.6,3.3-3.6c0.1,0,0.3,0,0.4,0v-1.9
	C273.6,61.3,272.3,61.9,271.6,63.2z M151.1,100.1c1.9,0,3.5-0.8,4.3-2.3l-1.5-0.9c-0.7,1-1.7,1.5-2.9,1.5c-2.1,0-3.6-1.4-3.6-3.7
	c0-2.3,1.6-3.7,3.6-3.7c1.2,0,2.2,0.5,2.9,1.5l1.5-0.9c-0.8-1.5-2.4-2.3-4.3-2.3c-3.3,0-5.6,2.2-5.6,5.4
	C145.5,97.9,147.9,100.1,151.1,100.1z M161.8,89.3c-1.7,0-3.3,0.5-4.4,1.4l0.8,1.4c0.8-0.7,2.1-1.1,3.4-1.1c1.9,0,2.8,0.9,2.8,2.6
	v0.4h-3c-3.2,0-4.3,1.4-4.3,3.1c0,1.8,1.5,3.1,3.9,3.1c1.7,0,2.8-0.6,3.5-1.5v1.4h1.8v-6.4C166.3,90.7,164.7,89.3,161.8,89.3z
	 M161.4,98.6c-1.5,0-2.3-0.7-2.3-1.7c0-0.9,0.5-1.6,2.4-1.6h3v1.5C163.9,98,162.8,98.6,161.4,98.6z M169.9,100h1.9V85.2h-1.9V100z
	 M175.5,100h1.9V85.2h-1.9V100z M192.1,89.3c-1.6,0-2.9,0.6-3.7,1.6v-5.7h-1.9V100h1.9v-5.5c0-2.3,1.3-3.5,3.4-3.5
	c1.8,0,2.9,1,2.9,3.1v5.9h1.9v-6.1C196.5,90.8,194.7,89.3,192.1,89.3z M203.9,89.3c-1.7,0-3.3,0.5-4.4,1.4l0.8,1.4
	c0.8-0.7,2.1-1.1,3.4-1.1c1.9,0,2.8,0.9,2.8,2.6v0.4h-3c-3.2,0-4.3,1.4-4.3,3.1c0,1.8,1.5,3.1,3.9,3.1c1.7,0,2.8-0.6,3.5-1.5v1.4
	h1.8v-6.4C208.5,90.7,206.8,89.3,203.9,89.3z M203.5,98.6c-1.5,0-2.3-0.7-2.3-1.7c0-0.9,0.5-1.6,2.4-1.6h3v1.5
	C206.1,98,204.9,98.6,203.5,98.6z M217.7,89.3c-1.7,0-3,0.6-3.8,1.7v-1.6H212V100h1.9v-5.5c0-2.3,1.3-3.5,3.4-3.5
	c1.8,0,2.9,1,2.9,3.1v5.9h1.9v-6.1C222.1,90.8,220.3,89.3,217.7,89.3z M233.8,85.2V91c-0.9-1.1-2.2-1.7-3.7-1.7
	c-3.1,0-5.4,2.2-5.4,5.4c0,3.2,2.3,5.4,5.4,5.4c1.6,0,2.9-0.6,3.8-1.8v1.7h1.8V85.2H233.8z M230.2,98.4c-2,0-3.6-1.5-3.6-3.7
	c0-2.3,1.5-3.7,3.6-3.7c2,0,3.6,1.5,3.6,3.7C233.8,97,232.2,98.4,230.2,98.4z M239.3,100h1.9V85.2h-1.9V100z M245.9,87.4
	c0.8,0,1.3-0.6,1.3-1.3c0-0.7-0.6-1.2-1.3-1.2c-0.7,0-1.3,0.6-1.3,1.3C244.6,86.8,245.1,87.4,245.9,87.4z M244.9,100h1.9V89.4h-1.9
	V100z M256.1,89.3c-1.7,0-3,0.6-3.8,1.7v-1.6h-1.8V100h1.9v-5.5c0-2.3,1.3-3.5,3.4-3.5c1.8,0,2.9,1,2.9,3.1v5.9h1.9v-6.1
	C260.5,90.8,258.7,89.3,256.1,89.3z M272.5,89.4V91c-0.9-1.2-2.3-1.7-3.9-1.7c-3.1,0-5.4,2.1-5.4,5.1c0,3.1,2.3,5.1,5.4,5.1
	c1.5,0,2.9-0.5,3.8-1.6v0.8c0,2.4-1.1,3.6-3.6,3.6c-1.6,0-3.1-0.5-4.1-1.4l-0.9,1.5c1.2,1,3.1,1.6,5.1,1.6c3.6,0,5.5-1.7,5.5-5.4
	v-9.2H272.5z M268.8,97.9c-2.1,0-3.7-1.4-3.7-3.5c0-2.1,1.5-3.4,3.7-3.4c2.1,0,3.6,1.4,3.6,3.4C272.4,96.5,270.9,97.9,268.8,97.9z"
	/>
<path d="M99.6,279.3c-1.5,0-2.8,0.6-3.7,1.7v-5.8H94V290h1.8v-1.7c0.9,1.2,2.2,1.8,3.8,1.8c3.1,0,5.4-2.2,5.4-5.4
	C104.9,281.5,102.7,279.3,99.6,279.3z M99.4,288.4c-2,0-3.6-1.5-3.6-3.7c0-2.3,1.5-3.7,3.6-3.7c2,0,3.6,1.5,3.6,3.7
	C103,287,101.5,288.4,99.4,288.4z M107.6,290h1.9v-14.8h-1.9V290z M117.7,290.1c3.2,0,5.5-2.3,5.5-5.4c0-3.2-2.3-5.4-5.5-5.4
	c-3.2,0-5.5,2.2-5.5,5.4C112.2,287.9,114.5,290.1,117.7,290.1z M117.7,288.4c-2,0-3.6-1.5-3.6-3.7c0-2.3,1.5-3.7,3.6-3.7
	c2,0,3.6,1.5,3.6,3.7C121.3,287,119.8,288.4,117.7,288.4z M130.5,290.1c1.9,0,3.5-0.8,4.3-2.3l-1.5-0.9c-0.7,1-1.7,1.5-2.9,1.5
	c-2.1,0-3.6-1.4-3.6-3.7c0-2.3,1.6-3.7,3.6-3.7c1.2,0,2.2,0.5,2.9,1.5l1.5-0.9c-0.8-1.5-2.4-2.3-4.3-2.3c-3.3,0-5.6,2.2-5.6,5.4
	C124.9,287.9,127.2,290.1,130.5,290.1z M145.3,290h2.4l-4.9-6.2l4.5-4.4h-2.3l-5.8,5.3v-9.5h-1.9V290h1.9v-2.9l2.2-2L145.3,290z
	 M153.2,279.3c-1.7,0-3.3,0.5-4.4,1.4l0.8,1.4c0.8-0.7,2.1-1.1,3.4-1.1c1.9,0,2.8,0.9,2.8,2.6v0.4h-3c-3.2,0-4.3,1.4-4.3,3.1
	c0,1.8,1.5,3.1,3.9,3.1c1.7,0,2.8-0.6,3.5-1.5v1.4h1.8v-6.4C157.7,280.7,156.1,279.3,153.2,279.3z M152.7,288.6
	c-1.5,0-2.3-0.7-2.3-1.7c0-0.9,0.5-1.6,2.4-1.6h3v1.5C155.3,288,154.2,288.6,152.7,288.6z M169.6,279.4v1.6
	c-0.9-1.2-2.3-1.7-3.9-1.7c-3.1,0-5.4,2.1-5.4,5.1c0,3.1,2.3,5.1,5.4,5.1c1.5,0,2.9-0.5,3.8-1.6v0.8c0,2.4-1.1,3.6-3.6,3.6
	c-1.6,0-3.1-0.5-4.1-1.4l-0.9,1.5c1.2,1,3.1,1.6,5.1,1.6c3.6,0,5.5-1.7,5.5-5.4v-9.2H169.6z M165.9,287.9c-2.1,0-3.7-1.4-3.7-3.5
	c0-2.1,1.5-3.4,3.7-3.4c2.1,0,3.6,1.4,3.6,3.4C169.6,286.5,168.1,287.9,165.9,287.9z M184.7,284.8c0-3.3-2.2-5.5-5.2-5.5
	s-5.3,2.3-5.3,5.4c0,3.2,2.3,5.4,5.7,5.4c1.8,0,3.2-0.6,4.2-1.7l-1.1-1.2c-0.8,0.9-1.8,1.3-3.1,1.3c-2.1,0-3.6-1.2-3.8-3.1h8.6
	C184.7,285.2,184.7,284.9,184.7,284.8z M179.5,280.9c1.9,0,3.2,1.3,3.4,3h-6.8C176.3,282.2,177.6,280.9,179.5,280.9z"/>
<path d="M56.2,475c-0.4,0.3-0.9,0.5-1.5,0.5c-1.1,0-1.7-0.6-1.7-1.8V468h3v-1.6h-3v-2.3h-1.9v2.3h-1.8v1.6h1.8v5.8
	c0,2.1,1.2,3.3,3.4,3.3c0.9,0,1.7-0.2,2.3-0.7L56.2,475z M60,464.4c0.8,0,1.3-0.6,1.3-1.3c0-0.7-0.6-1.2-1.3-1.2
	c-0.7,0-1.3,0.6-1.3,1.3C58.7,463.8,59.3,464.4,60,464.4z M59.1,477H61v-10.6h-1.9V477z M77.9,466.3c-1.8,0-3.3,0.8-4.1,2
	c-0.7-1.3-2.1-2-3.7-2c-1.6,0-2.9,0.6-3.7,1.7v-1.6h-1.8V477h1.9v-5.5c0-2.3,1.3-3.5,3.2-3.5c1.7,0,2.7,1,2.7,3.1v5.9h1.9v-5.5
	c0-2.3,1.3-3.5,3.2-3.5c1.7,0,2.7,1,2.7,3.1v5.9h1.9v-6.1C82.3,467.8,80.5,466.3,77.9,466.3z M95.4,471.8c0-3.3-2.2-5.5-5.2-5.5
	s-5.3,2.3-5.3,5.4c0,3.2,2.3,5.4,5.7,5.4c1.8,0,3.2-0.6,4.2-1.7l-1.1-1.2c-0.8,0.9-1.8,1.3-3.1,1.3c-2.1,0-3.6-1.2-3.8-3.1h8.6
	C95.4,472.2,95.4,471.9,95.4,471.8z M90.2,467.9c1.9,0,3.2,1.3,3.4,3h-6.8C87,469.2,88.4,467.9,90.2,467.9z M117.8,466.4l-3.2,8.5
	l-3.1-8.5h-1.6l-3.2,8.4l-3.1-8.4h-1.8l3.9,10.6h1.8l3.1-8l3.1,8h1.8l4-10.6H117.8z M122.4,464.4c0.8,0,1.3-0.6,1.3-1.3
	c0-0.7-0.6-1.2-1.3-1.2s-1.3,0.6-1.3,1.3C121.1,463.8,121.7,464.4,122.4,464.4z M121.5,477h1.9v-10.6h-1.9V477z M132.4,475
	c-0.4,0.3-0.9,0.5-1.5,0.5c-1.1,0-1.7-0.6-1.7-1.8V468h3v-1.6h-3v-2.3h-1.9v2.3h-1.8v1.6h1.8v5.8c0,2.1,1.2,3.3,3.4,3.3
	c0.9,0,1.7-0.2,2.3-0.7L132.4,475z M141,466.3c-1.6,0-2.9,0.6-3.7,1.6v-5.7h-1.9V477h1.9v-5.5c0-2.3,1.3-3.5,3.4-3.5
	c1.8,0,2.9,1,2.9,3.1v5.9h1.9v-6.1C145.4,467.8,143.6,466.3,141,466.3z M149.9,464.4c0.8,0,1.3-0.6,1.3-1.3c0-0.7-0.6-1.2-1.3-1.2
	c-0.7,0-1.3,0.6-1.3,1.3C148.6,463.8,149.2,464.4,149.9,464.4z M148.9,477h1.9v-10.6h-1.9V477z M160.2,466.3c-1.7,0-3,0.6-3.8,1.7
	v-1.6h-1.8V477h1.9v-5.5c0-2.3,1.3-3.5,3.4-3.5c1.8,0,2.9,1,2.9,3.1v5.9h1.9v-6.1C164.6,467.8,162.8,466.3,160.2,466.3z
	 M175.4,468.2v-1.8h-1.8V477h1.9v-5.3c0-2.3,1.3-3.6,3.3-3.6c0.1,0,0.3,0,0.4,0v-1.9C177.4,466.3,176,466.9,175.4,468.2z
	 M191.1,471.8c0-3.3-2.2-5.5-5.2-5.5s-5.3,2.3-5.3,5.4c0,3.2,2.3,5.4,5.7,5.4c1.8,0,3.2-0.6,4.2-1.7l-1.1-1.2
	c-0.8,0.9-1.8,1.3-3.1,1.3c-2.1,0-3.6-1.2-3.8-3.1h8.6C191,472.2,191.1,471.9,191.1,471.8z M185.8,467.9c1.9,0,3.2,1.3,3.4,3h-6.8
	C182.6,469.2,184,467.9,185.8,467.9z M201.9,466.4v1.7c-0.9-1.2-2.2-1.8-3.8-1.8c-3.1,0-5.4,2.2-5.4,5.4c0,3.3,2.3,5.4,5.4,5.4
	c1.5,0,2.8-0.6,3.7-1.7v5.5h1.9v-14.5H201.9z M198.3,475.4c-2,0-3.6-1.5-3.6-3.7c0-2.2,1.5-3.7,3.6-3.7c2,0,3.6,1.5,3.6,3.7
	C201.8,474,200.3,475.4,198.3,475.4z M215.3,466.4v5.5c0,2.3-1.3,3.5-3.3,3.5c-1.8,0-2.9-1-2.9-3.1v-5.9h-1.9v6.1
	c0,3.1,1.8,4.6,4.6,4.6c1.5,0,2.8-0.6,3.6-1.7v1.6h1.8v-10.6H215.3z M230.5,471.8c0-3.3-2.2-5.5-5.2-5.5s-5.3,2.3-5.3,5.4
	c0,3.2,2.3,5.4,5.7,5.4c1.8,0,3.2-0.6,4.2-1.7l-1.1-1.2c-0.8,0.9-1.8,1.3-3.1,1.3c-2.1,0-3.6-1.2-3.8-3.1h8.6
	C230.5,472.2,230.5,471.9,230.5,471.8z M225.2,467.9c1.9,0,3.2,1.3,3.4,3h-6.8C222,469.2,223.4,467.9,225.2,467.9z M236.2,477.1
	c2.8,0,4.6-1.2,4.6-3.1c0-4.1-6.7-2.1-6.7-4.6c0-0.8,0.8-1.5,2.5-1.5c1,0,2.1,0.2,3.1,0.8l0.8-1.5c-0.9-0.6-2.5-1-3.9-1
	c-2.7,0-4.4,1.3-4.4,3.2c0,4.2,6.7,2.2,6.7,4.5c0,0.9-0.7,1.4-2.5,1.4c-1.4,0-2.8-0.5-3.7-1.1l-0.8,1.5
	C232.7,476.6,234.4,477.1,236.2,477.1z M248.5,475c-0.4,0.3-0.9,0.5-1.5,0.5c-1.1,0-1.7-0.6-1.7-1.8V468h3v-1.6h-3v-2.3h-1.9v2.3
	h-1.8v1.6h1.8v5.8c0,2.1,1.2,3.3,3.4,3.3c0.9,0,1.7-0.2,2.3-0.7L248.5,475z M260.7,471.8c0-3.3-2.2-5.5-5.2-5.5
	c-3.1,0-5.3,2.3-5.3,5.4c0,3.2,2.3,5.4,5.7,5.4c1.8,0,3.2-0.6,4.2-1.7l-1.1-1.2c-0.8,0.9-1.8,1.3-3.1,1.3c-2.1,0-3.6-1.2-3.8-3.1
	h8.6C260.6,472.2,260.7,471.9,260.7,471.8z M255.4,467.9c1.9,0,3.2,1.3,3.4,3H252C252.2,469.2,253.6,467.9,255.4,467.9z
	 M271.4,462.2v5.8c-0.9-1.1-2.2-1.7-3.7-1.7c-3.1,0-5.4,2.2-5.4,5.4c0,3.2,2.3,5.4,5.4,5.4c1.6,0,2.9-0.6,3.8-1.8v1.7h1.8v-14.8
	H271.4z M267.9,475.4c-2,0-3.6-1.5-3.6-3.7c0-2.3,1.5-3.7,3.6-3.7c2,0,3.6,1.5,3.6,3.7C271.4,474,269.9,475.4,267.9,475.4z
	 M34.9,505.1c1.9,0,3.5-0.8,4.3-2.3l-1.5-0.9c-0.7,1-1.7,1.5-2.9,1.5c-2.1,0-3.6-1.4-3.6-3.7c0-2.3,1.6-3.7,3.6-3.7
	c1.2,0,2.2,0.5,2.9,1.5l1.5-0.9c-0.8-1.5-2.4-2.3-4.3-2.3c-3.3,0-5.6,2.2-5.6,5.4C29.3,502.9,31.6,505.1,34.9,505.1z M45.6,494.3
	c-1.7,0-3.3,0.5-4.4,1.4l0.8,1.4c0.8-0.7,2.1-1.1,3.4-1.1c1.9,0,2.8,0.9,2.8,2.6v0.4h-3c-3.2,0-4.3,1.4-4.3,3.1
	c0,1.8,1.5,3.1,3.9,3.1c1.7,0,2.8-0.6,3.5-1.5v1.4h1.8v-6.4C50.1,495.7,48.5,494.3,45.6,494.3z M45.1,503.6c-1.5,0-2.3-0.7-2.3-1.7
	c0-0.9,0.5-1.6,2.4-1.6h3v1.5C47.7,503,46.6,503.6,45.1,503.6z M53.7,505h1.9v-14.8h-1.9V505z M59.3,505h1.9v-14.8h-1.9V505z
	 M70.5,494.3c-1.5,0-2.8,0.6-3.7,1.7v-5.8h-1.9V505h1.8v-1.7c0.9,1.2,2.2,1.8,3.8,1.8c3.1,0,5.4-2.2,5.4-5.4
	C75.8,496.5,73.6,494.3,70.5,494.3z M70.3,503.4c-2,0-3.6-1.5-3.6-3.7c0-2.3,1.5-3.7,3.6-3.7c2,0,3.6,1.5,3.6,3.7
	C73.9,502,72.3,503.4,70.3,503.4z M82.2,494.3c-1.7,0-3.3,0.5-4.4,1.4l0.8,1.4c0.8-0.7,2.1-1.1,3.4-1.1c1.9,0,2.8,0.9,2.8,2.6v0.4
	h-3c-3.2,0-4.3,1.4-4.3,3.1c0,1.8,1.5,3.1,3.9,3.1c1.7,0,2.8-0.6,3.5-1.5v1.4h1.8v-6.4C86.8,495.7,85.1,494.3,82.2,494.3z
	 M81.8,503.6c-1.5,0-2.3-0.7-2.3-1.7c0-0.9,0.5-1.6,2.4-1.6h3v1.5C84.4,503,83.2,503.6,81.8,503.6z M95,505.1c1.9,0,3.5-0.8,4.3-2.3
	l-1.5-0.9c-0.7,1-1.7,1.5-2.9,1.5c-2.1,0-3.6-1.4-3.6-3.7c0-2.3,1.6-3.7,3.6-3.7c1.2,0,2.2,0.5,2.9,1.5l1.5-0.9
	c-0.8-1.5-2.4-2.3-4.3-2.3c-3.3,0-5.6,2.2-5.6,5.4C89.4,502.9,91.7,505.1,95,505.1z M109.8,505h2.4l-4.9-6.2l4.5-4.4h-2.3l-5.8,5.3
	v-9.5h-1.9V505h1.9v-2.9l2.2-2L109.8,505z M116.7,505.1c2.8,0,4.6-1.2,4.6-3.1c0-4.1-6.7-2.1-6.7-4.6c0-0.8,0.8-1.5,2.5-1.5
	c1,0,2.1,0.2,3.1,0.8l0.8-1.5c-0.9-0.6-2.5-1-3.9-1c-2.7,0-4.4,1.3-4.4,3.2c0,4.2,6.7,2.2,6.7,4.5c0,0.9-0.7,1.4-2.5,1.4
	c-1.4,0-2.8-0.5-3.7-1.1l-0.8,1.5C113.2,504.6,114.9,505.1,116.7,505.1z M132.9,494.3c-1.7,0-3.3,0.5-4.4,1.4l0.8,1.4
	c0.8-0.7,2.1-1.1,3.4-1.1c1.9,0,2.8,0.9,2.8,2.6v0.4h-3c-3.2,0-4.3,1.4-4.3,3.1c0,1.8,1.5,3.1,3.9,3.1c1.7,0,2.8-0.6,3.5-1.5v1.4
	h1.8v-6.4C137.5,495.7,135.8,494.3,132.9,494.3z M132.5,503.6c-1.5,0-2.3-0.7-2.3-1.7c0-0.9,0.5-1.6,2.4-1.6h3v1.5
	C135.1,503,133.9,503.6,132.5,503.6z M142.9,496.2v-1.8H141V505h1.9v-5.3c0-2.3,1.3-3.6,3.3-3.6c0.1,0,0.3,0,0.4,0v-1.9
	C144.9,494.3,143.5,494.9,142.9,496.2z M158.6,499.8c0-3.3-2.2-5.5-5.2-5.5s-5.3,2.3-5.3,5.4c0,3.2,2.3,5.4,5.7,5.4
	c1.8,0,3.2-0.6,4.2-1.7l-1.1-1.2c-0.8,0.9-1.8,1.3-3.1,1.3c-2.1,0-3.6-1.2-3.8-3.1h8.6C158.5,500.2,158.6,499.9,158.6,499.8z
	 M153.3,495.9c1.9,0,3.2,1.3,3.4,3h-6.8C150.1,497.2,151.5,495.9,153.3,495.9z M171.2,505.1c1.9,0,3.5-0.8,4.3-2.3l-1.5-0.9
	c-0.7,1-1.7,1.5-2.9,1.5c-2.1,0-3.6-1.4-3.6-3.7c0-2.3,1.6-3.7,3.6-3.7c1.2,0,2.2,0.5,2.9,1.5l1.5-0.9c-0.8-1.5-2.4-2.3-4.3-2.3
	c-3.3,0-5.6,2.2-5.6,5.4C165.6,502.9,168,505.1,171.2,505.1z M182.4,505.1c3.2,0,5.5-2.3,5.5-5.4c0-3.2-2.3-5.4-5.5-5.4
	c-3.2,0-5.5,2.2-5.5,5.4C176.9,502.9,179.2,505.1,182.4,505.1z M182.4,503.4c-2,0-3.6-1.5-3.6-3.7c0-2.3,1.5-3.7,3.6-3.7
	c2,0,3.6,1.5,3.6,3.7C186,502,184.4,503.4,182.4,503.4z M203.8,494.3c-1.8,0-3.3,0.8-4.1,2c-0.7-1.3-2.1-2-3.7-2
	c-1.6,0-2.9,0.6-3.7,1.7v-1.6h-1.8V505h1.9v-5.5c0-2.3,1.3-3.5,3.2-3.5c1.7,0,2.7,1,2.7,3.1v5.9h1.9v-5.5c0-2.3,1.3-3.5,3.2-3.5
	c1.7,0,2.7,1,2.7,3.1v5.9h1.9v-6.1C208.2,495.8,206.4,494.3,203.8,494.3z M217.3,494.3c-1.6,0-2.9,0.6-3.8,1.8v-1.7h-1.8v14.5h1.9
	v-5.5c0.9,1.1,2.2,1.7,3.7,1.7c3.1,0,5.4-2.2,5.4-5.4C222.7,496.5,220.4,494.3,217.3,494.3z M217.2,503.4c-2,0-3.6-1.5-3.6-3.7
	c0-2.2,1.5-3.7,3.6-3.7c2,0,3.6,1.5,3.6,3.7C220.7,502,219.2,503.4,217.2,503.4z M225.3,505h1.9v-14.8h-1.9V505z M240.5,499.8
	c0-3.3-2.2-5.5-5.2-5.5s-5.3,2.3-5.3,5.4c0,3.2,2.3,5.4,5.7,5.4c1.8,0,3.2-0.6,4.2-1.7l-1.1-1.2c-0.8,0.9-1.8,1.3-3.1,1.3
	c-2.1,0-3.6-1.2-3.8-3.1h8.6C240.5,500.2,240.5,499.9,240.5,499.8z M235.3,495.9c1.9,0,3.2,1.3,3.4,3h-6.8
	C232.1,497.2,233.4,495.9,235.3,495.9z M248.5,503c-0.4,0.3-0.9,0.5-1.5,0.5c-1.1,0-1.7-0.6-1.7-1.8V496h3v-1.6h-3v-2.3h-1.9v2.3
	h-1.8v1.6h1.8v5.8c0,2.1,1.2,3.3,3.4,3.3c0.9,0,1.7-0.2,2.3-0.7L248.5,503z M260.7,499.8c0-3.3-2.2-5.5-5.2-5.5
	c-3.1,0-5.3,2.3-5.3,5.4c0,3.2,2.3,5.4,5.7,5.4c1.8,0,3.2-0.6,4.2-1.7l-1.1-1.2c-0.8,0.9-1.8,1.3-3.1,1.3c-2.1,0-3.6-1.2-3.8-3.1
	h8.6C260.6,500.2,260.7,499.9,260.7,499.8z M255.4,495.9c1.9,0,3.2,1.3,3.4,3H252C252.2,497.2,253.6,495.9,255.4,495.9z
	 M271.4,490.2v5.8c-0.9-1.1-2.2-1.7-3.7-1.7c-3.1,0-5.4,2.2-5.4,5.4c0,3.2,2.3,5.4,5.4,5.4c1.6,0,2.9-0.6,3.8-1.8v1.7h1.8v-14.8
	H271.4z M267.9,503.4c-2,0-3.6-1.5-3.6-3.7c0-2.3,1.5-3.7,3.6-3.7c2,0,3.6,1.5,3.6,3.7C271.4,502,269.9,503.4,267.9,503.4z
	 M56.6,533.1c3.2,0,5.5-2.3,5.5-5.4c0-3.2-2.3-5.4-5.5-5.4s-5.5,2.2-5.5,5.4C51.1,530.9,53.4,533.1,56.6,533.1z M56.6,531.4
	c-2,0-3.6-1.5-3.6-3.7s1.5-3.7,3.6-3.7s3.6,1.5,3.6,3.7S58.7,531.4,56.6,531.4z M68.7,519.6c0.6,0,1.1,0.2,1.5,0.5l0.6-1.5
	c-0.5-0.4-1.3-0.6-2.2-0.6c-2.3,0-3.5,1.4-3.5,3.4v0.9h-1.8v1.6h1.8v9H67v-9h3v-1.6h-3.1v-0.9C66.9,520.3,67.5,519.6,68.7,519.6z
	 M82.6,531c-0.4,0.3-0.9,0.5-1.5,0.5c-1.1,0-1.7-0.6-1.7-1.8V524h3v-1.6h-3v-2.3h-1.9v2.3h-1.8v1.6h1.8v5.8c0,2.1,1.2,3.3,3.4,3.3
	c0.9,0,1.7-0.2,2.3-0.7L82.6,531z M91.1,522.3c-1.6,0-2.9,0.6-3.7,1.6v-5.7h-1.9V533h1.9v-5.5c0-2.3,1.3-3.5,3.4-3.5
	c1.8,0,2.9,1,2.9,3.1v5.9h1.9v-6.1C95.5,523.8,93.7,522.3,91.1,522.3z M108.7,527.8c0-3.3-2.2-5.5-5.2-5.5c-3.1,0-5.3,2.3-5.3,5.4
	c0,3.2,2.3,5.4,5.7,5.4c1.8,0,3.2-0.6,4.2-1.7l-1.1-1.2c-0.8,0.9-1.8,1.3-3.1,1.3c-2.1,0-3.6-1.2-3.8-3.1h8.6
	C108.7,528.2,108.7,527.9,108.7,527.8z M103.5,523.9c1.9,0,3.2,1.3,3.4,3h-6.8C100.3,525.2,101.7,523.9,103.5,523.9z M121.3,533.1
	c3.2,0,5.5-2.3,5.5-5.4c0-3.2-2.3-5.4-5.5-5.4s-5.5,2.2-5.5,5.4C115.8,530.9,118.1,533.1,121.3,533.1z M121.3,531.4
	c-2,0-3.6-1.5-3.6-3.7s1.5-3.7,3.6-3.7c2,0,3.6,1.5,3.6,3.7S123.4,531.4,121.3,531.4z M131.3,524.2v-1.8h-1.8V533h1.9v-5.3
	c0-2.3,1.3-3.6,3.3-3.6c0.1,0,0.3,0,0.4,0v-1.9C133.3,522.3,132,522.9,131.3,524.2z M138.5,520.4c0.8,0,1.3-0.6,1.3-1.3
	c0-0.7-0.6-1.2-1.3-1.2c-0.7,0-1.3,0.6-1.3,1.3S137.8,520.4,138.5,520.4z M137.5,533h1.9v-10.6h-1.9V533z M151.4,522.4v1.6
	c-0.9-1.2-2.3-1.7-3.9-1.7c-3.1,0-5.4,2.1-5.4,5.1s2.3,5.1,5.4,5.1c1.5,0,2.9-0.5,3.8-1.6v0.8c0,2.4-1.1,3.6-3.6,3.6
	c-1.6,0-3.1-0.5-4.1-1.4l-0.9,1.5c1.2,1,3.1,1.6,5.1,1.6c3.6,0,5.5-1.7,5.5-5.4v-9.2H151.4z M147.7,530.9c-2.1,0-3.7-1.4-3.7-3.5
	c0-2.1,1.5-3.4,3.7-3.4c2.1,0,3.6,1.4,3.6,3.4C151.4,529.5,149.9,530.9,147.7,530.9z M157.9,520.4c0.8,0,1.3-0.6,1.3-1.3
	c0-0.7-0.6-1.2-1.3-1.2c-0.7,0-1.3,0.6-1.3,1.3S157.1,520.4,157.9,520.4z M156.9,533h1.9v-10.6h-1.9V533z M168.2,522.3
	c-1.7,0-3,0.6-3.8,1.7v-1.6h-1.8V533h1.9v-5.5c0-2.3,1.3-3.5,3.4-3.5c1.8,0,2.9,1,2.9,3.1v5.9h1.9v-6.1
	C172.6,523.8,170.8,522.3,168.2,522.3z M180,522.3c-1.7,0-3.3,0.5-4.4,1.4l0.8,1.4c0.8-0.7,2.1-1.1,3.4-1.1c1.9,0,2.8,0.9,2.8,2.6
	v0.4h-3c-3.2,0-4.3,1.4-4.3,3.1c0,1.8,1.5,3.1,3.9,3.1c1.7,0,2.8-0.6,3.5-1.5v1.4h1.8v-6.4C184.5,523.7,182.9,522.3,180,522.3z
	 M179.5,531.6c-1.5,0-2.3-0.7-2.3-1.7c0-0.9,0.5-1.6,2.4-1.6h3v1.5C182.1,531,181,531.6,179.5,531.6z M188.1,533h1.9v-14.8h-1.9V533
	z M200.9,524.2v-1.8H199V533h1.9v-5.3c0-2.3,1.3-3.6,3.3-3.6c0.1,0,0.3,0,0.4,0v-1.9C202.9,522.3,201.6,522.9,200.9,524.2z
	 M216.6,527.8c0-3.3-2.2-5.5-5.2-5.5s-5.3,2.3-5.3,5.4c0,3.2,2.3,5.4,5.7,5.4c1.8,0,3.2-0.6,4.2-1.7l-1.1-1.2
	c-0.8,0.9-1.8,1.3-3.1,1.3c-2.1,0-3.6-1.2-3.8-3.1h8.6C216.6,528.2,216.6,527.9,216.6,527.8z M211.3,523.9c1.9,0,3.2,1.3,3.4,3h-6.8
	C208.1,525.2,209.5,523.9,211.3,523.9z M227.4,522.4v1.7c-0.9-1.2-2.2-1.8-3.8-1.8c-3.1,0-5.4,2.2-5.4,5.4c0,3.3,2.3,5.4,5.4,5.4
	c1.5,0,2.8-0.6,3.7-1.7v5.5h1.9v-14.5H227.4z M223.8,531.4c-2,0-3.6-1.5-3.6-3.7c0-2.2,1.5-3.7,3.6-3.7c2,0,3.6,1.5,3.6,3.7
	C227.4,530,225.8,531.4,223.8,531.4z M240.8,522.4v5.5c0,2.3-1.3,3.5-3.3,3.5c-1.8,0-2.9-1-2.9-3.1v-5.9h-1.9v6.1
	c0,3.1,1.8,4.6,4.6,4.6c1.5,0,2.8-0.6,3.6-1.7v1.6h1.8v-10.6H240.8z M256,527.8c0-3.3-2.2-5.5-5.2-5.5c-3.1,0-5.3,2.3-5.3,5.4
	c0,3.2,2.3,5.4,5.7,5.4c1.8,0,3.2-0.6,4.2-1.7l-1.1-1.2c-0.8,0.9-1.8,1.3-3.1,1.3c-2.1,0-3.6-1.2-3.8-3.1h8.6
	C256,528.2,256,527.9,256,527.8z M250.8,523.9c1.9,0,3.2,1.3,3.4,3h-6.8C247.6,525.2,248.9,523.9,250.8,523.9z M261.7,533.1
	c2.8,0,4.6-1.2,4.6-3.1c0-4.1-6.7-2.1-6.7-4.6c0-0.8,0.8-1.5,2.5-1.5c1,0,2.1,0.2,3.1,0.8l0.8-1.5c-0.9-0.6-2.5-1-3.9-1
	c-2.7,0-4.4,1.3-4.4,3.2c0,4.2,6.7,2.2,6.7,4.5c0,0.9-0.7,1.4-2.5,1.4c-1.4,0-2.8-0.5-3.7-1.1l-0.8,1.5
	C258.2,532.6,259.9,533.1,261.7,533.1z M274,531c-0.4,0.3-0.9,0.5-1.5,0.5c-1.1,0-1.7-0.6-1.7-1.8V524h3v-1.6h-3v-2.3H269v2.3h-1.8
	v1.6h1.8v5.8c0,2.1,1.2,3.3,3.4,3.3c0.9,0,1.7-0.2,2.3-0.7L274,531z"/>
<path d="M433,693.1c3.2,0,5.5-2.3,5.5-5.4c0-3.2-2.3-5.4-5.5-5.4c-3.2,0-5.5,2.2-5.5,5.4C427.5,690.9,429.8,693.1,433,693.1z
	 M433,691.4c-2,0-3.6-1.5-3.6-3.7s1.5-3.7,3.6-3.7c2,0,3.6,1.5,3.6,3.7S435,691.4,433,691.4z M445,679.6c0.6,0,1.1,0.2,1.5,0.5
	l0.6-1.5c-0.5-0.4-1.3-0.6-2.2-0.6c-2.3,0-3.5,1.4-3.5,3.4v0.9h-1.8v1.6h1.8v9h1.9v-9h3v-1.6h-3.1v-0.9
	C443.3,680.3,443.9,679.6,445,679.6z M457.4,682.3c-1.7,0-3.3,0.5-4.4,1.4l0.8,1.4c0.8-0.7,2.1-1.1,3.4-1.1c1.9,0,2.8,0.9,2.8,2.6
	v0.4h-3c-3.2,0-4.3,1.4-4.3,3.1c0,1.8,1.5,3.1,3.9,3.1c1.7,0,2.8-0.6,3.5-1.5v1.4h1.8v-6.4C462,683.7,460.3,682.3,457.4,682.3z
	 M457,691.6c-1.5,0-2.3-0.7-2.3-1.7c0-0.9,0.5-1.6,2.4-1.6h3v1.5C459.6,691,458.4,691.6,457,691.6z M465.5,693h1.9v-14.8h-1.9V693z
	 M471.1,693h1.9v-14.8h-1.9V693z M483,680.4c0.8,0,1.3-0.6,1.3-1.3c0-0.7-0.6-1.2-1.3-1.2s-1.3,0.6-1.3,1.3S482.3,680.4,483,680.4z
	 M482.1,693h1.9v-10.6h-1.9V693z M493.3,682.3c-1.7,0-3,0.6-3.8,1.7v-1.6h-1.8V693h1.9v-5.5c0-2.3,1.3-3.5,3.4-3.5
	c1.8,0,2.9,1,2.9,3.1v5.9h1.9v-6.1C497.7,683.8,495.9,682.3,493.3,682.3z M506,693.1c1.9,0,3.5-0.8,4.3-2.3l-1.5-0.9
	c-0.7,1-1.7,1.5-2.9,1.5c-2.1,0-3.6-1.4-3.6-3.7c0-2.3,1.6-3.7,3.6-3.7c1.2,0,2.2,0.5,2.9,1.5l1.5-0.9c-0.8-1.5-2.4-2.3-4.3-2.3
	c-3.3,0-5.6,2.2-5.6,5.4C500.4,690.9,502.7,693.1,506,693.1z M517.1,693.1c3.2,0,5.5-2.3,5.5-5.4c0-3.2-2.3-5.4-5.5-5.4
	s-5.5,2.2-5.5,5.4C511.6,690.9,514,693.1,517.1,693.1z M517.1,691.4c-2,0-3.6-1.5-3.6-3.7s1.5-3.7,3.6-3.7c2,0,3.6,1.5,3.6,3.7
	S519.2,691.4,517.1,691.4z M538.6,682.3c-1.8,0-3.3,0.8-4.1,2c-0.7-1.3-2.1-2-3.7-2c-1.6,0-2.9,0.6-3.7,1.7v-1.6h-1.8V693h1.9v-5.5
	c0-2.3,1.3-3.5,3.2-3.5c1.7,0,2.7,1,2.7,3.1v5.9h1.9v-5.5c0-2.3,1.3-3.5,3.2-3.5c1.7,0,2.7,1,2.7,3.1v5.9h1.9v-6.1
	C542.9,683.8,541.1,682.3,538.6,682.3z M547.4,680.4c0.8,0,1.3-0.6,1.3-1.3c0-0.7-0.6-1.2-1.3-1.2c-0.7,0-1.3,0.6-1.3,1.3
	S546.7,680.4,547.4,680.4z M546.4,693h1.9v-10.6h-1.9V693z M557.7,682.3c-1.7,0-3,0.6-3.8,1.7v-1.6H552V693h1.9v-5.5
	c0-2.3,1.3-3.5,3.4-3.5c1.8,0,2.9,1,2.9,3.1v5.9h1.9v-6.1C562.1,683.8,560.3,682.3,557.7,682.3z M574,682.4v1.6
	c-0.9-1.2-2.3-1.7-3.9-1.7c-3.1,0-5.4,2.1-5.4,5.1s2.3,5.1,5.4,5.1c1.5,0,2.9-0.5,3.8-1.6v0.8c0,2.4-1.1,3.6-3.6,3.6
	c-1.6,0-3.1-0.5-4.1-1.4l-0.9,1.5c1.2,1,3.1,1.6,5.1,1.6c3.6,0,5.5-1.7,5.5-5.4v-9.2H574z M570.3,690.9c-2.1,0-3.7-1.4-3.7-3.5
	c0-2.1,1.5-3.4,3.7-3.4c2.1,0,3.6,1.4,3.6,3.4C574,689.5,572.4,690.9,570.3,690.9z M598.1,682.3c-1.8,0-3.3,0.8-4.1,2
	c-0.7-1.3-2.1-2-3.7-2c-1.6,0-2.9,0.6-3.7,1.7v-1.6h-1.8V693h1.9v-5.5c0-2.3,1.3-3.5,3.2-3.5c1.7,0,2.7,1,2.7,3.1v5.9h1.9v-5.5
	c0-2.3,1.3-3.5,3.2-3.5c1.7,0,2.7,1,2.7,3.1v5.9h1.9v-6.1C602.5,683.8,600.7,682.3,598.1,682.3z M615.6,687.8c0-3.3-2.2-5.5-5.2-5.5
	s-5.3,2.3-5.3,5.4c0,3.2,2.3,5.4,5.7,5.4c1.8,0,3.2-0.6,4.2-1.7l-1.1-1.2c-0.8,0.9-1.8,1.3-3.1,1.3c-2.1,0-3.6-1.2-3.8-3.1h8.6
	C615.6,688.2,615.6,687.9,615.6,687.8z M610.4,683.9c1.9,0,3.2,1.3,3.4,3H607C607.2,685.2,608.6,683.9,610.4,683.9z M631.6,682.3
	c-1.8,0-3.3,0.8-4.1,2c-0.7-1.3-2.1-2-3.7-2c-1.6,0-2.9,0.6-3.7,1.7v-1.6h-1.8V693h1.9v-5.5c0-2.3,1.3-3.5,3.2-3.5
	c1.7,0,2.7,1,2.7,3.1v5.9h1.9v-5.5c0-2.3,1.3-3.5,3.2-3.5c1.7,0,2.7,1,2.7,3.1v5.9h1.9v-6.1C635.9,683.8,634.2,682.3,631.6,682.3z
	 M645.1,682.3c-1.5,0-2.8,0.6-3.7,1.7v-5.8h-1.9V693h1.8v-1.7c0.9,1.2,2.2,1.8,3.8,1.8c3.1,0,5.4-2.2,5.4-5.4
	S648.2,682.3,645.1,682.3z M644.9,691.4c-2,0-3.6-1.5-3.6-3.7s1.5-3.7,3.6-3.7c2,0,3.6,1.5,3.6,3.7S646.9,691.4,644.9,691.4z
	 M662.7,687.8c0-3.3-2.2-5.5-5.2-5.5s-5.3,2.3-5.3,5.4c0,3.2,2.3,5.4,5.7,5.4c1.8,0,3.2-0.6,4.2-1.7l-1.1-1.2
	c-0.8,0.9-1.8,1.3-3.1,1.3c-2.1,0-3.6-1.2-3.8-3.1h8.6C662.6,688.2,662.7,687.9,662.7,687.8z M657.4,683.9c1.9,0,3.2,1.3,3.4,3H654
	C654.2,685.2,655.6,683.9,657.4,683.9z M667.2,684.2v-1.8h-1.8V693h1.9v-5.3c0-2.3,1.3-3.6,3.3-3.6c0.1,0,0.3,0,0.4,0v-1.9
	C669.2,682.3,667.8,682.9,667.2,684.2z M683.5,693.1c1.9,0,3.5-0.8,4.3-2.3l-1.5-0.9c-0.7,1-1.7,1.5-2.9,1.5c-2.1,0-3.6-1.4-3.6-3.7
	c0-2.3,1.6-3.7,3.6-3.7c1.2,0,2.2,0.5,2.9,1.5l1.5-0.9c-0.8-1.5-2.4-2.3-4.3-2.3c-3.3,0-5.6,2.2-5.6,5.4
	C677.9,690.9,680.3,693.1,683.5,693.1z M694.2,682.3c-1.7,0-3.3,0.5-4.4,1.4l0.8,1.4c0.8-0.7,2.1-1.1,3.4-1.1c1.9,0,2.8,0.9,2.8,2.6
	v0.4h-3c-3.2,0-4.3,1.4-4.3,3.1c0,1.8,1.5,3.1,3.9,3.1c1.7,0,2.8-0.6,3.5-1.5v1.4h1.8v-6.4C698.7,683.7,697.1,682.3,694.2,682.3z
	 M693.7,691.6c-1.5,0-2.3-0.7-2.3-1.7c0-0.9,0.5-1.6,2.4-1.6h3v1.5C696.3,691,695.2,691.6,693.7,691.6z M702.3,693h1.9v-14.8h-1.9
	V693z M707.9,693h1.9v-14.8h-1.9V693z M716.5,693.1c2.8,0,4.6-1.2,4.6-3.1c0-4.1-6.7-2.1-6.7-4.6c0-0.8,0.8-1.5,2.5-1.5
	c1,0,2.1,0.2,3.1,0.8l0.8-1.5c-0.9-0.6-2.5-1-3.9-1c-2.7,0-4.4,1.3-4.4,3.2c0,4.2,6.7,2.2,6.7,4.5c0,0.9-0.7,1.4-2.5,1.4
	c-1.4,0-2.8-0.5-3.7-1.1l-0.8,1.5C713,692.6,714.7,693.1,716.5,693.1z M444.2,710.4l-3.2,8.5l-3.1-8.5h-1.6l-3.2,8.4l-3.1-8.4h-1.8
	l3.9,10.6h1.8l3.1-8l3.1,8h1.8l4-10.6H444.2z M448.9,708.4c0.8,0,1.3-0.6,1.3-1.3c0-0.7-0.6-1.2-1.3-1.2c-0.7,0-1.3,0.6-1.3,1.3
	S448.1,708.4,448.9,708.4z M447.9,721h1.9v-10.6h-1.9V721z M453.5,721h1.9v-14.8h-1.9V721z M459.1,721h1.9v-14.8h-1.9V721z
	 M475.7,710.3c-1.5,0-2.8,0.6-3.7,1.7v-5.8H470V721h1.8v-1.7c0.9,1.2,2.2,1.8,3.8,1.8c3.1,0,5.4-2.2,5.4-5.4
	S478.8,710.3,475.7,710.3z M475.5,719.4c-2,0-3.6-1.5-3.6-3.7s1.5-3.7,3.6-3.7c2,0,3.6,1.5,3.6,3.7S477.5,719.4,475.5,719.4z
	 M493.2,715.8c0-3.3-2.2-5.5-5.2-5.5s-5.3,2.3-5.3,5.4c0,3.2,2.3,5.4,5.7,5.4c1.8,0,3.2-0.6,4.2-1.7l-1.1-1.2
	c-0.8,0.9-1.8,1.3-3.1,1.3c-2.1,0-3.6-1.2-3.8-3.1h8.6C493.2,716.2,493.2,715.9,493.2,715.8z M488,711.9c1.9,0,3.2,1.3,3.4,3h-6.8
	C484.8,713.2,486.2,711.9,488,711.9z M505.1,710.3c-1.7,0-3.3,0.5-4.4,1.4l0.8,1.4c0.8-0.7,2.1-1.1,3.4-1.1c1.9,0,2.8,0.9,2.8,2.6
	v0.4h-3c-3.2,0-4.3,1.4-4.3,3.1c0,1.8,1.5,3.1,3.9,3.1c1.7,0,2.8-0.6,3.5-1.5v1.4h1.8v-6.4C509.7,711.7,508,710.3,505.1,710.3z
	 M504.7,719.6c-1.5,0-2.3-0.7-2.3-1.7c0-0.9,0.5-1.6,2.4-1.6h3v1.5C507.3,719,506.1,719.6,504.7,719.6z M517.9,721.1
	c1.9,0,3.5-0.8,4.3-2.3l-1.5-0.9c-0.7,1-1.7,1.5-2.9,1.5c-2.1,0-3.6-1.4-3.6-3.7c0-2.3,1.6-3.7,3.6-3.7c1.2,0,2.2,0.5,2.9,1.5
	l1.5-0.9c-0.8-1.5-2.4-2.3-4.3-2.3c-3.3,0-5.6,2.2-5.6,5.4C512.3,718.9,514.7,721.1,517.9,721.1z M532.7,721h2.4l-4.9-6.2l4.5-4.4
	h-2.3l-5.8,5.3v-9.5h-1.9V721h1.9v-2.9l2.2-2L532.7,721z M542.4,710.3c-1.7,0-3,0.6-3.8,1.7v-1.6h-1.8V721h1.9v-5.5
	c0-2.3,1.3-3.5,3.4-3.5c1.8,0,2.9,1,2.9,3.1v5.9h1.9v-6.1C546.8,711.8,545,710.3,542.4,710.3z M555,721.1c3.2,0,5.5-2.3,5.5-5.4
	c0-3.2-2.3-5.4-5.5-5.4s-5.5,2.2-5.5,5.4C549.5,718.9,551.8,721.1,555,721.1z M555,719.4c-2,0-3.6-1.5-3.6-3.7s1.5-3.7,3.6-3.7
	s3.6,1.5,3.6,3.7S557,719.4,555,719.4z M577.2,710.4l-3.2,8.5l-3.1-8.5h-1.6l-3.2,8.4l-3.1-8.4h-1.8l3.9,10.6h1.8l3.1-8l3.1,8h1.8
	l4-10.6H577.2z M580.8,721h1.9v-14.8h-1.9V721z M596,715.8c0-3.3-2.2-5.5-5.2-5.5s-5.3,2.3-5.3,5.4c0,3.2,2.3,5.4,5.7,5.4
	c1.8,0,3.2-0.6,4.2-1.7l-1.1-1.2c-0.8,0.9-1.8,1.3-3.1,1.3c-2.1,0-3.6-1.2-3.8-3.1h8.6C596,716.2,596,715.9,596,715.8z M590.8,711.9
	c1.9,0,3.2,1.3,3.4,3h-6.8C587.6,713.2,588.9,711.9,590.8,711.9z M606.7,706.2v5.8c-0.9-1.1-2.2-1.7-3.7-1.7c-3.1,0-5.4,2.2-5.4,5.4
	s2.3,5.4,5.4,5.4c1.6,0,2.9-0.6,3.8-1.8v1.7h1.8v-14.8H606.7z M603.2,719.4c-2,0-3.6-1.5-3.6-3.7s1.5-3.7,3.6-3.7
	c2,0,3.6,1.5,3.6,3.7S605.2,719.4,603.2,719.4z M620.6,710.4v1.6c-0.9-1.2-2.3-1.7-3.9-1.7c-3.1,0-5.4,2.1-5.4,5.1s2.3,5.1,5.4,5.1
	c1.5,0,2.9-0.5,3.8-1.6v0.8c0,2.4-1.1,3.6-3.6,3.6c-1.6,0-3.1-0.5-4.1-1.4l-0.9,1.5c1.2,1,3.1,1.6,5.1,1.6c3.6,0,5.5-1.7,5.5-5.4
	v-9.2H620.6z M616.9,718.9c-2.1,0-3.7-1.4-3.7-3.5c0-2.1,1.5-3.4,3.7-3.4c2.1,0,3.6,1.4,3.6,3.4C620.6,717.5,619,718.9,616.9,718.9z
	 M635.7,715.8c0-3.3-2.2-5.5-5.2-5.5s-5.3,2.3-5.3,5.4c0,3.2,2.3,5.4,5.7,5.4c1.8,0,3.2-0.6,4.2-1.7l-1.1-1.2
	c-0.8,0.9-1.8,1.3-3.1,1.3c-2.1,0-3.6-1.2-3.8-3.1h8.6C635.7,716.2,635.7,715.9,635.7,715.8z M630.4,711.9c1.9,0,3.2,1.3,3.4,3H627
	C627.2,713.2,628.6,711.9,630.4,711.9z M646.4,706.2v5.8c-0.9-1.1-2.2-1.7-3.7-1.7c-3.1,0-5.4,2.2-5.4,5.4s2.3,5.4,5.4,5.4
	c1.6,0,2.9-0.6,3.8-1.8v1.7h1.8v-14.8H646.4z M642.9,719.4c-2,0-3.6-1.5-3.6-3.7s1.5-3.7,3.6-3.7c2,0,3.6,1.5,3.6,3.7
	S644.9,719.4,642.9,719.4z M671.7,710.4l-3.2,8.5l-3.1-8.5h-1.6l-3.2,8.4l-3.1-8.4h-1.8l3.9,10.6h1.8l3.1-8l3.1,8h1.8l4-10.6H671.7z
	 M676.3,708.4c0.8,0,1.3-0.6,1.3-1.3c0-0.7-0.6-1.2-1.3-1.2c-0.7,0-1.3,0.6-1.3,1.3S675.6,708.4,676.3,708.4z M675.3,721h1.9v-10.6
	h-1.9V721z M686.3,719c-0.4,0.3-0.9,0.5-1.5,0.5c-1.1,0-1.7-0.6-1.7-1.8V712h3v-1.6h-3v-2.3h-1.9v2.3h-1.8v1.6h1.8v5.8
	c0,2.1,1.2,3.3,3.4,3.3c0.9,0,1.7-0.2,2.3-0.7L686.3,719z M694.9,710.3c-1.6,0-2.9,0.6-3.7,1.6v-5.7h-1.9V721h1.9v-5.5
	c0-2.3,1.3-3.5,3.4-3.5c1.8,0,2.9,1,2.9,3.1v5.9h1.9v-6.1C699.3,711.8,697.5,710.3,694.9,710.3z M703.8,708.4c0.8,0,1.3-0.6,1.3-1.3
	c0-0.7-0.6-1.2-1.3-1.2s-1.3,0.6-1.3,1.3S703,708.4,703.8,708.4z M702.8,721h1.9v-10.6h-1.9V721z M714.1,710.3c-1.7,0-3,0.6-3.8,1.7
	v-1.6h-1.8V721h1.9v-5.5c0-2.3,1.3-3.5,3.4-3.5c1.8,0,2.9,1,2.9,3.1v5.9h1.9v-6.1C718.5,711.8,716.6,710.3,714.1,710.3z
	 M476.7,747.3l4.3-4.1c1.9-1.8,2.3-3,2.3-4.4c0-2.4-1.9-3.9-4.8-3.9c-2.2,0-4,0.8-5.1,2.1l1.4,1.2c0.9-1,2.1-1.5,3.6-1.5
	c2,0,3,0.9,3,2.3c0,0.9-0.3,1.8-1.8,3.2l-5.7,5.5v1.4h10.1v-1.7H476.7z M491.2,749.2c3.3,0,5.7-2.6,5.7-7.2s-2.4-7.2-5.7-7.2
	c-3.3,0-5.7,2.6-5.7,7.2S487.9,749.2,491.2,749.2z M491.2,747.4c-2.2,0-3.7-1.8-3.7-5.4s1.5-5.4,3.7-5.4c2.2,0,3.7,1.8,3.7,5.4
	S493.4,747.4,491.2,747.4z M508.1,749.1c2.8,0,4.6-1.2,4.6-3.1c0-4.1-6.7-2.1-6.7-4.6c0-0.8,0.8-1.5,2.5-1.5c1,0,2.1,0.2,3.1,0.8
	l0.8-1.5c-0.9-0.6-2.5-1-3.9-1c-2.7,0-4.4,1.3-4.4,3.2c0,4.2,6.7,2.2,6.7,4.5c0,0.9-0.7,1.4-2.5,1.4c-1.4,0-2.8-0.5-3.7-1.1
	l-0.8,1.5C504.6,748.6,506.4,749.1,508.1,749.1z M524.7,743.8c0-3.3-2.2-5.5-5.2-5.5s-5.3,2.3-5.3,5.4c0,3.2,2.3,5.4,5.7,5.4
	c1.8,0,3.2-0.6,4.2-1.7l-1.1-1.2c-0.8,0.9-1.8,1.3-3.1,1.3c-2.1,0-3.6-1.2-3.8-3.1h8.6C524.6,744.2,524.7,743.9,524.7,743.8z
	 M519.4,739.9c1.9,0,3.2,1.3,3.4,3H516C516.2,741.2,517.6,739.9,519.4,739.9z M532,749.1c1.9,0,3.5-0.8,4.3-2.3l-1.5-0.9
	c-0.7,1-1.7,1.5-2.9,1.5c-2.1,0-3.6-1.4-3.6-3.7c0-2.3,1.6-3.7,3.6-3.7c1.2,0,2.2,0.5,2.9,1.5l1.5-0.9c-0.8-1.5-2.4-2.3-4.3-2.3
	c-3.3,0-5.6,2.2-5.6,5.4C526.4,746.9,528.7,749.1,532,749.1z M543.1,749.1c3.2,0,5.5-2.3,5.5-5.4c0-3.2-2.3-5.4-5.5-5.4
	s-5.5,2.2-5.5,5.4C537.6,746.9,540,749.1,543.1,749.1z M543.1,747.4c-2,0-3.6-1.5-3.6-3.7s1.5-3.7,3.6-3.7s3.6,1.5,3.6,3.7
	S545.2,747.4,543.1,747.4z M557,738.3c-1.7,0-3,0.6-3.8,1.7v-1.6h-1.8V749h1.9v-5.5c0-2.3,1.3-3.5,3.4-3.5c1.8,0,2.9,1,2.9,3.1v5.9
	h1.9v-6.1C561.4,739.8,559.5,738.3,557,738.3z M573.1,734.2v5.8c-0.9-1.1-2.2-1.7-3.7-1.7c-3.1,0-5.4,2.2-5.4,5.4s2.3,5.4,5.4,5.4
	c1.6,0,2.9-0.6,3.8-1.8v1.7h1.8v-14.8H573.1z M569.5,747.4c-2,0-3.6-1.5-3.6-3.7s1.5-3.7,3.6-3.7c2,0,3.6,1.5,3.6,3.7
	S571.5,747.4,569.5,747.4z M581.6,749.1c2.8,0,4.6-1.2,4.6-3.1c0-4.1-6.7-2.1-6.7-4.6c0-0.8,0.8-1.5,2.5-1.5c1,0,2.1,0.2,3.1,0.8
	l0.8-1.5c-0.9-0.6-2.5-1-3.9-1c-2.7,0-4.4,1.3-4.4,3.2c0,4.2,6.7,2.2,6.7,4.5c0,0.9-0.7,1.4-2.5,1.4c-1.4,0-2.8-0.5-3.7-1.1
	l-0.8,1.5C578.1,748.6,579.9,749.1,581.6,749.1z M596.5,752.9h1.8c-1.6-2.8-2.3-5.9-2.3-9.4s0.7-6.5,2.3-9.4h-1.8
	c-1.5,2.4-2.4,5.7-2.4,9.4S594.9,750.5,596.5,752.9z M611.7,743.8H609v-3h-1.9v3h-5.4l6.9-8.8h-2.2l-7.2,9.2v1.4h7.8v3.4h1.9v-3.4
	h2.7V743.8z M620.9,740.2v-1.8h-1.8V749h1.9v-5.3c0-2.3,1.3-3.6,3.3-3.6c0.1,0,0.3,0,0.4,0v-1.9
	C622.9,738.3,621.6,738.9,620.9,740.2z M628.1,736.4c0.8,0,1.3-0.6,1.3-1.3c0-0.7-0.6-1.2-1.3-1.2s-1.3,0.6-1.3,1.3
	S627.4,736.4,628.1,736.4z M627.2,749h1.9v-10.6h-1.9V749z M638.4,738.3c-1.7,0-3,0.6-3.8,1.7v-1.6h-1.8V749h1.9v-5.5
	c0-2.3,1.3-3.5,3.4-3.5c1.8,0,2.9,1,2.9,3.1v5.9h1.9v-6.1C642.8,739.8,641,738.3,638.4,738.3z M654.7,738.4v1.6
	c-0.9-1.2-2.3-1.7-3.9-1.7c-3.1,0-5.4,2.1-5.4,5.1s2.3,5.1,5.4,5.1c1.5,0,2.9-0.5,3.8-1.6v0.8c0,2.4-1.1,3.6-3.6,3.6
	c-1.6,0-3.1-0.5-4.1-1.4l-0.9,1.5c1.2,1,3.1,1.6,5.1,1.6c3.6,0,5.5-1.7,5.5-5.4v-9.2H654.7z M651,746.9c-2.1,0-3.7-1.4-3.7-3.5
	c0-2.1,1.5-3.4,3.7-3.4c2.1,0,3.6,1.4,3.6,3.4C654.7,745.5,653.2,746.9,651,746.9z M663.3,749.1c2.8,0,4.6-1.2,4.6-3.1
	c0-4.1-6.7-2.1-6.7-4.6c0-0.8,0.8-1.5,2.5-1.5c1,0,2.1,0.2,3.1,0.8l0.8-1.5c-0.9-0.6-2.5-1-3.9-1c-2.7,0-4.4,1.3-4.4,3.2
	c0,4.2,6.7,2.2,6.7,4.5c0,0.9-0.7,1.4-2.5,1.4c-1.4,0-2.8-0.5-3.7-1.1l-0.8,1.5C659.8,748.6,661.5,749.1,663.3,749.1z M670.9,752.9
	c1.5-2.4,2.4-5.7,2.4-9.4s-0.9-7-2.4-9.4h-1.8c1.6,2.8,2.3,5.9,2.3,9.4s-0.7,6.5-2.3,9.4H670.9z"/>
<path d="M871.8,480.3c-1.7,0-3.3,0.5-4.4,1.4l0.8,1.4c0.8-0.7,2.1-1.1,3.4-1.1c1.9,0,2.8,0.9,2.8,2.6v0.4h-3c-3.2,0-4.3,1.4-4.3,3.1
	c0,1.8,1.5,3.1,3.9,3.1c1.7,0,2.8-0.6,3.5-1.5v1.4h1.8v-6.4C876.4,481.7,874.7,480.3,871.8,480.3z M871.4,489.6
	c-1.5,0-2.3-0.7-2.3-1.7c0-0.9,0.5-1.6,2.4-1.6h3v1.5C874,489,872.8,489.6,871.4,489.6z M887.2,480.4l-3.7,8.5l-3.6-8.5h-2l4.6,10.6
	h2l4.6-10.6H887.2z M894.4,480.3c-1.7,0-3.3,0.5-4.4,1.4l0.8,1.4c0.8-0.7,2.1-1.1,3.4-1.1c1.9,0,2.8,0.9,2.8,2.6v0.4h-3
	c-3.2,0-4.3,1.4-4.3,3.1c0,1.8,1.5,3.1,3.9,3.1c1.7,0,2.8-0.6,3.5-1.5v1.4h1.8v-6.4C899,481.7,897.3,480.3,894.4,480.3z M894,489.6
	c-1.5,0-2.3-0.7-2.3-1.7c0-0.9,0.5-1.6,2.4-1.6h3v1.5C896.6,489,895.4,489.6,894,489.6z M903.5,478.4c0.8,0,1.3-0.6,1.3-1.3
	c0-0.7-0.6-1.2-1.3-1.2s-1.3,0.6-1.3,1.3C902.2,477.8,902.7,478.4,903.5,478.4z M902.5,491h1.9v-10.6h-1.9V491z M908.1,491h1.9
	v-14.8h-1.9V491z M917.6,480.3c-1.7,0-3.3,0.5-4.4,1.4l0.8,1.4c0.8-0.7,2.1-1.1,3.4-1.1c1.9,0,2.8,0.9,2.8,2.6v0.4h-3
	c-3.2,0-4.3,1.4-4.3,3.1c0,1.8,1.5,3.1,3.9,3.1c1.7,0,2.8-0.6,3.5-1.5v1.4h1.8v-6.4C922.1,481.7,920.5,480.3,917.6,480.3z
	 M917.1,489.6c-1.5,0-2.3-0.7-2.3-1.7c0-0.9,0.5-1.6,2.4-1.6h3v1.5C919.7,489,918.6,489.6,917.1,489.6z M931.3,480.3
	c-1.5,0-2.8,0.6-3.7,1.7v-5.8h-1.9V491h1.8v-1.7c0.9,1.2,2.2,1.8,3.8,1.8c3.1,0,5.4-2.2,5.4-5.4
	C936.6,482.5,934.4,480.3,931.3,480.3z M931.1,489.4c-2,0-3.6-1.5-3.6-3.7c0-2.3,1.5-3.7,3.6-3.7c2,0,3.6,1.5,3.6,3.7
	C934.7,488,933.1,489.4,931.1,489.4z M940.2,478.4c0.8,0,1.3-0.6,1.3-1.3c0-0.7-0.6-1.2-1.3-1.2s-1.3,0.6-1.3,1.3
	C938.9,477.8,939.5,478.4,940.2,478.4z M939.3,491h1.9v-10.6h-1.9V491z M944.9,491h1.9v-14.8h-1.9V491z M951.4,478.4
	c0.8,0,1.3-0.6,1.3-1.3c0-0.7-0.6-1.2-1.3-1.2s-1.3,0.6-1.3,1.3C950.1,477.8,950.7,478.4,951.4,478.4z M950.4,491h1.9v-10.6h-1.9
	V491z M961.4,489c-0.4,0.3-0.9,0.5-1.5,0.5c-1.1,0-1.7-0.6-1.7-1.8V482h3v-1.6h-3v-2.3h-1.9v2.3h-1.8v1.6h1.8v5.8
	c0,2.1,1.2,3.3,3.4,3.3c0.9,0,1.7-0.2,2.3-0.7L961.4,489z M971.6,480.4l-3.7,8.5l-3.7-8.5h-2l4.7,10.6l-0.3,0.7
	c-0.5,1.2-1.1,1.6-2,1.6c-0.7,0-1.4-0.3-1.9-0.8l-0.8,1.4c0.7,0.6,1.7,1,2.7,1c1.6,0,2.8-0.7,3.8-2.9l5.1-11.7H971.6z M985.2,491.1
	c3.2,0,5.5-2.3,5.5-5.4c0-3.2-2.3-5.4-5.5-5.4s-5.5,2.2-5.5,5.4C979.7,488.9,982,491.1,985.2,491.1z M985.2,489.4
	c-2,0-3.6-1.5-3.6-3.7c0-2.3,1.5-3.7,3.6-3.7s3.6,1.5,3.6,3.7C988.8,488,987.2,489.4,985.2,489.4z M997.2,477.6
	c0.6,0,1.1,0.2,1.5,0.5l0.6-1.5c-0.5-0.4-1.3-0.6-2.2-0.6c-2.3,0-3.5,1.4-3.5,3.4v0.9h-1.8v1.6h1.8v9h1.9v-9h3v-1.6h-3.1v-0.9
	C995.5,478.3,996.1,477.6,997.2,477.6z M1010.1,491.2c3.7,0,5.4-1.8,5.4-4c0-5.1-8.5-3-8.5-6.4c0-1.2,1-2.2,3.4-2.2
	c1.2,0,2.6,0.4,3.8,1.1l0.7-1.6c-1.2-0.8-2.9-1.2-4.5-1.2c-3.7,0-5.4,1.8-5.4,4c0,5.2,8.5,3,8.5,6.5c0,1.2-1,2.2-3.5,2.2
	c-1.8,0-3.6-0.7-4.6-1.6l-0.7,1.6C1005.9,490.4,1008,491.2,1010.1,491.2z M1023.8,480.3c-1.6,0-2.9,0.6-3.8,1.8v-1.7h-1.8v14.5h1.9
	v-5.5c0.9,1.1,2.2,1.7,3.7,1.7c3.1,0,5.4-2.2,5.4-5.4C1029.2,482.5,1026.9,480.3,1023.8,480.3z M1023.7,489.4c-2,0-3.6-1.5-3.6-3.7
	c0-2.2,1.5-3.7,3.6-3.7c2,0,3.6,1.5,3.6,3.7C1027.2,488,1025.7,489.4,1023.7,489.4z M1035.6,480.3c-1.7,0-3.3,0.5-4.4,1.4l0.8,1.4
	c0.8-0.7,2.1-1.1,3.4-1.1c1.9,0,2.8,0.9,2.8,2.6v0.4h-3c-3.2,0-4.3,1.4-4.3,3.1c0,1.8,1.5,3.1,3.9,3.1c1.7,0,2.8-0.6,3.5-1.5v1.4
	h1.8v-6.4C1040.1,481.7,1038.5,480.3,1035.6,480.3z M1035.2,489.6c-1.5,0-2.3-0.7-2.3-1.7c0-0.9,0.5-1.6,2.4-1.6h3v1.5
	C1037.7,489,1036.6,489.6,1035.2,489.6z M1049.3,480.3c-1.7,0-3,0.6-3.8,1.7v-1.6h-1.8V491h1.9v-5.5c0-2.3,1.3-3.5,3.4-3.5
	c1.8,0,2.9,1,2.9,3.1v5.9h1.9v-6.1C1053.7,481.8,1051.9,480.3,1049.3,480.3z M1058.3,478.4c0.8,0,1.3-0.6,1.3-1.3
	c0-0.7-0.6-1.2-1.3-1.2s-1.3,0.6-1.3,1.3C1057,477.8,1057.5,478.4,1058.3,478.4z M1057.3,491h1.9v-10.6h-1.9V491z M1065.9,491.1
	c2.8,0,4.6-1.2,4.6-3.1c0-4.1-6.7-2.1-6.7-4.6c0-0.8,0.8-1.5,2.5-1.5c1,0,2.1,0.2,3.1,0.8l0.8-1.5c-0.9-0.6-2.5-1-3.9-1
	c-2.7,0-4.4,1.3-4.4,3.2c0,4.2,6.7,2.2,6.7,4.5c0,0.9-0.7,1.4-2.5,1.4c-1.4,0-2.8-0.5-3.7-1.1l-0.8,1.5
	C1062.4,490.6,1064.2,491.1,1065.9,491.1z M1078.6,480.3c-1.6,0-2.9,0.6-3.7,1.6v-5.7h-1.9V491h1.9v-5.5c0-2.3,1.3-3.5,3.4-3.5
	c1.8,0,2.9,1,2.9,3.1v5.9h1.9v-6.1C1083,481.8,1081.1,480.3,1078.6,480.3z M1095.8,480.3c-1.7,0-3.3,0.5-4.4,1.4l0.8,1.4
	c0.8-0.7,2.1-1.1,3.4-1.1c1.9,0,2.8,0.9,2.8,2.6v0.4h-3c-3.2,0-4.3,1.4-4.3,3.1c0,1.8,1.5,3.1,3.9,3.1c1.7,0,2.8-0.6,3.5-1.5v1.4
	h1.8v-6.4C1100.3,481.7,1098.7,480.3,1095.8,480.3z M1095.3,489.6c-1.5,0-2.3-0.7-2.3-1.7c0-0.9,0.5-1.6,2.4-1.6h3v1.5
	C1097.9,489,1096.8,489.6,1095.3,489.6z M1109.5,480.3c-1.7,0-3,0.6-3.8,1.7v-1.6h-1.8V491h1.9v-5.5c0-2.3,1.3-3.5,3.4-3.5
	c1.8,0,2.9,1,2.9,3.1v5.9h1.9v-6.1C1113.9,481.8,1112.1,480.3,1109.5,480.3z M1125.6,476.2v5.8c-0.9-1.1-2.2-1.7-3.7-1.7
	c-3.1,0-5.4,2.2-5.4,5.4c0,3.2,2.3,5.4,5.4,5.4c1.6,0,2.9-0.6,3.8-1.8v1.7h1.8v-14.8H1125.6z M1122.1,489.4c-2,0-3.6-1.5-3.6-3.7
	c0-2.3,1.5-3.7,3.6-3.7c2,0,3.6,1.5,3.6,3.7C1125.6,488,1124.1,489.4,1122.1,489.4z M870.2,517.3v-4.5h7V511h-7v-4.3h7.9V505h-9.9
	v14h10.2v-1.7H870.2z M887,508.3c-1.7,0-3,0.6-3.8,1.7v-1.6h-1.8V519h1.9v-5.5c0-2.3,1.3-3.5,3.4-3.5c1.8,0,2.9,1,2.9,3.1v5.9h1.9
	v-6.1C891.4,509.8,889.6,508.3,887,508.3z M903.4,508.4v1.6c-0.9-1.2-2.3-1.7-3.9-1.7c-3.1,0-5.4,2.1-5.4,5.1s2.3,5.1,5.4,5.1
	c1.5,0,2.9-0.5,3.8-1.6v0.8c0,2.4-1.1,3.6-3.6,3.6c-1.6,0-3.1-0.5-4.1-1.4l-0.9,1.5c1.2,1,3.1,1.6,5.1,1.6c3.6,0,5.5-1.7,5.5-5.4
	v-9.2H903.4z M899.7,516.9c-2.1,0-3.7-1.4-3.7-3.5c0-2.1,1.5-3.4,3.7-3.4c2.1,0,3.6,1.4,3.6,3.4
	C903.3,515.5,901.8,516.9,899.7,516.9z M908.8,519h1.9v-14.8h-1.9V519z M915.4,506.4c0.8,0,1.3-0.6,1.3-1.3c0-0.7-0.6-1.2-1.3-1.2
	s-1.3,0.6-1.3,1.3C914.1,505.8,914.7,506.4,915.4,506.4z M914.4,519h1.9v-10.6h-1.9V519z M923.1,519.1c2.8,0,4.6-1.2,4.6-3.1
	c0-4.1-6.7-2.1-6.7-4.6c0-0.8,0.8-1.5,2.5-1.5c1,0,2.1,0.2,3.1,0.8l0.8-1.5c-0.9-0.6-2.5-1-3.9-1c-2.7,0-4.4,1.3-4.4,3.2
	c0,4.2,6.7,2.2,6.7,4.5c0,0.9-0.7,1.4-2.5,1.4c-1.4,0-2.8-0.5-3.7-1.1l-0.8,1.5C919.6,518.6,921.3,519.1,923.1,519.1z M935.7,508.3
	c-1.6,0-2.9,0.6-3.7,1.6v-5.7H930V519h1.9v-5.5c0-2.3,1.3-3.5,3.4-3.5c1.8,0,2.9,1,2.9,3.1v5.9h1.9v-6.1
	C940.1,509.8,938.3,508.3,935.7,508.3z M949,519h1.9v-14.8H949V519z M955.6,506.4c0.8,0,1.3-0.6,1.3-1.3c0-0.7-0.6-1.2-1.3-1.2
	s-1.3,0.6-1.3,1.3C954.3,505.8,954.8,506.4,955.6,506.4z M954.6,519h1.9v-10.6h-1.9V519z M967.7,508.4l-3.7,8.5l-3.6-8.5h-2L963,519
	h2l4.6-10.6H967.7z M980.7,513.8c0-3.3-2.2-5.5-5.2-5.5s-5.3,2.3-5.3,5.4c0,3.2,2.3,5.4,5.7,5.4c1.8,0,3.2-0.6,4.2-1.7l-1.1-1.2
	c-0.8,0.9-1.8,1.3-3.1,1.3c-2.1,0-3.6-1.2-3.8-3.1h8.6C980.6,514.2,980.7,513.9,980.7,513.8z M975.4,509.9c1.9,0,3.2,1.3,3.4,3H972
	C972.2,511.2,973.6,509.9,975.4,509.9z M992.6,508.3c-1.7,0-3.3,0.5-4.4,1.4l0.8,1.4c0.8-0.7,2.1-1.1,3.4-1.1c1.9,0,2.8,0.9,2.8,2.6
	v0.4h-3c-3.2,0-4.3,1.4-4.3,3.1c0,1.8,1.5,3.1,3.9,3.1c1.7,0,2.8-0.6,3.5-1.5v1.4h1.8v-6.4C997.1,509.7,995.5,508.3,992.6,508.3z
	 M992.1,517.6c-1.5,0-2.3-0.7-2.3-1.7c0-0.9,0.5-1.6,2.4-1.6h3v1.5C994.7,517,993.6,517.6,992.1,517.6z M1009,508.4v1.6
	c-0.9-1.2-2.3-1.7-3.9-1.7c-3.1,0-5.4,2.1-5.4,5.1s2.3,5.1,5.4,5.1c1.5,0,2.9-0.5,3.8-1.6v0.8c0,2.4-1.1,3.6-3.6,3.6
	c-1.6,0-3.1-0.5-4.1-1.4l-0.9,1.5c1.2,1,3.1,1.6,5.1,1.6c3.6,0,5.5-1.7,5.5-5.4v-9.2H1009z M1005.3,516.9c-2.1,0-3.7-1.4-3.7-3.5
	c0-2.1,1.5-3.4,3.7-3.4c2.1,0,3.6,1.4,3.6,3.4C1009,515.5,1007.4,516.9,1005.3,516.9z M1024.1,513.8c0-3.3-2.2-5.5-5.2-5.5
	s-5.3,2.3-5.3,5.4c0,3.2,2.3,5.4,5.7,5.4c1.8,0,3.2-0.6,4.2-1.7l-1.1-1.2c-0.8,0.9-1.8,1.3-3.1,1.3c-2.1,0-3.6-1.2-3.8-3.1h8.6
	C1024.1,514.2,1024.1,513.9,1024.1,513.8z M1018.9,509.9c1.9,0,3.2,1.3,3.4,3h-6.8C1015.7,511.2,1017,509.9,1018.9,509.9z
	 M1032.4,508.3c-1.7,0-3,0.6-3.8,1.7v-1.6h-1.8V519h1.9v-5.5c0-2.3,1.3-3.5,3.4-3.5c1.8,0,2.9,1,2.9,3.1v5.9h1.9v-6.1
	C1036.8,509.8,1035,508.3,1032.4,508.3z M1045.7,517c-0.4,0.3-0.9,0.5-1.5,0.5c-1.1,0-1.7-0.6-1.7-1.8V510h3v-1.6h-3v-2.3h-1.9v2.3
	h-1.8v1.6h1.8v5.8c0,2.1,1.2,3.3,3.4,3.3c0.9,0,1.7-0.2,2.3-0.7L1045.7,517z M1051.7,519.1c2.8,0,4.6-1.2,4.6-3.1
	c0-4.1-6.7-2.1-6.7-4.6c0-0.8,0.8-1.5,2.5-1.5c1,0,2.1,0.2,3.1,0.8l0.8-1.5c-0.9-0.6-2.5-1-3.9-1c-2.7,0-4.4,1.3-4.4,3.2
	c0,4.2,6.7,2.2,6.7,4.5c0,0.9-0.7,1.4-2.5,1.4c-1.4,0-2.8-0.5-3.7-1.1l-0.8,1.5C1048.2,518.6,1049.9,519.1,1051.7,519.1z"/>
<path d="M967.8,238.3c-1.7,0-3.3,0.5-4.4,1.4l0.8,1.4c0.8-0.7,2.1-1.1,3.4-1.1c1.9,0,2.8,0.9,2.8,2.6v0.4h-3c-3.2,0-4.3,1.4-4.3,3.1
	c0,1.8,1.5,3.1,3.9,3.1c1.7,0,2.8-0.6,3.5-1.5v1.4h1.8v-6.4C972.4,239.7,970.7,238.3,967.8,238.3z M967.4,247.6
	c-1.5,0-2.3-0.7-2.3-1.7c0-0.9,0.5-1.6,2.4-1.6h3v1.5C970,247,968.8,247.6,967.4,247.6z M983.2,238.4l-3.7,8.5l-3.6-8.5h-2l4.6,10.6
	h2l4.6-10.6H983.2z M990.4,238.3c-1.7,0-3.3,0.5-4.4,1.4l0.8,1.4c0.8-0.7,2.1-1.1,3.4-1.1c1.9,0,2.8,0.9,2.8,2.6v0.4h-3
	c-3.2,0-4.3,1.4-4.3,3.1c0,1.8,1.5,3.1,3.9,3.1c1.7,0,2.8-0.6,3.5-1.5v1.4h1.8v-6.4C995,239.7,993.3,238.3,990.4,238.3z M990,247.6
	c-1.5,0-2.3-0.7-2.3-1.7c0-0.9,0.5-1.6,2.4-1.6h3v1.5C992.6,247,991.4,247.6,990,247.6z M999.5,236.4c0.8,0,1.3-0.6,1.3-1.3
	c0-0.7-0.6-1.2-1.3-1.2s-1.3,0.6-1.3,1.3C998.2,235.8,998.7,236.4,999.5,236.4z M998.5,249h1.9v-10.6h-1.9V249z M1004.1,249h1.9
	v-14.8h-1.9V249z M1013.6,238.3c-1.7,0-3.3,0.5-4.4,1.4l0.8,1.4c0.8-0.7,2.1-1.1,3.4-1.1c1.9,0,2.8,0.9,2.8,2.6v0.4h-3
	c-3.2,0-4.3,1.4-4.3,3.1c0,1.8,1.5,3.1,3.9,3.1c1.7,0,2.8-0.6,3.5-1.5v1.4h1.8v-6.4C1018.1,239.7,1016.5,238.3,1013.6,238.3z
	 M1013.1,247.6c-1.5,0-2.3-0.7-2.3-1.7c0-0.9,0.5-1.6,2.4-1.6h3v1.5C1015.7,247,1014.6,247.6,1013.1,247.6z M1027.3,238.3
	c-1.5,0-2.8,0.6-3.7,1.7v-5.8h-1.9V249h1.8v-1.7c0.9,1.2,2.2,1.8,3.8,1.8c3.1,0,5.4-2.2,5.4-5.4
	C1032.6,240.5,1030.4,238.3,1027.3,238.3z M1027.1,247.4c-2,0-3.6-1.5-3.6-3.7c0-2.3,1.5-3.7,3.6-3.7c2,0,3.6,1.5,3.6,3.7
	C1030.7,246,1029.1,247.4,1027.1,247.4z M1036.2,236.4c0.8,0,1.3-0.6,1.3-1.3c0-0.7-0.6-1.2-1.3-1.2c-0.7,0-1.3,0.6-1.3,1.3
	C1034.9,235.8,1035.5,236.4,1036.2,236.4z M1035.3,249h1.9v-10.6h-1.9V249z M1040.9,249h1.9v-14.8h-1.9V249z M1047.4,236.4
	c0.8,0,1.3-0.6,1.3-1.3c0-0.7-0.6-1.2-1.3-1.2s-1.3,0.6-1.3,1.3C1046.1,235.8,1046.7,236.4,1047.4,236.4z M1046.4,249h1.9v-10.6
	h-1.9V249z M1057.4,247c-0.4,0.3-0.9,0.5-1.5,0.5c-1.1,0-1.7-0.6-1.7-1.8V240h3v-1.6h-3v-2.3h-1.9v2.3h-1.8v1.6h1.8v5.8
	c0,2.1,1.2,3.3,3.4,3.3c0.9,0,1.7-0.2,2.3-0.7L1057.4,247z M1067.6,238.4l-3.7,8.5l-3.7-8.5h-2l4.7,10.6l-0.3,0.7
	c-0.5,1.2-1.1,1.6-2,1.6c-0.7,0-1.4-0.3-1.9-0.8l-0.8,1.4c0.7,0.6,1.7,1,2.7,1c1.6,0,2.8-0.7,3.8-2.9l5.1-11.7H1067.6z
	 M1081.2,249.1c3.2,0,5.5-2.3,5.5-5.4s-2.3-5.4-5.5-5.4c-3.2,0-5.5,2.2-5.5,5.4S1078,249.1,1081.2,249.1z M1081.2,247.4
	c-2,0-3.6-1.5-3.6-3.7c0-2.3,1.5-3.7,3.6-3.7c2,0,3.6,1.5,3.6,3.7C1084.8,246,1083.2,247.4,1081.2,247.4z M1093.2,235.6
	c0.6,0,1.1,0.2,1.5,0.5l0.6-1.5c-0.5-0.4-1.3-0.6-2.2-0.6c-2.3,0-3.5,1.4-3.5,3.4v0.9h-1.8v1.6h1.8v9h1.9v-9h3v-1.6h-3.1v-0.9
	C1091.5,236.3,1092.1,235.6,1093.2,235.6z M967.8,266.3c-1.7,0-3.3,0.5-4.4,1.4l0.8,1.4c0.8-0.7,2.1-1.1,3.4-1.1
	c1.9,0,2.8,0.9,2.8,2.6v0.4h-3c-3.2,0-4.3,1.4-4.3,3.1c0,1.8,1.5,3.1,3.9,3.1c1.7,0,2.8-0.6,3.5-1.5v1.4h1.8v-6.4
	C972.4,267.7,970.7,266.3,967.8,266.3z M967.4,275.6c-1.5,0-2.3-0.7-2.3-1.7c0-0.9,0.5-1.6,2.4-1.6h3v1.5
	C970,275,968.8,275.6,967.4,275.6z M984.1,262.2v5.8c-0.9-1.1-2.2-1.7-3.7-1.7c-3.1,0-5.4,2.2-5.4,5.4c0,3.2,2.3,5.4,5.4,5.4
	c1.6,0,2.9-0.6,3.8-1.8v1.7h1.8v-14.8H984.1z M980.5,275.4c-2,0-3.6-1.5-3.6-3.7c0-2.3,1.5-3.7,3.6-3.7c2,0,3.6,1.5,3.6,3.7
	C984.1,274,982.5,275.4,980.5,275.4z M997.7,262.2v5.8c-0.9-1.1-2.2-1.7-3.7-1.7c-3.1,0-5.4,2.2-5.4,5.4c0,3.2,2.3,5.4,5.4,5.4
	c1.6,0,2.9-0.6,3.8-1.8v1.7h1.8v-14.8H997.7z M994.2,275.4c-2,0-3.6-1.5-3.6-3.7c0-2.3,1.5-3.7,3.6-3.7c2,0,3.6,1.5,3.6,3.7
	C997.7,274,996.2,275.4,994.2,275.4z M1004.2,264.4c0.8,0,1.3-0.6,1.3-1.3c0-0.7-0.6-1.2-1.3-1.2s-1.3,0.6-1.3,1.3
	C1002.9,263.8,1003.5,264.4,1004.2,264.4z M1003.2,277h1.9v-10.6h-1.9V277z M1014.2,275c-0.4,0.3-0.9,0.5-1.5,0.5
	c-1.1,0-1.7-0.6-1.7-1.8V268h3v-1.6h-3v-2.3h-1.9v2.3h-1.8v1.6h1.8v5.8c0,2.1,1.2,3.3,3.4,3.3c0.9,0,1.7-0.2,2.3-0.7L1014.2,275z
	 M1018.1,264.4c0.8,0,1.3-0.6,1.3-1.3c0-0.7-0.6-1.2-1.3-1.2s-1.3,0.6-1.3,1.3C1016.8,263.8,1017.3,264.4,1018.1,264.4z M1017.1,277
	h1.9v-10.6h-1.9V277z M1027.2,277.1c3.2,0,5.5-2.3,5.5-5.4c0-3.2-2.3-5.4-5.5-5.4c-3.2,0-5.5,2.2-5.5,5.4
	C1021.7,274.9,1024.1,277.1,1027.2,277.1z M1027.2,275.4c-2,0-3.6-1.5-3.6-3.7c0-2.3,1.5-3.7,3.6-3.7c2,0,3.6,1.5,3.6,3.7
	C1030.8,274,1029.3,275.4,1027.2,275.4z M1041.1,266.3c-1.7,0-3,0.6-3.8,1.7v-1.6h-1.8V277h1.9v-5.5c0-2.3,1.3-3.5,3.4-3.5
	c1.8,0,2.9,1,2.9,3.1v5.9h1.9v-6.1C1045.5,267.8,1043.6,266.3,1041.1,266.3z M1052.9,266.3c-1.7,0-3.3,0.5-4.4,1.4l0.8,1.4
	c0.8-0.7,2.1-1.1,3.4-1.1c1.9,0,2.8,0.9,2.8,2.6v0.4h-3c-3.2,0-4.3,1.4-4.3,3.1c0,1.8,1.5,3.1,3.9,3.1c1.7,0,2.8-0.6,3.5-1.5v1.4
	h1.8v-6.4C1057.4,267.7,1055.8,266.3,1052.9,266.3z M1052.4,275.6c-1.5,0-2.3-0.7-2.3-1.7c0-0.9,0.5-1.6,2.4-1.6h3v1.5
	C1055,275,1053.9,275.6,1052.4,275.6z M1061,277h1.9v-14.8h-1.9V277z M964,305h1.9v-14.8H964V305z M973.4,294.3
	c-1.7,0-3.3,0.5-4.4,1.4l0.8,1.4c0.8-0.7,2.1-1.1,3.4-1.1c1.9,0,2.8,0.9,2.8,2.6v0.4h-3c-3.2,0-4.3,1.4-4.3,3.1
	c0,1.8,1.5,3.1,3.9,3.1c1.7,0,2.8-0.6,3.5-1.5v1.4h1.8v-6.4C978,295.7,976.3,294.3,973.4,294.3z M973,303.6c-1.5,0-2.3-0.7-2.3-1.7
	c0-0.9,0.5-1.6,2.4-1.6h3v1.5C975.6,303,974.4,303.6,973,303.6z M987.2,294.3c-1.7,0-3,0.6-3.8,1.7v-1.6h-1.8V305h1.9v-5.5
	c0-2.3,1.3-3.5,3.4-3.5c1.8,0,2.9,1,2.9,3.1v5.9h1.9v-6.1C991.6,295.8,989.7,294.3,987.2,294.3z M1003.5,294.4v1.6
	c-0.9-1.2-2.3-1.7-3.9-1.7c-3.1,0-5.4,2.1-5.4,5.1c0,3.1,2.3,5.1,5.4,5.1c1.5,0,2.9-0.5,3.8-1.6v0.8c0,2.4-1.1,3.6-3.6,3.6
	c-1.6,0-3.1-0.5-4.1-1.4l-0.9,1.5c1.2,1,3.1,1.6,5.1,1.6c3.6,0,5.5-1.7,5.5-5.4v-9.2H1003.5z M999.8,302.9c-2.1,0-3.7-1.4-3.7-3.5
	c0-2.1,1.5-3.4,3.7-3.4c2.1,0,3.6,1.4,3.6,3.4C1003.4,301.5,1001.9,302.9,999.8,302.9z M1016.9,294.4v5.5c0,2.3-1.3,3.5-3.3,3.5
	c-1.8,0-2.9-1-2.9-3.1v-5.9h-1.9v6.1c0,3.1,1.8,4.6,4.6,4.6c1.5,0,2.8-0.6,3.6-1.7v1.6h1.8v-10.6H1016.9z M1026.4,294.3
	c-1.7,0-3.3,0.5-4.4,1.4l0.8,1.4c0.8-0.7,2.1-1.1,3.4-1.1c1.9,0,2.8,0.9,2.8,2.6v0.4h-3c-3.2,0-4.3,1.4-4.3,3.1
	c0,1.8,1.5,3.1,3.9,3.1c1.7,0,2.8-0.6,3.5-1.5v1.4h1.8v-6.4C1030.9,295.7,1029.3,294.3,1026.4,294.3z M1025.9,303.6
	c-1.5,0-2.3-0.7-2.3-1.7c0-0.9,0.5-1.6,2.4-1.6h3v1.5C1028.5,303,1027.4,303.6,1025.9,303.6z M1042.9,294.4v1.6
	c-0.9-1.2-2.3-1.7-3.9-1.7c-3.1,0-5.4,2.1-5.4,5.1c0,3.1,2.3,5.1,5.4,5.1c1.5,0,2.9-0.5,3.8-1.6v0.8c0,2.4-1.1,3.6-3.6,3.6
	c-1.6,0-3.1-0.5-4.1-1.4l-0.9,1.5c1.2,1,3.1,1.6,5.1,1.6c3.6,0,5.5-1.7,5.5-5.4v-9.2H1042.9z M1039.2,302.9c-2.1,0-3.7-1.4-3.7-3.5
	c0-2.1,1.5-3.4,3.7-3.4c2.1,0,3.6,1.4,3.6,3.4C1042.8,301.5,1041.3,302.9,1039.2,302.9z M1057.9,299.8c0-3.3-2.2-5.5-5.2-5.5
	c-3.1,0-5.3,2.3-5.3,5.4c0,3.2,2.3,5.4,5.7,5.4c1.8,0,3.2-0.6,4.2-1.7l-1.1-1.2c-0.8,0.9-1.8,1.3-3.1,1.3c-2.1,0-3.6-1.2-3.8-3.1
	h8.6C1057.9,300.2,1057.9,299.9,1057.9,299.8z M1052.7,295.9c1.9,0,3.2,1.3,3.4,3h-6.8C1049.5,297.2,1050.8,295.9,1052.7,295.9z
	 M1066,305h1.9v-14.8h-1.9V305z M1072.5,292.4c0.8,0,1.3-0.6,1.3-1.3c0-0.7-0.6-1.2-1.3-1.2s-1.3,0.6-1.3,1.3
	C1071.2,291.8,1071.8,292.4,1072.5,292.4z M1071.5,305h1.9v-10.6h-1.9V305z M1082.8,294.3c-1.7,0-3,0.6-3.8,1.7v-1.6h-1.8V305h1.9
	v-5.5c0-2.3,1.3-3.5,3.4-3.5c1.8,0,2.9,1,2.9,3.1v5.9h1.9v-6.1C1087.2,295.8,1085.4,294.3,1082.8,294.3z M1100.4,299.8
	c0-3.3-2.2-5.5-5.2-5.5s-5.3,2.3-5.3,5.4c0,3.2,2.3,5.4,5.7,5.4c1.8,0,3.2-0.6,4.2-1.7l-1.1-1.2c-0.8,0.9-1.8,1.3-3.1,1.3
	c-2.1,0-3.6-1.2-3.8-3.1h8.6C1100.4,300.2,1100.4,299.9,1100.4,299.8z M1095.1,295.9c1.9,0,3.2,1.3,3.4,3h-6.8
	C1091.9,297.2,1093.3,295.9,1095.1,295.9z M1106.1,305.1c2.8,0,4.6-1.2,4.6-3.1c0-4.1-6.7-2.1-6.7-4.6c0-0.8,0.8-1.5,2.5-1.5
	c1,0,2.1,0.2,3.1,0.8l0.8-1.5c-0.9-0.6-2.5-1-3.9-1c-2.7,0-4.4,1.3-4.4,3.2c0,4.2,6.7,2.2,6.7,4.5c0,0.9-0.7,1.4-2.5,1.4
	c-1.4,0-2.8-0.5-3.7-1.1l-0.8,1.5C1102.6,304.6,1104.3,305.1,1106.1,305.1z M967.8,319.6c0.6,0,1.1,0.2,1.5,0.5l0.6-1.5
	c-0.5-0.4-1.3-0.6-2.2-0.6c-2.3,0-3.5,1.4-3.5,3.4v0.9h-1.8v1.6h1.8v9h1.9v-9h3v-1.6h-3.1v-0.9C966.1,320.3,966.7,319.6,967.8,319.6
	z M975.4,333.1c3.2,0,5.5-2.3,5.5-5.4c0-3.2-2.3-5.4-5.5-5.4s-5.5,2.2-5.5,5.4C969.9,330.9,972.2,333.1,975.4,333.1z M975.4,331.4
	c-2,0-3.6-1.5-3.6-3.7c0-2.3,1.5-3.7,3.6-3.7s3.6,1.5,3.6,3.7C979,330,977.4,331.4,975.4,331.4z M985.4,324.2v-1.8h-1.8V333h1.9
	v-5.3c0-2.3,1.3-3.6,3.3-3.6c0.1,0,0.3,0,0.4,0v-1.9C987.4,322.3,986.1,322.9,985.4,324.2z M1001,322.3c-1.7,0-3.3,0.5-4.4,1.4
	l0.8,1.4c0.8-0.7,2.1-1.1,3.4-1.1c1.9,0,2.8,0.9,2.8,2.6v0.4h-3c-3.2,0-4.3,1.4-4.3,3.1c0,1.8,1.5,3.1,3.9,3.1
	c1.7,0,2.8-0.6,3.5-1.5v1.4h1.8v-6.4C1005.5,323.7,1003.9,322.3,1001,322.3z M1000.6,331.6c-1.5,0-2.3-0.7-2.3-1.7
	c0-0.9,0.5-1.6,2.4-1.6h3v1.5C1003.1,331,1002,331.6,1000.6,331.6z M1009.1,333h1.9v-14.8h-1.9V333z M1014.7,333h1.9v-14.8h-1.9V333
	z M1030.2,333.1c3.2,0,5.5-2.3,5.5-5.4c0-3.2-2.3-5.4-5.5-5.4c-3.2,0-5.5,2.2-5.5,5.4C1024.6,330.9,1027,333.1,1030.2,333.1z
	 M1030.2,331.4c-2,0-3.6-1.5-3.6-3.7c0-2.3,1.5-3.7,3.6-3.7s3.6,1.5,3.6,3.7C1033.7,330,1032.2,331.4,1030.2,331.4z M1043.7,331
	c-0.4,0.3-0.9,0.5-1.5,0.5c-1.1,0-1.7-0.6-1.7-1.8V324h3v-1.6h-3v-2.3h-1.9v2.3h-1.8v1.6h1.8v5.8c0,2.1,1.2,3.3,3.4,3.3
	c0.9,0,1.7-0.2,2.3-0.7L1043.7,331z M1052.3,322.3c-1.6,0-2.9,0.6-3.7,1.6v-5.7h-1.9V333h1.9v-5.5c0-2.3,1.3-3.5,3.4-3.5
	c1.8,0,2.9,1,2.9,3.1v5.9h1.9v-6.1C1056.7,323.8,1054.8,322.3,1052.3,322.3z M1069.9,327.8c0-3.3-2.2-5.5-5.2-5.5
	c-3.1,0-5.3,2.3-5.3,5.4c0,3.2,2.3,5.4,5.7,5.4c1.8,0,3.2-0.6,4.2-1.7l-1.1-1.2c-0.8,0.9-1.8,1.3-3.1,1.3c-2.1,0-3.6-1.2-3.8-3.1
	h8.6C1069.8,328.2,1069.9,327.9,1069.9,327.8z M1064.6,323.9c1.9,0,3.2,1.3,3.4,3h-6.8C1061.4,325.2,1062.8,323.9,1064.6,323.9z
	 M1074.4,324.2v-1.8h-1.8V333h1.9v-5.3c0-2.3,1.3-3.6,3.3-3.6c0.1,0,0.3,0,0.4,0v-1.9C1076.4,322.3,1075,322.9,1074.4,324.2z
	 M964,361h1.9v-14.8H964V361z M973.4,350.3c-1.7,0-3.3,0.5-4.4,1.4l0.8,1.4c0.8-0.7,2.1-1.1,3.4-1.1c1.9,0,2.8,0.9,2.8,2.6v0.4h-3
	c-3.2,0-4.3,1.4-4.3,3.1c0,1.8,1.5,3.1,3.9,3.1c1.7,0,2.8-0.6,3.5-1.5v1.4h1.8v-6.4C978,351.7,976.3,350.3,973.4,350.3z M973,359.6
	c-1.5,0-2.3-0.7-2.3-1.7c0-0.9,0.5-1.6,2.4-1.6h3v1.5C975.6,359,974.4,359.6,973,359.6z M987.2,350.3c-1.7,0-3,0.6-3.8,1.7v-1.6
	h-1.8V361h1.9v-5.5c0-2.3,1.3-3.5,3.4-3.5c1.8,0,2.9,1,2.9,3.1v5.9h1.9v-6.1C991.6,351.8,989.7,350.3,987.2,350.3z M1003.5,350.4
	v1.6c-0.9-1.2-2.3-1.7-3.9-1.7c-3.1,0-5.4,2.1-5.4,5.1c0,3.1,2.3,5.1,5.4,5.1c1.5,0,2.9-0.5,3.8-1.6v0.8c0,2.4-1.1,3.6-3.6,3.6
	c-1.6,0-3.1-0.5-4.1-1.4l-0.9,1.5c1.2,1,3.1,1.6,5.1,1.6c3.6,0,5.5-1.7,5.5-5.4v-9.2H1003.5z M999.8,358.9c-2.1,0-3.7-1.4-3.7-3.5
	c0-2.1,1.5-3.4,3.7-3.4c2.1,0,3.6,1.4,3.6,3.4C1003.4,357.5,1001.9,358.9,999.8,358.9z M1016.9,350.4v5.5c0,2.3-1.3,3.5-3.3,3.5
	c-1.8,0-2.9-1-2.9-3.1v-5.9h-1.9v6.1c0,3.1,1.8,4.6,4.6,4.6c1.5,0,2.8-0.6,3.6-1.7v1.6h1.8v-10.6H1016.9z M1026.4,350.3
	c-1.7,0-3.3,0.5-4.4,1.4l0.8,1.4c0.8-0.7,2.1-1.1,3.4-1.1c1.9,0,2.8,0.9,2.8,2.6v0.4h-3c-3.2,0-4.3,1.4-4.3,3.1
	c0,1.8,1.5,3.1,3.9,3.1c1.7,0,2.8-0.6,3.5-1.5v1.4h1.8v-6.4C1030.9,351.7,1029.3,350.3,1026.4,350.3z M1025.9,359.6
	c-1.5,0-2.3-0.7-2.3-1.7c0-0.9,0.5-1.6,2.4-1.6h3v1.5C1028.5,359,1027.4,359.6,1025.9,359.6z M1042.9,350.4v1.6
	c-0.9-1.2-2.3-1.7-3.9-1.7c-3.1,0-5.4,2.1-5.4,5.1c0,3.1,2.3,5.1,5.4,5.1c1.5,0,2.9-0.5,3.8-1.6v0.8c0,2.4-1.1,3.6-3.6,3.6
	c-1.6,0-3.1-0.5-4.1-1.4l-0.9,1.5c1.2,1,3.1,1.6,5.1,1.6c3.6,0,5.5-1.7,5.5-5.4v-9.2H1042.9z M1039.2,358.9c-2.1,0-3.7-1.4-3.7-3.5
	c0-2.1,1.5-3.4,3.7-3.4c2.1,0,3.6,1.4,3.6,3.4C1042.8,357.5,1041.3,358.9,1039.2,358.9z M1057.9,355.8c0-3.3-2.2-5.5-5.2-5.5
	c-3.1,0-5.3,2.3-5.3,5.4c0,3.2,2.3,5.4,5.7,5.4c1.8,0,3.2-0.6,4.2-1.7l-1.1-1.2c-0.8,0.9-1.8,1.3-3.1,1.3c-2.1,0-3.6-1.2-3.8-3.1
	h8.6C1057.9,356.2,1057.9,355.9,1057.9,355.8z M1052.7,351.9c1.9,0,3.2,1.3,3.4,3h-6.8C1049.5,353.2,1050.8,351.9,1052.7,351.9z
	 M1063.6,361.1c2.8,0,4.6-1.2,4.6-3.1c0-4.1-6.7-2.1-6.7-4.6c0-0.8,0.8-1.5,2.5-1.5c1,0,2.1,0.2,3.1,0.8l0.8-1.5
	c-0.9-0.6-2.5-1-3.9-1c-2.7,0-4.4,1.3-4.4,3.2c0,4.2,6.7,2.2,6.7,4.5c0,0.9-0.7,1.4-2.5,1.4c-1.4,0-2.8-0.5-3.7-1.1l-0.8,1.5
	C1060.1,360.6,1061.9,361.1,1063.6,361.1z"/>
<path d="M872.6,16.1c1.9,0,3.5-0.8,4.3-2.3l-1.5-0.9c-0.7,1-1.7,1.5-2.9,1.5c-2.1,0-3.6-1.4-3.6-3.7c0-2.3,1.6-3.7,3.6-3.7
	c1.2,0,2.2,0.5,2.9,1.5l1.5-0.9c-0.8-1.5-2.4-2.3-4.3-2.3c-3.3,0-5.6,2.2-5.6,5.4S869.4,16.1,872.6,16.1z M887.4,5.4v5.5
	c0,2.3-1.3,3.5-3.3,3.5c-1.8,0-2.9-1-2.9-3.1V5.4h-1.9v6.1c0,3.1,1.8,4.6,4.6,4.6c1.5,0,2.8-0.6,3.6-1.7V16h1.8V5.4H887.4z
	 M896,16.1c2.8,0,4.6-1.2,4.6-3.1c0-4.1-6.7-2.1-6.7-4.6c0-0.8,0.8-1.5,2.5-1.5c1,0,2.1,0.2,3.1,0.8l0.8-1.5c-0.9-0.6-2.5-1-3.9-1
	c-2.7,0-4.4,1.3-4.4,3.2c0,4.2,6.7,2.2,6.7,4.5c0,0.9-0.7,1.4-2.5,1.4c-1.4,0-2.8-0.5-3.7-1.1l-0.8,1.5
	C892.5,15.6,894.2,16.1,896,16.1z M908.3,14c-0.4,0.3-0.9,0.5-1.5,0.5c-1.1,0-1.7-0.6-1.7-1.8V7h3V5.4h-3V3.1h-1.9v2.3h-1.8V7h1.8
	v5.8c0,2.1,1.2,3.3,3.4,3.3c0.9,0,1.7-0.2,2.3-0.7L908.3,14z M915.4,16.1c3.2,0,5.5-2.3,5.5-5.4s-2.3-5.4-5.5-5.4s-5.5,2.2-5.5,5.4
	S912.2,16.1,915.4,16.1z M915.4,14.4c-2,0-3.6-1.5-3.6-3.7s1.5-3.7,3.6-3.7c2,0,3.6,1.5,3.6,3.7S917.5,14.4,915.4,14.4z M936.8,5.3
	c-1.8,0-3.3,0.8-4.1,2c-0.7-1.3-2.1-2-3.7-2c-1.6,0-2.9,0.6-3.7,1.7V5.4h-1.8V16h1.9v-5.5c0-2.3,1.3-3.5,3.2-3.5
	c1.7,0,2.7,1,2.7,3.1V16h1.9v-5.5c0-2.3,1.3-3.5,3.2-3.5c1.7,0,2.7,1,2.7,3.1V16h1.9V9.9C941.2,6.8,939.4,5.3,936.8,5.3z
	 M954.3,10.8c0-3.3-2.2-5.5-5.2-5.5c-3.1,0-5.3,2.3-5.3,5.4c0,3.2,2.3,5.4,5.7,5.4c1.8,0,3.2-0.6,4.2-1.7l-1.1-1.2
	c-0.8,0.9-1.8,1.3-3.1,1.3c-2.1,0-3.6-1.2-3.8-3.1h8.6C954.3,11.2,954.3,10.9,954.3,10.8z M949.1,6.9c1.9,0,3.2,1.3,3.4,3h-6.8
	C945.9,8.2,947.3,6.9,949.1,6.9z M958.9,7.2V5.4H957V16h1.9v-5.3c0-2.3,1.3-3.6,3.3-3.6c0.1,0,0.3,0,0.4,0V5.3
	C960.9,5.3,959.5,5.9,958.9,7.2z M973.6,16.1c2.8,0,4.6-1.2,4.6-3.1c0-4.1-6.7-2.1-6.7-4.6c0-0.8,0.8-1.5,2.5-1.5
	c1,0,2.1,0.2,3.1,0.8l0.8-1.5c-0.9-0.6-2.5-1-3.9-1c-2.7,0-4.4,1.3-4.4,3.2c0,4.2,6.7,2.2,6.7,4.5c0,0.9-0.7,1.4-2.5,1.4
	c-1.4,0-2.8-0.5-3.7-1.1l-0.8,1.5C970.1,15.6,971.9,16.1,973.6,16.1z M988.6,5.4v5.5c0,2.3-1.3,3.5-3.3,3.5c-1.8,0-2.9-1-2.9-3.1
	V5.4h-1.9v6.1c0,3.1,1.8,4.6,4.6,4.6c1.5,0,2.8-0.6,3.6-1.7V16h1.8V5.4H988.6z M999.8,5.3c-1.6,0-2.9,0.6-3.8,1.8V5.4h-1.8v14.5h1.9
	v-5.5c0.9,1.1,2.2,1.7,3.7,1.7c3.1,0,5.4-2.2,5.4-5.4C1005.1,7.5,1002.9,5.3,999.8,5.3z M999.6,14.4c-2,0-3.6-1.5-3.6-3.7
	c0-2.2,1.5-3.7,3.6-3.7c2,0,3.6,1.5,3.6,3.7C1003.2,13,1001.6,14.4,999.6,14.4z M1013.4,5.3c-1.6,0-2.9,0.6-3.8,1.8V5.4h-1.8v14.5
	h1.9v-5.5c0.9,1.1,2.2,1.7,3.7,1.7c3.1,0,5.4-2.2,5.4-5.4C1018.8,7.5,1016.5,5.3,1013.4,5.3z M1013.2,14.4c-2,0-3.6-1.5-3.6-3.7
	c0-2.2,1.5-3.7,3.6-3.7c2,0,3.6,1.5,3.6,3.7C1016.8,13,1015.3,14.4,1013.2,14.4z M1025.9,16.1c3.2,0,5.5-2.3,5.5-5.4
	s-2.3-5.4-5.5-5.4c-3.2,0-5.5,2.2-5.5,5.4S1022.8,16.1,1025.9,16.1z M1025.9,14.4c-2,0-3.6-1.5-3.6-3.7s1.5-3.7,3.6-3.7
	c2,0,3.6,1.5,3.6,3.7S1028,14.4,1025.9,14.4z M1035.9,7.2V5.4h-1.8V16h1.9v-5.3c0-2.3,1.3-3.6,3.3-3.6c0.1,0,0.3,0,0.4,0V5.3
	C1037.9,5.3,1036.6,5.9,1035.9,7.2z M1048,14c-0.4,0.3-0.9,0.5-1.5,0.5c-1.1,0-1.7-0.6-1.7-1.8V7h3V5.4h-3V3.1h-1.9v2.3h-1.8V7h1.8
	v5.8c0,2.1,1.2,3.3,3.4,3.3c0.9,0,1.7-0.2,2.3-0.7L1048,14z M881.2,33.3c-1.8,0-3.3,0.8-4.1,2c-0.7-1.3-2.1-2-3.7-2
	c-1.6,0-2.9,0.6-3.7,1.7v-1.6H868V44h1.9v-5.5c0-2.3,1.3-3.5,3.2-3.5c1.7,0,2.7,1,2.7,3.1V44h1.9v-5.5c0-2.3,1.3-3.5,3.2-3.5
	c1.7,0,2.7,1,2.7,3.1V44h1.9v-6.1C885.6,34.8,883.8,33.3,881.2,33.3z M898.7,38.8c0-3.3-2.2-5.5-5.2-5.5s-5.3,2.3-5.3,5.4
	c0,3.2,2.3,5.4,5.7,5.4c1.8,0,3.2-0.6,4.2-1.7l-1.1-1.2c-0.8,0.9-1.8,1.3-3.1,1.3c-2.1,0-3.6-1.2-3.8-3.1h8.6
	C898.7,39.2,898.7,38.9,898.7,38.8z M893.5,34.9c1.9,0,3.2,1.3,3.4,3h-6.8C890.3,36.2,891.7,34.9,893.5,34.9z M906.8,42
	c-0.4,0.3-0.9,0.5-1.5,0.5c-1.1,0-1.7-0.6-1.7-1.8V35h3v-1.6h-3v-2.3h-1.9v2.3h-1.8V35h1.8v5.8c0,2.1,1.2,3.3,3.4,3.3
	c0.9,0,1.7-0.2,2.3-0.7L906.8,42z M911.5,35.2v-1.8h-1.8V44h1.9v-5.3c0-2.3,1.3-3.6,3.3-3.6c0.1,0,0.3,0,0.4,0v-1.9
	C913.5,33.3,912.2,33.9,911.5,35.2z M918.7,31.4c0.8,0,1.3-0.6,1.3-1.3c0-0.7-0.6-1.2-1.3-1.2s-1.3,0.6-1.3,1.3
	C917.4,30.8,918,31.4,918.7,31.4z M917.8,44h1.9V33.4h-1.9V44z M928,44.1c1.9,0,3.5-0.8,4.3-2.3l-1.5-0.9c-0.7,1-1.7,1.5-2.9,1.5
	c-2.1,0-3.6-1.4-3.6-3.7c0-2.3,1.6-3.7,3.6-3.7c1.2,0,2.2,0.5,2.9,1.5l1.5-0.9c-0.8-1.5-2.4-2.3-4.3-2.3c-3.3,0-5.6,2.2-5.6,5.4
	S924.7,44.1,928,44.1z M937.8,44.1c2.8,0,4.6-1.2,4.6-3.1c0-4.1-6.7-2.1-6.7-4.6c0-0.8,0.8-1.5,2.5-1.5c1,0,2.1,0.2,3.1,0.8l0.8-1.5
	c-0.9-0.6-2.5-1-3.9-1c-2.7,0-4.4,1.3-4.4,3.2c0,4.2,6.7,2.2,6.7,4.5c0,0.9-0.7,1.4-2.5,1.4c-1.4,0-2.8-0.5-3.7-1.1l-0.8,1.5
	C934.3,43.6,936,44.1,937.8,44.1z M954,33.3c-1.7,0-3.3,0.5-4.4,1.4l0.8,1.4c0.8-0.7,2.1-1.1,3.4-1.1c1.9,0,2.8,0.9,2.8,2.6v0.4h-3
	c-3.2,0-4.3,1.4-4.3,3.1c0,1.8,1.5,3.1,3.9,3.1c1.7,0,2.8-0.6,3.5-1.5V44h1.8v-6.4C958.6,34.7,956.9,33.3,954,33.3z M953.6,42.6
	c-1.5,0-2.3-0.7-2.3-1.7c0-0.9,0.5-1.6,2.4-1.6h3v1.5C956.2,42,955,42.6,953.6,42.6z M963.9,35.2v-1.8h-1.8V44h1.9v-5.3
	c0-2.3,1.3-3.6,3.3-3.6c0.1,0,0.3,0,0.4,0v-1.9C965.9,33.3,964.6,33.9,963.9,35.2z M979.7,38.8c0-3.3-2.2-5.5-5.2-5.5
	s-5.3,2.3-5.3,5.4c0,3.2,2.3,5.4,5.7,5.4c1.8,0,3.2-0.6,4.2-1.7l-1.1-1.2c-0.8,0.9-1.8,1.3-3.1,1.3c-2.1,0-3.6-1.2-3.8-3.1h8.6
	C979.6,39.2,979.7,38.9,979.7,38.8z M974.4,34.9c1.9,0,3.2,1.3,3.4,3H971C971.2,36.2,972.6,34.9,974.4,34.9z M992.3,44.1
	c1.9,0,3.5-0.8,4.3-2.3l-1.5-0.9c-0.7,1-1.7,1.5-2.9,1.5c-2.1,0-3.6-1.4-3.6-3.7c0-2.3,1.6-3.7,3.6-3.7c1.2,0,2.2,0.5,2.9,1.5
	l1.5-0.9c-0.8-1.5-2.4-2.3-4.3-2.3c-3.3,0-5.6,2.2-5.6,5.4S989.1,44.1,992.3,44.1z M999,44h1.9V29.2H999V44z M1009.1,44.1
	c3.2,0,5.5-2.3,5.5-5.4s-2.3-5.4-5.5-5.4c-3.2,0-5.5,2.2-5.5,5.4S1005.9,44.1,1009.1,44.1z M1009.1,42.4c-2,0-3.6-1.5-3.6-3.7
	c0-2.3,1.5-3.7,3.6-3.7c2,0,3.6,1.5,3.6,3.7C1012.7,41,1011.2,42.4,1009.1,42.4z M1020.3,44.1c2.8,0,4.6-1.2,4.6-3.1
	c0-4.1-6.7-2.1-6.7-4.6c0-0.8,0.8-1.5,2.5-1.5c1,0,2.1,0.2,3.1,0.8l0.8-1.5c-0.9-0.6-2.5-1-3.9-1c-2.7,0-4.4,1.3-4.4,3.2
	c0,4.2,6.7,2.2,6.7,4.5c0,0.9-0.7,1.4-2.5,1.4c-1.4,0-2.8-0.5-3.7-1.1l-0.8,1.5C1016.8,43.6,1018.5,44.1,1020.3,44.1z M1036.9,38.8
	c0-3.3-2.2-5.5-5.2-5.5c-3.1,0-5.3,2.3-5.3,5.4c0,3.2,2.3,5.4,5.7,5.4c1.8,0,3.2-0.6,4.2-1.7l-1.1-1.2c-0.8,0.9-1.8,1.3-3.1,1.3
	c-2.1,0-3.6-1.2-3.8-3.1h8.6C1036.8,39.2,1036.9,38.9,1036.9,38.8z M1031.6,34.9c1.9,0,3.2,1.3,3.4,3h-6.8
	C1028.4,36.2,1029.8,34.9,1031.6,34.9z M1039.5,44h1.9V29.2h-1.9V44z M1052.6,33.4l-3.7,8.5l-3.7-8.5h-2l4.7,10.6l-0.3,0.7
	c-0.5,1.2-1.1,1.6-2,1.6c-0.7,0-1.4-0.3-1.9-0.8l-0.8,1.4c0.7,0.6,1.7,1,2.7,1c1.6,0,2.8-0.7,3.8-2.9l5.1-11.7H1052.6z M881.2,61.3
	c-1.8,0-3.3,0.8-4.1,2c-0.7-1.3-2.1-2-3.7-2c-1.6,0-2.9,0.6-3.7,1.7v-1.6H868V72h1.9v-5.5c0-2.3,1.3-3.5,3.2-3.5
	c1.7,0,2.7,1,2.7,3.1V72h1.9v-5.5c0-2.3,1.3-3.5,3.2-3.5c1.7,0,2.7,1,2.7,3.1V72h1.9v-6.1C885.6,62.8,883.8,61.3,881.2,61.3z
	 M893.7,72.1c3.2,0,5.5-2.3,5.5-5.4c0-3.2-2.3-5.4-5.5-5.4c-3.2,0-5.5,2.2-5.5,5.4C888.2,69.9,890.5,72.1,893.7,72.1z M893.7,70.4
	c-2,0-3.6-1.5-3.6-3.7c0-2.3,1.5-3.7,3.6-3.7c2,0,3.6,1.5,3.6,3.7C897.3,69,895.7,70.4,893.7,70.4z M907.5,61.3
	c-1.7,0-3,0.6-3.8,1.7v-1.6h-1.8V72h1.9v-5.5c0-2.3,1.3-3.5,3.4-3.5c1.8,0,2.9,1,2.9,3.1V72h1.9v-6.1
	C911.9,62.8,910.1,61.3,907.5,61.3z M916.4,59.4c0.8,0,1.3-0.6,1.3-1.3c0-0.7-0.6-1.2-1.3-1.2c-0.7,0-1.3,0.6-1.3,1.3
	S915.7,59.4,916.4,59.4z M915.5,72h1.9V61.4h-1.9V72z M926.4,70c-0.4,0.3-0.9,0.5-1.5,0.5c-1.1,0-1.7-0.6-1.7-1.8V63h3v-1.6h-3v-2.3
	h-1.9v2.3h-1.8V63h1.8v5.8c0,2.1,1.2,3.3,3.4,3.3c0.9,0,1.7-0.2,2.3-0.7L926.4,70z M933.5,72.1c3.2,0,5.5-2.3,5.5-5.4
	c0-3.2-2.3-5.4-5.5-5.4c-3.2,0-5.5,2.2-5.5,5.4C928,69.9,930.3,72.1,933.5,72.1z M933.5,70.4c-2,0-3.6-1.5-3.6-3.7
	c0-2.3,1.5-3.7,3.6-3.7c2,0,3.6,1.5,3.6,3.7C937.1,69,935.6,70.4,933.5,70.4z M943.5,63.2v-1.8h-1.8V72h1.9v-5.3
	c0-2.3,1.3-3.6,3.3-3.6c0.1,0,0.3,0,0.4,0v-1.9C945.5,61.3,944.2,61.9,943.5,63.2z M959.2,66.8c0-3.3-2.2-5.5-5.2-5.5
	s-5.3,2.3-5.3,5.4c0,3.2,2.3,5.4,5.7,5.4c1.8,0,3.2-0.6,4.2-1.7l-1.1-1.2c-0.8,0.9-1.8,1.3-3.1,1.3c-2.1,0-3.6-1.2-3.8-3.1h8.6
	C959.2,67.2,959.2,66.9,959.2,66.8z M954,62.9c1.9,0,3.2,1.3,3.4,3h-6.8C950.8,64.2,952.1,62.9,954,62.9z M970,57.2V63
	c-0.9-1.1-2.2-1.7-3.7-1.7c-3.1,0-5.4,2.2-5.4,5.4c0,3.2,2.3,5.4,5.4,5.4c1.6,0,2.9-0.6,3.8-1.8V72h1.8V57.2H970z M966.4,70.4
	c-2,0-3.6-1.5-3.6-3.7c0-2.3,1.5-3.7,3.6-3.7c2,0,3.6,1.5,3.6,3.7C970,69,968.5,70.4,966.4,70.4z M986.3,70
	c-0.4,0.3-0.9,0.5-1.5,0.5c-1.1,0-1.7-0.6-1.7-1.8V63h3v-1.6h-3v-2.3h-1.9v2.3h-1.8V63h1.8v5.8c0,2.1,1.2,3.3,3.4,3.3
	c0.9,0,1.7-0.2,2.3-0.7L986.3,70z M993.4,72.1c3.2,0,5.5-2.3,5.5-5.4c0-3.2-2.3-5.4-5.5-5.4s-5.5,2.2-5.5,5.4
	C987.8,69.9,990.2,72.1,993.4,72.1z M993.4,70.4c-2,0-3.6-1.5-3.6-3.7c0-2.3,1.5-3.7,3.6-3.7s3.6,1.5,3.6,3.7
	C996.9,69,995.4,70.4,993.4,70.4z M1020.2,61.3c-1.8,0-3.3,0.8-4.1,2c-0.7-1.3-2.1-2-3.7-2c-1.6,0-2.9,0.6-3.7,1.7v-1.6h-1.8V72h1.9
	v-5.5c0-2.3,1.3-3.5,3.2-3.5c1.7,0,2.7,1,2.7,3.1V72h1.9v-5.5c0-2.3,1.3-3.5,3.2-3.5c1.7,0,2.7,1,2.7,3.1V72h1.9v-6.1
	C1024.5,62.8,1022.7,61.3,1020.2,61.3z M1037.7,66.8c0-3.3-2.2-5.5-5.2-5.5s-5.3,2.3-5.3,5.4c0,3.2,2.3,5.4,5.7,5.4
	c1.8,0,3.2-0.6,4.2-1.7l-1.1-1.2c-0.8,0.9-1.8,1.3-3.1,1.3c-2.1,0-3.6-1.2-3.8-3.1h8.6C1037.6,67.2,1037.7,66.9,1037.7,66.8z
	 M1032.4,62.9c1.9,0,3.2,1.3,3.4,3h-6.8C1029.2,64.2,1030.6,62.9,1032.4,62.9z M1049.9,66.8c0-3.3-2.2-5.5-5.2-5.5
	c-3.1,0-5.3,2.3-5.3,5.4c0,3.2,2.3,5.4,5.7,5.4c1.8,0,3.2-0.6,4.2-1.7l-1.1-1.2c-0.8,0.9-1.8,1.3-3.1,1.3c-2.1,0-3.6-1.2-3.8-3.1
	h8.6C1049.9,67.2,1049.9,66.9,1049.9,66.8z M1044.7,62.9c1.9,0,3.2,1.3,3.4,3h-6.8C1041.5,64.2,1042.8,62.9,1044.7,62.9z M1057.9,70
	c-0.4,0.3-0.9,0.5-1.5,0.5c-1.1,0-1.7-0.6-1.7-1.8V63h3v-1.6h-3v-2.3h-1.9v2.3h-1.8V63h1.8v5.8c0,2.1,1.2,3.3,3.4,3.3
	c0.9,0,1.7-0.2,2.3-0.7L1057.9,70z M1071.6,70c-0.4,0.3-0.9,0.5-1.5,0.5c-1.1,0-1.7-0.6-1.7-1.8V63h3v-1.6h-3v-2.3h-1.9v2.3h-1.8V63
	h1.8v5.8c0,2.1,1.2,3.3,3.4,3.3c0.9,0,1.7-0.2,2.3-0.7L1071.6,70z M1080.2,61.3c-1.6,0-2.9,0.6-3.7,1.6v-5.7h-1.9V72h1.9v-5.5
	c0-2.3,1.3-3.5,3.4-3.5c1.8,0,2.9,1,2.9,3.1V72h1.9v-6.1C1084.6,62.8,1082.7,61.3,1080.2,61.3z M1097.8,66.8c0-3.3-2.2-5.5-5.2-5.5
	c-3.1,0-5.3,2.3-5.3,5.4c0,3.2,2.3,5.4,5.7,5.4c1.8,0,3.2-0.6,4.2-1.7l-1.1-1.2c-0.8,0.9-1.8,1.3-3.1,1.3c-2.1,0-3.6-1.2-3.8-3.1
	h8.6C1097.7,67.2,1097.8,66.9,1097.8,66.8z M1092.5,62.9c1.9,0,3.2,1.3,3.4,3h-6.8C1089.3,64.2,1090.7,62.9,1092.5,62.9z
	 M877.5,94.8c0-3.3-2.2-5.5-5.2-5.5s-5.3,2.3-5.3,5.4c0,3.2,2.3,5.4,5.7,5.4c1.8,0,3.2-0.6,4.2-1.7l-1.1-1.2
	c-0.8,0.9-1.8,1.3-3.1,1.3c-2.1,0-3.6-1.2-3.8-3.1h8.6C877.5,95.2,877.5,94.9,877.5,94.8z M872.3,90.9c1.9,0,3.2,1.3,3.4,3h-6.8
	C869.1,92.2,870.5,90.9,872.3,90.9z M888.9,100l-4.2-5.4l4-5.2h-2.1l-2.9,3.8l-2.9-3.8h-2.1l4,5.2l-4.2,5.4h2.1l3.1-4.1l3.1,4.1
	H888.9z M896.6,89.3c-1.6,0-2.9,0.6-3.8,1.8v-1.7H891v14.5h1.9v-5.5c0.9,1.1,2.2,1.7,3.7,1.7c3.1,0,5.4-2.2,5.4-5.4
	C901.9,91.5,899.7,89.3,896.6,89.3z M896.4,98.4c-2,0-3.6-1.5-3.6-3.7c0-2.2,1.5-3.7,3.6-3.7c2,0,3.6,1.5,3.6,3.7
	C900,97,898.5,98.4,896.4,98.4z M914.2,94.8c0-3.3-2.2-5.5-5.2-5.5s-5.3,2.3-5.3,5.4c0,3.2,2.3,5.4,5.7,5.4c1.8,0,3.2-0.6,4.2-1.7
	l-1.1-1.2c-0.8,0.9-1.8,1.3-3.1,1.3c-2.1,0-3.6-1.2-3.8-3.1h8.6C914.1,95.2,914.2,94.9,914.2,94.8z M908.9,90.9c1.9,0,3.2,1.3,3.4,3
	h-6.8C905.7,92.2,907.1,90.9,908.9,90.9z M921.5,100.1c1.9,0,3.5-0.8,4.3-2.3l-1.5-0.9c-0.7,1-1.7,1.5-2.9,1.5
	c-2.1,0-3.6-1.4-3.6-3.7c0-2.3,1.6-3.7,3.6-3.7c1.2,0,2.2,0.5,2.9,1.5l1.5-0.9c-0.8-1.5-2.4-2.3-4.3-2.3c-3.3,0-5.6,2.2-5.6,5.4
	C915.9,97.9,918.2,100.1,921.5,100.1z M933.8,98c-0.4,0.3-0.9,0.5-1.5,0.5c-1.1,0-1.7-0.6-1.7-1.8V91h3v-1.6h-3v-2.3h-1.9v2.3h-1.8
	V91h1.8v5.8c0,2.1,1.2,3.3,3.4,3.3c0.9,0,1.7-0.2,2.3-0.7L933.8,98z M940.5,89.3c-1.7,0-3.3,0.5-4.4,1.4l0.8,1.4
	c0.8-0.7,2.1-1.1,3.4-1.1c1.9,0,2.8,0.9,2.8,2.6v0.4h-3c-3.2,0-4.3,1.4-4.3,3.1c0,1.8,1.5,3.1,3.9,3.1c1.7,0,2.8-0.6,3.5-1.5v1.4
	h1.8v-6.4C945.1,90.7,943.4,89.3,940.5,89.3z M940.1,98.6c-1.5,0-2.3-0.7-2.3-1.7c0-0.9,0.5-1.6,2.4-1.6h3v1.5
	C942.7,98,941.5,98.6,940.1,98.6z M954,98c-0.4,0.3-0.9,0.5-1.5,0.5c-1.1,0-1.7-0.6-1.7-1.8V91h3v-1.6h-3v-2.3h-1.9v2.3h-1.8V91h1.8
	v5.8c0,2.1,1.2,3.3,3.4,3.3c0.9,0,1.7-0.2,2.3-0.7L954,98z M957.9,87.4c0.8,0,1.3-0.6,1.3-1.3c0-0.7-0.6-1.2-1.3-1.2
	c-0.7,0-1.3,0.6-1.3,1.3C956.6,86.8,957.1,87.4,957.9,87.4z M956.9,100h1.9V89.4h-1.9V100z M967,100.1c3.2,0,5.5-2.3,5.5-5.4
	c0-3.2-2.3-5.4-5.5-5.4s-5.5,2.2-5.5,5.4C961.5,97.9,963.9,100.1,967,100.1z M967,98.4c-2,0-3.6-1.5-3.6-3.7c0-2.3,1.5-3.7,3.6-3.7
	c2,0,3.6,1.5,3.6,3.7C970.6,97,969.1,98.4,967,98.4z M980.9,89.3c-1.7,0-3,0.6-3.8,1.7v-1.6h-1.8V100h1.9v-5.5
	c0-2.3,1.3-3.5,3.4-3.5c1.8,0,2.9,1,2.9,3.1v5.9h1.9v-6.1C985.3,90.8,983.4,89.3,980.9,89.3z M991.8,100.1c2.8,0,4.6-1.2,4.6-3.1
	c0-4.1-6.7-2.1-6.7-4.6c0-0.8,0.8-1.5,2.5-1.5c1,0,2.1,0.2,3.1,0.8l0.8-1.5c-0.9-0.6-2.5-1-3.9-1c-2.7,0-4.4,1.3-4.4,3.2
	c0,4.2,6.7,2.2,6.7,4.5c0,0.9-0.7,1.4-2.5,1.4c-1.4,0-2.8-0.5-3.7-1.1l-0.8,1.5C988.3,99.6,990.1,100.1,991.8,100.1z M1008.7,100.1
	c3.2,0,5.5-2.3,5.5-5.4c0-3.2-2.3-5.4-5.5-5.4c-3.2,0-5.5,2.2-5.5,5.4C1003.2,97.9,1005.6,100.1,1008.7,100.1z M1008.7,98.4
	c-2,0-3.6-1.5-3.6-3.7c0-2.3,1.5-3.7,3.6-3.7c2,0,3.6,1.5,3.6,3.7C1012.3,97,1010.8,98.4,1008.7,98.4z M1020.8,86.6
	c0.6,0,1.1,0.2,1.5,0.5l0.6-1.5c-0.5-0.4-1.3-0.6-2.2-0.6c-2.3,0-3.5,1.4-3.5,3.4v0.9h-1.8V91h1.8v9h1.9v-9h3v-1.6h-3.1v-0.9
	C1019.1,87.3,1019.6,86.6,1020.8,86.6z M1034.7,98c-0.4,0.3-0.9,0.5-1.5,0.5c-1.1,0-1.7-0.6-1.7-1.8V91h3v-1.6h-3v-2.3h-1.9v2.3
	h-1.8V91h1.8v5.8c0,2.1,1.2,3.3,3.4,3.3c0.9,0,1.7-0.2,2.3-0.7L1034.7,98z M1043.3,89.3c-1.6,0-2.9,0.6-3.7,1.6v-5.7h-1.9V100h1.9
	v-5.5c0-2.3,1.3-3.5,3.4-3.5c1.8,0,2.9,1,2.9,3.1v5.9h1.9v-6.1C1047.7,90.8,1045.8,89.3,1043.3,89.3z M1060.8,94.8
	c0-3.3-2.2-5.5-5.2-5.5c-3.1,0-5.3,2.3-5.3,5.4c0,3.2,2.3,5.4,5.7,5.4c1.8,0,3.2-0.6,4.2-1.7l-1.1-1.2c-0.8,0.9-1.8,1.3-3.1,1.3
	c-2.1,0-3.6-1.2-3.8-3.1h8.6C1060.8,95.2,1060.8,94.9,1060.8,94.8z M1055.6,90.9c1.9,0,3.2,1.3,3.4,3h-6.8
	C1052.4,92.2,1053.8,90.9,1055.6,90.9z M872.6,128.1c1.9,0,3.5-0.8,4.3-2.3l-1.5-0.9c-0.7,1-1.7,1.5-2.9,1.5c-2.1,0-3.6-1.4-3.6-3.7
	c0-2.3,1.6-3.7,3.6-3.7c1.2,0,2.2,0.5,2.9,1.5l1.5-0.9c-0.8-1.5-2.4-2.3-4.3-2.3c-3.3,0-5.6,2.2-5.6,5.4
	C867,125.9,869.3,128.1,872.6,128.1z M879.3,128h1.9v-14.8h-1.9V128z M885.8,115.4c0.8,0,1.3-0.6,1.3-1.3c0-0.7-0.6-1.2-1.3-1.2
	c-0.7,0-1.3,0.6-1.3,1.3C884.5,114.8,885.1,115.4,885.8,115.4z M884.8,128h1.9v-10.6h-1.9V128z M900,122.8c0-3.3-2.2-5.5-5.2-5.5
	c-3.1,0-5.3,2.3-5.3,5.4c0,3.2,2.3,5.4,5.7,5.4c1.8,0,3.2-0.6,4.2-1.7l-1.1-1.2c-0.8,0.9-1.8,1.3-3.1,1.3c-2.1,0-3.6-1.2-3.8-3.1
	h8.6C900,123.2,900,122.9,900,122.8z M894.8,118.9c1.9,0,3.2,1.3,3.4,3h-6.8C891.6,120.2,892.9,118.9,894.8,118.9z M908.3,117.3
	c-1.7,0-3,0.6-3.8,1.7v-1.6h-1.8V128h1.9v-5.5c0-2.3,1.3-3.5,3.4-3.5c1.8,0,2.9,1,2.9,3.1v5.9h1.9v-6.1
	C912.7,118.8,910.9,117.3,908.3,117.3z M921.6,126c-0.4,0.3-0.9,0.5-1.5,0.5c-1.1,0-1.7-0.6-1.7-1.8V119h3v-1.6h-3v-2.3h-1.9v2.3
	h-1.8v1.6h1.8v5.8c0,2.1,1.2,3.3,3.4,3.3c0.9,0,1.7-0.2,2.3-0.7L921.6,126z M924.1,119.4h1.4l0.1-5.4H924L924.1,119.4z M931.8,128.1
	c2.8,0,4.6-1.2,4.6-3.1c0-4.1-6.7-2.1-6.7-4.6c0-0.8,0.8-1.5,2.5-1.5c1,0,2.1,0.2,3.1,0.8l0.8-1.5c-0.9-0.6-2.5-1-3.9-1
	c-2.7,0-4.4,1.3-4.4,3.2c0,4.2,6.7,2.2,6.7,4.5c0,0.9-0.7,1.4-2.5,1.4c-1.4,0-2.8-0.5-3.7-1.1l-0.8,1.5
	C928.3,127.6,930,128.1,931.8,128.1z M949.8,117.3c-1.7,0-3,0.6-3.8,1.7v-1.6h-1.8V128h1.9v-5.5c0-2.3,1.3-3.5,3.4-3.5
	c1.8,0,2.9,1,2.9,3.1v5.9h1.9v-6.1C954.2,118.8,952.4,117.3,949.8,117.3z M967.4,122.8c0-3.3-2.2-5.5-5.2-5.5s-5.3,2.3-5.3,5.4
	c0,3.2,2.3,5.4,5.7,5.4c1.8,0,3.2-0.6,4.2-1.7l-1.1-1.2c-0.8,0.9-1.8,1.3-3.1,1.3c-2.1,0-3.6-1.2-3.8-3.1h8.6
	C967.4,123.2,967.4,122.9,967.4,122.8z M962.2,118.9c1.9,0,3.2,1.3,3.4,3h-6.8C959,120.2,960.3,118.9,962.2,118.9z M979.7,122.8
	c0-3.3-2.2-5.5-5.2-5.5s-5.3,2.3-5.3,5.4c0,3.2,2.3,5.4,5.7,5.4c1.8,0,3.2-0.6,4.2-1.7l-1.1-1.2c-0.8,0.9-1.8,1.3-3.1,1.3
	c-2.1,0-3.6-1.2-3.8-3.1h8.6C979.6,123.2,979.7,122.9,979.7,122.8z M974.4,118.9c1.9,0,3.2,1.3,3.4,3H971
	C971.2,120.2,972.6,118.9,974.4,118.9z M990.4,113.2v5.8c-0.9-1.1-2.2-1.7-3.7-1.7c-3.1,0-5.4,2.2-5.4,5.4c0,3.2,2.3,5.4,5.4,5.4
	c1.6,0,2.9-0.6,3.8-1.8v1.7h1.8v-14.8H990.4z M986.9,126.4c-2,0-3.6-1.5-3.6-3.7c0-2.3,1.5-3.7,3.6-3.7c2,0,3.6,1.5,3.6,3.7
	C990.4,125,988.9,126.4,986.9,126.4z"/>
<path class="st3" d="M330.1,52.7V77h-4.5V56.5h-5.1v-3.8H330.1z M345.1,77.3c-1.9,0-3.7-0.5-5.2-1.5c-1.5-1-2.7-2.4-3.6-4.3
	c-0.9-1.9-1.3-4.1-1.3-6.7c0-2.6,0.4-4.8,1.3-6.7c0.9-1.9,2.1-3.3,3.6-4.3c1.5-1,3.3-1.5,5.2-1.5c1.9,0,3.7,0.5,5.2,1.5
	c1.6,1,2.8,2.4,3.6,4.3c0.9,1.9,1.3,4.1,1.3,6.7c0,2.6-0.4,4.8-1.3,6.7c-0.9,1.9-2.1,3.3-3.6,4.3C348.7,76.9,347,77.3,345.1,77.3z
	 M345.1,73.4c1.7,0,3.1-0.7,4.1-2.2c1-1.4,1.5-3.6,1.5-6.4c0-2.8-0.5-5-1.5-6.4c-1-1.4-2.4-2.2-4.1-2.2c-1.7,0-3.1,0.7-4.1,2.2
	c-1,1.4-1.5,3.6-1.5,6.4c0,2.8,0.5,5,1.5,6.4C342,72.7,343.3,73.4,345.1,73.4z M368.4,77.3c-1.9,0-3.7-0.5-5.2-1.5
	c-1.5-1-2.7-2.4-3.6-4.3c-0.9-1.9-1.3-4.1-1.3-6.7c0-2.6,0.4-4.8,1.3-6.7c0.9-1.9,2.1-3.3,3.6-4.3c1.5-1,3.3-1.5,5.2-1.5
	s3.7,0.5,5.2,1.5c1.6,1,2.8,2.4,3.6,4.3c0.9,1.9,1.3,4.1,1.3,6.7c0,2.6-0.4,4.8-1.3,6.7c-0.9,1.9-2.1,3.3-3.6,4.3
	C372.1,76.9,370.4,77.3,368.4,77.3z M368.4,73.4c1.7,0,3.1-0.7,4.1-2.2c1-1.4,1.5-3.6,1.5-6.4c0-2.8-0.5-5-1.5-6.4
	c-1-1.4-2.4-2.2-4.1-2.2c-1.7,0-3.1,0.7-4.1,2.2c-1,1.4-1.5,3.6-1.5,6.4c0,2.8,0.5,5,1.5,6.4C365.3,72.7,366.7,73.4,368.4,73.4z
	 M387.1,65.8c-1.7,0-3.1-0.6-4.2-1.8c-1.1-1.2-1.6-2.8-1.6-4.8c0-2,0.5-3.6,1.6-4.8c1.1-1.2,2.5-1.8,4.2-1.8c1.7,0,3.1,0.6,4.2,1.8
	c1.1,1.2,1.6,2.8,1.6,4.8c0,2-0.5,3.6-1.6,4.9C390.2,65.2,388.8,65.8,387.1,65.8z M401.7,52.7h3.4L388.5,77h-3.4L401.7,52.7z
	 M387.1,63.3c1,0,1.7-0.4,2.2-1.1c0.5-0.7,0.8-1.8,0.8-3.1c0-1.3-0.3-2.4-0.8-3.1c-0.5-0.7-1.2-1.1-2.2-1.1c-0.9,0-1.6,0.4-2.2,1.1
	c-0.5,0.7-0.8,1.8-0.8,3.1c0,1.3,0.3,2.4,0.8,3.1C385.4,63,386.2,63.3,387.1,63.3z M403,77.2c-1.7,0-3.1-0.6-4.2-1.8
	c-1.1-1.2-1.6-2.8-1.6-4.8c0-2,0.5-3.6,1.6-4.8c1.1-1.2,2.5-1.8,4.2-1.8s3.1,0.6,4.2,1.8c1.1,1.2,1.6,2.8,1.6,4.8
	c0,2-0.5,3.6-1.6,4.8C406.2,76.6,404.8,77.2,403,77.2z M403,74.8c0.9,0,1.7-0.4,2.2-1.1c0.5-0.8,0.8-1.8,0.8-3.1
	c0-1.3-0.3-2.4-0.8-3.1c-0.5-0.8-1.3-1.1-2.2-1.1c-0.9,0-1.7,0.4-2.2,1.1c-0.5,0.7-0.8,1.8-0.8,3.1s0.3,2.4,0.8,3.1
	C401.4,74.4,402.1,74.8,403,74.8z"/>
<path class="st3" d="M247.3,291.2v3.8h-20.7v-3l14.3-17.5h-14.1v-3.8h20v3l-14.3,17.5H247.3z M269.7,291.2v3.8h-18.2v-24.3h17.8v3.8
	H256v6.3h11.7v3.7H256v6.7H269.7z M290.6,295l-5-7.1c-0.2,0-0.5,0-0.9,0h-5.5v7.1h-4.5v-24.3h10c2.1,0,3.9,0.3,5.5,1
	c1.6,0.7,2.8,1.7,3.6,3s1.3,2.8,1.3,4.6c0,1.8-0.5,3.4-1.4,4.7c-0.9,1.3-2.2,2.3-3.8,3l5.6,8H290.6z M290.5,279.3
	c0-1.6-0.5-2.7-1.5-3.6c-1-0.8-2.5-1.3-4.5-1.3h-5.3v9.7h5.3c2,0,3.5-0.4,4.5-1.3C290,282.1,290.5,280.9,290.5,279.3z M311.5,295.3
	c-2.5,0-4.7-0.5-6.7-1.6c-2-1.1-3.6-2.6-4.7-4.5c-1.1-1.9-1.7-4.1-1.7-6.4s0.6-4.5,1.7-6.4c1.1-1.9,2.7-3.4,4.7-4.5
	c2-1.1,4.2-1.6,6.7-1.6s4.7,0.5,6.7,1.6c2,1.1,3.6,2.5,4.7,4.4c1.1,1.9,1.7,4,1.7,6.4s-0.6,4.5-1.7,6.4c-1.1,1.9-2.7,3.4-4.7,4.5
	C316.2,294.8,314,295.3,311.5,295.3z M311.5,291.4c1.6,0,3.1-0.4,4.4-1.1c1.3-0.7,2.3-1.8,3.1-3.1c0.7-1.3,1.1-2.8,1.1-4.4
	s-0.4-3.1-1.1-4.4c-0.7-1.3-1.8-2.3-3.1-3.1c-1.3-0.7-2.8-1.1-4.4-1.1c-1.6,0-3.1,0.4-4.4,1.1c-1.3,0.7-2.3,1.7-3.1,3.1
	c-0.7,1.3-1.1,2.8-1.1,4.4s0.4,3.1,1.1,4.4c0.7,1.3,1.8,2.3,3.1,3.1C308.4,291,309.9,291.4,311.5,291.4z"/>
<path class="st3" d="M331.1,485.7V510h-4.5v-20.5h-5.1v-3.8H331.1z M365,484.2V510h-4.2v-2.4c-0.7,0.9-1.6,1.5-2.7,2
	c-1,0.4-2.2,0.7-3.5,0.7c-1.8,0-3.4-0.4-4.8-1.2c-1.4-0.8-2.5-1.9-3.3-3.3c-0.8-1.5-1.2-3.1-1.2-5s0.4-3.5,1.2-5
	c0.8-1.4,1.9-2.5,3.3-3.3c1.4-0.8,3-1.2,4.8-1.2c1.2,0,2.4,0.2,3.4,0.6c1,0.4,1.9,1,2.6,1.9v-9.5H365z M355.2,506.5
	c1,0,2-0.2,2.8-0.7c0.8-0.5,1.5-1.2,2-2c0.5-0.9,0.7-1.9,0.7-3.1c0-1.2-0.2-2.2-0.7-3.1c-0.5-0.9-1.1-1.6-2-2
	c-0.8-0.5-1.8-0.7-2.8-0.7c-1,0-2,0.2-2.8,0.7c-0.8,0.5-1.5,1.1-2,2c-0.5,0.9-0.7,1.9-0.7,3.1c0,1.2,0.2,2.2,0.7,3.1
	c0.5,0.9,1.1,1.6,2,2C353.2,506.3,354.2,506.5,355.2,506.5z M377.8,491.2c2.7,0,4.8,0.7,6.3,2c1.5,1.3,2.2,3.3,2.2,5.9V510h-4.1
	v-2.3c-0.5,0.8-1.3,1.4-2.3,1.9c-1,0.4-2.2,0.6-3.5,0.6c-1.4,0-2.6-0.2-3.6-0.7c-1-0.5-1.9-1.1-2.4-2c-0.6-0.9-0.8-1.8-0.8-2.9
	c0-1.7,0.6-3,1.8-4c1.3-1,3.2-1.5,5.9-1.5h4.8v-0.3c0-1.3-0.4-2.3-1.2-3c-0.8-0.7-1.9-1-3.4-1c-1,0-2.1,0.2-3.1,0.5
	c-1,0.3-1.8,0.8-2.5,1.4l-1.7-3.2c1-0.7,2.1-1.3,3.5-1.7C374.8,491.4,376.2,491.2,377.8,491.2z M377.2,507.1c1.1,0,2.1-0.2,2.9-0.7
	c0.9-0.5,1.5-1.2,1.8-2.2V502h-4.5c-2.5,0-3.8,0.8-3.8,2.5c0,0.8,0.3,1.4,0.9,1.9C375.2,506.9,376.1,507.1,377.2,507.1z
	 M408.8,491.5l-8.7,20c-0.8,2-1.8,3.4-3,4.2c-1.2,0.8-2.6,1.2-4.2,1.2c-0.9,0-1.8-0.2-2.7-0.5c-0.9-0.3-1.6-0.7-2.2-1.3l1.7-3.2
	c0.4,0.4,0.9,0.7,1.5,0.9c0.6,0.2,1.2,0.3,1.7,0.3c0.8,0,1.4-0.2,1.9-0.6c0.5-0.4,1-1.1,1.4-2l0.3-0.7l-8.1-18.6h4.5l5.8,13.7
	l5.9-13.7H408.8z"/>
<path class="st3" d="M741.1,485.7V510h-4.5v-20.5h-5.1v-3.8H741.1z M756.1,510.3c-1.9,0-3.7-0.5-5.2-1.5c-1.5-1-2.7-2.4-3.6-4.3
	c-0.9-1.9-1.3-4.1-1.3-6.7c0-2.6,0.4-4.8,1.3-6.7c0.9-1.9,2.1-3.3,3.6-4.3c1.5-1,3.3-1.5,5.2-1.5c1.9,0,3.7,0.5,5.2,1.5
	c1.6,1,2.8,2.4,3.6,4.3c0.9,1.9,1.3,4.1,1.3,6.7c0,2.6-0.4,4.8-1.3,6.7c-0.9,1.9-2.1,3.3-3.6,4.3C759.7,509.9,758,510.3,756.1,510.3
	z M756.1,506.4c1.7,0,3.1-0.7,4.1-2.2c1-1.4,1.5-3.6,1.5-6.4c0-2.8-0.5-5-1.5-6.4c-1-1.4-2.4-2.2-4.1-2.2c-1.7,0-3.1,0.7-4.1,2.2
	c-1,1.4-1.5,3.6-1.5,6.4c0,2.8,0.5,5,1.5,6.4C753,505.7,754.3,506.4,756.1,506.4z M779.4,510.3c-1.9,0-3.7-0.5-5.2-1.5
	c-1.5-1-2.7-2.4-3.6-4.3c-0.9-1.9-1.3-4.1-1.3-6.7c0-2.6,0.4-4.8,1.3-6.7c0.9-1.9,2.1-3.3,3.6-4.3c1.5-1,3.3-1.5,5.2-1.5
	s3.7,0.5,5.2,1.5c1.6,1,2.8,2.4,3.6,4.3c0.9,1.9,1.3,4.1,1.3,6.7c0,2.6-0.4,4.8-1.3,6.7c-0.9,1.9-2.1,3.3-3.6,4.3
	C783.1,509.9,781.4,510.3,779.4,510.3z M779.4,506.4c1.7,0,3.1-0.7,4.1-2.2c1-1.4,1.5-3.6,1.5-6.4c0-2.8-0.5-5-1.5-6.4
	c-1-1.4-2.4-2.2-4.1-2.2c-1.7,0-3.1,0.7-4.1,2.2c-1,1.4-1.5,3.6-1.5,6.4c0,2.8,0.5,5,1.5,6.4C776.3,505.7,777.7,506.4,779.4,506.4z
	 M798.1,498.8c-1.7,0-3.1-0.6-4.2-1.8c-1.1-1.2-1.6-2.8-1.6-4.8c0-2,0.5-3.6,1.6-4.8c1.1-1.2,2.5-1.8,4.2-1.8c1.7,0,3.1,0.6,4.2,1.8
	c1.1,1.2,1.6,2.8,1.6,4.8c0,2-0.5,3.6-1.6,4.9C801.2,498.2,799.8,498.8,798.1,498.8z M812.7,485.7h3.4L799.5,510h-3.4L812.7,485.7z
	 M798.1,496.3c1,0,1.7-0.4,2.2-1.1c0.5-0.7,0.8-1.8,0.8-3.1c0-1.3-0.3-2.4-0.8-3.1c-0.5-0.7-1.2-1.1-2.2-1.1c-0.9,0-1.6,0.4-2.2,1.1
	c-0.5,0.7-0.8,1.8-0.8,3.1c0,1.3,0.3,2.4,0.8,3.1C796.4,496,797.2,496.3,798.1,496.3z M814,510.2c-1.7,0-3.1-0.6-4.2-1.8
	c-1.1-1.2-1.6-2.8-1.6-4.8c0-2,0.5-3.6,1.6-4.8c1.1-1.2,2.5-1.8,4.2-1.8s3.1,0.6,4.2,1.8c1.1,1.2,1.6,2.8,1.6,4.8
	c0,2-0.5,3.6-1.6,4.8C817.2,509.6,815.8,510.2,814,510.2z M814,507.8c0.9,0,1.7-0.4,2.2-1.1c0.5-0.8,0.8-1.8,0.8-3.1
	s-0.3-2.4-0.8-3.1c-0.5-0.8-1.3-1.1-2.2-1.1c-0.9,0-1.7,0.4-2.2,1.1c-0.5,0.7-0.8,1.8-0.8,3.1c0,1.3,0.3,2.4,0.8,3.1
	C812.4,507.4,813.1,507.8,814,507.8z"/>
<path class="st3" d="M756.3,73.2V77h-17.9v-3l9.7-9.2c1.1-1,1.8-1.9,2.2-2.7c0.4-0.8,0.6-1.6,0.6-2.3c0-1.1-0.4-2-1.1-2.6
	c-0.8-0.6-1.9-0.9-3.4-0.9c-2.5,0-4.4,0.8-5.7,2.5l-3.2-2.4c0.9-1.3,2.2-2.3,3.8-3c1.6-0.7,3.4-1.1,5.4-1.1c2.6,0,4.7,0.6,6.3,1.9
	c1.6,1.3,2.4,3,2.4,5.1c0,1.3-0.3,2.6-0.8,3.7c-0.6,1.2-1.6,2.5-3.2,4l-6.5,6.2H756.3z M780.1,71.5h-4.3V77h-4.4v-5.5H758v-3.1
	l12-15.7h4.8l-11.3,15h8v-4.9h4.2v4.9h4.3V71.5z M791.7,47.8h3.9l-11.5,32.7h-3.9L791.7,47.8z M814.4,52.7v3L805,77h-4.8l9.1-20.5
	h-9.6v4.1h-4.2v-8H814.4z"/>
</svg>
