<svg width="315" height="180" viewBox="0 0 315 180" fill="none" xmlns="http://www.w3.org/2000/svg">
<g clip-path="url(#clip0_8_2759)">
<path opacity="0.55" d="M451.967 64.5L450.766 33.1L449.664 62.9L449.364 62.7V127.7H350.918V149.9H306.853V98.7H265.091V84.3H260.584V42.4H254.776V24H211.411V42.4H205.703V84.3H201.196V140.4H159.334V72.6L114.869 92V130.9H106.957V108.9L95.3396 101.4V74.3H70.4027V140.5H39.8575V126.7H36.4525V115.7H20.1283V126.7H16.7233V150H1V173H16.7233H21.931H39.7574H70.3026H80.6178H84.0229H95.2395H114.668H122.78H147.717H159.134H200.996H222.328H249.468H264.79H306.552H474V71.5L451.967 64.5ZM217.12 83.9H212.613V79.4H217.12V83.9ZM217.12 75H212.613V70.5H217.12V75ZM76.8122 114.2H74.5088V77.8H76.8122V114.2ZM83.6223 114.2H81.3189V77.8H83.6223V114.2ZM90.3322 114.2H88.0288V77.8H90.3322V114.2ZM224.631 75H220.124V70.5H224.631V75ZM232.142 75H227.635V70.5H232.142V75ZM239.653 100.5H235.147V96H239.653V100.5ZM239.653 83.9H235.147V79.4H239.653V83.9ZM239.653 75H235.147V70.5H239.653V75ZM247.164 83.9H242.658V79.4H247.164V83.9ZM155.729 110.3H151.222V105.8H155.729V110.3ZM144.913 110.3H140.406V105.8H144.913V110.3ZM155.729 101.1H151.222V96.6H155.729V101.1ZM144.913 101.1H140.406V96.6H144.913V101.1ZM134.197 110.3H129.69V105.8H134.197V110.3ZM134.197 94.7H129.69V90.2H134.197V94.7ZM77.2128 126.1H74.2083V123H77.2128V126.1ZM77.2128 138H74.2083V135H77.2128V138ZM37.3538 133.5H34.3493V130.4H37.3538V133.5ZM37.3538 152.1H34.3493V149.1H37.3538V152.1ZM37.3538 146.4H34.3493V143.4H37.3538V146.4ZM30.5437 133.5H27.5393V130.4H30.5437V133.5ZM30.5437 156.9H27.5393V153.9H30.5437V156.9ZM275.106 109.6H272.101V106.5H275.106V109.6ZM283.017 109.6H280.013V106.5H283.017V109.6ZM290.929 109.6H287.925V106.5H290.929V109.6ZM455.773 88.6H452.769V80.2H455.773V88.6ZM455.773 100.2H452.769V91.8H455.773V100.2ZM283.017 120.3H280.013V117.2H283.017V120.3ZM290.929 120.3H287.925V117.2H290.929V120.3ZM275.106 131.1H272.101V128H275.106V131.1ZM283.017 131.1H280.013V128H283.017V131.1ZM275.106 141.9H272.101V138.8H275.106V141.9ZM30.5437 164.4H27.5393V161.3H30.5437V164.4ZM23.7336 133.5H20.7292V130.4H23.7336V133.5ZM77.2128 158.4H74.2083V155.4H77.2128V158.4ZM33.8486 126.1H32.3464V118.8H33.8486V126.1ZM30.4436 126.1H28.9413V118.8H30.4436V126.1ZM27.0385 126.1H25.4362V118.8H26.9384V126.1H27.0385ZM23.6335 126.1H22.1313V118.8H23.6335V126.1ZM90.7328 144.1H87.7283V141.1H90.7328V144.1ZM99.646 138H96.6415V135H99.646V138ZM99.646 144.1H96.6415V141.1H99.646V144.1ZM99.646 150H96.6415V147H99.646V150ZM254.675 83.9H250.169V79.4H254.675V83.9ZM254.675 75H250.169V70.5H254.675V75Z" fill="#D0D0D0"/>
<g clip-path="url(#clip1_8_2759)">
<path d="M195.554 48.0378C207.205 48.0378 216.65 57.5079 216.65 69.1889C216.65 73.537 215.339 76.0181 212.864 80.9435C209.263 88.1167 215.204 91.1506 215.204 91.1506C215.204 91.1506 199.621 91.2611 195.542 91.2611C183.891 91.2611 174.446 80.8821 174.446 69.2011C174.458 57.5079 183.903 48.0378 195.554 48.0378Z" fill="#EF6238"/>
<path d="M270.922 99.9445C270.481 99.9691 270.101 100.51 270.101 100.51L266.487 105.349L265.09 103.838C263.939 102.585 259.761 105.754 260.643 104.293L266.732 95.7929C266.732 95.7929 267.332 94.798 268.827 94.3804C270.591 93.8891 279.669 92.4151 279.669 92.4151C279.669 92.4151 281.078 92.452 280.049 93.6925C279.02 94.9331 274.597 95.7561 274.597 95.7561C274.597 95.7561 274.229 95.8912 274.401 95.928C274.805 96.014 278.628 95.1788 279.583 94.4664C280.539 93.754 283.393 89.1847 285.415 89.2707C286.235 89.3076 280.33 97.5125 280.33 97.5125C280.33 97.5125 279.816 98.4951 278.383 98.6794C276.949 98.8513 271.363 99.9199 270.922 99.9445Z" fill="#F7B58E"/>
<path d="M222.825 139.495C222.825 139.495 249.801 144.421 268.422 103.298C260.741 103.298 260.459 103.298 260.459 103.298C260.459 103.298 235.345 130.48 215.927 115.016C196.51 99.5517 222.825 139.495 222.825 139.495Z" fill="#EF6238"/>
<path d="M224.662 174.858L222.727 131.536C222.898 122.373 216.344 112.916 211.076 106.774C210.966 106.701 210.806 106.774 210.672 106.774C206.617 106.774 199.744 106.357 190.776 114.832C182.654 122.509 187.162 166.555 188.534 174.858H224.662Z" fill="#D64C36"/>
<path d="M216.65 167.426C216.65 167.426 220.178 165.338 224.772 165.338C226.953 165.338 229.231 166.898 231.02 168.532C232.453 169.846 231.535 171.823 229.599 171.823H213.722L216.65 167.426Z" fill="#F7B58E"/>
<path d="M201.214 111.036C191.181 104.354 180.767 130.615 180.767 144.421C180.767 158.227 214.604 172.241 214.604 172.241L216.65 167.427C216.65 167.427 198.286 149.015 194.954 142.32C198.213 131.426 208.001 115.556 201.214 111.036Z" fill="#EF6238"/>
<path d="M99.324 94.7617L99.1647 109.489H91.0302L89.6948 103.212L97.7804 94.7617H99.324Z" fill="#F3835F"/>
<path d="M85.2108 104.747C79.1834 96.6653 80.4942 84.9597 80.4942 84.9597L86.2521 81.3977L95.2442 84.8983L97.1309 94.3807C97.1554 94.4666 96.3346 94.5403 96.3591 94.6263C97.1676 98.1638 95.7343 100.301 93.1493 102.831C91.5445 104.403 87.4772 106.7 85.2108 104.747Z" fill="#FD906C"/>
<path d="M94.5586 88.3617C93.6888 86.9123 92.819 83.2275 91.2999 83.9644C90.1973 84.5049 86.2525 85.8683 84.9172 86.2613C81.7197 87.2194 75.6433 87.6738 74.1855 82.7976C73.4627 80.3533 75.19 77.5528 76.5009 76.4719C77.7872 75.4156 79.4533 74.9488 81.1072 75.0225C84.9907 75.2068 90.0503 75.9192 92.2309 75.5875C95.5264 75.084 98.8464 74.9243 99.606 77.6019C100.415 80.4638 100.206 85.205 99.6182 88.3494C99.2752 90.1673 98.6136 91.9114 97.6703 93.4959L94.5586 88.3617Z" fill="#282222"/>
<path d="M81.0935 117.349C81.0935 117.349 72.8977 138.918 67.4338 143.868C61.9699 148.83 55.2932 152.073 55.2932 152.073L59.7158 161.641C59.7158 161.641 78.3983 156.531 81.1057 147.589C82.6494 142.541 81.0935 117.349 81.0935 117.349Z" fill="#D64C36"/>
<path d="M84.5112 101.258L84.5234 100.116L82.3918 100.104C81.963 100.104 81.571 99.9074 81.3014 99.588C81.0319 99.2564 80.9217 98.8265 81.0074 98.4088L81.424 96.7875L80.8237 93.9133L79.8926 98.1878C79.7456 98.937 79.9416 99.7108 80.4194 100.3C80.9094 100.89 81.62 101.234 82.3795 101.234L84.5112 101.258Z" fill="#EF6238"/>
<path d="M84.2293 101.651L85.7239 101.627C86.2752 101.615 86.7285 101.16 86.7162 100.595C86.704 100.042 86.2507 99.5879 85.6871 99.6002L84.1925 99.6248C83.6412 99.6371 83.1879 100.092 83.2002 100.657C83.2124 101.209 83.678 101.651 84.2293 101.651Z" fill="#282222"/>
<path d="M78.8033 174.858L77.8844 133.317C77.7129 124.154 78.8523 112.608 94.1168 106.774C94.2393 106.725 94.3863 106.774 94.5211 106.774C98.5761 106.774 105.449 106.356 114.416 114.831C122.539 122.508 114.355 166.554 112.983 174.858H78.8033Z" fill="#EF6238"/>
<path d="M88.5305 167.426C88.5305 167.426 85.0023 165.338 80.4082 165.338C78.2275 165.338 75.9489 166.898 74.1603 168.532C72.7269 169.846 73.6457 171.823 75.5813 171.823H91.4585L88.5305 167.426Z" fill="#F7B58E"/>
<path d="M103.967 111.036C114.001 104.354 124.414 130.615 124.414 144.421C124.414 158.227 90.5769 172.241 90.5769 172.241L88.531 167.427C88.531 167.427 106.895 149.015 110.227 142.32C106.969 131.426 97.1801 115.556 103.967 111.036Z" fill="#D64C36"/>
<path d="M87.072 75.5631C87.6601 74.6173 91.5558 74.8629 91.5558 74.8629C95.9907 74.8629 99.6047 78.9777 99.6047 83.4241V91.0149H98.3183V83.4241C98.3183 79.6778 95.2801 75.8947 91.5436 75.8947L87.072 75.5631Z" fill="#EF6238"/>
<path d="M98.4039 97.5371C100.9 97.5371 102.924 95.5079 102.924 93.0048C102.924 90.5016 100.9 88.4724 98.4039 88.4724C95.9072 88.4724 93.8833 90.5016 93.8833 93.0048C93.8833 95.5079 95.9072 97.5371 98.4039 97.5371Z" fill="#EF6238"/>
<path d="M86.1909 171.909H26.1128V174.71H86.1909V171.909Z" fill="#282222"/>
<path d="M10.7373 142.959H57.5478L72.9226 174.71H26.1121L10.7373 142.959Z" fill="#282222"/>
<path d="M41.5488 156.593C41.5488 157.637 40.7035 158.473 39.6744 158.473C38.6331 158.473 37.8 157.625 37.8 156.593C37.8 155.549 38.6454 154.714 39.6744 154.714C40.7035 154.714 41.5488 155.562 41.5488 156.593Z" fill="#EDECEC"/>
<path d="M145.068 101.885V112.461L150.079 120.113L154.489 112.78V102.057L145.068 101.885Z" fill="#F3835F"/>
<path d="M167.562 80.3172C167.856 77.3325 168.48 75.5023 167.611 72.579C167.231 71.3262 166.643 70.147 165.883 69.0661C158.582 58.6134 151.807 62.7773 150.08 64.1161V97.5623C150.459 97.3657 151.733 97.6605 156.033 99.1836C164.854 102.303 170.979 98.201 170.979 98.201C170.979 98.201 165.969 96.6656 167.562 80.3172Z" fill="#282222"/>
<path d="M150.08 64.2885V72.9478L150.141 64.3376C150.141 64.3499 150.116 64.3253 150.08 64.2885Z" fill="#282222"/>
<path d="M132.597 80.3172C132.303 77.3325 131.678 75.5023 132.548 72.579C132.927 71.3262 133.516 70.147 134.275 69.0661C141.577 58.6134 148.841 62.7773 150.569 64.1161L150.079 97.5623C149.699 97.3657 148.425 97.6605 144.125 99.1836C135.304 102.303 129.179 98.201 129.179 98.201C129.179 98.201 134.177 96.6656 132.597 80.3172Z" fill="#282222"/>
<path d="M150.067 64.2885V72.9478L150.006 64.3376C150.006 64.3499 150.03 64.3253 150.067 64.2885Z" fill="#282222"/>
<path d="M176.956 143.229L172.571 140.466L186.243 134.349L179.113 121.427C176.491 115.912 165.71 111.306 159.254 111.306L150.078 117.927L141.515 111.048C135.059 111.048 124.878 115.925 122.269 121.427L115.139 134.349L128.811 140.466L124.425 143.229L121.999 164.221L150.691 163.766L179.382 164.221L176.956 143.229Z" fill="#EF6238"/>
<path d="M186.243 134.361L189.06 143.709C191.118 150.526 188.926 157.846 183.364 162.673L170.562 172.696L166.445 161.47L173.526 154.849C175.854 152.675 176.54 149.408 175.278 146.571L172.558 140.466L186.243 134.361Z" fill="#F7B58E"/>
<path d="M115.274 134.361L112.456 143.708C110.398 150.525 112.591 157.846 118.153 162.673L130.955 172.696L135.071 161.469L127.99 154.849C125.663 152.675 124.977 149.408 126.239 146.57L128.958 140.466L115.274 134.361Z" fill="#F7B58E"/>
<path d="M119.047 176H182.629L185.667 138.464C185.778 136.842 184.491 135.467 182.874 135.467H118.668C117.124 135.467 115.862 136.72 115.862 138.28L119.047 176Z" fill="#282222"/>
<path d="M154.612 107.216L150.079 118.025L144.983 107.216L140.45 110.938L150.042 118.737L159.255 111.184L154.612 107.216Z" fill="#D64C36"/>
<path d="M162.35 87.0769C163.956 86.4097 164.719 84.5631 164.054 82.9524C163.388 81.3416 161.547 80.5768 159.94 81.244C158.334 81.9112 157.571 83.7578 158.236 85.3685C158.902 86.9792 160.743 87.7441 162.35 87.0769Z" fill="#EF6238"/>
<path d="M139.697 87.0776C141.304 86.4104 142.067 84.5638 141.401 82.9531C140.736 81.3424 138.894 80.5775 137.288 81.2447C135.681 81.9119 134.918 83.7585 135.584 85.3692C136.249 86.9799 138.091 87.7448 139.697 87.0776Z" fill="#EF6238"/>
<path d="M149.907 103.298C146.134 103.298 143.292 101.112 141.503 98.0534C140.241 95.9039 139.616 93.4351 139.616 90.9417V81.5576C139.616 75.8829 144.247 71.24 149.907 71.24C155.567 71.24 160.198 75.8829 160.198 81.5576V90.4749C160.198 92.4033 159.818 94.3317 159.046 96.1004C157.196 100.375 154.513 103.298 149.907 103.298Z" fill="#FD906C"/>
<path d="M150.201 69.999C146.869 64.1646 136.358 71.2395 136.358 71.2395L139.592 84.1611C139.592 84.1611 147.543 82.8591 150.152 76.7914C152.431 82.8591 160.21 84.1611 160.21 84.1611L164.057 71.2395C164.045 71.2395 153.533 64.1769 150.201 69.999Z" fill="#282222"/>
<path d="M137.056 82.2575C137.007 81.9259 136.003 74.028 140.327 69.078C142.532 66.5478 145.718 65.2581 149.785 65.2581C153.913 65.2581 157.148 66.5478 159.402 69.1026C163.69 73.9543 162.82 81.5451 162.783 81.8644L160.958 81.6556C160.97 81.5451 161.876 74.4825 158.115 70.2326C156.204 68.0708 153.399 66.9777 149.797 66.9777C146.244 66.9777 143.5 68.0708 141.626 70.208C137.816 74.5807 138.992 81.9504 139.004 82.0241L137.056 82.2575Z" fill="#EF6238"/>
<path d="M147.69 98.4588C147.555 98.4465 144.076 98.2009 141.233 96.9849C138.624 95.8672 136.933 93.2878 136.933 90.4259V86.2006H138.648V90.4259C138.648 92.5999 139.923 94.5652 141.907 95.4004C144.48 96.5059 147.543 96.7392 147.567 96.7392L147.69 98.4588Z" fill="#EF6238"/>
<path d="M152.787 99.736H148.585C147.985 99.736 147.495 99.2447 147.495 98.6429V96.6408C147.495 96.0389 147.985 95.5476 148.585 95.5476H152.787C153.387 95.5476 153.877 96.0389 153.877 96.6408V98.6429C153.877 99.2447 153.387 99.736 152.787 99.736Z" fill="#EF6238"/>
<path d="M150.08 156.74C151.128 156.74 151.978 155.888 151.978 154.836C151.978 153.785 151.128 152.933 150.08 152.933C149.031 152.933 148.181 153.785 148.181 154.836C148.181 155.888 149.031 156.74 150.08 156.74Z" fill="white"/>
<path d="M211.908 100.215L209.912 112.473L201.581 105.177L204.264 91.8134L211.908 100.215Z" fill="#F3835F"/>
<path d="M213.342 79.2357C207.388 80.0464 204.423 87.6986 204.423 87.6986L204.497 110.348L194.292 101.885C194.292 101.885 193.422 91.1746 195.97 80.0341C198.175 73.0206 207.094 71.1782 213.354 74.5928C216.392 76.251 218.206 79.5182 219.284 82.7609C220.729 87.109 220.852 91.801 219.896 96.2843L216.356 112.903L210.806 107.007C210.806 107.007 210.806 104.28 211.921 100.19C214.175 91.8747 217.348 78.683 213.342 79.2357Z" fill="#282222"/>
<path d="M202.671 88.0182C203.333 87.3672 204.594 87.4901 205.464 88.2884C206.334 89.0868 206.506 90.266 205.832 90.9047C205.17 91.5557 203.921 91.4328 203.039 90.6345C202.169 89.8361 202.01 88.6569 202.671 88.0182Z" fill="#F7B58E"/>
<path d="M214.395 100.399C215.547 100.362 216.613 100.178 217.176 99.6744C220.496 94.356 216.711 80.0342 216.711 80.0342L211.394 77.5776L204.644 82.2083L204.264 91.8134C204.166 94.3805 205.281 96.8371 207.277 98.4339C209.421 99.7481 211.884 100.485 214.395 100.399Z" fill="#FD906C"/>
<path d="M214.469 78.4494C215.743 82.7361 203.811 87.944 203.811 87.944L201.581 82.3553L206.775 75.9683L213.342 77.0246C213.342 77.0246 214.248 77.737 214.469 78.4494Z" fill="#282222"/>
<path d="M214.542 79.3463C214.775 81.0291 217.408 83.0803 217.408 83.0803L217.654 81.0659L217.053 79.6411L215.706 78.8918C215.706 78.8918 214.297 77.6636 214.542 79.3463Z" fill="#282222"/>
<path d="M233.446 168.114C233.495 167.525 233.14 166.972 232.589 166.751L227.235 164.663C225.912 164.147 224.442 164.135 223.119 164.638L217.826 166.911L216.65 168.569L216.883 171.517C217.912 171.087 218.513 170.829 218.513 170.829L221.906 170.399C221.906 170.399 229.208 175.349 231.56 169.687C232.54 175.165 234.083 174.489 234.083 174.489L233.446 168.114Z" fill="#F7B58E"/>
<path d="M276.337 171.91H216.259V174.711H276.337V171.91Z" fill="#282222"/>
<path d="M293.794 142.959H246.983L231.608 174.711H278.419L293.794 142.959Z" fill="#282222"/>
<path d="M263.473 156.593C263.473 157.637 264.318 158.472 265.348 158.472C266.389 158.472 267.222 157.625 267.222 156.593C267.222 155.549 266.377 154.714 265.348 154.714C264.306 154.714 263.473 155.561 263.473 156.593Z" fill="#EDECEC"/>
<path d="M192.453 74.3384L200.343 65.2982C201.911 65.8018 203.736 65.335 204.924 63.9717C205.794 62.9767 206.137 61.7239 206.002 60.5325L204.679 62.0433C203.908 62.9276 202.94 63.4435 202.045 63.2715L199.767 61.2694L199.742 61.294C199.411 60.4096 199.803 59.3656 200.588 58.4567L201.923 56.9336C200.722 56.9459 199.522 57.4618 198.652 58.4567C197.427 59.8569 197.231 61.7853 198.003 63.2838L197.941 63.3452L197.856 63.2715L190.052 72.2134C188.484 71.7098 186.658 72.1766 185.47 73.54C184.6 74.5349 184.257 75.7877 184.392 76.9792L185.715 75.4684C186.487 74.584 187.455 74.0681 188.349 74.2401L190.628 76.2422L190.652 76.2176C190.983 77.102 190.591 78.146 189.807 79.055L188.471 80.578C189.672 80.5658 190.873 80.0499 191.742 79.055C192.943 77.6916 193.164 75.8246 192.453 74.3384Z" fill="white"/>
<path d="M49.9279 68.6232C59.8266 68.6232 67.8632 76.6684 67.8632 86.6052C67.8632 90.3024 66.7483 92.4027 64.6534 96.5912C61.5907 102.683 66.6381 105.263 66.6381 105.263C66.6381 105.263 53.3949 105.349 49.9279 105.349C40.0292 105.349 31.9927 96.5298 31.9927 86.5929C31.9927 76.6684 40.017 68.6232 49.9279 68.6232Z" fill="#EF6238"/>
<path d="M113.388 24.2458C125.896 26.076 134.569 37.7201 132.744 50.2731C132.07 54.9406 130.282 57.3972 126.851 62.298C121.865 69.4343 127.77 73.6228 127.77 73.6228C127.77 73.6228 111.023 71.2891 106.65 70.6503C94.1293 68.8202 85.6027 56.1935 87.4281 43.6527C89.2535 31.0996 100.88 22.4157 113.388 24.2458Z" fill="#282222"/>
<path d="M283.513 85.5615C289.316 79.7431 289.316 70.3096 283.513 64.4912C277.709 58.6728 268.3 58.6728 262.497 64.4912C256.694 70.3096 256.694 79.7431 262.497 85.5615C268.3 91.3799 277.709 91.3799 283.513 85.5615Z" fill="#282222"/>
<path d="M124.438 49.7202C124.34 49.4254 123.31 48.8235 122.061 48.3813C122.122 47.239 122.024 46.109 121.767 45.0159C122.82 44.5368 123.886 43.9104 123.972 43.3454C124.156 42.1908 122.392 39.55 121.951 39.3412C121.669 39.2061 120.481 39.5131 119.268 40.115C118.545 39.2798 117.7 38.5305 116.744 37.9287C117.148 36.8355 117.467 35.6441 117.124 35.1773C116.438 34.2315 113.338 33.6051 112.873 33.7771C112.579 33.8753 111.978 34.8948 111.55 36.1477C110.398 36.0371 109.247 36.1108 108.144 36.3442C107.666 35.3247 107.078 34.3298 106.527 34.2438C105.375 34.0596 102.741 35.8283 102.533 36.2705C102.411 36.5407 102.668 37.5847 103.182 38.7148C102.264 39.464 101.455 40.3607 100.793 41.3801C99.8011 41.0362 98.7965 40.8028 98.38 41.1099C97.4367 41.7978 96.8119 44.9053 96.9834 45.3721C97.0814 45.63 97.9022 46.1459 98.9803 46.5635C98.8578 47.8286 98.9313 49.0815 99.2131 50.2852C98.331 50.7274 97.5347 51.2555 97.4612 51.7468C97.2774 52.9014 99.0416 55.5422 99.4826 55.751C99.7276 55.8739 100.634 55.6528 101.663 55.2106C102.46 56.1564 103.427 56.9916 104.518 57.6549C104.199 58.6007 104.015 59.5219 104.309 59.9149C104.995 60.8607 108.095 61.4871 108.56 61.3152C108.818 61.2169 109.332 60.3817 109.749 59.3008C110.986 59.3868 112.223 59.2639 113.387 58.9569C113.841 59.8904 114.392 60.7624 114.894 60.8361C116.046 61.0204 118.68 59.2516 118.888 58.8095C119.01 58.5392 118.753 57.4829 118.226 56.3529C119.084 55.5791 119.843 54.6702 120.444 53.6507C121.485 54.0314 122.588 54.3017 123.041 53.9823C123.972 53.2945 124.597 50.1869 124.438 49.7202ZM108.867 52.6558C106.147 51.7591 104.665 48.8235 105.559 46.0967C106.453 43.37 109.381 41.8837 112.101 42.7804C114.821 43.677 116.303 46.6126 115.409 49.3394C114.514 52.0662 111.586 53.5524 108.867 52.6558Z" fill="white"/>
<path d="M59.191 80.0836C57.3411 81.3364 52.1712 82.1225 49.623 78.7079V98.1025C61.0653 90.0326 59.191 80.0836 59.191 80.0836Z" fill="#E5E5E5"/>
<path d="M40.2265 80.0836C42.0763 81.3364 47.2462 82.1225 49.7944 78.7079V98.1025C38.3521 90.0326 40.2265 80.0836 40.2265 80.0836Z" fill="white"/>
<path d="M270.983 75.6245C271.901 74.2243 272.355 73.0451 272.355 72.0993C272.355 71.0676 271.999 70.2692 271.277 69.6919C270.566 69.1146 269.574 68.8198 268.3 68.8198C267.54 68.8198 266.842 69.0164 266.217 69.4094C265.592 69.8025 265.127 70.2938 264.833 70.8833L266.315 72.0502C266.842 71.1413 267.528 70.6868 268.386 70.6868C269.5 70.6868 270.064 71.1536 270.064 72.0871C270.064 72.8732 269.672 73.8558 268.888 75.0104L264.968 80.7956V81.4343H273.078V79.4813H268.434L270.983 75.6245Z" fill="white"/>
<path d="M281.176 76.4595V68.9916H280.208L273.421 76.9386V78.2037H279.057V81.4464H281.164V78.2037H282.413V76.4595H281.176ZM279.057 76.4595H275.884L279.057 72.7378V76.4595Z" fill="white"/>
<path d="M62.18 48.3688C60.3914 50.2481 59.0683 51.1938 58.1739 51.1938C57.6839 51.1938 57.2796 50.9482 56.9366 50.4446C56.6058 49.941 56.4343 49.3146 56.4343 48.5653C56.4343 46.944 56.9856 44.6839 58.0759 41.7975L60.9794 41.1956H61.1142L59.9748 44.7822C59.497 46.2684 59.2643 47.3247 59.2643 47.9512C59.2643 48.2091 59.3255 48.4056 59.4358 48.5653C59.546 48.725 59.6808 48.7987 59.8523 48.7987C60.1463 48.7987 60.4526 48.6881 60.7466 48.467C61.0529 48.246 61.5184 47.7792 62.1677 47.0545V48.3688H62.18ZM61.9472 36.7001C61.9472 38.5302 61.2734 39.4515 59.9258 39.4515C59.2643 39.4515 58.713 39.2549 58.2475 38.8496C58.6885 38.174 59.0315 37.4248 59.2765 36.5773C59.8768 36.9458 60.3669 37.1423 60.7344 37.1423C61.1387 37.1423 61.5429 36.9949 61.9472 36.7001Z" fill="white"/>
<path d="M237.747 56.9337V54.9783L238.152 56.9337H237.747Z" fill="#BFE3ED"/>
<path d="M215.523 98.2865L215.511 97.1442L217.642 97.1319C218.071 97.1319 218.463 96.9354 218.733 96.616C219.002 96.2844 219.112 95.8545 219.027 95.4369L218.488 94.0612L218.475 90.5729L220.142 95.2158C220.289 95.965 220.093 96.7389 219.615 97.3284C219.125 97.918 218.414 98.2619 217.655 98.2619L215.523 98.2865Z" fill="#EF6238"/>
<path d="M215.805 98.6673L214.31 98.6428C213.759 98.6305 213.306 98.176 213.318 97.611C213.33 97.0583 213.783 96.6038 214.347 96.6161L215.842 96.6407C216.393 96.6529 216.846 97.1074 216.834 97.6724C216.822 98.2374 216.356 98.6796 215.805 98.6673Z" fill="black"/>
<path d="M212.228 74.0651C211.64 73.1194 208.48 73.365 208.48 73.365C204.045 73.365 200.431 77.4798 200.431 81.9261V89.5169H201.717V81.9261C201.717 78.1799 204.755 74.3968 208.492 74.3968L212.228 74.0651Z" fill="#EF6238"/>
<path d="M204.015 95.3722C206.139 94.0563 206.796 91.2632 205.484 89.1338C204.172 87.0044 201.386 86.3449 199.262 87.6608C197.138 88.9767 196.48 91.7697 197.793 93.8991C199.105 96.0286 201.891 96.6881 204.015 95.3722Z" fill="#EF6238"/>
<path d="M233.079 24.3436C226.476 24.3436 221.122 29.7112 221.122 36.3317C221.122 38.8005 221.857 40.2008 223.266 42.989C225.312 47.0546 221.943 48.7742 221.943 48.7742C221.943 48.7742 230.776 48.8356 233.079 48.8356C239.682 48.8356 245.036 42.9521 245.036 36.3317C245.036 29.6989 239.682 24.3436 233.079 24.3436Z" fill="#EF6238"/>
<path d="M228.31 38.0021C229.1 37.815 229.589 37.0212 229.403 36.2289C229.216 35.4367 228.424 34.9461 227.634 35.1332C226.844 35.3203 226.355 36.1141 226.541 36.9064C226.728 37.6986 227.52 38.1892 228.31 38.0021Z" fill="white"/>
<path d="M233.332 38.0021C234.122 37.815 234.611 37.0212 234.425 36.2289C234.238 35.4367 233.446 34.9461 232.656 35.1332C231.866 35.3203 231.377 36.1141 231.563 36.9064C231.75 37.6986 232.542 38.1892 233.332 38.0021Z" fill="white"/>
<path d="M238.244 37.9989C239.034 37.8118 239.523 37.018 239.337 36.2258C239.15 35.4335 238.359 34.943 237.568 35.13C236.778 35.3171 236.289 36.111 236.476 36.9032C236.662 37.6954 237.454 38.186 238.244 37.9989Z" fill="white"/>
<path d="M54.2436 48.29C60.9403 48.29 66.369 42.871 66.369 36.1864C66.369 29.5018 60.9403 24.0829 54.2436 24.0829C47.5469 24.0829 42.1182 29.5018 42.1182 36.1864C42.1182 42.871 47.5469 48.29 54.2436 48.29Z" fill="#EF6238"/>
<path d="M54.1035 48.3195C60.8285 48.3195 66.2802 42.8754 66.2802 36.1597C66.2802 29.4441 60.8285 24 54.1035 24C47.3785 24 41.9268 29.4441 41.9268 36.1597C41.9268 42.8754 47.3785 48.3195 54.1035 48.3195Z" fill="#EF6238"/>
<path d="M54.2347 31.0718C53.462 31.0418 52.9101 30.8017 52.5912 30.3216C52.2722 29.8565 52.1128 29.2714 52.1128 28.5812C52.1128 27.8911 52.2845 27.3359 52.6402 26.8858C52.9959 26.4357 53.5356 26.2107 54.2593 26.2107C54.9952 26.2107 55.5594 26.4207 55.9519 26.8258C56.3444 27.2459 56.5407 27.8311 56.5407 28.5962C56.5407 29.3614 56.3567 29.9765 55.9765 30.4116C55.5962 30.8917 55.0197 31.1018 54.2347 31.0718Z" fill="white"/>
<path d="M56.5407 32.4014H52.1128V43.8978H56.5407V32.4014Z" fill="white"/>
<path d="M57.2205 43.8972H50.1368C50.0037 43.8972 49.9001 43.8158 49.9001 43.7111C49.9001 43.5714 50.048 43.4551 50.2255 43.4551H57.1762C57.3093 43.4551 57.4276 43.5365 57.4276 43.6529V43.746C57.4128 43.8274 57.324 43.8972 57.2205 43.8972Z" fill="white"/>
<path d="M56.5417 32.8435H49.7493C49.5823 32.8435 49.457 32.7388 49.457 32.5992C49.457 32.4945 49.5684 32.4014 49.6937 32.4014H56.2911C56.4303 32.4014 56.5417 32.4945 56.5417 32.6108V32.8435Z" fill="white"/>
</g>
</g>
<defs>
<clipPath id="clip0_8_2759">
<rect width="315" height="180" fill="white"/>
</clipPath>
<clipPath id="clip1_8_2759">
<rect width="311" height="152" fill="white" transform="translate(4 24)"/>
</clipPath>
</defs>
</svg>
