<svg width="196" height="234" viewBox="0 0 196 234" fill="none" xmlns="http://www.w3.org/2000/svg">
<path d="M74.5097 193.272L83.8634 209.542L98.0531 234L112.19 209.489L121.543 193.219C164.272 182.691 196 144.09 196 98.045C196 43.9182 152.155 1.14257e-05 98 6.69136e-06C43.8449 1.95697e-06 1.66221e-05 43.865 1.18856e-05 98.045C0.053139 144.09 31.7809 182.691 74.5097 193.272Z" fill="#EF6238"/>
<path d="M97.5 11C49.1751 11 10 49.9512 9.99999 98C9.99999 146.049 49.1751 185 97.5 185C145.825 185 185 146.049 185 98C185 49.9512 145.825 11 97.5 11Z" fill="white"/>
<g clip-path="url(#clip0_298_11100)">
<path d="M57.936 144.103H35.558C33.9252 144.103 32.6074 142.773 32.6074 141.145V90.4245C32.6074 88.7878 33.9335 87.4668 35.558 87.4668H57.936C59.5687 87.4668 60.8865 88.7961 60.8865 90.4245V141.145C60.8865 142.782 59.5687 144.103 57.936 144.103Z" fill="#EF6238"/>
<path d="M165.29 144.103H127.628C125.996 144.103 124.678 142.774 124.678 141.145V99.1979C124.678 97.5612 126.004 96.2402 127.628 96.2402H165.29C166.922 96.2402 168.24 97.5695 168.24 99.1979V141.145C168.24 142.782 166.922 144.103 165.29 144.103Z" fill="#EF6238"/>
<path d="M114.305 140.846H101.881V140.132H114.305C116.07 140.132 117.512 138.694 117.512 136.916V132.604H118.225V136.916C118.217 139.085 116.46 140.846 114.305 140.846Z" fill="url(#paint0_linear_298_11100)"/>
<path d="M130.341 98.0262C130.568 98.3364 130.965 98.4615 131.321 98.3322L132.784 97.8313C133.097 97.727 133.44 97.8069 133.681 98.0418C134.391 98.7436 135.177 99.344 136.017 99.8371C136.305 100.006 136.465 100.316 136.448 100.652L136.344 102.199C136.315 102.581 136.541 102.939 136.894 103.071C137.829 103.432 138.799 103.686 139.786 103.854C140.165 103.913 140.532 103.72 140.697 103.375L141.378 101.983C141.524 101.688 141.824 101.495 142.158 101.493C143.131 101.487 144.111 101.361 145.076 101.11C145.402 101.027 145.739 101.13 145.958 101.377L146.975 102.544C147.226 102.831 147.632 102.922 147.976 102.771C148.425 102.569 148.875 102.338 149.313 102.084C149.751 101.831 150.169 101.56 150.575 101.268C150.884 101.041 151.009 100.643 150.879 100.286L150.379 98.8195C150.275 98.5057 150.355 98.1622 150.589 97.9212C151.289 97.2093 151.888 96.4216 152.379 95.5807C152.548 95.2915 152.857 95.1315 153.193 95.1486L154.736 95.2533C155.117 95.2826 155.475 95.0564 155.606 94.7025C155.965 93.7653 156.219 92.7936 156.386 91.8048C156.445 91.4253 156.252 91.0573 155.908 90.8918L154.519 90.2084C154.224 90.0624 154.031 89.7613 154.03 89.4264C154.023 88.4517 153.897 87.4693 153.646 86.5018C153.563 86.1755 153.666 85.8381 153.912 85.6186L155.077 84.5997C155.362 84.3481 155.453 83.9408 155.302 83.5962C155.101 83.1468 154.869 82.6955 154.617 82.2566C154.364 81.8177 154.093 81.3984 153.802 80.9916C153.575 80.6814 153.177 80.5564 152.821 80.6857L151.359 81.1865C151.045 81.2909 150.703 81.211 150.462 80.976C149.751 80.2743 148.965 79.6738 148.126 79.1808C147.837 79.012 147.678 78.7015 147.695 78.3655L147.798 76.8185C147.827 76.4371 147.602 76.0785 147.248 75.9471C146.313 75.5863 145.344 75.3318 144.357 75.164C143.978 75.1048 143.611 75.298 143.446 75.6429L142.765 77.0347C142.619 77.33 142.319 77.523 141.984 77.5244C141.012 77.5306 140.032 77.6564 139.066 77.9078C138.741 77.9906 138.404 77.888 138.185 77.6406L137.168 76.4734C136.917 76.187 136.51 76.096 136.166 76.2469C135.718 76.4487 135.268 76.6804 134.83 76.9337C134.392 77.1869 133.974 77.4577 133.568 77.75C133.259 77.9769 133.134 78.3752 133.263 78.7322L133.764 80.1983C133.868 80.5122 133.788 80.8556 133.554 81.0967C132.854 81.8086 132.255 82.5963 131.763 83.4371C131.595 83.7264 131.285 83.8864 130.95 83.8692L129.406 83.7646C129.026 83.7353 128.668 83.9614 128.537 84.3154C128.177 85.2525 127.924 86.2242 127.757 87.2131C127.698 87.5925 127.891 87.9606 128.235 88.126L129.624 88.8094C129.919 88.9555 130.111 89.2566 130.113 89.5915C130.119 90.5662 130.245 91.5486 130.497 92.5161C130.579 92.8424 130.477 93.1798 130.23 93.3992L129.066 94.4181C128.78 94.6697 128.69 95.0771 128.84 95.4216C129.042 95.8711 129.273 96.3224 129.526 96.7613C129.783 97.2074 130.053 97.6266 130.341 98.0262ZM139.634 85.2541C141.981 83.8963 144.982 84.7026 146.33 87.0595C147.686 89.4123 146.883 92.4193 144.531 93.7699C142.184 95.1276 139.183 94.3213 137.835 91.9644C136.483 89.6188 137.287 86.6118 139.634 85.2541Z" fill="#2A303B"/>
<path d="M128.678 75.5394C128.896 75.0795 128.779 74.5337 128.405 74.1914L126.877 72.8048C126.551 72.511 126.423 72.0464 126.542 71.6234C126.902 70.3473 127.09 69.0355 127.125 67.7376C127.137 67.2989 127.395 66.9017 127.789 66.7127L129.661 65.8344C130.121 65.6169 130.393 65.1314 130.317 64.6299C130.134 63.3076 129.812 62.0079 129.361 60.7466C129.193 60.2677 128.719 59.9623 128.219 59.9902L126.154 60.0933C125.714 60.1184 125.305 59.8814 125.089 59.4994C124.457 58.3618 123.674 57.2981 122.764 56.3326C122.455 56.0102 122.357 55.5443 122.509 55.1313L123.211 53.1889C123.382 52.7104 123.231 52.1731 122.823 51.8692C122.297 51.474 121.75 51.0958 121.168 50.7447C120.592 50.3978 120 50.0794 119.405 49.7981C118.946 49.5796 118.401 49.6972 118.06 50.0729L116.676 51.6043C116.382 51.9316 115.919 52.0593 115.497 51.9406C114.223 51.5801 112.914 51.392 111.619 51.3577C111.182 51.3458 110.785 51.0875 110.597 50.6926L109.718 48.8054C109.502 48.345 109.017 48.0723 108.517 48.1487C107.197 48.3324 105.9 48.6557 104.642 49.1087C104.164 49.2763 103.859 49.7518 103.886 50.2533L103.988 52.322C104.013 52.7636 103.777 53.1737 103.395 53.3898C102.26 54.0239 101.198 54.8091 100.235 55.7212C99.9128 56.0314 99.4478 56.1291 99.0357 55.9776L97.0978 55.2745C96.6204 55.103 96.0842 55.2548 95.7808 55.6633C95.3862 56.1914 95.0087 56.7395 94.6581 57.3232C94.3118 57.8998 93.9939 58.4935 93.7129 59.0901C93.4947 59.55 93.6118 60.0958 93.9866 60.4381L95.5141 61.8247C95.8406 62.1185 95.9678 62.5831 95.8492 63.0061C95.489 64.2821 95.3008 65.594 95.2661 66.8919C95.2541 67.3306 94.9961 67.7278 94.6021 67.9168L92.7299 68.7951C92.2704 69.0126 91.9982 69.4981 92.0742 69.9996C92.257 71.3219 92.5791 72.6216 93.0306 73.8829C93.1977 74.3618 93.672 74.6672 94.1724 74.6393L96.2367 74.5362C96.6774 74.5111 97.0865 74.7481 97.302 75.1301C97.9343 76.2677 98.7173 77.3314 99.6271 78.2969C99.9365 78.6193 100.034 79.0852 99.8826 79.4982L99.1802 81.4406C99.0088 81.9191 99.1601 82.4564 99.5677 82.7603C100.094 83.1555 100.641 83.5337 101.223 83.8848C101.799 84.2317 102.391 84.5501 102.986 84.8314C103.445 85.0499 103.99 84.9323 104.331 84.5566L105.716 83.0252C106.009 82.6979 106.473 82.5702 106.895 82.6889C108.168 83.0494 109.477 83.2375 110.772 83.2718C111.21 83.2837 111.606 83.542 111.794 83.9369L112.67 85.8127C112.887 86.2731 113.371 86.5458 113.872 86.4694C115.191 86.2857 116.488 85.9624 117.747 85.5094C118.225 85.3418 118.53 84.8663 118.502 84.3648L118.4 82.2961C118.375 81.8544 118.612 81.4444 118.993 81.2283C120.128 80.5942 121.19 79.809 122.154 78.8969C122.476 78.5867 122.941 78.489 123.353 78.6404L125.291 79.3436C125.768 79.5151 126.304 79.3633 126.607 78.9548C127.002 78.4267 127.38 77.8786 127.73 77.2949C128.084 76.7226 128.397 76.136 128.678 75.5394ZM107.541 73.3824C104.197 71.3655 103.122 67.0035 105.142 63.655C107.156 60.3022 111.509 59.2231 114.85 61.2471C118.194 63.264 119.27 67.626 117.249 70.9745C115.228 74.323 110.886 75.3993 107.541 73.3824Z" fill="#2A303B"/>
<path d="M92.3898 67.927H70.9069C70.2604 67.927 69.7383 67.4036 69.7383 66.7555V63.8228C69.7383 63.1748 70.2604 62.6514 70.9069 62.6514H92.3898V67.927Z" fill="#0C192D"/>
<path d="M58.698 105.18H30.3028C28.0485 105.18 26.2168 103.352 26.2168 101.084V84.6504H58.698V105.18Z" fill="#414141"/>
<path d="M66.3066 144.103H112.513V67.9268H66.3066V144.103Z" fill="#EF6238"/>
<path d="M49.0137 143.999H66.4747V67.7002H52.3472C50.5074 67.7002 49.0137 69.1729 49.0137 70.9868V143.999Z" fill="#2A2F3A"/>
<path d="M70.832 85.2985H107.988V76.1514H70.832V85.2985Z" fill="#2A2F3A"/>
<path d="M70.832 99.4889H107.988V90.3418H70.832V99.4889Z" fill="#2A2F3A"/>
<path d="M70.832 113.679H107.988V104.532H70.832V113.679Z" fill="#2A2F3A"/>
<path d="M70.832 127.877H107.988V118.722H70.832V127.877Z" fill="#2A2F3A"/>
<path d="M51.5482 78.2266H63.9141V76.6646H51.5482V78.2266Z" fill="#0C192D"/>
<path d="M51.5482 81.5029H63.9141V79.941H51.5482V81.5029Z" fill="#0C192D"/>
<path d="M51.5482 84.7793H63.9141V83.2174H51.5482V84.7793Z" fill="#0C192D"/>
<path d="M51.5482 120.804H63.9141V119.242H51.5482V120.804Z" fill="#0C192D"/>
<path d="M51.5482 124.08H63.9141V122.518H51.5482V124.08Z" fill="#0C192D"/>
<path d="M51.5482 127.356H63.9141V125.795H51.5482V127.356Z" fill="#0C192D"/>
<path d="M104.266 79.8569H106.445V77.6719H104.266V79.8569Z" fill="url(#paint1_linear_298_11100)"/>
<path d="M100.842 79.8569H103.022V77.6719H100.842V79.8569Z" fill="url(#paint2_linear_298_11100)"/>
<path d="M97.4199 79.8569H99.5997V77.6719H97.4199V79.8569Z" fill="#EF6238"/>
<path d="M93.9961 79.8569H96.1759V77.6719H93.9961V79.8569Z" fill="url(#paint3_linear_298_11100)"/>
<path d="M96.1759 91.8789H93.9961V94.0639H96.1759V91.8789Z" fill="url(#paint4_linear_298_11100)"/>
<path d="M99.5997 91.8789H97.4199V94.0639H99.5997V91.8789Z" fill="url(#paint5_linear_298_11100)"/>
<path d="M103.022 91.8789H100.842V94.0639H103.022V91.8789Z" fill="#EF6238"/>
<path d="M106.445 91.8789H104.266V94.0639H106.445V91.8789Z" fill="url(#paint6_linear_298_11100)"/>
<path d="M104.266 108.262H106.445V106.077H104.266V108.262Z" fill="url(#paint7_linear_298_11100)"/>
<path d="M100.844 108.262H103.024V106.077H100.844V108.262Z" fill="url(#paint8_linear_298_11100)"/>
<path d="M97.4199 108.262H99.5997V106.077H97.4199V108.262Z" fill="#EF6238"/>
<path d="M93.998 108.262H96.1778V106.077H93.998V108.262Z" fill="#EF6238"/>
<path d="M104.266 122.519H106.445V120.334H104.266V122.519Z" fill="url(#paint9_linear_298_11100)"/>
<path d="M100.842 122.519H103.022V120.334H100.842V122.519Z" fill="url(#paint10_linear_298_11100)"/>
<path d="M97.4199 122.519H99.5997V120.334H97.4199V122.519Z" fill="#EF6238"/>
<path d="M93.9961 122.519H96.1759V120.334H93.9961V122.519Z" fill="url(#paint11_linear_298_11100)"/>
<path d="M72.6123 112.607H75.1816V105.787H72.6123V112.607Z" fill="#0C192D"/>
<path d="M77.0674 112.607H79.6367V105.787H77.0674V112.607Z" fill="#0C192D"/>
<path d="M81.5264 112.607H84.0957V105.787H81.5264V112.607Z" fill="#0C192D"/>
<path d="M85.9834 112.607H88.5527V105.787H85.9834V112.607Z" fill="#0C192D"/>
<path d="M72.6123 98.3301H75.1816V91.5092H72.6123V98.3301Z" fill="#0C192D"/>
<path d="M77.0674 98.3301H79.6367V91.5092H77.0674V98.3301Z" fill="#0C192D"/>
<path d="M81.5264 98.3301H84.0957V91.5092H81.5264V98.3301Z" fill="#0C192D"/>
<path d="M85.9834 98.3301H88.5527V91.5092H85.9834V98.3301Z" fill="#0C192D"/>
<path d="M72.6123 84.1367H75.1816V77.3158H72.6123V84.1367Z" fill="#0C192D"/>
<path d="M77.0674 84.1367H79.6367V77.3158H77.0674V84.1367Z" fill="#0C192D"/>
<path d="M81.5264 84.1367H84.0957V77.3158H81.5264V84.1367Z" fill="#0C192D"/>
<path d="M85.9834 84.1367H88.5527V77.3158H85.9834V84.1367Z" fill="#0C192D"/>
<path d="M72.6123 126.715H75.1816V119.894H72.6123V126.715Z" fill="#0C192D"/>
<path d="M77.0674 126.715H79.6367V119.894H77.0674V126.715Z" fill="#0C192D"/>
<path d="M81.5264 126.715H84.0957V119.894H81.5264V126.715Z" fill="#0C192D"/>
<path d="M85.9834 126.715H88.5527V119.894H85.9834V126.715Z" fill="#0C192D"/>
<path d="M81.0673 62.6512L102.55 62.6512C103.197 62.6512 103.719 63.1746 103.719 63.8226L103.719 66.7553C103.719 67.4034 103.197 67.9268 102.55 67.9268L81.0673 67.9268L81.0673 62.6512Z" fill="#0C192D"/>
<path d="M100.217 65.2842C100.217 65.9239 99.695 66.4473 99.0568 66.4473C98.4186 66.4473 97.8965 65.9239 97.8965 65.2842C97.8965 64.6445 98.4186 64.1211 99.0568 64.1211C99.695 64.1211 100.217 64.6445 100.217 65.2842Z" fill="white"/>
<path d="M96.2719 65.2842C96.2719 65.9239 95.7497 66.4473 95.1115 66.4473C94.4733 66.4473 93.9512 65.9239 93.9512 65.2842C93.9512 64.6445 94.4733 64.1211 95.1115 64.1211C95.758 64.1211 96.2719 64.6445 96.2719 65.2842Z" fill="white"/>
<path d="M92.3363 65.2842C92.3363 65.9239 91.8142 66.4473 91.176 66.4473C90.5378 66.4473 90.0156 65.9239 90.0156 65.2842C90.0156 64.6445 90.5378 64.1211 91.176 64.1211C91.8142 64.1211 92.3363 64.6445 92.3363 65.2842Z" fill="#EF6238"/>
<path d="M88.0038 61.5546H87.2744L87.233 60.5576H87.1418C87.0507 60.5576 86.9761 60.4829 86.9761 60.3915V60.3333C86.9761 60.2419 87.0507 60.1672 87.1418 60.1672H87.2164L86.8435 51.56C86.8269 51.2527 86.5782 51.0117 86.2716 51.0117C85.9649 51.0117 85.7163 51.2527 85.6997 51.56L85.3267 60.1672H85.4013C85.4925 60.1672 85.5671 60.2419 85.5671 60.3333V60.3915C85.5671 60.4829 85.4925 60.5576 85.4013 60.5576H85.3101L85.2687 61.5546H84.5394C83.9343 61.5546 83.4453 62.0448 83.4453 62.6513H89.0813C89.1061 62.0448 88.6088 61.5546 88.0038 61.5546Z" fill="url(#paint12_linear_298_11100)"/>
<path d="M83.4788 53.8444C82.2024 52.565 82.2024 50.4796 83.4788 49.2002L84.1004 49.8233C83.1638 50.7621 83.1638 52.2825 84.1004 53.2213L83.4788 53.8444Z" fill="#EF6238"/>
<path d="M89.0904 53.8444L88.4688 53.2213C89.4053 52.2825 89.4053 50.7621 88.4688 49.8233L89.0904 49.2002C90.3667 50.4796 90.3667 52.565 89.0904 53.8444Z" fill="#EF6238"/>
<path d="M81.7139 55.6146C79.4678 53.3631 79.4678 49.6909 81.7139 47.4395L82.3355 48.0626C80.4209 49.9817 80.4209 53.0806 82.3355 54.9998L81.7139 55.6146Z" fill="#EF6238"/>
<path d="M90.856 55.6141L90.2344 54.991C92.1489 53.0718 92.1489 49.9729 90.2344 48.0538L90.856 47.4307C93.102 49.6905 93.102 53.3626 90.856 55.6141Z" fill="#EF6238"/>
<path d="M79.6345 57.6998C76.2364 54.2935 76.2364 48.752 79.6345 45.3457L80.2562 45.9688C77.1978 49.0345 77.1978 54.011 80.2562 57.0766L79.6345 57.6998Z" fill="#EF6238"/>
<path d="M92.9361 57.6998L92.3145 57.0766C95.3728 54.011 95.3728 49.0345 92.3145 45.9688L92.9361 45.3457C96.3342 48.752 96.3342 54.2935 92.9361 57.6998Z" fill="#EF6238"/>
<path d="M107.988 85.2988H70.832V86.7195H107.988V85.2988Z" fill="#DBE7F2"/>
<path d="M107.988 99.4893H70.832V100.91H107.988V99.4893Z" fill="#DBE7F2"/>
<path d="M107.988 113.679H70.832V115.099H107.988V113.679Z" fill="#DBE7F2"/>
<path d="M107.988 127.878H70.832V129.315H107.988V127.878Z" fill="#DBE7F2"/>
<path d="M137.113 132.847H124.416V140.665H137.113V132.847Z" fill="url(#paint13_linear_298_11100)"/>
<path d="M157.701 91.4141H103.828V128.593H157.701V91.4141Z" fill="#2D2D2D"/>
<path d="M155.878 132.846H105.644C104.641 132.846 103.82 132.032 103.82 131.018V128.584H157.693V131.018C157.702 132.032 156.881 132.846 155.878 132.846Z" fill="#DAE7F2"/>
<path d="M124.191 132.822L137.287 136.224V132.822H124.191Z" fill="url(#paint14_linear_298_11100)"/>
<path d="M145.617 144.104H116.078V142.193C116.078 141.354 116.758 140.664 117.603 140.664H144.092C144.929 140.664 145.617 141.345 145.617 142.193V144.104Z" fill="#DAE7F2"/>
<path d="M131.761 138.196H129.814C129.383 138.196 129.043 137.847 129.043 137.423V132.846H132.541V137.423C132.532 137.855 132.192 138.196 131.761 138.196Z" fill="white"/>
<path d="M140.322 113.089H130.144C129.696 113.089 129.34 112.732 129.34 112.283C129.34 111.835 129.696 111.478 130.144 111.478H140.322C140.769 111.478 141.126 111.835 141.126 112.283C141.126 112.732 140.761 113.089 140.322 113.089Z" fill="#EF6238"/>
<path d="M134.901 116.346H130.144C129.696 116.346 129.34 115.989 129.34 115.54C129.34 115.092 129.696 114.734 130.144 114.734H134.901C135.349 114.734 135.705 115.092 135.705 115.54C135.705 115.989 135.349 116.346 134.901 116.346Z" fill="#EF6238"/>
<path d="M147.043 116.346H138.423C137.976 116.346 137.619 115.989 137.619 115.54C137.619 115.092 137.976 114.734 138.423 114.734H147.043C147.49 114.734 147.847 115.092 147.847 115.54C147.847 115.989 147.49 116.346 147.043 116.346Z" fill="#EF6238"/>
<path d="M143.413 103.703H130.144C129.696 103.703 129.34 103.345 129.34 102.897C129.34 102.448 129.696 102.091 130.144 102.091H143.413C143.861 102.091 144.217 102.448 144.217 102.897C144.217 103.345 143.861 103.703 143.413 103.703Z" fill="#DBE7F2"/>
<path d="M138.448 106.959H129.704C129.505 106.959 129.348 106.802 129.348 106.602V105.705C129.348 105.506 129.505 105.348 129.704 105.348H138.448C138.647 105.348 138.804 105.506 138.804 105.705V106.602C138.804 106.802 138.639 106.959 138.448 106.959Z" fill="#DBE7F2"/>
<path d="M147.491 106.959H141.44C141.241 106.959 141.084 106.802 141.084 106.602V105.705C141.084 105.506 141.241 105.348 141.44 105.348H147.491C147.69 105.348 147.847 105.506 147.847 105.705V106.602C147.847 106.802 147.69 106.959 147.491 106.959Z" fill="#DBE7F2"/>
<path d="M125.461 102.099L123.587 103.976C123.281 104.284 123.281 104.774 123.587 105.073L125.461 106.951C125.767 107.258 126.256 107.258 126.555 106.951C126.861 106.643 126.861 106.153 126.555 105.854L125.229 104.525L126.555 103.195C126.861 102.888 126.861 102.398 126.555 102.099C126.256 101.791 125.759 101.791 125.461 102.099Z" fill="#DBE7F2"/>
<path d="M152.513 106.959L154.387 105.082C154.693 104.774 154.693 104.284 154.387 103.985L152.513 102.108C152.207 101.8 151.718 101.8 151.419 102.108C151.113 102.415 151.113 102.905 151.419 103.204L152.746 104.533L151.419 105.863C151.113 106.17 151.113 106.66 151.419 106.959C151.726 107.258 152.215 107.258 152.513 106.959Z" fill="#DBE7F2"/>
<path d="M146.587 132.846H156.989C157.693 131.55 158.091 130.113 158.099 128.593H145.477C145.485 130.113 145.883 131.55 146.587 132.846Z" fill="url(#paint15_linear_298_11100)"/>
<path d="M118.715 111.747C117.771 111.747 116.925 111.373 116.312 110.767C116.088 110.543 115.715 110.543 115.491 110.767C114.878 111.373 114.024 111.747 113.088 111.747H110.527C110.121 111.747 109.789 112.071 109.789 112.47V116.258C109.789 120.022 112.267 123.295 115.914 124.932C119.552 123.287 122.039 120.022 122.039 116.258V112.47C122.039 112.071 121.707 111.747 121.301 111.747H118.715Z" fill="#EF6238"/>
<path d="M115.516 120.67C115.3 120.67 115.093 120.578 114.944 120.42L112.565 117.853C112.267 117.537 112.292 117.039 112.607 116.74C112.922 116.441 113.419 116.466 113.717 116.781L115.45 118.651L118.5 114.522C118.757 114.173 119.254 114.098 119.602 114.355C119.95 114.613 120.025 115.111 119.768 115.46L116.154 120.345C116.013 120.537 115.798 120.653 115.566 120.661C115.549 120.67 115.533 120.67 115.516 120.67Z" fill="white"/>
<path d="M61.5669 93.499H53.9004V110.431H61.5669V93.499Z" fill="url(#paint16_linear_298_11100)"/>
<path d="M49.1009 129.456H45.0811C43.1583 129.456 41.5918 128.11 41.5918 126.457V98.8576C41.5918 97.2043 43.1583 95.8584 45.0811 95.8584H53.8997V96.5729H45.0894C43.5561 96.5729 42.3129 97.5948 42.3129 98.8576V126.457C42.3129 127.72 43.5561 128.742 45.0894 128.742H49.1091V129.456H49.1009Z" fill="white"/>
<path d="M49.1009 135.155H45.0811C43.1583 135.155 41.5918 133.809 41.5918 132.156V104.557C41.5918 102.904 43.1583 101.558 45.0811 101.558H53.8997V102.272H45.0894C43.5561 102.272 42.3129 103.294 42.3129 104.557V132.156C42.3129 133.419 43.5561 134.441 45.0894 134.441H49.1091V135.155H49.1009Z" fill="white"/>
<path d="M49.1009 140.846H45.0811C43.1583 140.846 41.5918 139.5 41.5918 137.847V110.247C41.5918 108.594 43.1583 107.248 45.0811 107.248H53.8997V107.963H45.0894C43.5561 107.963 42.3129 108.984 42.3129 110.247V137.847C42.3129 139.109 43.5561 140.131 45.0894 140.131H49.1091V140.846H49.1009Z" fill="white"/>
<path d="M57.7295 94.6865H53.9004V97.7771H57.7295V94.6865Z" fill="url(#paint17_linear_298_11100)"/>
<path d="M57.7295 100.419H53.9004V103.51H57.7295V100.419Z" fill="url(#paint18_linear_298_11100)"/>
<path d="M57.7295 106.061H53.9004V109.151H57.7295V106.061Z" fill="url(#paint19_linear_298_11100)"/>
<path d="M43.3247 114.394H40.457V122.02H43.3247V114.394Z" fill="url(#paint20_linear_298_11100)"/>
<path d="M88.5521 132.846H70.832V140.722H88.5521V132.846Z" fill="#2A2F3A"/>
<path d="M78.9785 135.388H81.1583V134.3H78.9785V135.388Z" fill="url(#paint21_linear_298_11100)"/>
<path d="M75.5566 135.388H77.7364V134.3H75.5566V135.388Z" fill="#EF6238"/>
<path d="M72.1328 135.388H74.3126V134.3H72.1328V135.388Z" fill="url(#paint22_linear_298_11100)"/>
<path d="M46.8964 90.4662H39.1636C38.9812 90.4662 38.832 90.3166 38.832 90.1338V89.2864C38.832 89.1036 38.9812 88.9541 39.1636 88.9541H46.8964C47.0787 88.9541 47.2279 89.1036 47.2279 89.2864V90.1338C47.2279 90.3166 47.0787 90.4662 46.8964 90.4662Z" fill="white"/>
<path d="M44.0872 93.432H39.1557C38.9734 93.432 38.8242 93.2824 38.8242 93.0996V92.2522C38.8242 92.0695 38.9734 91.9199 39.1557 91.9199H44.0872C44.2695 91.9199 44.4187 92.0695 44.4187 92.2522V93.0996C44.427 93.2741 44.2695 93.432 44.0872 93.432Z" fill="white"/>
<path d="M36.3027 90.8071C36.2944 90.7074 36.2198 90.6326 36.1204 90.616L35.7308 90.5412C35.6479 90.5246 35.5816 90.4582 35.5568 90.3834C35.4905 90.1342 35.391 89.9015 35.2667 89.6855C35.2252 89.6107 35.2252 89.5194 35.275 89.4529L35.4988 89.1206C35.5568 89.0375 35.5485 88.9295 35.4905 88.8547C35.333 88.6553 35.1507 88.4726 34.9517 88.3064C34.8771 88.2482 34.7694 88.2399 34.6865 88.2981L34.355 88.5224C34.2887 88.5722 34.1975 88.5722 34.1229 88.5307C33.9074 88.4061 33.6754 88.3064 33.4267 88.2399C33.3438 88.215 33.2858 88.1485 33.2692 88.0655L33.1947 87.675C33.1781 87.5753 33.0952 87.5088 33.004 87.4922C32.8797 87.4756 32.7471 87.4756 32.6228 87.4756C32.4902 87.4756 32.3658 87.4839 32.2415 87.4922C32.1421 87.5005 32.0675 87.5753 32.0509 87.675L31.9763 88.0655C31.9597 88.1485 31.8934 88.215 31.8188 88.2399C31.5702 88.3064 31.3381 88.4061 31.1226 88.5307C31.048 88.5722 30.9569 88.5722 30.8905 88.5224L30.559 88.2981C30.4761 88.2399 30.3684 88.2482 30.2938 88.3064C30.0949 88.4642 29.9125 88.647 29.7468 88.8464C29.6888 88.9212 29.6805 89.0292 29.7385 89.1123L29.9623 89.4446C30.012 89.5111 30.012 89.6024 29.9706 89.6772C29.8462 89.8932 29.7468 90.1258 29.6805 90.3751C29.6556 90.4582 29.5893 90.5163 29.5064 90.5329L29.1169 90.6077C29.0174 90.6243 28.9511 90.7074 28.9345 90.7988C28.918 90.9234 28.918 91.0563 28.918 91.181C28.918 91.3139 28.9263 91.4385 28.9345 91.5631C28.9428 91.6628 29.0174 91.7376 29.1169 91.7542L29.5064 91.829C29.5893 91.8456 29.6556 91.9121 29.6805 91.9868C29.7468 92.2361 29.8462 92.4687 29.9706 92.6847C30.012 92.7595 30.012 92.8509 29.9623 92.9173L29.7385 93.2497C29.6805 93.3328 29.6888 93.4408 29.7468 93.5155C29.9043 93.7149 30.0866 93.8977 30.2855 94.0639C30.3601 94.122 30.4679 94.1303 30.5507 94.0722L30.8823 93.8479C30.9569 93.798 31.0397 93.798 31.1143 93.8395C31.3298 93.9642 31.5619 94.0639 31.8105 94.1303C31.8934 94.1552 31.9514 94.2217 31.968 94.3048L32.0426 94.6953C32.0592 94.795 32.1421 94.8614 32.2332 94.878C32.3575 94.8947 32.4902 94.8947 32.6145 94.8947C32.7471 94.8947 32.8714 94.8864 32.9957 94.878C33.0952 94.8697 33.1698 94.795 33.1864 94.6953L33.261 94.3048C33.2775 94.2217 33.3438 94.1552 33.4184 94.1303C33.6671 94.0639 33.8991 93.9642 34.1146 93.8395C34.1892 93.798 34.2804 93.798 34.3467 93.8479L34.6782 94.0722C34.7611 94.1303 34.8689 94.122 34.9434 94.0639C35.1424 93.906 35.3247 93.7232 35.4905 93.5238C35.5485 93.4491 35.5568 93.3411 35.4988 93.258L35.275 92.9257C35.2252 92.8592 35.2252 92.7678 35.2667 92.693C35.391 92.477 35.4905 92.2444 35.5568 91.9952C35.5816 91.9121 35.6479 91.8539 35.7308 91.8373L36.1204 91.7625C36.2198 91.7459 36.2861 91.6628 36.3027 91.5714C36.3193 91.4468 36.3193 91.3139 36.3193 91.1893C36.3193 91.0647 36.311 90.9317 36.3027 90.8071ZM32.6062 92.4521C31.91 92.4521 31.3464 91.8872 31.3464 91.1893C31.3464 90.4914 31.91 89.9265 32.6062 89.9265C33.3024 89.9265 33.866 90.4914 33.866 91.1893C33.866 91.8872 33.3024 92.4521 32.6062 92.4521Z" fill="white"/>
</g>
<defs>
<linearGradient id="paint0_linear_298_11100" x1="113.754" y1="132.579" x2="113.528" y2="142.184" gradientUnits="userSpaceOnUse">
<stop stop-color="#FF9D43"/>
<stop offset="0.860391" stop-color="#FF5343"/>
</linearGradient>
<linearGradient id="paint1_linear_298_11100" x1="105.89" y1="75.861" x2="104.639" y2="82.6176" gradientUnits="userSpaceOnUse">
<stop stop-color="#C8DBEC"/>
<stop offset="1" stop-color="#E9F1F7"/>
</linearGradient>
<linearGradient id="paint2_linear_298_11100" x1="102.579" y1="75.2485" x2="101.329" y2="82.0051" gradientUnits="userSpaceOnUse">
<stop stop-color="#C8DBEC"/>
<stop offset="1" stop-color="#E9F1F7"/>
</linearGradient>
<linearGradient id="paint3_linear_298_11100" x1="95.9596" y1="74.0234" x2="94.7093" y2="80.7801" gradientUnits="userSpaceOnUse">
<stop stop-color="#C8DBEC"/>
<stop offset="1" stop-color="#E9F1F7"/>
</linearGradient>
<linearGradient id="paint4_linear_298_11100" x1="94.5522" y1="90.0655" x2="95.8026" y2="96.8222" gradientUnits="userSpaceOnUse">
<stop stop-color="#C8DBEC"/>
<stop offset="1" stop-color="#E9F1F7"/>
</linearGradient>
<linearGradient id="paint5_linear_298_11100" x1="97.8628" y1="89.453" x2="99.1132" y2="96.2097" gradientUnits="userSpaceOnUse">
<stop stop-color="#C8DBEC"/>
<stop offset="1" stop-color="#E9F1F7"/>
</linearGradient>
<linearGradient id="paint6_linear_298_11100" x1="104.482" y1="88.2279" x2="105.733" y2="94.9846" gradientUnits="userSpaceOnUse">
<stop stop-color="#C8DBEC"/>
<stop offset="1" stop-color="#E9F1F7"/>
</linearGradient>
<linearGradient id="paint7_linear_298_11100" x1="105.89" y1="104.27" x2="104.639" y2="111.026" gradientUnits="userSpaceOnUse">
<stop stop-color="#C8DBEC"/>
<stop offset="1" stop-color="#E9F1F7"/>
</linearGradient>
<linearGradient id="paint8_linear_298_11100" x1="102.581" y1="103.657" x2="101.331" y2="110.414" gradientUnits="userSpaceOnUse">
<stop stop-color="#C8DBEC"/>
<stop offset="1" stop-color="#E9F1F7"/>
</linearGradient>
<linearGradient id="paint9_linear_298_11100" x1="105.849" y1="120.327" x2="105.73" y2="122.87" gradientUnits="userSpaceOnUse">
<stop stop-color="#FF9D43"/>
<stop offset="0.860391" stop-color="#FF5343"/>
</linearGradient>
<linearGradient id="paint10_linear_298_11100" x1="102.579" y1="117.914" x2="101.329" y2="124.67" gradientUnits="userSpaceOnUse">
<stop stop-color="#C8DBEC"/>
<stop offset="1" stop-color="#E9F1F7"/>
</linearGradient>
<linearGradient id="paint11_linear_298_11100" x1="95.9596" y1="116.689" x2="94.7093" y2="123.445" gradientUnits="userSpaceOnUse">
<stop stop-color="#C8DBEC"/>
<stop offset="1" stop-color="#E9F1F7"/>
</linearGradient>
<linearGradient id="paint12_linear_298_11100" x1="83.4627" y1="56.8269" x2="89.1023" y2="56.8269" gradientUnits="userSpaceOnUse">
<stop offset="0.00704225" stop-color="#2D3952"/>
<stop offset="1" stop-color="#111E32"/>
</linearGradient>
<linearGradient id="paint13_linear_298_11100" x1="130.762" y1="133.449" x2="130.762" y2="139.335" gradientUnits="userSpaceOnUse">
<stop stop-color="#C8DBEC"/>
<stop offset="1" stop-color="#E9F1F7"/>
</linearGradient>
<linearGradient id="paint14_linear_298_11100" x1="130.741" y1="130.33" x2="130.741" y2="144.035" gradientUnits="userSpaceOnUse">
<stop stop-color="#8DAFC8"/>
<stop offset="1" stop-color="#D5E4F0"/>
</linearGradient>
<linearGradient id="paint15_linear_298_11100" x1="160.61" y1="130.718" x2="149.349" y2="130.718" gradientUnits="userSpaceOnUse">
<stop stop-color="#8DAFC8"/>
<stop offset="1" stop-color="#D5E4F0"/>
</linearGradient>
<linearGradient id="paint16_linear_298_11100" x1="57.7313" y1="93.5029" x2="57.7313" y2="110.434" gradientUnits="userSpaceOnUse">
<stop stop-color="#C8DBEC"/>
<stop offset="1" stop-color="#E9F1F7"/>
</linearGradient>
<linearGradient id="paint17_linear_298_11100" x1="58.0769" y1="96.2347" x2="47.1425" y2="96.2347" gradientUnits="userSpaceOnUse">
<stop stop-color="#8DAFC8"/>
<stop offset="1" stop-color="#D5E4F0"/>
</linearGradient>
<linearGradient id="paint18_linear_298_11100" x1="58.0769" y1="101.968" x2="47.1425" y2="101.968" gradientUnits="userSpaceOnUse">
<stop stop-color="#8DAFC8"/>
<stop offset="1" stop-color="#D5E4F0"/>
</linearGradient>
<linearGradient id="paint19_linear_298_11100" x1="58.0769" y1="107.606" x2="47.1425" y2="107.606" gradientUnits="userSpaceOnUse">
<stop stop-color="#8DAFC8"/>
<stop offset="1" stop-color="#D5E4F0"/>
</linearGradient>
<linearGradient id="paint20_linear_298_11100" x1="44.2935" y1="127.002" x2="40.6993" y2="113.893" gradientUnits="userSpaceOnUse">
<stop stop-color="#8DAFC8"/>
<stop offset="1" stop-color="#D5E4F0"/>
</linearGradient>
<linearGradient id="paint21_linear_298_11100" x1="80.4428" y1="132.815" x2="79.7202" y2="136.72" gradientUnits="userSpaceOnUse">
<stop stop-color="#C8DBEC"/>
<stop offset="1" stop-color="#E9F1F7"/>
</linearGradient>
<linearGradient id="paint22_linear_298_11100" x1="73.7282" y1="132.107" x2="73.0056" y2="136.012" gradientUnits="userSpaceOnUse">
<stop stop-color="#C8DBEC"/>
<stop offset="1" stop-color="#E9F1F7"/>
</linearGradient>
<clipPath id="clip0_298_11100">
<rect width="162" height="104" fill="white" transform="translate(17 40)"/>
</clipPath>
</defs>
</svg>
