<svg width="196" height="234" viewBox="0 0 196 234" fill="none" xmlns="http://www.w3.org/2000/svg">
<path d="M196 98.0673C196 43.875 152.102 0 98 0C43.8981 0 0 43.875 0 98.0673C0 144.123 31.7278 182.733 74.4566 193.263L83.8102 209.536L98 234L112.137 209.483L121.49 193.21C164.272 182.68 196 144.07 196 98.0673Z" fill="#EF6238"/>
<path d="M97.5048 185.209C145.342 185.209 184.121 145.977 184.121 97.5831C184.121 49.1888 145.342 9.95752 97.5048 9.95752C49.668 9.95752 10.8887 49.1888 10.8887 97.5831C10.8887 145.977 49.668 185.209 97.5048 185.209Z" fill="white"/>
<path d="M120.139 56.8526C93.7625 52.3403 60.0768 63.0635 60.2702 90.1633C30.1425 97.3078 27.5255 120.842 34.6417 136.077H161.302C176.449 89.5928 146.515 61.3779 120.139 56.8526Z" fill="#EEF5F9"/>
<path d="M44.1813 92.0429C53.2733 92.0429 60.6439 84.6296 60.6439 75.4848C60.6439 66.3401 53.2733 58.9268 44.1813 58.9268C35.0893 58.9268 27.7188 66.3401 27.7188 75.4848C27.7188 84.6296 35.0893 92.0429 44.1813 92.0429Z" fill="#2D2D2D"/>
<path d="M64.5864 66.7008C65.4452 62.9533 63.1209 59.2152 59.395 58.3515C55.6692 57.4878 51.9526 59.8255 51.0939 63.573C50.2352 67.3205 52.5595 71.0586 56.2853 71.9223C60.0112 72.786 63.7277 70.4482 64.5864 66.7008Z" fill="#EF6238"/>
<path d="M172.061 106.458C175.424 103.075 175.424 97.5909 172.061 94.2084C168.698 90.8259 163.245 90.8259 159.882 94.2084C156.519 97.5909 156.519 103.075 159.882 106.458C163.245 109.84 168.698 109.84 172.061 106.458Z" fill="#2D2D2D"/>
<path d="M30.8754 81.3462H30.218C30.1793 81.3462 30.1406 81.3073 30.1406 81.2684V81.1647C30.1406 81.1258 30.1793 81.0869 30.218 81.0869H30.8754C30.9141 81.0869 30.9528 81.1258 30.9528 81.1647V81.2684C30.9528 81.3073 30.9141 81.3462 30.8754 81.3462Z" fill="#A9C5E8"/>
<path d="M31.9731 81.3462H31.3156C31.277 81.3462 31.2383 81.3073 31.2383 81.2684V81.1647C31.2383 81.1258 31.277 81.0869 31.3156 81.0869H31.9731C32.0118 81.0869 32.0505 81.1258 32.0505 81.1647V81.2684C32.0505 81.3073 32.0118 81.3462 31.9731 81.3462Z" fill="#A9C5E8"/>
<path d="M30.9648 80.9969V80.3356C30.9648 80.2967 31.0035 80.2578 31.0422 80.2578H31.1453C31.184 80.2578 31.2227 80.2967 31.2227 80.3356V80.9969C31.2227 81.0358 31.184 81.0747 31.1453 81.0747H31.0422C31.0035 81.0747 30.9648 81.0358 30.9648 80.9969Z" fill="#A9C5E8"/>
<path d="M30.9648 82.0985V81.4372C30.9648 81.3983 31.0035 81.3594 31.0422 81.3594H31.1453C31.184 81.3594 31.2227 81.3983 31.2227 81.4372V82.0985C31.2227 82.1374 31.184 82.1763 31.1453 82.1763H31.0422C31.0035 82.1763 30.9648 82.1374 30.9648 82.0985Z" fill="#A9C5E8"/>
<path d="M70.8087 129.774C77.1874 123.358 77.1874 112.956 70.8087 106.541C64.4301 100.125 54.0883 100.125 47.7097 106.541C41.3311 112.956 41.3311 123.358 47.7097 129.774C54.0883 136.189 64.4301 136.189 70.8087 129.774Z" fill="#EF6238"/>
<path d="M68.3869 129.779C74.7655 123.363 74.7655 112.961 68.3869 106.546C62.0082 100.13 51.6664 100.13 45.2878 106.546C38.9092 112.961 38.9092 123.363 45.2878 129.779C51.6664 136.194 62.0082 136.194 68.3869 129.779Z" fill="#EF6238"/>
<path d="M56.8419 129.581C63.1144 129.581 68.1994 124.467 68.1994 118.158C68.1994 111.849 63.1144 106.734 56.8419 106.734C50.5693 106.734 45.4844 111.849 45.4844 118.158C45.4844 124.467 50.5693 129.581 56.8419 129.581Z" fill="white"/>
<path d="M62.6349 120.66C64.0077 117.442 62.5268 113.714 59.3272 112.333C56.1276 110.953 52.421 112.442 51.0482 115.66C49.6754 118.878 51.1563 122.607 54.3559 123.987C57.5555 125.368 61.2621 123.879 62.6349 120.66Z" fill="#EF6238"/>
<path d="M56.7863 117.393C56.9023 117.393 57.0054 117.354 57.0957 117.263C57.2633 117.094 57.2633 116.809 57.0957 116.641L36.1468 95.687C35.9792 95.5184 35.6956 95.5184 35.528 95.687C35.3604 95.8555 35.3604 96.1408 35.528 96.3094L56.4769 117.263C56.5542 117.354 56.6703 117.393 56.7863 117.393Z" fill="#2C303C"/>
<path d="M36.1445 95.6874V92.6792L40.6437 97.2045V100.122L36.1445 95.6874Z" fill="#2C313C"/>
<path d="M35.6842 96.5034L32.6934 96.5293L37.2441 101.016L40.1318 100.99L35.6842 96.5034Z" fill="#2C313C"/>
<path d="M36.8152 97.645L32.5996 97.6969L34.572 99.6029L38.6973 99.5381L36.8152 97.645Z" fill="#2C303C"/>
<path d="M134.887 75.6016H120.113V134.456H134.887V75.6016Z" fill="#EF6238"/>
<path d="M131.856 107.188H123.154V129.128H131.856V107.188Z" fill="white"/>
<path d="M129.373 88.9596C131.866 87.921 133.05 85.0462 132.017 82.5387C130.984 80.0311 128.126 78.8404 125.633 79.8791C123.14 80.9178 121.956 83.7925 122.989 86.3001C124.022 88.8076 126.88 89.9983 129.373 88.9596Z" fill="white"/>
<path d="M129.352 86.2826C130.374 85.2547 130.374 83.5881 129.352 82.5602C128.33 81.5323 126.673 81.5323 125.651 82.5602C124.629 83.5881 124.629 85.2547 125.651 86.2826C126.673 87.3105 128.33 87.3105 129.352 86.2826Z" fill="#EF6238"/>
<path d="M148.356 80.0568L135.24 82.2251L143.774 134.442L156.889 132.274L148.356 80.0568Z" fill="#2C313C"/>
<path d="M150.243 108.524L142.521 109.8L145.702 129.262L153.424 127.985L150.243 108.524Z" fill="white"/>
<path d="M145.049 92.8933C147.217 91.7924 148.086 89.1331 146.992 86.9534C145.897 84.7737 143.253 83.8991 141.086 84.9999C138.919 86.1008 138.049 88.7601 139.144 90.9398C140.238 93.1195 142.882 93.9941 145.049 92.8933Z" fill="white"/>
<path d="M143.074 91.3175C144.377 91.3175 145.433 90.2551 145.433 88.9446C145.433 87.6341 144.377 86.5718 143.074 86.5718C141.771 86.5718 140.715 87.6341 140.715 88.9446C140.715 90.2551 141.771 91.3175 143.074 91.3175Z" fill="#2C313C"/>
<path d="M112.853 134.469H65.2567C64.5219 134.469 63.916 133.873 63.916 133.121V62.2074C63.916 61.4683 64.509 60.8589 65.2567 60.8589H112.84C113.574 60.8589 114.18 61.4553 114.18 62.2074V133.121C114.18 133.86 113.587 134.469 112.853 134.469Z" fill="#2B303B"/>
<path d="M114.762 134.469H67.1786C66.4438 134.469 65.8379 133.873 65.8379 133.121V62.2074C65.8379 61.4683 66.4309 60.8589 67.1786 60.8589H114.762C115.496 60.8589 116.102 61.4553 116.102 62.2074V133.121C116.102 133.86 115.496 134.469 114.762 134.469Z" fill="#3F434D"/>
<path d="M113.384 117.782V65.0474H68.7402V117.782C68.7402 123.435 73.3039 128.025 78.9246 128.025H105.61C99.9766 128.025 113.384 123.435 113.384 117.782Z" fill="white"/>
<rect x="68.7402" y="94.5635" width="44.7338" height="33.5829" fill="white"/>
<path d="M80.51 121.321H73.6517C72.8782 121.321 72.2594 120.698 72.2594 119.92L71.7051 112.465C71.7051 111.803 72.2465 111.259 72.904 111.259H79.9557C80.7292 111.259 81.348 111.881 81.348 112.659L81.7218 120.115C81.709 120.776 81.1675 121.321 80.51 121.321Z" fill="#EF6238"/>
<path d="M76.8243 118.741C76.6824 118.741 76.5535 118.676 76.4762 118.546L74.1686 115.046C74.0397 114.851 74.0912 114.592 74.2846 114.462C74.478 114.332 74.7358 114.384 74.8647 114.579L76.8114 117.535L79.8667 112.673C79.9956 112.478 80.2534 112.413 80.4468 112.543C80.6402 112.673 80.7046 112.932 80.5757 113.127L77.1723 118.534C77.1079 118.663 76.979 118.741 76.8243 118.741Z" fill="white"/>
<path d="M94.8961 115.733H84.8665C84.5055 115.733 84.209 115.435 84.209 115.071V114.345C84.209 113.982 84.5055 113.684 84.8665 113.684H94.8961C95.2571 113.684 95.5536 113.982 95.5536 114.345V115.071C95.5536 115.435 95.2571 115.733 94.8961 115.733Z" fill="#EF6238"/>
<path d="M106.241 119.649H84.8665C84.5055 119.649 84.209 119.351 84.209 118.987V118.261C84.209 117.898 84.5055 117.6 84.8665 117.6H106.254C106.615 117.6 106.911 117.898 106.911 118.261V118.987C106.898 119.351 106.615 119.649 106.241 119.649Z" fill="#EF6238"/>
<path d="M80.9366 83.6803H72.4669C72.0414 83.6803 71.6934 83.3303 71.6934 82.9024V74.3835C71.6934 73.9556 72.0414 73.6055 72.4669 73.6055H80.9366C81.3621 73.6055 81.7101 73.9556 81.7101 74.3835V82.9024C81.7101 83.3303 81.3621 83.6803 80.9366 83.6803Z" fill="#EF6238"/>
<path d="M76.3477 81.761C76.2059 81.761 76.077 81.6962 75.9996 81.5665L73.692 78.0656C73.5631 77.8711 73.6147 77.6118 73.8081 77.4821C74.0014 77.3524 74.2593 77.4043 74.3882 77.5988L76.3348 80.5551L79.3901 75.6927C79.519 75.4982 79.7769 75.4334 79.9702 75.5631C80.1636 75.6927 80.2281 75.9521 80.0991 76.1466L76.7087 81.5535C76.6313 81.6832 76.5024 81.748 76.3477 81.761C76.3606 81.761 76.3477 81.761 76.3477 81.761Z" fill="white"/>
<path d="M94.8961 78.0917H84.8665C84.5055 78.0917 84.209 77.7934 84.209 77.4304V76.7043C84.209 76.3412 84.5055 76.043 84.8665 76.043H94.8961C95.2571 76.043 95.5536 76.3412 95.5536 76.7043V77.4304C95.5536 77.7934 95.2571 78.0917 94.8961 78.0917Z" fill="#EF6238"/>
<path d="M106.241 82.0067H84.8665C84.5055 82.0067 84.209 81.7085 84.209 81.3454V80.6193C84.209 80.2562 84.5055 79.958 84.8665 79.958H106.254C106.615 79.958 106.911 80.2562 106.911 80.6193V81.3454C106.898 81.7085 106.615 82.0067 106.241 82.0067Z" fill="#EF6238"/>
<path d="M94.8961 96.9061H84.8665C84.5055 96.9061 84.209 96.6079 84.209 96.2448V95.5187C84.209 95.1557 84.5055 94.8574 84.8665 94.8574H94.8961C95.2571 94.8574 95.5536 95.1557 95.5536 95.5187V96.2448C95.5536 96.6209 95.2571 96.9061 94.8961 96.9061Z" fill="#EF6238"/>
<path d="M106.241 100.822H84.8665C84.5055 100.822 84.209 100.524 84.209 100.161V99.4347C84.209 99.0717 84.5055 98.7734 84.8665 98.7734H106.254C106.615 98.7734 106.911 99.0717 106.911 99.4347V100.161C106.898 100.524 106.615 100.822 106.241 100.822Z" fill="#EF6238"/>
<path d="M80.9366 101.652H72.4669C72.0414 101.652 71.6934 101.301 71.6934 100.874V92.3546C71.6934 91.9268 72.0414 91.5767 72.4669 91.5767H80.9366C81.3621 91.5767 81.7101 91.9268 81.7101 92.3546V100.874C81.7101 101.301 81.3621 101.652 80.9366 101.652Z" fill="#EF6238"/>
<path d="M76.3477 99.7195C76.2059 99.7195 76.077 99.6547 75.9996 99.525L73.692 96.0241C73.5631 95.8296 73.6147 95.5703 73.8081 95.4406C74.0014 95.3109 74.2593 95.3628 74.3882 95.5573L76.3348 98.5136L79.3901 93.6512C79.519 93.4567 79.7769 93.3919 79.9702 93.5216C80.1636 93.6512 80.2281 93.9106 80.0991 94.105L76.7087 99.525C76.6313 99.6417 76.5024 99.7195 76.3477 99.7195C76.3606 99.7195 76.3477 99.7195 76.3477 99.7195Z" fill="white"/>
<path d="M119.865 53.483C119.865 47.5938 115.116 42.8169 109.261 42.8169C103.406 42.8169 98.6562 47.5938 98.6562 53.483C98.6562 58.6022 102.243 62.8658 107.021 63.9067L109.119 69.1685L111.387 63.9353C116.236 62.9228 119.865 58.6307 119.865 53.483Z" fill="#EF6238"/>
<path d="M108.865 59.2866C108.596 59.2866 108.355 59.1582 108.213 58.9301L103.903 52.3992C103.662 52.0285 103.761 51.5437 104.13 51.3012C104.498 51.0588 104.98 51.1586 105.221 51.5294L108.865 57.0478L114.578 47.9645C114.805 47.5938 115.301 47.4797 115.67 47.7221C116.039 47.9645 116.152 48.4493 115.911 48.8201L109.517 58.9158C109.375 59.144 109.134 59.2866 108.865 59.2866Z" fill="white"/>
<path d="M162.68 139.565H33.2482C32.3586 139.565 31.6367 138.839 31.6367 137.944V136.09C31.6367 135.195 32.3586 134.469 33.2482 134.469H162.68C163.569 134.469 164.291 135.195 164.291 136.09V137.931C164.291 138.839 163.569 139.565 162.68 139.565Z" fill="#D5DBDF"/>
</svg>
