<svg width="1440" height="843" viewBox="0 0 1440 843" fill="none" xmlns="http://www.w3.org/2000/svg">
    <g opacity="0.2" clip-path="url(#clip0_804_2125)">
        <path d="M1385.16 419.4L1381.15 314.419L1377.48 414.051L1376.47 413.382V630.698H1048.11V704.92H901.131V533.742H761.835V485.598H746.803V345.512H727.429V283.995H582.788V345.512H563.747V485.598H548.716V673.159H409.085V446.481L260.77 511.341V641.397H234.381V567.844L195.632 542.769V452.164H112.455V673.493H10.5717V627.355H-0.785789V590.578H-55.2349V627.355H-66.5923V705.254H-119.037V782.151H-66.5923H-49.2221H10.2377H112.121H146.527H157.885H195.298H260.102H287.16H370.336H408.417H548.047H619.199H709.724H760.833H900.129H1458.65V442.803L1385.16 419.4ZM601.828 484.26H586.796V469.215H601.828V484.26ZM601.828 454.505H586.796V439.46H601.828V454.505ZM133.834 585.563H126.151V463.866H133.834V585.563ZM156.549 585.563H148.866V463.866H156.549V585.563ZM178.93 585.563H171.247V463.866H178.93V585.563ZM626.882 454.505H611.85V439.46H626.882V454.505ZM651.935 454.505H636.903V439.46H651.935V454.505ZM676.988 539.76H661.956V524.715H676.988V539.76ZM676.988 484.26H661.956V469.215H676.988V484.26ZM676.988 454.505H661.956V439.46H676.988V454.505ZM702.041 484.26H687.009V469.215H702.041V484.26ZM397.06 572.524H382.028V557.479H397.06V572.524ZM360.983 572.524H345.951V557.479H360.983V572.524ZM397.06 541.766H382.028V526.721H397.06V541.766ZM360.983 541.766H345.951V526.721H360.983V541.766ZM325.241 572.524H310.209V557.479H325.241V572.524ZM325.241 520.368H310.209V505.323H325.241V520.368ZM135.17 625.349H125.149V614.985H135.17V625.349ZM135.17 665.135H125.149V655.105H135.17V665.135ZM2.22058 650.09H-7.80072V639.725H2.22058V650.09ZM2.22058 712.275H-7.80072V702.246H2.22058V712.275ZM2.22058 693.218H-7.80072V683.188H2.22058V693.218ZM-20.4943 650.09H-30.5156V639.725H-20.4943V650.09ZM-20.4943 728.323H-30.5156V718.293H-20.4943V728.323ZM795.239 570.184H785.218V559.82H795.239V570.184ZM821.629 570.184H811.608V559.82H821.629V570.184ZM848.018 570.184H837.997V559.82H848.018V570.184ZM1397.85 499.974H1387.83V471.89H1397.85V499.974ZM1397.85 538.757H1387.83V510.673H1397.85V538.757ZM821.629 605.958H811.608V595.593H821.629V605.958ZM848.018 605.958H837.997V595.593H848.018V605.958ZM795.239 642.066H785.218V631.701H795.239V642.066ZM821.629 642.066H811.608V631.701H821.629V642.066ZM795.239 678.173H785.218V667.809H795.239V678.173ZM-20.4943 753.398H-30.5156V743.034H-20.4943V753.398ZM-43.2093 650.09H-53.2306V639.725H-43.2093V650.09ZM135.17 733.338H125.149V723.308H135.17V733.338ZM-9.47094 625.349H-14.4816V600.943H-9.47094V625.349ZM-20.8284 625.349H-25.839V600.943H-20.8284V625.349ZM-32.1858 625.349H-37.5306V600.943H-32.5199V625.349H-32.1858ZM-43.5433 625.349H-48.554V600.943H-43.5433V625.349ZM180.266 685.529H170.244V675.499H180.266V685.529ZM209.996 665.135H199.974V655.105H209.996V665.135ZM209.996 685.529H199.974V675.499H209.996V685.529ZM209.996 705.254H199.974V695.224H209.996V705.254ZM727.095 484.26H712.063V469.215H727.095V484.26ZM727.095 454.505H712.063V439.46H727.095V454.505Z" fill="#D0D0D0" />
        <path d="M1363.45 483.592V557.479H1325.03V711.941H1272.92V572.859H1259.23V519.031H1192.42V572.859H1178.72V711.941H1076.17V782.151H1440.61V483.592H1363.45Z" fill="#EDEDED" />
        <path d="M665.632 738.688H621.204V584.56H520.323V705.254H497.274V530.398H488.589V484.929H453.18L449.505 361.895L445.831 484.929H410.422V530.398H401.737V765.434H286.492V610.638L205.654 588.907V650.089H157.218V570.518H66.0237V671.821H53.9982V614.65H-19.1573V733.673H-112.689V782.151H825.972V615.319H664.963V738.688H665.632ZM96.0876 648.752H85.3983V638.053H96.0876V648.752ZM96.0876 614.316H85.3983V603.617H96.0876V614.316ZM96.0876 593.922H85.3983V583.223H96.0876V593.922ZM127.488 614.316H116.798V603.617H127.488V614.316ZM127.488 593.922H116.798V583.223H127.488V593.922ZM146.194 634.71H135.505V624.012H146.194V634.71ZM146.194 614.316H135.505V603.617H146.194V614.316ZM430.799 513.347H420.11V502.649H430.799V513.347ZM448.837 558.148H438.148V547.449H448.837V558.148ZM466.876 574.53H456.186V563.832H466.876V574.53ZM466.876 534.745H456.186V524.046H466.876V534.745ZM466.876 513.347H456.186V502.649H466.876V513.347ZM484.914 513.347H474.225V502.649H484.914V513.347Z" fill="#EDEDED" />
        <path d="M1363.78 722.306V609.301H1352.09V335.483H1337.39V240.532H1327.04V223.815H1332.38V175.003H1324.36V128.531H1317.68V97.1033H1312.01V70.0224H1306.66V58.6551H1296.97V40.6011H1289.29L1287.62 -37.6328L1285.95 40.6011H1278.27V58.6551H1268.58V70.0224H1263.24V97.1033H1257.89V128.531H1251.21V175.003H1243.19V223.815H1248.54V240.198H1238.18V335.148H1223.48V608.967H1211.79V721.971H1204.11V782.151H1371.46V722.306H1363.78ZM1248.2 450.493H1239.52V435.782H1248.2V450.493ZM1248.2 423.078H1239.52V408.367H1248.2V423.078ZM1248.2 395.997H1239.52V381.286H1248.2V395.997ZM1248.2 368.582H1239.52V353.871H1248.2V368.582ZM1314.34 157.283V176.006H1308.33V157.283H1314.34ZM1314.34 222.478V241.201H1308.33V222.478H1314.34ZM1311.34 136.555V145.247H1302.65V136.555H1311.34ZM1307.66 201.415V210.108H1298.98V201.415H1307.66ZM1300.31 110.142H1306.33V128.865H1300.31V110.142ZM1290.96 62.667H1299.65V71.3597H1290.96V62.667ZM1290.96 77.3777H1299.65V86.0703H1290.96V77.3777ZM1292.3 157.283H1298.31V176.006H1292.3V157.283ZM1287.29 145.247V136.555H1295.97V145.247H1287.29ZM1292.3 222.478H1298.31V241.201H1292.3V222.478ZM1284.28 110.142H1290.29V128.865H1284.28V110.142ZM1282.94 183.361H1291.63V192.054H1282.94V183.361ZM1282.94 201.415H1291.63V210.108H1282.94V201.415ZM1282.61 222.478V241.201H1276.6V222.478H1282.61ZM1282.28 176.34H1276.26V157.618H1282.28V176.34ZM1272.25 77.3777H1280.94V86.0703H1272.25V77.3777ZM1268.58 110.142H1274.59V128.865H1268.58V110.142ZM1266.91 183.361H1275.59V192.054H1266.91V183.361ZM1257.22 315.088H1248.54V306.396H1257.22V315.088ZM1257.22 297.369H1248.54V288.676H1257.22V297.369ZM1257.22 279.649H1248.54V270.956H1257.22V279.649ZM1257.22 261.595H1248.54V252.902H1257.22V261.595ZM1259.89 210.108H1251.21V201.415H1259.89V210.108ZM1259.89 191.719H1251.21V183.027H1259.89V191.719ZM1260.23 157.283H1266.24V176.006H1260.23V157.283ZM1260.56 222.478H1266.58V241.201H1260.56V222.478ZM1270.25 423.078H1261.9V408.367H1270.58V423.078H1270.25ZM1270.25 368.582H1261.9V353.871H1270.58V368.582H1270.25ZM1292.63 368.582H1283.95V353.871H1292.63V368.582ZM1301.65 335.148H1272.92V279.649C1272.92 271.625 1279.27 265.273 1287.29 265.273C1295.3 265.273 1301.65 271.625 1301.65 279.649V335.148ZM1314.68 450.493H1305.99V435.782H1314.68V450.493ZM1314.68 368.582H1305.99V353.871H1314.68V368.582ZM1314.68 183.361H1323.36V192.054H1314.68V183.361ZM1326.37 315.088H1317.68V306.396H1326.37V315.088ZM1326.37 279.649H1317.68V270.956H1326.37V279.649ZM1326.37 261.595H1317.68V252.902H1326.37V261.595ZM1337.06 532.405H1328.37V518.028H1337.06V532.405ZM1337.06 477.908H1328.37V463.198H1337.06V477.908ZM1337.06 423.078H1328.37V408.367H1337.06V423.078ZM1337.06 368.582H1328.37V353.871H1337.06V368.582Z" fill="#EDEDED" />
        <path d="M2251 754.402H2060.6V557.48H2047.23V583.224C2037.88 593.922 2019.17 613.314 1988.78 634.376V557.48H1975.42V579.546C1966.06 590.913 1939.67 620 1891.57 648.753C1888.23 650.759 1884.56 653.099 1880.55 655.105H1878.21V656.442C1826.1 685.195 1743.92 715.954 1627.01 721.972C1494.39 713.279 1404.54 652.096 1351.09 599.94C1309 558.817 1282.94 517.694 1270.25 494.96V450.159H1250.54V480.918H1193.75V450.159H1174.05V489.61C1162.69 511.008 1135.96 555.808 1090.2 599.94C1036.75 651.762 946.896 712.945 814.281 721.972C697.365 715.954 615.525 685.195 563.08 656.442V655.105H560.742C557.067 653.099 553.393 650.759 549.718 648.753C501.282 620 474.892 590.913 465.873 579.546V557.48H452.512V576.871H394.054V557.48H380.692V575.868L379.356 574.531C379.022 574.865 352.967 611.976 291.503 648.753C288.162 650.759 284.488 653.099 280.479 655.105H278.141V656.442C226.03 685.195 143.856 715.954 26.9403 721.972C-105.675 713.279 -195.533 652.096 -248.979 599.94C-311.446 539.092 -338.837 477.24 -339.171 476.906L-344.182 479.915C-344.182 480.249 -336.499 497.634 -320.131 522.709V603.618C-321.467 602.281 -322.803 601.278 -324.139 599.94C-386.605 539.092 -413.997 477.24 -414.331 476.906L-419.342 479.915C-419.342 480.249 -411.659 497.634 -395.29 522.709V754.402H-431.701V762.426H381.026V790.176H394.388V762.092H452.846V789.841H466.207V762.092H1174.05V789.841H1193.75V762.092H1250.54V789.841H1270.25V762.092H1975.42V789.841H1988.78V762.092H2047.23V789.841H2060.6V762.092H2251V754.402ZM2030.87 608.967V754.068H2010.82V626.018C2018.17 620 2025.19 614.317 2030.87 608.967ZM1975.42 588.907V643.069C1972.41 645.075 1969.4 646.747 1966.4 648.753C1964.73 649.756 1963.39 650.759 1961.72 651.427V603.618C1967.4 597.934 1972.07 592.919 1975.42 588.907ZM1305.99 754.402H1288.62V620C1293.97 624.681 1299.98 629.696 1305.99 634.711V754.402ZM1332.05 754.402H1314.68V641.063C1320.36 645.409 1326.03 649.421 1332.05 653.433V754.402ZM1357.77 754.402H1340.4V659.451C1346.08 663.129 1351.76 666.807 1357.77 670.15V754.402ZM1383.82 754.402H1366.45V674.831C1372.13 677.84 1377.81 680.849 1383.82 683.858V754.402ZM1409.55 754.402H1392.18V688.204C1397.85 690.879 1403.53 693.553 1409.55 695.894V754.402ZM1435.6 754.402H1418.23V699.237C1423.91 701.577 1429.59 703.583 1435.6 705.589V754.402ZM1461.32 754.402H1443.95V708.598C1449.63 710.27 1455.31 711.942 1461.32 713.613V754.402ZM1487.38 754.402H1470.01V715.954C1475.69 717.291 1481.36 718.628 1487.38 719.966V754.402ZM1513.1 754.402H1495.73V721.637C1501.41 722.64 1507.42 723.643 1513.1 724.646V754.402ZM1539.15 754.402H1521.78V725.649C1527.46 726.318 1533.48 726.987 1539.15 727.655V754.402ZM1564.88 754.402H1547.51V728.324C1553.18 728.658 1559.2 728.993 1564.88 729.327V754.402ZM1590.93 729.661V754.402H1573.56V729.661C1577.24 729.661 1581.24 729.661 1584.92 729.661C1586.92 729.661 1588.93 729.661 1590.93 729.661ZM1599.28 729.661C1605.3 729.661 1610.97 729.327 1616.65 728.993V754.402H1599.28V729.661ZM1625 728.658C1625.67 728.658 1626.34 728.658 1627.01 728.658C1632.02 728.993 1637.03 729.327 1642.37 729.327V754.402H1625V728.658ZM1651.06 729.661C1654.07 729.661 1656.74 729.661 1659.74 729.661C1662.75 729.661 1665.42 729.661 1668.43 729.661V754.402H1651.06V729.661ZM1676.78 729.327C1682.79 729.327 1688.47 728.993 1694.15 728.658V754.068H1676.78V729.327ZM1702.84 728.658C1708.85 728.324 1714.53 727.99 1720.21 727.655V754.402H1702.84V728.658ZM1728.56 726.652C1734.57 725.984 1740.25 725.649 1745.93 724.981V754.402H1728.56V726.652ZM1754.61 723.978C1760.63 723.309 1766.3 722.306 1771.98 721.637V754.402H1754.61V723.978ZM1780.33 720.3C1786.35 719.297 1792.03 718.294 1797.7 717.291V754.402H1780.33V720.3ZM1806.39 715.619C1812.4 714.282 1818.08 713.279 1823.76 711.942V754.402H1806.39V715.619ZM1832.11 709.601C1838.12 708.264 1843.8 706.592 1849.48 704.921V754.068H1832.11V709.601ZM1858.17 702.58C1864.18 700.909 1869.86 698.903 1875.54 697.231V754.402H1858.17V702.58ZM1883.89 694.222C1889.9 692.216 1895.58 689.876 1901.26 687.87V754.402H1883.89V694.222ZM1909.94 684.192C1915.96 681.852 1921.97 679.177 1927.31 676.502V754.068H1909.94V684.192ZM1935.66 672.49C1941.68 669.481 1947.69 666.472 1953.03 663.463V754.068H1935.66V672.49ZM1956.04 608.967V654.771C1955.71 654.771 1955.71 655.105 1955.37 655.105H1953.03V656.442C1947.69 659.451 1941.68 662.46 1935.66 665.469V626.353C1943.35 620 1950.03 614.317 1956.04 608.967ZM1929.99 630.699V668.144C1923.64 671.153 1916.96 674.162 1909.94 677.171V644.741C1917.29 640.06 1923.97 635.045 1929.99 630.699ZM1894.58 654.436C1897.92 652.43 1901.26 650.424 1904.26 648.418V679.511C1897.92 682.186 1891.24 684.861 1884.22 687.201V660.454C1887.56 658.448 1891.24 656.442 1894.58 654.436ZM1878.21 663.798V689.207C1871.86 691.547 1864.85 693.553 1858.17 695.559V673.828C1865.18 670.484 1871.86 667.141 1878.21 663.798ZM1852.49 676.502V697.231C1845.81 699.237 1839.13 700.909 1832.44 702.58V685.195C1839.13 682.52 1846.14 679.511 1852.49 676.502ZM1826.43 687.535V704.252C1819.75 705.924 1813.07 707.261 1806.39 708.598V695.225C1813.4 692.55 1820.08 690.21 1826.43 687.535ZM1800.71 696.897V709.601C1794.03 710.939 1787.35 711.942 1780.67 713.279V703.249C1787.35 701.243 1794.03 699.237 1800.71 696.897ZM1774.66 704.921V714.282C1767.97 715.285 1761.29 716.288 1754.61 716.957V709.936C1761.63 708.598 1768.31 706.927 1774.66 704.921ZM1748.93 711.607V717.96C1742.25 718.628 1735.57 719.297 1728.89 719.966V715.954C1735.57 714.616 1742.25 713.279 1748.93 711.607ZM1722.88 717.291V720.634C1716.2 721.303 1709.52 721.637 1702.84 721.972V720.969C1709.52 719.631 1716.53 718.628 1722.88 717.291ZM1697.16 721.972C1695.49 721.972 1693.82 721.972 1692.15 722.306C1693.82 721.972 1695.49 721.972 1697.16 721.637V721.972ZM1578.91 722.975C1576.23 722.975 1573.56 722.975 1570.89 722.975V721.637C1573.23 721.972 1575.9 722.306 1578.91 722.975ZM1564.88 720.3V722.64C1558.2 722.306 1551.18 721.972 1544.83 721.303V715.619C1551.18 717.291 1558.2 718.963 1564.88 720.3ZM1539.15 714.282V720.969C1532.47 720.3 1525.46 719.631 1519.11 718.628V708.598C1525.46 710.27 1532.14 712.276 1539.15 714.282ZM1513.1 706.592V717.625C1506.42 716.622 1499.4 715.285 1493.06 714.282V699.237C1499.4 701.577 1506.42 704.252 1513.1 706.592ZM1487.38 696.897V712.945C1480.36 711.607 1473.68 709.936 1467.34 708.264V688.204C1473.68 691.213 1480.36 693.888 1487.38 696.897ZM1461.32 685.195V706.592C1454.31 704.586 1447.63 702.58 1441.28 700.574V674.831C1447.63 678.508 1454.31 681.852 1461.32 685.195ZM1435.6 671.487V698.568C1428.59 696.228 1421.91 693.553 1415.56 690.879V659.117C1421.91 663.464 1428.59 667.475 1435.6 671.487ZM1409.55 655.439V688.538C1402.53 685.529 1395.85 682.52 1389.5 679.511V641.063C1395.85 645.744 1402.53 650.759 1409.55 655.439ZM1383.82 636.717V676.837C1376.81 673.493 1370.13 669.816 1363.78 666.138V620.335C1369.79 625.35 1376.48 631.033 1383.82 636.717ZM1347.41 604.955C1350.75 608.299 1354.43 611.642 1357.77 614.985V662.795C1350.75 658.783 1344.07 654.436 1337.73 650.09V595.594C1340.73 598.269 1344.07 601.612 1347.41 604.955ZM1332.05 589.242V646.078C1325.03 641.063 1318.35 636.048 1312.01 631.033V566.173C1318.02 573.528 1324.7 581.218 1332.05 589.242ZM1306.33 559.152L1305.99 626.353C1298.98 620.669 1291.96 614.651 1285.95 608.967V531.402C1291.96 540.095 1298.64 549.456 1306.33 559.152ZM1280.27 522.709V603.618C1278.93 602.281 1277.6 601.278 1276.26 599.94C1274.26 597.934 1272.25 595.928 1270.25 593.922V506.661C1273.26 511.676 1276.6 517.026 1280.27 522.709ZM1230.83 548.453C1228.83 545.778 1226.49 542.769 1224.82 540.095C1226.82 537.086 1229.16 534.077 1230.83 531.402V548.453ZM1220.81 535.08C1210.79 521.038 1203.44 508.667 1197.76 498.972H1243.86C1238.52 508.667 1230.83 521.038 1220.81 535.08ZM1217.14 540.095C1215.13 542.769 1213.13 545.444 1211.12 548.453V531.402C1213.13 534.077 1215.13 537.086 1217.14 540.095ZM1194.09 503.987C1197.09 509.336 1201.1 515.688 1205.45 522.709V555.808C1201.77 560.155 1198.1 564.835 1194.09 569.516V503.987ZM1211.12 558.149C1214.46 553.802 1217.8 549.456 1221.15 545.11C1224.15 549.456 1227.49 553.802 1231.17 558.149V754.068H1211.46V558.149H1211.12ZM1236.51 522.709C1242.52 513.682 1247.2 505.658 1250.88 498.972V572.859C1245.86 567.176 1241.19 561.492 1236.51 555.808V522.709ZM1174.38 501.646V590.913C1171.37 593.922 1168.7 596.931 1165.69 599.94C1164.36 601.278 1163.02 602.281 1161.69 603.618V522.709C1166.7 515.02 1170.7 507.664 1174.38 501.646ZM505.958 754.402H488.588V663.798C493.933 666.807 499.946 669.816 505.958 672.825V754.402ZM532.014 754.402H514.644V676.837C520.322 679.511 526.001 681.852 532.014 684.526V754.402ZM557.735 754.402H540.365V687.87C546.044 690.21 551.722 692.216 557.735 694.222V754.402ZM583.791 754.402H566.42V697.231C572.099 699.237 577.778 700.909 583.791 702.58V754.402ZM609.512 754.402H592.142V705.255C597.82 706.927 603.499 708.264 609.512 709.936V754.402ZM635.567 754.402H618.197V711.942C623.876 713.279 629.555 714.616 635.567 715.619V754.402ZM661.289 754.402H643.918V717.291C649.597 718.294 655.276 719.297 661.289 720.3V754.402ZM687.344 754.402H669.974V721.637C675.652 722.64 681.331 723.309 687.344 723.978V754.402ZM713.065 754.402H695.695V724.981C701.374 725.649 707.387 726.318 713.065 726.652V754.402ZM739.121 754.402H721.75V727.655C727.429 727.99 733.442 728.324 739.121 728.658V754.402ZM764.842 754.402H747.472V728.993C753.151 729.327 759.163 729.327 764.842 729.661V754.402ZM773.193 729.661C776.2 729.661 778.872 729.661 781.878 729.661C784.885 729.661 787.557 729.661 790.563 729.661V754.402H773.193V729.661ZM799.249 729.327C804.259 728.993 809.604 728.993 814.615 728.658C815.283 728.658 815.951 728.658 816.619 728.658V754.402H799.249V729.327ZM824.97 728.993C830.649 729.327 836.327 729.327 842.34 729.661V754.402H824.97V728.993ZM851.025 729.661C853.03 729.661 855.034 729.661 857.038 729.661C861.047 729.661 864.721 729.661 868.396 729.661V754.402H851.025V729.661ZM876.747 729.327C882.759 728.993 888.438 728.658 894.117 728.324V754.402H876.747V729.327ZM902.802 727.655C908.815 726.987 914.494 726.318 920.172 725.649V754.402H902.802V727.655ZM928.523 724.312C934.536 723.309 940.215 722.306 945.894 721.303V754.068H928.523V724.312ZM954.579 719.631C960.591 718.294 966.27 716.957 971.949 715.619V754.068H954.579V719.631ZM980.3 713.613C986.313 711.942 991.991 710.27 997.67 708.598V754.402H980.3V713.613ZM1006.36 705.589C1012.37 703.583 1018.05 701.577 1023.73 699.237V754.402H1006.36V705.589ZM1032.08 695.559C1038.09 693.219 1043.77 690.544 1049.45 687.87V754.068H1032.08V695.559ZM1058.13 683.858C1064.14 680.849 1069.82 677.84 1075.5 674.831V754.402H1058.13V683.858ZM1083.85 669.816C1089.87 666.472 1095.54 662.795 1101.22 659.117V754.068H1083.85V669.816ZM1109.91 653.433C1115.92 649.421 1121.93 645.075 1127.28 641.063V754.402H1109.91V653.433ZM1135.63 634.376C1141.64 629.361 1147.66 624.681 1153 619.666V754.068H1135.63V634.376ZM1156.01 531.402V608.967C1149.66 614.651 1142.98 620.669 1135.96 626.353V559.152H1135.63C1143.31 549.456 1149.99 540.095 1156.01 531.402ZM1129.95 566.173V631.033C1123.6 636.048 1116.92 641.063 1109.91 646.078V589.242C1117.26 581.218 1123.94 573.528 1129.95 566.173ZM1094.54 604.955C1097.88 601.612 1101.22 598.603 1104.23 595.26V649.756C1097.88 654.102 1091.2 658.449 1084.19 662.461V614.651C1087.53 611.308 1091.2 607.964 1094.54 604.955ZM1078.17 620V665.804C1071.83 669.481 1064.81 673.159 1058.13 676.502V636.382C1065.15 631.033 1071.83 625.35 1078.17 620ZM1052.45 641.063V679.511C1045.77 682.52 1039.09 685.864 1032.41 688.538V655.439C1039.09 650.759 1045.77 645.744 1052.45 641.063ZM1026.4 659.117V690.879C1019.72 693.553 1013.04 695.894 1006.36 698.568V671.487C1013.37 667.475 1020.05 663.464 1026.4 659.117ZM1000.68 674.831V700.574C993.996 702.915 987.315 704.921 980.634 706.592V685.195C987.315 681.852 993.996 678.508 1000.68 674.831ZM974.621 687.87V707.93C967.94 709.601 961.26 711.273 954.579 712.61V696.562C961.594 693.888 968.274 691.213 974.621 687.87ZM948.9 699.237V714.282C942.219 715.619 935.538 716.622 928.857 717.625V706.592C935.538 704.252 942.219 701.577 948.9 699.237ZM922.845 708.264V718.294C916.164 719.297 909.483 719.966 902.802 720.634V713.948C909.483 712.276 916.498 710.27 922.845 708.264ZM897.123 715.619V721.303C890.442 721.972 883.761 722.306 877.081 722.64V720.3C883.761 718.963 890.442 717.291 897.123 715.619ZM871.068 722.64C868.396 722.64 865.723 722.64 863.051 722.64C865.723 722.306 868.396 721.637 871.068 721.303V722.64ZM749.81 722.306C748.14 722.306 746.47 722.306 744.799 721.972V721.303C746.47 721.972 748.14 721.972 749.81 722.306ZM739.121 720.634V721.637C732.44 721.303 725.425 720.969 719.078 720.3V716.957C725.425 718.628 732.106 719.631 739.121 720.634ZM713.065 715.954V719.966C706.05 719.297 699.37 718.628 693.023 717.96V711.607C699.37 713.279 706.385 714.616 713.065 715.954ZM687.344 710.27V717.291C680.329 716.288 673.648 715.619 667.301 714.616V705.255C673.648 706.927 680.329 708.598 687.344 710.27ZM661.289 703.249V713.279C654.274 712.276 647.593 710.939 641.246 709.601V696.897C647.593 699.237 654.274 701.243 661.289 703.249ZM635.567 695.225V708.933C628.552 707.595 621.871 705.924 615.525 704.586V687.87C621.871 690.21 628.552 692.55 635.567 695.225ZM609.512 685.195V702.58C602.497 700.909 595.816 698.903 589.469 697.231V676.502C595.816 679.511 602.497 682.52 609.512 685.195ZM583.791 673.828V695.559C576.776 693.553 570.095 691.213 563.748 689.207V663.798C569.761 667.141 576.442 670.484 583.791 673.828ZM547.38 654.436C550.72 656.442 554.061 658.448 557.735 660.454V687.201C550.72 684.861 544.039 682.186 537.693 679.511V648.418C540.699 650.424 544.039 652.43 547.38 654.436ZM532.014 644.741V677.171C524.999 674.162 518.318 671.153 511.971 668.144V630.699C517.984 635.045 524.665 640.06 532.014 644.741ZM505.958 626.018V665.135C499.946 662.126 493.933 659.117 488.588 656.108V655.105H486.25C485.916 655.105 485.916 654.771 485.582 654.771V608.967C491.595 614.317 498.276 620 505.958 626.018ZM480.237 603.618V651.427C478.567 650.424 476.897 649.422 475.561 648.753C472.554 646.747 469.548 645.075 466.541 643.069V588.907C469.882 592.919 474.224 597.934 480.237 603.618ZM-293.407 754.402H-310.777V620C-305.433 624.681 -299.42 629.696 -293.407 634.711V754.402ZM-267.352 754.402H-284.722V641.063C-279.043 645.409 -273.365 649.421 -267.352 653.433V754.402ZM-241.631 754.402H-259.001V659.451C-253.322 663.129 -247.643 666.807 -241.631 670.15V754.402ZM-215.575 754.402H-232.945V674.831C-227.267 677.84 -221.588 680.849 -215.575 683.858V754.402ZM-189.854 754.402H-207.224V688.204C-201.545 690.879 -195.867 693.553 -189.854 695.894V754.402ZM-163.798 754.402H-181.169V699.237C-175.49 701.577 -169.811 703.583 -163.798 705.589V754.402ZM-138.077 754.402H-155.447V708.598C-149.769 710.27 -144.09 711.942 -138.077 713.613V754.402ZM-112.022 754.402H-129.392V715.954C-123.713 717.291 -118.034 718.628 -112.022 719.966V754.402ZM-86.3004 754.402H-103.671V721.637C-97.9919 722.64 -91.9791 723.643 -86.3004 724.646V754.402ZM-60.579 754.402H-77.9493V725.649C-72.2706 726.318 -66.2578 726.987 -60.579 727.655V754.402ZM-34.5237 754.402H-51.8939V728.324C-46.2152 728.658 -40.2024 728.993 -34.5237 729.327V754.402ZM-8.80228 729.661V754.402H-26.1726V729.661C-22.4981 729.661 -18.4896 729.661 -14.8151 729.661C-12.4768 729.661 -10.4725 729.661 -8.80228 729.661ZM-0.117188 729.661C5.8956 729.661 11.5743 729.327 17.2531 728.993V754.402H-0.117188V729.661ZM25.6041 728.658C26.2722 728.658 26.9403 728.658 27.6084 728.658C32.6191 728.993 37.6297 729.327 42.9744 729.327V754.402H25.6041V728.658ZM51.6595 729.661C54.6659 729.661 57.3383 729.661 60.3447 729.661C63.3511 729.661 66.0234 729.661 69.0298 729.661V754.402H51.6595V729.661ZM77.3809 729.327C83.3936 729.327 89.0724 728.993 94.7512 728.658V754.068H77.3809V729.327ZM103.436 728.658C109.449 728.324 115.128 727.99 120.806 727.655V754.402H103.436V728.658ZM129.158 726.652C135.17 725.984 140.849 725.649 146.528 724.981V754.402H129.158V726.652ZM155.213 723.978C161.226 723.309 166.904 722.306 172.583 721.637V754.402H155.213V723.978ZM180.934 720.3C186.947 719.297 192.626 718.294 198.305 717.291V754.402H180.934V720.3ZM206.99 715.619C213.002 714.282 218.681 713.279 224.36 711.942V754.402H206.99V715.619ZM232.711 709.601C238.724 708.264 244.403 706.592 250.081 704.921V754.068H232.711V709.601ZM258.766 702.58C264.779 700.909 270.458 698.903 276.137 697.231V754.402H258.766V702.58ZM284.488 694.222C290.5 692.216 296.179 689.876 301.858 687.87V754.402H284.488V694.222ZM310.209 684.192C316.222 681.852 322.235 679.177 327.579 676.502V754.068H310.209V684.192ZM336.264 672.49C342.277 669.481 348.29 666.472 353.635 663.463V754.068H336.264V672.49ZM361.986 659.117C364.658 657.446 367.33 656.108 369.669 654.771C373.009 652.765 376.35 650.759 379.356 648.753V754.402H361.986V659.117ZM394.722 592.585C397.728 595.928 401.403 599.606 405.411 603.618V622.675C402.071 625.349 398.396 628.024 394.722 630.699V592.585ZM403.073 592.585H439.15C434.473 597.6 428.46 603.284 421.111 609.636C414.096 603.284 408.084 597.6 403.073 592.585ZM411.09 608.967C412.76 610.639 414.431 611.976 416.435 613.648C414.765 614.985 413.094 616.657 411.09 617.994V608.967ZM411.09 626.018C414.765 623.343 418.105 620.334 421.111 617.66C424.118 620.334 427.458 623.009 431.133 626.018V754.068H411.09V626.018ZM426.122 613.648C427.792 611.976 429.797 610.305 431.467 608.967V617.994C429.463 616.657 427.792 615.32 426.122 613.648ZM437.146 603.618C441.488 599.606 444.828 595.928 447.835 592.585H452.846V634.376C447.167 630.364 441.822 626.687 437.146 622.675V603.618ZM381.026 582.889V639.726C376.35 642.735 371.673 645.744 366.996 648.753C365.326 649.756 363.99 650.759 362.32 651.427V603.618C371.673 594.591 377.686 587.236 381.026 582.889ZM356.307 608.967V654.771C355.973 654.771 355.973 655.105 355.639 655.105H353.301V656.442C347.956 659.451 341.943 662.46 335.93 665.469V626.353C343.947 620 350.628 614.317 356.307 608.967ZM330.586 630.699V668.144C324.239 671.153 317.558 674.162 310.543 677.171V644.741C317.558 640.06 324.573 635.045 330.586 630.699ZM294.843 654.436C298.184 652.43 301.524 650.424 304.53 648.418V679.511C298.183 682.186 291.503 684.861 284.488 687.201V660.454C288.162 658.448 291.503 656.442 294.843 654.436ZM278.809 663.798V689.207C272.462 691.547 265.447 693.553 258.766 695.559V673.828C265.781 670.484 272.462 667.141 278.809 663.798ZM252.754 676.502V697.231C246.073 699.237 239.392 700.909 232.711 702.58V685.195C239.726 682.52 246.407 679.511 252.754 676.502ZM227.032 687.535V704.252C220.351 705.924 213.671 707.261 206.99 708.598V695.225C213.671 692.55 220.685 690.21 227.032 687.535ZM201.311 696.897V709.601C194.63 710.939 187.949 711.942 181.268 713.279V703.249C187.949 701.243 194.63 699.237 201.311 696.897ZM175.256 704.921V714.282C168.575 715.285 161.894 716.288 155.213 716.957V709.936C161.894 708.598 168.575 706.927 175.256 704.921ZM149.534 711.607V717.96C142.853 718.628 136.172 719.297 129.492 719.966V715.954C136.172 714.616 142.853 713.279 149.534 711.607ZM123.479 717.291V720.634C116.798 721.303 110.117 721.637 103.436 721.972V720.969C110.117 719.631 116.798 718.628 123.479 717.291ZM97.7575 721.972C96.0873 721.972 94.4171 721.972 92.7469 722.306C94.4171 721.972 96.0873 721.972 97.7575 721.637V721.972ZM-20.8279 722.975C-23.5002 722.975 -26.1725 722.975 -28.8449 722.975V721.637C-26.1725 721.972 -23.5002 722.306 -20.8279 722.975ZM-34.5237 720.3V722.64C-41.2045 722.306 -48.2195 721.972 -54.5663 721.303V715.619C-48.2195 717.291 -41.5386 718.963 -34.5237 720.3ZM-60.579 714.282V720.969C-67.2599 720.3 -74.2748 719.631 -80.6216 718.628V708.598C-73.9407 710.27 -67.2599 712.276 -60.579 714.282ZM-86.3004 706.592V717.625C-92.9813 716.622 -99.9962 715.285 -106.343 714.282V699.237C-99.9962 701.577 -93.3153 704.252 -86.3004 706.592ZM-112.022 696.897V712.945C-119.037 711.607 -125.717 709.936 -132.064 708.264V688.204C-125.717 691.213 -119.037 693.888 -112.022 696.897ZM-138.077 685.195V706.592C-145.092 704.586 -151.773 702.58 -158.12 700.574V674.831C-151.773 678.508 -145.092 681.852 -138.077 685.195ZM-163.798 671.487V698.568C-170.813 696.228 -177.494 693.553 -183.841 690.879V659.117C-177.828 663.464 -170.813 667.475 -163.798 671.487ZM-189.854 655.439V688.538C-196.869 685.529 -203.55 682.52 -209.896 679.511V641.063C-203.55 645.744 -196.869 650.759 -189.854 655.439ZM-215.575 636.717V676.837C-222.59 673.493 -229.271 669.816 -235.618 666.138V620.335C-229.605 625.35 -222.924 631.033 -215.575 636.717ZM-251.986 604.955C-248.645 608.299 -244.971 611.642 -241.631 614.985V662.795C-248.645 658.783 -255.326 654.436 -261.673 650.09V595.594C-258.667 598.269 -255.326 601.612 -251.986 604.955ZM-267.352 589.242V646.078C-274.367 641.063 -281.048 636.048 -287.394 631.033V566.173C-281.382 573.528 -274.701 581.218 -267.352 589.242ZM-313.45 531.402C-307.437 540.095 -300.756 549.456 -293.073 559.486H-293.407V626.687C-300.422 621.003 -307.437 614.985 -313.45 609.302V531.402ZM-326.812 604.955C-324.473 607.296 -321.801 609.97 -319.129 612.311V754.402H-336.499V595.26C-333.492 598.269 -330.152 601.612 -326.812 604.955ZM-342.512 589.242V754.402H-362.554V566.173C-356.207 573.528 -349.527 581.218 -342.512 589.242ZM-388.276 531.402C-382.263 540.095 -375.582 549.456 -367.899 559.486H-368.233V754.402H-388.276V531.402ZM394.722 638.389C398.396 635.714 402.071 633.039 405.411 630.699V754.402H394.722V638.389ZM437.146 754.402V630.699C442.156 634.377 447.501 638.054 452.846 642.066V754.402H437.146ZM466.207 650.759C468.212 652.096 470.216 653.099 472.22 654.436C474.558 655.774 477.231 657.445 479.903 658.783V754.068H466.207V650.759ZM1161.69 754.402V612.311C1164.36 609.97 1167.03 607.296 1169.37 604.955C1171.04 603.284 1172.71 601.612 1174.38 599.94V754.402H1161.69ZM1194.09 578.877C1197.76 574.531 1201.44 570.185 1205.11 566.173V754.402H1194.09V578.877ZM1236.85 754.402V566.173C1241.19 571.522 1245.86 576.871 1250.54 582.221V754.402H1236.85ZM1270.58 602.949C1271.25 603.618 1271.92 604.287 1272.59 604.955C1274.93 607.296 1277.6 609.97 1280.27 612.311V754.402H1270.58V602.949ZM1961.72 754.402V659.117C1964.39 657.446 1967.06 656.108 1969.4 654.771C1971.41 653.433 1973.41 652.43 1975.42 651.093V754.736H1961.72V754.402ZM1988.78 642.066C1994.46 638.054 1999.8 634.377 2004.81 630.699V754.402H1988.78V642.066ZM2036.55 754.402V603.618C2040.89 599.606 2044.23 595.928 2047.23 592.585V754.402H2036.55Z" fill="#ABABAB" />
    </g>
    <defs>
        <clipPath id="clip0_804_2125">
            <rect width="1441" height="843" fill="white" />
        </clipPath>
    </defs>
</svg>
